<svg width="572" height="523" viewBox="0 0 572 523" fill="none" xmlns="http://www.w3.org/2000/svg">
<g clip-path="url(#clip0_3_199)">
<path d="M426.43 275C405.57 238.467 387.083 206.143 370.97 178.03C370.383 177.017 350.407 141.72 311.04 72.14C294.84 43.5067 286.397 28.57 285.71 27.33C281.843 20.3767 278.087 13.35 274.44 6.25001C274.408 6.1872 274.359 6.13472 274.299 6.09874C274.238 6.06276 274.169 6.04476 274.099 6.04686C274.028 6.04896 273.96 6.07109 273.902 6.11061C273.844 6.15013 273.798 6.20541 273.77 6.27C272.99 7.97667 271.973 9.96001 270.72 12.22C258.027 35.24 244.333 59.38 229.64 84.64C224.58 93.35 219.09 101.89 214.24 110.5C206.23 124.74 198.65 137.17 191.5 149.88C187.113 157.68 183.73 163.593 181.35 167.62C176.37 176.053 161.053 202.09 135.4 245.73C134.873 246.637 131.533 252.407 125.38 263.04C118.453 275.007 111.247 286.8 103.76 298.42C97.1333 308.693 93.5267 314.297 92.94 315.23C82.56 331.583 72.2 347.95 61.86 364.33C53.2 378.06 43.3 394.95 37.27 404.34C32.37 411.96 28 420.49 23.11 427.72C23.0771 427.767 23.0581 427.821 23.0552 427.878C23.0522 427.935 23.0654 427.992 23.0933 428.042C23.1211 428.093 23.1626 428.135 23.2132 428.165C23.2638 428.195 23.3215 428.21 23.38 428.21C34.7133 428.043 41.17 427.963 42.75 427.97C61.63 428.01 177.297 428.043 389.75 428.07C471.11 428.083 521.363 428.157 540.51 428.29C544.53 428.317 548.2 428.383 551.52 428.49C551.613 428.493 551.704 428.471 551.785 428.426C551.866 428.381 551.933 428.315 551.979 428.235C552.025 428.155 552.049 428.064 552.047 427.971C552.046 427.879 552.019 427.788 551.97 427.71C545.963 418.07 540.717 409.313 536.23 401.44C532.203 394.36 528.853 388.603 526.18 384.17C512.453 361.397 499.087 338.883 486.08 316.63C481.507 308.817 478.12 303.093 475.92 299.46C464.207 280.12 453.663 262.05 444.29 245.25C444.15 244.99 444.017 244.993 443.89 245.26C438.983 255.573 433.29 265.49 426.81 275.01C426.677 275.203 426.55 275.2 426.43 275Z" stroke="#8391A2" stroke-width="2"/>
<path d="M155.68 483.79C155.683 483.654 155.739 483.524 155.836 483.429C155.933 483.333 156.064 483.28 156.2 483.28L171.05 483.19C171.186 483.19 171.317 483.137 171.414 483.041C171.511 482.946 171.567 482.816 171.57 482.68L171.68 478.08C171.681 478.011 171.669 477.942 171.643 477.878C171.618 477.814 171.58 477.755 171.531 477.706C171.483 477.656 171.425 477.617 171.361 477.591C171.298 477.564 171.229 477.55 171.16 477.55L156.3 477.42C156.162 477.42 156.03 477.365 155.932 477.268C155.835 477.17 155.78 477.038 155.78 476.9L155.82 467.88C155.82 467.742 155.875 467.61 155.972 467.512C156.07 467.415 156.202 467.36 156.34 467.36L175.7 467.47C175.771 467.47 175.841 467.456 175.906 467.428C175.971 467.4 176.03 467.359 176.079 467.307C176.127 467.256 176.165 467.195 176.189 467.128C176.214 467.062 176.224 466.991 176.22 466.92L175.98 461.74C175.975 461.606 175.918 461.478 175.821 461.385C175.724 461.292 175.595 461.24 175.46 461.24L150.09 461.25C149.952 461.25 149.82 461.305 149.722 461.402C149.625 461.5 149.57 461.632 149.57 461.77L149.5 498.58C149.5 498.718 149.555 498.85 149.652 498.948C149.75 499.045 149.882 499.1 150.02 499.1L172.76 499.17C172.829 499.171 172.898 499.159 172.962 499.133C173.026 499.108 173.085 499.07 173.134 499.021C173.184 498.973 173.223 498.915 173.249 498.851C173.276 498.788 173.29 498.719 173.29 498.65L173.34 493.7C173.34 493.562 173.285 493.43 173.188 493.332C173.09 493.235 172.958 493.18 172.82 493.18L156.11 493.38C156.042 493.38 155.974 493.367 155.911 493.34C155.848 493.314 155.791 493.276 155.742 493.228C155.694 493.179 155.656 493.122 155.63 493.059C155.603 492.996 155.59 492.928 155.59 492.86L155.68 483.79Z" stroke="#8391A2" stroke-width="2"/>
<path d="M206.33 468.79V498.47C206.33 499.23 206.71 499.61 207.47 499.61H210.83C211.637 499.61 212.04 499.21 212.04 498.41V469.01C212.04 468.183 212.45 467.77 213.27 467.77H223.43C224.077 467.77 224.4 467.447 224.4 466.8V462.25C224.4 462.011 224.305 461.782 224.136 461.614C223.968 461.445 223.739 461.35 223.5 461.35H190.03C189.929 461.35 189.833 461.389 189.761 461.458C189.69 461.528 189.65 461.622 189.65 461.72V466.53C189.651 466.693 189.71 466.85 189.817 466.971C189.924 467.093 190.071 467.171 190.23 467.19C193.497 467.563 195.583 467.733 196.49 467.7C199.523 467.573 202.567 467.677 205.62 468.01C206.093 468.057 206.33 468.317 206.33 468.79Z" stroke="#8391A2" stroke-width="2"/>
<path d="M294.79 484.07C294.79 483.916 294.851 483.769 294.96 483.66C295.069 483.551 295.216 483.49 295.37 483.49L312.66 483.29C312.802 483.288 312.939 483.234 313.044 483.139C313.149 483.043 313.215 482.911 313.23 482.77L313.75 478.08C313.76 477.999 313.752 477.917 313.728 477.839C313.704 477.761 313.664 477.689 313.61 477.628C313.557 477.566 313.49 477.517 313.416 477.483C313.342 477.449 313.262 477.431 313.18 477.43L295.47 477.2C295.318 477.197 295.173 477.135 295.066 477.027C294.96 476.918 294.9 476.772 294.9 476.62V468.29C294.9 468.138 294.96 467.992 295.066 467.883C295.173 467.775 295.318 467.713 295.47 467.71L314.11 467.45C314.259 467.448 314.401 467.388 314.507 467.284C314.613 467.18 314.675 467.039 314.68 466.89L314.88 461.89C314.884 461.81 314.872 461.731 314.844 461.656C314.816 461.582 314.773 461.514 314.718 461.457C314.662 461.399 314.596 461.354 314.522 461.324C314.449 461.293 314.37 461.279 314.29 461.28L289.43 461.41C289.276 461.41 289.129 461.471 289.02 461.58C288.911 461.689 288.85 461.836 288.85 461.99L288.91 498.22C288.91 498.372 288.97 498.518 289.076 498.627C289.183 498.735 289.328 498.797 289.48 498.8L313.27 499.06C313.42 499.06 313.565 499.002 313.673 498.897C313.781 498.793 313.845 498.65 313.85 498.5L313.97 493.71C313.973 493.632 313.96 493.555 313.932 493.482C313.904 493.409 313.861 493.343 313.807 493.287C313.753 493.231 313.688 493.186 313.617 493.156C313.545 493.126 313.468 493.11 313.39 493.11L295.27 493.2C295.193 493.2 295.117 493.185 295.046 493.155C294.975 493.125 294.91 493.082 294.856 493.027C294.802 492.972 294.76 492.907 294.731 492.835C294.703 492.763 294.689 492.687 294.69 492.61L294.79 484.07Z" stroke="#8391A2" stroke-width="2"/>
<path d="M393.1 494.07C393.104 493.974 393.088 493.878 393.054 493.788C393.019 493.698 392.967 493.617 392.899 493.548C392.831 493.48 392.75 493.426 392.661 493.39C392.572 493.354 392.476 493.337 392.38 493.34L378.03 493.8C377.936 493.803 377.842 493.786 377.754 493.752C377.666 493.717 377.586 493.665 377.518 493.599C377.451 493.532 377.398 493.453 377.362 493.366C377.326 493.278 377.309 493.185 377.31 493.09L377.52 461.99C377.522 461.893 377.503 461.796 377.465 461.707C377.428 461.617 377.372 461.537 377.301 461.47C377.231 461.403 377.147 461.352 377.056 461.319C376.964 461.286 376.867 461.273 376.77 461.28L372.35 461.66C372.177 461.675 372.015 461.754 371.897 461.881C371.778 462.009 371.712 462.176 371.71 462.35L371.75 498.5C371.75 498.592 371.768 498.683 371.803 498.768C371.838 498.853 371.89 498.93 371.955 498.995C372.02 499.06 372.097 499.112 372.182 499.147C372.267 499.182 372.358 499.2 372.45 499.2L392.25 499.18C392.429 499.178 392.6 499.107 392.728 498.982C392.857 498.858 392.932 498.689 392.94 498.51L393.1 494.07Z" stroke="#8391A2" stroke-width="2"/>
<path d="M476.91 480.1C480.67 476.653 481.69 472.55 479.97 467.79C479.19 465.643 477.77 463.96 475.71 462.74C474.45 461.993 472.423 461.58 469.63 461.5C463.537 461.333 458.66 461.277 455 461.33C454.513 461.337 454.27 461.583 454.27 462.07V498.32C454.27 498.515 454.345 498.703 454.48 498.843C454.614 498.983 454.797 499.065 454.99 499.07C461.643 499.263 467.717 499.177 473.21 498.81C477.183 498.543 479.777 496.877 480.99 493.81C483.237 488.123 481.9 483.763 476.98 480.73C476.68 480.543 476.657 480.333 476.91 480.1Z" stroke="#8391A2" stroke-width="2"/>
<path d="M349.85 485.34C354.47 483.427 357.113 480.317 357.78 476.01C358.333 472.45 357.663 469.3 355.77 466.56C353.63 463.447 350.473 461.753 346.3 461.48C344.8 461.38 339.933 461.46 331.7 461.72C331.367 461.733 331.2 461.91 331.2 462.25V498.49C331.2 499.137 331.523 499.473 332.17 499.5L336.01 499.65C336.45 499.663 336.68 499.45 336.7 499.01L337.17 486.52C337.175 486.398 337.205 486.279 337.258 486.168C337.311 486.058 337.386 485.96 337.478 485.88C337.571 485.799 337.679 485.738 337.796 485.701C337.913 485.663 338.037 485.649 338.16 485.66C340.913 485.907 343.143 487.33 344.85 489.93C346.51 492.47 348.063 495.043 349.51 497.65C350.143 498.79 351.113 499.36 352.42 499.36H356.01C357.537 499.36 357.843 498.75 356.93 497.53C354.203 493.87 351.747 490.08 349.56 486.16C349.52 486.088 349.496 486.009 349.489 485.927C349.482 485.845 349.493 485.762 349.52 485.685C349.547 485.607 349.591 485.536 349.648 485.477C349.705 485.417 349.774 485.371 349.85 485.34Z" stroke="#8391A2" stroke-width="2"/>
<path d="M109.6 493.42C114.693 493.733 120.07 493.723 125.73 493.39C125.958 493.378 126.184 493.438 126.377 493.559C126.571 493.681 126.722 493.859 126.81 494.07L128.21 497.47C128.334 497.769 128.545 498.024 128.816 498.204C129.086 498.384 129.404 498.48 129.73 498.48H134.26C134.827 498.48 135.003 498.22 134.79 497.7C130.683 487.513 126.963 478.477 123.63 470.59C123.163 469.483 121.913 466.91 119.88 462.87C119.724 462.561 119.485 462.301 119.188 462.119C118.892 461.937 118.55 461.84 118.2 461.84H115.97C115.577 461.84 115.29 462.017 115.11 462.37C109.157 474.15 103.943 485.993 99.47 497.9C99.1767 498.68 99.4467 499.07 100.28 499.07H105.29C106.11 499.07 106.67 498.693 106.97 497.94L108.49 494.12C108.578 493.901 108.732 493.716 108.932 493.59C109.131 493.465 109.365 493.405 109.6 493.42Z" stroke="#8391A2" stroke-width="2"/>
<path d="M265.39 477H247.68C247.34 477 247.17 476.83 247.17 476.49V461.98C247.17 461.873 247.113 461.82 247 461.82H241.32C241.153 461.82 241.07 461.903 241.07 462.07C241.01 472.697 241.06 483.397 241.22 494.17C241.24 495.42 241.67 497.22 241.58 498.47C241.547 498.963 241.78 499.21 242.28 499.21H245.98C246.587 499.21 246.89 498.907 246.89 498.3V484.05C246.89 483.827 246.977 483.614 247.133 483.456C247.289 483.299 247.5 483.21 247.72 483.21H265.51C265.656 483.21 265.796 483.268 265.899 483.371C266.002 483.474 266.06 483.614 266.06 483.76V498.49C266.06 498.903 266.267 499.11 266.68 499.11H271.17C271.349 499.11 271.52 499.04 271.647 498.914C271.775 498.789 271.847 498.619 271.85 498.44C272.017 486.66 271.95 474.653 271.65 462.42C271.643 462.033 271.443 461.84 271.05 461.84H266.89C266.357 461.84 266.09 462.107 266.09 462.64V476.3C266.09 476.767 265.857 477 265.39 477Z" stroke="#8391A2" stroke-width="2"/>
<path d="M413.17 493.07C417.763 493.263 423.59 493.287 430.65 493.14C430.968 493.133 431.281 493.223 431.546 493.396C431.812 493.569 432.019 493.818 432.14 494.11L433.92 498.43C434.053 498.75 434.293 498.917 434.64 498.93L440.04 499.13C440.095 499.133 440.149 499.122 440.199 499.098C440.248 499.074 440.29 499.037 440.321 498.992C440.352 498.947 440.371 498.894 440.376 498.84C440.381 498.785 440.372 498.73 440.35 498.68C435.683 487.627 431.3 477.533 427.2 468.4C426.19 466.14 425.84 464.2 425.02 462.27C424.873 461.937 424.62 461.773 424.26 461.78L419.25 461.91C419.023 461.917 418.817 462.12 418.63 462.52C418.557 462.673 418.193 463.48 417.54 464.94C414.08 472.653 410.91 479.693 408.03 486.06C407.543 487.127 406.12 491.307 403.76 498.6C403.72 498.727 403.767 498.79 403.9 498.79H410.1C410.227 498.79 410.313 498.73 410.36 498.61L412.36 493.6C412.424 493.439 412.536 493.302 412.681 493.207C412.826 493.112 412.997 493.064 413.17 493.07Z" stroke="#8391A2" stroke-width="2"/>
<path d="M277.25 41.22C277.583 42.42 277.76 43.54 277.78 44.58C278.033 59.8267 278.11 75.8267 278.01 92.58C277.843 120.64 277.783 146.063 277.83 168.85C277.837 169.539 278.015 170.216 278.35 170.82C280.377 174.44 282.283 177.83 284.07 180.99C296.99 203.837 311.447 228.01 327.44 253.51C328.26 254.817 331.387 260.05 336.82 269.21C340.093 274.737 343.343 279.817 346.57 284.45C347.077 285.177 347.887 286.983 349 289.87C349.12 290.183 349.347 290.357 349.68 290.39C350.64 290.49 351.663 290.543 352.75 290.55C354.577 290.557 373.743 290.53 410.25 290.47C413.843 290.463 416.69 290.523 418.79 290.65C418.853 290.652 418.915 290.638 418.97 290.61C419.026 290.581 419.074 290.539 419.109 290.487C419.144 290.435 419.165 290.375 419.17 290.312C419.176 290.25 419.165 290.187 419.14 290.13C418.227 288.137 417.467 286.62 416.86 285.58C411.89 277.04 406.59 268.98 401.89 260.45C394.423 246.903 383.223 227.21 368.29 201.37C365.47 196.49 362.177 190.693 358.41 183.98C342.97 156.433 327.217 128.687 311.15 100.74C309.377 97.6467 306.44 92.3634 302.34 84.89C296.6 74.44 290.4 64.94 285.49 54.79C283.403 50.4833 280.787 45.7167 277.64 40.49C277.353 40.01 277.183 40.06 277.13 40.64C277.123 40.7067 277.163 40.9 277.25 41.22Z" stroke="#8391A2" stroke-width="2"/>
<path d="M196.18 287.79C196.34 287.243 197.16 285.88 198.64 283.7C200.173 281.453 201.057 280.14 201.29 279.76C218.83 251.107 236.093 222.283 253.08 193.29C254.02 191.69 256.013 188.073 259.06 182.44C261.753 177.46 263.85 173.903 265.35 171.77C266.177 170.603 266.63 169.333 266.71 167.96C266.957 163.727 267.077 158.99 267.07 153.75C267.037 101.897 267.07 68.8167 267.17 54.51C267.19 51.83 267.32 49.3834 267.56 47.17C267.647 46.3167 267.487 46.2667 267.08 47.02C256.167 67.12 245.003 86.9733 233.59 106.58C195.55 171.9 171.547 213.093 161.58 230.16C158.187 235.973 154.767 241.69 151.32 247.31C143.373 260.283 135.973 272.89 129.12 285.13C128.213 286.75 127.45 288.337 126.83 289.89C126.805 289.949 126.796 290.013 126.803 290.077C126.81 290.14 126.833 290.201 126.869 290.255C126.906 290.308 126.955 290.352 127.013 290.382C127.07 290.413 127.135 290.429 127.2 290.43H195.15C195.335 290.43 195.514 290.36 195.649 290.234C195.785 290.108 195.867 289.935 195.88 289.75L195.95 288.75C195.963 288.63 196.04 288.31 196.18 287.79Z" stroke="#8391A2" stroke-width="2"/>
<path d="M218.67 270.7C217.977 271.907 218.15 272.047 219.19 271.12C226.46 264.64 235.74 258.68 243.3 254.11C251.23 249.33 259.12 242.8 266.92 238.2C267.207 238.033 267.39 237.787 267.47 237.46C267.73 236.433 267.86 235.04 267.86 233.28C267.84 220.493 268.05 207.11 268.49 193.13C268.51 192.43 268.6 191.533 268.76 190.44C268.907 189.433 268.987 188.537 269 187.75C269.007 187.19 268.863 187.15 268.57 187.63C265.77 192.11 263.38 196.107 261.4 199.62C257.54 206.433 255.23 210.487 254.47 211.78C241.443 233.88 232.8 248.22 228.54 254.8C224.2 261.513 220.91 266.813 218.67 270.7Z" stroke="#8391A2" stroke-width="2"/>
<path d="M276.28 187.91C276.647 191.39 276.877 194.253 276.97 196.5C277.077 199.187 277.217 212.183 277.39 235.49C277.393 235.92 277.505 236.342 277.715 236.717C277.924 237.093 278.225 237.41 278.59 237.64C283.55 240.77 288.1 244.76 293.21 248.25C297.277 251.023 305.657 256.66 318.35 265.16C320.69 266.733 323.083 268.607 325.53 270.78C326.33 271.493 326.423 271.41 325.81 270.53C324.823 269.13 324.267 268.323 324.14 268.11C315.787 254.13 308.783 242.587 303.13 233.48C293.64 218.2 284.92 203.01 276.45 187.85C276.446 187.839 276.44 187.829 276.432 187.82C276.424 187.811 276.415 187.804 276.404 187.799C276.393 187.794 276.382 187.791 276.37 187.79C276.358 187.789 276.346 187.791 276.335 187.795C276.324 187.799 276.314 187.805 276.305 187.813C276.296 187.821 276.289 187.83 276.284 187.841C276.279 187.852 276.276 187.863 276.275 187.875C276.274 187.887 276.276 187.899 276.28 187.91Z" stroke="#8391A2" stroke-width="2"/>
<path d="M277.41 260.65C277.41 260.833 277.469 261.012 277.579 261.16C277.688 261.309 277.843 261.421 278.02 261.48C285.67 263.92 293.47 267.87 301.11 270.59C316.75 276.17 326.833 279.783 331.36 281.43C331.76 281.577 332 281.647 332.08 281.64C332.9 281.593 332.997 281.307 332.37 280.78C328.617 277.673 324.54 274.723 320.14 271.93C312.473 267.063 308.177 264.317 307.25 263.69C300.237 258.917 293.763 254.697 287.83 251.03C285.01 249.29 280.92 246.45 277.99 244.28C277.603 243.993 277.41 244.087 277.41 244.56V260.65Z" stroke="#8391A2" stroke-width="2"/>
<path d="M268.13 244.38C256.557 251.52 246.017 258.3 236.51 264.72C230.36 268.87 223.94 272.8 217.63 276.82C215.68 278.06 214.22 279.48 212.62 281.14C212.047 281.74 212.167 281.957 212.98 281.79C214.047 281.57 214.81 281.38 215.27 281.22C223.36 278.34 230.87 275.9 237.87 273.01C241.37 271.563 246.177 269.717 252.29 267.47C256.483 265.93 261.61 263.857 267.67 261.25C267.786 261.202 267.886 261.121 267.957 261.018C268.028 260.915 268.067 260.794 268.07 260.67L268.68 244.7C268.683 244.635 268.667 244.57 268.636 244.512C268.604 244.455 268.558 244.407 268.501 244.374C268.445 244.342 268.38 244.325 268.315 244.326C268.249 244.327 268.186 244.345 268.13 244.38Z" stroke="#8391A2" stroke-width="2"/>
<path d="M221.24 285.1C221.207 285.113 221.173 285.12 221.14 285.12C221.127 285.12 221.12 285.123 221.12 285.13C221.127 285.137 221.13 285.143 221.13 285.15C221.13 285.17 221.137 285.18 221.15 285.18C222.45 285.093 223.7 284.97 224.9 284.81C226.467 284.597 227.71 284.457 228.63 284.39C259.45 282.21 290.763 282.26 322.57 284.54C323.257 284.587 323.283 284.473 322.65 284.2C317.91 282.16 311.99 280.69 307.88 279.21C297.38 275.403 286.267 271.11 274.54 266.33C273.886 266.066 273.154 266.066 272.5 266.33C265.6 269.083 259.123 271.473 253.07 273.5C248.077 275.173 244.333 276.54 241.84 277.6C238.167 279.16 234.407 280.487 230.56 281.58C230.4 281.627 227.293 282.8 221.24 285.1Z" stroke="#8391A2" stroke-width="2"/>
<path d="M448.79 316.43C444.123 320.143 438.347 324.28 431.46 328.84C425.913 332.513 420.407 336.27 414.94 340.11C399.38 351.05 390.527 357.22 388.38 358.62C373.873 368.107 359.413 377.667 345 387.3C336.36 393.07 322.88 401.62 312.09 409.19C309.31 411.14 306.87 412.45 303.67 414.16C302.277 414.9 302.37 415.243 303.95 415.19C310.717 414.95 319.567 414.817 330.5 414.79C335.093 414.777 400.817 414.753 527.67 414.72C527.732 414.72 527.793 414.703 527.846 414.672C527.9 414.641 527.944 414.596 527.974 414.542C528.005 414.489 528.021 414.427 528.02 414.366C528.019 414.304 528.002 414.243 527.97 414.19L444.05 273.34C444.029 273.304 444 273.275 443.963 273.256C443.927 273.236 443.886 273.227 443.844 273.229C443.802 273.231 443.761 273.244 443.726 273.267C443.69 273.29 443.66 273.322 443.64 273.36C441.16 278.167 437.957 283.32 434.03 288.82C433.939 288.949 433.89 289.104 433.89 289.263C433.89 289.422 433.939 289.578 434.03 289.71C435.08 291.24 436.43 293.01 437.22 294.44C441.84 302.76 445.767 309.723 449 315.33C449.102 315.508 449.137 315.717 449.099 315.919C449.06 316.121 448.951 316.302 448.79 316.43Z" stroke="#8391A2" stroke-width="2"/>
<path d="M205.86 290.7C205.86 291.16 207.99 291.433 212.25 291.52C232.497 291.913 252.74 292.11 272.98 292.11C293.22 292.103 313.463 291.9 333.71 291.5C337.97 291.413 340.1 291.14 340.1 290.68C340.1 290.213 337.97 289.937 333.71 289.85C313.463 289.457 293.22 289.263 272.98 289.27C252.74 289.27 232.497 289.47 212.25 289.87C207.99 289.957 205.86 290.233 205.86 290.7Z" stroke="#8391A2" stroke-width="2"/>
<path d="M266.99 412.71V338.18C266.99 337.925 266.927 337.674 266.807 337.449C266.686 337.223 266.512 337.032 266.3 336.89C254.867 329.27 241.803 320.81 227.11 311.51C222.73 308.737 218.613 306.347 214.76 304.34C213.327 303.587 211.99 303.207 210.75 303.2C189.917 303.06 160.833 303.097 123.5 303.31C121.867 303.323 119.753 303.507 117.16 303.86C116.813 303.907 116.513 304.07 116.26 304.35L115.03 305.7C114.711 306.052 114.547 306.519 114.573 306.999C114.599 307.48 114.814 307.936 115.17 308.27C116.363 309.397 117.51 310.347 118.61 311.12C134.777 322.493 158.48 338.893 189.72 360.32C212.56 375.973 226.113 385.327 230.38 388.38C236.44 392.713 241.943 396.487 246.89 399.7C253.59 404.053 260.13 408.473 266.51 412.96C266.554 412.993 266.607 413.012 266.662 413.016C266.716 413.021 266.772 413.009 266.821 412.983C266.871 412.958 266.913 412.918 266.942 412.87C266.972 412.822 266.989 412.767 266.99 412.71Z" stroke="#8391A2" stroke-width="2"/>
<path d="M237.56 303.84C239.85 304.8 242.11 305.95 244.35 307.42C257.077 315.793 266.03 321.63 271.21 324.93C271.633 325.196 272.121 325.339 272.62 325.34C273.119 325.342 273.607 325.203 274.03 324.94C281.49 320.287 290.03 314.693 299.65 308.16C301.797 306.7 304.22 305.23 306.92 303.75C307.673 303.337 307.62 303.14 306.76 303.16C282.48 303.773 259.46 303.783 237.7 303.19C236.48 303.157 236.433 303.373 237.56 303.84Z" stroke="#8391A2" stroke-width="2"/>
<path d="M278.89 337.08C278.675 337.215 278.497 337.403 278.373 337.625C278.249 337.846 278.183 338.096 278.18 338.35C277.853 371.203 277.903 395.66 278.33 411.72C278.337 412.053 278.363 412.32 278.41 412.52C278.44 412.677 278.509 412.824 278.609 412.949C278.709 413.073 278.839 413.172 278.986 413.236C279.133 413.3 279.294 413.327 279.455 413.316C279.616 413.304 279.772 413.254 279.91 413.17C292.457 405.377 305.48 396.853 318.98 387.6C321.253 386.04 326.813 382.353 335.66 376.54C369.09 354.57 398.97 334.94 430.81 311.84C430.971 311.722 431.082 311.548 431.123 311.352C431.164 311.157 431.131 310.953 431.03 310.78L426.59 303.32C426.537 303.233 426.457 303.19 426.35 303.19C405.483 303.203 374.283 303.207 332.75 303.2C331.783 303.2 331.193 303.277 330.98 303.43C319.827 311.183 310.917 317.017 304.25 320.93C295.2 326.24 287.85 331.49 278.89 337.08Z" stroke="#8391A2" stroke-width="2"/>
<path d="M106.52 320.5C106.3 320.367 106.137 320.413 106.03 320.64C105.17 322.513 104.213 324.273 103.16 325.92C81.7533 359.307 63.7233 387.857 49.07 411.57C48.67 412.217 48.1933 413.157 47.64 414.39C47.6232 414.427 47.6159 414.467 47.6188 414.507C47.6217 414.548 47.6347 414.586 47.6567 414.62C47.6786 414.654 47.7087 414.682 47.7443 414.701C47.7798 414.72 47.8196 414.73 47.86 414.73H245.25C245.95 414.73 246.003 414.547 245.41 414.18C240.263 410.967 235.26 407.74 230.4 404.5C201.653 385.3 170.123 363.797 135.81 339.99C124.197 331.93 114.433 325.433 106.52 320.5Z" stroke="#8391A2" stroke-width="2"/>
<path d="M460.51 467.71L460.41 476.89C460.41 476.92 460.416 476.95 460.427 476.978C460.439 477.006 460.456 477.031 460.477 477.053C460.499 477.074 460.524 477.091 460.552 477.102C460.58 477.114 460.61 477.12 460.64 477.12L467.29 477.19C468.975 477.207 470.596 476.794 471.796 476.04C472.996 475.286 473.677 474.254 473.69 473.17L473.71 471.71C473.716 471.172 473.558 470.638 473.244 470.138C472.929 469.638 472.465 469.182 471.878 468.796C471.291 468.409 470.593 468.1 469.823 467.887C469.053 467.673 468.226 467.558 467.39 467.55L460.74 467.48C460.679 467.48 460.621 467.504 460.577 467.547C460.534 467.59 460.51 467.649 460.51 467.71Z" stroke="#8391A2" stroke-width="2"/>
<path d="M460.35 483.76L460.62 493.35C460.62 493.424 460.65 493.495 460.702 493.548C460.755 493.6 460.826 493.63 460.9 493.63L467.92 493.43C468.902 493.403 469.872 493.247 470.773 492.971C471.673 492.694 472.488 492.304 473.169 491.821C473.851 491.338 474.387 490.772 474.745 490.156C475.104 489.54 475.279 488.885 475.26 488.23L475.25 488.05C475.213 486.728 474.391 485.481 472.964 484.585C471.537 483.689 469.622 483.216 467.64 483.27L460.62 483.47C460.583 483.471 460.547 483.48 460.514 483.495C460.48 483.51 460.45 483.532 460.425 483.559C460.4 483.586 460.38 483.618 460.367 483.652C460.355 483.687 460.349 483.723 460.35 483.76Z" stroke="#8391A2" stroke-width="2"/>
<path d="M337.2 469.35L337.18 478.91C337.18 479.199 337.295 479.476 337.499 479.681C337.704 479.885 337.981 480 338.27 480L344.78 480.01C345.629 480.012 346.469 479.874 347.253 479.606C348.038 479.338 348.751 478.945 349.352 478.448C349.952 477.951 350.429 477.361 350.755 476.711C351.081 476.061 351.249 475.364 351.25 474.66V473.64C351.252 472.219 350.574 470.855 349.364 469.848C348.155 468.841 346.513 468.273 344.8 468.27L338.29 468.26C338.001 468.26 337.724 468.375 337.519 468.579C337.315 468.784 337.2 469.061 337.2 469.35Z" stroke="#8391A2" stroke-width="2"/>
<path d="M117.58 488.76C119.6 488.753 121.617 488.707 123.63 488.62C123.679 488.618 123.726 488.603 123.768 488.579C123.809 488.554 123.845 488.52 123.87 488.478C123.896 488.437 123.911 488.39 123.914 488.342C123.918 488.293 123.909 488.245 123.89 488.2C121.743 483.54 119.913 478.73 118.4 473.77C118.04 472.577 117.75 471.98 117.53 471.98C117.303 471.98 117.017 472.58 116.67 473.78C115.19 478.747 113.393 483.567 111.28 488.24C111.26 488.285 111.252 488.333 111.256 488.382C111.259 488.43 111.274 488.477 111.3 488.518C111.325 488.56 111.361 488.594 111.402 488.619C111.444 488.643 111.491 488.658 111.54 488.66C113.553 488.733 115.567 488.767 117.58 488.76Z" stroke="#8391A2" stroke-width="2"/>
<path d="M421.42 469.54C421.353 469.673 421.367 469.803 421.46 469.93C421.485 469.966 421.519 469.995 421.558 470.015C421.598 470.034 421.642 470.044 421.686 470.042C421.73 470.04 421.772 470.027 421.81 470.004C421.847 469.98 421.878 469.948 421.9 469.91C422.053 469.643 422.027 469.467 421.82 469.38C421.64 469.307 421.507 469.36 421.42 469.54Z" stroke="#8391A2" stroke-width="2"/>
<path d="M421.57 488.8C423.803 488.8 425.863 488.753 427.75 488.66C427.811 488.656 427.871 488.638 427.924 488.607C427.977 488.576 428.021 488.533 428.054 488.481C428.088 488.43 428.108 488.371 428.114 488.31C428.12 488.249 428.112 488.187 428.09 488.13C425.403 481.15 423.273 475.44 421.7 471C421.673 470.927 421.643 470.89 421.61 470.89C421.577 470.89 421.547 470.927 421.52 471C419.927 475.433 417.77 481.133 415.05 488.1C415.028 488.156 415.02 488.217 415.025 488.278C415.031 488.338 415.05 488.396 415.082 488.448C415.114 488.499 415.158 488.542 415.21 488.574C415.261 488.606 415.32 488.625 415.38 488.63C417.267 488.73 419.33 488.787 421.57 488.8Z" stroke="#8391A2" stroke-width="2"/>
<path d="M801 -268V652H-223V-268H801ZM426.43 275C405.57 238.467 387.083 206.143 370.97 178.03C370.383 177.017 350.407 141.72 311.04 72.14C294.84 43.5067 286.397 28.57 285.71 27.33C281.843 20.3767 278.087 13.35 274.44 6.25C274.408 6.18719 274.359 6.1347 274.299 6.09872C274.238 6.06274 274.169 6.04475 274.099 6.04684C274.028 6.04894 273.96 6.07107 273.902 6.1106C273.844 6.15012 273.798 6.2054 273.77 6.26999C272.99 7.97666 271.973 9.96 270.72 12.22C258.027 35.24 244.333 59.38 229.64 84.64C224.58 93.35 219.09 101.89 214.24 110.5C206.23 124.74 198.65 137.17 191.5 149.88C187.113 157.68 183.73 163.593 181.35 167.62C176.37 176.053 161.053 202.09 135.4 245.73C134.873 246.637 131.533 252.407 125.38 263.04C118.453 275.007 111.247 286.8 103.76 298.42C97.1333 308.693 93.5267 314.297 92.94 315.23C82.56 331.583 72.2 347.95 61.86 364.33C53.2 378.06 43.3 394.95 37.27 404.34C32.37 411.96 28 420.49 23.11 427.72C23.0771 427.767 23.0581 427.821 23.0552 427.878C23.0522 427.935 23.0654 427.992 23.0933 428.042C23.1211 428.093 23.1626 428.135 23.2132 428.165C23.2638 428.195 23.3215 428.21 23.38 428.21C34.7133 428.043 41.17 427.963 42.75 427.97C61.63 428.01 177.297 428.043 389.75 428.07C471.11 428.083 521.363 428.157 540.51 428.29C544.53 428.317 548.2 428.383 551.52 428.49C551.612 428.493 551.704 428.471 551.785 428.426C551.866 428.381 551.933 428.315 551.979 428.235C552.025 428.155 552.049 428.064 552.047 427.971C552.046 427.879 552.019 427.788 551.97 427.71C545.963 418.07 540.717 409.313 536.23 401.44C532.203 394.36 528.853 388.603 526.18 384.17C512.453 361.397 499.087 338.883 486.08 316.63C481.507 308.817 478.12 303.093 475.92 299.46C464.207 280.12 453.663 262.05 444.29 245.25C444.15 244.99 444.017 244.993 443.89 245.26C438.983 255.573 433.29 265.49 426.81 275.01C426.677 275.203 426.55 275.2 426.43 275ZM155.68 483.79C155.683 483.654 155.739 483.524 155.836 483.429C155.933 483.333 156.064 483.28 156.2 483.28L171.05 483.19C171.186 483.19 171.317 483.137 171.414 483.041C171.511 482.946 171.567 482.816 171.57 482.68L171.68 478.08C171.681 478.011 171.669 477.942 171.643 477.878C171.618 477.814 171.58 477.755 171.531 477.706C171.483 477.656 171.425 477.617 171.361 477.591C171.298 477.564 171.229 477.55 171.16 477.55L156.3 477.42C156.162 477.42 156.03 477.365 155.932 477.268C155.835 477.17 155.78 477.038 155.78 476.9L155.82 467.88C155.82 467.742 155.875 467.61 155.972 467.512C156.07 467.415 156.202 467.36 156.34 467.36L175.7 467.47C175.771 467.47 175.841 467.456 175.906 467.428C175.971 467.4 176.03 467.359 176.079 467.307C176.127 467.256 176.165 467.195 176.189 467.128C176.214 467.062 176.224 466.991 176.22 466.92L175.98 461.74C175.975 461.606 175.918 461.478 175.821 461.385C175.724 461.292 175.595 461.24 175.46 461.24L150.09 461.25C149.952 461.25 149.82 461.305 149.722 461.402C149.625 461.5 149.57 461.632 149.57 461.77L149.5 498.58C149.5 498.718 149.555 498.85 149.652 498.948C149.75 499.045 149.882 499.1 150.02 499.1L172.76 499.17C172.829 499.171 172.898 499.159 172.962 499.133C173.026 499.108 173.085 499.07 173.134 499.021C173.184 498.973 173.223 498.915 173.249 498.851C173.276 498.788 173.29 498.719 173.29 498.65L173.34 493.7C173.34 493.562 173.285 493.43 173.188 493.332C173.09 493.235 172.958 493.18 172.82 493.18L156.11 493.38C156.042 493.38 155.974 493.367 155.911 493.34C155.848 493.314 155.791 493.276 155.742 493.228C155.694 493.179 155.656 493.122 155.63 493.059C155.603 492.996 155.59 492.928 155.59 492.86L155.68 483.79ZM206.33 468.79V498.47C206.33 499.23 206.71 499.61 207.47 499.61H210.83C211.637 499.61 212.04 499.21 212.04 498.41V469.01C212.04 468.183 212.45 467.77 213.27 467.77H223.43C224.077 467.77 224.4 467.447 224.4 466.8V462.25C224.4 462.011 224.305 461.782 224.136 461.614C223.968 461.445 223.739 461.35 223.5 461.35H190.03C189.929 461.35 189.833 461.389 189.761 461.458C189.69 461.528 189.65 461.622 189.65 461.72V466.53C189.651 466.693 189.71 466.85 189.817 466.971C189.924 467.093 190.071 467.171 190.23 467.19C193.497 467.563 195.583 467.733 196.49 467.7C199.523 467.573 202.567 467.677 205.62 468.01C206.093 468.057 206.33 468.317 206.33 468.79ZM294.79 484.07C294.79 483.916 294.851 483.769 294.96 483.66C295.069 483.551 295.216 483.49 295.37 483.49L312.66 483.29C312.802 483.288 312.939 483.234 313.044 483.139C313.149 483.043 313.215 482.912 313.23 482.77L313.75 478.08C313.76 477.999 313.753 477.917 313.728 477.839C313.704 477.761 313.664 477.689 313.61 477.628C313.557 477.566 313.49 477.517 313.416 477.483C313.342 477.449 313.262 477.431 313.18 477.43L295.47 477.2C295.318 477.197 295.173 477.135 295.066 477.027C294.96 476.918 294.9 476.772 294.9 476.62V468.29C294.9 468.138 294.96 467.992 295.066 467.883C295.173 467.775 295.318 467.713 295.47 467.71L314.11 467.45C314.259 467.448 314.401 467.388 314.507 467.284C314.613 467.18 314.675 467.039 314.68 466.89L314.88 461.89C314.884 461.811 314.872 461.731 314.844 461.656C314.816 461.582 314.773 461.514 314.718 461.457C314.662 461.399 314.596 461.354 314.522 461.324C314.449 461.293 314.37 461.279 314.29 461.28L289.43 461.41C289.276 461.41 289.129 461.471 289.02 461.58C288.911 461.689 288.85 461.836 288.85 461.99L288.91 498.22C288.91 498.372 288.97 498.518 289.076 498.627C289.183 498.735 289.328 498.797 289.48 498.8L313.27 499.06C313.42 499.06 313.565 499.002 313.673 498.897C313.781 498.793 313.845 498.65 313.85 498.5L313.97 493.71C313.973 493.632 313.96 493.555 313.932 493.482C313.904 493.409 313.862 493.343 313.807 493.287C313.753 493.231 313.688 493.186 313.617 493.156C313.545 493.126 313.468 493.11 313.39 493.11L295.27 493.2C295.193 493.2 295.117 493.185 295.046 493.155C294.975 493.125 294.91 493.082 294.856 493.027C294.802 492.972 294.76 492.907 294.731 492.835C294.703 492.763 294.689 492.687 294.69 492.61L294.79 484.07ZM393.1 494.07C393.104 493.974 393.088 493.878 393.054 493.788C393.019 493.698 392.967 493.617 392.899 493.548C392.831 493.48 392.75 493.426 392.661 493.39C392.572 493.354 392.476 493.337 392.38 493.34L378.03 493.8C377.936 493.803 377.842 493.786 377.754 493.752C377.666 493.717 377.586 493.665 377.518 493.599C377.451 493.532 377.398 493.453 377.362 493.366C377.326 493.278 377.309 493.184 377.31 493.09L377.52 461.99C377.522 461.893 377.503 461.796 377.465 461.707C377.428 461.617 377.372 461.537 377.301 461.47C377.231 461.403 377.147 461.352 377.056 461.319C376.964 461.286 376.867 461.273 376.77 461.28L372.35 461.66C372.177 461.675 372.015 461.754 371.897 461.881C371.778 462.009 371.712 462.176 371.71 462.35L371.75 498.5C371.75 498.592 371.768 498.683 371.803 498.768C371.838 498.853 371.89 498.93 371.955 498.995C372.02 499.06 372.097 499.112 372.182 499.147C372.267 499.182 372.358 499.2 372.45 499.2L392.25 499.18C392.429 499.178 392.6 499.107 392.728 498.982C392.857 498.858 392.932 498.689 392.94 498.51L393.1 494.07ZM476.91 480.1C480.67 476.653 481.69 472.55 479.97 467.79C479.19 465.643 477.77 463.96 475.71 462.74C474.45 461.993 472.423 461.58 469.63 461.5C463.537 461.333 458.66 461.277 455 461.33C454.513 461.337 454.27 461.583 454.27 462.07V498.32C454.27 498.516 454.345 498.703 454.48 498.843C454.614 498.983 454.797 499.065 454.99 499.07C461.643 499.263 467.717 499.177 473.21 498.81C477.183 498.543 479.777 496.877 480.99 493.81C483.237 488.123 481.9 483.763 476.98 480.73C476.68 480.543 476.657 480.333 476.91 480.1ZM349.85 485.34C354.47 483.427 357.113 480.317 357.78 476.01C358.333 472.45 357.663 469.3 355.77 466.56C353.63 463.447 350.473 461.753 346.3 461.48C344.8 461.38 339.933 461.46 331.7 461.72C331.367 461.733 331.2 461.91 331.2 462.25V498.49C331.2 499.137 331.523 499.473 332.17 499.5L336.01 499.65C336.45 499.663 336.68 499.45 336.7 499.01L337.17 486.52C337.175 486.398 337.205 486.279 337.258 486.168C337.311 486.058 337.386 485.96 337.478 485.88C337.571 485.799 337.679 485.738 337.796 485.701C337.913 485.663 338.037 485.649 338.16 485.66C340.913 485.907 343.143 487.33 344.85 489.93C346.51 492.47 348.063 495.043 349.51 497.65C350.143 498.79 351.113 499.36 352.42 499.36H356.01C357.537 499.36 357.843 498.75 356.93 497.53C354.203 493.87 351.747 490.08 349.56 486.16C349.52 486.088 349.496 486.009 349.489 485.927C349.482 485.845 349.493 485.762 349.52 485.685C349.547 485.607 349.591 485.536 349.648 485.477C349.705 485.417 349.774 485.371 349.85 485.34ZM109.6 493.42C114.693 493.733 120.07 493.723 125.73 493.39C125.958 493.378 126.184 493.438 126.378 493.559C126.571 493.681 126.722 493.859 126.81 494.07L128.21 497.47C128.334 497.769 128.545 498.024 128.816 498.204C129.086 498.384 129.404 498.48 129.73 498.48H134.26C134.827 498.48 135.003 498.22 134.79 497.7C130.683 487.513 126.963 478.477 123.63 470.59C123.163 469.483 121.913 466.91 119.88 462.87C119.724 462.561 119.485 462.301 119.188 462.119C118.892 461.937 118.55 461.84 118.2 461.84H115.97C115.577 461.84 115.29 462.017 115.11 462.37C109.157 474.15 103.943 485.993 99.47 497.9C99.1767 498.68 99.4467 499.07 100.28 499.07H105.29C106.11 499.07 106.67 498.693 106.97 497.94L108.49 494.12C108.578 493.901 108.732 493.716 108.932 493.59C109.131 493.465 109.365 493.405 109.6 493.42ZM265.39 477H247.68C247.34 477 247.17 476.83 247.17 476.49V461.98C247.17 461.873 247.113 461.82 247 461.82H241.32C241.153 461.82 241.07 461.903 241.07 462.07C241.01 472.697 241.06 483.397 241.22 494.17C241.24 495.42 241.67 497.22 241.58 498.47C241.547 498.963 241.78 499.21 242.28 499.21H245.98C246.587 499.21 246.89 498.907 246.89 498.3V484.05C246.89 483.827 246.977 483.614 247.133 483.456C247.289 483.299 247.5 483.21 247.72 483.21H265.51C265.656 483.21 265.796 483.268 265.899 483.371C266.002 483.474 266.06 483.614 266.06 483.76V498.49C266.06 498.903 266.267 499.11 266.68 499.11H271.17C271.349 499.11 271.52 499.04 271.647 498.914C271.775 498.789 271.847 498.619 271.85 498.44C272.017 486.66 271.95 474.653 271.65 462.42C271.643 462.033 271.443 461.84 271.05 461.84H266.89C266.357 461.84 266.09 462.107 266.09 462.64V476.3C266.09 476.767 265.857 477 265.39 477ZM413.17 493.07C417.763 493.263 423.59 493.287 430.65 493.14C430.968 493.133 431.281 493.223 431.546 493.396C431.812 493.569 432.019 493.818 432.14 494.11L433.92 498.43C434.053 498.75 434.293 498.917 434.64 498.93L440.04 499.13C440.095 499.133 440.149 499.122 440.199 499.098C440.248 499.074 440.29 499.037 440.321 498.992C440.352 498.947 440.371 498.894 440.376 498.84C440.381 498.785 440.372 498.73 440.35 498.68C435.683 487.627 431.3 477.533 427.2 468.4C426.19 466.14 425.84 464.2 425.02 462.27C424.873 461.937 424.62 461.773 424.26 461.78L419.25 461.91C419.023 461.917 418.817 462.12 418.63 462.52C418.557 462.673 418.193 463.48 417.54 464.94C414.08 472.653 410.91 479.693 408.03 486.06C407.543 487.127 406.12 491.307 403.76 498.6C403.72 498.727 403.767 498.79 403.9 498.79H410.1C410.227 498.79 410.313 498.73 410.36 498.61L412.36 493.6C412.424 493.439 412.536 493.301 412.681 493.207C412.826 493.112 412.997 493.064 413.17 493.07Z" fill="#072344"/>
<path d="M426.43 275C426.55 275.2 426.677 275.203 426.81 275.01C433.29 265.49 438.983 255.573 443.89 245.26C444.017 244.993 444.15 244.99 444.29 245.25C453.663 262.05 464.207 280.12 475.92 299.46C478.12 303.093 481.507 308.817 486.08 316.63C499.087 338.883 512.453 361.397 526.18 384.17C528.853 388.603 532.203 394.36 536.23 401.44C540.717 409.313 545.963 418.07 551.97 427.71C552.019 427.788 552.046 427.879 552.047 427.971C552.049 428.064 552.025 428.155 551.979 428.235C551.933 428.315 551.866 428.381 551.785 428.426C551.704 428.471 551.613 428.493 551.52 428.49C548.2 428.383 544.53 428.317 540.51 428.29C521.363 428.157 471.11 428.083 389.75 428.07C177.297 428.043 61.63 428.01 42.75 427.97C41.17 427.963 34.7133 428.043 23.38 428.21C23.3215 428.21 23.2638 428.195 23.2132 428.165C23.1626 428.135 23.1211 428.093 23.0933 428.042C23.0654 427.992 23.0522 427.935 23.0552 427.878C23.0581 427.821 23.0771 427.767 23.11 427.72C28 420.49 32.37 411.96 37.27 404.34C43.3 394.95 53.2 378.06 61.86 364.33C72.2 347.95 82.56 331.583 92.94 315.23C93.5267 314.297 97.1333 308.693 103.76 298.42C111.247 286.8 118.453 275.007 125.38 263.04C131.533 252.407 134.873 246.637 135.4 245.73C161.053 202.09 176.37 176.053 181.35 167.62C183.73 163.593 187.113 157.68 191.5 149.88C198.65 137.17 206.23 124.74 214.24 110.5C219.09 101.89 224.58 93.35 229.64 84.64C244.333 59.38 258.027 35.24 270.72 12.22C271.973 9.96001 272.99 7.97667 273.77 6.27C273.798 6.20541 273.844 6.15013 273.902 6.11061C273.96 6.07109 274.028 6.04896 274.099 6.04686C274.169 6.04476 274.238 6.06276 274.299 6.09874C274.359 6.13472 274.408 6.1872 274.44 6.25001C278.087 13.35 281.843 20.3767 285.71 27.33C286.397 28.57 294.84 43.5067 311.04 72.14C350.407 141.72 370.383 177.017 370.97 178.03C387.083 206.143 405.57 238.467 426.43 275ZM277.25 41.22C277.583 42.42 277.76 43.54 277.78 44.58C278.033 59.8267 278.11 75.8267 278.01 92.58C277.843 120.64 277.783 146.063 277.83 168.85C277.837 169.539 278.015 170.216 278.35 170.82C280.377 174.44 282.283 177.83 284.07 180.99C296.99 203.837 311.447 228.01 327.44 253.51C328.26 254.817 331.387 260.05 336.82 269.21C340.093 274.737 343.343 279.817 346.57 284.45C347.077 285.177 347.887 286.983 349 289.87C349.12 290.183 349.347 290.357 349.68 290.39C350.64 290.49 351.663 290.543 352.75 290.55C354.577 290.557 373.743 290.53 410.25 290.47C413.843 290.463 416.69 290.523 418.79 290.65C418.853 290.652 418.915 290.638 418.97 290.61C419.026 290.581 419.074 290.539 419.109 290.487C419.144 290.435 419.165 290.375 419.17 290.312C419.176 290.25 419.165 290.187 419.14 290.13C418.227 288.137 417.467 286.62 416.86 285.58C411.89 277.04 406.59 268.98 401.89 260.45C394.423 246.903 383.223 227.21 368.29 201.37C365.47 196.49 362.177 190.693 358.41 183.98C342.97 156.433 327.217 128.687 311.15 100.74C309.377 97.6467 306.44 92.3634 302.34 84.89C296.6 74.44 290.4 64.94 285.49 54.79C283.403 50.4834 280.787 45.7167 277.64 40.49C277.353 40.01 277.183 40.06 277.13 40.64C277.123 40.7067 277.163 40.9 277.25 41.22ZM196.18 287.79C196.34 287.243 197.16 285.88 198.64 283.7C200.173 281.453 201.057 280.14 201.29 279.76C218.83 251.107 236.093 222.283 253.08 193.29C254.02 191.69 256.013 188.073 259.06 182.44C261.753 177.46 263.85 173.903 265.35 171.77C266.177 170.603 266.63 169.333 266.71 167.96C266.957 163.727 267.077 158.99 267.07 153.75C267.037 101.897 267.07 68.8167 267.17 54.51C267.19 51.83 267.32 49.3834 267.56 47.17C267.647 46.3167 267.487 46.2667 267.08 47.02C256.167 67.12 245.003 86.9733 233.59 106.58C195.55 171.9 171.547 213.093 161.58 230.16C158.187 235.973 154.767 241.69 151.32 247.31C143.373 260.283 135.973 272.89 129.12 285.13C128.213 286.75 127.45 288.337 126.83 289.89C126.805 289.949 126.796 290.013 126.803 290.077C126.81 290.14 126.833 290.201 126.869 290.255C126.906 290.308 126.955 290.352 127.013 290.382C127.07 290.413 127.135 290.429 127.2 290.43H195.15C195.335 290.43 195.514 290.36 195.649 290.234C195.785 290.108 195.867 289.935 195.88 289.75L195.95 288.75C195.963 288.63 196.04 288.31 196.18 287.79ZM218.67 270.7C217.977 271.907 218.15 272.047 219.19 271.12C226.46 264.64 235.74 258.68 243.3 254.11C251.23 249.33 259.12 242.8 266.92 238.2C267.207 238.033 267.39 237.787 267.47 237.46C267.73 236.433 267.86 235.04 267.86 233.28C267.84 220.493 268.05 207.11 268.49 193.13C268.51 192.43 268.6 191.533 268.76 190.44C268.907 189.433 268.987 188.537 269 187.75C269.007 187.19 268.863 187.15 268.57 187.63C265.77 192.11 263.38 196.107 261.4 199.62C257.54 206.433 255.23 210.487 254.47 211.78C241.443 233.88 232.8 248.22 228.54 254.8C224.2 261.513 220.91 266.813 218.67 270.7ZM276.28 187.91C276.647 191.39 276.877 194.253 276.97 196.5C277.077 199.187 277.217 212.183 277.39 235.49C277.393 235.92 277.505 236.342 277.715 236.717C277.924 237.093 278.225 237.41 278.59 237.64C283.55 240.77 288.1 244.76 293.21 248.25C297.277 251.023 305.657 256.66 318.35 265.16C320.69 266.733 323.083 268.607 325.53 270.78C326.33 271.493 326.423 271.41 325.81 270.53C324.823 269.13 324.267 268.323 324.14 268.11C315.787 254.13 308.783 242.587 303.13 233.48C293.64 218.2 284.92 203.01 276.45 187.85C276.446 187.839 276.44 187.829 276.432 187.82C276.424 187.811 276.415 187.804 276.404 187.799C276.393 187.794 276.382 187.791 276.37 187.79C276.358 187.789 276.346 187.791 276.335 187.795C276.324 187.799 276.314 187.805 276.305 187.813C276.296 187.821 276.289 187.83 276.284 187.841C276.279 187.852 276.276 187.863 276.275 187.875C276.274 187.887 276.276 187.899 276.28 187.91ZM277.41 260.65C277.41 260.833 277.469 261.012 277.579 261.161C277.688 261.31 277.843 261.421 278.02 261.48C285.67 263.92 293.47 267.87 301.11 270.59C316.75 276.17 326.833 279.783 331.36 281.43C331.76 281.577 332 281.647 332.08 281.64C332.9 281.593 332.997 281.307 332.37 280.78C328.617 277.673 324.54 274.723 320.14 271.93C312.473 267.063 308.177 264.317 307.25 263.69C300.237 258.917 293.763 254.697 287.83 251.03C285.01 249.29 280.92 246.45 277.99 244.28C277.603 243.993 277.41 244.087 277.41 244.56V260.65ZM268.13 244.38C256.557 251.52 246.017 258.3 236.51 264.72C230.36 268.87 223.94 272.8 217.63 276.82C215.68 278.06 214.22 279.48 212.62 281.14C212.047 281.74 212.167 281.957 212.98 281.79C214.047 281.57 214.81 281.38 215.27 281.22C223.36 278.34 230.87 275.9 237.87 273.01C241.37 271.563 246.177 269.717 252.29 267.47C256.483 265.93 261.61 263.857 267.67 261.25C267.786 261.202 267.886 261.121 267.957 261.018C268.028 260.915 268.067 260.794 268.07 260.67L268.68 244.7C268.683 244.635 268.667 244.57 268.636 244.512C268.604 244.455 268.558 244.407 268.501 244.374C268.445 244.342 268.38 244.325 268.315 244.326C268.249 244.327 268.186 244.345 268.13 244.38ZM221.24 285.1C221.207 285.113 221.173 285.12 221.14 285.12C221.127 285.12 221.12 285.123 221.12 285.13C221.127 285.137 221.13 285.143 221.13 285.15C221.13 285.17 221.137 285.18 221.15 285.18C222.45 285.093 223.7 284.97 224.9 284.81C226.467 284.597 227.71 284.457 228.63 284.39C259.45 282.21 290.763 282.26 322.57 284.54C323.257 284.587 323.283 284.473 322.65 284.2C317.91 282.16 311.99 280.69 307.88 279.21C297.38 275.403 286.267 271.11 274.54 266.33C273.886 266.066 273.154 266.066 272.5 266.33C265.6 269.083 259.123 271.473 253.07 273.5C248.077 275.173 244.333 276.54 241.84 277.6C238.167 279.16 234.407 280.487 230.56 281.58C230.4 281.627 227.293 282.8 221.24 285.1ZM448.79 316.43C444.123 320.143 438.347 324.28 431.46 328.84C425.913 332.513 420.407 336.27 414.94 340.11C399.38 351.05 390.527 357.22 388.38 358.62C373.873 368.107 359.413 377.667 345 387.3C336.36 393.07 322.88 401.62 312.09 409.19C309.31 411.14 306.87 412.45 303.67 414.16C302.277 414.9 302.37 415.243 303.95 415.19C310.717 414.95 319.567 414.817 330.5 414.79C335.093 414.777 400.817 414.753 527.67 414.72C527.732 414.72 527.793 414.704 527.846 414.672C527.9 414.641 527.944 414.596 527.974 414.542C528.005 414.489 528.021 414.428 528.02 414.366C528.019 414.304 528.002 414.243 527.97 414.19L444.05 273.34C444.029 273.304 444 273.275 443.963 273.256C443.927 273.236 443.886 273.227 443.844 273.229C443.802 273.231 443.761 273.244 443.726 273.267C443.69 273.29 443.66 273.322 443.64 273.36C441.16 278.167 437.957 283.32 434.03 288.82C433.939 288.949 433.89 289.104 433.89 289.263C433.89 289.422 433.939 289.578 434.03 289.71C435.08 291.24 436.43 293.01 437.22 294.44C441.84 302.76 445.767 309.723 449 315.33C449.102 315.508 449.137 315.717 449.099 315.919C449.06 316.121 448.951 316.302 448.79 316.43ZM205.86 290.7C205.86 291.16 207.99 291.433 212.25 291.52C232.497 291.913 252.74 292.11 272.98 292.11C293.22 292.103 313.463 291.9 333.71 291.5C337.97 291.413 340.1 291.14 340.1 290.68C340.1 290.213 337.97 289.937 333.71 289.85C313.463 289.457 293.22 289.263 272.98 289.27C252.74 289.27 232.497 289.47 212.25 289.87C207.99 289.957 205.86 290.233 205.86 290.7ZM266.99 412.71V338.18C266.99 337.925 266.927 337.674 266.807 337.448C266.686 337.223 266.512 337.032 266.3 336.89C254.867 329.27 241.803 320.81 227.11 311.51C222.73 308.737 218.613 306.347 214.76 304.34C213.327 303.587 211.99 303.207 210.75 303.2C189.917 303.06 160.833 303.097 123.5 303.31C121.867 303.323 119.753 303.507 117.16 303.86C116.813 303.907 116.513 304.07 116.26 304.35L115.03 305.7C114.711 306.052 114.547 306.519 114.573 306.999C114.599 307.48 114.814 307.936 115.17 308.27C116.363 309.397 117.51 310.347 118.61 311.12C134.777 322.493 158.48 338.893 189.72 360.32C212.56 375.973 226.113 385.327 230.38 388.38C236.44 392.713 241.943 396.487 246.89 399.7C253.59 404.053 260.13 408.473 266.51 412.96C266.554 412.993 266.607 413.012 266.662 413.016C266.716 413.021 266.772 413.009 266.821 412.983C266.871 412.957 266.913 412.918 266.942 412.87C266.972 412.822 266.989 412.767 266.99 412.71ZM237.56 303.84C239.85 304.8 242.11 305.95 244.35 307.42C257.077 315.793 266.03 321.63 271.21 324.93C271.633 325.196 272.121 325.339 272.62 325.34C273.119 325.342 273.607 325.203 274.03 324.94C281.49 320.287 290.03 314.693 299.65 308.16C301.797 306.7 304.22 305.23 306.92 303.75C307.673 303.337 307.62 303.14 306.76 303.16C282.48 303.773 259.46 303.783 237.7 303.19C236.48 303.157 236.433 303.373 237.56 303.84ZM278.89 337.08C278.675 337.215 278.497 337.403 278.373 337.625C278.249 337.846 278.183 338.096 278.18 338.35C277.853 371.203 277.903 395.66 278.33 411.72C278.337 412.053 278.363 412.32 278.41 412.52C278.44 412.677 278.509 412.824 278.609 412.949C278.709 413.073 278.839 413.172 278.986 413.236C279.133 413.3 279.294 413.327 279.455 413.316C279.616 413.304 279.772 413.254 279.91 413.17C292.457 405.377 305.48 396.853 318.98 387.6C321.253 386.04 326.813 382.353 335.66 376.54C369.09 354.57 398.97 334.94 430.81 311.84C430.971 311.722 431.082 311.548 431.123 311.352C431.164 311.157 431.131 310.953 431.03 310.78L426.59 303.32C426.537 303.233 426.457 303.19 426.35 303.19C405.483 303.203 374.283 303.207 332.75 303.2C331.783 303.2 331.193 303.277 330.98 303.43C319.827 311.183 310.917 317.017 304.25 320.93C295.2 326.24 287.85 331.49 278.89 337.08ZM106.52 320.5C106.3 320.367 106.137 320.413 106.03 320.64C105.17 322.513 104.213 324.273 103.16 325.92C81.7533 359.307 63.7233 387.857 49.07 411.57C48.67 412.217 48.1933 413.157 47.64 414.39C47.6232 414.427 47.6159 414.467 47.6188 414.507C47.6217 414.548 47.6347 414.586 47.6567 414.62C47.6786 414.654 47.7087 414.682 47.7443 414.701C47.7798 414.72 47.8196 414.73 47.86 414.73H245.25C245.95 414.73 246.003 414.547 245.41 414.18C240.263 410.967 235.26 407.74 230.4 404.5C201.653 385.3 170.123 363.797 135.81 339.99C124.197 331.93 114.433 325.433 106.52 320.5Z" fill="white"/>
<path d="M277.25 41.22C277.163 40.9 277.123 40.7067 277.13 40.64C277.183 40.06 277.353 40.01 277.64 40.49C280.787 45.7167 283.403 50.4833 285.49 54.79C290.4 64.94 296.6 74.44 302.34 84.89C306.44 92.3634 309.377 97.6467 311.15 100.74C327.217 128.687 342.97 156.433 358.41 183.98C362.177 190.693 365.47 196.49 368.29 201.37C383.223 227.21 394.423 246.903 401.89 260.45C406.59 268.98 411.89 277.04 416.86 285.58C417.467 286.62 418.227 288.137 419.14 290.13C419.165 290.187 419.176 290.25 419.17 290.312C419.165 290.375 419.144 290.435 419.109 290.487C419.074 290.539 419.026 290.581 418.97 290.61C418.915 290.638 418.853 290.652 418.79 290.65C416.69 290.523 413.843 290.463 410.25 290.47C373.743 290.53 354.577 290.557 352.75 290.55C351.663 290.543 350.64 290.49 349.68 290.39C349.347 290.357 349.12 290.183 349 289.87C347.887 286.983 347.077 285.177 346.57 284.45C343.343 279.817 340.093 274.737 336.82 269.21C331.387 260.05 328.26 254.817 327.44 253.51C311.447 228.01 296.99 203.837 284.07 180.99C282.283 177.83 280.377 174.44 278.35 170.82C278.015 170.216 277.837 169.539 277.83 168.85C277.783 146.063 277.843 120.64 278.01 92.58C278.11 75.8267 278.033 59.8267 277.78 44.58C277.76 43.54 277.583 42.42 277.25 41.22Z" fill="#072344"/>
<path d="M195.95 288.75L195.88 289.75C195.867 289.935 195.785 290.108 195.649 290.234C195.514 290.36 195.335 290.43 195.15 290.43H127.2C127.135 290.429 127.07 290.413 127.013 290.382C126.955 290.352 126.906 290.308 126.869 290.255C126.833 290.201 126.81 290.14 126.803 290.077C126.796 290.013 126.805 289.949 126.83 289.89C127.45 288.337 128.213 286.75 129.12 285.13C135.973 272.89 143.373 260.283 151.32 247.31C154.767 241.69 158.187 235.973 161.58 230.16C171.547 213.093 195.55 171.9 233.59 106.58C245.003 86.9733 256.167 67.12 267.08 47.02C267.487 46.2667 267.647 46.3167 267.56 47.17C267.32 49.3834 267.19 51.83 267.17 54.51C267.07 68.8167 267.037 101.897 267.07 153.75C267.077 158.99 266.957 163.727 266.71 167.96C266.63 169.333 266.177 170.603 265.35 171.77C263.85 173.903 261.753 177.46 259.06 182.44C256.013 188.073 254.02 191.69 253.08 193.29C236.093 222.283 218.83 251.107 201.29 279.76C201.057 280.14 200.173 281.453 198.64 283.7C197.16 285.88 196.34 287.243 196.18 287.79C196.04 288.31 195.963 288.63 195.95 288.75Z" fill="#072344"/>
<path d="M218.67 270.7C220.91 266.813 224.2 261.513 228.54 254.8C232.8 248.22 241.443 233.88 254.47 211.78C255.23 210.487 257.54 206.433 261.4 199.62C263.38 196.107 265.77 192.11 268.57 187.63C268.863 187.15 269.007 187.19 269 187.75C268.987 188.537 268.907 189.433 268.76 190.44C268.6 191.533 268.51 192.43 268.49 193.13C268.05 207.11 267.84 220.493 267.86 233.28C267.86 235.04 267.73 236.433 267.47 237.46C267.39 237.787 267.207 238.033 266.92 238.2C259.12 242.8 251.23 249.33 243.3 254.11C235.74 258.68 226.46 264.64 219.19 271.12C218.15 272.047 217.977 271.907 218.67 270.7Z" fill="#072344"/>
<path d="M276.28 187.91C276.276 187.899 276.274 187.887 276.275 187.875C276.276 187.863 276.279 187.852 276.284 187.841C276.289 187.83 276.296 187.821 276.305 187.813C276.314 187.805 276.324 187.799 276.335 187.795C276.346 187.791 276.358 187.789 276.37 187.79C276.382 187.791 276.393 187.794 276.404 187.799C276.415 187.804 276.424 187.811 276.432 187.82C276.44 187.829 276.446 187.839 276.45 187.85C284.92 203.01 293.64 218.2 303.13 233.48C308.783 242.587 315.787 254.13 324.14 268.11C324.267 268.323 324.823 269.13 325.81 270.53C326.423 271.41 326.33 271.493 325.53 270.78C323.083 268.607 320.69 266.733 318.35 265.16C305.657 256.66 297.277 251.023 293.21 248.25C288.1 244.76 283.55 240.77 278.59 237.64C278.225 237.41 277.924 237.093 277.715 236.717C277.505 236.342 277.393 235.92 277.39 235.49C277.217 212.183 277.077 199.187 276.97 196.5C276.877 194.253 276.647 191.39 276.28 187.91Z" fill="#072344"/>
<path d="M277.41 260.65V244.56C277.41 244.087 277.603 243.993 277.99 244.28C280.92 246.45 285.01 249.29 287.83 251.03C293.763 254.697 300.237 258.917 307.25 263.69C308.177 264.317 312.473 267.063 320.14 271.93C324.54 274.723 328.617 277.673 332.37 280.78C332.997 281.307 332.9 281.593 332.08 281.64C332 281.647 331.76 281.577 331.36 281.43C326.833 279.783 316.75 276.17 301.11 270.59C293.47 267.87 285.67 263.92 278.02 261.48C277.843 261.421 277.688 261.309 277.579 261.16C277.469 261.012 277.41 260.833 277.41 260.65Z" fill="#072344"/>
<path d="M268.13 244.38C268.186 244.345 268.249 244.327 268.315 244.326C268.38 244.325 268.445 244.342 268.501 244.374C268.558 244.407 268.604 244.455 268.636 244.512C268.667 244.57 268.683 244.635 268.68 244.7L268.07 260.67C268.067 260.794 268.028 260.915 267.957 261.018C267.886 261.121 267.786 261.202 267.67 261.25C261.61 263.857 256.483 265.93 252.29 267.47C246.177 269.717 241.37 271.563 237.87 273.01C230.87 275.9 223.36 278.34 215.27 281.22C214.81 281.38 214.047 281.57 212.98 281.79C212.167 281.957 212.047 281.74 212.62 281.14C214.22 279.48 215.68 278.06 217.63 276.82C223.94 272.8 230.36 268.87 236.51 264.72C246.017 258.3 256.557 251.52 268.13 244.38Z" fill="#072344"/>
<path d="M221.24 285.1C227.293 282.8 230.4 281.627 230.56 281.58C234.407 280.487 238.167 279.16 241.84 277.6C244.333 276.54 248.077 275.173 253.07 273.5C259.123 271.473 265.6 269.083 272.5 266.33C273.154 266.066 273.886 266.066 274.54 266.33C286.267 271.11 297.38 275.403 307.88 279.21C311.99 280.69 317.91 282.16 322.65 284.2C323.283 284.473 323.257 284.587 322.57 284.54C290.763 282.26 259.45 282.21 228.63 284.39C227.71 284.457 226.467 284.597 224.9 284.81C223.7 284.97 222.45 285.093 221.15 285.18C221.137 285.18 221.13 285.17 221.13 285.15C221.13 285.143 221.127 285.137 221.12 285.13C221.12 285.123 221.127 285.12 221.14 285.12C221.173 285.12 221.207 285.113 221.24 285.1Z" fill="#072344"/>
<path d="M448.79 316.43C448.951 316.302 449.06 316.121 449.099 315.919C449.137 315.717 449.102 315.508 449 315.33C445.767 309.723 441.84 302.76 437.22 294.44C436.43 293.01 435.08 291.24 434.03 289.71C433.939 289.578 433.89 289.422 433.89 289.263C433.89 289.104 433.939 288.949 434.03 288.82C437.957 283.32 441.16 278.167 443.64 273.36C443.66 273.322 443.69 273.29 443.726 273.267C443.761 273.244 443.802 273.231 443.844 273.229C443.886 273.227 443.927 273.236 443.963 273.256C444 273.275 444.029 273.304 444.05 273.34L527.97 414.19C528.002 414.243 528.019 414.304 528.02 414.366C528.021 414.427 528.005 414.489 527.974 414.542C527.944 414.596 527.9 414.641 527.846 414.672C527.793 414.703 527.732 414.72 527.67 414.72C400.817 414.753 335.093 414.777 330.5 414.79C319.567 414.817 310.717 414.95 303.95 415.19C302.37 415.243 302.277 414.9 303.67 414.16C306.87 412.45 309.31 411.14 312.09 409.19C322.88 401.62 336.36 393.07 345 387.3C359.413 377.667 373.873 368.107 388.38 358.62C390.527 357.22 399.38 351.05 414.94 340.11C420.407 336.27 425.913 332.513 431.46 328.84C438.347 324.28 444.123 320.143 448.79 316.43Z" fill="#072344"/>
<path d="M272.98 289.27C293.22 289.263 313.463 289.457 333.71 289.85C337.97 289.937 340.1 290.213 340.1 290.68C340.1 291.14 337.97 291.413 333.71 291.5C313.463 291.9 293.22 292.103 272.98 292.11C252.74 292.11 232.497 291.913 212.25 291.52C207.99 291.433 205.86 291.16 205.86 290.7C205.86 290.233 207.99 289.957 212.25 289.87C232.497 289.47 252.74 289.27 272.98 289.27Z" fill="#072344"/>
<path d="M266.99 338.18V412.71C266.989 412.767 266.972 412.822 266.942 412.87C266.913 412.918 266.871 412.958 266.821 412.983C266.772 413.009 266.716 413.021 266.662 413.016C266.607 413.012 266.554 412.993 266.51 412.96C260.13 408.473 253.59 404.053 246.89 399.7C241.943 396.487 236.44 392.713 230.38 388.38C226.113 385.327 212.56 375.973 189.72 360.32C158.48 338.893 134.777 322.493 118.61 311.12C117.51 310.347 116.363 309.397 115.17 308.27C114.814 307.936 114.599 307.48 114.573 306.999C114.547 306.519 114.711 306.052 115.03 305.7L116.26 304.35C116.513 304.07 116.813 303.907 117.16 303.86C119.753 303.507 121.867 303.323 123.5 303.31C160.833 303.097 189.917 303.06 210.75 303.2C211.99 303.207 213.327 303.587 214.76 304.34C218.613 306.347 222.73 308.737 227.11 311.51C241.803 320.81 254.867 329.27 266.3 336.89C266.512 337.032 266.686 337.223 266.807 337.449C266.927 337.674 266.99 337.925 266.99 338.18Z" fill="#072344"/>
<path d="M244.35 307.42C242.11 305.95 239.85 304.8 237.56 303.84C236.433 303.373 236.48 303.157 237.7 303.19C259.46 303.783 282.48 303.773 306.76 303.16C307.62 303.14 307.673 303.337 306.92 303.75C304.22 305.23 301.797 306.7 299.65 308.16C290.03 314.693 281.49 320.287 274.03 324.94C273.607 325.203 273.119 325.342 272.62 325.34C272.121 325.339 271.633 325.196 271.21 324.93C266.03 321.63 257.077 315.793 244.35 307.42Z" fill="#072344"/>
<path d="M278.89 337.08C287.85 331.49 295.2 326.24 304.25 320.93C310.917 317.017 319.827 311.183 330.98 303.43C331.193 303.277 331.783 303.2 332.75 303.2C374.283 303.207 405.483 303.203 426.35 303.19C426.457 303.19 426.537 303.233 426.59 303.32L431.03 310.78C431.131 310.953 431.164 311.157 431.123 311.352C431.082 311.548 430.971 311.722 430.81 311.84C398.97 334.94 369.09 354.57 335.66 376.54C326.813 382.353 321.253 386.04 318.98 387.6C305.48 396.853 292.457 405.377 279.91 413.17C279.772 413.254 279.616 413.304 279.455 413.316C279.294 413.327 279.133 413.3 278.986 413.236C278.839 413.172 278.709 413.073 278.609 412.949C278.509 412.824 278.44 412.677 278.41 412.52C278.363 412.32 278.337 412.053 278.33 411.72C277.903 395.66 277.853 371.203 278.18 338.35C278.183 338.096 278.249 337.846 278.373 337.625C278.497 337.403 278.675 337.215 278.89 337.08Z" fill="#072344"/>
<path d="M106.52 320.5C114.433 325.433 124.197 331.93 135.81 339.99C170.123 363.797 201.653 385.3 230.4 404.5C235.26 407.74 240.263 410.967 245.41 414.18C246.003 414.547 245.95 414.73 245.25 414.73H47.86C47.8196 414.73 47.7798 414.72 47.7443 414.701C47.7087 414.682 47.6786 414.654 47.6567 414.62C47.6347 414.586 47.6217 414.548 47.6188 414.507C47.6159 414.467 47.6232 414.427 47.64 414.39C48.1933 413.157 48.67 412.217 49.07 411.57C63.7233 387.857 81.7533 359.307 103.16 325.92C104.213 324.273 105.17 322.513 106.03 320.64C106.137 320.413 106.3 320.367 106.52 320.5Z" fill="#072344"/>
<path d="M155.68 483.79L155.59 492.86C155.59 492.928 155.603 492.996 155.63 493.059C155.656 493.122 155.694 493.179 155.742 493.228C155.791 493.276 155.848 493.314 155.911 493.34C155.974 493.367 156.042 493.38 156.11 493.38L172.82 493.18C172.958 493.18 173.09 493.235 173.188 493.332C173.285 493.43 173.34 493.562 173.34 493.7L173.29 498.65C173.29 498.719 173.276 498.788 173.249 498.851C173.223 498.915 173.184 498.973 173.134 499.021C173.085 499.07 173.026 499.108 172.962 499.133C172.898 499.159 172.829 499.171 172.76 499.17L150.02 499.1C149.882 499.1 149.75 499.045 149.652 498.948C149.555 498.85 149.5 498.718 149.5 498.58L149.57 461.77C149.57 461.632 149.625 461.5 149.722 461.402C149.82 461.305 149.952 461.25 150.09 461.25L175.46 461.24C175.595 461.24 175.724 461.292 175.821 461.385C175.918 461.478 175.975 461.606 175.98 461.74L176.22 466.92C176.224 466.991 176.214 467.062 176.189 467.128C176.165 467.195 176.127 467.256 176.079 467.307C176.03 467.359 175.971 467.4 175.906 467.428C175.841 467.456 175.771 467.47 175.7 467.47L156.34 467.36C156.202 467.36 156.07 467.415 155.972 467.512C155.875 467.61 155.82 467.742 155.82 467.88L155.78 476.9C155.78 477.038 155.835 477.17 155.932 477.268C156.03 477.365 156.162 477.42 156.3 477.42L171.16 477.55C171.229 477.55 171.298 477.564 171.361 477.591C171.425 477.617 171.483 477.656 171.531 477.706C171.58 477.755 171.618 477.814 171.643 477.878C171.669 477.942 171.681 478.011 171.68 478.08L171.57 482.68C171.567 482.816 171.511 482.946 171.414 483.041C171.317 483.137 171.186 483.19 171.05 483.19L156.2 483.28C156.064 483.28 155.933 483.333 155.836 483.429C155.739 483.524 155.683 483.654 155.68 483.79Z" fill="white"/>
<path d="M205.62 468.01C202.567 467.677 199.523 467.573 196.49 467.7C195.583 467.733 193.497 467.563 190.23 467.19C190.071 467.171 189.924 467.093 189.817 466.971C189.71 466.85 189.651 466.693 189.65 466.53V461.72C189.65 461.622 189.69 461.528 189.761 461.458C189.833 461.389 189.929 461.35 190.03 461.35H223.5C223.739 461.35 223.968 461.445 224.136 461.614C224.305 461.782 224.4 462.011 224.4 462.25V466.8C224.4 467.447 224.077 467.77 223.43 467.77H213.27C212.45 467.77 212.04 468.183 212.04 469.01V498.41C212.04 499.21 211.637 499.61 210.83 499.61H207.47C206.71 499.61 206.33 499.23 206.33 498.47V468.79C206.33 468.317 206.093 468.057 205.62 468.01Z" fill="white"/>
<path d="M294.79 484.07L294.69 492.61C294.689 492.687 294.703 492.763 294.731 492.835C294.76 492.907 294.802 492.972 294.856 493.027C294.91 493.082 294.975 493.125 295.046 493.155C295.117 493.185 295.193 493.2 295.27 493.2L313.39 493.11C313.468 493.11 313.545 493.126 313.617 493.156C313.688 493.186 313.753 493.231 313.807 493.287C313.862 493.343 313.904 493.409 313.932 493.482C313.96 493.555 313.973 493.632 313.97 493.71L313.85 498.5C313.845 498.65 313.781 498.793 313.673 498.897C313.565 499.002 313.42 499.06 313.27 499.06L289.48 498.8C289.328 498.797 289.183 498.735 289.076 498.627C288.97 498.518 288.91 498.372 288.91 498.22L288.85 461.99C288.85 461.836 288.911 461.689 289.02 461.58C289.129 461.471 289.276 461.41 289.43 461.41L314.29 461.28C314.37 461.279 314.449 461.293 314.522 461.324C314.596 461.354 314.662 461.399 314.718 461.457C314.773 461.514 314.816 461.582 314.844 461.656C314.872 461.731 314.884 461.81 314.88 461.89L314.68 466.89C314.675 467.039 314.613 467.18 314.507 467.284C314.401 467.388 314.259 467.448 314.11 467.45L295.47 467.71C295.318 467.713 295.173 467.775 295.066 467.883C294.96 467.992 294.9 468.138 294.9 468.29V476.62C294.9 476.772 294.96 476.918 295.066 477.027C295.173 477.135 295.318 477.197 295.47 477.2L313.18 477.43C313.262 477.431 313.342 477.449 313.416 477.483C313.49 477.517 313.557 477.566 313.61 477.628C313.664 477.689 313.704 477.761 313.728 477.839C313.753 477.917 313.76 477.999 313.75 478.08L313.23 482.77C313.215 482.911 313.149 483.043 313.044 483.139C312.939 483.234 312.802 483.288 312.66 483.29L295.37 483.49C295.216 483.49 295.069 483.551 294.96 483.66C294.851 483.769 294.79 483.916 294.79 484.07Z" fill="white"/>
<path d="M393.1 494.07L392.94 498.51C392.932 498.689 392.857 498.858 392.728 498.982C392.6 499.107 392.429 499.178 392.25 499.18L372.45 499.2C372.358 499.2 372.267 499.182 372.182 499.147C372.097 499.112 372.02 499.06 371.955 498.995C371.89 498.93 371.838 498.853 371.803 498.768C371.768 498.683 371.75 498.592 371.75 498.5L371.71 462.35C371.712 462.176 371.778 462.009 371.897 461.881C372.015 461.754 372.177 461.675 372.35 461.66L376.77 461.28C376.867 461.273 376.964 461.286 377.056 461.319C377.147 461.352 377.231 461.403 377.301 461.47C377.372 461.537 377.428 461.617 377.465 461.707C377.503 461.796 377.522 461.893 377.52 461.99L377.31 493.09C377.309 493.185 377.326 493.278 377.362 493.366C377.398 493.453 377.451 493.532 377.518 493.599C377.586 493.665 377.666 493.717 377.754 493.752C377.842 493.786 377.936 493.803 378.03 493.8L392.38 493.34C392.476 493.337 392.572 493.354 392.661 493.39C392.75 493.426 392.831 493.48 392.899 493.548C392.967 493.617 393.019 493.698 393.054 493.788C393.088 493.878 393.104 493.974 393.1 494.07Z" fill="white"/>
<path d="M476.98 480.73C481.9 483.763 483.237 488.123 480.99 493.81C479.777 496.877 477.183 498.543 473.21 498.81C467.717 499.177 461.643 499.263 454.99 499.07C454.797 499.065 454.614 498.983 454.48 498.843C454.345 498.703 454.27 498.515 454.27 498.32V462.07C454.27 461.583 454.513 461.337 455 461.33C458.66 461.277 463.537 461.333 469.63 461.5C472.423 461.58 474.45 461.993 475.71 462.74C477.77 463.96 479.19 465.643 479.97 467.79C481.69 472.55 480.67 476.653 476.91 480.1C476.657 480.333 476.68 480.543 476.98 480.73ZM460.51 467.71L460.41 476.89C460.41 476.92 460.416 476.95 460.427 476.978C460.439 477.006 460.456 477.031 460.477 477.053C460.499 477.074 460.524 477.091 460.552 477.102C460.58 477.114 460.61 477.12 460.64 477.12L467.29 477.19C468.975 477.207 470.596 476.794 471.796 476.04C472.996 475.286 473.677 474.254 473.69 473.17L473.71 471.71C473.716 471.172 473.558 470.638 473.244 470.138C472.929 469.638 472.465 469.182 471.878 468.796C471.291 468.409 470.593 468.1 469.823 467.887C469.053 467.673 468.226 467.558 467.39 467.55L460.74 467.48C460.679 467.48 460.621 467.504 460.577 467.547C460.534 467.59 460.51 467.649 460.51 467.71ZM460.35 483.76L460.62 493.35C460.62 493.424 460.65 493.495 460.702 493.548C460.755 493.6 460.826 493.63 460.9 493.63L467.92 493.43C468.902 493.403 469.872 493.247 470.773 492.971C471.673 492.694 472.488 492.304 473.169 491.821C473.851 491.338 474.387 490.772 474.745 490.156C475.104 489.54 475.279 488.885 475.26 488.23L475.25 488.05C475.213 486.728 474.391 485.481 472.964 484.585C471.537 483.689 469.622 483.216 467.64 483.27L460.62 483.47C460.583 483.471 460.547 483.48 460.514 483.495C460.48 483.51 460.45 483.532 460.425 483.559C460.4 483.586 460.38 483.618 460.367 483.652C460.355 483.687 460.349 483.723 460.35 483.76Z" fill="white"/>
<path d="M349.85 485.34C349.774 485.371 349.705 485.417 349.648 485.477C349.591 485.536 349.547 485.607 349.52 485.685C349.493 485.762 349.482 485.845 349.489 485.927C349.496 486.009 349.52 486.088 349.56 486.16C351.747 490.08 354.203 493.87 356.93 497.53C357.843 498.75 357.537 499.36 356.01 499.36H352.42C351.113 499.36 350.143 498.79 349.51 497.65C348.063 495.043 346.51 492.47 344.85 489.93C343.143 487.33 340.913 485.907 338.16 485.66C338.037 485.649 337.913 485.663 337.796 485.701C337.679 485.738 337.571 485.799 337.478 485.88C337.386 485.96 337.311 486.058 337.258 486.168C337.205 486.279 337.175 486.398 337.17 486.52L336.7 499.01C336.68 499.45 336.45 499.663 336.01 499.65L332.17 499.5C331.523 499.473 331.2 499.137 331.2 498.49V462.25C331.2 461.91 331.367 461.733 331.7 461.72C339.933 461.46 344.8 461.38 346.3 461.48C350.473 461.753 353.63 463.447 355.77 466.56C357.663 469.3 358.333 472.45 357.78 476.01C357.113 480.317 354.47 483.427 349.85 485.34ZM337.2 469.35L337.18 478.91C337.18 479.199 337.295 479.476 337.499 479.681C337.704 479.885 337.981 480 338.27 480L344.78 480.01C345.629 480.012 346.469 479.874 347.253 479.606C348.038 479.338 348.751 478.945 349.352 478.448C349.952 477.951 350.429 477.361 350.755 476.711C351.081 476.061 351.249 475.364 351.25 474.66V473.64C351.252 472.219 350.574 470.855 349.364 469.848C348.155 468.841 346.513 468.273 344.8 468.27L338.29 468.26C338.001 468.26 337.724 468.375 337.519 468.579C337.315 468.784 337.2 469.061 337.2 469.35Z" fill="white"/>
<path d="M109.6 493.42C109.365 493.405 109.131 493.465 108.932 493.59C108.732 493.716 108.578 493.901 108.49 494.12L106.97 497.94C106.67 498.693 106.11 499.07 105.29 499.07H100.28C99.4467 499.07 99.1767 498.68 99.47 497.9C103.943 485.993 109.157 474.15 115.11 462.37C115.29 462.017 115.577 461.84 115.97 461.84H118.2C118.55 461.84 118.892 461.937 119.188 462.119C119.485 462.301 119.724 462.561 119.88 462.87C121.913 466.91 123.163 469.483 123.63 470.59C126.963 478.477 130.683 487.513 134.79 497.7C135.003 498.22 134.827 498.48 134.26 498.48H129.73C129.404 498.48 129.086 498.384 128.816 498.204C128.545 498.024 128.334 497.769 128.21 497.47L126.81 494.07C126.722 493.859 126.571 493.681 126.377 493.559C126.184 493.438 125.958 493.378 125.73 493.39C120.07 493.723 114.693 493.733 109.6 493.42ZM117.58 488.76C119.6 488.753 121.617 488.707 123.63 488.62C123.679 488.618 123.726 488.603 123.768 488.579C123.809 488.554 123.845 488.52 123.87 488.478C123.896 488.437 123.911 488.39 123.914 488.342C123.918 488.293 123.91 488.245 123.89 488.2C121.743 483.54 119.913 478.73 118.4 473.77C118.04 472.577 117.75 471.98 117.53 471.98C117.303 471.98 117.017 472.58 116.67 473.78C115.19 478.747 113.393 483.567 111.28 488.24C111.26 488.285 111.252 488.333 111.256 488.382C111.259 488.43 111.274 488.477 111.3 488.518C111.325 488.56 111.361 488.594 111.402 488.619C111.444 488.643 111.491 488.658 111.54 488.66C113.553 488.733 115.567 488.767 117.58 488.76Z" fill="white"/>
<path d="M266.09 476.3V462.64C266.09 462.107 266.357 461.84 266.89 461.84H271.05C271.443 461.84 271.643 462.033 271.65 462.42C271.95 474.653 272.017 486.66 271.85 498.44C271.847 498.619 271.775 498.789 271.647 498.914C271.52 499.04 271.349 499.11 271.17 499.11H266.68C266.267 499.11 266.06 498.903 266.06 498.49V483.76C266.06 483.614 266.002 483.474 265.899 483.371C265.796 483.268 265.656 483.21 265.51 483.21H247.72C247.5 483.21 247.289 483.299 247.133 483.456C246.977 483.614 246.89 483.827 246.89 484.05V498.3C246.89 498.907 246.587 499.21 245.98 499.21H242.28C241.78 499.21 241.547 498.963 241.58 498.47C241.67 497.22 241.24 495.42 241.22 494.17C241.06 483.397 241.01 472.697 241.07 462.07C241.07 461.903 241.153 461.82 241.32 461.82H247C247.113 461.82 247.17 461.873 247.17 461.98V476.49C247.17 476.83 247.34 477 247.68 477H265.39C265.857 477 266.09 476.767 266.09 476.3Z" fill="white"/>
<path d="M412.36 493.6L410.36 498.61C410.313 498.73 410.227 498.79 410.1 498.79H403.9C403.767 498.79 403.72 498.727 403.76 498.6C406.12 491.307 407.543 487.127 408.03 486.06C410.91 479.693 414.08 472.653 417.54 464.94C418.193 463.48 418.557 462.673 418.63 462.52C418.817 462.12 419.023 461.917 419.25 461.91L424.26 461.78C424.62 461.773 424.873 461.937 425.02 462.27C425.84 464.2 426.19 466.14 427.2 468.4C431.3 477.533 435.683 487.627 440.35 498.68C440.372 498.73 440.381 498.785 440.376 498.84C440.371 498.894 440.352 498.947 440.321 498.992C440.29 499.037 440.248 499.074 440.199 499.098C440.149 499.122 440.095 499.133 440.04 499.13L434.64 498.93C434.293 498.917 434.053 498.75 433.92 498.43L432.14 494.11C432.019 493.818 431.812 493.569 431.546 493.396C431.281 493.223 430.968 493.133 430.65 493.14C423.59 493.287 417.763 493.263 413.17 493.07C412.997 493.064 412.826 493.112 412.681 493.207C412.536 493.302 412.424 493.439 412.36 493.6ZM421.42 469.54C421.353 469.673 421.367 469.803 421.46 469.93C421.485 469.966 421.519 469.995 421.558 470.015C421.598 470.034 421.642 470.044 421.686 470.042C421.73 470.04 421.772 470.027 421.81 470.004C421.847 469.981 421.878 469.948 421.9 469.91C422.053 469.643 422.027 469.467 421.82 469.38C421.64 469.307 421.507 469.36 421.42 469.54ZM421.57 488.8C423.803 488.8 425.863 488.753 427.75 488.66C427.811 488.656 427.871 488.638 427.924 488.607C427.977 488.576 428.021 488.533 428.054 488.481C428.088 488.43 428.108 488.371 428.114 488.31C428.12 488.249 428.112 488.187 428.09 488.13C425.403 481.15 423.273 475.44 421.7 471C421.673 470.927 421.643 470.89 421.61 470.89C421.577 470.89 421.547 470.927 421.52 471C419.927 475.433 417.77 481.133 415.05 488.1C415.028 488.156 415.02 488.217 415.025 488.278C415.031 488.338 415.05 488.396 415.082 488.448C415.114 488.499 415.158 488.542 415.21 488.574C415.261 488.606 415.32 488.625 415.38 488.63C417.267 488.73 419.33 488.787 421.57 488.8Z" fill="white"/>
<path d="M460.51 467.71C460.51 467.649 460.534 467.59 460.577 467.547C460.621 467.504 460.679 467.48 460.74 467.48L467.39 467.55C468.226 467.558 469.053 467.673 469.823 467.887C470.593 468.1 471.291 468.409 471.878 468.796C472.465 469.182 472.929 469.638 473.244 470.138C473.558 470.638 473.716 471.172 473.71 471.71L473.69 473.17C473.677 474.254 472.996 475.286 471.796 476.04C470.596 476.794 468.975 477.207 467.29 477.19L460.64 477.12C460.61 477.12 460.58 477.114 460.552 477.102C460.524 477.091 460.499 477.074 460.477 477.053C460.456 477.031 460.439 477.006 460.427 476.978C460.416 476.95 460.41 476.92 460.41 476.89L460.51 467.71Z" fill="#072344"/>
<path d="M337.2 469.35C337.2 469.061 337.315 468.784 337.519 468.579C337.724 468.375 338.001 468.26 338.29 468.26L344.8 468.27C346.513 468.273 348.155 468.841 349.364 469.848C350.574 470.855 351.252 472.219 351.25 473.64V474.66C351.249 475.364 351.081 476.061 350.755 476.711C350.429 477.361 349.952 477.951 349.352 478.448C348.751 478.945 348.038 479.338 347.253 479.606C346.469 479.874 345.629 480.012 344.78 480.01L338.27 480C337.981 480 337.704 479.885 337.499 479.681C337.295 479.476 337.18 479.199 337.18 478.91L337.2 469.35Z" fill="#072344"/>
<path d="M421.42 469.54C421.507 469.36 421.64 469.307 421.82 469.38C422.027 469.467 422.053 469.643 421.9 469.91C421.878 469.948 421.847 469.98 421.81 470.004C421.772 470.027 421.73 470.04 421.686 470.042C421.642 470.044 421.598 470.034 421.558 470.015C421.519 469.995 421.485 469.966 421.46 469.93C421.367 469.803 421.353 469.673 421.42 469.54Z" fill="#072344"/>
<path d="M421.57 488.8C419.33 488.787 417.267 488.73 415.38 488.63C415.32 488.625 415.261 488.606 415.21 488.574C415.158 488.542 415.114 488.499 415.082 488.448C415.05 488.396 415.031 488.338 415.025 488.278C415.02 488.217 415.028 488.156 415.05 488.1C417.77 481.133 419.927 475.433 421.52 471C421.547 470.927 421.577 470.89 421.61 470.89C421.643 470.89 421.673 470.927 421.7 471C423.273 475.44 425.403 481.15 428.09 488.13C428.112 488.187 428.12 488.249 428.114 488.31C428.108 488.371 428.088 488.43 428.054 488.481C428.021 488.533 427.977 488.576 427.924 488.607C427.871 488.638 427.811 488.656 427.75 488.66C425.863 488.753 423.803 488.8 421.57 488.8Z" fill="#072344"/>
<path d="M117.53 471.98C117.75 471.98 118.04 472.577 118.4 473.77C119.913 478.73 121.743 483.54 123.89 488.2C123.909 488.245 123.918 488.293 123.914 488.342C123.911 488.39 123.896 488.437 123.87 488.478C123.845 488.52 123.809 488.554 123.768 488.579C123.726 488.603 123.679 488.618 123.63 488.62C121.617 488.707 119.6 488.753 117.58 488.76C115.567 488.767 113.553 488.733 111.54 488.66C111.491 488.658 111.444 488.643 111.402 488.619C111.361 488.594 111.325 488.56 111.3 488.518C111.274 488.477 111.259 488.43 111.256 488.382C111.252 488.333 111.26 488.285 111.28 488.24C113.393 483.567 115.19 478.747 116.67 473.78C117.017 472.58 117.303 471.98 117.53 471.98Z" fill="#072344"/>
<path d="M460.35 483.76C460.349 483.723 460.355 483.687 460.367 483.652C460.38 483.618 460.4 483.586 460.425 483.559C460.45 483.532 460.48 483.51 460.514 483.495C460.547 483.48 460.583 483.471 460.62 483.47L467.64 483.27C469.622 483.216 471.537 483.689 472.964 484.585C474.391 485.481 475.213 486.728 475.25 488.05L475.26 488.23C475.279 488.885 475.104 489.54 474.745 490.156C474.387 490.772 473.851 491.338 473.169 491.821C472.488 492.304 471.673 492.694 470.773 492.971C469.872 493.247 468.902 493.403 467.92 493.43L460.9 493.63C460.826 493.63 460.755 493.6 460.702 493.548C460.65 493.495 460.62 493.424 460.62 493.35L460.35 483.76Z" fill="#072344"/>
</g>
<defs>
<clipPath id="clip0_3_199">
<rect width="572" height="523" fill="white"/>
</clipPath>
</defs>
</svg>
