<?xml version="1.0" encoding="UTF-8" standalone="no"?>
<!DOCTYPE svg PUBLIC "-//W3C//DTD SVG 1.1//EN" "http://www.w3.org/Graphics/SVG/1.1/DTD/svg11.dtd">
<svg width="100%" height="100%" viewBox="0 0 2084 2084" version="1.1" xmlns="http://www.w3.org/2000/svg" xmlns:xlink="http://www.w3.org/1999/xlink" xml:space="preserve" xmlns:serif="http://www.serif.com/" style="fill-rule:evenodd;clip-rule:evenodd;">
    <g transform="matrix(4.16667,0,0,4.16667,0,0)">
        <g transform="matrix(1.03228,0,0,1.02735,-55.2533,-49.0806)">
            <ellipse cx="294.664" cy="280.78" rx="168.692" ry="171.541" style="fill:#fff;"/>
        </g>
        <g transform="matrix(1.45436,0,0,1.45436,-115.505,-116.991)">
            <path d="M363.083,245.646C363.031,269.688 355.021,293.521 340.844,312.885C327.333,331.38 308.328,345.661 286.802,353.417C264.458,361.484 239.698,362.406 216.839,356.141C194.698,350.026 174.615,337.234 159.667,319.771C144.563,302.099 135.01,280.01 132.594,256.896C130.026,232.188 136.448,206.76 149.646,185.802C161.823,166.438 179.75,150.922 200.656,141.625C222.438,131.969 247.094,129.297 270.469,134.021C292.969,138.542 313.875,149.948 329.953,166.333C346.135,182.823 357.177,204.036 361.286,226.792C362.469,233.266 363.083,239.844 363.083,246.417C363.083,248.161 363.135,246.469 363.083,245.646C363.031,222.068 356.354,199.052 343,179.536C329.542,159.911 310.073,144.604 287.776,136.333C264.661,127.755 238.875,126.828 215.141,133.766C192.234,140.443 171.688,154.313 156.839,173.063C141.943,191.865 133.26,215.083 132.078,239.021C130.948,261.979 135.729,284.786 147.234,304.771C158.995,325.266 177.078,341.964 198.5,352.031C220.896,362.563 246.578,365.542 270.828,360.557C294.198,355.781 315.776,343.604 332.057,326.141C348.443,308.625 359.078,286.073 362.161,262.292C362.828,257 363.135,251.708 363.135,246.365C363.135,245.542 363.083,243.849 363.083,245.646Z" style="fill:#184fc4;fill-rule:nonzero;"/>
            <path d="M279.25,357.219C256.292,362.563 232.042,360.917 210.109,352.234C188.792,343.76 170.198,328.964 157.25,310.01C143.432,289.823 135.776,264.599 137.266,240.047C138.708,216.88 147.339,194.38 161.615,176.094C190.948,138.594 241.958,122.719 287.37,137.052C308.995,143.885 328.411,157.089 342.641,174.755C357.792,193.505 366.734,216.932 368.068,240.974C370.74,288.641 339.813,334.307 295.995,351.927C290.552,354.083 284.953,355.833 279.25,357.219C279.047,357.271 279.406,359.734 279.25,359.786C302.984,354.083 324.505,341.089 340.432,322.547C355.995,304.411 365.651,281.5 367.813,257.719C369.865,235.01 365.807,211.896 355.328,191.604C344.333,170.286 326.615,152.771 305.245,141.828C283.771,130.786 259.01,126.781 235.125,130.479C210.88,134.229 188.125,145.734 170.76,163.146C153.964,180.047 142.609,202.083 138.656,225.615C134.906,247.906 137.422,271.432 146.208,292.286C155.505,314.375 171.786,333.229 192.234,345.813C212.781,358.401 237.13,364.411 261.172,362.563C267.281,362.099 273.292,361.125 279.25,359.734C279.458,359.734 279.099,357.271 279.25,357.219Z" style="fill:#184fc4;fill-rule:nonzero;"/>
            <path d="M304.938,346.688C283.411,358.245 258.292,362.615 234.151,359.276C211.135,356.089 189.203,346.073 171.891,330.557C153.911,314.531 141.12,292.854 135.729,269.38C130.49,246.672 132.234,222.531 140.609,200.802C149.083,178.818 164.234,159.604 183.703,146.297C204.51,132.068 230.349,125.547 255.417,127.24C278.583,128.781 301.083,137.26 319.474,151.438C338.635,166.229 352.865,186.984 359.953,210.099C366.781,232.391 366.682,256.536 359.849,278.781C352.964,301.177 339.302,321.313 320.964,335.901C315.776,340.063 310.177,343.813 304.318,346.995C302.729,347.87 304.219,347.099 304.938,346.688C325.948,335.286 343.255,318.177 354.25,296.859C365.292,275.391 369.557,250.63 366.167,226.693C362.672,201.88 351.063,178.453 333.443,160.63C316.443,143.37 294.099,131.76 270.26,127.547C246.323,123.339 221.359,126.781 199.422,137.26C178.417,147.328 160.333,162.583 148.057,182.464C135.417,202.906 129.255,227.104 130.641,251.042C132.078,276.109 141.786,300.458 157.917,319.719C173.484,338.266 194.75,351.672 218.172,357.786C241.703,363.948 266.974,362.563 289.677,353.828C294.714,351.875 299.594,349.563 304.37,346.995C305.036,346.688 306.578,345.813 304.938,346.688Z" style="fill:#184fc4;fill-rule:nonzero;"/>
            <g>
                <path d="M164.906,325.677C149.031,307.75 138.859,285.354 136.036,261.568C133.313,238.453 137.526,214.724 148.208,194.021C159.563,171.932 178.417,152.927 201.016,142.448C222.385,132.531 246.63,129.401 269.849,133.302C317.469,141.37 356.255,179.224 365.344,226.693C369.661,249.292 367.245,273.026 358.359,294.24C348.958,316.792 332.365,336.057 311.563,348.896C270.313,374.271 214.63,368.672 177.745,338.109C173.177,334.255 168.911,330.094 164.906,325.677C164.75,325.526 162.745,327.068 162.594,326.911C179.135,345.354 201.12,358.297 225.365,363.536C249.047,368.672 274.167,366.26 296.458,356.703C317.677,347.563 336.375,332.818 349.422,313.708C363.135,293.625 370.276,269.328 369.714,245.031C369.146,220.526 360.823,196.484 345.979,176.964C330.927,157.135 309.714,142.344 285.776,135.255C262.661,128.37 237.438,128.833 214.578,136.641C192.849,144.089 173.021,157.651 158.635,175.578C143.432,194.536 134.443,218.161 133.109,242.464C131.771,266.911 138.193,291.469 151.396,312.068C154.734,317.307 158.536,322.234 162.646,326.859C162.797,327.068 164.802,325.526 164.906,325.677Z" style="fill:#184fc4;fill-rule:nonzero;"/>
            </g>
        </g>
        <g transform="matrix(1.45436,0,0,1.45436,-115.512,-99.1058)">
            <clipPath id="_clip1">
                <rect x="217.416" y="231.504" width="63.504" height="99.224"/>
            </clipPath>
            <g clip-path="url(#_clip1)">
                <path d="M259.594,250.918L259.594,263.281C259.594,278.026 259.818,289.839 260.255,298.714C260.698,307.557 262.219,313.938 264.823,317.865C267.464,321.75 272.031,323.698 278.526,323.698L278.526,325.953L219.708,325.953L219.708,323.698C226.161,323.698 230.839,321.75 233.734,317.865C236.672,313.938 238.505,307.557 239.24,298.714C240.01,289.839 240.396,278.026 240.396,263.281L240.396,251.41L259.594,250.918Z" style="fill:none;stroke:#fff;stroke-width:27.29px;"/>
            </g>
            <path d="M259.568,250.919L259.568,263.306C259.568,278.03 259.787,289.821 260.235,298.681C260.693,307.545 262.235,313.931 264.86,317.847C267.496,321.754 272.048,323.702 278.506,323.702L278.506,325.952L219.673,325.952L219.673,323.702C226.141,323.702 230.839,321.754 233.756,317.847C236.683,313.931 238.527,307.545 239.277,298.681C240.037,289.821 240.423,278.03 240.423,263.306L240.423,251.409L259.568,250.919Z" style="fill:#184fc4;"/>
        </g>
        <g transform="matrix(1.45436,0,0,1.45436,-115.505,-116.991)">
            <g transform="matrix(0.687589,0,0,0.687589,79.42,80.4416)">
                <path d="M234.116,77.829L234.116,32.573C215.339,32.573 198.56,34.391 183.782,38.019C169.057,41.587 157.482,46.337 149.052,52.26C140.674,58.131 136.485,64.796 136.485,72.265C136.485,72.909 136.538,73.174 136.652,73.068C136.758,72.962 136.811,73.121 136.811,73.545L133.531,73.545L133.531,29.293L362.63,29.293L362.63,73.545L359.343,73.545C359.343,73.121 359.396,72.962 359.509,73.068C359.615,73.174 359.668,72.909 359.668,72.265C359.668,64.796 355.449,58.131 347.026,52.26C338.648,46.337 327.074,41.587 312.296,38.019C297.57,34.391 280.823,32.573 262.037,32.573L262.037,77.655L234.116,77.829Z" style="fill:none;stroke:#fff;stroke-width:27.29px;"/>
            </g>
            <g transform="matrix(0.687589,0,0,0.687589,79.42,80.4416)">
                <path d="M262.037,77.655L262.037,247.933L234.116,248.649L234.116,77.829L262.037,77.655Z" style="fill:none;stroke:#fff;stroke-width:27.29px;"/>
            </g>
            <path d="M240.423,251.409L240.423,102.827C227.49,102.827 215.954,104.071 205.818,106.556C195.678,109.03 187.714,112.295 181.923,116.347C176.141,120.405 173.256,124.988 173.256,130.097C173.256,130.556 173.287,130.754 173.36,130.681C173.443,130.597 173.485,130.702 173.485,130.993L171.235,130.993L171.235,100.577L328.756,100.577L328.756,130.993L326.506,130.993C326.506,130.702 326.537,130.597 326.61,130.681C326.693,130.754 326.735,130.556 326.735,130.097C326.735,124.988 323.839,120.405 318.048,116.347C312.266,112.295 304.308,109.03 294.173,106.556C284.032,104.071 272.496,102.827 259.568,102.827L259.568,250.919L240.423,251.409Z" style="fill:#184fc4;"/>
        </g>
        <g transform="matrix(1.30198,0,0,1.30198,99.4743,106.853)">
            <clipPath id="_clip2">
                <rect x="29.604" y="28.919" width="138.575" height="125.768"/>
            </clipPath>
            <g clip-path="url(#_clip2)">
                <path d="M107.02,125.2C105.898,121.832 104.385,118.533 102.488,115.304C100.609,112.081 98.387,109.195 95.815,106.647C93.261,104.075 90.404,101.946 87.228,100.276C84.057,98.577 80.566,97.524 76.767,97.123C75.342,97.024 73.858,97.047 72.311,97.199C70.787,97.35 69.297,97.687 67.849,98.211C66.423,98.711 65.126,99.427 63.951,100.346C62.775,101.271 61.938,102.499 61.437,104.023L53.903,126.439C51.855,132.286 50.854,136.673 50.901,139.599C50.953,142.497 52.001,143.945 54.054,143.945L54.054,145.336L41.005,145.336L41.005,143.945C41.604,143.945 42.32,143.672 43.146,143.119C43.966,142.549 44.868,141.572 45.845,140.199C46.817,138.796 47.864,136.946 48.993,134.648C50.116,132.35 51.291,129.465 52.513,125.991L79.845,45.995L76.919,37.559L88.613,37.559L117.929,123.065C118.953,125.939 119.954,128.662 120.931,131.239C121.903,133.787 122.816,136.01 123.665,137.912C124.538,139.786 125.341,141.257 126.062,142.334C126.79,143.41 127.453,143.945 128.052,143.945L128.052,145.336L110.098,145.336L110.098,143.945C110.622,143.945 110.796,142.52 110.622,139.675C110.47,136.801 109.685,133.211 108.26,128.912L107.02,125.2ZM63.124,99.409C64.846,97.786 66.987,96.751 69.536,96.303C72.107,95.826 74.522,95.686 76.767,95.89C82.62,96.413 87.74,98.362 92.138,101.737C96.537,105.111 100.225,109.149 103.198,113.844L80.63,48.131L63.124,99.409ZM155.384,38.909C155.082,38.909 154.721,39.072 154.297,39.398C153.895,39.695 153.511,40.259 153.133,41.079C152.784,41.905 152.458,43.081 152.161,44.605C151.859,46.129 151.708,48.177 151.708,50.754L151.708,132.141C151.708,134.584 151.859,136.609 152.161,138.209C152.458,139.786 152.784,140.984 153.133,141.81C153.511,142.636 153.895,143.195 154.297,143.497C154.721,143.794 155.082,143.945 155.384,143.945L155.384,145.336L137.279,145.336L137.279,143.945C137.477,143.945 137.78,143.794 138.175,143.497C138.6,143.195 138.99,142.636 139.339,141.81C139.711,140.984 140.049,139.786 140.351,138.209C140.654,136.609 140.799,134.584 140.799,132.141L140.799,50.754C140.799,48.177 140.654,46.129 140.351,44.605C140.049,43.081 139.711,41.905 139.339,41.079C138.99,40.259 138.6,39.695 138.175,39.398C137.78,39.072 137.477,38.909 137.279,38.909L137.279,37.559L155.384,37.559L155.384,38.909Z" style="fill:#231915;fill-rule:nonzero;stroke:#fff;stroke-width:17.08px;"/>
            </g>
        </g>
        <g transform="matrix(1.45436,0,0,1.45436,146.861,296.074)">
            <g>
                <g>
                    <path d="M63.229,-18C62.229,-21.026 60.875,-23.984 59.167,-26.875C57.469,-29.76 55.479,-32.354 53.188,-34.646C50.896,-36.937 48.323,-38.833 45.479,-40.333C42.646,-41.844 39.531,-42.792 36.146,-43.167C34.865,-43.25 33.542,-43.219 32.167,-43.083C30.792,-42.958 29.458,-42.667 28.167,-42.208C26.885,-41.75 25.719,-41.104 24.667,-40.271C23.609,-39.448 22.854,-38.354 22.396,-36.979L15.667,-16.917C13.833,-11.677 12.938,-7.755 12.979,-5.146C13.031,-2.531 13.979,-1.229 15.813,-1.229L15.813,0L4.125,0L4.125,-1.229C4.677,-1.229 5.318,-1.479 6.042,-1.979C6.776,-2.49 7.573,-3.365 8.438,-4.604C9.313,-5.839 10.255,-7.484 11.271,-9.542C12.281,-11.609 13.339,-14.198 14.438,-17.312L38.896,-88.937L36.292,-96.5L46.729,-96.5L73,-19.937C73.917,-17.365 74.802,-14.937 75.667,-12.646C76.542,-10.354 77.365,-8.359 78.146,-6.667C78.922,-4.969 79.63,-3.635 80.271,-2.667C80.906,-1.708 81.505,-1.229 82.063,-1.229L82.063,0L65.979,0L65.979,-1.229C66.438,-1.229 66.594,-2.51 66.458,-5.083C66.318,-7.651 65.609,-10.859 64.333,-14.708L63.229,-18ZM23.917,-41.104C25.469,-42.562 27.396,-43.5 29.688,-43.917C31.979,-44.333 34.13,-44.448 36.146,-44.271C41.365,-43.812 45.948,-42.068 49.896,-39.042C53.839,-36.01 57.135,-32.396 59.792,-28.187L39.583,-87.021L23.917,-41.104Z" style="fill-rule:nonzero;"/>
                </g>
            </g>
        </g>
        <g transform="matrix(1.45436,0,0,1.45436,272.203,296.074)">
            <g>
                <g>
                    <path d="M20.354,-95.25C20.073,-95.25 19.75,-95.109 19.375,-94.833C19.01,-94.568 18.672,-94.068 18.354,-93.333C18.031,-92.594 17.734,-91.542 17.458,-90.167C17.177,-88.792 17.042,-86.958 17.042,-84.667L17.042,-11.812C17.042,-9.615 17.177,-7.812 17.458,-6.396C17.734,-4.979 18.031,-3.901 18.354,-3.167C18.672,-2.427 19.01,-1.922 19.375,-1.646C19.75,-1.365 20.073,-1.229 20.354,-1.229L20.354,0L4.125,0L4.125,-1.229C4.302,-1.229 4.573,-1.365 4.938,-1.646C5.313,-1.922 5.656,-2.427 5.979,-3.167C6.297,-3.901 6.594,-4.979 6.875,-6.396C7.151,-7.812 7.292,-9.615 7.292,-11.812L7.292,-84.667C7.292,-86.958 7.151,-88.792 6.875,-90.167C6.594,-91.542 6.297,-92.594 5.979,-93.333C5.656,-94.068 5.313,-94.568 4.938,-94.833C4.573,-95.109 4.302,-95.25 4.125,-95.25L4.125,-96.5L20.354,-96.5L20.354,-95.25Z" style="fill-rule:nonzero;"/>
                </g>
            </g>
        </g>
        <g transform="matrix(1.45436,0,0,1.45436,116.307,469.922)">
            <g>
                <g>
                    <path d="M13,0L11.771,-3.146L4.771,-3.146L3.542,0L0,0L6.833,-16.542L9.688,-16.542L16.542,0L13,0ZM5.979,-6.292L10.563,-6.292L8.271,-12.208L5.979,-6.292Z" style="fill-rule:nonzero;stroke:#000;stroke-width:0.69px;stroke-linejoin:round;stroke-miterlimit:2;"/>
                </g>
            </g>
        </g>
        <g transform="matrix(1.45436,0,0,1.45436,156.647,469.922)">
            <g>
                <g>
                    <rect x="1.583" y="-16.542" width="3.146" height="16.542" style="fill-rule:nonzero;stroke:#000;stroke-width:0.69px;stroke-linejoin:round;stroke-miterlimit:2;"/>
                </g>
            </g>
        </g>
        <g transform="matrix(1.45436,0,0,1.45436,209.295,469.922)">
            <g>
                <g>
                    <path d="M0.792,-16.542L12.604,-16.542L12.604,-13.375L8.271,-13.375L8.271,0L5.125,0L5.125,-13.375L0.792,-13.375L0.792,-16.542Z" style="fill:#184fc4;fill-rule:nonzero;"/>
                </g>
            </g>
        </g>
        <g transform="matrix(1.45436,0,0,1.45436,245.053,469.922)">
            <g>
                <g>
                    <path d="M14.167,0L10.333,0L6.625,-5.521L4.729,-5.521L4.729,0L1.583,0L1.583,-16.542L7.479,-16.542C8.922,-16.542 10.104,-16.297 11.021,-15.812C11.948,-15.339 12.635,-14.687 13.083,-13.854C13.542,-13.031 13.771,-12.089 13.771,-11.021C13.771,-10.255 13.625,-9.51 13.333,-8.792C13.042,-8.083 12.615,-7.458 12.063,-6.917C11.505,-6.385 10.813,-6 9.979,-5.75L14.167,0ZM4.729,-13.375L4.729,-8.667L7.875,-8.667C8.635,-8.667 9.281,-8.88 9.813,-9.312C10.354,-9.755 10.625,-10.323 10.625,-11.021C10.625,-11.797 10.354,-12.38 9.813,-12.771C9.281,-13.172 8.635,-13.375 7.875,-13.375L4.729,-13.375Z" style="fill:#184fc4;fill-rule:nonzero;"/>
                </g>
            </g>
        </g>
        <g transform="matrix(1.45436,0,0,1.45436,283.102,469.922)">
            <g>
                <g>
                    <path d="M11.417,-16.542L14.563,-16.542L14.563,-7.083C14.563,-5.635 14.297,-4.344 13.771,-3.208C13.255,-2.083 12.49,-1.198 11.479,-0.562C10.479,0.073 9.276,0.396 7.875,0.396C6.427,0.396 5.208,0.073 4.208,-0.562C3.219,-1.198 2.469,-2.083 1.958,-3.208C1.443,-4.344 1.188,-5.635 1.188,-7.083L1.188,-16.542L4.333,-16.542L4.333,-6.687C4.333,-5.906 4.49,-5.219 4.813,-4.625C5.13,-4.042 5.552,-3.583 6.083,-3.25C6.625,-2.917 7.219,-2.75 7.875,-2.75C8.526,-2.75 9.115,-2.917 9.646,-3.25C10.188,-3.583 10.615,-4.042 10.938,-4.625C11.255,-5.219 11.417,-5.906 11.417,-6.687L11.417,-16.542Z" style="fill:#184fc4;fill-rule:nonzero;"/>
                </g>
            </g>
        </g>
        <g transform="matrix(1.45436,0,0,1.45436,322.296,469.922)">
            <g>
                <g>
                    <path d="M7.875,-10.042C9.083,-9.844 10.156,-9.573 11.104,-9.229C12.047,-8.88 12.792,-8.365 13.333,-7.687C13.885,-7.021 14.167,-6.094 14.167,-4.917C14.167,-3.927 13.917,-3.031 13.417,-2.229C12.917,-1.437 12.172,-0.797 11.188,-0.312C10.198,0.156 8.979,0.396 7.521,0.396C6.479,0.396 5.547,0.26 4.729,0C3.922,-0.25 3.24,-0.542 2.688,-0.875C2.13,-1.208 1.693,-1.521 1.375,-1.812C1.068,-2.115 0.875,-2.297 0.792,-2.354L2.354,-5.125C2.854,-4.583 3.401,-4.13 4,-3.771C4.609,-3.422 5.229,-3.167 5.854,-3C6.479,-2.833 7.052,-2.75 7.583,-2.75C8.677,-2.75 9.526,-2.927 10.125,-3.292C10.719,-3.667 11.021,-4.146 11.021,-4.729C11.021,-5.297 10.729,-5.74 10.146,-6.062C9.573,-6.38 8.75,-6.625 7.667,-6.792C6.109,-7.042 4.865,-7.396 3.938,-7.854C3.021,-8.312 2.359,-8.865 1.958,-9.521C1.568,-10.172 1.375,-10.922 1.375,-11.771C1.375,-12.687 1.615,-13.531 2.104,-14.312C2.589,-15.104 3.302,-15.734 4.25,-16.208C5.193,-16.693 6.354,-16.937 7.729,-16.937C7.979,-16.937 8.396,-16.901 8.979,-16.833C9.573,-16.76 10.255,-16.589 11.021,-16.312C11.797,-16.031 12.583,-15.568 13.375,-14.917L12.063,-12.208C11.938,-12.318 11.677,-12.49 11.292,-12.729C10.901,-12.979 10.401,-13.214 9.792,-13.437C9.177,-13.656 8.469,-13.771 7.667,-13.771C7.109,-13.771 6.594,-13.714 6.125,-13.604C5.651,-13.49 5.26,-13.302 4.958,-13.042C4.667,-12.776 4.521,-12.422 4.521,-11.979C4.521,-11.422 4.776,-11.005 5.292,-10.729C5.818,-10.464 6.677,-10.234 7.875,-10.042Z" style="fill:#184fc4;fill-rule:nonzero;"/>
                </g>
            </g>
        </g>
        <g transform="matrix(1.45436,0,0,1.45436,360.344,469.922)">
            <g>
                <g>
                    <path d="M0.792,-16.542L12.604,-16.542L12.604,-13.375L8.271,-13.375L8.271,0L5.125,0L5.125,-13.375L0.792,-13.375L0.792,-16.542Z" style="fill:#184fc4;fill-rule:nonzero;"/>
                </g>
            </g>
        </g>
    </g>
</svg>
