<svg width="440" height="409" viewBox="0 0 440 409" fill="none" xmlns="http://www.w3.org/2000/svg">
<path d="M144.454 53.1637L173.627 99.8522L70.1903 245.772H16.2139L144.454 53.1637ZM261.07 9.43945L421.445 245.772H368.357L261.07 98.5924L153.784 245.772H100.77L261.07 9.43945ZM228.122 181.594L269.807 245.772H182.364L228.122 181.594Z" fill="black"/>
<path d="M36.8716 398.214C41.8324 398.214 46.6451 397.473 51.3838 396.065C56.1225 394.657 60.2688 392.137 63.7488 388.506C63.8228 389.84 64.0449 391.174 64.2671 392.434C64.4892 393.694 64.8594 394.954 65.3036 396.213H87.5902C86.5536 394.583 85.8132 392.137 85.443 388.802C84.9988 385.542 84.8507 382.059 84.8507 378.501V337C84.8507 332.183 83.7401 328.256 81.5928 325.365C79.4456 322.401 76.632 320.178 73.2261 318.473C69.8202 316.843 66.0441 315.731 61.8977 315.138C57.7514 314.545 53.6791 314.323 49.6808 314.323C45.2383 314.323 40.8698 314.768 36.4273 315.657C32.0589 316.546 28.1347 318.029 24.5806 320.03C21.0266 322.03 18.2131 324.847 15.9178 328.181C13.6225 331.516 12.3637 335.815 12.0676 341.002H34.058C34.5023 336.704 35.909 333.591 38.4265 331.739C40.8698 329.886 44.2758 328.997 48.6442 328.997C50.5693 328.997 52.4204 329.145 54.1233 329.367C55.8263 329.59 57.3071 330.108 58.6399 330.924C59.9726 331.739 60.9352 332.776 61.7496 334.184C62.4901 335.592 62.9343 337.445 62.9343 339.817C63.0084 342.114 62.342 343.818 60.9352 345.004C59.4543 346.19 57.5293 347.079 55.0859 347.672C52.6425 348.265 49.7549 348.784 46.5711 349.08C43.3873 349.377 40.1294 349.821 36.7975 350.34C33.4657 350.859 30.2078 351.526 26.95 352.415C23.6921 353.304 20.8045 354.564 18.2871 356.343C15.7697 358.121 13.6965 360.419 12.0676 363.383C10.4387 366.348 9.69824 370.053 9.69824 374.574C9.69824 378.65 10.3646 382.207 11.7714 385.245C13.1782 388.21 15.1033 390.729 17.5467 392.656C19.9901 394.583 22.8777 396.065 26.2096 396.954C29.5414 397.844 33.0214 398.214 36.8716 398.214ZM45.0162 383.615C43.2392 383.615 41.5362 383.467 39.9073 383.17C38.2784 382.874 36.7975 382.355 35.5388 381.54C34.2801 380.799 33.3176 379.761 32.5772 378.427C31.8367 377.093 31.4665 375.463 31.4665 373.536C31.4665 371.535 31.8367 369.831 32.5772 368.497C33.3176 367.163 34.2801 366.051 35.4648 365.236C36.6495 364.347 38.0563 363.68 39.6852 363.161C41.3141 362.642 42.943 362.272 44.5719 361.975C46.3489 361.679 48.0519 361.382 49.8289 361.234C51.6059 361.012 53.2348 360.789 54.8637 360.493C56.4927 360.196 57.9735 359.826 59.3803 359.381C60.7871 358.937 61.9718 358.27 62.8603 357.454V365.532C62.8603 366.718 62.7122 368.348 62.4901 370.424C62.2679 372.424 61.5275 374.499 60.4169 376.426C59.3063 378.427 57.5293 380.132 55.1599 381.54C52.7165 382.948 49.3106 383.615 45.0162 383.615ZM118.91 396.065V285.865H97.0676V395.991H118.91V396.065ZM162.298 396.806C164.446 396.806 166.667 396.732 168.888 396.658C171.109 396.584 173.183 396.362 175.034 396.065V379.094C173.997 379.317 172.96 379.465 171.776 379.539C170.665 379.613 169.48 379.687 168.222 379.687C164.52 379.687 162.076 379.094 160.818 377.834C159.559 376.575 158.967 374.129 158.967 370.424V330.998H174.96V316.324H158.967V292.461H137.124V316.324H124.019V330.998H137.198V377.983C137.198 381.984 137.865 385.245 139.197 387.691C140.53 390.136 142.381 392.063 144.676 393.397C146.972 394.731 149.637 395.621 152.673 396.065C155.709 396.51 158.892 396.806 162.298 396.806ZM217.163 398.214C226.196 398.214 233.897 396.139 240.264 392.063C246.632 387.987 251.371 381.095 254.406 371.535H235.156C234.415 373.981 232.49 376.352 229.306 378.575C226.122 380.799 222.346 381.91 217.904 381.91C211.758 381.91 207.02 380.28 203.762 377.093C200.504 373.907 198.653 368.793 198.357 361.679H255.813C256.257 355.528 255.739 349.599 254.258 343.967C252.852 338.334 250.482 333.295 247.224 328.848C243.967 324.402 239.894 320.919 234.859 318.251C229.825 315.657 223.901 314.323 217.163 314.323C211.092 314.323 205.613 315.435 200.578 317.584C195.617 319.733 191.323 322.697 187.695 326.477C184.067 330.257 181.327 334.703 179.402 339.817C177.477 344.93 176.44 350.488 176.44 356.491C176.44 362.642 177.403 368.348 179.254 373.462C181.179 378.575 183.845 383.022 187.325 386.727C190.805 390.433 195.099 393.249 200.134 395.25C205.243 397.251 210.944 398.214 217.163 398.214ZM234.119 347.894H198.431C198.505 346.338 198.875 344.634 199.467 342.707C200.06 340.78 201.022 338.927 202.429 337.223C203.836 335.518 205.687 334.036 207.982 332.85C210.278 331.665 213.239 331.072 216.719 331.072C222.05 331.072 226.048 332.48 228.714 335.37C231.231 338.26 233.082 342.41 234.119 347.894ZM302.904 398.214C309.197 398.214 314.825 397.251 319.933 395.25C325.042 393.249 329.337 390.507 332.965 386.876C336.593 383.244 339.332 378.798 341.257 373.684C343.183 368.571 344.219 362.79 344.219 356.417C344.219 350.044 343.257 344.263 341.257 339.075C339.332 333.888 336.519 329.441 332.965 325.81C329.411 322.179 325.042 319.363 319.933 317.362C314.825 315.361 309.197 314.323 302.904 314.323C296.61 314.323 290.983 315.361 285.948 317.362C280.913 319.363 276.619 322.179 272.991 325.81C269.363 329.441 266.697 333.888 264.698 339.075C262.773 344.263 261.737 350.044 261.737 356.417C261.737 362.79 262.699 368.571 264.698 373.684C266.623 378.798 269.437 383.244 272.991 386.876C276.619 390.507 280.913 393.323 285.948 395.25C290.983 397.177 296.61 398.214 302.904 398.214ZM302.904 382.207C299.202 382.207 296.166 381.466 293.649 380.058C291.205 378.65 289.206 376.723 287.725 374.277C286.244 371.832 285.208 369.164 284.541 366.125C283.949 363.087 283.653 359.974 283.653 356.787C283.653 353.601 283.949 350.488 284.541 347.376C285.134 344.263 286.244 341.595 287.725 339.224C289.206 336.852 291.205 334.925 293.649 333.443C296.092 331.961 299.202 331.22 302.904 331.22C306.606 331.22 309.716 331.961 312.233 333.443C314.751 334.925 316.75 336.852 318.23 339.224C319.711 341.595 320.748 344.337 321.414 347.376C322.007 350.488 322.303 353.601 322.303 356.787C322.303 359.974 322.007 363.087 321.414 366.125C320.822 369.164 319.711 371.906 318.23 374.277C316.75 376.723 314.751 378.65 312.233 380.058C309.716 381.466 306.606 382.207 302.904 382.207ZM374.872 396.065V354.342C374.872 346.264 376.205 340.409 378.871 336.852C381.536 333.295 385.905 331.516 391.902 331.516C397.159 331.516 400.861 333.147 402.86 336.333C404.933 339.594 405.97 344.485 405.97 351.007V395.917H427.96V347.005C427.96 342.114 427.516 337.593 426.628 333.517C425.739 329.441 424.258 326.032 422.037 323.216C419.89 320.4 416.928 318.177 413.152 316.621C409.376 315.064 404.563 314.249 398.714 314.249C394.049 314.249 389.533 315.287 385.09 317.436C380.648 319.511 377.02 322.92 374.28 327.514H373.836V316.472H352.956V395.991H374.872V396.065Z" fill="black"/>
</svg>
