<svg width="456" height="59" viewBox="0 0 456 59" fill="none" xmlns="http://www.w3.org/2000/svg">
<path fill-rule="evenodd" clip-rule="evenodd" d="M229.752 37.0049C229.752 49.2874 223.06 58.2692 211.878 58.2692C206.287 58.2692 203.053 56.2258 200.853 53.4639H199.281V57.2363H188.57V0H199.595V20.5458H201.167C203.3 17.7165 206.444 15.7405 211.878 15.7405C222.903 15.7405 229.752 24.6325 229.752 37.0049ZM218.726 37.0049C218.726 30.2236 215.65 24.9693 209.049 24.9693C202.447 24.9693 199.214 30.6278 199.214 37.0049C199.214 43.3819 202.2 49.1302 209.049 49.1302C215.897 49.1302 218.726 43.7861 218.726 37.0049Z" fill="black"/>
<path fill-rule="evenodd" clip-rule="evenodd" d="M83.2121 42.0369H104.409V42.0593L109.124 57.261H121.003L102.972 1.03516H84.941L67 57.2385H78.564L83.2121 42.0369ZM101.176 31.8201H86.3782L92.4409 12.2848H95.1129L101.176 31.8201Z" fill="black"/>
<path d="M183.066 57.2418V32.2052C183.066 22.2803 178.733 15.7461 168.494 15.7461C163.531 15.7461 159.759 17.4751 157.468 20.6187H155.897C153.696 17.4751 150.081 15.7461 145.433 15.7461C140.785 15.7461 137.012 17.4751 135.036 20.5513H133.465V16.779H122.754V57.2418H133.779V35.6631C133.779 30.2292 136.137 25.5138 141.256 25.5138C145.433 25.5138 147.409 28.1185 147.409 33.3952V57.2418H158.434V35.0344C158.434 29.6005 160.792 25.5138 165.911 25.5138C170.065 25.5138 172.041 28.1185 172.041 33.3054V57.2418H183.066Z" fill="black"/>
<path fill-rule="evenodd" clip-rule="evenodd" d="M243.221 38.2679H272.188V34.9671C272.188 23.8521 265.159 15.7461 252.652 15.7461C240.145 15.7461 232.264 23.942 232.264 36.8532C232.264 49.7645 240.145 58.2747 252.899 58.2747C263.857 58.2747 270.144 52.9979 271.806 45.0491H260.624C259.591 47.6313 257.233 49.1358 253.056 49.1358C246.769 49.1358 243.536 45.2063 243.221 38.2679ZM260.938 30.9477H243.603C244.636 26.8386 247.622 24.0093 252.585 24.0093C257.547 24.0093 260.309 26.861 260.938 30.9477Z" fill="black"/>
<path d="M302.972 27.0087H299.446C291.026 27.0087 287.074 31.4996 287.074 39.5383V57.2548H276.049V16.7695H286.67V21.4176H288.242C289.589 19.5314 292.89 16.7695 299.424 16.7695H302.972V27.0087Z" fill="black"/>
<path d="M350.462 43.3842L342.828 17.0901H329.13L321.563 43.3842H319.991L315.029 1.03516H303.779L310.673 57.261H327.132L335.171 28.0478H336.742L344.691 57.261H361.15L368.089 1.03516H356.996L351.966 43.3842H350.462Z" fill="black"/>
<path fill-rule="evenodd" clip-rule="evenodd" d="M409.925 37.0104C409.925 49.6971 401.819 58.2747 388.975 58.2747C376.131 58.2747 368.025 49.6971 368.025 37.0104C368.025 24.3237 376.221 15.7461 388.975 15.7461C401.729 15.7461 409.925 24.3237 409.925 37.0104ZM398.9 37.0104C398.9 30.5435 395.914 24.9749 388.975 24.9749C382.037 24.9749 379.051 30.566 379.051 37.0104C379.051 43.4548 382.127 49.1358 388.975 49.1358C395.824 49.1358 398.9 43.5446 398.9 37.0104Z" fill="black"/>
<path d="M424.81 57.2363V0H413.785V57.2363H424.81Z" fill="black"/>
<path d="M444.885 25.9797V57.2363H433.86V25.9797H427.012V16.7734H433.86V12.8439C433.86 3.23343 439.676 0 449.062 0H456V9.36348H449.848C446.457 9.36348 444.885 11.0251 444.885 14.3259V16.7734H455.349V25.9797H444.885Z" fill="black"/>
<path d="M0 0.712383V16.9117L10.6787 8.54025C11.0476 8.25033 11.0476 7.77922 10.6787 7.48928L1.38324 0.186901C0.848389 -0.229862 0 0.0962945 0 0.712383Z" fill="#FD420F"/>
<path d="M39.3201 8.54025L49.9988 16.9117V0.712383C49.9988 0.0962945 49.1504 -0.229862 48.6155 0.186901L39.3201 7.48928C38.9512 7.77922 38.9512 8.25033 39.3201 8.54025Z" fill="#FD420F"/>
<path d="M24.2545 22.9233C24.6786 22.5972 25.3426 22.5791 25.7668 22.9233H25.7853L47.5115 39.8656C47.8435 40.1193 47.8435 40.5723 47.5115 40.826L26.0619 57.732C25.6008 58.0763 24.9184 58.0944 24.4573 57.732L2.76794 40.826C2.43591 40.5723 2.43591 40.1193 2.76794 39.8656L24.2545 22.9233Z" fill="#FD420F"/>
<path d="M0.313538 23.3061L24.4006 3.95385C24.7325 3.68205 25.2675 3.68205 25.6179 3.95385L49.6865 23.3061C49.8893 23.4692 50 23.7047 50 23.9403V34.3775C50 34.8305 49.3914 35.066 49.004 34.758L25.6732 16.5654C25.2859 16.2755 24.7141 16.2755 24.3268 16.5654L0.995972 34.758C0.627075 35.066 0 34.8305 0 34.3775V23.9403C0 23.7047 0.110657 23.4692 0.313538 23.3061Z" fill="#FD420F"/>
</svg>
