<?xml version="1.0" encoding="UTF-8"?>
<svg xmlns="http://www.w3.org/2000/svg" version="1.1" viewBox="0 0 1100 340">
  <defs>
    <style>
      .cls-1, .cls-2 {
        stroke: #fff;
        stroke-miterlimit: 10;
      }

      .cls-1, .cls-3 {
        fill: #231f20;
      }

      .cls-2 {
        fill: #1a171b;
        fill-rule: evenodd;
      }

      .cls-3 {
        font-family: Novecentosans-Medium, 'Novecento sans';
        font-size: 280px;
        font-weight: 500;
      }
    </style>
  </defs>
  <!-- Generator: Adobe Illustrator 28.6.0, SVG Export Plug-In . SVG Version: 1.2.0 Build 709)  -->
  <g>
    <g id="Layer_1">
      <text class="cls-3" transform="translate(11.24 258.48)"><tspan x="0" y="0">ATOM</tspan></text>
      <g>
        <path class="cls-2" d="M888.5,70.05c3.92,1.27,7.84,2.65,11.83,4.1,1.08-4.21,2.24-8.24,3.47-12.12,14.59-45.25,33.47-47.82,48.58-7.83,6.08,16.08,9.74,33.79,12.16,50.8,4.55,2.69,9.07,5.45,13.51,8.28-2.2-20.03-6.12-41.63-12.91-60.35-19.63-54.16-54.62-52.41-73.24,5.3-1.23,3.8-2.35,7.72-3.43,11.82h.04Z"/>
        <path class="cls-1" d="M986.21,126.52l-11.79-7.53c-4.33-2.76-8.81-5.52-13.28-8.17l-2.76-1.64-.45-3.21c-2.8-19.55-6.68-35.73-11.83-49.39-6.68-17.72-13.17-24.06-16.72-23.84-4.22.11-11.79,8.36-19.18,31.33-1.19,3.69-2.31,7.61-3.36,11.71l-1.83,7.24-6.98-2.61c-3.92-1.45-7.8-2.8-11.57-4.03l-6.01-1.94,1.57-6.12c1.08-4.21,2.28-8.32,3.54-12.2,10.15-31.44,25.56-48.94,43.43-49.27,17.16-.26,32.16,15.26,42.5,43.75,6.19,17.05,10.63,37.9,13.25,61.92l1.53,13.91-.07.07Z"/>
        <path class="cls-2" d="M985.17,78.52c3.84-1.08,7.28-1.83,11.98-2.83,61.15-13.13,79.47,18.61,37.53,64.98-21.79,24.1-49.7,43.98-77.64,60.35-4.66-2.01-9.33-4.14-14.03-6.38,32.24-17.94,62.57-40.36,82.42-62.33,33.84-37.41,23.69-55.02-25.63-44.43-4.74,1.01-8.28,1.83-12.24,2.95-.71-4.1-1.49-8.21-2.35-12.27l-.04-.04Z"/>
        <path class="cls-1" d="M957.45,208.47l-3.1-1.34c-4.66-2.01-9.48-4.21-14.29-6.53l-11.64-5.6,11.31-6.3c32.72-18.2,62.16-40.43,80.7-60.99,16.3-18.05,19.63-28.72,17.54-32.38-2.13-3.66-13.02-6.12-36.79-1.01-4.63,1.01-8.06,1.79-11.83,2.83l-7.2,2.05-1.27-7.35c-.71-4.1-1.46-8.13-2.28-12.05l-1.31-6.15,6.04-1.68c3.92-1.08,7.35-1.87,12.35-2.95,44.06-9.47,59.4,4.33,64.62,13.35,5.22,9.06,9.48,29.24-20.74,62.63-19.7,21.78-45.59,41.93-79.25,61.66l-2.91,1.72.04.07Z"/>
        <path class="cls-2" d="M999.76,228.24c49.32,10.59,59.47-7.01,25.63-44.42-2.72-3.02-5.67-6.04-8.77-9.06,3.25-2.69,6.42-5.45,9.48-8.17,3.02,2.95,5.86,5.89,8.51,8.88,41.94,46.36,23.62,78.11-37.53,64.98-45.74-9.81-98.84-38.38-135.7-66.36,3.17-2.72,6.49-5.48,9.89-8.17,34.89,25.89,84.96,53,128.42,62.37l.07-.04Z"/>
        <path class="cls-1" d="M1022.48,250.14c-7.95,0-16.94-1.04-26.75-3.17-50.74-10.89-104.73-42.04-138.35-67.59l-6.6-5,6.27-5.41c3.21-2.76,6.64-5.6,10.15-8.36l4.03-3.17,4.14,3.06c31.3,23.24,80.78,51.51,125.85,61.17,23.77,5.11,34.7,2.65,36.79-1.01,2.13-3.66-1.19-14.32-17.54-32.38-2.57-2.87-5.45-5.82-8.47-8.77l-5.34-5.22,5.75-4.77c3.21-2.65,6.31-5.33,9.25-7.98l4.7-4.21,4.51,4.44c3.13,3.1,6.08,6.15,8.81,9.14,22.39,24.77,29.77,47,20.74,62.63-6.31,10.93-19.4,16.52-37.87,16.52l-.07.07Z"/>
        <path class="cls-2" d="M880.81,202.77c1.98,18.09,5.45,37.6,11.08,55.09,19.21,59.49,55.85,59.49,75.03,0,1.23-3.8,2.35-7.72,3.43-11.82-3.92-1.27-7.84-2.65-11.83-4.1-1.08,4.21-2.24,8.24-3.47,12.12-15.48,48.01-35.82,48.01-51.3,0-4.4-13.69-7.42-28.72-9.44-42.97-4.55-2.69-9.07-5.45-13.51-8.28v-.04Z"/>
        <path class="cls-1" d="M929.43,309.19c-18.06,0-33.65-17.49-43.91-49.27-5.22-16.23-9.07-35.21-11.38-56.4l-1.53-13.91,11.79,7.53c4.37,2.76,8.81,5.52,13.28,8.17l2.76,1.64.45,3.17c2.28,15.96,5.37,30.06,9.22,41.89,7.46,23.13,15.04,31.37,19.25,31.37s11.79-8.21,19.25-31.37c1.19-3.66,2.31-7.61,3.36-11.71l1.83-7.24,6.98,2.61c3.88,1.45,7.76,2.8,11.57,4.03l6.01,1.94-1.57,6.12c-1.08,4.21-2.28,8.32-3.54,12.2-10.26,31.78-25.86,49.27-43.91,49.27l.11-.04Z"/>
        <path class="cls-2" d="M873.65,237.49c-.86-4.1-1.64-8.21-2.35-12.27-4.18,1.19-8.25,2.2-12.24,3.06-49.32,10.59-59.47-7.01-25.63-44.43,19.89-21.97,50.18-44.39,82.42-62.33-4.51-2.28-9.36-4.4-14.03-6.38-30.37,17.76-58.47,39.17-77.64,60.35-41.94,46.36-23.62,78.11,37.53,64.98,3.88-.82,7.87-1.83,11.94-2.95v-.04Z"/>
        <path class="cls-1" d="M836.34,250.18c-23.99,0-33.88-9.66-37.87-16.56-5.22-9.06-9.48-29.24,20.74-62.63,18.95-20.96,47.12-42.86,79.25-61.66l2.91-1.72,3.1,1.34c4.44,1.9,9.59,4.18,14.36,6.56l11.34,5.67-11.08,6.15c-32.72,18.2-62.16,40.43-80.7,60.99-16.3,18.05-19.63,28.72-17.54,32.38,2.13,3.66,13.02,6.12,36.79,1.01,3.77-.82,7.76-1.79,11.83-2.95l7.16-2.01,1.27,7.35c.71,4.1,1.46,8.13,2.28,12.01l1.31,6.15-6.08,1.68c-4.22,1.16-8.36,2.2-12.31,3.02-10.45,2.24-19.29,3.17-26.79,3.17l.04.04Z"/>
        <path class="cls-2" d="M997.44,142.04c-3.17,2.72-6.49,5.48-9.92,8.17-35.82-26.67-84.88-53-128.42-62.37-49.32-10.59-59.47,7.01-25.63,44.43,2.72,3.02,5.67,6.04,8.77,9.06-3.25,2.69-6.42,5.45-9.48,8.17-3.02-2.95-5.86-5.89-8.51-8.88-41.94-46.36-23.62-78.11,37.53-64.98,16.3,3.51,32.2,9.03,47.57,15.48,30.56,12.87,61.9,30.92,88.13,50.88l-.04.04Z"/>
        <path class="cls-1" d="M832.53,158.71l-4.48-4.4c-3.1-3.06-6.08-6.12-8.81-9.14-22.39-24.77-29.77-47-20.74-62.63,9.03-15.63,31.98-20.4,64.62-13.39,15.15,3.25,31.12,8.43,48.76,15.85,31.08,13.06,62.87,31.44,89.58,51.7l6.6,5-6.27,5.41c-3.21,2.76-6.6,5.6-10.15,8.36l-4.03,3.17-4.14-3.06c-31.15-23.2-80.55-51.44-125.85-61.17-23.77-5.11-34.7-2.65-36.79,1.01-2.13,3.66,1.19,14.32,17.54,32.38,2.61,2.87,5.45,5.86,8.47,8.77l5.34,5.18-5.75,4.77c-3.21,2.65-6.31,5.33-9.25,7.98l-4.7,4.21h.04Z"/>
        <path class="cls-1" d="M914.5,157.04c0,2.24.41,4.21,1.19,6.01s1.9,3.32,3.32,4.55c1.42,1.27,3.1,2.24,5.04,2.91s4.07,1.01,6.34,1.01,4.4-.34,6.34-1.01c1.94-.67,3.62-1.64,5.04-2.91,1.42-1.27,2.54-2.8,3.32-4.55s1.23-3.8,1.23-6.01-.41-4.22-1.23-5.97c-.82-1.75-1.94-3.24-3.32-4.48-1.42-1.23-3.1-2.16-5.04-2.8-1.94-.63-4.07-.97-6.34-.97s-4.4.34-6.34.97c-1.94.63-3.62,1.57-5.04,2.8-1.42,1.23-2.54,2.72-3.32,4.48-.78,1.75-1.19,3.77-1.19,5.97Z"/>
        <path class="cls-2" d="M888.5,70.05c3.92,1.27,7.84,2.65,11.83,4.1,1.08-4.21,2.24-8.24,3.47-12.12,14.59-45.25,33.47-47.82,48.58-7.83,6.08,16.08,9.74,33.79,12.16,50.8,4.55,2.69,9.07,5.45,13.51,8.28-2.2-20.03-6.12-41.63-12.91-60.35-19.63-54.16-54.62-52.41-73.24,5.3-1.23,3.8-2.35,7.72-3.43,11.82h.04Z"/>
        <path class="cls-1" d="M986.21,126.52l-11.79-7.53c-4.33-2.76-8.81-5.52-13.28-8.17l-2.76-1.64-.45-3.21c-2.8-19.55-6.68-35.73-11.83-49.39-6.68-17.72-13.17-24.06-16.72-23.84-4.22.11-11.79,8.36-19.18,31.33-1.19,3.69-2.31,7.61-3.36,11.71l-1.83,7.24-6.98-2.61c-3.92-1.45-7.8-2.8-11.57-4.03l-6.01-1.94,1.57-6.12c1.08-4.21,2.28-8.32,3.54-12.2,10.15-31.44,25.56-48.94,43.43-49.27,17.16-.26,32.16,15.26,42.5,43.75,6.19,17.05,10.63,37.9,13.25,61.92l1.53,13.91-.07.07Z"/>
        <path class="cls-2" d="M985.17,78.52c3.84-1.08,7.28-1.83,11.98-2.83,61.15-13.13,79.47,18.61,37.53,64.98-21.79,24.1-49.7,43.98-77.64,60.35-4.66-2.01-9.33-4.14-14.03-6.38,32.24-17.94,62.57-40.36,82.42-62.33,33.84-37.41,23.69-55.02-25.63-44.43-4.74,1.01-8.28,1.83-12.24,2.95-.71-4.1-1.49-8.21-2.35-12.27l-.04-.04Z"/>
        <path class="cls-1" d="M957.45,208.47l-3.1-1.34c-4.66-2.01-9.48-4.21-14.29-6.53l-11.64-5.6,11.31-6.3c32.72-18.2,62.16-40.43,80.7-60.99,16.3-18.05,19.63-28.72,17.54-32.38-2.13-3.66-13.02-6.12-36.79-1.01-4.63,1.01-8.06,1.79-11.83,2.83l-7.2,2.05-1.27-7.35c-.71-4.1-1.46-8.13-2.28-12.05l-1.31-6.15,6.04-1.68c3.92-1.08,7.35-1.87,12.35-2.95,44.06-9.47,59.4,4.33,64.62,13.35,5.22,9.06,9.48,29.24-20.74,62.63-19.7,21.78-45.59,41.93-79.25,61.66l-2.91,1.72.04.07Z"/>
        <path class="cls-2" d="M999.76,228.24c49.32,10.59,59.47-7.01,25.63-44.42-2.72-3.02-5.67-6.04-8.77-9.06,3.25-2.69,6.42-5.45,9.48-8.17,3.02,2.95,5.86,5.89,8.51,8.88,41.94,46.36,23.62,78.11-37.53,64.98-45.74-9.81-98.84-38.38-135.7-66.36,3.17-2.72,6.49-5.48,9.89-8.17,34.89,25.89,84.96,53,128.42,62.37l.07-.04Z"/>
        <path class="cls-1" d="M1022.48,250.14c-7.95,0-16.94-1.04-26.75-3.17-50.74-10.89-104.73-42.04-138.35-67.59l-6.6-5,6.27-5.41c3.21-2.76,6.64-5.6,10.15-8.36l4.03-3.17,4.14,3.06c31.3,23.24,80.78,51.51,125.85,61.17,23.77,5.11,34.7,2.65,36.79-1.01,2.13-3.66-1.19-14.32-17.54-32.38-2.57-2.87-5.45-5.82-8.47-8.77l-5.34-5.22,5.75-4.77c3.21-2.65,6.31-5.33,9.25-7.98l4.7-4.21,4.51,4.44c3.13,3.1,6.08,6.15,8.81,9.14,22.39,24.77,29.77,47,20.74,62.63-6.31,10.93-19.4,16.52-37.87,16.52l-.07.07Z"/>
        <path class="cls-2" d="M880.81,202.77c1.98,18.09,5.45,37.6,11.08,55.09,19.21,59.49,55.85,59.49,75.03,0,1.23-3.8,2.35-7.72,3.43-11.82-3.92-1.27-7.84-2.65-11.83-4.1-1.08,4.21-2.24,8.24-3.47,12.12-15.48,48.01-35.82,48.01-51.3,0-4.4-13.69-7.42-28.72-9.44-42.97-4.55-2.69-9.07-5.45-13.51-8.28v-.04Z"/>
        <path class="cls-1" d="M929.43,309.19c-18.06,0-33.65-17.49-43.91-49.27-5.22-16.23-9.07-35.21-11.38-56.4l-1.53-13.91,11.79,7.53c4.37,2.76,8.81,5.52,13.28,8.17l2.76,1.64.45,3.17c2.28,15.96,5.37,30.06,9.22,41.89,7.46,23.13,15.04,31.37,19.25,31.37s11.79-8.21,19.25-31.37c1.19-3.66,2.31-7.61,3.36-11.71l1.83-7.24,6.98,2.61c3.88,1.45,7.76,2.8,11.57,4.03l6.01,1.94-1.57,6.12c-1.08,4.21-2.28,8.32-3.54,12.2-10.26,31.78-25.86,49.27-43.91,49.27l.11-.04Z"/>
        <path class="cls-2" d="M873.65,237.49c-.86-4.1-1.64-8.21-2.35-12.27-4.18,1.19-8.25,2.2-12.24,3.06-49.32,10.59-59.47-7.01-25.63-44.43,19.89-21.97,50.18-44.39,82.42-62.33-4.51-2.28-9.36-4.4-14.03-6.38-30.37,17.76-58.47,39.17-77.64,60.35-41.94,46.36-23.62,78.11,37.53,64.98,3.88-.82,7.87-1.83,11.94-2.95v-.04Z"/>
        <path class="cls-1" d="M836.34,250.18c-23.99,0-33.88-9.66-37.87-16.56-5.22-9.06-9.48-29.24,20.74-62.63,18.95-20.96,47.12-42.86,79.25-61.66l2.91-1.72,3.1,1.34c4.44,1.9,9.59,4.18,14.36,6.56l11.34,5.67-11.08,6.15c-32.72,18.2-62.16,40.43-80.7,60.99-16.3,18.05-19.63,28.72-17.54,32.38,2.13,3.66,13.02,6.12,36.79,1.01,3.77-.82,7.76-1.79,11.83-2.95l7.16-2.01,1.27,7.35c.71,4.1,1.46,8.13,2.28,12.01l1.31,6.15-6.08,1.68c-4.22,1.16-8.36,2.2-12.31,3.02-10.45,2.24-19.29,3.17-26.79,3.17l.04.04Z"/>
        <path class="cls-2" d="M997.44,142.04c-3.17,2.72-6.49,5.48-9.92,8.17-35.82-26.67-84.88-53-128.42-62.37-49.32-10.59-59.47,7.01-25.63,44.43,2.72,3.02,5.67,6.04,8.77,9.06-3.25,2.69-6.42,5.45-9.48,8.17-3.02-2.95-5.86-5.89-8.51-8.88-41.94-46.36-23.62-78.11,37.53-64.98,16.3,3.51,32.2,9.03,47.57,15.48,30.56,12.87,61.9,30.92,88.13,50.88l-.04.04Z"/>
        <path class="cls-1" d="M832.53,158.71l-4.48-4.4c-3.1-3.06-6.08-6.12-8.81-9.14-22.39-24.77-29.77-47-20.74-62.63,9.03-15.63,31.98-20.4,64.62-13.39,15.15,3.25,31.12,8.43,48.76,15.85,31.08,13.06,62.87,31.44,89.58,51.7l6.6,5-6.27,5.41c-3.21,2.76-6.6,5.6-10.15,8.36l-4.03,3.17-4.14-3.06c-31.15-23.2-80.55-51.44-125.85-61.17-23.77-5.11-34.7-2.65-36.79,1.01-2.13,3.66,1.19,14.32,17.54,32.38,2.61,2.87,5.45,5.86,8.47,8.77l5.34,5.18-5.75,4.77c-3.21,2.65-6.31,5.33-9.25,7.98l-4.7,4.21h.04Z"/>
        <path class="cls-1" d="M914.5,157.04c0,2.24.41,4.21,1.19,6.01s1.9,3.32,3.32,4.55c1.42,1.27,3.1,2.24,5.04,2.91s4.07,1.01,6.34,1.01,4.4-.34,6.34-1.01c1.94-.67,3.62-1.64,5.04-2.91,1.42-1.27,2.54-2.8,3.32-4.55s1.23-3.8,1.23-6.01-.41-4.22-1.23-5.97c-.82-1.75-1.94-3.24-3.32-4.48-1.42-1.23-3.1-2.16-5.04-2.8-1.94-.63-4.07-.97-6.34-.97s-4.4.34-6.34.97c-1.94.63-3.62,1.57-5.04,2.8-1.42,1.23-2.54,2.72-3.32,4.48-.78,1.75-1.19,3.77-1.19,5.97Z"/>
      </g>
    </g>
  </g>
</svg>