<?xml version="1.0" encoding="utf-8"?>
<!-- Generator: Adobe Illustrator 28.1.0, SVG Export Plug-In . SVG Version: 6.00 Build 0)  -->
<svg version="1.1" id="Livello_1" xmlns="http://www.w3.org/2000/svg" xmlns:xlink="http://www.w3.org/1999/xlink" x="0px" y="0px"
	 viewBox="0 0 1190.55 841.89" style="enable-background:new 0 0 1190.55 841.89;" xml:space="preserve">
<style type="text/css">
	.st0{fill:url(#SVGID_00000078740180784066340820000011829643909758437531_);}
	
		.st1{clip-path:url(#SVGID_00000099642315679750688770000005932610924552508346_);fill:url(#SVGID_00000124856872481028461920000000724975176791720857_);}
	.st2{fill:#FFFFFF;}
	.st3{fill:url(#SVGID_00000096025628140295748150000014560177483811499160_);}
	.st4{fill:url(#SVGID_00000134970494958301740560000010757288287409712316_);}
	.st5{fill:url(#SVGID_00000026143072961047759650000005275942639595673747_);}
	.st6{fill:url(#SVGID_00000034782881331871740590000016047226337935078818_);}
	.st7{fill:url(#SVGID_00000060028982275082166050000001073239756374355887_);}
	.st8{fill:url(#SVGID_00000055696484947447913690000012233279263827917241_);}
	.st9{fill:url(#SVGID_00000097474439977623470500000011912815609468653952_);}
	.st10{fill:url(#SVGID_00000167363064881884658070000008521787779503362971_);}
	.st11{fill:url(#SVGID_00000178916866376279284420000003914775235947939459_);}
	.st12{fill:url(#SVGID_00000171707484325993592530000015634766857407718841_);}
	.st13{fill:url(#SVGID_00000080164976468868270660000001169712720890198959_);}
	.st14{fill:url(#SVGID_00000171706514490556457160000015349336608023483812_);}
	.st15{fill:url(#SVGID_00000106125568965742744720000016566241021862869931_);}
	.st16{fill:none;}
	.st17{enable-background:new    ;}
	.st18{fill:#221F20;}
</style>
<g>
	<g>
		<g>
			
				<radialGradient id="SVGID_00000091722438821402413530000006170939259971612056_" cx="594.945" cy="101.205" r="298.245" gradientTransform="matrix(1 0 0 1 0 246)" gradientUnits="userSpaceOnUse">
				<stop  offset="6.810749e-04" style="stop-color:#40CAA6"/>
				<stop  offset="0.2962" style="stop-color:#3BC4AA"/>
				<stop  offset="0.6819" style="stop-color:#2DB4B7"/>
				<stop  offset="1" style="stop-color:#1DA1C5"/>
			</radialGradient>
			<path id="SVGID_1_" style="fill:url(#SVGID_00000091722438821402413530000006170939259971612056_);" d="M504.65,48.96h180.58
				c59.89,0,89.82,0,122.05,10.19c35.19,12.81,62.91,40.53,75.72,75.72c10.19,32.24,10.19,62.17,10.19,122.05v180.57
				c0,59.88,0,89.82-10.19,122.05c-12.81,35.19-40.52,62.91-75.72,75.72c-32.23,10.19-62.16,10.19-122.05,10.19H504.65
				c-59.88,0-89.81,0-122.04-10.19c-35.19-12.81-62.91-40.52-75.72-75.72c-10.19-32.23-10.19-62.17-10.19-122.05V256.92
				c0-59.88,0-89.81,10.19-122.05c12.81-35.19,40.52-62.91,75.72-75.72C414.84,48.96,444.77,48.96,504.65,48.96L504.65,48.96"/>
		</g>
		<g>
			<g>
				<defs>
					<path id="SVGID_00000049213788435336178270000008832500717720852369_" d="M504.65,48.96h180.58c59.89,0,89.82,0,122.05,10.19
						c35.19,12.81,62.91,40.53,75.72,75.72c10.19,32.24,10.19,62.17,10.19,122.05v180.57c0,59.88,0,89.82-10.19,122.05
						c-12.81,35.19-40.52,62.91-75.72,75.72c-32.23,10.19-62.16,10.19-122.05,10.19H504.65c-59.88,0-89.81,0-122.04-10.19
						c-35.19-12.81-62.91-40.52-75.72-75.72c-10.19-32.23-10.19-62.17-10.19-122.05V256.92c0-59.88,0-89.81,10.19-122.05
						c12.81-35.19,40.52-62.91,75.72-75.72C414.84,48.96,444.77,48.96,504.65,48.96L504.65,48.96"/>
				</defs>
				<clipPath id="SVGID_00000078017394785065396960000000424024541576994223_">
					<use xlink:href="#SVGID_00000049213788435336178270000008832500717720852369_"  style="overflow:visible;"/>
				</clipPath>
				
					<radialGradient id="SVGID_00000131357827427778838160000001918124921483835323_" cx="594.935" cy="101.205" r="298.245" gradientTransform="matrix(1 0 0 1 0 246)" gradientUnits="userSpaceOnUse">
					<stop  offset="6.810749e-04" style="stop-color:#40CAA6"/>
					<stop  offset="0.2962" style="stop-color:#3BC4AA"/>
					<stop  offset="0.6819" style="stop-color:#2DB4B7"/>
					<stop  offset="1" style="stop-color:#1DA1C5"/>
				</radialGradient>
				
					<rect x="296.69" y="48.96" style="clip-path:url(#SVGID_00000078017394785065396960000000424024541576994223_);fill:url(#SVGID_00000131357827427778838160000001918124921483835323_);" width="596.49" height="596.49"/>
			</g>
		</g>
	</g>
	<g>
		<g>
			<path class="st2" d="M498.92,420.16l-15.03-8.68l-0.15-0.08v17.34l81.14,46.86l15.03-8.68L498.92,420.16z M595.03,218.84
				L595.03,218.84l-0.08-0.05l-14.87-8.58l-15.15,8.74l-66.12,38.18h-0.01l0.02,17.33v0.02l55.58-32.1l40.54-23.41l0.17-0.1
				L595.03,218.84z M706.15,300.37v2.17l0.02,91.4v17.47l0.02-0.01l0.11-0.07l14.9-8.59v-93.71L706.15,300.37z"/>
			<path class="st2" d="M386.38,467.62L386.38,467.62l0.01-56.29L386.38,467.62z M692.29,162.59l-14.86-8.58l-67.24,38.81
				l-15.09,8.71h-0.01l-15.01,8.67l14.87,8.58l0.07,0.05h0.01l0.08,0.05l97.34-56.2L692.29,162.59z M483.75,170.58l-15.03,8.68
				v205.98l15.02,8.68l0.01-29.46v29.47l0.16,0.09V170.49L483.75,170.58z M484.03,411.4l-0.13-0.08l-97.5-56.3v17.53l67.22,38.81
				v-0.03l15.09,8.72l15.02,8.68l0.02,0.01V411.4l0.15,0.08l15.03,8.68l80.99,46.76l0.14-0.08L484.03,411.4z M706.28,411.34
				l-0.11,0.07l-0.02,0.01v-17.47l-0.02-91.4v-2.17l-0.16-0.09l-0.01,93.77v34.82l0.18-0.11l0.01,95.03l15.01-8.67V402.75
				L706.28,411.34z M736.27,283.04l-15.09-8.71l-15.03-8.68v-0.01l-81-46.76l-15.19,8.77l96.02,55.44l97.5,56.28v-17.53
				L736.27,283.04z M691.17,402.61v17.29l-96.22,55.54l-97.48,56.28l0.14,0.08l82.32-47.52l0.01,0.01l-82.31,47.51l15.03,8.68
				l39.64-22.88l12.61-7.28l14.96-8.64l15.09-8.72h0.01l15.03-8.68h0.01l81.18-46.86v-17.34l-81.18,46.85l81.18-46.86h0.01v-0.18
				L691.17,402.61z M595.09,475.53l-0.14,0.08v-0.01L595.09,475.53l14.89-8.6L595.09,475.53z M386.39,226.77v0.02l67.23-38.81
				L386.39,226.77z"/>
			<path class="st2" d="M814.82,215.9l-133.78-77.24l-82.32-47.53c-2.33-1.35-5.21-1.35-7.54,0l-133.79,77.24l-82.32,47.52
				c-2.33,1.34-3.78,3.83-3.78,6.53v249.54c0,2.7,1.44,5.19,3.78,6.53l133.79,77.24l82.32,47.53c1.17,0.68,2.47,1,3.78,1
				c1.3,0,2.61-0.33,3.77-1l216.1-124.78c2.34-1.34,3.78-3.84,3.78-6.53V222.43C818.59,219.73,817.16,217.24,814.82,215.9z
				 M594.95,106.37l82.48,47.64l14.86,8.58l0.16,0.09l-97.34,56.2l-0.17,0.1l-40.54,23.41l-55.58,32.1v-0.02l-0.02-17.33
				l-0.06-95.21L594.95,106.37z M386.39,226.77l67.23-38.8l15.09-8.71l15.03-8.68l0.15-0.09v223.54l-0.16-0.09l-0.01-0.01
				l-15.02-8.68l-82.32-47.6V226.77H386.39z M386.39,467.62L386.39,467.62v-56.29v-38.77h0.01v-17.53l97.5,56.3l0.13,0.08
				l96.02,55.44l-0.14,0.08l-15.03,8.68l-82.29,47.57L386.39,467.62z M691.17,420.08L691.17,420.08l-0.01,112.42l-96.2,55.54
				l-0.01,0.01l-67.24-38.82l-15.09-8.71l-0.01-0.01l0.03-0.02l-15.03-8.68l-0.04,0.02l-0.01-0.01l0.03-0.02l-0.14-0.08l97.48-56.28
				l96.22-55.54v-17.29l-96.23,55.62l-96.02-55.52l-0.08-110.88l96.17-55.54l96.08,55.39l0.08,110.93l0.01,17.28v0.19L691.17,420.08
				L691.17,420.08z M803.5,467.62l-67.22,38.81l-15.08,8.71v0.02l-0.02,0.01v-0.05l-15.01,8.67v0.05l-0.08,0.05l0.08-0.09
				l-0.19,0.11V394.05l0.01-93.77l0.16,0.09l15.03,8.67l82.32,47.46V467.62z M803.5,321.85l-0.02-0.01v17.53l-97.5-56.28
				l-96.02-55.44l15.19-8.77l82.32-47.53l96.03,55.43V321.85z"/>
		</g>
		<g>
			
				<linearGradient id="SVGID_00000003808087106131669270000016577870966371343233_" gradientUnits="userSpaceOnUse" x1="483.746" y1="-19.165" x2="483.8979" y2="-19.165" gradientTransform="matrix(1 0 0 1 0 246)">
				<stop  offset="1.614687e-07" style="stop-color:#3C3C3B"/>
				<stop  offset="0.1732" style="stop-color:#424241"/>
				<stop  offset="0.3999" style="stop-color:#525251"/>
				<stop  offset="0.6562" style="stop-color:#6D6D6C"/>
				<stop  offset="0.9324" style="stop-color:#939392"/>
				<stop  offset="1" style="stop-color:#9D9D9C"/>
			</linearGradient>
			<polygon style="fill:url(#SVGID_00000003808087106131669270000016577870966371343233_);" points="483.9,170.49 483.9,283.09 
				483.75,283.18 483.75,170.58 			"/>
			
				<linearGradient id="SVGID_00000097502896323687241480000011892702934026711462_" gradientUnits="userSpaceOnUse" x1="498.75" y1="-55.58" x2="692.45" y2="-55.58" gradientTransform="matrix(1 0 0 1 0 246)">
				<stop  offset="1.614687e-07" style="stop-color:#3C3C3B"/>
				<stop  offset="0.1732" style="stop-color:#424241"/>
				<stop  offset="0.3999" style="stop-color:#525251"/>
				<stop  offset="0.6562" style="stop-color:#6D6D6C"/>
				<stop  offset="0.9324" style="stop-color:#939392"/>
				<stop  offset="1" style="stop-color:#9D9D9C"/>
			</linearGradient>
			<polygon style="fill:url(#SVGID_00000097502896323687241480000011892702934026711462_);" points="692.45,162.68 595.11,218.88 
				594.94,218.98 554.4,242.39 498.83,274.47 498.83,274.46 498.81,257.13 498.75,161.92 594.95,106.37 677.43,154.01 
				692.29,162.59 			"/>
			
				<linearGradient id="SVGID_00000059291604801412698610000005416362903586274719_" gradientUnits="userSpaceOnUse" x1="594.78" y1="-55.215" x2="692.45" y2="-55.215" gradientTransform="matrix(1 0 0 1 0 246)">
				<stop  offset="1.614687e-07" style="stop-color:#3C3C3B"/>
				<stop  offset="0.1732" style="stop-color:#424241"/>
				<stop  offset="0.3999" style="stop-color:#525251"/>
				<stop  offset="0.6562" style="stop-color:#6D6D6C"/>
				<stop  offset="0.9324" style="stop-color:#939392"/>
				<stop  offset="1" style="stop-color:#9D9D9C"/>
			</linearGradient>
			<polygon style="fill:url(#SVGID_00000059291604801412698610000005416362903586274719_);" points="692.45,162.68 595.11,218.88 
				594.94,218.98 594.85,218.93 594.78,218.89 594.95,218.79 692.29,162.59 			"/>
			
				<linearGradient id="SVGID_00000172421278196946057310000004877974336256678041_" gradientUnits="userSpaceOnUse" x1="609.96" y1="9.37" x2="803.5" y2="9.37" gradientTransform="matrix(1 0 0 1 0 246)">
				<stop  offset="1.614687e-07" style="stop-color:#3C3C3B"/>
				<stop  offset="0.1732" style="stop-color:#424241"/>
				<stop  offset="0.3999" style="stop-color:#525251"/>
				<stop  offset="0.6562" style="stop-color:#6D6D6C"/>
				<stop  offset="0.9324" style="stop-color:#939392"/>
				<stop  offset="1" style="stop-color:#9D9D9C"/>
			</linearGradient>
			<polygon style="fill:url(#SVGID_00000172421278196946057310000004877974336256678041_);" points="803.5,226.79 803.48,321.85 
				803.48,339.38 705.99,283.1 609.96,227.66 625.15,218.89 707.47,171.36 			"/>
			
				<linearGradient id="SVGID_00000045591770168693323310000007008204365416026784_" gradientUnits="userSpaceOnUse" x1="705.99" y1="65.145" x2="803.48" y2="65.145" gradientTransform="matrix(1 0 0 1 0 246)">
				<stop  offset="1.614687e-07" style="stop-color:#3C3C3B"/>
				<stop  offset="0.1732" style="stop-color:#424241"/>
				<stop  offset="0.3999" style="stop-color:#525251"/>
				<stop  offset="0.6562" style="stop-color:#6D6D6C"/>
				<stop  offset="0.9324" style="stop-color:#939392"/>
				<stop  offset="1" style="stop-color:#9D9D9C"/>
			</linearGradient>
			<polygon style="fill:url(#SVGID_00000045591770168693323310000007008204365416026784_);" points="803.48,339.2 803.48,339.38 
				705.99,283.1 705.99,282.91 802.9,338.87 			"/>
			
				<linearGradient id="SVGID_00000073716103478675096220000003839681452874584723_" gradientUnits="userSpaceOnUse" x1="705.98" y1="166.085" x2="803.5" y2="166.085" gradientTransform="matrix(1 0 0 1 0 246)">
				<stop  offset="1.614687e-07" style="stop-color:#3C3C3B"/>
				<stop  offset="0.1732" style="stop-color:#424241"/>
				<stop  offset="0.3999" style="stop-color:#525251"/>
				<stop  offset="0.6562" style="stop-color:#6D6D6C"/>
				<stop  offset="0.9324" style="stop-color:#939392"/>
				<stop  offset="1" style="stop-color:#9D9D9C"/>
			</linearGradient>
			<polygon style="fill:url(#SVGID_00000073716103478675096220000003839681452874584723_);" points="803.5,356.49 803.5,467.61 
				721.18,515.12 706.17,523.79 705.98,523.89 705.98,394.05 705.99,300.28 706.15,300.37 721.18,309.04 			"/>
			
				<linearGradient id="SVGID_00000060005484097233050660000007568773018158547882_" gradientUnits="userSpaceOnUse" x1="497.47" y1="257.965" x2="691.17" y2="257.965" gradientTransform="matrix(1 0 0 1 0 246)">
				<stop  offset="1.614687e-07" style="stop-color:#3C3C3B"/>
				<stop  offset="0.1732" style="stop-color:#424241"/>
				<stop  offset="0.3999" style="stop-color:#525251"/>
				<stop  offset="0.6562" style="stop-color:#6D6D6C"/>
				<stop  offset="0.9324" style="stop-color:#939392"/>
				<stop  offset="1" style="stop-color:#9D9D9C"/>
			</linearGradient>
			<polygon style="fill:url(#SVGID_00000060005484097233050660000007568773018158547882_);" points="691.17,419.9 691.17,420.08 
				691.17,420.08 691.17,532.49 594.96,588.03 512.64,540.49 497.62,531.8 497.6,531.8 497.47,531.72 594.95,475.44 			"/>
			
				<linearGradient id="SVGID_00000065039557371413675390000014782120462891459989_" gradientUnits="userSpaceOnUse" x1="706.0854" y1="277.835" x2="706.1688" y2="277.835" gradientTransform="matrix(1 0 0 1 0 246)">
				<stop  offset="1.614687e-07" style="stop-color:#3C3C3B"/>
				<stop  offset="0.1732" style="stop-color:#424241"/>
				<stop  offset="0.3999" style="stop-color:#525251"/>
				<stop  offset="0.6562" style="stop-color:#6D6D6C"/>
				<stop  offset="0.9324" style="stop-color:#939392"/>
				<stop  offset="1" style="stop-color:#9D9D9C"/>
			</linearGradient>
			<polygon style="fill:url(#SVGID_00000065039557371413675390000014782120462891459989_);" points="706.17,523.79 706.17,523.83 
				706.09,523.88 			"/>
			
				<linearGradient id="SVGID_00000116923908857464545710000002832591707700368525_" gradientUnits="userSpaceOnUse" x1="705.9789" y1="221.565" x2="706.1765" y2="221.565" gradientTransform="matrix(1 0 0 1 0 246)">
				<stop  offset="1.614687e-07" style="stop-color:#3C3C3B"/>
				<stop  offset="0.1732" style="stop-color:#424241"/>
				<stop  offset="0.3999" style="stop-color:#525251"/>
				<stop  offset="0.6562" style="stop-color:#6D6D6C"/>
				<stop  offset="0.9324" style="stop-color:#939392"/>
				<stop  offset="1" style="stop-color:#9D9D9C"/>
			</linearGradient>
			<polygon style="fill:url(#SVGID_00000116923908857464545710000002832591707700368525_);" points="706.18,411.24 706.18,411.41 
				706.17,523.79 705.98,523.89 705.98,411.35 706.16,411.24 			"/>
			
				<linearGradient id="SVGID_00000098905917916345072150000017897613660270436760_" gradientUnits="userSpaceOnUse" x1="386.38" y1="193.1" x2="580.05" y2="193.1" gradientTransform="matrix(1 0 0 1 0 246)">
				<stop  offset="1.614687e-07" style="stop-color:#3C3C3B"/>
				<stop  offset="0.1732" style="stop-color:#424241"/>
				<stop  offset="0.3999" style="stop-color:#525251"/>
				<stop  offset="0.6562" style="stop-color:#6D6D6C"/>
				<stop  offset="0.9324" style="stop-color:#939392"/>
				<stop  offset="1" style="stop-color:#9D9D9C"/>
			</linearGradient>
			<polygon style="fill:url(#SVGID_00000098905917916345072150000017897613660270436760_);" points="580.05,466.84 579.91,466.92 
				564.89,475.6 482.6,523.17 386.39,467.62 386.38,467.62 386.39,411.33 386.39,372.55 386.39,355.03 483.9,411.33 484.03,411.4 
							"/>
			
				<linearGradient id="SVGID_00000057833751710196903200000009604421358333385899_" gradientUnits="userSpaceOnUse" x1="497.47" y1="257.635" x2="595.09" y2="257.635" gradientTransform="matrix(1 0 0 1 0 246)">
				<stop  offset="1.614687e-07" style="stop-color:#3C3C3B"/>
				<stop  offset="0.1732" style="stop-color:#424241"/>
				<stop  offset="0.3999" style="stop-color:#525251"/>
				<stop  offset="0.6562" style="stop-color:#6D6D6C"/>
				<stop  offset="0.9324" style="stop-color:#939392"/>
				<stop  offset="1" style="stop-color:#9D9D9C"/>
			</linearGradient>
			<polygon style="fill:url(#SVGID_00000057833751710196903200000009604421358333385899_);" points="595.09,475.53 594.95,475.61 
				579.93,484.29 497.62,531.8 497.58,531.83 497.57,531.82 497.6,531.8 497.47,531.72 594.95,475.44 595.08,475.53 			"/>
			
				<linearGradient id="SVGID_00000106826499045095721120000000346121898297432502_" gradientUnits="userSpaceOnUse" x1="386.39" y1="137.255" x2="483.9" y2="137.255" gradientTransform="matrix(1 0 0 1 0 246)">
				<stop  offset="1.614687e-07" style="stop-color:#3C3C3B"/>
				<stop  offset="0.1732" style="stop-color:#424241"/>
				<stop  offset="0.3999" style="stop-color:#525251"/>
				<stop  offset="0.6562" style="stop-color:#6D6D6C"/>
				<stop  offset="0.9324" style="stop-color:#939392"/>
				<stop  offset="1" style="stop-color:#9D9D9C"/>
			</linearGradient>
			<polygon style="fill:url(#SVGID_00000106826499045095721120000000346121898297432502_);" points="483.9,411.33 483.9,411.48 
				483.75,411.4 386.39,355.19 386.39,355.03 			"/>
			
				<linearGradient id="SVGID_00000083787720518629493280000001671076360041525436_" gradientUnits="userSpaceOnUse" x1="386.39" y1="36.26" x2="483.9" y2="36.26" gradientTransform="matrix(1 0 0 1 0 246)">
				<stop  offset="1.614687e-07" style="stop-color:#3C3C3B"/>
				<stop  offset="0.1732" style="stop-color:#424241"/>
				<stop  offset="0.3999" style="stop-color:#525251"/>
				<stop  offset="0.6562" style="stop-color:#6D6D6C"/>
				<stop  offset="0.9324" style="stop-color:#939392"/>
				<stop  offset="1" style="stop-color:#9D9D9C"/>
			</linearGradient>
			<polygon style="fill:url(#SVGID_00000083787720518629493280000001671076360041525436_);" points="483.9,170.49 483.9,394.03 
				483.74,393.94 483.73,393.93 468.71,385.25 386.39,337.65 386.39,226.77 453.62,187.98 468.71,179.26 483.75,170.58 			"/>
		</g>
	</g>
</g>
<rect x="201.92" y="681.44" class="st16" width="786.04" height="111.49"/>
<g class="st17">
	<path class="st18" d="M298.57,756.45h-31.51l-4.38,14.83h-28.34l33.76-89.81h30.27l33.75,89.81h-29.06L298.57,756.45z
		 M292.81,737.03l-9.91-32.29l-9.81,32.29H292.81z"/>
	<path class="st18" d="M406.62,771.28h-23.28v-10.54c-3.47,4.33-6.97,7.41-10.51,9.25c-3.53,1.84-7.87,2.76-13.02,2.76
		c-6.86,0-12.24-2.05-16.14-6.16c-3.9-4.1-5.85-10.42-5.85-18.96v-41.41h25.06v35.78c0,4.08,0.75,6.98,2.27,8.7
		c1.51,1.72,3.63,2.57,6.37,2.57c2.98,0,5.42-1.14,7.32-3.43c1.9-2.29,2.85-6.39,2.85-12.31v-31.31h24.93V771.28z"/>
	<path class="st18" d="M451.83,681.46v24.75h13.72v18.26h-13.72v23.05c0,2.77,0.27,4.61,0.8,5.5c0.82,1.39,2.25,2.08,4.29,2.08
		c1.84,0,4.41-0.53,7.72-1.59l1.84,17.21c-6.17,1.35-11.93,2.02-17.28,2.02c-6.21,0-10.78-0.8-13.72-2.39
		c-2.94-1.59-5.12-4.01-6.52-7.25c-1.41-3.24-2.11-8.5-2.11-15.76v-22.88h-9.19v-18.26h9.19v-11.95L451.83,681.46z"/>
	<path class="st18" d="M477.44,681.46h24.93v33.08c3.39-3.51,6.76-6.02,10.11-7.54c3.35-1.51,7.31-2.27,11.89-2.27
		c6.78,0,12.12,2.06,16.02,6.19c3.9,4.12,5.85,10.46,5.85,18.99v41.35h-25.06V735.5c0-4.08-0.76-6.97-2.27-8.67
		c-1.51-1.69-3.64-2.54-6.37-2.54c-3.02,0-5.47,1.14-7.35,3.43c-1.88,2.29-2.82,6.39-2.82,12.31v31.25h-24.93V681.46z"/>
	<path class="st18" d="M633.36,744.93h-49.99c0.45,4,1.53,6.98,3.25,8.94c2.41,2.82,5.55,4.23,9.43,4.23c2.45,0,4.78-0.61,6.98-1.84
		c1.35-0.78,2.8-2.14,4.35-4.1l24.57,2.27c-3.76,6.54-8.29,11.22-13.6,14.06c-5.31,2.84-12.93,4.26-22.85,4.26
		c-8.62,0-15.4-1.22-20.34-3.65c-4.94-2.43-9.04-6.29-12.28-11.58c-3.25-5.29-4.87-11.51-4.87-18.66c0-10.17,3.26-18.4,9.77-24.69
		c6.51-6.29,15.51-9.43,26.99-9.43c9.31,0,16.66,1.41,22.06,4.23c5.39,2.82,9.5,6.9,12.31,12.25c2.82,5.35,4.23,12.31,4.23,20.89
		V744.93z M607.99,732.99c-0.49-4.82-1.79-8.27-3.89-10.35s-4.87-3.12-8.3-3.12c-3.96,0-7.13,1.57-9.5,4.72
		c-1.51,1.96-2.47,4.88-2.88,8.76H607.99z"/>
	<path class="st18" d="M644.81,706.21h23.22v10.6c3.47-4.33,6.98-7.42,10.54-9.28s7.88-2.79,12.99-2.79c6.9,0,12.3,2.05,16.2,6.16
		c3.9,4.1,5.85,10.45,5.85,19.02v41.35h-25.06V735.5c0-4.08-0.76-6.97-2.27-8.67c-1.51-1.69-3.64-2.54-6.37-2.54
		c-3.02,0-5.47,1.14-7.35,3.43c-1.88,2.29-2.82,6.39-2.82,12.31v31.25h-24.93V706.21z"/>
	<path class="st18" d="M730.03,681.46h46.13c10.05,0,17.57,2.39,22.58,7.17s7.5,11.58,7.5,20.4c0,9.07-2.73,16.15-8.18,21.26
		c-5.45,5.11-13.77,7.66-24.96,7.66h-15.19v33.33h-27.88V681.46z M757.91,719.75h6.8c5.35,0,9.11-0.93,11.27-2.79
		c2.16-1.86,3.25-4.24,3.25-7.14c0-2.82-0.94-5.21-2.82-7.17c-1.88-1.96-5.41-2.94-10.6-2.94h-7.9V719.75z"/>
	<path class="st18" d="M820.03,681.46h24.93v16.97h-24.93V681.46z M820.03,706.21h24.93v65.06h-24.93V706.21z"/>
	<path class="st18" d="M942.31,758.17c3.47,2.41,5.74,3.92,6.8,4.53c1.59,0.9,3.74,1.94,6.43,3.12l-7.72,15.56
		c-3.88-1.88-7.72-4.12-11.52-6.71c-3.8-2.59-6.45-4.54-7.96-5.85c-6.13,2.65-13.81,3.98-23.04,3.98c-13.64,0-24.4-3.55-32.29-10.66
		c-9.31-8.41-13.97-20.24-13.97-35.47c0-14.78,4.07-26.27,12.22-34.46c8.15-8.19,19.53-12.28,34.15-12.28
		c14.91,0,26.42,4,34.52,12.01s12.16,19.46,12.16,34.37C952.12,739.58,948.85,750.2,942.31,758.17z M921.05,743.95
		c2.21-3.96,3.31-9.88,3.31-17.77c0-9.07-1.68-15.54-5.05-19.42c-3.37-3.88-8.02-5.82-13.94-5.82c-5.51,0-9.99,1.98-13.42,5.94
		c-3.43,3.96-5.15,10.15-5.15,18.56c0,9.8,1.67,16.68,5.02,20.65c3.35,3.96,7.94,5.94,13.79,5.94c1.88,0,3.65-0.18,5.33-0.55
		c-2.33-2.25-6-4.37-11.03-6.37l4.35-9.99c2.45,0.45,4.36,1,5.73,1.65c1.37,0.65,4.03,2.37,8,5.15
		C918.93,742.58,919.95,743.26,921.05,743.95z"/>
</g>
</svg>
