<?xml version="1.0" encoding="utf-8"?>
<!-- Generator: Adobe Illustrator 26.5.3, SVG Export Plug-In . SVG Version: 6.00 Build 0)  -->
<svg version="1.1" id="Layer_1" xmlns="http://www.w3.org/2000/svg" xmlns:xlink="http://www.w3.org/1999/xlink" x="0px" y="0px"
	 viewBox="0 0 1920 590" style="enable-background:new 0 0 1920 590;" xml:space="preserve">
<style type="text/css">
	.st0{fill:#7826E7;}
</style>
<g>
	<g>
		<g>
			<path class="st0" d="M342.6,49.7c-18.2-33.8-48.3-33.8-66.5,0L22,519.1c-18.4,33.7-1.8,61.3,36.5,61.3h501.5
				c38.5,0,54.8-27.6,36.5-61.3L342.6,49.7z"/>
		</g>
		<g>
			<path class="st0" d="M793.6,538.1c-18.2,33.7-48.2,33.7-66.4,0L473.6,69.6C455.3,35.9,471.8,8.3,510,8.3h500.7
				c38.2,0,54.8,27.6,36.4,61.3L793.6,538.1z"/>
		</g>
		<g>
			<path class="st0" d="M1881.3,260.8c32.9,19.1,32.9,50,0,68.9L1475.5,563c-32.8,18.8-59.8,3.4-59.8-34.7v-466
				c0-38.1,27-53.6,59.8-34.8L1881.3,260.8z"/>
		</g>
		<g>
			<path class="st0" d="M1318.2,512.9c0,37.1-30.3,67.5-67.3,67.5h-60.4c-37.1,0-67.4-30.3-67.4-67.5v-437
				c0-37.2,30.3-67.5,67.4-67.5h60.4c37,0,67.3,30.3,67.3,67.5V512.9z"/>
		</g>
	</g>
</g>
</svg>
