<svg id="svg" version="1.1" xmlns="http://www.w3.org/2000/svg" xmlns:xlink="http://www.w3.org/1999/xlink" width="400" height="122.81027545651501" viewBox="0, 0, 400,122.81027545651501"><g xmlns="http://www.w3.org/2000/svg" id="svgg"><path id="path0" d="M26.246 0.253 C 18.270 2.313,16.362 12.846,23.094 17.650 C 26.762 20.267,31.980 19.925,35.318 16.849 L 35.847 16.361 60.635 30.674 C 74.268 38.546,85.422 45.018,85.422 45.056 C 85.422 45.113,65.438 56.702,62.503 58.348 L 61.663 58.819 47.575 50.681 C 32.849 42.173,32.728 42.110,31.662 42.336 C 31.028 42.471,1.493 59.418,0.824 60.030 C -0.258 61.023,-0.293 63.134,0.757 64.087 C 1.065 64.366,30.145 81.197,31.012 81.598 C 31.707 81.919,32.797 81.905,33.462 81.567 C 33.749 81.421,40.104 77.768,47.585 73.449 C 55.066 69.130,61.311 65.539,61.463 65.470 C 61.722 65.352,85.428 78.834,85.420 79.095 C 85.419 79.136,74.445 85.504,61.032 93.245 L 36.647 107.319 35.625 106.298 C 28.540 99.219,16.645 106.115,19.320 115.750 C 22.233 126.242,37.485 124.614,38.436 113.710 L 38.522 112.719 65.656 97.062 C 81.291 88.039,92.953 81.235,93.177 81.005 C 93.856 80.307,94.112 79.195,93.819 78.216 C 93.517 77.209,93.234 77.022,83.627 71.487 C 78.589 68.584,72.864 65.284,70.906 64.154 C 68.948 63.025,67.388 62.061,67.439 62.013 C 67.491 61.964,73.160 58.680,80.037 54.714 C 86.914 50.748,92.694 47.396,92.881 47.265 C 94.106 46.410,94.262 44.290,93.187 43.114 C 93.047 42.962,80.665 35.754,65.671 27.097 L 38.409 11.358 38.407 9.795 C 38.399 3.272,32.495 -1.360,26.246 0.253 M30.560 5.995 C 33.694 7.583,33.587 11.986,30.377 13.455 C 27.659 14.700,24.563 12.672,24.580 9.656 C 24.597 6.586,27.825 4.609,30.560 5.995 M148.189 60.662 L 148.189 83.442 152.399 83.442 L 156.608 83.442 156.608 60.662 L 156.608 37.883 152.399 37.883 L 148.189 37.883 148.189 60.662 M242.897 60.662 L 242.897 83.442 247.043 83.442 L 251.190 83.442 251.222 75.956 L 251.253 68.470 258.124 75.951 L 264.995 83.432 270.174 83.437 C 273.166 83.440,275.336 83.395,275.312 83.331 C 275.289 83.270,271.879 79.561,267.734 75.088 C 263.588 70.616,260.069 66.805,259.914 66.620 L 259.631 66.284 266.613 58.490 C 270.453 54.204,273.596 50.655,273.597 50.604 C 273.598 50.552,271.267 50.511,268.416 50.511 L 263.232 50.511 257.243 57.213 L 251.253 63.915 251.222 50.899 L 251.190 37.883 247.044 37.883 L 242.897 37.883 242.897 60.662 M386.877 44.506 L 386.877 50.511 384.773 50.511 L 382.668 50.511 382.668 54.163 L 382.668 57.815 384.773 57.815 L 386.877 57.815 386.877 70.628 L 386.877 83.442 391.024 83.442 L 395.172 83.442 395.172 70.628 L 395.172 57.815 397.586 57.815 L 400.000 57.815 400.000 54.163 L 400.000 50.511 397.586 50.511 L 395.172 50.511 395.172 44.506 L 395.172 38.502 391.024 38.502 L 386.877 38.502 386.877 44.506 M114.268 61.219 L 114.268 83.442 120.935 83.442 C 132.499 83.442,134.911 82.922,138.166 79.728 C 144.386 73.625,143.134 63.881,135.575 59.556 L 134.448 58.911 135.170 58.307 C 140.802 53.601,139.818 44.696,133.261 41.029 C 130.424 39.443,127.256 38.997,118.820 38.997 L 114.268 38.997 114.268 61.219 M127.639 47.520 C 129.627 48.170,130.424 49.341,130.424 51.616 C 130.424 54.904,128.590 56.321,124.327 56.327 L 122.810 56.329 122.810 51.734 L 122.810 47.139 124.822 47.198 C 126.421 47.245,126.999 47.311,127.639 47.520 M44.186 55.211 C 53.679 60.692,56.035 62.102,55.863 62.196 C 55.745 62.261,50.439 65.322,44.073 68.997 C 37.707 72.673,32.407 75.705,32.295 75.734 C 31.831 75.856,8.357 62.116,8.672 61.906 C 9.330 61.466,32.133 48.310,32.210 48.326 C 32.256 48.336,37.645 51.434,44.186 55.211 M177.654 49.776 C 165.840 50.874,158.678 64.085,164.068 74.837 C 170.405 87.477,188.728 87.407,194.933 74.718 C 200.357 63.625,193.149 50.836,180.873 49.770 C 179.309 49.634,179.183 49.634,177.654 49.776 M218.446 49.770 C 206.705 50.741,199.253 61.284,202.478 72.361 C 206.106 84.822,224.672 88.570,234.029 78.729 C 234.685 78.039,235.220 77.439,235.218 77.394 C 235.215 77.319,229.002 73.032,228.757 72.937 C 228.696 72.913,228.301 73.222,227.879 73.625 C 222.539 78.722,213.169 77.113,210.828 70.698 C 207.126 60.553,219.368 53.157,227.892 60.388 L 228.676 61.054 231.051 59.753 C 232.357 59.038,233.917 58.178,234.516 57.843 L 235.607 57.233 235.147 56.626 C 231.309 51.554,225.534 49.184,218.446 49.770 M293.593 49.780 C 281.839 50.745,274.423 61.407,277.760 72.547 C 281.499 85.031,300.844 88.559,309.622 78.360 C 310.033 77.883,310.368 77.445,310.368 77.387 C 310.368 77.287,304.323 73.090,303.999 72.966 C 303.915 72.933,303.513 73.232,303.106 73.630 C 299.635 77.027,293.462 77.620,289.422 74.944 C 285.618 72.424,284.339 67.050,286.496 62.647 C 289.282 56.957,298.064 55.743,303.049 60.359 C 303.450 60.730,303.819 61.034,303.869 61.034 C 304.049 61.034,310.740 57.292,310.740 57.191 C 310.740 56.975,309.247 55.233,308.221 54.253 C 305.400 51.556,301.918 50.119,297.367 49.772 C 295.535 49.632,295.393 49.633,293.593 49.780 M330.857 49.720 C 326.828 50.109,324.095 51.363,321.519 54.005 C 314.312 61.399,315.035 74.835,322.977 81.083 C 328.557 85.473,336.386 85.290,341.548 80.649 L 342.185 80.076 342.185 81.759 L 342.185 83.442 346.394 83.442 L 350.604 83.442 350.604 66.976 L 350.604 50.511 346.394 50.511 L 342.185 50.511 342.185 52.261 L 342.185 54.011 341.590 53.454 C 338.786 50.832,334.563 49.362,330.857 49.720 M366.557 49.771 C 357.414 50.800,354.161 60.796,361.098 66.552 C 362.432 67.659,363.612 68.382,366.450 69.829 C 370.924 72.111,372.100 73.313,371.471 74.961 C 370.415 77.724,365.732 77.314,362.457 74.170 L 361.237 72.999 360.949 73.299 C 359.746 74.555,356.175 78.528,356.175 78.612 C 356.175 79.321,359.282 81.928,361.255 82.875 C 369.278 86.725,378.664 82.698,379.451 75.067 C 380.000 69.749,377.786 66.798,370.412 63.016 C 365.478 60.485,364.682 59.693,365.587 58.209 C 366.668 56.436,369.965 57.041,372.876 59.546 L 373.781 60.325 376.373 57.734 L 378.965 55.142 378.147 54.184 C 375.360 50.917,371.029 49.268,366.557 49.771 M336.181 57.744 C 341.691 59.213,344.321 66.380,341.406 71.983 C 338.139 78.264,329.069 78.056,325.968 71.628 C 322.252 63.925,328.336 55.654,336.181 57.744 M181.877 57.877 C 186.233 58.989,188.981 63.704,188.173 68.683 C 186.451 79.295,171.934 78.928,170.716 68.242 C 169.929 61.344,175.433 56.233,181.877 57.877 M126.542 64.135 C 131.324 64.621,133.519 66.489,133.519 70.071 C 133.519 73.825,131.579 75.074,125.503 75.234 L 122.810 75.305 122.810 69.655 L 122.810 64.005 124.035 64.005 C 124.709 64.005,125.837 64.064,126.542 64.135 M30.363 109.348 C 33.050 110.578,33.703 113.953,31.654 116.014 C 29.041 118.642,24.609 116.849,24.581 113.154 C 24.559 110.152,27.660 108.111,30.363 109.348 " stroke="none" fill="rgb(50,63,95)" fill-rule="evenodd" color="rgb(50,63,95)"/></g></svg>