<svg id="svg" xmlns="http://www.w3.org/2000/svg" xmlns:xlink="http://www.w3.org/1999/xlink" width="400" height="400" viewBox="0, 0, 400,400" version="1.1"><g id="svgg"><path id="path0" d="M254.778 101.042 C 254.253 102.022,254.297 102.152,255.510 103.236 C 256.220 103.870,256.800 104.481,256.800 104.594 C 256.800 104.707,229.618 104.800,196.396 104.800 L 135.993 104.800 136.096 125.900 L 136.200 147.000 137.600 147.000 L 139.000 147.000 139.104 127.500 L 139.208 108.000 198.004 108.000 C 231.963 108.000,256.800 108.150,256.800 108.355 C 256.800 108.550,256.262 109.135,255.604 109.655 C 253.955 110.957,254.176 112.803,255.980 112.798 C 257.023 112.796,263.788 107.472,263.920 106.550 C 264.014 105.902,263.189 105.067,260.274 102.856 C 256.108 99.697,255.589 99.526,254.778 101.042 M298.577 144.762 C 294.701 145.409,291.410 148.529,290.167 152.735 C 287.891 160.437,295.785 168.281,303.400 165.884 C 316.699 161.700,312.309 142.471,298.577 144.762 M103.200 148.389 C 98.755 150.655,95.775 152.000,95.199 152.000 C 94.974 152.000,94.477 152.165,94.095 152.366 C 92.887 153.003,87.822 154.400,86.721 154.400 C 84.408 154.400,84.291 154.868,86.350 155.887 C 88.467 156.935,89.877 158.667,90.838 161.400 C 91.907 164.443,91.646 222.820,90.551 225.400 C 90.084 226.500,89.570 227.715,89.408 228.100 C 89.011 229.045,116.844 229.174,121.200 228.247 C 129.738 226.431,136.800 220.001,139.375 211.700 C 139.688 210.692,140.800 210.464,140.800 211.409 C 140.800 212.349,142.979 216.935,144.425 219.037 C 152.295 230.475,169.983 233.530,182.045 225.533 C 183.279 224.715,184.809 223.495,185.443 222.823 C 187.413 220.736,187.942 222.603,186.400 226.200 C 185.960 227.226,185.600 228.231,185.600 228.433 C 185.600 228.646,190.039 228.800,196.200 228.800 C 202.030 228.800,206.800 228.692,206.800 228.560 C 206.800 228.429,206.548 227.754,206.240 227.060 C 204.871 223.982,204.800 223.005,204.800 207.152 C 204.800 189.525,204.726 190.071,207.538 187.064 C 210.867 183.505,217.023 183.992,219.378 188.001 C 220.173 189.354,220.200 189.968,220.200 206.800 L 220.200 224.200 219.161 226.294 C 218.590 227.446,218.215 228.481,218.328 228.594 C 218.619 228.885,258.000 228.852,258.000 228.560 C 258.000 228.429,257.748 227.754,257.440 227.060 C 256.090 224.025,256.000 222.958,256.009 210.040 C 256.019 195.631,255.929 196.003,258.317 200.400 C 258.735 201.170,259.465 202.475,259.938 203.300 C 260.412 204.125,261.160 205.430,261.600 206.200 C 262.040 206.970,262.760 208.230,263.200 209.000 C 263.640 209.770,264.360 211.030,264.800 211.800 C 265.240 212.570,265.960 213.830,266.400 214.600 C 266.840 215.370,267.560 216.630,268.000 217.400 C 268.440 218.170,269.179 219.475,269.643 220.300 C 270.106 221.125,270.620 221.980,270.785 222.200 C 270.950 222.420,271.620 223.590,272.275 224.800 C 272.930 226.010,273.719 227.405,274.029 227.900 L 274.592 228.800 292.896 228.800 C 302.963 228.800,311.200 228.738,311.200 228.661 C 311.200 228.585,310.910 227.942,310.556 227.232 C 308.863 223.837,308.810 222.906,308.805 196.367 C 308.802 182.378,308.694 170.827,308.565 170.698 C 308.435 170.568,307.490 170.951,306.465 171.548 C 300.590 174.969,288.961 179.320,287.234 178.745 C 286.993 178.664,287.787 177.119,288.998 175.310 C 290.209 173.501,291.200 171.926,291.200 171.810 C 291.200 171.695,286.890 171.600,281.623 171.600 L 272.046 171.600 267.744 177.900 C 265.379 181.365,261.904 186.489,260.022 189.286 C 258.140 192.083,256.465 194.378,256.300 194.386 C 256.135 194.394,256.000 183.684,256.000 170.587 C 256.000 143.076,256.495 145.444,251.303 148.124 C 244.772 151.494,236.577 154.400,233.604 154.400 C 231.806 154.400,231.874 154.979,233.781 155.906 C 236.773 157.360,238.096 159.745,238.784 164.929 C 239.699 171.813,239.195 222.538,238.203 223.530 C 237.531 224.203,237.377 221.167,237.169 203.067 C 236.925 181.936,236.959 182.317,234.936 178.130 C 232.094 172.251,222.444 168.440,216.519 170.856 C 212.761 172.389,213.127 171.935,209.152 179.980 C 207.088 184.155,205.265 187.578,205.100 187.586 C 204.935 187.593,204.800 183.921,204.800 179.424 C 204.800 174.150,204.651 171.155,204.380 170.988 C 204.150 170.845,201.585 171.900,198.680 173.331 C 195.776 174.763,191.729 176.499,189.688 177.189 L 185.975 178.445 183.488 176.170 C 179.172 172.224,174.175 170.400,167.680 170.400 C 156.204 170.400,147.352 175.449,142.585 184.714 C 140.870 188.047,140.525 188.126,139.660 185.381 C 136.357 174.891,125.587 167.894,117.337 170.877 C 116.021 171.353,115.874 171.568,114.042 175.700 C 113.579 176.745,112.821 178.455,112.358 179.500 C 111.895 180.545,111.265 181.985,110.958 182.700 C 109.521 186.049,109.151 186.783,108.789 187.007 C 108.539 187.161,108.400 179.963,108.400 166.824 C 108.400 147.629,108.358 146.402,107.700 146.426 C 107.315 146.441,105.290 147.324,103.200 148.389 M289.050 182.062 C 291.781 185.076,291.990 186.707,291.995 205.074 C 291.998 214.562,291.840 221.568,291.610 222.174 C 291.157 223.364,290.592 223.501,290.264 222.500 C 290.138 222.115,289.552 220.990,288.961 220.000 C 288.370 219.010,287.552 217.615,287.143 216.900 C 286.735 216.185,286.040 214.970,285.600 214.200 C 285.160 213.430,284.440 212.170,284.000 211.400 C 283.560 210.630,282.862 209.415,282.450 208.700 C 282.037 207.985,280.318 205.007,278.630 202.081 C 276.942 199.156,275.463 196.507,275.343 196.195 C 275.132 195.646,281.839 185.243,284.685 181.703 C 286.199 179.819,287.083 179.892,289.050 182.062 M118.716 185.561 C 126.879 189.747,126.466 206.977,118.086 211.888 C 115.942 213.145,110.284 213.466,109.004 212.403 C 107.722 211.339,108.286 191.618,109.674 188.975 C 111.726 185.068,115.198 183.757,118.716 185.561 M170.855 186.502 C 174.806 189.865,171.493 197.220,164.418 200.791 C 157.463 204.302,156.587 204.121,156.646 199.187 C 156.756 189.996,165.641 182.065,170.855 186.502 M188.000 206.024 C 188.000 214.655,187.906 216.400,187.440 216.400 C 186.803 216.400,181.544 210.905,180.518 209.168 C 179.455 207.369,178.916 207.447,176.678 209.721 C 170.620 215.879,161.328 214.680,157.614 207.261 C 156.232 204.499,156.139 204.534,165.467 204.293 C 170.489 204.163,174.356 203.881,175.200 203.583 C 181.045 201.523,181.792 201.095,184.600 198.204 C 186.140 196.618,187.535 195.394,187.700 195.484 C 187.865 195.574,188.000 200.317,188.000 206.024 M260.704 272.300 L 260.600 291.800 201.900 291.901 C 169.615 291.957,143.200 291.866,143.200 291.700 C 143.200 291.534,143.740 290.888,144.400 290.265 C 145.698 289.040,145.868 288.428,145.120 287.680 C 144.244 286.804,143.267 287.177,139.843 289.700 C 134.626 293.543,134.630 293.558,142.133 298.732 C 145.024 300.727,147.041 298.884,144.400 296.661 C 143.740 296.106,143.200 295.551,143.200 295.427 C 143.200 295.304,170.335 295.157,203.500 295.101 L 263.800 295.000 263.904 273.900 L 264.007 252.800 262.407 252.800 L 260.808 252.800 260.704 272.300 " stroke="none" fill="#36d391" fill-rule="evenodd"></path></g></svg>