<?xml version="1.0" encoding="utf-8"?>
<!-- Generator: Adobe Illustrator 23.0.1, SVG Export Plug-In . SVG Version: 6.00 Build 0)  -->
<svg version="1.1" id="Layer_1" xmlns="http://www.w3.org/2000/svg" xmlns:xlink="http://www.w3.org/1999/xlink" x="0px" y="0px"
	 viewBox="0 0 113.3858261 36.6128159" style="enable-background:new 0 0 113.3858261 36.6128159;" xml:space="preserve">
<style type="text/css">
	.st0{fill:#074F71;}
	.st1{fill:#FFCE00;}
</style>
<g>
	<rect y="0.2859904" class="st0" width="3.0006917" height="35.7559662"/>
	<rect x="3.0006917" y="0.2859904" class="st1" width="7.2016597" height="35.7559662"/>
</g>
<g>
	<path class="st0" d="M106.6385498,21.7307281l-4.3545456-1.1485729c-1.1007843-0.2872715-2.4405212-0.6223373-2.4405212-1.8664932
		c0-0.9568844,0.9571381-1.5314312,2.4405212-1.5314312c1.2441559,0,2.4883118,0.4311695,2.775322,2.201561h7.2737732
		c-0.3350677-5.072731-4.6418228-7.7522125-9.9054642-7.7522125c-6.3166275,0-10.0013046,3.0623388-10.0013046,7.2259789
		c0,3.540781,1.8662338,6.4597435,6.0293579,7.5127316l4.833252,1.2441559
		c1.8662338,0.4784431,2.7275314,0.9568844,2.7275314,2.0098724c0,0.8612995-0.8135071,1.5314293-2.6797409,1.5314293
		c-2.057663,0-3.6846771-0.9574032-3.7802658-2.87117h-7.6088333c0.2392197,4.689352,4.6418228,8.3262386,11.1498795,8.3262386
		c6.0293503,0,10.2883148-2.9189644,10.2883148-7.3693562C113.3858261,25.4631977,111.4718018,23.0226765,106.6385498,21.7307281z"
		/>
	<path class="st0" d="M32.3446732,11.6801214c-3.1941605,0-5.5301361,1.6211691-6.4837074,2.9081831V0.2859904h-7.1988354V36.041954
		h6.0074062l1.1914291-2.3827934v-0.0011024c0.0001297,0.0001297,0.0002594,0.0003242,0.0003242,0.0004539l0.0007153-0.0013657
		v0.0022087c0.954092,1.2871437,3.289547,2.9069176,6.4826679,2.9069176c6.245327,0,11.0605888-5.6730881,11.0605888-12.4430923
		C43.405262,17.3535671,38.5900002,11.6801214,32.3446732,11.6801214z M30.7238255,30.0350361
		c-3.2420139,0-5.4347439-2.4793205-5.4347439-5.9118557s2.1927299-5.9114971,5.4347439-5.9114971
		s5.4350681,2.4789639,5.4350681,5.9114971S33.9658394,30.0350361,30.7238255,30.0350361z"/>
	<path class="st0" d="M79.2530136,11.6801214c-3.1941605,0-5.5301361,1.6211691-6.4837036,2.9081831V0.2859904h-7.1988373V36.041954
		h6.0063629l1.1921463-2.3842545l0.0003281,0.0003586c0.9535675,1.2874031,3.2895432,2.9082146,6.4837036,2.9082146
		c6.2453308,0,11.0606537-5.6730881,11.0606537-12.4430923C90.3136673,17.3535671,85.4983444,11.6801214,79.2530136,11.6801214z
		 M77.632164,30.0350361c-3.242012,0-5.4347382-2.4793205-5.4347382-5.9118557s2.1927261-5.9114971,5.4347382-5.9114971
		c3.2420197,0,5.4350739,2.4789639,5.4350739,5.9114971S80.8741837,30.0350361,77.632164,30.0350361z"/>
	<path class="st0" d="M58.3727226,0.0001299C58.3692818,0.0001299,58.36623,0,58.3627892,0
		c-5.3116913,0-9.6184502,3.5410411-9.6184502,9.6184473v2.5863657h-1.8383102l-2.8566895,6.2451992h4.7467537v17.5919571h7.1989021
		V18.4500122h2.8249359h0.7385063h3.1111069v-6.2220821V12.204813H58.819931h-2.8249359v-1.7163649
		c0-1.1880522,0.2068825-2.0871439,0.6564941-2.7331185c0.0035057-0.0049353,0.0064926-0.0102596,0.0100632-0.0150647
		c0.0409737-0.0581822,0.0872726-0.1109095,0.1322746-0.1648054c0.0393486-0.046104,0.0774689-0.0932469,0.1198692-0.1362338
		c0.0179214-0.0187016,0.0375977-0.0357146,0.0561028-0.0537663c0.6648712-0.6345458,1.6812363-0.9254551,3.1155891-0.9254551
		c1.0527267,0,1.8184433,0.1436362,2.584156,0.4309092V0.53039V0.5262341V0.5244159C61.6205177,0.1905196,60.2856483,0,58.3788261,0
		C58.3768158,0,58.3748016,0.0001299,58.3727226,0.0001299z"/>
</g>
</svg>
