<?xml version="1.0" encoding="utf-8"?>
<!-- Generator: Adobe Adobe Illustrator 28.1.0, SVG Export Plug-In . SVG Version: 6.00 Build 0)  -->
<svg version="1.1" id="Layer_2_00000027566778631021193080000001546644446557961389_"
	 xmlns="http://www.w3.org/2000/svg" xmlns:xlink="http://www.w3.org/1999/xlink" x="0px" y="0px" width="567px" height="133.3px"
	 viewBox="0 0 567 133.3" style="enable-background:new 0 0 567 133.3;" xml:space="preserve">
<g id="Layer_1-2">
	<g>
		<path id="Path_5085" d="M89.5,44.2h11.8c1.7,0,3.2-1.4,3.2-3.2V17.2c0-1.6-1.2-2.9-2.7-3.1L3.7,0C2-0.2,0.4,1,0.1,2.7
			c0,0.1,0,0.3,0,0.5v23c0,1.7,1.4,3.1,3.2,3.1l0,0h71.4l-72,14.4c-1.5,0.3-2.6,1.6-2.6,3.2v54c0,1.8,1.4,3.2,3.2,3.2
			c0.2,0,0.3,0,0.5,0l98-14.7c1.6-0.2,2.7-1.6,2.7-3.1V61.7c0-0.8-0.2-1.6-0.5-2.3l0,0c-0.3-0.7-0.8-1.4-1.3-2L89.5,44.2L89.5,44.2z
			"/>
		<path id="Path_5087" d="M270.4,30.8c-19.9,0.1-36,16.4-35.9,36.3c0,0.1,0,0.2,0,0.3c-0.4,19.8,15.3,36.2,35.1,36.7
			c19.8,0.4,36.2-15.3,36.7-35.1c0-0.5,0-1.1,0-1.6c0.3-19.9-15.6-36.3-35.6-36.6C270.6,30.8,270.5,30.8,270.4,30.8 M270.4,94.5
			c-14.6-0.4-26-12.5-25.6-27.1c-0.8-14.2,10-26.3,24.2-27.1s26.3,10,27.1,24.2c0,1,0,1.9,0,2.9c0.5,14.5-11,26.6-25.5,27.1
			C270.5,94.5,270.5,94.5,270.4,94.5"/>
		<path id="Path_5088" d="M348.8,94.5c-13.2,0-24.9-11.7-24.9-27.1s11.7-27.1,24.9-27.1c8.5,0.3,16.5,4.6,21.2,11.7l7.3-7.3
			c-7-8.6-17.5-13.7-28.6-13.9c-19.8,0.5-35.5,16.8-35.2,36.6c-0.4,19.8,15.4,36.2,35.2,36.6c11.4-0.4,22.1-5.8,29.3-14.7l-7.3-6.6
			C365.6,89.8,357.5,94.1,348.8,94.5"/>
		<rect id="Rectangle_8524" x="389.1" y="0" width="10.3" height="102.5"/>
		<path id="Path_5089" d="M421.3,4.7c-3.6,0-6.6,2.9-6.6,6.6s2.9,6.6,6.6,6.6c3.6,0,6.6-2.9,6.6-6.6l0,0
			C427.9,7.6,425,4.7,421.3,4.7L421.3,4.7"/>
		<rect id="Rectangle_8525" x="416.2" y="32.2" width="10.2" height="70.3"/>
		<path id="Path_5090" d="M475.5,30.8c-9.4-0.1-18.4,4.2-24.2,11.7V32.2h-10.2v101.1h10.3v-41c5.8,7.4,14.7,11.8,24.2,11.7
			c19,0,34.4-15.4,34.4-36.6S494.6,30.8,475.5,30.8 M475.5,94.5c-12.5,0-24.2-11.7-24.2-27.1s11.7-27.1,24.2-27.1
			c13.2,0,24.2,11,24.2,27.1S488.7,94.5,475.5,94.5"/>
		<path id="Path_5091" d="M528.9,50.5c0-5.1,5.1-10.3,13.2-10.3c6,0,11.7,2.7,15.4,7.3l7.3-7.3c-5.9-6.2-14.2-9.6-22.7-9.5
			c-13.9,0-23.4,9.5-23.4,19.8c0,24.2,38.1,16.1,38.1,32.2c0,6.6-5.1,11.7-15.4,11.7c-7.4-0.4-14.1-4.2-18.3-10.2l-7.3,7.3
			c6,8,15.6,12.7,25.6,12.4c16.1,0,25.6-9.5,25.6-21.2C567.1,57.9,529,65.9,528.9,50.5"/>
		<path d="M153.5,0h39.6c16.8,0,28.6,11.7,28.6,26.4c0,8.2-2.9,13.3-5.9,16.7c-1.8,1.9-3.7,3.5-5.9,4.5c3.1,1.5,5.9,3.4,8.4,5.7
			c4.2,4.1,8.5,10.4,8.5,19.9c0,16.8-12.4,29.3-31.5,29.3h-41.8L153.5,0L153.5,0z M193,43.1c11.1,0,17.6-6.3,17.6-16.7
			c0-9.5-6.4-16.1-17.6-16.1h-28.6v32.8H193z M195.2,92.3c12.4,0,20.5-7.9,20.5-19s-8.1-20.5-20.5-20.5h-30.8v39.5
			C164.5,92.3,195.2,92.3,195.2,92.3z"/>
	</g>
</g>
</svg>
