<svg xmlns:xlink="http://www.w3.org/1999/xlink" width="2176.5" xmlns="http://www.w3.org/2000/svg" height="364" id="screenshot-d4fd3c0b-b4ff-801c-8002-4d6d392ce5f1" viewBox="-2.5 -23 2176.5 364" style="-webkit-print-color-adjust: exact;" fill="none" version="1.1"><g id="shape-d4fd3c0b-b4ff-801c-8002-4d6d392ce5f1" rx="0" ry="0"><g id="shape-d4fd3c0b-b4ff-801c-8002-4d6c9b4b5257"><g class="fills" id="fills-d4fd3c0b-b4ff-801c-8002-4d6c9b4b5257"><path xmlns:xlink="http://www.w3.org/1999/xlink" width="360px" height="360px" version="1.2" rx="0" ry="0" d="M492.000,157.000L572.000,157.000L572.000,197.000L492.000,197.000L492.000,157.000Z" style="fill: rgb(230, 126, 34);"/></g><g id="strokes-d4fd3c0b-b4ff-801c-8002-4d6c9b4b5257" class="strokes"><g class="stroke-shape"><path xmlns:xlink="http://www.w3.org/1999/xlink" width="360px" height="360px" version="1.2" rx="0" ry="0" d="M492.000,157.000L572.000,157.000L572.000,197.000L492.000,197.000L492.000,157.000Z" style="fill: none; stroke-width: 5; stroke-opacity: 1;"/></g></g></g><g id="shape-d4fd3c0b-b4ff-801c-8002-4d6c9b4b5258"><g class="fills" id="fills-d4fd3c0b-b4ff-801c-8002-4d6c9b4b5258"><path xmlns:xlink="http://www.w3.org/1999/xlink" width="360px" height="360px" version="1.2" rx="0" ry="0" d="M1954.000,157.000L2034.000,157.000L2034.000,197.000L1954.000,197.000L1954.000,157.000Z" style="fill: rgb(230, 126, 34);"/></g><g id="strokes-d4fd3c0b-b4ff-801c-8002-4d6c9b4b5258" class="strokes"><g class="stroke-shape"><path xmlns:xlink="http://www.w3.org/1999/xlink" width="360px" height="360px" version="1.2" rx="0" ry="0" d="M1954.000,157.000L2034.000,157.000L2034.000,197.000L1954.000,197.000L1954.000,157.000Z" style="fill: none; stroke-width: 5; stroke-opacity: 1;"/></g></g></g><g id="shape-d4fd3c0b-b4ff-801c-8002-4d6c9b4b5259"><g class="fills" id="fills-d4fd3c0b-b4ff-801c-8002-4d6c9b4b5259"><path rx="0" ry="0" d="M320.000,0.000C320.000,0.000,160.000,0.000,160.000,0.000C160.000,0.000,0.032,0.000,0.000,159.952C0.000,159.968,0.000,159.984,0.000,160.000C0.000,160.016,0.000,160.032,0.000,160.048C0.032,320.000,160.000,320.000,160.000,320.000C160.000,320.000,320.000,320.000,320.000,320.000L320.000,240.000C320.000,240.000,160.000,240.000,160.000,240.000C160.000,240.000,80.032,240.000,80.000,160.048C80.000,160.032,80.000,160.016,80.000,160.000C80.000,80.000,160.000,80.000,160.000,80.000C160.000,80.000,320.000,80.000,320.000,80.000L320.000,0.000Z" style="fill: rgb(73, 110, 168);"/></g><g id="strokes-d4fd3c0b-b4ff-801c-8002-4d6c9b4b5259" class="strokes"><g class="stroke-shape"><path rx="0" ry="0" d="M320.000,0.000C320.000,0.000,160.000,0.000,160.000,0.000C160.000,0.000,0.032,0.000,0.000,159.952C0.000,159.968,0.000,159.984,0.000,160.000C0.000,160.016,0.000,160.032,0.000,160.048C0.032,320.000,160.000,320.000,160.000,320.000C160.000,320.000,320.000,320.000,320.000,320.000L320.000,240.000C320.000,240.000,160.000,240.000,160.000,240.000C160.000,240.000,80.032,240.000,80.000,160.048C80.000,160.032,80.000,160.016,80.000,160.000C80.000,80.000,160.000,80.000,160.000,80.000C160.000,80.000,320.000,80.000,320.000,80.000L320.000,0.000Z" style="fill: none; stroke-width: 5; stroke-opacity: 1;"/></g></g></g><g id="shape-d4fd3c0b-b4ff-801c-8002-4d6c9b4b525a"><g class="fills" id="fills-d4fd3c0b-b4ff-801c-8002-4d6c9b4b525a"><path xmlns:xlink="http://www.w3.org/1999/xlink" width="360px" height="360px" version="1.2" rx="0" ry="0" d="M765.000,161.000L765.000,121.000L805.000,121.000L805.000,201.000L765.000,201.000L765.000,161.000Z" style="fill: rgb(230, 126, 34);"/></g><g id="strokes-d4fd3c0b-b4ff-801c-8002-4d6c9b4b525a" class="strokes"><g class="stroke-shape"><path xmlns:xlink="http://www.w3.org/1999/xlink" width="360px" height="360px" version="1.2" rx="0" ry="0" d="M765.000,161.000L765.000,121.000L805.000,121.000L805.000,201.000L765.000,201.000L765.000,161.000Z" style="fill: none; stroke-width: 5; stroke-opacity: 1;"/></g></g></g><g id="shape-d4fd3c0b-b4ff-801c-8002-4d6c9b4b525b"><g class="fills" id="fills-d4fd3c0b-b4ff-801c-8002-4d6c9b4b525b"><path xmlns:xlink="http://www.w3.org/1999/xlink" width="360px" height="360px" version="1.2" rx="0" ry="0" d="M1294.000,141.000L1254.000,141.000L1254.000,181.000L1334.000,181.000L1334.000,141.000L1294.000,141.000Z" style="fill: rgb(230, 126, 34);"/></g><g id="strokes-d4fd3c0b-b4ff-801c-8002-4d6c9b4b525b" class="strokes"><g class="stroke-shape"><path xmlns:xlink="http://www.w3.org/1999/xlink" width="360px" height="360px" version="1.2" rx="0" ry="0" d="M1294.000,141.000L1254.000,141.000L1254.000,181.000L1334.000,181.000L1334.000,141.000L1294.000,141.000Z" style="fill: none; stroke-width: 5; stroke-opacity: 1;"/></g></g></g><g id="shape-d4fd3c0b-b4ff-801c-8002-4d6c9b4b525c"><g class="fills" id="fills-d4fd3c0b-b4ff-801c-8002-4d6c9b4b525c"><path rx="0" ry="0" d="M745.000,321.000C745.000,321.000,905.000,321.000,905.000,321.000C905.000,321.000,1064.968,321.000,1065.000,161.048C1065.000,161.032,1065.000,161.016,1065.000,161.000C1065.000,160.984,1065.000,160.968,1065.000,160.952C1064.968,1.000,905.000,1.000,905.000,1.000C905.000,1.000,745.000,1.000,745.000,1.000L745.000,81.000C745.000,81.000,905.000,81.000,905.000,81.000C905.000,81.000,984.968,81.000,985.000,160.952C985.000,160.968,985.000,160.984,985.000,161.000C985.000,241.000,905.000,241.000,905.000,241.000C905.000,241.000,745.000,241.000,745.000,241.000L745.000,321.000Z" style="fill: rgb(73, 110, 168);"/></g><g id="strokes-d4fd3c0b-b4ff-801c-8002-4d6c9b4b525c" class="strokes"><g class="stroke-shape"><path rx="0" ry="0" d="M745.000,321.000C745.000,321.000,905.000,321.000,905.000,321.000C905.000,321.000,1064.968,321.000,1065.000,161.048C1065.000,161.032,1065.000,161.016,1065.000,161.000C1065.000,160.984,1065.000,160.968,1065.000,160.952C1064.968,1.000,905.000,1.000,905.000,1.000C905.000,1.000,745.000,1.000,745.000,1.000L745.000,81.000C745.000,81.000,905.000,81.000,905.000,81.000C905.000,81.000,984.968,81.000,985.000,160.952C985.000,160.968,985.000,160.984,985.000,161.000C985.000,241.000,905.000,241.000,905.000,241.000C905.000,241.000,745.000,241.000,745.000,241.000L745.000,321.000Z" style="fill: none; stroke-width: 5; stroke-opacity: 1;"/></g></g></g><g id="shape-d4fd3c0b-b4ff-801c-8002-4d6c9b4b525d"><g class="fills" id="fills-d4fd3c0b-b4ff-801c-8002-4d6c9b4b525d"><path rx="0" ry="0" d="M693.000,321.000C693.000,321.000,693.000,161.000,693.000,161.000C693.000,161.000,693.000,1.032,533.048,1.000C533.032,1.000,533.016,1.000,533.000,1.000C532.984,1.000,532.968,1.000,532.952,1.000C373.000,1.032,373.000,161.000,373.000,161.000C373.000,161.000,373.000,321.000,373.000,321.000L453.000,321.000C453.000,321.000,453.000,161.000,453.000,161.000C453.000,161.000,453.000,81.032,532.952,81.000C532.968,81.000,532.984,81.000,533.000,81.000C613.000,81.000,613.000,161.000,613.000,161.000C613.000,161.000,613.000,321.000,613.000,321.000L693.000,321.000Z" style="fill: rgb(73, 110, 168);"/></g><g id="strokes-d4fd3c0b-b4ff-801c-8002-4d6c9b4b525d" class="strokes"><g class="stroke-shape"><path rx="0" ry="0" d="M693.000,321.000C693.000,321.000,693.000,161.000,693.000,161.000C693.000,161.000,693.000,1.032,533.048,1.000C533.032,1.000,533.016,1.000,533.000,1.000C532.984,1.000,532.968,1.000,532.952,1.000C373.000,1.032,373.000,161.000,373.000,161.000C373.000,161.000,373.000,321.000,373.000,321.000L453.000,321.000C453.000,321.000,453.000,161.000,453.000,161.000C453.000,161.000,453.000,81.032,532.952,81.000C532.968,81.000,532.984,81.000,533.000,81.000C613.000,81.000,613.000,161.000,613.000,161.000C613.000,161.000,613.000,321.000,613.000,321.000L693.000,321.000Z" style="fill: none; stroke-width: 5; stroke-opacity: 1;"/></g></g></g><g id="shape-d4fd3c0b-b4ff-801c-8002-4d6c9b4b525e"><g class="fills" id="fills-d4fd3c0b-b4ff-801c-8002-4d6c9b4b525e"><path rx="0" ry="0" d="M1781.000,321.000C1781.000,321.000,1781.000,161.000,1781.000,161.000C1781.000,161.000,1781.000,1.032,1621.048,1.000C1621.032,1.000,1621.016,1.000,1621.000,1.000C1620.984,1.000,1620.968,1.000,1620.952,1.000C1461.000,1.032,1461.000,161.000,1461.000,161.000C1461.000,161.000,1461.000,321.000,1461.000,321.000L1541.000,321.000C1541.000,321.000,1541.000,161.000,1541.000,161.000C1541.000,161.000,1541.000,81.032,1620.952,81.000C1620.968,81.000,1620.984,81.000,1621.000,81.000C1701.000,81.000,1701.000,161.000,1701.000,161.000C1701.000,161.000,1701.000,321.000,1701.000,321.000L1781.000,321.000Z" style="fill: rgb(73, 110, 168);"/></g><g id="strokes-d4fd3c0b-b4ff-801c-8002-4d6c9b4b525e" class="strokes"><g class="stroke-shape"><path rx="0" ry="0" d="M1781.000,321.000C1781.000,321.000,1781.000,161.000,1781.000,161.000C1781.000,161.000,1781.000,1.032,1621.048,1.000C1621.032,1.000,1621.016,1.000,1621.000,1.000C1620.984,1.000,1620.968,1.000,1620.952,1.000C1461.000,1.032,1461.000,161.000,1461.000,161.000C1461.000,161.000,1461.000,321.000,1461.000,321.000L1541.000,321.000C1541.000,321.000,1541.000,161.000,1541.000,161.000C1541.000,161.000,1541.000,81.032,1620.952,81.000C1620.968,81.000,1620.984,81.000,1621.000,81.000C1701.000,81.000,1701.000,161.000,1701.000,161.000C1701.000,161.000,1701.000,321.000,1701.000,321.000L1781.000,321.000Z" style="fill: none; stroke-width: 5; stroke-opacity: 1;"/></g></g></g><g id="shape-d4fd3c0b-b4ff-801c-8002-4d6c9b4b525f"><g class="fills" id="fills-d4fd3c0b-b4ff-801c-8002-4d6c9b4b525f"><path rx="0" ry="0" d="M2154.000,321.000C2154.000,321.000,2154.000,161.000,2154.000,161.000C2154.000,161.000,2154.000,1.032,1994.048,1.000C1994.032,1.000,1994.016,1.000,1994.000,1.000C1993.984,1.000,1993.968,1.000,1993.952,1.000C1834.000,1.032,1834.000,161.000,1834.000,161.000C1834.000,161.000,1834.000,321.000,1834.000,321.000L1914.000,321.000C1914.000,321.000,1914.000,161.000,1914.000,161.000C1914.000,161.000,1914.000,81.032,1993.952,81.000C1993.968,81.000,1993.984,81.000,1994.000,81.000C2074.000,81.000,2074.000,161.000,2074.000,161.000C2074.000,161.000,2074.000,321.000,2074.000,321.000L2154.000,321.000Z" style="fill: rgb(73, 110, 168);"/></g><g id="strokes-d4fd3c0b-b4ff-801c-8002-4d6c9b4b525f" class="strokes"><g class="stroke-shape"><path rx="0" ry="0" d="M2154.000,321.000C2154.000,321.000,2154.000,161.000,2154.000,161.000C2154.000,161.000,2154.000,1.032,1994.048,1.000C1994.032,1.000,1994.016,1.000,1994.000,1.000C1993.984,1.000,1993.968,1.000,1993.952,1.000C1834.000,1.032,1834.000,161.000,1834.000,161.000C1834.000,161.000,1834.000,321.000,1834.000,321.000L1914.000,321.000C1914.000,321.000,1914.000,161.000,1914.000,161.000C1914.000,161.000,1914.000,81.032,1993.952,81.000C1993.968,81.000,1993.984,81.000,1994.000,81.000C2074.000,81.000,2074.000,161.000,2074.000,161.000C2074.000,161.000,2074.000,321.000,2074.000,321.000L2154.000,321.000Z" style="fill: none; stroke-width: 5; stroke-opacity: 1;"/></g></g></g><g id="shape-d4fd3c0b-b4ff-801c-8002-4d6c9b4b5260"><g class="fills" id="fills-d4fd3c0b-b4ff-801c-8002-4d6c9b4b5260"><path rx="0" ry="0" d="M1409.000,1.000C1409.000,1.000,1249.000,1.000,1249.000,1.000C1249.000,1.000,1089.032,1.000,1089.000,160.952C1089.000,160.968,1089.000,160.984,1089.000,161.000C1089.000,161.016,1089.000,161.032,1089.000,161.048C1089.032,321.000,1249.000,321.000,1249.000,321.000C1249.000,321.000,1409.000,321.000,1409.000,321.000L1409.000,241.000C1409.000,241.000,1249.000,241.000,1249.000,241.000C1249.000,241.000,1169.032,241.000,1169.000,161.048C1169.000,161.032,1169.000,161.016,1169.000,161.000C1169.000,81.000,1249.000,81.000,1249.000,81.000C1249.000,81.000,1409.000,81.000,1409.000,81.000L1409.000,1.000Z" style="fill: rgb(73, 110, 168);"/></g><g id="strokes-d4fd3c0b-b4ff-801c-8002-4d6c9b4b5260" class="strokes"><g class="stroke-shape"><path rx="0" ry="0" d="M1409.000,1.000C1409.000,1.000,1249.000,1.000,1249.000,1.000C1249.000,1.000,1089.032,1.000,1089.000,160.952C1089.000,160.968,1089.000,160.984,1089.000,161.000C1089.000,161.016,1089.000,161.032,1089.000,161.048C1089.032,321.000,1249.000,321.000,1249.000,321.000C1249.000,321.000,1409.000,321.000,1409.000,321.000L1409.000,241.000C1409.000,241.000,1249.000,241.000,1249.000,241.000C1249.000,241.000,1169.032,241.000,1169.000,161.048C1169.000,161.032,1169.000,161.016,1169.000,161.000C1169.000,81.000,1249.000,81.000,1249.000,81.000C1249.000,81.000,1409.000,81.000,1409.000,81.000L1409.000,1.000Z" style="fill: none; stroke-width: 5; stroke-opacity: 1;"/></g></g></g></g></svg>