<?xml version="1.0" encoding="UTF-8"?><svg id="Layer_1" xmlns="http://www.w3.org/2000/svg" viewBox="0 0 564.24 80.9"><defs><style>.cls-1{fill:#231f20;}.cls-2{fill:#00aeef;}</style></defs><path class="cls-2" d="M125.8,40c0-1.01-.78-1.86-1.82-2.03-3.68-.62-4.78-1.53-5.88-1.53-1.89,0-4.89,1.65-7.85,1.65-3.66,0-4.37-.54-6.92-3.66-3.62-4.45-4.62,3.9-11.16,3.74-9.42-.24-9.46-8.61-11.67-8.61-1.39,0-3.21,7.59-4.86,7.21-3.42-.79-.8-18.42-4.44-15.55-4.25,3.34-4.81,15.49-8.77,16.1-3.47.53-2.04-8.34-6.7-3.13-4,4.48-3.52,4.61-6.5,3.9-6.03-1.44-5.42-8.18-10.19-3.74-3.36,3.13-6.42,3.66-10.09,3.66-4.25,0-4.14-3.22-6.02-3.25-1.77-.03-2.41,2.77-5.35,3.24-.24.04-.53.04-.77,0-3.79-.62-4.89-1.55-6-1.55-1.89,0-4.89,1.65-7.85,1.65-3.93,0-3.97,3.33-.16,3.33,2.96,0,5.53,1.65,7.42,1.65,1.1,0,2.83-1,6.69-1.6.23-.04.5-.04.73,0,2.97.44,2.98,3.12,4.83,3.12,1.89,0,2.51-3.25,6.31-3.25s6.59.53,9.14,3.66c3.62,4.45,4.75-2.29,11.16-3.74,3.17-.71,2.67-.72,5.51,3.76,3.3,5.21,3.54-2.92,7.49-2.99s.49,13.65,4.43,17.38c2.81,1.64,4.55-16.34,8.35-16.87,1.57-.22,1.05,6.92,3.26,6.95,2.8.04,7-8.33,13.9-8.14,6.55.18,5.42,8.18,10.19,3.74,3.36-3.13,4.2-3.66,7.87-3.66,2.96,0,5.53,1.65,7.42,1.65,1.08,0,2.76-.96,6.45-1.56,1.05-.17,1.83-.25,1.83-1.28v-.23Z"/><path class="cls-1" d="M30.45,40.45C30.45,16.41,48.27,0,70.55,0c15.36,0,24.97,7.39,31.07,16.53l-9.97,5.28c-4.1-6.57-11.84-11.37-21.1-11.37-15.83,0-28.02,12.43-28.02,30.01s12.19,30.01,28.02,30.01c9.26,0,17-4.81,21.1-11.37l9.97,5.28c-6.21,9.15-15.71,16.53-31.07,16.53-22.28,0-40.1-16.41-40.1-40.45Z"/><path class="cls-1" d="M168.56,79.49l-7.86-19.23h-41.62l-7.86,19.23h-7.5L135.73,1.29h8.32l32.01,78.2h-7.5ZM139.83,7.86l-18.64,46.31h37.4l-18.76-46.31Z"/><path class="cls-1" d="M185.2,79.49V1.29h6.68v72.11h37.87v6.1h-44.55Z"/><path class="cls-1" d="M241.95,79.49V1.29h6.68v72.11h37.87v6.1h-44.55Z"/><path class="cls-1" d="M344.53,79.49l-21.93-32.36h-17.24v32.36h-6.68V1.29h29.19c13.48,0,23.8,8.56,23.8,22.86s-10.08,22.04-21.69,22.51l22.63,32.83h-8.09ZM327.3,7.39h-21.93v33.65h21.93c10.32,0,17.35-7.03,17.35-16.88s-7.03-16.77-17.35-16.77Z"/><path class="cls-1" d="M365.99,79.49V1.29h49.59v6.1h-42.91v28.96h42.09v6.1h-42.09v30.95h42.91v6.1h-49.59Z"/><path class="cls-1" d="M453.8,79.49L421.79,1.29h7.74l28.37,70.7L486.39,1.29h7.74l-32.01,78.2h-8.32Z"/><path class="cls-1" d="M503.27,1.29h6.8v48.07c0,15.83,8.32,25.44,23.68,25.44s23.68-9.61,23.68-25.44V1.29h6.8v48.19c0,19.35-10.32,31.42-30.48,31.42s-30.48-12.19-30.48-31.42V1.29Z"/></svg>