<svg width="588" height="212" viewBox="0 0 588 212" fill="none" xmlns="http://www.w3.org/2000/svg">
<rect width="588" height="212" fill="#F5F5F5"/>
<path d="M37.8364 179.217L27.0277 157.6H30.9581L41.7668 179.217H37.8364Z" fill="#00A5C9"/>
<path d="M43.732 179.217L32.9234 157.6H36.8538L47.6625 179.217H43.732Z" fill="#FF3939"/>
<mask id="mask0_107_2" style="mask-type:alpha" maskUnits="userSpaceOnUse" x="28" y="135" width="49" height="45">
<path d="M49.6277 179.217L28.9929 135H76.1581L72.2277 179.217H49.6277Z" fill="#474747"/>
</mask>
<g mask="url(#mask0_107_2)">
<path d="M41.7668 179.217L63.3839 135.983H59.4535L37.8364 179.217H41.7668Z" fill="#00A6CA"/>
<path d="M47.6625 179.217L69.2796 135.983H65.3492L43.732 179.217H47.6625Z" fill="#FF0000"/>
</g>
<path fill-rule="evenodd" clip-rule="evenodd" d="M51.1028 182.595C48.4947 183.836 45.5763 184.531 42.4956 184.531C31.4209 184.531 22.4431 175.553 22.4431 164.478C22.4431 153.404 31.4209 144.426 42.4956 144.426C44.9829 144.426 47.3644 144.879 49.5622 145.706L53.7364 138.286C50.2876 136.804 46.4875 135.983 42.4956 135.983C26.7579 135.983 14 148.741 14 164.478C14 180.216 26.7579 192.974 42.4956 192.974C46.6982 192.974 50.6883 192.064 54.2797 190.431L51.1028 182.595Z" fill="#3D3D3E"/>
<path d="M93.502 159.114V160.634H100.342V158.924C100.342 157.607 100.177 156.429 99.848 155.39C99.544 154.326 99.0373 153.427 98.328 152.692C97.644 151.932 96.7447 151.349 95.63 150.944C94.5153 150.539 93.16 150.336 91.564 150.336C89.74 150.336 88.2073 150.589 86.966 151.096C85.7247 151.577 84.724 152.375 83.964 153.49C83.204 154.605 82.6593 156.061 82.33 157.86C82.026 159.659 81.874 161.85 81.874 164.434C81.874 166.967 82.0007 169.133 82.254 170.932C82.5327 172.705 83.0267 174.162 83.736 175.302C84.4453 176.417 85.4333 177.215 86.7 177.696C87.9667 178.177 89.588 178.418 91.564 178.418C92.704 178.418 93.806 178.291 94.87 178.038C95.9593 177.81 96.922 177.354 97.758 176.67C98.594 175.961 99.2653 174.998 99.772 173.782C100.279 172.566 100.532 171.008 100.532 169.108V167.094H93.692C93.692 168.386 93.654 169.463 93.578 170.324C93.5273 171.16 93.426 171.831 93.274 172.338C93.122 172.845 92.9067 173.212 92.628 173.44C92.3493 173.643 91.9947 173.744 91.564 173.744C91.032 173.744 90.6013 173.605 90.272 173.326C89.968 173.047 89.7273 172.553 89.55 171.844C89.398 171.135 89.2967 170.185 89.246 168.994C89.1953 167.778 89.17 166.258 89.17 164.434C89.17 162.61 89.1953 161.103 89.246 159.912C89.2967 158.696 89.398 157.733 89.55 157.024C89.7273 156.315 89.968 155.821 90.272 155.542C90.6013 155.263 91.032 155.124 91.564 155.124C92.248 155.124 92.742 155.403 93.046 155.96C93.35 156.517 93.502 157.569 93.502 159.114ZM111.936 156.416L109.998 167.93H113.95L112.012 156.416H111.936ZM116.42 150.868L123.032 178H115.508L114.786 173.25H109.162L108.44 178H101.03L107.528 150.868H116.42ZM123.931 150.868V178H130.543V157.784H130.619L134.381 178H139.473L143.235 157.784H143.311V178H149.923V150.868H139.815L136.965 166.942H136.889L134.039 150.868H123.931ZM159.796 162.572V155.96H161.126C162.95 155.96 163.862 157.062 163.862 159.266C163.862 160.406 163.622 161.242 163.14 161.774C162.684 162.306 162.013 162.572 161.126 162.572H159.796ZM152.728 150.868V178H159.796V167.664H162.266C165.18 167.664 167.384 166.967 168.878 165.574C170.398 164.155 171.158 162.04 171.158 159.228C171.158 158.037 171.006 156.935 170.702 155.922C170.398 154.909 169.917 154.035 169.258 153.3C168.625 152.54 167.814 151.945 166.826 151.514C165.838 151.083 164.673 150.868 163.33 150.868H152.728ZM180.848 156.416L178.91 167.93H182.862L180.924 156.416H180.848ZM185.332 150.868L191.944 178H184.42L183.698 173.25H178.074L177.352 178H169.942L176.44 150.868H185.332ZM192.844 150.868V178H199.912V150.868H192.844ZM212.101 163.256V168.044H214.609C214.609 169.209 214.545 170.172 214.419 170.932C214.317 171.667 214.165 172.249 213.963 172.68C213.76 173.085 213.507 173.364 213.203 173.516C212.924 173.668 212.595 173.744 212.215 173.744C211.683 173.744 211.252 173.605 210.923 173.326C210.619 173.047 210.378 172.553 210.201 171.844C210.049 171.135 209.947 170.185 209.897 168.994C209.846 167.778 209.821 166.258 209.821 164.434C209.821 162.61 209.846 161.103 209.897 159.912C209.947 158.696 210.049 157.733 210.201 157.024C210.378 156.315 210.631 155.821 210.961 155.542C211.315 155.263 211.784 155.124 212.367 155.124C213.203 155.124 213.747 155.517 214.001 156.302C214.254 156.961 214.381 158.012 214.381 159.456H221.221C221.221 157.809 221.005 156.416 220.575 155.276C220.144 154.111 219.549 153.161 218.789 152.426C218.029 151.691 217.117 151.159 216.053 150.83C215.014 150.501 213.874 150.336 212.633 150.336C210.555 150.336 208.858 150.653 207.541 151.286C206.223 151.894 205.185 152.793 204.425 153.984C203.69 155.175 203.183 156.644 202.905 158.392C202.651 160.14 202.525 162.154 202.525 164.434C202.525 166.689 202.588 168.69 202.715 170.438C202.867 172.186 203.209 173.655 203.741 174.846C204.273 176.037 205.058 176.936 206.097 177.544C207.135 178.127 208.554 178.418 210.353 178.418C210.961 178.418 211.556 178.38 212.139 178.304C212.747 178.228 213.304 178.101 213.811 177.924C214.343 177.721 214.811 177.43 215.217 177.05C215.647 176.67 215.977 176.189 216.205 175.606H216.281L216.433 178H221.221V163.256H212.101ZM224.096 150.868V178H230.708V161.242H230.784L235.496 178H243.248V150.868H236.636V167.588H236.56L232 150.868H224.096ZM252.955 150.868L258.693 178H267.813L273.665 150.868H266.141L263.291 171.312H263.215L260.365 150.868H252.955ZM274.787 150.868V178H291.203V172.224H281.855V166.828H290.291V161.28H281.855V156.644H290.861V150.868H274.787ZM300.855 162.344V155.96H302.223C303.287 155.96 304.047 156.201 304.503 156.682C304.985 157.163 305.225 157.974 305.225 159.114C305.225 160.077 304.985 160.862 304.503 161.47C304.022 162.053 303.275 162.344 302.261 162.344H300.855ZM293.787 150.868V178H300.855V167.132H302.717C303.148 167.132 303.503 167.195 303.781 167.322C304.085 167.423 304.326 167.626 304.503 167.93C304.706 168.209 304.845 168.601 304.921 169.108C304.997 169.615 305.035 170.248 305.035 171.008V172.832C305.035 173.111 305.035 173.478 305.035 173.934C305.061 174.365 305.086 174.821 305.111 175.302C305.162 175.783 305.225 176.265 305.301 176.746C305.403 177.227 305.542 177.645 305.719 178H313.243V177.62C313.015 177.493 312.851 177.367 312.749 177.24C312.648 177.088 312.547 176.936 312.445 176.784C312.369 176.632 312.306 176.417 312.255 176.138C312.205 175.859 312.167 175.555 312.141 175.226C312.116 174.871 312.103 174.504 312.103 174.124C312.103 173.744 312.103 173.377 312.103 173.022V170.704C312.103 168.88 311.787 167.449 311.153 166.41C310.52 165.371 309.355 164.776 307.657 164.624V164.548C309.279 164.295 310.457 163.611 311.191 162.496C311.926 161.381 312.293 159.912 312.293 158.088C312.293 157.049 312.154 156.087 311.875 155.2C311.622 154.313 311.191 153.553 310.583 152.92C310.001 152.261 309.228 151.755 308.265 151.4C307.328 151.045 306.188 150.868 304.845 150.868H293.787ZM315.342 150.868V178H322.41V150.868H315.342ZM325.479 150.868V178H332.547V166.828H340.983V161.28H332.547V156.644H341.553V150.868H325.479ZM348.448 167.322V178H355.516V167.322L362.432 150.868H354.68L352.02 160.33H351.944L349.284 150.868H341.646L348.448 167.322Z" fill="#3D3D3E"/>
<g clip-path="url(#clip0_107_2)">
<path d="M37.8364 62.2173L27.0277 40.6H30.9581L41.7668 62.2173H37.8364Z" fill="#00A5C9"/>
<path d="M43.732 62.2173L32.9234 40.6H36.8538L47.6625 62.2173H43.732Z" fill="#FF3939"/>
<mask id="mask1_107_2" style="mask-type:alpha" maskUnits="userSpaceOnUse" x="28" y="18" width="49" height="45">
<path d="M49.6277 62.2173L28.9929 18H76.1581L72.2277 62.2173H49.6277Z" fill="#474747"/>
</mask>
<g mask="url(#mask1_107_2)">
<path d="M41.7668 62.2173L63.3839 18.9827H59.4535L37.8364 62.2173H41.7668Z" fill="#00A6CA"/>
<path d="M47.6625 62.2173L69.2796 18.9827H65.3492L43.732 62.2173H47.6625Z" fill="#FF0000"/>
</g>
<path fill-rule="evenodd" clip-rule="evenodd" d="M51.1028 65.5947C48.4947 66.836 45.5763 67.5308 42.4956 67.5308C31.4209 67.5308 22.4431 58.553 22.4431 47.4783C22.4431 36.4036 31.4209 27.4258 42.4956 27.4258C44.9829 27.4258 47.3644 27.8787 49.5622 28.7064L53.7364 21.2856C50.2876 19.8035 46.4875 18.9827 42.4956 18.9827C26.7579 18.9827 14 31.7407 14 47.4783C14 63.216 26.7579 75.974 42.4956 75.974C46.6982 75.974 50.6883 75.0642 54.2797 73.4309L51.1028 65.5947Z" fill="#3D3D3E"/>
<path d="M91.528 29.096V30.376H97.288V28.936C97.288 27.8267 97.1493 26.8347 96.872 25.96C96.616 25.064 96.1893 24.3067 95.592 23.688C95.016 23.048 94.2587 22.5573 93.32 22.216C92.3813 21.8747 91.24 21.704 89.896 21.704C88.36 21.704 87.0693 21.9173 86.024 22.344C84.9787 22.7493 84.136 23.4213 83.496 24.36C82.856 25.2987 82.3973 26.5253 82.12 28.04C81.864 29.5547 81.736 31.4 81.736 33.576C81.736 35.7093 81.8427 37.5333 82.056 39.048C82.2907 40.5413 82.7067 41.768 83.304 42.728C83.9013 43.6667 84.7333 44.3387 85.8 44.744C86.8667 45.1493 88.232 45.352 89.896 45.352C90.856 45.352 91.784 45.2453 92.68 45.032C93.5973 44.84 94.408 44.456 95.112 43.88C95.816 43.2827 96.3813 42.472 96.808 41.448C97.2347 40.424 97.448 39.112 97.448 37.512V35.816H91.688C91.688 36.904 91.656 37.8107 91.592 38.536C91.5493 39.24 91.464 39.8053 91.336 40.232C91.208 40.6587 91.0267 40.968 90.792 41.16C90.5573 41.3307 90.2587 41.416 89.896 41.416C89.448 41.416 89.0853 41.2987 88.808 41.064C88.552 40.8293 88.3493 40.4133 88.2 39.816C88.072 39.2187 87.9867 38.4187 87.944 37.416C87.9013 36.392 87.88 35.112 87.88 33.576C87.88 32.04 87.9013 30.7707 87.944 29.768C87.9867 28.744 88.072 27.9333 88.2 27.336C88.3493 26.7387 88.552 26.3227 88.808 26.088C89.0853 25.8533 89.448 25.736 89.896 25.736C90.472 25.736 90.888 25.9707 91.144 26.44C91.4 26.9093 91.528 27.7947 91.528 29.096ZM107.052 26.824L105.42 36.52H108.748L107.116 26.824H107.052ZM110.828 22.152L116.396 45H110.06L109.452 41H104.716L104.108 45H97.8675L103.34 22.152H110.828ZM117.153 22.152V45H122.721V27.976H122.785L125.953 45H130.241L133.409 27.976H133.473V45H139.041V22.152H130.529L128.129 35.688H128.065L125.665 22.152H117.153ZM147.355 32.008V26.44H148.475C150.011 26.44 150.779 27.368 150.779 29.224C150.779 30.184 150.576 30.888 150.171 31.336C149.787 31.784 149.221 32.008 148.475 32.008H147.355ZM141.403 22.152V45H147.355V36.296H149.435C151.888 36.296 153.744 35.7093 155.003 34.536C156.283 33.3413 156.923 31.56 156.923 29.192C156.923 28.1893 156.795 27.2613 156.539 26.408C156.283 25.5547 155.877 24.8187 155.323 24.2C154.789 23.56 154.107 23.0587 153.275 22.696C152.443 22.3333 151.461 22.152 150.331 22.152H141.403ZM165.083 26.824L163.451 36.52H166.779L165.147 26.824H165.083ZM168.859 22.152L174.427 45H168.091L167.483 41H162.747L162.139 45H155.899L161.371 22.152H168.859ZM175.184 22.152V45H181.136V22.152H175.184ZM191.401 32.584V36.616H193.513C193.513 37.5973 193.459 38.408 193.353 39.048C193.267 39.6667 193.139 40.1573 192.969 40.52C192.798 40.8613 192.585 41.096 192.329 41.224C192.094 41.352 191.817 41.416 191.497 41.416C191.049 41.416 190.686 41.2987 190.409 41.064C190.153 40.8293 189.95 40.4133 189.801 39.816C189.673 39.2187 189.587 38.4187 189.545 37.416C189.502 36.392 189.481 35.112 189.481 33.576C189.481 32.04 189.502 30.7707 189.545 29.768C189.587 28.744 189.673 27.9333 189.801 27.336C189.95 26.7387 190.163 26.3227 190.441 26.088C190.739 25.8533 191.134 25.736 191.625 25.736C192.329 25.736 192.787 26.0667 193.001 26.728C193.214 27.2827 193.321 28.168 193.321 29.384H199.081C199.081 27.9973 198.899 26.824 198.537 25.864C198.174 24.8827 197.673 24.0827 197.033 23.464C196.393 22.8453 195.625 22.3973 194.729 22.12C193.854 21.8427 192.894 21.704 191.849 21.704C190.099 21.704 188.67 21.9707 187.561 22.504C186.451 23.016 185.577 23.7733 184.937 24.776C184.318 25.7787 183.891 27.016 183.657 28.488C183.443 29.96 183.337 31.656 183.337 33.576C183.337 35.4747 183.39 37.16 183.497 38.632C183.625 40.104 183.913 41.3413 184.361 42.344C184.809 43.3467 185.47 44.104 186.345 44.616C187.219 45.1067 188.414 45.352 189.929 45.352C190.441 45.352 190.942 45.32 191.433 45.256C191.945 45.192 192.414 45.0853 192.841 44.936C193.289 44.7653 193.683 44.52 194.025 44.2C194.387 43.88 194.665 43.4747 194.857 42.984H194.921L195.049 45H199.081V32.584H191.401ZM201.502 22.152V45H207.07V30.888H207.134L211.102 45H217.63V22.152H212.062V36.232H211.998L208.158 22.152H201.502ZM80.648 50.152L85.48 73H93.16L98.088 50.152H91.752L89.352 67.368H89.288L86.888 50.152H80.648ZM99.033 50.152V73H112.857V68.136H104.985V63.592H112.089V58.92H104.985V55.016H112.569V50.152H99.033ZM120.985 59.816V54.44H122.137C123.033 54.44 123.673 54.6427 124.057 55.048C124.462 55.4533 124.665 56.136 124.665 57.096C124.665 57.9067 124.462 58.568 124.057 59.08C123.652 59.5707 123.022 59.816 122.169 59.816H120.985ZM115.033 50.152V73H120.985V63.848H122.553C122.916 63.848 123.214 63.9013 123.449 64.008C123.705 64.0933 123.908 64.264 124.057 64.52C124.228 64.7547 124.345 65.0853 124.409 65.512C124.473 65.9387 124.505 66.472 124.505 67.112V68.648C124.505 68.8827 124.505 69.192 124.505 69.576C124.526 69.9387 124.548 70.3227 124.569 70.728C124.612 71.1333 124.665 71.5387 124.729 71.944C124.814 72.3493 124.932 72.7013 125.081 73H131.417V72.68C131.225 72.5733 131.086 72.4667 131.001 72.36C130.916 72.232 130.83 72.104 130.745 71.976C130.681 71.848 130.628 71.6667 130.585 71.432C130.542 71.1973 130.51 70.9413 130.489 70.664C130.468 70.3653 130.457 70.056 130.457 69.736C130.457 69.416 130.457 69.1067 130.457 68.808V66.856C130.457 65.32 130.19 64.1147 129.657 63.24C129.124 62.3653 128.142 61.864 126.713 61.736V61.672C128.078 61.4587 129.07 60.8827 129.689 59.944C130.308 59.0053 130.617 57.768 130.617 56.232C130.617 55.3573 130.5 54.5467 130.265 53.8C130.052 53.0533 129.689 52.4133 129.177 51.88C128.686 51.3253 128.036 50.8987 127.225 50.6C126.436 50.3013 125.476 50.152 124.345 50.152H115.033ZM133.184 50.152V73H139.136V50.152H133.184ZM141.721 50.152V73H147.673V63.592H154.777V58.92H147.673V55.016H155.257V50.152H141.721ZM161.063 64.008V73H167.015V64.008L172.839 50.152H166.311L164.071 58.12H164.007L161.767 50.152H155.335L161.063 64.008Z" fill="#3D3D3E"/>
</g>
<defs>
<clipPath id="clip0_107_2">
<rect width="241" height="95" fill="white"/>
</clipPath>
</defs>
</svg>
