<?xml version="1.0" encoding="UTF-8"?>
<svg id="Layer_1" data-name="Layer 1" xmlns="http://www.w3.org/2000/svg" xmlns:xlink="http://www.w3.org/1999/xlink" version="1.1" viewBox="0 0 2000 1400">
  <defs>
    <style>
      .cls-1 {
        fill: url(#linear-gradient);
      }

      .cls-1, .cls-2 {
        stroke-width: 0px;
      }

      .cls-2 {
        fill: #00a39d;
      }
    </style>
    <linearGradient id="linear-gradient" x1="750" y1="968" x2="1250" y2="968" gradientTransform="translate(0 -498)" gradientUnits="userSpaceOnUse">
      <stop offset="0" stop-color="#00a39d"/>
      <stop offset=".2" stop-color="#03baa9"/>
      <stop offset=".5" stop-color="#06ceb3"/>
      <stop offset=".7" stop-color="#07dbba"/>
      <stop offset="1" stop-color="#08dfbc"/>
    </linearGradient>
  </defs>
  <g>
    <path class="cls-2" d="M1263.4,987.9h133.4c71.3,0,106.6,33.7,106.6,101.1v170.7h-75.7v-155.2c0-33.7-8.3-42.5-39.2-42.5h-49.4v197.7h-75.7v-271.8Z"/>
    <path class="cls-2" d="M712.1,987.9h149.4c71.2,0,106.6,33.7,106.6,101.1v170.7h-75.7v-155.2c0-33.7-8.3-42.5-39.2-42.5h-65.4v197.7h-75.7v-271.8Z"/>
    <path class="cls-2" d="M992.8,1166.9v-235.9h75.7v56.9h67.1v74.6h-67.1v77.9c0,35.9,8.3,43.6,49.2,44.2h17.9v75.1h-50c-63.5,0-92.8-31.5-92.8-92.8h0Z"/>
    <path class="cls-2" d="M1162.5,919.7h75.7v50.5h-75.7v-50.5ZM1162.5,987.9h75.7v271.8h-75.7v-271.8Z"/>
    <path class="cls-2" d="M1659.3,987.9c-75.1,0-135.9,60.8-135.9,135.9s60.8,135.9,135.9,135.9h121.3v-271.8h-121.3ZM1711.3,1184.1h-52c-33.3,0-60.3-27-60.3-60.3s27-60.3,60.3-60.3h52v120.6Z"/>
    <path class="cls-2" d="M566,987.9c-75,0-135.9,60.8-135.9,135.9s60.9,135.9,135.9,135.9h121.3v-271.8h-121.3ZM618,1184.1h-52c-33.3,0-60.3-27-60.3-60.3s27-60.3,60.3-60.3h52v120.6Z"/>
    <path class="cls-2" d="M355.3,1184.1c-33.3,0-60.3-27-60.3-60.3s27-60.3,60.3-60.3h65.9v-75.6h-65.9c-75,0-135.9,60.8-135.9,135.9s60.8,135.9,135.9,135.9h65.9v-75.6h-65.9Z"/>
  </g>
  <path class="cls-1" d="M1201.8,561.4l-78.7,28.8c-21.8,8-44.4,12-67.6,12-40.1,0-78.8-12.2-112-35.1-33.8-23.4-59.2-56.5-73.3-95.5-18-49.8-15.8-103.7,6.6-151.8,22.2-48,61.9-84.5,111.3-102.7l78.7-28.8,23.3-8.6,8.4,23.4,32.9,90.7,8.4,23.4-23.3,8.6-78.5,28.8c-13.1,4.8-23.4,14.3-29.3,27-5.9,12.6-6.5,26.7-1.7,39.9,7.4,20.6,27,34.4,48.6,34.4s12-1.1,17.7-3.2l78.7-28.8,23.3-8.6,8.4,23.4,32.9,90.8,8.4,23.4-23.3,8.3ZM1234.8,522.8l-32.9-90.8-15.2-41.7-41.4,15.3-25.5,9.3,44.9-85.9-15.2-41.7-32.9-90.7-15-41.7-41.4,15.2-78.7,28.8c-51.5,18.9-93.1,55.7-118.2,104.3l-92.8,172.4c-34.8,71.5-24.6,166.5,24,224.5,103.4,123,233.3,76.9,233.3,76.9l133.3-48.3,88.7-164.1-15.2-41.6Z"/>
</svg>