<svg width="1340" height="558" viewBox="0 0 1340 558" fill="none" xmlns="http://www.w3.org/2000/svg">
<path d="M838.713 213.692H924.163C969.807 213.692 992.458 235.279 992.458 278.452V387.792H943.982V288.362C943.982 266.775 938.671 261.112 918.861 261.112H887.197V387.792H838.722V213.692H838.713Z" fill="#00A39D"/>
<path d="M485.547 213.692H581.241C626.886 213.692 649.536 235.279 649.536 278.452V387.792H601.06V288.362C601.06 266.775 595.75 261.112 575.939 261.112H534.031V387.792H485.555V213.692H485.547Z" fill="#00A39D"/>
<path d="M665.401 328.343V177.246H713.877V213.692H756.865V261.464H713.877V311.355C713.877 334.357 719.187 339.308 745.373 339.66H756.865V387.784H724.85C684.156 387.784 665.401 367.613 665.401 328.335V328.343Z" fill="#00A39D"/>
<path d="M774.104 170H822.58V202.367H774.104V170ZM774.104 213.692H822.58V387.792H774.104V213.692Z" fill="#00A39D"/>
<path d="M1092.3 213.692C1044.23 213.692 1005.25 252.669 1005.25 300.742C1005.25 348.816 1044.23 387.792 1092.3 387.792H1170V213.692H1092.3ZM1125.62 339.367H1092.3C1070.97 339.367 1053.67 322.077 1053.67 300.742C1053.67 279.407 1070.96 262.118 1092.3 262.118H1125.62V339.358V339.367Z" fill="#00A39D"/>
<path d="M391.972 213.692C343.898 213.692 304.922 252.669 304.922 300.742C304.922 348.816 343.898 387.792 391.972 387.792H469.673V213.692H391.972ZM425.294 339.367H391.972C370.645 339.367 353.347 322.077 353.347 300.742C353.347 279.407 370.637 262.118 391.972 262.118H425.294V339.358V339.367Z" fill="#00A39D"/>
<path d="M257.05 339.367C235.723 339.367 218.425 322.077 218.425 300.742C218.425 279.407 235.715 262.118 257.05 262.118H299.268V213.692H257.05C208.976 213.692 170 252.669 170 300.742C170 348.816 208.976 387.792 257.05 387.792H299.268V339.367H257.05V339.367Z" fill="#00A39D"/>
</svg>
