<?xml version="1.0" encoding="UTF-8"?><svg id="Calque_1" xmlns="http://www.w3.org/2000/svg" viewBox="0 0 245.27 72"><defs><style>.cls-1{stroke-width:0px;}</style></defs><path class="cls-1" d="M83.85,36.48c0-6.5,4.16-11.71,11.52-11.71,3.26,0,6.62,1.41,9.06,4.38l-3.33,2.78c-1.47-1.79-3.39-2.88-5.73-2.88-3.87,0-6.82,2.88-6.82,7.42,0,4.22,2.82,7.26,6.88,7.26,2.37,0,4.35-1.18,5.73-2.88l3.3,2.85c-1.95,2.43-5.02,4.29-9.02,4.29-6.34,0-11.58-4.03-11.58-11.52Z"/><path class="cls-1" d="M122.17,41.31h-10.98c.51,1.89,2.02,3.01,4.13,3.01,1.76,0,2.98-.74,3.81-1.76l2.72,2.53c-1.31,1.7-3.33,2.98-6.82,2.98-4.8,0-8.19-3.23-8.19-8.13s3.3-8.03,7.94-8.03,7.49,3.33,7.49,7.9c0,.51-.06,1.25-.1,1.5ZM111.23,38.3h6.88c-.42-1.66-1.54-2.75-3.36-2.75-1.7,0-3.04.96-3.52,2.75Z"/><path class="cls-1" d="M125.25,32.13h4.19v2.27h.06c1.18-1.6,2.88-2.5,4.7-2.5h.32v4.58c-.45-.03-.86-.03-1.12-.03-2.59,0-3.97,1.73-3.97,4.1v7.23h-4.19v-15.65Z"/><path class="cls-1" d="M138.42,42.85v-7.23h-1.86v-3.49h1.86v-5.09l4.19-.45v5.54h4.22v3.49h-4.22v6.62c0,1.38.35,2.02,1.34,2.02.51,0,1.28-.19,1.98-.54l1.06,3.36c-.99.54-2.02.99-4.13.99-2.69,0-4.45-1.7-4.45-5.22Z"/><path class="cls-1" d="M149.75,27.42c0-1.41,1.12-2.56,2.66-2.56s2.66,1.15,2.66,2.56-1.15,2.59-2.66,2.59-2.66-1.15-2.66-2.59ZM150.26,32.13h4.19v15.65h-4.19v-15.65Z"/><path class="cls-1" d="M159.67,35.62h-1.63v-3.49h1.63v-2.66c0-3.65,1.82-5.54,4.93-5.54,1.89,0,3.33.67,4.03,1.15l-.86,3.26c-.86-.42-1.73-.7-2.3-.7-.99,0-1.57.61-1.57,2.11v2.37h3.46v3.49h-3.46v12.16h-4.22v-12.16Z"/><path class="cls-1" d="M170.45,27.42c0-1.41,1.12-2.56,2.66-2.56s2.66,1.15,2.66,2.56-1.15,2.59-2.66,2.59-2.66-1.15-2.66-2.59ZM170.96,32.13h4.19v15.65h-4.19v-15.65Z"/><path class="cls-1" d="M178.68,40c0-4.83,3.36-8.1,8.19-8.1,2.43,0,4.99.9,6.62,2.82l-2.75,2.59c-.83-1.02-2.11-1.66-3.58-1.66-2.53,0-4.22,1.76-4.22,4.32s1.73,4.32,4.22,4.32c1.6,0,2.85-.67,3.68-1.7l2.72,2.62c-1.34,1.66-3.49,2.85-6.82,2.85-4.67,0-8.06-3.26-8.06-8.06Z"/><path class="cls-1" d="M195.86,40c0-4.74,3.17-8.1,7.36-8.1,1.82,0,3.49.7,4.61,2.05l.06-.03v-1.79h4.19v15.65h-4v-1.86l-.06-.03c-1.09,1.41-2.66,2.18-4.7,2.18-4.29,0-7.46-3.23-7.46-8.06ZM208.09,40.03c0-2.53-1.73-4.38-3.97-4.38s-4,1.7-4,4.38c0,2.5,1.63,4.26,4,4.26,2.14,0,3.97-1.7,3.97-4.26Z"/><path class="cls-1" d="M216.6,24.22h4.19v23.55h-4.19v-23.55Z"/><path class="cls-1" d="M225.65,24.22h4.19v23.55h-4.19v-23.55Z"/><polygon class="cls-1" points="15.42 44.55 22.17 40.27 15.42 36 22.17 31.73 15.42 27.45 46.14 8 68.38 22.08 52.99 31.83 46.14 27.5 35.24 34.4 33.34 33.2 46.14 25.09 52.95 29.4 57.8 26.33 46.14 18.95 28.55 30.09 26.65 28.89 46.14 16.55 59.7 25.13 64.55 22.06 46.14 10.41 19.22 27.45 46.14 44.5 66.51 31.6 68.41 32.81 46.14 46.91 24.07 32.93 19.22 36 46.14 53.05 66.5 40.16 68.4 41.36 46.14 55.45 24.07 41.48 19.22 44.55 46.14 61.6 66.52 48.69 68.42 49.89 46.14 64 15.42 44.55"/></svg>