<?xml version="1.0" encoding="UTF-8"?>
<svg id="Layer_1" xmlns="http://www.w3.org/2000/svg" viewBox="0 0 275.33 91.94">
  <defs>
    <style>
      .cls-1 {
        fill: #231f20;
      }

      .cls-2 {
        fill: #939598;
      }

      .cls-3 {
        fill: #39b54a;
      }
    </style>
  </defs>
  <g>
    <path class="cls-2" d="M11.92,78.97c0,3.99-1.95,5.88-5.91,5.88s-6.01-1.98-6.01-7.18v-5.03c0-5.26,2.05-7.11,6.14-7.11s5.55,1.85,5.71,5.46h-1.53c-.13-2.34-.91-3.93-4.19-3.93-3.44,0-4.51,1.59-4.51,5.58v4.94c0,3.9.78,5.68,4.38,5.68s4.32-1.59,4.38-4.29h1.53Z"/>
    <path class="cls-2" d="M25.84,84.62v-12.05c0-3.99-.75-5.55-4.25-5.55-2.92,0-4.29,1.33-4.29,4.77v12.83h-1.59v-25.07h1.62v7.83c.81-1.43,2.79-1.98,4.25-1.98,4.22,0,5.88,1.92,5.88,7.21v12.01h-1.62Z"/>
    <path class="cls-2" d="M43.15,79.45c0,3.44-1.75,5.26-5.62,5.26-4.09,0-6.01-1.88-6.01-7.05v-5.1c0-5.2,1.92-7.18,6.01-7.18,4.38,0,5.84,2.18,5.84,7.18v2.83h-10.29v2.14c0,3.86.91,5.71,4.45,5.71s4.16-1.56,4.16-3.8h1.46ZM41.95,73.9v-1.3c0-3.64-.65-5.85-4.42-5.85-3.51,0-4.45,1.75-4.45,5.75v1.4h8.87Z"/>
    <path class="cls-2" d="M48.51,79.32c0,2.21,1.14,3.83,4.48,3.83,2.92,0,4.38-1.43,4.38-3.86,0-3.44-2.73-3.51-5.39-3.86-2.53-.32-5.03-.94-5.03-4.97,0-3.12,2.01-5.07,5.88-5.07s5.75,1.92,5.75,5.03h-1.59c-.07-2.34-1.23-3.51-4.12-3.51s-4.19,1.36-4.19,3.51c0,3.28,2.27,3.31,4.71,3.64,2.76.39,5.68.97,5.68,5.2,0,3.31-1.92,5.46-6.07,5.46-3.7,0-6.1-1.46-6.1-5.39h1.62Z"/>
    <path class="cls-2" d="M72.92,84.62l-.03-2.53c-1.3,2.11-3.05,2.7-5.58,2.7-3.12,0-5.29-1.43-5.29-5.03,0-4.71,4.06-5.68,10.72-5.16v-2.73c.03-3.38-1.14-4.81-4.12-4.81-2.7,0-4.12.84-4.12,4.45h-1.56c0-3.99,1.59-5.91,5.68-5.91,3.83,0,5.68,1.82,5.68,6.23v12.79h-1.36ZM72.73,76.14c-6.2-.62-9.09.32-9.09,3.64,0,2.44,1.4,3.47,4.25,3.47,3.6,0,4.84-2.73,4.84-4.68v-2.44Z"/>
    <path class="cls-2" d="M91.04,72.24v6.14c0,4.48-2.24,6.33-6.01,6.33-1.98,0-3.34-.49-4.38-1.69v7.5h-1.62v-25.04h1.43l.16,2.08c.91-1.33,2.37-2.18,4.71-2.18,3.99,0,5.71,1.88,5.71,6.85ZM85.16,66.92c-3.31.06-4.51,1.85-4.51,4.94v6.27c-.03,3.6.88,5.1,4.38,5.1s4.38-1.72,4.38-4.9v-6.04c0-4.25-1.4-5.36-4.25-5.36Z"/>
    <path class="cls-2" d="M106.92,79.45c0,3.44-1.75,5.26-5.62,5.26-4.09,0-6.01-1.88-6.01-7.05v-5.1c0-5.2,1.92-7.18,6.01-7.18,4.38,0,5.84,2.18,5.84,7.18v2.83h-10.29v2.14c0,3.86.91,5.71,4.45,5.71s4.16-1.56,4.16-3.8h1.46ZM105.72,73.9v-1.3c0-3.64-.65-5.85-4.42-5.85-3.51,0-4.45,1.75-4.45,5.75v1.4h8.86Z"/>
    <path class="cls-2" d="M121.72,84.62l-.03-2.53c-1.3,2.11-3.05,2.7-5.58,2.7-3.12,0-5.29-1.43-5.29-5.03,0-4.71,4.06-5.68,10.71-5.16v-2.73c.03-3.38-1.14-4.81-4.12-4.81-2.7,0-4.12.84-4.12,4.45h-1.56c0-3.99,1.59-5.91,5.68-5.91,3.83,0,5.68,1.82,5.68,6.23v12.79h-1.36ZM121.53,76.14c-6.2-.62-9.09.32-9.09,3.64,0,2.44,1.4,3.47,4.25,3.47,3.6,0,4.84-2.73,4.84-4.68v-2.44Z"/>
    <path class="cls-2" d="M137.73,84.62l-6.79-9.45h-1.79v9.45h-1.69v-25.07h1.66v13.93h1.79l6.07-8.09h1.95l-6.66,8.93,7.47,10.29h-2.01Z"/>
    <path class="cls-2" d="M153.54,79.45c0,3.44-1.75,5.26-5.62,5.26-4.09,0-6.01-1.88-6.01-7.05v-5.1c0-5.2,1.92-7.18,6.01-7.18,4.38,0,5.84,2.18,5.84,7.18v2.83h-10.29v2.14c0,3.86.91,5.71,4.45,5.71s4.16-1.56,4.16-3.8h1.46ZM152.34,73.9v-1.3c0-3.64-.65-5.85-4.42-5.85-3.51,0-4.45,1.75-4.45,5.75v1.4h8.87Z"/>
    <path class="cls-2" d="M167.6,79.32c0,2.21,1.14,3.83,4.48,3.83,2.92,0,4.38-1.43,4.38-3.86,0-3.44-2.73-3.51-5.39-3.86-2.53-.32-5.03-.94-5.03-4.97,0-3.12,2.01-5.07,5.88-5.07s5.75,1.92,5.75,5.03h-1.59c-.06-2.34-1.23-3.51-4.12-3.51s-4.19,1.36-4.19,3.51c0,3.28,2.27,3.31,4.71,3.64,2.76.39,5.68.97,5.68,5.2,0,3.31-1.91,5.46-6.07,5.46-3.7,0-6.1-1.46-6.1-5.39h1.62Z"/>
    <path class="cls-2" d="M180.88,90.1c2.3.84,3.28.16,3.99-2.05l.88-3.34-5.55-18.96h1.79l2.08,7.66,2.57,8.77h.03l2.18-8.77,2.08-7.66h1.79l-6.23,22.5c-.94,3.34-2.79,4.35-6.14,3.28l.55-1.43Z"/>
    <path class="cls-2" d="M196.5,79.32c0,2.21,1.14,3.83,4.48,3.83,2.92,0,4.38-1.43,4.38-3.86,0-3.44-2.73-3.51-5.39-3.86-2.53-.32-5.03-.94-5.03-4.97,0-3.12,2.01-5.07,5.88-5.07s5.75,1.92,5.75,5.03h-1.59c-.07-2.34-1.23-3.51-4.12-3.51s-4.19,1.36-4.19,3.51c0,3.28,2.27,3.31,4.71,3.64,2.76.39,5.68.97,5.68,5.2,0,3.31-1.92,5.46-6.07,5.46-3.7,0-6.1-1.46-6.1-5.39h1.62Z"/>
    <path class="cls-2" d="M210.68,61.2l1.62-.23v4.48h3.93v1.53h-3.93v12.27c0,3.54,1.07,4.22,4.16,3.99v1.43c-4.35.42-5.78-1.17-5.78-5.39v-18.09Z"/>
    <path class="cls-2" d="M231.37,79.45c0,3.44-1.75,5.26-5.62,5.26-4.09,0-6.01-1.88-6.01-7.05v-5.1c0-5.2,1.92-7.18,6.01-7.18,4.38,0,5.84,2.18,5.84,7.18v2.83h-10.29v2.14c0,3.86.91,5.71,4.45,5.71s4.16-1.56,4.16-3.8h1.46ZM230.16,73.9v-1.3c0-3.64-.65-5.85-4.42-5.85-3.51,0-4.45,1.75-4.45,5.75v1.4h8.86Z"/>
    <path class="cls-2" d="M236.27,65.75h1.49l.16,1.53c1.01-1.36,2.6-1.88,4.68-1.88,2.79,0,4.42,1.17,5.1,2.79,1.56-2.37,3.38-2.79,5.46-2.79,4.64,0,5.81,2.47,5.81,6.95v12.27h-1.62v-12.31c0-4.03-.78-5.42-4.35-5.42s-4.58,2.21-4.58,4.94v12.79h-1.62v-12.31c0-3.54-.78-5.42-4.35-5.42s-4.55,1.66-4.55,4.32v13.41h-1.62v-18.87Z"/>
    <path class="cls-2" d="M264.77,79.32c0,2.21,1.14,3.83,4.48,3.83,2.92,0,4.38-1.43,4.38-3.86,0-3.44-2.73-3.51-5.39-3.86-2.53-.32-5.03-.94-5.03-4.97,0-3.12,2.01-5.07,5.88-5.07s5.75,1.92,5.75,5.03h-1.59c-.06-2.34-1.23-3.51-4.12-3.51s-4.19,1.36-4.19,3.51c0,3.28,2.27,3.31,4.71,3.64,2.76.39,5.68.97,5.68,5.2,0,3.31-1.91,5.46-6.07,5.46-3.7,0-6.1-1.46-6.1-5.39h1.62Z"/>
  </g>
  <g>
    <path class="cls-1" d="M31.86,40.76c-4.56-4.53-6.83-10.22-6.83-17.04.02-6.68,2.3-12.3,6.85-16.85C36.42,2.31,42.05.03,48.77.03s12.61,2.11,17.47,6.34l-6.34,6.94c-3.23-2.54-6.94-3.8-11.13-3.8-4.27.02-7.71,1.35-10.32,4s-3.92,6.02-3.92,10.15c.02,4.42,1.34,7.93,3.96,10.53,2.62,2.6,6.07,3.9,10.34,3.9s7.96-1.26,11.07-3.77l6.34,6.94c-4.84,4.23-10.66,6.34-17.47,6.34-6.72-.02-12.36-2.3-16.92-6.83Z"/>
    <path class="cls-1" d="M74.24,47.59V.03h9.51v19.02h22.16V0h9.51v47.56l-9.51.03v-19.66h-22.16v19.66h-9.51Z"/>
    <path class="cls-1" d="M124.57,47.59V.06l34.94-.03v8.88h-25.43v29.81h25.37v8.88h-34.88Z"/>
    <path class="cls-1" d="M193.84,1.62c2.43,1.06,4.7,2.64,6.82,4.76l-6.34,6.34c-2.11-2.54-5.07-3.8-8.88-3.8s-6.24.9-7.29,2.7c-1.06,1.8-1.06,3.33,0,4.6s3.49,2.22,7.29,2.85c4.02.42,7.66,1.74,10.94,3.96,3.28,2.22,4.91,5.76,4.91,10.62,0,3.8-1.75,7.08-5.25,9.83s-7.57,4.12-12.22,4.12-8.11-.63-11.07-1.9-5.5-2.96-7.61-5.07l6.34-6.34c2.11,2.54,5.71,4.02,10.78,4.44,4.23,0,6.86-.9,7.91-2.7,1.05-1.8,1.05-3.59,0-5.39-1.05-1.8-3.68-2.91-7.91-3.33-3.8-.42-7.29-1.59-10.46-3.49-3.17-1.9-4.76-5.18-4.76-9.83,0-4.21,1.8-7.58,5.41-10.13,3.6-2.55,7.31-3.82,11.11-3.82,4.42,0,7.84.53,10.27,1.59Z"/>
    <path class="cls-1" d="M203.03,47.59L222.06.03h9.51l18.99,47.53-10.11.03-2.85-7.29h-21.56l-2.85,7.29h-10.15ZM227.07,12.71l-7.23,18.07h14.27l-7.04-18.07Z"/>
    <polygon class="cls-3" points="138.94 16.55 157.02 23.78 138.94 30.82 138.94 16.55"/>
  </g>
</svg>