<svg version="1.1" id="Layer_1" xmlns="http://www.w3.org/2000/svg" xmlns:xlink="http://www.w3.org/1999/xlink" x="0px" y="0px"
	 width="100%" viewBox="0 0 2200 652" enable-background="new 0 0 2200 652" xml:space="preserve">
<path fill="#FFFFFF" opacity="1.000000" stroke="none" 
	d="
M1597.000000,653.000000 
	C1064.666626,653.000000 532.833313,653.000000 1.000000,653.000000 
	C1.000000,435.666656 1.000000,218.333328 1.000000,1.000000 
	C734.333313,1.000000 1467.666626,1.000000 2201.000000,1.000000 
	C2201.000000,218.333328 2201.000000,435.666656 2201.000000,653.000000 
	C1999.833374,653.000000 1798.666626,653.000000 1597.000000,653.000000 
M537.523499,367.002991 
	C549.809448,336.371979 558.865845,304.832672 561.948608,271.921417 
	C563.759521,252.588074 564.177246,233.105423 564.680603,213.675903 
	C564.957642,202.980835 559.943542,195.207428 549.997131,190.242111 
	C490.094238,160.338394 430.300018,130.217041 370.473206,100.161026 
	C362.606750,96.209038 355.041016,96.679367 347.156128,100.626511 
	C288.503387,129.987747 229.913940,159.483368 170.952347,188.213776 
	C157.704926,194.668884 152.253021,204.025726 152.041214,217.975372 
	C151.676727,241.981918 152.867859,265.815643 156.777863,289.573090 
	C162.642197,325.205261 173.255432,359.267975 189.322205,391.549957 
	C224.721207,462.674896 279.520050,514.674683 348.798584,552.225769 
	C356.111542,556.189697 363.586334,555.849976 370.664551,551.716431 
	C379.707306,546.435669 388.713196,541.057739 397.443237,535.280884 
	C460.751251,493.388306 508.139893,438.176605 537.523499,367.002991 
M1679.340820,273.033783 
	C1682.287109,274.167511 1685.233521,275.301208 1689.006470,276.752991 
	C1689.006470,270.002380 1688.741821,264.510376 1689.092407,259.057953 
	C1689.359741,254.898376 1687.522583,253.236526 1683.838989,252.027039 
	C1666.574341,246.358124 1648.844849,243.661804 1630.753052,244.326416 
	C1612.117554,245.010971 1595.052368,250.051468 1581.684326,264.265137 
	C1564.002930,283.065002 1559.667480,322.670349 1597.532349,336.923248 
	C1610.887573,341.950226 1624.752319,345.609894 1638.314697,350.104156 
	C1648.070190,353.336914 1658.043945,356.205170 1667.308472,360.543060 
	C1676.716675,364.948242 1679.752686,372.595215 1678.347412,382.936432 
	C1676.730713,394.834686 1667.825317,403.229828 1653.278198,405.786377 
	C1633.268799,409.302856 1613.441650,407.802185 1594.026611,402.036224 
	C1586.452759,399.786926 1579.183472,396.512573 1571.058350,393.433350 
	C1571.058350,400.557068 1570.932739,407.468536 1571.202759,414.364532 
	C1571.240479,415.327698 1573.079590,416.533234 1574.324829,417.090302 
	C1601.854370,429.406952 1630.390869,433.643127 1660.039185,426.858063 
	C1680.782593,422.110901 1699.112183,407.525940 1701.710571,385.775665 
	C1704.175171,365.144562 1695.076660,344.589722 1673.849487,337.757568 
	C1660.554077,333.478333 1646.936646,330.193329 1633.666016,325.845093 
	C1623.301514,322.449127 1612.731323,319.066437 1603.183350,313.943268 
	C1590.336304,307.049988 1588.160645,291.585663 1597.285522,280.081787 
	C1602.225586,273.853790 1608.988037,270.264618 1616.500610,268.187195 
	C1637.726440,262.317627 1658.362793,264.941956 1679.340820,273.033783 
M651.086731,293.677155 
	C659.603882,280.850494 670.973999,271.819275 686.035156,267.978119 
	C709.802063,261.916656 732.552612,265.353149 754.420044,275.877289 
	C758.835266,278.002228 763.069458,280.503204 768.077454,283.202972 
	C768.077454,276.362854 767.882080,270.245331 768.153809,264.148560 
	C768.306885,260.712921 767.201050,258.752716 764.116943,257.110168 
	C740.884338,244.736816 716.261841,240.227188 690.249207,244.079941 
	C662.088379,248.250885 640.573608,262.681946 627.083374,287.777710 
	C614.743286,310.733826 613.566406,335.469025 618.412476,360.631622 
	C622.442444,381.556702 632.942200,398.622528 649.774536,411.821136 
	C682.986145,437.863007 733.862610,433.348358 765.801331,414.413940 
	C766.790344,413.827576 767.929016,412.473083 767.956238,411.449066 
	C768.144226,404.378754 768.055176,397.301056 768.055176,389.540039 
	C766.306152,390.390900 765.261536,390.783966 764.336060,391.366333 
	C746.372925,402.670898 726.766113,408.037262 705.574829,407.484314 
	C688.785034,407.046204 673.725220,402.350586 660.852356,390.787231 
	C635.421997,367.943665 633.788574,320.089203 651.086731,293.677155 
M1202.780640,300.195618 
	C1194.077271,305.598389 1187.512939,312.945374 1182.775391,322.003876 
	C1172.832397,341.015717 1171.231934,361.217682 1175.488525,381.765717 
	C1179.621460,401.717010 1190.992676,417.034668 1210.214722,424.528900 
	C1236.064941,434.607178 1261.526733,430.706970 1286.155884,419.265625 
	C1287.497192,418.642517 1289.284424,417.084625 1289.336914,415.894409 
	C1289.640625,409.017548 1289.485107,402.120392 1289.485107,394.202484 
	C1287.012207,395.564880 1285.604004,396.333923 1284.202148,397.114166 
	C1264.625244,408.009613 1244.018555,410.899506 1222.582764,404.030090 
	C1207.771118,399.283447 1196.641846,382.892914 1198.234131,369.019104 
	C1231.091309,369.019104 1264.008545,369.019104 1297.795288,369.019104 
	C1297.222778,360.934113 1297.306274,353.257751 1296.027466,345.815552 
	C1292.938110,327.836884 1285.768311,311.522766 1269.689697,301.733368 
	C1248.332886,288.730194 1225.848022,289.103333 1202.780640,300.195618 
M1819.040283,402.745911 
	C1802.535522,408.406311 1785.858521,409.610687 1769.102295,404.106995 
	C1754.652344,399.360718 1743.510620,383.512482 1744.436279,369.057281 
	C1746.198608,369.057281 1747.995239,369.057281 1749.791748,369.057281 
	C1779.603882,369.057220 1809.416382,368.974792 1839.227417,369.152435 
	C1843.346069,369.176971 1844.584717,367.818665 1844.131836,363.998749 
	C1843.780029,361.031128 1843.634033,358.034607 1843.500977,355.046265 
	C1842.322510,328.598969 1827.552490,294.804504 1787.453369,292.434845 
	C1760.762939,290.857544 1738.877319,299.821472 1727.360718,325.913300 
	C1717.833130,347.499023 1716.912842,369.832855 1725.147583,392.035614 
	C1730.978149,407.756042 1741.976562,419.195862 1757.850342,424.960846 
	C1783.585449,434.307220 1808.559204,430.468597 1832.811401,419.178650 
	C1834.033325,418.609833 1835.710571,417.243896 1835.749756,416.195862 
	C1836.011475,409.189301 1835.885620,402.168243 1835.885620,394.543976 
	C1829.836182,397.495605 1824.792236,399.956665 1819.040283,402.745911 
M1883.827393,426.800964 
	C1908.754150,434.612183 1930.172729,427.672394 1949.628906,410.181030 
	C1950.253906,413.687561 1950.798096,416.234253 1951.149780,418.807220 
	C1952.245483,426.822906 1952.217163,426.826599 1960.101440,426.826263 
	C1962.934082,426.826141 1965.780884,426.648956 1968.595703,426.873291 
	C1972.002319,427.144836 1973.313721,426.006714 1973.298462,422.409424 
	C1973.181885,394.749878 1973.487427,367.086456 1973.147583,339.430603 
	C1972.893433,318.761871 1958.545166,300.290070 1938.571167,294.860992 
	C1916.144043,288.765106 1894.737793,293.485596 1873.981689,302.479034 
	C1872.955566,302.923615 1871.744385,304.397705 1871.708130,305.430695 
	C1871.493896,311.515686 1871.602783,317.612122 1871.602783,324.312469 
	C1873.458740,323.739288 1874.556885,323.548004 1875.520996,323.080322 
	C1889.822510,316.141754 1904.962524,313.647705 1920.685425,315.051758 
	C1938.594482,316.651001 1950.784912,323.665161 1949.359131,347.963593 
	C1947.796875,348.047028 1946.183472,348.203827 1944.569946,348.207733 
	C1934.905640,348.231171 1925.188110,347.588654 1915.591797,348.395813 
	C1905.879761,349.212677 1896.052612,350.626587 1886.703857,353.284576 
	C1875.796509,356.385803 1867.036743,363.355194 1862.217041,373.924347 
	C1854.129761,391.658691 1859.217285,416.664856 1883.827393,426.800964 
M825.421326,296.932343 
	C812.359680,301.955170 802.270386,310.523254 795.234131,322.587738 
	C785.350586,339.534119 784.280334,357.913757 787.082947,376.744446 
	C788.960754,389.361359 793.936218,400.747925 802.892761,410.005798 
	C822.422852,430.192963 846.535217,433.953369 872.372009,427.114288 
	C898.494934,420.199463 913.068787,401.947113 917.205383,375.431488 
	C920.885010,351.844574 917.852051,329.421082 900.546021,311.767059 
	C879.535522,290.334106 853.703308,288.216492 825.421326,296.932343 
M970.741394,332.311493 
	C979.349915,323.166809 989.109192,315.986389 1001.811768,313.568329 
	C1016.738892,310.726776 1030.108643,316.827850 1034.244385,329.230713 
	C1035.949829,334.345245 1036.766113,339.975677 1036.821899,345.383453 
	C1037.082764,370.707977 1036.932861,396.036713 1036.948975,421.363922 
	C1036.950073,423.112427 1037.109009,424.860809 1037.205322,426.830414 
	C1043.278198,426.830414 1048.784790,426.511566 1054.235840,426.924286 
	C1059.223022,427.301849 1060.843506,425.793701 1060.784058,420.595306 
	C1060.511230,396.770844 1060.786011,372.940491 1060.588013,349.114563 
	C1060.530151,342.154846 1059.995728,335.135071 1058.927856,328.259644 
	C1055.549683,306.512756 1037.422119,291.215576 1015.534912,290.801575 
	C998.152100,290.472778 983.868042,297.164917 971.620422,309.012207 
	C970.069824,310.512024 968.396973,311.885406 966.372986,313.678680 
	C965.052734,306.547821 963.914734,300.401733 962.789429,294.323853 
	C955.649597,294.323853 949.079224,294.323853 942.504639,294.323853 
	C942.504639,338.576721 942.504639,382.465118 942.504639,426.830444 
	C948.638245,426.830444 954.447021,426.565247 960.218201,426.916931 
	C964.597351,427.183746 965.944824,425.789551 965.910278,421.337219 
	C965.713684,396.011536 965.927246,370.682587 965.718445,345.357086 
	C965.677612,340.405426 966.332886,336.155151 970.741394,332.311493 
M1438.185059,345.524841 
	C1437.764893,340.220825 1437.823853,334.826233 1436.841309,329.628571 
	C1432.694580,307.692657 1417.044434,290.649719 1392.010620,290.792358 
	C1375.214844,290.888000 1361.378784,297.374176 1349.500977,308.800507 
	C1347.829102,310.408783 1346.034668,311.889740 1343.851196,313.824768 
	C1342.780151,307.533203 1342.004150,302.293152 1340.917480,297.118378 
	C1340.676514,295.970764 1339.374878,294.203888 1338.500244,294.166718 
	C1332.410400,293.908081 1326.304443,294.030121 1320.276489,294.030121 
	C1320.276489,338.579010 1320.276489,382.473541 1320.276489,426.822144 
	C1326.264404,426.822144 1331.923828,426.477661 1337.519287,426.927338 
	C1342.292358,427.310944 1343.411377,425.579773 1343.379028,421.061890 
	C1343.192871,395.064758 1343.260986,369.065582 1343.340942,343.067383 
	C1343.347412,340.987579 1343.433350,338.378906 1344.605591,336.915833 
	C1353.750122,325.501404 1364.562134,316.444122 1379.493408,313.542572 
	C1394.332031,310.658997 1407.410889,316.582642 1411.898071,329.246216 
	C1413.742310,334.450623 1414.341675,340.318390 1414.398682,345.895721 
	C1414.653809,370.891632 1414.502686,395.891571 1414.523560,420.890076 
	C1414.525146,422.802032 1414.721802,424.713867 1414.838745,426.822266 
	C1421.079834,426.822266 1426.756470,426.509918 1432.380859,426.918549 
	C1437.101196,427.261444 1438.312378,425.559448 1438.276855,421.011902 
	C1438.083984,396.181549 1438.185181,371.348938 1438.185059,345.524841 
M1498.644287,267.606720 
	C1482.942383,282.669220 1467.586548,298.065796 1452.399292,313.625153 
	C1452.711670,314.088654 1453.024170,314.552124 1453.336548,315.015625 
	C1461.080688,315.015625 1468.824707,315.015625 1476.919312,315.015625 
	C1476.919312,316.786102 1476.917358,318.082642 1476.919678,319.379181 
	C1476.969360,345.873322 1476.808960,372.370361 1477.172607,398.860199 
	C1477.318604,409.489166 1480.960449,419.215240 1490.921997,424.450806 
	C1505.343750,432.030518 1520.298706,432.038849 1535.108398,425.067841 
	C1536.194214,424.556763 1537.680786,423.348022 1537.718994,422.412262 
	C1537.958374,416.533325 1537.839966,410.639832 1537.839966,404.164917 
	C1535.251953,405.089935 1533.613525,405.935455 1531.879272,406.247650 
	C1526.213989,407.267395 1520.508545,408.864075 1514.828369,408.824493 
	C1504.538818,408.752777 1500.906982,404.480133 1500.903931,394.207153 
	C1500.896729,369.544983 1500.901733,344.882812 1500.901733,320.220642 
	C1500.901733,318.601593 1500.901733,316.982513 1500.901733,314.719147 
	C1513.447998,314.719147 1525.492676,314.719147 1537.561035,314.719147 
	C1537.561035,307.494415 1537.561035,300.926819 1537.561035,293.954163 
	C1525.310547,293.954163 1513.379883,293.954163 1500.907471,293.954163 
	C1500.907471,285.936462 1500.980225,278.321472 1500.833496,270.710724 
	C1500.809937,269.490906 1499.804565,268.290009 1498.644287,267.606720 
M1112.881470,275.376984 
	C1100.169922,288.096863 1087.458496,300.816711 1074.746948,313.536560 
	C1074.996338,313.972534 1075.245728,314.408508 1075.495117,314.844482 
	C1083.205322,314.844482 1090.915527,314.844482 1099.100952,314.844482 
	C1099.100952,317.367554 1099.094238,319.324829 1099.102051,321.282013 
	C1099.205078,347.099182 1099.056641,372.921021 1099.529907,398.731445 
	C1099.742676,410.328583 1104.010986,420.456238 1115.388428,425.550354 
	C1129.322632,431.789307 1143.463501,431.770142 1157.353760,425.093903 
	C1158.507080,424.539551 1159.953491,423.088837 1160.003662,421.996704 
	C1160.267944,416.242126 1160.127319,410.468933 1160.127319,404.137238 
	C1157.757080,405.013550 1156.129028,405.906311 1154.398804,406.202484 
	C1148.403076,407.228729 1142.350708,408.900635 1136.359131,408.751129 
	C1126.696289,408.509979 1123.086670,404.039520 1123.082153,394.418915 
	C1123.070435,369.264160 1123.074097,344.109436 1123.090820,318.954681 
	C1123.091675,317.689117 1123.272827,316.423676 1123.399902,314.766846 
	C1135.657837,314.766846 1147.591797,314.766846 1159.788818,314.766846 
	C1159.788818,307.660309 1159.788818,300.977203 1159.788818,293.724487 
	C1147.392578,293.724487 1135.339844,293.724487 1122.719482,293.724487 
	C1122.719482,284.339966 1122.719482,275.517822 1122.719482,266.695679 
	C1122.256104,266.440186 1121.792725,266.184692 1121.329346,265.929169 
	C1118.696167,268.929291 1116.062866,271.929382 1112.881470,275.376984 
M2032.971924,318.500000 
	C2032.971924,291.749329 2032.971924,264.998657 2032.971924,238.122650 
	C2024.732544,238.122650 2017.034058,238.122650 2009.374512,238.122650 
	C2009.374512,301.128601 2009.374512,363.780457 2009.374512,426.528900 
	C2017.328003,426.528900 2024.902100,426.528900 2032.971924,426.528900 
	C2032.971924,390.659302 2032.971924,355.079651 2032.971924,318.500000 
z"/>
<path fill="#01A2E8" opacity="1.000000" stroke="none" 
	d="
M537.357483,367.349579 
	C508.139893,438.176605 460.751251,493.388306 397.443237,535.280884 
	C388.713196,541.057739 379.707306,546.435669 370.664551,551.716431 
	C363.586334,555.849976 356.111542,556.189697 348.798584,552.225769 
	C279.520050,514.674683 224.721207,462.674896 189.322205,391.549957 
	C173.255432,359.267975 162.642197,325.205261 156.777863,289.573090 
	C152.867859,265.815643 151.676727,241.981918 152.041214,217.975372 
	C152.253021,204.025726 157.704926,194.668884 170.952347,188.213776 
	C229.913940,159.483368 288.503387,129.987747 347.156128,100.626511 
	C355.041016,96.679367 362.606750,96.209038 370.473206,100.161026 
	C430.300018,130.217041 490.094238,160.338394 549.997131,190.242111 
	C559.943542,195.207428 564.957642,202.980835 564.680603,213.675903 
	C564.177246,233.105423 563.759521,252.588074 561.948608,271.921417 
	C558.865845,304.832672 549.809448,336.371979 537.357483,367.349579 
M225.216446,358.877808 
	C219.775009,357.593384 214.360535,356.176453 208.884567,355.061615 
	C203.353897,353.935608 201.663376,355.750946 203.180359,361.055328 
	C205.396286,368.803680 207.654037,376.543640 210.122025,384.213806 
	C210.746292,386.153900 212.234772,387.815918 213.963867,390.128235 
	C216.380753,390.498535 218.797180,391.188568 221.214569,391.191925 
	C268.364532,391.256989 315.514709,391.209656 362.664520,391.317810 
	C365.731995,391.324829 368.960541,391.965637 371.837311,393.047729 
	C394.975677,401.751709 418.036530,410.661682 441.164856,419.392731 
	C442.678497,419.964111 444.553131,419.579132 446.259857,419.638977 
	C446.231079,417.922913 446.615601,416.070282 446.101410,414.514648 
	C443.967834,408.059601 441.693390,401.643005 439.207611,395.315643 
	C437.765350,391.644470 437.949097,388.608154 439.971741,385.024475 
	C451.896667,363.896088 463.436584,342.550446 475.347443,321.413971 
	C478.578064,315.681030 479.142242,310.220490 477.477631,303.841949 
	C471.573578,281.218445 466.101074,258.482300 461.307434,235.641846 
	C465.567413,234.956039 469.827393,234.270248 474.977936,233.476883 
	C485.979218,231.992767 496.980499,230.508667 507.981750,229.024551 
	C508.023926,228.409317 508.066101,227.794083 508.108276,227.178848 
	C506.985626,226.311478 505.950684,225.288040 504.727051,224.600327 
	C488.061981,215.233688 471.383240,205.891037 454.663269,196.622971 
	C453.267059,195.849045 451.549377,195.655029 449.145050,195.000351 
	C447.653900,195.082947 446.086578,194.894943 444.683289,195.289795 
	C429.990112,199.424271 415.320526,203.642960 400.650635,207.859909 
	C396.529877,209.044434 394.899414,211.905029 394.926544,216.102966 
	C395.006256,228.434814 394.961823,240.767456 394.964874,253.099792 
	C394.966339,259.020538 394.965149,264.941284 394.965149,271.739410 
	C388.619965,268.642822 382.850250,266.149780 377.406494,263.078857 
	C372.044434,260.054047 367.834290,261.175537 363.353943,264.934082 
	C325.077850,297.043488 286.714264,329.048615 248.336899,361.037048 
	C247.128372,362.044312 245.488052,362.533569 243.289581,362.987488 
	C237.510574,361.702423 231.731552,360.417328 225.216446,358.877808 
z"/>
<path fill="#03A3E8" opacity="1.000000" stroke="none" 
	d="
M1678.959229,272.944458 
	C1658.362793,264.941956 1637.726440,262.317627 1616.500610,268.187195 
	C1608.988037,270.264618 1602.225586,273.853790 1597.285522,280.081787 
	C1588.160645,291.585663 1590.336304,307.049988 1603.183350,313.943268 
	C1612.731323,319.066437 1623.301514,322.449127 1633.666016,325.845093 
	C1646.936646,330.193329 1660.554077,333.478333 1673.849487,337.757568 
	C1695.076660,344.589722 1704.175171,365.144562 1701.710571,385.775665 
	C1699.112183,407.525940 1680.782593,422.110901 1660.039185,426.858063 
	C1630.390869,433.643127 1601.854370,429.406952 1574.324829,417.090302 
	C1573.079590,416.533234 1571.240479,415.327698 1571.202759,414.364532 
	C1570.932739,407.468536 1571.058350,400.557068 1571.058350,393.433350 
	C1579.183472,396.512573 1586.452759,399.786926 1594.026611,402.036224 
	C1613.441650,407.802185 1633.268799,409.302856 1653.278198,405.786377 
	C1667.825317,403.229828 1676.730713,394.834686 1678.347412,382.936432 
	C1679.752686,372.595215 1676.716675,364.948242 1667.308472,360.543060 
	C1658.043945,356.205170 1648.070190,353.336914 1638.314697,350.104156 
	C1624.752319,345.609894 1610.887573,341.950226 1597.532349,336.923248 
	C1559.667480,322.670349 1564.002930,283.065002 1581.684326,264.265137 
	C1595.052368,250.051468 1612.117554,245.010971 1630.753052,244.326416 
	C1648.844849,243.661804 1666.574341,246.358124 1683.838989,252.027039 
	C1687.522583,253.236526 1689.359741,254.898376 1689.092407,259.057953 
	C1688.741821,264.510376 1689.006470,270.002380 1689.006470,276.752991 
	C1685.233521,275.301208 1682.287109,274.167511 1678.959229,272.944458 
z"/>
<path fill="#03A3E8" opacity="1.000000" stroke="none" 
	d="
M650.909180,293.993225 
	C633.788574,320.089203 635.421997,367.943665 660.852356,390.787231 
	C673.725220,402.350586 688.785034,407.046204 705.574829,407.484314 
	C726.766113,408.037262 746.372925,402.670898 764.336060,391.366333 
	C765.261536,390.783966 766.306152,390.390900 768.055176,389.540039 
	C768.055176,397.301056 768.144226,404.378754 767.956238,411.449066 
	C767.929016,412.473083 766.790344,413.827576 765.801331,414.413940 
	C733.862610,433.348358 682.986145,437.863007 649.774536,411.821136 
	C632.942200,398.622528 622.442444,381.556702 618.412476,360.631622 
	C613.566406,335.469025 614.743286,310.733826 627.083374,287.777710 
	C640.573608,262.681946 662.088379,248.250885 690.249207,244.079941 
	C716.261841,240.227188 740.884338,244.736816 764.116943,257.110168 
	C767.201050,258.752716 768.306885,260.712921 768.153809,264.148560 
	C767.882080,270.245331 768.077454,276.362854 768.077454,283.202972 
	C763.069458,280.503204 758.835266,278.002228 754.420044,275.877289 
	C732.552612,265.353149 709.802063,261.916656 686.035156,267.978119 
	C670.973999,271.819275 659.603882,280.850494 650.909180,293.993225 
z"/>
<path fill="#02A3E8" opacity="1.000000" stroke="none" 
	d="
M1203.112793,300.041870 
	C1225.848022,289.103333 1248.332886,288.730194 1269.689697,301.733368 
	C1285.768311,311.522766 1292.938110,327.836884 1296.027466,345.815552 
	C1297.306274,353.257751 1297.222778,360.934113 1297.795288,369.019104 
	C1264.008545,369.019104 1231.091309,369.019104 1198.234131,369.019104 
	C1196.641846,382.892914 1207.771118,399.283447 1222.582764,404.030090 
	C1244.018555,410.899506 1264.625244,408.009613 1284.202148,397.114166 
	C1285.604004,396.333923 1287.012207,395.564880 1289.485107,394.202484 
	C1289.485107,402.120392 1289.640625,409.017548 1289.336914,415.894409 
	C1289.284424,417.084625 1287.497192,418.642517 1286.155884,419.265625 
	C1261.526733,430.706970 1236.064941,434.607178 1210.214722,424.528900 
	C1190.992676,417.034668 1179.621460,401.717010 1175.488525,381.765717 
	C1171.231934,361.217682 1172.832397,341.015717 1182.775391,322.003876 
	C1187.512939,312.945374 1194.077271,305.598389 1203.112793,300.041870 
M1273.001221,343.409729 
	C1269.859253,322.521027 1249.928955,308.346863 1228.887695,312.040253 
	C1209.912720,315.370911 1196.173706,332.259460 1198.285400,349.968964 
	C1199.689697,349.968964 1201.151001,349.968933 1202.612427,349.968964 
	C1224.612427,349.969543 1246.613770,349.832611 1268.611084,350.076202 
	C1273.555176,350.130920 1274.460938,348.378174 1273.001221,343.409729 
z"/>
<path fill="#03A3E8" opacity="1.000000" stroke="none" 
	d="
M1819.394287,402.581818 
	C1824.792236,399.956665 1829.836182,397.495605 1835.885620,394.543976 
	C1835.885620,402.168243 1836.011475,409.189301 1835.749756,416.195862 
	C1835.710571,417.243896 1834.033325,418.609833 1832.811401,419.178650 
	C1808.559204,430.468597 1783.585449,434.307220 1757.850342,424.960846 
	C1741.976562,419.195862 1730.978149,407.756042 1725.147583,392.035614 
	C1716.912842,369.832855 1717.833130,347.499023 1727.360718,325.913300 
	C1738.877319,299.821472 1760.762939,290.857544 1787.453369,292.434845 
	C1827.552490,294.804504 1842.322510,328.598969 1843.500977,355.046265 
	C1843.634033,358.034607 1843.780029,361.031128 1844.131836,363.998749 
	C1844.584717,367.818665 1843.346069,369.176971 1839.227417,369.152435 
	C1809.416382,368.974792 1779.603882,369.057220 1749.791748,369.057281 
	C1747.995239,369.057281 1746.198608,369.057281 1744.436279,369.057281 
	C1743.510620,383.512482 1754.652344,399.360718 1769.102295,404.106995 
	C1785.858521,409.610687 1802.535522,408.406311 1819.394287,402.581818 
M1760.552124,317.964020 
	C1749.274292,325.479980 1744.442993,336.264496 1743.969238,349.631256 
	C1769.568604,349.631256 1794.597290,349.631256 1819.969849,349.631256 
	C1819.574829,335.514343 1814.352905,324.418335 1802.258301,317.339417 
	C1788.624268,309.359558 1774.823242,309.395935 1760.552124,317.964020 
z"/>
<path fill="#03A3E8" opacity="1.000000" stroke="none" 
	d="
M1883.469482,426.658234 
	C1859.217285,416.664856 1854.129761,391.658691 1862.217041,373.924347 
	C1867.036743,363.355194 1875.796509,356.385803 1886.703857,353.284576 
	C1896.052612,350.626587 1905.879761,349.212677 1915.591797,348.395813 
	C1925.188110,347.588654 1934.905640,348.231171 1944.569946,348.207733 
	C1946.183472,348.203827 1947.796875,348.047028 1949.359131,347.963593 
	C1950.784912,323.665161 1938.594482,316.651001 1920.685425,315.051758 
	C1904.962524,313.647705 1889.822510,316.141754 1875.520996,323.080322 
	C1874.556885,323.548004 1873.458740,323.739288 1871.602783,324.312469 
	C1871.602783,317.612122 1871.493896,311.515686 1871.708130,305.430695 
	C1871.744385,304.397705 1872.955566,302.923615 1873.981689,302.479034 
	C1894.737793,293.485596 1916.144043,288.765106 1938.571167,294.860992 
	C1958.545166,300.290070 1972.893433,318.761871 1973.147583,339.430603 
	C1973.487427,367.086456 1973.181885,394.749878 1973.298462,422.409424 
	C1973.313721,426.006714 1972.002319,427.144836 1968.595703,426.873291 
	C1965.780884,426.648956 1962.934082,426.826141 1960.101440,426.826263 
	C1952.217163,426.826599 1952.245483,426.822906 1951.149780,418.807220 
	C1950.798096,416.234253 1950.253906,413.687561 1949.628906,410.181030 
	C1930.172729,427.672394 1908.754150,434.612183 1883.469482,426.658234 
M1949.769897,372.650848 
	C1949.769897,371.087372 1949.769897,369.523865 1949.769897,368.040588 
	C1935.655518,368.040588 1922.362183,367.782104 1909.088867,368.182831 
	C1904.531738,368.320374 1899.895630,369.728088 1895.520996,371.217438 
	C1886.453003,374.304504 1881.820923,381.034637 1882.302124,389.539734 
	C1882.851929,399.252411 1888.080688,405.566864 1897.726807,407.817566 
	C1914.325806,411.690704 1928.819702,407.136261 1942.089478,396.947968 
	C1947.487793,392.803314 1951.092651,388.361267 1949.836182,381.102661 
	C1949.416504,378.678040 1949.769653,376.119659 1949.769897,372.650848 
z"/>
<path fill="#03A3E8" opacity="1.000000" stroke="none" 
	d="
M825.793091,296.812347 
	C853.703308,288.216492 879.535522,290.334106 900.546021,311.767059 
	C917.852051,329.421082 920.885010,351.844574 917.205383,375.431488 
	C913.068787,401.947113 898.494934,420.199463 872.372009,427.114288 
	C846.535217,433.953369 822.422852,430.192963 802.892761,410.005798 
	C793.936218,400.747925 788.960754,389.361359 787.082947,376.744446 
	C784.280334,357.913757 785.350586,339.534119 795.234131,322.587738 
	C802.270386,310.523254 812.359680,301.955170 825.793091,296.812347 
M882.799316,325.705902 
	C861.882141,306.237549 829.470032,309.539459 815.926575,332.977081 
	C807.481995,347.590668 807.596924,363.533905 811.886169,379.380829 
	C816.578125,396.715393 829.048157,405.855347 846.089478,408.758453 
	C862.650574,411.579773 880.269470,403.082092 888.416748,389.147156 
	C897.723145,373.229858 898.125549,341.160004 882.799316,325.705902 
z"/>
<path fill="#05A4E8" opacity="1.000000" stroke="none" 
	d="
M970.502563,332.586792 
	C966.332886,336.155151 965.677612,340.405426 965.718445,345.357086 
	C965.927246,370.682587 965.713684,396.011536 965.910278,421.337219 
	C965.944824,425.789551 964.597351,427.183746 960.218201,426.916931 
	C954.447021,426.565247 948.638245,426.830444 942.504639,426.830444 
	C942.504639,382.465118 942.504639,338.576721 942.504639,294.323853 
	C949.079224,294.323853 955.649597,294.323853 962.789429,294.323853 
	C963.914734,300.401733 965.052734,306.547821 966.372986,313.678680 
	C968.396973,311.885406 970.069824,310.512024 971.620422,309.012207 
	C983.868042,297.164917 998.152100,290.472778 1015.534912,290.801575 
	C1037.422119,291.215576 1055.549683,306.512756 1058.927856,328.259644 
	C1059.995728,335.135071 1060.530151,342.154846 1060.588013,349.114563 
	C1060.786011,372.940491 1060.511230,396.770844 1060.784058,420.595306 
	C1060.843506,425.793701 1059.223022,427.301849 1054.235840,426.924286 
	C1048.784790,426.511566 1043.278198,426.830414 1037.205322,426.830414 
	C1037.109009,424.860809 1036.950073,423.112427 1036.948975,421.363922 
	C1036.932861,396.036713 1037.082764,370.707977 1036.821899,345.383453 
	C1036.766113,339.975677 1035.949829,334.345245 1034.244385,329.230713 
	C1030.108643,316.827850 1016.738892,310.726776 1001.811768,313.568329 
	C989.109192,315.986389 979.349915,323.166809 970.502563,332.586792 
z"/>
<path fill="#02A3E8" opacity="1.000000" stroke="none" 
	d="
M1438.185181,346.020966 
	C1438.185181,371.348938 1438.083984,396.181549 1438.276855,421.011902 
	C1438.312378,425.559448 1437.101196,427.261444 1432.380859,426.918549 
	C1426.756470,426.509918 1421.079834,426.822266 1414.838745,426.822266 
	C1414.721802,424.713867 1414.525146,422.802032 1414.523560,420.890076 
	C1414.502686,395.891571 1414.653809,370.891632 1414.398682,345.895721 
	C1414.341675,340.318390 1413.742310,334.450623 1411.898071,329.246216 
	C1407.410889,316.582642 1394.332031,310.658997 1379.493408,313.542572 
	C1364.562134,316.444122 1353.750122,325.501404 1344.605591,336.915833 
	C1343.433350,338.378906 1343.347412,340.987579 1343.340942,343.067383 
	C1343.260986,369.065582 1343.192871,395.064758 1343.379028,421.061890 
	C1343.411377,425.579773 1342.292358,427.310944 1337.519287,426.927338 
	C1331.923828,426.477661 1326.264404,426.822144 1320.276489,426.822144 
	C1320.276489,382.473541 1320.276489,338.579010 1320.276489,294.030121 
	C1326.304443,294.030121 1332.410400,293.908081 1338.500244,294.166718 
	C1339.374878,294.203888 1340.676514,295.970764 1340.917480,297.118378 
	C1342.004150,302.293152 1342.780151,307.533203 1343.851196,313.824768 
	C1346.034668,311.889740 1347.829102,310.408783 1349.500977,308.800507 
	C1361.378784,297.374176 1375.214844,290.888000 1392.010620,290.792358 
	C1417.044434,290.649719 1432.694580,307.692657 1436.841309,329.628571 
	C1437.823853,334.826233 1437.764893,340.220825 1438.185181,346.020966 
z"/>
<path fill="#04A3E8" opacity="1.000000" stroke="none" 
	d="
M1498.948730,267.343536 
	C1499.804565,268.290009 1500.809937,269.490906 1500.833496,270.710724 
	C1500.980225,278.321472 1500.907471,285.936462 1500.907471,293.954163 
	C1513.379883,293.954163 1525.310547,293.954163 1537.561035,293.954163 
	C1537.561035,300.926819 1537.561035,307.494415 1537.561035,314.719147 
	C1525.492676,314.719147 1513.447998,314.719147 1500.901733,314.719147 
	C1500.901733,316.982513 1500.901733,318.601593 1500.901733,320.220642 
	C1500.901733,344.882812 1500.896729,369.544983 1500.903931,394.207153 
	C1500.906982,404.480133 1504.538818,408.752777 1514.828369,408.824493 
	C1520.508545,408.864075 1526.213989,407.267395 1531.879272,406.247650 
	C1533.613525,405.935455 1535.251953,405.089935 1537.839966,404.164917 
	C1537.839966,410.639832 1537.958374,416.533325 1537.718994,422.412262 
	C1537.680786,423.348022 1536.194214,424.556763 1535.108398,425.067841 
	C1520.298706,432.038849 1505.343750,432.030518 1490.921997,424.450806 
	C1480.960449,419.215240 1477.318604,409.489166 1477.172607,398.860199 
	C1476.808960,372.370361 1476.969360,345.873322 1476.919678,319.379181 
	C1476.917358,318.082642 1476.919312,316.786102 1476.919312,315.015625 
	C1468.824707,315.015625 1461.080688,315.015625 1453.336548,315.015625 
	C1453.024170,314.552124 1452.711670,314.088654 1452.399292,313.625153 
	C1467.586548,298.065796 1482.942383,282.669220 1498.948730,267.343536 
z"/>
<path fill="#02A3E8" opacity="1.000000" stroke="none" 
	d="
M1113.155518,275.153259 
	C1116.062866,271.929382 1118.696167,268.929291 1121.329346,265.929169 
	C1121.792725,266.184692 1122.256104,266.440186 1122.719482,266.695679 
	C1122.719482,275.517822 1122.719482,284.339966 1122.719482,293.724487 
	C1135.339844,293.724487 1147.392578,293.724487 1159.788818,293.724487 
	C1159.788818,300.977203 1159.788818,307.660309 1159.788818,314.766846 
	C1147.591797,314.766846 1135.657837,314.766846 1123.399902,314.766846 
	C1123.272827,316.423676 1123.091675,317.689117 1123.090820,318.954681 
	C1123.074097,344.109436 1123.070435,369.264160 1123.082153,394.418915 
	C1123.086670,404.039520 1126.696289,408.509979 1136.359131,408.751129 
	C1142.350708,408.900635 1148.403076,407.228729 1154.398804,406.202484 
	C1156.129028,405.906311 1157.757080,405.013550 1160.127319,404.137238 
	C1160.127319,410.468933 1160.267944,416.242126 1160.003662,421.996704 
	C1159.953491,423.088837 1158.507080,424.539551 1157.353760,425.093903 
	C1143.463501,431.770142 1129.322632,431.789307 1115.388428,425.550354 
	C1104.010986,420.456238 1099.742676,410.328583 1099.529907,398.731445 
	C1099.056641,372.921021 1099.205078,347.099182 1099.102051,321.282013 
	C1099.094238,319.324829 1099.100952,317.367554 1099.100952,314.844482 
	C1090.915527,314.844482 1083.205322,314.844482 1075.495117,314.844482 
	C1075.245728,314.408508 1074.996338,313.972534 1074.746948,313.536560 
	C1087.458496,300.816711 1100.169922,288.096863 1113.155518,275.153259 
z"/>
<path fill="#01A2E8" opacity="1.000000" stroke="none" 
	d="
M2032.971924,319.000000 
	C2032.971924,355.079651 2032.971924,390.659302 2032.971924,426.528900 
	C2024.902100,426.528900 2017.328003,426.528900 2009.374512,426.528900 
	C2009.374512,363.780457 2009.374512,301.128601 2009.374512,238.122650 
	C2017.034058,238.122650 2024.732544,238.122650 2032.971924,238.122650 
	C2032.971924,264.998657 2032.971924,291.749329 2032.971924,319.000000 
z"/>
<path fill="#EFF0F0" opacity="1.000000" stroke="none" 
	d="
M460.465088,235.788834 
	C466.101074,258.482300 471.573578,281.218445 477.477631,303.841949 
	C479.142242,310.220490 478.578064,315.681030 475.347443,321.413971 
	C463.436584,342.550446 451.896667,363.896088 439.971741,385.024475 
	C437.949097,388.608154 437.765350,391.644470 439.207611,395.315643 
	C441.693390,401.643005 443.967834,408.059601 446.101410,414.514648 
	C446.615601,416.070282 446.231079,417.922913 446.259857,419.638977 
	C444.553131,419.579132 442.678497,419.964111 441.164856,419.392731 
	C418.036530,410.661682 394.975677,401.751709 371.837311,393.047729 
	C368.960541,391.965637 365.731995,391.324829 362.664520,391.317810 
	C315.514709,391.209656 268.364532,391.256989 221.214569,391.191925 
	C218.797180,391.188568 216.380753,390.498535 213.820801,389.727051 
	C213.677719,389.325897 213.993378,389.006104 214.217133,388.897675 
	C214.722031,388.588440 214.911377,388.322327 215.004852,387.995178 
	C215.000763,387.999420 214.992676,388.007538 215.341080,387.973389 
	C222.905319,382.015930 230.179138,376.161194 237.305008,370.131622 
	C239.743820,368.068024 241.811676,365.566010 244.049026,363.264313 
	C245.488052,362.533569 247.128372,362.044312 248.336899,361.037048 
	C286.714264,329.048615 325.077850,297.043488 363.353943,264.934082 
	C367.834290,261.175537 372.044434,260.054047 377.406494,263.078857 
	C382.850250,266.149780 388.619965,268.642822 394.965149,271.739410 
	C394.965149,264.941284 394.966339,259.020538 394.964874,253.099792 
	C394.961823,240.767456 395.006256,228.434814 394.926544,216.102966 
	C394.899414,211.905029 396.529877,209.044434 400.650635,207.859909 
	C415.320526,203.642960 429.990112,199.424271 444.683289,195.289795 
	C446.086578,194.894943 447.653900,195.082947 449.569550,195.430389 
	C450.328949,196.906555 450.663849,197.952667 451.005432,199.393494 
	C454.163086,211.788422 457.314087,223.788635 460.465088,235.788834 
z"/>
<path fill="#E3E5E6" opacity="1.000000" stroke="none" 
	d="
M450.998779,198.998779 
	C450.663849,197.952667 450.328949,196.906555 449.987549,195.526001 
	C451.549377,195.655029 453.267059,195.849045 454.663269,196.622971 
	C471.383240,205.891037 488.061981,215.233688 504.727051,224.600327 
	C505.950684,225.288040 506.985626,226.311478 508.108276,227.178848 
	C508.066101,227.794083 508.023926,228.409317 507.981750,229.024551 
	C496.980499,230.508667 485.979218,231.992767 474.515045,233.112244 
	C473.799805,231.806931 473.769501,230.720108 473.261292,229.947800 
	C466.824738,220.166611 460.347900,210.411362 453.780457,200.717850 
	C453.222687,199.894547 451.943054,199.560242 450.998779,198.998779 
z"/>
<path fill="#EFF0F0" opacity="1.000000" stroke="none" 
	d="
M213.501923,389.465820 
	C212.234772,387.815918 210.746292,386.153900 210.122025,384.213806 
	C207.654037,376.543640 205.396286,368.803680 203.180359,361.055328 
	C201.663376,355.750946 203.353897,353.935608 208.884567,355.061615 
	C214.360535,356.176453 219.775009,357.593384 225.437103,359.325134 
	C225.048126,361.308014 224.413467,362.834167 223.833069,364.380707 
	C220.878540,372.253418 217.938049,380.131409 214.992676,388.007538 
	C214.992676,388.007538 215.000763,387.999420 214.781006,388.103302 
	C214.283249,388.410431 214.093964,388.676758 213.993378,389.006104 
	C213.993378,389.006104 213.677719,389.325897 213.501923,389.465820 
z"/>
<path fill="#DCDDDD" opacity="1.000000" stroke="none" 
	d="
M215.341080,387.973389 
	C217.938049,380.131409 220.878540,372.253418 223.833069,364.380707 
	C224.413467,362.834167 225.048126,361.308014 225.805145,359.452332 
	C231.731552,360.417328 237.510574,361.702423 243.669312,363.125916 
	C241.811676,365.566010 239.743820,368.068024 237.305008,370.131622 
	C230.179138,376.161194 222.905319,382.015930 215.341080,387.973389 
z"/>
<path fill="#DCDDDD" opacity="1.000000" stroke="none" 
	d="
M451.005432,199.393494 
	C451.943054,199.560242 453.222687,199.894547 453.780457,200.717850 
	C460.347900,210.411362 466.824738,220.166611 473.261292,229.947800 
	C473.769501,230.720108 473.799805,231.806931 474.069763,233.166031 
	C469.827393,234.270248 465.567413,234.956039 460.886261,235.715332 
	C457.314087,223.788635 454.163086,211.788422 451.005432,199.393494 
z"/>
<path fill="#FDFEFF" opacity="1.000000" stroke="none" 
	d="
M1273.044434,343.820343 
	C1274.460938,348.378174 1273.555176,350.130920 1268.611084,350.076202 
	C1246.613770,349.832611 1224.612427,349.969543 1202.612427,349.968964 
	C1201.151001,349.968933 1199.689697,349.968964 1198.285400,349.968964 
	C1196.173706,332.259460 1209.912720,315.370911 1228.887695,312.040253 
	C1249.928955,308.346863 1269.859253,322.521027 1273.044434,343.820343 
z"/>
<path fill="#FDFEFF" opacity="1.000000" stroke="none" 
	d="
M1760.868652,317.785980 
	C1774.823242,309.395935 1788.624268,309.359558 1802.258301,317.339417 
	C1814.352905,324.418335 1819.574829,335.514343 1819.969849,349.631256 
	C1794.597290,349.631256 1769.568604,349.631256 1743.969238,349.631256 
	C1744.442993,336.264496 1749.274292,325.479980 1760.868652,317.785980 
z"/>
<path fill="#FDFEFF" opacity="1.000000" stroke="none" 
	d="
M1949.769775,373.136627 
	C1949.769653,376.119659 1949.416504,378.678040 1949.836182,381.102661 
	C1951.092651,388.361267 1947.487793,392.803314 1942.089478,396.947968 
	C1928.819702,407.136261 1914.325806,411.690704 1897.726807,407.817566 
	C1888.080688,405.566864 1882.851929,399.252411 1882.302124,389.539734 
	C1881.820923,381.034637 1886.453003,374.304504 1895.520996,371.217438 
	C1899.895630,369.728088 1904.531738,368.320374 1909.088867,368.182831 
	C1922.362183,367.782104 1935.655518,368.040588 1949.769897,368.040588 
	C1949.769897,369.523865 1949.769897,371.087372 1949.769775,373.136627 
z"/>
<path fill="#FEFEFF" opacity="1.000000" stroke="none" 
	d="
M883.071472,325.938843 
	C898.125549,341.160004 897.723145,373.229858 888.416748,389.147156 
	C880.269470,403.082092 862.650574,411.579773 846.089478,408.758453 
	C829.048157,405.855347 816.578125,396.715393 811.886169,379.380829 
	C807.596924,363.533905 807.481995,347.590668 815.926575,332.977081 
	C829.470032,309.539459 861.882141,306.237549 883.071472,325.938843 
z"/>
<path fill="#DCDDDD" opacity="1.000000" stroke="none" 
	d="
M214.217133,388.897675 
	C214.093964,388.676758 214.283249,388.410431 214.785095,388.099060 
	C214.911377,388.322327 214.722031,388.588440 214.217133,388.897675 
z"/>
</svg>