<?xml version="1.0" encoding="UTF-8"?>
<svg id="Layer_2" data-name="Layer 2" xmlns="http://www.w3.org/2000/svg" viewBox="0 0 526.48 707.23">
  <g id="Layer_1-2" data-name="Layer 1">
    <g>
      <g>
        <path d="M450.43,137.13v35.59l-20.69-11.77c-2.2-1.25-3.56-3.59-3.56-6.12v-47.25l11.97,6.85c7.84,4.85,12.5,13.49,12.29,22.69Z" fill="#364c69"/>
        <path d="M450.43,193.35v23.28l-57.87-32.91c-2.98-1.69-4.81-4.85-4.81-8.27v-89.8l14.51,8.28c7.53,4.3,12.18,12.31,12.18,20.98v44.21c0,4.12,2.21,7.93,5.79,9.96l24.04,13.68c3.81,2.17,6.16,6.21,6.16,10.59Z" fill="#364c69"/>
        <path d="M450.45,236.25v22.84l-96.25-54.71c-2.29-1.3-3.71-3.74-3.71-6.38V64.33l15.88,9.08c5.95,3.41,9.63,9.74,9.63,16.6v92.86c0,3.05,1.64,5.86,4.28,7.36l64.87,36.89c3.28,1.86,5.3,5.34,5.3,9.11Z" fill="#364c69"/>
        <path d="M450.45,278.6v23.46l-133.7-76c-2.43-1.38-3.93-3.96-3.93-6.76V42.82l15.45,8.83c6.46,3.69,10.44,10.56,10.44,18v135.06c0,2.71,1.46,5.22,3.82,6.56l102.71,58.39c3.22,1.83,5.21,5.25,5.21,8.95Z" fill="#364c69"/>
        <path d="M450.47,322.32v22.43c-2.98-1.7-3.91-2.22-6.26-3.56l-163.84-93.13c-3.11-1.77-5.02-5.06-5.03-8.64l-.02-218.04,16.53,9.45c5.7,3.26,9.21,9.32,9.21,15.88v179.25c0,2.89,1.55,5.56,4.07,6.99l139.46,79.26c3.63,2.06,5.87,5.92,5.87,10.09Z" fill="#364c69"/>
        <path d="M450.45,373.94v52.86c.17,9.05-4.41,17.54-12.06,22.37l-13.6,7.78v-61.5c.1-13.32-6.71-25.7-18-32.78l-164.75-93.65c-2.58-1.47-4.17-4.2-4.17-7.17V0l15.92,9.09c6.06,3.46,9.8,9.9,9.8,16.88v222.46c0,2.23,1.2,4.29,3.14,5.4l171.43,97.44c7.74,4.93,12.36,13.51,12.27,22.67h.02Z" fill="#364c69"/>
        <path d="M413.04,395.46v56.19c0,7.44-3.98,14.3-10.44,17.99l-15.35,8.78v-61.54c.08-13.3-6.71-25.68-17.98-32.74l-164.52-93.55c-2.73-1.55-4.42-4.46-4.42-7.6V119.45c0-9.3,5.04-17.03,13.12-21.63l6.39-3.64c2.3-1.48,3.37-1.87,6.32-3.53v178.34c0,2.79,1.5,5.36,3.92,6.74l170.7,97.05c7.72,4.93,12.36,13.51,12.25,22.67Z" fill="#364c69"/>
        <path d="M375.48,416.88v57.05c0,6.94-3.72,13.35-9.75,16.79l-15.76,8.99v-61.46c.1-13.3-6.71-25.7-18-32.76l-163.83-93.15c-3.14-1.79-5.08-5.12-5.08-8.74v-162.54c0-9.49,5.09-17.6,13.33-22.31l12.18-6.88v177.94c0,3.16,1.7,6.07,4.44,7.64l170.18,96.77c7.76,4.91,12.4,13.49,12.29,22.66Z" fill="#364c69"/>
        <path d="M338.24,438.24v56.78c0,7.05-3.78,13.56-9.9,17.06l-15.84,9.06v-60.87c-.1-13.41-6.85-25.89-18.01-33.33l-163.92-93.2c-3.08-1.75-4.98-5.01-4.98-8.55v-162.95c0-9.32,5.23-17.65,13.32-22.29l12.4-7.04v177.72c0,3.48,1.87,6.7,4.9,8.42l169.75,96.51c7.74,4.93,12.38,13.51,12.29,22.68Z" fill="#364c69"/>
        <path d="M300.75,460.27v56.16c0,7.05-3.78,13.57-9.9,17.07l-15.82,9.04v-61.44c.1-13.3-6.71-25.7-18-32.78v.02l-162.5-92.4c-3.97-2.26-6.42-6.47-6.42-11.03v-161.76c0-9.04,4.84-17.38,12.69-21.86l13.05-7.46v178.97c0,3.04,1.63,5.85,4.27,7.35l170.16,96.73c7.78,5.23,12.46,14,12.46,23.38Z" fill="#364c69"/>
        <path d="M263.27,481.1v56.82c0,7.01-3.76,13.49-9.84,16.97l-15.53,8.88v-60.7c-.02-13.35-6.96-25.76-18.32-32.76h-.02l-159.15-90.91c-6.1-3.48-9.86-9.97-9.86-16.99v-158.89c0-8.37,4.48-16.1,11.75-20.25l14.07-8.04v177.32c0,4.06,2.18,7.81,5.71,9.82l168.91,96.03c7.74,4.95,12.38,13.53,12.29,22.69Z" fill="#364c69"/>
      </g>
      <g>
        <path d="M12.97,703.81c-4.53-2.28-7.82-5.95-9.88-11.02-2.06-5.07-3.09-11.94-3.09-20.61s1.05-15.67,3.14-20.81c2.09-5.13,5.38-8.85,9.88-11.16,4.5-2.31,10.51-3.47,18.05-3.47,3.8,0,7.33.24,10.59.71,3.26.47,5.97,1.03,8.12,1.66l-.85,13.87c-5.76-1.33-10.96-2-15.58-2s-7.93.7-10.5,2.09c-2.56,1.39-4.4,3.6-5.51,6.6-1.11,3.01-1.66,7.08-1.66,12.21s.55,9.47,1.66,12.45c1.11,2.98,2.94,5.11,5.51,6.41,2.56,1.3,6.13,1.95,10.69,1.95,2.34,0,4.91-.14,7.69-.43,2.79-.28,5.35-.71,7.7-1.28l.76,13.78c-5.13,1.65-11.3,2.47-18.52,2.47-7.6,0-13.67-1.14-18.19-3.42Z" fill="#364c69"/>
        <path d="M103.64,705.62l-12.25-22.13h-14.82v22.04h-14.73v-67.07h28.31c8.93,0,15.53,1.82,19.81,5.46,4.28,3.64,6.41,9.36,6.41,17.15,0,4.88-1.04,8.95-3.13,12.21-2.09,3.26-5,5.75-8.74,7.46l13.87,24.89h-14.73ZM76.57,671.04h13.58c7.16,0,10.73-3.32,10.73-9.97,0-3.36-.87-5.79-2.61-7.32-1.74-1.52-4.45-2.28-8.12-2.28h-13.58v19.57Z" fill="#364c69"/>
        <path d="M171,691.94h-26.6l-4.28,13.58h-14.82l21.66-67.07h21.47l21.66,67.07h-14.73l-4.37-13.58ZM166.53,677.78l-8.83-27.74-8.74,27.74h17.58Z" fill="#364c69"/>
        <path d="M213.37,651.66v18.05h26.12v13.21h-26.12v22.61h-14.73v-67.07h47.5v13.21h-32.77Z" fill="#364c69"/>
        <path d="M307.42,651.66h-20.71v53.87h-14.82v-53.87h-20.9v-13.21h56.53l-.1,13.21Z" fill="#364c69"/>
        <path d="M322.9,701.15c-4.5-4.05-6.75-10.26-6.75-18.62v-44.08h14.73v42.94c0,4.24,1.01,7.4,3.04,9.45,2.03,2.06,5.19,3.09,9.5,3.09s7.46-1.04,9.45-3.13c2-2.09,2.99-5.23,2.99-9.41v-42.94h14.82v44.08c0,8.36-2.25,14.57-6.75,18.62-4.5,4.05-11.34,6.08-20.52,6.08s-16.02-2.03-20.52-6.08Z" fill="#364c69"/>
        <path d="M426.17,705.62l-12.26-22.13h-14.82v22.04h-14.73v-67.07h28.31c8.93,0,15.53,1.82,19.81,5.46,4.27,3.64,6.41,9.36,6.41,17.15,0,4.88-1.04,8.95-3.13,12.21-2.09,3.26-5,5.75-8.74,7.46l13.87,24.89h-14.72ZM399.09,671.04h13.58c7.16,0,10.73-3.32,10.73-9.97,0-3.36-.87-5.79-2.61-7.32-1.74-1.52-4.45-2.28-8.12-2.28h-13.58v19.57Z" fill="#364c69"/>
        <path d="M466.92,651.94v13.4h24.79v13.49h-24.79v13.21h32.77v13.49h-47.5v-67.07h47.5v13.49h-32.77Z" fill="#364c69"/>
        <path d="M524.12,640.94c1.57,1.6,2.36,4.04,2.36,7.31,0,6.51-3.15,9.76-9.45,9.76s-9.44-3.25-9.44-9.76c0-3.27.79-5.71,2.36-7.31s3.94-2.4,7.08-2.4,5.51.8,7.08,2.4ZM522.21,653.85c1.09-1.2,1.64-3.07,1.64-5.6,0-1.78-.24-3.21-.71-4.28-.47-1.07-1.21-1.84-2.2-2.33-1-.49-2.3-.73-3.91-.73s-2.91.25-3.91.73c-1,.49-1.73,1.27-2.2,2.33-.47,1.07-.71,2.49-.71,4.28,0,2.62.54,4.51,1.61,5.67,1.08,1.15,2.81,1.73,5.21,1.73s4.09-.6,5.18-1.8ZM519.84,649.88l2.05,3.62h-2.78l-1.63-3.02h-2.07v3.02h-2.75v-10.55h4.38c1.54,0,2.68.32,3.41.96s1.1,1.61,1.1,2.92c0,1.42-.57,2.43-1.71,3.04ZM515.41,648.38h1.63c.51,0,.89-.13,1.14-.41.25-.27.38-.66.38-1.17s-.12-.85-.37-1.09c-.25-.24-.63-.35-1.15-.35h-1.63v3.02Z" fill="#364c69"/>
      </g>
    </g>
  </g>
</svg>