<svg id="Layer_1" data-name="Layer 1" xmlns="http://www.w3.org/2000/svg" xmlns:xlink="http://www.w3.org/1999/xlink" viewBox="0 0 100 100"><defs><style>.cls-1,.cls-2,.cls-3,.cls-4{fill-rule:evenodd;}.cls-1{fill:url(#New_Gradient_Swatch_2);}.cls-2{fill:url(#New_Gradient_Swatch_3);}.cls-3{fill:url(#New_Gradient_Swatch_3-2);}.cls-4{opacity:0.3;}.cls-5{font-size:15.12px;font-family:ConthraxSb-Regular, Conthrax;}</style><linearGradient id="New_Gradient_Swatch_2" x1="-3.19" y1="38.71" x2="92.75" y2="38.71" gradientUnits="userSpaceOnUse"><stop offset="0.1" stop-color="#644698"/><stop offset="0.4" stop-color="#df3d8f"/><stop offset="0.6" stop-color="#e03135"/><stop offset="0.9" stop-color="#f9c338"/></linearGradient><linearGradient id="New_Gradient_Swatch_3" x1="76.94" y1="71.54" x2="54.49" y2="49.56" gradientUnits="userSpaceOnUse"><stop offset="0" stop-color="#fff"/><stop offset="1" stop-color="#fff" stop-opacity="0"/></linearGradient><linearGradient id="New_Gradient_Swatch_3-2" x1="85.75" y1="59.83" x2="37.82" y2="39.6" xlink:href="#New_Gradient_Swatch_3"/></defs><path class="cls-1" d="M16.27,27.31a2.15,2.15,0,0,0,2.24-2,1.85,1.85,0,0,0-.18-.81c2.09-1.48,4.85-3.21,8-5.11C28.72,18,31.31,16.47,34,15c-.29-3.28,3.9-5.23,6.64-3.17A4.34,4.34,0,0,0,36,10.55L33.19,9.14a4.66,4.66,0,0,0-6.82,4V17.6a98.37,98.37,0,0,0-9,5.88,2.44,2.44,0,0,0-1.12-.27,2.06,2.06,0,1,0,0,4.1Zm0-3.11a1.06,1.06,0,1,1-1.16,1.06A1.11,1.11,0,0,1,16.27,24.2ZM38.09,12.78a2,2,0,0,1,2,1.87,2.06,2.06,0,0,1-4.1,0A2,2,0,0,1,38.09,12.78Zm17.27,7.06a2,2,0,1,1-2.22,2A2.13,2.13,0,0,1,55.36,19.84Zm19.66,9a2.4,2.4,0,1,1-2.39-2.18A2.29,2.29,0,0,1,75,28.82Zm9,13.91L33.19,68.26a4.66,4.66,0,0,1-6.82-4.17c-11.44,3.43-17.82,2.78-9.23-3-5.41,4.08-4.45,5.61,9.23,1.64V58.4c-8.52,4.25-9.76,5.66-5.68,4.94-4.5,1.1-6.76.87,5.68-6.65V55.15C39.13,47.58,58.77,37.57,70,32.26A4.88,4.88,0,0,0,76.6,31L84,34.67A4.48,4.48,0,0,1,84,42.73ZM26.37,32.46v1.16a101.67,101.67,0,0,0-8.76,5.7A2.39,2.39,0,0,0,16.33,39a2.05,2.05,0,1,0,0,4.09,2.16,2.16,0,0,0,2.24-2,1.9,1.9,0,0,0-.11-.63c2.08-1.45,4.79-3.16,7.91-5,7-4.15,16.05-9,24.65-13.47,0-3.28,4-5.11,6.89-3.23a4.65,4.65,0,0,0-6.42-.32L42,13.56a3.28,3.28,0,0,1,.18,1.09,3.9,3.9,0,0,1-4.07,3.71,4.33,4.33,0,0,1-1.91-.44c-3.52,1.94-6.85,3.83-9.81,5.59V25c-12.44,7.52-10.18,7.75-5.68,6.65-4.08.72-2.84-.69,5.68-4.94v4.37C12.85,35,11.75,33.59,17,29.62,8.64,35.25,15,35.86,26.37,32.46Zm-10,9.6A1.06,1.06,0,1,1,17.49,41,1.11,1.11,0,0,1,16.33,42.06Zm10,6.42v.77a97.35,97.35,0,0,0-9,5.93,2.36,2.36,0,0,0-1.06-.24,2.05,2.05,0,1,0,0,4.09A2.16,2.16,0,0,0,18.52,57a1.92,1.92,0,0,0-.21-.86c2.09-1.48,4.86-3.23,8.06-5.13C38.42,43.84,56.6,34.51,68,29,67.86,26,71.33,23.7,74.49,25a4.87,4.87,0,0,0-7,1.43l-7.87-4a4.24,4.24,0,0,1-4.29,3.38,4.66,4.66,0,0,1-2.5-.72c-9.13,4.68-19,10-26.49,14.42v1.53c-12.44,7.53-10.18,7.76-5.68,6.65-4.08.73-2.84-.68,5.68-4.94v4.37C12.85,51.06,11.75,49.61,17,45.64,8.64,51.26,15,51.88,26.37,48.48ZM16.27,58A1.07,1.07,0,1,1,17.44,57,1.11,1.11,0,0,1,16.27,58Z"/><path class="cls-2" d="M82.85,40.85,32.05,66.38a2.32,2.32,0,0,1-3.33-2.15V53.77C41.45,46.4,59.44,37.25,70,32.26a5,5,0,0,0,4.85.26l8,4A2.43,2.43,0,0,1,82.85,40.85Zm-30-15.75c-8.2,4.21-17,8.9-24.14,13V49.61c11.94-6.92,28.52-15.4,39.22-20.55l-9.26-4.65A4.64,4.64,0,0,1,52.86,25.1ZM36.18,17.92c-2.61,1.44-5.12,2.85-7.46,4.2V34c6.61-3.83,14.63-8.14,22.3-12.09a3.78,3.78,0,0,1,.2-1.23L41.89,16A4.22,4.22,0,0,1,36.18,17.92ZM32.05,11a2.32,2.32,0,0,0-3.33,2.15V18c1.69-1,3.47-2,5.31-3a3.45,3.45,0,0,1,.8-2.53Z"/><path class="cls-3" d="M28.72,53.77c3.36-2,7.09-4,11-6.1a72.54,72.54,0,0,1-11,14.23Zm6.11-41.35L32.05,11a2.32,2.32,0,0,0-3.33,2.15V18c1.69-1,3.47-2,5.31-3A3.45,3.45,0,0,1,34.83,12.42ZM28.72,49.61c4.24-2.45,9.07-5.11,14-7.74a67.06,67.06,0,0,0,4.74-14c-6.54,3.42-13.15,7-18.74,10.24Zm7.46-31.69c-2.61,1.44-5.12,2.85-7.46,4.2V34C34.55,30.6,41.49,26.85,48.3,23.3c.19-1.29.34-2.58.46-3.88L41.89,16A4.22,4.22,0,0,1,36.18,17.92Z"/><path class="cls-4" d="M29.63,39.27c7.68-4.35,15.46-8.6,23.33-12.65a4.77,4.77,0,0,0,6.59-2.51c.1,3.19-3.61,5.32-6.72,3.86C46.56,31,38.21,35.15,29.63,39.27ZM42,16.68a4.41,4.41,0,0,1-5.69,2.41c-2.79,1.54-5.57,3.08-8.33,4.65,2.74-1.32,5.5-2.49,8.14-3.78A4.45,4.45,0,0,0,42,16.68Zm28.19,17c-13.82,6.62-28,13.88-41.09,21.58,12.47-7,30.43-15,41.33-20.08,3,1.16,6.47-.92,6.38-4A4.77,4.77,0,0,1,70.23,33.73Z"/><text class="cls-5" transform="translate(0.2 86.61)">CREATIVE</text></svg>