<svg width="1416" height="500" viewBox="0 0 1416 500" fill="none" xmlns="http://www.w3.org/2000/svg">
<path d="M177.4 185.7C176.6 185.7 176 186.3 176 187.1V276.6C176 277.4 176.6 278 177.4 278H294.6V304.7H177.4C161.8 304.7 149.3 292.1 149.3 276.6V187.1C149.3 171.5 161.9 159 177.4 159H294.6V185.7H177.4Z" fill="#1A2539"/>
<path d="M404.3 351.4H332.4V324.7H404.3C404.9 324.7 405.5 324.3 405.5 323.5V304.9H340.7C325.3 304.9 312.8 292.3 312.8 277V187.9H339.3V277C339.3 277.8 339.9 278.4 340.7 278.4H404.3C404.9 278.4 405.5 277.8 405.5 277V187.9H432V323.6C432.1 338.8 419.7 351.4 404.3 351.4Z" fill="#1A2539"/>
<path d="M573.2 215.3V276.9C573.2 292.3 560.6 304.8 545.3 304.8H454V148.9H480.5V187.4H545.3C560.7 187.4 573.2 199.9 573.2 215.3ZM546.7 215.3C546.7 214.5 546.1 213.9 545.3 213.9H481.9C481.1 213.9 480.5 214.5 480.5 215.3V276.9C480.5 277.7 481.1 278.3 481.9 278.3H545.3C546.1 278.3 546.7 277.7 546.7 276.9V215.3Z" fill="#1A2539"/>
<path d="M707.6 215.301V259.401H614.9V276.801C614.9 277.601 615.5 278.201 616.3 278.201H707.6V304.701H616.3C600.9 304.701 588.4 292.101 588.4 276.801V215.201C588.4 199.801 601 187.301 616.3 187.301H679.7C695.1 187.401 707.6 199.901 707.6 215.301ZM681.1 232.701V215.301C681.1 214.501 680.5 213.901 679.7 213.901H616.3C615.5 213.901 614.9 214.501 614.9 215.301V232.701H681.1Z" fill="#1A2539"/>
<path d="M816.8 187.4V213.9H751.6C750.8 213.9 750.2 214.5 750.2 215.3V304.8H723.7V215.3C723.7 199.9 736.3 187.4 751.6 187.4H816.8Z" fill="#1A2539"/>
<path d="M949.6 215.301V259.401H856.9V276.801C856.9 277.601 857.5 278.201 858.3 278.201H949.6V304.701H858.3C842.9 304.701 830.4 292.101 830.4 276.801V215.201C830.4 199.801 843 187.301 858.3 187.301H921.7C937 187.401 949.6 199.901 949.6 215.301ZM923.1 232.701V215.301C923.1 214.501 922.5 213.901 921.7 213.901H858.3C857.5 213.901 856.9 214.501 856.9 215.301V232.701H923.1Z" fill="#1A2539"/>
<path d="M997.4 213.9V276.9C997.4 277.7 998 278.3 998.8 278.3H1043.1V304.8H998.8C983.2 304.8 970.9 292.2 970.9 276.9V148.9H997.4V187.4H1043.2V213.9H997.4Z" fill="#1A2539"/>
<path d="M1085.9 213.9V276.9C1085.9 277.7 1086.5 278.3 1087.3 278.3H1131.6V304.8H1087.3C1071.7 304.8 1059.4 292.2 1059.4 276.9V148.9H1085.9V187.4H1131.7V213.9H1085.9Z" fill="#1A2539"/>
<path d="M1266.7 215.301V259.401H1174V276.801C1174 277.601 1174.6 278.201 1175.4 278.201H1266.7V304.701H1175.4C1160 304.701 1147.5 292.101 1147.5 276.801V215.201C1147.5 199.801 1160.1 187.301 1175.4 187.301H1238.8C1254.1 187.401 1266.7 199.901 1266.7 215.301ZM1240.1 232.701V215.301C1240.1 214.501 1239.5 213.901 1238.7 213.901H1175.3C1174.5 213.901 1173.9 214.501 1173.9 215.301V232.701H1240.1Z" fill="#1A2539"/>
</svg>
