<svg width="450" height="132" viewBox="0 0 450 132" fill="none" xmlns="http://www.w3.org/2000/svg">
<path d="M440.759 0.688232H160.371C155.755 0.688232 152.013 4.43013 152.013 9.046V48.0862C152.013 52.7021 155.755 56.444 160.371 56.444H440.759C445.375 56.444 449.117 52.7021 449.117 48.0862V9.046C449.117 4.43013 445.375 0.688232 440.759 0.688232Z" fill="#0B9A33"/>
<path d="M34.9974 19.2907C33.7332 16.7771 31.7324 14.8433 28.9951 13.4895C26.2578 12.1376 22.7299 11.4607 18.4114 11.4607H5.77466V45.798H20.0429C21.6223 45.798 23.211 45.6246 24.8071 45.2778C26.4032 44.9309 27.9304 44.351 29.3885 43.5342C30.8448 42.7194 32.1352 41.6434 33.2577 40.3082C34.3802 38.9731 35.2659 37.3172 35.9167 35.3406C36.5656 33.3639 36.89 31.0218 36.89 28.3161C36.89 24.8141 36.2579 21.8044 34.9937 19.2889L34.9974 19.2907ZM27.1267 34.4567C26.5114 35.9839 25.5902 37.1289 24.3633 37.8897C23.1345 38.6524 21.6074 39.0346 19.7819 39.0346H14.2532V18.2241H18.7284C20.3077 18.2241 21.6857 18.433 22.8623 18.8488C24.037 19.2646 25.0029 19.8986 25.7581 20.7471C26.5132 21.5974 27.082 22.6808 27.4698 23.9992C27.8558 25.3176 28.0497 26.8952 28.0497 28.7338C28.0497 31.0237 27.7421 32.9313 27.1286 34.4567H27.1267Z" fill="black"/>
<path d="M66.745 45.7998H76.0123L64.2184 11.4624H51.7924L39.9985 45.7998H49.2658L51.1976 39.3477H64.8151L66.7469 45.7998H66.745ZM52.8795 33.7293L57.584 18.017H58.4268L63.1313 33.7293H52.8795Z" fill="black"/>
<path d="M106.443 11.4624H96.2286H87.6997H77.5896V18.4328H87.6997V45.7998H96.2286V18.4328H106.443V11.4624Z" fill="black"/>
<path d="M134.717 45.7998H143.984L132.19 11.4624H119.764L107.97 45.7998H117.238L119.169 39.3477H132.787L134.719 45.7998H134.717ZM120.851 33.7293L125.556 18.017H126.399L131.103 33.7293H120.851Z" fill="black"/>
<path d="M189.631 11.4624H179.418H170.887H160.779V18.4328H170.887V45.7998H179.418V18.4328H189.631V11.4624Z" fill="white"/>
<path d="M223.222 38.9841C222.765 37.4233 222.24 36.0882 221.643 34.9787C221.046 33.8691 220.194 32.9759 219.088 32.299C217.983 31.6221 216.429 31.1802 214.429 30.9732V30.1919C216.008 29.983 217.395 29.6548 218.589 29.2036C219.782 28.7523 220.774 28.163 221.563 27.4339C222.353 26.7048 222.941 25.8563 223.327 24.8848C223.713 23.9133 223.907 22.8224 223.907 21.6066C223.907 20.3237 223.696 19.1526 223.274 18.0953C222.853 17.038 222.221 16.1019 221.378 15.2851C220.535 14.4702 219.51 13.7765 218.298 13.2041C217.088 12.6316 215.691 12.199 214.112 11.9043C212.532 11.6097 210.776 11.4624 208.846 11.4624H194.05V45.7998H202.526V34.2495H207.738C209.002 34.2495 210.054 34.3969 210.897 34.6915C211.74 34.9861 212.431 35.5157 212.976 36.2784C213.52 37.0411 213.949 38.117 214.266 39.5044L215.793 45.7998H225.217L223.217 38.9841H223.222ZM213.271 26.8092C212.077 27.6409 210.408 28.0586 208.268 28.0586H202.528V17.81H208.478C210.69 17.81 212.34 18.2258 213.427 19.0594C214.514 19.891 215.059 21.1758 215.059 22.91C215.059 24.6443 214.462 25.9794 213.269 26.8111L213.271 26.8092Z" fill="white"/>
<path d="M254.129 45.7998H263.396L251.602 11.4624H239.176L227.382 45.7998H236.65L238.581 39.3477H252.199L254.131 45.7998H254.129ZM240.263 33.7293L244.968 18.017H245.811L250.515 33.7293H240.263Z" fill="white"/>
<path d="M293.775 11.4624L294.301 34.5087H293.67L278.77 11.4624H267.765V45.7998H276.031L275.557 21.45H276.137L292.091 45.7998H302.041V11.4624H293.775Z" fill="white"/>
<path d="M337.186 31.1022C336.324 29.8006 335.192 28.7694 333.79 28.0067C332.386 27.2441 330.876 26.6287 329.263 26.1607C327.648 25.6926 326.085 25.3029 324.577 24.9896C323.067 24.6428 321.689 24.2866 320.443 23.923C319.197 23.5593 318.213 23.1081 317.495 22.571C316.775 22.034 316.415 21.3478 316.415 20.5161C316.415 19.8578 316.643 19.276 317.1 18.7725C317.555 18.2709 318.248 17.8625 319.179 17.5493C320.109 17.2379 321.241 17.0812 322.574 17.0812C323.697 17.0812 324.698 17.2118 325.574 17.471C326.451 17.7302 327.189 18.1124 327.786 18.6159C328.383 19.1194 328.847 19.7515 329.181 20.5142C329.515 21.2769 329.68 22.1626 329.68 23.1677L337.262 21.0345C337.158 18.9889 336.526 17.1931 335.366 15.6491C334.208 14.107 332.558 12.9005 330.417 12.0334C328.276 11.1663 325.679 10.7336 322.625 10.7336C319.57 10.7336 316.937 11.1756 314.832 12.0595C312.727 12.9434 311.129 14.1666 310.04 15.7274C308.951 17.2882 308.409 19.1268 308.409 21.2415C308.409 23.1137 308.804 24.667 309.593 25.8977C310.383 27.1285 311.461 28.1354 312.832 28.9149C314.2 29.6943 315.727 30.3283 317.413 30.8132C319.099 31.2999 320.818 31.7493 322.572 32.1651C324.116 32.512 325.468 32.8681 326.626 33.2317C327.784 33.5954 328.698 34.0299 329.363 34.5333C330.029 35.0368 330.365 35.669 330.365 36.4316C330.365 37.0918 330.109 37.7053 329.602 38.2777C329.093 38.8502 328.338 39.3183 327.338 39.6819C326.339 40.0455 325.101 40.2283 323.626 40.2283C322.151 40.2283 320.685 39.9933 319.44 39.5253C318.194 39.0572 317.202 38.3374 316.466 37.3659C315.729 36.3944 315.308 35.1804 315.201 33.724L307.778 36.1687C307.918 37.9029 308.375 39.4302 309.147 40.7467C309.919 42.065 310.972 43.1484 312.306 43.9988C313.639 44.8491 315.218 45.4812 317.044 45.8971C318.869 46.3129 320.905 46.5218 323.15 46.5218C326.52 46.5218 329.345 46.0873 331.627 45.2202C333.908 44.3531 335.619 43.1317 336.761 41.5522C337.9 39.9747 338.472 38.1267 338.472 36.0121C338.472 34.0355 338.042 32.3963 337.182 31.0948L337.186 31.1022Z" fill="white"/>
<path d="M370.434 18.5894V11.4624H352.481H348.163H344.003V45.7998H352.481V33.5726H368.54V26.757H352.481V18.5894H370.434Z" fill="white"/>
<path d="M384.177 39.0363V31.5438H400.552V25.4573H384.177V18.1736H403.079V11.4624H384.177H381.807H375.648V45.7998H381.807H384.177H403.237V39.0363H384.177Z" fill="white"/>
<path d="M408.922 45.7998V11.4624H423.718C425.648 11.4624 427.405 11.6097 428.984 11.9043C430.563 12.199 431.958 12.6335 433.17 13.2041C434.38 13.7765 435.408 14.4702 436.251 15.2851C437.093 16.1 437.726 17.0361 438.147 18.0953C438.568 19.1545 438.779 20.3237 438.779 21.6066C438.779 22.8205 438.585 23.9133 438.199 24.8848C437.813 25.8563 437.226 26.7067 436.435 27.4339C435.645 28.163 434.653 28.7523 433.461 29.2036C432.268 29.6548 430.88 29.983 429.301 30.1919V30.9732C431.302 31.182 432.855 31.624 433.961 32.299C435.067 32.9741 435.917 33.8691 436.515 34.9787C437.112 36.09 437.638 37.4233 438.095 38.9841L440.096 45.7998H430.672L429.144 39.5044C428.829 38.117 428.399 37.0411 427.854 36.2784C427.31 35.5157 426.616 34.9861 425.775 34.6915C424.932 34.3969 423.879 34.2495 422.616 34.2495H417.405V45.7998H408.928H408.922ZM417.399 28.0586H423.138C425.279 28.0586 426.946 27.6428 428.141 26.8092C429.335 25.9776 429.931 24.676 429.931 22.9082C429.931 21.1404 429.387 19.891 428.3 19.0575C427.211 18.2258 425.562 17.8081 423.351 17.8081H417.401V28.0567L417.399 28.0586Z" fill="white"/>
<path d="M98.4216 66.9912H89.7864V101.329H98.4216V66.9912Z" fill="black"/>
<path d="M131.75 66.9912L132.276 90.0394H131.644L116.744 66.9912H105.74V101.33H114.006L113.533 76.9806H114.111L130.065 101.33H140.016V66.9912H131.75Z" fill="black"/>
<path d="M155.97 66.9912H147.335V101.329H155.97V66.9912Z" fill="black"/>
<path d="M189.349 66.9912H179.134H170.606H160.497V73.9635H170.606V101.33H179.134V73.9635H189.349V66.9912Z" fill="black"/>
<path d="M202.407 66.9912H193.772V101.329H202.407V66.9912Z" fill="black"/>
<path d="M231.048 66.9912H218.622L206.828 101.329H216.096L218.027 94.8766H231.645L233.577 101.329H242.844L231.05 66.9912H231.048ZM219.709 89.2581L224.414 73.5458H225.257L229.961 89.2581H219.709Z" fill="black"/>
<path d="M273.275 66.9912H263.061H254.532H244.422V73.9635H254.532V101.33H263.061V73.9635H273.275V66.9912Z" fill="black"/>
<path d="M286.333 66.9912H277.698V101.329H286.333V66.9912Z" fill="black"/>
<path d="M316.028 66.9912L308.394 94.3059H307.655L300.021 66.9912H290.754L302.074 101.33H313.868L325.189 66.9912H316.028Z" fill="black"/>
<path d="M338.088 94.5651V87.0745H354.464V80.988H338.088V73.7043H356.99V66.9912H338.088H335.718H329.559V101.33H335.718H338.088H357.149V94.5651H338.088Z" fill="black"/>
<path d="M282.05 125.5H30.2931C17.483 125.5 7.06152 115.158 7.06152 102.448V67.6967C7.06152 65.6268 8.73971 63.9504 10.8076 63.9504C12.8755 63.9504 14.5537 65.6287 14.5537 67.6967V102.448C14.5537 111.028 21.6132 118.006 30.2913 118.006H282.048C284.118 118.006 285.794 119.684 285.794 121.752C285.794 123.82 284.116 125.498 282.048 125.498L282.05 125.5Z" fill="black"/>
<path d="M16.2136 73.1004C19.1985 70.1154 19.1985 65.2757 16.2136 62.2907C13.2288 59.3057 8.3894 59.3057 5.40455 62.2907C2.4197 65.2757 2.4197 70.1154 5.40455 73.1004C8.38939 76.0854 13.2288 76.0854 16.2136 73.1004Z" fill="#0B9A33"/>
<path d="M10.8278 77.2086C10.1267 77.2086 9.41999 77.1303 8.71702 76.9718C3.60229 75.8175 0.380185 70.7193 1.5344 65.6043C2.09379 63.126 3.58365 61.0152 5.72985 59.6576C7.87606 58.3001 10.4232 57.8619 12.9013 58.4194C15.3794 58.9789 17.4902 60.4688 18.8476 62.6151C20.2051 64.7614 20.6433 67.3087 20.0858 69.7869C19.5264 72.2651 18.0365 74.376 15.8903 75.7336C14.352 76.707 12.6067 77.2067 10.8297 77.2067L10.8278 77.2086ZM10.798 61.9158C9.71833 61.9158 8.65735 62.2198 7.7213 62.8109C6.41604 63.6351 5.51169 64.9199 5.17046 66.4248C4.46935 69.5333 6.42723 72.6325 9.53746 73.3336C11.0422 73.673 12.5899 73.4064 13.8951 72.5822C15.2004 71.7579 16.1047 70.475 16.4441 68.9683C16.7835 67.4616 16.5168 65.9138 15.6927 64.6104C14.8685 63.3051 13.5856 62.4007 12.079 62.0594C11.652 61.9624 11.2231 61.9158 10.7961 61.9158H10.798Z" fill="black"/>
<path d="M287.454 127.157C290.438 124.172 290.438 119.333 287.454 116.348C284.469 113.363 279.629 113.363 276.645 116.348C273.66 119.333 273.66 124.172 276.645 127.157C279.629 130.142 284.469 130.142 287.454 127.157Z" fill="#0B9A33"/>
<path d="M282.069 131.265C281.368 131.265 280.659 131.187 279.958 131.029C277.48 130.469 275.369 128.979 274.012 126.833C272.654 124.687 272.216 122.139 272.773 119.661C273.333 117.183 274.823 115.072 276.969 113.715C279.115 112.357 281.662 111.919 284.14 112.476C286.618 113.036 288.729 114.526 290.087 116.672C291.444 118.818 291.882 121.366 291.325 123.844C290.767 126.322 289.276 128.433 287.129 129.79C285.591 130.764 283.846 131.264 282.069 131.264V131.265ZM282.039 115.973C280.959 115.973 279.898 116.277 278.962 116.868C277.657 117.692 276.753 118.977 276.411 120.482C276.072 121.987 276.339 123.536 277.163 124.84C277.987 126.143 279.272 127.049 280.776 127.391C282.281 127.73 283.831 127.463 285.134 126.639C286.439 125.815 287.344 124.532 287.683 123.025C288.022 121.518 287.756 119.971 286.932 118.667C286.108 117.362 284.825 116.458 283.318 116.116C282.891 116.019 282.462 115.973 282.035 115.973H282.039Z" fill="black"/>
</svg>
