<?xml version="1.0" encoding="UTF-8"?><svg id="Layer_1" xmlns="http://www.w3.org/2000/svg" xmlns:xlink="http://www.w3.org/1999/xlink" viewBox="0 0 1558 512"><defs><style>.cls-1{fill:url(#linear-gradient);}.cls-2{fill:#fa0;}.cls-3{fill:#bf6517;}.cls-4{fill:#40172f;}.cls-5{fill:url(#linear-gradient-2);}</style><linearGradient id="linear-gradient" x1="382.541" y1="213.855" x2="482.258" y2="271.426" gradientUnits="userSpaceOnUse"><stop offset="0" stop-color="#bf6517"/><stop offset=".418" stop-color="#bc6317"/><stop offset=".669" stop-color="#b45d19"/><stop offset=".876" stop-color="#a5531c"/><stop offset="1" stop-color="#994b1f"/></linearGradient><linearGradient id="linear-gradient-2" x1="445.422" y1="248.936" x2="482.787" y2="270.509" gradientUnits="userSpaceOnUse"><stop offset="0" stop-color="#fa0"/><stop offset=".418" stop-color="#fca700"/><stop offset=".669" stop-color="#f4a000"/><stop offset=".876" stop-color="#e59400"/><stop offset="1" stop-color="#d98a00"/></linearGradient></defs><circle class="cls-3" cx="256.736" cy="255.661" r="85.376"/><circle class="cls-2" cx="615.511" cy="255.661" r="85.376"/><path class="cls-4" d="m825.885,177.841v57.529h-.434c-6.181-10.665-18.307-16.846-31.737-16.846-27.471,0-44.949,22.376-44.949,56.877s17.676,56.68,45.166,56.68c13.627,0,25.772-6.399,32.171-17.478h.415v14.911h23.659v-151.673h-24.291Zm-24.923,135.479c-16.411,0-26.839-14.911-26.839-37.918s10.428-37.918,26.839-37.918c15.76,0,26.207,14.279,26.207,37.918,0,23.442-10.447,37.918-26.207,37.918Z"/><path class="cls-4" d="m922.655,218.742c-12.146,0-23.442,4.898-31.105,15.345h-.434v-56.245h-24.272v151.673h24.272v-60.077c0-20.658,10.862-31.085,24.726-31.085,13.627,0,21.941,7.663,21.941,27.056v64.105h24.272v-66.238c0-29.624-14.91-44.534-39.399-44.534Z"/><rect class="cls-4" x="978.089" y="221.304" width="24.285" height="108.217"/><path class="cls-4" d="m1159.743,221.309l-20.658,43.448c-7.663,15.76-14.91,32.171-21.309,47.931h-.415c.632-15.76.849-31.302.632-47.082l.217-44.297h-34.087l-21.941,44.297c-7.663,15.779-14.911,31.322-21.724,47.082h-.415c.632-15.76,1.047-32.171,1.481-47.931l1.067-43.448h-23.225l-.415,108.205h34.719l22.159-44.732c7.662-15.345,14.91-30.888,21.724-46.647h.415c-.415,15.76-.632,31.302-.632,46.647l-.217,44.732h34.739l53.244-108.205h-25.358Z"/><path class="cls-4" d="m1275.236,300.977v-40.486c0-28.32-15.977-42.382-44.534-42.382-29.169,0-44.08,16.194-45.146,36.635h23.857c.632-11.494,7.88-18.959,21.29-18.959,12.363,0,21.092,6.399,21.092,22.376v4.266c-7.663.415-20.44,1.698-29.169,3.18-31.105,4.898-41.552,16.411-41.552,34.087,0,18.544,14.061,32.171,36.635,32.171,16.411,0,28.557-5.964,36.437-17.478h.415c0,5.115.434,10.447,1.501,15.128h21.941c-1.699-6.813-2.765-15.76-2.765-28.537Zm-23.442-17.478c0,11.514-1.699,17.261-7.445,23.225-4.898,4.898-12.146,7.248-19.611,7.248-12.343,0-19.157-6.399-19.157-15.977,0-9.795,5.747-14.496,21.29-17.044,7.248-1.283,17.695-2.35,24.924-2.765v5.312Z"/><path class="cls-4" d="m1361.499,221.309l-27.905,80.517h-.435l-27.056-80.517h-25.97l39.617,109.054c-5.115,14.93-10.862,19.828-24.074,19.828-3.831,0-7.465-.652-10.23-1.501v19.808c3.2.849,7.465,1.501,12.146,1.501,25.141,0,37.069-8.314,47.299-35.785l41.749-112.905h-25.141Z"/><circle class="cls-4" cx="990.131" cy="192.866" r="14.919"/><path class="cls-1" d="m439.339,339.162c11.712-8.453,43.171-70.619,43.222-70.721,28.825-60.92,28.245-72.296,28.436-75.382l-.041-.683c-.257-1.975-2.37-7.88-17.221-15.029-.079-.04-.178-.079-.257-.119-15.621-6.833-43.487-13.489-76.389,3.456-48.958,25.22-59.701,89.463-27.293,130.838,0,0,11.474,17.34,35.371,26.938.02,0,.02.019.04.019,8.729,3.219,12.778,1.481,13.824.889.178-.119.309-.206.309-.206Z"/><path class="cls-5" d="m482.561,268.44c-.052.102-31.511,62.268-43.222,70.721,0,0,6.795-18.218,4.822-39.143-1.973-20.925-5.473-37.675,3.442-54.442,0,0,4.176-10.184,14.312-17.978,0,0,3.981-3.126,9.567-5.996,5.587-2.87,16.044-7.956,19.8-10.435,3.756-2.479,7.654-5.078,10.822-8.156,3.168-3.078,7.056-7.323,8.893-9.954-.191,3.086.389,14.463-28.436,75.382Z"/></svg>