<?xml version="1.0" encoding="UTF-8" standalone="no"?>
<!-- Created with Inkscape (http://www.inkscape.org/) -->

<svg
   width="134.90213mm"
   height="21.250565mm"
   viewBox="0 0 134.90213 21.250565"
   version="1.1"
   id="svg5"
   xml:space="preserve"
   sodipodi:docname="DictaLabs Logo Master Asset.svg"
   inkscape:version="1.2 (dc2aedaf03, 2022-05-15)"
   xmlns:inkscape="http://www.inkscape.org/namespaces/inkscape"
   xmlns:sodipodi="http://sodipodi.sourceforge.net/DTD/sodipodi-0.dtd"
   xmlns="http://www.w3.org/2000/svg"
   xmlns:svg="http://www.w3.org/2000/svg"><sodipodi:namedview
     id="namedview7"
     pagecolor="#ffffff"
     bordercolor="#000000"
     borderopacity="0.25"
     inkscape:showpageshadow="2"
     inkscape:pageopacity="0.0"
     inkscape:pagecheckerboard="0"
     inkscape:deskcolor="#d1d1d1"
     inkscape:document-units="mm"
     showgrid="false"
     inkscape:zoom="1"
     inkscape:cx="54.5"
     inkscape:cy="739"
     inkscape:window-width="1920"
     inkscape:window-height="1057"
     inkscape:window-x="-8"
     inkscape:window-y="-8"
     inkscape:window-maximized="1"
     inkscape:current-layer="g10743" /><defs
     id="defs2" /><g
     inkscape:groupmode="layer"
     id="layer6"
     inkscape:label="T-S-T"
     transform="translate(-35.665997,-68.399061)"><g
       id="g7013"
       transform="translate(1.0583333,40.745833)"
       inkscape:label="v2"
       inkscape:export-filename="DLv2.png"
       inkscape:export-xdpi="96"
       inkscape:export-ydpi="96"><rect
         style="display:inline;fill:#2f9dd7;fill-opacity:1;stroke-width:0.24001"
         id="rect6961"
         width="27.092361"
         height="21.25057"
         x="34.607662"
         y="27.653227"
         ry="2.8492765"
         inkscape:label="rect1976" /><path
         fill="#f5fafd"
         opacity="1"
         stroke="none"
         d="m 50.720319,33.688457 c 2e-5,-0.669505 2e-5,-1.206438 2e-5,-1.842432 h 2.343034 v 10.641668 c 2.696267,0.01091 2.722209,0.0037 4.995864,0.02192 0,0 0.02808,0.02297 0.02691,1.958104 h -7.365846 c 0,-3.524022 0,-7.085355 2.1e-5,-10.779262 z"
         id="path6963"
         style="stroke-width:0.271302"
         sodipodi:nodetypes="ccccscccc" /><g
         id="g6969"
         inkscape:label="D"
         transform="matrix(0.95426665,0,0,0.95426665,-27.543773,5.0561417)"
         style="fill:#323232;fill-opacity:1"><path
           id="path6965"
           style="display:inline;fill:#f5fafd;fill-opacity:1;stroke-width:0.277445"
           d="m 74.845693,28.129667 -6.364065,0.0222 -0.0222,12.972359 6.608836,0.0222 c 0,0 4.984589,-0.287717 5.073597,-6.619125 0.089,-6.331407 -5.296166,-6.39764 -5.296166,-6.39764 z m -0.223652,2.071354 c 0,0 3.206882,0.04574 3.153872,4.392352 -0.05301,4.346612 -3.021197,4.543981 -3.021197,4.543981 l -3.935843,-0.01516 0.01354,-8.906007 z" /></g><path
         style="fill:#323232;fill-opacity:1;stroke-width:0.264583"
         d="m 168.89429,30.553919 v -1.870887 c 0,0 -2.25675,-1.017294 -4.49013,-0.736661 -2.23336,0.280633 -4.87599,0.128622 -5.3671,3.835315 -0.15767,2.306531 1.47332,3.753467 2.6894,3.811932 1.26285,-0.01169 4.01846,-0.02371 4.01846,-0.02371 1.0056,0.09354 2.11244,2.559326 0.0331,3.489193 -3.00436,0.553454 -6.21771,-0.611849 -6.21771,-0.611849 V 40.6466 c 0,0 2.64584,0.810287 4.56407,0.727605 1.91823,-0.08268 5.15937,-0.578776 5.37435,-3.902604 0.21497,-3.323829 -2.76159,-4.067969 -3.70417,-4.067969 -0.94258,0 -3.15846,-0.0083 -3.15846,-0.0083 0,0 3.00078,0.260056 -0.009,-5e-5 -1.89427,-0.163703 -1.47637,-3.302682 1.07576,-3.402676 0.72779,0 2.0229,-0.157859 5.19171,0.561268 z"
         id="path6971"
         sodipodi:nodetypes="ccsccccccssscsccc"
         inkscape:label="S" /><g
         id="g6977"
         inkscape:label="B"><rect
           style="fill:#323232;fill-opacity:1;stroke-width:0.244701"
           id="rect6973"
           width="2.4308231"
           height="13.292189"
           x="147.50899"
           y="28.021441"
           ry="0"
           inkscape:label="B" /><path
           style="fill:#323232;fill-opacity:1;stroke-width:0.264583"
           d="m 149.91436,28.021028 h 4.14549 c 0,0 3.42511,-0.04961 3.43338,2.910417 0.008,2.960026 -2.37334,3.27655 -2.37334,3.27655 v 0.05262 c 0,0 2.71035,0.720449 2.50231,3.133736 -0.1754,2.034589 -0.5795,3.467698 -3.46457,3.798231 -1.14641,0.172466 -4.57917,0.117237 -4.57917,0.117237 l 0.0103,-2.052222 h 4.4235 c 0,0 1.28985,-0.148829 1.13275,-1.86862 -0.1571,-1.719792 -1.21543,-1.976107 -1.21543,-1.976107 l -1.88516,0.0083 v -1.860352 c 0,0 2.90215,0.07442 3.02618,-2.116666 0.0413,-1.612305 -1.4056,-1.364258 -1.4056,-1.364258 h -3.8778 l 0.008,-2.056723 z"
           id="path6975"
           sodipodi:nodetypes="cccccsccccscccccccc" /></g><path
         style="fill:#323232;fill-opacity:1;stroke-width:0.264583"
         d="m 107.69934,41.187962 h 2.53683 l 4.28791,-10.805853 2.13502,5.176283 -2.70011,-0.01349 -0.76337,1.929785 4.18708,-0.02836 1.56996,3.741717 2.56957,-0.0073 -5.67899,-13.18326 -2.49449,-0.0058 z"
         id="path6979"
         sodipodi:nodetypes="cccccccccccc"
         inkscape:label="A" /><g
         id="g6985"
         inkscape:label="L"><rect
           style="fill:#323232;fill-opacity:1;stroke-width:0.257323"
           id="rect6981"
           width="2.6880701"
           height="13.292189"
           x="123.09727"
           y="28.014893"
           ry="0"
           inkscape:label="i" /><rect
           style="fill:#323232;fill-opacity:1;stroke-width:0.178049"
           id="rect6983"
           width="2.2141147"
           height="7.7261496"
           x="38.854164"
           y="-130.87636"
           ry="0"
           inkscape:label="i"
           transform="matrix(-9.5153747e-4,0.99999955,-0.99999817,-0.0019108,0,0)" /></g><path
         style="fill:#323232;fill-opacity:1;stroke-width:0.264583"
         d="m 132.10715,41.254108 h 2.53683 l 4.28791,-10.805853 2.13502,5.176283 -2.70011,-0.01349 -0.76337,1.929785 4.18708,-0.02836 1.56996,3.741717 2.56957,-0.0073 -5.67899,-13.18326 -2.49449,-0.0058 z"
         id="path6987"
         sodipodi:nodetypes="cccccccccccc"
         inkscape:label="A" /><g
         id="g6993"
         inkscape:label="T"><rect
           style="fill:#323232;fill-opacity:1;stroke-width:0.257323"
           id="rect6989"
           width="2.6880701"
           height="13.292189"
           x="102.43952"
           y="28.104692"
           ry="0" /><rect
           style="fill:#323232;fill-opacity:1;stroke-width:0.279863"
           id="rect6991"
           width="10.157507"
           height="2.2264922"
           x="98.742577"
           y="27.988592" /></g><g
         id="g6999"
         inkscape:label="C"><path
           style="fill:#323232;fill-opacity:1;stroke-width:0.264583"
           d="m 98.011074,30.63577 -0.04677,-1.987817 c 0,0 -3.250666,-1.426551 -6.781964,-0.350792 -3.531299,1.075758 -3.975635,3.975634 -3.975635,3.975634 0,0 -0.152011,1.028988 -0.11693,1.660411 0.03508,0.631426 2.338607,0.05846 2.338607,0.05846 0,0 -0.187089,-3.30913 3.063576,-3.882088 3.250666,-0.572961 5.016315,0.280633 5.519116,0.526187 z"
           id="path6995" /><path
           style="fill:#323232;fill-opacity:1;stroke-width:0.264583"
           d="m 97.944928,38.501187 -0.0468,1.987817 c 0,0 -3.250666,1.426551 -6.781964,0.350792 -3.531299,-1.075758 -3.975635,-3.975634 -3.975635,-3.975634 0,0 -0.08586,-2.401514 -0.05078,-3.032937 0.03508,-0.631426 2.334767,0.149664 2.334767,0.149664 0,0 -0.07194,1.3349 -0.04883,1.605194 0.07872,0.920494 0.537297,2.998392 3.050101,3.441296 3.250666,0.572958 5.016315,-0.280633 5.519116,-0.526187 z"
           id="path6997"
           sodipodi:nodetypes="ccscscsssc" /></g><rect
         style="fill:#323232;fill-opacity:1;stroke-width:0.257323"
         id="rect7001"
         width="2.6880701"
         height="13.292189"
         x="82.144875"
         y="28.044827"
         ry="0"
         inkscape:label="I" /><g
         id="g7007"
         inkscape:label="D"><path
           id="path7003"
           style="display:inline;fill:#323232;fill-opacity:1;stroke-width:0.277445"
           d="m 74.845561,28.129549 -6.363953,0.02222 -0.02222,12.972852 6.608899,0.0217 c 0,0 4.984584,-0.287826 5.073592,-6.619234 0.089,-6.331407 -5.296317,-6.397543 -5.296317,-6.397543 z m -0.223242,2.071709 c 0,0 3.206822,0.04537 3.153812,4.39198 -0.05301,4.346611 -3.021521,4.544425 -3.021521,4.544425 l -3.935677,-0.0155 0.01344,-8.905916 z" /></g><text
         xml:space="preserve"
         style="font-size:4.01602px;letter-spacing:1.37848px;fill:#323232;fill-opacity:1;stroke-width:0.334667"
         x="70.477554"
         y="47.969326"
         id="text7011"><tspan
           sodipodi:role="line"
           id="tspan7009"
           style="font-style:normal;font-variant:normal;font-weight:normal;font-stretch:normal;font-size:4.01602px;font-family:'Neue Helvetica BQ';-inkscape-font-specification:'Neue Helvetica BQ, Normal';font-variant-ligatures:normal;font-variant-caps:normal;font-variant-numeric:normal;font-variant-east-asian:normal;stroke-width:0.334667"
           x="70.477554"
           y="47.969326">TRUST - SECURE - TRANSFORM</tspan></text></g></g></svg>
