<?xml version="1.0" encoding="UTF-8"?>
<svg id="_레이어_2" data-name="레이어 2" xmlns="http://www.w3.org/2000/svg" viewBox="0 0 77.21 19.57">
  <defs>
    <style>
      .cls-1 {
        fill: #00559d;
      }

      .cls-2 {
        fill: #6d6c6c;
      }
    </style>
  </defs>
  <g id="_Layer_" data-name="&amp;lt;Layer&amp;gt;">
    <g>
      <g>
        <path class="cls-1" d="M17.65,4.71S16.61,1.14,12.23.21c0,0-5.66-1.48-9.25,3.48,0,0-4.09,3.97-2.68,8.74,0,0,1.46,6.94,8.88,7.09,0,0,7.27,1,9.56-6.17,0,0,2.64-6.48-1.08-8.65ZM10.17,18.78c-4.62,0-8.37-3.75-8.37-8.37S5.54,2.04,10.17,2.04s8.37,3.75,8.37,8.37-3.75,8.37-8.37,8.37Z"/>
        <path class="cls-1" d="M4.56,12.06s-.09,0-.18,0v.43s.08,0,.08,0c.07,0,.13-.01.16-.03.06-.03.09-.1.09-.19,0-.04,0-.08-.01-.11,0-.03-.02-.05-.03-.06-.02-.02-.05-.04-.1-.04Z"/>
        <path class="cls-1" d="M11.18,6.4c0-.31-.09-.57-.26-.78-.17-.21-.46-.31-.84-.31h-.68v2.27h.43c.44,0,.78-.1,1.01-.31.23-.2.34-.5.34-.87Z"/>
        <path class="cls-1" d="M6.03,14.28c.09,0,1.35,0,1.43,0-.03-.08-.63-1.96-.69-2.14-.06.18-.72,2.05-.75,2.14Z"/>
        <path class="cls-1" d="M6.28,9.69c.28-.39.43-1.03.43-1.9s-.14-1.51-.43-1.9c-.28-.38-.74-.58-1.37-.58h-.46v4.96h.46c.63,0,1.09-.2,1.37-.58Z"/>
        <path class="cls-1" d="M4.52,11.74c-.41,0-.74.33-.74.74s.33.74.74.74c.18,0,.35-.07.47-.18,0,0-.02,0-.03,0-.03,0-.06,0-.08,0-.03,0-.06,0-.08,0-.03,0-.05,0-.07,0h0s0-.03,0-.04c0,0,0-.02-.01-.03-.01-.02-.02-.05-.04-.09-.01-.02-.03-.06-.06-.11l-.09-.17h-.14v.16c0,.05,0,.1,0,.14,0,.03,0,.06,0,.07,0,.02.01.03.02.05-.02,0-.03,0-.06,0h-.15s-.04,0-.06,0c0,0,0-.02.01-.04,0-.03.01-.08.01-.14,0-.09,0-.22,0-.39,0-.18,0-.28,0-.31,0-.07-.01-.13-.02-.17,0-.03-.01-.04-.02-.06h.05s.03,0,.05,0c.01,0,.03,0,.06,0h.15s.05,0,.08,0h.06c.06,0,.12,0,.16.01.06.01.11.04.14.08.03.03.04.06.06.1.01.04.02.08.02.12,0,.03,0,.06,0,.09,0,.03-.02.06-.03.08-.02.04-.05.07-.09.09-.02.01-.05.03-.09.04h0s.01.03.01.03c.01.02.02.04.03.05.01.02.02.04.03.06.05.09.09.15.13.2.03.05.07.09.1.12.15-.13.24-.33.24-.55,0-.41-.33-.74-.74-.74Z"/>
        <path class="cls-1" d="M15.77,5.34h-1.49v2.21h.56c.18,0,.31-.07.41-.2.1-.14.19-.42.27-.82v-.05h.29v2.43h-.28v-.05c-.08-.4-.17-.68-.27-.83-.09-.13-.23-.2-.41-.2h-.56v2.42h1.32c.27,0,.46-.1.59-.3.14-.21.32-.71.53-1.47v-.04h.28v2.1h-4.15v-.29h.47v-4.91h-.47v-.29h2.74c-1.45-1.49-3.39-2.31-5.47-2.31s-4.02.82-5.47,2.31h.31c.89,0,1.58.26,2.07.78.48.51.73,1.18.73,1.96s-.25,1.44-.73,1.96c-.49.52-1.18.78-2.07.78h-1.92v-.29h.47v-3.7c-.68,1.17-1.04,2.49-1.04,3.83,0,2.19.95,4.28,2.6,5.74.02-.07,1.71-4.97,1.71-4.97h.58s1.71,5.23,1.72,5.26h.34v.29h-1.86v-.29h.56c-.02-.06-.6-1.85-.61-1.87h-1.56s-.61,1.77-.62,1.8c1.35,1.09,3.05,1.69,4.79,1.69,1.54,0,3.02-.46,4.29-1.32h-1.14v-.29h.76v-4.54c-.09.25-1.65,4.83-1.65,4.83h-.35s-1.45-4.55-1.54-4.81c0,.26-.01,4.48-.01,4.53h.6v.29h-1.5v-.29h.57v-4.91h-.57v-.29h1.62s1.28,4.02,1.33,4.15c.04-.13,1.39-4.15,1.39-4.15h1.56v.29h-.5v4.77c1.76-1.46,2.78-3.6,2.78-5.89,0-1.85-.67-3.64-1.89-5.03-.04,0-.08-.01-.11-.01ZM4.52,13.47c-.55,0-.99-.45-.99-.99s.45-1,.99-1,.99.45.99,1-.45.99-.99.99ZM12.69,10.54h-1.33s-1.85-2.54-1.93-2.65v2.37h.6v.29h-2.02v-.29h.47v-4.91h-.47v-.29h2.33c.62,0,1.08.13,1.37.38.3.26.45.58.45.97,0,.41-.16.75-.46,1.01-.29.24-.69.37-1.19.39.05.07,1.76,2.43,1.77,2.45.02,0,.42,0,.42,0v.29Z"/>
      </g>
      <g>
        <g>
          <path class="cls-2" d="M48.18,16.85v-2.68h1.29c.29,0,.51.01.67.04.22.04.4.1.55.19.2.12.34.27.44.46.1.19.15.4.15.64,0,.2-.03.38-.1.54-.07.16-.15.29-.25.39-.1.1-.22.19-.34.24-.12.06-.27.1-.45.14-.17.03-.37.04-.6.04h-1.35ZM48.67,16.53h.8c.25,0,.44-.02.58-.05.14-.03.25-.08.34-.14.12-.08.21-.2.28-.34.07-.14.1-.31.1-.51,0-.28-.07-.49-.19-.64-.13-.15-.28-.25-.47-.3-.13-.03-.35-.05-.64-.05h-.79v2.04Z"/>
          <path class="cls-2" d="M52.51,14.54v-.37h-.46v.37h.46ZM52.51,16.85v-1.94h-.46v1.94h.46Z"/>
          <path class="cls-2" d="M53.29,16.99l.45.04c.02.1.07.18.16.22.11.06.27.1.47.1.21,0,.38-.03.5-.09.12-.06.19-.14.24-.25.02-.07.04-.2.03-.42-.2.16-.45.25-.75.25-.37,0-.67-.1-.87-.29-.2-.19-.31-.42-.31-.69,0-.19.05-.36.14-.51.09-.16.23-.28.41-.36.18-.09.39-.13.63-.13.32,0,.59.09.79.28v-.24h.41v1.68c0,.3-.04.51-.13.64-.09.13-.22.23-.41.3s-.41.11-.69.11c-.32,0-.58-.05-.78-.16-.2-.11-.3-.26-.29-.48ZM53.68,15.84c0,.25.07.44.21.56.14.12.32.18.53.18s.39-.06.53-.17c.14-.12.22-.3.22-.55,0-.24-.07-.41-.22-.54-.15-.12-.32-.18-.53-.18s-.38.06-.52.18c-.14.12-.21.3-.21.53Z"/>
          <path class="cls-2" d="M56.89,14.54v-.37h-.46v.37h.46ZM56.89,16.85v-1.94h-.46v1.94h.46Z"/>
          <path class="cls-2" d="M58.76,16.56l.06.29c-.13.02-.24.03-.35.03-.17,0-.3-.02-.39-.06-.09-.04-.16-.09-.19-.15-.04-.06-.06-.19-.06-.39v-1.12h-.34v-.26h.34v-.48l.46-.2v.67h.46v.26h-.46v1.13c0,.09,0,.15.02.18.02.02.04.05.08.06.04.02.09.03.16.03.05,0,.12,0,.2,0Z"/>
          <path class="cls-2" d="M61.14,16.6c-.17.11-.33.18-.49.23-.16.04-.33.07-.51.07-.3,0-.53-.05-.69-.16-.16-.1-.24-.24-.24-.4,0-.09.03-.18.09-.26.06-.08.14-.14.24-.19.1-.05.21-.08.33-.11.09-.02.23-.03.41-.05.37-.03.65-.07.82-.11,0-.04,0-.07,0-.08,0-.14-.04-.23-.13-.29-.12-.08-.29-.11-.53-.11-.22,0-.38.03-.48.08-.1.05-.18.15-.23.28l-.46-.05c.04-.14.11-.25.2-.33.09-.08.23-.15.41-.19.18-.04.38-.07.62-.07s.42.02.57.06c.14.04.25.09.32.15s.11.13.14.22c.02.06.02.16.02.3v.44c0,.31,0,.5.03.58.02.08.06.16.11.23h-.47c-.05-.07-.08-.15-.09-.25ZM61.11,15.87c-.17.05-.42.09-.76.12-.19.02-.33.04-.41.07-.08.02-.14.06-.18.11-.04.05-.06.1-.06.16,0,.09.05.16.14.22.09.06.23.09.41.09s.34-.03.48-.08c.14-.06.24-.13.31-.23.05-.08.07-.19.07-.33v-.12Z"/>
          <path class="cls-2" d="M62.42,16.85v-2.68h.46v2.68h-.46Z"/>
          <path class="cls-2" d="M66.27,16.85v-2.36h-1.23v-.32h2.95v.32h-1.23v2.36h-.49Z"/>
          <path class="cls-2" d="M68.41,16.85v-1.94h.41v.29c.11-.14.2-.23.29-.27.09-.04.19-.07.29-.07.15,0,.31.03.47.11l-.16.3c-.11-.05-.22-.07-.34-.07-.1,0-.19.02-.27.06-.08.04-.14.1-.17.18-.05.12-.08.25-.08.39v1.02h-.46Z"/>
          <path class="cls-2" d="M72.09,16.85v-.28c-.21.22-.5.33-.86.33-.16,0-.31-.02-.45-.07-.14-.04-.24-.1-.31-.17-.07-.07-.11-.15-.14-.24-.02-.07-.03-.17-.03-.31v-1.2h.46v1.08c0,.17.01.29.03.35.03.09.09.15.19.2.09.05.21.08.35.08s.27-.03.39-.08c.12-.05.21-.12.26-.21.05-.09.08-.21.08-.38v-1.04h.46v1.94h-.41Z"/>
          <path class="cls-2" d="M73.19,16.26l.46-.05c.03.13.1.23.21.3.12.07.28.1.49.1s.37-.03.47-.09c.1-.06.15-.13.15-.22,0-.07-.04-.13-.13-.17-.06-.03-.22-.06-.47-.11-.34-.06-.57-.11-.7-.16-.13-.04-.23-.11-.3-.18-.07-.08-.1-.17-.1-.26,0-.09.03-.17.08-.24.06-.07.13-.14.23-.18.07-.04.17-.07.3-.1.12-.03.25-.04.4-.04.21,0,.4.02.56.07.16.04.28.1.36.18.08.08.13.18.16.3l-.45.04c-.02-.1-.08-.18-.18-.23-.1-.06-.24-.08-.42-.08-.21,0-.36.02-.45.07-.09.05-.13.11-.13.17,0,.04.02.08.06.12.04.04.1.07.18.09.05.01.18.04.41.08.33.06.55.11.68.15.13.04.23.1.3.17.07.08.11.17.11.28s-.05.21-.13.31c-.09.1-.22.17-.39.23-.17.05-.36.08-.57.08-.35,0-.62-.05-.8-.16-.18-.11-.3-.26-.35-.47Z"/>
          <path class="cls-2" d="M77.15,16.56l.06.29c-.13.02-.24.03-.35.03-.17,0-.3-.02-.39-.06-.09-.04-.15-.09-.19-.15-.04-.06-.06-.19-.06-.39v-1.12h-.34v-.26h.34v-.48l.45-.2v.67h.46v.26h-.46v1.13c0,.09,0,.15.03.18.02.02.04.05.08.06.04.02.09.03.16.03.05,0,.12,0,.2,0Z"/>
        </g>
        <g>
          <path class="cls-2" d="M33.64,6.69c0,1.48-.53,2.65-1.6,3.5-.95.75-2.12,1.12-3.51,1.12h-5.44c.07-.14.31-.25.73-.36.48-.1.76-.19.86-.26V2.57c-.08-.04-.35-.12-.79-.26-.33-.1-.59-.22-.79-.37h5.39c1.53,0,2.75.4,3.67,1.19,1,.85,1.49,2.03,1.49,3.55ZM31.82,6.63c0-1.29-.36-2.32-1.08-3.08-.75-.79-1.8-1.19-3.17-1.19-.37,0-.79,0-1.29.01v8.45c.16,0,.39,0,.71.01.32.01.56.01.73.01,1.32,0,2.34-.37,3.04-1.12.7-.75,1.06-1.78,1.06-3.09Z"/>
          <path class="cls-2" d="M68.81,11.31h-4.65v-.27c.39-.07.97-.2,1.75-.39l-1.17-2.9h-3.09l-1.27,2.85c.13.12.33.2.63.27.45.09.72.15.8.17v.27h-3.61v-.27c.24-.02.48-.04.72-.07.3-.03.51-.12.6-.28.67-1.1,1.4-2.53,2.18-4.29.66-1.48,1.32-2.96,1.97-4.45h.56c1.04,2.72,2.12,5.63,3.24,8.71.23.1.67.24,1.31.39v.26ZM64.52,7.3l-1.22-3.5-1.49,3.5h2.71Z"/>
          <path class="cls-2" d="M54.28,11.31c-1.4,0-2.52-.41-3.36-1.24-.84-.83-1.25-1.93-1.25-3.29,0-1.46.47-2.63,1.42-3.53.92-.87,2.1-1.3,3.53-1.3.84,0,1.88.21,3.11.64v2.22h-.44c-.21-.9-.51-1.54-.92-1.92-.38-.33-.91-.5-1.6-.5-1.22,0-2.12.5-2.7,1.5-.43.76-.65,1.71-.65,2.85s.22,2.02.65,2.74c.56.93,1.41,1.4,2.56,1.4.82,0,1.47-.22,1.95-.65.5-.47.85-1.22,1.05-2.26h.44l-.2,2.5c-.44.26-1.03.47-1.77.63-.67.15-1.28.22-1.82.22Z"/>
          <path class="cls-2" d="M73.35,6.89h-1.01v3.73c.22.1.68.24,1.39.41v.27h-4.58v-.27c.58-.12,1.11-.26,1.6-.41V2.58c-.08-.04-.35-.12-.8-.26-.33-.1-.6-.22-.8-.37h5.38c.69,0,1.28.18,1.79.54.59.42.89.98.89,1.7,0,.6-.18,1.09-.53,1.48-.35.38-1.03.76-1.72.97,0,0-.73.25-1.61.26ZM75.61,4.25c0-1.26-.7-1.89-2.09-1.89h-.63c-.28.01-.47.02-.56.02v4.22c1.12-.16,1.88-.35,2.28-.56.66-.36,1-.95,1-1.78Z"/>
          <path class="cls-2" d="M37.49,4.22c-.27.06-.68.16-1.23.32v6.24c.24.08.65.19,1.23.32v.21h-3.7v-.21c.28-.05.69-.16,1.23-.32v-6.24c-.23-.09-.65-.19-1.23-.32v-.21h3.7v.21Z"/>
          <path class="cls-2" d="M49.35,4.22c-.27.06-.68.16-1.23.32v6.24c.24.08.65.19,1.23.32v.21h-3.7v-.21c.28-.05.69-.16,1.23-.32v-6.24c-.23-.09-.65-.19-1.23-.32v-.21h3.7v.21Z"/>
          <path class="cls-2" d="M45.5,7.58v-.21h-3.35v.21c.59.13,1,.23,1.23.32v2.17c0,.33-.95.89-1.75.89-.93,0-1.62-.38-2.08-1.14-.35-.59-.53-1.33-.53-2.23s.18-1.7.53-2.31c.47-.81,1.2-1.22,2.19-1.22.55,0,.99.13,1.3.41.33.31.58.82.75,1.56h.36v-1.8c-1-.34-1.84-.52-2.52-.52-1.17,0-2.13.35-2.87,1.06-.77.73-1.15,1.68-1.15,2.87,0,1.11.34,2,1.02,2.67.68.67,1.59,1.01,2.73,1.01.44,0,.94-.06,1.48-.18.6-.13,1.08-.3,1.44-.51v-.1s0-2.62,0-2.62c.55-.16.96-.26,1.23-.32Z"/>
        </g>
      </g>
    </g>
  </g>
</svg>