<svg width="540" height="220" viewBox="0 0 540 220" fill="none" xmlns="http://www.w3.org/2000/svg">
<path d="M88.2908 139.612C82.629 139.612 77.6525 138.326 73.361 135.754C69.0696 133.145 65.77 129.54 63.462 124.939C61.154 120.338 60 115.14 60 109.343C60 103.257 61.2261 97.9311 63.6783 93.3663C66.1666 88.8016 69.5385 85.3055 73.7938 82.8782C78.0852 80.4147 82.8815 79.1829 88.1826 79.1829C93.4116 79.1829 98.0276 80.3785 102.031 82.7695C106.069 85.1244 109.189 88.4574 111.389 92.7686C113.625 97.0797 114.742 102.097 114.742 107.821C114.742 108.474 114.706 109.162 114.634 109.886C114.598 110.575 114.562 111.372 114.526 112.278H69.7909C70.0794 116.299 71.0531 119.759 72.7119 122.657C74.4069 125.519 76.6247 127.675 79.3654 129.124C82.1061 130.537 85.2075 131.243 88.6695 131.243C91.1938 131.243 93.5559 130.808 95.7557 129.939C97.9555 129.069 99.7946 127.82 101.273 126.189C102.788 124.559 103.852 122.675 104.465 120.538H114.364C113.534 124.305 111.948 127.62 109.604 130.482C107.26 133.344 104.248 135.59 100.57 137.221C96.9277 138.815 92.8346 139.612 88.2908 139.612ZM104.735 104.289C104.591 100.92 103.816 97.9311 102.409 95.3227C101.039 92.678 99.1095 90.6492 96.6212 89.2363C94.1689 87.7872 91.302 87.0626 88.0203 87.0626C85.0632 87.0626 82.2864 87.6785 79.69 88.9102C77.1295 90.142 74.9838 92.0621 73.2529 94.6705C71.5219 97.2428 70.3859 100.449 69.845 104.289H104.735Z" fill="#131313"/>
<path d="M115.34 138.362L136.706 109.56L115.286 80.5415H126.699L141.467 101.083C141.755 101.518 142.044 101.934 142.332 102.333C142.657 102.731 142.945 103.112 143.198 103.474H143.306C143.558 103.112 143.829 102.731 144.117 102.333C144.406 101.934 144.676 101.518 144.929 101.083L159.804 80.5415H171.218L149.689 109.56L171.272 138.362H159.967L144.929 117.82C144.388 117.023 143.847 116.245 143.306 115.484H143.198C142.621 116.208 142.062 116.987 141.521 117.82L126.645 138.362H115.34Z" fill="#131313"/>
<path d="M190.64 139.503C186.997 139.503 183.788 138.833 181.011 137.492C178.27 136.152 176.143 134.214 174.628 131.678C173.113 129.106 172.356 126.026 172.356 122.44C172.356 118.744 173.204 115.665 174.899 113.201C176.63 110.702 179.172 108.763 182.526 107.387C185.879 105.974 190.117 105.032 195.238 104.561L210.113 103.257V98.8006C210.113 96.5544 209.572 94.5981 208.49 92.9316C207.409 91.2289 205.858 89.9427 203.838 89.0733C201.819 88.2038 199.457 87.769 196.752 87.769C194.12 87.769 191.812 88.2219 189.828 89.1276C187.881 90.0333 186.348 91.3194 185.23 92.9859C184.112 94.6524 183.481 96.6088 183.337 98.8549H173.6C173.889 94.8336 175.025 91.3557 177.008 88.4212C178.992 85.4504 181.66 83.1862 185.014 81.6283C188.404 80.0343 192.317 79.2373 196.752 79.2373C201.549 79.2373 205.678 80.0343 209.14 81.6283C212.638 83.2224 215.288 85.5048 217.091 88.4755C218.93 91.41 219.85 94.8517 219.85 98.8006V138.362H210.113V128.689H210.005C208.563 131.877 206.146 134.486 202.757 136.514C199.403 138.507 195.364 139.503 190.64 139.503ZM193.236 131.406C196.698 131.406 199.691 130.609 202.216 129.015C204.776 127.421 206.723 125.265 208.058 122.548C209.428 119.795 210.113 116.752 210.113 113.419V110.593L195.67 111.897C191.199 112.259 187.791 113.274 185.447 114.94C183.103 116.607 181.931 118.962 181.931 122.005C181.931 123.925 182.399 125.591 183.337 127.004C184.275 128.417 185.591 129.504 187.286 130.265C188.981 131.026 190.964 131.406 193.236 131.406Z" fill="#131313"/>
<path d="M255.337 139.721C250.217 139.721 245.438 138.597 241.003 136.351C236.603 134.105 233.069 130.736 230.4 126.244C227.768 121.715 226.452 116.208 226.452 109.723C226.452 103.42 227.714 97.9673 230.238 93.3663C232.799 88.7653 236.243 85.2512 240.57 82.8239C244.934 80.3966 249.856 79.1829 255.337 79.1829C260.386 79.1829 264.822 80.2154 268.644 82.2804C272.503 84.3455 275.532 87.1169 277.732 90.5949C279.968 94.0366 281.338 97.8768 281.843 102.115H271.998C271.565 99.3621 270.646 96.9167 269.239 94.7792C267.833 92.6055 265.94 90.8847 263.56 89.6167C261.216 88.3125 258.493 87.6604 255.392 87.6604C251.713 87.6604 248.432 88.5661 245.547 90.3775C242.698 92.1527 240.462 94.7068 238.839 98.0398C237.252 101.337 236.459 105.195 236.459 109.615C236.459 114.143 237.288 118.038 238.947 121.298C240.642 124.559 242.914 127.022 245.763 128.689C248.648 130.355 251.839 131.189 255.337 131.189C258.295 131.189 260.945 130.591 263.289 129.395C265.669 128.2 267.599 126.57 269.077 124.505C270.556 122.44 271.529 120.139 271.998 117.603H281.897C281.356 121.588 279.95 125.265 277.678 128.635C275.442 131.968 272.395 134.649 268.536 136.677C264.714 138.706 260.314 139.721 255.337 139.721Z" fill="#131313"/>
<path d="M307.756 138.362C304.546 138.362 301.968 137.891 300.021 136.949C298.073 135.971 296.685 134.612 295.855 132.873C295.062 131.098 294.665 128.961 294.665 126.461V89.182H283.847V80.5415H294.665V65.7603H304.673V80.5415H319.007V89.182H304.673V126.407C304.673 127.53 304.907 128.345 305.376 128.852C305.881 129.359 306.71 129.613 307.864 129.613H318.899V138.362H307.756Z" fill="#131313"/>
<path d="M335.021 138.362H325.014V60H335.021V138.362Z" fill="#131313"/>
<path d="M354.497 159.501L362.665 138.797L339.513 80.4871H349.791L363.531 116.897C363.891 117.875 364.234 118.853 364.558 119.831C364.919 120.809 365.262 121.751 365.586 122.657C366.199 124.396 366.74 126.044 367.209 127.602H367.479C368.814 123.617 370.04 120.049 371.158 116.897L384.627 80.4871H394.959L364.126 159.556L354.497 159.501Z" fill="#131313"/>
<path d="M391.824 138.362V125.7H403.94V138.362H391.824Z" fill="#131313"/>
<path d="M431.368 139.503C427.726 139.503 424.516 138.833 421.739 137.492C418.999 136.152 416.871 134.214 415.356 131.678C413.842 129.106 413.084 126.026 413.084 122.44C413.084 118.744 413.932 115.665 415.627 113.201C417.358 110.702 419.9 108.763 423.254 107.387C426.608 105.974 430.845 105.032 435.966 104.561L450.841 103.257V98.8006C450.841 96.5544 450.301 94.5981 449.219 92.9316C448.137 91.2289 446.586 89.9427 444.567 89.0733C442.547 88.2038 440.185 87.769 437.48 87.769C434.848 87.769 432.54 88.2219 430.557 89.1276C428.609 90.0333 427.077 91.3194 425.959 92.9859C424.841 94.6524 424.21 96.6088 424.065 98.8549H414.329C414.617 94.8336 415.753 91.3557 417.736 88.4212C419.72 85.4504 422.388 83.1862 425.742 81.6283C429.132 80.0343 433.045 79.2373 437.48 79.2373C442.277 79.2373 446.406 80.0343 449.868 81.6283C453.366 83.2224 456.016 85.5048 457.82 88.4755C459.659 91.41 460.578 94.8517 460.578 98.8006V138.362H450.841V128.689H450.733C449.291 131.877 446.875 134.486 443.485 136.514C440.131 138.507 436.092 139.503 431.368 139.503ZM433.964 131.406C437.426 131.406 440.42 130.609 442.944 129.015C445.504 127.421 447.452 125.265 448.786 122.548C450.156 119.795 450.841 116.752 450.841 113.419V110.593L436.399 111.897C431.927 112.259 428.519 113.274 426.175 114.94C423.831 116.607 422.659 118.962 422.659 122.005C422.659 123.925 423.128 125.591 424.065 127.004C425.003 128.417 426.319 129.504 428.014 130.265C429.709 131.026 431.692 131.406 433.964 131.406Z" fill="#131313"/>
<path d="M469.344 71.4119V60H480V71.4119H469.344ZM469.668 138.362V80.4871H479.675V138.362H469.668Z" fill="#131313"/>
</svg>
