<?xml version="1.0" encoding="UTF-8"?><svg id="Layer_1" xmlns="http://www.w3.org/2000/svg" viewBox="0 0 526.99 154.67"><defs><style>.cls-1{fill:#1b4098;}.cls-2{fill:none;}.cls-3{fill:#707070;}</style></defs><g id="Bounding_box"><rect class="cls-2" width="526.99" height="154.67"/></g><polygon class="cls-1" points="26.68 94.45 70.55 94.45 70.55 81.19 41.48 81.19 41.48 66.96 70.55 66.96 70.55 53.71 41.48 53.71 41.48 39.97 70.55 39.97 70.55 26.7 26.68 26.7 26.68 94.45"/><path class="cls-1" d="M185.12,26.7v38.81c0,10.74-5.51,16.26-14.61,16.26s-14.61-5.71-14.61-16.74V26.7h-14.91v38.71c0,19.93,11.13,30.09,29.32,30.09s29.71-10.06,29.71-30.58V26.7h-14.91Z"/><path class="cls-1" d="M121.32,59.03c4.84-2.71,8.9-6.97,8.9-14.61v-.2c0-4.64-1.55-8.42-4.64-11.51-3.35-3.35-8.38-5.4-14.7-5.88-.98-.08-1.98-.12-3.01-.12h-26.57v67.74h27.35c.76,0,1.5-.03,2.24-.06,14.02-.59,23.12-6.75,23.12-18.52v-.19c0-9.09-4.84-13.64-12.68-16.65ZM95.81,39.77h9.83c2.07,0,3.8.3,5.24.82,2.93,1.07,4.53,3.16,4.53,6.15v.2c0,3.17-1.66,5.18-4.53,6.24-1.68.62-3.78.92-6.21.92h-8.86v-14.32ZM119.19,74.03c0,4.43-3.08,6.75-8.31,7.24-.71.07-1.46.11-2.24.11h-12.83v-14.9h12.35c.98,0,1.88.05,2.72.14,5.73.61,8.31,3.25,8.31,7.21v.2Z"/><path class="cls-3" d="M463.59,112.94h5.22c4.73,0,8,3.25,8,7.48v.04c0,4.24-3.27,7.52-8,7.52h-5.22v-15.05ZM465.29,114.51v11.91h3.53c3.81,0,6.24-2.58,6.24-5.91v-.04c0-3.33-2.43-5.96-6.24-5.96h-3.53Z"/><path class="cls-3" d="M452.18,112.83h1.59l6.86,15.16h-1.83l-1.76-3.98h-8.19l-1.78,3.98h-1.74l6.86-15.16ZM456.37,122.47l-3.42-7.65-3.44,7.65h6.86Z"/><path class="cls-3" d="M431.06,112.94h6.47c1.85,0,3.33.56,4.28,1.5.73.73,1.16,1.78,1.16,2.97v.04c0,2.49-1.72,3.96-4.09,4.39l4.62,6.15h-2.09l-4.36-5.85h-4.3v5.85h-1.7v-15.05ZM437.38,120.62c2.26,0,3.87-1.16,3.87-3.1v-.04c0-1.85-1.42-2.97-3.85-2.97h-4.64v6.11h4.62Z"/><path class="cls-3" d="M412.12,120.51v-.04c0-4.15,3.12-7.78,7.7-7.78s7.65,3.59,7.65,7.74v.04c0,4.15-3.12,7.78-7.7,7.78s-7.65-3.59-7.65-7.74ZM425.71,120.51v-.04c0-3.42-2.49-6.21-5.93-6.21s-5.89,2.75-5.89,6.17v.04c0,3.42,2.49,6.21,5.94,6.21s5.89-2.75,5.89-6.17Z"/><path class="cls-3" d="M397.24,112.94h6.47c1.85,0,3.33.56,4.28,1.5.73.73,1.16,1.78,1.16,2.97v.04c0,2.49-1.72,3.96-4.09,4.39l4.62,6.15h-2.09l-4.36-5.85h-4.3v5.85h-1.7v-15.05ZM403.56,120.62c2.26,0,3.87-1.16,3.87-3.1v-.04c0-1.85-1.42-2.97-3.85-2.97h-4.64v6.11h4.62Z"/><path class="cls-3" d="M380.69,121.69v-8.75h1.7v8.64c0,3.25,1.74,5.07,4.6,5.07s4.54-1.68,4.54-4.97v-8.75h1.7v8.62c0,4.39-2.52,6.66-6.28,6.66s-6.26-2.28-6.26-6.54Z"/><path class="cls-3" d="M366.52,112.94h10.88v1.55h-9.18v5.14h8.21v1.55h-8.21v5.27h9.29v1.55h-10.99v-15.05Z"/><path class="cls-3" d="M343.26,112.94h5.22c4.73,0,8,3.25,8,7.48v.04c0,4.24-3.27,7.52-8,7.52h-5.22v-15.05ZM344.95,114.51v11.91h3.53c3.81,0,6.24-2.58,6.24-5.91v-.04c0-3.33-2.43-5.96-6.24-5.96h-3.53Z"/><path class="cls-3" d="M326.27,112.94h1.59l9.48,12.06v-12.06h1.65v15.05h-1.35l-9.72-12.34v12.34h-1.65v-15.05Z"/><path class="cls-3" d="M315.23,112.83h1.59l6.86,15.16h-1.83l-1.76-3.98h-8.19l-1.79,3.98h-1.74l6.86-15.16ZM319.42,122.47l-3.42-7.65-3.44,7.65h6.86Z"/><path class="cls-3" d="M286.23,112.94h1.59l9.48,12.06v-12.06h1.65v15.05h-1.35l-9.72-12.34v12.34h-1.65v-15.05Z"/><path class="cls-3" d="M267.72,120.51v-.04c0-4.15,3.12-7.78,7.7-7.78s7.65,3.59,7.65,7.74v.04c0,4.15-3.12,7.78-7.7,7.78s-7.65-3.59-7.65-7.74ZM281.31,120.51v-.04c0-3.42-2.49-6.21-5.93-6.21s-5.89,2.75-5.89,6.17v.04c0,3.42,2.49,6.21,5.94,6.21s5.89-2.75,5.89-6.17Z"/><path class="cls-3" d="M262.72,112.94h1.7v15.05h-1.7v-15.05Z"/><path class="cls-3" d="M247.82,125.8l1.05-1.25c1.57,1.42,3.07,2.13,5.16,2.13s3.36-1.08,3.36-2.56v-.04c0-1.4-.75-2.19-3.91-2.86-3.46-.75-5.05-1.87-5.05-4.34v-.04c0-2.37,2.09-4.11,4.95-4.11,2.19,0,3.76.62,5.29,1.85l-.99,1.31c-1.4-1.14-2.79-1.63-4.34-1.63-1.96,0-3.2,1.08-3.2,2.43v.04c0,1.42.77,2.21,4.08,2.92,3.36.73,4.9,1.96,4.9,4.26v.04c0,2.58-2.15,4.26-5.14,4.26-2.38,0-4.34-.79-6.15-2.41Z"/><path class="cls-3" d="M242.7,112.94h1.7v15.05h-1.7v-15.05Z"/><path class="cls-3" d="M225.13,112.94h1.89l5.35,12.96,5.37-12.96h1.83l-6.47,15.16h-1.5l-6.47-15.16Z"/><path class="cls-3" d="M208.36,120.51v-.04c0-4.15,3.12-7.78,7.7-7.78s7.65,3.59,7.65,7.74v.04c0,4.15-3.12,7.78-7.7,7.78s-7.65-3.59-7.65-7.74ZM221.95,120.51v-.04c0-3.42-2.49-6.21-5.93-6.21s-5.89,2.75-5.89,6.17v.04c0,3.42,2.49,6.21,5.93,6.21s5.89-2.75,5.89-6.17Z"/><path class="cls-3" d="M193.49,112.94h6.47c1.85,0,3.33.56,4.28,1.5.73.73,1.16,1.78,1.16,2.97v.04c0,2.49-1.72,3.96-4.08,4.39l4.62,6.15h-2.09l-4.36-5.85h-4.3v5.85h-1.7v-15.05ZM199.81,120.62c2.26,0,3.87-1.16,3.87-3.1v-.04c0-1.85-1.42-2.97-3.85-2.97h-4.64v6.11h4.62Z"/><path class="cls-3" d="M176.93,121.69v-8.75h1.7v8.64c0,3.25,1.74,5.07,4.6,5.07s4.54-1.68,4.54-4.97v-8.75h1.7v8.62c0,4.39-2.52,6.66-6.28,6.66s-6.26-2.28-6.26-6.54Z"/><path class="cls-3" d="M162.76,112.94h10.88v1.55h-9.18v5.14h8.21v1.55h-8.21v5.27h9.29v1.55h-10.99v-15.05Z"/><path class="cls-3" d="M138.79,120.51v-.04c0-4.13,3.03-7.78,7.55-7.78,2.54,0,4.11.73,5.61,2l-1.1,1.29c-1.16-1.01-2.45-1.72-4.58-1.72-3.33,0-5.72,2.82-5.72,6.17v.04c0,3.59,2.3,6.26,5.95,6.26,1.72,0,3.31-.67,4.34-1.5v-3.74h-4.58v-1.53h6.21v6c-1.4,1.25-3.5,2.3-6.04,2.3-4.73,0-7.65-3.44-7.65-7.74Z"/><path class="cls-3" d="M122.47,112.94h1.59l9.48,12.06v-12.06h1.66v15.05h-1.35l-9.72-12.34v12.34h-1.66v-15.05Z"/><path class="cls-3" d="M116.37,112.94h1.7v15.05h-1.7v-15.05Z"/><path class="cls-3" d="M106.26,114.51h-5.05v-1.57h11.82v1.57h-5.05v13.48h-1.72v-13.48Z"/><path class="cls-3" d="M92.8,112.83h1.59l6.86,15.16h-1.83l-1.76-3.98h-8.19l-1.78,3.98h-1.74l6.86-15.16ZM97,122.47l-3.42-7.65-3.44,7.65h6.86Z"/><path class="cls-3" d="M71.69,112.94h6.47c1.85,0,3.33.56,4.28,1.5.73.73,1.16,1.78,1.16,2.97v.04c0,2.49-1.72,3.96-4.08,4.39l4.62,6.15h-2.09l-4.36-5.85h-4.3v5.85h-1.7v-15.05ZM78.01,120.62c2.26,0,3.87-1.16,3.87-3.1v-.04c0-1.85-1.42-2.97-3.85-2.97h-4.64v6.11h4.62Z"/><path class="cls-3" d="M57.29,112.94h10.88v1.55h-9.18v5.14h8.21v1.55h-8.21v5.27h9.29v1.55h-10.99v-15.05Z"/><path class="cls-3" d="M42.92,112.94h5.63c3.4,0,5.63,1.81,5.63,4.77v.04c0,3.25-2.71,4.92-5.91,4.92h-3.65v5.31h-1.7v-15.05ZM48.34,121.13c2.49,0,4.13-1.33,4.13-3.31v-.04c0-2.15-1.61-3.27-4.04-3.27h-3.81v6.62h3.72Z"/><path class="cls-3" d="M23.98,120.51v-.04c0-4.15,3.12-7.78,7.7-7.78s7.65,3.59,7.65,7.74v.04c0,4.15-3.12,7.78-7.7,7.78s-7.65-3.59-7.65-7.74ZM37.57,120.51v-.04c0-3.42-2.49-6.21-5.93-6.21s-5.89,2.75-5.89,6.17v.04c0,3.42,2.49,6.21,5.93,6.21s5.89-2.75,5.89-6.17Z"/><path class="cls-3" d="M485.57,120.61v-.04c0-4.15,3.12-7.78,7.7-7.78s7.65,3.59,7.65,7.74v.04c0,4.15-3.12,7.78-7.7,7.78s-7.65-3.59-7.65-7.74ZM499.16,120.61v-.04c0-3.42-2.49-6.21-5.93-6.21s-5.89,2.75-5.89,6.17v.04c0,3.42,2.49,6.21,5.93,6.21s5.89-2.75,5.89-6.17Z"/><path class="cls-3" d="M480.55,113.04h1.7v15.05h-1.7v-15.05Z"/></svg>