<svg width="717" height="179" viewBox="0 0 717 179" fill="none" xmlns="http://www.w3.org/2000/svg">
<g clip-path="url(#clip0_7936_38400)">
<path d="M53.3599 178.1C39.7599 178.14 26.6599 172.88 16.8199 163.41C6.9699 153.94 1.1399 141.48 0.539902 127.77C-0.200098 102.19 -0.170098 77.6495 0.539902 49.6995C1.2499 23.0595 25.4799 0.0495312 52.2699 0.0195312H221.21V35.6495H35.6199V71.2495H221.34V106.87H35.7099V142.49H221.34V178.11C221.34 178.11 66.9699 178.07 53.3699 178.11H53.3599V178.1Z" fill="black"/>
<path d="M459.22 0.00976562V35.6298L284.9 35.6798V71.2998L341 71.2698V71.2498H378.99C383.05 71.2498 386.44 71.2398 390.32 71.2298C396.35 71.2198 403.56 71.1998 416.33 71.1998C430.45 70.9798 444.35 76.9298 454.48 86.7898C464.62 96.6498 470.44 110.14 470.66 124.31C470.88 138.47 465.48 152.14 455.65 162.31C445.82 172.48 432.4 177.84 418.28 178.06L259.5 178.11V142.49L435.09 142.44V106.82L378.99 106.85V106.87H341C336.94 106.87 333.55 106.87 329.67 106.89C323.64 106.9 316.43 106.92 303.66 106.92C289.54 107.14 275.64 101.19 265.5 91.3298C255.37 81.4698 249.55 67.9698 249.33 53.8098C249.11 39.6498 254.51 25.9798 264.34 15.8098C274.17 5.63977 287.59 0.279766 301.7 0.0597656L459.22 0.00976562Z" fill="black"/>
<path d="M586.41 178.73V35.62H494.83V0H716.17V35.62H624.58V178.73H586.41Z" fill="black"/>
</g>
<defs>
<clipPath id="clip0_7936_38400">
<rect width="716.17" height="178.73" fill="white"/>
</clipPath>
</defs>
</svg>
