<svg version="1.1" id="Layer_1" xmlns:xlink="http://www.w3.org/1999/xlink" x="0px" y="0px" width="100%" viewBox="0 0 800 299" xml:space="preserve">
<path fill="#FEFEFE" opacity="1.000000" stroke="none" d="
M490.000000,300.000000 
	C326.703705,300.000000 163.907394,300.000000 1.055540,300.000000 
	C1.055540,200.393051 1.055540,100.786064 1.055540,1.089535 
	C267.546326,1.089535 534.092651,1.089535 800.819519,1.089535 
	C800.819519,100.666412 800.819519,200.333176 800.819519,300.000000 
	C697.452698,300.000000 593.976379,300.000000 490.000000,300.000000 
M55.148827,228.332779 
	C82.554123,257.596008 115.994110,269.197632 155.496170,261.871887 
	C211.736206,251.442062 249.640930,193.089615 237.592331,137.235565 
	C225.265015,80.089523 170.046066,45.273743 115.645203,54.785412 
	C68.750839,62.984612 30.279903,106.091087 28.996931,153.631775 
	C28.240829,181.649277 36.595646,206.373199 55.148827,228.332779 
M707.674011,176.804291 
	C702.875793,176.558151 698.045532,175.848450 693.287048,176.177490 
	C686.605957,176.639481 680.816406,179.634293 678.354980,186.170456 
	C673.080566,200.176178 672.756531,214.478561 678.221558,228.509796 
	C680.716064,234.914459 685.968567,238.602676 693.065247,238.211639 
	C698.391052,237.918182 703.670654,236.786530 709.395874,235.967239 
	C708.841064,239.622131 708.387573,243.563828 707.616028,247.442276 
	C706.728394,251.904800 704.191956,254.491959 699.252563,254.034851 
	C692.834961,253.440887 686.406799,252.960632 679.786621,252.415253 
	C679.786621,254.603653 679.786621,256.994690 679.786621,259.658142 
	C683.183167,260.077972 686.287720,260.622498 689.413452,260.805176 
	C692.895081,261.008667 696.415588,261.129486 699.884460,260.851990 
	C708.501831,260.162659 713.763672,256.074860 715.997559,247.685028 
	C717.265503,242.923019 717.948547,237.883759 718.041504,232.953278 
	C718.317383,218.315872 718.174377,203.670502 718.186401,189.028244 
	C718.194580,179.118210 718.187988,179.118210 707.674011,176.804291 
M454.558411,182.959778 
	C461.970581,183.083755 464.486267,184.733459 465.958557,192.000366 
	C467.074005,197.505890 467.561523,203.197891 467.722961,208.824265 
	C467.998444,218.426285 467.798889,228.041931 467.798889,237.674622 
	C470.945831,237.674622 473.551422,237.674622 476.611267,237.674622 
	C476.611267,226.482681 476.928558,215.509323 476.486450,204.566635 
	C476.240540,198.480301 475.327362,192.271301 473.631897,186.432053 
	C471.636353,179.559204 466.518707,175.529221 459.026825,175.982620 
	C452.974976,176.348907 446.961334,177.345886 440.453339,178.119843 
	C440.453339,169.463837 440.453339,160.221359 440.453339,150.710602 
	C437.284882,150.889877 434.669678,151.037842 432.104553,151.182968 
	C432.104553,180.287582 432.104553,208.998734 432.104553,237.577148 
	C435.060577,237.577148 437.635468,237.577148 440.551636,237.577148 
	C440.551636,223.768875 440.551636,210.292969 440.551636,196.817047 
	C440.551636,184.160828 440.551636,184.160828 454.558411,182.959778 
M743.008118,232.828934 
	C745.388977,236.300491 744.589294,239.540451 742.616211,242.942688 
	C739.252930,248.742065 736.138062,254.685532 732.691040,260.984741 
	C734.528687,260.984741 735.728271,260.795898 736.846497,261.017334 
	C741.747192,261.987854 744.445923,259.865692 746.260437,255.362534 
	C748.739685,249.209808 751.966125,243.359787 754.485291,237.221191 
	C762.506592,217.675644 768.411072,197.477188 773.006348,176.563736 
	C769.833252,176.563736 767.061218,176.563736 764.386353,176.563736 
	C759.662476,192.805817 754.988647,208.875793 750.314819,224.945770 
	C748.535156,222.977051 747.657166,221.185318 747.110291,219.297653 
	C743.643433,207.331879 740.173279,195.365982 736.859436,183.357300 
	C734.748718,175.708221 734.868652,175.675125 725.187683,176.911514 
	C731.093994,195.425766 736.934753,213.734406 743.008118,232.828934 
M376.973572,128.547684 
	C383.891846,110.313591 389.589172,91.735275 393.517517,72.505028 
	C384.798645,71.878761 384.799866,71.879074 382.813721,79.655197 
	C382.156616,82.227989 381.571320,84.822464 380.815887,87.366241 
	C377.554932,98.346527 374.243042,109.311676 370.949677,120.282333 
	C370.327271,120.277901 369.704834,120.273460 369.082428,120.269028 
	C364.477112,104.298302 359.871826,88.327568 355.285248,72.421783 
	C352.459290,72.421783 349.840332,72.421783 347.028168,72.421783 
	C347.094666,73.458160 346.990417,74.310356 347.220703,75.059723 
	C352.872162,93.447243 358.628235,111.803154 364.144257,130.230972 
	C364.770813,132.324234 364.785889,135.143463 363.879242,137.054123 
	C360.782196,143.580521 357.146820,149.851471 353.672821,156.301651 
	C363.507111,157.809753 363.629730,157.868713 367.557037,149.702286 
	C370.790100,142.979538 373.687073,136.095169 376.973572,128.547684 
M543.553833,103.500252 
	C543.553894,99.500954 543.553894,95.501663 543.553894,91.502365 
	C543.553894,79.142395 544.365906,78.374931 557.026245,78.771606 
	C557.359253,78.782036 557.692078,78.801537 558.024902,78.818886 
	C564.772766,79.170555 567.500183,80.964058 568.826111,87.567123 
	C569.997559,93.401093 570.524292,99.422722 570.717407,105.381531 
	C571.018616,114.678711 570.797180,123.992813 570.797180,133.357178 
	C573.921082,133.357178 576.624939,133.357178 578.918030,133.357178 
	C578.918030,119.005585 579.162415,105.034546 578.758362,91.082306 
	C578.647522,87.254745 576.923523,83.340553 575.349609,79.722878 
	C573.434998,75.322342 569.656128,72.171692 564.915405,72.261765 
	C557.027222,72.411636 549.126160,73.354279 541.293335,74.423256 
	C536.095032,75.132683 534.165100,78.368637 534.589722,83.891869 
	C535.162903,91.346504 534.732117,98.878326 534.732117,106.377029 
	C534.732117,115.347694 534.732117,124.318359 534.732117,133.511688 
	C537.763184,133.511688 540.355347,133.511688 543.553711,133.511688 
	C543.553711,123.737541 543.553711,114.118889 543.553833,103.500252 
M372.610229,200.910751 
	C372.763458,197.101486 373.338409,193.252609 372.984985,189.490952 
	C372.166870,180.783661 368.850952,177.461685 360.275726,176.373718 
	C356.821777,175.935486 353.295685,175.895676 349.806000,175.941803 
	C340.238647,176.068237 334.581665,180.173203 331.912689,189.504150 
	C328.647705,200.918701 328.660370,212.556961 331.319427,224.067535 
	C333.032501,231.483124 337.837921,236.987747 345.545349,237.602600 
	C354.215454,238.294250 363.010895,237.414337 371.753754,237.218018 
	C371.753754,233.651672 371.753754,231.406967 371.753754,229.463135 
	C366.068451,230.206161 360.655304,231.145584 355.201965,231.576935 
	C344.575073,232.417526 340.729004,229.226410 339.099060,218.632401 
	C338.825989,216.857544 338.791168,215.046036 338.646851,213.258728 
	C346.490875,212.510361 354.062103,211.744492 361.642120,211.078781 
	C367.558655,210.559158 371.067810,207.417252 372.610229,200.910751 
M335.715851,132.130875 
	C336.199493,129.857803 336.683136,127.584740 337.149353,125.393600 
	C330.220306,126.152733 324.301117,127.111305 318.350677,127.381180 
	C309.197998,127.796295 306.140320,125.227470 304.239716,116.275337 
	C303.736145,113.903381 303.562225,111.461441 303.191803,108.717384 
	C307.509186,108.513275 311.306061,108.417999 315.088501,108.131355 
	C318.901459,107.842392 322.700043,107.363342 326.504913,106.967674 
	C332.347321,106.360115 336.141113,103.261604 337.058929,97.433380 
	C337.699310,93.366768 338.241760,89.127274 337.794952,85.079010 
	C336.798462,76.050056 332.966187,72.751587 323.828156,72.072769 
	C321.007233,71.863228 318.169708,71.749748 315.341980,71.782478 
	C304.651306,71.906227 297.855255,76.514610 296.318237,87.040871 
	C294.893585,96.797585 294.491730,106.973991 295.560944,116.755569 
	C296.876801,128.793518 303.926941,134.112350 316.048859,134.044617 
	C322.332001,134.009521 328.609436,132.956833 335.715851,132.130875 
M644.417480,175.912109 
	C630.514343,176.062454 623.623779,180.952988 621.684509,194.448730 
	C620.429626,203.181992 620.541931,212.413437 621.869202,221.143799 
	C623.759338,233.575836 630.702759,238.334625 643.563232,238.330444 
	C656.348389,238.326294 663.607178,233.457748 665.305969,221.151642 
	C666.600586,211.772995 666.409668,201.893478 665.012573,192.514908 
	C663.314575,181.115494 656.863586,176.589661 644.417480,175.912109 
M412.687866,72.954269 
	C407.364838,74.746414 403.990173,78.628510 402.437073,83.758209 
	C398.696320,96.113960 398.460114,108.657722 401.834625,121.139557 
	C403.632843,127.790894 408.107574,132.073776 414.937134,133.384552 
	C424.044342,135.132477 433.014801,133.963867 441.847107,131.913391 
	C441.847107,129.373672 441.847107,127.264977 441.847107,125.844948 
	C434.065094,126.308380 426.476654,127.156044 418.911957,126.980453 
	C416.501770,126.924507 413.083801,124.679817 412.008911,122.506058 
	C409.976929,118.396866 409.308167,113.613586 408.053925,109.041222 
	C416.707123,108.286163 424.136597,107.700409 431.551483,106.967125 
	C435.907623,106.536339 439.654846,104.949753 441.363983,100.469711 
	C444.285065,92.812889 444.419067,85.138885 440.629608,77.785347 
	C439.659515,75.902939 437.475555,73.537430 435.678894,73.383545 
	C428.304932,72.751961 420.865204,72.888435 412.687866,72.954269 
M580.652039,178.684982 
	C578.640747,177.928284 576.684631,176.932007 574.609192,176.453552 
	C560.554199,173.213409 549.815369,178.870972 546.581543,191.721832 
	C543.866028,202.512894 543.784973,213.511871 546.914612,224.278702 
	C549.802063,234.212173 556.079773,238.246979 567.733643,238.320084 
	C579.636536,238.394760 586.174927,234.339401 589.051025,224.265182 
	C592.315247,212.831787 592.357727,201.142334 588.786621,189.835678 
	C587.527161,185.848175 583.871277,182.617615 580.652039,178.684982 
M637.159851,89.402138 
	C635.675415,81.368645 633.203552,73.840614 623.826233,72.228104 
	C614.642700,70.648911 605.637817,71.731255 596.965942,75.530861 
	C594.075745,76.797226 593.087891,78.367882 593.125305,81.499275 
	C593.292786,95.488953 593.198059,109.481766 593.198059,123.473442 
	C593.198059,126.751534 593.198120,130.029633 593.198120,133.508057 
	C596.390137,133.508057 598.974243,133.508057 602.091919,133.508057 
	C602.091919,131.697479 602.091919,130.083801 602.091919,128.470139 
	C602.091919,114.645027 602.091736,100.819916 602.091980,86.994804 
	C602.092163,79.945366 602.092529,79.945366 609.041870,79.051872 
	C623.359131,77.211067 628.292786,81.140144 628.921936,95.741043 
	C629.387695,106.549744 629.177734,117.387619 629.263916,128.212540 
	C629.277893,129.965469 629.265869,131.718597 629.265869,133.424500 
	C632.640381,133.424500 635.230408,133.424500 637.305359,133.424500 
	C637.305359,118.828964 637.305359,104.547562 637.159851,89.402138 
M506.987030,183.059082 
	C521.696045,182.388641 525.206726,185.345062 525.947388,199.809616 
	C526.355530,207.781158 526.196838,215.782501 526.260254,223.770660 
	C526.296875,228.375992 526.266907,232.981857 526.266907,237.690552 
	C529.503540,237.690552 532.097900,237.690552 534.402832,237.690552 
	C534.402832,223.222122 534.579224,208.970963 534.272949,194.730194 
	C534.200684,191.369431 532.801086,187.921173 531.486084,184.729919 
	C529.431396,179.743698 525.443237,176.826065 520.073608,176.188187 
	C511.003174,175.110657 502.193085,175.979996 493.730438,179.801743 
	C491.063812,181.006012 490.103607,182.486679 490.129761,185.433289 
	C490.274414,201.745071 490.191193,218.058807 490.217285,234.371826 
	C490.219055,235.478607 490.476837,236.584991 490.612488,237.666870 
	C493.510895,237.666870 496.110718,237.666870 499.138367,237.666870 
	C499.138367,222.322662 499.461182,207.204681 498.973877,192.112839 
	C498.788147,186.360077 500.160248,183.322052 506.987030,183.059082 
M481.944489,102.287766 
	C479.918121,108.436485 477.891754,114.585205 475.865387,120.733925 
	C475.388977,120.746109 474.912598,120.758286 474.436188,120.770470 
	C469.754303,104.602325 465.072418,88.434174 460.442383,72.445145 
	C457.508575,72.445145 454.895874,72.445145 450.989990,72.445145 
	C457.251068,91.800453 463.318481,110.560661 469.389099,129.319824 
	C470.308502,132.160919 471.522064,133.934097 475.256500,133.921616 
	C479.095215,133.908768 480.582947,132.345520 481.500610,129.128174 
	C482.044586,127.220871 483.025177,125.441261 483.620422,123.544914 
	C488.919128,106.663925 494.175629,89.769691 499.573608,72.465790 
	C495.646851,72.465790 492.899048,72.465790 490.159668,72.465790 
	C487.428223,82.307602 484.764954,91.903702 481.944489,102.287766 
M390.430817,212.404800 
	C390.642212,206.925690 390.540741,201.412598 391.131165,195.974640 
	C392.305511,185.158295 395.952454,182.086853 406.716705,182.614136 
	C411.605927,182.853622 416.470032,183.605713 421.301971,184.120636 
	C421.301971,181.683945 421.301971,179.603195 421.301971,176.797226 
	C414.212585,176.508514 407.431610,175.925644 400.661896,176.035217 
	C392.420502,176.168610 386.690491,180.341614 384.348755,188.290817 
	C380.652069,200.839737 380.726105,213.606033 384.232330,226.200348 
	C385.900879,232.193558 389.992065,236.923599 396.278168,237.510910 
	C404.563995,238.285095 412.976776,237.701233 421.381042,237.701233 
	C421.381042,234.190338 421.381042,232.105606 421.381042,229.782776 
	C418.151672,230.262466 415.226379,230.798599 412.277679,231.118256 
	C395.047272,232.986099 392.325012,230.743622 390.430817,212.404800 
M299.957245,231.302261 
	C304.128876,238.980865 312.979095,240.994232 322.118835,236.444962 
	C322.118835,234.274094 322.118835,232.190704 322.118835,229.817200 
	C319.507141,230.250946 317.235413,230.624557 314.965027,231.006027 
	C310.123199,231.819550 307.330688,229.416412 307.248566,224.883148 
	C306.999084,211.117157 307.158203,197.343765 307.158203,183.754959 
	C312.137268,183.754959 316.726471,183.754959 321.302124,183.754959 
	C321.302124,181.218155 321.302124,178.984818 321.302124,176.260559 
	C316.407898,176.260559 311.836884,176.260559 306.880249,176.260559 
	C306.880249,172.007492 306.880249,168.237854 306.880249,164.080887 
	C303.692688,164.376434 300.957123,164.630066 298.150940,164.890244 
	C298.150940,184.263748 298.087555,203.248337 298.220856,222.231552 
	C298.240356,225.006058 299.197083,227.773987 299.957245,231.302261 
M601.262390,183.499893 
	C601.262390,201.559662 601.262390,219.619431 601.262390,237.642670 
	C604.588684,237.642670 607.179565,237.642670 609.817871,237.642670 
	C609.817871,208.545135 609.817871,179.717239 609.817871,150.700241 
	C606.886475,150.892914 604.293579,151.063339 601.262451,151.262573 
	C601.262451,161.942932 601.262451,172.221405 601.262390,183.499893 
M511.430267,109.499802 
	C511.430267,117.453850 511.430267,125.407906 511.430267,133.541199 
	C514.636658,133.541199 517.233215,133.541199 520.046082,133.541199 
	C520.046082,113.052826 520.046082,92.777214 520.046082,72.403885 
	C517.198975,72.403885 514.590210,72.403885 511.430420,72.403885 
	C511.430420,84.579308 511.430420,96.539558 511.430267,109.499802 
M511.610901,61.794598 
	C514.359680,62.199718 517.108459,62.604839 520.113159,63.047680 
	C520.113159,58.860317 520.113159,55.583939 520.113159,51.960850 
	C518.631470,51.960850 517.327820,51.927944 516.026611,51.969673 
	C514.596130,52.015545 513.167908,52.130100 511.439392,52.232456 
	C511.439392,55.350792 511.439392,58.146572 511.610901,61.794598 
z"></path>
<path fill="#4DC2F0" opacity="1.000000" stroke="none" d="
M54.922409,228.060410 
	C36.595646,206.373199 28.240829,181.649277 28.996931,153.631775 
	C30.279903,106.091087 68.750839,62.984612 115.645203,54.785412 
	C170.046066,45.273743 225.265015,80.089523 237.592331,137.235565 
	C249.640930,193.089615 211.736206,251.442062 155.496170,261.871887 
	C115.994110,269.197632 82.554123,257.596008 54.922409,228.060410 
M205.077713,140.692429 
	C204.723526,135.900421 204.759384,131.041794 203.954132,126.326813 
	C196.846268,84.708488 155.375977,55.003426 114.006660,62.251507 
	C65.181053,70.805962 28.151646,120.147141 36.511185,173.292877 
	C37.157875,177.404205 38.217270,181.450623 39.222855,186.175705 
	C40.142574,176.881714 40.971554,168.504730 42.088104,160.821442 
	C43.495235,165.414597 44.902367,170.007736 46.263638,175.507050 
	C46.519840,192.774902 50.830154,208.911270 61.332680,222.743774 
	C83.115677,251.433395 113.311768,261.107666 147.585220,256.564148 
	C216.922806,247.372345 254.362061,172.078262 220.799362,110.672981 
	C210.272507,91.413345 194.935333,76.999825 173.921814,68.200806 
	C173.458084,68.236794 172.994354,68.272781 172.530624,68.308769 
	C172.965927,68.598740 173.401245,68.888718 174.204208,69.740433 
	C193.950928,83.600494 206.130447,102.387169 210.449722,126.106667 
	C212.263779,136.068680 213.133469,146.132462 209.439331,155.493225 
	C207.951691,150.895767 206.464066,146.298325 205.077713,140.692429 
M40.159866,187.905991 
	C40.224495,188.349579 40.289127,188.793167 40.353760,189.236755 
	C40.523067,189.200439 40.692375,189.164108 40.861687,189.127777 
	C40.744007,188.593063 40.626328,188.058334 40.159866,187.905991 
z"></path>
<path fill="#252523" opacity="1.000000" stroke="none" d="
M708.102173,176.869873 
	C718.187988,179.118210 718.194580,179.118210 718.186401,189.028244 
	C718.174377,203.670502 718.317383,218.315872 718.041504,232.953278 
	C717.948547,237.883759 717.265503,242.923019 715.997559,247.685028 
	C713.763672,256.074860 708.501831,260.162659 699.884460,260.851990 
	C696.415588,261.129486 692.895081,261.008667 689.413452,260.805176 
	C686.287720,260.622498 683.183167,260.077972 679.786621,259.658142 
	C679.786621,256.994690 679.786621,254.603653 679.786621,252.415253 
	C686.406799,252.960632 692.834961,253.440887 699.252563,254.034851 
	C704.191956,254.491959 706.728394,251.904800 707.616028,247.442276 
	C708.387573,243.563828 708.841064,239.622131 709.395874,235.967239 
	C703.670654,236.786530 698.391052,237.918182 693.065247,238.211639 
	C685.968567,238.602676 680.716064,234.914459 678.221558,228.509796 
	C672.756531,214.478561 673.080566,200.176178 678.354980,186.170456 
	C680.816406,179.634293 686.605957,176.639481 693.287048,176.177490 
	C698.045532,175.848450 702.875793,176.558151 708.102173,176.869873 
M683.859314,216.187851 
	C685.273010,231.575562 689.443665,234.403824 704.319580,230.065155 
	C704.798401,229.925476 705.278137,229.777313 705.767456,229.687286 
	C708.512268,229.182281 709.392700,227.654419 709.348206,224.798279 
	C709.171753,213.472565 708.891968,202.123993 709.437012,190.821808 
	C709.711487,185.129593 707.172974,183.455429 702.438477,183.022598 
	C700.780212,182.870987 699.117737,182.684418 697.455688,182.668106 
	C689.106934,182.586075 686.182373,184.502090 684.969055,192.913818 
	C683.908813,200.263977 684.128784,207.798767 683.859314,216.187851 
z"></path>
<path fill="#272725" opacity="1.000000" stroke="none" d="
M454.119934,182.976288 
	C440.551636,184.160828 440.551636,184.160828 440.551636,196.817047 
	C440.551636,210.292969 440.551636,223.768875 440.551636,237.577148 
	C437.635468,237.577148 435.060577,237.577148 432.104553,237.577148 
	C432.104553,208.998734 432.104553,180.287582 432.104553,151.182968 
	C434.669678,151.037842 437.284882,150.889877 440.453339,150.710602 
	C440.453339,160.221359 440.453339,169.463837 440.453339,178.119843 
	C446.961334,177.345886 452.974976,176.348907 459.026825,175.982620 
	C466.518707,175.529221 471.636353,179.559204 473.631897,186.432053 
	C475.327362,192.271301 476.240540,198.480301 476.486450,204.566635 
	C476.928558,215.509323 476.611267,226.482681 476.611267,237.674622 
	C473.551422,237.674622 470.945831,237.674622 467.798889,237.674622 
	C467.798889,228.041931 467.998444,218.426285 467.722961,208.824265 
	C467.561523,203.197891 467.074005,197.505890 465.958557,192.000366 
	C464.486267,184.733459 461.970581,183.083755 454.119934,182.976288 
z"></path>
<path fill="#252523" opacity="1.000000" stroke="none" d="
M742.891846,232.435974 
	C736.934753,213.734406 731.093994,195.425766 725.187683,176.911514 
	C734.868652,175.675125 734.748718,175.708221 736.859436,183.357300 
	C740.173279,195.365982 743.643433,207.331879 747.110291,219.297653 
	C747.657166,221.185318 748.535156,222.977051 750.314819,224.945770 
	C754.988647,208.875793 759.662476,192.805817 764.386353,176.563736 
	C767.061218,176.563736 769.833252,176.563736 773.006348,176.563736 
	C768.411072,197.477188 762.506592,217.675644 754.485291,237.221191 
	C751.966125,243.359787 748.739685,249.209808 746.260437,255.362534 
	C744.445923,259.865692 741.747192,261.987854 736.846497,261.017334 
	C735.728271,260.795898 734.528687,260.984741 732.691040,260.984741 
	C736.138062,254.685532 739.252930,248.742065 742.616211,242.942688 
	C744.589294,239.540451 745.388977,236.300491 742.891846,232.435974 
z"></path>
<path fill="#252523" opacity="1.000000" stroke="none" d="
M376.853271,128.915054 
	C373.687073,136.095169 370.790100,142.979538 367.557037,149.702286 
	C363.629730,157.868713 363.507111,157.809753 353.672821,156.301651 
	C357.146820,149.851471 360.782196,143.580521 363.879242,137.054123 
	C364.785889,135.143463 364.770813,132.324234 364.144257,130.230972 
	C358.628235,111.803154 352.872162,93.447243 347.220703,75.059723 
	C346.990417,74.310356 347.094666,73.458160 347.028168,72.421783 
	C349.840332,72.421783 352.459290,72.421783 355.285248,72.421783 
	C359.871826,88.327568 364.477112,104.298302 369.082428,120.269028 
	C369.704834,120.273460 370.327271,120.277901 370.949677,120.282333 
	C374.243042,109.311676 377.554932,98.346527 380.815887,87.366241 
	C381.571320,84.822464 382.156616,82.227989 382.813721,79.655197 
	C384.799866,71.879074 384.798645,71.878761 393.517517,72.505028 
	C389.589172,91.735275 383.891846,110.313591 376.853271,128.915054 
z"></path>
<path fill="#282826" opacity="1.000000" stroke="none" d="
M543.553772,104.000244 
	C543.553711,114.118889 543.553711,123.737541 543.553711,133.511688 
	C540.355347,133.511688 537.763184,133.511688 534.732117,133.511688 
	C534.732117,124.318359 534.732117,115.347694 534.732117,106.377029 
	C534.732117,98.878326 535.162903,91.346504 534.589722,83.891869 
	C534.165100,78.368637 536.095032,75.132683 541.293335,74.423256 
	C549.126160,73.354279 557.027222,72.411636 564.915405,72.261765 
	C569.656128,72.171692 573.434998,75.322342 575.349609,79.722878 
	C576.923523,83.340553 578.647522,87.254745 578.758362,91.082306 
	C579.162415,105.034546 578.918030,119.005585 578.918030,133.357178 
	C576.624939,133.357178 573.921082,133.357178 570.797180,133.357178 
	C570.797180,123.992813 571.018616,114.678711 570.717407,105.381531 
	C570.524292,99.422722 569.997559,93.401093 568.826111,87.567123 
	C567.500183,80.964058 564.772766,79.170555 558.024902,78.818886 
	C557.692078,78.801537 557.359253,78.782036 557.026245,78.771606 
	C544.365906,78.374931 543.553894,79.142395 543.553894,91.502365 
	C543.553894,95.501663 543.553894,99.500954 543.553772,104.000244 
z"></path>
<path fill="#242422" opacity="1.000000" stroke="none" d="
M372.465271,201.286575 
	C371.067810,207.417252 367.558655,210.559158 361.642120,211.078781 
	C354.062103,211.744492 346.490875,212.510361 338.646851,213.258728 
	C338.791168,215.046036 338.825989,216.857544 339.099060,218.632401 
	C340.729004,229.226410 344.575073,232.417526 355.201965,231.576935 
	C360.655304,231.145584 366.068451,230.206161 371.753754,229.463135 
	C371.753754,231.406967 371.753754,233.651672 371.753754,237.218018 
	C363.010895,237.414337 354.215454,238.294250 345.545349,237.602600 
	C337.837921,236.987747 333.032501,231.483124 331.319427,224.067535 
	C328.660370,212.556961 328.647705,200.918701 331.912689,189.504150 
	C334.581665,180.173203 340.238647,176.068237 349.806000,175.941803 
	C353.295685,175.895676 356.821777,175.935486 360.275726,176.373718 
	C368.850952,177.461685 372.166870,180.783661 372.984985,189.490952 
	C373.338409,193.252609 372.763458,197.101486 372.465271,201.286575 
M352.501923,182.541306 
	C348.280762,182.914474 343.137756,182.077927 341.597321,187.424606 
	C339.847931,193.496429 339.002319,199.828644 337.566345,207.039413 
	C345.982819,206.132126 352.874664,205.458481 359.740570,204.581787 
	C360.904022,204.433243 362.366608,203.687103 362.995300,202.750244 
	C368.717438,194.222977 363.584595,183.524460 352.501923,182.541306 
z"></path>
<path fill="#252523" opacity="1.000000" stroke="none" d="
M335.302673,132.247375 
	C328.609436,132.956833 322.332001,134.009521 316.048859,134.044617 
	C303.926941,134.112350 296.876801,128.793518 295.560944,116.755569 
	C294.491730,106.973991 294.893585,96.797585 296.318237,87.040871 
	C297.855255,76.514610 304.651306,71.906227 315.341980,71.782478 
	C318.169708,71.749748 321.007233,71.863228 323.828156,72.072769 
	C332.966187,72.751587 336.798462,76.050056 337.794952,85.079010 
	C338.241760,89.127274 337.699310,93.366768 337.058929,97.433380 
	C336.141113,103.261604 332.347321,106.360115 326.504913,106.967674 
	C322.700043,107.363342 318.901459,107.842392 315.088501,108.131355 
	C311.306061,108.417999 307.509186,108.513275 303.191803,108.717384 
	C303.562225,111.461441 303.736145,113.903381 304.239716,116.275337 
	C306.140320,125.227470 309.197998,127.796295 318.350677,127.381180 
	C324.301117,127.111305 330.220306,126.152733 337.149353,125.393600 
	C336.683136,127.584740 336.199493,129.857803 335.302673,132.247375 
M329.376282,90.476540 
	C329.200684,80.537193 326.696930,78.032341 316.810516,78.356155 
	C312.524811,78.496536 307.585052,78.329178 306.163208,83.682022 
	C304.579498,89.643967 303.710144,95.795662 302.372284,102.674706 
	C309.032837,102.089165 314.305359,101.723740 319.553894,101.142250 
	C328.404724,100.161682 328.398346,100.104080 329.376282,90.476540 
z"></path>
<path fill="#242422" opacity="1.000000" stroke="none" d="
M644.876953,175.915710 
	C656.863586,176.589661 663.314575,181.115494 665.012573,192.514908 
	C666.409668,201.893478 666.600586,211.772995 665.305969,221.151642 
	C663.607178,233.457748 656.348389,238.326294 643.563232,238.330444 
	C630.702759,238.334625 623.759338,233.575836 621.869202,221.143799 
	C620.541931,212.413437 620.429626,203.181992 621.684509,194.448730 
	C623.623779,180.952988 630.514343,176.062454 644.876953,175.915710 
M654.385315,187.295517 
	C650.272583,181.348480 643.822144,182.272858 638.507996,183.435776 
	C635.597229,184.072739 632.469116,188.518677 631.401855,191.871826 
	C628.277100,201.688812 628.550537,211.886887 630.843018,221.909790 
	C632.573914,229.477310 635.279480,231.231537 644.188843,231.530441 
	C650.905762,231.755798 654.156982,229.667435 656.015808,222.703568 
	C659.123718,211.059708 658.967590,199.398697 654.385315,187.295517 
z"></path>
<path fill="#242422" opacity="1.000000" stroke="none" d="
M413.068787,72.848282 
	C420.865204,72.888435 428.304932,72.751961 435.678894,73.383545 
	C437.475555,73.537430 439.659515,75.902939 440.629608,77.785347 
	C444.419067,85.138885 444.285065,92.812889 441.363983,100.469711 
	C439.654846,104.949753 435.907623,106.536339 431.551483,106.967125 
	C424.136597,107.700409 416.707123,108.286163 408.053925,109.041222 
	C409.308167,113.613586 409.976929,118.396866 412.008911,122.506058 
	C413.083801,124.679817 416.501770,126.924507 418.911957,126.980453 
	C426.476654,127.156044 434.065094,126.308380 441.847107,125.844948 
	C441.847107,127.264977 441.847107,129.373672 441.847107,131.913391 
	C433.014801,133.963867 424.044342,135.132477 414.937134,133.384552 
	C408.107574,132.073776 403.632843,127.790894 401.834625,121.139557 
	C398.460114,108.657722 398.696320,96.113960 402.437073,83.758209 
	C403.990173,78.628510 407.364838,74.746414 413.068787,72.848282 
M434.287506,93.673660 
	C436.162476,81.608116 431.899109,76.953270 419.890808,78.622520 
	C417.108551,79.009262 413.482239,80.493378 412.134491,82.652428 
	C408.459686,88.539398 408.607178,95.428658 408.735962,102.647621 
	C415.623199,102.005630 421.883942,101.383301 428.152405,100.851814 
	C432.098938,100.517204 434.195801,98.553909 434.287506,93.673660 
z"></path>
<path fill="#232321" opacity="1.000000" stroke="none" d="
M580.980774,178.863220 
	C583.871277,182.617615 587.527161,185.848175 588.786621,189.835678 
	C592.357727,201.142334 592.315247,212.831787 589.051025,224.265182 
	C586.174927,234.339401 579.636536,238.394760 567.733643,238.320084 
	C556.079773,238.246979 549.802063,234.212173 546.914612,224.278702 
	C543.784973,213.511871 543.866028,202.512894 546.581543,191.721832 
	C549.815369,178.870972 560.554199,173.213409 574.609192,176.453552 
	C576.684631,176.932007 578.640747,177.928284 580.980774,178.863220 
M577.728882,228.328842 
	C584.548767,216.317871 582.982178,203.607544 580.320251,191.030533 
	C578.945007,184.533020 575.751221,183.056320 567.408997,182.937103 
	C560.585999,182.839584 558.102356,184.369949 556.039490,190.799728 
	C552.813171,200.855850 553.149231,211.152420 555.085571,221.354187 
	C556.981384,231.342819 568.925964,235.288071 577.728882,228.328842 
z"></path>
<path fill="#262624" opacity="1.000000" stroke="none" d="
M637.232605,89.834152 
	C637.305359,104.547562 637.305359,118.828964 637.305359,133.424500 
	C635.230408,133.424500 632.640381,133.424500 629.265869,133.424500 
	C629.265869,131.718597 629.277893,129.965469 629.263916,128.212540 
	C629.177734,117.387619 629.387695,106.549744 628.921936,95.741043 
	C628.292786,81.140144 623.359131,77.211067 609.041870,79.051872 
	C602.092529,79.945366 602.092163,79.945366 602.091980,86.994804 
	C602.091736,100.819916 602.091919,114.645027 602.091919,128.470139 
	C602.091919,130.083801 602.091919,131.697479 602.091919,133.508057 
	C598.974243,133.508057 596.390137,133.508057 593.198120,133.508057 
	C593.198120,130.029633 593.198059,126.751534 593.198059,123.473442 
	C593.198059,109.481766 593.292786,95.488953 593.125305,81.499275 
	C593.087891,78.367882 594.075745,76.797226 596.965942,75.530861 
	C605.637817,71.731255 614.642700,70.648911 623.826233,72.228104 
	C633.203552,73.840614 635.675415,81.368645 637.232605,89.834152 
z"></path>
<path fill="#262624" opacity="1.000000" stroke="none" d="
M506.543793,183.103836 
	C500.160248,183.322052 498.788147,186.360077 498.973877,192.112839 
	C499.461182,207.204681 499.138367,222.322662 499.138367,237.666870 
	C496.110718,237.666870 493.510895,237.666870 490.612488,237.666870 
	C490.476837,236.584991 490.219055,235.478607 490.217285,234.371826 
	C490.191193,218.058807 490.274414,201.745071 490.129761,185.433289 
	C490.103607,182.486679 491.063812,181.006012 493.730438,179.801743 
	C502.193085,175.979996 511.003174,175.110657 520.073608,176.188187 
	C525.443237,176.826065 529.431396,179.743698 531.486084,184.729919 
	C532.801086,187.921173 534.200684,191.369431 534.272949,194.730194 
	C534.579224,208.970963 534.402832,223.222122 534.402832,237.690552 
	C532.097900,237.690552 529.503540,237.690552 526.266907,237.690552 
	C526.266907,232.981857 526.296875,228.375992 526.260254,223.770660 
	C526.196838,215.782501 526.355530,207.781158 525.947388,199.809616 
	C525.206726,185.345062 521.696045,182.388641 506.543793,183.103836 
z"></path>
<path fill="#252523" opacity="1.000000" stroke="none" d="
M482.023071,101.893784 
	C484.764954,91.903702 487.428223,82.307602 490.159668,72.465790 
	C492.899048,72.465790 495.646851,72.465790 499.573608,72.465790 
	C494.175629,89.769691 488.919128,106.663925 483.620422,123.544914 
	C483.025177,125.441261 482.044586,127.220871 481.500610,129.128174 
	C480.582947,132.345520 479.095215,133.908768 475.256500,133.921616 
	C471.522064,133.934097 470.308502,132.160919 469.389099,129.319824 
	C463.318481,110.560661 457.251068,91.800453 450.989990,72.445145 
	C454.895874,72.445145 457.508575,72.445145 460.442383,72.445145 
	C465.072418,88.434174 469.754303,104.602325 474.436188,120.770470 
	C474.912598,120.758286 475.388977,120.746109 475.865387,120.733925 
	C477.891754,114.585205 479.918121,108.436485 482.023071,101.893784 
z"></path>
<path fill="#252523" opacity="1.000000" stroke="none" d="
M390.491516,212.882965 
	C392.325012,230.743622 395.047272,232.986099 412.277679,231.118256 
	C415.226379,230.798599 418.151672,230.262466 421.381042,229.782776 
	C421.381042,232.105606 421.381042,234.190338 421.381042,237.701233 
	C412.976776,237.701233 404.563995,238.285095 396.278168,237.510910 
	C389.992065,236.923599 385.900879,232.193558 384.232330,226.200348 
	C380.726105,213.606033 380.652069,200.839737 384.348755,188.290817 
	C386.690491,180.341614 392.420502,176.168610 400.661896,176.035217 
	C407.431610,175.925644 414.212585,176.508514 421.301971,176.797226 
	C421.301971,179.603195 421.301971,181.683945 421.301971,184.120636 
	C416.470032,183.605713 411.605927,182.853622 406.716705,182.614136 
	C395.952454,182.086853 392.305511,185.158295 391.131165,195.974640 
	C390.540741,201.412598 390.642212,206.925690 390.491516,212.882965 
z"></path>
<path fill="#242422" opacity="1.000000" stroke="none" d="
M299.838684,230.923615 
	C299.197083,227.773987 298.240356,225.006058 298.220856,222.231552 
	C298.087555,203.248337 298.150940,184.263748 298.150940,164.890244 
	C300.957123,164.630066 303.692688,164.376434 306.880249,164.080887 
	C306.880249,168.237854 306.880249,172.007492 306.880249,176.260559 
	C311.836884,176.260559 316.407898,176.260559 321.302124,176.260559 
	C321.302124,178.984818 321.302124,181.218155 321.302124,183.754959 
	C316.726471,183.754959 312.137268,183.754959 307.158203,183.754959 
	C307.158203,197.343765 306.999084,211.117157 307.248566,224.883148 
	C307.330688,229.416412 310.123199,231.819550 314.965027,231.006027 
	C317.235413,230.624557 319.507141,230.250946 322.118835,229.817200 
	C322.118835,232.190704 322.118835,234.274094 322.118835,236.444962 
	C312.979095,240.994232 304.128876,238.980865 299.838684,230.923615 
z"></path>
<path fill="#272725" opacity="1.000000" stroke="none" d="
M601.262451,182.999878 
	C601.262451,172.221405 601.262451,161.942932 601.262451,151.262573 
	C604.293579,151.063339 606.886475,150.892914 609.817871,150.700241 
	C609.817871,179.717239 609.817871,208.545135 609.817871,237.642670 
	C607.179565,237.642670 604.588684,237.642670 601.262390,237.642670 
	C601.262390,219.619431 601.262390,201.559662 601.262451,182.999878 
z"></path>
<path fill="#2B2B2A" opacity="1.000000" stroke="none" d="
M511.430359,108.999802 
	C511.430420,96.539558 511.430420,84.579308 511.430420,72.403885 
	C514.590210,72.403885 517.198975,72.403885 520.046082,72.403885 
	C520.046082,92.777214 520.046082,113.052826 520.046082,133.541199 
	C517.233215,133.541199 514.636658,133.541199 511.430267,133.541199 
	C511.430267,125.407906 511.430267,117.453850 511.430359,108.999802 
z"></path>
<path fill="#2F2F2E" opacity="1.000000" stroke="none" d="
M511.525146,61.368477 
	C511.439392,58.146572 511.439392,55.350792 511.439392,52.232456 
	C513.167908,52.130100 514.596130,52.015545 516.026611,51.969673 
	C517.327820,51.927944 518.631470,51.960850 520.113159,51.960850 
	C520.113159,55.583939 520.113159,58.860317 520.113159,63.047680 
	C517.108459,62.604839 514.359680,62.199718 511.525146,61.368477 
z"></path>
<path fill="#FDFEFE" opacity="1.000000" stroke="none" d="
M174.371353,68.582497 
	C194.935333,76.999825 210.272507,91.413345 220.799362,110.672981 
	C254.362061,172.078262 216.922806,247.372345 147.585220,256.564148 
	C113.311768,261.107666 83.115677,251.433395 61.332680,222.743774 
	C50.830154,208.911270 46.519840,192.774902 46.512939,175.323914 
	C47.553814,176.787277 48.266804,178.477158 49.148567,180.073837 
	C66.181343,210.915649 92.305450,227.456985 127.549431,226.780273 
	C162.126633,226.116379 187.645828,209.195282 203.211395,178.274796 
	C206.637848,171.468277 207.753387,163.498444 209.933060,156.064301 
	C213.133469,146.132462 212.263779,136.068680 210.449722,126.106667 
	C206.130447,102.387169 193.950928,83.600494 174.155304,69.311615 
	C174.106384,68.882797 174.371353,68.582497 174.371353,68.582497 
z"></path>
<path fill="#FCFDFE" opacity="1.000000" stroke="none" d="
M41.800529,160.127747 
	C40.971554,168.504730 40.142574,176.881714 39.222855,186.175705 
	C38.217270,181.450623 37.157875,177.404205 36.511185,173.292877 
	C28.151646,120.147141 65.181053,70.805962 114.006660,62.251507 
	C155.375977,55.003426 196.846268,84.708488 203.954132,126.326813 
	C204.759384,131.041794 204.723526,135.900421 204.752686,140.919525 
	C183.748291,97.233376 134.441986,78.322548 90.715424,98.132401 
	C63.966217,110.250847 47.386593,131.005310 41.800529,160.127747 
z"></path>
<path fill="#262624" opacity="1.000000" stroke="none" d="
M41.944317,160.474594 
	C47.386593,131.005310 63.966217,110.250847 90.715424,98.132401 
	C134.441986,78.322548 183.748291,97.233376 204.702042,141.423737 
	C206.464066,146.298325 207.951691,150.895767 209.686188,155.778763 
	C207.753387,163.498444 206.637848,171.468277 203.211395,178.274796 
	C187.645828,209.195282 162.126633,226.116379 127.549431,226.780273 
	C92.305450,227.456985 66.181343,210.915649 49.148567,180.073837 
	C48.266804,178.477158 47.553814,176.787277 46.535873,174.870850 
	C44.902367,170.007736 43.495235,165.414597 41.944317,160.474594 
M178.942093,200.455856 
	C190.333893,190.170181 198.342957,177.733429 202.282822,162.872437 
	C203.005798,160.145401 203.111603,156.872757 202.336594,154.188538 
	C192.490631,120.087074 161.624130,96.908356 126.305809,96.846191 
	C90.585205,96.783318 59.588734,119.807434 49.692341,154.066132 
	C48.795341,157.171295 48.816093,161.018188 49.760593,164.107956 
	C66.749115,219.682632 132.918671,238.560272 178.942093,200.455856 
z"></path>
<path fill="#FCFDFE" opacity="1.000000" stroke="none" d="
M40.334259,187.714813 
	C40.626328,188.058334 40.744007,188.593063 40.861687,189.127777 
	C40.692375,189.164108 40.523067,189.200439 40.353760,189.236755 
	C40.289127,188.793167 40.224495,188.349579 40.334259,187.714813 
z"></path>
<path fill="#FDFEFE" opacity="1.000000" stroke="none" d="
M173.971466,69.030746 
	C173.401245,68.888718 172.965927,68.598740 172.530624,68.308762 
	C172.994354,68.272781 173.458084,68.236794 174.146576,68.391647 
	C174.371353,68.582497 174.106384,68.882797 173.971466,69.030746 
z"></path>
<path fill="#FDFDFD" opacity="1.000000" stroke="none" d="
M683.821228,215.719925 
	C684.128784,207.798767 683.908813,200.263977 684.969055,192.913818 
	C686.182373,184.502090 689.106934,182.586075 697.455688,182.668106 
	C699.117737,182.684418 700.780212,182.870987 702.438477,183.022598 
	C707.172974,183.455429 709.711487,185.129593 709.437012,190.821808 
	C708.891968,202.123993 709.171753,213.472565 709.348206,224.798279 
	C709.392700,227.654419 708.512268,229.182281 705.767456,229.687286 
	C705.278137,229.777313 704.798401,229.925476 704.319580,230.065155 
	C689.443665,234.403824 685.273010,231.575562 683.821228,215.719925 
z"></path>
<path fill="#FBFBFB" opacity="1.000000" stroke="none" d="
M352.959625,182.558289 
	C363.584595,183.524460 368.717438,194.222977 362.995300,202.750244 
	C362.366608,203.687103 360.904022,204.433243 359.740570,204.581787 
	C352.874664,205.458481 345.982819,206.132126 337.566345,207.039413 
	C339.002319,199.828644 339.847931,193.496429 341.597321,187.424606 
	C343.137756,182.077927 348.280762,182.914474 352.959625,182.558289 
z"></path>
<path fill="#FBFBFB" opacity="1.000000" stroke="none" d="
M329.328308,90.930725 
	C328.398346,100.104080 328.404724,100.161682 319.553894,101.142250 
	C314.305359,101.723740 309.032837,102.089165 302.372284,102.674706 
	C303.710144,95.795662 304.579498,89.643967 306.163208,83.682022 
	C307.585052,78.329178 312.524811,78.496536 316.810516,78.356155 
	C326.696930,78.032341 329.200684,80.537193 329.328308,90.930725 
z"></path>
<path fill="#FCFCFC" opacity="1.000000" stroke="none" d="
M654.601196,187.618195 
	C658.967590,199.398697 659.123718,211.059708 656.015808,222.703568 
	C654.156982,229.667435 650.905762,231.755798 644.188843,231.530441 
	C635.279480,231.231537 632.573914,229.477310 630.843018,221.909790 
	C628.550537,211.886887 628.277100,201.688812 631.401855,191.871826 
	C632.469116,188.518677 635.597229,184.072739 638.507996,183.435776 
	C643.822144,182.272858 650.272583,181.348480 654.601196,187.618195 
z"></path>
<path fill="#FAFAFA" opacity="1.000000" stroke="none" d="
M434.220764,94.090210 
	C434.195801,98.553909 432.098938,100.517204 428.152405,100.851814 
	C421.883942,101.383301 415.623199,102.005630 408.735962,102.647621 
	C408.607178,95.428658 408.459686,88.539398 412.134491,82.652428 
	C413.482239,80.493378 417.108551,79.009262 419.890808,78.622520 
	C431.899109,76.953270 436.162476,81.608116 434.220764,94.090210 
z"></path>
<path fill="#FDFDFD" opacity="1.000000" stroke="none" d="
M577.459961,228.621094 
	C568.925964,235.288071 556.981384,231.342819 555.085571,221.354187 
	C553.149231,211.152420 552.813171,200.855850 556.039490,190.799728 
	C558.102356,184.369949 560.585999,182.839584 567.408997,182.937103 
	C575.751221,183.056320 578.945007,184.533020 580.320251,191.030533 
	C582.982178,203.607544 584.548767,216.317871 577.459961,228.621094 
z"></path>
<path fill="#F9F9F9" opacity="1.000000" stroke="none" d="
M178.681152,200.695496 
	C132.918671,238.560272 66.749115,219.682632 49.760593,164.107956 
	C48.816093,161.018188 48.795341,157.171295 49.692341,154.066132 
	C59.588734,119.807434 90.585205,96.783318 126.305809,96.846191 
	C161.624130,96.908356 192.490631,120.087074 202.336594,154.188538 
	C203.111603,156.872757 203.005798,160.145401 202.282822,162.872437 
	C198.342957,177.733429 190.333893,190.170181 178.681152,200.695496 
M88.123901,192.318146 
	C103.694992,211.941772 123.777382,219.608200 148.229813,213.921631 
	C178.388016,206.908142 196.865158,176.203751 189.929474,145.588913 
	C183.225113,115.995125 153.354355,96.676041 123.602913,102.691833 
	C82.384735,111.026207 64.044373,156.562210 88.123901,192.318146 
z"></path>
<path fill="#262624" opacity="1.000000" stroke="none" d="
M87.937286,192.012512 
	C64.044373,156.562210 82.384735,111.026207 123.602913,102.691833 
	C153.354355,96.676041 183.225113,115.995125 189.929474,145.588913 
	C196.865158,176.203751 178.388016,206.908142 148.229813,213.921631 
	C123.777382,219.608200 103.694992,211.941772 87.937286,192.012512 
M107.102402,201.507492 
	C119.302055,209.082443 132.445923,211.145691 146.365005,207.917450 
	C170.712097,202.270660 187.607239,178.230621 184.831802,153.394135 
	C181.982452,127.896202 160.659943,108.270004 135.470917,107.960182 
	C112.538795,107.678131 92.757164,121.815269 85.963341,143.341248 
	C79.095215,165.102661 87.099197,187.598129 107.102402,201.507492 
z"></path>
<path fill="#FEFEFE" opacity="1.000000" stroke="none" d="
M106.805603,201.296249 
	C87.099197,187.598129 79.095215,165.102661 85.963341,143.341248 
	C92.757164,121.815269 112.538795,107.678131 135.470917,107.960182 
	C160.659943,108.270004 181.982452,127.896202 184.831802,153.394135 
	C187.607239,178.230621 170.712097,202.270660 146.365005,207.917450 
	C132.445923,211.145691 119.302055,209.082443 106.805603,201.296249 
z"></path>
</svg>