<svg width="279" height="60" viewBox="0 0 279 60" fill="none" xmlns="http://www.w3.org/2000/svg">
<path fill-rule="evenodd" clip-rule="evenodd" d="M5.57678 0.228755C5.57678 0.228755 1.40836 0.151544 0.177078 4.61694C0.177078 4.61694 -0.438564 7.42229 0.625984 9.3397L36.3846 14.4099C36.3846 14.4099 38.4623 14.5 38.2956 16.9965C38.2956 16.9965 37.975 18.9268 36.1537 18.9139L7.14153 20.8313L19.5057 42.5535L32.7805 28.2565C32.7805 28.2565 33.845 26.8538 35.8202 27.9219C35.8202 27.9219 37.3978 29.183 36.5 30.8431L24.123 50.6478L27.7271 57.4038C27.7271 57.4038 29.6766 60.1834 33.0627 59.9904C33.0627 59.9904 36.4615 60.0419 38.5265 56.3872L64.9478 9.12094C64.9478 9.12094 66.9486 4.99013 64.268 2.14617C64.268 2.14617 62.5109 -0.17017 59.3172 0.00998971L5.57678 0.228755Z" fill="#14CC80"/>
<path d="M106.813 7.78012L106.12 11.8595C106.005 12.5286 105.799 12.9919 105.492 13.2493C105.197 13.5066 104.684 13.6224 103.965 13.6224H89.0231C88.3049 13.6224 87.7534 13.7897 87.3686 14.1243C86.9069 14.5361 86.599 15.1667 86.4451 16.0417L84.7649 25.8991H100.797C101.503 25.8991 101.939 26.0149 102.118 26.2465C102.298 26.4781 102.336 26.9543 102.208 27.6749L101.516 31.7543C101.4 32.4492 101.208 32.9253 100.938 33.1569C100.682 33.4014 100.194 33.5173 99.5019 33.5173H83.4695L80.3144 52.0094C80.1861 52.7815 79.9809 53.2834 79.6859 53.5021C79.4037 53.7338 78.865 53.8496 78.0698 53.8496H72.901C72.1058 53.8496 71.6056 53.7338 71.4004 53.5021C71.1951 53.2705 71.1567 52.7686 71.2849 52.0094L77.6466 14.6519C78.1211 11.8595 79.16 9.72327 80.7633 8.25625C82.4178 6.73776 84.688 5.97852 87.5738 5.97852H105.248C105.966 5.97852 106.441 6.09433 106.659 6.33884C106.877 6.58334 106.928 7.04661 106.8 7.74151L106.813 7.78012ZM134.247 29.0905L130.258 52.4598C130.104 53.3992 129.514 53.8753 128.501 53.8753H125.179C124.641 53.8753 124.256 53.7724 124.051 53.5665C123.833 53.3606 123.717 53.0131 123.679 52.537L123.538 50.7611H123.409C122.499 52.0351 121.37 52.9874 120.036 53.5922C118.702 54.2099 116.996 54.5188 114.931 54.5188H112.289C110.43 54.5188 108.929 54.3386 107.787 53.9783C106.646 53.618 105.658 53.0131 104.85 52.1767C103.119 50.3493 102.567 47.6083 103.196 43.9279L103.491 42.2035C104.171 38.2143 105.658 35.3703 107.941 33.6717C110.353 31.8443 113.982 30.9307 118.856 30.9307H121.408C122.46 30.9307 123.781 30.9821 125.397 31.0722L125.744 29.039C126.064 27.1344 125.885 25.8347 125.179 25.1398C124.474 24.4449 122.896 24.0975 120.421 24.0975C117.535 24.0975 114.521 24.5607 111.379 25.5001C111.161 25.5773 110.955 25.6031 110.763 25.6031C110.135 25.6031 109.814 25.1656 109.801 24.3034L109.763 20.8546C109.711 20.2369 109.775 19.7479 109.981 19.4004C110.186 19.053 110.583 18.7956 111.199 18.6283C114.854 17.4959 118.548 16.9297 122.268 16.9297C124.782 16.9297 126.795 17.1098 128.296 17.4701C129.797 17.8305 131.092 18.4482 132.182 19.3104C133.349 20.2498 134.093 21.4723 134.427 22.965C134.76 24.4578 134.696 26.491 134.26 29.0647L134.247 29.0905ZM120.049 37.9054H117.561C115.688 37.9054 114.393 38.2014 113.662 38.7805C112.841 39.3596 112.264 40.5821 111.956 42.448L111.802 43.3231C111.533 44.8673 111.712 45.9869 112.315 46.6561C112.892 47.2609 113.893 47.5569 115.316 47.5569H117.907C119.549 47.5569 120.793 47.1579 121.665 46.3601C122.537 45.5622 123.114 44.3011 123.409 42.5896L124.179 38.0599C122.563 37.9569 121.178 37.9183 120.036 37.9183L120.049 37.9054ZM164.234 20.2112L162.644 24.3677C162.387 25.0626 161.951 25.4101 161.335 25.4101C161.13 25.4101 160.912 25.3715 160.694 25.2942C158.642 24.4964 156.385 24.1103 153.948 24.1103C151.742 24.1103 150.228 24.3806 149.395 24.9082C148.664 25.3972 148.202 26.1822 148.009 27.3017L147.92 27.8036C147.753 28.8202 147.92 29.5537 148.407 30.017C148.907 30.4803 149.767 30.8535 150.959 31.1366L155.192 32.1918C158.501 33.0411 160.694 34.3794 161.759 36.2068C162.554 37.6738 162.733 39.7199 162.285 42.358L162.144 43.233C161.554 46.6561 160.155 49.3199 157.911 51.2244C155.205 53.4378 151.485 54.5445 146.752 54.5445C142.725 54.5445 139.185 53.8367 136.171 52.4083C135.594 52.1381 135.248 51.8678 135.158 51.5719C135.119 51.4303 135.094 51.2501 135.107 51.0314C135.145 50.7869 135.235 50.5166 135.389 50.1949L136.774 46.5402C137.133 45.7038 137.608 45.2791 138.21 45.2791C138.441 45.2791 138.698 45.3435 138.98 45.4593C141.917 46.7333 144.662 47.3767 147.227 47.3767C149.446 47.3767 151.062 47.0807 152.037 46.4759C152.922 45.9483 153.473 44.9832 153.717 43.5805L153.807 43.0786C153.999 41.9204 153.845 41.084 153.332 40.5692C152.819 40.0545 151.831 39.6041 150.369 39.218L146.265 38.2014C144.675 37.7896 143.456 37.3392 142.623 36.8502C141.789 36.3612 141.071 35.7049 140.481 34.8813C139.326 33.2728 139.006 30.995 139.506 28.061L139.621 27.4047C140.237 23.8015 141.738 21.1377 144.123 19.4262C146.406 17.7919 149.779 16.9683 154.23 16.9683C155.936 16.9683 157.654 17.1227 159.399 17.4187C161.143 17.7147 162.528 18.0621 163.554 18.4482C164.042 18.6155 164.324 18.8213 164.401 19.0401C164.478 19.2717 164.401 19.6578 164.196 20.2112H164.234ZM190.604 19.5549L189.989 23.1709C189.873 23.8401 189.694 24.3162 189.437 24.5993C189.18 24.8824 188.757 25.0111 188.18 25.0111H181.087L178.33 41.1612C178.099 42.4866 177.996 43.4389 178.009 44.0309C178.022 44.6228 178.176 45.1247 178.458 45.5365C178.881 46.1671 179.946 46.4759 181.652 46.4759H185.14C185.859 46.4759 186.307 46.6046 186.474 46.8491C186.641 47.1065 186.654 47.6083 186.526 48.3805L185.91 52.0351C185.782 52.7815 185.602 53.2705 185.358 53.515C185.115 53.7595 184.627 53.8753 183.883 53.8753H178.753C176.675 53.8753 175.021 53.6823 173.764 53.3091C172.507 52.9359 171.519 52.3311 170.775 51.4818C169.249 49.7445 168.851 46.7976 169.557 42.6282L172.558 24.9983H168.261C167.697 24.9983 167.338 24.8953 167.171 24.7023C167.005 24.5093 166.966 24.1361 167.069 23.5827L167.62 20.327C167.723 19.7479 167.864 19.3618 168.043 19.1688C168.223 18.9758 168.556 18.8471 169.031 18.7699L173.738 17.972L175.059 10.1994C175.187 9.45303 175.405 8.95116 175.726 8.69378C176.047 8.43641 176.611 8.32059 177.393 8.32059H181.895C182.691 8.32059 183.191 8.44928 183.422 8.69378C183.64 8.95116 183.691 9.44016 183.563 10.1994L182.306 17.5731H189.399C190.001 17.5731 190.386 17.7147 190.527 17.9849C190.681 18.268 190.694 18.7699 190.566 19.5163L190.604 19.5549Z" fill="black"/>
<path d="M228.914 20.2008L228.683 21.5391C227.772 26.9053 225.54 30.856 222.013 33.3911C220.154 34.7165 218.076 35.6559 215.767 36.2222C213.458 36.7884 210.752 37.0715 207.661 37.0715H203.506L200.953 52.0248C200.825 52.7969 200.62 53.2987 200.325 53.5175C200.043 53.7491 199.504 53.865 198.709 53.865H193.578C192.783 53.865 192.283 53.7491 192.065 53.5175C191.847 53.2859 191.808 52.784 191.937 52.0248L199.286 8.88932C199.465 7.80836 199.773 7.04911 200.209 6.61158C200.645 6.17405 201.351 5.90381 202.326 5.77512C204.609 5.49201 208.277 5.33759 213.33 5.33759C219.846 5.33759 224.283 6.47002 226.656 8.73489C229.068 10.9998 229.811 14.8217 228.901 20.1879L228.914 20.2008ZM218.794 14.7574C218.178 14.1654 217.396 13.7536 216.447 13.5091C215.498 13.2775 214.1 13.1488 212.266 13.1488C210.611 13.1488 209.328 13.2132 208.392 13.329C207.841 13.4062 207.52 13.7279 207.417 14.3199L204.839 29.2989H209.277C212.535 29.2989 214.933 28.7069 216.46 27.5101C217.986 26.3134 219.012 24.2544 219.512 21.3204L219.679 20.3552C220.141 17.6657 219.846 15.7869 218.794 14.7445V14.7574ZM246.036 8.20728L245.959 8.68342C245.677 10.3177 244.997 11.5917 243.933 12.4925C242.855 13.3933 241.573 13.8437 240.085 13.8437H239.739C237.969 13.8437 236.763 13.4062 236.122 12.544C235.48 11.6818 235.301 10.3821 235.596 8.68342L235.673 8.20728C235.955 6.5215 236.648 5.24751 237.725 4.39819C238.802 3.54886 240.085 3.11133 241.573 3.11133H241.919C243.458 3.11133 244.6 3.53599 245.356 4.37245C246.113 5.2089 246.344 6.49576 246.049 8.19441L246.036 8.20728ZM241.496 17.6013C242.291 17.6013 242.804 17.73 243.035 17.9874C243.266 18.2448 243.33 18.7338 243.202 19.4801L237.648 52.0248C237.52 52.7454 237.302 53.2344 236.981 53.4918C236.66 53.7491 236.096 53.8778 235.314 53.8778H230.812C230.017 53.8778 229.516 53.762 229.286 53.5175C229.055 53.273 229.003 52.784 229.132 52.0376L234.672 19.493C234.801 18.7466 235.019 18.2448 235.327 18.0003C235.634 17.7429 236.186 17.6142 236.981 17.6142H241.483L241.496 17.6013ZM278.999 18.4249C278.96 18.6437 278.832 18.9139 278.614 19.2485L267.84 34.4978C267.507 34.961 267.43 35.4372 267.596 35.9262L273.201 52.2435C273.304 52.5524 273.342 52.8226 273.304 53.0414C273.214 53.5947 272.676 53.8778 271.701 53.8778H265.968C265.249 53.8778 264.775 53.8006 264.544 53.6462C264.313 53.4918 264.108 53.0929 263.941 52.4752L260.799 40.5589C260.529 39.5165 260.273 39.0018 260.016 39.0018H259.144C258.862 39.0018 258.413 39.5165 257.797 40.5589L250.487 52.4752C250.128 53.08 249.794 53.466 249.499 53.6333C249.204 53.8006 248.678 53.8907 247.934 53.8907H242.201C241.252 53.8907 240.816 53.6076 240.906 53.0542C240.944 52.8355 241.073 52.5781 241.291 52.2564L252.423 35.939C252.757 35.45 252.847 34.9739 252.667 34.5106L247.409 19.2614C247.293 18.9525 247.267 18.6694 247.306 18.4378C247.396 17.8844 247.934 17.6142 248.909 17.6142H254.501C255.219 17.6142 255.694 17.6914 255.925 17.8458C256.156 18.0003 256.361 18.3863 256.528 19.0169L259.58 30.0066C259.85 30.9203 260.132 31.3707 260.427 31.3707H261.299C261.62 31.3707 262.069 30.9203 262.646 30.0066L269.546 19.0169C269.931 18.3992 270.264 18.0003 270.546 17.8458C270.829 17.6914 271.329 17.6142 272.06 17.6142H277.652C278.627 17.6142 279.076 17.8844 278.973 18.4378L278.999 18.4249Z" fill="black"/>
<path d="M12.9993 31.1153L63.2511 10.7829C63.2511 10.7829 65.6624 9.52181 65.6624 5.21084C65.6624 5.21084 65.6624 1.40174 60.9809 0.140625L5.57308 0.230705C5.57308 0.230705 -1.61778 0.717202 0.703708 9.24906L37.1248 14.5856C37.1248 14.5856 39.8952 15.4671 37.1248 18.8773L7.13784 20.8333L12.9993 31.1153Z" fill="#30F2A2"/>
</svg>
