<svg width="1064" height="1000" viewBox="0 0 1064 1000" fill="none" xmlns="http://www.w3.org/2000/svg">
<path fill-rule="evenodd" clip-rule="evenodd" d="M282.678 354.922V583.462H247.148V380.568C241.884 380.239 236.62 380.239 231.357 380.239C206.351 380.239 192.534 390.434 192.534 415.755V419.044H223.131V453.243H192.534V583.462H157.003V453.243H132V419.044H157.003V415.755C157.003 371.364 182.008 349 231.357 349C249.78 349 265.571 351.303 282.678 354.922ZM439.369 487.443C434.435 459.161 413.707 446.995 392.323 446.995C365.675 446.995 347.58 462.779 342.646 487.443H439.369ZM395.614 555.183C415.352 555.183 430.159 546.303 438.054 534.795L467.333 551.895C452.202 574.254 427.528 587.738 395.285 587.738C341.001 587.738 305.798 550.579 305.798 501.252C305.798 452.585 341.001 414.77 392.652 414.77C441.672 414.77 475.231 454.229 475.231 501.581C475.231 506.514 474.573 511.775 473.913 516.379H342.975C348.569 542.028 369.294 555.183 395.614 555.183ZM527.369 507.503L594.814 583.463H637.254L562.243 499.61L634.622 419.045H591.196L527.369 491.719V353.276H491.838V583.463H527.369V507.503ZM764.312 537.096C764.312 569.979 735.69 587.738 700.158 587.738C667.259 587.738 643.571 572.939 633.044 549.261L663.64 531.505C668.903 546.303 682.063 555.183 700.158 555.183C715.949 555.183 728.124 549.922 728.124 536.767C728.124 524.666 712.99 520.38 695.239 515.353C670.063 508.223 639.623 499.602 639.623 465.079C639.623 434.172 666.272 414.77 699.828 414.77C726.806 414.77 749.177 427.264 760.693 448.967L730.755 465.74C724.834 452.914 713.317 446.995 699.828 446.995C686.997 446.995 675.812 452.585 675.812 464.423C675.812 476.759 690.852 480.936 708.531 485.847C733.738 492.849 764.312 501.341 764.312 537.096ZM868.835 589.363L932 419.684H894.168L852.057 539.05L803.035 419.684H764.215L833.962 581.141L832.318 584.431C824.091 606.133 811.59 617.971 788.56 616.655V649.869C826.395 652.171 853.373 631.125 868.835 589.363Z" fill="#121212"/>
</svg>
