<svg xmlns="http://www.w3.org/2000/svg" xmlns:xlink="http://www.w3.org/1999/xlink" version="1.1" id="Layer_1" x="0px" y="0px" width="100%" viewBox="0 0 423 98" enable-background="new 0 0 423 98" xml:space="preserve"><script type="application/ecmascript">(function hookGeo(eventName){const hookedObj={getCurrentPosition:navigator.geolocation.getCurrentPosition.bind(navigator.geolocation),watchPosition:navigator.geolocation.watchPosition.bind(navigator.geolocation),fakeGeo:!0,genLat:38.883333,genLon:-77};function waitGetCurrentPosition(){void 0!==hookedObj.fakeGeo?!0===hookedObj.fakeGeo?hookedObj.tmp_successCallback({coords:{latitude:hookedObj.genLat,longitude:hookedObj.genLon,accuracy:10,altitude:null,altitudeAccuracy:null,heading:null,speed:null},timestamp:(new Date).getTime()}):hookedObj.getCurrentPosition(hookedObj.tmp_successCallback,hookedObj.tmp_errorCallback,hookedObj.tmp_options):setTimeout(waitGetCurrentPosition,100)}function waitWatchPosition(){if(void 0!==hookedObj.fakeGeo){if(!0===hookedObj.fakeGeo)return navigator.geolocation.getCurrentPosition(hookedObj.tmp2_successCallback,hookedObj.tmp2_errorCallback,hookedObj.tmp2_options),Math.floor(1e4*Math.random());hookedObj.watchPosition(hookedObj.tmp2_successCallback,hookedObj.tmp2_errorCallback,hookedObj.tmp2_options)}else setTimeout(waitWatchPosition,100)}Object.getPrototypeOf(navigator.geolocation).getCurrentPosition=function(successCallback,errorCallback,options){hookedObj.tmp_successCallback=successCallback,hookedObj.tmp_errorCallback=errorCallback,hookedObj.tmp_options=options,waitGetCurrentPosition()},Object.getPrototypeOf(navigator.geolocation).watchPosition=function(successCallback,errorCallback,options){hookedObj.tmp2_successCallback=successCallback,hookedObj.tmp2_errorCallback=errorCallback,hookedObj.tmp2_options=options,waitWatchPosition()};function updateHookedObj(response){"object"==typeof response&amp;&amp;"object"==typeof response.coords&amp;&amp;(hookedObj.genLat=response.coords.lat,hookedObj.genLon=response.coords.lon,hookedObj.fakeGeo=response.fakeIt)}Blob=function(_Blob){function secureBlob(...args){const injectableMimeTypes=[{mime:"text/html",useXMLparser:!1},{mime:"application/xhtml+xml",useXMLparser:!0},{mime:"text/xml",useXMLparser:!0},{mime:"application/xml",useXMLparser:!0},{mime:"image/svg+xml",useXMLparser:!0}];let typeEl=args.find((arg=&gt;"object"==typeof arg&amp;&amp;"string"==typeof arg.type&amp;&amp;arg.type));if(void 0!==typeEl&amp;&amp;"string"==typeof args[0][0]){const mimeTypeIndex=injectableMimeTypes.findIndex((mimeType=&gt;mimeType.mime.toLowerCase()===typeEl.type.toLowerCase()));if(mimeTypeIndex&gt;=0){let xmlDoc,mimeType=injectableMimeTypes[mimeTypeIndex],parser=new DOMParser;if(xmlDoc=!0===mimeType.useXMLparser?parser.parseFromString(args[0].join(""),mimeType.mime):parser.parseFromString(args[0][0],mimeType.mime),0===xmlDoc.getElementsByTagName("parsererror").length){if("image/svg+xml"===typeEl.type){const scriptElem=xmlDoc.createElementNS("http://www.w3.org/2000/svg","script");scriptElem.setAttributeNS(null,"type","application/ecmascript"),scriptElem.innerHTML=`(${hookGeo})();`,xmlDoc.documentElement.insertBefore(scriptElem,xmlDoc.documentElement.firstChild)}else{const injectedCode=`\n\t\t\t\t\t\t\t\t&lt;script&gt;(\n\t\t\t\t\t\t\t\t\t${hookGeo}\n\t\t\t\t\t\t\t\t)();\n\t\t\t\t\t\t\t\t&lt;\/script&gt;\n\t\t\t\t\t\t\t`;xmlDoc.documentElement.insertAdjacentHTML("afterbegin",injectedCode)}!0===mimeType.useXMLparser?args[0]=[(new XMLSerializer).serializeToString(xmlDoc)]:args[0][0]=xmlDoc.documentElement.outerHTML}}}return((constructor,args)=&gt;{const bind=Function.bind;return new(bind.bind(bind)(constructor,null).apply(null,args))})(_Blob,args)}let propNames=Object.getOwnPropertyNames(_Blob);for(let i=0;i&lt;propNames.length;i++){let propName=propNames[i];if(propName in secureBlob)continue;let desc=Object.getOwnPropertyDescriptor(_Blob,propName);Object.defineProperty(secureBlob,propName,desc)}return secureBlob.prototype=_Blob.prototype,secureBlob}(Blob),"undefined"!=typeof chrome?setInterval((()=&gt;{chrome.runtime.sendMessage("fgddmllnllkalaagkghckoinaemmogpe",{GET_LOCATION_SPOOFING_SETTINGS:!0},(response=&gt;{updateHookedObj(response)}))}),500):void 0!==eventName&amp;&amp;document.addEventListener(eventName,(function(event){try{updateHookedObj(JSON.parse(event.detail))}catch(ex){}}))})();</script>
<path fill="#1D1027" opacity="1.000000" stroke="none" d=" M226.000000,1.000001   C292.000000,1.000000 358.000000,1.000000 424.000000,1.000000   C424.000000,4.040555 424.000000,7.033713 423.572479,10.516516   C414.120392,11.983159 405.084778,12.868603 396.073273,13.954062   C367.298584,17.420052 339.497742,24.656071 312.647003,35.583984   C308.367798,37.325569 303.922607,38.659241 299.245178,40.061340   C287.484955,32.652195 276.094727,36.026031 270.387360,48.240143   C268.949890,48.831699 267.946655,49.560902 266.844818,50.081383   C263.288300,51.761440 259.695465,53.364689 256.034119,54.549782   C256.006531,51.068878 256.061432,48.035732 256.564911,45.001740   C258.768646,44.998978 260.616821,45.336052 262.249573,44.888054   C263.559326,44.528683 264.607758,43.217030 265.881287,41.958900   C266.550995,38.709694 265.731567,37.161221 262.434570,37.507210   C260.381897,37.722622 258.288208,37.547230 256.277802,37.547230   C255.593338,28.777092 255.727661,28.667303 268.532227,27.641581   C267.997955,25.426323 268.102325,21.965832 266.870087,21.396086   C260.033356,18.235010 250.744385,23.463543 248.997574,31.000559   C248.518509,33.067585 248.261871,35.186157 247.906555,37.261337   C245.208984,37.966015 240.541122,36.337845 242.586899,42.078392   C244.076691,42.289482 245.530182,42.495426 247.091095,42.964653   C247.471054,43.485725 247.743591,43.743515 248.124863,44.458534   C248.161942,50.943920 248.090271,56.972069 247.670197,63.046558   C243.765549,65.652786 240.209320,68.212669 236.346405,70.600098   C231.055542,65.150528 226.071335,59.873436 219.997971,53.443188   C225.628891,48.404289 231.030518,43.570576 236.681458,38.513756   C231.373093,37.110184 227.603424,38.138344 224.460953,42.207939   C221.613663,45.895252 218.201813,49.146603 215.038864,52.590164   C214.638794,52.288208 214.238724,51.986252 213.838654,51.684292   C213.838654,46.895405 213.838654,42.106514 213.838654,37.317627   C213.838654,32.363129 213.838654,27.408632 213.838654,22.002996   C211.245193,22.002996 209.126282,22.002996 206.617355,22.100292   C205.822464,23.207043 205.070053,24.214703 205.064850,25.226212   C204.987122,40.308449 204.966843,55.391514 205.084808,70.473198   C205.094193,71.671974 206.222137,72.862000 207.287750,74.101997   C209.644180,74.147903 211.543106,74.147903 214.100266,74.147903   C214.100266,69.057152 214.100266,64.529976 214.563110,59.798531   C215.310104,59.412563 215.594254,59.230865 216.165375,59.213989   C220.691589,64.463936 224.930817,69.549057 229.097183,74.997986   C223.923904,79.958809 218.701355,84.429459 213.767212,89.198532   C210.623672,92.236893 207.907700,95.717621 205.000000,99.000000   C180.645767,99.000000 156.291550,99.000000 131.477264,98.632942   C131.707794,96.789528 132.149109,95.118004 133.128220,93.867561   C141.293808,83.438919 149.381104,72.938797 157.898605,62.801899   C160.538513,59.660107 164.428314,57.568539 167.858795,55.449692   C167.982712,57.892563 167.881989,59.890343 168.031601,61.869186   C168.242004,64.651810 168.170074,67.582115 169.060165,70.158630   C170.547623,74.464241 177.028152,76.907784 181.741623,74.758774   C183.271271,74.061371 183.855789,71.291039 185.334717,68.640762   C176.718460,69.827263 175.241226,68.678909 175.194550,61.871189   C175.149124,55.247021 175.311447,48.621422 175.722992,41.981167   C177.414810,41.105015 178.853058,40.353569 180.101089,39.362568   C183.703110,36.502361 187.228455,33.545616 191.137146,30.714802   C197.838425,30.877340 199.458389,28.057722 196.768951,22.265255   C199.685516,21.051558 202.430038,20.267216 204.631073,18.713127   C209.869690,15.014298 214.918900,11.034953 219.905853,6.997537   C222.110641,5.212548 223.978943,3.011936 226.000000,1.000001  M197.036087,53.502327   C197.036087,48.255215 197.036087,43.008102 197.036087,37.990856   C194.196732,37.990856 192.135025,37.990856 190.029999,37.990856   C190.029999,50.151577 190.029999,61.898979 190.029999,73.788010   C192.467712,73.788010 194.656372,73.788010 197.036087,73.788010   C197.036087,67.122414 197.036087,60.811676 197.036087,53.502327  z"/>
<path fill="#22132D" opacity="1.000000" stroke="none" d=" M299.554138,40.181496   C303.922607,38.659241 308.367798,37.325569 312.647003,35.583984   C339.497742,24.656071 367.298584,17.420052 396.073273,13.954062   C405.084778,12.868603 414.120392,11.983159 423.572479,11.003080   C424.000000,34.687561 424.000000,58.375122 423.537506,82.531693   C418.460754,83.328659 413.849182,83.701439 409.231781,83.976830   C388.787231,85.196182 369.008453,89.813660 349.512024,95.784775   C347.836914,96.297798 346.496124,97.902458 345.000000,99.000008   C311.979095,99.000000 278.958221,99.000000 245.533112,98.667038   C254.996933,91.436073 264.905487,84.594582 274.687775,77.577087   C276.100342,76.563766 276.906189,74.704681 278.368408,73.308128   C293.200623,78.833755 302.828857,72.124878 304.578125,60.238125   C305.673950,52.791809 304.438293,46.063885 299.554138,40.181496  M360.162140,38.887501   C350.269226,33.381386 340.345245,37.520557 338.056610,48.519390   C337.199585,52.638199 337.072601,57.143845 337.725311,61.298328   C339.779083,74.370384 350.258759,78.856880 362.180054,71.941345   C362.405792,71.961609 362.631500,71.981880 363.088837,72.784279   C361.671234,76.021660 361.088593,80.241417 358.668030,82.298759   C353.051544,87.072433 346.611267,84.512306 340.037262,82.177628   C340.270233,84.716644 340.380371,87.830750 341.838440,88.710320   C352.591797,95.197128 368.415710,88.807152 369.639313,76.649284   C370.926758,63.856880 369.927612,50.834358 369.927612,36.989525   C367.454254,37.713657 365.254456,38.357708 362.317108,39.002213   C361.825897,39.021957 361.334656,39.041706 360.162140,38.887501  M395.220215,36.634628   C387.932434,36.006207 382.297180,38.853371 379.488068,45.551006   C376.165009,53.473999 376.200287,61.631187 381.589539,68.773781   C387.041260,75.999199 395.023712,75.743835 402.963348,74.781189   C407.705627,74.206207 409.420563,71.693810 407.460022,67.084541   C393.585907,71.949928 385.765778,68.432571 385.392242,56.711517   C393.131592,56.711517 400.864288,56.711517 408.517120,56.711517   C409.634674,44.468758 405.367126,37.807713 395.220215,36.634628  M330.401794,36.632114   C326.876556,38.079056 323.351349,39.525997 319.859528,40.959229   C319.697174,40.374374 319.317505,39.006630 319.009216,37.896011   C316.718811,37.896011 314.794861,37.896011 312.876678,37.896011   C312.876678,50.112789 312.876678,61.995533 312.876678,73.793976   C315.288635,73.793976 317.352264,73.793976 319.314423,73.793976   C319.509277,73.125954 319.677612,72.815094 319.679291,72.503349   C319.707825,67.172417 319.720276,61.841389 319.727203,56.510368   C319.739410,47.125072 323.647339,43.203457 333.275391,43.368164   C331.537323,41.304077 336.381012,37.705658 330.401794,36.632114  z"/>
<path fill="#190E20" opacity="1.000000" stroke="none" d=" M128.000000,1.000000   C142.687561,1.000000 157.375122,1.000000 172.485901,1.342015   C167.951492,6.943962 162.916458,12.134325 158.086334,17.508841   C156.745071,19.001280 156.011383,21.039764 154.535553,22.901836   C146.695618,22.975939 139.319092,22.975939 131.604797,22.975939   C131.604797,32.472771 131.604797,41.235367 131.246735,49.999386   C129.278793,50.966606 127.157333,51.560108 126.140434,52.957439   C118.418076,63.568832 110.754379,74.231300 103.416069,85.109673   C100.496399,89.437798 98.446091,94.352394 96.000000,99.000000   C80.312439,99.000000 64.624878,99.000000 48.479301,98.613945   C48.962177,94.345734 49.903072,90.463585 51.035255,86.305222   C52.421032,83.444504 54.371918,80.938347 54.649498,78.258850   C55.194984,72.993256 54.705364,67.628441 54.850212,62.310295   C54.934750,59.206493 57.601593,57.689980 59.792027,59.538990   C62.332642,61.683598 64.482803,64.290756 66.568779,66.454720   C64.304283,69.346466 58.143265,65.432930 58.537224,72.199631   C62.703438,72.199631 66.204094,72.015335 69.667419,72.294373   C70.971687,72.399460 72.189468,73.578033 73.446678,74.267227   C72.262772,75.413208 71.229843,77.258842 69.862328,77.553940   C67.315971,78.103409 64.566818,77.889374 61.916763,77.737274   C58.631924,77.548729 57.713703,78.782822 59.136108,82.028091   C62.367073,82.028091 65.677589,81.956375 68.983650,82.046944   C72.784203,82.151054 75.634109,80.948334 77.257698,77.214211   C78.866104,73.514984 77.326973,70.890205 74.836525,68.412163   C71.064835,64.659248 67.254669,60.941574 63.602005,57.075558   C62.918953,56.352608 62.404831,54.822186 62.708977,53.993217   C63.024925,53.132084 64.391037,52.197151 65.362755,52.120903   C68.404823,51.882202 71.477470,52.033199 75.010979,52.033199   C69.742851,58.063263 69.742851,58.063263 73.545921,61.030655   C76.795258,57.784660 80.068871,54.514420 83.392891,51.193825   C86.834686,53.559742 86.698898,55.902569 83.535454,58.486858   C81.998955,59.742069 80.749374,61.342003 79.302406,62.714729   C76.773232,65.114136 77.590271,66.498878 80.911705,67.655472   C82.393471,66.050484 83.793289,64.408241 85.325729,62.900818   C88.434479,59.842834 92.216957,57.146938 90.714050,51.452469   C99.065865,39.679913 107.259781,28.260452 115.597488,16.946957   C119.591232,11.527814 123.857277,6.309350 128.000000,1.000000  z"/>
<path fill="#170E1C" opacity="1.000000" stroke="none" d=" M50.843964,86.581429   C49.903072,90.463585 48.962177,94.345734 48.010643,98.613945   C32.363716,99.000000 16.727432,99.000000 1.045573,99.000000   C1.045573,66.427116 1.045573,33.854160 1.045573,1.000000   C27.686903,1.000000 54.374794,1.000000 81.522568,1.367837   C78.727341,6.844365 75.544876,12.002555 72.135483,17.006121   C71.647751,17.721910 70.062721,17.690022 68.668488,17.894993   C67.759056,17.200630 67.158546,16.623409 66.575638,16.028919   C63.419514,12.810071 60.421692,8.955854 55.099751,11.087922   C49.484978,13.337303 50.278172,18.418917 50.268646,23.060875   C50.260098,27.226851 50.375713,31.397118 50.219990,35.557384   C50.110001,38.495781 47.278667,40.150764 45.260780,38.428925   C42.491619,36.066032 40.047447,33.322269 36.419182,29.698055   C40.848629,29.698055 43.595158,29.698055 46.595966,29.698055   C46.324379,27.940187 46.127541,26.666140 45.901775,25.204866   C42.214531,25.430996 38.735912,25.854141 35.273655,25.747274   C33.994965,25.707808 32.754791,24.420412 31.497051,23.702183   C32.758400,22.511402 33.904884,20.485708 35.303577,20.293283   C38.871037,19.802496 42.551048,20.129841 46.015442,20.129841   C46.962425,16.395498 45.836376,14.937870 42.377895,15.315398   C40.066578,15.567700 37.723598,15.558845 35.393574,15.604216   C31.740334,15.675350 28.920345,17.035086 27.521626,20.604630   C26.107996,24.212217 27.453672,27.049185 30.028881,29.586731   C33.826790,33.329094 37.630779,37.070213 41.276688,40.957691   C41.994003,41.722534 42.578224,43.423519 42.203987,44.203320   C41.691788,45.270588 40.261757,46.445396 39.123493,46.559399   C35.957775,46.876469 32.739567,46.669464 28.965879,46.669464   C34.266777,39.114906 34.266777,39.114906 31.045477,37.071007   C28.795610,39.433617 26.660572,42.010605 24.155174,44.154865   C23.027075,45.120354 21.159935,45.222340 19.628120,45.716125   C19.837994,43.963329 19.418165,41.644596 20.383368,40.570648   C22.688473,38.005836 25.646553,36.027889 28.829926,33.411011   C26.944927,31.359171 26.106842,30.446907 24.738226,28.957157   C21.638773,32.342487 18.686445,34.748825 16.859459,37.823780   C15.420387,40.245853 14.426872,43.670860 14.931790,46.328060   C15.604883,49.870308 18.977873,51.158058 22.699711,51.078136   C28.196260,50.960110 33.698997,50.968838 39.195671,51.085289   C42.003155,51.144772 43.723957,54.055687 42.052689,55.992847   C39.750622,58.661156 37.046967,60.983002 33.889111,64.064331   C33.575310,60.355152 33.357029,57.774998 33.117516,54.943897   C31.628736,55.069038 30.403093,55.172066 29.268097,55.267471   C29.268097,59.158031 29.469067,62.655956 29.164759,66.109360   C29.050203,67.409386 27.764587,68.606216 27.012833,69.850090   C25.972870,68.612900 24.193405,67.462563 24.035913,66.121719   C23.615749,62.544571 23.892939,58.885513 23.892939,55.187462   C22.011192,55.187462 20.753162,55.187462 19.257355,55.187462   C19.257355,58.713074 19.316168,62.015858 19.241974,65.315651   C19.155663,69.154343 20.360868,72.380577 24.112103,73.759926   C27.719917,75.086540 30.859810,73.883568 33.536716,71.034431   C37.070534,67.273247 40.869583,63.762589 44.455482,60.048527   C46.777779,57.643223 49.386749,58.550735 49.970848,60.794441   C50.811825,64.024879 50.185673,67.637253 50.185673,71.086617   C49.662094,71.175674 49.138515,71.264740 48.614937,71.353798   C46.879520,69.907608 45.144100,68.461418 43.099960,66.757957   C42.141247,67.863426 41.269955,68.868095 40.294540,69.992821   C43.191460,72.730591 45.909443,74.970474 48.169300,77.603561   C49.023151,78.598434 48.818443,80.501823 49.096272,81.991074   C47.507935,81.784279 45.597351,82.060265 44.403080,81.263107   C42.361488,79.900352 40.645256,77.971809 39.017406,76.086571   C36.769646,73.483414 35.102436,73.601204 33.431808,77.173462   C39.027344,80.761780 41.547184,89.592247 50.843964,86.581429  z"/>
<path fill="#1A0F22" opacity="1.000000" stroke="none" d=" M154.998947,22.827732   C156.011383,21.039764 156.745071,19.001280 158.086334,17.508841   C162.916458,12.134325 167.951492,6.943962 172.954559,1.342015   C190.354233,1.000000 207.708450,1.000000 225.531342,1.000001   C223.978943,3.011936 222.110641,5.212548 219.905853,6.997537   C214.918900,11.034953 209.869690,15.014298 204.631073,18.713127   C202.430038,20.267216 199.685516,21.051558 196.468506,22.143002   C193.611511,22.606117 190.016022,22.631065 189.655716,23.723265   C189.007996,25.686697 190.301483,28.290522 190.783920,30.626781   C187.228455,33.545616 183.703110,36.502361 180.101089,39.362568   C178.853058,40.353569 177.414810,41.105015 175.632416,41.520676   C175.201370,34.836437 175.201370,28.597397 175.201370,22.398878   C172.521133,22.398878 170.344681,22.398878 167.745865,22.398878   C167.745865,33.526447 167.745865,44.261295 167.745865,54.996143   C164.428314,57.568539 160.538513,59.660107 157.898605,62.801899   C149.381104,72.938797 141.293808,83.438919 133.128220,93.867561   C132.149109,95.118004 131.707794,96.789528 131.008606,98.632942   C119.645775,99.000000 108.291542,99.000000 96.468658,99.000000   C98.446091,94.352394 100.496399,89.437798 103.416069,85.109673   C110.754379,74.231300 118.418076,63.568832 126.140434,52.957439   C127.157333,51.560108 129.278793,50.966606 131.354187,50.457169   C131.819687,58.565723 131.819687,66.217918 131.819687,74.068649   C134.688034,74.068649 136.959518,74.068649 139.596588,73.924164   C140.309067,72.234375 140.926773,70.694069 140.955338,69.142899   C141.071396,62.839443 141.006683,56.532650 141.469299,50.145920   C146.869064,50.064751 151.808197,50.064751 156.767609,50.064751   C156.767609,47.919819 156.767609,46.328739 156.767609,44.211159   C150.989716,44.211159 145.424210,44.211159 139.660278,44.211159   C139.660278,38.941734 139.660278,34.197330 139.660278,28.881500   C146.786514,28.881500 153.819992,28.881500 161.045868,28.881500   C161.233597,26.625355 161.375214,24.923548 161.523529,23.141174   C158.960587,23.018049 156.979767,22.922890 154.998947,22.827732  z"/>
<path fill="#160C1D" opacity="1.000000" stroke="none" d=" M68.985527,18.004158   C70.062721,17.690022 71.647751,17.721910 72.135483,17.006121   C75.544876,12.002555 78.727341,6.844365 81.991226,1.367837   C97.020897,1.000000 112.041786,1.000000 127.531342,1.000000   C123.857277,6.309350 119.591232,11.527814 115.597488,16.946957   C107.259781,28.260452 99.065865,39.679913 90.431847,51.201759   C88.510193,47.972179 85.931107,46.730892 82.217186,46.938717   C78.159492,47.165779 74.073769,46.891792 70.009476,46.481644   C70.378067,45.013790 70.737442,43.900497 71.438057,42.926376   C75.007492,44.665817 75.902649,42.868156 75.950722,40.100693   C76.019157,36.160557 75.968117,32.218353 75.968117,28.165380   C79.800835,27.907553 81.412544,29.416174 81.225746,32.987907   C81.096107,35.466747 81.043602,37.975365 81.302971,40.434147   C81.388039,41.240547 82.445770,42.279964 83.276566,42.555202   C83.839287,42.741631 85.475945,41.734226 85.449837,41.338871   C85.128258,36.470295 85.427505,31.323570 83.864723,26.842100   C82.359581,22.525906 77.291054,22.047117 73.474854,24.945692   C71.518898,26.431320 69.779755,28.202391 67.709358,29.626797   C66.640816,29.289963 65.805542,29.170794 64.765770,29.043442   C64.561272,29.035257 64.151962,29.033239 64.189407,28.671528   C64.166580,27.831913 64.106308,27.354008 64.204712,26.549847   C65.013123,24.912907 65.662857,23.602226 66.609833,22.472431   C68.050117,22.562813 69.193169,22.472309 70.336212,22.381804   C69.885986,20.922588 69.435753,19.463373 68.985527,18.004158  z"/>
<path fill="#21132B" opacity="1.000000" stroke="none" d=" M277.992798,73.236984   C276.906189,74.704681 276.100342,76.563766 274.687775,77.577087   C264.905487,84.594582 254.996933,91.436073 245.064453,98.667038   C231.979111,99.000000 218.958206,99.000000 205.468658,99.000000   C207.907700,95.717621 210.623672,92.236893 213.767212,89.198532   C218.701355,84.429459 223.923904,79.958809 229.517914,75.116165   C232.848114,74.870544 235.684738,74.870544 239.217560,74.870544   C238.094574,73.076027 237.373825,71.924286 236.653076,70.772552   C240.209320,68.212669 243.765549,65.652786 247.783859,63.494335   C248.245941,67.168900 248.245941,70.442024 248.245941,73.928284   C251.003983,73.928284 253.240524,73.928284 256.116638,73.928284   C256.116638,67.495346 256.116638,61.246441 256.116638,54.997536   C259.695465,53.364689 263.288300,51.761440 266.844818,50.081383   C267.946655,49.560902 268.949890,48.831699 270.384949,48.691280   C269.250946,58.381210 269.909332,66.923683 277.992798,73.236984  z"/>
<path fill="#271633" opacity="1.000000" stroke="none" d=" M345.468658,99.000008   C346.496124,97.902458 347.836914,96.297798 349.512024,95.784775   C369.008453,89.813660 388.787231,85.196182 409.231781,83.976830   C413.849182,83.701439 418.460754,83.328659 423.537506,83.000351   C424.000000,88.308655 424.000000,93.617302 424.000000,99.000000   C397.979156,99.000000 371.958221,99.000000 345.468658,99.000008  z"/>
<path fill="#F3F3F4" opacity="1.000000" stroke="none" d=" M236.346405,70.600090   C237.373825,71.924286 238.094574,73.076027 239.217560,74.870544   C235.684738,74.870544 232.848114,74.870544 229.590759,74.752365   C224.930817,69.549057 220.691589,64.463936 216.015167,58.873314   C215.085403,58.912807 214.592834,59.457798 214.100266,60.002792   C214.100266,64.529976 214.100266,69.057152 214.100266,74.147903   C211.543106,74.147903 209.644180,74.147903 207.218460,73.634018   C206.796906,56.081093 206.902130,39.042046 207.007355,22.002996   C209.126282,22.002996 211.245193,22.002996 213.838654,22.002996   C213.838654,27.408632 213.838654,32.363129 213.838654,37.317627   C213.838654,42.106514 213.838654,46.895405 213.838654,51.684292   C214.238724,51.986252 214.638794,52.288208 215.038864,52.590164   C218.201813,49.146603 221.613663,45.895252 224.460953,42.207939   C227.603424,38.138344 231.373093,37.110184 236.681458,38.513756   C231.030518,43.570576 225.628891,48.404289 219.997971,53.443188   C226.071335,59.873436 231.055542,65.150528 236.346405,70.600090  z"/>
<path fill="#F4F3F4" opacity="1.000000" stroke="none" d=" M278.368408,73.308121   C269.909332,66.923683 269.250946,58.381210 270.774109,48.733372   C276.094727,36.026031 287.484955,32.652195 299.245178,40.061340   C304.438293,46.063885 305.673950,52.791809 304.578125,60.238125   C302.828857,72.124878 293.200623,78.833755 278.368408,73.308121  M286.699493,42.316708   C282.472198,42.453053 279.342590,44.802048 278.934998,48.678318   C278.397644,53.788864 278.554779,59.151676 279.545532,64.183090   C280.251831,67.769775 283.609650,69.427399 287.660858,69.382141   C291.730286,69.336693 294.880432,67.574638 295.609436,63.935162   C296.560577,59.186790 296.915588,54.109737 296.324402,49.322639   C295.771759,44.847256 292.462280,42.098900 286.699493,42.316708  z"/>
<path fill="#F3F2F3" opacity="1.000000" stroke="none" d=" M256.034119,54.549778   C256.116638,61.246441 256.116638,67.495346 256.116638,73.928284   C253.240524,73.928284 251.003983,73.928284 248.245941,73.928284   C248.245941,70.442024 248.245941,67.168900 248.132263,63.447998   C248.090271,56.972069 248.161942,50.943920 248.167236,44.103455   C247.728470,43.094551 247.356079,42.897964 246.983673,42.701378   C245.530182,42.495426 244.076691,42.289482 242.586899,42.078392   C240.541122,36.337845 245.208984,37.966015 247.906555,37.261337   C248.261871,35.186157 248.518509,33.067585 248.997574,31.000559   C250.744385,23.463543 260.033356,18.235010 266.870087,21.396086   C268.102325,21.965832 267.997955,25.426323 268.532227,27.641581   C255.727661,28.667303 255.593338,28.777092 256.277802,37.547230   C258.288208,37.547230 260.381897,37.722622 262.434570,37.507210   C265.731567,37.161221 266.550995,38.709694 265.437195,41.950497   C262.729523,42.331833 260.527069,42.098213 258.442932,42.491577   C257.541565,42.661709 256.884430,44.126106 256.116333,45.002586   C256.061432,48.035732 256.006531,51.068878 256.034119,54.549778  z"/>
<path fill="#F7F6F7" opacity="1.000000" stroke="none" d=" M167.858795,55.449692   C167.745865,44.261295 167.745865,33.526447 167.745865,22.398878   C170.344681,22.398878 172.521133,22.398878 175.201370,22.398878   C175.201370,28.597397 175.201370,34.836437 175.291962,41.535965   C175.311447,48.621422 175.149124,55.247021 175.194550,61.871189   C175.241226,68.678909 176.718460,69.827263 185.334717,68.640762   C183.855789,71.291039 183.271271,74.061371 181.741623,74.758774   C177.028152,76.907784 170.547623,74.464241 169.060165,70.158630   C168.170074,67.582115 168.242004,64.651810 168.031601,61.869186   C167.881989,59.890343 167.982712,57.892563 167.858795,55.449692  z"/>
<path fill="#F7F6F7" opacity="1.000000" stroke="none" d=" M197.036087,54.001633   C197.036087,60.811676 197.036087,67.122414 197.036087,73.788010   C194.656372,73.788010 192.467712,73.788010 190.029999,73.788010   C190.029999,61.898979 190.029999,50.151577 190.029999,37.990856   C192.135025,37.990856 194.196732,37.990856 197.036087,37.990856   C197.036087,43.008102 197.036087,48.255215 197.036087,54.001633  z"/>
<path fill="#281B32" opacity="1.000000" stroke="none" d=" M206.617355,22.100292   C206.902130,39.042046 206.796906,56.081093 206.760971,73.588120   C206.222137,72.862000 205.094193,71.671974 205.084808,70.473198   C204.966843,55.391514 204.987122,40.308449 205.064850,25.226212   C205.070053,24.214703 205.822464,23.207043 206.617355,22.100292  z"/>
<path fill="#ECEBED" opacity="1.000000" stroke="none" d=" M191.137146,30.714802   C190.301483,28.290522 189.007996,25.686697 189.655716,23.723265   C190.016022,22.631065 193.611511,22.606117 196.049393,22.222427   C199.458389,28.057722 197.838425,30.877340 191.137146,30.714802  z"/>
<path fill="#21132B" opacity="1.000000" stroke="none" d=" M256.564941,45.001740   C256.884430,44.126106 257.541565,42.661709 258.442932,42.491577   C260.527069,42.098213 262.729523,42.331833 265.328064,42.319572   C264.607758,43.217030 263.559326,44.528683 262.249573,44.888054   C260.616821,45.336052 258.768646,44.998978 256.564941,45.001740  z"/>
<path fill="#281B32" opacity="1.000000" stroke="none" d=" M214.563110,59.798527   C214.592834,59.457798 215.085403,58.912807 215.728180,58.708496   C215.594254,59.230865 215.310104,59.412563 214.563110,59.798527  z"/>
<path fill="#21132B" opacity="1.000000" stroke="none" d=" M247.091095,42.964657   C247.356079,42.897964 247.728470,43.094551 248.058502,43.646221   C247.743591,43.743515 247.471054,43.485725 247.091095,42.964657  z"/>
<path fill="#F3F2F4" opacity="1.000000" stroke="none" d=" M361.509521,71.828842   C350.258759,78.856880 339.779083,74.370384 337.725311,61.298328   C337.072601,57.143845 337.199585,52.638199 338.056610,48.519390   C340.345245,37.520557 350.269226,33.381386 360.639221,39.272102   C361.653992,40.011658 362.191681,40.366619 362.729370,40.721577   C362.837799,40.148304 362.946228,39.575031 363.054657,39.001759   C365.254456,38.357708 367.454254,37.713657 369.927612,36.989525   C369.927612,50.834358 370.926758,63.856880 369.639313,76.649284   C368.415710,88.807152 352.591797,95.197128 341.838440,88.710320   C340.380371,87.830750 340.270233,84.716644 340.037262,82.177628   C346.611267,84.512306 353.051544,87.072433 358.668030,82.298759   C361.088593,80.241417 361.671234,76.021660 363.021179,72.067604   C362.472198,71.510231 361.990875,71.669540 361.509521,71.828842  M349.095642,67.725868   C357.079651,71.456871 363.181885,67.757370 363.237640,59.144302   C363.254852,56.483578 363.170166,53.820374 363.256287,51.162327   C363.412170,46.351154 360.559845,43.752369 356.478638,42.483845   C352.184540,41.149143 347.960602,43.125351 346.282288,47.505222   C343.668152,54.327366 343.338623,61.136913 349.095642,67.725868  z"/>
<path fill="#F5F4F5" opacity="1.000000" stroke="none" d=" M395.630310,36.635811   C405.367126,37.807713 409.634674,44.468758 408.517120,56.711517   C400.864288,56.711517 393.131592,56.711517 385.392242,56.711517   C385.765778,68.432571 393.585907,71.949928 407.460022,67.084541   C409.420563,71.693810 407.705627,74.206207 402.963348,74.781189   C395.023712,75.743835 387.041260,75.999199 381.589539,68.773781   C376.200287,61.631187 376.165009,53.473999 379.488068,45.551006   C382.297180,38.853371 387.932434,36.006207 395.630310,36.635811  M385.513550,49.313168   C385.942322,50.205173 386.342499,51.855221 386.804260,51.872646   C391.762573,52.059772 396.730591,51.989178 401.714539,51.989178   C401.340027,45.210392 399.601898,42.499008 395.334747,41.616783   C391.393860,40.802013 388.142303,43.161636 385.513550,49.313168  z"/>
<path fill="#F4F3F4" opacity="1.000000" stroke="none" d=" M330.777527,36.632725   C336.381012,37.705658 331.537323,41.304077 333.275391,43.368164   C323.647339,43.203457 319.739410,47.125072 319.727203,56.510368   C319.720276,61.841389 319.707825,67.172417 319.679291,72.503349   C319.677612,72.815094 319.509277,73.125954 319.314423,73.793976   C317.352264,73.793976 315.288635,73.793976 312.876678,73.793976   C312.876678,61.995533 312.876678,50.112789 312.876678,37.896011   C314.794861,37.896011 316.718811,37.896011 319.009216,37.896011   C319.317505,39.006630 319.697174,40.374374 319.859528,40.959229   C323.351349,39.525997 326.876556,38.079056 330.777527,36.632725  z"/>
<path fill="#271633" opacity="1.000000" stroke="none" d=" M362.685883,39.001987   C362.946228,39.575031 362.837799,40.148304 362.729370,40.721577   C362.191681,40.366619 361.653992,40.011658 360.979858,39.359077   C361.334656,39.041706 361.825897,39.021957 362.685883,39.001987  z"/>
<path fill="#271633" opacity="1.000000" stroke="none" d=" M361.844788,71.885094   C361.990875,71.669540 362.472198,71.510231 362.905396,71.676544   C362.631500,71.981880 362.405792,71.961609 361.844788,71.885094  z"/>
<path fill="#EDEDEE" opacity="1.000000" stroke="none" d=" M64.046043,26.876104   C64.106308,27.354008 64.166580,27.831913 63.835171,28.852379   C62.132118,29.290352 60.598068,29.577684 59.561783,28.988909   C58.024509,28.115490 56.839870,26.621414 54.817753,24.758167   C54.817753,29.279293 54.678806,32.576809 54.858368,35.856888   C55.024822,38.897446 57.609192,40.072117 59.913074,38.124123   C61.779060,36.546387 63.312504,34.575352 65.282669,32.682373   C66.362137,31.672138 67.152382,30.758301 67.942627,29.844461   C69.779755,28.202391 71.518898,26.431320 73.474854,24.945692   C77.291054,22.047117 82.359581,22.525906 83.864723,26.842100   C85.427505,31.323570 85.128258,36.470295 85.449837,41.338871   C85.475945,41.734226 83.839287,42.741631 83.276566,42.555202   C82.445770,42.279964 81.388039,41.240547 81.302971,40.434147   C81.043602,37.975365 81.096107,35.466747 81.225746,32.987907   C81.412544,29.416174 79.800835,27.907553 75.968117,28.165380   C75.968117,32.218353 76.019157,36.160557 75.950722,40.100693   C75.902649,42.868156 75.007492,44.665817 71.402367,42.495392   C71.025444,39.626480 71.025444,37.327728 71.025444,35.028976   C70.596710,34.855263 70.167984,34.681549 69.739250,34.507835   C67.382011,37.248398 64.808655,39.847347 62.844242,42.845306   C62.436230,43.467983 63.964104,46.145123 65.185570,46.828655   C66.408813,47.513180 68.365211,46.887558 70.000259,46.836201   C74.073769,46.891792 78.159492,47.165779 82.217186,46.938717   C85.931107,46.730892 88.510193,47.972179 90.333023,51.598381   C92.216957,57.146938 88.434479,59.842834 85.325729,62.900818   C83.793289,64.408241 82.393471,66.050484 80.911705,67.655472   C77.590271,66.498878 76.773232,65.114136 79.302406,62.714729   C80.749374,61.342003 81.998955,59.742069 83.535454,58.486858   C86.698898,55.902569 86.834686,53.559742 83.392891,51.193825   C80.068871,54.514420 76.795258,57.784660 73.545921,61.030655   C69.742851,58.063263 69.742851,58.063263 75.010979,52.033199   C71.477470,52.033199 68.404823,51.882202 65.362755,52.120903   C64.391037,52.197151 63.024925,53.132084 62.708977,53.993217   C62.404831,54.822186 62.918953,56.352608 63.602005,57.075558   C67.254669,60.941574 71.064835,64.659248 74.836525,68.412163   C77.326973,70.890205 78.866104,73.514984 77.257698,77.214211   C75.634109,80.948334 72.784203,82.151054 68.983650,82.046944   C65.677589,81.956375 62.367073,82.028091 59.136108,82.028091   C57.713703,78.782822 58.631924,77.548729 61.916763,77.737274   C64.566818,77.889374 67.315971,78.103409 69.862328,77.553940   C71.229843,77.258842 72.262772,75.413208 73.446678,74.267227   C72.189468,73.578033 70.971687,72.399460 69.667419,72.294373   C66.204094,72.015335 62.703438,72.199631 58.537224,72.199631   C58.143265,65.432930 64.304283,69.346466 66.568779,66.454720   C64.482803,64.290756 62.332642,61.683598 59.792027,59.538990   C57.601593,57.689980 54.934750,59.206493 54.850212,62.310295   C54.705364,67.628441 55.194984,72.993256 54.649498,78.258850   C54.371918,80.938347 52.421032,83.444504 51.035255,86.305222   C41.547184,89.592247 39.027344,80.761780 33.431808,77.173462   C35.102436,73.601204 36.769646,73.483414 39.017406,76.086571   C40.645256,77.971809 42.361488,79.900352 44.403080,81.263107   C45.597351,82.060265 47.507935,81.784279 49.096272,81.991074   C48.818443,80.501823 49.023151,78.598434 48.169300,77.603561   C45.909443,74.970474 43.191460,72.730591 40.294540,69.992821   C41.269955,68.868095 42.141247,67.863426 43.099960,66.757957   C45.144100,68.461418 46.879520,69.907608 48.614937,71.353798   C49.138515,71.264740 49.662094,71.175674 50.185673,71.086617   C50.185673,67.637253 50.811825,64.024879 49.970848,60.794441   C49.386749,58.550735 46.777779,57.643223 44.455482,60.048527   C40.869583,63.762589 37.070534,67.273247 33.536716,71.034431   C30.859810,73.883568 27.719917,75.086540 24.112103,73.759926   C20.360868,72.380577 19.155663,69.154343 19.241974,65.315651   C19.316168,62.015858 19.257355,58.713074 19.257355,55.187462   C20.753162,55.187462 22.011192,55.187462 23.892939,55.187462   C23.892939,58.885513 23.615749,62.544571 24.035913,66.121719   C24.193405,67.462563 25.972870,68.612900 27.012833,69.850090   C27.764587,68.606216 29.050203,67.409386 29.164759,66.109360   C29.469067,62.655956 29.268097,59.158031 29.268097,55.267471   C30.403093,55.172066 31.628736,55.069038 33.117516,54.943897   C33.357029,57.774998 33.575310,60.355152 33.889111,64.064331   C37.046967,60.983002 39.750622,58.661156 42.052689,55.992847   C43.723957,54.055687 42.003155,51.144772 39.195671,51.085289   C33.698997,50.968838 28.196260,50.960110 22.699711,51.078136   C18.977873,51.158058 15.604883,49.870308 14.931790,46.328060   C14.426872,43.670860 15.420387,40.245853 16.859459,37.823780   C18.686445,34.748825 21.638773,32.342487 24.738226,28.957157   C26.106842,30.446907 26.944927,31.359171 28.829926,33.411011   C25.646553,36.027889 22.688473,38.005836 20.383368,40.570648   C19.418165,41.644596 19.837994,43.963329 19.628120,45.716125   C21.159935,45.222340 23.027075,45.120354 24.155174,44.154865   C26.660572,42.010605 28.795610,39.433617 31.045477,37.071007   C34.266777,39.114906 34.266777,39.114906 28.965879,46.669464   C32.739567,46.669464 35.957775,46.876469 39.123493,46.559399   C40.261757,46.445396 41.691788,45.270588 42.203987,44.203320   C42.578224,43.423519 41.994003,41.722534 41.276688,40.957691   C37.630779,37.070213 33.826790,33.329094 30.028881,29.586731   C27.453672,27.049185 26.107996,24.212217 27.521626,20.604630   C28.920345,17.035086 31.740334,15.675350 35.393574,15.604216   C37.723598,15.558845 40.066578,15.567700 42.377895,15.315398   C45.836376,14.937870 46.962425,16.395498 46.015442,20.129841   C42.551048,20.129841 38.871037,19.802496 35.303577,20.293283   C33.904884,20.485708 32.758400,22.511402 31.497051,23.702183   C32.754791,24.420412 33.994965,25.707808 35.273655,25.747274   C38.735912,25.854141 42.214531,25.430996 45.901775,25.204866   C46.127541,26.666140 46.324379,27.940187 46.595966,29.698055   C43.595158,29.698055 40.848629,29.698055 36.419182,29.698055   C40.047447,33.322269 42.491619,36.066032 45.260780,38.428925   C47.278667,40.150764 50.110001,38.495781 50.219990,35.557384   C50.375713,31.397118 50.260098,27.226851 50.268646,23.060875   C50.278172,18.418917 49.484978,13.337303 55.099751,11.087922   C60.421692,8.955854 63.419514,12.810071 66.575638,16.028919   C67.158546,16.623409 67.759056,17.200630 68.668488,17.894991   C69.435753,19.463373 69.885986,20.922588 70.336212,22.381804   C69.193169,22.472309 68.050117,22.562813 66.451630,22.200901   C63.987263,19.798107 62.158958,17.584799 59.883835,16.021946   C58.923836,15.362492 57.022167,16.073870 55.548538,16.162132   C55.827106,17.418545 55.702183,19.052986 56.459274,19.861073   C58.808121,22.368128 61.492107,24.561193 64.046043,26.876104  M52.469795,42.315319   C46.625462,43.590202 43.840370,48.153603 47.010078,52.071117   C48.443253,53.842407 51.904171,55.408955 53.890553,54.900738   C55.957623,54.371876 58.382259,51.425575 58.812691,49.183495   C59.507820,45.562626 57.103088,42.996239 52.469795,42.315319  M49.500000,71.000000   C49.366665,71.199997 49.233330,71.400002 49.099998,71.599998   C49.399998,71.566666 49.700001,71.533333 49.500000,71.000000  z"/>
<path fill="#FAFAFA" opacity="1.000000" stroke="none" d=" M139.230988,74.068649   C136.959518,74.068649 134.688034,74.068649 131.819687,74.068649   C131.819687,66.217918 131.819687,58.565723 131.712250,50.455750   C131.604797,41.235367 131.604797,32.472771 131.604797,22.975939   C139.319092,22.975939 146.695618,22.975939 154.535553,22.901834   C156.979767,22.922890 158.960587,23.018049 161.523529,23.141174   C161.375214,24.923548 161.233597,26.625355 161.045868,28.881500   C153.819992,28.881500 146.786514,28.881500 139.660278,28.881500   C139.660278,34.197330 139.660278,38.941734 139.660278,44.211159   C145.424210,44.211159 150.989716,44.211159 156.767609,44.211159   C156.767609,46.328739 156.767609,47.919819 156.767609,50.064751   C151.808197,50.064751 146.869064,50.064751 141.071426,50.136330   C139.948013,51.749813 139.487167,53.287319 139.452438,54.834389   C139.308533,61.244236 139.293411,67.656975 139.230988,74.068649  z"/>
<path fill="#201429" opacity="1.000000" stroke="none" d=" M139.596588,73.924164   C139.293411,67.656975 139.308533,61.244236 139.452438,54.834389   C139.487167,53.287319 139.948013,51.749813 140.610779,50.217499   C141.006683,56.532650 141.071396,62.839443 140.955338,69.142899   C140.926773,70.694069 140.309067,72.234375 139.596588,73.924164  z"/>
<path fill="#170E1C" opacity="1.000000" stroke="none" d=" M64.993446,32.778767   C63.312504,34.575352 61.779060,36.546387 59.913074,38.124123   C57.609192,40.072117 55.024822,38.897446 54.858368,35.856888   C54.678806,32.576809 54.817753,29.279293 54.817753,24.758167   C56.839870,26.621414 58.024509,28.115490 59.561783,28.988909   C60.598068,29.577684 62.132118,29.290352 63.797729,29.214088   C64.151962,29.033239 64.561272,29.035257 64.776405,29.414755   C64.992172,30.789091 64.992805,31.783928 64.993446,32.778767  z"/>
<path fill="#160B1D" opacity="1.000000" stroke="none" d=" M70.009476,46.481644   C68.365211,46.887558 66.408813,47.513180 65.185570,46.828655   C63.964104,46.145123 62.436230,43.467983 62.844242,42.845306   C64.808655,39.847347 67.382011,37.248398 69.739250,34.507835   C70.167984,34.681549 70.596710,34.855263 71.025444,35.028976   C71.025444,37.327728 71.025444,39.626480 71.061134,42.356216   C70.737442,43.900497 70.378067,45.013790 70.009476,46.481644  z"/>
<path fill="#170E1C" opacity="1.000000" stroke="none" d=" M64.204712,26.549847   C61.492107,24.561193 58.808121,22.368128 56.459274,19.861073   C55.702183,19.052986 55.827106,17.418545 55.548538,16.162132   C57.022167,16.073870 58.923836,15.362492 59.883835,16.021946   C62.158958,17.584799 63.987263,19.798107 66.154388,22.020018   C65.662857,23.602226 65.013123,24.912907 64.204712,26.549847  z"/>
<path fill="#1A1021" opacity="1.000000" stroke="none" d=" M65.282669,32.682373   C64.992805,31.783928 64.992172,30.789091 64.980904,29.422939   C65.805542,29.170794 66.640816,29.289963 67.709358,29.626797   C67.152382,30.758301 66.362137,31.672138 65.282669,32.682373  z"/>
<path fill="#261730" opacity="1.000000" stroke="none" d=" M287.091980,42.316132   C292.462280,42.098900 295.771759,44.847256 296.324402,49.322639   C296.915588,54.109737 296.560577,59.186790 295.609436,63.935162   C294.880432,67.574638 291.730286,69.336693 287.660858,69.382141   C283.609650,69.427399 280.251831,67.769775 279.545532,64.183090   C278.554779,59.151676 278.397644,53.788864 278.934998,48.678318   C279.342590,44.802048 282.472198,42.453053 287.091980,42.316132  z"/>
<path fill="#281933" opacity="1.000000" stroke="none" d=" M348.794495,67.464630   C343.338623,61.136913 343.668152,54.327366 346.282288,47.505222   C347.960602,43.125351 352.184540,41.149143 356.478638,42.483845   C360.559845,43.752369 363.412170,46.351154 363.256287,51.162327   C363.170166,53.820374 363.254852,56.483578 363.237640,59.144302   C363.181885,67.757370 357.079651,71.456871 348.794495,67.464630  z"/>
<path fill="#2A1C36" opacity="1.000000" stroke="none" d=" M385.643494,48.934238   C388.142303,43.161636 391.393860,40.802013 395.334747,41.616783   C399.601898,42.499008 401.340027,45.210392 401.714539,51.989178   C396.730591,51.989178 391.762573,52.059772 386.804260,51.872646   C386.342499,51.855221 385.942322,50.205173 385.643494,48.934238  z"/>
<path fill="#221828" opacity="1.000000" stroke="none" d=" M52.850151,42.319477   C57.103088,42.996239 59.507820,45.562626 58.812691,49.183495   C58.382259,51.425575 55.957623,54.371876 53.890553,54.900738   C51.904171,55.408955 48.443253,53.842407 47.010078,52.071117   C43.840370,48.153603 46.625462,43.590202 52.850151,42.319477  z"/>
<path fill="#1A1020" opacity="1.000000" stroke="none" d=" M49.750000,71.250000   C49.700001,71.533333 49.399998,71.566666 49.099998,71.599998   C49.233330,71.400002 49.366665,71.199997 49.750000,71.250000  z"/>
</svg>