<?xml version="1.0" encoding="UTF-8"?>
<svg version="1.1" xmlns="http://www.w3.org/2000/svg" width="6001" height="709">
<path d="M0 0 C1980.33 0 3960.66 0 6001 0 C6001 233.97 6001 467.94 6001 709 C4020.67 709 2040.34 709 0 709 C0 475.03 0 241.06 0 0 Z M1554 21 C1554 241.11 1554 461.22 1554 688 C3012.6 688 4471.2 688 5974 688 C5974 467.89 5974 247.78 5974 21 C4515.4 21 3056.8 21 1554 21 Z " fill="#2263E7" transform="translate(0,0)"/>
<path d="M0 0 C36.63 0 73.26 0 111 0 C115.49964233 11.24910582 115.49964233 11.24910582 117.17211914 16.13745117 C117.55167755 17.24261581 117.93123596 18.34778046 118.32229614 19.48643494 C118.72253998 20.66009109 119.12278381 21.83374725 119.53515625 23.04296875 C119.97029182 24.31266818 120.40567247 25.58228365 120.84127808 26.8518219 C121.7681589 29.5545783 122.69352609 32.25784596 123.61764526 34.96154785 C125.08380105 39.25094726 126.55335147 43.53917839 128.02368164 47.82714844 C128.27127574 48.54922674 128.51886984 49.27130505 128.77396679 50.01526451 C129.27658347 51.48105545 129.77921278 52.94684205 130.28185463 54.41262436 C131.0416675 56.62869149 131.80115698 58.84486925 132.56059265 61.06106567 C136.93800849 73.83296679 141.34595213 86.59419207 145.76184082 99.35284424 C151.98215053 117.3268977 158.17528302 135.30989283 164.3125 153.3125 C164.76470413 154.63828064 164.76470413 154.63828064 165.2260437 155.99084473 C170.81373981 172.3794589 176.3863296 188.76847697 181.5 205.3125 C182.07137695 207.15485229 182.07137695 207.15485229 182.65429688 209.03442383 C185.29700856 217.6015113 187.83090328 226.19457946 190.23632812 234.83129883 C191.35602963 239.01174882 191.35602963 239.01174882 193 243 C193.28085449 242.0112085 193.56170898 241.02241699 193.85107422 240.00366211 C207.34436118 192.58420072 223.32557267 146.04833195 239.45410156 99.46972656 C241.02656794 94.9257243 242.59416038 90.38004424 244.16177368 85.83436584 C245.78211749 81.13591629 247.40327267 76.43774685 249.0244751 71.73959351 C249.81554554 69.44673419 250.60637524 67.1537918 251.39691162 64.86074829 C258.86026676 43.21523841 266.43611337 21.61110466 274 0 C310.63 0 347.26 0 385 0 C386.80223193 17.42157536 388.56204814 34.79795389 389.9375 52.25 C390.10577896 54.35313602 390.27440844 56.45624402 390.44335938 58.55932617 C390.79144946 62.89475814 391.1380799 67.23030334 391.48388672 71.56591797 C391.9812601 77.78560553 392.49069189 84.00425808 393.00390625 90.22265625 C394.62455932 109.87945267 396.203129 129.53815086 397.69259644 149.20535278 C399.16257887 168.60564056 400.74607817 187.99274483 402.4375 207.375 C406.25301381 251.12013893 409.7053673 294.89465833 413.09906483 338.67427063 C414.03335542 350.72649381 414.96955154 362.77814591 415.98046875 374.82421875 C416.08989807 376.13556541 416.08989807 376.13556541 416.20153809 377.47340393 C416.52394 381.33255209 416.85071637 385.19119525 417.18798828 389.04907227 C417.29739746 390.34772217 417.40680664 391.64637207 417.51953125 392.984375 C417.61339111 394.06428711 417.70725098 395.14419922 417.80395508 396.25683594 C418.07844496 401.497781 418 406.75187178 418 412 C384.67 412 351.34 412 317 412 C316.21475266 408.07376331 315.75376564 404.54395862 315.4909668 400.57568359 C315.40369324 399.28266327 315.31641968 397.98964294 315.22650146 396.65744019 C315.13401803 395.23777626 315.04159223 393.81810858 314.94921875 392.3984375 C314.84984354 390.90868186 314.75016623 389.41894634 314.65020752 387.92922974 C314.43708863 384.74387743 314.22601728 381.55839862 314.01657104 378.37280273 C313.68497606 373.32969553 313.34884427 368.28689709 313.01196289 363.24414062 C312.61179954 357.24985667 312.21263378 351.25550817 311.81495571 345.26105881 C311.02741384 333.39039028 310.228668 321.5205168 309.42211914 309.65112305 C309.09719894 304.8689798 308.77640319 300.08658571 308.45874023 295.30395508 C307.7441521 284.59461772 307.00434542 273.88948522 306.15193176 263.19012451 C303.29754234 227.35612243 302.48775351 191.92172041 303 156 C302.78613144 156.69793671 302.57226288 157.39587341 302.35191345 158.11495972 C293.70269758 186.32508002 293.70269758 186.32508002 289.5625 199.125 C289.32143524 199.87104492 289.08037048 200.61708984 288.83200073 201.38574219 C282.63666932 220.49719241 275.85728408 239.40266161 269.09541321 258.31924438 C266.04218266 266.86527096 263.03478821 275.42688336 260.03921509 283.99325562 C256.54317587 293.99010817 253.02183077 303.97642909 249.4140625 313.93359375 C249.11657104 314.75483734 248.81907959 315.57608093 248.51257324 316.42221069 C247.0878244 320.35196265 245.65883053 324.280107 244.22363281 328.20605469 C243.70895767 329.62043299 243.19430791 331.03482053 242.6796875 332.44921875 C242.01042236 334.27972778 242.01042236 334.27972778 241.32763672 336.1472168 C239.75156387 340.72095817 238.39009617 345.3663461 237 350 C207.96 350 178.92 350 149 350 C144.12739207 337.00637884 139.41138182 324.38475333 135.10571289 311.26660156 C132.29622443 302.71308017 129.22399666 294.26405502 126.125 285.8125 C121.32857586 272.71558445 116.67291815 259.57955949 112.17671204 246.37585449 C110.53320101 241.55162955 108.87435818 236.73282001 107.21139526 231.91526794 C98.64497461 207.08368438 90.44177271 182.19290045 83 157 C82.99857498 157.62858917 82.99714996 158.25717834 82.99568176 158.90481567 C82.86105725 204.13410683 80.58323419 249.03977569 77.34753418 294.14404297 C77.00266467 298.9538158 76.66326903 303.76396406 76.32519531 308.57421875 C75.30391488 323.09500948 74.26846587 337.61461213 73.2109375 352.1328125 C71.75460169 372.41816102 70.38343979 392.70954971 69 413 C35.01 413 1.02 413 -34 413 C-32.80515587 395.6747601 -31.57046363 378.40288254 -29.99853516 361.11547852 C-28.00000998 339.08934661 -26.19068737 317.05150272 -24.5 295 C-22.86093136 273.63494256 -21.09551565 252.28483838 -19.1875 230.94189453 C-17.50868556 212.13654964 -15.97013804 193.32271999 -14.5 174.5 C-12.84854499 153.35581189 -11.07951441 132.22592887 -9.19052124 111.10165405 C-7.18960615 88.67689677 -5.41341756 66.23745311 -3.69921875 43.78930664 C-3.60033859 42.50014343 -3.50145844 41.21098022 -3.39958191 39.88275146 C-3.21865224 37.52035746 -3.03904502 35.15786147 -2.86128235 32.79522705 C-2.02376466 21.84992242 -0.99424908 10.93673983 0 0 Z " fill="#FEFEFE" transform="translate(567,158)"/>
<path d="M0 0 C3.51905635 0.01069918 7.03759995 0.0000655 10.55664062 -0.01269531 C34.19278748 -0.02738333 56.7607887 2.52038403 79.15820312 10.26074219 C80.28597168 10.64770264 80.28597168 10.64770264 81.43652344 11.04248047 C110.30881052 21.04778775 138.74715944 35.96676886 160.15820312 58.26074219 C158.79663204 61.93405733 157.13158987 65.13007086 155.06054688 68.45214844 C154.43237061 69.46535156 153.80419434 70.47855469 153.15698242 71.52246094 C152.13664917 73.15634766 152.13664917 73.15634766 151.09570312 74.82324219 C149.64069416 77.16712799 148.18862444 79.51283116 146.73632812 81.85839844 C146.36118576 82.46346222 145.9860434 83.068526 145.59953308 83.69192505 C141.47162695 90.35527573 137.40680728 97.05654603 133.34570312 103.76074219 C131.93445975 106.08899754 130.52292014 108.4170732 129.11132812 110.74511719 C128.44423828 111.84533203 127.77714844 112.94554687 127.08984375 114.07910156 C122.79676597 121.15030854 118.47862996 128.20622234 114.15820312 135.26074219 C110.907877 133.84720969 108.24429623 131.88121779 105.44067383 129.73266602 C84.24868595 113.54352403 60.94092414 103.64942688 35.15820312 97.26074219 C34.44664062 97.08140137 33.73507812 96.90206055 33.00195312 96.71728516 C2.32389543 89.29113033 -29.24974662 94.99818799 -56.11914062 110.91308594 C-61.46437406 114.20444569 -66.21827236 118.02192849 -70.84179688 122.26074219 C-72.22818359 123.5253125 -72.22818359 123.5253125 -73.64257812 124.81542969 C-94.46891431 144.69118622 -106.28014395 172.09750031 -107.08007812 200.79589844 C-107.66204546 240.1730666 -97.79432102 276.31403491 -69.84179688 305.26074219 C-52.67090843 321.2947994 -32.60107373 329.82160237 -9.84179688 334.26074219 C-8.81183594 334.46183594 -7.781875 334.66292969 -6.72070312 334.87011719 C29.71764982 339.81426277 69.46929539 324.00381155 98.47070312 302.76074219 C105.45303113 297.3802978 111.96262511 291.5267245 118.15820312 285.26074219 C121.45571375 286.64426679 123.00896562 288.04412841 124.97070312 291.01464844 C125.48238037 291.77769287 125.99405762 292.5407373 126.52124023 293.3269043 C127.06143799 294.1506958 127.60163574 294.9744873 128.15820312 295.82324219 C129.32504316 297.56618585 130.49303485 299.30835901 131.66210938 301.04980469 C132.24879395 301.92797852 132.83547852 302.80615234 133.43994141 303.7109375 C135.93532072 307.41394142 138.50848444 311.05906787 141.09570312 314.69824219 C142.08164803 316.08867731 143.06732062 317.47930557 144.05273438 318.87011719 C144.55369629 319.57716797 145.0546582 320.28421875 145.57080078 321.01269531 C149.08666936 325.9917968 152.57399237 330.99113394 156.0546875 335.99487305 C158.75496314 339.8683745 161.47598751 343.71655409 164.30273438 347.49902344 C165.01502197 348.46062378 165.01502197 348.46062378 165.74169922 349.44165039 C166.61794265 350.61887538 167.50439859 351.78859597 168.40283203 352.94897461 C171.22003625 356.74940805 171.22003625 356.74940805 170.91821289 359.24536133 C169.59762822 362.7472651 166.78075987 365.12085901 164.15820312 367.69824219 C163.53518311 368.31296387 162.91216309 368.92768555 162.27026367 369.56103516 C136.47616528 394.45930588 103.35567548 411.34904562 69.15820312 421.26074219 C68.30742188 421.51291504 67.45664063 421.76508789 66.58007812 422.02490234 C44.79458336 428.37472324 23.09228937 429.54034976 0.53320312 429.63574219 C-0.45024078 429.64368805 -1.43368469 429.65163391 -2.44692993 429.65982056 C-21.43824246 429.77754307 -40.42927459 428.39860317 -58.77929688 423.19824219 C-59.84937988 422.90079102 -60.91946289 422.60333984 -62.02197266 422.296875 C-106.1629472 409.5221255 -145.58950634 382.26672852 -172.84179688 345.26074219 C-173.47472656 344.41125 -174.10765625 343.56175781 -174.75976562 342.68652344 C-190.78160986 320.50525166 -202.26174739 294.94773044 -208.71679688 268.38574219 C-209.00345215 267.21229248 -209.00345215 267.21229248 -209.29589844 266.01513672 C-212.95392649 249.89259384 -213.24776653 233.84154802 -213.21679688 217.38574219 C-213.21592072 216.25179016 -213.21504456 215.11783813 -213.21414185 213.94952393 C-213.17189723 197.39636057 -212.76249281 181.42172778 -208.84179688 165.26074219 C-208.60041992 164.23029785 -208.35904297 163.19985352 -208.11035156 162.13818359 C-204.52105225 147.19179948 -199.48910462 133.11212622 -192.84179688 119.26074219 C-192.47828125 118.50325684 -192.11476563 117.74577148 -191.74023438 116.96533203 C-182.9973677 99.05896616 -171.35119475 83.25446379 -157.93164062 68.57324219 C-156.15822846 66.61088705 -154.46029442 64.6141281 -152.77929688 62.57324219 C-149.48323699 58.71137365 -145.72575766 55.51593361 -141.84179688 52.26074219 C-140.94332031 51.48601562 -140.04484375 50.71128906 -139.11914062 49.91308594 C-112.5523855 27.2665898 -80.9932349 11.44859827 -46.84179688 4.26074219 C-45.29979113 3.88713894 -43.75805212 3.51242957 -42.21679688 3.13574219 C-28.14017621 0.19364324 -14.34065331 -0.05181448 0 0 Z " fill="#FEFEFE" transform="translate(1254.841796875,148.7392578125)"/>
<path d="M0 0 C83.16 0 166.32 0 252 0 C252 27.72 252 55.44 252 84 C201.18 84 150.36 84 98 84 C98 114.03 98 144.06 98 175 C139.58 175 181.16 175 224 175 C224 202.72 224 230.44 224 259 C182.75 259 141.5 259 99 259 C99.01160156 270.03308594 99.02320313 281.06617188 99.03515625 292.43359375 C99.04026265 299.40169294 99.04511765 306.36979078 99.04882812 313.33789062 C99.05477146 324.41056784 99.06177408 335.48323747 99.07543945 346.5559082 C99.08538529 354.61856198 99.09185319 362.68120963 99.09408849 370.74386936 C99.09539577 375.01568521 99.0984827 379.28748351 99.10573006 383.55929375 C99.11248869 387.57535956 99.11461728 391.59140051 99.11310768 395.60747147 C99.11338408 397.08576785 99.11539013 398.56406501 99.11920547 400.04235649 C99.12414021 402.05198957 99.12239814 404.06163581 99.12025452 406.0712738 C99.12117631 407.19862662 99.1220981 408.32597944 99.12304783 409.48749447 C99 412 99 412 98 413 C94.99186514 413.10062747 92.00664971 413.1361474 88.99804688 413.12939453 C88.0534108 413.13114685 87.10877472 413.13289917 86.13551331 413.13470459 C82.9965738 413.1391248 79.85769013 413.13618452 76.71875 413.1328125 C74.54781076 413.13348549 72.3768716 413.13445547 70.20593262 413.13571167 C65.64948817 413.13718887 61.09306328 413.13503337 56.53662109 413.13037109 C50.68173414 413.1246738 44.82689302 413.12795268 38.97200775 413.13394356 C34.48719942 413.13754857 30.00240204 413.13641086 25.51759338 413.13381577 C23.35811864 413.13314633 21.19864291 413.1339755 19.03916931 413.13629532 C16.02673692 413.13882086 13.01437987 413.13498264 10.00195312 413.12939453 C8.64917015 413.13243088 8.64917015 413.13243088 7.26905823 413.13552856 C1.11426231 413.11426231 1.11426231 413.11426231 0 412 C-0.09806659 409.81601431 -0.12371131 407.62878168 -0.12304783 405.44259548 C-0.12420167 404.74583168 -0.12535552 404.04906788 -0.12654433 403.33119002 C-0.1292177 400.96698083 -0.12468296 398.60283803 -0.12025452 396.2386322 C-0.12069007 394.53835123 -0.12156469 392.83807033 -0.12284368 391.13778979 C-0.12509173 386.44259224 -0.12106315 381.74741728 -0.11606562 377.05222261 C-0.11176572 371.9976599 -0.11320722 366.94309857 -0.1139679 361.88853455 C-0.11449343 353.12353651 -0.11134362 344.3585459 -0.10573006 335.59354973 C-0.09761896 322.92068027 -0.09500024 310.24781442 -0.09374207 297.57494266 C-0.09155093 277.01634971 -0.08488918 256.45776072 -0.07543945 235.89916992 C-0.06626692 215.92293314 -0.05919677 195.94669744 -0.05493164 175.97045898 C-0.05466364 174.72751574 -0.05439565 173.48457249 -0.05411953 172.20396429 C-0.05204023 162.4840007 -0.05008326 152.76403709 -0.04816496 143.04407346 C-0.03872339 95.36271201 -0.01860696 47.68136046 0 0 Z " fill="#FDFEFE" transform="translate(230,158)"/>
<path d="M0 0 C1.485 1.485 2.97 2.97 4.5 4.5 C4.83 -2.1 5.16 -8.7 5.5 -15.5 C22.33 -15.5 39.16 -15.5 56.5 -15.5 C56.56795759 5.66791668 56.62312105 26.8357438 56.65543652 48.00374222 C56.67084599 57.83440329 56.69182099 67.66499131 56.72631836 77.49560547 C56.75640339 86.0730017 56.77561791 94.65034497 56.78226548 103.2277925 C56.7861457 107.76128564 56.79513814 112.29462741 56.81719017 116.82807159 C56.97894977 151.46541952 55.99328276 183.85908289 30.875 210.5625 C8.34409395 232.48170725 -23.39397476 234.91060499 -53.08203125 234.65234375 C-61.37914079 234.52655121 -69.32142714 233.93226749 -77.5 232.5 C-78.24717285 232.37109375 -78.9943457 232.2421875 -79.76416016 232.109375 C-98.77035571 228.74089234 -119.22114585 222.8723369 -134.5 210.5 C-133.90139516 206.56402897 -132.6870097 203.62708431 -130.76953125 200.1484375 C-130.21330078 199.13136719 -129.65707031 198.11429688 -129.08398438 197.06640625 C-128.49939453 196.01324219 -127.91480469 194.96007812 -127.3125 193.875 C-126.46461914 192.33005859 -126.46461914 192.33005859 -125.59960938 190.75390625 C-124.46833712 188.69351348 -123.33440927 186.63457642 -122.19775391 184.57714844 C-119.61414885 179.89441071 -117.05694564 175.19733313 -114.5 170.5 C-110.95973273 172.234978 -107.63146806 174.22111916 -104.25 176.25 C-82.25273392 189.0283377 -53.77952702 194.88952631 -28.8203125 188.60546875 C-15.75807514 184.25651208 -7.77262132 178.59100057 -1.578125 166.22265625 C1.07806305 159.51481904 1.84593921 153.13930515 2.125 146 C2.18300781 144.76636719 2.18300781 144.76636719 2.2421875 143.5078125 C2.33531692 141.5055299 2.41868985 139.50279738 2.5 137.5 C2.06171875 137.92410156 1.6234375 138.34820312 1.171875 138.78515625 C-17.52997861 156.08056965 -39.62162283 158.32247602 -64.06640625 157.67480469 C-86.35883319 156.53989444 -108.27264902 145.60754468 -123.5 129.5 C-140.89522665 108.90104815 -145.78395802 84.86946033 -144.5 58.5 C-142.42179359 36.39755418 -131.02241513 16.06052397 -114.33984375 1.69140625 C-100.93876542 -8.64972847 -85.36581679 -15.45088207 -68.5 -17.5 C-67.69304688 -17.62117188 -66.88609375 -17.74234375 -66.0546875 -17.8671875 C-43.15966096 -20.73781774 -17.28088844 -16.1698416 0 0 Z M-80.8125 41.6875 C-89.25390838 51.64972892 -91.49265532 63.80519677 -90.5 76.5 C-87.95992312 89.21489912 -82.06248186 98.9175287 -71.5 106.5 C-58.48597328 113.80416884 -44.2880883 115.44738825 -29.69140625 112.8125 C-18.49513495 109.64747631 -8.23417013 103.04583462 -1.9609375 93.046875 C4.16666976 81.36500384 5.7565227 67.93640667 2 55.1875 C-2.47439784 43.67296571 -10.06857121 35.46131784 -21.21875 30.22265625 C-41.88976558 21.68066305 -65.13465993 25.54166471 -80.8125 41.6875 Z " fill="#231F20" transform="translate(3123.5,301.5)"/>
<path d="M0 0 C11.95552696 10.30471778 11.95552696 10.30471778 13.11328125 15.71484375 C7.78817496 20.72365744 2.45328341 25.72191694 -2.88671875 30.71484375 C-3.48291016 31.27365234 -4.07910156 31.83246094 -4.69335938 32.40820312 C-10.52272781 37.86416006 -16.37178392 43.07921704 -22.88671875 47.71484375 C-23.55316406 47.00199219 -24.21960937 46.28914063 -24.90625 45.5546875 C-38.68900852 31.11007364 -56.43351736 21.59960742 -76.6640625 20.51171875 C-95.74402664 20.15184917 -113.21931976 24.40086646 -128.88671875 35.71484375 C-129.59441406 36.2253125 -130.30210937 36.73578125 -131.03125 37.26171875 C-144.47710055 47.97596653 -152.64330134 65.97396454 -154.88671875 82.71484375 C-156.63699736 103.8987421 -153.6898965 124.32946046 -140.6484375 141.6953125 C-138.48929209 144.16024361 -136.25511277 146.45180533 -133.88671875 148.71484375 C-133.28601562 149.33488281 -132.6853125 149.95492187 -132.06640625 150.59375 C-120.33426689 161.94497574 -102.99615095 168.00932117 -86.88671875 168.71484375 C-86.0978125 168.76640625 -85.30890625 168.81796875 -84.49609375 168.87109375 C-63.12526532 169.63890795 -43.89650198 161.57670493 -28.23046875 147.29296875 C-26.39756472 145.47297249 -24.61375178 143.63496122 -22.88671875 141.71484375 C-19.91999521 143.05726178 -17.76738001 144.55801343 -15.41796875 146.8046875 C-14.76989258 147.41916748 -14.12181641 148.03364746 -13.45410156 148.66674805 C-12.77186523 149.32199463 -12.08962891 149.97724121 -11.38671875 150.65234375 C-9.95497913 152.01230017 -8.52268216 153.37167005 -7.08984375 154.73046875 C-6.38150391 155.40400391 -5.67316406 156.07753906 -4.94335938 156.77148438 C-1.12299794 160.38141754 2.77133035 163.90952247 6.66015625 167.4453125 C8.86645881 169.48649369 11.00551499 171.57260468 13.11328125 173.71484375 C6.93411986 189.37124654 -14.45055652 200.32557629 -28.88134766 206.85107422 C-56.11737172 218.58239308 -89.15657881 220.34896676 -117.88671875 213.71484375 C-118.58055664 213.55918945 -119.27439453 213.40353516 -119.98925781 213.24316406 C-151.6611919 205.8387595 -178.18591955 186.45610382 -195.55151367 159.14941406 C-213.2661604 130.25430428 -216.60443812 95.12298932 -209.10546875 62.4296875 C-204.79590627 45.10341546 -196.7036207 29.1348138 -184.88671875 15.71484375 C-184.2009375 14.89757812 -183.51515625 14.0803125 -182.80859375 13.23828125 C-169.04407106 -2.75431166 -151.65551926 -13.36061508 -131.88671875 -20.28515625 C-130.83355469 -20.66285156 -129.78039063 -21.04054687 -128.6953125 -21.4296875 C-86.62064552 -35.4896826 -34.38609403 -28.74612715 0 0 Z " fill="#231F20" transform="translate(3797.88671875,255.28515625)"/>
<path d="M0 0 C16.74184319 16.09505578 26.47622609 38.59774108 27.203125 61.8125 C27.60860749 88.5563802 20.94805407 112.05084683 2.2265625 131.76953125 C1.49179688 132.50558594 0.75703125 133.24164063 0 134 C-0.67289063 134.68449219 -1.34578125 135.36898437 -2.0390625 136.07421875 C-16.60115638 149.95456666 -35.44520046 156.90266769 -55 160 C-55.76054687 160.13148438 -56.52109375 160.26296875 -57.3046875 160.3984375 C-84.76376961 164.35169057 -114.52972043 157.75251051 -137.01757812 141.50366211 C-156.73982694 126.69755865 -168.13374236 105.83298431 -172.3984375 81.75 C-175.96340463 56.31347778 -169.92353459 30.23425032 -154.53515625 9.6328125 C-138.50419148 -10.85519181 -114.58898314 -22.657295 -89 -26 C-88.14148437 -26.12246094 -87.28296875 -26.24492187 -86.3984375 -26.37109375 C-55.18515261 -29.93204597 -23.35306124 -21.36410742 0 0 Z M-107.25 32.1875 C-116.83364864 43.50842359 -119.85233853 58.56109371 -118.85693359 73.08789062 C-117.51535029 85.59346979 -112.8610099 97.57131714 -103.42578125 106.21875 C-95.65597538 111.92411469 -86.65634257 116.10711901 -77 117 C-76.2884375 117.06960938 -75.576875 117.13921875 -74.84375 117.2109375 C-63.81202801 117.73054759 -53.92628031 114.27024963 -45 108 C-43.6696875 107.13375 -43.6696875 107.13375 -42.3125 106.25 C-31.70908516 95.93316394 -27.09250443 82.27733291 -26.6875 67.75 C-26.96401735 53.90786668 -30.53702829 40.60028671 -40 30.1875 C-50.72344744 20.15824507 -62.96916374 17.50467918 -77.1484375 17.72265625 C-89.17838954 18.19072059 -99.03429988 23.60393271 -107.25 32.1875 Z " fill="#231F20" transform="translate(3996,310)"/>
<path d="M0 0 C1.19109375 1.17175781 1.19109375 1.17175781 2.40625 2.3671875 C3.1796875 3.12773437 3.953125 3.88828125 4.75 4.671875 C20.06568541 20.66942312 26.80421729 41.80489604 28.15625 63.5546875 C28.22344238 64.60402466 28.22344238 64.60402466 28.29199219 65.67456055 C28.5911687 72.07649352 27.95123036 77.82742321 27.40625 84.3671875 C-17.80375 84.3671875 -63.01375 84.3671875 -109.59375 84.3671875 C-103.56004596 98.84807719 -97.40408258 109.13454446 -82.7109375 115.30078125 C-66.05229855 120.99978931 -47.14406658 121.50007806 -30.94140625 114.00634766 C-24.58688153 110.84125206 -18.942263 107.02237474 -13.59375 102.3671875 C-8.64539971 106.36798135 -4.42197641 110.65330523 -0.21484375 115.421875 C2.96302067 118.99282846 6.21094212 122.49427466 9.46875 125.9921875 C10.05350098 126.62060547 10.63825195 127.24902344 11.24072266 127.89648438 C12.62857034 129.38733476 14.01731196 130.87735288 15.40625 132.3671875 C10.85603976 143.38880785 -3.23903428 150.78688031 -13.63671875 155.24267578 C-44.68465973 167.68911238 -80.95747548 166.18616763 -111.59375 153.3671875 C-120.91950945 149.10887957 -128.97970918 143.19870863 -136.59375 136.3671875 C-137.24988281 135.78195312 -137.90601562 135.19671875 -138.58203125 134.59375 C-153.35205424 120.64246443 -162.73347882 99.01200587 -163.71850586 78.80834961 C-164.42669514 53.07747244 -160.22378832 27.67310306 -142.21875 8.0546875 C-140.37546188 6.12253955 -138.49349559 4.24555761 -136.59375 2.3671875 C-135.79066406 1.55378906 -134.98757813 0.74039062 -134.16015625 -0.09765625 C-99.14735668 -33.73064106 -34.98890984 -32.88514627 0 0 Z M-100.59375 30.3671875 C-105.687424 36.51388064 -110.59375 45.17438324 -110.59375 53.3671875 C-81.55375 53.3671875 -52.51375 53.3671875 -22.59375 53.3671875 C-25.48140682 40.37273181 -29.73542607 31.04917944 -40.96875 23.6171875 C-60.00635705 12.09646465 -84.86754457 13.80930774 -100.59375 30.3671875 Z " fill="#231F20" transform="translate(5564.59375,307.6328125)"/>
<path d="M0 0 C1.19109375 1.17175781 1.19109375 1.17175781 2.40625 2.3671875 C3.1796875 3.12773437 3.953125 3.88828125 4.75 4.671875 C21.94915435 22.63674513 28.32099293 47.02629448 28.40625 71.3671875 C28.07625 75.6571875 27.74625 79.9471875 27.40625 84.3671875 C-17.80375 84.3671875 -63.01375 84.3671875 -109.59375 84.3671875 C-103.56004596 98.84807719 -97.40408258 109.13454446 -82.7109375 115.30078125 C-66.05229855 120.99978931 -47.14406658 121.50007806 -30.94140625 114.00634766 C-24.58688153 110.84125206 -18.942263 107.02237474 -13.59375 102.3671875 C-8.61876515 106.38951568 -4.36512242 110.69630181 -0.1484375 115.50390625 C1.75133017 117.63315656 3.67199338 119.70605495 5.6484375 121.76171875 C6.19862549 122.33913818 6.74881348 122.91655762 7.31567383 123.51147461 C8.40167962 124.64848466 9.495091 125.77847585 10.59643555 126.90063477 C14.40625 130.9198682 14.40625 130.9198682 14.40625 135.3671875 C4.10950342 149.99402288 -17.57498541 158.23097625 -34.41015625 161.2734375 C-65.38771575 166.41948074 -99.05945994 163.49390783 -125.59375 145.3671875 C-129.42123539 142.52965351 -133.04803235 139.54850023 -136.59375 136.3671875 C-137.24988281 135.78195312 -137.90601562 135.19671875 -138.58203125 134.59375 C-153.35205424 120.64246443 -162.73347882 99.01200587 -163.71850586 78.80834961 C-164.42669514 53.07747244 -160.22378832 27.67310306 -142.21875 8.0546875 C-140.37546188 6.12253955 -138.49349559 4.24555761 -136.59375 2.3671875 C-135.79066406 1.55378906 -134.98757813 0.74039062 -134.16015625 -0.09765625 C-99.14735668 -33.73064106 -34.98890984 -32.88514627 0 0 Z M-100.59375 30.3671875 C-105.687424 36.51388064 -110.59375 45.17438324 -110.59375 53.3671875 C-81.55375 53.3671875 -52.51375 53.3671875 -22.59375 53.3671875 C-25.48140682 40.37273181 -29.73542607 31.04917944 -40.96875 23.6171875 C-60.00635705 12.09646465 -84.86754457 13.80930774 -100.59375 30.3671875 Z " fill="#231F20" transform="translate(4921.59375,307.6328125)"/>
<path d="M0 0 C0.76054687 0.74765625 1.52109375 1.4953125 2.3046875 2.265625 C3.35269531 3.29429687 3.35269531 3.29429687 4.421875 4.34375 C20.94992227 21.70784635 26.72266493 45.57601305 26.4921875 68.890625 C26.4912207 70.80681641 26.4912207 70.80681641 26.49023438 72.76171875 C26.44536266 82.12494984 26.44536266 82.12494984 25.3046875 83.265625 C23.5457532 83.36194545 21.78291591 83.3875001 20.02134705 83.38587952 C18.87564743 83.38725418 17.72994781 83.38862885 16.54953003 83.39004517 C15.28142487 83.38644989 14.0133197 83.38285461 12.70678711 83.37915039 C11.36675519 83.37886852 10.02672311 83.37902625 8.68669128 83.3795929 C5.03809312 83.37988087 1.38952755 83.3739842 -2.25906301 83.36701894 C-6.06808766 83.36078534 -9.877113 83.3601816 -13.68614197 83.35899353 C-20.90389004 83.35588023 -28.12162304 83.34766686 -35.33936447 83.33764404 C-43.55446507 83.32648286 -51.76956638 83.32097244 -59.98467267 83.31594861 C-76.88822801 83.30548425 -93.79176866 83.28788483 -110.6953125 83.265625 C-110.09122853 85.01401067 -109.47894027 86.75956286 -108.86328125 88.50390625 C-108.52321045 89.47626221 -108.18313965 90.44861816 -107.83276367 91.45043945 C-104.01527227 100.89871018 -95.57758454 108.60794838 -86.5703125 113.078125 C-68.69821863 120.4769219 -49.58155591 119.95587624 -31.8203125 112.76171875 C-25.78401828 109.87184289 -20.31636934 106.12214971 -15.6953125 101.265625 C-11.56912069 102.85187327 -9.06227386 105.85737441 -6.1953125 109.078125 C-5.13576223 110.25031245 -4.07585545 111.42217773 -3.015625 112.59375 C-2.47196289 113.19767578 -1.92830078 113.80160156 -1.36816406 114.42382812 C0.29865753 116.25898605 1.98794804 118.07014865 3.6875 119.875 C4.23083984 120.45403076 4.77417969 121.03306152 5.33398438 121.62963867 C6.37657326 122.73938329 7.4220303 123.84644216 8.47070312 124.95043945 C10.90837798 127.56181937 12.94779979 129.93725926 14.3046875 133.265625 C-4.16353905 153.45182611 -29.87888235 161.24895191 -56.53125 162.5546875 C-88.1278284 163.45387085 -117.63488904 154.39760462 -140.8828125 132.578125 C-159.72854516 113.06582301 -165.15499529 88.30285143 -164.91015625 62.01171875 C-164.45647246 41.58467637 -156.72976476 22.89007642 -143.6953125 7.265625 C-142.93089844 6.30011719 -142.16648438 5.33460938 -141.37890625 4.33984375 C-127.55690314 -12.17634473 -104.61707067 -22.04178186 -83.6953125 -24.734375 C-82.38820312 -24.91806641 -82.38820312 -24.91806641 -81.0546875 -25.10546875 C-51.41440242 -28.45862949 -21.91447913 -20.58420723 0 0 Z M-102.6953125 30.265625 C-107.33576575 36.59637909 -111.6953125 44.23065181 -111.6953125 52.265625 C-82.6553125 52.265625 -53.6153125 52.265625 -23.6953125 52.265625 C-26.39916652 40.09828191 -30.76071757 31.07354823 -40.6953125 23.265625 C-60.71731104 10.82528991 -86.27988604 12.43029879 -102.6953125 30.265625 Z " fill="#231F20" transform="translate(4568.6953125,308.734375)"/>
<path d="M0 0 C20.44829815 21.41091419 20.63310621 49.88417525 20.5078125 77.78125 C20.50407464 80.24702845 20.50123133 82.71280839 20.49923706 85.17858887 C20.49166146 91.61627422 20.47206623 98.05386694 20.4498291 104.49151611 C20.42560791 112.24361762 20.41656074 119.99575038 20.40492249 127.74787903 C20.38563748 139.47781678 20.34727257 151.20755195 20.3125 162.9375 C3.8125 162.9375 -12.6875 162.9375 -29.6875 162.9375 C-30.0175 156.6675 -30.3475 150.3975 -30.6875 143.9375 C-31.615625 145.113125 -32.54375 146.28875 -33.5 147.5 C-42.23366589 157.44863151 -54.83664204 162.75744374 -67.6875 164.9375 C-68.6775 165.10572266 -68.6775 165.10572266 -69.6875 165.27734375 C-91.64167314 168.31267451 -115.37907229 164.97731542 -133.6875 151.9375 C-143.53152658 143.94211691 -150.98920755 132.65174347 -152.6875 119.9375 C-153.44429549 109.7196037 -153.50055255 99.58618081 -149.6875 89.9375 C-149.43226563 89.24914062 -149.17703125 88.56078125 -148.9140625 87.8515625 C-143.53988644 75.37755752 -131.95804056 67.36020081 -119.9140625 62.1015625 C-106.046573 57.09852149 -91.99219612 55.77684152 -77.33984375 55.83984375 C-75.4611837 55.84196617 -75.4611837 55.84196617 -73.54457092 55.84413147 C-70.24518629 55.84875413 -66.94585224 55.85770925 -63.64648438 55.86883545 C-60.26758436 55.87913946 -56.88867689 55.88364818 -53.50976562 55.88867188 C-46.90232427 55.89965675 -40.29491626 55.91636156 -33.6875 55.9375 C-33.96715574 54.04826169 -34.25691512 52.16051763 -34.55078125 50.2734375 C-34.79115112 48.6963501 -34.79115112 48.6963501 -35.03637695 47.08740234 C-36.53676884 39.82903859 -39.82035204 33.70359995 -45.75 29.1796875 C-60.25948437 19.87723583 -78.05939301 20.56115425 -94.375 23.8984375 C-105.04929142 26.3257289 -114.65422614 30.34026054 -123.6484375 36.6171875 C-125.6875 37.9375 -125.6875 37.9375 -127.6875 37.9375 C-130.28473971 33.03417901 -132.86603394 28.12292324 -135.43286133 23.20361328 C-136.30839929 21.53108424 -137.1882627 19.86081212 -138.07250977 18.19287109 C-139.34232449 15.79583734 -140.59639473 13.3911343 -141.84765625 10.984375 C-142.24654556 10.23943787 -142.64543488 9.49450073 -143.05641174 8.72698975 C-145.76136027 3.470737 -145.76136027 3.470737 -145.39134216 0.79937744 C-143.16040914 -5.10212162 -132.64847688 -8.17296409 -127.25 -10.625 C-114.44839424 -16.2232088 -100.55847534 -19.5577932 -86.6875 -21.0625 C-85.04394531 -21.24619141 -85.04394531 -21.24619141 -83.3671875 -21.43359375 C-54.12546215 -24.03642864 -22.28282771 -20.81765548 0 0 Z M-95.46875 94.6484375 C-99.78145627 99.46971763 -101.01588047 103.15090578 -100.890625 109.6015625 C-100.30939884 116.28566329 -96.96165817 120.06969473 -92.2109375 124.359375 C-85.68819659 128.43861235 -78.89006255 129.47116393 -71.3125 129.375 C-70.48468018 129.36887695 -69.65686035 129.36275391 -68.80395508 129.35644531 C-56.68772462 129.04823477 -47.99784907 124.34870697 -39.3984375 116.01171875 C-33.97645217 109.43848996 -33.12490873 104.84979383 -33.4375 96.5 C-33.45554687 95.57767578 -33.47359375 94.65535156 -33.4921875 93.70507812 C-33.53896399 91.44811267 -33.60448129 89.19337388 -33.6875 86.9375 C-39.00364869 86.88748919 -44.31965582 86.85149602 -49.63598633 86.82763672 C-51.43874502 86.81767406 -53.24148796 86.80409904 -55.04418945 86.78662109 C-76.69786568 85.76465953 -76.69786568 85.76465953 -95.46875 94.6484375 Z " fill="#231F20" transform="translate(2256.6875,305.0625)"/>
<path d="M0 0 C13.73871353 13.56909978 21.44723012 32.61312298 21.65150452 51.89744568 C21.65438732 54.03506393 21.65178163 56.17269402 21.64477539 58.31030273 C21.64492142 59.48175339 21.64506744 60.65320404 21.6452179 61.8601532 C21.64452328 65.71798579 21.63675198 69.57576963 21.62890625 73.43359375 C21.62704047 76.11401959 21.6255681 78.79444276 21.62461853 81.47486877 C21.62151724 87.79993576 21.61332012 94.12498535 21.60326904 100.45004469 C21.59097082 108.36187541 21.58551584 116.27370898 21.58007812 124.18554688 C21.57035396 138.29037812 21.55031917 152.39517143 21.53125 166.5 C4.04125 166.5 -13.44875 166.5 -31.46875 166.5 C-31.50613281 159.05953125 -31.54351562 151.6190625 -31.58203125 143.953125 C-31.6123285 139.22263366 -31.64348795 134.49217913 -31.67773438 129.76171875 C-31.73193875 122.26320308 -31.78305357 114.76476025 -31.81518555 107.26611328 C-31.8413089 101.21648819 -31.88177508 95.16710947 -31.93193626 89.11763763 C-31.94854401 86.81656727 -31.96009603 84.51545434 -31.96636391 82.21433258 C-31.88960009 57.60163058 -31.88960009 57.60163058 -43.46875 36.5 C-46.32716959 34.67388974 -46.32716959 34.67388974 -49.46875 33.25 C-50.5 32.74984375 -51.53125 32.2496875 -52.59375 31.734375 C-62.71896465 27.3871361 -75.31515988 28.57157463 -85.49609375 32.1796875 C-95.30149261 36.53477924 -101.6832485 42.54968114 -105.68359375 52.53125 C-108.58790408 60.88243415 -109.61811685 68.47875538 -109.67407227 77.26904297 C-109.68397186 78.23552261 -109.69387146 79.20200226 -109.70407104 80.19776917 C-109.73555459 83.37921737 -109.76039136 86.56068049 -109.78515625 89.7421875 C-109.80573713 91.95322041 -109.8267339 94.16424948 -109.84812927 96.37527466 C-109.90323278 102.18502694 -109.95269364 107.99481403 -110.00097656 113.80462646 C-110.06012646 120.78061722 -110.12628978 127.75654456 -110.19127655 134.73248291 C-110.28913853 145.32161643 -110.37809557 155.91079127 -110.46875 166.5 C-128.28875 166.5 -146.10875 166.5 -164.46875 166.5 C-164.46875 106.44 -164.46875 46.38 -164.46875 -15.5 C-147.30875 -15.5 -130.14875 -15.5 -112.46875 -15.5 C-111.97375 -6.59 -111.97375 -6.59 -111.46875 2.5 C-110.1075 1.324375 -108.74625 0.14875 -107.34375 -1.0625 C-77.64380564 -24.73029769 -28.93578571 -25.19115462 0 0 Z " fill="#231F20" transform="translate(5147.46875,301.5)"/>
<path d="M0 0 C14.2926197 14.14751696 22.20902082 33.59406684 22.42884827 53.64463806 C22.43173067 55.76431197 22.4291263 57.88399782 22.42211914 60.00366211 C22.42226517 61.16535919 22.42241119 62.32705627 22.42256165 63.5239563 C22.42186708 67.34932344 22.41409602 71.1746414 22.40625 75 C22.4043842 77.6580056 22.40291184 80.3160085 22.40196228 82.97401428 C22.3988611 89.24595739 22.39066414 95.51788295 22.38061279 101.78981835 C22.36831415 109.63526615 22.3628595 117.48071683 22.35742188 125.32617188 C22.34769798 139.31251365 22.32766314 153.29881717 22.30859375 167.28515625 C4.81859375 167.28515625 -12.67140625 167.28515625 -30.69140625 167.28515625 C-30.72878906 160.01226562 -30.76617188 152.739375 -30.8046875 145.24609375 C-30.83499286 140.61586253 -30.8661576 135.98566855 -30.90039062 131.35546875 C-30.95454717 124.01955124 -31.00566344 116.68370739 -31.0378418 109.34765625 C-31.06400884 103.42769705 -31.10450481 97.50798777 -31.15459251 91.58818436 C-31.17117103 89.33900709 -31.18274105 87.0897867 -31.18902016 84.8405571 C-30.82979706 60.76098649 -30.82979706 60.76098649 -40.94140625 39.59765625 C-51.33697607 30.85592709 -61.24188986 29.2037881 -74.69140625 30.28515625 C-85.22900935 32.32993921 -93.98672665 36.27849065 -100.50390625 44.97265625 C-107.07626177 55.08279942 -108.82222588 65.32100079 -108.89672852 77.14599609 C-108.90662811 78.12222931 -108.91652771 79.09846252 -108.92672729 80.10427856 C-108.95821367 83.31819263 -108.98304874 86.53212145 -109.0078125 89.74609375 C-109.02839314 91.97954687 -109.0493899 94.21299619 -109.07078552 96.44644165 C-109.12589155 102.31537799 -109.17535131 108.18434881 -109.22363281 114.05334473 C-109.28278038 121.10025288 -109.3489451 128.14709822 -109.4139328 135.19395447 C-109.51179795 145.89098326 -109.60075283 156.58805296 -109.69140625 167.28515625 C-127.51140625 167.28515625 -145.33140625 167.28515625 -163.69140625 167.28515625 C-163.69140625 107.22515625 -163.69140625 47.16515625 -163.69140625 -14.71484375 C-146.86140625 -14.71484375 -130.03140625 -14.71484375 -112.69140625 -14.71484375 C-112.19640625 -5.30984375 -112.19640625 -5.30984375 -111.69140625 4.28515625 C-110.66015625 3.29515625 -109.62890625 2.30515625 -108.56640625 1.28515625 C-79.62157974 -23.80036006 -29.35219168 -25.01442936 0 0 Z " fill="#231F20" transform="translate(2587.69140625,300.71484375)"/>
<path d="M0 0 C20.39420913 22.02120541 21.42338576 48.35688735 21.30078125 76.796875 C21.29704504 79.35519296 21.29420095 81.91351236 21.29220581 84.47183228 C21.28538984 90.48149715 21.26968083 96.49107307 21.24950683 102.5007025 C21.22480109 110.02649565 21.21397634 117.55230131 21.203125 125.078125 C21.1837457 138.47662012 21.14366525 151.87495352 21.10546875 165.2734375 C3.28546875 165.2734375 -14.53453125 165.2734375 -32.89453125 165.2734375 C-32.93320312 153.80529297 -32.93320312 153.80529297 -32.97265625 142.10546875 C-32.9978423 137.24280568 -33.02418891 132.38020371 -33.0546875 127.51757812 C-33.10291618 119.81062643 -33.14700099 112.10381632 -33.16552734 104.39672852 C-33.18074482 98.17847238 -33.21528108 91.96058829 -33.26284027 85.7424984 C-33.27760158 83.37806125 -33.28556923 81.01357098 -33.2864151 78.64908791 C-32.87473686 57.0052016 -32.87473686 57.0052016 -42.1328125 37.98828125 C-50.54644947 29.79851045 -59.27264658 27.87138163 -70.68212891 27.90454102 C-81.58467359 28.21716332 -91.15657999 31.39920139 -98.89453125 39.2734375 C-109.66146583 51.43172545 -110.99241914 66.3841705 -111.09985352 81.94580078 C-111.10975311 82.85434311 -111.11965271 83.76288544 -111.12985229 84.69895935 C-111.16111758 87.66386423 -111.18608444 90.62878505 -111.2109375 93.59375 C-111.23153734 95.66454454 -111.25253454 97.73533516 -111.27391052 99.80612183 C-111.32881855 105.22783208 -111.37836431 110.6495783 -111.42675781 116.0713501 C-111.4860888 122.59189746 -111.55214288 129.11237983 -111.6170578 135.63287354 C-111.71467324 145.51302147 -111.80379844 155.39321318 -111.89453125 165.2734375 C-129.38453125 165.2734375 -146.87453125 165.2734375 -164.89453125 165.2734375 C-164.89453125 105.2134375 -164.89453125 45.1534375 -164.89453125 -16.7265625 C-148.06453125 -16.7265625 -131.23453125 -16.7265625 -113.89453125 -16.7265625 C-113.39953125 -7.3215625 -113.39953125 -7.3215625 -112.89453125 2.2734375 C-111.71890625 1.1184375 -110.54328125 -0.0365625 -109.33203125 -1.2265625 C-80.65374526 -26.42598954 -27.6835506 -27.17346843 0 0 Z " fill="#231F20" transform="translate(4221.89453125,302.7265625)"/>
<path d="M0 0 C20.39420913 22.02120541 21.42338576 48.35688735 21.30078125 76.796875 C21.29704504 79.35519296 21.29420095 81.91351236 21.29220581 84.47183228 C21.28538984 90.48149715 21.26968083 96.49107307 21.24950683 102.5007025 C21.22480109 110.02649565 21.21397634 117.55230131 21.203125 125.078125 C21.1837457 138.47662012 21.14366525 151.87495352 21.10546875 165.2734375 C3.28546875 165.2734375 -14.53453125 165.2734375 -32.89453125 165.2734375 C-32.93320313 153.80529297 -32.93320313 153.80529297 -32.97265625 142.10546875 C-32.9978423 137.24280568 -33.02418891 132.38020371 -33.0546875 127.51757812 C-33.10291618 119.81062643 -33.14700099 112.10381632 -33.16552734 104.39672852 C-33.18074482 98.17847238 -33.21528108 91.96058829 -33.26284027 85.7424984 C-33.27760158 83.37806125 -33.28556923 81.01357098 -33.2864151 78.64908791 C-32.87473686 57.0052016 -32.87473686 57.0052016 -42.1328125 37.98828125 C-50.54644947 29.79851045 -59.27264658 27.87138163 -70.68212891 27.90454102 C-81.58467359 28.21716332 -91.15657999 31.39920139 -98.89453125 39.2734375 C-109.66146583 51.43172545 -110.99241914 66.3841705 -111.09985352 81.94580078 C-111.10975311 82.85434311 -111.11965271 83.76288544 -111.12985229 84.69895935 C-111.16111758 87.66386423 -111.18608444 90.62878505 -111.2109375 93.59375 C-111.23153734 95.66454454 -111.25253454 97.73533516 -111.27391052 99.80612183 C-111.32881855 105.22783208 -111.37836431 110.6495783 -111.42675781 116.0713501 C-111.4860888 122.59189746 -111.55214288 129.11237983 -111.6170578 135.63287354 C-111.71467324 145.51302147 -111.80379844 155.39321318 -111.89453125 165.2734375 C-129.38453125 165.2734375 -146.87453125 165.2734375 -164.89453125 165.2734375 C-164.89453125 105.2134375 -164.89453125 45.1534375 -164.89453125 -16.7265625 C-148.06453125 -16.7265625 -131.23453125 -16.7265625 -113.89453125 -16.7265625 C-113.39953125 -7.3215625 -113.39953125 -7.3215625 -112.89453125 2.2734375 C-111.71890625 1.1184375 -110.54328125 -0.0365625 -109.33203125 -1.2265625 C-80.65374526 -26.42598954 -27.6835506 -27.17346843 0 0 Z " fill="#231F20" transform="translate(2922.89453125,302.7265625)"/>
<path d="M0 0 C67.98 0 135.96 0 206 0 C206 14.85 206 29.7 206 45 C181.25 45 156.5 45 131 45 C131 108.03 131 171.06 131 236 C112.85 236 94.7 236 76 236 C76 172.97 76 109.94 76 45 C50.92 45 25.84 45 0 45 C0 30.15 0 15.3 0 0 Z " fill="#231F20" transform="translate(1746,232)"/>
<path d="M0 0 C-1.46024921 4.69009945 -3.32806641 9.10864031 -5.40625 13.55078125 C-5.73161743 14.25019333 -6.05698486 14.94960541 -6.39221191 15.67021179 C-7.07631029 17.13747728 -7.76217042 18.60392254 -8.44970703 20.06958008 C-9.50345332 22.31987462 -10.54683199 24.57479177 -11.58984375 26.83007812 C-12.25718666 28.25810513 -12.92513402 29.68584986 -13.59375 31.11328125 C-13.90526001 31.78925858 -14.21677002 32.4652359 -14.53771973 33.16169739 C-16.77108426 37.88554213 -16.77108426 37.88554213 -19 39 C-21.19434783 38.01727399 -23.30362133 36.97633898 -25.4375 35.875 C-31.43548727 32.92558262 -37.40730118 30.80477224 -43.875 29.125 C-44.64642334 28.92245605 -45.41784668 28.71991211 -46.21264648 28.51123047 C-61.72233125 24.66080214 -81.63466874 23.23485082 -96.1875 30.9375 C-99.75446995 33.44063935 -99.75446995 33.44063935 -102 37 C-102.40872049 41.24143905 -102.35172443 44.94482671 -101 49 C-99.19582988 50.1407052 -99.19582988 50.1407052 -97 51 C-96.30181152 51.31404785 -95.60362305 51.6280957 -94.88427734 51.95166016 C-86.56746166 55.25459059 -78.05972917 56.54955713 -69.27261353 57.94970703 C-16.84031133 66.37204256 -16.84031133 66.37204256 -3.390625 82.98828125 C5.07288045 94.78272078 7.74202121 108.90318772 5.50390625 123.16015625 C2.2445783 137.43122494 -5.0767179 148.72289621 -17.4375 156.875 C-30.39538758 164.4898035 -44.10319974 169.07194002 -59 171 C-60.23363281 171.16822266 -60.23363281 171.16822266 -61.4921875 171.33984375 C-93.47878967 174.9769496 -131.30793937 170.24222643 -159 153 C-158.34755235 148.2464528 -156.45648671 144.35087606 -154.40234375 140.07421875 C-154.04862198 139.32662796 -153.69490021 138.57903717 -153.33045959 137.80879211 C-152.20466929 135.43252067 -151.07121235 133.06000047 -149.9375 130.6875 C-149.17071442 129.07250745 -148.40443268 127.45727558 -147.63867188 125.84179688 C-145.7649396 121.89173519 -143.88432513 117.94501878 -142 114 C-137.7674051 114.74915151 -134.77050244 116.09431666 -131 118.1875 C-110.18469319 129.12782299 -80.1551608 134.98504974 -57.28515625 127.91015625 C-52.65072763 126.0643069 -49.85836811 124.27370752 -47.0625 120.125 C-45.80582247 116.42888961 -45.74344696 114.69112456 -47 111 C-51.10453981 104.84319029 -58.11687771 103.64688073 -65 102 C-70.16698311 100.97048833 -75.38343633 100.23418853 -80.59597778 99.47753906 C-129.31653139 92.33288866 -129.31653139 92.33288866 -145 75 C-154.08395881 62.78562832 -156.4457009 48.4568134 -154.3125 33.5625 C-151.52002012 19.87749927 -143.38317465 7.9816286 -132.0546875 -0.1015625 C-95.46731018 -23.64091128 -37.37017438 -21.41949019 0 0 Z " fill="#231F20" transform="translate(5768,299)"/>
<path d="M0 0 C6.35243915 6.25454197 12.02781271 12.79765175 15.28125 21.24609375 C15.16113281 23.21655273 15.16113281 23.21655273 14.28125 25.24609375 C12.07910156 26.7824707 12.07910156 26.7824707 9.171875 28.234375 C8.11242676 28.77296143 7.05297852 29.31154785 5.96142578 29.86645508 C4.82946777 30.42486084 3.69750977 30.9832666 2.53125 31.55859375 C0.24177437 32.71402551 -2.04729217 33.87026824 -4.3359375 35.02734375 C-5.43905273 35.58035156 -6.54216797 36.13335937 -7.67871094 36.703125 C-12.34264483 39.07029993 -16.90287655 41.60718948 -21.4609375 44.171875 C-23.71875 45.24609375 -23.71875 45.24609375 -26.71875 45.24609375 C-28.4453125 43.0859375 -28.4453125 43.0859375 -30.34375 40.18359375 C-36.89023179 30.87250996 -45.50983637 24.69992661 -56.71875 22.24609375 C-72.47287525 21.00145374 -85.39910057 22.84217609 -97.94921875 33.0625 C-103.04585052 37.79576966 -106.15871064 42.80720688 -108.71875 49.24609375 C-109.19828125 50.40625 -109.19828125 50.40625 -109.6875 51.58984375 C-114.14335792 64.62735395 -113.45658945 81.79991974 -107.71875 94.24609375 C-101.72613952 106.24721022 -93.27475001 112.96188263 -80.69140625 117.34765625 C-77.32457283 118.36522745 -74.23487049 119.04324064 -70.71875 119.24609375 C-70.06003906 119.29636719 -69.40132812 119.34664062 -68.72265625 119.3984375 C-56.60323112 119.93851883 -45.6183083 115.78500086 -36.53125 107.99609375 C-32.33239345 104.09484491 -29.45587659 100.26415917 -26.71875 95.24609375 C-22.8037783 95.84486969 -19.86782768 97.04214665 -16.40234375 98.94140625 C-15.3956665 99.48933838 -14.38898926 100.03727051 -13.35180664 100.60180664 C-11.7700061 101.47760376 -11.7700061 101.47760376 -10.15625 102.37109375 C-9.08173584 102.96204834 -8.00722168 103.55300293 -6.90014648 104.16186523 C-4.7840679 105.32858796 -2.66982926 106.4986552 -0.55761719 107.67236328 C1.78480344 108.97088782 4.13501025 110.25203725 6.4921875 111.5234375 C7.55695313 112.11253906 8.62171875 112.70164062 9.71875 113.30859375 C10.60433594 113.79457031 11.48992187 114.28054688 12.40234375 114.78125 C14.28125 116.24609375 14.28125 116.24609375 15.21484375 118.140625 C15.41487632 124.48283415 8.90204136 130.89170394 4.96875 135.37109375 C3.42418787 137.01315315 1.86203429 138.63887494 0.28125 140.24609375 C-0.40710937 140.94734375 -1.09546875 141.64859375 -1.8046875 142.37109375 C-19.42750554 159.14225144 -44.43017989 164.83810876 -68.15722656 164.52929688 C-98.25228205 163.65774196 -125.08000838 153.30126874 -146.02734375 131.28515625 C-149.93378089 126.99909669 -152.93427375 122.32114173 -155.71875 117.24609375 C-156.25113281 116.30121094 -156.78351563 115.35632813 -157.33203125 114.3828125 C-168.93474283 92.64572256 -170.55327103 66.05765739 -164.0703125 42.4453125 C-157.29415998 20.22765113 -142.47297287 1.46146882 -122.09375 -9.78515625 C-109.73593633 -16.36658524 -96.66025869 -20.98064418 -82.71875 -22.75390625 C-81.30335937 -22.93759766 -81.30335937 -22.93759766 -79.859375 -23.125 C-51.01124789 -26.09035317 -21.5473009 -20.21764151 0 0 Z " fill="#231F20" transform="translate(5371.71875,306.75390625)"/>
<path d="M0 0 C-2.42665439 8.71206578 -5.54567158 17.15344597 -8.6875 25.625 C-9.20405226 27.02463767 -9.72033029 28.42437658 -10.23632812 29.82421875 C-11.48773034 33.21731725 -12.74282326 36.60903611 -14 40 C-15.21236328 39.47599609 -15.21236328 39.47599609 -16.44921875 38.94140625 C-17.51785156 38.48636719 -18.58648437 38.03132813 -19.6875 37.5625 C-20.74324219 37.11003906 -21.79898438 36.65757812 -22.88671875 36.19140625 C-31.78530297 32.78605093 -40.32601909 33.14489737 -49 37 C-53.10230956 39.18789843 -54.52798072 41.69557955 -56.25 45.875 C-58.56700737 53.19028732 -58.56700737 53.19028732 -59 66 C-43.82 66 -28.64 66 -13 66 C-13 79.86 -13 93.72 -13 108 C-27.85 108 -42.7 108 -58 108 C-58 152.88 -58 197.76 -58 244 C-75.49 244 -92.98 244 -111 244 C-111 199.12 -111 154.24 -111 108 C-120.24 108 -129.48 108 -139 108 C-139 94.14 -139 80.28 -139 66 C-129.76 66 -120.52 66 -111 66 C-111.0825 63.03 -111.165 60.06 -111.25 57 C-111.40945843 39.26822243 -106.76288185 23.21380699 -94.203125 10.17578125 C-93.47609375 9.45777344 -92.7490625 8.73976562 -92 8 C-91.18789063 7.15501953 -91.18789063 7.15501953 -90.359375 6.29296875 C-67.59999003 -15.48937191 -26.10848975 -13.05424488 0 0 Z " fill="#231F20" transform="translate(4407,224)"/>
<path d="M0 0 C0 16.5 0 33 0 50 C-6.27 50 -12.54 50 -19 50 C-31.67190579 51.90078587 -41.96980182 55.36475796 -50.28125 65.515625 C-57.32468737 75.69659356 -59.28837344 86.79131073 -59.31884766 98.94775391 C-59.33391609 100.35445847 -59.33391609 100.35445847 -59.34928894 101.7895813 C-59.37988017 104.85190281 -59.39708852 107.91413791 -59.4140625 110.9765625 C-59.43279354 113.11462129 -59.45236837 115.25267284 -59.4727478 117.39071655 C-59.52387044 122.98996696 -59.56360205 128.58924129 -59.60089111 134.18859863 C-59.6481304 140.92193055 -59.70964244 147.65514566 -59.76873779 154.38838196 C-59.85670755 164.59220697 -59.92664557 174.79601234 -60 185 C-77.82 185 -95.64 185 -114 185 C-114 124.94 -114 64.88 -114 3 C-97.17 3 -80.34 3 -63 3 C-62.505 13.395 -62.505 13.395 -62 24 C-60.906875 22.824375 -59.81375 21.64875 -58.6875 20.4375 C-43.04101983 4.87351446 -21.44751424 0 0 0 Z " fill="#231F20" transform="translate(4743,283)"/>
<path d="M0 0 C0 16.5 0 33 0 50 C-5.94 50 -11.88 50 -18 50 C-30.88323386 52.03984536 -41.79573078 55.33092887 -50 66 C-57.76390107 78.66378531 -59.09882934 91.65319657 -59.20532227 106.21337891 C-59.21522186 107.07315338 -59.22512146 107.93292786 -59.23532104 108.8187561 C-59.26655785 111.62133157 -59.29154153 114.4239239 -59.31640625 117.2265625 C-59.33700857 119.185256 -59.35800583 121.14394538 -59.37937927 123.10263062 C-59.43426172 128.22842041 -59.48381849 133.35424805 -59.53222656 138.48010254 C-59.59158138 144.64606311 -59.65762105 150.81195534 -59.72252655 156.9778595 C-59.82010969 166.31853085 -59.90925686 175.65924842 -60 185 C-77.49 185 -94.98 185 -113 185 C-113 124.94 -113 64.88 -113 3 C-96.17 3 -79.34 3 -62 3 C-61.505 13.395 -61.505 13.395 -61 24 C-59.80375 22.68 -58.6075 21.36 -57.375 20 C-42.23733564 4.886137 -20.80085779 0 0 0 Z " fill="#231F20" transform="translate(2086,283)"/>
<path d="M0 0 C6.93 0 13.86 0 21 0 C21 157.41 21 314.82 21 477 C14.07 477 7.14 477 0 477 C0 319.59 0 162.18 0 0 Z " fill="#231F20" transform="translate(3372,123)"/>
<path d="M0 0 C17.82 0 35.64 0 54 0 C54 60.06 54 120.12 54 182 C36.18 182 18.36 182 0 182 C0 121.94 0 61.88 0 0 Z " fill="#231F20" transform="translate(2323,286)"/>
<path d="M0 0 C17.49 0 34.98 0 53 0 C53 60.06 53 120.12 53 182 C35.51 182 18.02 182 0 182 C0 121.94 0 61.88 0 0 Z " fill="#231F20" transform="translate(2657,286)"/>
<path d="M0 0 C6.20221724 5.85031839 8.86407418 13.32364144 9.25390625 21.7109375 C9.03906253 30.32996217 6.29373596 37.07035348 0.328125 43.32421875 C-7.98594762 51.00990216 -16.32446218 52.71153368 -27.46484375 52.5859375 C-35.99085651 52.04870916 -43.37930296 49.03326126 -49.8125 43.375 C-55.609211 36.67216501 -58.39718329 29.46789221 -58.046875 20.5 C-56.99850959 10.99482024 -53.12716649 4.56940225 -45.8125 -1.625 C-31.90125451 -10.11982218 -13.2005602 -9.99956599 0 0 Z " fill="#231F20" transform="translate(2707.8125,209.625)"/>
<path d="M0 0 C5.26362216 4.94461476 8.15408628 10.98682353 8.86328125 18.16015625 C9.12110231 27.37386668 7.08424059 36.2988559 0.59765625 43.18359375 C-9.03038326 50.82882909 -19.42036835 52.66338759 -31.375 51.75 C-41.44947435 49.90923185 -48.83679333 44.94594538 -54.8828125 36.69140625 C-58.81852428 29.41171557 -58.69020498 19.89259926 -56.6796875 12.03125 C-53.48785127 4.19918126 -48.31170011 -1.44757465 -40.77734375 -5.24609375 C-27.43827282 -10.82030713 -11.30892304 -9.10534613 0 0 Z " fill="#231F20" transform="translate(2374.375,210.25)"/>
</svg>
