<svg width="144" height="17" viewBox="0 0 144 17" fill="none" xmlns="http://www.w3.org/2000/svg">
<g clip-path="url(#clip0)">
<path d="M48.7778 16.7014H51.5391C51.7209 16.7014 51.8704 16.569 51.888 16.4C51.888 16.3887 51.8909 16.3775 51.8909 16.3662V5.04225L58.5803 16.3662C58.5861 16.3775 58.592 16.3887 58.5978 16.4C58.6916 16.569 58.9027 16.7014 59.0815 16.7014H62.0539C62.2357 16.7014 62.3852 16.569 62.4027 16.4C62.4027 16.3887 62.4057 16.3775 62.4057 16.3662V0.636618C62.4057 0.62535 62.4057 0.614083 62.4027 0.602815C62.3852 0.433801 62.2357 0.301407 62.0539 0.301407H59.2926C59.1108 0.301407 58.9613 0.433801 58.9437 0.602815C58.9437 0.614083 58.9408 0.62535 58.9408 0.636618V10.7606L52.8729 0.636618C52.867 0.62535 52.8612 0.614083 52.8553 0.602815C52.7615 0.433801 52.5534 0.301407 52.3716 0.301407H48.7778C48.596 0.301407 48.4465 0.433801 48.429 0.602815C48.426 0.614083 48.426 0.62535 48.426 0.636618V16.3662C48.426 16.3775 48.426 16.3887 48.429 16.4C48.4465 16.569 48.5931 16.7014 48.7778 16.7014Z" fill="black"/>
<path d="M77.7337 0.301416C77.722 0.301416 77.7103 0.298599 77.6986 0.298599H65.425C65.4132 0.298599 65.4015 0.298599 65.3898 0.301416C65.2139 0.318318 65.0761 0.46198 65.0761 0.636627V3.29015C65.0761 3.4648 65.2139 3.60846 65.3898 3.62536C65.4015 3.62536 65.4132 3.62818 65.425 3.62818H69.7927V16.3662C69.7927 16.3775 69.7927 16.3887 69.7956 16.4C69.8132 16.569 69.9627 16.7014 70.1445 16.7014H72.9058C73.0875 16.7014 73.237 16.569 73.2546 16.4C73.2546 16.3887 73.2576 16.3775 73.2576 16.3662V3.62536H77.7044C77.7161 3.62536 77.7279 3.62536 77.7396 3.62254C77.9155 3.60564 78.0533 3.46198 78.0533 3.28733V0.636627C78.0474 0.46198 77.9096 0.318318 77.7337 0.301416Z" fill="black"/>
<path d="M11.3268 0.301416C11.315 0.298599 11.3033 0.298599 11.2916 0.298599H0.348832C0.337106 0.298599 0.325381 0.298599 0.313655 0.301416C0.296067 0.301416 0.284342 0.309867 0.266754 0.312684C0.246234 0.318318 0.225715 0.323951 0.205195 0.332402C0.187607 0.340853 0.170019 0.35212 0.152431 0.363388C0.134842 0.374656 0.117254 0.385923 0.102598 0.400008C0.0879407 0.414092 0.0791467 0.428177 0.0674212 0.445078C0.0556958 0.46198 0.041039 0.478881 0.0322449 0.498599C0.0234509 0.515501 0.0205195 0.535219 0.0146568 0.554937C0.0117254 0.571839 0.00293136 0.585923 0 0.600008C0 0.611275 0 0.622543 0 0.633811V3.28733V7.17184V9.82536V16.3662C0 16.3775 0 16.3887 0 16.4C0.0175881 16.569 0.167087 16.7014 0.348832 16.7014H3.11017C3.29191 16.7014 3.44141 16.569 3.459 16.4C3.459 16.3887 3.46193 16.3775 3.46193 16.3662V10.1634H10.5675C10.5793 10.1634 10.591 10.1634 10.6027 10.1606C10.7786 10.1437 10.9164 10 10.9164 9.82536V7.17184C10.9164 7.00001 10.7786 6.85635 10.6027 6.83663C10.591 6.83381 10.5793 6.83381 10.5675 6.83381H3.46193V3.62254H11.2945C11.3062 3.62254 11.318 3.62254 11.3297 3.61973C11.5056 3.60282 11.6434 3.45916 11.6434 3.28451V0.636627C11.6434 0.46198 11.5056 0.318318 11.3268 0.301416Z" fill="black"/>
<path d="M25.2038 10.3916C26.7545 9.49296 27.6427 7.8986 27.6427 5.85916C27.6427 2.80001 25.0514 0.309867 21.8679 0.309867L14.6949 0.298599C14.5014 0.298599 14.3461 0.447895 14.3461 0.633811V16.3634C14.3461 16.5493 14.5014 16.6986 14.6949 16.6986H17.4562C17.6497 16.6986 17.8051 16.5465 17.8051 16.3634V11.538C17.8051 11.3521 17.9604 11.2028 18.1539 11.2028H18.62H21.8679C21.9178 11.2028 21.9676 11.2 22.0174 11.2L23.7733 16.3324C23.8495 16.5521 24.0635 16.7014 24.3068 16.7014H27.1942C27.4815 16.7014 27.675 16.4197 27.5606 16.1634L25.2038 10.3916ZM18.1568 8.08733C17.9634 8.08733 17.808 7.93804 17.808 7.75212V3.93804C17.808 3.78311 17.9194 3.65353 18.066 3.61409H21.8709C23.1577 3.61409 24.2042 4.61973 24.2042 5.85635C24.2042 7.09297 23.1577 8.0986 21.8709 8.0986H20.2264V8.08452H18.1568V8.08733Z" fill="black"/>
<path d="M37.7793 13.7155C35.3639 13.7155 33.4058 11.3718 33.4058 8.50141C33.4058 5.63099 35.3668 3.26479 37.7793 3.26479C40.2417 3.26479 42.1793 5.63099 42.1793 8.50141C42.1793 11.3718 40.2417 13.7155 37.7793 13.7155ZM37.7793 0C33.4527 0 29.724 3.81409 29.724 8.50141C29.724 13.1887 33.4527 17.0028 37.7793 17.0028C42.1295 17.0028 45.8611 13.1887 45.8611 8.50141C45.8611 3.81409 42.1295 0 37.7793 0Z" fill="black"/>
<path d="M92.3465 0.301416C92.3348 0.298599 92.3231 0.298599 92.3114 0.298599H81.3686C81.3569 0.298599 81.3452 0.298599 81.3334 0.301416C81.3158 0.301416 81.3041 0.309867 81.2865 0.315501C81.266 0.321134 81.2455 0.323951 81.225 0.332402C81.2045 0.340853 81.1898 0.35212 81.1722 0.363388C81.1546 0.374656 81.137 0.385923 81.1224 0.400008C81.1077 0.414092 81.096 0.430994 81.0843 0.445078C81.0725 0.46198 81.0608 0.478881 81.0491 0.498599C81.0403 0.515501 81.0374 0.535219 81.0315 0.554937C81.0256 0.571839 81.0198 0.583106 81.0168 0.600008C81.0168 0.611275 81.0168 0.622543 81.0168 0.633811V3.28733V7.17184V9.82536V16.3662C81.0168 16.3775 81.0168 16.3887 81.0168 16.4C81.0344 16.569 81.1839 16.7014 81.3657 16.7014H84.1299C84.3117 16.7014 84.4612 16.569 84.4788 16.4C84.4788 16.3887 84.4817 16.3775 84.4817 16.3662V10.1634H91.5873C91.599 10.1634 91.6108 10.1634 91.6225 10.1606C91.7984 10.1437 91.9362 10 91.9362 9.82536V7.17184C91.9362 7.00001 91.7984 6.85635 91.6225 6.83663C91.6108 6.83663 91.599 6.83381 91.5873 6.83381H84.4817V3.62254H92.3143C92.326 3.62254 92.3377 3.62254 92.3495 3.61973C92.5254 3.60282 92.6631 3.45916 92.6631 3.28451V0.636627C92.6602 0.46198 92.5224 0.318318 92.3465 0.301416Z" fill="#0000FF"/>
<path d="M98.8512 0.636633C98.8512 0.625366 98.8512 0.614098 98.8483 0.602831C98.8307 0.433816 98.6812 0.301422 98.4994 0.301422H95.7381C95.5563 0.301422 95.4068 0.433816 95.3893 0.602831C95.3893 0.614098 95.3863 0.625366 95.3863 0.636633V16.3662C95.3863 16.3775 95.3863 16.3887 95.3893 16.4C95.4068 16.569 95.5563 16.7014 95.7381 16.7014H98.4994C98.6812 16.7014 98.8307 16.569 98.8483 16.4C98.8483 16.3887 98.8512 16.3775 98.8512 16.3662V0.636633Z" fill="#0000FF"/>
<path d="M128.836 13.3775C128.824 13.3775 128.813 13.3747 128.801 13.3747H120.546V10.1634H127.916C127.927 10.1634 127.939 10.1634 127.951 10.1606C128.127 10.1437 128.264 10 128.264 9.82536V7.17184C128.264 6.99719 128.127 6.85353 127.951 6.83663C127.939 6.83663 127.927 6.83381 127.916 6.83381H120.546V3.62254H128.637C128.648 3.62254 128.66 3.62254 128.672 3.61973C128.848 3.60282 128.986 3.45916 128.986 3.28451V0.636627C128.986 0.46198 128.848 0.318318 128.672 0.301416C128.66 0.301416 128.648 0.298599 128.637 0.298599H117.436C117.424 0.298599 117.413 0.298599 117.401 0.301416C117.395 0.301416 117.392 0.304233 117.386 0.304233C117.374 0.30705 117.363 0.30705 117.354 0.309867C117.342 0.312684 117.333 0.315501 117.322 0.318318C117.313 0.321134 117.301 0.326768 117.292 0.329585C117.284 0.332402 117.272 0.338036 117.263 0.34367C117.254 0.349303 117.245 0.354937 117.237 0.360571C117.228 0.366205 117.219 0.371839 117.21 0.380289C117.201 0.385923 117.196 0.391557 117.19 0.400008C117.181 0.408458 117.175 0.414092 117.166 0.422543C117.16 0.430994 117.155 0.436627 117.149 0.445078C117.143 0.453529 117.137 0.46198 117.131 0.47043C117.125 0.478881 117.122 0.487332 117.116 0.495782C117.114 0.504233 117.108 0.515501 117.105 0.523951C117.102 0.535219 117.099 0.54367 117.096 0.554937C117.093 0.566205 117.09 0.574656 117.09 0.585923C117.09 0.591557 117.087 0.597191 117.087 0.600008C117.087 0.611275 117.084 0.622543 117.084 0.633811V3.28733V7.17184V9.82536V13.7099V16.3634C117.084 16.3747 117.084 16.3859 117.087 16.3972C117.087 16.4028 117.09 16.4085 117.09 16.4141C117.093 16.4254 117.093 16.4338 117.096 16.4423C117.099 16.4535 117.102 16.462 117.105 16.4732C117.108 16.4817 117.111 16.4901 117.116 16.5014C117.122 16.5099 117.125 16.5211 117.131 16.5296C117.137 16.538 117.143 16.5465 117.146 16.5549C117.152 16.5634 117.158 16.5718 117.166 16.5803C117.172 16.5887 117.181 16.5944 117.187 16.6028C117.196 16.6113 117.201 16.6169 117.21 16.6254C117.219 16.631 117.225 16.6366 117.234 16.6423C117.243 16.6479 117.251 16.6535 117.26 16.6592C117.269 16.6648 117.278 16.6676 117.286 16.6732C117.295 16.6761 117.307 16.6817 117.319 16.6845C117.328 16.6873 117.339 16.6901 117.348 16.693C117.36 16.6958 117.371 16.6986 117.383 16.6986C117.389 16.6986 117.392 16.7014 117.398 16.7014C117.41 16.7014 117.421 16.7042 117.433 16.7042H128.798C128.81 16.7042 128.821 16.7042 128.833 16.7014C129.009 16.6845 129.147 16.5409 129.147 16.3662V13.7127C129.15 13.538 129.012 13.3944 128.836 13.3775Z" fill="#0000FF"/>
<path d="M113.798 13.3775C113.786 13.3775 113.775 13.3747 113.763 13.3747H106.332V0.636633C106.332 0.625366 106.332 0.614098 106.329 0.602831C106.312 0.433816 106.162 0.301422 105.98 0.301422H103.219C103.037 0.301422 102.888 0.433816 102.87 0.602831C102.87 0.614098 102.867 0.625366 102.867 0.636633V13.7127V16.3662C102.867 16.3775 102.867 16.3887 102.87 16.4C102.87 16.4056 102.873 16.4113 102.873 16.4169C102.873 16.4282 102.876 16.4366 102.879 16.4451C102.882 16.4564 102.885 16.4648 102.888 16.4761C102.891 16.4845 102.894 16.493 102.899 16.5042C102.905 16.5127 102.908 16.524 102.914 16.5324C102.92 16.5409 102.926 16.5493 102.929 16.5578C102.935 16.5662 102.94 16.5747 102.949 16.5831C102.955 16.5916 102.964 16.5972 102.97 16.6056C102.979 16.6141 102.984 16.6197 102.993 16.6282C103.002 16.6338 103.008 16.6395 103.017 16.6451C103.025 16.6507 103.034 16.6564 103.043 16.662C103.052 16.6676 103.061 16.6704 103.069 16.6761C103.078 16.6789 103.09 16.6845 103.102 16.6873C103.11 16.6902 103.122 16.693 103.131 16.6958C103.143 16.6986 103.154 16.7014 103.166 16.7014C103.172 16.7014 103.175 16.7042 103.181 16.7042C103.193 16.7042 103.204 16.7071 103.216 16.7071H105.977H113.76C113.772 16.7071 113.784 16.7071 113.795 16.7042C113.971 16.6873 114.109 16.5437 114.109 16.369V13.7155C114.115 13.538 113.977 13.3944 113.798 13.3775Z" fill="#0000FF"/>
<path d="M138.712 6.95775C135.822 5.80564 135.191 5.44226 135.191 4.65635C135.191 3.88451 136.15 3.25353 137.387 3.25353C139.023 3.25353 139.887 4.10705 140.518 4.86198C140.729 5.1155 141.113 5.17466 141.406 5.00282L143.209 3.98874C143.37 3.89297 143.481 3.74085 143.522 3.56339C143.563 3.38311 143.525 3.20001 143.417 3.04789C142.411 1.63099 140.377 0.118317 137.674 0.118317C133.808 0.118317 131.782 2.40564 131.782 4.66761C131.782 7.04226 132.893 8.16339 136.106 9.3155C139.134 10.4028 140.242 10.9352 140.242 12.0845C140.242 13.0845 139.113 13.5155 137.674 13.493C135.581 13.462 134.787 12.3127 134.356 11.7859C134.133 11.5127 133.767 11.4056 133.45 11.5718L131.562 12.5662C131.395 12.6535 131.278 12.8 131.228 12.9747C131.178 13.1493 131.21 13.3268 131.301 13.4873C131.996 14.7014 133.931 16.8845 137.774 16.8845C140.91 16.8845 143.997 15.3042 143.997 12.1944C144 9.47043 142.2 8.3493 138.712 6.95775Z" fill="#0000FF"/>
</g>
<defs>
<clipPath id="clip0">
<rect width="144" height="17" fill="white"/>
</clipPath>
</defs>
</svg>
