<svg xmlns="http://www.w3.org/2000/svg"   viewBox="0 0 6040 6000" style="background-color: #D64933;"
>  <rect width="100%" height="100%" fill="#D64933"/>
<g id="lNbN2rCsRD7GZ6CnK6gQh7" fill="rgb(147,160,167)" style="transform: none;"><g style="transform: none;"><path id="pp5Bcy7sx" d="M2768 4586 c-72 -29 -139 -69 -205 -120 -54 -42 -65 -62 -38 -72 8 -4 15 -17 15 -30 0 -21 4 -24 42 -24 35 0 47 6 80 39 21 22 66 58 101 80 85 54 87 57 87 95 0 52 -17 58 -82 32z"></path><path id="pxG5QE663" d="M1879 4173 c-24 -4 -27 -9 -33 -64 -4 -32 -10 -59 -14 -59 -10 0 -42 -58 -42 -76 0 -8 -9 -14 -20 -14 -15 0 -20 -7 -20 -25 0 -26 0 -26 83 -23 l82 3 28 82 29 82 -21 22 c-12 13 -21 35 -21 51 0 17 -5 27 -12 27 -7 -1 -25 -4 -39 -6z"></path><path id="pnsU2uumj" d="M4077 4113 c-25 -4 -28 -8 -23 -29 13 -52 48 -134 66 -156 l19 -23 45 24 c24 12 49 20 55 16 21 -12 11 41 -14 75 -14 18 -28 49 -31 67 -6 31 -8 33 -48 32 -22 -1 -54 -4 -69 -6z"></path><path id="pWOzySGrA" d="M1711 3406 c-6 -24 -27 -65 -46 -90 -43 -57 -44 -72 -3 -81 18 -4 50 -16 70 -26 21 -11 40 -19 44 -19 3 0 3 37 0 83 -14 166 -42 224 -65 133z"></path><path id="pG1fuaD6Z" d="M4255 3363 c-12 -31 -19 -186 -8 -182 63 24 143 66 143 76 0 15 -33 73 -42 73 -5 0 -8 7 -8 15 0 15 -37 35 -65 35 -7 0 -16 -8 -20 -17z"></path><path id="p11G3dwDc4" d="M4395 3005 c-50 -25 -143 -103 -175 -146 -25 -36 -28 -47 -24 -92 3 -29 7 -62 10 -75 l4 -22 40 20 c33 17 40 26 40 50 0 58 40 143 92 193 32 31 48 55 46 67 -3 18 -5 18 -33 5z"></path><path id="p2DDY6skr" d="M2352 2342 c-8 -6 -12 -23 -10 -43 3 -33 4 -34 51 -37 l48 -3 -3 43 c-3 41 -4 43 -38 46 -19 1 -41 -2 -48 -6z"></path><path id="pQVJwCoyq" d="M4050 2085 c-25 -88 6 -198 79 -278 61 -68 66 -67 104 13 32 65 33 71 17 85 -10 9 -36 15 -63 15 -43 0 -47 2 -47 25 0 14 -4 25 -10 25 -5 0 -10 6 -10 13 0 7 -9 19 -19 26 -16 12 -18 23 -14 68 5 43 3 53 -9 53 -10 0 -20 -17 -28 -45z"></path><path id="pap5LC8on" d="M2390 2001 c-50 -10 -94 -36 -137 -79 l-38 -37 32 -3 c20 -2 45 5 70 21 44 27 84 43 130 52 32 6 32 7 17 31 -17 25 -19 26 -74 15z"></path><path id="p1F1E1b2Cd" d="M3578 2004 c-5 -4 -8 -15 -8 -25 0 -12 14 -20 51 -29 28 -7 81 -32 117 -57 44 -29 75 -43 92 -41 24 3 23 5 -30 57 -30 30 -73 62 -95 72 -48 21 -117 34 -127 23z"></path></g></g><g id="lVqo1nOR0lwy7gYSZAcN6W" fill="rgb(153,168,174)" style="transform: none;"><g style="transform: none;"><path id="p1FMN4hL76" d="M2895 4624 c-53 -12 -105 -27 -105 -32 0 -3 7 -13 16 -23 14 -16 13 -19 -8 -39 l-23 -22 50 5 c28 3 80 11 118 18 140 27 273 -19 396 -137 125 -119 205 -276 266 -524 65 -264 85 -323 161 -477 90 -180 98 -216 61 -272 -15 -22 -35 -42 -47 -46 -38 -12 -20 -32 53 -54 l73 -23 70 47 c38 26 71 49 73 50 4 4 -52 262 -110 514 -90 381 -167 545 -344 729 -203 213 -366 293 -584 291 -53 -1 -105 -3 -116 -5z"></path><path id="p1CREDmzLm" d="M2568 4474 c-5 -4 -8 -18 -8 -32 0 -21 -2 -23 -16 -11 -14 12 -24 5 -81 -56 -215 -232 -305 -437 -412 -940 -17 -77 -39 -178 -50 -225 -30 -124 -32 -120 53 -173 l74 -47 55 24 c30 14 57 22 61 19 3 -3 8 1 12 10 4 11 -4 25 -25 43 -17 14 -36 43 -43 65 -15 53 5 117 82 264 71 135 88 183 139 402 23 95 55 209 73 254 33 89 108 229 133 249 8 7 15 21 15 31 0 11 5 19 11 19 19 0 39 28 39 53 0 23 -2 24 -24 14 -13 -7 -22 -16 -19 -21 4 -5 -1 -6 -11 -3 -13 5 -17 3 -13 -7 6 -16 -11 -36 -30 -36 -8 0 -13 12 -13 28 0 20 3 23 9 12 6 -8 7 -19 4 -25 -4 -7 -2 -7 5 0 7 6 15 26 18 44 6 29 5 33 -9 28 -10 -4 -17 0 -19 9 -2 9 -6 12 -10 8z"></path><path id="pkvkstg1l" d="M4030 4195 c0 -30 24 -115 32 -115 5 0 7 -4 4 -9 -3 -5 5 -8 19 -8 15 0 22 4 18 10 -4 6 0 8 10 4 10 -3 17 -2 17 3 0 6 7 10 15 10 8 0 15 -7 15 -15 0 -28 27 -15 34 16 12 62 8 76 -21 77 -16 0 -54 10 -85 21 -46 16 -58 17 -58 6z"></path><path id="ppD3yP0Iw" d="M1935 4185 c-37 -11 -40 -14 -37 -46 4 -49 22 -79 47 -79 19 0 25 10 39 65 9 35 16 67 16 70 0 7 -19 5 -65 -10z"></path><path id="pW4ZqyCEG" d="M1840 4141 c0 -62 -13 -121 -26 -121 -8 0 -14 -6 -14 -13 0 -7 -18 -23 -40 -37 -22 -14 -40 -30 -40 -36 0 -15 53 -29 58 -15 2 5 10 7 18 4 8 -3 16 3 20 13 11 33 38 84 46 84 3 0 8 12 10 28 2 16 8 26 16 24 10 -2 10 2 2 17 -5 11 -10 33 -10 50 0 24 -4 31 -20 31 -15 0 -20 -7 -20 -29z"></path><path id="pk7LYoxXq" d="M4296 3492 c-24 -39 -61 -231 -41 -210 3 3 7 19 7 36 1 24 5 28 20 24 25 -6 35 -31 17 -44 -11 -7 -9 -8 6 -6 13 3 26 -6 37 -24 23 -36 38 -36 38 2 0 20 -5 30 -15 30 -9 0 -15 9 -15 24 0 13 -5 26 -10 28 -6 2 -13 36 -17 76 -5 66 -14 85 -27 64z"></path><path id="pafM0Px55" d="M4240 3230 c0 -18 4 -29 10 -25 6 3 10 15 10 25 0 10 -4 22 -10 25 -6 4 -10 -7 -10 -25z"></path><path id="p8TOerJvR" d="M1660 2957 c0 -13 9 -32 20 -42 29 -26 52 -105 44 -152 l-6 -40 82 -47 c45 -26 84 -45 87 -42 13 12 -31 140 -67 194 -37 57 -130 152 -150 152 -5 0 -10 -11 -10 -23z"></path><path id="p8A32Yo6a" d="M4347 2962 c-5 -7 -13 -10 -18 -6 -5 3 -9 2 -8 -3 4 -21 -2 -33 -17 -33 -8 0 -13 -4 -10 -9 8 -12 -16 -71 -29 -71 -6 0 -16 5 -22 11 -8 8 -13 8 -17 0 -10 -16 2 -31 27 -32 18 -1 19 -2 4 -6 -10 -3 -26 2 -36 11 -17 15 -20 13 -44 -41 -28 -65 -59 -164 -53 -171 5 -4 86 49 108 71 7 8 26 17 41 21 22 5 27 12 27 38 0 42 22 138 32 138 5 0 8 9 8 19 0 11 5 21 11 23 6 2 9 15 7 28 -2 17 -6 21 -11 12z"></path><path id="pkTSHA6Sf" d="M3795 2714 c-48 -14 -120 -27 -180 -31 l-99 -6 39 -14 c61 -22 197 -13 263 16 29 13 57 32 63 42 12 23 12 23 -86 -7z"></path><path id="pX6OsBPWC" d="M2173 2705 c51 -45 186 -70 275 -50 52 11 29 22 -60 28 -46 3 -112 15 -148 26 -87 28 -102 27 -67 -4z"></path><path id="pXcj7KMDa" d="M2103 2497 c7 -47 93 -326 106 -339 3 -4 26 2 50 13 84 37 161 51 254 46 76 -4 87 -2 87 12 0 9 -25 30 -58 48 -99 56 -114 67 -151 107 -20 22 -41 44 -46 50 -6 6 -15 22 -21 35 -9 20 -24 27 -95 42 -46 10 -95 21 -108 25 -24 7 -24 6 -18 -39z m304 -203 c-3 -4 -14 -3 -24 0 -15 6 -15 8 -3 16 16 10 39 -4 27 -16z"></path><path id="pxuKzKpBx" d="M3855 2519 c-38 -11 -84 -18 -101 -16 -28 2 -35 -3 -58 -40 -36 -56 -138 -149 -192 -176 -33 -15 -44 -27 -44 -43 0 -20 3 -22 28 -14 16 4 35 4 43 0 8 -4 39 -10 70 -14 31 -3 91 -18 133 -32 43 -14 79 -24 81 -22 6 7 103 264 114 303 13 47 14 75 4 74 -5 0 -39 -9 -78 -20z"></path><path id="p1FsdvOuiy" d="M1928 2132 c-3 -33 -17 -80 -31 -108 -23 -46 -88 -116 -116 -125 -13 -5 22 -104 47 -132 15 -17 18 -15 64 30 70 69 92 121 92 218 0 146 -45 239 -56 117z"></path><path id="p5HJE5HDs" d="M4055 2074 c-6 -57 -4 -78 5 -84 8 -5 11 -22 8 -44 -2 -20 0 -36 4 -36 4 0 8 5 8 12 0 6 3 9 6 6 3 -4 1 -15 -5 -25 -8 -15 -6 -23 10 -36 22 -20 39 -22 39 -5 0 6 3 9 6 5 4 -3 20 1 36 9 16 8 33 12 38 9 26 -16 6 42 -26 78 -38 41 -84 134 -84 167 0 13 -7 20 -19 20 -17 0 -20 -10 -26 -76z"></path></g></g><g id="l1jznaNYsgiTd97lV6Rmcpf" fill="rgb(255,255,255)" style="transform: none;"><g style="transform: none;"><path id="pnFZwdkn5" d="M2719 5959 c-25 -4 -72 -10 -105 -13 -304 -34 -620 -129 -933 -283 -96 -47 -203 -105 -238 -129 -35 -24 -66 -44 -68 -44 -11 0 -129 -83 -230 -162 -76 -59 -380 -358 -437 -431 -51 -63 -228 -314 -228 -321 0 -3 -23 -44 -52 -93 -54 -93 -158 -296 -158 -310 0 -5 -16 -46 -35 -92 -78 -185 -138 -409 -181 -676 -46 -290 -41 -625 16 -940 11 -65 23 -122 26 -127 3 -4 9 -29 13 -56 11 -60 76 -274 101 -327 10 -22 33 -76 51 -120 70 -169 239 -471 317 -566 7 -8 30 -36 52 -63 23 -27 49 -61 58 -75 9 -14 35 -46 58 -71 23 -25 57 -63 75 -85 66 -79 225 -226 339 -313 41 -31 77 -60 78 -64 2 -5 10 -8 17 -8 7 0 15 -4 17 -9 8 -21 224 -152 403 -244 141 -72 342 -158 405 -172 3 -1 23 -7 45 -14 195 -60 413 -104 615 -122 136 -13 566 -6 635 10 22 5 60 12 85 14 159 18 547 127 710 199 128 57 286 137 372 190 54 32 102 58 108 58 5 0 10 4 10 8 0 4 15 16 33 27 27 16 127 86 162 113 6 4 26 19 45 32 19 13 40 29 46 35 6 5 44 39 85 75 196 172 344 343 513 595 62 92 193 337 211 395 4 14 22 57 40 95 96 207 182 559 212 871 10 97 9 369 0 484 -9 95 -64 434 -77 465 -5 11 -13 40 -19 65 -7 25 -14 52 -16 60 -2 8 -9 31 -14 50 -13 51 -84 246 -112 309 -42 96 -167 338 -196 381 -15 23 -35 54 -43 69 -23 40 -88 129 -133 181 -21 25 -41 50 -45 55 -13 19 -181 210 -219 250 -36 37 -138 128 -244 218 -24 21 -96 72 -159 115 -63 42 -117 79 -120 82 -9 9 -45 29 -120 67 -41 21 -77 41 -80 45 -3 3 -18 10 -33 13 -15 4 -27 11 -27 16 0 5 -9 9 -19 9 -11 0 -22 4 -25 9 -3 5 -17 12 -31 15 -14 4 -62 24 -107 46 -46 22 -91 40 -101 40 -10 0 -28 5 -40 12 -12 7 -31 13 -41 15 -11 2 -25 8 -33 14 -7 6 -13 9 -13 5 0 -3 -15 0 -32 7 -28 12 -88 26 -115 28 -5 1 -16 5 -26 11 -17 9 -128 32 -207 44 -19 3 -42 7 -50 10 -8 3 -37 8 -65 10 -27 2 -84 9 -125 14 -81 12 -526 11 -601 -1z m406 -193 c94 -3 195 -10 225 -16 30 -5 73 -12 95 -15 22 -2 51 -9 65 -14 14 -5 68 -17 120 -27 52 -10 97 -19 100 -19 73 -15 451 -152 461 -167 3 -5 14 -10 25 -12 12 -2 54 -23 95 -45 41 -22 92 -50 114 -62 22 -12 71 -43 109 -68 37 -25 77 -50 87 -56 11 -5 19 -13 19 -17 0 -5 5 -8 10 -8 6 0 16 -5 23 -10 7 -6 34 -27 62 -48 113 -84 385 -356 465 -465 19 -26 52 -70 73 -96 20 -27 37 -52 37 -56 0 -4 16 -30 35 -56 19 -27 35 -54 35 -59 0 -6 4 -10 9 -10 4 0 23 -28 40 -62 18 -35 37 -70 42 -78 8 -14 87 -183 121 -260 20 -44 61 -166 83 -245 10 -33 23 -78 31 -100 28 -82 73 -345 85 -495 10 -136 7 -423 -6 -510 -2 -14 -6 -41 -9 -60 -2 -19 -12 -75 -22 -125 -9 -49 -19 -103 -21 -120 -3 -16 -9 -34 -13 -40 -4 -5 -11 -28 -14 -50 -13 -70 -85 -289 -123 -375 -62 -137 -135 -280 -172 -338 -23 -34 -41 -67 -41 -72 0 -6 -4 -10 -8 -10 -5 0 -14 -12 -20 -26 -7 -14 -37 -56 -67 -93 -30 -38 -55 -72 -55 -77 0 -5 -8 -17 -17 -26 -10 -9 -36 -38 -58 -64 -51 -62 -314 -324 -325 -324 -8 0 -22 -11 -85 -69 -11 -10 -47 -35 -80 -57 -33 -21 -62 -42 -65 -45 -3 -3 -21 -14 -40 -25 -19 -10 -44 -26 -55 -35 -34 -27 -381 -209 -399 -209 -2 0 -21 -7 -42 -17 -51 -21 -223 -83 -249 -88 -11 -3 -49 -13 -85 -24 -91 -26 -186 -47 -260 -56 -19 -3 -45 -7 -57 -10 -23 -5 -66 -11 -148 -20 -54 -6 -417 -5 -475 1 -19 2 -53 5 -75 8 -22 2 -56 6 -75 10 -19 3 -46 8 -60 10 -14 2 -41 7 -60 10 -19 3 -46 8 -60 10 -14 2 -43 9 -65 14 -22 6 -53 14 -70 17 -46 9 -49 10 -60 16 -5 3 -30 11 -55 18 -25 7 -67 22 -94 32 -27 10 -55 19 -62 19 -8 0 -22 4 -32 9 -9 5 -88 43 -175 85 -87 42 -182 92 -212 111 -30 19 -56 35 -59 35 -10 0 -147 90 -169 111 -11 10 -24 19 -28 19 -5 0 -16 8 -26 18 -15 15 -70 59 -122 97 -19 14 -265 259 -332 330 -30 33 -75 89 -99 125 -42 61 -98 140 -120 167 -6 7 -10 15 -10 19 0 4 -18 35 -39 68 -98 152 -214 431 -295 711 -16 53 -47 201 -68 325 -17 99 -18 624 -1 695 7 28 15 68 18 90 12 91 19 125 46 230 16 61 31 117 33 126 9 36 89 257 107 297 11 24 29 68 40 97 11 29 26 59 34 65 8 7 15 19 15 28 0 8 14 37 30 64 17 26 30 51 30 54 0 3 22 38 48 77 27 40 75 112 107 160 32 49 73 105 91 124 18 19 50 56 70 81 55 68 321 332 335 332 6 0 31 17 54 38 52 45 161 122 175 122 6 0 10 4 10 9 0 5 14 14 30 21 17 7 30 16 30 21 0 5 7 9 15 9 8 0 15 5 15 11 0 5 4 8 9 5 5 -4 11 -2 13 3 3 11 199 113 268 141 25 10 70 29 100 43 30 14 87 36 125 47 39 12 95 30 125 40 30 10 73 21 95 26 22 4 45 8 50 10 11 3 102 20 150 29 17 2 52 7 78 10 27 4 58 10 70 14 12 5 58 9 103 10 44 1 93 6 110 10 16 5 38 7 49 5 11 -2 97 -5 190 -8z"></path><path id="pl71WphCY" d="M2315 5431 c-82 -20 -166 -87 -207 -163 -19 -37 -24 -63 -28 -180 -5 -127 -7 -139 -29 -162 -13 -14 -32 -28 -42 -31 -25 -8 -122 11 -167 32 -50 24 -257 25 -318 1 -111 -43 -210 -146 -268 -280 -41 -93 -45 -225 -10 -373 9 -39 66 -130 113 -178 89 -94 227 -165 338 -174 57 -5 67 -3 97 21 47 36 76 99 76 168 l0 56 -89 1 c-70 0 -100 5 -135 22 -55 25 -121 95 -145 152 -55 128 13 305 130 338 65 18 104 17 199 -3 127 -27 208 -25 273 6 139 65 189 160 182 342 -4 107 10 149 56 159 48 11 67 -2 96 -65 24 -53 30 -59 70 -70 38 -11 78 -10 183 4 14 2 49 4 78 5 64 1 95 26 89 70 -10 63 -54 106 -115 114 -44 5 -112 48 -112 71 0 7 -19 32 -43 57 -30 31 -56 48 -90 57 -51 13 -134 14 -182 3z m340 -226 c30 -20 55 -40 55 -45 0 -20 -55 -45 -98 -44 -38 0 -49 5 -78 38 -40 45 -43 63 -11 76 42 17 77 10 132 -25z"></path><path id="p13Lujxpud" d="M3533 5426 c-17 -8 -33 -12 -36 -10 -2 2 -10 -2 -17 -11 -7 -8 -18 -15 -24 -15 -6 -1 -31 -29 -55 -63 -40 -57 -49 -64 -102 -80 -79 -23 -110 -51 -116 -107 -4 -36 -1 -49 13 -61 21 -18 117 -30 266 -33 100 -1 113 7 138 82 16 50 39 66 80 57 56 -12 68 -52 61 -205 -4 -81 9 -131 51 -195 80 -121 227 -155 433 -101 77 20 122 20 176 1 50 -18 129 -97 129 -129 1 -12 7 -32 15 -46 44 -77 -19 -243 -116 -302 -51 -32 -83 -39 -183 -42 -63 -1 -70 -3 -78 -26 -14 -38 -3 -106 23 -146 48 -71 150 -94 243 -54 25 10 46 17 46 15 0 -7 91 44 125 70 151 116 217 251 214 440 -1 90 -12 133 -58 225 -45 92 -118 165 -216 217 -63 33 -79 37 -162 41 -81 4 -103 1 -197 -28 -99 -30 -109 -31 -148 -18 -70 22 -82 49 -83 186 -1 98 -5 125 -24 167 -36 80 -119 154 -195 172 -56 13 -172 13 -203 -1z m-28 -188 c29 -13 31 -27 11 -66 -27 -53 -97 -71 -158 -40 -21 10 -38 23 -38 28 0 10 78 66 112 80 31 12 43 12 73 -2z"></path><path id="p15fz42jHF" d="M2871 4554 c-175 -47 -327 -211 -419 -453 -18 -45 -50 -159 -73 -254 -51 -218 -69 -268 -135 -393 -91 -170 -113 -269 -80 -347 27 -63 45 -71 160 -69 100 3 156 -7 156 -27 0 -6 -7 -8 -15 -5 -8 4 -15 1 -15 -5 0 -6 -7 -8 -14 -5 -8 3 -35 -8 -59 -25 -25 -17 -47 -27 -51 -24 -3 4 -6 -1 -6 -11 0 -9 -4 -15 -8 -12 -5 3 -16 -8 -26 -25 -16 -27 -16 -30 -1 -35 11 -5 27 5 48 28 31 34 63 52 120 69 37 11 124 -13 143 -39 14 -20 54 -20 54 0 0 5 4 7 8 4 12 -7 41 30 68 88 18 39 24 68 24 126 0 41 4 91 10 110 12 43 87 120 116 120 19 0 22 -7 26 -57 3 -32 4 -166 3 -298 -1 -225 -3 -243 -24 -290 -37 -84 -113 -146 -224 -184 -68 -24 -118 -30 -266 -36 -62 -2 -115 -6 -118 -8 -9 -9 39 -89 79 -133 43 -47 155 -122 223 -149 22 -9 60 -25 85 -37 24 -11 54 -24 65 -29 94 -40 185 -118 247 -210 l44 -66 29 49 c17 28 62 80 100 116 70 67 148 112 355 205 49 22 97 54 137 91 60 55 131 151 120 162 -3 3 -43 6 -89 6 -75 0 -119 5 -216 22 -100 19 -215 78 -267 139 -19 22 -35 44 -35 48 0 4 -5 20 -11 36 -13 34 -21 583 -9 603 11 18 44 2 91 -44 44 -43 59 -84 59 -161 0 -83 21 -149 63 -197 38 -44 56 -47 100 -15 39 27 49 30 108 30 46 -1 118 -35 136 -66 10 -18 49 -38 57 -30 15 15 3 39 -35 73 -36 33 -60 45 -136 65 -13 4 -23 10 -23 15 0 15 56 23 159 22 103 -1 104 -1 132 29 70 75 62 139 -44 350 -75 148 -96 213 -162 479 -61 248 -141 405 -266 524 -113 109 -209 147 -367 145 -42 0 -101 -7 -131 -15z m291 -284 c21 -14 40 -33 44 -42 3 -10 9 -18 14 -18 12 0 19 -36 10 -51 -7 -10 -53 -12 -207 -11 -109 1 -206 2 -215 2 -46 0 6 91 71 126 42 22 56 24 146 21 86 -2 105 -6 137 -27z m-365 -241 c35 -13 108 -11 177 6 33 8 64 11 70 7 32 -20 135 -26 202 -12 32 7 79 12 103 11 45 -3 95 -27 86 -41 -3 -5 -1 -11 5 -15 16 -10 12 -42 -6 -49 -9 -3 -32 -6 -52 -6 -27 0 -51 -10 -87 -36 -55 -40 -97 -60 -139 -68 -30 -5 -116 27 -116 44 0 17 -45 11 -56 -8 -15 -24 -87 -45 -124 -37 -16 4 -61 28 -101 55 -46 31 -86 50 -115 55 -48 7 -60 21 -50 58 12 48 121 67 203 36z m262 -229 c36 -18 75 -56 83 -81 2 -5 19 -12 38 -14 79 -10 110 -112 53 -170 -36 -35 -109 -36 -142 -1 -13 14 -36 30 -52 36 -31 13 -35 11 -102 -42 -19 -15 -40 -22 -69 -21 -36 1 -48 7 -74 37 -31 36 -33 48 -19 98 7 29 66 73 87 66 7 -3 28 15 46 39 32 41 73 72 100 73 7 0 30 -9 51 -20z"></path><path id="pVf8w7zq3" d="M1067 3835 c-136 -27 -273 -118 -343 -226 -16 -24 -31 -46 -34 -49 -15 -13 -50 -112 -63 -177 -34 -166 5 -324 117 -472 41 -54 138 -134 186 -153 101 -40 188 -46 321 -24 121 21 166 26 239 26 74 1 99 -3 189 -31 35 -10 66 -17 69 -14 3 3 7 29 10 59 9 107 -43 193 -145 241 -88 42 -221 42 -383 0 -81 -21 -155 -10 -215 33 -91 64 -134 191 -102 302 44 151 157 228 317 217 99 -7 156 -34 218 -102 48 -52 81 -122 88 -183 3 -32 6 -34 64 -40 58 -5 77 6 116 73 36 63 40 115 14 188 -12 34 -29 69 -36 78 -8 9 -11 19 -7 22 3 4 1 7 -5 7 -6 0 -17 11 -24 24 -21 38 -123 121 -196 158 -108 56 -250 71 -395 43z"></path><path id="p1GgR7KhBg" d="M4705 3835 c-38 -8 -79 -19 -90 -24 -11 -4 -33 -14 -49 -20 -27 -11 -129 -86 -166 -122 -30 -29 -77 -103 -95 -152 -27 -71 -17 -157 25 -225 l33 -54 52 5 c65 5 72 9 80 50 8 34 40 112 56 131 47 60 79 91 116 113 38 22 56 26 136 27 127 1 176 -15 241 -79 194 -194 36 -532 -223 -475 -31 6 -77 18 -103 26 -133 40 -310 -1 -383 -88 -48 -57 -82 -168 -67 -221 l7 -25 75 25 c97 31 283 40 375 17 166 -42 267 -36 386 20 53 26 115 71 145 106 12 14 34 39 49 55 28 33 80 134 91 181 4 16 10 34 14 39 13 20 11 200 -3 255 -56 210 -213 374 -412 430 -76 21 -200 23 -290 5z"></path><path id="pygZHjVmc" d="M1350 2540 c-94 -14 -217 -71 -290 -134 -63 -54 -151 -193 -178 -281 -34 -110 -36 -223 -7 -348 24 -104 51 -165 111 -254 59 -86 105 -135 179 -190 102 -77 241 -135 350 -148 28 -3 61 -8 75 -11 42 -8 200 14 264 37 136 47 203 92 345 232 160 158 250 296 271 417 11 67 10 95 -4 118 -19 31 -160 -20 -237 -86 -22 -19 -73 -78 -114 -132 -92 -121 -120 -152 -170 -186 -109 -74 -184 -100 -295 -103 -141 -4 -266 44 -360 139 -61 61 -92 111 -120 194 -19 57 -22 83 -17 145 7 105 26 148 98 221 60 61 106 79 206 81 72 2 95 -2 128 -19 49 -24 127 -105 142 -147 23 -64 39 -133 42 -185 1 -8 5 -21 10 -28 19 -31 109 45 152 128 19 36 24 61 24 125 0 70 -4 88 -32 145 -34 68 -75 118 -139 166 -22 16 -41 31 -44 34 -8 8 -81 41 -125 57 -49 17 -192 24 -265 13z"></path><path id="p6llVV5Zf" d="M4519 2546 c-2 -2 -20 -7 -39 -10 -63 -10 -78 -14 -108 -30 -16 -8 -31 -14 -33 -12 -10 10 -157 -115 -187 -159 -94 -134 -107 -206 -53 -317 50 -106 158 -186 167 -124 12 84 42 181 70 226 23 38 100 116 112 114 4 -1 18 3 32 8 14 6 53 12 87 13 210 12 349 -175 309 -414 -10 -58 -18 -79 -59 -142 -42 -64 -77 -103 -134 -147 -58 -45 -105 -63 -203 -76 -175 -25 -322 27 -456 159 -39 38 -89 97 -110 130 -78 124 -190 207 -296 221 l-47 7 -6 -37 c-9 -43 2 -157 16 -170 5 -6 9 -17 9 -26 0 -18 72 -131 108 -170 13 -14 60 -65 105 -114 106 -114 208 -197 288 -234 35 -16 115 -39 176 -52 117 -23 177 -23 297 0 74 14 234 84 274 120 9 8 35 28 56 44 123 92 229 254 270 413 20 78 21 243 1 320 -47 178 -189 352 -345 419 -64 28 -283 57 -301 40z"></path><path id="p1ARDJrhOp" d="M3270 1873 c-69 -69 -96 -118 -108 -197 -28 -180 44 -325 233 -467 50 -37 111 -83 137 -103 73 -55 99 -96 105 -165 7 -80 -13 -116 -60 -107 -17 4 -45 20 -62 36 -37 36 -66 38 -126 8 -40 -19 -83 -25 -221 -28 -7 0 -42 -72 -52 -106 -5 -16 0 -27 20 -43 15 -12 33 -21 40 -21 17 0 75 -60 69 -70 -10 -16 48 -54 112 -71 131 -37 253 -14 362 66 111 82 162 179 164 310 1 171 -23 215 -218 400 -91 87 -163 164 -193 209 -26 39 -47 73 -47 76 -1 3 -7 16 -14 28 -29 53 -52 142 -58 220 -3 45 -10 82 -16 82 -5 0 -36 -26 -67 -57z m143 -1154 c13 -6 31 -24 41 -39 16 -29 16 -29 -9 -46 -52 -34 -131 -11 -177 51 -14 18 -8 35 11 35 11 0 23 5 27 11 7 12 69 6 107 -12z"></path><path id="pGeBlIDlK" d="M2686 1894 c-3 -9 -6 -32 -6 -52 -1 -152 -136 -377 -316 -524 -73 -59 -120 -108 -142 -147 -8 -13 -23 -40 -35 -60 -65 -114 -52 -282 33 -409 54 -81 93 -113 181 -150 66 -27 83 -30 164 -28 95 3 119 7 157 27 32 16 68 50 68 64 0 17 36 47 84 70 48 23 56 48 30 97 -18 32 -20 38 -23 57 0 5 -45 12 -98 16 -54 4 -103 11 -110 17 -7 5 -32 16 -56 23 -46 14 -69 7 -102 -29 -16 -17 -53 -36 -70 -36 -19 0 -46 41 -50 77 -11 90 33 147 220 290 195 149 265 262 265 426 0 29 -7 72 -16 96 -40 116 -157 231 -178 175z m59 -1166 c35 -16 31 -38 -15 -75 -31 -26 -48 -33 -83 -33 -57 0 -83 25 -66 63 22 48 106 71 164 45z"></path></g></g></svg>