<svg xmlns="http://www.w3.org/2000/svg" viewBox="0 0 336.24 73.5"><defs><style>.cls-1{fill:#005bac;}.cls-2{fill:#005fab;}.cls-3{fill:#005eaf;}.cls-4{fill:#005faf;}.cls-5{fill:#0060b0;}.cls-6{fill:#0061b0;}.cls-7{fill:#0061b1;}.cls-8{fill:#0062b1;}.cls-9{fill:#0062b2;}.cls-10{fill:#0063b2;}.cls-11{fill:#0064b2;}.cls-12{fill:#0064b3;}.cls-13{fill:#0065b3;}.cls-14{fill:#0065b4;}.cls-15{fill:#0066b4;}.cls-16{fill:#0067b5;}.cls-17{fill:#0068b6;}.cls-18{fill:#0069b6;}.cls-19{fill:#0069b7;}.cls-20{fill:#006ab7;}.cls-21{fill:#006bb8;}.cls-22{fill:#006cb9;}.cls-23{fill:#006dba;}.cls-24{fill:#006eba;}.cls-25{fill:#006ebb;}.cls-26{fill:#006fbb;}.cls-27{fill:#0070bc;}.cls-28{fill:#0071bd;}.cls-29{fill:#0072bd;}.cls-30{fill:#0072be;}.cls-31{fill:#0073be;}.cls-32{fill:#0074bf;}.cls-33{fill:#0075bf;}.cls-34{fill:#0075c0;}.cls-35{fill:#0076c0;}.cls-36{fill:#0076c1;}.cls-37{fill:#0077c1;}.cls-38{fill:#0078c2;}.cls-39{fill:#0079c3;}.cls-40{fill:#007ac3;}.cls-41{fill:#007bc4;}.cls-42{fill:#007cc5;}.cls-43{fill:#007dc5;}.cls-44{fill:#007dc6;}.cls-45{fill:#007ec6;}.cls-46{fill:#007ec7;}.cls-47{fill:#007fc7;}.cls-48{fill:#0080c7;}.cls-49{fill:#0080c8;}.cls-50{fill:#0081c8;}.cls-51{fill:#0081c9;}.cls-52{fill:#0082c9;}.cls-53{fill:#0083ca;}.cls-54{fill:#0084cb;}.cls-55{fill:#0085cb;}.cls-56{fill:#0085cc;}.cls-57{fill:#0086cc;}.cls-58{fill:#0087cd;}.cls-59{fill:#0088ce;}.cls-60{fill:#0089ce;}.cls-61{fill:#0089cf;}.cls-62{fill:#008acf;}.cls-63{fill:#008ad0;}.cls-64{fill:#008bd0;}.cls-65{fill:#008cd0;}.cls-66{fill:#008cd1;}.cls-67{fill:#008dd1;}.cls-68{fill:#008dd2;}.cls-69{fill:#008ed2;}.cls-70{fill:#008fd3;}.cls-71{fill:#0090d3;}.cls-72{fill:#0091d4;}.cls-73{fill:#0092d5;}.cls-74{fill:#0093d6;}.cls-75{fill:#0094d6;}.cls-76{fill:#0095d7;}.cls-77{fill:#0096d8;}.cls-78{fill:#0097d8;}.cls-79{fill:#0097d9;}.cls-80{fill:#0098d9;}.cls-81{fill:#0099da;}.cls-82{fill:#009ada;}.cls-83{fill:#009bdb;}.cls-84{fill:#009cdc;}.cls-85{fill:#009ddd;}.cls-86{fill:#009edd;}.cls-87{fill:#009fde;}.cls-88{fill:#00a0df;}.cls-89{fill:#00a1df;}.cls-90{fill:#00a1e0;}.cls-91{fill:#00a2e0;}.cls-92{fill:#00a3e0;}.cls-93{fill:#00a3e1;}.cls-94{fill:#00a4e1;}.cls-95{fill:#00a4e2;}.cls-96{fill:#00a5e2;}.cls-97{fill:#00a6e3;}.cls-98{fill:#00a7e3;}.cls-99{fill:#00a8e4;}.cls-100{fill:#00a9e5;}.cls-101{fill:#00aae5;}.cls-102{fill:#00aae6;}.cls-103{fill:#00abe6;}.cls-104{fill:#00ace7;}.cls-105{fill:#00ade7;}.cls-106{fill:#00ade8;}.cls-107{fill:#00aee8;}.cls-108{fill:#00afe8;}.cls-109{fill:#00afe9;}.cls-110{fill:#00b0e9;}.cls-111{fill:#00b1ea;}.cls-112{fill:#00b2eb;}.cls-113{fill:#00b3eb;}.cls-114{fill:#00b4ec;}.cls-115{fill:#00b7ec;}.cls-116{fill:#040000;}.cls-117{fill:#fff;}</style></defs><g id="Layer_2" data-name="Layer 2"><g id="レイヤー_1" data-name="レイヤー 1"><path class="cls-1" d="M155.9,65.7c0,1.2-.6,2.8-2.2,2.8a2.14,2.14,0,0,1-2.1-1.7,3.45,3.45,0,0,1-.1-1.2c0-1.9,1.2-2.7,2.1-2.7a2.54,2.54,0,0,1,2.3,2.8m-6.5-8.1V70.4h2.1v-1a3.5,3.5,0,0,0,2.5,1.2c2.2,0,4.1-1.9,4.1-4.8s-1.9-4.8-4-4.8a4,4,0,0,0-2.6,1V57.5h-2.1Z"/><path class="cls-1" d="M166.8,61.3l-2.3,7.9-.5,1.7c-.6,1.9-1.3,2.6-3,2.6-.7,0-1.1-.1-1.3-.1v-2c.2,0,.4.1.6.1a2.17,2.17,0,0,0,1-.2,1.3,1.3,0,0,0,.5-.7l-3.3-9.2h2.3l2,6.7,1.7-6.7h2.3Z"/><path class="cls-1" d="M218.2,69.6h1.3c.1,0,.1,0,.2-.1l5.4-8.8L228,70.8c0,.1.1.1.2.1h5.6a.1.1,0,0,0,.1-.1L228,52c0-.1-.1-.1-.2-.1h-2.1c-.1,0-.1,0-.2.1l-7.2,11.2L211.1,52c0-.1-.1-.1-.2-.1h-2.1c-.1,0-.1.1-.2.1l-5.9,18.8c0,.1,0,.1.1.1h5.6c.1,0,.1-.1.2-.1l2.9-10.1,5.4,8.8c0,.1.1.1.2.1Z"/><path class="cls-1" d="M202.8,60.2h0a.1.1,0,0,0-.1-.1H186.6a1.5,1.5,0,0,0,0,3h9.5c-1.1,3-5,5.2-9.5,5.2-5.5,0-9.9-3.2-9.9-7.1s4.4-7.1,9.9-7.1a11.81,11.81,0,0,1,7.5,2.4h6.7a.1.1,0,0,0,.1-.1v-.1h0c-2.8-3-8.1-5-14.2-5-9,0-16.3,4.4-16.3,9.8s7.3,9.8,16.3,9.8S203,66.5,203,61.1a4.12,4.12,0,0,1-.2-.9"/><path class="cls-1" d="M249.8,51.6c-9,0-16.3,4.4-16.3,9.8s7.3,9.8,16.3,9.8,16.3-4.4,16.3-9.8-7.3-9.8-16.3-9.8m0,16.8c-5.5,0-9.9-3.2-9.9-7.1s4.4-7.1,9.9-7.1,9.9,3.2,9.9,7.1-4.5,7.1-9.9,7.1"/><g id="アートワーク_14" data-name="アートワーク 14"><path class="cls-2" d="M72.8,36.4A36.4,36.4,0,1,1,36.4,0,36.4,36.4,0,0,1,72.8,36.4"/><path class="cls-3" d="M72.7,36.4A36.25,36.25,0,1,1,36.5.1,36.19,36.19,0,0,1,72.7,36.4"/><path class="cls-4" d="M72.5,36.4A36.1,36.1,0,1,1,36.4.3,36.15,36.15,0,0,1,72.5,36.4"/><path class="cls-5" d="M72.4,36.4A36,36,0,1,1,36.4.5a36,36,0,0,1,36,35.9"/><path class="cls-5" d="M72.2,36.4A35.8,35.8,0,1,1,36.4.6,35.76,35.76,0,0,1,72.2,36.4"/><path class="cls-6" d="M72.1,36.4A35.65,35.65,0,1,1,36.5.7,35.7,35.7,0,0,1,72.1,36.4"/><path class="cls-7" d="M71.9,36.4A35.5,35.5,0,1,1,36.4.9,35.51,35.51,0,0,1,71.9,36.4"/><path class="cls-8" d="M71.8,36.4A35.35,35.35,0,1,1,36.4,1.1,35.38,35.38,0,0,1,71.8,36.4"/><path class="cls-9" d="M71.6,36.4A35.2,35.2,0,1,1,36.4,1.2,35.25,35.25,0,0,1,71.6,36.4"/><path class="cls-10" d="M71.5,36.4a35.05,35.05,0,1,1-35.1-35,35.06,35.06,0,0,1,35.1,35"/><path class="cls-11" d="M71.3,36.4A34.9,34.9,0,1,1,36.4,1.5,34.87,34.87,0,0,1,71.3,36.4"/><path class="cls-12" d="M71.2,36.4A34.75,34.75,0,1,1,36.5,1.6,34.8,34.8,0,0,1,71.2,36.4"/><path class="cls-13" d="M71,36.4A34.6,34.6,0,1,1,36.4,1.8,34.61,34.61,0,0,1,71,36.4"/><path class="cls-14" d="M70.9,36.4A34.45,34.45,0,1,1,36.5,1.9,34.48,34.48,0,0,1,70.9,36.4"/><path class="cls-15" d="M70.7,36.4A34.3,34.3,0,1,1,36.4,2.1,34.36,34.36,0,0,1,70.7,36.4"/><path class="cls-16" d="M70.6,36.4A34.15,34.15,0,1,1,36.5,2.2,34.16,34.16,0,0,1,70.6,36.4"/><path class="cls-16" d="M70.4,36.4a34,34,0,1,1-34-34,34,34,0,0,1,34,34"/><path class="cls-17" d="M70.3,36.4A33.85,33.85,0,1,1,36.5,2.5,33.91,33.91,0,0,1,70.3,36.4"/><path class="cls-17" d="M70.1,36.4A33.7,33.7,0,1,1,36.4,2.7,33.72,33.72,0,0,1,70.1,36.4"/><path class="cls-18" d="M70,36.4A33.55,33.55,0,1,1,36.5,2.8,33.59,33.59,0,0,1,70,36.4"/><path class="cls-19" d="M69.8,36.4A33.4,33.4,0,1,1,36.4,3,33.46,33.46,0,0,1,69.8,36.4"/><path class="cls-20" d="M69.7,36.4A33.25,33.25,0,1,1,36.4,3.2,33.29,33.29,0,0,1,69.7,36.4"/><path class="cls-21" d="M69.5,36.4A33.1,33.1,0,1,1,36.4,3.3,33.08,33.08,0,0,1,69.5,36.4"/><path class="cls-21" d="M69.4,36.4a33,33,0,1,1-33-33,33,33,0,0,1,33,33"/><path class="cls-22" d="M69.2,36.4A32.8,32.8,0,1,1,36.4,3.6,32.82,32.82,0,0,1,69.2,36.4"/><path class="cls-22" d="M69.1,36.4A32.7,32.7,0,1,1,36.4,3.7,32.71,32.71,0,0,1,69.1,36.4"/><path class="cls-23" d="M68.9,36.4A32.5,32.5,0,1,1,36.4,3.9,32.5,32.5,0,0,1,68.9,36.4"/><path class="cls-24" d="M68.8,36.4A32.35,32.35,0,1,1,36.4,4.1,32.39,32.39,0,0,1,68.8,36.4"/><path class="cls-25" d="M68.6,36.4A32.2,32.2,0,1,1,36.4,4.2,32.18,32.18,0,0,1,68.6,36.4"/><path class="cls-26" d="M68.5,36.4a32.1,32.1,0,1,1-32.1-32,32.14,32.14,0,0,1,32.1,32"/><path class="cls-26" d="M68.3,36.4A31.9,31.9,0,1,1,36.4,4.5,31.88,31.88,0,0,1,68.3,36.4"/><path class="cls-27" d="M68.2,36.4A31.8,31.8,0,1,1,36.4,4.6,31.82,31.82,0,0,1,68.2,36.4"/><path class="cls-27" d="M68,36.4A31.6,31.6,0,1,1,36.4,4.8,31.6,31.6,0,0,1,68,36.4"/><path class="cls-28" d="M67.9,36.4A31.45,31.45,0,1,1,36.5,4.9,31.5,31.5,0,0,1,67.9,36.4"/><path class="cls-29" d="M67.7,36.4A31.3,31.3,0,1,1,36.4,5.1,31.28,31.28,0,0,1,67.7,36.4"/><path class="cls-30" d="M67.6,36.4A31.2,31.2,0,1,1,36.4,5.2,31.24,31.24,0,0,1,67.6,36.4"/><path class="cls-31" d="M67.4,36.4a31,31,0,1,1-31-31,31,31,0,0,1,31,31"/><path class="cls-31" d="M67.3,36.4A30.9,30.9,0,1,1,36.4,5.5,30.92,30.92,0,0,1,67.3,36.4"/><path class="cls-32" d="M67.1,36.4A30.7,30.7,0,1,1,36.4,5.7,30.71,30.71,0,0,1,67.1,36.4"/><path class="cls-33" d="M67,36.4A30.6,30.6,0,1,1,36.4,5.8,30.6,30.6,0,0,1,67,36.4"/><path class="cls-34" d="M66.8,36.4A30.4,30.4,0,1,1,36.4,6,30.39,30.39,0,0,1,66.8,36.4"/><path class="cls-35" d="M66.7,36.4A30.3,30.3,0,1,1,36.4,6.1,30.28,30.28,0,0,1,66.7,36.4"/><path class="cls-36" d="M66.5,36.4A30.1,30.1,0,1,1,36.4,6.3,30.13,30.13,0,0,1,66.5,36.4"/><path class="cls-37" d="M66.4,36.4a30,30,0,1,1-30-30,30,30,0,0,1,30,30"/><path class="cls-38" d="M66.3,36.4A29.8,29.8,0,1,1,36.5,6.6,29.75,29.75,0,0,1,66.3,36.4"/><path class="cls-38" d="M66.1,36.4A29.7,29.7,0,1,1,36.4,6.7,29.7,29.7,0,0,1,66.1,36.4"/><path class="cls-39" d="M66,36.4A29.55,29.55,0,1,1,36.4,6.9,29.49,29.49,0,0,1,66,36.4"/><path class="cls-40" d="M65.8,36.4A29.35,29.35,0,1,1,36.5,7,29.38,29.38,0,0,1,65.8,36.4"/><path class="cls-40" d="M65.7,36.4A29.2,29.2,0,1,1,36.5,7.2,29.23,29.23,0,0,1,65.7,36.4"/><path class="cls-41" d="M65.5,36.4a29.1,29.1,0,1,1-29.1-29,29.06,29.06,0,0,1,29.1,29"/><path class="cls-41" d="M65.4,36.4a29,29,0,1,1-29-28.8,29,29,0,0,1,29,28.8"/><path class="cls-42" d="M65.2,36.4A28.8,28.8,0,1,1,36.4,7.6,28.81,28.81,0,0,1,65.2,36.4"/><path class="cls-43" d="M65.1,36.4A28.6,28.6,0,1,1,36.5,7.8,28.59,28.59,0,0,1,65.1,36.4"/><path class="cls-44" d="M64.9,36.4A28.5,28.5,0,1,1,36.4,7.9,28.49,28.49,0,0,1,64.9,36.4"/><path class="cls-45" d="M64.8,36.4A28.35,28.35,0,1,1,36.4,8.1,28.34,28.34,0,0,1,64.8,36.4"/><path class="cls-46" d="M64.6,36.4A28.2,28.2,0,1,1,36.4,8.2,28.17,28.17,0,0,1,64.6,36.4"/><path class="cls-47" d="M64.5,36.4a28,28,0,1,1-28-28,28,28,0,0,1,28,28"/><path class="cls-48" d="M64.3,36.4A27.9,27.9,0,1,1,36.4,8.5,27.91,27.91,0,0,1,64.3,36.4"/><path class="cls-49" d="M64.2,36.4A27.75,27.75,0,1,1,36.4,8.7,27.7,27.7,0,0,1,64.2,36.4"/><path class="cls-50" d="M64,36.4A27.6,27.6,0,1,1,36.4,8.8,27.59,27.59,0,0,1,64,36.4"/><path class="cls-51" d="M63.9,36.4A27.4,27.4,0,1,1,36.5,9,27.44,27.44,0,0,1,63.9,36.4"/><path class="cls-52" d="M63.7,36.4A27.3,27.3,0,1,1,36.4,9.1,27.27,27.27,0,0,1,63.7,36.4"/><path class="cls-53" d="M63.6,36.4A27.1,27.1,0,1,1,36.5,9.3,27.06,27.06,0,0,1,63.6,36.4"/><path class="cls-53" d="M63.4,36.4a27,27,0,1,1-27-27,27,27,0,0,1,27,27"/><path class="cls-54" d="M63.3,36.4A26.8,26.8,0,1,1,36.5,9.6,26.8,26.8,0,0,1,63.3,36.4"/><path class="cls-54" d="M63.1,36.4A26.7,26.7,0,1,1,36.4,9.7,26.69,26.69,0,0,1,63.1,36.4"/><path class="cls-55" d="M63,36.4A26.5,26.5,0,1,1,36.5,9.9,26.48,26.48,0,0,1,63,36.4"/><path class="cls-56" d="M62.8,36.4A26.4,26.4,0,1,1,36.4,10,26.37,26.37,0,0,1,62.8,36.4"/><path class="cls-57" d="M62.7,36.4A26.2,26.2,0,1,1,36.5,10.2,26.16,26.16,0,0,1,62.7,36.4"/><path class="cls-58" d="M62.5,36.4a26.1,26.1,0,1,1-26.1-26,26.12,26.12,0,0,1,26.1,26"/><path class="cls-58" d="M62.4,36.4a26,26,0,1,1-26-25.9,25.95,25.95,0,0,1,26,25.9"/><path class="cls-59" d="M62.2,36.4A25.8,25.8,0,1,1,36.4,10.6,25.8,25.8,0,0,1,62.2,36.4"/><path class="cls-60" d="M62.1,36.4A25.6,25.6,0,1,1,36.5,10.8,25.59,25.59,0,0,1,62.1,36.4"/><path class="cls-61" d="M61.9,36.4A25.5,25.5,0,1,1,36.4,10.9,25.48,25.48,0,0,1,61.9,36.4"/><path class="cls-62" d="M61.8,36.4A25.35,25.35,0,1,1,36.4,11.1,25.27,25.27,0,0,1,61.8,36.4"/><path class="cls-63" d="M61.6,36.4A25.2,25.2,0,1,1,36.4,11.2,25.22,25.22,0,0,1,61.6,36.4"/><path class="cls-64" d="M61.5,36.4a25,25,0,1,1-25-25,25,25,0,0,1,25,25"/><path class="cls-65" d="M61.3,36.4A24.9,24.9,0,1,1,36.4,11.5,24.9,24.9,0,0,1,61.3,36.4"/><path class="cls-66" d="M61.2,36.4A24.7,24.7,0,1,1,36.5,11.7,24.69,24.69,0,0,1,61.2,36.4"/><path class="cls-67" d="M61,36.4A24.6,24.6,0,1,1,36.4,11.8,24.58,24.58,0,0,1,61,36.4"/><path class="cls-68" d="M60.9,36.4A24.4,24.4,0,1,1,36.5,12,24.37,24.37,0,0,1,60.9,36.4"/><path class="cls-69" d="M60.7,36.4A24.3,24.3,0,1,1,36.4,12.1,24.33,24.33,0,0,1,60.7,36.4"/><path class="cls-70" d="M60.6,36.4A24.15,24.15,0,1,1,36.4,12.3,24.11,24.11,0,0,1,60.6,36.4"/><path class="cls-70" d="M60.4,36.4a24,24,0,1,1-24-24,24,24,0,0,1,24,24"/><path class="cls-71" d="M60.3,36.4A23.8,23.8,0,1,1,36.5,12.6,23.79,23.79,0,0,1,60.3,36.4"/><path class="cls-72" d="M60.1,36.4A23.7,23.7,0,1,1,36.4,12.7,23.69,23.69,0,0,1,60.1,36.4"/><path class="cls-72" d="M60,36.4A23.5,23.5,0,1,1,36.5,12.9,23.47,23.47,0,0,1,60,36.4"/><path class="cls-73" d="M59.8,36.4A23.4,23.4,0,1,1,36.4,13,23.43,23.43,0,0,1,59.8,36.4"/><path class="cls-73" d="M59.7,36.4A23.2,23.2,0,1,1,36.5,13.2,23.22,23.22,0,0,1,59.7,36.4"/><path class="cls-74" d="M59.5,36.4A23.1,23.1,0,1,1,36.4,13.3,23,23,0,0,1,59.5,36.4"/><path class="cls-75" d="M59.4,36.4a23,23,0,1,1-23-22.9,23,23,0,0,1,23,22.9"/><path class="cls-75" d="M59.2,36.4A22.8,22.8,0,1,1,36.4,13.6,22.79,22.79,0,0,1,59.2,36.4"/><path class="cls-76" d="M59.1,36.4A22.65,22.65,0,1,1,36.5,13.8,22.58,22.58,0,0,1,59.1,36.4"/><path class="cls-76" d="M58.9,36.4A22.5,22.5,0,1,1,36.4,13.9,22.53,22.53,0,0,1,58.9,36.4"/><path class="cls-77" d="M58.8,36.4A22.35,22.35,0,1,1,36.5,14.1,22.32,22.32,0,0,1,58.8,36.4"/><path class="cls-78" d="M58.6,36.4A22.2,22.2,0,1,1,36.4,14.2,22.15,22.15,0,0,1,58.6,36.4"/><path class="cls-79" d="M58.5,36.4a22.05,22.05,0,1,1-22-22,22,22,0,0,1,22,22"/><path class="cls-80" d="M58.3,36.4A21.9,21.9,0,1,1,36.4,14.5,21.89,21.89,0,0,1,58.3,36.4"/><path class="cls-81" d="M58.2,36.4A21.75,21.75,0,1,1,36.5,14.6,21.68,21.68,0,0,1,58.2,36.4"/><path class="cls-81" d="M58,36.4A21.6,21.6,0,1,1,36.4,14.8,21.64,21.64,0,0,1,58,36.4"/><path class="cls-82" d="M57.9,36.4A21.45,21.45,0,1,1,36.5,14.9,21.42,21.42,0,0,1,57.9,36.4"/><path class="cls-83" d="M57.7,36.4A21.3,21.3,0,1,1,36.4,15.1,21.25,21.25,0,0,1,57.7,36.4"/><path class="cls-83" d="M57.6,36.4A21.15,21.15,0,1,1,36.5,15.2,21.19,21.19,0,0,1,57.6,36.4"/><path class="cls-84" d="M57.4,36.4a21,21,0,1,1-21-21,21,21,0,0,1,21,21"/><path class="cls-84" d="M57.3,36.4A20.85,20.85,0,1,1,36.5,15.5,20.87,20.87,0,0,1,57.3,36.4"/><path class="cls-85" d="M57.1,36.4A20.7,20.7,0,1,1,36.4,15.7,20.74,20.74,0,0,1,57.1,36.4"/><path class="cls-86" d="M57,36.4A20.55,20.55,0,1,1,36.5,15.8,20.61,20.61,0,0,1,57,36.4"/><path class="cls-86" d="M56.8,36.4A20.4,20.4,0,1,1,36.4,16,20.36,20.36,0,0,1,56.8,36.4"/><path class="cls-87" d="M56.7,36.4A20.25,20.25,0,1,1,36.5,16.1,20.29,20.29,0,0,1,56.7,36.4"/><path class="cls-87" d="M56.5,36.4A20.1,20.1,0,1,1,36.4,16.3,20.1,20.1,0,0,1,56.5,36.4"/><path class="cls-88" d="M56.4,36.4a20,20,0,1,1-19.9-20,20,20,0,0,1,19.9,20"/><path class="cls-89" d="M56.2,36.4A19.8,19.8,0,1,1,36.4,16.6,19.85,19.85,0,0,1,56.2,36.4"/><path class="cls-90" d="M56.1,36.4A19.65,19.65,0,1,1,36.5,16.7,19.65,19.65,0,0,1,56.1,36.4"/><path class="cls-91" d="M55.9,36.4A19.5,19.5,0,1,1,36.4,16.9,19.46,19.46,0,0,1,55.9,36.4"/><path class="cls-92" d="M55.8,36.4A19.35,19.35,0,1,1,36.5,17,19.42,19.42,0,0,1,55.8,36.4"/><path class="cls-93" d="M55.6,36.4A19.2,19.2,0,1,1,36.4,17.2,19.2,19.2,0,0,1,55.6,36.4"/><path class="cls-94" d="M55.5,36.4a19.1,19.1,0,1,1-19.1-19,19.1,19.1,0,0,1,19.1,19"/><path class="cls-95" d="M55.3,36.4A18.9,18.9,0,1,1,36.4,17.5,18.95,18.95,0,0,1,55.3,36.4"/><path class="cls-96" d="M55.2,36.4A18.75,18.75,0,1,1,36.4,17.7,18.78,18.78,0,0,1,55.2,36.4"/><path class="cls-97" d="M55,36.4A18.6,18.6,0,1,1,36.4,17.8,18.56,18.56,0,0,1,55,36.4"/><path class="cls-97" d="M54.9,36.4A18.5,18.5,0,1,1,36.4,17.9,18.52,18.52,0,0,1,54.9,36.4"/><path class="cls-98" d="M54.7,36.4A18.3,18.3,0,1,1,36.4,18.1,18.31,18.31,0,0,1,54.7,36.4"/><path class="cls-99" d="M54.6,36.4A18.2,18.2,0,1,1,36.4,18.2,18.2,18.2,0,0,1,54.6,36.4"/><path class="cls-99" d="M54.4,36.4a18,18,0,1,1-18-18,18.05,18.05,0,0,1,18,18"/><path class="cls-100" d="M54.3,36.4A17.9,17.9,0,1,1,36.4,18.5,17.88,17.88,0,0,1,54.3,36.4"/><path class="cls-101" d="M54.1,36.4A17.7,17.7,0,1,1,36.4,18.7,17.67,17.67,0,0,1,54.1,36.4"/><path class="cls-102" d="M54,36.4A17.6,17.6,0,1,1,36.4,18.8,17.63,17.63,0,0,1,54,36.4"/><path class="cls-103" d="M53.8,36.4A17.4,17.4,0,1,1,36.4,19,17.41,17.41,0,0,1,53.8,36.4"/><path class="cls-103" d="M53.7,36.4A17.3,17.3,0,1,1,36.4,19.1,17.31,17.31,0,0,1,53.7,36.4"/><path class="cls-104" d="M53.5,36.4A17.1,17.1,0,1,1,36.4,19.3,17.09,17.09,0,0,1,53.5,36.4"/><path class="cls-105" d="M53.4,36.4a17,17,0,1,1-17-17,17,17,0,0,1,17,17"/><path class="cls-106" d="M53.2,36.4A16.8,16.8,0,1,1,36.4,19.6,16.77,16.77,0,0,1,53.2,36.4"/><path class="cls-107" d="M53.1,36.4A16.7,16.7,0,1,1,36.4,19.7,16.73,16.73,0,0,1,53.1,36.4"/><path class="cls-108" d="M52.9,36.4A16.5,16.5,0,1,1,36.4,19.9,16.52,16.52,0,0,1,52.9,36.4"/><path class="cls-109" d="M52.8,36.4A16.4,16.4,0,1,1,36.4,20,16.41,16.41,0,0,1,52.8,36.4"/><path class="cls-110" d="M52.6,36.4A16.2,16.2,0,1,1,36.4,20.2,16.2,16.2,0,0,1,52.6,36.4"/><path class="cls-111" d="M52.5,36.4a16.1,16.1,0,1,1-16.1-16,16.09,16.09,0,0,1,16.1,16"/><path class="cls-111" d="M52.3,36.4A15.9,15.9,0,1,1,36.4,20.5,15.88,15.88,0,0,1,52.3,36.4"/><path class="cls-112" d="M52.2,36.4A15.8,15.8,0,1,1,36.4,20.6,15.83,15.83,0,0,1,52.2,36.4"/><path class="cls-112" d="M52.1,36.4A15.6,15.6,0,1,1,36.5,20.8,15.62,15.62,0,0,1,52.1,36.4"/><path class="cls-113" d="M51.9,36.4A15.5,15.5,0,1,1,36.4,20.9,15.51,15.51,0,0,1,51.9,36.4"/><path class="cls-114" d="M51.8,36.4A15.35,15.35,0,1,1,36.4,21.1,15.3,15.3,0,0,1,51.8,36.4"/><path class="cls-114" d="M51.6,36.4A15.2,15.2,0,1,1,36.4,21.3,15.19,15.19,0,0,1,51.6,36.4"/><path class="cls-115" d="M51.5,36.4a15,15,0,1,1-15-15,15,15,0,0,1,15,15"/><path class="cls-116" d="M55.2,36.4A18.8,18.8,0,1,1,36.4,17.6,18.78,18.78,0,0,1,55.2,36.4"/><path class="cls-117" d="M32.2,18.6a8.3,8.3,0,1,1-8.3-8.3,8.28,8.28,0,0,1,8.3,8.3"/></g><g id="アートワーク_14-2" data-name="アートワーク 14"><path class="cls-2" d="M119.8,39.2a41,41,0,0,1-11.9,2c-6.5,0-11.1-1.6-14.3-4.6A14.85,14.85,0,0,1,89,25.5C89,15.3,97,9,108.6,9a26.49,26.49,0,0,1,10,1.7L117,16.6a20.06,20.06,0,0,0-8.6-1.5c-6.5,0-11.5,3.5-11.5,9.9,0,6.2,4.5,10.3,11.3,10.3a12.22,12.22,0,0,0,4.2-.5V28.4h-5.6V22.7h12.9l.1,16.5Z"/><rect class="cls-2" x="125.8" y="7.3" width="6" height="33.5"/><path class="cls-2" d="M149.5,37.1c-3.7,0-6.4-3.1-6.4-7.6,0-4,2-7.7,6.5-7.7s6.4,3.9,6.4,7.6c0,5-2.9,7.7-6.5,7.7Zm0,4.3c6.6,0,12.8-4.1,12.8-12.2,0-6.7-5-11.7-12.4-11.7-7.7,0-13,4.9-13,12.2,0,7.1,5.5,11.7,12.6,11.7Z"/><path class="cls-2" d="M173.4,28.2a6.8,6.8,0,0,1,.2-1.5,6,6,0,0,1,5.9-4.6c4.3,0,6.5,3.3,6.5,7.3,0,4.6-2.6,7.4-6.6,7.4a6.11,6.11,0,0,1-5.9-4.4,5.7,5.7,0,0,1-.1-1.3V28.2Zm-6,6.2c0,2.5-.1,5-.2,6.5h5.1l.3-3.6h.1c1.8,3.1,4.9,4.2,8.1,4.2,5.6,0,11.4-4.1,11.4-12.3.1-7-4.5-11.6-10.5-11.6-3.8,0-6.6,1.6-8.1,3.9h-.1V7.3h-6V34.4Z"/><path class="cls-2" d="M210.4,32.6a3,3,0,0,1-.2,1.3,5.37,5.37,0,0,1-5.1,3.3c-2.1,0-3.6-1.1-3.6-3.2,0-3.3,4-4.3,8.8-4.2v2.8Zm5.8-5.2c0-5-2.3-9.9-10.1-9.9a17,17,0,0,0-8.9,2.2l1.2,3.9a14.26,14.26,0,0,1,6.8-1.8c4.6,0,5,2.7,5,4v.3c-9.5-.1-14.7,3-14.7,8.7,0,3.3,2.6,6.8,7.7,6.8a9.16,9.16,0,0,0,7.3-3.2h.1L211,41h5.4a40.56,40.56,0,0,1-.4-5.6v-8Z"/><rect class="cls-2" x="222.8" y="7.3" width="6" height="33.5"/><path class="cls-2" d="M236,33.1a19.61,19.61,0,0,0,8.8,2.2c3.4,0,5.2-1.3,5.2-3.4,0-1.8-1.5-3-5.7-4.2-5.6-1.6-9.6-4.3-9.6-9.5,0-5.5,4.9-9.5,12.6-9.5a23,23,0,0,1,9.1,1.7l-1.8,5.9a18.08,18.08,0,0,0-7.4-1.6c-3.3,0-4.8,1.4-4.8,3,0,2,2,2.9,6.3,4.3,6.1,1.9,9,4.7,9,9.6,0,5.1-4,9.9-13.5,9.9a23,23,0,0,1-9.9-2.2Z"/><path class="cls-2" d="M263.1,18.1h6V40.9h-6Zm3-3.6a3.31,3.31,0,1,1,0-6.6,3.26,3.26,0,0,1,3.5,3.3,3.2,3.2,0,0,1-3.5,3.3Z"/><path class="cls-2" d="M292.3,30.4a7.11,7.11,0,0,1-.3,2.1,5.65,5.65,0,0,1-5.4,3.9c-4.2,0-6.3-3.4-6.3-6.9,0-4.8,2.8-7.4,6.3-7.4a5.41,5.41,0,0,1,5.4,4.1,7.72,7.72,0,0,1,.2,1.5l.1,2.7Zm6-6c0-3.1.1-4.9.2-6.3h-5.3l-.2,3.2h-.1c-1.2-2-3.5-3.8-7.4-3.8-6,0-11.3,4.7-11.3,12.1,0,6.6,4.6,11.1,10.6,11.1a9,9,0,0,0,7.5-3.6h.1v2c0,5.1-3.3,7.1-7.3,7.1a14.5,14.5,0,0,1-7.4-2l-1.3,4.6c2.1,1.3,5.6,2,8.8,2s6.8-.6,9.5-2.9,3.6-6,3.6-10.6V24.4Z"/><path class="cls-2" d="M305,25c0-2.7-.1-4.9-.2-6.9h5.3l.3,3.7h.2a9.08,9.08,0,0,1,7.9-4.2c4,0,8.9,2.4,8.9,10.3V41h-6V28.5c0-3.6-1.4-6.2-4.9-6.2a5.19,5.19,0,0,0-5,3.6,5.08,5.08,0,0,0-.3,1.7V40.8h-6V25Z"/><path class="cls-116" d="M327.6,11.6c0,3.4,3.9,5.9,7.5,3.2,2.7-3.5.2-7.5-3.2-7.5a4.27,4.27,0,0,0-4.3,4.3m.5,0c0-3,3.5-5.2,6.6-2.8,2.4,3.1.2,6.6-2.8,6.6a3.8,3.8,0,0,1-3.8-3.8"/><path class="cls-116" d="M330.7,9.6h1.6a1.55,1.55,0,0,1,.8.2.71.71,0,0,1,.3.6c0,.2,0,.3-.1.4a1.38,1.38,0,0,1-.4.3,1.48,1.48,0,0,1-.7.1h-1.4l-.1-1.6Zm0,4.5V11.9h1.2c.1,0,.2.1.3.1l.3.3c.1.2.3.4.5.7l.7,1h.8l-.9-1.4c-.2-.3-.4-.5-.5-.7a.52.52,0,0,0-.4-.2,1.88,1.88,0,0,0,1.1-.5,1.22,1.22,0,0,0,.3-.9,2.35,2.35,0,0,0-.2-.8,1.21,1.21,0,0,0-.5-.5,2.79,2.79,0,0,0-1-.1h-2.2v5h.5v.2Z"/></g></g></g></svg>