<?xml version="1.0" encoding="utf-8"?>
<!-- Generator: Adobe Illustrator 26.5.2, SVG Export Plug-In . SVG Version: 6.00 Build 0)  -->
<svg version="1.1" id="Layer_1" xmlns="http://www.w3.org/2000/svg" xmlns:xlink="http://www.w3.org/1999/xlink" x="0px" y="0px"
	 viewBox="0 0 564.85 172.31" style="enable-background:new 0 0 564.85 172.31;" xml:space="preserve">
<style type="text/css">
	.st0{fill:#0098C4;}
</style>
<path d="M217.88,137.89c-1.34,0-2.32-1.01-2.32-2.4c0-1.41,0.98-2.44,2.32-2.44c1.35,0,2.32,1.03,2.32,2.44
	C220.2,136.88,219.23,137.89,217.88,137.89 M421.28,137.89c-1.34,0-2.32-1.01-2.32-2.4c0-1.41,0.98-2.44,2.32-2.44
	s2.32,1.03,2.32,2.44C423.59,136.88,422.62,137.89,421.28,137.89 M6.37,160.97v-25.89H24.7v3.61H10.41v7.46H23.2v3.6H10.41v7.61
	h14.74v3.61H6.37z M63.5,160.97v-11.03c0-3.12-1.88-5.07-4.9-5.07c-3.38,0.11-5.65,2.69-5.65,6.42v9.68h-3.93v-11.03
	c0-3.12-1.86-5.07-4.86-5.07c-3.43,0.11-5.72,2.69-5.72,6.42v9.68h-3.89v-19.59h3.89v3.68l0.35,0.08c1.28-2.59,3.65-3.91,7.05-3.91
	c3.42,0,5.81,1.66,6.74,4.67l0.16,0.52l0.19-0.51c1.18-3.11,3.67-4.68,7.38-4.68c4.45,0,7.11,2.81,7.11,7.5v12.23H63.5z
	 M197.3,160.97v-19.59h3.93v3.79l0.35,0.08c1.29-2.58,3.54-3.97,6.53-4.02v3.74c-0.11,0-0.22-0.01-0.33-0.01
	c-3.63,0-6.21,2.25-6.55,5.74l0,10.26H197.3z M215.94,141.38h3.89v19.59h-3.89V141.38z M245.19,160.97v-11.03
	c0-3.1-1.91-5.03-4.97-5.03c-3.22,0.04-5.51,2.24-5.83,5.61l0,10.45h-3.93v-19.59h3.93v3.64l0.35,0.09
	c1.33-2.61,3.68-3.88,7.16-3.88c4.52,0,7.22,2.81,7.22,7.5v12.23H245.19z M300.81,135.08h4.04v25.89h-4.04V135.08z M330.48,160.97
	v-11.03c0-3.1-1.91-5.03-4.97-5.03c-3.22,0.04-5.51,2.24-5.83,5.61l0,10.45h-3.93v-19.59h3.93v3.64l0.35,0.09
	c1.34-2.61,3.68-3.88,7.17-3.88c4.52,0,7.22,2.81,7.22,7.5v12.23H330.48z M389.66,133.5h3.93v27.47h-3.93V133.5z M404.59,133.5h3.93
	v27.47h-3.93V133.5z M419.33,141.38h3.89v19.59h-3.89V141.38z M502.33,160.97v-11.03c0-3.1-1.91-5.03-4.97-5.03
	c-3.22,0.04-5.51,2.24-5.83,5.61l0,10.45h-3.93v-19.59h3.93v3.64l0.35,0.09c1.34-2.61,3.68-3.88,7.17-3.88
	c4.52,0,7.22,2.81,7.22,7.5v12.23H502.33z M138.1,160.97l-7.07-19.59h4.15l5.16,16.1l5.19-16.23l4.27,0.13l5.05,16.1l5.26-16.23
	l3.94,0.12l-7.12,19.6h-4.32l-5.05-15.17l-5.23,15.3L138.1,160.97z M115.15,144.57c-3.7,0-6.28,2.73-6.28,6.64
	c0,3.93,2.58,6.68,6.28,6.68c3.68,0,6.25-2.75,6.25-6.68C121.4,147.3,118.83,144.57,115.15,144.57 M115.15,161.12
	c-6.11,0-10.21-4-10.21-9.94s4.1-9.94,10.21-9.94c6.08,0,10.17,3.99,10.17,9.94C125.33,157.03,121.14,161.12,115.15,161.12
	 M179.45,144.31c-3.21,0-5.52,2.04-6.02,5.34l-0.03,0.22h11.78l-0.01-0.2C185.02,146.36,182.82,144.31,179.45,144.31 M179.52,161.12
	c-5.97,0-9.99-3.98-9.99-9.91c0-5.84,4.06-9.95,9.88-9.98c2.98,0,5.27,0.84,6.82,2.51c1.8,1.94,2.58,4.93,2.32,8.9h-15.09l0.05,0.23
	c0.69,3.17,3.13,5.14,6.35,5.14c2.15,0,4.13-0.79,5.61-2.25l2.03,2.17C185.53,160.02,182.78,161.12,179.52,161.12 M371.61,144.31
	c-3.21,0-5.52,2.04-6.02,5.34l-0.03,0.22h11.78l-0.01-0.2C377.18,146.36,374.99,144.31,371.61,144.31 M371.69,161.12
	c-5.97,0-9.99-3.98-9.99-9.91c0-5.84,4.06-9.95,9.88-9.98c2.98,0,5.27,0.84,6.82,2.51c1.8,1.93,2.58,4.93,2.32,8.9h-15.09l0.05,0.23
	c0.69,3.17,3.13,5.14,6.35,5.14c2.14,0,4.13-0.79,5.6-2.25l2.03,2.17C377.7,160.02,374.94,161.12,371.69,161.12 M469.73,144.31
	c-3.21,0-5.52,2.04-6.02,5.34l-0.03,0.22h11.78l-0.01-0.2C475.3,146.36,473.11,144.31,469.73,144.31 M469.81,161.12
	c-5.97,0-9.99-3.98-9.99-9.91c0-5.84,4.06-9.95,9.88-9.98c2.98,0,5.27,0.84,6.82,2.51c1.8,1.93,2.58,4.93,2.32,8.9h-15.09l0.05,0.23
	c0.69,3.17,3.13,5.14,6.35,5.14c2.14,0,4.13-0.79,5.6-2.25l2.03,2.17C475.82,160.02,473.06,161.12,469.81,161.12 M524.26,161.12
	c-5.79,0-9.84-4.07-9.84-9.91c0-5.88,4.05-9.98,9.84-9.98c3.4,0,6.15,1.06,7.98,3.08l-2.12,2.5c-1.45-1.42-3.36-2.16-5.53-2.16
	c-3.74,0-6.24,2.7-6.24,6.57c0,3.87,2.51,6.57,6.1,6.57c2.47,0,4.5-0.8,5.88-2.32l2.14,2.15
	C530.65,159.91,527.82,161.12,524.26,161.12 M549.33,144.31c-3.21,0-5.52,2.04-6.02,5.34l-0.03,0.22h11.78l-0.01-0.2
	C554.9,146.36,552.71,144.31,549.33,144.31 M549.41,161.12c-5.97,0-9.99-3.98-9.99-9.91c0-5.84,4.06-9.95,9.88-9.98
	c2.98,0,5.27,0.84,6.82,2.51c1.8,1.93,2.58,4.93,2.32,8.9h-15.09l0.05,0.23c0.69,3.17,3.13,5.14,6.35,5.14
	c2.14,0,4.13-0.79,5.6-2.25l2.03,2.17C555.42,160.02,552.66,161.12,549.41,161.12 M350.62,161.16c-3.37,0-5.39-2.1-5.39-5.63v-10.54
	h-2.81v-2.85h2.81v-5.48h3.89v5.48H355v2.85h-5.87v9.76c0,2,0.71,2.89,2.32,2.89c0.84,0,1.71-0.24,2.88-0.79l1.02,3.1
	C353.83,160.67,352.21,161.16,350.62,161.16 M87.83,144.46c-3.62,0-6.25,2.79-6.25,6.64c0,3.95,2.57,6.72,6.25,6.72
	s6.25-2.76,6.25-6.72C94.08,147.25,91.45,144.46,87.83,144.46 M77.66,168.25v-26.87h3.93v3.91l0.35-0.55
	c1.44-2.3,3.79-3.51,6.8-3.51c5.57,0,9.31,4.03,9.31,10.02c0,5.9-3.71,9.87-9.24,9.87c-3.05,0-5.43-1.22-6.87-3.51l-0.35-0.55v11.19
	H77.66z M266.94,144.35c-3.48,0-5.94,2.59-5.98,6.3c0.04,3.74,2.5,6.34,5.98,6.34c3.48,0,5.91-2.61,5.91-6.34
	C272.85,146.94,270.42,144.35,266.94,144.35 M266.6,168.36c-2.83,0-5.52-0.84-8.02-2.5l1.64-2.78c1.98,1.43,3.95,2.09,6.19,2.09
	c3.91,0,6.43-2.3,6.43-5.85v-3.17l-0.35,0.56c-1.33,2.15-3.56,3.29-6.43,3.29c-5.26,0-8.79-3.8-8.79-9.45
	c0-5.53,3.47-9.27,8.64-9.31h0c2.98,0,5.2,1.14,6.57,3.29l0.34,0.54v-3.68h3.89v17.82C276.74,164.77,272.76,168.36,266.6,168.36
	 M441.63,144.35c-3.48,0-5.94,2.59-5.98,6.3c0.04,3.74,2.5,6.34,5.98,6.34c3.48,0,5.91-2.61,5.91-6.34
	C447.54,146.94,445.11,144.35,441.63,144.35 M441.29,168.36c-2.83,0-5.52-0.84-8.02-2.5l1.64-2.78c1.97,1.43,3.95,2.09,6.19,2.09
	c3.91,0,6.43-2.3,6.43-5.85v-3.17l-0.35,0.56c-1.33,2.15-3.55,3.29-6.42,3.29c-5.26,0-8.79-3.8-8.79-9.45
	c0-5.53,3.47-9.27,8.64-9.31h0c2.98,0,5.2,1.14,6.57,3.29l0.34,0.54v-3.68h3.89v17.82C451.43,164.77,447.45,168.36,441.29,168.36"/>
<polygon class="st0" points="190.29,3.95 190.3,3.98 137.95,93.04 159.44,93.04 199.68,19.92 239.92,93.04 261.41,93.04 
	209.06,3.98 209.07,3.95 "/>
<polygon points="95.25,3.95 95.25,37.75 28.07,37.75 28.07,3.95 6.37,3.95 6.37,93.04 28.07,93.04 28.07,55.49 95.25,55.49 
	95.25,93.04 116.74,93.04 116.74,3.95 "/>
<rect x="282.61" y="3.95" class="st0" width="21.49" height="89.09"/>
<polygon points="335.44,3.95 335.44,93.04 426.41,93.04 426.41,76.35 357.14,76.35 357.14,3.95 "/>
<path d="M558.48,71.97V25.02c0-17.11-5.63-21.07-22.95-21.07H467.3c-17.32,0-22.95,3.96-22.95,21.07v46.95
	c0,16.9,5.43,21.07,22.95,21.07h68.23C552.85,93.04,558.48,88.87,558.48,71.97 M536.99,75.93h-71.15v-55.5h71.15V75.93z"/>
</svg>
