<svg version="1.1" id="Layer_1" xmlns="http://www.w3.org/2000/svg" xmlns:xlink="http://www.w3.org/1999/xlink" x="0px" y="0px"
	 width="100%" viewBox="0 0 2447 1511" enable-background="new 0 0 2447 1511" xml:space="preserve">
<path fill="#FFFFFF" opacity="1.000000" stroke="none" 
	d="
M0.999991,1205.000000 
	C1.000000,803.746521 1.000000,402.493042 1.000000,1.000000 
	C281.364227,1.000000 561.728516,1.000000 842.335510,1.336163 
	C840.489563,2.105221 838.415161,2.630378 836.309998,2.956847 
	C813.011841,6.569826 790.979126,13.910179 770.319092,25.302288 
	C749.840271,36.594482 733.235291,52.241112 720.315063,71.550003 
	C703.732056,96.332901 696.041870,124.106369 696.077209,153.764526 
	C696.230103,282.032043 696.683777,410.299194 696.978088,538.566589 
	C697.014648,554.495483 700.798401,569.629883 707.122009,584.021179 
	C716.812866,606.075562 730.240417,625.513977 749.241211,640.800415 
	C761.926208,651.005676 775.709351,659.155518 790.878540,665.109802 
	C807.664001,671.698364 825.026123,675.667664 842.846680,678.170410 
	C862.614563,680.946655 879.742371,675.909546 894.251465,662.222168 
	C904.828247,652.244385 910.177612,639.721313 913.378723,625.622925 
	C921.061646,591.785950 932.662354,559.361877 949.478699,528.810486 
	C963.559998,503.227875 980.507446,479.759613 1000.323730,458.502838 
	C1011.472900,446.543304 1023.890442,435.649689 1036.490601,425.183868 
	C1062.615356,403.484802 1092.271973,387.865479 1124.175415,376.396179 
	C1150.166260,367.052399 1176.966675,360.874878 1204.450439,359.264557 
	C1229.554565,357.793610 1254.710449,358.824493 1279.595947,363.871552 
	C1308.278198,369.688629 1335.892700,378.551331 1362.280151,391.129852 
	C1386.962280,402.895355 1409.670410,417.713379 1430.316284,435.729675 
	C1447.491211,450.717072 1463.146362,467.128815 1476.618286,485.456940 
	C1490.383057,504.183502 1502.040527,524.214478 1512.199341,545.196838 
	C1524.738647,571.096069 1530.927612,598.777222 1537.037354,626.566040 
	C1539.324585,636.969482 1540.602783,647.755066 1546.573242,656.988220 
	C1555.989746,671.549927 1570.826172,676.449280 1586.802734,677.821838 
	C1605.881958,679.460938 1624.685669,677.043945 1643.003052,670.972168 
	C1665.137207,663.635010 1685.786743,653.571655 1703.313110,638.030579 
	C1718.926514,624.185791 1731.252319,607.791138 1739.848267,588.586304 
	C1748.755981,568.685059 1752.951660,547.818542 1752.917236,526.203491 
	C1752.819336,464.596710 1752.200073,402.990936 1752.037109,341.384064 
	C1751.869995,278.223297 1752.040405,215.061722 1751.955688,151.900650 
	C1751.943237,142.623962 1751.771240,133.307388 1750.909790,124.080536 
	C1749.269897,106.518074 1742.981812,90.380386 1733.165771,75.900162 
	C1722.543457,60.230186 1709.645020,46.538788 1694.531250,34.920525 
	C1672.179443,17.738293 1647.041870,7.672768 1619.202515,3.934315 
	C1614.423218,3.292521 1609.731934,1.994751 1605.000000,1.000004 
	C1885.948486,1.000000 2166.896973,1.000000 2448.000000,1.000000 
	C2448.000000,459.030914 2448.000000,917.061829 2447.663330,1375.472168 
	C2443.012451,1370.873901 2438.691895,1365.902100 2434.387451,1360.916138 
	C2432.670166,1358.927002 2430.880127,1358.013794 2428.497559,1360.006592 
	C2422.741455,1364.821289 2417.049072,1369.723389 2411.121338,1374.320068 
	C2397.020264,1385.254883 2382.910400,1396.183838 2368.598877,1406.839966 
	C2345.949951,1423.703979 2321.948975,1438.485718 2296.881836,1451.430908 
	C2286.080078,1457.009155 2274.740479,1461.628052 2263.408447,1466.080078 
	C2242.667236,1474.228638 2221.251709,1479.208740 2198.741943,1478.000488 
	C2188.909912,1477.472778 2183.923340,1472.407471 2184.016602,1462.832886 
	C2184.114258,1452.853394 2188.913330,1444.404663 2194.168457,1436.612183 
	C2202.490234,1424.272339 2211.827148,1412.614014 2220.842041,1400.748901 
	C2221.753906,1399.548706 2223.329834,1398.261230 2224.716309,1398.110596 
	C2232.856201,1397.226440 2241.046143,1396.811035 2249.191162,1395.966064 
	C2260.864746,1394.755127 2272.721436,1394.253662 2284.125732,1391.746582 
	C2301.504883,1387.925903 2318.833252,1383.452026 2335.694336,1377.797485 
	C2359.978271,1369.653931 2382.977783,1358.673950 2400.403809,1338.978516 
	C2409.853027,1328.298706 2415.944336,1315.614990 2415.827393,1301.226562 
	C2415.638672,1277.971924 2399.830811,1265.478394 2378.727295,1261.195923 
	C2365.821533,1258.577026 2352.641602,1259.558594 2339.532715,1261.888672 
	C2315.445801,1266.170044 2292.757568,1274.501831 2270.764160,1284.817505 
	C2259.713379,1290.000610 2248.910889,1295.821289 2238.425537,1302.073853 
	C2226.818359,1308.995361 2215.524658,1316.485962 2204.436035,1324.218750 
	C2197.549805,1329.020996 2191.298340,1334.733643 2183.991943,1340.662354 
	C2179.827637,1314.809937 2196.741943,1299.989258 2211.218994,1283.820190 
	C2210.705566,1283.264404 2210.364014,1282.576660 2209.833740,1282.367432 
	C2200.143066,1278.547485 2190.405029,1274.847168 2180.727783,1270.994507 
	C2168.463867,1266.111816 2158.415771,1270.523438 2151.588135,1280.702271 
	C2137.200195,1302.152222 2121.179443,1322.348511 2101.811035,1339.589844 
	C2087.997070,1351.886963 2074.271973,1364.373657 2059.616455,1375.614258 
	C2038.716187,1391.644775 2017.168823,1406.853149 1995.569336,1421.942383 
	C1982.637939,1430.975952 1969.399414,1439.672485 1955.706177,1447.481323 
	C1943.943115,1454.189209 1933.000732,1462.777344 1919.168823,1465.471802 
	C1913.612793,1466.554199 1907.519165,1465.032593 1904.582031,1461.078247 
	C1901.930420,1457.508301 1902.293091,1452.547852 1906.375366,1447.230957 
	C1910.357300,1442.044800 1914.860229,1437.256592 1919.169800,1432.324463 
	C1933.089111,1416.394409 1946.975464,1400.435303 1960.971924,1384.573242 
	C1969.896240,1374.459473 1979.069946,1364.565918 1987.994019,1354.452026 
	C2001.990356,1338.589966 2015.810425,1322.572266 2029.820801,1306.722778 
	C2039.084229,1296.243042 2048.590820,1285.978516 2057.902588,1275.541138 
	C2061.068848,1271.991943 2063.973633,1268.209473 2067.437012,1264.000000 
	C2039.211060,1264.000000 2012.044800,1263.962769 1984.879272,1264.095825 
	C1983.312866,1264.103516 1981.271851,1265.096802 1980.266113,1266.307617 
	C1971.524292,1276.833374 1963.534668,1288.043823 1954.203491,1298.003174 
	C1944.281250,1308.593628 1933.407715,1318.347534 1922.470703,1327.919556 
	C1904.996826,1343.212769 1887.457642,1358.466675 1869.326294,1372.962158 
	C1853.151855,1385.893311 1836.383179,1398.124023 1819.424683,1410.019775 
	C1802.936890,1421.585327 1786.022827,1432.565918 1769.011963,1443.355835 
	C1758.160645,1450.238892 1746.966309,1456.638428 1735.585571,1462.606079 
	C1729.708130,1465.687866 1723.208984,1467.949097 1716.187866,1466.002686 
	C1710.942505,1464.548706 1707.000610,1459.252075 1709.211914,1454.465820 
	C1711.998779,1448.433594 1715.805176,1442.662598 1720.121338,1437.586548 
	C1732.669556,1422.828369 1745.690186,1408.471680 1758.528320,1393.959961 
	C1768.754517,1382.400879 1778.988770,1370.848877 1789.213013,1359.287842 
	C1801.938354,1344.898682 1814.608765,1330.460449 1827.391846,1316.122925 
	C1839.323120,1302.740845 1851.414062,1289.501343 1863.345581,1276.119507 
	C1867.930786,1270.977051 1872.270508,1265.615601 1877.021484,1260.000000 
	C1849.506592,1260.000000 1822.672607,1260.120117 1795.842163,1259.867310 
	C1791.922729,1259.830444 1789.588135,1261.460693 1787.512695,1264.049561 
	C1782.842407,1269.875488 1778.434326,1275.912231 1773.741699,1281.719482 
	C1762.065186,1296.169312 1749.788086,1310.165161 1738.688843,1325.042114 
	C1726.688354,1341.127075 1711.369019,1352.972778 1693.835571,1361.800537 
	C1681.061890,1368.232056 1667.334961,1372.770630 1654.033081,1378.153076 
	C1653.766357,1377.658813 1653.499634,1377.164429 1653.232910,1376.670166 
	C1653.816528,1375.623047 1654.280762,1374.484497 1655.001343,1373.542114 
	C1672.150269,1351.116333 1682.145874,1326.447388 1677.901245,1297.672241 
	C1676.326050,1286.994263 1672.498657,1277.318237 1663.110962,1270.427490 
	C1654.182983,1263.874390 1644.334595,1261.273193 1633.561157,1259.810303 
	C1618.142212,1257.716309 1603.012207,1259.319580 1588.192017,1262.623291 
	C1574.316895,1265.716309 1560.676270,1270.230957 1547.307617,1275.141602 
	C1526.166504,1282.907471 1506.270630,1293.296631 1487.122559,1305.243408 
	C1464.108276,1319.602295 1444.542725,1338.088989 1424.509888,1356.044800 
	C1412.606689,1366.713745 1400.950073,1377.657104 1389.086304,1388.370483 
	C1376.767944,1399.494629 1364.536621,1410.729614 1351.888428,1421.470093 
	C1340.607666,1431.049805 1329.110229,1440.434570 1317.137329,1449.118164 
	C1308.865845,1455.117188 1299.667114,1459.853149 1290.795166,1465.002563 
	C1285.887939,1467.851074 1281.875244,1464.785522 1278.631226,1461.879517 
	C1275.083618,1458.701172 1272.248535,1453.947632 1274.528076,1449.284912 
	C1277.100708,1444.022827 1280.995972,1439.303467 1284.832886,1434.786987 
	C1291.118286,1427.388306 1297.891846,1420.406860 1304.332764,1413.137207 
	C1316.519897,1399.382324 1328.597412,1385.530151 1340.760620,1371.753906 
	C1346.528442,1365.221191 1352.422852,1358.800415 1358.199951,1352.275757 
	C1370.713135,1338.143311 1383.176514,1323.966675 1395.683716,1309.828735 
	C1401.237427,1303.550903 1406.895142,1297.364990 1412.421753,1291.063599 
	C1423.881470,1277.997314 1435.223145,1264.826904 1446.731445,1251.803711 
	C1455.773071,1241.572144 1465.044312,1231.543579 1474.119751,1221.341431 
	C1486.776367,1207.113770 1499.329346,1192.793945 1511.959473,1178.542725 
	C1517.739136,1172.020996 1523.650757,1165.615967 1529.407471,1159.074219 
	C1541.108521,1145.777222 1552.707397,1132.390137 1564.422974,1119.106079 
	C1570.627197,1112.071289 1577.065430,1105.242920 1583.261353,1098.201050 
	C1594.631714,1085.278076 1605.834229,1072.206909 1617.233276,1059.309448 
	C1626.385864,1048.953613 1635.812012,1038.839600 1644.961914,1028.481567 
	C1658.967285,1012.627197 1672.779053,996.601746 1686.789429,980.751770 
	C1696.052856,970.272034 1705.549438,959.998779 1714.878662,949.576599 
	C1717.740112,946.379761 1720.393311,942.996277 1723.263916,939.551880 
	C1722.429199,939.236145 1722.145264,939.034729 1721.861084,939.034546 
	C1693.861572,939.013184 1665.861816,938.979370 1637.862671,939.081299 
	C1636.451294,939.086426 1634.665649,939.924011 1633.699707,940.970032 
	C1629.257935,945.780762 1625.078613,950.832397 1620.744141,955.743652 
	C1610.421265,967.439697 1600.066895,979.108032 1589.719360,990.782349 
	C1576.647217,1005.530945 1563.565308,1020.270874 1550.494995,1035.021118 
	C1540.259521,1046.572144 1530.040039,1058.137085 1519.805298,1069.688721 
	C1506.735840,1084.439697 1493.663452,1099.188110 1480.582520,1113.928711 
	C1470.007568,1125.845459 1459.415039,1137.746582 1448.835693,1149.659302 
	C1435.638794,1164.519165 1422.437866,1179.375610 1409.256470,1194.249268 
	C1399.130493,1205.675171 1389.043701,1217.135620 1378.918701,1228.562500 
	C1365.738525,1243.437378 1352.529907,1258.287231 1339.348633,1273.161255 
	C1329.223022,1284.587280 1319.164062,1296.072632 1308.997681,1307.462036 
	C1294.433594,1323.777954 1279.781860,1340.015747 1265.205688,1356.321167 
	C1261.718994,1360.221436 1258.373535,1364.248657 1254.980957,1368.232666 
	C1249.382568,1374.807129 1244.532349,1382.246948 1238.064697,1387.807739 
	C1221.775391,1401.812988 1205.063965,1415.374390 1187.949463,1428.359375 
	C1170.964111,1441.246338 1153.462402,1453.479980 1135.840698,1465.491821 
	C1123.182495,1474.120483 1109.738281,1481.372681 1093.552124,1479.972290 
	C1083.496704,1479.102295 1078.912964,1473.373047 1081.780518,1463.582397 
	C1085.190796,1451.939209 1093.809692,1444.076050 1101.242798,1435.395630 
	C1110.553589,1424.522095 1120.495361,1414.191528 1129.974365,1403.458496 
	C1143.647461,1387.976562 1157.120361,1372.317993 1170.734131,1356.783325 
	C1180.796265,1345.301270 1190.899170,1333.854370 1201.069092,1322.467896 
	C1215.748779,1306.032104 1230.522949,1289.681030 1245.211548,1273.253174 
	C1247.645386,1270.531128 1249.848511,1267.602539 1252.405151,1264.466797 
	C1251.353882,1264.215820 1250.916992,1264.020752 1250.479980,1264.020386 
	C1232.980103,1264.002686 1215.473511,1263.723633 1197.983887,1264.146118 
	C1191.561523,1264.301270 1185.373047,1266.632446 1180.383423,1271.136230 
	C1168.894409,1281.506470 1155.948486,1289.859619 1142.000732,1296.247314 
	C1129.662964,1301.897827 1116.612305,1306.018433 1103.786621,1310.561035 
	C1100.099854,1311.866943 1096.101929,1312.294434 1091.059692,1313.380371 
	C1093.022827,1310.550171 1094.003174,1309.087524 1095.032593,1307.660522 
	C1102.703003,1297.026611 1107.597900,1285.302490 1109.379028,1272.252319 
	C1112.251465,1251.206177 1101.054688,1234.124756 1076.927856,1238.281494 
	C1060.848633,1241.051880 1049.024170,1251.675415 1039.021362,1264.093872 
	C1029.270142,1276.199951 1022.419189,1289.757935 1020.351685,1305.320190 
	C1018.431091,1319.776611 1023.083496,1335.995239 1041.563110,1339.668823 
	C1040.665894,1341.024170 1040.092529,1342.355103 1039.128540,1343.278320 
	C1017.600037,1363.896240 996.320801,1384.787964 974.357117,1404.932983 
	C960.772461,1417.392944 946.342651,1428.965454 931.918945,1440.468018 
	C912.197571,1456.195068 891.147888,1469.974854 868.331543,1480.842896 
	C862.873596,1483.442627 856.983643,1485.263184 851.137817,1486.885620 
	C844.948975,1488.603516 841.190674,1484.453735 843.031677,1478.077393 
	C844.357361,1473.485840 845.657104,1468.728394 847.975952,1464.612671 
	C854.365295,1453.272827 861.144104,1442.144165 868.021790,1431.089355 
	C883.829834,1405.680664 900.501099,1380.852661 919.718140,1357.863525 
	C932.112305,1343.036621 944.747131,1328.400635 957.606140,1313.975098 
	C971.968811,1297.862427 986.709900,1282.087158 1001.268066,1266.148315 
	C1001.643250,1265.737427 1001.807495,1265.133911 1002.180298,1264.405029 
	C1001.346436,1264.211060 1000.908386,1264.020264 1000.470215,1264.019897 
	C979.303711,1264.002808 958.137085,1263.974243 936.971130,1264.079102 
	C935.856873,1264.084595 934.493591,1265.001465 933.677734,1265.890137 
	C927.787354,1272.306519 922.047058,1278.860352 916.166687,1285.285889 
	C914.700012,1286.888550 912.895386,1288.182007 912.171753,1288.811890 
	C907.282837,1282.494385 903.626709,1275.981445 898.333557,1271.332153 
	C889.470520,1263.547119 878.029602,1260.837769 866.547180,1260.146240 
	C849.642578,1259.128174 832.725769,1259.998291 816.379333,1265.002075 
	C803.216675,1269.031250 790.137756,1273.377319 777.182190,1278.029663 
	C757.440674,1285.118896 739.076721,1295.037720 721.332764,1306.157715 
	C692.141113,1324.451782 668.266907,1349.106934 642.754028,1371.795288 
	C631.183044,1382.085205 620.045776,1392.867065 608.373413,1403.037476 
	C593.461304,1416.030884 578.541565,1429.058228 562.986572,1441.256714 
	C552.102905,1449.791626 540.329590,1457.254517 528.538208,1464.522095 
	C525.830261,1466.191284 521.028198,1466.194824 517.862183,1465.070801 
	C507.568848,1461.416504 506.057068,1450.039062 514.010437,1441.443115 
	C523.170227,1431.543335 532.127258,1421.454468 541.088684,1411.373169 
	C553.739929,1397.140747 566.298645,1382.826050 578.928833,1368.574829 
	C584.708801,1362.053223 590.618713,1355.646362 596.375488,1349.104614 
	C608.076782,1335.807861 619.686279,1322.430176 631.389648,1309.135010 
	C637.257690,1302.468994 643.286926,1295.945190 649.176086,1289.297363 
	C661.692871,1275.167969 674.198669,1261.028564 686.642395,1246.834961 
	C692.683960,1239.943970 698.496643,1232.851685 704.564575,1225.984619 
	C708.267639,1221.793823 711.901367,1218.622925 718.681030,1218.752319 
	C748.669922,1219.324829 778.676086,1219.037720 808.675293,1218.902344 
	C810.400818,1218.894531 812.591797,1217.913940 813.767883,1216.645630 
	C823.615479,1206.026245 833.303589,1195.258179 842.977173,1184.478882 
	C846.152405,1180.940552 849.143677,1177.237183 852.882019,1172.827148 
	C818.554077,1172.827148 785.490967,1172.827148 752.036865,1172.827148 
	C756.303711,1168.079956 760.229553,1163.707031 764.161194,1159.339233 
	C770.214111,1152.614746 776.325012,1145.941528 782.314575,1139.161133 
	C794.371277,1125.512573 806.339539,1111.786011 818.391174,1098.132935 
	C824.268311,1091.474976 830.295410,1084.949097 836.176086,1078.294067 
	C848.344971,1064.523071 860.438904,1050.685913 872.608887,1036.915894 
	C878.489990,1030.261597 884.535339,1023.752075 890.397034,1017.080994 
	C901.868774,1004.025146 913.202148,990.847412 924.710449,977.823914 
	C933.751892,967.592102 943.004089,957.546631 952.085327,947.349548 
	C954.264771,944.902283 956.137756,942.182251 958.607727,939.000122 
	C929.342896,939.000122 901.032532,938.985046 872.722351,939.053284 
	C871.542175,939.056152 870.030518,939.511108 869.243835,940.314331 
	C866.259521,943.361450 863.494934,946.625427 860.675415,949.832336 
	C848.650879,963.509216 836.659485,977.215332 824.607910,990.868347 
	C818.730713,997.526489 812.703369,1004.051941 806.822632,1010.706970 
	C794.654053,1024.478149 782.560486,1038.315918 770.390686,1052.086060 
	C764.509583,1058.740479 758.463562,1065.249390 752.601685,1071.920410 
	C741.129639,1084.976074 729.772095,1098.132446 718.292175,1111.181152 
	C712.206421,1118.098511 705.888184,1124.811523 699.807434,1131.733276 
	C688.556885,1144.539917 677.496155,1157.515015 666.097534,1170.187134 
	C664.618652,1171.831299 661.607483,1172.883301 659.304199,1172.886719 
	C567.471680,1173.019897 475.639008,1173.000000 383.806305,1173.000000 
	C382.373077,1173.000000 380.939850,1173.000000 378.630127,1173.000000 
	C386.131409,1164.405640 393.061127,1156.419922 400.041962,1148.479126 
	C410.012360,1137.137573 420.014099,1125.823608 430.013611,1114.507690 
	C442.843658,1099.988647 455.683289,1085.478149 468.521759,1070.966553 
	C478.748108,1059.407471 488.982483,1047.855469 499.206665,1036.294556 
	C511.932007,1021.905212 524.608704,1007.472473 537.384399,993.128052 
	C549.087280,979.988159 560.932434,966.974915 572.633972,953.833801 
	C576.674622,949.296021 580.471741,944.541504 584.576477,939.652039 
	C583.434143,939.231506 583.146057,939.032715 582.857788,939.032532 
	C555.191589,939.011963 527.525146,938.970947 499.859558,939.095276 
	C498.318085,939.102173 496.398315,940.123901 495.307861,941.286194 
	C488.891815,948.125244 482.647949,955.126831 476.388855,962.112000 
	C471.128235,967.983032 465.908417,973.890930 460.701202,979.809448 
	C448.671753,993.481934 436.679810,1007.187561 424.634277,1020.845886 
	C418.980286,1027.256958 413.181946,1033.541016 407.546997,1039.968628 
	C396.199463,1052.912476 384.977142,1065.966553 373.592133,1078.877197 
	C364.781281,1088.868774 355.756714,1098.671753 346.907471,1108.629761 
	C334.258209,1122.864014 321.689911,1137.170166 309.071289,1151.431763 
	C303.627869,1157.583862 297.698090,1163.373901 292.866058,1169.970581 
	C290.405426,1173.329834 288.012299,1174.049561 284.358826,1174.046753 
	C203.359436,1173.985596 122.359955,1174.033569 41.360561,1173.973022 
	C24.114153,1173.960083 9.804211,1184.488159 3.372567,1200.126099 
	C2.686641,1201.793823 1.795782,1203.377441 0.999991,1205.000000 
z"/>
<path fill="#000000" opacity="1.000000" stroke="none" 
	d="
M0.999991,1205.468628 
	C1.795782,1203.377441 2.686641,1201.793823 3.372567,1200.126099 
	C9.804211,1184.488159 24.114153,1173.960083 41.360561,1173.973022 
	C122.359955,1174.033569 203.359436,1173.985596 284.358826,1174.046753 
	C288.012299,1174.049561 290.405426,1173.329834 292.866058,1169.970581 
	C297.698090,1163.373901 303.627869,1157.583862 309.071289,1151.431763 
	C321.689911,1137.170166 334.258209,1122.864014 346.907471,1108.629761 
	C355.756714,1098.671753 364.781281,1088.868774 373.592133,1078.877197 
	C384.977142,1065.966553 396.199463,1052.912476 407.546997,1039.968628 
	C413.181946,1033.541016 418.980286,1027.256958 424.634277,1020.845886 
	C436.679810,1007.187561 448.671753,993.481934 460.701202,979.809448 
	C465.908417,973.890930 471.128235,967.983032 476.388855,962.112000 
	C482.647949,955.126831 488.891815,948.125244 495.307861,941.286194 
	C496.398315,940.123901 498.318085,939.102173 499.859558,939.095276 
	C527.525146,938.970947 555.191589,939.011963 582.857788,939.032532 
	C583.146057,939.032715 583.434143,939.231506 584.576477,939.652039 
	C580.471741,944.541504 576.674622,949.296021 572.633972,953.833801 
	C560.932434,966.974915 549.087280,979.988159 537.384399,993.128052 
	C524.608704,1007.472473 511.932007,1021.905212 499.206665,1036.294556 
	C488.982483,1047.855469 478.748108,1059.407471 468.521759,1070.966553 
	C455.683289,1085.478149 442.843658,1099.988647 430.013611,1114.507690 
	C420.014099,1125.823608 410.012360,1137.137573 400.041962,1148.479126 
	C393.061127,1156.419922 386.131409,1164.405640 378.630127,1173.000000 
	C380.939850,1173.000000 382.373077,1173.000000 383.806305,1173.000000 
	C475.639008,1173.000000 567.471680,1173.019897 659.304199,1172.886719 
	C661.607483,1172.883301 664.618652,1171.831299 666.097534,1170.187134 
	C677.496155,1157.515015 688.556885,1144.539917 699.807434,1131.733276 
	C705.888184,1124.811523 712.206421,1118.098511 718.292175,1111.181152 
	C729.772095,1098.132446 741.129639,1084.976074 752.601685,1071.920410 
	C758.463562,1065.249390 764.509583,1058.740479 770.390686,1052.086060 
	C782.560486,1038.315918 794.654053,1024.478149 806.822632,1010.706970 
	C812.703369,1004.051941 818.730713,997.526489 824.607910,990.868347 
	C836.659485,977.215332 848.650879,963.509216 860.675415,949.832336 
	C863.494934,946.625427 866.259521,943.361450 869.243835,940.314331 
	C870.030518,939.511108 871.542175,939.056152 872.722351,939.053284 
	C901.032532,938.985046 929.342896,939.000122 958.607727,939.000122 
	C956.137756,942.182251 954.264771,944.902283 952.085327,947.349548 
	C943.004089,957.546631 933.751892,967.592102 924.710449,977.823914 
	C913.202148,990.847412 901.868774,1004.025146 890.397034,1017.080994 
	C884.535339,1023.752075 878.489990,1030.261597 872.608887,1036.915894 
	C860.438904,1050.685913 848.344971,1064.523071 836.176086,1078.294067 
	C830.295410,1084.949097 824.268311,1091.474976 818.391174,1098.132935 
	C806.339539,1111.786011 794.371277,1125.512573 782.314575,1139.161133 
	C776.325012,1145.941528 770.214111,1152.614746 764.161194,1159.339233 
	C760.229553,1163.707031 756.303711,1168.079956 752.036865,1172.827148 
	C785.490967,1172.827148 818.554077,1172.827148 852.882019,1172.827148 
	C849.143677,1177.237183 846.152405,1180.940552 842.977173,1184.478882 
	C833.303589,1195.258179 823.615479,1206.026245 813.767883,1216.645630 
	C812.591797,1217.913940 810.400818,1218.894531 808.675293,1218.902344 
	C778.676086,1219.037720 748.669922,1219.324829 718.681030,1218.752319 
	C711.901367,1218.622925 708.267639,1221.793823 704.564575,1225.984619 
	C698.496643,1232.851685 692.683960,1239.943970 686.642395,1246.834961 
	C674.198669,1261.028564 661.692871,1275.167969 649.176086,1289.297363 
	C643.286926,1295.945190 637.257690,1302.468994 631.389648,1309.135010 
	C619.686279,1322.430176 608.076782,1335.807861 596.375488,1349.104614 
	C590.618713,1355.646362 584.708801,1362.053223 578.928833,1368.574829 
	C566.298645,1382.826050 553.739929,1397.140747 541.088684,1411.373169 
	C532.127258,1421.454468 523.170227,1431.543335 514.010437,1441.443115 
	C506.057068,1450.039062 507.568848,1461.416504 517.862183,1465.070801 
	C521.028198,1466.194824 525.830261,1466.191284 528.538208,1464.522095 
	C540.329590,1457.254517 552.102905,1449.791626 562.986572,1441.256714 
	C578.541565,1429.058228 593.461304,1416.030884 608.373413,1403.037476 
	C620.045776,1392.867065 631.183044,1382.085205 642.754028,1371.795288 
	C668.266907,1349.106934 692.141113,1324.451782 721.332764,1306.157715 
	C739.076721,1295.037720 757.440674,1285.118896 777.182190,1278.029663 
	C790.137756,1273.377319 803.216675,1269.031250 816.379333,1265.002075 
	C832.725769,1259.998291 849.642578,1259.128174 866.547180,1260.146240 
	C878.029602,1260.837769 889.470520,1263.547119 898.333557,1271.332153 
	C903.626709,1275.981445 907.282837,1282.494385 912.171753,1288.811890 
	C912.895386,1288.182007 914.700012,1286.888550 916.166687,1285.285889 
	C922.047058,1278.860352 927.787354,1272.306519 933.677734,1265.890137 
	C934.493591,1265.001465 935.856873,1264.084595 936.971130,1264.079102 
	C958.137085,1263.974243 979.303711,1264.002808 1000.470215,1264.019897 
	C1000.908386,1264.020264 1001.346436,1264.211060 1002.180298,1264.405029 
	C1001.807495,1265.133911 1001.643250,1265.737427 1001.268066,1266.148315 
	C986.709900,1282.087158 971.968811,1297.862427 957.606140,1313.975098 
	C944.747131,1328.400635 932.112305,1343.036621 919.718140,1357.863525 
	C900.501099,1380.852661 883.829834,1405.680664 868.021790,1431.089355 
	C861.144104,1442.144165 854.365295,1453.272827 847.975952,1464.612671 
	C845.657104,1468.728394 844.357361,1473.485840 843.031677,1478.077393 
	C841.190674,1484.453735 844.948975,1488.603516 851.137817,1486.885620 
	C856.983643,1485.263184 862.873596,1483.442627 868.331543,1480.842896 
	C891.147888,1469.974854 912.197571,1456.195068 931.918945,1440.468018 
	C946.342651,1428.965454 960.772461,1417.392944 974.357117,1404.932983 
	C996.320801,1384.787964 1017.600037,1363.896240 1039.128540,1343.278320 
	C1040.092529,1342.355103 1040.665894,1341.024170 1041.563110,1339.668823 
	C1023.083496,1335.995239 1018.431091,1319.776611 1020.351685,1305.320190 
	C1022.419189,1289.757935 1029.270142,1276.199951 1039.021362,1264.093872 
	C1049.024170,1251.675415 1060.848633,1241.051880 1076.927856,1238.281494 
	C1101.054688,1234.124756 1112.251465,1251.206177 1109.379028,1272.252319 
	C1107.597900,1285.302490 1102.703003,1297.026611 1095.032593,1307.660522 
	C1094.003174,1309.087524 1093.022827,1310.550171 1091.059692,1313.380371 
	C1096.101929,1312.294434 1100.099854,1311.866943 1103.786621,1310.561035 
	C1116.612305,1306.018433 1129.662964,1301.897827 1142.000732,1296.247314 
	C1155.948486,1289.859619 1168.894409,1281.506470 1180.383423,1271.136230 
	C1185.373047,1266.632446 1191.561523,1264.301270 1197.983887,1264.146118 
	C1215.473511,1263.723633 1232.980103,1264.002686 1250.479980,1264.020386 
	C1250.916992,1264.020752 1251.353882,1264.215820 1252.405151,1264.466797 
	C1249.848511,1267.602539 1247.645386,1270.531128 1245.211548,1273.253174 
	C1230.522949,1289.681030 1215.748779,1306.032104 1201.069092,1322.467896 
	C1190.899170,1333.854370 1180.796265,1345.301270 1170.734131,1356.783325 
	C1157.120361,1372.317993 1143.647461,1387.976562 1129.974365,1403.458496 
	C1120.495361,1414.191528 1110.553589,1424.522095 1101.242798,1435.395630 
	C1093.809692,1444.076050 1085.190796,1451.939209 1081.780518,1463.582397 
	C1078.912964,1473.373047 1083.496704,1479.102295 1093.552124,1479.972290 
	C1109.738281,1481.372681 1123.182495,1474.120483 1135.840698,1465.491821 
	C1153.462402,1453.479980 1170.964111,1441.246338 1187.949463,1428.359375 
	C1205.063965,1415.374390 1221.775391,1401.812988 1238.064697,1387.807739 
	C1244.532349,1382.246948 1249.382568,1374.807129 1254.980957,1368.232666 
	C1258.373535,1364.248657 1261.718994,1360.221436 1265.205688,1356.321167 
	C1279.781860,1340.015747 1294.433594,1323.777954 1308.997681,1307.462036 
	C1319.164062,1296.072632 1329.223022,1284.587280 1339.348633,1273.161255 
	C1352.529907,1258.287231 1365.738525,1243.437378 1378.918701,1228.562500 
	C1389.043701,1217.135620 1399.130493,1205.675171 1409.256470,1194.249268 
	C1422.437866,1179.375610 1435.638794,1164.519165 1448.835693,1149.659302 
	C1459.415039,1137.746582 1470.007568,1125.845459 1480.582520,1113.928711 
	C1493.663452,1099.188110 1506.735840,1084.439697 1519.805298,1069.688721 
	C1530.040039,1058.137085 1540.259521,1046.572144 1550.494995,1035.021118 
	C1563.565308,1020.270874 1576.647217,1005.530945 1589.719360,990.782349 
	C1600.066895,979.108032 1610.421265,967.439697 1620.744141,955.743652 
	C1625.078613,950.832397 1629.257935,945.780762 1633.699707,940.970032 
	C1634.665649,939.924011 1636.451294,939.086426 1637.862671,939.081299 
	C1665.861816,938.979370 1693.861572,939.013184 1721.861084,939.034546 
	C1722.145264,939.034729 1722.429199,939.236145 1723.263916,939.551880 
	C1720.393311,942.996277 1717.740112,946.379761 1714.878662,949.576599 
	C1705.549438,959.998779 1696.052856,970.272034 1686.789429,980.751770 
	C1672.779053,996.601746 1658.967285,1012.627197 1644.961914,1028.481567 
	C1635.812012,1038.839600 1626.385864,1048.953613 1617.233276,1059.309448 
	C1605.834229,1072.206909 1594.631714,1085.278076 1583.261353,1098.201050 
	C1577.065430,1105.242920 1570.627197,1112.071289 1564.422974,1119.106079 
	C1552.707397,1132.390137 1541.108521,1145.777222 1529.407471,1159.074219 
	C1523.650757,1165.615967 1517.739136,1172.020996 1511.959473,1178.542725 
	C1499.329346,1192.793945 1486.776367,1207.113770 1474.119751,1221.341431 
	C1465.044312,1231.543579 1455.773071,1241.572144 1446.731445,1251.803711 
	C1435.223145,1264.826904 1423.881470,1277.997314 1412.421753,1291.063599 
	C1406.895142,1297.364990 1401.237427,1303.550903 1395.683716,1309.828735 
	C1383.176514,1323.966675 1370.713135,1338.143311 1358.199951,1352.275757 
	C1352.422852,1358.800415 1346.528442,1365.221191 1340.760620,1371.753906 
	C1328.597412,1385.530151 1316.519897,1399.382324 1304.332764,1413.137207 
	C1297.891846,1420.406860 1291.118286,1427.388306 1284.832886,1434.786987 
	C1280.995972,1439.303467 1277.100708,1444.022827 1274.528076,1449.284912 
	C1272.248535,1453.947632 1275.083618,1458.701172 1278.631226,1461.879517 
	C1281.875244,1464.785522 1285.887939,1467.851074 1290.795166,1465.002563 
	C1299.667114,1459.853149 1308.865845,1455.117188 1317.137329,1449.118164 
	C1329.110229,1440.434570 1340.607666,1431.049805 1351.888428,1421.470093 
	C1364.536621,1410.729614 1376.767944,1399.494629 1389.086304,1388.370483 
	C1400.950073,1377.657104 1412.606689,1366.713745 1424.509888,1356.044800 
	C1444.542725,1338.088989 1464.108276,1319.602295 1487.122559,1305.243408 
	C1506.270630,1293.296631 1526.166504,1282.907471 1547.307617,1275.141602 
	C1560.676270,1270.230957 1574.316895,1265.716309 1588.192017,1262.623291 
	C1603.012207,1259.319580 1618.142212,1257.716309 1633.561157,1259.810303 
	C1644.334595,1261.273193 1654.182983,1263.874390 1663.110962,1270.427490 
	C1672.498657,1277.318237 1676.326050,1286.994263 1677.901245,1297.672241 
	C1682.145874,1326.447388 1672.150269,1351.116333 1655.001343,1373.542114 
	C1654.280762,1374.484497 1653.816528,1375.623047 1653.232910,1376.670166 
	C1653.499634,1377.164429 1653.766357,1377.658813 1654.033081,1378.153076 
	C1667.334961,1372.770630 1681.061890,1368.232056 1693.835571,1361.800537 
	C1711.369019,1352.972778 1726.688354,1341.127075 1738.688843,1325.042114 
	C1749.788086,1310.165161 1762.065186,1296.169312 1773.741699,1281.719482 
	C1778.434326,1275.912231 1782.842407,1269.875488 1787.512695,1264.049561 
	C1789.588135,1261.460693 1791.922729,1259.830444 1795.842163,1259.867310 
	C1822.672607,1260.120117 1849.506592,1260.000000 1877.021484,1260.000000 
	C1872.270508,1265.615601 1867.930786,1270.977051 1863.345581,1276.119507 
	C1851.414062,1289.501343 1839.323120,1302.740845 1827.391846,1316.122925 
	C1814.608765,1330.460449 1801.938354,1344.898682 1789.213013,1359.287842 
	C1778.988770,1370.848877 1768.754517,1382.400879 1758.528320,1393.959961 
	C1745.690186,1408.471680 1732.669556,1422.828369 1720.121338,1437.586548 
	C1715.805176,1442.662598 1711.998779,1448.433594 1709.211914,1454.465820 
	C1707.000610,1459.252075 1710.942505,1464.548706 1716.187866,1466.002686 
	C1723.208984,1467.949097 1729.708130,1465.687866 1735.585571,1462.606079 
	C1746.966309,1456.638428 1758.160645,1450.238892 1769.011963,1443.355835 
	C1786.022827,1432.565918 1802.936890,1421.585327 1819.424683,1410.019775 
	C1836.383179,1398.124023 1853.151855,1385.893311 1869.326294,1372.962158 
	C1887.457642,1358.466675 1904.996826,1343.212769 1922.470703,1327.919556 
	C1933.407715,1318.347534 1944.281250,1308.593628 1954.203491,1298.003174 
	C1963.534668,1288.043823 1971.524292,1276.833374 1980.266113,1266.307617 
	C1981.271851,1265.096802 1983.312866,1264.103516 1984.879272,1264.095825 
	C2012.044800,1263.962769 2039.211060,1264.000000 2067.437012,1264.000000 
	C2063.973633,1268.209473 2061.068848,1271.991943 2057.902588,1275.541138 
	C2048.590820,1285.978516 2039.084229,1296.243042 2029.820801,1306.722778 
	C2015.810425,1322.572266 2001.990356,1338.589966 1987.994019,1354.452026 
	C1979.069946,1364.565918 1969.896240,1374.459473 1960.971924,1384.573242 
	C1946.975464,1400.435303 1933.089111,1416.394409 1919.169800,1432.324463 
	C1914.860229,1437.256592 1910.357300,1442.044800 1906.375366,1447.230957 
	C1902.293091,1452.547852 1901.930420,1457.508301 1904.582031,1461.078247 
	C1907.519165,1465.032593 1913.612793,1466.554199 1919.168823,1465.471802 
	C1933.000732,1462.777344 1943.943115,1454.189209 1955.706177,1447.481323 
	C1969.399414,1439.672485 1982.637939,1430.975952 1995.569336,1421.942383 
	C2017.168823,1406.853149 2038.716187,1391.644775 2059.616455,1375.614258 
	C2074.271973,1364.373657 2087.997070,1351.886963 2101.811035,1339.589844 
	C2121.179443,1322.348511 2137.200195,1302.152222 2151.588135,1280.702271 
	C2158.415771,1270.523438 2168.463867,1266.111816 2180.727783,1270.994507 
	C2190.405029,1274.847168 2200.143066,1278.547485 2209.833740,1282.367432 
	C2210.364014,1282.576660 2210.705566,1283.264404 2211.218994,1283.820190 
	C2196.741943,1299.989258 2179.827637,1314.809937 2183.991943,1340.662354 
	C2191.298340,1334.733643 2197.549805,1329.020996 2204.436035,1324.218750 
	C2215.524658,1316.485962 2226.818359,1308.995361 2238.425537,1302.073853 
	C2248.910889,1295.821289 2259.713379,1290.000610 2270.764160,1284.817505 
	C2292.757568,1274.501831 2315.445801,1266.170044 2339.532715,1261.888672 
	C2352.641602,1259.558594 2365.821533,1258.577026 2378.727295,1261.195923 
	C2399.830811,1265.478394 2415.638672,1277.971924 2415.827393,1301.226562 
	C2415.944336,1315.614990 2409.853027,1328.298706 2400.403809,1338.978516 
	C2382.977783,1358.673950 2359.978271,1369.653931 2335.694336,1377.797485 
	C2318.833252,1383.452026 2301.504883,1387.925903 2284.125732,1391.746582 
	C2272.721436,1394.253662 2260.864746,1394.755127 2249.191162,1395.966064 
	C2241.046143,1396.811035 2232.856201,1397.226440 2224.716309,1398.110596 
	C2223.329834,1398.261230 2221.753906,1399.548706 2220.842041,1400.748901 
	C2211.827148,1412.614014 2202.490234,1424.272339 2194.168457,1436.612183 
	C2188.913330,1444.404663 2184.114258,1452.853394 2184.016602,1462.832886 
	C2183.923340,1472.407471 2188.909912,1477.472778 2198.741943,1478.000488 
	C2221.251709,1479.208740 2242.667236,1474.228638 2263.408447,1466.080078 
	C2274.740479,1461.628052 2286.080078,1457.009155 2296.881836,1451.430908 
	C2321.948975,1438.485718 2345.949951,1423.703979 2368.598877,1406.839966 
	C2382.910400,1396.183838 2397.020264,1385.254883 2411.121338,1374.320068 
	C2417.049072,1369.723389 2422.741455,1364.821289 2428.497559,1360.006592 
	C2430.880127,1358.013794 2432.670166,1358.927002 2434.387451,1360.916138 
	C2438.691895,1365.902100 2443.012451,1370.873901 2447.663330,1375.925781 
	C2448.000000,1376.444458 2448.000000,1376.888916 2447.668457,1377.736816 
	C2433.689941,1390.798462 2420.300537,1403.750732 2406.320068,1416.029419 
	C2393.355957,1427.415161 2379.998779,1438.387207 2366.390869,1448.998047 
	C2341.325195,1468.542847 2314.823486,1485.847412 2285.016602,1497.421265 
	C2271.556641,1502.647583 2257.899414,1507.380249 2243.390869,1509.070801 
	C2237.888184,1509.711914 2232.461426,1511.004395 2227.000000,1512.000000 
	C2215.645752,1512.000000 2204.291748,1512.000000 2192.328857,1511.611572 
	C2188.417725,1510.487915 2185.091553,1509.845459 2181.816895,1509.001587 
	C2164.177246,1504.456299 2152.509766,1493.238892 2146.027344,1476.471069 
	C2140.265625,1461.567383 2138.863281,1445.980835 2140.113037,1430.218872 
	C2140.801514,1421.534668 2141.965088,1412.769653 2144.110596,1404.345703 
	C2147.770996,1389.974243 2155.604492,1377.455078 2163.351074,1365.909546 
	C2157.620605,1360.505493 2152.208984,1355.402222 2146.654541,1350.164062 
	C2146.583740,1350.209717 2146.131104,1350.409302 2145.795654,1350.730835 
	C2129.282471,1366.555908 2112.990479,1382.619019 2096.206543,1398.150879 
	C2083.700439,1409.724243 2070.814209,1420.923218 2057.629395,1431.717407 
	C2044.447510,1442.509277 2031.019653,1453.068115 2017.092896,1462.866943 
	C1998.414551,1476.009277 1979.030518,1488.169800 1957.820435,1496.919800 
	C1947.629150,1501.124268 1937.111694,1504.601074 1926.583252,1507.901611 
	C1920.553101,1509.791748 1914.204956,1510.667480 1908.000000,1512.000000 
	C1900.645752,1512.000000 1893.291504,1512.000000 1885.339844,1511.620605 
	C1872.983154,1509.390137 1863.105225,1504.803589 1855.817749,1494.615967 
	C1846.294312,1481.302734 1846.823120,1466.867310 1849.530273,1452.078735 
	C1850.753418,1445.396851 1853.142090,1438.928345 1855.108643,1431.986694 
	C1853.706665,1432.725830 1852.680786,1433.183716 1851.739136,1433.775635 
	C1835.693970,1443.857300 1819.720459,1454.054565 1803.603638,1464.019775 
	C1789.938721,1472.469116 1776.328003,1481.046021 1762.288818,1488.837280 
	C1750.271729,1495.506348 1737.859131,1501.548950 1725.266113,1507.055908 
	C1719.270142,1509.678223 1712.447998,1510.411255 1706.000000,1512.000000 
	C1699.312378,1512.000000 1692.624634,1512.000000 1685.345947,1511.625854 
	C1668.054321,1508.874390 1653.707764,1490.343628 1652.998291,1472.159790 
	C1652.586792,1461.613037 1654.109619,1451.207397 1658.050415,1441.567505 
	C1663.304688,1428.715088 1669.750000,1416.349487 1675.486572,1404.192505 
	C1667.703125,1405.522583 1658.845215,1407.177490 1649.938477,1408.504395 
	C1644.768066,1409.274658 1639.229248,1410.771606 1634.386353,1409.650879 
	C1629.428345,1408.503662 1627.620483,1411.053711 1624.938965,1413.526489 
	C1608.454224,1428.727783 1592.559326,1444.652466 1575.255371,1458.859253 
	C1555.826172,1474.810547 1534.664917,1488.457397 1511.294312,1498.274658 
	C1498.206177,1503.772705 1484.861694,1508.321289 1470.674561,1510.021240 
	C1466.102905,1510.569092 1461.557495,1511.334229 1457.000000,1512.000000 
	C1451.645020,1512.000000 1446.290161,1512.000000 1440.358643,1511.637207 
	C1438.571655,1510.845581 1437.380127,1510.351318 1436.148193,1509.997803 
	C1417.310181,1504.593018 1402.333130,1494.014526 1394.590088,1475.706299 
	C1390.598633,1466.268677 1389.097534,1455.777832 1386.493774,1445.849121 
	C1386.522705,1445.832886 1385.539917,1446.332275 1384.608887,1446.914429 
	C1372.881348,1454.248413 1361.260620,1461.759521 1349.412720,1468.893799 
	C1335.794556,1477.094116 1322.006470,1485.014771 1308.238403,1492.963257 
	C1294.724365,1500.764893 1280.932251,1507.897339 1265.156006,1510.044067 
	C1261.417847,1510.552734 1257.717651,1511.340576 1254.000000,1512.000000 
	C1249.643066,1512.000000 1245.286255,1512.000000 1240.356934,1511.638306 
	C1210.415039,1501.660034 1204.178833,1478.105103 1203.597900,1450.752075 
	C1202.267334,1451.091187 1200.877686,1451.120850 1199.861816,1451.751953 
	C1174.067627,1467.778687 1148.349365,1483.927856 1122.531006,1499.915405 
	C1113.249268,1505.662842 1102.928833,1508.585571 1092.156738,1510.000366 
	C1087.104126,1510.664062 1082.052246,1511.333252 1077.000000,1512.000000 
	C1075.611084,1512.000000 1074.222168,1512.000000 1072.289673,1511.622070 
	C1067.828613,1510.337280 1063.798950,1509.760010 1060.011475,1508.471069 
	C1032.106567,1498.975464 1021.543518,1464.557861 1037.107056,1438.830566 
	C1044.034424,1427.379517 1053.730835,1417.579468 1062.370361,1407.196533 
	C1068.971069,1399.264038 1075.932373,1391.633057 1082.650635,1383.797119 
	C1092.119141,1372.753296 1101.498413,1361.633057 1110.941040,1350.566895 
	C1117.235596,1343.190063 1123.573853,1335.850586 1130.750000,1327.496216 
	C1124.365601,1329.363525 1119.387207,1331.139893 1114.264526,1332.252319 
	C1103.082397,1334.680664 1091.812866,1336.704102 1080.609985,1339.041016 
	C1077.233398,1339.745239 1072.841187,1339.899536 1070.820068,1342.075684 
	C1058.555054,1355.281250 1047.400757,1369.546387 1034.808716,1382.413574 
	C1017.080444,1400.529175 998.807434,1418.158569 980.045959,1435.201782 
	C963.737549,1450.016724 946.850769,1464.276001 929.428955,1477.759155 
	C914.934631,1488.976562 898.958862,1498.168701 881.437805,1504.085083 
	C872.428284,1507.127319 863.154419,1509.386841 854.000000,1512.000000 
	C846.645752,1512.000000 839.291504,1512.000000 831.345825,1511.625732 
	C808.951721,1506.210083 800.167908,1490.589722 797.559631,1469.537964 
	C790.264832,1474.198853 783.428528,1478.653320 776.507446,1482.971924 
	C758.601379,1494.145020 739.699890,1503.072998 719.075439,1508.006714 
	C713.075256,1509.442139 707.026550,1510.674561 701.000000,1512.000000 
	C692.645752,1512.000000 684.291504,1512.000000 675.336548,1511.617920 
	C672.510803,1510.817383 670.186218,1510.680908 668.076111,1509.936768 
	C647.929138,1502.829712 632.749817,1490.495117 626.719910,1469.177490 
	C624.596069,1461.669312 623.448425,1453.885010 621.842224,1446.164917 
	C612.639160,1451.915405 603.191895,1457.985107 593.581238,1463.784058 
	C579.828430,1472.082764 566.087830,1480.417358 552.093201,1488.294556 
	C541.073059,1494.497681 529.886414,1500.498047 518.367432,1505.686523 
	C511.658234,1508.708618 504.149170,1509.954712 497.000000,1512.000000 
	C488.979095,1512.000000 480.958191,1512.000000 472.368134,1511.645020 
	C469.565002,1510.397339 467.146454,1509.805542 465.125458,1508.565796 
	C444.485352,1495.902832 436.303741,1473.953491 439.264923,1450.923340 
	C441.124634,1436.459473 447.566925,1423.166138 456.237946,1411.500122 
	C467.682495,1396.102783 479.829834,1381.205322 492.131226,1366.473877 
	C505.044312,1351.009888 518.449707,1335.955078 531.728027,1320.798584 
	C542.113525,1308.943970 552.597107,1297.174561 563.102722,1285.426025 
	C577.787048,1269.004517 592.566528,1252.668091 607.232788,1236.230347 
	C612.163147,1230.704590 616.871582,1224.980713 621.892517,1219.100098 
	C620.899231,1219.050049 620.412476,1219.003906 619.925659,1219.003906 
	C526.957764,1219.000366 433.989807,1218.984863 341.022095,1219.102905 
	C339.016479,1219.105469 336.423401,1220.102417 335.100922,1221.547485 
	C323.900055,1233.786377 312.925812,1246.232910 301.894653,1258.627075 
	C296.766205,1264.389160 291.633026,1270.147461 286.553406,1275.952393 
	C275.112000,1289.027222 263.740417,1302.163330 252.264877,1315.208130 
	C246.181473,1322.123535 239.891266,1328.856445 233.780212,1335.747803 
	C221.260590,1349.866089 208.814285,1364.049438 196.306549,1378.178345 
	C190.531998,1384.701294 184.652542,1391.131348 178.875519,1397.652222 
	C166.252380,1411.901123 153.673492,1426.189087 141.057785,1440.444580 
	C135.505264,1446.718750 129.936554,1452.979126 124.322701,1459.198486 
	C114.704308,1469.854370 105.556549,1481.000977 95.272377,1490.973389 
	C82.524483,1503.334473 65.979973,1506.234863 49.289726,1503.692383 
	C30.186085,1500.782227 15.720260,1489.938965 7.017040,1472.204956 
	C5.018649,1468.133057 3.006067,1464.068115 1.000002,1460.000000 
	C1.000000,1460.000000 1.000000,1459.500000 1.339791,1459.166016 
	C1.453047,1457.887939 1.226512,1456.943970 0.999988,1456.000000 
	C1.000000,1372.645752 1.000000,1289.291504 0.999991,1205.468628 
M25.000000,1361.500000 
	C25.000000,1388.155518 24.879929,1414.812256 25.133474,1441.465454 
	C25.170197,1445.325684 26.473673,1449.413696 28.127800,1452.959229 
	C30.296463,1457.607910 36.906036,1459.980835 41.897270,1459.249756 
	C47.445175,1458.437256 50.223938,1454.576416 53.178654,1451.130005 
	C64.426353,1438.010132 75.220299,1424.502563 86.295532,1411.233276 
	C97.079140,1398.313354 107.990768,1385.500122 118.862045,1372.653564 
	C133.643417,1355.186523 148.446869,1337.738281 163.227570,1320.270874 
	C174.098450,1307.423828 184.897064,1294.515015 195.819946,1281.712402 
	C209.946396,1265.154785 224.186768,1248.694336 238.324951,1232.146729 
	C241.283249,1228.684326 244.010025,1225.024048 247.204681,1221.000000 
	C180.156937,1221.000000 114.016922,1220.938232 47.877380,1221.087036 
	C40.533077,1221.103638 34.483376,1224.876343 30.088394,1230.730225 
	C25.829884,1236.402222 24.982704,1243.132812 24.987635,1250.044189 
	C25.013897,1286.862793 25.000000,1323.681396 25.000000,1361.500000 
M873.243469,1302.787231 
	C871.316467,1298.371460 867.577698,1296.302734 863.221619,1294.996338 
	C855.515381,1292.684937 848.058472,1294.490479 840.778442,1296.724976 
	C818.317932,1303.618530 800.103210,1317.501099 782.823364,1332.752563 
	C776.005371,1338.770142 769.502075,1345.154785 763.016479,1351.536011 
	C753.373169,1361.024170 743.689697,1370.483643 734.375732,1380.290039 
	C728.074219,1386.924683 722.142456,1393.948242 716.466431,1401.130859 
	C707.824524,1412.066406 699.337769,1423.139038 691.183594,1434.441040 
	C684.970215,1443.052734 679.210632,1452.007568 673.571289,1461.011475 
	C670.547424,1465.839355 670.977051,1470.508423 675.429016,1473.609131 
	C679.205444,1476.239380 684.057983,1478.616211 688.507141,1478.753784 
	C703.570618,1479.219360 717.568237,1473.806763 730.252014,1466.618408 
	C746.052979,1457.663208 760.949890,1447.033447 775.821045,1436.537231 
	C794.758850,1423.170898 810.742188,1406.526733 826.194580,1389.353760 
	C839.369141,1374.712158 851.877686,1359.557129 861.867188,1342.535645 
	C868.936707,1330.489624 875.364624,1318.095581 873.243469,1302.787231 
M1438.946045,1460.519409 
	C1435.570435,1466.567139 1437.185181,1471.348633 1443.276001,1475.091553 
	C1451.156982,1479.934692 1459.551880,1478.440186 1467.498657,1476.604126 
	C1483.422607,1472.924805 1498.122681,1465.802979 1511.578979,1456.691040 
	C1526.033325,1446.903198 1540.149414,1436.524414 1553.709106,1425.534668 
	C1565.198364,1416.223145 1575.684326,1405.673584 1587.032593,1395.288940 
	C1564.624512,1380.836182 1552.369019,1359.958618 1542.912598,1335.455566 
	C1529.675415,1349.084106 1516.920044,1361.567627 1504.928467,1374.746094 
	C1493.054932,1387.795044 1481.433960,1401.144897 1470.653931,1415.098145 
	C1459.514282,1429.516968 1449.520142,1444.821045 1438.946045,1460.519409 
M1629.039062,1338.556274 
	C1633.716675,1329.740234 1638.145020,1320.954956 1639.264160,1310.692749 
	C1640.049194,1303.494995 1637.469971,1296.243164 1630.597534,1295.280884 
	C1623.184204,1294.243042 1615.213989,1294.213135 1607.933594,1295.797363 
	C1591.445190,1299.385254 1577.577637,1308.628540 1564.492432,1318.950439 
	C1563.629272,1319.631104 1563.059570,1321.830811 1563.495117,1322.822510 
	C1566.128784,1328.818359 1569.071045,1334.679932 1571.954834,1340.564453 
	C1578.475220,1353.869873 1588.705444,1363.399902 1601.847290,1370.010986 
	C1605.030884,1371.612549 1606.996094,1371.125244 1609.091797,1367.966064 
	C1615.516235,1358.281372 1622.316406,1348.845947 1629.039062,1338.556274 
M2287.487305,1356.999878 
	C2289.060059,1356.666260 2290.661377,1356.431519 2292.200928,1355.983887 
	C2310.697754,1350.608154 2328.868164,1344.420654 2345.250732,1333.966553 
	C2356.803467,1326.594360 2366.599609,1317.358276 2373.720215,1305.594849 
	C2375.202637,1303.145630 2375.811523,1299.785278 2375.599365,1296.935913 
	C2375.539062,1296.125488 2371.194336,1295.420654 2368.756104,1295.065430 
	C2366.638184,1294.757080 2364.375977,1294.679077 2362.284424,1295.070068 
	C2345.636230,1298.182983 2330.523193,1305.153564 2316.380127,1314.204712 
	C2300.118652,1324.611206 2284.052490,1335.325562 2267.984375,1346.030396 
	C2260.591553,1350.955566 2253.395752,1356.176270 2246.110596,1361.262817 
	C2246.325928,1361.932495 2246.541260,1362.602051 2246.756836,1363.271729 
	C2260.045166,1361.182007 2273.333496,1359.092285 2287.487305,1356.999878 
z"/>
<path fill="#B8A885" opacity="1.000000" stroke="none" 
	d="
M1604.531372,1.000004 
	C1609.731934,1.994751 1614.423218,3.292521 1619.202515,3.934315 
	C1647.041870,7.672768 1672.179443,17.738293 1694.531250,34.920525 
	C1709.645020,46.538788 1722.543457,60.230186 1733.165771,75.900162 
	C1742.981812,90.380386 1749.269897,106.518074 1750.909790,124.080536 
	C1751.771240,133.307388 1751.943237,142.623962 1751.955688,151.900650 
	C1752.040405,215.061722 1751.869995,278.223297 1752.037109,341.384064 
	C1752.200073,402.990936 1752.819336,464.596710 1752.917236,526.203491 
	C1752.951660,547.818542 1748.755981,568.685059 1739.848267,588.586304 
	C1731.252319,607.791138 1718.926514,624.185791 1703.313110,638.030579 
	C1685.786743,653.571655 1665.137207,663.635010 1643.003052,670.972168 
	C1624.685669,677.043945 1605.881958,679.460938 1586.802734,677.821838 
	C1570.826172,676.449280 1555.989746,671.549927 1546.573242,656.988220 
	C1540.602783,647.755066 1539.324585,636.969482 1537.037354,626.566040 
	C1530.927612,598.777222 1524.738647,571.096069 1512.199341,545.196838 
	C1502.040527,524.214478 1490.383057,504.183502 1476.618286,485.456940 
	C1463.146362,467.128815 1447.491211,450.717072 1430.316284,435.729675 
	C1409.670410,417.713379 1386.962280,402.895355 1362.280151,391.129852 
	C1335.892700,378.551331 1308.278198,369.688629 1279.595947,363.871552 
	C1254.710449,358.824493 1229.554565,357.793610 1204.450439,359.264557 
	C1176.966675,360.874878 1150.166260,367.052399 1124.175415,376.396179 
	C1092.271973,387.865479 1062.615356,403.484802 1036.490601,425.183868 
	C1023.890442,435.649689 1011.472900,446.543304 1000.323730,458.502838 
	C980.507446,479.759613 963.559998,503.227875 949.478699,528.810486 
	C932.662354,559.361877 921.061646,591.785950 913.378723,625.622925 
	C910.177612,639.721313 904.828247,652.244385 894.251465,662.222168 
	C879.742371,675.909546 862.614563,680.946655 842.846680,678.170410 
	C825.026123,675.667664 807.664001,671.698364 790.878540,665.109802 
	C775.709351,659.155518 761.926208,651.005676 749.241211,640.800415 
	C730.240417,625.513977 716.812866,606.075562 707.122009,584.021179 
	C700.798401,569.629883 697.014648,554.495483 696.978088,538.566589 
	C696.683777,410.299194 696.230103,282.032043 696.077209,153.764526 
	C696.041870,124.106369 703.732056,96.332901 720.315063,71.550003 
	C733.235291,52.241112 749.840271,36.594482 770.319092,25.302288 
	C790.979126,13.910179 813.011841,6.569826 836.309998,2.956847 
	C838.415161,2.630378 840.489563,2.105221 842.789124,1.336163 
	C849.354431,1.000000 855.708801,1.000000 862.761841,1.345634 
	C872.666504,1.918122 881.527527,3.889947 889.550781,8.347998 
	C904.373352,16.583920 910.948792,30.328625 912.898376,46.403465 
	C915.281799,66.055145 919.406982,85.288956 925.596191,104.042587 
	C931.751343,122.693130 939.628662,140.609909 949.277039,157.782867 
	C961.610718,179.735123 976.248779,200.038406 993.260254,218.473389 
	C1003.697632,229.784103 1015.306946,240.073410 1026.890747,250.251617 
	C1042.800171,264.230743 1060.738037,275.337952 1079.465210,285.140076 
	C1100.551514,296.177032 1122.723389,304.518433 1145.656494,310.754456 
	C1166.178955,316.335022 1187.167236,319.776764 1208.362061,320.828827 
	C1231.519409,321.978363 1254.570679,320.288574 1277.523071,316.202911 
	C1304.744019,311.357422 1330.833008,303.190918 1355.966553,291.940399 
	C1385.855591,278.561218 1413.128174,260.852814 1436.818481,238.310364 
	C1450.689331,225.111481 1463.654785,210.712433 1475.403931,195.591644 
	C1492.408447,173.707092 1506.778809,150.035294 1517.030640,124.052826 
	C1527.147583,98.412506 1534.247070,71.916252 1538.809570,44.831287 
	C1542.107422,25.254513 1556.313599,8.016471 1575.399170,2.990177 
	C1576.685059,2.651522 1577.803589,1.678172 1579.000000,1.000004 
	C1587.354248,1.000000 1595.708496,1.000000 1604.531372,1.000004 
z"/>
<path fill="#FFFFFF" opacity="1.000000" stroke="none" 
	d="
M1578.531372,1.000004 
	C1577.803589,1.678172 1576.685059,2.651522 1575.399170,2.990177 
	C1556.313599,8.016471 1542.107422,25.254513 1538.809570,44.831287 
	C1534.247070,71.916252 1527.147583,98.412506 1517.030640,124.052826 
	C1506.778809,150.035294 1492.408447,173.707092 1475.403931,195.591644 
	C1463.654785,210.712433 1450.689331,225.111481 1436.818481,238.310364 
	C1413.128174,260.852814 1385.855591,278.561218 1355.966553,291.940399 
	C1330.833008,303.190918 1304.744019,311.357422 1277.523071,316.202911 
	C1254.570679,320.288574 1231.519409,321.978363 1208.362061,320.828827 
	C1187.167236,319.776764 1166.178955,316.335022 1145.656494,310.754456 
	C1122.723389,304.518433 1100.551514,296.177032 1079.465210,285.140076 
	C1060.738037,275.337952 1042.800171,264.230743 1026.890747,250.251617 
	C1015.306946,240.073410 1003.697632,229.784103 993.260254,218.473389 
	C976.248779,200.038406 961.610718,179.735123 949.277039,157.782867 
	C939.628662,140.609909 931.751343,122.693130 925.596191,104.042587 
	C919.406982,85.288956 915.281799,66.055145 912.898376,46.403465 
	C910.948792,30.328625 904.373352,16.583920 889.550781,8.347998 
	C881.527527,3.889947 872.666504,1.918122 863.230225,1.345634 
	C1101.354248,1.000000 1339.708496,1.000000 1578.531372,1.000004 
z"/>
<path fill="#FFFFFF" opacity="1.000000" stroke="none" 
	d="
M1.000002,1460.468628 
	C3.006067,1464.068115 5.018649,1468.133057 7.017040,1472.204956 
	C15.720260,1489.938965 30.186085,1500.782227 49.289726,1503.692383 
	C65.979973,1506.234863 82.524483,1503.334473 95.272377,1490.973389 
	C105.556549,1481.000977 114.704308,1469.854370 124.322701,1459.198486 
	C129.936554,1452.979126 135.505264,1446.718750 141.057785,1440.444580 
	C153.673492,1426.189087 166.252380,1411.901123 178.875519,1397.652222 
	C184.652542,1391.131348 190.531998,1384.701294 196.306549,1378.178345 
	C208.814285,1364.049438 221.260590,1349.866089 233.780212,1335.747803 
	C239.891266,1328.856445 246.181473,1322.123535 252.264877,1315.208130 
	C263.740417,1302.163330 275.112000,1289.027222 286.553406,1275.952393 
	C291.633026,1270.147461 296.766205,1264.389160 301.894653,1258.627075 
	C312.925812,1246.232910 323.900055,1233.786377 335.100922,1221.547485 
	C336.423401,1220.102417 339.016479,1219.105469 341.022095,1219.102905 
	C433.989807,1218.984863 526.957764,1219.000366 619.925659,1219.003906 
	C620.412476,1219.003906 620.899231,1219.050049 621.892517,1219.100098 
	C616.871582,1224.980713 612.163147,1230.704590 607.232788,1236.230347 
	C592.566528,1252.668091 577.787048,1269.004517 563.102722,1285.426025 
	C552.597107,1297.174561 542.113525,1308.943970 531.728027,1320.798584 
	C518.449707,1335.955078 505.044312,1351.009888 492.131226,1366.473877 
	C479.829834,1381.205322 467.682495,1396.102783 456.237946,1411.500122 
	C447.566925,1423.166138 441.124634,1436.459473 439.264923,1450.923340 
	C436.303741,1473.953491 444.485352,1495.902832 465.125458,1508.565796 
	C467.146454,1509.805542 469.565002,1510.397339 471.899475,1511.645020 
	C315.000000,1512.000000 157.999985,1512.000000 1.000000,1512.000000 
	C1.000000,1494.908813 1.000000,1477.922974 1.000002,1460.468628 
z"/>
<path fill="#FFFFFF" opacity="1.000000" stroke="none" 
	d="
M1908.468628,1512.000000 
	C1914.204956,1510.667480 1920.553101,1509.791748 1926.583252,1507.901611 
	C1937.111694,1504.601074 1947.629150,1501.124268 1957.820435,1496.919800 
	C1979.030518,1488.169800 1998.414551,1476.009277 2017.092896,1462.866943 
	C2031.019653,1453.068115 2044.447510,1442.509277 2057.629395,1431.717407 
	C2070.814209,1420.923218 2083.700439,1409.724243 2096.206543,1398.150879 
	C2112.990479,1382.619019 2129.282471,1366.555908 2145.795654,1350.730835 
	C2146.131104,1350.409302 2146.583740,1350.209717 2146.654541,1350.164062 
	C2152.208984,1355.402222 2157.620605,1360.505493 2163.351074,1365.909546 
	C2155.604492,1377.455078 2147.770996,1389.974243 2144.110596,1404.345703 
	C2141.965088,1412.769653 2140.801514,1421.534668 2140.113037,1430.218872 
	C2138.863281,1445.980835 2140.265625,1461.567383 2146.027344,1476.471069 
	C2152.509766,1493.238892 2164.177246,1504.456299 2181.816895,1509.001587 
	C2185.091553,1509.845459 2188.417725,1510.487915 2191.860107,1511.611572 
	C2097.645752,1512.000000 2003.291504,1512.000000 1908.468628,1512.000000 
z"/>
<path fill="#FFFFFF" opacity="1.000000" stroke="none" 
	d="
M854.468628,1512.000000 
	C863.154419,1509.386841 872.428284,1507.127319 881.437805,1504.085083 
	C898.958862,1498.168701 914.934631,1488.976562 929.428955,1477.759155 
	C946.850769,1464.276001 963.737549,1450.016724 980.045959,1435.201782 
	C998.807434,1418.158569 1017.080444,1400.529175 1034.808716,1382.413574 
	C1047.400757,1369.546387 1058.555054,1355.281250 1070.820068,1342.075684 
	C1072.841187,1339.899536 1077.233398,1339.745239 1080.609985,1339.041016 
	C1091.812866,1336.704102 1103.082397,1334.680664 1114.264526,1332.252319 
	C1119.387207,1331.139893 1124.365601,1329.363525 1130.750000,1327.496216 
	C1123.573853,1335.850586 1117.235596,1343.190063 1110.941040,1350.566895 
	C1101.498413,1361.633057 1092.119141,1372.753296 1082.650635,1383.797119 
	C1075.932373,1391.633057 1068.971069,1399.264038 1062.370361,1407.196533 
	C1053.730835,1417.579468 1044.034424,1427.379517 1037.107056,1438.830566 
	C1021.543518,1464.557861 1032.106567,1498.975464 1060.011475,1508.471069 
	C1063.798950,1509.760010 1067.828613,1510.337280 1071.873047,1511.622070 
	C999.645752,1512.000000 927.291565,1512.000000 854.468628,1512.000000 
z"/>
<path fill="#FFFFFF" opacity="1.000000" stroke="none" 
	d="
M2227.468750,1512.000000 
	C2232.461426,1511.004395 2237.888184,1509.711914 2243.390869,1509.070801 
	C2257.899414,1507.380249 2271.556641,1502.647583 2285.016602,1497.421265 
	C2314.823486,1485.847412 2341.325195,1468.542847 2366.390869,1448.998047 
	C2379.998779,1438.387207 2393.355957,1427.415161 2406.320068,1416.029419 
	C2420.300537,1403.750732 2433.689941,1390.798462 2447.668457,1378.070068 
	C2448.000000,1422.611572 2448.000000,1467.223022 2448.000000,1512.000000 
	C2374.645996,1512.000000 2301.291748,1512.000000 2227.468750,1512.000000 
z"/>
<path fill="#FFFFFF" opacity="1.000000" stroke="none" 
	d="
M1457.468628,1512.000000 
	C1461.557495,1511.334229 1466.102905,1510.569092 1470.674561,1510.021240 
	C1484.861694,1508.321289 1498.206177,1503.772705 1511.294312,1498.274658 
	C1534.664917,1488.457397 1555.826172,1474.810547 1575.255371,1458.859253 
	C1592.559326,1444.652466 1608.454224,1428.727783 1624.938965,1413.526489 
	C1627.620483,1411.053711 1629.428345,1408.503662 1634.386353,1409.650879 
	C1639.229248,1410.771606 1644.768066,1409.274658 1649.938477,1408.504395 
	C1658.845215,1407.177490 1667.703125,1405.522583 1675.486572,1404.192505 
	C1669.750000,1416.349487 1663.304688,1428.715088 1658.050415,1441.567505 
	C1654.109619,1451.207397 1652.586792,1461.613037 1652.998291,1472.159790 
	C1653.707764,1490.343628 1668.054321,1508.874390 1684.877441,1511.625854 
	C1609.312378,1512.000000 1533.624878,1512.000000 1457.468628,1512.000000 
z"/>
<path fill="#FFFFFF" opacity="1.000000" stroke="none" 
	d="
M1706.468628,1512.000000 
	C1712.447998,1510.411255 1719.270142,1509.678223 1725.266113,1507.055908 
	C1737.859131,1501.548950 1750.271729,1495.506348 1762.288818,1488.837280 
	C1776.328003,1481.046021 1789.938721,1472.469116 1803.603638,1464.019775 
	C1819.720459,1454.054565 1835.693970,1443.857300 1851.739136,1433.775635 
	C1852.680786,1433.183716 1853.706665,1432.725830 1855.108643,1431.986694 
	C1853.142090,1438.928345 1850.753418,1445.396851 1849.530273,1452.078735 
	C1846.823120,1466.867310 1846.294312,1481.302734 1855.817749,1494.615967 
	C1863.105225,1504.803589 1872.983154,1509.390137 1884.871094,1511.620605 
	C1825.645752,1512.000000 1766.291504,1512.000000 1706.468628,1512.000000 
z"/>
<path fill="#FFFFFF" opacity="1.000000" stroke="none" 
	d="
M1254.468628,1512.000000 
	C1257.717651,1511.340576 1261.417847,1510.552734 1265.156006,1510.044067 
	C1280.932251,1507.897339 1294.724365,1500.764893 1308.238403,1492.963257 
	C1322.006470,1485.014771 1335.794556,1477.094116 1349.412720,1468.893799 
	C1361.260620,1461.759521 1372.881348,1454.248413 1384.608887,1446.914429 
	C1385.539917,1446.332275 1386.522705,1445.832886 1386.493774,1445.849121 
	C1389.097534,1455.777832 1390.598633,1466.268677 1394.590088,1475.706299 
	C1402.333130,1494.014526 1417.310181,1504.593018 1436.148193,1509.997803 
	C1437.380127,1510.351318 1438.571655,1510.845581 1439.891113,1511.637207 
	C1378.312378,1512.000000 1316.624878,1512.000000 1254.468628,1512.000000 
z"/>
<path fill="#FFFFFF" opacity="1.000000" stroke="none" 
	d="
M497.468658,1512.000000 
	C504.149170,1509.954712 511.658234,1508.708618 518.367432,1505.686523 
	C529.886414,1500.498047 541.073059,1494.497681 552.093201,1488.294556 
	C566.087830,1480.417358 579.828430,1472.082764 593.581238,1463.784058 
	C603.191895,1457.985107 612.639160,1451.915405 621.842224,1446.164917 
	C623.448425,1453.885010 624.596069,1461.669312 626.719910,1469.177490 
	C632.749817,1490.495117 647.929138,1502.829712 668.076111,1509.936768 
	C670.186218,1510.680908 672.510803,1510.817383 674.867920,1511.617920 
	C615.979126,1512.000000 556.958191,1512.000000 497.468658,1512.000000 
z"/>
<path fill="#FFFFFF" opacity="1.000000" stroke="none" 
	d="
M1077.468628,1512.000000 
	C1082.052246,1511.333252 1087.104126,1510.664062 1092.156738,1510.000366 
	C1102.928833,1508.585571 1113.249268,1505.662842 1122.531006,1499.915405 
	C1148.349365,1483.927856 1174.067627,1467.778687 1199.861816,1451.751953 
	C1200.877686,1451.120850 1202.267334,1451.091187 1203.597900,1450.752075 
	C1204.178833,1478.105103 1210.415039,1501.660034 1239.892334,1511.638306 
	C1185.979126,1512.000000 1131.958130,1512.000000 1077.468628,1512.000000 
z"/>
<path fill="#FFFFFF" opacity="1.000000" stroke="none" 
	d="
M701.468628,1512.000000 
	C707.026550,1510.674561 713.075256,1509.442139 719.075439,1508.006714 
	C739.699890,1503.072998 758.601379,1494.145020 776.507446,1482.971924 
	C783.428528,1478.653320 790.264832,1474.198853 797.559631,1469.537964 
	C800.167908,1490.589722 808.951721,1506.210083 830.877197,1511.625732 
	C787.979126,1512.000000 744.958191,1512.000000 701.468628,1512.000000 
z"/>
<path fill="#FFFFFF" opacity="1.000000" stroke="none" 
	d="
M0.999988,1456.375000 
	C1.226512,1456.943970 1.453047,1457.887939 1.339791,1458.916016 
	C1.000000,1458.250000 1.000000,1457.500000 0.999988,1456.375000 
z"/>
<path fill="#FFFFFF" opacity="1.000000" stroke="none" 
	d="
M25.000000,1361.000000 
	C25.000000,1323.681396 25.013897,1286.862793 24.987635,1250.044189 
	C24.982704,1243.132812 25.829884,1236.402222 30.088394,1230.730225 
	C34.483376,1224.876343 40.533077,1221.103638 47.877380,1221.087036 
	C114.016922,1220.938232 180.156937,1221.000000 247.204681,1221.000000 
	C244.010025,1225.024048 241.283249,1228.684326 238.324951,1232.146729 
	C224.186768,1248.694336 209.946396,1265.154785 195.819946,1281.712402 
	C184.897064,1294.515015 174.098450,1307.423828 163.227570,1320.270874 
	C148.446869,1337.738281 133.643417,1355.186523 118.862045,1372.653564 
	C107.990768,1385.500122 97.079140,1398.313354 86.295532,1411.233276 
	C75.220299,1424.502563 64.426353,1438.010132 53.178654,1451.130005 
	C50.223938,1454.576416 47.445175,1458.437256 41.897270,1459.249756 
	C36.906036,1459.980835 30.296463,1457.607910 28.127800,1452.959229 
	C26.473673,1449.413696 25.170197,1445.325684 25.133474,1441.465454 
	C24.879929,1414.812256 25.000000,1388.155518 25.000000,1361.000000 
z"/>
<path fill="#FFFFFF" opacity="1.000000" stroke="none" 
	d="
M873.549988,1303.071167 
	C875.364624,1318.095581 868.936707,1330.489624 861.867188,1342.535645 
	C851.877686,1359.557129 839.369141,1374.712158 826.194580,1389.353760 
	C810.742188,1406.526733 794.758850,1423.170898 775.821045,1436.537231 
	C760.949890,1447.033447 746.052979,1457.663208 730.252014,1466.618408 
	C717.568237,1473.806763 703.570618,1479.219360 688.507141,1478.753784 
	C684.057983,1478.616211 679.205444,1476.239380 675.429016,1473.609131 
	C670.977051,1470.508423 670.547424,1465.839355 673.571289,1461.011475 
	C679.210632,1452.007568 684.970215,1443.052734 691.183594,1434.441040 
	C699.337769,1423.139038 707.824524,1412.066406 716.466431,1401.130859 
	C722.142456,1393.948242 728.074219,1386.924683 734.375732,1380.290039 
	C743.689697,1370.483643 753.373169,1361.024170 763.016479,1351.536011 
	C769.502075,1345.154785 776.005371,1338.770142 782.823364,1332.752563 
	C800.103210,1317.501099 818.317932,1303.618530 840.778442,1296.724976 
	C848.058472,1294.490479 855.515381,1292.684937 863.221619,1294.996338 
	C867.577698,1296.302734 871.316467,1298.371460 873.549988,1303.071167 
z"/>
<path fill="#FFFFFF" opacity="1.000000" stroke="none" 
	d="
M1438.985474,1460.128662 
	C1449.520142,1444.821045 1459.514282,1429.516968 1470.653931,1415.098145 
	C1481.433960,1401.144897 1493.054932,1387.795044 1504.928467,1374.746094 
	C1516.920044,1361.567627 1529.675415,1349.084106 1542.912598,1335.455566 
	C1552.369019,1359.958618 1564.624512,1380.836182 1587.032593,1395.288940 
	C1575.684326,1405.673584 1565.198364,1416.223145 1553.709106,1425.534668 
	C1540.149414,1436.524414 1526.033325,1446.903198 1511.578979,1456.691040 
	C1498.122681,1465.802979 1483.422607,1472.924805 1467.498657,1476.604126 
	C1459.551880,1478.440186 1451.156982,1479.934692 1443.276001,1475.091553 
	C1437.185181,1471.348633 1435.570435,1466.567139 1438.985474,1460.128662 
z"/>
<path fill="#FFFFFF" opacity="1.000000" stroke="none" 
	d="
M1629.004761,1338.935059 
	C1622.316406,1348.845947 1615.516235,1358.281372 1609.091797,1367.966064 
	C1606.996094,1371.125244 1605.030884,1371.612549 1601.847290,1370.010986 
	C1588.705444,1363.399902 1578.475220,1353.869873 1571.954834,1340.564453 
	C1569.071045,1334.679932 1566.128784,1328.818359 1563.495117,1322.822510 
	C1563.059570,1321.830811 1563.629272,1319.631104 1564.492432,1318.950439 
	C1577.577637,1308.628540 1591.445190,1299.385254 1607.933594,1295.797363 
	C1615.213989,1294.213135 1623.184204,1294.243042 1630.597534,1295.280884 
	C1637.469971,1296.243164 1640.049194,1303.494995 1639.264160,1310.692749 
	C1638.145020,1320.954956 1633.716675,1329.740234 1629.004761,1338.935059 
z"/>
<path fill="#FFFFFF" opacity="1.000000" stroke="none" 
	d="
M2287.054688,1357.001221 
	C2273.333496,1359.092285 2260.045166,1361.182007 2246.756836,1363.271729 
	C2246.541260,1362.602051 2246.325928,1361.932495 2246.110596,1361.262817 
	C2253.395752,1356.176270 2260.591553,1350.955566 2267.984375,1346.030396 
	C2284.052490,1335.325562 2300.118652,1324.611206 2316.380127,1314.204712 
	C2330.523193,1305.153564 2345.636230,1298.182983 2362.284424,1295.070068 
	C2364.375977,1294.679077 2366.638184,1294.757080 2368.756104,1295.065430 
	C2371.194336,1295.420654 2375.539062,1296.125488 2375.599365,1296.935913 
	C2375.811523,1299.785278 2375.202637,1303.145630 2373.720215,1305.594849 
	C2366.599609,1317.358276 2356.803467,1326.594360 2345.250732,1333.966553 
	C2328.868164,1344.420654 2310.697754,1350.608154 2292.200928,1355.983887 
	C2290.661377,1356.431519 2289.060059,1356.666260 2287.054688,1357.001221 
z"/>
</svg>