<?xml version="1.0" encoding="UTF-8" standalone="no"?>
<svg
   version="1.1"
   id="Layer_1"
   x="0px"
   y="0px"
   viewBox="0 0 1190.55 340.16"
   style="enable-background:new 0 0 1190.55 340.16;"
   xml:space="preserve"
   sodipodi:docname="HAYWIREZ_long-logo_final-04_blue_solo.svg"
   inkscape:version="1.3.2 (091e20e, 2023-11-25)"
   xmlns:inkscape="http://www.inkscape.org/namespaces/inkscape"
   xmlns:sodipodi="http://sodipodi.sourceforge.net/DTD/sodipodi-0.dtd"
   xmlns="http://www.w3.org/2000/svg"
   xmlns:svg="http://www.w3.org/2000/svg"><defs
   id="defs7" /><sodipodi:namedview
   id="namedview7"
   pagecolor="#ffffff"
   bordercolor="#000000"
   borderopacity="0.25"
   inkscape:showpageshadow="2"
   inkscape:pageopacity="0.0"
   inkscape:pagecheckerboard="0"
   inkscape:deskcolor="#d1d1d1"
   showgrid="false"
   inkscape:zoom="0.48800972"
   inkscape:cx="595.27502"
   inkscape:cy="171.10315"
   inkscape:window-width="1312"
   inkscape:window-height="798"
   inkscape:window-x="0"
   inkscape:window-y="25"
   inkscape:window-maximized="0"
   inkscape:current-layer="Layer_1" />
<style
   type="text/css"
   id="style1">
	.st0{fill:#f1f1f1;}
</style>
<g
   id="g7"
   style="fill:#0000ff">
	<path
   class="st0"
   d="M143.43,186.98h-33.8v67.85H75.82V85.33h33.81v67.61h33.8V85.33h33.8v169.51h-33.8V186.98z"
   id="path1"
   style="fill:#0000ff" />
	<path
   class="st0"
   d="M320.12,186.98h-12.8v67.85H205.91V153.18h67.61v-33.81h-67.61V85.33h101.41v67.85h12.8V186.98z    M273.52,186.98h-33.81v33.81h33.81V186.98z"
   id="path2"
   style="fill:#0000ff" />
	<path
   class="st0"
   d="M367.15,186.98h-13.52L333.34,85.33h33.81l13.52,67.61h6.76l13.52-67.61h33.8l-20.28,101.66h-13.52v67.85   h-33.8V186.98z"
   id="path3"
   style="fill:#0000ff" />
	<path
   class="st0"
   d="M500.67,170.08l16.9-84.75h33.8l16.9,84.75l16.9-84.75h33.8l-33.8,169.51h-33.81l-16.9-84.76l-16.9,84.76   h-33.81l-33.8-169.51h33.8L500.67,170.08z"
   id="path4"
   style="fill:#0000ff" />
	<path
   class="st0"
   d="M703.5,254.84h-67.61v-34.05h16.9V119.37h-16.9V85.33h67.61v34.04h-16.9v101.42h16.9V254.84z"
   id="path5"
   style="fill:#0000ff" />
	<path
   class="st0"
   d="M778.22,212.58l-16.9,42.25h-33.81V85.33h101.42l-33.81,84.75l33.81,84.76h-33.81L778.22,212.58z    M761.32,119.37v50.71l20.28-50.71H761.32z"
   id="path6"
   style="fill:#0000ff" />
	<path
   class="st0"
   d="M837.38,153.18h16.9V85.33h101.41v101.66h-67.61v33.81h67.61v34.05H854.28v-67.85h-16.9V153.18z    M888.09,153.18h33.8v-33.81h-33.8V153.18z"
   id="path7"
   style="fill:#0000ff" />
	<polygon
   class="st0"
   points="1075.26,220.78 1075.26,153.18 1075.26,153.05 1041.21,153.05 1041.21,85.33 969.58,85.33   969.58,119.37 1007.17,119.37 1007.17,186.98 1007.17,187.1 1041.21,187.1 1041.21,254.84 1114.73,254.84 1114.73,220.78  "
   id="polygon7"
   style="fill:#0000ff" />
</g>
</svg>
