<svg width="930" height="1024" viewBox="0 0 930 1024" fill="none" xmlns="http://www.w3.org/2000/svg">
<path d="M603.721 800.73C603.721 798.908 602.641 797.254 600.949 796.591C588.774 791.82 573.204 788.399 552.503 788.4C531.24 788.4 512.056 795.995 498.281 810.792C484.568 825.521 477.414 846.079 477.516 869.923C477.708 914.798 512.268 944.226 550.459 943.654C578.708 943.231 592.839 937.541 600.773 933.241C607.206 929.754 610.795 923.091 610.795 916.308V870.824C610.795 862.61 604.156 855.952 595.968 855.952H554.767C552.267 855.952 550.239 857.985 550.239 860.493V880.929C550.239 883.437 552.267 885.47 554.767 885.47H576.839C579.339 885.47 581.366 887.503 581.366 890.011V906.485C581.366 908.403 580.17 910.13 578.333 910.663C572.549 912.339 563.632 913.935 550.02 914.139C527.541 914.475 507.064 897.59 506.945 869.796C506.868 851.92 512.165 839.129 519.79 830.938C527.353 822.815 538.396 817.919 552.504 817.918C571.941 817.917 584.622 821.486 593.379 825.402C594.487 825.897 595.524 826.39 596.504 826.881C599.714 828.49 603.721 826.283 603.721 822.683V800.73Z" fill="#232833"/>
<path d="M75.6965 792.093C72.5709 792.093 70.0371 794.635 70.0371 797.77V934.577C70.0371 937.712 72.5709 940.254 75.6965 940.254H96.6364C99.762 940.254 102.296 937.712 102.296 934.577V878.378H170.209V934.577C170.209 937.712 172.743 940.254 175.868 940.254H196.808C199.934 940.254 202.468 937.712 202.468 934.577V797.77C202.468 794.635 199.934 792.093 196.808 792.093H175.868C172.743 792.093 170.209 794.635 170.209 797.77V851.13L102.296 851.13V797.77C102.296 794.635 99.762 792.093 96.6364 792.093H75.6965Z" fill="#232833"/>
<path d="M342.256 835.078C342.256 835.566 342.365 836.047 342.576 836.487L388.769 932.789L386.479 938.172C382.353 947.867 373.849 954.995 363.605 957.344L359.236 958.346C356.799 958.905 355.274 961.34 355.832 963.785L360.372 983.707C360.93 986.152 363.358 987.681 365.795 987.122L370.164 986.12C389.593 981.665 405.721 968.147 413.546 949.76L461.036 838.154C462.311 835.158 460.12 831.83 456.872 831.83H434.72C432.907 831.83 431.268 832.915 430.556 834.588L404.122 896.711L374.234 834.402C373.48 832.83 371.894 831.83 370.154 831.83H345.494C343.706 831.83 342.256 833.284 342.256 835.078Z" fill="#232833"/>
<path d="M762.751 827.288C759.625 827.288 757.091 829.83 757.091 832.965V934.577C757.091 937.712 759.625 940.254 762.751 940.254H783.691C786.816 940.254 789.35 937.712 789.35 934.577V864.96C796.47 859.576 803.518 856.807 811.988 856.807C822.741 856.807 829.532 862.037 829.532 869.233V934.577C829.532 937.712 832.066 940.254 835.192 940.254H853.302C856.427 940.254 858.961 937.712 858.961 934.577V868.665C858.961 844.035 839.31 831.262 816.942 831.262C805.643 831.443 796.828 836.257 789.35 842.341V832.965C789.35 829.83 786.816 827.288 783.691 827.288H762.751Z" fill="#232833"/>
<path fill-rule="evenodd" clip-rule="evenodd" d="M284.175 827.288C267.056 827.288 252.458 833.091 242.196 844.022C232.054 854.825 227.369 869.331 227.369 884.593C227.369 898.826 230.465 914.012 240.415 925.795C250.723 938.002 266.38 944.228 286.476 944.228C303.499 944.228 319.011 939.393 331.328 933.766C332.128 933.401 332.634 932.598 332.634 931.717V906.295C332.634 904.518 330.69 903.421 329.151 904.3C318.465 910.407 303.081 916.98 286.476 916.98C272.081 916.98 264.976 912.722 261.144 908.184C258.109 904.59 256.002 899.495 255.072 892.85H331.484C332.734 892.85 333.75 891.834 333.73 890.581C333.556 879.659 332.039 865.296 325.927 852.957C322.558 846.154 317.603 839.585 310.384 834.75C303.082 829.858 294.277 827.288 284.175 827.288ZM304.835 874.685C304.066 871.192 303.009 867.927 301.599 865.08C299.836 861.52 297.725 859.035 295.297 857.409C292.953 855.839 289.531 854.536 284.175 854.536C273.351 854.536 266.337 858.053 261.973 862.701C259.16 865.698 256.949 869.701 255.691 874.685H304.835Z" fill="#232833"/>
<path fill-rule="evenodd" clip-rule="evenodd" d="M644.582 844.022C654.843 833.091 669.442 827.288 686.56 827.288C706.946 827.288 720.002 838.964 727.207 852.661C733.625 864.862 735.851 879.169 736.107 890.58C736.136 891.833 735.119 892.85 733.869 892.85H657.457C658.387 899.495 660.494 904.59 663.529 908.184C667.361 912.722 674.466 916.98 688.861 916.98C705.466 916.98 720.851 910.407 731.536 904.3C733.075 903.421 735.02 904.518 735.02 906.295V931.717C735.02 932.598 734.513 933.401 733.714 933.766C721.396 939.393 705.885 944.228 688.861 944.228C668.765 944.228 653.108 938.002 642.8 925.795C632.851 914.012 629.754 898.826 629.754 884.593C629.754 869.331 634.439 854.825 644.582 844.022ZM703.18 865.376C704.651 868.171 705.816 871.34 706.704 874.685H658.077C659.334 869.701 661.546 865.698 664.359 862.701C668.723 858.053 675.736 854.536 686.56 854.536C694.543 854.536 699.482 858.346 703.18 865.376Z" fill="#232833"/>
<mask id="mask0_172_4120" style="mask-type:alpha" maskUnits="userSpaceOnUse" x="203" y="86" width="522" height="540">
<path d="M335.417 530.326C329.966 527.661 327.033 531.11 327.033 539.489C327.033 547.868 327.353 577.983 333.874 590.791C339.893 602.616 349.497 612.229 361.31 618.254C371.574 623.489 384.263 624.723 405.374 625.013C463.513 622.419 514.392 591.887 544.938 546.506C547.651 542.477 544.668 537.216 539.814 537.216H401.029C381.759 537.216 352.811 538.831 335.417 530.326Z" fill="#D9D9D9"/>
<path d="M311.514 271.23C311.514 262.657 300.19 259.586 295.908 267.011C284.642 286.545 266.971 317.182 241.915 360.614C198.039 436.669 213.154 538.658 297.734 596.046C308.197 603.146 316.568 591.857 314.538 583.016C310.219 564.942 311.514 544.875 311.514 526.324V271.23Z" fill="#D9D9D9"/>
<path d="M648.277 350.932C648.696 356.99 653.147 357.808 660.396 353.618C667.645 349.429 693.541 334.094 701.362 322.037C708.583 310.908 712.098 297.775 711.404 284.523C710.801 273.008 705.524 261.391 695.22 242.945C663.906 193.844 612.051 165.004 557.515 161.215C552.673 160.878 549.612 166.094 552.039 170.302L621.432 290.61C631.067 307.315 646.938 331.601 648.277 350.932Z" fill="#D9D9D9"/>
<path d="M436.06 501.2C428.643 505.486 431.647 516.838 440.212 516.838C462.746 516.837 498.088 516.837 548.193 516.841C635.932 516.848 716.615 452.751 723.975 350.738C724.886 338.118 710.934 336.506 704.3 342.686C690.822 355.466 672.813 364.378 656.763 373.653L436.06 501.2Z" fill="#D9D9D9"/>
<path d="M340.849 171.044C345.881 167.651 344.363 163.384 337.114 159.195C329.864 155.006 303.649 140.225 289.307 139.474C276.068 138.779 262.948 142.298 251.829 149.526C242.168 155.806 234.756 166.189 223.949 184.343C197.124 236.04 198.1 295.411 222.09 344.581C224.22 348.947 230.263 348.992 232.69 344.784L302.082 224.476C311.717 207.772 324.794 181.87 340.849 171.044Z" fill="#D9D9D9"/>
<path d="M576.969 279.873C584.386 284.159 592.706 275.879 588.423 268.454C577.155 248.921 559.484 218.284 534.435 174.848C490.571 98.7855 394.775 60.8932 302.834 105.519C291.46 111.04 297.041 123.94 305.705 126.601C323.502 131.894 340.216 143.05 356.266 152.326L576.969 279.873Z" fill="#D9D9D9"/>
</mask>
<g mask="url(#mask0_172_4120)">
<rect x="145.815" y="36.7767" width="637.555" height="638.175" fill="#3C8FE8"/>
<ellipse cx="862.114" cy="371.085" rx="527.857" ry="528.37" fill="url(#paint0_radial_172_4120)"/>
<ellipse cx="823.557" cy="262.91" rx="229.715" ry="229.939" fill="url(#paint1_radial_172_4120)"/>
<ellipse cx="139.298" cy="583.629" rx="278.591" ry="278.862" fill="url(#paint2_radial_172_4120)"/>
<path opacity="0.6" d="M311.532 500.221V271.22C311.532 262.648 300.194 259.607 295.912 267.031L238.302 366.912L311.532 500.221Z" fill="url(#paint3_linear_172_4120)"/>
<path opacity="0.6" d="M634.46 386.576L436.333 501.077C428.916 505.363 431.954 516.712 440.518 516.712L555.739 516.712L634.46 386.576Z" fill="url(#paint4_linear_172_4120)"/>
<path opacity="0.6" d="M378.714 165.179L576.841 279.679C584.258 283.965 592.558 275.657 588.276 268.233L530.665 168.352L378.714 165.179Z" fill="url(#paint5_linear_172_4120)"/>
</g>
<defs>
<radialGradient id="paint0_radial_172_4120" cx="0" cy="0" r="1" gradientUnits="userSpaceOnUse" gradientTransform="translate(862.114 371.085) rotate(90) scale(528.37 527.857)">
<stop offset="0.510417" stop-color="#8535F2"/>
<stop offset="1" stop-color="#8535F2" stop-opacity="0"/>
</radialGradient>
<radialGradient id="paint1_radial_172_4120" cx="0" cy="0" r="1" gradientUnits="userSpaceOnUse" gradientTransform="translate(823.557 262.91) rotate(90) scale(229.939 229.715)">
<stop stop-color="#FF439D"/>
<stop offset="1" stop-color="#FF439D" stop-opacity="0"/>
</radialGradient>
<radialGradient id="paint2_radial_172_4120" cx="0" cy="0" r="1" gradientUnits="userSpaceOnUse" gradientTransform="translate(139.298 583.629) rotate(90) scale(278.862 278.591)">
<stop stop-color="#44E7FF"/>
<stop offset="1" stop-color="#44E7FF" stop-opacity="0"/>
</radialGradient>
<linearGradient id="paint3_linear_172_4120" x1="270.831" y1="239.95" x2="270.831" y2="499.694" gradientUnits="userSpaceOnUse">
<stop stop-color="white"/>
<stop offset="1" stop-color="white" stop-opacity="0"/>
</linearGradient>
<linearGradient id="paint4_linear_172_4120" x1="429.63" y1="551.994" x2="654.465" y2="422.311" gradientUnits="userSpaceOnUse">
<stop stop-color="white"/>
<stop offset="1" stop-color="white" stop-opacity="0"/>
</linearGradient>
<linearGradient id="paint5_linear_172_4120" x1="624.246" y1="260.031" x2="399.411" y2="130.349" gradientUnits="userSpaceOnUse">
<stop stop-color="white"/>
<stop offset="1" stop-color="white" stop-opacity="0"/>
</linearGradient>
</defs>
</svg>
