<?xml version="1.0" encoding="UTF-8"?>
<svg version="1.1" xmlns="http://www.w3.org/2000/svg" width="525" height="525">
<path d="M0 0 C173.25 0 346.5 0 525 0 C525 173.25 525 346.5 525 525 C351.75 525 178.5 525 0 525 C0 351.75 0 178.5 0 0 Z " fill="#FEFEFE" transform="translate(0,0)"/>
<path d="M0 0 C4.3924631 -0.07482575 8.78457672 -0.12891683 13.17749023 -0.16479492 C14.66811598 -0.17977042 16.15869851 -0.20015819 17.64916992 -0.22631836 C28.65980431 -0.41456588 38.29090446 -0.14550392 47.13671875 7.17578125 C52.77871857 12.69950015 55.26816908 17.79366963 55.60913086 25.67358398 C55.65789435 33.01436468 55.41902911 39.84775887 51 46 C50.54882812 46.63035156 50.09765625 47.26070313 49.6328125 47.91015625 C43.99358411 54.51731191 35.50482597 57.545438 27.03686523 58.39990234 C22.91598503 58.54621017 18.80740696 58.44020796 14.6875 58.3125 C13.25329491 58.28733851 11.81904636 58.26453943 10.38476562 58.24414062 C6.92225119 58.18987404 3.4614192 58.10405709 0 58 C0 57.01 0 56.02 0 55 C3.465 54.505 3.465 54.505 7 54 C7.0505894 47.20071581 7.08568667 40.4014799 7.10986328 33.60205078 C7.11993892 31.28757921 7.13359975 28.97312041 7.15087891 26.65869141 C7.17505865 23.33753307 7.1864673 20.0165426 7.1953125 16.6953125 C7.20563507 15.65569366 7.21595764 14.61607483 7.22659302 13.54495239 C7.22681961 12.10368484 7.22681961 12.10368484 7.22705078 10.63330078 C7.231492 9.78502716 7.23593323 8.93675354 7.24050903 8.06277466 C7.19015361 5.77651455 7.19015361 5.77651455 5 4 C2.42938689 3.35232207 2.42938689 3.35232207 0 3 C0 2.01 0 1.02 0 0 Z " fill="#F9F9F9" transform="translate(190,215)"/>
<path d="M0 0 C7.92 0 15.84 0 24 0 C24 0.99 24 1.98 24 3 C21.69 3.33 19.38 3.66 17 4 C16.67 11.26 16.34 18.52 16 26 C25.24 26 34.48 26 44 26 C43.505 15.605 43.505 15.605 43 5 C41.02 4.34 39.04 3.68 37 3 C37 2.01 37 1.02 37 0 C44.92 0 52.84 0 61 0 C61 0.99 61 1.98 61 3 C58.69 3.66 56.38 4.32 54 5 C53.9494084 11.65686814 53.9143124 18.31368694 53.89013672 24.97070312 C53.88006141 27.23667249 53.86640082 29.50262881 53.84912109 31.76855469 C53.82493989 35.02021501 53.81353237 38.27170387 53.8046875 41.5234375 C53.79436493 42.54118256 53.78404236 43.55892761 53.77340698 44.60751343 C53.77325592 45.54833771 53.77310486 46.48916199 53.77294922 47.45849609 C53.76628738 48.70425919 53.76628738 48.70425919 53.75949097 49.97518921 C53.8152993 52.22781007 53.8152993 52.22781007 56 54 C58.57061311 54.64767793 58.57061311 54.64767793 61 55 C61 55.99 61 56.98 61 58 C53.08 58 45.16 58 37 58 C37 57.01 37 56.02 37 55 C37.969375 54.690625 38.93875 54.38125 39.9375 54.0625 C42.84065792 53.30476658 42.84065792 53.30476658 44 52 C44.15740605 50.29436222 44.25093392 48.58272756 44.31640625 46.87109375 C44.35451416 45.93966553 44.39262207 45.0082373 44.43188477 44.04858398 C44.47498779 42.85692627 44.51809082 41.66526855 44.5625 40.4375 C44.706875 36.663125 44.85125 32.88875 45 29 C35.43 29 25.86 29 16 29 C16.33 36.59 16.66 44.18 17 52 C19.31 52.99 21.62 53.98 24 55 C24 55.99 24 56.98 24 58 C16.08 58 8.16 58 0 58 C0 57.01 0 56.02 0 55 C3.465 54.505 3.465 54.505 7 54 C7 38.16 7 22.32 7 6 C4.69 5.01 2.38 4.02 0 3 C0 2.01 0 1.02 0 0 Z " fill="#333030" transform="translate(63,215)"/>
<path d="M0 0 C7.92 0 15.84 0 24 0 C24 0.99 24 1.98 24 3 C21.69 3.33 19.38 3.66 17 4 C16.67 11.92 16.34 19.84 16 28 C23.71613556 22.05807864 23.71613556 22.05807864 30.5 15.4375 C31.75296875 14.10525391 31.75296875 14.10525391 33.03125 12.74609375 C35.19573525 9.7269804 35.69864165 7.66473284 36 4 C34.68 3.67 33.36 3.34 32 3 C32 2.01 32 1.02 32 0 C38.93 0 45.86 0 53 0 C53 0.99 53 1.98 53 3 C51.7625 3.226875 50.525 3.45375 49.25 3.6875 C42.23310377 5.9635502 38.00235025 11.97559758 33.39648438 17.43261719 C32 19 32 19 29.078125 21.6640625 C26.82048689 23.72089457 26.82048689 23.72089457 26.87109375 25.9296875 C28.54370405 28.99710431 30.75814759 31.52504107 33.0625 34.125 C34.06775468 35.28007786 35.07164911 36.43634085 36.07421875 37.59375 C36.81937744 38.45226562 36.81937744 38.45226562 37.57958984 39.328125 C40.2276814 42.44502617 42.68643407 45.71196764 45.1484375 48.9765625 C48.53896147 52.68181865 52.07695762 54.29670823 57 55 C57 55.99 57 56.98 57 58 C42.80776195 60.07450347 42.80776195 60.07450347 38.35839844 56.78710938 C35.39615696 53.49572995 33.28335785 49.66436474 31.11181641 45.82568359 C29.43882718 43.07851333 27.36554044 40.79377615 25.1875 38.4375 C24.50042969 37.69371094 23.81335938 36.94992188 23.10546875 36.18359375 C20.76690766 33.75825859 18.39063545 31.37394689 16 29 C16.0807876 32.60509105 16.19363684 36.20847921 16.3125 39.8125 C16.33505859 40.83666016 16.35761719 41.86082031 16.38085938 42.91601562 C16.4340332 44.39038086 16.4340332 44.39038086 16.48828125 45.89453125 C16.51446533 46.80050049 16.54064941 47.70646973 16.56762695 48.63989258 C17.07596535 51.41465671 17.78275722 52.30898554 20 54 C22.10332891 54.71447643 22.10332891 54.71447643 24 55 C24 55.99 24 56.98 24 58 C16.08 58 8.16 58 0 58 C0 57.01 0 56.02 0 55 C3.465 54.505 3.465 54.505 7 54 C7 38.16 7 22.32 7 6 C4.69 5.01 2.38 4.02 0 3 C0 2.01 0 1.02 0 0 Z " fill="#343131" transform="translate(132,215)"/>
<path d="M0 0 C4.3924631 -0.07482575 8.78457672 -0.12891683 13.17749023 -0.16479492 C14.66811598 -0.17977042 16.15869851 -0.20015819 17.64916992 -0.22631836 C28.65980431 -0.41456588 38.29090446 -0.14550392 47.13671875 7.17578125 C52.77871857 12.69950015 55.26816908 17.79366963 55.60913086 25.67358398 C55.65789435 33.01436468 55.41902911 39.84775887 51 46 C50.54882812 46.63035156 50.09765625 47.26070313 49.6328125 47.91015625 C43.99358411 54.51731191 35.50482597 57.545438 27.03686523 58.39990234 C22.91598503 58.54621017 18.80740696 58.44020796 14.6875 58.3125 C13.25329491 58.28733851 11.81904636 58.26453943 10.38476562 58.24414062 C6.92225119 58.18987404 3.4614192 58.10405709 0 58 C0 57.01 0 56.02 0 55 C3.465 54.505 3.465 54.505 7 54 C7.0505894 47.20071581 7.08568667 40.4014799 7.10986328 33.60205078 C7.11993892 31.28757921 7.13359975 28.97312041 7.15087891 26.65869141 C7.17505865 23.33753307 7.1864673 20.0165426 7.1953125 16.6953125 C7.20563507 15.65569366 7.21595764 14.61607483 7.22659302 13.54495239 C7.22681961 12.10368484 7.22681961 12.10368484 7.22705078 10.63330078 C7.231492 9.78502716 7.23593323 8.93675354 7.24050903 8.06277466 C7.19015361 5.77651455 7.19015361 5.77651455 5 4 C2.42938689 3.35232207 2.42938689 3.35232207 0 3 C0 2.01 0 1.02 0 0 Z M16 3 C15.87312163 9.60176043 15.78561623 16.203206 15.7253418 22.8059082 C15.70021277 25.05147044 15.66610385 27.296951 15.62280273 29.54223633 C15.56208224 32.77185218 15.53377369 36.00038584 15.51171875 39.23046875 C15.48591232 40.23272995 15.4601059 41.23499115 15.43351746 42.2676239 C15.42983559 48.13723138 15.42983559 48.13723138 18.38085938 53.13378906 C22.5936965 56.13555332 26.03059925 55.78144775 31 55 C36.64376241 53.57661724 39.393129 50.90281126 42.4375 46 C46.92991904 37.96995397 47.5434462 28.18260448 45.31640625 19.26171875 C42.67108706 12.90636683 38.76300824 7.74802562 32.9375 4.0625 C29.40630418 2.7459258 25.99102879 2.89391162 22.25390625 2.93359375 C20.49735718 2.94797485 20.49735718 2.94797485 18.70532227 2.96264648 C17.81256592 2.97497314 16.91980957 2.9872998 16 3 Z " fill="#343131" transform="translate(190,215)"/>
<path d="M0 0 C7.58521463 4.15040046 11.58134078 9.67442742 14.265625 17.73828125 C16.37792685 27.12004742 16.39054209 36.59953465 11.35546875 45.01953125 C10.90816406 45.67308594 10.46085937 46.32664062 10 47 C9.360625 47.94875 8.72125 48.8975 8.0625 49.875 C3.21860329 54.86568146 -2.22277193 57.63914819 -9.1484375 58.30078125 C-19.16594134 58.33716444 -25.79322486 57.09770403 -33.16796875 50.04296875 C-39.16910535 43.35086973 -40.4322622 37.15720526 -40.5 28.375 C-40.50644531 27.57545898 -40.51289063 26.77591797 -40.51953125 25.95214844 C-40.32661577 16.9630291 -37.53284651 10.59739942 -31.375 4.0546875 C-21.6174543 -4.38687342 -11.5630398 -4.52804752 0 0 Z M-26.1875 7.125 C-31.72967554 15.91603707 -31.91319588 25.92473995 -31 36 C-29.30423827 43.33960462 -26.70247402 49.50298264 -20.3125 53.8125 C-15.46262221 55.55113543 -10.94976557 56.02374217 -6.0078125 54.30859375 C-0.583765 51.52673248 1.96146028 47.56901931 4.1875 42.0625 C6.86882179 31.95597941 7.3071949 19.89462945 2.75 10.25 C0.03427285 5.57989117 -2.81027437 2.72990854 -8 1 C-16.00537729 0.15950428 -20.32305051 1.42810621 -26.1875 7.125 Z " fill="#353232" transform="translate(293,216)"/>
<path d="M0 0 C2 1 4 2 6 3 C9.465 2.505 9.465 2.505 13 2 C13 8.27 13 14.54 13 21 C12.01 20.67 11.02 20.34 10 20 C9.04296875 17.890625 9.04296875 17.890625 8.1875 15.25 C6.23953825 10.13843119 4.80311979 7.71874705 0 5 C-4.83282053 3.97537374 -7.94499302 4.32479553 -12.125 7 C-14.77692034 11.24307255 -14.08926814 13.17609823 -13 18 C-12.67 18.99 -12.34 19.98 -12 21 C-9.82792015 22.08696068 -9.82792015 22.08696068 -7 23 C11.95904417 30.2903681 11.95904417 30.2903681 15 37 C16.6447294 42.35020799 16.3150445 47.09234092 14.08203125 52.2109375 C11.29114191 56.82547656 7.04296727 59.3214757 2 61 C-5.50711772 61.8073297 -12.0666501 60.94142117 -19 58 C-19.66 58.66 -20.32 59.32 -21 60 C-21.99 60 -22.98 60 -24 60 C-24 53.4 -24 46.8 -24 40 C-23.01 40 -22.02 40 -21 40 C-20.76925781 40.58007812 -20.53851563 41.16015625 -20.30078125 41.7578125 C-17.82108357 47.69732551 -15.4235414 52.96438079 -9.6875 56.375 C-4.78351256 57.5154622 -0.68178818 57.78722 3.9375 55.625 C6.24931255 53.80357193 6.89054661 52.91330777 7.23828125 50.01171875 C7.26277344 49.24472656 7.28726562 48.47773438 7.3125 47.6875 C7.34988281 46.92824219 7.38726562 46.16898437 7.42578125 45.38671875 C6.8044173 41.90366029 5.54153031 40.46223139 3 38 C0.30181555 36.56666843 -2.50281966 35.53141871 -5.375 34.5 C-11.82264824 32.16048875 -17.36515912 29.90290551 -21.35546875 23.9921875 C-22.98445229 18.95714746 -22.53154218 13.65716091 -20.9375 8.6875 C-15.68487073 1.40159489 -8.74875331 -0.91854381 0 0 Z " fill="#363333" transform="translate(444,213)"/>
<path d="M0 0 C16.5 0 33 0 50 0 C50 4.95 50 9.9 50 15 C49.01 15 48.02 15 47 15 C46.74605469 14.45730469 46.49210937 13.91460937 46.23046875 13.35546875 C45.88628906 12.64003906 45.54210937 11.92460937 45.1875 11.1875 C44.85105469 10.47980469 44.51460938 9.77210938 44.16796875 9.04296875 C42.91924357 6.85874377 41.97232733 5.56602952 40 4 C37.26769695 3.42224116 37.26769695 3.42224116 34.3125 3.3125 C33.31863281 3.24675781 32.32476562 3.18101562 31.30078125 3.11328125 C30.54152344 3.07589844 29.78226562 3.03851563 29 3 C29.11741384 9.79944841 29.24224834 16.59873113 29.37231445 23.39794922 C29.41570376 25.71237069 29.45737584 28.026825 29.49731445 30.34130859 C29.55492032 33.66253573 29.61864251 36.98359692 29.68359375 40.3046875 C29.70030624 41.34430634 29.71701874 42.38392517 29.73423767 43.45504761 C29.75418289 44.41589264 29.77412811 45.37673767 29.79467773 46.36669922 C29.81799416 47.63910965 29.81799416 47.63910965 29.84178162 48.93722534 C29.87429958 51.06318305 29.87429958 51.06318305 31 53 C32.88764903 53.68472665 32.88764903 53.68472665 35.0625 54.125 C35.79597656 54.29257812 36.52945313 54.46015625 37.28515625 54.6328125 C38.13400391 54.81457031 38.13400391 54.81457031 39 55 C39 55.99 39 56.98 39 58 C29.76 58 20.52 58 11 58 C11 57.01 11 56.02 11 55 C12.11375 54.87625 13.2275 54.7525 14.375 54.625 C18.03103677 54.3534187 18.03103677 54.3534187 20 52 C20.33052455 49.81875409 20.33052455 49.81875409 20.31884766 47.27490234 C20.33871735 46.29403656 20.35858704 45.31317078 20.37905884 44.30258179 C20.39061005 43.24108917 20.40216125 42.17959656 20.4140625 41.0859375 C20.43342865 40.00116119 20.4527948 38.91638489 20.4727478 37.79873657 C20.53266426 34.32423841 20.57897739 30.84970733 20.625 27.375 C20.66316865 25.02342282 20.70221971 22.67185979 20.7421875 20.3203125 C20.83837559 14.5470003 20.92338753 8.77360334 21 3 C19.39368663 3.10932038 17.78836086 3.23321926 16.18359375 3.36328125 C15.28954834 3.43071533 14.39550293 3.49814941 13.47436523 3.56762695 C9.69744665 4.22760947 8.22190576 5.97012851 6 9 C4.20679176 12.16645474 4.20679176 12.16645474 3 15 C2.01 15 1.02 15 0 15 C0 10.05 0 5.1 0 0 Z " fill="#312E2E" transform="translate(364,215)"/>
<path d="M0 0 C7.92 0 15.84 0 24 0 C24 0.99 24 1.98 24 3 C21.69 3.33 19.38 3.66 17 4 C16.9494106 10.79928419 16.91431333 17.5985201 16.89013672 24.39794922 C16.88006108 26.71242079 16.86640025 29.02687959 16.84912109 31.34130859 C16.82494135 34.66246693 16.8135327 37.9834574 16.8046875 41.3046875 C16.79436493 42.34430634 16.78404236 43.38392517 16.77340698 44.45504761 C16.77325592 45.41589264 16.77310486 46.37673767 16.77294922 47.36669922 C16.76628738 48.63910965 16.76628738 48.63910965 16.75949097 49.93722534 C16.80984639 52.22348545 16.80984639 52.22348545 19 54 C21.95644134 54.32089892 21.95644134 54.32089892 25.3125 54.25 C26.44300781 54.25515625 27.57351563 54.2603125 28.73828125 54.265625 C32.05522285 53.99550281 34.12413153 53.66139699 37 52 C39.02769988 49.40296754 39.02769988 49.40296754 40.6875 46.375 C41.74298512 44.55422966 42.83597484 42.75336787 44 41 C44.66 41 45.32 41 46 41 C46 46.61 46 52.22 46 58 C30.82 58 15.64 58 0 58 C0 57.01 0 56.02 0 55 C3.465 54.505 3.465 54.505 7 54 C7 38.16 7 22.32 7 6 C4.69 5.01 2.38 4.02 0 3 C0 2.01 0 1.02 0 0 Z " fill="#322F2F" transform="translate(316,215)"/>
<path d="M0 0 C2.46800047 1.15173355 4.04783565 2.04783565 6 4 C8.9628331 3.60495559 11.38326241 2.40182371 14 1 C16.0417918 3.0417918 15.27587083 7.02135762 15.3125 9.8125 C15.34150391 10.53759766 15.37050781 11.26269531 15.40039062 12.00976562 C15.43927893 15.27937481 15.21849683 17.61135717 13.60546875 20.48046875 C9.52932596 22.85770945 5.63212181 22.5794078 1 22.5 C-0.35351562 22.52320313 -0.35351562 22.52320313 -1.734375 22.546875 C-5.59870564 22.52400914 -8.23145485 22.44640048 -11.609375 20.484375 C-13.58791715 16.9496761 -13.43048313 13.67897893 -13.25 9.75 C-13.23195312 9.00492188 -13.21390625 8.25984375 -13.1953125 7.4921875 C-13.14835649 5.66090299 -13.07661652 3.83028351 -13 2 C-8.73173127 2 -8.06117568 2.37613513 -5 5 C-3.35 3.35 -1.7 1.7 0 0 Z " fill="#1C1C1C" transform="translate(261,184)"/>
<path d="M0 0 C2.46800047 1.15173355 4.04783565 2.04783565 6 4 C8.60280568 3.67958603 8.60280568 3.67958603 11 3 C11 6.3 11 9.6 11 13 C4.4 13 -2.2 13 -9 13 C-9 9.7 -9 6.4 -9 3 C-8.2575 3.2475 -7.515 3.495 -6.75 3.75 C-5.8425 3.8325 -4.935 3.915 -4 4 C-1.66545339 2.16641665 -1.66545339 2.16641665 0 0 Z " fill="#FDFDFD" transform="translate(261,189)"/>
<path d="M0 0 C1.423125 0.4021875 1.423125 0.4021875 2.875 0.8125 C4.27435013 3.61120027 4.12765405 5.71748792 3.875 8.8125 C2.6875 10.75 2.6875 10.75 0.875 11.8125 C-2.46692692 11.56796876 -3.73043557 11.20706443 -6.125 8.8125 C-6.45802312 5.6820827 -6.60171956 3.63351702 -5 0.875 C-3.125 -0.1875 -3.125 -0.1875 0 0 Z " fill="#9D9C9C" transform="translate(135.125,289.1875)"/>
<path d="M0 0 C0.66 0 1.32 0 2 0 C2.99 2.97 3.98 5.94 5 9 C5.66 9 6.32 9 7 9 C7 9.66 7 10.32 7 11 C3.04 11 -0.92 11 -5 11 C-5 10.34 -5 9.68 -5 9 C-4.34 9 -3.68 9 -3 9 C-2.01 6.03 -1.02 3.06 0 0 Z " fill="#B7B6B6" transform="translate(194,290)"/>
<path d="M0 0 C6.75 -0.125 6.75 -0.125 9 1 C9 2.32 9 3.64 9 5 C8.34 5 7.68 5 7 5 C8.11854586 8.72614153 8.11854586 8.72614153 11 11 C8.13275314 10.42655063 7.1385485 10.1385485 5 8 C4.67 8.99 4.34 9.98 4 11 C3.01 10.67 2.02 10.34 1 10 C1.33 7.36 1.66 4.72 2 2 C1.34 2 0.68 2 0 2 C0 1.34 0 0.68 0 0 Z " fill="#737171" transform="translate(148,289)"/>
<path d="M0 0 C0.99 0 1.98 0 3 0 C4.6875 2 4.6875 2 6 4 C6.66 2.68 7.32 1.36 8 0 C8.99 0 9.98 0 11 0 C11.33 3.3 11.66 6.6 12 10 C10.68 9.67 9.36 9.34 8 9 C8 7.68 8 6.36 8 5 C7.34 6.65 6.68 8.3 6 10 C5.34 10 4.68 10 4 10 C3.34 8.02 2.68 6.04 2 4 C2 5.98 2 7.96 2 10 C1.01 9.67 0.02 9.34 -1 9 C-0.67 6.03 -0.34 3.06 0 0 Z " fill="#4D4A4A" transform="translate(169,290)"/>
<path d="M0 0 C3.3 0 6.6 0 10 0 C10 1.32 10 2.64 10 4 C9.34 4 8.68 4 8 4 C7.67 5.32 7.34 6.64 7 8 C6.01 7.34 5.02 6.68 4 6 C4.33 7.65 4.66 9.3 5 11 C3.68 10.67 2.36 10.34 1 10 C1.03255208 7.98177083 1.06510417 5.96354167 1.09765625 3.9453125 C1.12649242 1.91814596 1.12649242 1.91814596 0 0 Z " fill="#BBBABA" transform="translate(111,289)"/>
<path d="M0 0 C4.29425875 1.07356469 4.74740471 1.5084773 7 5 C7 3.35 7 1.7 7 0 C7.66 0 8.32 0 9 0 C9 3.3 9 6.6 9 10 C5.60085025 8.86695008 4.94745549 7.87481525 3 5 C3 6.65 3 8.3 3 10 C1.68 9.67 0.36 9.34 -1 9 C-0.67 6.03 -0.34 3.06 0 0 Z " fill="#423F3F" transform="translate(475,290)"/>
<path d="M0 0 C1.875 1.0625 1.875 1.0625 3 3 C2.6875 6.6875 2.6875 6.6875 2 10 C0.68 10.33 -0.64 10.66 -2 11 C-1.67 10.34 -1.34 9.68 -1 9 C-0.960008 7.00039988 -0.95653201 4.99952758 -1 3 C-2.32 3 -3.64 3 -5 3 C-4.67 5.64 -4.34 8.28 -4 11 C-5.32 10.34 -6.64 9.68 -8 9 C-8.36190476 3.57142857 -8.36190476 3.57142857 -6.8125 1.125 C-4.34492892 -0.40659584 -2.85480169 -0.42822025 0 0 Z " fill="#676565" transform="translate(355,289)"/>
<path d="M0 0 C1.875 1.0625 1.875 1.0625 3 3 C2.6875 6.6875 2.6875 6.6875 2 10 C0.68 10.33 -0.64 10.66 -2 11 C-1.67 10.34 -1.34 9.68 -1 9 C-0.960008 7.00039988 -0.95653201 4.99952758 -1 3 C-2.32 3 -3.64 3 -5 3 C-4.67 5.64 -4.34 8.28 -4 11 C-5.32 10.34 -6.64 9.68 -8 9 C-8.36190476 3.57142857 -8.36190476 3.57142857 -6.8125 1.125 C-4.34492892 -0.40659584 -2.85480169 -0.42822025 0 0 Z " fill="#676565" transform="translate(249,289)"/>
<path d="M0 0 C3.63 0 7.26 0 11 0 C11 1.32 11 2.64 11 4 C10.34 4 9.68 4 9 4 C9 3.34 9 2.68 9 2 C8.34 2 7.68 2 7 2 C7 4.97 7 7.94 7 11 C6.01 11 5.02 11 4 11 C4 8.03 4 5.06 4 2 C2.68 2.33 1.36 2.66 0 3 C0 2.01 0 1.02 0 0 Z " fill="#858383" transform="translate(441,289)"/>
<path d="M0 0 C3.63 0 7.26 0 11 0 C11 1.32 11 2.64 11 4 C10.34 4 9.68 4 9 4 C9 3.34 9 2.68 9 2 C8.34 2 7.68 2 7 2 C7 4.97 7 7.94 7 11 C6.01 11 5.02 11 4 11 C4 8.03 4 5.06 4 2 C2.68 2.33 1.36 2.66 0 3 C0 2.01 0 1.02 0 0 Z " fill="#858383" transform="translate(208,289)"/>
<path d="M0 0 C3.63 0 7.26 0 11 0 C11 1.32 11 2.64 11 4 C10.34 4 9.68 4 9 4 C9 3.34 9 2.68 9 2 C8.34 2 7.68 2 7 2 C7 4.97 7 7.94 7 11 C6.01 11 5.02 11 4 11 C4 8.03 4 5.06 4 2 C2.68 2.33 1.36 2.66 0 3 C0 2.01 0 1.02 0 0 Z " fill="#858383" transform="translate(17,289)"/>
<path d="M0 0 C1.32 0 2.64 0 4 0 C3.9129995 1.62600941 3.8048219 3.25089678 3.6875 4.875 C3.62949219 5.77992188 3.57148438 6.68484375 3.51171875 7.6171875 C3 10 3 10 0 12 C-4.54054054 11.45945946 -4.54054054 11.45945946 -6 10 C-6.07179964 8.48071962 -6.08392007 6.95832518 -6.0625 5.4375 C-6.05347656 4.61121094 -6.04445313 3.78492188 -6.03515625 2.93359375 C-6.02355469 2.29550781 -6.01195312 1.65742188 -6 1 C-5.34 1 -4.68 1 -4 1 C-4 3.97 -4 6.94 -4 10 C-2.35 10 -0.7 10 1 10 C0.67 6.7 0.34 3.4 0 0 Z " fill="#706E6E" transform="translate(411,289)"/>
<path d="M0 0 C0.66 0 1.32 0 2 0 C2 1.32 2 2.64 2 4 C2.99 4 3.98 4 5 4 C5 2.68 5 1.36 5 0 C5.99 0.33 6.98 0.66 8 1 C7.79375 1.928125 7.5875 2.85625 7.375 3.8125 C6.63307034 7.15173402 6.63307034 7.15173402 9 10 C8.01 10 7.02 10 6 10 C5.34 9.01 4.68 8.02 4 7 C3.67 7.99 3.34 8.98 3 10 C2.01 10 1.02 10 0 10 C0 6.7 0 3.4 0 0 Z " fill="#555353" transform="translate(37,290)"/>
<path d="M0 0 C4.29425875 1.07356469 4.74740471 1.5084773 7 5 C7.33 3.35 7.66 1.7 8 0 C8.66 0.33 9.32 0.66 10 1 C9.67 3.97 9.34 6.94 9 10 C4.125 6.25 4.125 6.25 3 4 C3 5.98 3 7.96 3 10 C2.01 10 1.02 10 0 10 C0 6.7 0 3.4 0 0 Z " fill="#565454" transform="translate(75,290)"/>
<path d="M0 0 C1.32 0.66 2.64 1.32 4 2 C4.07427838 5.34252724 4.06546953 7.8035914 3 11 C1.68 10.67 0.36 10.34 -1 10 C-1.9765625 3.9453125 -1.9765625 3.9453125 -2 2 C-1.34 1.34 -0.68 0.68 0 0 Z " fill="#EAE9E9" transform="translate(351,290)"/>
<path d="M0 0 C1.32 0.66 2.64 1.32 4 2 C4.07427838 5.34252724 4.06546953 7.8035914 3 11 C1.68 10.67 0.36 10.34 -1 10 C-1.9765625 3.9453125 -1.9765625 3.9453125 -2 2 C-1.34 1.34 -0.68 0.68 0 0 Z " fill="#EAE9E9" transform="translate(245,290)"/>
<path d="M0 0 C1.98 0 3.96 0 6 0 C5.67 1.32 5.34 2.64 5 4 C4.01 3.34 3.02 2.68 2 2 C2 2.66 2 3.32 2 4 C3.32 4.66 4.64 5.32 6 6 C6 7.65 6 9.3 6 11 C1.25 12.125 1.25 12.125 -1 11 C-0.67 10.01 -0.34 9.02 0 8 C1.32 8.66 2.64 9.32 4 10 C3.33131686 6.88667752 3.33131686 6.88667752 0.9375 5.8125 C0.298125 5.544375 -0.34125 5.27625 -1 5 C-0.67 3.35 -0.34 1.7 0 0 Z " fill="#646262" transform="translate(388,289)"/>
<path d="M0 0 C3.37641082 3.37641082 4.27450305 5.64517436 6 10 C4.68 10 3.36 10 2 10 C2 9.01 2 8.02 2 7 C0.68 7 -0.64 7 -2 7 C-2 7.99 -2 8.98 -2 10 C-2.99 9.67 -3.98 9.34 -5 9 C-3.35 6.03 -1.7 3.06 0 0 Z " fill="#474545" transform="translate(285,290)"/>
<path d="M0 0 C3.83736322 0.95934081 4.59660228 1.23609263 7 4 C7.33 2.68 7.66 1.36 8 0 C8.66 0.33 9.32 0.66 10 1 C9.67 3.97 9.34 6.94 9 10 C7 8 5 6 3 4 C3 5.98 3 7.96 3 10 C2.01 9.67 1.02 9.34 0 9 C0 6.03 0 3.06 0 0 Z " fill="#504E4E" transform="translate(367,290)"/>
<path d="M0 0 C3.83736322 0.95934081 4.59660228 1.23609263 7 4 C7.33 2.68 7.66 1.36 8 0 C8.66 0.33 9.32 0.66 10 1 C9.67 3.97 9.34 6.94 9 10 C7 8 5 6 3 4 C3 5.98 3 7.96 3 10 C2.01 9.67 1.02 9.34 0 9 C0 6.03 0 3.06 0 0 Z " fill="#504E4E" transform="translate(261,290)"/>
<path d="M0 0 C2 1 2 1 2.8515625 3.06640625 C3.10679688 3.89011719 3.36203125 4.71382813 3.625 5.5625 C3.88539062 6.38878906 4.14578125 7.21507812 4.4140625 8.06640625 C4.60742188 8.70449219 4.80078125 9.34257812 5 10 C4.01 10 3.02 10 2 10 C2 9.01 2 8.02 2 7 C0.68 7 -0.64 7 -2 7 C-2 7.99 -2 8.98 -2 10 C-2.99 9.67 -3.98 9.34 -5 9 C-3.35 6.03 -1.7 3.06 0 0 Z " fill="#3D3B3B" transform="translate(60,290)"/>
<path d="M0 0 C-0.33 1.32 -0.66 2.64 -1 4 C-1.61875 3.67 -2.2375 3.34 -2.875 3 C-4.91018344 1.85806765 -4.91018344 1.85806765 -7 2 C-6.51515724 6.64586892 -6.51515724 6.64586892 -5 11 C-6.32 10.67 -7.64 10.34 -9 10 C-10.31372549 4.74509804 -10.31372549 4.74509804 -9 1.625 C-6.06949364 -0.75603642 -3.65292086 -0.27569214 0 0 Z " fill="#7A7979" transform="translate(504,289)"/>
<path d="M0 0 C1.98 0 3.96 0 6 0 C6 1.32 6 2.64 6 4 C5.34 4 4.68 4 4 4 C4 3.34 4 2.68 4 2 C3.01 2 2.02 2 1 2 C2.63412443 3.70840281 3.86906094 4.93453047 6 6 C5.67 7.65 5.34 9.3 5 11 C4.34 10.67 3.68 10.34 3 10 C3 9.01 3 8.02 3 7 C1.68 6.34 0.36 5.68 -1 5 C-0.67 3.35 -0.34 1.7 0 0 Z " fill="#656363" transform="translate(96,289)"/>
<path d="M0 0 C-0.33 1.32 -0.66 2.64 -1 4 C-1 3.34 -1 2.68 -1 2 C-2.65 2.33 -4.3 2.66 -6 3 C-6 5.31 -6 7.62 -6 10 C-5.34 10.33 -4.68 10.66 -4 11 C-7.875 10.125 -7.875 10.125 -9 9 C-9.4556962 3.75949367 -9.4556962 3.75949367 -7.875 1.125 C-5.21965017 -0.4682099 -3.03210482 -0.20214032 0 0 Z " fill="#514F4F" transform="translate(338,289)"/>
<path d="M0 0 C0 1.65 0 3.3 0 5 C-2.97 4.505 -2.97 4.505 -6 4 C-6 2.68 -6 1.36 -6 0 C-3.50907189 -1.24546405 -2.58919267 -0.7767578 0 0 Z " fill="#BFBEBE" transform="translate(100,296)"/>
<path d="M0 0 C1.32 0 2.64 0 4 0 C4 0.99 4 1.98 4 3 C5.65 2.67 7.3 2.34 9 2 C9 2.66 9 3.32 9 4 C4.71 4 0.42 4 -4 4 C-3.67 3.34 -3.34 2.68 -3 2 C-2.01 2.33 -1.02 2.66 0 3 C0 2.01 0 1.02 0 0 Z " fill="#E4E4E4" transform="translate(283,297)"/>
<path d="M0 0 C0.66 0 1.32 0 2 0 C2 1.32 2 2.64 2 4 C2.99 4.33 3.98 4.66 5 5 C4.01 5 3.02 5 2 5 C2.33 6.65 2.66 8.3 3 10 C1.68 9.67 0.36 9.34 -1 9 C-0.67 6.03 -0.34 3.06 0 0 Z " fill="#3B3939" transform="translate(113,290)"/>
<path d="M0 0 C0.66 0 1.32 0 2 0 C3.32 3.3 4.64 6.6 6 10 C5.01 10 4.02 10 3 10 C2.34 8.02 1.68 6.04 1 4 C0.34 4 -0.32 4 -1 4 C-0.67 2.68 -0.34 1.36 0 0 Z " fill="#3F3C3C" transform="translate(194,290)"/>
<path d="M0 0 C0.99 0 1.98 0 3 0 C3.33 3.3 3.66 6.6 4 10 C2.68 9.67 1.36 9.34 0 9 C0 6.03 0 3.06 0 0 Z " fill="#353333" transform="translate(177,290)"/>
<path d="M0 0 C1.98 0 3.96 0 6 0 C5.34 0.66 4.68 1.32 4 2 C3.67 2 3.34 2 3 2 C3 3.65 3 5.3 3 7 C1.68 6.01 0.36 5.02 -1 4 C-0.67 2.68 -0.34 1.36 0 0 Z " fill="#D4D4D4" transform="translate(480,289)"/>
<path d="M0 0 C0.66 0 1.32 0 2 0 C2 1.32 2 2.64 2 4 C-1.3 4 -4.6 4 -8 4 C-7.67 3.34 -7.34 2.68 -7 2 C-4.69 2 -2.38 2 0 2 C0 1.34 0 0.68 0 0 Z " fill="#ADACAC" transform="translate(432,297)"/>
<path d="M0 0 C0.99 0.33 1.98 0.66 3 1 C3.33 1.99 3.66 2.98 4 4 C2.68 4 1.36 4 0 4 C0 4.99 0 5.98 0 7 C-0.99 6.67 -1.98 6.34 -3 6 C-2.01 4.02 -1.02 2.04 0 0 Z " fill="#828181" transform="translate(58,293)"/>
<path d="M0 0 C0.66 0.33 1.32 0.66 2 1 C1.67 1.33 1.34 1.66 1 2 C1.1018371 3.91424457 1.1018371 3.91424457 1.4375 6.0625 C1.623125 7.361875 1.80875 8.66125 2 10 C0.68 9.34 -0.64 8.68 -2 8 C-2.125 5.125 -2.125 5.125 -2 2 C-1.34 1.34 -0.68 0.68 0 0 Z " fill="#3E3B3B" transform="translate(349,290)"/>
<path d="M0 0 C0.66 0.33 1.32 0.66 2 1 C1.67 1.33 1.34 1.66 1 2 C1.1018371 3.91424457 1.1018371 3.91424457 1.4375 6.0625 C1.623125 7.361875 1.80875 8.66125 2 10 C0.68 9.34 -0.64 8.68 -2 8 C-2.125 5.125 -2.125 5.125 -2 2 C-1.34 1.34 -0.68 0.68 0 0 Z " fill="#3E3B3B" transform="translate(243,290)"/>
<path d="M0 0 C0.66 0 1.32 0 2 0 C1.67 1.32 1.34 2.64 1 4 C-1.97 4 -4.94 4 -8 4 C-7.67 3.34 -7.34 2.68 -7 2 C-4.69 2 -2.38 2 0 2 C0 1.34 0 0.68 0 0 Z " fill="#A8A7A7" transform="translate(307,297)"/>
<path d="M0 0 C0.99 0 1.98 0 3 0 C3.33 1.32 3.66 2.64 4 4 C2.68 4 1.36 4 0 4 C0 4.99 0 5.98 0 7 C-0.99 6.67 -1.98 6.34 -3 6 C-2.01 4.02 -1.02 2.04 0 0 Z " fill="#818080" transform="translate(283,293)"/>
<path d="M0 0 C1.5 1.125 1.5 1.125 3 3 C3.1875 6.1875 3.1875 6.1875 3 9 C1.68 8.67 0.36 8.34 -1 8 C-0.67 5.36 -0.34 2.72 0 0 Z " fill="#807F7F" transform="translate(475,291)"/>
<path d="M0 0 C1.32 0.33 2.64 0.66 4 1 C4 1.99 4 2.98 4 4 C3.67 4 3.34 4 3 4 C3 5.98 3 7.96 3 10 C2.01 9.67 1.02 9.34 0 9 C0 6.03 0 3.06 0 0 Z " fill="#3A3838" transform="translate(367,290)"/>
<path d="M0 0 C1.32 0.33 2.64 0.66 4 1 C4 1.99 4 2.98 4 4 C3.67 4 3.34 4 3 4 C3 5.98 3 7.96 3 10 C2.01 9.67 1.02 9.34 0 9 C0 6.03 0 3.06 0 0 Z " fill="#3A3838" transform="translate(261,290)"/>
<path d="M0 0 C2.31 0 4.62 0 7 0 C6.67 1.65 6.34 3.3 6 5 C5.01 5 4.02 5 3 5 C3 3.68 3 2.36 3 1 C2.01 1.33 1.02 1.66 0 2 C0 1.34 0 0.68 0 0 Z " fill="#CAC9C9" transform="translate(36,289)"/>
<path d="M0 0 C0 0.99 0 1.98 0 3 C-0.61875 2.79375 -1.2375 2.5875 -1.875 2.375 C-2.57625 2.25125 -3.2775 2.1275 -4 2 C-4.66 2.66 -5.32 3.32 -6 4 C-6 2.68 -6 1.36 -6 0 C-3.50907189 -1.24546405 -2.58919267 -0.7767578 0 0 Z " fill="#E8E8E8" transform="translate(392,296)"/>
<path d="M0 0 C0.99 0 1.98 0 3 0 C3.33 0.99 3.66 1.98 4 3 C3.01 3 2.02 3 1 3 C1.33 5.31 1.66 7.62 2 10 C1.01 9.67 0.02 9.34 -1 9 C-0.67 6.03 -0.34 3.06 0 0 Z " fill="#383636" transform="translate(169,290)"/>
<path d="M0 0 C0.33 0 0.66 0 1 0 C1.309375 0.94875 1.61875 1.8975 1.9375 2.875 C2.87394742 5.86080408 2.87394742 5.86080408 4 8 C2.68 7.67 1.36 7.34 0 7 C-0.38133299 5.0085944 -0.71325582 3.00720923 -1 1 C-0.67 0.67 -0.34 0.34 0 0 Z " fill="#434141" transform="translate(495,292)"/>
</svg>
