<?xml version="1.0" encoding="UTF-8"?>
<svg version="1.1" xmlns="http://www.w3.org/2000/svg" width="2560" height="768">
<path d="M0 0 C15.84 0 31.68 0 48 0 C48.33 66.99 48.66 133.98 49 203 C53.29 199.37 57.58 195.74 62 192 C87.01733876 173.2495801 118.44087996 159.99859052 150.0234375 159.796875 C151.1323082 159.78628555 151.1323082 159.78628555 152.26358032 159.77548218 C182.99984918 159.54846919 182.99984918 159.54846919 196 163 C196.79180664 163.20399414 197.58361328 163.40798828 198.39941406 163.61816406 C233.13160009 172.77083449 265.23880388 192.02492751 287 221 C287.78632813 222.00933594 288.57265625 223.01867187 289.3828125 224.05859375 C307.72589865 248.13615555 320.00860479 279.56744804 320.203125 310.0234375 C320.21018463 310.76268463 320.21724426 311.50193176 320.22451782 312.26358032 C320.45153081 342.99984918 320.45153081 342.99984918 317 356 C316.69400879 357.18770996 316.69400879 357.18770996 316.38183594 358.39941406 C307.22916551 393.13160009 287.97507249 425.23880388 259 447 C257.99066406 447.78632812 256.98132812 448.57265625 255.94140625 449.3828125 C231.86384445 467.72589865 200.43255196 480.00860479 169.9765625 480.203125 C168.8676918 480.21371445 168.8676918 480.21371445 167.73641968 480.22451782 C137.00015082 480.45153081 137.00015082 480.45153081 124 477 C122.81229004 476.69400879 122.81229004 476.69400879 121.60058594 476.38183594 C93.77179059 469.04835592 70.75890392 455.65048908 49 437 C48.67 451.19 48.34 465.38 48 480 C32.16 480 16.32 480 0 480 C0 321.6 0 163.2 0 0 Z M83 239 C82.38640625 239.52851563 81.7728125 240.05703125 81.140625 240.6015625 C60.64020385 259.63766785 49.62806487 288.30313881 48.07470703 315.74243164 C46.99863864 346.61075223 58.94180571 373.97290331 79 397 C79.79277344 397.92039062 79.79277344 397.92039062 80.6015625 398.859375 C99.22709939 418.91764549 127.69169674 430.40376989 154.62133789 431.92529297 C186.05935989 433.01078248 214.74949862 421.65924327 237.66650391 400.37646484 C251.18722754 387.2902874 261.19574598 370.87159637 267 353 C267.29519531 352.10925781 267.59039063 351.21851563 267.89453125 350.30078125 C275.73896679 323.21236099 272.35546807 293.31494185 259.03515625 268.6171875 C253.86164359 259.33064715 247.98760402 251.02187032 241 243 C240.47148437 242.38640625 239.94296875 241.7728125 239.3984375 241.140625 C220.54474891 220.83665268 191.90932313 209.50643212 164.66625977 208.07470703 C133.58235837 207.06605408 106.23320121 218.76227442 83 239 Z " fill="#004BE6" transform="translate(2056,145)"/>
<path d="M0 0 C15.84 0 31.68 0 48 0 C48.33 66.99 48.66 133.98 49 203 C53.29 199.37 57.58 195.74 62 192 C87.01733876 173.2495801 118.44087996 159.99859052 150.0234375 159.796875 C151.1323082 159.78628555 151.1323082 159.78628555 152.26358032 159.77548218 C182.99984918 159.54846919 182.99984918 159.54846919 196 163 C196.79180664 163.20399414 197.58361328 163.40798828 198.39941406 163.61816406 C233.13160009 172.77083449 265.23880388 192.02492751 287 221 C287.78632812 222.00933594 288.57265625 223.01867187 289.3828125 224.05859375 C307.72589865 248.13615555 320.00860479 279.56744804 320.203125 310.0234375 C320.21018463 310.76268463 320.21724426 311.50193176 320.22451782 312.26358032 C320.45153081 342.99984918 320.45153081 342.99984918 317 356 C316.69400879 357.18770996 316.69400879 357.18770996 316.38183594 358.39941406 C307.22916551 393.13160009 287.97507249 425.23880388 259 447 C257.99066406 447.78632812 256.98132812 448.57265625 255.94140625 449.3828125 C231.86384445 467.72589865 200.43255196 480.00860479 169.9765625 480.203125 C168.8676918 480.21371445 168.8676918 480.21371445 167.73641968 480.22451782 C137.00015082 480.45153081 137.00015082 480.45153081 124 477 C122.81229004 476.69400879 122.81229004 476.69400879 121.60058594 476.38183594 C93.77179059 469.04835592 70.75890392 455.65048908 49 437 C48.67 451.19 48.34 465.38 48 480 C32.16 480 16.32 480 0 480 C0 321.6 0 163.2 0 0 Z M83 239 C82.38640625 239.52851563 81.7728125 240.05703125 81.140625 240.6015625 C60.64020385 259.63766785 49.62806487 288.30313881 48.07470703 315.74243164 C46.99863864 346.61075223 58.94180571 373.97290331 79 397 C79.79277344 397.92039062 79.79277344 397.92039062 80.6015625 398.859375 C99.22709939 418.91764549 127.69169674 430.40376989 154.62133789 431.92529297 C186.05935989 433.01078248 214.74949862 421.65924327 237.66650391 400.37646484 C251.18722754 387.2902874 261.19574598 370.87159637 267 353 C267.29519531 352.10925781 267.59039063 351.21851563 267.89453125 350.30078125 C275.73896679 323.21236099 272.35546807 293.31494185 259.03515625 268.6171875 C253.86164359 259.33064715 247.98760402 251.02187032 241 243 C240.47148438 242.38640625 239.94296875 241.7728125 239.3984375 241.140625 C220.54474891 220.83665268 191.90932313 209.50643212 164.66625977 208.07470703 C133.58235837 207.06605408 106.23320121 218.76227442 83 239 Z " fill="#004BE6" transform="translate(1320,145)"/>
<path d="M0 0 C15.84 0 31.68 0 48 0 C48.33 56.76 48.66 113.52 49 172 C54.28 169.69 59.56 167.38 65 165 C75.95351172 161.42483523 86.48350903 160.41124343 97.98046875 160.48242188 C99.49232653 160.47698046 101.00417899 160.46984666 102.51602173 160.46118164 C106.56575032 160.44318466 110.61506432 160.44991619 114.66479874 160.46269798 C118.93824487 160.47295008 123.21165963 160.46339892 127.48510742 160.45715332 C134.65647642 160.44991196 141.8276797 160.45937162 148.99902344 160.47851562 C157.24537154 160.5002776 165.49132379 160.49322372 173.73766232 160.47121 C180.86605899 160.4529551 187.99433774 160.45054657 195.12275028 160.46096468 C199.35911084 160.4671446 203.59528645 160.46818951 207.83163452 160.45481873 C211.81778516 160.44311238 215.80343426 160.45154973 219.78953171 160.47439575 C221.23692372 160.47960515 222.68435929 160.47830588 224.13173294 160.46934509 C250.61966597 160.32069966 274.13944486 170.41909065 293 189 C310.63230001 206.60286378 320.32875187 230.01926661 320.54211426 254.82626343 C320.53434336 256.21100088 320.5261511 257.59573603 320.51757812 258.98046875 C320.52301954 260.49232653 320.53015334 262.00417899 320.53881836 263.51602173 C320.55681534 267.56575032 320.55008381 271.61506432 320.53730202 275.66479874 C320.52704992 279.93824487 320.53660108 284.21165963 320.54284668 288.48510742 C320.55008804 295.65647642 320.54062838 302.8276797 320.52148438 309.99902344 C320.4997224 318.24537154 320.50677628 326.49132379 320.52879 334.73766232 C320.5470449 341.86605899 320.54945343 348.99433774 320.53903532 356.12275028 C320.5328554 360.35911084 320.53181049 364.59528645 320.54518127 368.83163452 C320.55688762 372.81778516 320.54845027 376.80343426 320.52560425 380.78953171 C320.52039485 382.23692372 320.52169412 383.68435929 320.53065491 385.13173294 C320.6835436 412.37579577 310.00374673 435.75330765 291 455 C273.8539464 472.17582105 250.2538183 481.33500399 226.17373657 481.54211426 C224.78899912 481.53434336 223.40426397 481.5261511 222.01953125 481.51757812 C220.50767347 481.52301954 218.99582101 481.53015334 217.48397827 481.53881836 C213.43424968 481.55681534 209.38493568 481.55008381 205.33520126 481.53730202 C201.06175513 481.52704992 196.78834037 481.53660108 192.51489258 481.54284668 C185.34352358 481.55008804 178.1723203 481.54062838 171.00097656 481.52148438 C162.75462846 481.4997224 154.50867621 481.50677628 146.26233768 481.52879 C139.13394101 481.5470449 132.00566226 481.54945343 124.87724972 481.53903532 C120.64088916 481.5328554 116.40471355 481.53181049 112.16836548 481.54518127 C108.18221484 481.55688762 104.19656574 481.54845027 100.21046829 481.52560425 C98.76307628 481.52039485 97.31564071 481.52169412 95.86826706 481.53065491 C69.38033403 481.67930034 45.86055514 471.58090935 27 453 C9.88044226 435.90902249 -0.26054959 412.76708914 -0.51454376 388.5452424 C-0.51637686 386.29929317 -0.49894949 384.05396168 -0.48101807 381.80809021 C-0.48276751 380.14762026 -0.48627923 378.48715141 -0.49137473 376.82668835 C-0.50022542 372.31572389 -0.48444946 367.80514674 -0.46426249 363.29423153 C-0.44685718 358.41036859 -0.45284336 353.52652443 -0.45587158 348.64263916 C-0.45796074 340.19817948 -0.44549742 331.75384421 -0.42292023 323.30941582 C-0.39029954 311.10047398 -0.37998294 298.8915918 -0.37496826 286.68261112 C-0.36623135 266.87048601 -0.33965943 247.0584271 -0.30175781 227.24633789 C-0.26499611 208.01001311 -0.23670474 188.77370637 -0.21972656 169.53735352 C-0.21867567 168.35000858 -0.21762477 167.16266364 -0.21654204 165.93933856 C-0.21132158 159.98229503 -0.20626682 154.02525137 -0.20129442 148.06820762 C-0.15988236 98.71209025 -0.08837064 49.35605376 0 0 Z M61 225 C60.12021484 225.84884766 60.12021484 225.84884766 59.22265625 226.71484375 C48.46535798 237.91009818 47.6897972 254.45523925 47.74121094 269.10546875 C47.7377063 270.35590973 47.73420166 271.60635071 47.73059082 272.89468384 C47.72335467 276.2873201 47.72496884 279.6797087 47.73134899 283.07233047 C47.73646174 286.64612374 47.73170304 290.21990743 47.72857666 293.79370117 C47.72495223 299.79184843 47.72969589 305.78994621 47.73925781 311.78808594 C47.75013943 318.69319849 47.74661276 325.59819288 47.735605 332.50330257 C47.72648848 338.46377787 47.72526807 344.42421789 47.73048234 350.38469791 C47.73357817 353.9306691 47.7340779 357.476585 47.72740936 361.02255249 C47.72048512 364.97992438 47.73011955 368.93716708 47.74121094 372.89453125 C47.73716248 374.04813141 47.73311401 375.20173157 47.72894287 376.39028931 C47.81067364 392.23015013 50.3927261 406.15673861 61.75390625 417.81640625 C62.86572266 418.89728516 62.86572266 418.89728516 64 420 C64.84884766 420.87978516 64.84884766 420.87978516 65.71484375 421.77734375 C76.91009818 432.53464202 93.45523925 433.3102028 108.10546875 433.25878906 C109.35590973 433.2622937 110.60635071 433.26579834 111.89468384 433.26940918 C115.2873201 433.27664533 118.6797087 433.27503116 122.07233047 433.26865101 C125.64612374 433.26353826 129.21990743 433.26829696 132.79370117 433.27142334 C138.79184843 433.27504777 144.78994621 433.27030411 150.78808594 433.26074219 C157.69319849 433.24986057 164.59819288 433.25338724 171.50330257 433.264395 C177.46377787 433.27351152 183.42421789 433.27473193 189.38469791 433.26951766 C192.9306691 433.26642183 196.476585 433.2659221 200.02255249 433.27259064 C203.97992438 433.27951488 207.93716708 433.26988045 211.89453125 433.25878906 C213.62493149 433.26486176 213.62493149 433.26486176 215.39028931 433.27105713 C231.23015013 433.18932636 245.15673861 430.6072739 256.81640625 419.24609375 C257.89728516 418.13427734 257.89728516 418.13427734 259 417 C259.58652344 416.43410156 260.17304687 415.86820313 260.77734375 415.28515625 C271.53464202 404.08990182 272.3102028 387.54476075 272.25878906 372.89453125 C272.2622937 371.64409027 272.26579834 370.39364929 272.26940918 369.10531616 C272.27664533 365.7126799 272.27503116 362.3202913 272.26865101 358.92766953 C272.26353826 355.35387626 272.26829696 351.78009257 272.27142334 348.20629883 C272.27504777 342.20815157 272.27030411 336.21005379 272.26074219 330.21191406 C272.24986057 323.30680151 272.25338724 316.40180712 272.264395 309.49669743 C272.27351152 303.53622213 272.27473193 297.57578211 272.26951766 291.61530209 C272.26642183 288.0693309 272.2659221 284.523415 272.27259064 280.97744751 C272.27951488 277.02007562 272.26988045 273.06283292 272.25878906 269.10546875 C272.26486176 267.37506851 272.26486176 267.37506851 272.27105713 265.60971069 C272.18932636 249.76984987 269.6072739 235.84326139 258.24609375 224.18359375 C257.50488281 223.46300781 256.76367188 222.74242187 256 222 C255.43410156 221.41347656 254.86820313 220.82695312 254.28515625 220.22265625 C242.85868355 209.24318492 225.80769795 208.68820332 210.87280273 208.74121094 C209.6319693 208.7377063 208.39113586 208.73420166 207.11270142 208.73059082 C203.75111409 208.72336314 200.38977726 208.724963 197.02820468 208.73134899 C193.48511377 208.73646757 189.94203244 208.73170157 186.39894104 208.72857666 C180.45384841 208.72495436 174.50880573 208.72969072 168.5637207 208.73925781 C161.72050299 208.75014404 154.87740448 208.74660855 148.03418964 208.735605 C142.12464909 208.72648834 136.21514412 208.72526798 130.3055988 208.73048234 C126.79094147 208.73357746 123.27633992 208.73407982 119.76168633 208.72740936 C115.84034575 208.72048466 111.91913552 208.73011977 107.99780273 208.74121094 C106.85512436 208.73716248 105.71244598 208.73311401 104.53514099 208.72894287 C87.12865473 208.81957468 73.37099755 212.27491308 61 225 Z " fill="#004BE6" transform="translate(952,144)"/>
<path d="M0 0 C15.84 0 31.68 0 48 0 C48.33 64.02 48.66 128.04 49 194 C54.28 191.69 59.56 189.38 65 187 C75.95351172 183.42483523 86.48350903 182.41124343 97.98046875 182.48242188 C99.49232653 182.47698046 101.00417899 182.46984666 102.51602173 182.46118164 C106.56575032 182.44318466 110.61506432 182.44991619 114.66479874 182.46269798 C118.93824487 182.47295008 123.21165963 182.46339892 127.48510742 182.45715332 C134.65647642 182.44991196 141.8276797 182.45937162 148.99902344 182.47851562 C157.24537154 182.5002776 165.49132379 182.49322372 173.73766232 182.47121 C180.86605899 182.4529551 187.99433774 182.45054657 195.12275028 182.46096468 C199.35911084 182.4671446 203.59528645 182.46818951 207.83163452 182.45481873 C211.81778516 182.44311238 215.80343426 182.45154973 219.78953171 182.47439575 C221.23692372 182.47960515 222.68435929 182.47830588 224.13173294 182.46934509 C250.61966597 182.32069966 274.13944486 192.41909065 293 211 C311.1027935 229.07257181 320.32615386 252.59918383 320.49974775 277.94075382 C320.49761456 280.84945294 320.47610005 283.75764839 320.45410156 286.66625977 C320.45297054 288.78696674 320.4536119 290.90767528 320.45587158 293.02838135 C320.45700971 298.73187884 320.43364758 304.43503336 320.40557575 310.13845181 C320.38041055 316.11880794 320.37820825 322.09917368 320.37347412 328.07957458 C320.36108851 339.38031865 320.32832709 350.68090619 320.28807616 361.98158163 C320.24322043 374.85716219 320.22133682 387.7327506 320.20129442 400.60838997 C320.15959017 427.0723665 320.08629343 453.53612872 320 480 C304.16 480 288.32 480 272 480 C271.98018066 473.94366211 271.96036133 467.88732422 271.93994141 461.64746094 C271.87302704 441.63465575 271.79548628 421.62190214 271.71247292 401.60915756 C271.66240265 389.47577926 271.61595913 377.34240752 271.578125 365.20898438 C271.54513024 354.63052618 271.50525782 344.0521198 271.45720994 333.47371888 C271.4320193 327.87526069 271.4102162 322.27683654 271.39665604 316.6783371 C271.38376805 311.40229196 271.36164169 306.12636402 271.33261681 300.85038376 C271.32359349 298.92036842 271.31786315 296.99033424 271.31578636 295.06029892 C271.29273743 276.88378832 270.70405955 259.96878409 257.3203125 246.1875 C243.96179476 233.59361122 228.74893736 231.67776414 210.87280273 231.74121094 C209.6319693 231.7377063 208.39113586 231.73420166 207.11270142 231.73059082 C203.75111409 231.72336314 200.38977726 231.724963 197.02820468 231.73134899 C193.48511377 231.73646757 189.94203244 231.73170157 186.39894104 231.72857666 C180.45384841 231.72495436 174.50880573 231.72969072 168.5637207 231.73925781 C161.72050299 231.75014404 154.87740448 231.74660855 148.03418964 231.735605 C142.12464909 231.72648834 136.21514412 231.72526798 130.3055988 231.73048234 C126.79094147 231.73357746 123.27633992 231.73407982 119.76168633 231.72740936 C115.84034575 231.72048466 111.91913552 231.73011977 107.99780273 231.74121094 C106.85512436 231.73716248 105.71244598 231.73311401 104.53514099 231.72894287 C88.78813039 231.81093415 74.80298308 234.39926643 63.1875 245.6796875 C48.99886002 260.72978062 48.70230847 278.24409674 48.68115234 297.90527344 C48.67183971 299.89717001 48.66166908 301.88906273 48.65071106 303.88095093 C48.62354746 309.25609381 48.60830232 314.63121068 48.59528303 320.00640392 C48.57959248 325.63583018 48.55282129 331.26520379 48.5272522 336.89459229 C48.48056895 347.54021252 48.44377438 358.18584278 48.41057932 368.83151269 C48.37228387 380.95734868 48.32289325 393.08313165 48.27259517 405.20892286 C48.16943085 430.13924754 48.08158463 455.06959472 48 480 C32.16 480 16.32 480 0 480 C0 321.6 0 163.2 0 0 Z " fill="#004BE6" transform="translate(215,145)"/>
<path d="M0 0 C15.84 0 31.68 0 48 0 C48.029729 9.08450684 48.029729 9.08450684 48.06005859 18.35253906 C48.12697296 38.36534425 48.20451372 58.37809786 48.28752708 78.39084244 C48.33759735 90.52422074 48.38404087 102.65759248 48.421875 114.79101562 C48.45486976 125.36947382 48.49474218 135.9478802 48.54279006 146.52628112 C48.5679807 152.12473931 48.5897838 157.72316346 48.60334396 163.3216629 C48.61623195 168.59770804 48.63835831 173.87363598 48.66738319 179.14961624 C48.67640651 181.07963158 48.68213685 183.00966576 48.68421364 184.93970108 C48.70726257 203.11621168 49.29594045 220.03121591 62.6796875 233.8125 C75.78039008 246.16333071 90.55647562 248.32037577 108.10546875 248.25878906 C109.35590973 248.2622937 110.60635071 248.26579834 111.89468384 248.26940918 C115.2873201 248.27664533 118.6797087 248.27503116 122.07233047 248.26865101 C125.64612374 248.26353826 129.21990743 248.26829696 132.79370117 248.27142334 C138.79184843 248.27504777 144.78994621 248.27030411 150.78808594 248.26074219 C157.69319849 248.24986057 164.59819288 248.25338724 171.50330257 248.264395 C177.46377787 248.27351152 183.42421789 248.27473193 189.38469791 248.26951766 C192.9306691 248.26642183 196.476585 248.2659221 200.02255249 248.27259064 C203.97992438 248.27951488 207.93716708 248.26988045 211.89453125 248.25878906 C213.62493149 248.26486176 213.62493149 248.26486176 215.39028931 248.27105713 C231.16557671 248.18965955 245.1729535 245.62410285 256.8125 234.3203125 C271.00113998 219.27021938 271.29769153 201.75590326 271.31884766 182.09472656 C271.32816029 180.10282999 271.33833092 178.11093727 271.34928894 176.11904907 C271.37645254 170.74390619 271.39169768 165.36878932 271.40471697 159.99359608 C271.42040752 154.36416982 271.44717871 148.73479621 271.4727478 143.10540771 C271.51943105 132.45978748 271.55622562 121.81415722 271.58942068 111.16848731 C271.62771613 99.04265132 271.67710675 86.91686835 271.72740483 74.79107714 C271.83056915 49.86075246 271.91841537 24.93040528 272 0 C287.84 0 303.68 0 320 0 C320.09045111 27.73892004 320.16406973 55.47771984 320.20724869 83.21675014 C320.22783432 96.09776036 320.25587825 108.97867213 320.30175781 121.85961914 C320.34174822 133.09255021 320.36746185 144.32540994 320.37635398 155.55841023 C320.38154809 161.50085191 320.39367227 167.4430896 320.42292023 173.38546562 C320.4502824 178.99067195 320.45840331 184.59559229 320.45243073 190.20085907 C320.45352172 192.2465197 320.46135054 194.29219094 320.4768219 196.33779335 C320.67469059 223.87488722 313.15564809 248.02292663 293.75 268.21484375 C275.52215142 286.6757188 252.15818103 297.31862477 226.17373657 297.54211426 C224.78899912 297.53434336 223.40426397 297.5261511 222.01953125 297.51757812 C220.50767347 297.52301954 218.99582101 297.53015334 217.48397827 297.53881836 C213.43424968 297.55681534 209.38493568 297.55008381 205.33520126 297.53730202 C201.06175513 297.52704992 196.78834037 297.53660108 192.51489258 297.54284668 C185.34352358 297.55008804 178.1723203 297.54062838 171.00097656 297.52148438 C162.75462846 297.4997224 154.50867621 297.50677628 146.26233768 297.52879 C139.13394101 297.5470449 132.00566226 297.54945343 124.87724972 297.53903532 C120.64088916 297.5328554 116.40471355 297.53181049 112.16836548 297.54518127 C108.18221484 297.55688762 104.19656574 297.54845027 100.21046829 297.52560425 C98.76307628 297.52039485 97.31564071 297.52169412 95.86826706 297.53065491 C69.38033403 297.67930034 45.86055514 287.58090935 27 269 C8.8972065 250.92742819 -0.32615386 227.40081617 -0.49974775 202.05924618 C-0.49761456 199.15054706 -0.47610005 196.24235161 -0.45410156 193.33374023 C-0.45297054 191.21303326 -0.4536119 189.09232472 -0.45587158 186.97161865 C-0.45700971 181.26812116 -0.43364758 175.56496664 -0.40557575 169.86154819 C-0.38041055 163.88119206 -0.37820825 157.90082632 -0.37347412 151.92042542 C-0.36108851 140.61968135 -0.32832709 129.31909381 -0.28807616 118.01841837 C-0.24322043 105.14283781 -0.22133682 92.2672494 -0.20129442 79.39161003 C-0.15959017 52.9276335 -0.08629343 26.46387128 0 0 Z " fill="#004BE6" transform="translate(583,328)"/>
<path d="M0 0 C15.51 0 31.02 0 47 0 C47.02505615 4.13966309 47.0501123 8.27932617 47.07592773 12.54443359 C47.15924178 26.19102663 47.24789789 39.83758051 47.33933926 53.48412132 C47.39467228 61.76153514 47.4481544 70.03895328 47.49731445 78.31640625 C47.54015533 85.52906714 47.58643307 92.74169629 47.63687855 99.95430815 C47.66348027 103.77509479 47.68833336 107.59587513 47.70907402 111.41669846 C47.72863438 115.01009938 47.75277632 118.60343987 47.78049088 122.19678688 C47.79434704 124.15015758 47.80329282 126.10356116 47.81211853 128.05696106 C47.82190735 129.21244949 47.83169617 130.36793793 47.84178162 131.55844116 C47.84823417 132.56688269 47.85468672 133.57532421 47.8613348 134.61432457 C47.8435072 137.01581433 47.8435072 137.01581433 49 139 C49.19369096 141.00428032 49.38264329 143.00917165 49.54345703 145.01635742 C52.00859215 174.6591701 65.420711 201.77322135 87.9296875 221.5234375 C111.33068535 240.39905154 140.32068122 250.45536728 170.55078125 247.59765625 C200.59863681 243.96803269 227.87925215 229.70490191 247 206 C261.64302249 186.62700496 268.8207342 165.9756935 270.640625 141.83984375 C271 138 271 138 272 137 C272.10854981 135.22877114 272.14687445 133.45321141 272.15821838 131.67869568 C272.1680072 130.52458191 272.17779602 129.37046814 272.18788147 128.18138123 C272.19363693 126.90392532 272.1993924 125.62646942 272.20532227 124.31030273 C272.21489564 122.96041561 272.22490539 121.61053152 272.23532104 120.26065063 C272.26243483 116.58522657 272.28340921 112.90978958 272.30332303 109.2343204 C272.3251428 105.39724271 272.35255104 101.56020515 272.37937927 97.72315979 C272.42936054 90.45231693 272.47427913 83.18145186 272.51740164 75.91056544 C272.56672767 67.63497798 272.62166293 59.35943077 272.67708123 51.08388221 C272.79098467 34.0559572 272.89706481 17.02799539 273 0 C288.51 0 304.02 0 320 0 C320.06794311 19.89862018 320.12311271 39.7971452 320.15543652 59.69585228 C320.17084959 68.93692579 320.19183164 78.17792166 320.22631836 87.41894531 C320.25639218 95.48139714 320.2756153 103.54379268 320.28226548 111.60629904 C320.28614756 115.86810064 320.29515227 120.12974135 320.31719017 124.39149094 C320.48696917 158.54677141 320.48696917 158.54677141 317 173 C316.75743469 174.01829895 316.51486938 175.0365979 316.26495361 176.08575439 C315.66764427 178.46278748 314.98863599 180.78839989 314.25 183.125 C313.99323486 183.95354492 313.73646973 184.78208984 313.47192383 185.63574219 C303.68637247 216.30204149 284.8432004 244.5909389 259 264 C257.99066406 264.78632812 256.98132812 265.57265625 255.94140625 266.3828125 C231.86384445 284.72589865 200.43255196 297.00860479 169.9765625 297.203125 C168.8676918 297.21371445 168.8676918 297.21371445 167.73641968 297.22451782 C137.00015082 297.45153081 137.00015082 297.45153081 124 294 C122.81229004 293.69400879 122.81229004 293.69400879 121.60058594 293.38183594 C86.86839991 284.22916551 54.76119612 264.97507249 33 236 C32.21367188 234.99066406 31.42734375 233.98132813 30.6171875 232.94140625 C15.20483414 212.71079252 4.95781295 188.12066398 1 163 C0.82759293 161.93031982 0.65518585 160.86063965 0.47755432 159.75854492 C-0.33124833 153.15742179 -0.13074553 146.50229194 -0.11352539 139.86328125 C-0.11324297 138.33502708 -0.11340232 136.80677277 -0.1139679 135.27851868 C-0.11425374 131.14894682 -0.10839144 127.01940425 -0.10139394 122.88983917 C-0.09512494 118.56702322 -0.0945538 114.24420652 -0.09336853 109.92138672 C-0.09026565 101.74409985 -0.08206636 93.56682641 -0.07201904 85.38954544 C-0.06082546 76.07635879 -0.05533928 66.76317149 -0.05032361 57.44997978 C-0.03988285 38.29997737 -0.02155037 19.14999336 0 0 Z " fill="#004BE6" transform="translate(1688,328)"/>
</svg>
