<?xml version="1.0" encoding="UTF-8"?>
<!-- Generated by Pixelmator Pro 3.5.7 -->
<svg width="1024" height="1024" viewBox="0 0 1024 1024" xmlns="http://www.w3.org/2000/svg">
    <g id="Group">
        <g id="Group-dark">
            <g id="middle" opacity="0.850973">
                <path id="red-copy-2" fill="#000000" fill-rule="evenodd" stroke="#000000" stroke-width="144.421661" stroke-linecap="round" stroke-linejoin="round" opacity="0.448941" d="M 425.992889 689.429565 C 426.074127 734.295532 462.511017 770.600769 507.377014 770.519531 C 552.242981 770.438354 588.548218 734.001465 588.46698 689.135437 L 588.303589 598.87207 C 588.264587 577.32666 579.668274 556.679199 564.405823 541.471863 C 549.143372 526.264526 528.464905 517.743042 506.919495 517.782104 C 462.053497 517.863281 425.74826 554.300171 425.829498 599.166138 Z"/>
                <path id="red-copy" fill="#000000" fill-rule="evenodd" stroke="#000000" stroke-width="144.421661" stroke-linecap="round" stroke-linejoin="round" opacity="0.448941" d="M 427.41748 425.840454 C 427.498688 470.706421 463.935608 507.011658 508.801575 506.93042 C 553.667542 506.849243 589.972778 470.412292 589.891541 425.546326 L 589.728149 335.282959 C 589.689148 313.737549 581.092896 293.090088 565.830383 277.882751 C 550.567932 262.675415 529.889465 254.153931 508.344055 254.192932 C 463.478058 254.27417 427.172852 290.71106 427.254059 335.577087 Z"/>
                <path id="red-copy-5" fill="#000000" fill-rule="evenodd" stroke="#000000" stroke-width="144.421661" stroke-linecap="round" stroke-linejoin="round" opacity="0.448941" d="M 420.437103 585.296143 C 465.303162 585.296143 501.674286 548.924988 501.674286 504.05896 C 501.674286 459.192871 465.303162 422.821777 420.437103 422.821777 L 330.308685 422.821777 C 285.442627 422.821777 249.071487 459.192871 249.071487 504.05896 C 249.071487 548.924988 285.442627 585.296143 330.308685 585.296143 Z"/>
                <path id="red-copy-3" fill="#000000" fill-rule="evenodd" stroke="#000000" stroke-width="144.421661" stroke-linecap="round" stroke-linejoin="round" opacity="0.448941" d="M 683.375366 599.36377 C 728.241394 599.36377 764.612549 562.992554 764.612549 518.126587 C 764.612549 473.260498 728.241394 436.889343 683.375366 436.889343 L 593.111816 436.889343 C 571.566345 436.889343 550.903381 445.448242 535.668457 460.683167 C 520.433533 475.918091 511.874634 496.581116 511.874634 518.126587 C 511.874634 562.992615 548.245728 599.36377 593.111816 599.36377 Z"/>
            </g>
            <g id="middle-copy" opacity="0.850973">
                <path id="path1" fill="#000000" fill-rule="evenodd" stroke="#000000" stroke-width="144.421661" stroke-linecap="round" stroke-linejoin="round" opacity="0.448941" d="M 499.836029 706.826172 C 517.080505 748.24585 564.637268 767.84375 606.056946 750.599243 C 647.476624 733.354736 667.074463 685.797974 649.829956 644.378296 L 615.136719 561.04834 C 606.855591 541.157959 591.012207 525.371826 571.091919 517.162781 C 551.171631 508.953735 528.806213 508.994202 508.915802 517.27533 C 489.02536 525.556396 473.239227 541.39978 465.030212 561.320068 C 456.821167 581.240356 456.861664 603.605835 465.142761 623.496216 Z"/>
                <path id="path2" fill="#000000" fill-rule="evenodd" stroke="#000000" stroke-width="144.421661" stroke-linecap="round" stroke-linejoin="round" opacity="0.448941" d="M 400.280975 462.75647 C 417.525482 504.176147 465.082214 523.773987 506.501892 506.52948 C 547.92157 489.284973 567.519409 441.728271 550.274902 400.308594 L 515.581665 316.978577 C 507.300537 297.088196 491.457153 281.302063 471.536865 273.093018 C 451.616577 264.883972 429.25116 264.924438 409.360748 273.205566 C 389.470306 281.486694 373.684174 297.330078 365.475159 317.250366 C 357.266113 337.170593 357.30661 359.536072 365.587708 379.426453 Z"/>
                <path id="path3" fill="#000000" fill-rule="evenodd" stroke="#000000" stroke-width="144.421661" stroke-linecap="round" stroke-linejoin="round" opacity="0.448941" d="M 454.852997 612.745544 C 496.303802 595.57605 515.987732 548.054871 498.818237 506.604065 C 481.648743 465.153198 434.127563 445.469299 392.676727 462.638794 L 309.408936 497.129456 C 267.958099 514.29895 248.274185 561.820068 265.443695 603.270935 C 282.61319 644.721802 330.134338 664.405701 371.585175 647.236206 Z"/>
                <path id="path4" fill="#000000" fill-rule="evenodd" stroke="#000000" stroke-width="144.421661" stroke-linecap="round" stroke-linejoin="round" opacity="0.448941" d="M 703.159668 525.120239 C 744.610535 507.950684 764.294434 460.429565 747.124939 418.978699 C 729.955444 377.527893 682.434265 357.843994 640.983459 375.013489 L 557.59082 409.555847 C 516.139954 426.725342 496.456055 474.24646 513.625549 515.697327 C 530.795044 557.148193 578.316223 576.832031 619.76709 559.662598 Z"/>
            </g>
            <g id="front" opacity="0.850973">
                <path id="blue-copy-2" fill="#000000" fill-rule="evenodd" stroke="#000000" stroke-width="143.123886" stroke-linecap="round" stroke-linejoin="round" opacity="0.382171" d="M 511.492767 398.988098 C 480.052765 430.428101 480.052765 481.402405 511.492767 512.842407 C 526.59082 527.94043 547.068115 536.422424 568.419922 536.422424 C 589.77179 536.422485 610.249084 527.94043 625.347107 512.842407 L 688.791565 449.39801 C 720.231567 417.958008 720.231567 366.983643 688.791565 335.54364 C 673.693542 320.445618 653.216187 311.963623 631.86438 311.963623 C 610.512512 311.963623 590.035217 320.445618 574.937195 335.54364 Z"/>
                <path id="blue-copy" fill="#000000" fill-rule="evenodd" stroke="#000000" stroke-width="143.123886" stroke-linecap="round" stroke-linejoin="round" opacity="0.382171" d="M 390.369659 506.88678 C 421.809662 538.326782 472.783997 538.326782 504.223999 506.88678 C 535.664001 475.446777 535.664001 424.472473 504.223999 393.032471 L 440.769745 329.578186 C 425.671722 314.480164 405.194397 305.998169 383.84259 305.998169 C 362.490723 305.998169 342.013428 314.480164 326.915405 329.578186 C 311.817352 344.676208 303.335388 365.153503 303.335388 386.505371 C 303.335388 407.857178 311.817352 428.334534 326.915405 443.432556 Z"/>
                <path id="blue-copy-4" fill="#000000" fill-rule="evenodd" stroke="#000000" stroke-width="143.123886" stroke-linecap="round" stroke-linejoin="round" opacity="0.382171" d="M 325.547638 581.221008 C 294.107635 612.661011 294.107635 663.635376 325.547638 695.075317 C 340.64566 710.17334 361.122986 718.655396 382.474823 718.655396 C 403.82666 718.655396 424.303986 710.173401 439.402008 695.075317 L 503.319794 631.157593 C 518.417786 616.05957 526.89978 595.582275 526.89978 574.230408 C 526.89978 552.87854 518.417786 532.401245 503.319794 517.303223 C 471.879761 485.86322 420.905457 485.86322 389.465424 517.303223 Z"/>
                <path id="blue-copy-3" fill="#000000" fill-rule="evenodd" stroke="#000000" stroke-width="143.123886" stroke-linecap="round" stroke-linejoin="round" opacity="0.382171" d="M 570.190491 695.939941 C 601.630493 727.380005 652.604858 727.380005 684.044861 695.939941 C 715.484863 664.5 715.484863 613.525635 684.044861 582.085632 L 620.372803 518.413574 C 588.9328 486.973572 537.958435 486.973572 506.518433 518.413574 C 475.07843 549.853577 475.07843 600.827881 506.518433 632.267944 Z"/>
            </g>
            <g id="front-copy" opacity="0.850973">
                <path id="path5" fill="#000000" fill-rule="evenodd" stroke="#000000" stroke-width="143.123886" stroke-linecap="round" stroke-linejoin="round" opacity="0.382171" d="M 467.736633 406.056274 C 450.721436 447.134644 470.228455 494.22876 511.306824 511.244019 C 531.033325 519.414978 553.197815 519.414978 572.924316 511.244019 C 592.650879 503.072998 608.323547 487.40033 616.494507 467.673828 L 650.830383 384.779663 C 667.845581 343.701355 648.338562 296.607178 607.260193 279.59198 C 587.533691 271.420959 565.369202 271.420959 545.6427 279.59198 C 525.916138 287.763 510.2435 303.435608 502.07251 323.16217 Z"/>
                <path id="path6" fill="#000000" fill-rule="evenodd" stroke="#000000" stroke-width="143.123886" stroke-linecap="round" stroke-linejoin="round" opacity="0.382171" d="M 397.124542 552.093506 C 438.202881 569.108765 485.297028 549.601685 502.312256 508.523376 C 510.483246 488.796814 510.483246 466.632324 502.312225 446.905823 C 494.141266 427.179321 478.468597 411.506653 458.742065 403.335632 L 375.835083 368.994446 C 334.756714 351.979248 287.662567 371.486267 270.647369 412.564636 C 262.476379 432.291138 262.476379 454.455627 270.647369 474.182129 C 278.818359 493.908691 294.491028 509.58136 314.217529 517.752319 Z"/>
                <path id="path7" fill="#000000" fill-rule="evenodd" stroke="#000000" stroke-width="143.123886" stroke-linecap="round" stroke-linejoin="round" opacity="0.382171" d="M 365.683258 645.575684 C 348.66806 686.654053 368.175079 733.748169 409.253448 750.763428 C 428.97995 758.934387 451.14444 758.934387 470.870972 750.763428 C 490.597504 742.592407 506.270172 726.919739 514.441162 707.193237 L 549.033203 623.680603 C 557.204224 603.954102 557.204224 581.789612 549.033203 562.06311 C 540.862244 542.336548 525.189575 526.663879 505.463043 518.49292 C 464.384674 501.477661 417.290527 520.984741 400.27533 562.06311 Z"/>
                <path id="path8" fill="#000000" fill-rule="evenodd" stroke="#000000" stroke-width="143.123886" stroke-linecap="round" stroke-linejoin="round" opacity="0.382171" d="M 635.604858 657.941406 C 676.683228 674.956665 723.777344 655.449585 740.792542 614.371216 C 748.963562 594.644714 748.963562 572.480225 740.792542 552.753723 C 732.621582 533.027222 716.948914 517.354492 697.222351 509.183533 L 614.030823 474.724487 C 572.952454 457.709229 525.858337 477.216309 508.843109 518.294678 C 491.827911 559.372986 511.33493 606.467163 552.413269 623.482361 Z"/>
            </g>
        </g>
        <g id="light">
            <g id="g1" opacity="0.850973">
                <path id="path9" fill="#ffffff" fill-rule="evenodd" stroke="#ffffff" stroke-width="148.064346" stroke-linecap="round" stroke-linejoin="round" opacity="0.448941" d="M 423.687714 688.637146 C 423.770966 734.634766 461.126923 771.855713 507.124542 771.772461 C 529.213379 771.732422 550.381592 762.919312 565.972534 747.271912 C 581.563416 731.624451 590.299805 710.424438 590.259827 688.335571 L 590.092285 595.795532 C 590.009033 549.797913 552.653076 512.577026 506.655457 512.660278 C 460.657837 512.74353 423.43692 550.099487 423.520172 596.097046 Z"/>
                <path id="path10" fill="#ffffff" fill-rule="evenodd" stroke="#ffffff" stroke-width="148.064346" stroke-linecap="round" stroke-linejoin="round" opacity="0.448941" d="M 425.148224 418.399658 C 425.231476 464.397278 462.587433 501.618225 508.585052 501.534912 C 530.673889 501.494934 551.842102 492.681824 567.432983 477.034424 C 583.023926 461.386963 591.760315 440.186951 591.720337 418.098083 L 591.552795 325.558044 C 591.469543 279.560425 554.113586 242.339478 508.115967 242.422729 C 462.118347 242.506042 424.89743 279.861938 424.980682 325.859558 Z"/>
                <path id="path11" fill="#ffffff" fill-rule="evenodd" stroke="#ffffff" stroke-width="148.064346" stroke-linecap="round" stroke-linejoin="round" opacity="0.448941" d="M 417.99176 581.877197 C 463.989471 581.877197 501.277954 544.588684 501.277954 498.591003 C 501.277954 452.593323 463.989471 415.30481 417.99176 415.30481 L 325.590088 415.30481 C 303.501221 415.30481 282.317047 424.07959 266.697876 439.698792 C 251.078659 455.317932 242.303894 476.502136 242.303894 498.591003 C 242.303894 544.588684 279.592407 581.877197 325.590088 581.877197 Z"/>
                <path id="path12" fill="#ffffff" fill-rule="evenodd" stroke="#ffffff" stroke-width="148.064346" stroke-linecap="round" stroke-linejoin="round" opacity="0.448941" d="M 687.562012 596.299622 C 733.559692 596.299622 770.848206 559.011108 770.848206 513.013428 C 770.848206 467.015747 733.559692 429.727234 687.562012 429.727234 L 595.02179 429.727234 C 572.932922 429.727234 551.748718 438.502014 536.129517 454.121216 C 520.510315 469.740356 511.735565 490.924561 511.735565 513.013428 C 511.735565 559.011108 549.024048 596.299622 595.02179 596.299622 Z"/>
            </g>
            <g id="g2" opacity="0.850973">
                <path id="path13" fill="#ffffff" fill-rule="evenodd" stroke="#ffffff" stroke-width="148.064346" stroke-linecap="round" stroke-linejoin="round" opacity="0.448941" d="M 499.393341 706.472534 C 517.072815 748.936951 565.829041 769.029114 608.293396 751.34967 C 650.757813 733.670166 670.849976 684.91394 653.170532 642.449585 L 617.602173 557.017822 C 609.112244 536.625732 592.869263 520.441406 572.446533 512.02533 C 552.023804 503.609253 529.094238 503.650757 508.702118 512.140747 C 466.237732 529.82019 446.145569 578.576416 463.825012 621.040771 Z"/>
                <path id="path14" fill="#ffffff" fill-rule="evenodd" stroke="#ffffff" stroke-width="148.064346" stroke-linecap="round" stroke-linejoin="round" opacity="0.448941" d="M 397.327271 456.246765 C 415.006714 498.711121 463.762939 518.803345 506.227325 501.12384 C 548.691711 483.444397 568.783875 434.688171 551.104431 392.223755 L 515.536133 306.791992 C 507.046143 286.399902 490.803162 270.215576 470.380432 261.7995 C 449.957703 253.383423 427.028168 253.424927 406.636047 261.914917 C 364.171631 279.59436 344.079468 328.350586 361.758942 370.815002 Z"/>
                <path id="path15" fill="#ffffff" fill-rule="evenodd" stroke="#ffffff" stroke-width="148.064346" stroke-linecap="round" stroke-linejoin="round" opacity="0.448941" d="M 453.275726 610.018921 C 495.772034 592.416382 515.952454 543.696655 498.349884 501.200317 C 489.89682 480.792847 473.683167 464.579163 453.275726 456.12616 C 432.868256 447.673096 409.93869 447.673096 389.531219 456.12616 L 304.163208 491.486755 C 261.66687 509.089294 241.486481 557.809082 259.08905 600.30542 C 276.691589 642.801758 325.411377 662.982117 367.907715 645.379517 Z"/>
                <path id="path16" fill="#ffffff" fill-rule="evenodd" stroke="#ffffff" stroke-width="148.064346" stroke-linecap="round" stroke-linejoin="round" opacity="0.448941" d="M 707.845337 520.183472 C 750.341675 502.580933 770.522095 453.861145 752.919495 411.364807 C 744.466492 390.957397 728.252808 374.743713 707.845337 366.290649 C 687.437866 357.837646 664.508301 357.837646 644.10083 366.290649 L 558.604858 401.704285 C 516.108521 419.306824 495.928131 468.026611 513.530701 510.522949 C 531.13324 553.019287 579.853027 573.199646 622.349365 555.597107 Z"/>
            </g>
            <g id="g3" opacity="0.850973">
                <path id="path17" fill="#ffffff" fill-rule="evenodd" stroke="#ffffff" stroke-width="146.733841" stroke-linecap="round" stroke-linejoin="round" opacity="0.382171" d="M 511.344086 390.869995 C 479.111084 423.103027 479.111084 475.363037 511.344086 507.596069 C 543.577087 539.829041 595.837158 539.829041 628.070129 507.596069 L 693.114807 442.551392 C 708.593628 427.07251 717.289551 406.078735 717.289551 384.188354 C 717.289551 362.297974 708.593628 341.304138 693.114807 325.825317 C 677.635986 310.346497 656.642151 301.650574 634.75177 301.650574 C 612.861389 301.650574 591.867615 310.346497 576.388794 325.825317 Z"/>
                <path id="path18" fill="#ffffff" fill-rule="evenodd" stroke="#ffffff" stroke-width="146.733841" stroke-linecap="round" stroke-linejoin="round" opacity="0.382171" d="M 387.165955 501.490234 C 419.398956 533.723206 471.658997 533.723206 503.891998 501.490234 C 536.125 469.257202 536.125 416.997192 503.891998 384.76416 L 438.83728 319.709412 C 423.358429 304.230591 402.364624 295.534668 380.474243 295.534668 C 358.583862 295.534668 337.590057 304.230591 322.111206 319.709412 C 289.878204 351.942383 289.878204 404.202454 322.111206 436.435425 Z"/>
                <path id="path19" fill="#ffffff" fill-rule="evenodd" stroke="#ffffff" stroke-width="146.733841" stroke-linecap="round" stroke-linejoin="round" opacity="0.382171" d="M 320.708954 577.699341 C 288.475952 609.932312 288.475952 662.192383 320.708954 694.425354 C 352.941986 726.658325 405.201996 726.658325 437.434998 694.425354 L 502.964966 628.895386 C 518.443787 613.416565 527.139709 592.422729 527.139709 570.532349 C 527.139709 548.641968 518.443787 527.648193 502.964966 512.169312 C 470.731964 479.93634 418.471924 479.93634 386.238922 512.169312 Z"/>
                <path id="path20" fill="#ffffff" fill-rule="evenodd" stroke="#ffffff" stroke-width="146.733841" stroke-linecap="round" stroke-linejoin="round" opacity="0.382171" d="M 571.522339 695.311768 C 603.755371 727.5448 656.015381 727.5448 688.248413 695.311768 C 720.481384 663.078735 720.481384 610.818726 688.248413 578.585693 L 622.970398 513.307739 C 590.737366 481.074707 538.477295 481.074707 506.244324 513.307678 C 474.011292 545.54071 474.011322 597.800781 506.244324 630.033752 Z"/>
            </g>
            <g id="g4" opacity="0.850973">
                <path id="path21" fill="#ffffff" fill-rule="evenodd" stroke="#ffffff" stroke-width="146.733841" stroke-linecap="round" stroke-linejoin="round" opacity="0.382171" d="M 466.484314 398.116455 C 449.039948 440.230957 469.039001 488.512939 511.153442 505.957275 C 553.267944 523.401672 601.549866 503.402649 618.994263 461.288147 L 654.196167 376.303223 C 671.640564 334.188782 651.641479 285.906799 609.527039 268.462402 C 567.412598 251.018005 519.130615 271.01709 501.686249 313.131531 Z"/>
                <path id="path22" fill="#ffffff" fill-rule="evenodd" stroke="#ffffff" stroke-width="146.733841" stroke-linecap="round" stroke-linejoin="round" opacity="0.382171" d="M 394.091217 547.837158 C 436.205658 565.281494 484.48764 545.282471 501.932007 503.16803 C 519.376404 461.053589 499.37735 412.771606 457.262909 395.327209 L 372.264771 360.119873 C 352.04071 351.742737 329.317169 351.742737 309.093109 360.119873 C 288.869019 368.496948 272.801056 384.56488 264.42395 404.78894 C 246.979584 446.903442 266.978638 495.185425 309.093079 512.629761 Z"/>
                <path id="path23" fill="#ffffff" fill-rule="evenodd" stroke="#ffffff" stroke-width="146.733841" stroke-linecap="round" stroke-linejoin="round" opacity="0.382171" d="M 361.856903 643.677124 C 344.412537 685.791626 364.411591 734.073608 406.526031 751.517944 C 448.640503 768.962341 496.922455 748.963318 514.366821 706.848877 L 549.831421 621.229858 C 558.208496 601.005737 558.208496 578.282227 549.831421 558.058167 C 541.454285 537.834106 525.386353 521.766113 505.162292 513.389038 C 463.047821 495.944641 414.765839 515.943726 397.321472 558.058105 Z"/>
                <path id="path24" fill="#ffffff" fill-rule="evenodd" stroke="#ffffff" stroke-width="146.733841" stroke-linecap="round" stroke-linejoin="round" opacity="0.382171" d="M 638.586609 656.354797 C 680.70105 673.799194 728.983032 653.800171 746.427429 611.685669 C 763.871765 569.571167 743.872742 521.289246 701.758301 503.844849 L 616.468445 468.516663 C 574.354004 451.072266 526.072021 471.07135 508.627625 513.185791 C 491.183228 555.300232 511.182312 603.582214 553.296753 621.026611 Z"/>
            </g>
        </g>
    </g>
</svg>
