<?xml version="1.0" encoding="UTF-8"?>
<svg id="Layer_1" xmlns="http://www.w3.org/2000/svg" version="1.1" viewBox="0 0 330.2 130.3">
  <!-- Generator: Adobe Illustrator 29.1.0, SVG Export Plug-In . SVG Version: 2.1.0 Build 142)  -->
  <defs>
    <style>
      .st0 {
        fill: #5d176a;
      }

      .st1 {
        fill: #adbe37;
      }
    </style>
  </defs>
  <g>
    <path class="st0" d="M263.1,64.1h27c2.4,0,4,1.6,4,4v23c0,2.4-1.6,4-4,4h-23c-2.4,0-4-1.6-4-4v-19h-15v19c0,10.3,8.7,19,19,19h23c10.3,0,19-8.7,19-19v-23c0-10.3-8.7-19-19-19h-27v15Z"/>
    <path class="st0" d="M62.1,49.1c-10.3,0-19,8.7-19,19v42c9.8,0,15-7.9,15-15v-27c0-2.4,1.6-4,4-4h25v-15h-25Z"/>
    <path class="st0" d="M150.1,35.1c0-7.5-6-14-15-14s0,70,0,70c0,2.4-1.6,4-4,4h-18c-2.4,0-4-1.5-4-3.9v-23c0-2.4,1.6-4.1,4-4.1h15v-15h-15c-10.3,0-19,8.7-19,19v23c0,10.3,8.7,19,19,19h18c10.3,0,19-8.7,19-19v-56Z"/>
    <rect class="st0" x="21.1" y="27.1" width="15" height="15"/>
    <path class="st0" d="M36.1,49.1h-15v46.5c0,7.2,5.3,14.5,15,14.5v-61Z"/>
    <path class="st0" d="M239.1,49.1c-2.4,0-4-1.6-4-4v-25h-15v75c0,7.1,5.3,15,15,15,0,0,0,0,0,0v-18s0,0,0,0v-24s0,0,0,0c0-2.3,1.7-4,4-4h10v-15h-10Z"/>
    <path class="st0" d="M176.1,95.1c-2.4,0-4-1.6-4-4v-23c0-2.4,1.6-4,4-4h17c2.4,0,4,1.6,4,4v4h-18v15h26c3.9,0,7-3.1,7-7v-12c0-10.3-8.7-19-19-19h-17c-10.3,0-19,8.7-19,19v23c0,10.3,8.7,19,19,19h22c7,0,14-5.3,14-15,0,0-36,0-36,0Z"/>
  </g>
  <g>
    <path class="st1" d="M271.1,72.1v15h15v-15h-15Z"/>
    <path class="st1" d="M69.1,95.1v15h15v-15h-15Z"/>
  </g>
</svg>