<svg version="1.1" id="Layer_1" xmlns="http://www.w3.org/2000/svg" xmlns:xlink="http://www.w3.org/1999/xlink" x="0px" y="0px"
	 width="100%" viewBox="0 0 246 188" enable-background="new 0 0 246 188" xml:space="preserve">
<path fill="#FDFDFD" opacity="1.000000" stroke="none" 
	d="
M180.000000,189.000000 
	C120.000000,189.000000 60.500008,189.000000 1.000008,189.000000 
	C1.000005,126.333344 1.000005,63.666683 1.000003,1.000016 
	C82.999992,1.000011 164.999985,1.000011 246.999969,1.000005 
	C246.999985,63.666653 246.999985,126.333305 247.000000,188.999969 
	C224.833328,189.000000 202.666672,189.000000 180.000000,189.000000 
M162.627380,149.927780 
	C182.349213,148.413483 202.071045,146.899200 221.888580,145.377563 
	C221.888580,140.957489 221.888580,136.893021 221.888580,132.432297 
	C159.058319,137.495743 96.607780,142.528580 34.198914,147.558075 
	C34.198914,152.012360 34.198914,155.773346 34.198914,160.014145 
	C76.907639,156.645782 119.300865,153.302307 162.627380,149.927780 
M171.139572,73.759972 
	C165.773361,82.228554 164.814499,91.605659 166.186554,101.183327 
	C169.001419,120.832565 187.347839,131.843140 205.786682,125.112740 
	C214.180328,122.048950 219.230316,116.020088 221.096603,107.145660 
	C210.694595,105.856033 209.846039,106.128036 203.389557,111.944176 
	C202.433044,112.805809 201.224075,113.517265 200.007446,113.939728 
	C189.163422,117.705254 180.191086,108.569748 181.418076,98.756523 
	C195.047302,98.756523 208.762802,98.756523 222.415665,98.756523 
	C223.705444,80.364410 217.644119,68.055428 205.323608,63.367645 
	C192.835663,58.616161 180.004410,62.333874 171.139572,73.759972 
M84.181511,62.445194 
	C79.636086,64.489975 75.090660,66.534760 70.405022,68.642616 
	C69.978653,67.018913 69.487625,65.148979 69.032585,63.416077 
	C64.742722,63.416077 60.681705,63.416077 56.587822,63.416077 
	C56.587822,84.155296 56.587822,104.538025 56.587822,124.974884 
	C61.788155,124.974884 66.676201,124.974884 71.775482,124.974884 
	C71.775482,114.798546 71.727150,104.984947 71.787170,95.172012 
	C71.870758,81.506859 78.298248,75.692368 91.780563,76.947639 
	C92.031837,76.971031 92.313652,76.666420 92.619476,76.493172 
	C92.619476,71.931602 92.619476,67.355598 92.619476,62.236919 
	C89.894379,62.236919 87.453377,62.236919 84.181511,62.445194 
M109.211914,63.075508 
	C106.264465,63.075508 103.317024,63.075508 100.336670,63.075508 
	C100.336670,84.126511 100.336670,104.637665 100.336670,124.994125 
	C105.451263,124.994125 110.192444,124.994125 115.162407,124.994125 
	C115.162407,114.377190 114.992233,104.075562 115.206596,93.781960 
	C115.459702,81.628479 122.649582,75.552612 134.658173,76.937271 
	C135.103226,76.988579 135.574173,76.815308 136.155685,76.728348 
	C136.155685,72.036713 136.155685,67.454391 136.155685,62.390511 
	C127.373779,61.502998 119.881989,63.101501 114.226082,71.006996 
	C113.776497,68.741951 113.710121,66.887245 112.990959,65.334976 
	C112.534660,64.350082 111.107201,63.815132 109.211914,63.075508 
M158.850952,88.500076 
	C158.850952,80.082642 158.850952,71.665215 158.850952,63.334042 
	C153.273880,63.334042 148.503662,63.334042 143.481201,63.334042 
	C143.481201,84.011047 143.481201,104.419121 143.481201,125.083755 
	C148.612045,125.083755 153.541962,125.083755 158.851334,125.083755 
	C158.851334,113.086220 158.851334,101.293152 158.850952,88.500076 
M33.941521,108.498772 
	C33.941521,113.943016 33.941521,119.387253 33.941521,124.999710 
	C39.301102,124.999710 44.178955,124.999710 49.184898,124.999710 
	C49.184898,104.307419 49.184898,83.929039 49.184898,63.388786 
	C44.075932,63.388786 39.191448,63.388786 33.941662,63.388786 
	C33.941662,78.292419 33.941662,92.895706 33.941521,108.498772 
M158.944214,47.459934 
	C160.018570,46.320721 161.092911,45.181507 161.612228,44.630836 
	C157.697601,40.352734 154.244461,36.578976 150.914200,32.939503 
	C147.119827,36.552284 143.527924,39.972286 139.886017,43.439884 
	C143.706726,47.336662 147.398926,51.102375 151.761398,55.551704 
	C154.096176,52.903042 156.274857,50.431480 158.944214,47.459934 
M32.061443,41.776047 
	C31.908852,42.871002 31.215204,44.427361 31.691566,44.985962 
	C34.761921,48.586407 38.088051,51.968735 40.953373,55.021172 
	C45.160744,50.759846 48.608047,47.268330 51.963917,43.869427 
	C48.549805,40.378120 44.907040,36.652996 40.842571,32.496632 
	C38.032654,35.481159 35.309826,38.373188 32.061443,41.776047 
z"/>
<path fill="#0D0F0E" opacity="1.000000" stroke="none" 
	d="
M162.160736,149.943298 
	C119.300865,153.302307 76.907639,156.645782 34.198914,160.014145 
	C34.198914,155.773346 34.198914,152.012360 34.198914,147.558075 
	C96.607780,142.528580 159.058319,137.495743 221.888580,132.432297 
	C221.888580,136.893021 221.888580,140.957489 221.888580,145.377563 
	C202.071045,146.899200 182.349213,148.413483 162.160736,149.943298 
z"/>
<path fill="#0B0D0C" opacity="1.000000" stroke="none" 
	d="
M171.344681,73.456604 
	C180.004410,62.333874 192.835663,58.616161 205.323608,63.367645 
	C217.644119,68.055428 223.705444,80.364410 222.415665,98.756523 
	C208.762802,98.756523 195.047302,98.756523 181.418076,98.756523 
	C180.191086,108.569748 189.163422,117.705254 200.007446,113.939728 
	C201.224075,113.517265 202.433044,112.805809 203.389557,111.944176 
	C209.846039,106.128036 210.694595,105.856033 221.096603,107.145660 
	C219.230316,116.020088 214.180328,122.048950 205.786682,125.112740 
	C187.347839,131.843140 169.001419,120.832565 166.186554,101.183327 
	C164.814499,91.605659 165.773361,82.228554 171.344681,73.456604 
M207.107101,84.219711 
	C204.877121,76.250755 200.155502,72.886414 192.570755,73.861977 
	C185.642227,74.753136 181.391388,79.818649 181.312332,87.790848 
	C189.259842,87.790848 197.214417,87.862244 205.162521,87.668617 
	C205.873840,87.651283 206.543320,85.916183 207.107101,84.219711 
z"/>
<path fill="#101211" opacity="1.000000" stroke="none" 
	d="
M84.596939,62.341057 
	C87.453377,62.236919 89.894379,62.236919 92.619476,62.236919 
	C92.619476,67.355598 92.619476,71.931602 92.619476,76.493172 
	C92.313652,76.666420 92.031837,76.971031 91.780563,76.947639 
	C78.298248,75.692368 71.870758,81.506859 71.787170,95.172012 
	C71.727150,104.984947 71.775482,114.798546 71.775482,124.974884 
	C66.676201,124.974884 61.788155,124.974884 56.587822,124.974884 
	C56.587822,104.538025 56.587822,84.155296 56.587822,63.416077 
	C60.681705,63.416077 64.742722,63.416077 69.032585,63.416077 
	C69.487625,65.148979 69.978653,67.018913 70.405022,68.642616 
	C75.090660,66.534760 79.636086,64.489975 84.596939,62.341057 
z"/>
<path fill="#090B0A" opacity="1.000000" stroke="none" 
	d="
M109.663597,63.076954 
	C111.107201,63.815132 112.534660,64.350082 112.990959,65.334976 
	C113.710121,66.887245 113.776497,68.741951 114.226082,71.006996 
	C119.881989,63.101501 127.373779,61.502998 136.155685,62.390511 
	C136.155685,67.454391 136.155685,72.036713 136.155685,76.728348 
	C135.574173,76.815308 135.103226,76.988579 134.658173,76.937271 
	C122.649582,75.552612 115.459702,81.628479 115.206596,93.781960 
	C114.992233,104.075562 115.162407,114.377190 115.162407,124.994125 
	C110.192444,124.994125 105.451263,124.994125 100.336670,124.994125 
	C100.336670,104.637665 100.336670,84.126511 100.336670,63.075508 
	C103.317024,63.075508 106.264465,63.075508 109.663597,63.076954 
z"/>
<path fill="#101211" opacity="1.000000" stroke="none" 
	d="
M158.851135,89.000076 
	C158.851334,101.293152 158.851334,113.086220 158.851334,125.083755 
	C153.541962,125.083755 148.612045,125.083755 143.481201,125.083755 
	C143.481201,104.419121 143.481201,84.011047 143.481201,63.334042 
	C148.503662,63.334042 153.273880,63.334042 158.850952,63.334042 
	C158.850952,71.665215 158.850952,80.082642 158.851135,89.000076 
z"/>
<path fill="#090B0A" opacity="1.000000" stroke="none" 
	d="
M33.941589,107.998878 
	C33.941662,92.895706 33.941662,78.292419 33.941662,63.388786 
	C39.191448,63.388786 44.075932,63.388786 49.184898,63.388786 
	C49.184898,83.929039 49.184898,104.307419 49.184898,124.999710 
	C44.178955,124.999710 39.301102,124.999710 33.941521,124.999710 
	C33.941521,119.387253 33.941521,113.943016 33.941589,107.998878 
z"/>
<path fill="#121313" opacity="1.000000" stroke="none" 
	d="
M158.698868,47.709930 
	C156.274857,50.431480 154.096176,52.903042 151.761398,55.551704 
	C147.398926,51.102375 143.706726,47.336662 139.886017,43.439884 
	C143.527924,39.972286 147.119827,36.552284 150.914200,32.939503 
	C154.244461,36.578976 157.697601,40.352734 161.612228,44.630836 
	C161.092911,45.181507 160.018570,46.320721 158.698868,47.709930 
z"/>
<path fill="#141615" opacity="1.000000" stroke="none" 
	d="
M32.324219,41.520630 
	C35.309826,38.373188 38.032654,35.481159 40.842571,32.496632 
	C44.907040,36.652996 48.549805,40.378120 51.963917,43.869427 
	C48.608047,47.268330 45.160744,50.759846 40.953373,55.021172 
	C38.088051,51.968735 34.761921,48.586407 31.691566,44.985962 
	C31.215204,44.427361 31.908852,42.871002 32.324219,41.520630 
z"/>
<path fill="#EEEFEF" opacity="1.000000" stroke="none" 
	d="
M207.169678,84.599281 
	C206.543320,85.916183 205.873840,87.651283 205.162521,87.668617 
	C197.214417,87.862244 189.259842,87.790848 181.312332,87.790848 
	C181.391388,79.818649 185.642227,74.753136 192.570755,73.861977 
	C200.155502,72.886414 204.877121,76.250755 207.169678,84.599281 
z"/>
</svg>