<svg width="121" height="108" viewBox="0 0 121 108" fill="none" xmlns="http://www.w3.org/2000/svg">
<path d="M3.26186 89.2185H0.657846C0.493368 89.2185 0.328922 89.2721 0.191879 89.4068C0.0822384 89.5143 0 89.6758 0 89.8644V107.193C0 107.354 0.0822384 107.516 0.191879 107.65C0.30152 107.758 0.465966 107.839 0.657846 107.839H3.26186C3.4263 107.839 3.59078 107.785 3.72783 107.65C3.83747 107.543 3.91971 107.381 3.91971 107.193V89.8373C3.91971 89.6758 3.83747 89.5143 3.72783 89.4068C3.59078 89.2993 3.4263 89.2185 3.26186 89.2185ZM25.6836 89.2185H11.348C11.1835 89.2185 11.019 89.2721 10.882 89.4068C10.7723 89.5143 10.6901 89.6758 10.6901 89.8644V92.1784C10.6901 92.3399 10.7723 92.5014 10.882 92.6357C10.9916 92.7432 11.1561 92.824 11.348 92.824H16.5561V107.193C16.5561 107.354 16.6383 107.516 16.7478 107.65C16.8574 107.758 17.0219 107.839 17.214 107.839H19.8453C20.0098 107.839 20.1742 107.785 20.3111 107.65C20.421 107.543 20.5032 107.381 20.5032 107.193V92.7972H25.7112C25.8757 92.7972 26.0398 92.7432 26.177 92.6089C26.2866 92.5014 26.3688 92.3399 26.3688 92.1513V89.8373C26.3688 89.7565 26.3415 89.6758 26.3142 89.5951C26.2866 89.5143 26.232 89.4336 26.177 89.38C26.1221 89.3261 26.0398 89.2721 25.9576 89.2453C25.8481 89.2453 25.7658 89.2185 25.6836 89.2185ZM47.4476 89.2185H44.8986C44.8163 89.2185 44.7341 89.2453 44.6518 89.2721C44.5696 89.2993 44.4874 89.3529 44.4324 89.4068C44.3775 89.4607 44.3229 89.5415 44.2952 89.6222C44.2679 89.7029 44.2406 89.7837 44.2406 89.8644V96.6719H36.9493V89.8644C36.9493 89.7029 36.8671 89.5415 36.7576 89.4068C36.648 89.2993 36.4559 89.2185 36.2914 89.2185H33.6874C33.5229 89.2185 33.3585 89.2721 33.2216 89.4068C33.1121 89.5143 33.0298 89.6758 33.0298 89.8644V107.193C33.0298 107.354 33.0844 107.516 33.2216 107.65C33.3312 107.758 33.4956 107.839 33.6874 107.839H36.2914C36.4559 107.839 36.6204 107.785 36.7576 107.65C36.8671 107.543 36.9493 107.381 36.9493 107.193V100.304H44.2406V107.166C44.2406 107.247 44.2679 107.327 44.2952 107.408C44.3229 107.489 44.3775 107.57 44.4324 107.623C44.4874 107.677 44.5696 107.731 44.6518 107.758C44.7341 107.785 44.8163 107.812 44.8986 107.812H47.4749C47.5572 107.812 47.6394 107.785 47.7217 107.758C47.8039 107.731 47.8861 107.677 47.9411 107.623C47.9957 107.57 48.0506 107.489 48.0779 107.408C48.1055 107.327 48.1328 107.247 48.1328 107.166V89.8373C48.1328 89.6758 48.0506 89.5143 47.9411 89.4068C47.8039 89.2993 47.6394 89.2185 47.4476 89.2185ZM69.6775 104.233H60.5772V100.304H69.2117C69.2939 100.304 69.3762 100.278 69.4584 100.251C69.5406 100.224 69.6229 100.17 69.6775 100.116C69.7324 100.062 69.7874 99.9815 69.8147 99.9008C69.842 99.8201 69.8696 99.7393 69.8696 99.6586V97.3177C69.8696 97.237 69.842 97.1563 69.8147 97.0756C69.7874 96.9948 69.7324 96.9141 69.6775 96.8602C69.6229 96.8066 69.5406 96.7526 69.4584 96.7258C69.3762 96.6987 69.2939 96.6719 69.2117 96.6719H60.5772V92.824H69.5952C69.7597 92.824 69.9242 92.7432 70.0614 92.6357C70.1709 92.5282 70.2532 92.3399 70.2532 92.1784V89.8644C70.2532 89.7837 70.2259 89.7029 70.1982 89.6222C70.1709 89.5415 70.116 89.4607 70.0614 89.4068C70.0064 89.3529 69.9242 89.2993 69.842 89.2721C69.7597 89.2453 69.6775 89.2185 69.5952 89.2185H57.3976C57.2331 89.2185 57.0686 89.2993 56.9318 89.4068C56.8219 89.5143 56.7397 89.6758 56.7397 89.8644V107.193C56.7397 107.354 56.7946 107.516 56.9318 107.65C57.0413 107.758 57.2058 107.839 57.3976 107.839H69.7051C69.8696 107.839 70.0337 107.758 70.1709 107.65C70.2805 107.543 70.3627 107.381 70.3627 107.193V104.852C70.3627 104.771 70.3354 104.69 70.3081 104.61C70.2805 104.529 70.2259 104.448 70.1709 104.395C70.116 104.341 70.0337 104.287 69.9518 104.26C69.8696 104.206 69.7597 104.206 69.6775 104.233ZM92.4557 89.2185H89.8517C89.6872 89.2185 89.5227 89.2721 89.3859 89.4068C89.276 89.5143 89.1938 89.6758 89.1938 89.8644V101.973C89.1938 103.856 87.3299 104.529 85.5756 104.529C83.0538 104.529 81.7929 103.668 81.7929 101.973V89.8373C81.7929 89.6758 81.7383 89.5143 81.6011 89.38C81.4916 89.2721 81.3271 89.1914 81.135 89.1914H78.5313C78.3669 89.1914 78.2024 89.2453 78.0652 89.38C77.9557 89.4875 77.8734 89.649 77.8734 89.8373V102.107C77.8734 105.901 80.587 108 85.4933 108C90.2356 108 93.0863 105.847 93.0863 102.269V89.8373C93.0863 89.6758 93.0041 89.5143 92.8942 89.4068C92.7847 89.2993 92.6202 89.2185 92.4557 89.2185ZM119.428 89.2185H115.919C115.782 89.2185 115.645 89.2453 115.535 89.3261C115.426 89.4068 115.343 89.5143 115.289 89.6222L110.738 102L106.298 89.6222C106.243 89.4875 106.161 89.38 106.051 89.2993C105.942 89.2185 105.805 89.1914 105.668 89.1914H102.077C101.912 89.1914 101.748 89.2721 101.611 89.38C101.501 89.4875 101.419 89.649 101.419 89.8373V107.166C101.419 107.327 101.501 107.489 101.611 107.623C101.72 107.731 101.885 107.812 102.077 107.812H104.516C104.681 107.812 104.845 107.731 104.982 107.623C105.092 107.516 105.174 107.354 105.174 107.166V97.5599L108.71 107.381C108.765 107.516 108.847 107.623 108.957 107.704C109.067 107.785 109.204 107.812 109.341 107.812H112.054C112.191 107.812 112.328 107.758 112.438 107.704C112.548 107.623 112.63 107.516 112.685 107.408L116.33 97.506V107.193C116.33 107.354 116.413 107.516 116.522 107.65C116.632 107.758 116.824 107.839 116.988 107.839H119.428C119.592 107.839 119.757 107.758 119.894 107.65C120.003 107.543 120.086 107.381 120.086 107.193V89.8373C120.086 89.6758 120.003 89.5143 119.894 89.4068C119.757 89.2993 119.592 89.2185 119.428 89.2185Z" fill="#1A1A1A"/>
<path d="M57.1294 1.76927C58.487 -0.589755 61.8812 -0.58976 63.2388 1.76927L100.89 67.1922C102.248 69.5512 100.551 72.5 97.8357 72.5H22.5325C19.8172 72.5 18.1202 69.5512 19.4778 67.1922L57.1294 1.76927Z" fill="white"/>
<path fill-rule="evenodd" clip-rule="evenodd" d="M63.2533 1.78985C61.8924 -0.574809 58.4804 -0.574807 57.1195 1.78986L47.8592 17.8806C48.7995 18.5569 49.4122 19.6627 49.4122 20.912C49.4122 21.6566 49.1946 22.3501 48.8197 22.9322L61.5792 35.1677C62.1366 34.8328 62.7887 34.6403 63.4856 34.6403C65.382 34.6403 66.9466 36.0656 67.173 37.9067L82.0675 40.0559C82.3221 39.0288 83.0013 38.17 83.9073 37.678L63.2533 1.78985ZM87.622 44.1327C87.3421 44.3059 87.0376 44.443 86.7149 44.5373L84.3175 57.9269C85.0845 58.6097 85.5678 59.6061 85.5678 60.7157C85.5678 62.7744 83.9043 64.4432 81.8522 64.4432C79.8002 64.4432 78.1366 62.7744 78.1366 60.7157C78.1366 60.1392 78.2671 59.5932 78.5001 59.1059L73.6069 56.4605C73.0443 57.4002 72.0804 58.0706 70.953 58.2332L69.6639 68.8649C70.901 69.4699 71.7534 70.7438 71.7534 72.2174C71.7534 72.3123 71.7499 72.4063 71.7429 72.4994H97.8283C100.55 72.4994 102.253 69.5549 100.895 67.1959L87.622 44.1327ZM64.3327 72.4994C64.3257 72.4063 64.3222 72.3123 64.3222 72.2174C64.3222 71.6451 64.4508 71.103 64.6805 70.6185L47.1926 60.1696C46.5126 60.9261 45.5279 61.4017 44.4324 61.4017C42.3804 61.4017 40.7168 59.7328 40.7168 57.6742C40.7168 55.8277 42.0552 54.2948 43.8118 53.9985L44.6778 24.4976C44.4996 24.4468 44.3268 24.3829 44.1606 24.3071L19.4777 67.1959C18.1201 69.5549 19.8228 72.4994 22.5446 72.4994H64.3327ZM47.5762 24.1281C47.2174 24.3396 46.82 24.4924 46.3972 24.5733L45.5302 54.1121C45.8097 54.1987 46.0751 54.3175 46.3222 54.4641L60.2451 40.1929C59.9426 39.6534 59.77 39.0308 59.77 38.3678C59.77 37.6342 59.9812 36.9501 60.346 36.3734L47.5762 24.1281ZM61.4142 41.4627C62.006 41.8622 62.7187 42.0953 63.4856 42.0953C63.748 42.0953 64.004 42.068 64.251 42.0161L68.3533 51.4454C67.4982 52.0204 66.8944 52.9421 66.7417 54.01L47.8743 56.2675C47.7881 56.0554 47.683 55.853 47.561 55.6625L61.4142 41.4627ZM66.896 55.7302C67.2654 56.835 68.1367 57.7088 69.2381 58.079L67.9757 68.4904C67.1473 68.5041 66.3849 68.7896 65.7733 69.262L48.0185 58.6536C48.0777 58.4347 48.1176 58.2077 48.1361 57.9748L66.896 55.7302ZM79.8039 57.6054L74.1351 54.5406C74.1344 53.7828 73.9083 53.078 73.5205 52.4899L82.8951 43.4332C83.3957 43.9983 84.065 44.4097 84.8237 44.5878L82.5902 57.0618C82.3517 57.0136 82.1049 56.9883 81.8522 56.9883C81.0952 56.9883 80.3911 57.2154 79.8039 57.6054ZM81.8663 41.771L72.0916 51.2143C71.589 50.9598 71.0209 50.8164 70.4195 50.8164C70.267 50.8164 70.1168 50.8256 69.9692 50.8435L65.8076 41.2779C66.3391 40.8505 66.7511 40.2796 66.985 39.6237L81.8663 41.771Z" fill="url(#paint0_linear_15_2070)"/>
<defs>
<linearGradient id="paint0_linear_15_2070" x1="74.6434" y1="11.1249" x2="8.23075" y2="81.3083" gradientUnits="userSpaceOnUse">
<stop stop-color="#E07EDD"/>
<stop offset="0.374663" stop-color="#1768E2"/>
<stop offset="0.685257" stop-color="#00E4C8"/>
<stop offset="1" stop-color="#A7FD63"/>
</linearGradient>
</defs>
</svg>
