<svg xmlns="http://www.w3.org/2000/svg" viewBox="0 0 500 46.11"><defs><style>.cls-1,.cls-3{fill:#333;}.cls-2{fill:#c04;}.cls-3{font-size:37.66px;font-family:Futura-Medium, Futura;font-weight:500;}.cls-4{letter-spacing:0.01em;}.cls-5{font-family:Futura-Bold, Futura;font-weight:700;}</style></defs><g id="Layer_2" data-name="Layer 2"><g id="Layer_1-2" data-name="Layer 1"><circle class="cls-1" cx="13.85" cy="8.2" r="5.44"/><circle class="cls-1" cx="27.88" cy="8.2" r="5.44"/><circle class="cls-1" cx="42.61" cy="8.2" r="5.44"/><circle class="cls-1" cx="56.99" cy="8.2" r="5.44"/><circle class="cls-1" cx="56.99" cy="29.86" r="5.44"/><circle class="cls-1" cx="42.61" cy="29.86" r="5.44"/><circle class="cls-1" cx="27.88" cy="29.86" r="5.44"/><circle class="cls-1" cx="13.85" cy="29.86" r="5.44"/><circle class="cls-2" cx="2.98" cy="30.3" r="2.98"/><circle class="cls-2" cx="67.45" cy="8.65" r="2.98"/><path class="cls-1" d="M17.86,4.53l.32.11a8.67,8.67,0,0,0,5.69-.11h0l-.21,7.1h0a6.9,6.9,0,0,0-5.28-.12l-.3.12Z"/><path class="cls-1" d="M31.91,26.31l.35.1a10.64,10.64,0,0,0,6.32-.1h0l-.24,7.09h0a8.53,8.53,0,0,0-5.85-.12l-.34.12Z"/><path class="cls-1" d="M46.32,26.31l.36.1a11.69,11.69,0,0,0,6.63-.1h0l-.25,7.09h0a9.37,9.37,0,0,0-6.14-.12l-.36.12Z"/><text class="cls-3" transform="translate(86.77 33.16)">JOUR<tspan class="cls-4" x="99.58" y="0">N</tspan><tspan x="131.6" y="0">ALISM.</tspan><tspan class="cls-5" x="257.07" y="0">DESIGN</tspan></text></g></g></svg>