<svg id="Layer_1" data-name="Layer 1" xmlns="http://www.w3.org/2000/svg" viewBox="0 0 313.4 137.18"><defs><style>.cls-1{fill:#161213;}</style></defs><rect class="cls-1" x="105.57" width="73.84" height="26.38"/><polygon class="cls-1" points="218.43 0 218.43 26.38 287.03 26.38 287.03 52.76 313.4 52.76 313.4 0 218.43 0"/><polygon class="cls-1" points="244.81 110.79 244.81 79.14 287.03 79.14 287.03 52.75 218.44 52.75 218.44 60.97 218.43 60.97 218.43 137.17 313.4 137.17 313.4 110.79 244.81 110.79"/><polygon class="cls-1" points="130.58 137.17 159.42 137.17 208.56 26.38 179.39 26.38 130.58 137.17"/><rect class="cls-1" y="0.02" width="27.55" height="137.16"/><polygon class="cls-1" points="113.76 137.18 83.74 137.18 57.92 79.14 88.33 79.12 113.76 137.18"/><polygon class="cls-1" points="62.72 0 27.7 79.14 57.98 79.14 92.74 0 62.72 0"/></svg>