<?xml version="1.0" encoding="UTF-8"?>
<svg id="Layer_1" data-name="Layer 1" xmlns="http://www.w3.org/2000/svg" viewBox="0 0 185 52">
  <defs>
    <style>
      .cls-1, .cls-2 {
        stroke-width: 0px;
      }

      .cls-2 {
        fill: #f01539;
      }
    </style>
  </defs>
  <g id="g3568">
    <path id="path3072" class="cls-1" d="M91.65,50.59c0-.63-.1-1.15-.1-1.78-.84,1.36-1.89,1.99-3.46,1.99-2.2,0-4.09-1.05-4.09-3.46,0-3.35,3.67-3.77,5.66-3.77.63,0,1.26,0,1.78.1,0-1.47-1.15-1.89-2.51-1.89-1.26,0-2.41.21-3.56.84v-2.62c1.36-.52,2.83-.84,4.4-.84,2.83,0,5.24,1.15,5.24,4.61v4.09c0,.84,0,1.78.21,2.62h-3.56v.1ZM89.04,48.39c1.47,0,2.3-1.26,2.3-2.62h-1.57c-1.26,0-2.3.42-2.3,1.47,0,.63.73,1.15,1.57,1.15Z"/>
    <path id="path3076" class="cls-1" d="M108.31,50.59h-3.56v-1.99c-.52,1.26-1.99,2.2-3.77,2.2-3.25,0-5.03-2.72-5.03-5.97,0-2.72,1.68-5.55,4.71-5.55,1.57,0,2.83.42,3.77,1.68v-6.29h3.88v15.93h0ZM102.24,47.97c1.26,0,2.3-1.15,2.3-2.83s-.94-2.83-2.3-2.83c-1.47,0-2.3,1.26-2.3,2.72,0,1.68.84,2.93,2.3,2.93h0Z"/>
    <path id="path3080" class="cls-1" d="M110.2,39.69h3.46v1.99c.73-1.57,2.3-2.3,3.98-2.3,2.93,0,4.19,2.1,4.19,4.4v6.81h-3.77v-5.34c0-2.1-.73-2.83-1.78-2.83-1.57,0-2.41,1.05-2.41,3.46v4.71h-3.77l.1-10.9Z"/>
    <path id="path3084" class="cls-1" d="M123.92,34.77h1.99v9.43l4.3-4.4h2.72l-5.03,4.71,5.66,5.97h-2.83l-4.82-5.55v5.55h-1.89l-.1-15.72Z"/>
    <path id="path3088" class="cls-1" d="M134.4,39.79h1.89v1.68c.52-1.15,1.68-1.89,2.83-1.89.63,0,.94,0,1.26.1v1.78c-.31-.1-.73-.21-1.05-.21-1.78,0-2.93,1.68-2.93,4.4v4.92h-1.99v-10.79Z"/>
    <path id="path3092" class="cls-1" d="M146.14,39.59c3.25,0,5.45,2.41,5.45,5.66,0,3.04-2.2,5.66-5.45,5.66s-5.55-2.51-5.55-5.66c0-3.25,2.3-5.66,5.55-5.66ZM146.14,49.33c2.3,0,3.35-2.1,3.35-3.98,0-1.99-1.26-3.98-3.35-3.98s-3.35,1.99-3.35,3.98c0,1.89,1.05,3.98,3.35,3.98Z"/>
    <path id="path3096" class="cls-1" d="M152.95,39.79h1.89v1.68c.63-1.26,1.99-1.99,3.56-1.99,2.83,0,3.98,1.78,3.98,4.61v6.39h-1.99v-5.55c0-2.51-.52-3.77-2.3-3.88-2.3,0-3.25,1.89-3.25,4.4v4.92h-1.99l.1-10.58h0Z"/>
    <path id="path3100" class="cls-1" d="M169.39,39.59c3.25,0,5.45,2.41,5.45,5.66,0,3.04-2.2,5.66-5.45,5.66s-5.55-2.51-5.55-5.66c.1-3.25,2.2-5.66,5.55-5.66ZM169.39,49.33c2.3,0,3.35-2.1,3.35-3.98,0-1.99-1.26-3.98-3.35-3.98s-3.35,1.99-3.35,3.98c0,1.89,1.05,3.98,3.35,3.98Z"/>
    <path id="path3104" class="cls-1" d="M175.89,48.49c.84.52,1.89.73,2.51.73.94,0,1.99-.42,1.99-1.57,0-1.99-4.71-1.78-4.71-4.82,0-2.2,1.68-3.35,3.77-3.35.94,0,1.68.21,2.51.42l-.1,1.78c-.42-.21-1.68-.52-2.1-.52-.94,0-1.89.42-1.89,1.26,0,2.2,4.71,1.57,4.71,5.03,0,2.3-1.89,3.35-3.77,3.35-.94,0-1.99-.1-2.93-.63v-1.68h0Z"/>
    <path id="path3108" class="cls-2" d="M46.81,4.07c0-1.68,1.36-3.04,3.04-3.04h20.01c1.68,0,3.04,1.36,3.04,3.04,0,.63-.21,1.26-.63,1.78l-10.37,14.14c-.42.52-.63,1.15-.63,1.78,0,.73.21,1.26.63,1.78l16.34,22.21c.31.52.63,1.05.63,1.78,0,1.68-1.36,3.04-3.04,3.04h-25.98c-1.68,0-3.04-1.36-3.04-3.04V4.07h0Z"/>
    <path id="path3112" class="cls-2" d="M37.49,1.03c-.94,0-1.89.42-2.41,1.15L2.91,45.77c-.31.52-.52,1.05-.52,1.68,0,1.68,1.36,3.04,3.04,3.04h32.06c1.68,0,3.04-1.36,3.04-3.04V3.96c0-1.57-1.36-2.93-3.04-2.93h0Z"/>
  </g>
</svg>