<?xml version="1.0" encoding="UTF-8"?><svg id="a" xmlns="http://www.w3.org/2000/svg" xmlns:xlink="http://www.w3.org/1999/xlink" viewBox="0 0 415.36 125.32"><defs><style>.h{fill:url(#c);}.i,.j,.k{fill:#b10035;}.j{fill-rule:evenodd;}.l{fill:#5b5b5d;}.m{fill:url(#b);}.n{fill:none;filter:url(#f);}.n,.k{stroke:#5b5b5d;stroke-width:2.65px;}.k{filter:url(#d);}</style><radialGradient id="b" cx="74.8" cy="43.55" fx="74.8" fy="43.55" r="64.36" gradientTransform="matrix(1, 0, 0, 1, 0, 0)" gradientUnits="userSpaceOnUse"><stop offset="0" stop-color="#fff"/><stop offset=".12" stop-color="#f6f6f6"/><stop offset=".31" stop-color="#dedede"/><stop offset=".55" stop-color="#b7b7b8"/><stop offset=".82" stop-color="#818183"/><stop offset="1" stop-color="#5b5b5d"/></radialGradient><radialGradient id="c" cx="17.48" cy="7.56" fx="17.48" fy="7.56" r="19.47" gradientTransform="matrix(1, 0, 0, 1, 0, 0)" gradientUnits="userSpaceOnUse"><stop offset="0" stop-color="#fff"/><stop offset=".08" stop-color="#fcf6f8"/><stop offset=".22" stop-color="#f4dee5"/><stop offset=".4" stop-color="#e9b7c6"/><stop offset=".6" stop-color="#d8819b"/><stop offset=".82" stop-color="#c33c65"/><stop offset="1" stop-color="#b10035"/></radialGradient><filter id="d" filterUnits="userSpaceOnUse"><feOffset dx="-10.74" dy="10.74"/><feGaussianBlur result="e" stdDeviation="12.63"/><feFlood flood-color="#1a171b" flood-opacity=".5"/><feComposite in2="e" operator="in"/><feComposite in="SourceGraphic"/></filter><filter id="f" filterUnits="userSpaceOnUse"><feOffset dx="-10.74" dy="10.74"/><feGaussianBlur result="g" stdDeviation="12.63"/><feFlood flood-color="#1a171b" flood-opacity=".5"/><feComposite in2="g" operator="in"/><feComposite in="SourceGraphic"/></filter></defs><g><g><path class="m" d="M57.54,18.78c-19.21,0-35.28,13.26-39.66,31.1H97.22c-4.38-17.85-20.47-31.1-39.68-31.1Zm0,81.72c19.06,0,35.05-13.02,39.58-30.65H17.97c4.52,17.63,20.51,30.65,39.57,30.65Z"/><polygon class="i" points="21.88 55.84 27.77 55.84 28.2 53.79 19.89 53.79 17.23 66.34 19.64 66.34 20.74 61.15 26.35 61.15 26.76 59.18 21.17 59.18 21.88 55.84 21.88 55.84"/><polygon class="i" points="32.89 53.79 30.48 53.79 27.8 66.34 30.22 66.34 32.89 53.79 32.89 53.79"/><polygon class="i" points="42.54 64.27 42.5 64.27 39.33 53.79 35.35 53.79 32.68 66.34 35.08 66.34 37.12 55.84 37.19 55.84 40.31 66.34 44.32 66.34 46.98 53.79 44.57 53.79 42.54 64.27 42.54 64.27"/><path class="i" d="M58.73,57.97l.14-.68c.62-3.6-1.17-3.61-4.31-3.61-3.69,0-5.45,.9-6.32,4.93l-.59,2.87c-.74,3.68-.28,5.14,4.19,4.96,3.17-.12,5.27,0,6.04-3.77l.17-.83h-2.41l-.14,.68c-.37,1.79-1.26,1.88-3.23,1.88-2.53,0-2.72-.49-2.19-3.01l.6-2.78c.49-2.46,1.02-2.87,3.44-2.87,2.12,0,2.66,.11,2.35,1.56l-.14,.68h2.4Z"/><path class="j" d="M66.81,53.68c-3.98,0-5.47,.68-6.3,4.6l-.71,3.37c-.87,4.14,.42,4.79,4.31,4.79s5.51-.77,6.38-4.79l.69-3.37c.88-4.05-.75-4.6-4.37-4.6h0Zm-.43,2.05c2.16,0,2.97,.17,2.41,2.55l-.74,3.37c-.49,2.44-1.33,2.75-3.52,2.75-2.41,0-2.84-.25-2.3-2.75l.7-3.37c.49-1.99,.87-2.55,3.46-2.55h0Z"/><polygon class="i" points="81.57 64.27 81.51 64.27 78.36 53.79 74.37 53.79 71.7 66.34 74.11 66.34 76.15 55.84 76.23 55.84 79.35 66.34 83.35 66.34 86.02 53.79 83.61 53.79 81.57 64.27 81.57 64.27"/><path class="i" d="M86.25,62.34l-.11,.57c-.77,3.61,1.73,3.52,4.51,3.52,3.24,0,4.97-.29,5.7-3.83,.71-3.21-.29-3.4-4.12-3.64-2.41-.14-2.72-.19-2.38-1.73,.25-1.33,.69-1.58,3.09-1.58,1.7,0,2.22,.05,1.95,1.42l-.09,.4h2.41l.11-.4c.68-3.3-1.39-3.4-3.94-3.4-3.03,0-5.23,.11-5.96,3.55-.77,3.66,1.39,3.55,4.08,3.72,1.85,.11,2.86-.14,2.47,1.65-.29,1.45-.7,1.85-2.9,1.85s-2.81-.09-2.5-1.54l.09-.57h-2.39Z"/><path class="h" d="M24.92,12.48c0,6.87-5.58,12.46-12.45,12.46S0,19.35,0,12.48,5.59,0,12.48,0s12.45,5.59,12.45,12.48Z"/></g><g><polygon class="i" points="130.96 43.8 153.93 43.8 155.66 35.78 123.27 35.78 112.87 84.72 122.28 84.72 126.57 64.49 148.37 64.49 150 56.8 128.21 56.8 130.96 43.8 130.96 43.8"/><polygon class="i" points="171.85 35.78 162.43 35.78 152.02 84.72 161.42 84.72 171.85 35.78 171.85 35.78"/><polygon class="i" points="207.49 76.69 207.21 76.69 194.98 35.78 179.45 35.78 169.04 84.72 178.44 84.72 186.37 43.8 186.67 43.8 198.78 84.72 214.41 84.72 224.82 35.78 215.43 35.78 207.49 76.69 207.49 76.69"/><path class="i" d="M268.77,52.17l.56-2.67c2.35-14.04-4.63-14.1-16.85-14.1-14.41,0-21.24,3.52-24.55,19.18l-2.39,11.24c-2.84,14.3-.99,19.95,16.39,19.3,12.25-.53,20.55,0,23.52-14.75l.65-3.2h-9.36l-.58,2.67c-1.48,7-4.94,7.24-12.53,7.24-9.84,0-10.62-1.88-8.6-11.67l2.3-10.84c2.02-9.59,4-11.15,13.45-11.15,8.25,0,10.38,.37,9.17,6.07l-.57,2.67h9.4Z"/><path class="j" d="M299,35.4c-15.53,0-21.25,2.67-24.46,17.88l-2.81,13.19c-3.43,16.04,1.57,18.66,16.71,18.66s21.53-3,24.86-18.66l2.81-13.19c3.33-15.74-3.01-17.88-17.11-17.88h0Zm-1.7,8.03c8.34,0,11.55,.65,9.39,9.85l-2.81,13.19c-1.98,9.45-5.17,10.62-13.73,10.62-9.4,0-11.1-.9-9.02-10.62l2.79-13.19c1.85-7.78,3.26-9.85,13.37-9.85h0Z"/><polygon class="i" points="354.71 76.69 354.46 76.69 342.2 35.78 326.65 35.78 316.27 84.72 325.66 84.72 333.6 43.8 333.92 43.8 346.01 84.72 361.61 84.72 372.04 35.78 362.63 35.78 354.71 76.69 354.71 76.69"/><path class="i" d="M371.8,69.12l-.5,2.29c-3,14.05,6.75,13.71,17.61,13.71,12.59,0,19.35-1.17,22.27-14.93,2.67-12.46-1.27-13.26-16.19-14.18-9.37-.57-10.56-.79-9.3-6.78,1.11-5.22,2.81-6.15,12.14-6.15,6.59,0,8.71,.22,7.58,5.5l-.32,1.54h9.37l.36-1.54c2.72-12.88-5.37-13.19-15.35-13.19-11.75,0-20.32,.38-23.2,13.84-3,14.24,5.42,13.84,15.89,14.49,7.2,.4,11.1-.53,9.62,6.47-1.2,5.67-2.69,7.24-11.24,7.24s-11.03-.4-9.85-6.02l.51-2.29h-9.41Z"/><path class="l" d="M249.22,106.65l-1.34,6.3c-2.18,10.25-5.2,12.37-17.56,12.37-11.1,0-14.84-1.95-12.36-13.67l1.7-7.97c2.47-11.55,7.41-13.59,18.13-13.59,8.46,0,15.21-.4,12.62,10.73h-6.62c1.1-5.08-1.42-5.04-7.2-5.04-7.75,0-8.76,1.22-10.29,7.89l-1.7,7.97c-1.45,7.26-.5,7.97,6.92,7.97,6.33,0,8.31-.12,9.7-6.67l.25-1.27h-8.71l1.07-5.03h15.4Z"/><path class="l" d="M264.88,113.6l-2.44,11.46h-6.64l7.37-34.68h17.7c7.52,.19,9.95,2.56,8.28,10.41-1.1,5.14-2.15,8.86-8.2,9.76l-.06,.19c4.62,.4,5.25,2.95,4.23,7.84l-1.39,6.49h-6.67l1.39-6.49c.6-2.9-.17-4.94-3.32-4.97h-10.24Zm9.99-5.7c4.93,0,6.31-.97,7.38-6.04,1.07-4.91,.36-5.81-4.4-5.81h-9.25l-2.52,11.84h8.79Z"/><path class="l" d="M327.11,102.76l-1.99,9.36c-2.36,11.09-7.12,13.2-17.59,13.2s-14.27-1.84-11.84-13.2l1.99-9.36c2.27-10.75,6.33-12.66,17.34-12.66,9.98,0,14.47,1.54,12.09,12.66Zm-22.79,0l-1.98,9.36c-1.45,6.87-.28,7.5,6.39,7.5,6.05,0,8.31-.82,9.73-7.5l1.98-9.36c1.53-6.49-.71-6.96-6.64-6.96-7.17,0-8.15,1.47-9.48,6.96Z"/><path class="l" d="M367.23,90.37l-5.25,24.65c-2.07,9.67-8.25,10.3-16.66,10.3s-14.25-.6-12.15-10.3l5.22-24.65h6.66l-5.25,24.65c-.76,3.55,.31,4.6,6.75,4.6s7.98-.86,8.8-4.6l5.22-24.65h6.67Z"/><path class="l" d="M379.39,90.37h15.33c9.3,0,11.86,2.22,9.81,11.92-2.07,9.82-5.73,11.52-14.79,11.52h-8.66l-2.39,11.24h-6.66l7.37-34.68Zm11.55,17.76c4.8-.09,5.9-.96,6.93-5.84,1.05-4.88,.65-6.27-4.36-6.24h-8.69l-2.58,12.08h8.7Z"/></g></g><path class="k" d="M370.24,26.87"/><path class="n" d="M154.37,50.54"/></svg>