<svg version="1.1" id="Layer_1" xmlns="http://www.w3.org/2000/svg" xmlns:xlink="http://www.w3.org/1999/xlink" x="0px" y="0px"
	 width="100%" viewBox="0 0 2315 444" enable-background="new 0 0 2315 444" xml:space="preserve">
<path fill="#03C75A" opacity="1.000000" stroke="none" 
	d="
M142.000000,445.000000 
	C95.028259,445.000000 48.056515,445.000000 1.084774,445.000000 
	C1.056517,444.861694 1.003491,444.723389 1.003488,444.585083 
	C0.999972,296.840637 1.000000,149.096176 1.000000,1.000000 
	C48.353645,1.000000 95.708168,1.000000 143.536041,1.360510 
	C144.976547,3.020639 145.995956,4.284901 146.903091,5.625145 
	C162.740204,29.023466 178.501328,52.473495 194.407745,75.824577 
	C209.777985,98.388542 225.376221,120.797340 240.726135,143.375046 
	C258.619904,169.694412 276.337433,196.133575 294.171448,222.493698 
	C297.010010,226.689301 300.058380,230.742966 303.009766,234.862259 
	C303.339844,234.678467 303.669922,234.494659 304.000000,234.310867 
	C304.000000,156.540573 304.000000,78.770287 304.000000,1.000000 
	C351.020905,1.000000 398.041779,1.000000 445.531342,1.468657 
	C446.000000,149.624878 446.000000,297.312439 446.000000,445.000000 
	C398.645782,445.000000 351.291534,445.000000 303.378296,444.665924 
	C301.220673,442.271667 299.510681,440.287720 298.040710,438.139526 
	C282.356232,415.218353 266.702301,392.276215 251.055038,369.329590 
	C235.410477,346.386841 219.735123,323.464905 204.160446,300.474762 
	C185.586273,273.056976 167.113831,245.570297 148.569000,218.132584 
	C146.742096,215.429611 144.717728,212.860092 142.000000,209.159821 
	C142.000000,288.807983 142.000000,366.903992 142.000000,445.000000 
z"/>
<path fill="#03C75A" opacity="1.000000" stroke="none" 
	d="
M2118.000000,0.999991 
	C2118.750000,1.000000 2119.500000,1.000000 2120.783203,1.371252 
	C2126.305664,2.493643 2131.298584,3.221040 2136.283203,4.000804 
	C2147.378662,5.736483 2158.612061,6.878146 2169.532959,9.380638 
	C2191.269287,14.361463 2212.017090,22.091078 2231.260742,33.638012 
	C2250.158203,44.977024 2265.606689,59.751579 2276.404785,78.978081 
	C2291.681885,106.180367 2296.548340,135.636154 2295.169434,166.583054 
	C2294.546143,180.569580 2292.795654,194.179352 2289.057617,207.646622 
	C2283.312256,228.346588 2272.665771,246.250687 2257.804932,261.463593 
	C2248.330078,271.163055 2236.937256,278.672852 2224.698486,284.623260 
	C2218.330322,287.719269 2211.644043,290.161072 2204.935059,292.968048 
	C2220.225098,313.815094 2235.182373,334.302551 2250.241211,354.715179 
	C2266.769043,377.119019 2283.337891,399.493378 2300.002930,421.795166 
	C2305.143066,428.673828 2310.657227,435.272888 2316.000000,441.999969 
	C2316.000000,442.997040 2316.000000,443.994110 2316.000000,444.995575 
	C2267.645752,445.000000 2219.291748,445.000000 2170.378418,444.665894 
	C2168.287354,442.419128 2166.616943,440.600464 2165.244629,438.579498 
	C2149.459229,415.333344 2133.757080,392.030731 2117.953613,368.796692 
	C2107.440186,353.339691 2096.857422,337.928467 2086.116699,322.629303 
	C2085.151611,321.254364 2082.809570,320.139282 2081.088867,320.113251 
	C2067.593506,319.908905 2054.093750,320.000000 2040.595215,320.000000 
	C2038.827148,320.000000 2037.059082,320.000000 2035.000000,320.000000 
	C2035.000000,362.063690 2035.000000,403.531830 2035.000000,445.000000 
	C1988.312378,445.000000 1941.624878,445.000000 1894.468628,444.531342 
	C1894.000000,296.375122 1894.000000,148.687561 1894.000000,1.000000 
	C1967.020874,1.000000 2040.041626,1.000000 2113.651367,1.342538 
	C2115.493652,1.456711 2116.746826,1.228346 2118.000000,0.999991 
M2115.882568,206.619217 
	C2120.236816,204.928711 2125.030762,203.917297 2128.870605,201.432098 
	C2147.148926,189.603104 2155.841064,173.095551 2151.985352,151.017853 
	C2148.133057,128.958893 2128.891113,113.496140 2107.820557,113.107361 
	C2083.003418,112.649460 2058.171631,113.000015 2033.346191,113.000015 
	C2031.602417,113.000015 2029.858765,113.000008 2028.237305,113.000008 
	C2028.237305,145.041275 2028.237305,176.310577 2028.237305,208.504730 
	C2057.349854,207.983719 2086.215576,207.467133 2115.882568,206.619217 
z"/>
<path fill="#03C75A" opacity="1.000000" stroke="none" 
	d="
M1821.000000,445.000000 
	C1704.978027,445.000000 1588.955933,445.000000 1472.467041,444.531342 
	C1472.000000,296.375122 1472.000000,148.687561 1472.000000,1.000000 
	C1588.021973,1.000000 1704.044067,1.000000 1820.532959,1.468657 
	C1821.000000,38.860352 1821.000000,75.783394 1821.000000,113.171783 
	C1751.685425,113.171783 1682.969360,113.171783 1614.353882,113.171783 
	C1614.353882,132.700562 1614.353882,151.758743 1614.353882,171.280624 
	C1680.756958,171.280624 1746.807007,171.280624 1812.772217,171.280624 
	C1812.772217,206.020401 1812.772217,240.290451 1812.772217,275.028564 
	C1746.496338,275.028564 1680.446289,275.028564 1614.282715,275.028564 
	C1614.282715,294.556213 1614.282715,313.613342 1614.282715,333.137512 
	C1683.280151,333.137512 1751.996338,333.137512 1821.000000,333.137512 
	C1821.000000,370.736938 1821.000000,407.868469 1821.000000,445.000000 
z"/>
<path fill="#03C75A" opacity="1.000000" stroke="none" 
	d="
M998.000000,445.000000 
	C948.645752,445.000000 899.291565,445.000000 849.468079,444.600647 
	C842.250366,424.853394 835.501953,405.505493 828.811218,386.322845 
	C828.155518,386.174347 827.834961,386.038239 827.514404,386.038147 
	C773.405151,386.019196 719.295776,385.982941 665.186951,386.133057 
	C663.588928,386.137482 661.062378,387.770660 660.542969,389.211884 
	C653.861633,407.747742 647.467102,426.386963 641.000000,445.000000 
	C591.645752,445.000000 542.291565,445.000000 492.573547,444.646545 
	C493.815491,440.249084 495.431458,436.209076 497.025208,432.160339 
	C507.102356,406.560577 517.147278,380.948059 527.256714,355.361053 
	C536.118286,332.932343 545.128235,310.561951 553.931885,288.110596 
	C564.976807,259.943481 575.857056,231.711807 586.847717,203.523315 
	C597.546265,176.083939 608.279175,148.657944 619.025391,121.237198 
	C629.004639,95.773476 639.046448,70.334312 649.011658,44.865124 
	C654.724976,30.263174 660.340454,15.622979 666.000000,1.000000 
	C718.354248,1.000000 770.708435,1.000000 823.639221,1.357077 
	C826.146057,6.670178 828.068909,11.629120 830.007874,16.581745 
	C840.037109,42.199406 850.030457,67.831200 860.114319,93.427322 
	C869.012878,116.014671 878.087036,138.532974 886.951599,161.133591 
	C898.118286,189.603470 909.126404,218.135513 920.248169,246.623077 
	C930.135010,271.947510 940.088196,297.246033 950.003540,322.559357 
	C960.037415,348.175140 970.054077,373.797668 980.091248,399.412140 
	C986.047913,414.613159 992.029602,429.804352 998.000000,445.000000 
M771.936646,219.710205 
	C763.369995,196.197464 754.803284,172.684723 745.721680,147.758575 
	C744.292603,150.133072 743.401062,151.237473 742.909546,152.497879 
	C741.029907,157.317902 739.232910,162.171616 737.487305,167.042191 
	C723.793335,205.250381 710.118469,243.465393 696.370178,281.867004 
	C728.868286,281.867004 761.142944,281.867004 793.469543,281.867004 
	C793.308594,281.047974 793.250732,280.228149 792.985718,279.481903 
	C786.003662,259.821198 779.000244,240.168091 771.936646,219.710205 
z"/>
<path fill="#03C75A" opacity="1.000000" stroke="none" 
	d="
M921.000000,1.000001 
	C970.354248,1.000000 1019.708496,1.000000 1069.538452,1.388813 
	C1082.198730,35.889572 1094.360718,70.009621 1106.573853,104.111382 
	C1120.534180,143.091751 1134.579712,182.041672 1148.509644,221.032867 
	C1155.801147,241.442596 1162.900635,261.920898 1170.157837,282.342957 
	C1170.961182,284.603882 1172.231445,286.698914 1173.690430,289.706238 
	C1176.372803,282.851166 1178.801392,277.055023 1180.924927,271.149200 
	C1192.308594,239.490768 1203.644165,207.814850 1214.943726,176.126190 
	C1228.524292,138.040054 1242.075806,99.943428 1255.593262,61.834824 
	C1262.779663,41.574627 1269.867554,21.279396 1277.000000,0.999993 
	C1326.354248,1.000000 1375.708496,1.000000 1425.530762,1.390963 
	C1423.003906,9.627913 1420.056641,17.492519 1417.005249,25.316494 
	C1407.017456,50.926033 1397.027466,76.534874 1386.969482,102.116974 
	C1378.034424,124.842941 1368.949097,147.509903 1360.036377,170.244614 
	C1349.060181,198.242722 1338.215820,226.292480 1327.275269,254.304611 
	C1315.863281,283.523743 1304.427368,312.733612 1292.958984,341.930725 
	C1282.257812,369.175049 1271.462280,396.382416 1260.793579,423.639435 
	C1258.031738,430.695435 1255.589111,437.876404 1253.000000,445.000000 
	C1200.312378,445.000000 1147.624878,445.000000 1094.468018,444.609009 
	C1091.004028,436.372437 1088.056763,428.508301 1085.005493,420.684753 
	C1075.017456,395.075317 1065.027710,369.466461 1054.969727,343.884460 
	C1046.034668,321.158630 1036.948608,298.492035 1028.036621,275.757233 
	C1017.061279,247.758591 1006.219421,219.707672 995.278687,191.695404 
	C983.866577,162.476151 972.428101,133.267166 960.959167,104.070198 
	C950.257202,76.825851 939.462219,49.618008 928.793335,22.360752 
	C926.031555,15.304701 923.589172,8.123631 921.000000,1.000001 
z"/>
<path fill="#FFFFFF" opacity="1.000000" stroke="none" 
	d="
M665.531372,1.000000 
	C660.340454,15.622979 654.724976,30.263174 649.011658,44.865124 
	C639.046448,70.334312 629.004639,95.773476 619.025391,121.237198 
	C608.279175,148.657944 597.546265,176.083939 586.847717,203.523315 
	C575.857056,231.711807 564.976807,259.943481 553.931885,288.110596 
	C545.128235,310.561951 536.118286,332.932343 527.256714,355.361053 
	C517.147278,380.948059 507.102356,406.560577 497.025208,432.160339 
	C495.431458,436.209076 493.815491,440.249084 492.104889,444.646545 
	C476.979095,445.000000 461.958221,445.000000 446.468658,445.000000 
	C446.000000,297.312439 446.000000,149.624878 446.000000,1.468657 
	C519.020874,1.000000 592.041809,1.000000 665.531372,1.000000 
z"/>
<path fill="#FFFFFF" opacity="1.000000" stroke="none" 
	d="
M1253.468628,445.000000 
	C1255.589111,437.876404 1258.031738,430.695435 1260.793579,423.639435 
	C1271.462280,396.382416 1282.257812,369.175049 1292.958984,341.930725 
	C1304.427368,312.733612 1315.863281,283.523743 1327.275269,254.304611 
	C1338.215820,226.292480 1349.060181,198.242722 1360.036377,170.244614 
	C1368.949097,147.509903 1378.034424,124.842941 1386.969482,102.116974 
	C1397.027466,76.534874 1407.017456,50.926033 1417.005249,25.316494 
	C1420.056641,17.492519 1423.003906,9.627913 1425.999390,1.390963 
	C1441.020874,1.000000 1456.041870,1.000000 1471.531372,1.000000 
	C1472.000000,148.687561 1472.000000,296.375122 1472.000000,444.531342 
	C1399.312378,445.000000 1326.624878,445.000000 1253.468628,445.000000 
z"/>
<path fill="#FFFFFF" opacity="1.000000" stroke="none" 
	d="
M1821.468628,445.000000 
	C1821.000000,407.868469 1821.000000,370.736938 1821.000000,333.137512 
	C1751.996338,333.137512 1683.280151,333.137512 1614.282715,333.137512 
	C1614.282715,313.613342 1614.282715,294.556213 1614.282715,275.028564 
	C1680.446289,275.028564 1746.496338,275.028564 1812.772217,275.028564 
	C1812.772217,240.290451 1812.772217,206.020401 1812.772217,171.280624 
	C1746.807007,171.280624 1680.756958,171.280624 1614.353882,171.280624 
	C1614.353882,151.758743 1614.353882,132.700562 1614.353882,113.171783 
	C1682.969360,113.171783 1751.685425,113.171783 1821.000000,113.171783 
	C1821.000000,75.783394 1821.000000,38.860352 1821.000000,1.468657 
	C1845.020874,1.000000 1869.041870,1.000000 1893.531372,1.000000 
	C1894.000000,148.687561 1894.000000,296.375122 1894.000000,444.531342 
	C1869.979126,445.000000 1845.958130,445.000000 1821.468628,445.000000 
z"/>
<path fill="#FFFFFF" opacity="1.000000" stroke="none" 
	d="
M920.531372,1.000001 
	C923.589172,8.123631 926.031555,15.304701 928.793335,22.360752 
	C939.462219,49.618008 950.257202,76.825851 960.959167,104.070198 
	C972.428101,133.267166 983.866577,162.476151 995.278687,191.695404 
	C1006.219421,219.707672 1017.061279,247.758591 1028.036621,275.757233 
	C1036.948608,298.492035 1046.034668,321.158630 1054.969727,343.884460 
	C1065.027710,369.466461 1075.017456,395.075317 1085.005493,420.684753 
	C1088.056763,428.508301 1091.004028,436.372437 1093.999512,444.609009 
	C1062.312500,445.000000 1030.624878,445.000000 998.468628,445.000000 
	C992.029602,429.804352 986.047913,414.613159 980.091248,399.412140 
	C970.054077,373.797668 960.037415,348.175140 950.003540,322.559357 
	C940.088196,297.246033 930.135010,271.947510 920.248169,246.623077 
	C909.126404,218.135513 898.118286,189.603470 886.951599,161.133591 
	C878.087036,138.532974 869.012878,116.014671 860.114319,93.427322 
	C850.030457,67.831200 840.037109,42.199406 830.007874,16.581745 
	C828.068909,11.629120 826.146057,6.670178 824.107910,1.357077 
	C856.020874,1.000000 888.041809,1.000000 920.531372,1.000001 
z"/>
<path fill="#FFFFFF" opacity="1.000000" stroke="none" 
	d="
M1276.531372,0.999993 
	C1269.867554,21.279396 1262.779663,41.574627 1255.593262,61.834824 
	C1242.075806,99.943428 1228.524292,138.040054 1214.943726,176.126190 
	C1203.644165,207.814850 1192.308594,239.490768 1180.924927,271.149200 
	C1178.801392,277.055023 1176.372803,282.851166 1173.690430,289.706238 
	C1172.231445,286.698914 1170.961182,284.603882 1170.157837,282.342957 
	C1162.900635,261.920898 1155.801147,241.442596 1148.509644,221.032867 
	C1134.579712,182.041672 1120.534180,143.091751 1106.573853,104.111382 
	C1094.360718,70.009621 1082.198730,35.889572 1070.007080,1.388813 
	C1138.687622,1.000000 1207.375122,1.000000 1276.531372,0.999993 
z"/>
<path fill="#FFFFFF" opacity="1.000000" stroke="none" 
	d="
M2316.000000,441.531311 
	C2310.657227,435.272888 2305.143066,428.673828 2300.002930,421.795166 
	C2283.337891,399.493378 2266.769043,377.119019 2250.241211,354.715179 
	C2235.182373,334.302551 2220.225098,313.815094 2204.935059,292.968048 
	C2211.644043,290.161072 2218.330322,287.719269 2224.698486,284.623260 
	C2236.937256,278.672852 2248.330078,271.163055 2257.804932,261.463593 
	C2272.665771,246.250687 2283.312256,228.346588 2289.057617,207.646622 
	C2292.795654,194.179352 2294.546143,180.569580 2295.169434,166.583054 
	C2296.548340,135.636154 2291.681885,106.180367 2276.404785,78.978081 
	C2265.606689,59.751579 2250.158203,44.977024 2231.260742,33.638012 
	C2212.017090,22.091078 2191.269287,14.361463 2169.532959,9.380638 
	C2158.612061,6.878146 2147.378662,5.736483 2136.283203,4.000804 
	C2131.298584,3.221040 2126.305664,2.493643 2121.158203,1.371252 
	C2185.955322,1.000000 2250.910400,1.000000 2316.000000,1.000000 
	C2316.000000,147.687531 2316.000000,294.375122 2316.000000,441.531311 
z"/>
<path fill="#FFFFFF" opacity="1.000000" stroke="none" 
	d="
M142.468658,445.000000 
	C142.000000,366.903992 142.000000,288.807983 142.000000,209.159821 
	C144.717728,212.860092 146.742096,215.429611 148.569000,218.132584 
	C167.113831,245.570297 185.586273,273.056976 204.160446,300.474762 
	C219.735123,323.464905 235.410477,346.386841 251.055038,369.329590 
	C266.702301,392.276215 282.356232,415.218353 298.040710,438.139526 
	C299.510681,440.287720 301.220673,442.271667 302.909607,444.665924 
	C249.645767,445.000000 196.291550,445.000000 142.468658,445.000000 
z"/>
<path fill="#FFFFFF" opacity="1.000000" stroke="none" 
	d="
M303.531342,1.000000 
	C304.000000,78.770287 304.000000,156.540573 304.000000,234.310867 
	C303.669922,234.494659 303.339844,234.678467 303.009766,234.862259 
	C300.058380,230.742966 297.010010,226.689301 294.171448,222.493698 
	C276.337433,196.133575 258.619904,169.694412 240.726135,143.375046 
	C225.376221,120.797340 209.777985,98.388542 194.407745,75.824577 
	C178.501328,52.473495 162.740204,29.023466 146.903091,5.625145 
	C145.995956,4.284901 144.976547,3.020639 144.004700,1.360510 
	C197.020889,1.000000 250.041794,1.000000 303.531342,1.000000 
z"/>
<path fill="#FFFFFF" opacity="1.000000" stroke="none" 
	d="
M2035.468628,445.000000 
	C2035.000000,403.531830 2035.000000,362.063690 2035.000000,320.000000 
	C2037.059082,320.000000 2038.827148,320.000000 2040.595215,320.000000 
	C2054.093750,320.000000 2067.593506,319.908905 2081.088867,320.113251 
	C2082.809570,320.139282 2085.151611,321.254364 2086.116699,322.629303 
	C2096.857422,337.928467 2107.440186,353.339691 2117.953613,368.796692 
	C2133.757080,392.030731 2149.459229,415.333344 2165.244629,438.579498 
	C2166.616943,440.600464 2168.287354,442.419128 2169.909668,444.665894 
	C2125.312500,445.000000 2080.624756,445.000000 2035.468628,445.000000 
z"/>
<path fill="#FFFFFF" opacity="1.000000" stroke="none" 
	d="
M641.468628,445.000000 
	C647.467102,426.386963 653.861633,407.747742 660.542969,389.211884 
	C661.062378,387.770660 663.588928,386.137482 665.186951,386.133057 
	C719.295776,385.982941 773.405151,386.019196 827.514404,386.038147 
	C827.834961,386.038239 828.155518,386.174347 828.811218,386.322845 
	C835.501953,405.505493 842.250366,424.853394 848.999390,444.600647 
	C779.979126,445.000000 710.958191,445.000000 641.468628,445.000000 
z"/>
<path fill="#FFFFFF" opacity="1.000000" stroke="none" 
	d="
M2117.600098,0.999991 
	C2116.746826,1.228346 2115.493652,1.456711 2114.120117,1.342538 
	C2115.066650,1.000000 2116.133545,1.000000 2117.600098,0.999991 
z"/>
<path fill="#FFFFFF" opacity="1.000000" stroke="none" 
	d="
M2115.481934,206.784882 
	C2086.215576,207.467133 2057.349854,207.983719 2028.237305,208.504730 
	C2028.237305,176.310577 2028.237305,145.041275 2028.237305,113.000008 
	C2029.858765,113.000008 2031.602417,113.000015 2033.346191,113.000015 
	C2058.171631,113.000015 2083.003418,112.649460 2107.820557,113.107361 
	C2128.891113,113.496140 2148.133057,128.958893 2151.985352,151.017853 
	C2155.841064,173.095551 2147.148926,189.603104 2128.870605,201.432098 
	C2125.030762,203.917297 2120.236816,204.928711 2115.481934,206.784882 
z"/>
<path fill="#FFFFFF" opacity="1.000000" stroke="none" 
	d="
M771.968506,220.111938 
	C779.000244,240.168091 786.003662,259.821198 792.985718,279.481903 
	C793.250732,280.228149 793.308594,281.047974 793.469543,281.867004 
	C761.142944,281.867004 728.868286,281.867004 696.370178,281.867004 
	C710.118469,243.465393 723.793335,205.250381 737.487305,167.042191 
	C739.232910,162.171616 741.029907,157.317902 742.909546,152.497879 
	C743.401062,151.237473 744.292603,150.133072 745.721680,147.758575 
	C754.803284,172.684723 763.369995,196.197464 771.968506,220.111938 
z"/>
</svg>