 <svg version="1.0" xmlns="http://www.w3.org/2000/svg" width="700.000000pt" height="400.000000pt" viewBox="0 0 700.000000 400.000000" preserveAspectRatio="xMidYMid meet">
<metadata>
Created by potrace 1.12, written by Peter Selinger 2001-2015
</metadata>
<g transform="translate(0.000000,400.000000) scale(0.100000,-0.100000)" fill="#000000" stroke="none">
<path d="M3189 3457 c-239 -71 -378 -271 -341 -489 18 -102 52 -167 128 -237
69 -65 124 -94 393 -212 208 -90 259 -137 261 -236 0 -53 -14 -90 -48 -126
-50 -53 -98 -70 -203 -75 -140 -6 -237 26 -377 125 -34 24 -66 42 -70 39 -5
-3 -43 -46 -86 -95 l-76 -90 62 -51 c71 -58 213 -131 303 -155 33 -9 114 -19
180 -22 100 -4 134 -2 207 16 173 41 297 133 361 268 30 65 32 74 32 188 0
109 -2 125 -27 177 -60 130 -141 192 -372 288 -296 123 -345 152 -372 217 -38
90 4 179 106 226 35 16 65 20 135 20 107 -1 189 -28 284 -92 l60 -41 71 87
c38 48 70 91 70 95 0 13 -115 95 -179 127 -145 74 -349 93 -502 48z"></path>
<path d="M4624 3460 c-251 -65 -437 -262 -511 -538 -24 -87 -27 -115 -27 -272
0 -157 3 -185 27 -272 50 -186 147 -335 278 -424 274 -186 655 -160 868 59 50
52 52 43 -38 149 l-64 76 -60 -49 c-33 -26 -85 -60 -116 -76 -51 -26 -65 -28
-171 -28 -108 0 -119 2 -175 30 -122 61 -206 181 -240 340 -19 91 -19 308 0
399 43 204 179 345 365 378 104 18 227 -20 317 -97 23 -19 43 -35 46 -35 9 0
142 170 142 182 0 19 -113 106 -180 138 -33 16 -87 36 -120 45 -83 21 -251 19
-341 -5z"></path>
<path d="M5905 3461 c-155 -38 -287 -128 -386 -263 -72 -99 -111 -191 -139
-328 -29 -137 -24 -369 9 -495 71 -265 248 -455 486 -521 93 -25 258 -30 349
-9 102 22 218 81 294 150 34 31 62 60 62 63 0 4 -34 47 -76 95 l-76 89 -42
-40 c-60 -57 -94 -78 -166 -102 -89 -30 -220 -25 -300 12 -114 52 -193 153
-238 301 -20 67 -25 108 -27 220 -2 89 2 159 10 195 54 230 158 350 347 398
107 28 224 -1 329 -81 l58 -44 58 67 c31 37 66 77 77 89 19 22 19 23 0 44 -51
57 -198 139 -291 163 -81 21 -247 20 -338 -3z"></path>
<path d="M900 3321 l0 -138 98 -6 c119 -7 193 -26 297 -76 139 -66 264 -184
343 -323 29 -52 69 -165 77 -221 l7 -47 94 0 94 0 0 475 0 475 -505 0 -505 0
0 -139z"></path>
<path d="M2240 2655 l0 -795 145 0 145 0 0 795 0 795 -145 0 -145 0 0 -795z"></path>
<path d="M900 3044 c-97 -16 -145 -31 -220 -66 -149 -71 -266 -211 -326 -388
-23 -69 -26 -259 -5 -335 49 -174 179 -333 333 -404 201 -93 373 -93 568 2
255 123 396 427 330 708 -49 209 -216 389 -420 453 -73 23 -208 39 -260 30z"></path>
<path d="M3682 1211 l5 -159 -54 29 c-154 81 -318 -16 -359 -211 -16 -79 -13
-137 11 -226 49 -175 237 -239 381 -129 l33 25 7 -35 6 -35 59 0 59 0 0 450 0
450 -76 0 -77 0 5 -159z m-45 -242 l43 -21 0 -153 0 -154 -36 -27 c-28 -21
-47 -28 -84 -28 -94 0 -139 63 -140 195 0 166 94 248 217 188z"></path>
<path d="M5055 1358 c-41 -22 -56 -67 -39 -113 8 -21 56 -45 89 -45 35 0 85
50 85 85 0 59 -81 103 -135 73z"></path>
<path d="M690 885 l0 -415 75 0 75 0 2 173 3 172 148 3 147 3 0 64 0 65 -150
0 -151 0 3 113 3 112 173 3 172 2 0 60 0 60 -250 0 -250 0 0 -415z"></path>
<path d="M4635 1238 c-3 -18 -6 -58 -8 -88 l-2 -55 -47 -3 -48 -3 0 -54 0 -54
43 -3 42 -3 5 -200 c6 -222 10 -239 76 -284 41 -28 139 -39 203 -21 40 11 43
13 36 38 -3 15 -9 39 -12 54 -5 25 -7 26 -57 21 -46 -5 -53 -2 -76 22 -24 26
-25 31 -28 201 l-3 174 80 0 81 0 0 55 0 54 -77 3 -78 3 -3 88 -3 87 -59 0
c-59 0 -59 0 -65 -32z"></path>
<path d="M1432 1092 c-67 -24 -133 -87 -164 -156 -19 -42 -23 -68 -23 -151 0
-87 3 -107 26 -155 95 -202 364 -230 494 -52 92 126 79 331 -29 450 -63 71
-203 100 -304 64z m168 -124 c53 -37 75 -90 75 -183 0 -128 -51 -200 -141
-200 -58 0 -90 21 -119 79 -50 101 -23 262 52 308 39 24 93 22 133 -4z"></path>
<path d="M2875 1095 c-22 -9 -57 -29 -77 -45 -20 -17 -39 -30 -42 -30 -3 0 -6
15 -8 33 -3 32 -3 32 -65 35 l-63 3 0 -311 0 -310 75 0 75 0 0 221 0 221 27
22 c64 51 131 62 174 27 24 -19 24 -21 27 -255 l3 -236 75 0 75 0 -3 253 c-3
238 -4 254 -25 294 -33 60 -72 85 -146 89 -40 2 -76 -2 -102 -11z"></path>
<path d="M4130 1096 c-56 -16 -119 -43 -136 -57 -11 -9 -8 -21 12 -60 l24 -49
51 25 c101 52 193 43 223 -20 26 -54 22 -62 -38 -69 -76 -9 -184 -44 -231 -75
-51 -34 -75 -81 -75 -149 0 -69 23 -117 71 -149 72 -48 179 -40 259 18 47 34
50 35 50 10 0 -44 10 -51 72 -51 l60 0 -4 233 -3 232 -30 60 c-24 47 -40 65
-74 84 -53 29 -163 37 -231 17z m190 -384 c0 -53 -4 -72 -17 -84 -57 -50 -147
-64 -183 -28 -36 36 -21 103 31 134 23 14 120 41 162 45 4 1 7 -30 7 -67z"></path>
<path d="M5482 1092 c-64 -23 -124 -78 -160 -147 -37 -72 -43 -206 -13 -286
94 -248 424 -267 537 -31 25 51 28 68 28 157 -1 114 -18 166 -78 232 -74 83
-205 114 -314 75z m151 -111 c102 -39 128 -259 43 -357 -31 -36 -36 -38 -91
-38 -53 0 -60 2 -90 36 -77 84 -75 251 5 330 40 40 80 49 133 29z"></path>
<path d="M6256 1095 c-21 -7 -58 -28 -82 -45 l-43 -31 -7 36 -6 35 -64 0 -64
0 0 -310 0 -311 78 3 77 3 2 215 c2 118 3 218 3 222 0 3 19 20 42 37 33 24 52
31 89 31 91 0 99 -24 99 -296 l0 -214 76 0 76 0 -4 248 c-5 263 -9 287 -59
341 -46 49 -134 64 -213 36z"></path>
<path d="M1940 867 c0 -243 9 -300 55 -355 61 -73 201 -68 289 10 42 37 44 37
50 15 3 -12 6 -32 6 -44 0 -21 4 -23 60 -23 l60 0 0 310 0 310 -70 0 -70 0 0
-206 c0 -231 -4 -244 -74 -278 -79 -37 -156 -5 -156 66 0 18 -1 120 -1 226 l0
192 -74 0 -75 0 0 -223z"></path>
<path d="M5020 780 l0 -310 75 0 75 0 0 310 0 310 -75 0 -75 0 0 -310z"></path>
</g>
</svg>