<svg xmlns="http://www.w3.org/2000/svg" data-name="Layer 2" viewBox="0 0 340 62.76"><path fill="#231f20" d="m71.98 60.56-8.77-55.5c-.14-.89-.77-1.62-1.63-1.89L51.91.11c-1.09-.35-2.26.13-2.8 1.13L41.44 15.4a8.52 8.52 0 0 0 0 8.14l.2.37c.36.66 1.31.66 1.67 0l9.13-16.85c.22-.4.69-.59 1.12-.45l3.51 1.11c.52.16.89.6.98 1.13l7.44 47.11c.09.58-.35 1.1-.94 1.1h-10.3c-.69 0-1.33-.38-1.67-1l-5.42-9.99L22.89 1.24c-.54-1-1.72-1.48-2.8-1.13l-9.67 3.05c-.86.27-1.49 1-1.63 1.89L.02 60.56c-.18 1.15.71 2.2 1.88 2.2h18.95c.87 0 1.67-.48 2.09-1.24l7.62-14.06a8.52 8.52 0 0 0 0-8.14l-.2-.37a.952.952 0 0 0-1.67 0l-9.27 17.12c-.33.61-.97 1-1.67 1H7.46a.954.954 0 0 1-.94-1.1l7.43-47.12c.09-.53.47-.97.98-1.13l3.51-1.11c.43-.14.9.05 1.12.45l29.5 54.46c.41.76 1.22 1.24 2.08 1.24H70.1a1.89 1.89 0 0 0 1.87-2.2zm24.1-48.79h10.94l13.42 31.19h.05l13.16-31.19h10.89v39.39h-6.79l.05-32.71h-.05l-13.82 32.71h-7.09l-13.98-32.71h-.1l.05 32.71h-6.73V11.77zm60.37 0h7.09v39.39h-7.09V11.77zm19.01 0h18.74c11.34 0 15.19 3.14 15.19 11.34 0 5.57-1.77 8.35-6.13 9.67v.25c4.56.61 6.13 3.14 6.13 8.91v9.22h-7.04v-7.54c0-6.08-1.42-7.19-8.15-7.19h-11.65v14.73h-7.09V11.77zm18.74 18.48c6.23 0 8.1-1.52 8.1-6.38 0-4.61-1.87-5.87-8.76-5.87h-10.99v12.25h11.65zm38.06-18.48h9.77l15.9 39.39h-7.49l-3.24-8.2H227l-3.24 8.2h-7.44l15.95-39.39zm12.55 25.11-7.65-19.44h-.1l-7.7 19.44h15.44zm18.03-5.41c0-15.95 3.49-20.45 19.39-20.45 13.77 0 17.62 3.85 17.62 13.06v.15h-7.04v-.15c0-5.11-2.03-6.73-10.63-6.73-10.68 0-12.1 1.62-12.1 14.13s1.42 14.12 12.2 14.12c9.67 0 10.99-1.97 10.99-7.19v-2.73H279.9v-6.13h20.3v8.76c0 9.72-3.65 13.62-17.92 13.62-15.95 0-19.44-4.51-19.44-20.45zm47.29-19.7h29.62V18h-22.58v9.98h21.32v6.08h-21.32v10.88H340v6.23h-29.87v-39.4z" data-name="Layer 1"/></svg>