<?xml version="1.0" encoding="utf-8"?>
<!DOCTYPE svg PUBLIC "-//W3C//DTD SVG 1.0//EN" "http://www.w3.org/TR/2001/REC-SVG-20010904/DTD/svg10.dtd">
<svg version="1.0" xmlns="http://www.w3.org/2000/svg" width="4738px" height="2313px" viewBox="0 0 4738 2313" preserveAspectRatio="xMidYMid meet">
   <defs>
      <linearGradient id="lg0" gradientUnits="userSpaceOnUse" x1="66.652596%" y1="21.348314%" x2="66.652596%" y2="48.746758%">
         <stop offset="0%" style="stop-color:rgb(0,0,0);"></stop>
         <stop offset="0%" style="stop-color:rgb(184,120,239);"></stop>
         <stop offset="100%" style="stop-color:rgb(142,229,235);"></stop>
      </linearGradient>
      <linearGradient id="lg1" gradientUnits="userSpaceOnUse" x1="26.213593%" y1="18.40968%" x2="26.213593%" y2="80.207436%">
         <stop offset="0%" style="stop-color:rgb(0,0,0);"></stop>
         <stop offset="0%" style="stop-color:rgb(187,115,239);"></stop>
         <stop offset="100%" style="stop-color:rgb(145,224,235);"></stop>
      </linearGradient>
      <linearGradient id="lg2" gradientUnits="userSpaceOnUse" x1="66.652596%" y1="52.031116%" x2="66.652596%" y2="79.34313%">
         <stop offset="0%" style="stop-color:rgb(0,0,0);"></stop>
         <stop offset="0%" style="stop-color:rgb(181,128,238);"></stop>
         <stop offset="93%" style="stop-color:rgb(142,229,235);"></stop>
         <stop offset="100%" style="stop-color:rgb(142,231,235);"></stop>
      </linearGradient>
   </defs>
 <g fill="#b18eee">
  <path fill="url(#lg2)" d="M2084 1325.20 l0 -121.20 45.60 0 45.40 0 33.80 119 c18.60 65.60 33.40 119.40 33 119.80 -0.40 0.40 -36.20 1.40 -79.20 2.20 l-78.60 1.40 0 -121.20z"/>
  <path fill="url(#lg2)" d="M2316.60 1437.80 c0.60 -2.60 15.80 -56.40 33.80 -119.20 l32.40 -114.60 44.60 0 44.60 0 0 118 0 118 -29.60 0 c-16.40 0 -51.60 0.60 -78.40 1.40 l-48.60 1.20 1.20 -4.80z"/>
  <path fill="url(#lg2)" d="M2552 1321 l0 -117 48 0 48 0 0 115.60 0 115.80 -30.40 1.20 c-16.60 0.80 -38.20 1.40 -48 1.40 l-17.60 0 0 -117z"/>
  <path fill="url(#lg2)" d="M2728 1320.20 l0 -116.20 134.60 0 c150.80 0 148.60 -0.20 161.80 13.40 15.20 16 14.60 10.40 15.20 117.20 l0.60 95.40 -47.20 0 -47 0 0 -73 0 -73 -61.40 0.40 -61.60 0.60 -0.60 74.60 -0.40 74.40 -40.80 0 c-22.40 0 -43.60 0.60 -47 1.20 l-6.20 1.40 0 -116.40z"/>
  <path fill="url(#lg2)" d="M3116 1316 l0 -112 135.60 0 c151.80 0 148 -0.40 162.40 14 13.80 13.80 14 15.80 14 115 l0 88.40 -16.40 1.20 c-9.20 0.80 -30.40 1.40 -47 1.40 l-30.60 0 0 -70 0 -70 -61 0 -61 0 0 70.60 0 70.80 -25.40 1.20 c-14.20 0.80 -35.80 1.40 -48 1.40 l-22.60 0 0 -112z"/>
  <path fill="url(#lg2)" d="M3506.40 1329.60 l0.60 -93 6 -9.80 c6.80 -10.80 15.60 -17.60 26.80 -20.80 10.40 -2.80 241.60 -2.60 253.20 0.20 10.80 2.80 23.60 13.40 29.60 24.60 4.40 8 4.40 9.80 5 96.80 l0.60 88.40 -36.60 0 c-20.20 0 -41.40 0.60 -47 1.20 l-10.60 1.40 0 -67.40 0 -67.20 -67 0 -67 0 0 68 0 68 -36.40 0 c-20.20 0 -41.40 0.60 -47.20 1.40 l-10.60 1.20 0.60 -93z"/>
  <path fill="url(#lg2)" d="M3908 1309 l0 -105.20 138.60 0.60 c137.40 0.60 138.40 0.60 146.40 5 10.40 5.60 15.80 11.40 21.40 23.60 4.60 9.80 4.60 11.40 5.20 92.20 l0.60 82.20 -12.40 1.40 c-6.80 0.60 -28.40 1.20 -48 1.20 l-35.80 0 0 -63 0 -63 -61 0 -61 0 0 63.60 0 63.80 -19.40 1.20 c-10.80 0.80 -32 1.40 -47 1.40 l-27.60 0 0 -105z"/>
  <path fill="url(#lg1)" d="M513.40 1105.80 c-2.80 -22.80 -7.20 -75.80 -8.60 -99.60 l-1.40 -24.80 19.80 13.60 c31.80 22 31 21.40 30.60 27 -0.80 10.40 0.40 14 6.40 21 7 7.80 15.40 13 21.40 13 4 0 4.60 3 9.60 46.40 l1.40 11.20 -29.80 0.20 c-16.40 0.20 -33.80 0.80 -39 1.40 l-9.20 1.20 -1.20 -10.60z"/>
  <path fill="url(#lg1)" d="M603 1082.80 l-3.60 -29.20 7.20 -6.40 c9.20 -7.80 11.40 -14 9.20 -25.40 -2 -10.40 -9.60 2 69.60 -110.20 30.20 -42.80 55.60 -77.60 56.60 -77.60 1 0 3 4.20 4.80 9.60 30.80 95.40 81 257.20 80.20 258 -0.60 0.60 -14.40 1.40 -30.60 1.80 -16.20 0.20 -41.60 1.40 -56.40 2.40 -14.80 1 -28.80 2 -31 1.80 -10.40 0 -81.20 2.60 -91.20 3.40 l-11.20 1.20 -3.60 -29.40z"/>
  <path fill="url(#lg1)" d="M843.40 1098.60 c-1.20 -2 -25.40 -79 -25.40 -80.80 0 -0.80 3.40 -4.80 7.60 -9 4.40 -4.40 8.20 -9 8.60 -10.40 1.20 -3.80 72.80 3.60 77 8 2.80 2.80 12.80 69 12.80 84.60 l0 6.40 -13.40 1.20 c-20.80 1.80 -66.20 1.80 -67.20 0z"/>
  <path fill="url(#lg1)" d="M941.20 1093.60 c-4.20 -14.60 -8.20 -54.80 -8 -80.60 l0.20 -30 17.20 -69 c29.40 -118.20 38.60 -150.40 44.40 -155.40 4.80 -4.20 5.80 -4.40 11.60 -1.80 31.40 13.40 64.60 28.20 66 29.20 0.80 0.80 -0.40 27 -2.80 58.20 l-4.20 56.80 -12 27 c-6.60 14.80 -26.40 58.60 -44.20 97 l-32.60 70 -17.40 0.60 c-13 0.40 -17.60 -0.20 -18.20 -2z"/>
  <path fill="url(#lg1)" d="M998.40 1092.20 c4.20 -11.80 83 -180.20 84.20 -180.20 4 0 53.40 30.80 53.40 33.20 0 1.60 -4.20 14.40 -9.20 28.40 -15 41.80 -50.40 112 -58.60 116.20 -4.60 2.40 -70.80 4.80 -69.80 2.40z"/>
  <path fill="url(#lg1)" d="M1353.20 1076.40 c-2 -3.20 -15.20 -67 -20 -96.40 -11.60 -71.20 -16.20 -134.40 -14.60 -202 1.40 -52.20 3 -70 9.60 -105 10.20 -53.80 31.40 -98.80 57.40 -121.80 24.80 -21.80 66.60 -41.20 118.40 -55 63.80 -16.80 120.40 -23 199 -21.60 72.40 1.40 106.60 6.40 156.80 23.20 63 21 105.40 55.60 117.40 95.80 3.80 12.80 4.80 36.20 2 51.40 l-1.80 10 -2.60 -14 c-11 -57.20 -60.40 -89 -153.20 -99 -24.80 -2.60 -83.40 -2.60 -116.80 0 -114.20 9 -233.60 41 -262.60 70.40 -25.60 26 -45.20 100.20 -59.20 223.60 -3.40 30.20 -11.20 122 -16 189 -3.80 52.20 -4 53 -9 53 -2 0 -4.20 -0.60 -4.80 -1.60z"/>
  <path fill="url(#lg1)" d="M547.60 993.40 c-11.80 -9.20 -13.40 -11.20 -13.60 -17.20 0 -3.60 7.20 -30.20 16 -59 16.80 -54.80 21.80 -66.60 52.40 -123 l16.60 -30.60 10.40 -4 c5.80 -2 12.60 -6.40 15.40 -9.60 4.20 -5.20 5.20 -5.60 7.40 -2.80 8.40 10.20 49.40 40 72.80 52.80 6.60 3.80 12.40 7 12.80 7.20 0.20 0.40 -11.80 18.40 -27 40.20 -80.60 115.80 -101.60 145.80 -104.20 148.80 -2.60 3 -3.40 3 -9 0.40 -7.80 -4 -21.40 -2.40 -29.20 3.20 -3.40 2.20 -6.40 4.20 -6.80 4.20 -0.20 0 -6.60 -4.80 -14 -10.60z"/>
  <path fill="url(#lg1)" d="M872 984.60 c-40.60 -4.20 -39.20 -3.80 -42 -10.80 -3 -7.20 -14.20 -15 -24 -16.80 l-7 -1.20 -18.80 -67.40 c-10.40 -37 -19.20 -68.40 -19.60 -69.80 -0.60 -1.80 1.80 -1.60 9.20 0.40 52 13.60 107.40 6.40 162.20 -21 11 -5.60 20 -9.60 20 -9.20 0 2.20 -26.80 147 -31 168.20 -5.20 25.40 -8.60 31.40 -17.80 30.60 -2.20 0 -16.40 -1.40 -31.20 -3z"/>
  <path fill="url(#lg1)" d="M509.40 963.40 l-5.60 -4.40 -0.40 -64 c-0.20 -55.20 0.40 -69.40 4.40 -103 2.60 -21.40 4.80 -39.20 5 -39.60 0.40 -0.20 17.20 -2.60 37.40 -5.20 l36.80 -4.80 6.20 7.20 6.20 7.20 -9.80 21.20 c-5.40 11.60 -13.40 27.40 -17.80 35.40 -12 21.60 -17.60 36.60 -36.80 98.20 -9.60 31 -18.20 56.40 -18.80 56.40 -0.60 0 -3.80 -2 -6.80 -4.60z"/>
  <path fill="url(#lg1)" d="M1113.60 906.60 l-27.60 -16.80 0 -49 c0 -26.80 0.40 -48.80 0.60 -48.80 0.40 0 16 6.60 34.60 14.80 l33.80 15 0.60 8.60 c1.20 14.40 -9 83.60 -13.20 90.80 -1 1.40 -11 -3.60 -28.80 -14.60z"/>
  <path fill="url(#lg1)" d="M1631.40 804.80 c-34 -6.20 -71.40 -22.40 -106.40 -45.80 -12 -8.20 -24.20 -16.80 -26.80 -19 l-4.60 -4 7.40 -9.60 c13.80 -17 49.80 -51.20 68.20 -64.20 22.60 -16 51.80 -30.80 74.20 -37.40 21.80 -6.40 57 -8.60 80 -4.80 43.20 7 93.60 31.80 134.20 66 7.80 6.60 14.40 13.20 14.40 14.40 0 1.40 -11.40 13.80 -25.40 27.60 -44.20 43.80 -88.40 68.40 -138.40 77 -20.60 3.60 -56 3.60 -76.80 -0.20z"/>
  <path fill="url(#lg1)" d="M1069.80 765.40 l-87 -38.40 -20.20 -18.80 c-23.40 -21.60 -48.80 -40.20 -70.80 -52 l-15.40 -8.20 -4.40 -17.60 c-2.40 -9.60 -14.20 -57.80 -26.20 -107.40 -12.20 -49.40 -22.40 -91.60 -23 -93.40 -0.80 -3 0.20 -3.60 6.80 -3.60 7.40 0 11.40 3 58.60 42.20 28 23.40 59.40 49.80 69.80 58.60 10.40 9 29.20 25.20 41.80 36 22.60 19 23 19.60 23.40 28.20 0.60 15.60 15 29 31.20 29 6.60 0 6.80 0.60 53.60 76.20 l47 76.40 1.40 15.20 c0.60 8.40 1 15.40 1 15.60 -0.20 0.20 -39.60 -17 -87.60 -38z"/>
  <path fill="url(#lg0)" d="M2084 636 l0 -142 45.40 0.40 45.40 0.60 39.80 139.60 c21.80 77 39.40 140 39 140.40 -0.40 0.20 -17.40 1 -38 1.80 l-37.20 1.40 -2.60 -11.60 c-4.60 -21.40 -6.40 -17.60 -2.80 6 l1 5.40 -45 0 -45 0 0 -142z"/>
  <path fill="url(#lg0)" d="M2304 774.20 c0 -0.60 17.80 -64 39.40 -140.60 l39.60 -139.60 44.60 0 44.40 0 0 138.60 0 138.80 -28.40 1.20 c-15.80 0.80 -35.40 1.40 -43.80 1.40 l-15.20 0 0.60 -10.40 0.80 -10.60 -2.80 9.60 c-1.60 5.40 -3.20 10 -3.60 10.40 -1.40 1.20 -75.60 2.40 -75.60 1.20z"/>
  <path fill="url(#lg0)" d="M2552 632 l0 -138 48 0 48 0 0 138 0 138 -48 0 -48 0 0 -138z"/>
  <path fill="url(#lg0)" d="M2728 631 l0 -137.20 136.60 0.60 136.40 0.60 11.20 5.20 c6.60 3.20 13.60 8.40 16.60 12.40 11 14.40 11.20 16.40 11.20 137.40 l0 111.40 -27.40 1.20 c-15 0.80 -36 1.40 -47 1.40 l-19.60 0 0 -94 0 -94 -62 0 -62 0 0 94.60 0 94.80 -34.40 1.20 c-19 0.80 -40.20 1.40 -47 1.40 l-12.60 0 0 -137z"/>
  <path fill="url(#lg0)" d="M3116 627 l0 -133.20 136.60 0.60 c103.80 0.60 138.20 1.40 144 3.20 9.80 3.40 20.60 13 26 23.20 4.40 8.20 4.40 9.20 5 121.80 l0.60 113.40 -37.80 0 c-20.80 0 -42 0.60 -47.20 1.20 l-9.20 1.40 0 -91.40 0 -91.20 -61 0 -61 0 0 92 0 92 -48 0 -48 0 0 -133z"/>
  <path fill="url(#lg0)" d="M3506.40 641.60 c0.60 -111.60 0.60 -112.60 5 -120.80 5.40 -10.20 16 -19.60 26 -23 6 -2.20 32 -2.80 129.60 -2.80 l122 0 11.20 5.20 c6.60 3.20 13.60 8.40 16.60 12.40 11 14.40 11.20 17 11.20 130.40 l0 104.40 -19.40 1.20 c-10.80 0.80 -32 1.40 -47 1.40 l-27.60 0 0 -87 0 -87 -67 0 -67 0 0 88.60 0 88.60 -47 0.40 -47.20 0.60 0.60 -112.60z"/>
  <path fill="url(#lg0)" d="M3908 621.20 l0 -127.40 136.60 0.60 136.40 0.60 11 5.60 c12.20 6.20 19 13.60 23.80 26 2.80 7.20 3.20 22.80 3.80 112 l0.60 103.40 -32.80 0 c-18 0 -39.60 0.60 -48 1.20 l-15.40 1.40 0 -84.40 0 -84.20 -61 0 -61 0 0 85 0 85 -40.80 0 c-22.40 0 -43.60 0.60 -47 1.20 l-6.20 1.40 0 -127.40z"/>
  <path fill="url(#lg1)" d="M1112.40 676.60 l-38.20 -61.20 5.40 -6.40 c4.60 -5.40 7 -6.60 15.80 -7.20 l10.40 -0.80 9 19 c13.40 27.80 22.20 52.40 29 80.40 7 29 8.80 37.60 7.80 37.60 -0.60 0 -18.20 -27.60 -39.20 -61.40z"/>
  <path fill="url(#lg1)" d="M516 733.60 c0.20 -14.40 25.40 -118.60 39 -160.60 l9 -28 14.60 -11.20 c51.20 -39.80 117.60 -75.40 172.40 -92.40 33.20 -10.20 36 -20.20 -24.40 86 -29.20 51.40 -63.40 111.40 -76 133.20 -21.60 37 -23.40 39.40 -28.80 39.40 -7 0 -19.20 4.80 -24.40 9.60 -2.20 1.80 -5.40 6.60 -7.40 10.60 l-3.80 7.20 -30.60 4.20 c-35.40 5 -39.60 5.20 -39.60 2z"/>
  <path fill="url(#lg1)" d="M666 677.20 c0 -0.40 19.60 -37 43.60 -81.40 24 -44.40 53.80 -99.80 66.20 -123.20 15.60 -29.20 23.60 -42.60 26.40 -43.20 2.20 -0.60 4.40 0 4.80 1.20 2.40 7 51 206 51 209 0 1 -6.60 0 -14.40 -2 -50.20 -13 -114 -0.20 -166.20 33 -6.20 4 -11.40 7 -11.40 6.60z"/>
  <path fill="url(#lg1)" d="M1083.80 578.60 c-2.80 -7.60 -9.60 -14.60 -17.20 -17.80 -8.80 -3.80 -14.40 -3.60 -23.40 1 l-7.40 4 -15.40 -12.60 c-8.40 -6.80 -31.20 -25.40 -50.40 -41.20 -19.20 -16 -51 -41.60 -70.40 -57 -40.20 -31.60 -40.40 -32 -6 -26.20 77.40 13.40 143.20 61.80 195 143.80 l7.40 11.40 -5 0 c-3.80 0 -5.60 -1.60 -7.20 -5.40z"/>
 </g>
 <g fill="#a0b9ed">
  <path fill="url(#lg2)" d="M2084.20 1546.80 c0.20 -63.80 0.80 -113.80 1.20 -111.20 l1 4.60 77.40 -1.40 77.60 -1.40 16.60 58.80 c9.20 32.40 17.80 65.20 19 72.80 l2.20 14 1.40 -12 c0.80 -6.60 9.20 -39.60 18.80 -73.20 l17.20 -61.20 43.20 -1.20 c23.80 -0.80 58.80 -1.40 77.80 -1.40 l34.40 0 0 109.60 0 109.80 -25.40 1.20 c-14.20 0.80 -34.40 1.40 -45.20 1.40 l-19.80 0 1.20 -86.40 c0.60 -47.60 1.60 -91.60 2 -97.60 0.60 -6 -10 32.40 -23.40 85.40 -13.60 53 -25.20 97.20 -26.20 98 -1 1.20 -99.40 4.20 -112.60 3.60 0 0 -11.20 -43.60 -24.60 -97 -13.60 -53.40 -25.40 -97.80 -26.40 -99 -1.20 -1.20 -1.40 -0.20 -0.80 3 3.60 15.40 5.20 54.80 5.20 120.20 l0 73.80 -36.80 0 c-20.20 0 -40.80 0.60 -46 1.20 l-9.20 1.40 0.20 -115.80z"/>
  <path fill="url(#lg2)" d="M2552.20 1537.60 c0.20 -63 0.80 -112.40 1.20 -109.80 l1 4.80 43.20 -1.40 c24 -0.80 43.80 -2.40 44 -3.40 0.40 -1 2 -1.80 3.60 -1.80 2.40 0 2.80 16.80 2.80 113 l0 113 -48 0 -48 0 0.20 -114.40z"/>
  <path fill="url(#lg2)" d="M2728.40 1539.60 l0.60 -110.60 46.60 -0.60 46.40 -0.40 0 109.60 0 109.80 -31.40 1.20 c-17.40 0.80 -38.60 1.40 -47.20 1.40 l-15.40 0 0.40 -110.40z"/>
  <path fill="url(#lg2)" d="M2869.20 1598 l-17.40 -49 0.20 -29.40 0 -29.60 47 0 47 0 0 -33 0 -33 47 0 47 0 0 42.60 c0 50.80 -1.80 59.80 -14.80 72.60 -10.40 10.60 -17.80 12.60 -49.80 14.20 -22.40 1 -25.40 1.60 -24.40 4.40 7.40 18.60 31.40 86.40 30.80 87 -0.40 0.60 -22 1.20 -48.20 1.60 l-47.20 0.60 -17.20 -49z"/>
  <path fill="url(#lg2)" d="M3116.20 1527.60 c0.20 -63 0.80 -112.60 1.20 -110 0.80 4.20 1.80 4.40 19.20 4.40 10.20 0 29.80 -0.60 44 -1.40 22.80 -1 25.40 -1.60 25.40 -5 0 -2 1.40 -3.60 3 -3.60 2.60 0 3 14.20 3 115 l0 115 -48 0 -48 0 0.20 -114.40z"/>
  <path fill="url(#lg2)" d="M3256.40 1594.80 l-16.40 -46.20 0 -29.20 0 -29.40 47 0 47 0 0 -38.40 c0 -23.40 0.80 -37.40 1.80 -35.80 1.60 2.40 9.20 2.60 47.20 1.60 l45.20 -1.20 -0.60 51.40 c-0.60 49.60 -0.80 51.80 -5.40 61.20 -5.60 11.20 -17.80 20 -30.80 22.40 -4.60 0.80 -18.40 2 -30.60 2.60 l-22.20 1.20 14.60 40 c8.20 22 14.80 40.60 14.80 41.40 0 1.60 -29.20 3.40 -66.20 4.20 l-29 0.40 -16.40 -46.20z"/>
  <path fill="url(#lg2)" d="M3506 1526.20 l0 -109.60 6.20 -1.40 c3.40 -0.60 24.60 -1.20 47 -1.20 l40.80 0 0 109.80 0 109.60 -16.40 1.20 c-9.20 0.80 -30.40 1.40 -47 1.40 l-30.60 0 0 -109.80z"/>
  <path fill="url(#lg2)" d="M3734 1522.20 l0 -109.60 6.20 -1.40 c3.40 -0.60 24.60 -1.20 47 -1.20 l40.80 0 0 109.80 0 109.60 -16.40 1.20 c-9.20 0.80 -30.40 1.40 -47 1.40 l-30.60 0 0 -109.80z"/>
  <path fill="url(#lg2)" d="M3908 1519.20 l0 -111.20 22.60 0 c12.60 0 33.80 -0.60 47 -1.40 l24.40 -1.20 0 111.20 0 111.40 -37.80 0 c-20.60 0 -41.80 0.60 -47 1.20 l-9.20 1.40 0 -111.40z"/>
  <path fill="url(#lg2)" d="M4057 1623.60 c-0.40 -1.40 -6.80 -19.20 -14 -39.40 l-13 -37 0 -28.60 0 -28.60 47 0 47 0 0.20 -46.40 c0.20 -25.60 0.60 -45 1.20 -43 0.80 3 4 3.40 32.40 3.40 43.20 0 56.20 -1.40 56.20 -6.20 0 -2.20 1.40 -3.80 3.20 -3.80 2.80 0 3 6.20 2.40 60.60 l-0.60 60.40 -6 12 c-10 19.80 -20 24.40 -58.40 26.40 -13.60 0.60 -24.60 1.80 -24.60 2.60 0 0.60 5.40 16 12 34 6.60 18 12 33.40 12 34.40 0 0.80 -21.60 1.60 -48 1.60 -36.80 0 -48.40 -0.60 -49 -2.40z"/>
  <path fill="url(#lg1)" d="M757.40 1587.80 c-2.40 -1.40 -16.60 -2.20 -37.40 -2 l-33.60 0.20 -13.80 -20.40 c-7.80 -11.40 -20.60 -31.60 -28.40 -45.20 l-14.60 -24.40 3.80 -6.40 c2 -3.40 5.80 -7.80 8.60 -9.80 4.40 -3 70.40 -19.80 209.40 -53.40 l40.40 -9.80 4.20 4.40 c2.20 2.40 4 5 4 5.80 0 1 -7.40 10.40 -16.60 21 -9.20 10.60 -30 35 -46.40 54.20 -44.60 52.20 -75.20 88 -75.60 88 -0.20 0 -2 -1 -4 -2.20z"/>
  <path fill="url(#lg1)" d="M918.60 1584.60 c-1.40 -0.40 -2.60 -2.40 -2.60 -4 0 -2.80 -3.40 -3 -28.40 -1.80 -15.80 0.80 -43 1.80 -60.40 2.40 l-32 1.20 5 -6 c2.60 -3.40 29.60 -36.60 59.80 -74.20 53.60 -66.80 55 -68.20 62 -68.20 l7.20 0 4.40 67 4.40 67 -7 7 c-3.80 4 -7 8 -7 9 0 2.20 -1.40 2.20 -5.40 0.60z"/>
  <path fill="url(#lg1)" d="M974 1571.60 c-2.80 -2.40 -7.40 -5 -10.20 -6 -4.80 -1.60 -5.20 -2.80 -6.40 -18.20 -0.60 -9 -3.20 -39.60 -5.40 -68 l-4.20 -51.80 7.20 -7 c4 -3.80 7.60 -9.60 8.40 -12.60 0.60 -3.20 2.60 -6.40 4.40 -7 16 -6.40 88.80 -33 89.40 -32.60 0.20 0.40 0 11.40 -0.60 24.60 l-1.20 24 -22.20 11.80 c-28.80 15.20 -52.20 30.60 -55.40 36.60 -5.60 10.40 11 21.60 53 35.80 l22.80 7.60 -1 31.20 c-0.60 17 -1.40 31.20 -1.60 31.60 -0.20 0.20 -15.60 1 -34.20 1.60 -18.60 0.60 -34.80 1.40 -35.80 1.60 -1.20 0.40 -4.40 -1 -7 -3.20z"/>
  <path fill="url(#lg1)" d="M1217 1496 c-6.60 -2 -17.40 -7.20 -24 -11.20 -27.60 -17 -28.60 -17.40 -42.80 -17.20 -8.40 0 -19.80 2 -31.20 5.40 -36.40 11 -45.80 13 -62.40 13 -18 0 -30.20 -3.40 -43.40 -12.60 l-7.80 -5.20 6.80 -4.20 c15.40 -9.40 63.20 -32.80 84.20 -41 28.40 -11 49.80 -16.40 74.80 -19 20.80 -2.20 27.40 -1.80 61.20 3.40 19 3 21.80 3 25.80 0.20 4 -2.60 5.20 -2.60 10.40 0 5.40 2.60 8.20 2.60 26.20 -0.60 24.60 -4.40 60 -4.60 81.40 -0.40 27.20 5.40 59.80 17.80 99.80 37.60 21.60 10.80 40.40 21 41.80 22.60 2 2.40 1 3.80 -6.40 8 -16.60 9.80 -25.80 11.80 -48 10.60 -15.80 -0.80 -25.40 -2.60 -42.40 -8 -41.80 -13.40 -55.60 -13.40 -75.60 0 -5.80 4 -17.20 10.40 -25.40 14.40 -13.80 6.60 -16.40 7.20 -33 7.20 -9.80 -0.20 -19.80 -0.40 -22 -0.60 -2.20 -0.20 -11.20 0.20 -20 0.60 -12.40 0.80 -18.80 0 -28 -3z"/>
  <path fill="url(#lg1)" d="M614.20 1441.60 l-19.60 -18.60 -11 -28 c-14.20 -35.60 -27.80 -77.80 -37.60 -116.20 -7.80 -30.60 -22.80 -102.80 -21.60 -103.60 0.40 -0.40 82 47 181.80 105.40 l181 105.80 -1 8.20 -1.20 8.20 -52 12.60 c-28.60 6.80 -81.60 19.80 -118 28.60 -36.20 8.80 -69.40 16 -73.80 16 -6.80 0 -9.40 -1.80 -27 -18.40z"/>
  <path fill="url(#lg1)" d="M952.20 1371.80 l-8.80 -10.20 3.40 -73.20 c3.80 -83.40 4.40 -90.40 8 -90.40 1.20 0 6.60 -2.60 11.60 -5.80 7.80 -5 16.60 -7.40 51.20 -14 23 -4.60 42.60 -8.20 43.60 -8.20 1 0 0.80 33.40 -0.60 77.40 -1.20 42.80 -2.40 83 -2.40 89.80 l-0.20 12 -47.60 16.40 c-26.40 9 -48.20 16.40 -48.60 16.40 -0.40 -0.20 -4.80 -4.80 -9.60 -10.20z"/>
  <path fill="url(#lg1)" d="M783.80 1305.20 c-156.60 -96.20 -143.80 -87.60 -143.80 -96.60 -0.20 -14 -12.20 -32.60 -21.20 -32.60 -3.40 0 -3.80 -1.80 -8.80 -38.80 -3.20 -23.60 -3.40 -30.40 -1.40 -31.60 1.20 -0.80 12.40 -1.80 24.40 -2 35.20 -0.80 42.60 -1 69 -2.20 68.80 -3.40 102 -4.80 113 -4.60 l12 0.20 37.40 118 c48 151.40 47 147.60 44 148.60 -1.40 0.40 -5 2.80 -8 5.40 l-5.40 4.60 -111.20 -68.40z"/>
  <path fill="url(#lg1)" d="M883.60 1226.60 c-22.80 -72.20 -41.40 -131.60 -41 -131.80 0.20 -0.20 18.60 -1 40.60 -1.80 l40.40 -1.20 1 4.60 c0.60 2.60 1.80 14.20 2.60 26 l1.40 21.40 -6 6.80 c-11.40 13 -10 29 3.80 41.40 l6.60 6 -0.20 68.60 c0 70.60 -1.40 91.40 -5.40 91.40 -1.40 0 -20 -55.60 -43.80 -131.40z"/>
  <path fill="url(#lg1)" d="M1244 1289.20 c-23.20 -7.20 -41.20 -14.40 -61.20 -25 l-18.20 -9.60 -9 4.60 c-15.60 7.80 -33 12.80 -45 12.80 l-11.60 -0.20 8 -4 c4.40 -2.40 18.40 -14.80 31 -27.60 l23 -23.20 16 5.60 c8.80 3.20 31.60 10.20 50.80 15.80 l34.80 10.20 24.20 -6.60 c13.40 -3.60 37 -11 52.80 -16.20 15.60 -5.20 28.40 -8.80 28.40 -8 0 3.60 36.20 39.80 46.80 46.60 l11.80 7.60 -9.80 0 c-12.20 0 -27.20 -4 -43 -11.40 l-12.40 -5.60 -24.20 12.20 c-24 12 -65.40 27 -73.80 26.60 -2.40 0 -11.20 -2.20 -19.40 -4.60z"/>
  <path fill="url(#lg1)" d="M551.60 1170.20 c-16.20 -8.40 -30 -15.80 -30.40 -16.40 -1.80 -1.60 -7.40 -42.20 -6.20 -43.60 1.60 -1.60 61 -4.20 66.60 -2.80 3.80 0.80 4.40 0.20 4.40 -4.40 0 -3.40 1 -5 2.60 -4.60 3.60 1.20 13 76 9.60 77.20 -1.20 0.40 -5 3 -8 5.60 -3.20 2.60 -6.60 4.80 -7.40 4.60 -1 -0.20 -15 -7.20 -31.20 -15.60z"/>
  <path fill="url(#lg1)" d="M975.60 1159.60 l-3.40 -10.60 13.80 -30 13.60 -30 9.60 -1.40 c5.40 -0.60 18.20 -1.40 28.60 -1.40 10.20 -0.20 22.20 -1.20 26.40 -2.60 4.40 -1.20 8.40 -1.60 9 -1 0.60 0.60 -0.80 4.20 -3.40 7.80 -4.40 6 -4.80 9 -5.40 34.60 l-0.60 28 -38.80 7.60 c-21.40 4.20 -40.40 8.20 -42.40 8.60 -2.80 0.80 -4.20 -1.20 -7 -9.60z"/>
  <path fill="url(#lg1)" d="M946 1137.60 c-1.80 -10.20 -5.60 -50.80 -5 -51.40 0.60 -0.40 1 0.20 1 1.40 0 3.20 24 3.20 31 0 2.80 -1.20 5.60 -1.80 6.20 -1.20 0.60 0.60 -4.20 12.60 -10.40 26.40 -10.80 23.60 -11.80 25.20 -17.20 25.20 -3 0 -5.60 -0.20 -5.60 -0.40z"/>
  <path fill="url(#lg1)" d="M1355.20 1085 c-3.80 -15.60 -3.80 -15.20 -0.20 -13.80 1.80 0.80 3 0 3 -2 0 -1.80 1.40 -3.20 3.20 -3.20 2.60 0 3 1.40 2 6.20 -0.60 3.40 -1.20 10.60 -1.20 16 0 5.40 -0.80 9.80 -1.80 9.80 -1 0 -3.20 -5.80 -5 -13z"/>
  <path fill="url(#lg0)" d="M2084.20 879.60 c0.20 -63 0.60 -113 1.20 -111.20 0.80 3.20 5 3.60 44.20 4 l43.40 0.60 1.20 13 c0.80 7.20 1.40 56.20 1.60 109.20 l0.20 96.20 -19.40 1.20 c-10.80 0.80 -31.60 1.40 -46 1.40 l-26.60 0 0.20 -114.40z"/>
  <path fill="url(#lg0)" d="M2205.20 882.20 c-15.20 -60 -28.20 -110.60 -28.60 -112.20 -0.80 -2.40 -0.60 -2.60 1 -0.20 1.60 2.20 5.80 2.40 19.60 1.60 9.80 -0.80 26.20 -1.60 36.60 -1.80 l18.80 -0.40 11.60 40.60 c6.40 22.40 12.40 46.20 13 53 l1.60 12.20 2.40 -16 c1.40 -8.80 7.40 -32.60 13.20 -53 l10.60 -37.20 34 -0.60 c18.80 -0.20 36.20 -1 38.80 -1.60 3.60 -1 4.60 -0.40 3.80 1.60 -0.60 1.60 -13.40 52.40 -28.80 112.80 l-27.60 110 -46.20 0.20 -46 0.40 -27.80 -109.40z"/>
  <path fill="url(#lg0)" d="M2382.40 880 c0.40 -68.40 1.40 -108.60 2.60 -109.80 1.20 -1 21.20 -2.40 44.60 -3.20 l42.40 -1.60 0 111.40 0 111.20 -45.20 0 -45.20 0 0.80 -108z"/>
  <path fill="url(#lg0)" d="M2552.20 871.60 c0.20 -63 0.60 -113 1.20 -111 0.80 3 4.60 3.40 44.80 3.40 27.80 0 43.80 -0.80 43.80 -2 0 -1 1.40 -2 3 -2 2.60 0 3 13.80 3 111.60 l0 111.80 -31.40 1.20 c-17.40 0.80 -39 1.40 -48 1.40 l-16.60 0 0.20 -114.40z"/>
  <path fill="url(#lg0)" d="M2728 872.40 l0 -109.80 31.60 -1.20 c17.20 -0.80 38.40 -1.40 47 -1.40 l15.40 0 0 111 0 111 -47 0 -47 0 0 -109.60z"/>
  <path fill="url(#lg0)" d="M2876.40 910.40 l-24.40 -69.40 0 -29.40 0 -29.60 47 0 47 0 0 -12 0 -12 15.60 0 c8.40 0 29.60 -0.60 47.20 -1.40 l31.60 -1.20 -0.60 26.80 c-0.80 23.40 -1.40 28 -5.60 36.40 -9 18.40 -21 23.60 -62.40 26.80 l-21.40 1.60 23.80 65 c13 35.80 23.80 65.40 23.80 66 0 0.60 -21.80 1.20 -48.60 1.40 l-48.40 0.60 -24.60 -69.60z"/>
  <path fill="url(#lg0)" d="M3116.20 860.60 c0.20 -63.60 0.80 -113.60 1.20 -111 l0.80 4.40 44 0 c42.40 0 43.80 -0.20 43.80 -4 0 -2.20 1.40 -4 3 -4 2.60 0 3 14 3 113.60 l0 113.80 -27.40 1.20 c-15 0.80 -36.60 1.40 -48 1.40 l-20.60 0 0.20 -115.40z"/>
  <path fill="url(#lg0)" d="M3263.40 905.60 l-23.60 -66.60 0.20 -28.40 0 -28.60 47 0 47 0 0.20 -17.40 c0 -9.80 0.40 -16.60 1 -15.60 0.40 1.20 17.60 1.80 47 1.40 l46.20 -0.60 -0.80 30.60 c-0.60 26.60 -1.20 31.60 -5 38.60 -9.40 17.80 -19.80 22.60 -55.40 25.40 -14.40 1.20 -26.60 2.40 -27 2.80 -0.40 0.40 9 27.60 20.80 60.20 12 32.80 22 60.80 22.60 62.20 0.60 1.80 -9.80 2.40 -48 2.40 l-48.60 0 -23.60 -66.40z"/>
  <path fill="url(#lg0)" d="M3506 859.60 l0 -111 42.80 -1.20 c23.40 -0.60 44.60 -0.60 47 0 l4.20 1 0 109.80 0 109.80 -37.80 0 c-20.60 0 -41.80 0.60 -47 1.20 l-9.20 1.40 0 -111z"/>
  <path fill="url(#lg0)" d="M3734 855.20 l0 -111.20 22.60 0 c12.60 0 33.80 -0.60 47 -1.40 l24.40 -1.20 0 111.20 0 111.40 -37.80 0 c-20.60 0 -41.80 0.60 -47 1.20 l-9.20 1.40 0 -111.40z"/>
  <path fill="url(#lg0)" d="M3908.40 851.60 l0.60 -110.60 46.60 -0.60 46.40 -0.40 0 109.60 0 109.80 -21.40 1.20 c-11.60 0.80 -32.80 1.40 -47 1.40 l-25.60 0 0.40 -110.40z"/>
  <path fill="url(#lg0)" d="M4051.40 898.60 l-21.60 -61.60 0.20 -27.40 0 -27.60 47 0 47 0 0.20 -26.40 c0.20 -14.60 0.80 -24.40 1.20 -21.80 0.80 4.40 1.60 4.60 10 3.40 5 -0.60 24.80 -1.20 43.80 -1.20 33.40 0 34.80 -0.20 34.80 -4 0 -2.40 1.40 -4 3.20 -4 2.80 0 3.20 4 2.20 38.60 -1 42 -2.60 50 -11.80 60.60 -10.40 11.80 -18.40 14.60 -49.20 17 -15 1.40 -27.60 2.60 -28 2.80 -0.20 0.20 8 24.20 18.60 53 10.40 28.80 19 53.80 19 55.20 0 2.20 -6.80 2.80 -35.80 2.80 -19.60 0 -41 0.60 -47.40 1.20 l-11.80 1.20 -21.60 -61.80z"/>
 </g>
 <g fill="#93daec">
  <path fill="url(#lg1)" d="M1033.60 1860.80 c-10.80 -5.60 -54.60 -53 -61.80 -67 -3.20 -6.40 -4.80 -14.40 -6 -30.60 -2.20 -29.60 -5.80 -107.20 -5.80 -124.60 l0 -13.80 7.20 -2.60 7 -2.60 12.40 11.60 c6.80 6.40 23.40 22.40 37 35.60 l24.80 24.20 -1.40 48 c-0.80 26.40 -2 65.60 -2.80 87.20 l-1.20 39.40 -9.40 -4.80z"/>
  <path fill="url(#lg2)" d="M2084 1751.20 l0 -94.80 4.60 -1.20 c2.40 -0.60 23 -1.20 46 -1.20 l41.40 0 0 96 0 96 -46 0 -46 0 0 -94.80z"/>
  <path fill="url(#lg2)" d="M2382 1748 l0 -98 14.60 0 c8.20 0 28.40 -0.60 45 -1.40 l30.40 -1.20 0 99.20 0 99.40 -45 0 -45 0 0 -98z"/>
  <path fill="url(#lg2)" d="M2552 1746 l0 -100 45 0 c28.60 0 45 -0.80 45 -2 0 -1 1.40 -2 3 -2 2.60 0 3 12.60 3 102 l0 102 -48 0 -48 0 0 -100z"/>
  <path fill="url(#lg2)" d="M2728 1745.40 l0 -100.80 34.60 -1.20 c18.80 -0.80 40 -1.40 47 -1.40 l12.40 0 0 102 0 102 -47 0 -47 0 0 -100.60z"/>
  <path fill="url(#lg2)" d="M2921.20 1744.40 c-32.80 -92.20 -38.20 -108.40 -35.80 -103.80 0.60 0.80 1.60 1 2.40 0.60 0.80 -0.60 22 -1.20 47.20 -1.40 l45.80 -0.20 37.60 102.60 c20.60 56.60 37.60 103 37.60 103.40 0 0.20 -22.20 0.40 -49.40 0.40 l-49.60 0 -35.80 -101.60z"/>
  <path fill="url(#lg2)" d="M3116 1740.60 l0 -105.60 45 0.60 c30 0.40 45 -0.20 45 -1.60 0 -1 1.40 -2 3 -2 2.60 0 3 13.20 3 107 l0 107 -48 0 -48 0 0 -105.40z"/>
  <path fill="url(#lg2)" d="M3345.40 1844.60 c-1.80 -3 -73.40 -205.80 -73.40 -208 0 -1.40 14.40 -2.40 43.60 -3.20 23.80 -0.60 45 -1.40 47 -1.80 3.20 -0.60 9.20 14.80 41.60 103.40 20.80 57.20 38.40 105.60 39 107.60 1 3.20 -2.20 3.40 -48 3.40 -27 0 -49.40 -0.60 -49.80 -1.40z"/>
  <path fill="url(#lg2)" d="M3543 1844.20 c-10.80 -2.60 -21.20 -8.60 -26 -15.20 -10.80 -14 -11 -16.40 -11 -111.20 l0 -87.80 25.60 0 c14.20 0 35.40 -0.60 47 -1.40 l21.40 -1.20 0 68.20 0 68.40 67 0 67 0 0 -69 0 -69 25.60 0 c14.20 0 35.40 -0.60 47.20 -1.40 l21.40 -1.20 -0.60 93.80 c-0.60 92.20 -0.60 94 -5 102 -2.40 4.40 -7.60 11 -11.40 14.40 -14 12.20 -15.60 12.40 -145 12.20 -64.40 -0.20 -119.80 -0.80 -123.20 -1.60z"/>
  <path fill="url(#lg2)" d="M3908 1735.20 l0 -110.80 4.60 -1.20 c2.40 -0.60 23.60 -1.20 47 -1.20 l42.40 0 0 112 0 112 -47 0 -47 0 0 -110.80z"/>
  <path fill="url(#lg2)" d="M4135 1842.60 c-2.20 -6 -79 -222.40 -79 -223 0 -0.40 20.80 -0.40 46 -0.20 28 0.20 45.60 -0.40 45 -1.60 -0.80 -1 0 -1.80 1.60 -1.80 2 0 16 36 44.20 113.60 22.60 62.40 41.20 114 41.20 115 0 0.80 -22 1.40 -48.80 1.40 -44.60 0 -48.80 -0.40 -50.20 -3.40z"/>
  <path fill="url(#lg1)" d="M979.60 1836.60 c-11 -4.80 -11.60 -5.60 -11.60 -12.40 l0 -7 12 11.80 c11 10.80 13 13 11.60 13 -0.40 0 -5.80 -2.40 -12 -5.40z"/>
  <path fill="url(#lg1)" d="M932 1812.40 c-22.40 -13.60 -29.60 -18.40 -27.20 -18.40 2.80 0 40 11.80 42.40 13.40 5 3.40 9.20 16.60 5.20 16.60 -0.80 0 -10 -5.20 -20.40 -11.60z"/>
  <path fill="url(#lg2)" d="M2238.40 1721.60 c-9 -36.60 -16.60 -67.20 -16.40 -68 0 -1 20.40 -1.60 45.60 -1.60 25 0 50.80 -0.80 57.20 -2 6.60 -1 12.20 -1.60 12.40 -1.40 0.40 0.20 -7.20 31.80 -16.80 70 l-17.40 69.40 -24 0 -24 0 -16.60 -66.40z"/>
  <path fill="url(#lg1)" d="M904 1774.20 c-21.40 -6.20 -43.60 -14 -49.40 -17.40 -13.40 -7.60 -37.40 -28.40 -79.40 -69 l-33.80 -32.80 4.60 -9 c6.40 -13 16.20 -26 36.60 -49.40 l17.80 -20.60 11.40 -0.40 c6.20 -0.20 16.60 -0.60 23.20 -0.80 25.20 -0.60 92.20 -4.80 96.60 -6 2.40 -0.80 4.40 -0.60 4.40 0.20 0 2.60 -6.80 6.80 -11 7 -3 0 -3.40 0.40 -1.20 1.80 2 1.20 2.20 2.60 0.40 5.80 -1.20 2.20 -2.20 8.40 -2.20 13.60 0 8.80 0.80 10.20 10 19 l9.80 9.60 5.20 75 c6.20 92 6.20 85.20 0.60 85 -2.60 0 -22.20 -5.20 -43.60 -11.60z"/>
  <path fill="url(#lg1)" d="M1015.80 1638.40 l-30.80 -29.80 -0.40 -11.60 c-0.20 -8.60 -1.80 -13.40 -5.60 -19.40 -3 -4.40 -5 -8.20 -4.60 -8.60 0.40 -0.40 15.60 -1.20 33.60 -2 18.20 -0.60 35.40 -1.60 38.40 -2.20 l5.40 -1 -1.20 49.60 c-0.60 27.20 -1.80 50.80 -2.60 52.20 -1 1.80 -10.80 -6.40 -32.20 -27.20z"/>
  <path fill="url(#lg1)" d="M709.60 1615.40 c-19.40 -24.20 -26.20 -33.60 -25.40 -34.40 0.40 -0.20 18.40 -1.20 39.80 -1.80 21.40 -0.60 41.20 -1.80 43.80 -2.40 3.60 -1 4.40 -0.80 3.80 1.40 -0.60 1.60 -3 2.60 -5.80 2.20 -3.60 -0.40 -4.20 -0.20 -1.80 1.40 2.40 1.80 2.40 2.40 -0.20 5.60 -1.80 2 -11.40 13.20 -21.40 25 l-18.20 21.40 -14.60 -18.40z"/>
  <path fill="url(#lg1)" d="M1236.80 1619 c-41.40 -6.40 -67.60 -19.20 -77 -37.20 -3.60 -7.40 -3.60 -7.80 -0.40 -7.80 2 0 26.20 -1.40 53.60 -3 43.60 -2.40 56.40 -2.40 100 0 27.60 1.60 51.60 3 53.40 3 5.60 0 0.60 10.60 -8.80 19.20 -14.20 12.80 -39.80 22 -74.60 26.80 -17.60 2.40 -25.80 2.20 -46.20 -1z"/>
  <path fill="url(#lg0)" d="M2084 1063 l0 -75 21.60 0 c12 0 32.80 -0.60 46 -1.40 l24.40 -1.20 0 76.20 0 76.40 -46 0 -46 0 0 -75z"/>
  <path fill="url(#lg0)" d="M2382 1060 l0 -78 45 0 45 0 0 78 0 78 -45 0 -45 0 0 -78z"/>
  <path fill="url(#lg0)" d="M2552 1059.20 l0 -78.60 43.60 -1.40 c23.80 -0.80 45.40 -2 48 -2.60 l4.40 -1 0 81.20 0 81.20 -48 0 -48 0 0 -78.80z"/>
  <path fill="url(#lg0)" d="M2728 1057 l0 -81 47 0 47 0 0.40 81 0.60 81 -47.40 0 -47.60 0 0 -81z"/>
  <path fill="url(#lg0)" d="M2929 1058.60 c-15.40 -43.80 -28.20 -80.80 -28.60 -82.60 -0.40 -2.60 5.20 -3 45.40 -3 25.20 0 45.40 -0.60 44.80 -1.40 -0.40 -1 0.40 -1.60 2 -1.60 1.80 0 12.80 27.60 32.40 81.40 16.20 45 30 82.80 30.40 84.20 0.80 1.80 -9.80 2.40 -48.60 2.40 l-49.80 0 -28 -79.40z"/>
  <path fill="url(#lg0)" d="M3116 1051.60 c0 -51.40 0.80 -85.40 1.80 -83.80 1.60 2.40 9 2.60 44.60 1.40 23.40 -0.80 43 -2.20 43.20 -3.40 0.40 -1 2 -1.80 3.60 -1.80 2.40 0 2.80 13.20 2.80 87 l0 87 -48 0 -48 0 0 -86.40z"/>
  <path fill="url(#lg0)" d="M3345 1135.60 c-9.40 -25.40 -59 -166.60 -59 -167.80 0 -1 21 -1.60 48.40 -1.40 l48.40 0.60 30.60 84 c16.80 46.20 30.60 84.60 30.60 85.60 0 0.80 -22 1.40 -49 1.40 -37.40 0 -49.40 -0.60 -50 -2.40z"/>
  <path fill="url(#lg0)" d="M3548 1136 c-18.80 -3.40 -28.60 -10 -36.60 -25 -4.20 -7.60 -4.40 -10.80 -5 -77.20 l-0.60 -69.20 4.60 -1.40 c2.60 -0.60 23.80 -1.20 47.20 -1.20 l42.40 0 0 47 0 47 67 0 67 0 0 -47.80 0 -47.80 4.60 -1.20 c2.40 -0.60 23.60 -1.20 47 -1.20 l42.40 0 0 67.60 c0 73.80 -0.80 80.20 -11.20 93.80 -3 4 -10 9.20 -16.60 12.40 l-11.20 5.20 -116 0.40 c-63.80 0.20 -120 -0.40 -125 -1.40z"/>
  <path fill="url(#lg0)" d="M3907.60 1047 l0.40 -91 21.60 0 c11.80 0 32.80 -0.60 47 -1.40 l25.40 -1.20 0 92.20 0 92.40 -47.40 0 -47.60 0 0.60 -91z"/>
  <path fill="url(#lg0)" d="M4133.40 1129.60 c-1.60 -4.80 -16 -45.60 -32.20 -91 -16 -45.20 -29.20 -83 -29.20 -84 0 -1.20 18.60 -2.20 43.60 -2.40 23.80 -0.20 45.20 -0.80 47.40 -1.40 3.60 -1 7.20 7.80 38.20 93.20 l34.20 94 -49.40 0 -49.60 0 -3 -8.40z"/>
  <path fill="url(#lg0)" d="M2243.40 1032.40 c-6.40 -25 -11.40 -45.80 -11.40 -46.40 0 -1.40 91.40 -1.20 93 0.20 0.60 0.80 -4 21.60 -10.40 46.60 l-11.60 45.20 -24 0 -24 0 -11.60 -45.60z"/>
 </g>
</svg>