<?xml version="1.0" encoding="UTF-8"?>
<svg xmlns="http://www.w3.org/2000/svg" width="212mm" height="212mm" viewBox="0 0 212 212">
  <g transform="translate(2.04 -.0412)">
    <path d="M-2.04.0412h212v212h-212z"/>
    <path fill="#fff" d="M47.3 61.6h1.62c.449 1.41.753 2.78 1.05 4.15h.0212c.323-1.44.62-2.72 1.03-4.15h1.64v5.36h-1.11v-2.4c0-.168.0047-.363.0141-.584.0094-.221.0188-.433.0282-.634.0141-.231.0282-.469.0423-.714h-.0141c-.354 1.44-.634 2.66-1.16 4.33h-.988c-.43-1.51-.806-2.95-1.16-4.33h-.0141c.0141.245.0282.483.0423.714.0094.202.0188.413.0282.634.0094.221.0141.416.0141.584v2.4h-1.08zm5.9 4.1h1.31v1.23H53.2z" style="inline-size:0;white-space:pre" transform="matrix(17.2 0 0 17.2 -765 -1000)"/>
  </g>
</svg>