<svg width="132" height="32" viewBox="0 0 132 32" fill="none" xmlns="http://www.w3.org/2000/svg">
<path fill-rule="evenodd" clip-rule="evenodd" d="M30 4C30 2.89543 29.1046 2 28 2H4C2.89543 2 2 2.89543 2 4V28C2 29.1046 2.89543 30 4 30H28C29.1046 30 30 29.1046 30 28V4ZM19.2951 5.45192C18.6615 4.54711 17.4145 4.32721 16.5096 4.96076L5.45109 12.704C4.54628 13.3376 4.32639 14.5847 4.95994 15.4895L12.7032 26.5481C13.3368 27.4529 14.5839 27.6728 15.4887 27.0392L26.5472 19.2959C27.452 18.6624 27.6719 17.4153 27.0384 16.5105L19.2951 5.45192Z" fill="#2A2829"/>
<path d="M43.48 10H46.66L51 21.58H50.3L54.62 10H57.84V24H55.48V12.08H56.08L51.58 24H49.72L45.22 12.08H45.84V24H43.48V10ZM68.807 24.32C67.487 24.32 66.307 24.0133 65.267 23.4C64.227 22.7733 63.4137 21.9067 62.827 20.8C62.2537 19.68 61.967 18.4133 61.967 17C61.967 15.5867 62.2537 14.3267 62.827 13.22C63.4137 12.1 64.227 11.2333 65.267 10.62C66.307 9.99333 67.487 9.68 68.807 9.68C70.1137 9.68 71.287 9.99333 72.327 10.62C73.3804 11.2333 74.1937 12.1 74.767 13.22C75.3537 14.3267 75.647 15.5867 75.647 17C75.647 18.4133 75.3537 19.68 74.767 20.8C74.1937 21.9067 73.3804 22.7733 72.327 23.4C71.287 24.0133 70.1137 24.32 68.807 24.32ZM68.807 22.32C69.6737 22.32 70.447 22.1 71.127 21.66C71.807 21.22 72.3337 20.5933 72.707 19.78C73.0937 18.9667 73.287 18.04 73.287 17C73.287 15.96 73.0937 15.0333 72.707 14.22C72.3337 13.4067 71.807 12.78 71.127 12.34C70.447 11.9 69.6737 11.68 68.807 11.68C67.927 11.68 67.147 11.9 66.467 12.34C65.787 12.78 65.2604 13.4067 64.887 14.22C64.5137 15.0333 64.327 15.96 64.327 17C64.327 18.04 64.5137 18.9667 64.887 19.78C65.2604 20.5933 65.787 21.22 66.467 21.66C67.147 22.1 67.927 22.32 68.807 22.32ZM84.553 24.32C83.4863 24.32 82.5263 24.0933 81.673 23.64C80.833 23.1867 80.1663 22.5467 79.673 21.72C79.193 20.8933 78.953 19.96 78.953 18.92L81.333 18.72C81.333 19.4 81.4663 20.0133 81.733 20.56C81.9996 21.1067 82.3863 21.54 82.893 21.86C83.3996 22.1667 83.9796 22.32 84.633 22.32C85.0863 22.32 85.5196 22.2467 85.933 22.1C86.3596 21.94 86.6996 21.7067 86.953 21.4C87.2196 21.08 87.353 20.7067 87.353 20.28C87.353 19.84 87.213 19.4733 86.933 19.18C86.653 18.8733 86.2996 18.6267 85.873 18.44C85.4463 18.24 84.8596 18.0067 84.113 17.74C83.1796 17.42 82.4196 17.12 81.833 16.84C81.2596 16.5467 80.7663 16.1467 80.353 15.64C79.9396 15.12 79.733 14.46 79.733 13.66C79.733 12.8867 79.933 12.2 80.333 11.6C80.7463 10.9867 81.3063 10.5133 82.013 10.18C82.733 9.84667 83.533 9.68 84.413 9.68C85.2396 9.68 86.013 9.83333 86.733 10.14C87.4663 10.4333 88.0663 10.8733 88.533 11.46C88.9996 12.0333 89.2663 12.7267 89.333 13.54L86.973 13.74C86.9063 13.3133 86.7463 12.9467 86.493 12.64C86.253 12.3333 85.9463 12.1 85.573 11.94C85.1996 11.7667 84.7996 11.68 84.373 11.68C83.7463 11.68 83.2063 11.8467 82.753 12.18C82.313 12.5 82.093 12.9333 82.093 13.48C82.093 13.8933 82.233 14.2467 82.513 14.54C82.793 14.82 83.1396 15.0533 83.553 15.24C83.9796 15.4267 84.553 15.6533 85.273 15.92C86.233 16.2533 87.0063 16.5667 87.593 16.86C88.1796 17.1533 88.6796 17.56 89.093 18.08C89.5063 18.6 89.713 19.2533 89.713 20.04C89.713 20.84 89.4863 21.5667 89.033 22.22C88.593 22.8733 87.973 23.3867 87.173 23.76C86.3863 24.1333 85.513 24.32 84.553 24.32ZM97.2652 10H100.685L105.425 24H103.025L98.4652 10.44H99.5252L94.9252 24H92.5252L97.2652 10ZM95.4452 17.88H102.505V19.88H95.4452V17.88ZM109.039 10H111.399V24H109.039V10ZM122.354 24.32C121.048 24.32 119.874 24.0067 118.834 23.38C117.794 22.7533 116.981 21.8867 116.394 20.78C115.821 19.66 115.534 18.4 115.534 17C115.534 15.6 115.821 14.3467 116.394 13.24C116.981 12.12 117.788 11.2467 118.814 10.62C119.854 9.99333 121.028 9.68 122.334 9.68C123.481 9.68 124.501 9.92667 125.394 10.42C126.301 10.9 127.028 11.58 127.574 12.46C128.134 13.34 128.461 14.36 128.554 15.52L126.194 15.72C126.034 14.4533 125.608 13.4667 124.914 12.76C124.234 12.0533 123.374 11.7 122.334 11.7C121.481 11.7 120.714 11.9267 120.034 12.38C119.368 12.8333 118.841 13.4667 118.454 14.28C118.081 15.0933 117.894 16.0067 117.894 17.02C117.894 18.0467 118.081 18.96 118.454 19.76C118.841 20.56 119.368 21.1867 120.034 21.64C120.714 22.0933 121.481 22.32 122.334 22.32C123.028 22.32 123.641 22.1667 124.174 21.86C124.721 21.54 125.168 21.0867 125.514 20.5C125.861 19.9 126.088 19.1933 126.194 18.38L128.554 18.58C128.461 19.7133 128.134 20.7133 127.574 21.58C127.028 22.4467 126.301 23.12 125.394 23.6C124.488 24.08 123.474 24.32 122.354 24.32Z" fill="#2A2829"/>
</svg>
