<svg version="1.2" xmlns="http://www.w3.org/2000/svg" viewBox="0 0 1190 292" width="1190" height="292">
	<title>nablas_logo_horizontal-ai</title>
	<style>
		.s0 { fill: #57585a } 
	</style>
	<g id="レイヤー 1">
		<g id="&lt;Group&gt;">
			<g id="&lt;Group&gt;">
				<g id="&lt;Group&gt;">
					<path id="&lt;Path&gt;" class="s0" d="m197.1 170.7c-2.9 0-5.8-1.4-7.5-4.1l-67.8-107.9-58.8 93.6h29.5c4.9 0 8.9 4.1 8.9 9.2 0 5.1-4 9.2-8.9 9.2h-45.9c-3.3 0-6.3-1.8-7.9-4.8-1.5-3-1.4-6.6 0.4-9.5l75.3-119.6c3.3-5.2 11.6-5.2 14.9 0l75.2 119.6c2.7 4.3 1.6 10-2.5 12.8-1.5 1.1-3.2 1.5-4.9 1.5z"/>
				</g>
				<g id="&lt;Group&gt;">
					<path id="&lt;Path&gt;" class="s0" d="m197.1 258.2c-3 0-5.8-1.6-7.5-4.2l-75.2-119.6c-2.7-4.3-1.6-10 2.6-12.8 4.1-2.8 9.6-1.6 12.3 2.7l67.8 107.8 58.8-93.5h-29.5c-4.9 0-8.9-4.2-8.9-9.3 0-5.1 4-9.2 8.9-9.2h45.9c3.3 0 6.3 1.8 7.9 4.8 1.5 3 1.4 6.6-0.4 9.5l-75.3 119.6c-1.6 2.6-4.4 4.2-7.4 4.2z"/>
				</g>
			</g>
			<g id="&lt;Group&gt;">
				<path id="&lt;Compound Path&gt;" fill-rule="evenodd" class="s0" d="m665.2 80.1c5-1.2 18.7-2.4 30.7-2.1 17.1 0.5 28.1 2.9 36 8.8 6.5 4.7 9.9 10.7 9.9 19.7 0 11-6.7 20.6-20.7 25v0.3c11.1 2.4 26.1 11.4 26.1 28.3 0 9.8-3.5 17.3-10.2 22.9-9.1 7.5-24 10.9-45.8 10.9-11.9 0-20.2-0.5-26-1zm16.5 47h15.6c18.2 0 30.6-6.7 30.6-18.9 0-13.3-13.5-18.8-31-18.8-7.9 0-12.4 0.5-15.2 1zm0 54.6c3.4 0.5 8.3 0.7 14.4 0.7 17.9 0 35.1-5.5 35.1-22.1 0-16.6-16.5-22-35.3-22h-14.2z"/>
				<path id="&lt;Compound Path&gt;" class="s0" d="m358.2 192.9v-114h18.8l42.7 57.7c9.9 13.3 17.7 25.4 24 37l0.4-0.1c-1.6-15.3-2-29.1-2-46.9v-47.7h16.2v114h-17.4l-42.3-57.9c-9.3-12.6-18.2-25.7-25-38l-0.6 0.1c1 14.4 1.4 28.1 1.4 47.1v48.7z"/>
				<path id="&lt;Compound Path&gt;" fill-rule="evenodd" class="s0" d="m537.5 157l-13.9 35.9h-17.8l45.3-114h20.8l45.5 114h-18.4l-14.2-35.9zm43.7-11.5l-13.1-32.8c-2.9-7.4-4.9-14.2-6.9-20.8h-0.4c-2 6.8-4.1 13.7-6.7 20.6l-13.1 33z"/>
				<path id="&lt;Compound Path&gt;" fill-rule="evenodd" class="s0" d="m949.5 156.7l-13.8 35.9h-17.9l45.4-114h20.8l45.5 114h-18.4l-14.3-35.9zm43.8-11.5l-13.1-32.8c-3-7.5-4.9-14.2-6.9-20.8h-0.4c-2 6.7-4.2 13.7-6.8 20.6l-13 33z"/>
				<path id="&lt;Path&gt;" class="s0" d="m1106.1 194.3c-12.5 0-26.4-3-34-7.3l-0.8-0.5 4.8-13.7 1.2 0.7c7.8 4.1 19 6.9 30 6.9 16.7 0 29.5-7.8 29.5-18.3 0-9.2-8.5-16-26.9-22-24-7.3-34.3-16.9-34.3-31.9 0-18.9 16.8-30.7 42-30.7 15.6 0 22.3 2.9 26.7 4.8l-5.1 12.5c-2.6-1.2-9.2-4.3-22.2-4.3-16.9 0-27.1 9.1-27.1 16.1 0 9.7 11.8 15.5 29.6 21.4 19.9 6.6 30.3 17.2 31.6 32.5 0.7 7.7-1.7 14.9-7 20.7-5.5 6-16.5 13.1-38 13.1z"/>
				<path id="&lt;Path&gt;" class="s0" d="m809.8 192v-112.9h15.9v98.8h50.9v14.1z"/>
			</g>
		</g>
	</g>
</svg>