<svg xmlns="http://www.w3.org/2000/svg" viewBox="0 0 1654.42 332.25"><defs><style>.cls-1,.cls-2{fill:#005e99;}.cls-2{fill-rule:evenodd;}</style></defs><g id="レイヤー_2" data-name="レイヤー 2"><g id="レイヤー_1-2" data-name="レイヤー 1"><polygon class="cls-1" points="725.93 229.53 620.27 6.46 540.17 6.46 514.97 52.81 558.62 52.81 499.67 332.25 551.87 332.25 604.97 83.41 710.66 303.64 725.93 229.53"/><path class="cls-1" d="M1002.71,225.11l2.56-.4H884l90.9-155.25h-50.4L777.66,313.72,843,6.46h-52.2L749.5,199.39,723.17,327.17c3.6,3.39,8.48,5.08,14.55,5.08h85.5L862.37,267h147Z"/><path class="cls-1" d="M1202.34,170.58,1091,291.31h-9L1038.31,6.46H919.52L887.57,52.81H992.42l27.44,171.9h0l15.36,97c3,7.92,7.72,10.13,18,10.49l-.06.05H1118l107.75-118.72Z"/><path class="cls-1" d="M1568.11,224.71h-118.5l90.9-155.25h-50.4L1356.77,291.31h-16.06l-68-129.15,144.9-155.7h-63.45l-104,114.3-50.85-99c-5.4-11.25-11.25-15.3-24.75-15.3h-49.05l-25.2,46.35h57.15l32.36,59.83.19-.1,118.57,217.89a22.44,22.44,0,0,0,9.53,1.82h70.65L1428,267h146.8Z"/><path class="cls-1" d="M1647.94,291.31h-.34L1637.76,227l-.43-2.69h0L1604,6.46H1485.16l-32,46.35h104.84l27.46,171.9h-.18l15.22,96.12c3.24,9.54,8.66,11.42,21.85,11.42h32Z"/><path class="cls-2" d="M113.52,308.07s-13.15-15.13-12.89-39.19-15.35-44.42-34.12-39.52S28,252.67,18.43,269.29,14.24,285,14.24,285s3-1.92,9.14-2.14,10.79,3.25,12.17,2.45c-2.62,4.18-7.84,3.9-13.78,7.69S16,298,16,298s7.28-2.26,18.59-1.21,34.18.53,49.77,3.54a241.54,241.54,0,0,1,29.2,7.74Zm-5.53-50c-2.66-8.37,129.09,22.79,164.36,33.58,0,0,18.82,7.13-5.6,6.62s-106.86,5.6-123.65,10.18S112.57,290.67,111,285.07s-3.05-27-3.05-27Zm112,54.31,1,1c3.9,4,7.5,4.29,10.41,2.93a25,25,0,0,1-11.43-4Zm17.21,3c-6.69,8.62-18.31,3.14-23.4-.64-4-3-8.18-7.84-10.14-9.77-24.83,2.11-52.37,5.32-60.46,7.92-13.07,4.21-26.21-7.05-32.39-17.14s-6.73-22.89-6.46-31.72-5.53-22.1-5.53-22.1c4.83-6.66,21.46-16.24,144.94,9.71s256.71,33.91,250.36,33.14c-1.39-.17,4.84,2.35-1.55,2.69-43,0-136.18-9.08-137.19-1.59-2.87,21.35,144,43.14,142.21,42.92,4.69,2.07,1.56,3.27-.61,2.95,0-.89-155.31-29-251.5-29,0,2.23-.88,5.25-3.88,9.12a11.78,11.78,0,0,1-4.4,3.55Zm5.61-12.66H240a6.84,6.84,0,0,1,.9,5.32,11.44,11.44,0,0,0,1.83-4.53c0-.27,0-.54.05-.81ZM235.55,313a12.88,12.88,0,0,0,2.79-5.88,15.87,15.87,0,0,0-.19-4.3c-5,.14-11.51.48-18.84,1,2,2,4,4.08,6.05,6.16,3.81,3.92,7.33,4.28,10.19,3ZM98.38,238.06S49.76,211.81,65.5,197s46.73-83.23,159.57-142.1S355.32-6.45,347.68,6.15c-26.56,28-68.35,64.46-68.35,64.46,6.6,5.85-5.72,20.32-14.82,33.23-5.25,7.46-6.89,15.49-9.74,18.26,11.89,3.77-23.69,37.28-33.47,43.14,7.8,4.25,16.38,13,9.42,16.88,19.57,8.7,28.59,40.31,18.06,42.46s-24.26,5.63-24.26,5.63c25.65,9.18,33.89,17.64,14.63,16.65-7.52,1-111.22-31.6-140.77-8.8ZM33.66,286.19c-19.78,9.34-19.17,12.37-19.17,12.37L0,304.24s7.5-10.42,13.9-17.76a23.36,23.36,0,0,1,19.76-.29Zm-8.48-8.47s-2.89-4-2.06-6.33,3.15-6.67,7.84-6.91,5.74.7,6.48-.6S37.1,269.26,37,271,35.82,280.58,25.18,277.72Z"/></g></g></svg>