<svg viewBox="0 0 957.3 212.9" xmlns="http://www.w3.org/2000/svg" xmlns:xlink="http://www.w3.org/1999/xlink" id="Layer_1" xml:space="preserve" overflow="hidden"><path d="M327.4 0 246 0 211.6 59.7 252.3 130.3 333.7 130.3 368.2 70.6 327.4 0Z" fill="#414099"/><path d="M164.7 0 83.3 0 42.6 70.5 124 70.5 205.3 211.5 286.7 211.5 327.4 141 246 141 164.7 0Z" fill="#414099"/><path d="M117.8 81.2 36.4 81.2 2 141 42.7 211.5 124.1 211.5 158.5 151.9 117.8 81.2Z" fill="#414099"/><path d="M385.1 70.5 421.5 70.5 479.5 145 479.5 70.5 518.2 70.5 518.2 211.4 484 211.4 423.8 134.1 423.8 211.4 385.1 211.4 385.1 70.5Z" fill="#414099"/><path d="M538.9 70.5 644.9 70.5 644.9 103.7 577.6 103.7 577.6 125 637.9 125 637.9 155.8 577.6 155.8 577.6 178.1 645.9 178.1 645.9 211.3 538.9 211.3 538.9 70.5Z" fill="#414099"/><path d="M694.9 104.8 660 104.8 660 70.5 768.9 70.5 768.9 104.7 734 104.7 734 211.4 694.9 211.4 694.9 104.8Z" fill="#414099"/><rect x="784.4" y="70.5" width="39.3" height="140.9" fill="#414099"/><path d="M838 189.2 859.1 164C872.6 174.7 887.6 180.4 903.4 180.4 913.6 180.4 919 176.9 919 171L919 170.6C919 164.9 914.5 161.8 896 157.5 866.9 150.9 844.4 142.7 844.4 114.5L844.4 114.1C844.4 88.7 864.5 70.4 897.3 70.4 920.5 70.4 938.7 76.6 953.5 88.6L934.6 115.4C922.1 106.6 908.4 101.9 896.3 101.9 887.1 101.9 882.6 105.8 882.6 110.7L882.6 111.1C882.6 117.3 887.3 120.1 906.2 124.4 937.6 131.2 957.2 141.4 957.2 167L957.2 167.4C957.2 195.3 935.1 211.9 901.9 211.9 877.8 211.9 854.8 204.3 838 189.2" fill="#414099"/><rect x="-119" y="-118.1" width="1200" height="450" fill="none"/></svg>