<svg width="449" height="111" viewBox="0 0 449 111" fill="none" xmlns="http://www.w3.org/2000/svg">
<path d="M228.42 56.5314V90.504H218.577V57.132C218.577 44.4479 212.694 37.7486 202.01 37.7486C190.484 37.7486 183.52 46.2392 183.52 60.0001V90.504H173.656V29.4962H183.499V37.7486C187.106 33.0788 193.342 28.7714 203.673 28.7714C217.486 28.7714 228.409 36.3094 228.409 56.521L228.42 56.5314Z" fill="#14CC8F"/>
<path d="M235.738 60.0115C235.738 41.4669 248.231 28.7828 266.118 28.7828C284.005 28.7828 296.498 41.4669 296.498 60.0115C296.498 78.5561 284.005 91.2402 266.118 91.2402C248.231 91.2402 235.738 78.5561 235.738 60.0115V60.0115ZM286.417 60.0115C286.417 46.9754 278.247 37.5219 266.118 37.5219C253.989 37.5219 245.82 46.9754 245.82 60.0115C245.82 73.0476 253.989 82.5012 266.118 82.5012C278.247 82.5012 286.417 73.0476 286.417 60.0115Z" fill="#14CC8F"/>
<path d="M353.059 6.76926H362.902V90.5152H353.184L353.059 80.7096C348.974 86.332 342.374 91.24 332.043 91.24C315.112 91.24 302.619 79.8709 302.619 60.0113C302.619 41.3528 315.112 28.7826 332.043 28.7826C342.374 28.7826 349.338 32.9657 353.059 38.8367V6.76926ZM353.184 60.2494C353.184 46.8509 345.014 37.5217 333.01 37.5217C321.005 37.5217 312.711 46.737 312.711 60.0113C312.711 73.2855 320.881 82.5009 333.01 82.5009C345.139 82.5009 353.184 73.2856 353.184 60.2494Z" fill="#14CC8F"/>
<path d="M372.754 6.76926H382.597V90.5152H372.754V6.76926Z" fill="#14CC8F"/>
<path d="M390.88 60.0115C390.88 41.4669 402.645 28.7828 419.94 28.7828C437.235 28.7828 448.522 39.6652 449 57.7336C449 59.0486 448.875 60.4878 448.761 61.9167H401.211V62.7554C401.574 74.3626 408.892 82.4908 420.543 82.4908C429.19 82.4908 435.915 77.9452 437.952 70.0449H447.919C445.518 82.2423 435.426 91.2195 421.26 91.2195C402.884 91.2195 390.88 78.6597 390.88 59.9908V60.0115ZM438.43 53.7885C437.474 43.2582 430.261 37.3976 420.054 37.3976C411.043 37.3976 402.759 43.8587 401.803 53.7885H438.43Z" fill="#14CC8F"/>
<path d="M71.5025 58.4334L62.6506 58.1863L62.7744 52.5654L71.5644 52.7507L71.5025 58.4334Z" fill="#14CC8F"/>
<path fill-rule="evenodd" clip-rule="evenodd" d="M91.4967 0C106.105 0 118.052 4.3238 126.099 12.4155C133.156 19.5806 136.932 29.5253 136.746 40.3348C136.561 49.6001 132.29 58.3712 124.738 65.0422C117.557 71.3426 108.21 74.9252 98.9867 74.9252H98.3677L73.9787 74.4928L74.0406 69.366L98.4296 69.7984C106.477 69.922 114.091 66.8953 119.909 61.3361C125.728 55.7152 129.009 48.2412 129.133 40.2113C129.256 33.7256 127.337 27.487 123.5 22.1749L123.252 22.2984C125.295 26.6222 126.285 31.2549 126.223 36.0728C125.914 53.1209 111.924 66.71 94.9632 66.71H94.4061L71.1931 66.2776L62.6507 66.0923L47.6707 65.8452H47.3612C37.6427 65.8452 29.6574 73.6281 29.4717 83.3875C29.4098 87.5877 30.8335 91.7262 33.4953 95L34.1143 95.7412L33.7429 94.8147C32.8144 92.4675 32.3192 90.0585 32.3811 87.526C32.5668 77.2106 41.0472 68.9337 51.3228 68.9337H51.6942L59.7414 69.0572L59.6795 74.184L51.6323 74.0604H51.3847C43.8947 74.0604 37.7046 80.052 37.5808 87.5877C37.5189 91.2939 38.6331 94.0734 40.8615 95.9265C42.9662 97.656 45.9993 98.5826 49.961 98.6443C53.5513 98.7061 56.7082 97.1001 59.0605 94.197C61.227 91.5409 62.465 87.773 62.5269 84.0052L62.7745 69.1807L71.0074 69.366L70.7598 84.1905C70.636 91.2321 68.4076 97.656 64.5078 102.227C59.5557 107.971 52.3133 110.874 42.7805 110.874C28.667 110.874 17.7724 106.983 10.3442 99.4473C3.47321 92.4675 -0.178956 82.1521 0.00674803 70.5396C0.192452 61.1508 4.03032 52.3797 10.8395 45.8322C17.4629 39.4701 26.191 35.9493 35.3523 35.9493H36.0332L60.4223 36.3817L60.3604 41.5084L35.9713 41.0761C27.9242 40.9525 20.3103 43.9792 14.4916 49.5383C8.67291 55.1593 5.39215 62.6333 5.26835 70.6632C5.14455 77.1489 7.06348 83.3875 10.9014 88.6996L11.149 88.576C9.10622 84.2522 8.1158 79.6196 8.1777 74.8017C8.30151 66.5247 11.7061 58.7418 17.7105 52.9356C23.5911 47.2529 31.2668 44.1645 39.3759 44.1645H39.933L63.146 44.5969L71.6883 44.7822L86.6684 45.0292H86.9779C96.6964 45.0292 104.682 37.2464 104.867 27.487C104.929 23.2867 103.506 19.1482 100.844 15.8745L100.225 15.1333L100.596 16.0598C101.525 18.3452 101.958 20.816 101.896 23.3485C101.71 33.6638 93.2299 41.9408 82.9543 41.9408H82.5829L74.5358 41.8173L74.5977 36.6905L82.6448 36.814C86.3589 36.9376 89.8254 35.5169 92.4871 32.9844C95.1489 30.4519 96.6345 26.9928 96.6964 23.3485C96.7583 19.6424 95.6441 16.8628 93.4156 15.0097C91.311 13.2802 88.2778 12.3537 84.3162 12.2919H84.1305C80.664 12.2919 77.507 13.8979 75.2167 16.7393C73.0501 19.3953 71.8121 23.1632 71.7502 26.9311L71.5026 41.7555L63.2698 41.5702L63.5174 26.7458C63.5793 21.5572 64.7554 14.2068 69.6456 8.46229C74.412 2.84135 81.7782 0 91.4967 0ZM94.9632 61.5832C109.139 61.5832 120.776 50.2178 121.085 35.8257C121.209 30.0813 119.414 24.5839 116.01 19.9512L115.143 18.8394L115.7 20.1365C117.371 23.7809 118.176 27.7341 118.114 31.749C117.99 38.9759 115.019 45.7705 109.819 50.7737C104.744 55.6534 98.0582 58.3712 91.0015 58.3712H90.5063L74.2882 58.0624L74.3501 52.9356L90.5682 53.2445H90.9396C96.6345 53.2445 102.02 51.0208 106.167 47.0676C110.438 42.9909 112.791 37.5553 112.915 31.6872C112.976 26.6222 111.429 21.8661 108.334 17.9129L107.591 16.9863L108.086 18.0982C109.386 21.0631 110.005 24.275 109.943 27.5488C109.819 33.6638 107.343 39.4083 102.887 43.6703C98.5534 47.8706 92.9204 50.156 86.916 50.156H86.4827L71.5026 49.909H71.3788V49.9707L63.146 49.7854L39.8092 49.353H39.314C25.1386 49.353 13.5012 60.7184 13.2536 74.9252C13.1298 80.6697 14.863 86.1671 18.3295 90.7997L19.1342 91.9115L18.5771 90.6144C16.9058 86.9701 16.1011 83.0169 16.163 79.0019C16.4106 64.2393 28.5432 52.3797 43.2757 52.3797H43.7709L59.9271 52.8121L59.8652 57.9389L43.6471 57.63H43.2757C31.3287 57.63 21.4865 67.2041 21.3008 79.1872C21.2389 84.2522 22.7864 88.9467 25.8814 92.9616L26.6243 93.8881L26.129 92.7763C24.8291 89.8114 24.2101 86.5995 24.272 83.3257C24.3958 77.2106 26.8719 71.4662 31.3287 67.2041C35.6618 63.0039 41.2948 60.7184 47.2993 60.7184H47.7326L62.7126 60.9655L71.255 61.1508L94.468 61.5832H94.9632Z" fill="#14CC8F"/>
</svg>
