<?xml version="1.0" encoding="utf-8"?>
<!-- Generator: Adobe Illustrator 28.3.0, SVG Export Plug-In . SVG Version: 6.00 Build 0)  -->
<svg version="1.1" id="Layer_1" xmlns="http://www.w3.org/2000/svg" xmlns:xlink="http://www.w3.org/1999/xlink" x="0px" y="0px"
	 viewBox="0 0 1050 102" style="enable-background:new 0 0 1050 102;" xml:space="preserve">
<g>
	<path d="M62.5,73.6H46.1L19.6,27.5h-0.4c0.1,1.9,0.2,3.8,0.3,5.8c0.1,1.9,0.2,3.9,0.2,5.8c0.1,1.9,0.2,3.9,0.2,5.8v28.7H8.4V12.7
		h16.3l26.5,45.6h0.3c-0.1-1.9-0.1-3.8-0.2-5.6c-0.1-1.9-0.2-3.7-0.2-5.6c-0.1-1.9-0.1-3.7-0.2-5.6V12.7h11.6L62.5,73.6L62.5,73.6z"
		/>
	<path d="M119.1,50.2c0,3.9-0.5,7.3-1.6,10.3c-1,3-2.6,5.5-4.5,7.6c-2,2.1-4.4,3.6-7.2,4.7s-5.9,1.6-9.4,1.6c-3.3,0-6.3-0.5-9-1.6
		s-5.1-2.6-7.1-4.7s-3.6-4.6-4.7-7.6c-1.1-3-1.6-6.4-1.6-10.3c0-5.2,0.9-9.5,2.7-13.1s4.4-6.3,7.8-8.2c3.4-1.9,7.4-2.8,12.1-2.8
		c4.4,0,8.2,0.9,11.6,2.8c3.4,1.9,6,4.6,8,8.2C118.2,40.7,119.1,45.1,119.1,50.2z M86.9,50.2c0,3.1,0.3,5.6,1,7.7s1.7,3.7,3.1,4.7
		c1.4,1.1,3.3,1.6,5.5,1.6s4.1-0.5,5.5-1.6s2.4-2.6,3.1-4.7c0.7-2.1,1-4.7,1-7.7c0-3.1-0.3-5.6-1-7.7c-0.7-2-1.7-3.6-3.1-4.6
		c-1.4-1-3.3-1.5-5.5-1.5c-3.4,0-5.8,1.2-7.3,3.5C87.7,42.2,86.9,45.6,86.9,50.2z"/>
	<path d="M171.9,50.2c0,3.9-0.5,7.3-1.6,10.3c-1,3-2.6,5.5-4.5,7.6c-2,2.1-4.4,3.6-7.2,4.7s-5.9,1.6-9.4,1.6c-3.3,0-6.3-0.5-9-1.6
		s-5.1-2.6-7.1-4.7s-3.6-4.6-4.7-7.6c-1.1-3-1.6-6.4-1.6-10.3c0-5.2,0.9-9.5,2.7-13.1s4.4-6.3,7.8-8.2c3.4-1.9,7.4-2.8,12.1-2.8
		c4.4,0,8.2,0.9,11.6,2.8c3.4,1.9,6,4.6,8,8.2S171.9,45.1,171.9,50.2z M139.7,50.2c0,3.1,0.3,5.6,1,7.7s1.7,3.7,3.1,4.7
		c1.4,1.1,3.3,1.6,5.5,1.6s4.1-0.5,5.5-1.6s2.4-2.6,3.1-4.7c0.7-2.1,1-4.7,1-7.7c0-3.1-0.3-5.6-1-7.7c-0.7-2-1.7-3.6-3.1-4.6
		c-1.4-1-3.3-1.5-5.5-1.5c-3.4,0-5.8,1.2-7.3,3.5C140.5,42.2,139.7,45.6,139.7,50.2z"/>
	<path d="M214.9,59.8c0,3.2-0.7,5.8-2.2,8s-3.7,3.8-6.6,5c-2.9,1.1-6.6,1.7-11,1.7c-3.2,0-6-0.2-8.4-0.6c-2.3-0.4-4.7-1.1-7-2.1
		V61.3c2.5,1.1,5.2,2.1,8.1,2.8c2.9,0.7,5.4,1.1,7.6,1.1c2.5,0,4.2-0.4,5.3-1.1c1.1-0.7,1.6-1.7,1.6-2.9c0-0.8-0.2-1.5-0.6-2.1
		s-1.4-1.3-2.8-2.1c-1.4-0.8-3.6-1.8-6.7-3.1c-2.9-1.2-5.3-2.5-7.2-3.7c-1.9-1.2-3.3-2.7-4.2-4.4c-0.9-1.7-1.4-3.9-1.4-6.5
		c0-4.3,1.7-7.5,5-9.7s7.8-3.3,13.4-3.3c2.9,0,5.6,0.3,8.3,0.9c2.6,0.6,5.3,1.5,8.1,2.8l-3.8,9.2c-2.3-1-4.5-1.8-6.5-2.5
		c-2-0.6-4.1-1-6.2-1c-1.9,0-3.3,0.2-4.2,0.7c-0.9,0.5-1.4,1.3-1.4,2.3c0,0.7,0.2,1.4,0.7,2s1.4,1.2,2.8,1.9
		c1.4,0.7,3.5,1.6,6.2,2.7c2.6,1.1,4.9,2.2,6.9,3.4c1.9,1.2,3.4,2.6,4.5,4.4C214.4,54.8,214.9,57,214.9,59.8z"/>
	<path d="M250.8,26.1c5.2,0,9.5,2,12.7,6.1s4.9,10.1,4.9,18c0,5.3-0.8,9.7-2.3,13.3c-1.5,3.6-3.6,6.3-6.3,8.1
		c-2.7,1.8-5.8,2.7-9.3,2.7c-2.2,0-4.2-0.3-5.8-0.9c-1.6-0.6-3-1.3-4.1-2.2c-1.1-0.9-2.1-1.9-3-2.9h-0.7c0.2,1.1,0.4,2.2,0.5,3.4
		c0.1,1.2,0.2,2.3,0.2,3.4v18.8h-12.7V27h10.3l1.8,6h0.6c0.8-1.2,1.8-2.4,3-3.5s2.6-1.9,4.3-2.5C246.6,26.5,248.5,26.1,250.8,26.1z
		 M246.7,36.3c-2.2,0-4,0.5-5.3,1.4s-2.3,2.3-2.9,4.1c-0.6,1.8-0.9,4.2-1,7v1.4c0,3,0.3,5.5,0.9,7.6s1.5,3.7,2.9,4.7
		c1.3,1.1,3.2,1.6,5.6,1.6c1.9,0,3.5-0.5,4.8-1.6c1.2-1.1,2.2-2.7,2.8-4.8c0.6-2.1,0.9-4.7,0.9-7.7c0-4.6-0.7-8-2.1-10.3
		C251.8,37.5,249.7,36.3,246.7,36.3z"/>
	<path d="M291.5,8.8V22c0,2.3-0.1,4.5-0.2,6.6c-0.2,2.1-0.3,3.6-0.4,4.4h0.7c1-1.6,2.2-2.9,3.6-3.9s2.9-1.7,4.6-2.2s3.5-0.7,5.4-0.7
		c3.4,0,6.3,0.6,8.8,1.8c2.5,1.2,4.4,3,5.8,5.5s2.1,5.8,2.1,9.8v30.4h-12.7V46.4c0-3.3-0.6-5.8-1.8-7.5c-1.2-1.7-3.1-2.5-5.7-2.5
		s-4.6,0.6-6,1.8c-1.5,1.2-2.5,2.9-3.1,5.2c-0.6,2.3-0.9,5.1-0.9,8.4v21.9H279V8.8H291.5z"/>
	<path d="M354.1,26.1c4.3,0,8,0.8,11.1,2.5s5.5,4,7.2,7.2c1.7,3.1,2.5,7,2.5,11.5v6.2h-30c0.1,3.6,1.2,6.4,3.2,8.4s4.8,3.1,8.4,3.1
		c3,0,5.7-0.3,8.2-0.9s5-1.5,7.6-2.7v9.8c-2.3,1.1-4.7,2-7.2,2.5s-5.6,0.8-9.1,0.8c-4.7,0-8.8-0.9-12.4-2.6s-6.4-4.3-8.5-7.9
		c-2-3.5-3.1-8-3.1-13.3c0-5.4,0.9-10,2.8-13.6c1.8-3.6,4.4-6.3,7.7-8.2C345.9,27.1,349.7,26.1,354.1,26.1z M354.2,35.2
		c-2.5,0-4.5,0.8-6.1,2.4s-2.6,4.1-2.8,7.5h17.8c0-1.9-0.4-3.6-1-5c-0.7-1.5-1.6-2.6-2.9-3.5C357.8,35.6,356.2,35.2,354.2,35.2z"/>
	<path d="M411.3,26.1c0.6,0,1.4,0,2.2,0.1c0.8,0.1,1.5,0.2,2.1,0.3l-1,11.9c-0.4-0.1-1-0.2-1.8-0.3c-0.8-0.1-1.4-0.1-2-0.1
		c-1.6,0-3.2,0.2-4.8,0.6s-2.9,1.1-4.1,2s-2.2,2.2-2.9,3.7c-0.7,1.5-1.1,3.4-1.1,5.6v23.7h-12.7V27h9.6l1.9,7.8h0.6
		c0.9-1.6,2.1-3,3.4-4.4c1.4-1.3,2.9-2.4,4.7-3.2C407.3,26.5,409.3,26.1,411.3,26.1z"/>
	<path d="M443.3,26.1c4.3,0,8,0.8,11.1,2.5s5.5,4,7.2,7.2c1.7,3.1,2.5,7,2.5,11.5v6.2h-30c0.1,3.6,1.2,6.4,3.2,8.4s4.8,3.1,8.4,3.1
		c3,0,5.7-0.3,8.2-0.9s5-1.5,7.6-2.7v9.8c-2.3,1.1-4.7,2-7.2,2.5s-5.6,0.8-9.1,0.8c-4.7,0-8.8-0.9-12.4-2.6s-6.4-4.3-8.5-7.9
		c-2-3.5-3.1-8-3.1-13.3c0-5.4,0.9-10,2.8-13.6c1.8-3.6,4.4-6.3,7.7-8.2C435,27.1,438.9,26.1,443.3,26.1z M443.3,35.2
		c-2.5,0-4.5,0.8-6.1,2.4s-2.6,4.1-2.8,7.5h17.8c0-1.9-0.4-3.6-1-5c-0.7-1.5-1.6-2.6-2.9-3.5C447,35.6,445.3,35.2,443.3,35.2z"/>
	<path d="M521.1,73.6h-12.9V23.4h-16.5V12.7h46v10.7h-16.5L521.1,73.6L521.1,73.6z"/>
	<path d="M565.2,26.1c4.3,0,8,0.8,11.1,2.5s5.5,4,7.2,7.2c1.7,3.1,2.5,7,2.5,11.5v6.2h-30c0.1,3.6,1.2,6.4,3.2,8.4s4.8,3.1,8.4,3.1
		c3,0,5.7-0.3,8.2-0.9s5-1.5,7.6-2.7v9.8c-2.3,1.1-4.7,2-7.2,2.5s-5.6,0.8-9.1,0.8c-4.7,0-8.8-0.9-12.4-2.6
		c-3.6-1.7-6.4-4.3-8.5-7.9c-2-3.5-3.1-8-3.1-13.3c0-5.4,0.9-10,2.8-13.6c1.8-3.6,4.4-6.3,7.7-8.2C557,27.1,560.8,26.1,565.2,26.1z
		 M565.3,35.2c-2.5,0-4.5,0.8-6.1,2.4s-2.6,4.1-2.8,7.5h17.8c0-1.9-0.4-3.6-1-5c-0.7-1.5-1.6-2.6-2.9-3.5
		C569,35.6,567.3,35.2,565.3,35.2z"/>
	<path d="M615.3,74.4c-4.6,0-8.5-0.8-11.8-2.5c-3.2-1.7-5.7-4.3-7.4-7.8s-2.5-8-2.5-13.5c0-5.7,1-10.3,2.9-13.9s4.6-6.2,8-7.9
		c3.4-1.7,7.4-2.5,11.9-2.5c3.2,0,6,0.3,8.4,0.9c2.3,0.6,4.4,1.4,6.1,2.2l-3.7,9.8c-2-0.8-3.9-1.5-5.6-2c-1.7-0.5-3.4-0.8-5.2-0.8
		c-2.2,0-4.1,0.5-5.5,1.6c-1.5,1-2.6,2.6-3.3,4.7s-1.1,4.7-1.1,7.8c0,3.1,0.4,5.6,1.2,7.7c0.8,2,1.9,3.5,3.4,4.5s3.3,1.5,5.4,1.5
		c2.6,0,5-0.4,7-1.1c2.1-0.7,4.1-1.7,6-3V71c-1.9,1.2-4,2.1-6.1,2.6S618.6,74.4,615.3,74.4z"/>
	<path d="M653,8.8V22c0,2.3-0.1,4.5-0.2,6.6c-0.2,2.1-0.3,3.6-0.4,4.4h0.7c1-1.6,2.2-2.9,3.6-3.9c1.4-1,2.9-1.7,4.6-2.2
		c1.7-0.5,3.5-0.7,5.4-0.7c3.4,0,6.3,0.6,8.8,1.8c2.5,1.2,4.4,3,5.8,5.5c1.4,2.5,2.1,5.8,2.1,9.8v30.4h-12.7V46.4
		c0-3.3-0.6-5.8-1.8-7.5s-3.1-2.5-5.7-2.5c-2.6,0-4.6,0.6-6,1.8c-1.5,1.2-2.5,2.9-3.1,5.2c-0.6,2.3-0.9,5.1-0.9,8.4v21.9h-12.7V8.8
		H653z"/>
	<path d="M722.8,26.1c5,0,9,1.4,12,4.1s4.5,7,4.5,13v30.4h-12.7V46.4c0-3.3-0.6-5.8-1.8-7.5s-3.1-2.5-5.7-2.5c-3.9,0-6.5,1.3-8,4
		c-1.4,2.6-2.1,6.4-2.1,11.4v21.9h-12.7V27h9.7l1.7,6h0.7c1-1.6,2.2-2.9,3.7-3.9s3.1-1.7,5-2.2C719,26.4,720.9,26.1,722.8,26.1z"/>
	<path d="M794.8,50.2c0,3.9-0.5,7.3-1.6,10.3c-1,3-2.6,5.5-4.5,7.6c-2,2.1-4.4,3.6-7.2,4.7s-5.9,1.6-9.4,1.6c-3.3,0-6.3-0.5-9-1.6
		s-5.1-2.6-7.1-4.7s-3.6-4.6-4.7-7.6c-1.1-3-1.6-6.4-1.6-10.3c0-5.2,0.9-9.5,2.7-13.1s4.4-6.3,7.8-8.2c3.4-1.9,7.4-2.8,12.1-2.8
		c4.4,0,8.2,0.9,11.6,2.8c3.4,1.9,6,4.6,8,8.2C793.8,40.7,794.8,45.1,794.8,50.2z M762.6,50.2c0,3.1,0.3,5.6,1,7.7s1.7,3.7,3.1,4.7
		c1.4,1.1,3.3,1.6,5.5,1.6s4.1-0.5,5.5-1.6s2.4-2.6,3.1-4.7c0.7-2.1,1-4.7,1-7.7c0-3.1-0.3-5.6-1-7.7c-0.7-2-1.7-3.6-3.1-4.6
		c-1.4-1-3.3-1.5-5.5-1.5c-3.4,0-5.8,1.2-7.3,3.5C763.3,42.2,762.6,45.6,762.6,50.2z"/>
	<path d="M818,73.6h-12.7V8.8H818V73.6z"/>
	<path d="M873.6,50.2c0,3.9-0.5,7.3-1.6,10.3c-1,3-2.6,5.5-4.5,7.6c-2,2.1-4.4,3.6-7.2,4.7s-5.9,1.6-9.4,1.6c-3.3,0-6.3-0.5-9-1.6
		s-5.1-2.6-7.1-4.7s-3.6-4.6-4.7-7.6c-1.1-3-1.6-6.4-1.6-10.3c0-5.2,0.9-9.5,2.7-13.1s4.4-6.3,7.8-8.2c3.4-1.9,7.4-2.8,12.1-2.8
		c4.4,0,8.2,0.9,11.6,2.8c3.4,1.9,6,4.6,8,8.2C872.7,40.7,873.6,45.1,873.6,50.2z M841.4,50.2c0,3.1,0.3,5.6,1,7.7s1.7,3.7,3.1,4.7
		c1.4,1.1,3.3,1.6,5.5,1.6s4.1-0.5,5.5-1.6s2.4-2.6,3.1-4.7c0.7-2.1,1-4.7,1-7.7c0-3.1-0.3-5.6-1-7.7c-0.7-2-1.7-3.6-3.1-4.6
		c-1.4-1-3.3-1.5-5.5-1.5c-3.4,0-5.8,1.2-7.3,3.5C842.2,42.2,841.4,45.6,841.4,50.2z"/>
	<path d="M897.7,94.1c-6.5,0-11.5-1.1-14.9-3.4c-3.4-2.3-5.1-5.4-5.1-9.5c0-2.8,0.9-5.2,2.6-7c1.7-1.9,4.3-3.2,7.7-4
		c-1.3-0.6-2.4-1.5-3.4-2.7c-1-1.3-1.5-2.6-1.5-4c0-1.8,0.5-3.3,1.5-4.4c1-1.2,2.5-2.3,4.5-3.5c-2.4-1.1-4.4-2.7-5.8-5.1
		c-1.4-2.3-2.1-5.1-2.1-8.2c0-3.4,0.7-6.3,2.2-8.6c1.5-2.4,3.7-4.2,6.5-5.4c2.8-1.2,6.3-1.9,10.4-1.9c0.9,0,1.9,0.1,3,0.2
		s2.2,0.2,3.1,0.4c1,0.1,1.6,0.2,1.9,0.3h16.2v6.5l-7.3,1.9c0.7,1,1.2,2.1,1.5,3.3c0.3,1.2,0.5,2.4,0.5,3.7c0,5-1.7,8.9-5.2,11.7
		c-3.5,2.8-8.3,4.2-14.5,4.2c-1.5-0.1-2.9-0.2-4.2-0.3c-0.6,0.5-1.1,1-1.5,1.6c-0.3,0.6-0.5,1.1-0.5,1.7s0.3,1.1,0.8,1.5
		s1.3,0.7,2.3,0.9c1,0.2,2.3,0.3,3.9,0.3h7.9c5.1,0,9,1.1,11.7,3.3c2.7,2.2,4,5.4,4,9.7c0,5.4-2.3,9.7-6.8,12.7
		S906.2,94.1,897.7,94.1z M898.3,85.8c3,0,5.6-0.3,7.8-0.9c2.2-0.6,3.9-1.4,5-2.4c1.2-1,1.7-2.3,1.7-3.7c0-1.2-0.3-2.1-1-2.8
		c-0.7-0.7-1.7-1.2-3.1-1.4c-1.4-0.3-3.1-0.4-5.3-0.4h-6.6c-1.6,0-3,0.2-4.2,0.7s-2.2,1.2-2.9,2.1s-1.1,2-1.1,3.1
		c0,1.7,0.8,3.1,2.5,4.1C892.9,85.3,895.3,85.8,898.3,85.8z M900.3,50.5c2.4,0,4.1-0.7,5.2-2.2c1.1-1.5,1.7-3.5,1.7-6
		c0-2.8-0.6-4.9-1.7-6.3c-1.2-1.4-2.9-2.1-5.2-2.1s-4.1,0.7-5.2,2.1c-1.2,1.4-1.7,3.5-1.7,6.3c0,2.5,0.6,4.5,1.7,6
		C896.2,49.7,898,50.5,900.3,50.5z"/>
	<path d="M938.7,8.8c1.9,0,3.5,0.4,4.9,1.3c1.4,0.9,2,2.5,2,4.9s-0.7,4-2,4.9c-1.4,0.9-3,1.4-4.9,1.4s-3.5-0.5-4.9-1.4
		c-1.3-0.9-2-2.5-2-4.9s0.7-4,2-4.9C935.1,9.2,936.8,8.8,938.7,8.8z M945,27v46.6h-12.7V27H945z"/>
	<path d="M977.6,26.1c4.3,0,8,0.8,11.1,2.5s5.5,4,7.2,7.2c1.7,3.1,2.5,7,2.5,11.5v6.2h-30c0.1,3.6,1.2,6.4,3.2,8.4s4.8,3.1,8.4,3.1
		c3,0,5.7-0.3,8.2-0.9s5-1.5,7.6-2.7v9.8c-2.3,1.1-4.7,2-7.2,2.5s-5.6,0.8-9.1,0.8c-4.7,0-8.8-0.9-12.4-2.6s-6.4-4.3-8.5-7.9
		c-2-3.5-3.1-8-3.1-13.3c0-5.4,0.9-10,2.8-13.6c1.8-3.6,4.4-6.3,7.7-8.2C969.3,27.1,973.2,26.1,977.6,26.1z M977.6,35.2
		c-2.5,0-4.5,0.8-6.1,2.4s-2.6,4.1-2.8,7.5h17.8c0-1.9-0.4-3.6-1-5c-0.7-1.5-1.6-2.6-2.9-3.5C981.3,35.6,979.6,35.2,977.6,35.2z"/>
	<path d="M1041.3,59.8c0,3.2-0.7,5.8-2.2,8s-3.7,3.8-6.6,5c-2.9,1.1-6.6,1.7-11,1.7c-3.2,0-6-0.2-8.4-0.6c-2.3-0.4-4.7-1.1-7-2.1
		V61.3c2.5,1.1,5.2,2.1,8.1,2.8c2.9,0.7,5.4,1.1,7.6,1.1c2.5,0,4.2-0.4,5.3-1.1c1.1-0.7,1.6-1.7,1.6-2.9c0-0.8-0.2-1.5-0.6-2.1
		s-1.4-1.3-2.8-2.1c-1.4-0.8-3.6-1.8-6.7-3.1c-2.9-1.2-5.3-2.5-7.2-3.7c-1.9-1.2-3.3-2.7-4.2-4.4c-0.9-1.7-1.4-3.9-1.4-6.5
		c0-4.3,1.7-7.5,5-9.7s7.8-3.3,13.4-3.3c2.9,0,5.6,0.3,8.3,0.9c2.6,0.6,5.3,1.5,8.1,2.8l-3.8,9.2c-2.3-1-4.5-1.8-6.5-2.5
		c-2-0.6-4.1-1-6.2-1c-1.9,0-3.3,0.2-4.2,0.7c-0.9,0.5-1.4,1.3-1.4,2.3c0,0.7,0.2,1.4,0.7,2s1.4,1.2,2.8,1.9
		c1.4,0.7,3.5,1.6,6.2,2.7c2.6,1.1,4.9,2.2,6.9,3.4c1.9,1.2,3.4,2.6,4.5,4.4C1040.7,54.8,1041.3,57,1041.3,59.8z"/>
</g>
</svg>
