<svg height="109.615254" viewBox="0 0 68.22253 8.2778733" width="912.28179" xmlns="http://www.w3.org/2000/svg" xmlns:xlink="http://www.w3.org/1999/xlink"><symbol id="a" overflow="visible"/><g fill="#028fb3" transform="translate(-159.31669 -134.58867)"><use height="100%" transform="matrix(.35277778 0 0 .35277778 -34.049632 40.70568)" width="100%" x="665.52881" xlink:href="#a" y="326.10791"/><path d="m159.44898 137.99931c0-2.02296 1.56545-3.27835 3.28111-3.27835 1.91823 0 3.28938 1.48966 3.28938 3.21221 0 1.72254-1.36288 3.2122-3.29765 3.2122-1.96095 0-3.27284-1.54753-3.27284-3.13641zm1.59026-.0744c0 .94533.64767 1.83141 1.71565 1.83141 1.12724 0 1.67432-1.01975 1.67432-1.81488 0-.80339-.54708-1.83141-1.69085-1.83141-1.10243 0-1.69912.93707-1.69912 1.80661zm0 0"/><path d="m166.81873 136.38563h1.30362v.49334s.0841-.16675.28664-.3266c.20119-.16674.52916-.32522 1.01837-.32522.3197 0 .72209.0827 1.06797.44236.1006.10059.19293.22599.27699.38585.0923-.14332.20257-.28526.33624-.40239.27836-.25081.65732-.42582 1.14515-.42582.32797 0 .84887.0744 1.22783.46854.43822.45888.50436.76894.50436 1.79834v2.53421h-1.39595v-2.46807c0-.19155 0-.44373-.0923-.65181-.0841-.21773-.26182-.3762-.62287-.3762-.38723 0-.58016.17501-.67248.38447-.10198.20946-.10198.44373-.10198.5774v2.53421h-1.39595v-2.52594c0-.12541 0-.36794-.0841-.5774-.0923-.21773-.26045-.39274-.61461-.39274-.39549 0-.58842.18327-.68901.40927-.10198.226-.10198.47681-.10198.61874v2.46807h-1.39595zm0 0"/><path d="m174.9712 136.38563h1.30363v.49334c.15985-.226.45475-.65182 1.28708-.65182 1.57235 0 1.7322 1.27055 1.7322 1.89894v2.90215h-1.39596v-2.53421c0-.51126-.10886-.96187-.73173-.96187-.6904 0-.79927.49333-.79927.97014v2.52594h-1.39595zm0 0"/><path d="m180.28767 134.83809h1.39596v1.0542h-1.39596zm0 1.54754h1.39596v4.64261h-1.39596zm0 0"/><path d="m187.41351 139.26297c-.25218 1.0542-1.18649 1.91548-2.44878 1.91548-1.41248 0-2.49838-1.10381-2.49838-2.48461 0-1.36288 1.06798-2.46669 2.46531-2.46669 1.2361 0 2.23794.81029 2.47358 1.94855h-1.41387c-.15158-.31833-.42856-.65181-1.0101-.65181-.32797-.0165-.60496.10749-.80753.32522-.19292.21772-.30179.51951-.30179.853 0 .678.44511 1.1796 1.10932 1.1796.58154 0 .85852-.33486 1.0101-.61874zm0 0"/><path d="m187.96059 138.69384c0-1.12861.8158-2.45842 2.51492-2.45842s2.51492 1.32981 2.51492 2.46669c0 1.13826-.8158 2.46807-2.51492 2.46807s-2.51492-1.32981-2.51492-2.46807zm1.39595.0165c0 .66973.51263 1.16306 1.11897 1.16306s1.11897-.49333 1.11897-1.17133c0-.67661-.51263-1.16995-1.11897-1.16995s-1.11897.49334-1.11897 1.16995zm0 0"/><path d="m193.78142 136.38563h1.30363v.49334s.0841-.16675.28663-.3266c.20119-.16674.52917-.32522 1.01837-.32522.3197 0 .72347.0827 1.06798.44236.1006.10059.19292.22599.27698.38585.0923-.14332.20258-.28526.33762-.40239.27699-.25081.65595-.42582 1.14378-.42582.32797 0 .85025.0744 1.22783.46854.43822.45888.50574.76894.50574 1.79834v2.53421h-1.39733v-2.46807c0-.19155 0-.44373-.0923-.65181-.0841-.21773-.26045-.3762-.62288-.3762-.38722 0-.58015.17501-.67248.38447-.10197.20946-.10197.44373-.10197.5774v2.53421h-1.39595v-2.52594c0-.12541 0-.36794-.0841-.5774-.0923-.21773-.26045-.39274-.61461-.39274-.3955 0-.58842.18327-.68902.40927-.10197.226-.10197.47681-.10197.61874v2.46807h-1.39596zm0 0"/><path d="m207.14977 136.44488c-.1943-.26871-.42995-.49471-.69866-.66972-.40377-.27699-.89159-.43546-1.44694-.43546-1.36288 0-2.54937 1.03766-2.54937 2.5852 0 1.57234 1.19476 2.61 2.55764 2.61.65594 0 1.23747-.226 1.66604-.56086.43684-.34313.74001-.81167.84061-1.29674h-3.09508v-.56912h3.90399c-.01.35966-.0937.81166-.27837 1.19613-.53881 1.16307-1.78318 1.84106-3.03719 1.84106-1.81626 0-3.25493-1.38906-3.25493-3.22047 0-1.8576 1.46347-3.19567 3.26319-3.19567 1.26229 0 2.43224.70279 2.92007 1.71565zm0 0"/><path d="m209.20994 136.52757h.5898v.73587c.32797-.66835.9164-.84474 1.44694-.86128v.61047h-.0592c-.87506 0-1.36289.54433-1.36289 1.56408v2.45153h-.6146zm0 0"/><path d="m211.49059 138.76963c0-1.25539.94258-2.36747 2.39779-2.36747 1.46347 0 2.40605 1.11208 2.40605 2.37574s-.94258 2.36747-2.40605 2.36747c-1.45521 0-2.39779-1.10381-2.39779-2.36747zm.61461.0165c0 1.02112.78134 1.79007 1.78318 1.79007 1.00872 0 1.78318-.76895 1.78318-1.79834 0-1.0294-.77446-1.79834-1.78318-1.79834-1.00184 0-1.78318.76894-1.78318 1.79834zm0 0"/><path d="m221.3918 141.02824h-.58842v-.8034c-.25219.58567-.86679.93707-1.67432.9288-1.41249-.0248-1.90996-.97841-1.90996-2.07533v-2.55074h.6146v2.43499c0 .97014.43684 1.62195 1.45521 1.61368.94258-.008 1.48139-.56913 1.48139-1.50482v-2.54385h.6215zm0 0"/><path d="m222.60309 136.52757h.5898v.93706c.36932-.65319 1.02664-1.06247 1.89205-1.06247 1.52273 0 2.32199 1.22922 2.32199 2.39228 0 1.25539-.91639 2.3592-2.32199 2.3592-1.00046 0-1.64813-.5774-1.85897-1.04593v2.62654h-.62288zm4.18235 2.24206c0-.84473-.59807-1.79833-1.81763-1.79833-.50436 0-.95085.20119-1.27882.5264-.31144.3266-.50436.7786-.50436 1.28847 0 .50161.19292.9536.52089 1.2802.31971.31695.77446.50987 1.27882.50987 1.01837 0 1.8011-.76894 1.8011-1.79834zm0 0"/></g></svg>