<svg width="1549" height="228" viewBox="0 0 1549 228" fill="none" xmlns="http://www.w3.org/2000/svg">
<path fill-rule="evenodd" clip-rule="evenodd" d="M199.009 170.872C188.178 189.955 172.515 205.85 153.594 216.961L135.752 186.578C162.669 170.776 180.646 141.437 180.4 107.983C180.155 74.7159 161.952 45.7833 135.055 30.3139L151.999 0.46023C171.082 11.291 186.978 26.9541 198.088 45.8752C209.199 64.7963 215.133 86.3087 215.295 108.25C215.456 130.192 209.84 151.789 199.009 170.872Z" fill="#1D1CBB"/>
<path fill-rule="evenodd" clip-rule="evenodd" d="M117.251 59.5348L134.607 29.7678C121.518 22.3839 106.402 18.1708 90.3025 18.1708C40.4298 18.1708 0 58.6006 0 108.473C0 158.346 40.4298 198.776 90.3025 198.776C106.762 198.776 122.192 194.372 135.481 186.679L117.862 156.461C118.235 156.249 118.606 156.031 118.974 155.809L90.2964 108.17L118.099 60.0147C117.817 59.8522 117.535 59.6922 117.251 59.5348ZM117.251 59.5348C108.969 54.9452 99.6481 52.5436 90.1694 52.5652C80.3656 52.5876 70.7421 55.2016 62.2742 60.1422C53.8064 65.0829 46.7953 72.1745 41.9517 80.6982C37.1081 89.2219 34.6042 98.8747 34.6937 108.678C34.7833 118.481 37.4632 128.087 42.4617 136.521C47.4602 144.954 54.5997 151.917 63.1564 156.702C71.7131 161.487 81.3829 163.925 91.1854 163.768C100.558 163.618 109.733 161.102 117.862 156.461L89.2988 107.474L117.251 59.5348Z" fill="#1D1CBB"/>
<path d="M118.099 60.0147C126.552 64.8951 133.571 71.9145 138.452 80.3676C143.332 88.8206 145.901 98.4093 145.901 108.17C145.901 117.931 143.332 127.52 138.452 135.973C133.571 144.426 126.552 151.445 118.099 156.325L90.2964 108.17L118.099 60.0147Z" fill="#1D1CBB"/>
<path d="M348.593 192.123C336.818 192.123 326.16 190.036 316.621 185.862C307.082 181.689 298.958 175.95 292.251 168.647C285.543 161.194 280.401 152.4 276.824 142.264C273.246 131.979 271.458 120.875 271.458 108.951C271.458 97.0264 273.246 85.9964 276.824 75.8608C280.401 65.5761 285.543 56.7074 292.251 49.2547C298.958 41.802 307.082 35.9889 316.621 31.8154C326.16 27.6419 336.818 25.5552 348.593 25.5552C360.368 25.5552 370.951 27.6419 380.341 31.8154C389.881 35.9889 398.004 41.802 404.712 49.2547C411.419 56.7074 416.561 65.5761 420.139 75.8608C423.716 85.9964 425.505 97.0264 425.505 108.951C425.505 120.875 423.716 131.979 420.139 142.264C416.561 152.4 411.419 161.194 404.712 168.647C398.004 175.95 389.881 181.689 380.341 185.862C370.951 190.036 360.368 192.123 348.593 192.123ZM348.817 165.517C356.12 165.517 362.455 164.1 367.821 161.268C373.336 158.287 377.882 154.263 381.459 149.195C385.186 144.127 387.943 138.165 389.732 131.309C391.52 124.303 392.415 116.851 392.415 108.951C392.415 100.902 391.52 93.4491 389.732 86.5926C387.943 79.7362 385.186 73.774 381.459 68.7062C377.882 63.4893 373.336 59.4649 367.821 56.6328C362.455 53.6518 356.12 52.1612 348.817 52.1612C341.513 52.1612 335.104 53.6518 329.589 56.6328C324.074 59.4649 319.453 63.4893 315.727 68.7062C312 73.774 309.168 79.7362 307.231 86.5926C305.442 93.4491 304.548 100.902 304.548 108.951C304.548 116.851 305.442 124.303 307.231 131.309C309.168 138.165 312 144.127 315.727 149.195C319.453 154.263 324.074 158.287 329.589 161.268C335.104 164.1 341.513 165.517 348.817 165.517ZM445.248 73.8485H474.537V88.1577H475.208C478.934 83.0899 483.48 78.9164 488.846 75.6372C494.361 72.358 501.068 70.7184 508.968 70.7184C516.57 70.7184 523.426 72.209 529.538 75.19C535.649 78.1711 540.866 82.3446 545.188 87.7105C549.66 92.9274 553.014 99.2622 555.249 106.715C557.634 114.168 558.827 122.365 558.827 131.309C558.827 140.55 557.634 148.972 555.249 156.573C552.865 164.026 549.436 170.361 544.965 175.578C540.642 180.795 535.425 184.819 529.314 187.651C523.203 190.483 516.495 191.899 509.192 191.899C501.143 191.899 494.436 190.408 489.07 187.427C483.704 184.446 479.381 180.496 476.102 175.578H475.655V226.107H445.248V73.8485ZM502.708 166.634C510.459 166.634 516.57 163.653 521.042 157.691C525.662 151.58 527.973 143.084 527.973 132.203C527.973 121.322 525.886 112.453 521.712 105.597C517.688 98.7405 510.98 95.3123 501.59 95.3123C496.82 95.3123 492.721 96.2811 489.293 98.2188C486.014 100.156 483.256 102.765 481.021 106.044C478.934 109.323 477.369 113.273 476.325 117.894C475.431 122.365 474.984 127.135 474.984 132.203C474.984 142.637 477.294 150.984 481.915 157.244C486.685 163.504 493.616 166.634 502.708 166.634ZM631.331 191.899C621.792 191.899 613.296 190.334 605.843 187.204C598.54 184.074 592.354 179.826 587.286 174.46C582.218 168.945 578.343 162.461 575.66 155.008C573.126 147.556 571.859 139.581 571.859 131.085C571.859 122.589 573.2 114.689 575.883 107.386C578.715 99.9329 582.591 93.5236 587.51 88.1577C592.577 82.7918 598.54 78.5437 605.396 75.4136C612.402 72.2835 620.078 70.7184 628.425 70.7184C637.666 70.7184 645.79 72.4325 652.795 75.8608C659.801 79.1399 665.688 83.8351 670.458 89.9463C675.228 96.0575 678.805 103.361 681.19 111.857C683.724 120.204 684.991 129.52 684.991 139.805H601.819C603.011 148.748 605.992 155.753 610.762 160.821C615.681 165.889 622.463 168.423 631.108 168.423C637.07 168.423 641.84 167.156 645.417 164.622C648.994 162.088 651.603 158.66 653.242 154.337H683.202C682.159 159.405 680.221 164.25 677.389 168.87C674.706 173.342 671.129 177.292 666.657 180.72C662.335 184.148 657.192 186.831 651.23 188.769C645.268 190.856 638.635 191.899 631.331 191.899ZM628.872 94.1944C620.823 94.1944 614.712 96.4302 610.538 100.902C606.365 105.224 603.607 111.186 602.266 118.788H653.242C652.795 111.485 650.336 105.597 645.864 101.125C641.542 96.5047 635.877 94.1944 628.872 94.1944ZM733.272 89.4992H733.943C737.818 83.2389 742.439 78.5437 747.804 75.4136C753.319 72.2835 760.027 70.7184 767.927 70.7184C773.889 70.7184 779.255 71.8363 784.025 74.0721C788.943 76.1589 793.117 79.1399 796.545 83.0153C799.973 86.7417 802.656 91.2133 804.594 96.4302C806.532 101.647 807.5 107.386 807.5 113.646V188.545H777.094V118.117C777.094 111.857 775.379 106.789 771.951 102.914C768.523 99.0386 763.604 97.1009 757.195 97.1009C750.487 97.1009 744.898 99.5603 740.426 104.479C736.104 109.249 733.943 115.584 733.943 123.483V188.545H703.536V73.8485H733.272V89.4992ZM903.378 192.123C891.603 192.123 880.945 190.036 871.406 185.862C861.867 181.689 853.743 175.95 847.036 168.647C840.328 161.194 835.186 152.4 831.609 142.264C828.031 131.979 826.243 120.875 826.243 108.951C826.243 97.0264 828.031 85.9964 831.609 75.8608C835.186 65.5761 840.328 56.7074 847.036 49.2547C853.743 41.802 861.867 35.9889 871.406 31.8154C880.945 27.6419 891.603 25.5552 903.378 25.5552C915.153 25.5552 925.736 27.6419 935.126 31.8154C944.666 35.9889 952.789 41.802 959.497 49.2547C966.204 56.7074 971.347 65.5761 974.924 75.8608C978.501 85.9964 980.29 97.0264 980.29 108.951C980.29 120.875 978.501 131.979 974.924 142.264C971.347 152.4 966.204 161.194 959.497 168.647C952.789 175.95 944.666 181.689 935.126 185.862C925.736 190.036 915.153 192.123 903.378 192.123ZM903.602 165.517C910.905 165.517 917.24 164.1 922.606 161.268C928.121 158.287 932.667 154.263 936.244 149.195C939.971 144.127 942.728 138.165 944.517 131.309C946.305 124.303 947.2 116.851 947.2 108.951C947.2 100.902 946.305 93.4491 944.517 86.5926C942.728 79.7362 939.971 73.774 936.244 68.7062C932.667 63.4893 928.121 59.4649 922.606 56.6328C917.24 53.6518 910.905 52.1612 903.602 52.1612C896.298 52.1612 889.889 53.6518 884.374 56.6328C878.859 59.4649 874.238 63.4893 870.512 68.7062C866.785 73.774 863.953 79.7362 862.016 86.5926C860.227 93.4491 859.333 100.902 859.333 108.951C859.333 116.851 860.227 124.303 862.016 131.309C863.953 138.165 866.785 144.127 870.512 149.195C874.238 154.263 878.859 158.287 884.374 161.268C889.889 164.1 896.298 165.517 903.602 165.517ZM1029.32 92.1821H1029.99C1033.42 85.6238 1037.3 80.705 1041.62 77.4258C1045.94 74.1466 1051.46 72.507 1058.16 72.507C1061.29 72.507 1063.68 72.8052 1065.32 73.4014V100.007H1064.65C1054.66 98.9641 1046.46 101.125 1040.05 106.491C1033.64 111.857 1030.44 120.577 1030.44 132.65V188.545H1000.03V73.8485H1029.32V92.1821ZM1082.89 73.8485H1113.3V188.545H1082.89V73.8485ZM1082.89 28.6853H1113.3V55.9621H1082.89V28.6853ZM1187.89 227.672C1172.09 227.672 1159.57 224.467 1150.33 218.058C1141.24 211.798 1135.87 203.078 1134.23 191.899H1164.41C1165.61 195.476 1167.92 198.457 1171.34 200.842C1174.92 203.376 1180.29 204.643 1187.44 204.643C1204.43 204.643 1212.93 196.669 1212.93 180.72V168.199H1212.26C1208.83 172.075 1204.81 175.28 1200.19 177.813C1195.57 180.347 1189.6 181.614 1182.3 181.614C1175.89 181.614 1169.63 180.422 1163.52 178.037C1157.56 175.503 1152.19 171.926 1147.42 167.305C1142.8 162.535 1139 156.797 1136.02 150.089C1133.19 143.233 1131.77 135.482 1131.77 126.837C1131.77 118.341 1132.96 110.665 1135.35 103.808C1137.88 96.8028 1141.31 90.8406 1145.63 85.9219C1150.1 81.0031 1155.32 77.2768 1161.28 74.7429C1167.39 72.0599 1174.1 70.7184 1181.41 70.7184C1188.56 70.7184 1194.75 72.0599 1199.96 74.7429C1205.33 77.4258 1209.73 81.1522 1213.15 85.9219H1213.6V73.8485H1242.89V179.826C1242.89 187.875 1241.7 194.731 1239.31 200.395C1236.93 206.059 1233.57 210.829 1229.25 214.704C1224.48 219.176 1218.52 222.455 1211.37 224.542C1204.21 226.628 1196.39 227.672 1187.89 227.672ZM1187.44 157.244C1192.21 157.244 1196.31 156.424 1199.74 154.785C1203.17 153.145 1205.92 150.909 1208.01 148.077C1210.25 145.245 1211.89 141.966 1212.93 138.24C1213.97 134.513 1214.5 130.489 1214.5 126.166C1214.5 121.993 1213.9 118.043 1212.71 114.317C1211.66 110.441 1210.02 107.087 1207.79 104.255C1205.55 101.423 1202.72 99.1877 1199.29 97.5481C1195.86 95.9085 1191.84 95.0887 1187.22 95.0887C1179.47 95.0887 1173.21 97.9207 1168.44 103.585C1163.82 109.1 1161.51 116.701 1161.51 126.39C1161.51 136.227 1163.82 143.829 1168.44 149.195C1173.21 154.561 1179.54 157.244 1187.44 157.244ZM1266.94 73.8485H1297.35V188.545H1266.94V73.8485ZM1266.94 28.6853H1297.35V55.9621H1266.94V28.6853ZM1351.15 89.4992H1351.82C1355.69 83.2389 1360.32 78.5437 1365.68 75.4136C1371.2 72.2835 1377.9 70.7184 1385.8 70.7184C1391.77 70.7184 1397.13 71.8363 1401.9 74.0721C1406.82 76.1589 1410.99 79.1399 1414.42 83.0153C1417.85 86.7417 1420.53 91.2133 1422.47 96.4302C1424.41 101.647 1425.38 107.386 1425.38 113.646V188.545H1394.97V118.117C1394.97 111.857 1393.26 106.789 1389.83 102.914C1386.4 99.0386 1381.48 97.1009 1375.07 97.1009C1368.36 97.1009 1362.77 99.5603 1358.3 104.479C1353.98 109.249 1351.82 115.584 1351.82 123.483V188.545H1321.41V73.8485H1351.15V89.4992ZM1495.1 191.899C1478.4 191.899 1465.51 188.247 1456.42 180.944C1447.32 173.491 1442.33 163.653 1441.44 151.431H1469.61C1470.65 158.138 1473.33 162.983 1477.66 165.964C1482.13 168.945 1487.79 170.435 1494.65 170.435C1501.36 170.435 1506.5 169.243 1510.08 166.858C1513.8 164.473 1515.67 161.268 1515.67 157.244C1515.67 154.561 1514.77 152.4 1512.98 150.76C1511.34 149.121 1509.11 147.779 1506.27 146.736C1503.59 145.692 1500.39 144.873 1496.66 144.276C1493.08 143.531 1489.36 142.786 1485.48 142.041C1480.26 140.997 1475.2 139.805 1470.28 138.463C1465.51 137.122 1461.19 135.184 1457.31 132.65C1453.58 130.116 1450.53 126.837 1448.14 122.813C1445.91 118.788 1444.79 113.646 1444.79 107.386C1444.79 101.125 1445.98 95.7594 1448.37 91.2878C1450.75 86.6671 1454.03 82.8663 1458.21 79.8852C1462.53 76.7551 1467.52 74.4448 1473.18 72.9542C1478.85 71.4637 1484.96 70.7184 1491.52 70.7184C1506.72 70.7184 1518.42 74.1466 1526.62 81.0031C1534.82 87.8596 1539.51 97.1009 1540.71 108.727H1513.21C1512.46 102.467 1510.22 98.1443 1506.5 95.7594C1502.77 93.2255 1497.63 91.9586 1491.07 91.9586C1485.11 91.9586 1480.34 93.0765 1476.76 95.3123C1473.18 97.399 1471.4 100.529 1471.4 104.703C1471.4 107.237 1472.29 109.249 1474.08 110.739C1475.87 112.081 1478.18 113.273 1481.01 114.317C1483.99 115.211 1487.35 115.956 1491.07 116.552C1494.95 117.149 1498.9 117.894 1502.92 118.788C1507.69 119.832 1512.46 121.024 1517.23 122.365C1522.15 123.707 1526.55 125.719 1530.42 128.402C1534.3 130.936 1537.43 134.364 1539.81 138.687C1542.2 142.86 1543.39 148.301 1543.39 155.008C1543.39 160.821 1542.2 166.038 1539.81 170.659C1537.43 175.13 1534.07 178.931 1529.75 182.061C1525.58 185.192 1520.51 187.576 1514.55 189.216C1508.73 191.005 1502.25 191.899 1495.1 191.899Z" fill="#1D1CBB"/>
</svg>
