<svg width="254" height="106" viewBox="0 0 254 106" fill="none" xmlns="http://www.w3.org/2000/svg">
<path fill-rule="evenodd" clip-rule="evenodd" d="M52 42.9474C46.4485 42.9474 41.9474 47.4478 41.9474 53C41.9474 58.5514 46.4485 63.0518 52 63.0518C55.0857 63.0518 57.8461 61.6609 59.69 59.4724L67.3005 65.8781C63.6317 70.2325 58.1394 72.9999 52 72.9999C40.9539 72.9999 32 64.0453 32 53C32 41.9539 40.9539 33 52 33V42.9474ZM69.2814 63.071L60.6855 58.0617C60.9789 57.5595 61.2301 57.0297 61.4338 56.477L70.7704 59.9181C70.3649 61.018 69.8649 62.0719 69.2814 63.071ZM62.0519 52.9999H72C72 51.8152 71.8963 50.6547 71.6987 49.5265L61.9005 51.2542C61.9998 51.8213 62.0519 52.4045 62.0519 52.9999ZM67.3738 40.208L59.727 46.5706C59.3526 46.1209 58.9394 45.7048 58.4931 45.3266L64.9184 37.7332C65.8067 38.4856 66.6286 39.3135 67.3738 40.208Z" fill="#6344DF"/>
<path d="M88.61 62.36C93.41 62.36 96.29 58.88 96.29 54.74C96.29 50.63 93.41 47.15 88.61 47.15C83.84 47.15 80.96 50.63 80.96 54.74C80.96 58.88 83.84 62.36 88.61 62.36ZM88.61 58.97C86.24 58.97 84.92 57.02 84.92 54.74C84.92 52.49 86.24 50.54 88.61 50.54C90.98 50.54 92.33 52.49 92.33 54.74C92.33 57.02 90.98 58.97 88.61 58.97ZM99.1166 62H102.927V52.43C103.557 51.5 105.237 50.81 106.497 50.81C106.917 50.81 107.277 50.84 107.547 50.9V47.18C105.747 47.18 103.947 48.2 102.927 49.49V47.51H99.1166V62ZM111.817 45.38C113.077 45.38 114.097 44.36 114.097 43.1C114.097 41.84 113.077 40.82 111.817 40.82C110.587 40.82 109.537 41.84 109.537 43.1C109.537 44.36 110.587 45.38 111.817 45.38ZM109.927 62H113.737V47.51H109.927V62ZM117.215 65.72C119.015 67.31 120.965 67.88 123.455 67.88C127.025 67.88 131.285 66.53 131.285 61.01V47.51H127.445V49.37C126.275 47.9 124.715 47.15 122.975 47.15C119.315 47.15 116.585 49.79 116.585 54.53C116.585 59.36 119.345 61.91 122.975 61.91C124.745 61.91 126.305 61.07 127.445 59.63V61.1C127.445 63.95 125.285 64.76 123.455 64.76C121.625 64.76 120.095 64.25 118.925 62.96L117.215 65.72ZM127.445 56.87C126.815 57.8 125.435 58.52 124.175 58.52C122.015 58.52 120.515 57.02 120.515 54.53C120.515 52.04 122.015 50.54 124.175 50.54C125.435 50.54 126.815 51.23 127.445 52.19V56.87ZM136.954 45.38C138.214 45.38 139.234 44.36 139.234 43.1C139.234 41.84 138.214 40.82 136.954 40.82C135.724 40.82 134.674 41.84 134.674 43.1C134.674 44.36 135.724 45.38 136.954 45.38ZM135.064 62H138.874V47.51H135.064V62ZM152.432 62H156.242V51.77C156.242 48.95 154.712 47.15 151.532 47.15C149.162 47.15 147.392 48.29 146.462 49.4V47.51H142.652V62H146.462V52.25C147.092 51.38 148.262 50.54 149.762 50.54C151.382 50.54 152.432 51.23 152.432 53.24V62ZM164.885 62.36C166.475 62.36 167.495 61.94 168.065 61.43L167.255 58.55C167.045 58.76 166.505 58.97 165.935 58.97C165.095 58.97 164.615 58.28 164.615 57.38V50.84H167.555V47.51H164.615V43.55H160.775V47.51H158.375V50.84H160.775V58.4C160.775 60.98 162.215 62.36 164.885 62.36ZM170.161 62H173.971V52.43C174.601 51.5 176.281 50.81 177.541 50.81C177.961 50.81 178.321 50.84 178.591 50.9V47.18C176.791 47.18 174.991 48.2 173.971 49.49V47.51H170.161V62ZM190.932 62H194.772V47.51H190.932V49.37C189.792 47.9 188.172 47.15 186.462 47.15C182.772 47.15 180.042 50.03 180.042 54.77C180.042 59.6 182.802 62.36 186.462 62.36C188.202 62.36 189.792 61.58 190.932 60.17V62ZM190.932 57.32C190.272 58.28 188.922 58.97 187.632 58.97C185.472 58.97 183.972 57.26 183.972 54.77C183.972 52.25 185.472 50.57 187.632 50.57C188.922 50.57 190.272 51.26 190.932 52.22V57.32ZM200.44 45.38C201.7 45.38 202.72 44.36 202.72 43.1C202.72 41.84 201.7 40.82 200.44 40.82C199.21 40.82 198.16 41.84 198.16 43.1C198.16 44.36 199.21 45.38 200.44 45.38ZM198.55 62H202.36V47.51H198.55V62ZM210.218 62.36C211.778 62.36 212.798 61.94 213.368 61.43L212.558 58.55C212.378 58.76 211.838 58.97 211.268 58.97C210.428 58.97 209.948 58.28 209.948 57.38V41.99H206.138V58.4C206.138 60.98 207.548 62.36 210.218 62.36Z" fill="#6344DF"/>
</svg>
