<?xml version="1.0" standalone="no"?>
<!DOCTYPE svg PUBLIC "-//W3C//DTD SVG 20010904//EN"
 "http://www.w3.org/TR/2001/REC-SVG-20010904/DTD/svg10.dtd">
<svg version="1.0" xmlns="http://www.w3.org/2000/svg"
 width="3508.000000pt" height="2480.000000pt" viewBox="0 0 3508.000000 2480.000000"
 preserveAspectRatio="xMidYMid meet">

<g transform="translate(0.000000,2480.000000) scale(0.100000,-0.100000)"
fill="#000000" stroke="none">
<path d="M9111 21329 c-630 -31 -1291 -179 -1866 -415 -188 -78 -538 -253
-710 -356 -800 -479 -1449 -1134 -1910 -1927 -101 -174 -267 -517 -340 -701
-189 -477 -312 -988 -365 -1525 -18 -179 -24 -679 -11 -875 75 -1097 442
-2091 1087 -2940 296 -390 667 -758 1066 -1056 721 -539 1600 -902 2503 -1033
308 -45 455 -55 835 -55 393 0 559 11 880 60 1530 234 2880 1083 3720 2341
494 739 792 1567 885 2458 34 326 36 804 5 1122 -157 1597 -973 3001 -2280
3918 -237 166 -566 355 -830 475 -676 309 -1354 473 -2115 510 -232 11 -312
11 -554 -1z m590 -2484 c774 -90 1506 -523 1999 -1180 744 -992 801 -2300 144
-3345 -411 -655 -1069 -1141 -1792 -1325 -834 -211 -1712 -2 -2432 578 -181
146 -432 419 -572 622 -539 778 -678 1733 -383 2620 150 450 399 852 739 1190
469 466 1070 764 1696 840 147 18 449 18 601 0z"/>
<path d="M21548 21230 c-845 -41 -1637 -246 -2378 -617 -597 -298 -1031 -612
-1505 -1087 -232 -233 -361 -380 -532 -609 -582 -779 -958 -1717 -1082 -2697
-46 -361 -44 -262 -48 -2957 -3 -1785 -1 -2554 7 -2582 13 -50 54 -100 97
-117 27 -12 249 -14 1284 -14 1393 0 1291 -5 1347 68 l27 35 6 2541 c5 2325 7
2551 22 2659 82 564 278 1048 601 1485 463 626 1144 1070 1872 1221 232 48
316 54 841 60 486 6 502 7 529 27 15 11 37 33 48 48 21 27 21 33 24 1223 l2
1195 -22 39 c-12 22 -38 50 -58 62 -35 22 -40 22 -480 23 -245 1 -515 -2 -602
-6z"/>
<path d="M27218 21230 c-721 -45 -1459 -301 -1981 -687 -750 -556 -1194 -1293
-1293 -2145 -23 -202 -15 -615 15 -812 76 -491 259 -916 554 -1290 106 -135
405 -430 547 -540 266 -206 567 -383 895 -526 223 -97 214 -94 1725 -592 315
-104 355 -120 442 -179 273 -185 421 -506 378 -819 -23 -172 -80 -289 -200
-410 -152 -155 -359 -260 -605 -306 -116 -21 -367 -15 -541 15 -392 67 -707
190 -1139 447 -306 182 -438 234 -594 234 -102 0 -177 -20 -291 -78 -95 -48
-1266 -838 -1326 -894 -18 -16 -45 -53 -60 -81 -27 -48 -29 -60 -29 -157 0
-102 1 -107 41 -190 121 -250 450 -569 871 -844 518 -338 1158 -601 1768 -726
382 -79 644 -105 1060 -104 438 0 705 31 1062 124 977 254 1750 840 2211 1676
267 485 385 984 369 1563 -14 495 -115 903 -332 1346 -153 311 -275 484 -495
706 -314 316 -675 547 -1202 769 -94 39 -531 192 -1035 360 -779 261 -882 298
-959 343 -198 118 -340 315 -395 544 -18 74 -20 109 -16 223 4 116 9 148 35
230 109 333 403 565 753 596 129 11 218 -8 607 -131 199 -63 388 -117 420
-120 75 -9 172 9 252 47 74 36 175 130 208 195 23 44 455 1295 467 1352 25
117 -7 262 -81 360 -55 73 -118 117 -261 181 -296 132 -576 215 -913 270 -275
45 -670 66 -932 50z"/>
<path d="M17210 7760 c-338 -60 -664 -253 -879 -519 -173 -216 -288 -461 -343
-734 -20 -96 -23 -142 -23 -327 1 -241 14 -330 81 -528 130 -391 438 -744 799
-917 318 -152 673 -180 1022 -79 85 24 293 119 362 165 l34 23 -6 -31 c-13
-64 -68 -191 -113 -259 -131 -197 -331 -331 -555 -370 -164 -29 -311 -9 -472
64 -75 34 -90 37 -172 37 -85 0 -94 -2 -155 -36 -118 -65 -190 -200 -176 -333
7 -76 54 -173 102 -215 73 -65 283 -150 459 -187 139 -29 434 -27 574 4 610
137 1068 618 1172 1232 19 111 19 165 17 1455 l-3 1340 -25 50 c-31 64 -91
124 -155 155 -42 21 -65 25 -140 25 -107 0 -165 -22 -233 -88 -43 -42 -92
-122 -92 -152 0 -8 -2 -15 -4 -15 -2 0 -42 24 -89 53 -278 175 -654 246 -987
187z m434 -680 c152 -39 310 -142 421 -277 72 -88 148 -242 181 -368 36 -137
39 -345 6 -478 -72 -291 -237 -503 -475 -612 -104 -48 -171 -60 -332 -60 -137
1 -157 3 -230 29 -112 38 -205 96 -297 184 -182 174 -274 382 -285 647 -6 137
10 245 55 374 50 139 106 225 227 346 124 124 215 180 347 215 102 27 278 27
382 0z"/>
<path d="M19731 7768 c-111 -18 -211 -99 -251 -205 -20 -54 -20 -65 -18 -1376
l3 -1322 28 -56 c32 -66 99 -132 165 -162 71 -33 198 -31 272 4 70 33 136 99
169 169 l26 55 5 725 6 725 26 96 c54 197 131 340 245 451 153 152 324 220
594 238 110 7 139 13 184 35 159 77 231 282 156 440 -31 67 -99 135 -158 160
-66 28 -140 35 -259 25 -270 -24 -557 -141 -719 -292 l-72 -68 -6 59 c-10 112
-79 215 -178 266 -40 21 -63 27 -144 39 -11 2 -44 -1 -74 -6z"/>
<path d="M22845 7765 c-180 -29 -381 -104 -530 -198 -305 -191 -561 -524 -673
-877 -150 -470 -76 -1005 195 -1415 82 -123 278 -322 408 -414 160 -113 360
-197 561 -238 133 -26 395 -24 531 5 195 42 390 131 544 246 104 79 292 273
372 384 285 397 362 955 201 1457 -38 116 -134 306 -212 414 -87 122 -262 305
-371 387 -141 105 -346 197 -536 239 -101 23 -376 28 -490 10z m440 -709 c154
-50 316 -157 400 -263 64 -81 130 -220 161 -338 24 -88 27 -120 27 -260 1
-132 -3 -175 -21 -248 -29 -117 -74 -221 -134 -313 -149 -230 -414 -357 -708
-341 -219 12 -423 102 -549 244 -64 71 -154 250 -182 358 -80 320 -25 661 146
901 88 123 286 240 475 280 104 22 286 12 385 -20z"/>
<path d="M25220 7758 c-77 -30 -160 -115 -189 -192 l-22 -59 4 -891 c3 -876 3
-892 24 -972 74 -277 199 -494 384 -668 186 -175 391 -281 654 -338 93 -20
371 -17 473 5 276 60 506 189 699 390 143 151 237 306 302 502 60 185 61 194
61 1129 l0 851 -29 62 c-57 119 -164 194 -291 201 -143 8 -271 -83 -323 -230
-8 -24 -13 -272 -17 -888 l-5 -855 -27 -73 c-74 -203 -228 -352 -428 -414
-105 -32 -274 -33 -375 -1 -191 61 -336 201 -414 401 l-26 67 -5 865 c-5 785
-7 869 -22 908 -53 133 -161 212 -298 219 -59 2 -87 -1 -130 -19z"/>
<path d="M28365 7756 c-79 -34 -154 -110 -183 -189 l-22 -58 2 -1912 3 -1912
26 -56 c34 -72 96 -134 168 -168 79 -37 192 -37 271 1 77 36 131 86 171 160
l34 63 5 596 5 597 75 -46 c153 -93 333 -157 527 -188 143 -22 408 -15 534 15
504 117 904 468 1093 958 291 754 -37 1639 -743 2002 -345 177 -736 209 -1111
89 -103 -33 -254 -100 -331 -148 -27 -16 -51 -30 -53 -30 -2 0 -18 29 -35 65
-56 113 -157 176 -296 182 -68 3 -89 0 -140 -21z m1467 -681 c180 -38 360
-150 467 -292 67 -87 145 -246 172 -348 26 -100 36 -283 20 -384 -29 -186
-112 -360 -234 -488 -170 -179 -357 -263 -584 -263 -235 0 -417 82 -593 266
-168 176 -235 358 -234 634 0 165 21 270 79 397 114 247 342 432 596 482 70
14 238 12 311 -4z"/>
</g>
</svg>
