<svg xmlns="http://www.w3.org/2000/svg" width="4168" height="4167" viewBox="0 0 4168 4167" version="1.1"><path d="M 1733.164 619.121 C 1725.162 620.452, 1713.418 624.634, 1705 629.152 C 1689.184 637.640, 1677.216 647.046, 1659.812 664.666 L 1648.124 676.500 1134.901 1561 C 852.629 2047.475, 619.778 2449.775, 617.454 2455 C 611.809 2467.694, 606.458 2483.580, 603.400 2496.724 C 600.251 2510.258, 599.093 2533.063, 600.964 2544.709 C 607.041 2582.540, 635.018 2607.077, 684.523 2617.992 L 694.500 2620.192 829.500 2619.517 C 981.921 2618.754, 997.829 2618.329, 1012.206 2614.633 C 1041.637 2607.067, 1063.523 2589.318, 1078.490 2560.880 C 1083.946 2550.513, 1755.371 1412.998, 1756 1413.056 C 1756.275 1413.081, 1830.300 1538.243, 1920.500 1691.194 C 2116.850 2024.141, 2109.562 2011.895, 2119.417 2025.418 C 2129.116 2038.726, 2142.830 2053.216, 2152.937 2060.831 C 2167.743 2071.988, 2187.138 2080.254, 2205.926 2083.414 C 2214.322 2084.827, 2238.111 2085, 2423.480 2085 L 2631.608 2085 2636.554 2081.906 C 2643.194 2077.753, 2650.708 2070.378, 2653.187 2065.581 C 2657.838 2056.584, 2655.103 2044.491, 2644.086 2025.339 C 2640.340 2018.827, 2458.985 1713.366, 2241.075 1346.535 C 1988.304 921.020, 1842.816 677.046, 1839.187 672.599 C 1836.059 668.765, 1829.145 661.266, 1823.822 655.935 C 1794.137 626.203, 1764.050 613.985, 1733.164 619.121 M 848 2839.633 C 792.127 2842.607, 740.424 2862.201, 697.051 2896.838 C 654.025 2931.198, 621.722 2981.155, 607.494 3035.341 C 590.732 3099.179, 596.617 3165.787, 623.943 3221.500 C 637.229 3248.588, 652.050 3269.082, 674.972 3292.061 C 702.580 3319.735, 731.190 3338.749, 765.124 3351.973 C 815.787 3371.717, 877.368 3375.348, 932.884 3361.867 C 976.073 3351.378, 1015.050 3329.348, 1049.359 3296.033 C 1104.149 3242.832, 1130 3181.548, 1130 3104.862 C 1130 3058.532, 1122.454 3024.107, 1104.054 2986.500 C 1091.256 2960.343, 1075.751 2938.851, 1053.950 2917.050 C 1009.687 2872.786, 955.184 2846.994, 893.500 2841.119 C 880.681 2839.898, 857.337 2839.135, 848 2839.633 M 1233 3104.500 L 1233 3357 1259 3357 L 1285 3357 1285 3240 L 1285 3123 1298.750 3123.059 L 1312.500 3123.118 1402.941 3240.059 L 1493.382 3357 1525.255 3357 L 1557.128 3357 1551.124 3349.250 C 1547.822 3344.988, 1507.125 3292.450, 1460.684 3232.500 L 1376.248 3123.500 1390.374 3122.833 C 1438.400 3120.565, 1471.039 3111.939, 1496.205 3094.865 C 1512.239 3083.985, 1529.249 3063.675, 1537.513 3045.542 C 1546.336 3026.179, 1549.458 3008.380, 1548.739 2981.534 C 1548.283 2964.504, 1547.906 2961.254, 1545.161 2950.661 C 1539.263 2927.904, 1527.899 2908.717, 1510.406 2891.978 C 1499.814 2881.843, 1490.825 2875.700, 1476.832 2869.034 C 1446.725 2854.692, 1418.593 2852.017, 1297.750 2852.006 L 1233 2852 1233 3104.500 M 1606 2877 L 1606 2902 1662.500 2902 L 1719 2902 1719 3129.500 L 1719 3357 1745 3357 L 1771 3357 1771 3129.500 L 1771 2902 1827.500 2902 L 1884 2902 1884 2877 L 1884 2852 1745 2852 L 1606 2852 1606 2877 M 2145.167 2860.205 C 2143.044 2864.767, 2089.489 2978.155, 2026.154 3112.178 C 1962.819 3246.201, 1911 3356.120, 1911 3356.443 C 1911 3356.766, 1923.851 3356.911, 1939.557 3356.765 L 1968.113 3356.500 2007.299 3273.750 L 2046.484 3191 2154.535 3191 L 2262.585 3191 2302.127 3273.750 L 2341.670 3356.500 2369.335 3356.766 C 2384.551 3356.912, 2396.986 3356.687, 2396.969 3356.266 C 2396.953 3355.845, 2344.145 3242.325, 2279.619 3104 L 2162.299 2852.500 2155.662 2852.205 L 2149.025 2851.909 2145.167 2860.205 M 2475 3104.500 L 2475 3357 2501.497 3357 L 2527.995 3357 2528.247 3167.043 L 2528.500 2977.086 2694 3167.016 L 2859.500 3356.945 2865.750 3356.972 L 2872 3357 2872 3104.500 L 2872 2852 2846.503 2852 L 2821.005 2852 2820.753 3044.379 L 2820.500 3236.759 2653.500 3044.387 L 2486.500 2852.016 2480.750 2852.008 L 2475 2852 2475 3104.500 M 3068.533 3103.750 C 3003.149 3242.213, 2949.476 3355.844, 2949.258 3356.265 C 2949.041 3356.686, 2961.822 3356.911, 2977.661 3356.765 L 3006.459 3356.500 3045.549 3274 L 3084.639 3191.500 3192.910 3191.500 L 3301.182 3191.500 3340.727 3274.250 L 3380.273 3357 3408.153 3357 L 3436.034 3357 3433.697 3352.250 C 3432.412 3349.637, 3379.417 3236.018, 3315.930 3099.763 L 3200.500 2852.026 3193.956 2852.013 L 3187.413 2852 3068.533 3103.750 M 847.400 2890.051 C 822.245 2891.950, 795.273 2899.561, 771.044 2911.598 C 704.201 2944.805, 663.489 3002.138, 652.882 3078 C 651.051 3091.096, 651.329 3124.266, 653.389 3138.450 C 659.942 3183.572, 678.631 3221.783, 710.160 3254.522 C 747.199 3292.983, 791.567 3314.303, 844.500 3319.079 C 874.098 3321.749, 909.237 3317.306, 937 3307.384 C 949.619 3302.874, 972.410 3291.475, 983.173 3284.290 C 1022.687 3257.913, 1050.971 3220.999, 1065.890 3176.337 C 1073.433 3153.756, 1077 3130.693, 1077 3104.500 C 1077 3069.304, 1070.623 3039.674, 1056.876 3011 C 1045.797 2987.892, 1033.756 2970.737, 1016.509 2953.491 C 972.181 2909.162, 908.870 2885.412, 847.400 2890.051 M 1285 2987.500 L 1285 3073 1340.326 3073 C 1397.224 3073, 1409.833 3072.403, 1427.423 3068.880 C 1456.120 3063.131, 1475.468 3048.863, 1487.838 3024.329 C 1493.112 3013.867, 1495.145 3005.003, 1495.710 2990 C 1496.143 2978.474, 1495.904 2975.184, 1494.071 2967.500 C 1488.769 2945.278, 1474.564 2926.078, 1455.649 2915.569 C 1436.122 2904.719, 1411.247 2902.063, 1328.750 2902.022 L 1285 2902 1285 2987.500 M 2112.934 3050.594 C 2089.595 3099.857, 2070.350 3140.577, 2070.167 3141.082 C 2069.966 3141.635, 2103.682 3142, 2154.917 3142 C 2201.713 3142, 2240 3141.702, 2240 3141.337 C 2240 3140.973, 2222.597 3103.735, 2201.326 3058.587 C 2180.055 3013.439, 2161.013 2973.018, 2159.010 2968.762 L 2155.369 2961.024 2112.934 3050.594 M 3150.890 3051.377 L 3108.281 3141.500 3151.216 3141.761 C 3174.830 3141.904, 3213.183 3141.904, 3236.446 3141.761 L 3278.743 3141.500 3236.390 3051.602 C 3213.096 3002.158, 3193.917 2961.603, 3193.769 2961.479 C 3193.621 2961.356, 3174.326 3001.810, 3150.890 3051.377 M 1708.500 3484.573 C 1701.056 3488.444, 1697.679 3493.967, 1697.672 3502.282 C 1697.668 3507.055, 1698.178 3508.801, 1700.597 3512.282 C 1708.566 3523.754, 1724.762 3523.663, 1732.185 3512.106 C 1734.841 3507.972, 1735.108 3506.823, 1734.797 3500.890 C 1734.515 3495.520, 1733.928 3493.595, 1731.667 3490.630 C 1726.355 3483.666, 1715.634 3480.862, 1708.500 3484.573 M 1635 3536.101 L 1635 3585.203 1627.845 3577.541 C 1615.830 3564.676, 1603.646 3557.233, 1587.500 3552.897 C 1576.198 3549.863, 1554.964 3549.868, 1543.500 3552.910 C 1517.679 3559.760, 1495.132 3578.630, 1483.543 3603.089 C 1473.294 3624.720, 1472.356 3652.298, 1481.051 3676.329 C 1489.502 3699.684, 1512.179 3722.153, 1535.306 3730.088 C 1568.358 3741.428, 1603.130 3733.490, 1627.750 3708.983 L 1635 3701.766 1635 3716.383 L 1635 3731 1646.500 3731 L 1658 3731 1658 3609 L 1658 3487 1646.500 3487 L 1635 3487 1635 3536.101 M 2198.009 3488.022 C 2143.590 3493.693, 2101.659 3528.831, 2087.282 3580.809 C 2084.759 3589.933, 2084.602 3591.758, 2084.602 3612 C 2084.602 3632.305, 2084.754 3634.056, 2087.331 3643.500 C 2090.650 3655.662, 2099.984 3674.956, 2107.165 3684.500 C 2127.875 3712.022, 2155.941 3728.817, 2190.988 3734.659 C 2203.849 3736.802, 2230.516 3736.801, 2242.636 3734.656 C 2274.972 3728.934, 2300.051 3713.178, 2316.886 3688.009 C 2328.605 3670.490, 2336 3645.867, 2336 3624.369 L 2336 3616 2285 3616 L 2234 3616 2234 3628 L 2234 3640 2271.567 3640 C 2306.862 3640, 2309.106 3640.106, 2308.655 3641.750 C 2308.391 3642.713, 2307.614 3645.975, 2306.928 3648.999 C 2300.339 3678.057, 2275.339 3702.181, 2243.500 3710.203 C 2235.761 3712.153, 2232.048 3712.460, 2217 3712.392 C 2201.554 3712.322, 2198.376 3712.013, 2189.926 3709.759 C 2170.171 3704.489, 2154.579 3696.092, 2141.234 3683.538 C 2118.650 3662.293, 2106.477 3630.508, 2109.879 3601.665 C 2115.033 3557.959, 2146.020 3525.216, 2193 3513.833 C 2196.536 3512.976, 2204.391 3512.530, 2215 3512.584 C 2229.578 3512.658, 2232.629 3512.977, 2241.191 3515.315 C 2246.520 3516.771, 2254.961 3519.721, 2259.947 3521.871 C 2274.909 3528.321, 2281.003 3532.319, 2301.100 3548.869 L 2303.978 3551.239 2312.739 3542.968 C 2317.557 3538.419, 2321.631 3534.164, 2321.792 3533.511 C 2322.501 3530.633, 2294.123 3509.643, 2279.621 3502.319 C 2270 3497.460, 2251.262 3491.443, 2240 3489.597 C 2227.831 3487.601, 2208.868 3486.890, 2198.009 3488.022 M 993 3493.274 C 993 3493.961, 959.994 3724.873, 959.485 3727.750 L 958.909 3731 970.867 3731 L 982.824 3731 983.428 3727.250 C 983.760 3725.188, 988.747 3688.625, 994.511 3646 C 1000.275 3603.375, 1005.332 3567.200, 1005.751 3565.612 C 1006.424 3563.052, 1011.259 3572.277, 1048.330 3646.862 L 1090.150 3731 1093.380 3731 L 1096.610 3731 1138.055 3647.062 C 1160.850 3600.896, 1179.597 3563.434, 1179.716 3563.812 C 1179.835 3564.190, 1184.905 3600.725, 1190.984 3645 C 1197.062 3689.275, 1202.289 3726.738, 1202.597 3728.250 L 1203.159 3731 1215.079 3731 C 1221.636 3731, 1227 3730.828, 1227 3730.618 C 1227 3730.408, 1219.350 3677.043, 1210 3612.029 C 1200.650 3547.015, 1193 3493.637, 1193 3493.411 C 1193 3493.185, 1191.967 3493, 1190.704 3493 C 1188.653 3493, 1183.356 3503.296, 1140.967 3589.673 L 1093.524 3686.347 1045.560 3589.673 C 1002.760 3503.409, 997.348 3493, 995.298 3493 C 994.034 3493, 993 3493.123, 993 3493.274 M 1337.218 3551.043 C 1327.494 3552.258, 1313.098 3557.167, 1304.500 3562.200 C 1295.069 3567.721, 1280.836 3582.154, 1274.244 3592.882 C 1258.821 3617.982, 1255.901 3650.600, 1266.638 3677.853 C 1271.546 3690.313, 1277.937 3699.878, 1288.500 3710.572 C 1297.222 3719.403, 1299.714 3721.292, 1308 3725.358 C 1321.122 3731.797, 1330.558 3734.057, 1347 3734.700 C 1356.983 3735.090, 1362.925 3734.805, 1369.808 3733.604 C 1393.784 3729.421, 1414.099 3716.219, 1427.671 3696 C 1434.871 3685.274, 1436.229 3682.428, 1434.724 3681.215 C 1433.380 3680.133, 1417.343 3672, 1416.553 3672 C 1416.282 3672, 1413.722 3675.488, 1410.864 3679.750 C 1408.005 3684.012, 1402.642 3690.491, 1398.946 3694.146 C 1378.660 3714.206, 1341.080 3719.181, 1317.514 3704.926 C 1298.185 3693.233, 1287.622 3675.527, 1284.596 3649.750 L 1284.038 3645 1363.019 3645 C 1408.766 3645, 1442 3644.624, 1442 3644.106 C 1442 3638.156, 1439.387 3621.109, 1437.451 3614.429 C 1428.764 3584.450, 1404.825 3560.914, 1375.439 3553.460 C 1364.761 3550.751, 1348.026 3549.693, 1337.218 3551.043 M 1844.679 3550.993 C 1815.282 3554.680, 1787.811 3575.085, 1774.543 3603.089 C 1764.294 3624.720, 1763.356 3652.298, 1772.051 3676.329 C 1780.502 3699.684, 1803.179 3722.153, 1826.306 3730.088 C 1859.399 3741.442, 1894.272 3733.458, 1918.750 3708.922 L 1926 3701.655 1926 3716.328 L 1926 3731 1937.500 3731 L 1949 3731 1949 3643 L 1949 3555 1937.500 3555 L 1926 3555 1926 3570.101 L 1926 3585.203 1918.845 3577.541 C 1906.824 3564.669, 1894.357 3557.055, 1878.776 3553.070 C 1869.642 3550.735, 1854.227 3549.795, 1844.679 3550.993 M 2429 3551.098 C 2418.403 3553.167, 2405.376 3562.296, 2395.834 3574.340 L 2392 3579.180 2392 3567.090 L 2392 3555 2379.995 3555 L 2367.989 3555 2368.245 3642.750 L 2368.500 3730.500 2380.118 3730.781 L 2391.736 3731.061 2392.307 3681.781 C 2392.998 3622.168, 2393.977 3613.224, 2401.542 3597.393 C 2409.983 3579.727, 2426.751 3569.839, 2440.370 3574.495 C 2443.048 3575.411, 2445.600 3575.787, 2446.041 3575.330 C 2446.482 3574.874, 2449.335 3570.450, 2452.380 3565.500 L 2457.917 3556.501 2454.503 3554.749 C 2450.050 3552.465, 2440.394 3549.971, 2436.540 3550.110 C 2434.868 3550.170, 2431.475 3550.615, 2429 3551.098 M 2546.250 3550.999 C 2524.895 3554.006, 2508.262 3562.570, 2493.412 3578.203 C 2481.272 3590.983, 2474.374 3603.128, 2470.434 3618.661 C 2464.650 3641.461, 2466.704 3663.681, 2476.427 3683.500 C 2486.900 3704.848, 2504.945 3721.826, 2525.267 3729.455 C 2551.149 3739.171, 2586.401 3735.921, 2607.906 3721.835 C 2637.499 3702.452, 2653.880 3667.994, 2650.027 3633.229 C 2647.544 3610.819, 2639.940 3594.402, 2624.504 3578.127 C 2607.723 3560.432, 2588.104 3551.641, 2563 3550.568 C 2557.225 3550.320, 2549.687 3550.514, 2546.250 3550.999 M 2972.061 3551.087 C 2952.665 3553.597, 2936.220 3562.346, 2922.108 3577.661 L 2915 3585.375 2915 3570.187 L 2915 3555 2903.500 3555 L 2892 3555 2892 3675 L 2892 3795 2903.500 3795 L 2915 3795 2915 3748.298 L 2915 3701.596 2920.250 3707.089 C 2938.176 3725.843, 2959.425 3735.021, 2984.838 3734.987 C 3014.662 3734.946, 3041.826 3720.321, 3058.930 3695.095 C 3078.557 3666.147, 3079.893 3625.551, 3062.208 3595.500 C 3055.707 3584.453, 3039.267 3568.071, 3028.713 3562.121 C 3011.282 3552.296, 2991.896 3548.520, 2972.061 3551.087 M 1705 3643 L 1705 3731 1716.500 3731 L 1728 3731 1728 3643 L 1728 3555 1716.500 3555 L 1705 3555 1705 3643 M 2688.002 3599.750 C 2688.006 3664.453, 2689.688 3680.751, 2698.140 3698 C 2703.502 3708.942, 2714.978 3720.769, 2725.545 3726.244 C 2738.356 3732.881, 2746.110 3734.479, 2765.500 3734.479 C 2780.244 3734.479, 2783.556 3734.175, 2790.455 3732.186 C 2801.115 3729.114, 2810.545 3724.008, 2817.971 3717.288 C 2829.029 3707.281, 2835.356 3695.770, 2839.290 3678.500 C 2841.199 3670.121, 2841.368 3665.548, 2841.736 3612.250 L 2842.132 3555 2830.131 3555 L 2818.130 3555 2817.726 3613.250 C 2817.442 3654.186, 2816.966 3672.804, 2816.125 3675.885 C 2813.877 3684.127, 2809.606 3691.439, 2803.500 3697.500 C 2793.527 3707.399, 2781.468 3712, 2765.500 3712 C 2749.822 3712, 2738.157 3707.743, 2727.955 3698.298 C 2721.474 3692.297, 2715.890 3682.473, 2713.862 3673.500 C 2713.125 3670.240, 2712.579 3648.750, 2712.293 3611.750 L 2711.854 3555 2699.927 3555 L 2688 3555 2688.002 3599.750 M 1339 3573.687 C 1333.571 3574.586, 1323.228 3578.321, 1318.142 3581.218 C 1310.379 3585.640, 1300.487 3595.329, 1295.990 3602.914 C 1292.421 3608.934, 1287 3621.662, 1287 3624.023 C 1287 3624.649, 1310.152 3625, 1351.446 3625 L 1415.892 3625 1414.369 3619.750 C 1409.175 3601.855, 1398.227 3588.624, 1382 3580.634 C 1376.775 3578.061, 1369.350 3575.299, 1365.500 3574.495 C 1359.027 3573.145, 1344.877 3572.713, 1339 3573.687 M 1553.500 3574.410 C 1528.989 3580.090, 1510.451 3597.127, 1502.261 3621.500 C 1499.869 3628.619, 1499.573 3630.987, 1499.580 3643 C 1499.587 3655.136, 1499.867 3657.308, 1502.352 3664.500 C 1506.268 3675.835, 1512.225 3685.397, 1520.421 3693.500 C 1528.461 3701.450, 1535.569 3705.954, 1546.165 3709.812 C 1552.868 3712.253, 1554.750 3712.481, 1568 3712.459 C 1581.439 3712.436, 1583.049 3712.228, 1590 3709.611 C 1608.870 3702.509, 1620.867 3692.034, 1629.068 3675.500 C 1633.994 3665.568, 1635.965 3656.424, 1635.965 3643.500 C 1635.965 3631.160, 1634.036 3621.699, 1629.650 3612.529 C 1621.057 3594.563, 1605.677 3581.229, 1587 3575.553 C 1579.438 3573.255, 1561.174 3572.632, 1553.500 3574.410 M 1844.500 3574.410 C 1819.989 3580.090, 1801.451 3597.127, 1793.261 3621.500 C 1790.869 3628.619, 1790.573 3630.987, 1790.580 3643 C 1790.587 3655.136, 1790.867 3657.308, 1793.352 3664.500 C 1800.966 3686.540, 1817.963 3703.775, 1838.500 3710.282 C 1844.384 3712.146, 1847.732 3712.493, 1859.500 3712.457 C 1872.346 3712.417, 1874.118 3712.182, 1881 3709.601 C 1899.839 3702.536, 1911.863 3692.040, 1920.068 3675.500 C 1924.994 3665.568, 1926.965 3656.424, 1926.965 3643.500 C 1926.965 3631.160, 1925.036 3621.699, 1920.650 3612.529 C 1912.057 3594.563, 1896.677 3581.229, 1878 3575.553 C 1870.438 3573.255, 1852.174 3572.632, 1844.500 3574.410 M 2552 3573.637 C 2536.283 3575.932, 2524.865 3581.285, 2514.314 3591.305 C 2501.750 3603.237, 2495.339 3614.500, 2492.416 3629.775 C 2485.642 3665.179, 2505.013 3698.756, 2538.500 3709.655 C 2548.683 3712.969, 2565.717 3713.432, 2576 3710.675 C 2600.352 3704.146, 2618.003 3686.130, 2624.671 3661 C 2626.982 3652.291, 2626.993 3634.779, 2624.693 3626 C 2620.319 3609.307, 2608.848 3593.447, 2594.243 3583.902 C 2581.927 3575.852, 2565.001 3571.739, 2552 3573.637 M 2969.322 3574.098 C 2951.424 3577.087, 2933.528 3589.492, 2923.644 3605.764 C 2910.514 3627.378, 2910.563 3659.703, 2923.758 3681.425 C 2931.284 3693.814, 2944.608 3704.164, 2960.036 3709.606 C 2969.949 3713.103, 2987.080 3713.995, 2997.500 3711.557 C 3021.853 3705.858, 3041.741 3685.830, 3048.697 3660 C 3051.351 3650.142, 3051.086 3633.604, 3048.120 3624.025 C 3037.044 3588.252, 3005.240 3568.101, 2969.322 3574.098" stroke="none" fill="#747474" fill-rule="evenodd"/><path d="M 2052.831 125.954 C 2039.699 128.365, 2028.163 133.130, 2016.660 140.892 C 1999.734 152.313, 2002.468 148.627, 1915.805 276.890 C 1861.680 356.996, 1834.277 398.422, 1831.394 404.500 C 1814.934 439.193, 1816.879 476.542, 1836.861 509.516 C 1851.897 534.328, 2829 2171.170, 2829 2171.546 C 2829 2171.796, 2531.663 2172.005, 2168.250 2172.011 C 1464.647 2172.022, 1496.683 2171.817, 1472.390 2176.470 C 1445.499 2181.622, 1425.349 2194.805, 1408.751 2218.107 C 1403.081 2226.068, 1234.516 2504.065, 1223.137 2524.220 C 1218.567 2532.316, 1213.751 2541.991, 1212.435 2545.720 C 1204.599 2567.925, 1215.070 2581.091, 1248.619 2591.216 L 1259.500 2594.500 2333.134 2594.752 L 3406.768 2595.005 3421.634 2587.642 C 3442.390 2577.361, 3456.251 2567.843, 3469.092 2555.051 C 3484.682 2539.521, 3492.795 2525.914, 3498.235 2506.175 C 3500.025 2499.680, 3500.357 2495.657, 3500.396 2480 C 3500.434 2464.393, 3500.085 2459.858, 3498.168 2451 C 3495.129 2436.956, 3488.375 2416.930, 3481.775 2402.390 C 3474.115 2385.514, 2166.976 189.099, 2159.179 180 C 2129.805 145.723, 2097.964 126.693, 2068.010 125.511 C 2062.229 125.283, 2055.399 125.482, 2052.831 125.954 M 1153.239 3888.335 C 1148.469 3890.065, 1143.267 3894.557, 1141.089 3898.826 C 1138.731 3903.447, 1137 3912.490, 1137 3920.184 L 1137 3926 1131.107 3926 C 1124.262 3926, 1124 3926.331, 1124 3935 C 1124 3943.669, 1124.262 3944, 1131.107 3944 L 1137 3944 1137 3977.465 C 1137 4016.398, 1135.818 4013, 1149.363 4013 C 1155.752 4013, 1158.247 4012.610, 1159.429 4011.429 C 1160.794 4010.064, 1161 4005.530, 1161 3976.929 L 1161 3944 1175.441 3944 L 1189.882 3944 1190.191 3971.250 C 1190.496 3998.190, 1190.528 3998.551, 1193 4002.956 C 1194.375 4005.406, 1197.436 4008.771, 1199.803 4010.432 C 1203.783 4013.227, 1204.874 4013.482, 1214.333 4013.832 C 1230.879 4014.444, 1234.609 4011.726, 1233.768 3999.671 C 1233.312 3993.140, 1232.058 3991.735, 1227.958 3993.165 C 1226.443 3993.693, 1223.245 3993.984, 1220.851 3993.812 C 1217.008 3993.536, 1216.296 3993.092, 1214.752 3990 C 1213.252 3986.998, 1213.003 3983.478, 1213.002 3965.250 L 1213 3944 1222.525 3944 C 1231.829 3944, 1232.072 3943.941, 1233.025 3941.435 C 1234.306 3938.065, 1234.272 3930.377, 1232.965 3927.934 C 1232.053 3926.231, 1230.799 3926, 1222.465 3926 L 1213 3926 1213 3916.700 C 1213 3910.800, 1212.561 3906.961, 1211.800 3906.200 C 1211.042 3905.442, 1207.244 3905, 1201.500 3905 C 1195.756 3905, 1191.958 3905.442, 1191.200 3906.200 C 1190.439 3906.961, 1190 3910.800, 1190 3916.700 L 1190 3926 1174.855 3926 L 1159.710 3926 1160.279 3919.214 C 1160.963 3911.052, 1162.577 3907.144, 1165.573 3906.392 C 1166.800 3906.084, 1170.660 3905.983, 1174.152 3906.166 L 1180.500 3906.500 1180.803 3900.031 C 1181.236 3890.799, 1180.657 3889.276, 1176.242 3888.050 C 1171.288 3886.675, 1157.341 3886.847, 1153.239 3888.335 M 2851.306 3892.413 C 2848.716 3894.641, 2848.500 3895.380, 2848.500 3902 C 2848.500 3908.620, 2848.716 3909.359, 2851.306 3911.587 C 2853.724 3913.667, 2855.131 3914, 2861.500 3914 C 2867.869 3914, 2869.276 3913.667, 2871.694 3911.587 C 2874.284 3909.359, 2874.500 3908.620, 2874.500 3902 C 2874.500 3895.380, 2874.284 3894.641, 2871.694 3892.413 C 2869.276 3890.333, 2867.869 3890, 2861.500 3890 C 2855.131 3890, 2853.724 3890.333, 2851.306 3892.413 M 968.500 3895.402 C 958.156 3898.682, 950.782 3904.914, 946.637 3913.878 C 944.942 3917.544, 944.508 3920.360, 944.537 3927.500 C 944.608 3944.566, 950.280 3951.520, 973.306 3962.770 C 989.583 3970.722, 993 3973.734, 993 3980.126 C 993 3985.699, 990.644 3989.631, 985.835 3992.084 C 982.370 3993.852, 980.322 3994.133, 973.026 3993.844 C 965.172 3993.533, 963.522 3993.094, 955.769 3989.250 C 946.128 3984.471, 944.511 3984.177, 943.035 3986.934 C 941.528 3989.750, 941.768 3999.652, 943.421 4002.848 C 946.680 4009.149, 960.667 4014, 975.576 4014 C 1002.404 4014, 1018.463 4000.112, 1018.383 3976.980 C 1018.363 3971.081, 1017.808 3968.261, 1015.808 3963.892 C 1011.804 3955.146, 1006.483 3950.832, 989.016 3942.175 C 976.820 3936.129, 973.052 3933.779, 971.266 3931.102 C 967.299 3925.154, 969.070 3917.567, 975.160 3914.418 C 980.443 3911.686, 992.061 3912.770, 1000.144 3916.750 C 1010.784 3921.989, 1011.959 3921.287, 1011.986 3909.673 C 1011.998 3904.600, 1011.634 3903.480, 1009.169 3901.016 C 1004.735 3896.582, 994.830 3893.987, 982.645 3894.067 C 977.065 3894.104, 970.700 3894.705, 968.500 3895.402 M 1690.500 3895.402 C 1680.156 3898.682, 1672.782 3904.914, 1668.637 3913.878 C 1666.942 3917.544, 1666.508 3920.360, 1666.537 3927.500 C 1666.608 3944.566, 1672.280 3951.520, 1695.306 3962.770 C 1711.583 3970.722, 1715 3973.734, 1715 3980.126 C 1715 3985.699, 1712.644 3989.631, 1707.835 3992.084 C 1704.370 3993.852, 1702.322 3994.133, 1695.026 3993.844 C 1687.172 3993.533, 1685.522 3993.094, 1677.769 3989.250 C 1668.128 3984.471, 1666.511 3984.177, 1665.035 3986.934 C 1663.528 3989.750, 1663.768 3999.652, 1665.421 4002.848 C 1668.680 4009.149, 1682.667 4014, 1697.576 4014 C 1724.404 4014, 1740.463 4000.112, 1740.383 3976.980 C 1740.363 3971.081, 1739.808 3968.261, 1737.808 3963.892 C 1733.804 3955.146, 1728.483 3950.832, 1711.016 3942.175 C 1698.820 3936.129, 1695.052 3933.779, 1693.266 3931.102 C 1689.299 3925.154, 1691.070 3917.567, 1697.160 3914.418 C 1702.443 3911.686, 1714.061 3912.770, 1722.144 3916.750 C 1732.784 3921.989, 1733.959 3921.287, 1733.986 3909.673 C 1733.998 3904.600, 1733.634 3903.480, 1731.169 3901.016 C 1726.735 3896.582, 1716.830 3893.987, 1704.645 3894.067 C 1699.065 3894.104, 1692.700 3894.705, 1690.500 3895.402 M 2255.750 3896.080 C 2254.116 3897.032, 2254 3900.865, 2254 3954.015 C 2254 4020.009, 2252.472 4013, 2266.863 4013 C 2273.706 4013, 2276.233 4012.624, 2277.429 4011.429 C 2278.820 4010.038, 2279 4003.446, 2279 3954 C 2279 3904.554, 2278.820 3897.962, 2277.429 3896.571 C 2276.223 3895.366, 2273.720 3895.007, 2266.679 3895.030 C 2261.630 3895.047, 2256.713 3895.519, 2255.750 3896.080 M 1915.200 3905.200 C 1914.430 3905.970, 1914 3909.911, 1914 3916.200 L 1914 3926 1908.107 3926 C 1901.262 3926, 1901 3926.331, 1901 3935 C 1901 3943.657, 1901.268 3944, 1908.048 3944 L 1913.882 3944 1914.191 3971.250 C 1914.496 3998.190, 1914.528 3998.551, 1917 4002.956 C 1918.375 4005.406, 1921.436 4008.771, 1923.803 4010.432 C 1927.783 4013.227, 1928.874 4013.482, 1938.333 4013.832 C 1954.879 4014.444, 1958.609 4011.726, 1957.768 3999.671 C 1957.312 3993.140, 1956.058 3991.735, 1951.958 3993.165 C 1950.443 3993.693, 1947.245 3993.984, 1944.851 3993.812 C 1941.008 3993.536, 1940.296 3993.092, 1938.752 3990 C 1937.252 3986.998, 1937.003 3983.478, 1937.002 3965.250 L 1937 3944 1946.465 3944 C 1957.433 3944, 1958 3943.558, 1958 3935 C 1958 3926.442, 1957.433 3926, 1946.465 3926 L 1937 3926 1937 3916.200 C 1937 3909.911, 1936.570 3905.970, 1935.800 3905.200 C 1935.042 3904.442, 1931.244 3904, 1925.500 3904 C 1919.756 3904, 1915.958 3904.442, 1915.200 3905.200 M 2404.200 3905.200 C 2403.430 3905.970, 2403 3909.911, 2403 3916.200 L 2403 3926 2397.107 3926 C 2390.262 3926, 2390 3926.331, 2390 3935 C 2390 3943.657, 2390.268 3944, 2397.048 3944 L 2402.882 3944 2403.191 3971.250 C 2403.496 3998.190, 2403.528 3998.551, 2406 4002.956 C 2407.375 4005.406, 2410.436 4008.771, 2412.803 4010.432 C 2416.783 4013.227, 2417.874 4013.482, 2427.333 4013.832 C 2443.879 4014.444, 2447.609 4011.726, 2446.768 3999.671 C 2446.312 3993.140, 2445.058 3991.735, 2440.958 3993.165 C 2439.443 3993.693, 2436.245 3993.984, 2433.851 3993.812 C 2430.008 3993.536, 2429.296 3993.092, 2427.752 3990 C 2426.252 3986.998, 2426.003 3983.478, 2426.002 3965.250 L 2426 3944 2435.465 3944 C 2446.433 3944, 2447 3943.558, 2447 3935 C 2447 3926.442, 2446.433 3926, 2435.465 3926 L 2426 3926 2426 3916.200 C 2426 3909.911, 2425.570 3905.970, 2424.800 3905.200 C 2424.042 3904.442, 2420.244 3904, 2414.500 3904 C 2408.756 3904, 2404.958 3904.442, 2404.200 3905.200 M 2793.200 3905.200 C 2792.430 3905.970, 2792 3909.911, 2792 3916.200 L 2792 3926 2786.107 3926 C 2779.262 3926, 2779 3926.331, 2779 3935 C 2779 3943.660, 2779.267 3944, 2786.061 3944 L 2791.908 3944 2792.204 3970.750 C 2792.494 3996.998, 2792.547 3997.594, 2795 4002.493 C 2796.567 4005.624, 2799.087 4008.587, 2801.754 4010.436 C 2805.512 4013.041, 2807.051 4013.434, 2814.957 4013.812 C 2826.067 4014.343, 2830.548 4013.543, 2833.612 4010.479 C 2835.638 4008.453, 2836 4007.108, 2836 4001.617 C 2836 3993.734, 2834.501 3991.581, 2830.087 3993.119 C 2828.501 3993.672, 2825.245 3993.984, 2822.851 3993.812 C 2819.008 3993.536, 2818.296 3993.092, 2816.752 3990 C 2815.252 3986.998, 2815.003 3983.478, 2815.002 3965.250 L 2815 3944 2832.500 3944 L 2850 3944 2850 3977.300 C 2850 4001.867, 2850.315 4010.915, 2851.200 4011.800 C 2851.958 4012.558, 2855.756 4013, 2861.500 4013 C 2867.244 4013, 2871.042 4012.558, 2871.800 4011.800 C 2872.694 4010.906, 2873 4000.133, 2873 3969.500 C 2873 3938.867, 2872.694 3928.094, 2871.800 3927.200 C 2870.924 3926.324, 2863.089 3926, 2842.800 3926 L 2815 3926 2815 3916.200 C 2815 3909.911, 2814.570 3905.970, 2813.800 3905.200 C 2813.042 3904.442, 2809.244 3904, 2803.500 3904 C 2797.756 3904, 2793.958 3904.442, 2793.200 3905.200 M 1059.500 3924.934 C 1040.154 3929.639, 1028.967 3946.519, 1029.015 3970.934 C 1029.053 3990.609, 1036.436 4004.092, 1050.880 4010.865 C 1056.142 4013.332, 1057.423 4013.500, 1071 4013.500 C 1085.225 4013.500, 1085.628 4013.440, 1092.225 4010.314 C 1103.983 4004.744, 1111.356 3994.923, 1114.032 3981.268 C 1115.806 3972.214, 1114.849 3953.922, 1112.253 3947.277 C 1105.877 3930.954, 1093.976 3923.902, 1073.145 3924.102 C 1067.290 3924.159, 1061.150 3924.533, 1059.500 3924.934 M 1400.928 3925.002 C 1394.191 3926.686, 1386.271 3930.043, 1384.551 3931.943 C 1382.234 3934.504, 1381.494 3940.936, 1382.993 3945.480 C 1384.121 3948.896, 1384.471 3949.155, 1387.359 3948.712 C 1389.087 3948.448, 1393.425 3946.964, 1397 3945.414 C 1401.734 3943.362, 1405.615 3942.487, 1411.284 3942.191 C 1423.924 3941.532, 1427.289 3944.098, 1428.619 3955.414 L 1429.275 3961 1418.388 3961.015 C 1391.777 3961.051, 1378 3970.120, 1378 3987.602 C 1378 3995.248, 1379.647 4000.228, 1383.768 4005.042 C 1389.774 4012.059, 1393.733 4013.500, 1407 4013.500 C 1417.152 4013.500, 1419.027 4013.223, 1423 4011.137 C 1425.475 4009.838, 1428.513 4007.847, 1429.750 4006.713 L 1432 4004.651 1432 4007.626 C 1432 4012.177, 1433.556 4013, 1442.165 4013 C 1449.019 4013, 1450.061 4012.755, 1451.049 4010.909 C 1451.832 4009.446, 1452.049 3999.306, 1451.771 3977.159 C 1451.435 3950.367, 1451.112 3944.819, 1449.668 3941.069 C 1447.055 3934.284, 1443.572 3930.428, 1437.258 3927.328 C 1431.889 3924.691, 1430.587 3924.487, 1418 3924.304 C 1410.575 3924.197, 1402.893 3924.511, 1400.928 3925.002 M 1506.500 3925.157 C 1505.400 3925.759, 1502.138 3928.543, 1499.250 3931.342 L 1494 3936.432 1494 3931.916 C 1494 3929.432, 1493.460 3926.860, 1492.800 3926.200 C 1492.077 3925.477, 1488.578 3925, 1484 3925 C 1479.422 3925, 1475.923 3925.477, 1475.200 3926.200 C 1473.475 3927.925, 1473.475 4010.075, 1475.200 4011.800 C 1475.958 4012.558, 1479.756 4013, 1485.500 4013 C 1491.244 4013, 1495.042 4012.558, 1495.800 4011.800 C 1496.671 4010.929, 1497 4003.553, 1497 3984.890 L 1497 3959.180 1501.010 3954.106 C 1507.072 3946.438, 1508.799 3945.601, 1517.001 3946.363 C 1525.486 3947.152, 1526 3946.536, 1526 3935.566 C 1526 3925.435, 1524.652 3923.988, 1515.250 3924.030 C 1511.537 3924.047, 1507.600 3924.554, 1506.500 3925.157 M 1558.863 3925.516 C 1543.532 3930.404, 1533.766 3945.116, 1532.321 3965.500 C 1530.536 3990.655, 1540.257 4007.516, 1559.500 4012.644 C 1566.101 4014.403, 1585.731 4014.340, 1594.259 4012.533 C 1604.452 4010.373, 1606.346 4009.186, 1607.374 4004.315 C 1608.462 3999.158, 1607.417 3993.097, 1605.300 3992.285 C 1604.425 3991.949, 1599.999 3992.648, 1595.464 3993.837 C 1585.832 3996.364, 1571.741 3996.754, 1566.671 3994.636 C 1560.794 3992.180, 1556.023 3984.404, 1556.006 3977.250 L 1556 3975 1581.845 3975 C 1613.575 3975, 1611.469 3976.070, 1610.807 3960.278 C 1610.427 3951.210, 1609.909 3948.509, 1607.542 3943.253 C 1604.310 3936.074, 1598.190 3929.884, 1591.176 3926.699 C 1585.079 3923.930, 1566.024 3923.233, 1558.863 3925.516 M 1852.492 3925.797 C 1845.533 3928.204, 1840.807 3932.101, 1837.514 3938.151 C 1835.226 3942.355, 1834.706 3944.557, 1834.706 3950.036 C 1834.706 3963.352, 1840.274 3969.610, 1858.770 3977.086 C 1873.118 3982.884, 1876.375 3987.779, 1870.077 3994.077 C 1867.371 3996.783, 1866.609 3996.998, 1859.827 3996.973 C 1853.971 3996.951, 1851.101 3996.349, 1845.529 3993.973 C 1834.923 3989.450, 1834 3989.855, 1834 3999.035 C 1834 4007.743, 1836.579 4010.292, 1848.222 4013.089 C 1855.604 4014.862, 1873.521 4013.851, 1879.051 4011.348 C 1889.021 4006.836, 1894.569 3999.414, 1895.642 3989.154 C 1897.069 3975.498, 1890.519 3967.242, 1872.515 3960.006 C 1859.408 3954.738, 1857 3952.953, 1857 3948.500 C 1857 3946.035, 1857.729 3944.568, 1859.750 3942.968 C 1862.164 3941.056, 1863.417 3940.844, 1870 3941.229 C 1875.100 3941.528, 1878.884 3942.381, 1881.827 3943.894 C 1884.206 3945.118, 1887.131 3945.980, 1888.327 3945.809 C 1890.296 3945.529, 1890.528 3944.822, 1890.793 3938.293 C 1891.143 3929.671, 1889.938 3927.950, 1881.874 3925.555 C 1874.651 3923.410, 1859.022 3923.539, 1852.492 3925.797 M 1992.863 3925.516 C 1977.532 3930.404, 1967.766 3945.116, 1966.321 3965.500 C 1964.536 3990.655, 1974.257 4007.516, 1993.500 4012.644 C 2000.101 4014.403, 2019.731 4014.340, 2028.259 4012.533 C 2038.452 4010.373, 2040.346 4009.186, 2041.374 4004.315 C 2042.462 3999.158, 2041.417 3993.097, 2039.300 3992.285 C 2038.425 3991.949, 2033.999 3992.648, 2029.464 3993.837 C 2019.832 3996.364, 2005.741 3996.754, 2000.671 3994.636 C 1994.794 3992.180, 1990.023 3984.404, 1990.006 3977.250 L 1990 3975 2015.845 3975 C 2047.575 3975, 2045.469 3976.070, 2044.807 3960.278 C 2044.427 3951.210, 2043.909 3948.509, 2041.542 3943.253 C 2038.310 3936.074, 2032.190 3929.884, 2025.176 3926.699 C 2019.079 3923.930, 2000.024 3923.233, 1992.863 3925.516 M 2098.500 3925.604 C 2096.300 3926.409, 2091.912 3929.077, 2088.750 3931.533 L 2083 3935.998 2083 3931.699 C 2083 3929.335, 2082.460 3926.860, 2081.800 3926.200 C 2081.077 3925.477, 2077.578 3925, 2073 3925 C 2068.422 3925, 2064.923 3925.477, 2064.200 3926.200 C 2063.305 3927.095, 2063 3937.978, 2063 3969 C 2063 4000.022, 2063.305 4010.905, 2064.200 4011.800 C 2065.828 4013.428, 2083.172 4013.428, 2084.800 4011.800 C 2085.674 4010.926, 2086 4003.224, 2086 3983.408 L 2086 3956.215 2092.057 3950.608 C 2097.665 3945.415, 2098.470 3945, 2102.921 3945 C 2106.726 3945, 2108.253 3945.525, 2110.251 3947.524 C 2114.333 3951.606, 2115 3956.834, 2115 3984.743 C 2115 4003.521, 2115.329 4010.929, 2116.200 4011.800 C 2117.455 4013.055, 2133.470 4013.524, 2136.418 4012.393 C 2137.808 4011.860, 2138 4008.424, 2138 3984.105 L 2138 3956.425 2142.750 3951.828 C 2148.625 3946.142, 2150.807 3945, 2155.788 3945 C 2160.666 3945, 2164.402 3948.184, 2165.914 3953.627 C 2166.556 3955.940, 2166.991 3968.196, 2166.994 3984.050 C 2166.998 4003.360, 2167.327 4010.927, 2168.200 4011.800 C 2168.960 4012.560, 2172.784 4013, 2178.629 4013 C 2185.925 4013, 2188.208 4012.650, 2189.531 4011.326 C 2191.045 4009.812, 2191.163 4006.669, 2190.762 3978.576 C 2190.258 3943.271, 2189.754 3940.411, 2182.621 3932.306 C 2177.038 3925.964, 2172.377 3924.047, 2162.500 3924.032 C 2153.173 3924.018, 2146.842 3926.434, 2138.996 3933.003 L 2134.245 3936.981 2131.963 3933.650 C 2129.239 3929.675, 2124.560 3926.308, 2119.905 3924.973 C 2114.976 3923.559, 2103.135 3923.909, 2098.500 3925.604 M 2336.041 3926.561 C 2333.038 3927.958, 2328.651 3930.684, 2326.291 3932.618 L 2322 3936.134 2322 3931.767 C 2322 3929.365, 2321.460 3926.860, 2320.800 3926.200 C 2320.077 3925.477, 2316.578 3925, 2312 3925 C 2307.422 3925, 2303.923 3925.477, 2303.200 3926.200 C 2302.305 3927.095, 2302 3937.978, 2302 3969 C 2302 4000.022, 2302.305 4010.905, 2303.200 4011.800 C 2304.828 4013.428, 2322.172 4013.428, 2323.800 4011.800 C 2324.674 4010.926, 2325 4003.247, 2325 3983.512 L 2325 3956.425 2329.750 3951.828 C 2332.363 3949.300, 2335.483 3946.729, 2336.684 3946.116 C 2339.835 3944.506, 2346.680 3944.744, 2349.450 3946.559 C 2354.399 3949.802, 2355 3953.742, 2355 3982.949 C 2355 4006.078, 2355.221 4010.078, 2356.571 4011.429 C 2358.602 4013.459, 2374.695 4013.675, 2377.385 4011.708 C 2379.024 4010.509, 2379.126 4008.099, 2378.794 3978.458 C 2378.454 3948.106, 2378.323 3946.216, 2376.186 3940.857 C 2373.472 3934.049, 2366.076 3926.670, 2360.382 3925.089 C 2358.247 3924.496, 2353.125 3924.013, 2349 3924.015 C 2343.073 3924.019, 2340.355 3924.552, 2336.041 3926.561 M 2481.863 3925.516 C 2466.532 3930.404, 2456.766 3945.116, 2455.321 3965.500 C 2453.536 3990.655, 2463.257 4007.516, 2482.500 4012.644 C 2489.101 4014.403, 2508.731 4014.340, 2517.259 4012.533 C 2527.452 4010.373, 2529.346 4009.186, 2530.374 4004.315 C 2531.462 3999.158, 2530.417 3993.097, 2528.300 3992.285 C 2527.425 3991.949, 2522.999 3992.648, 2518.464 3993.837 C 2508.832 3996.364, 2494.741 3996.754, 2489.671 3994.636 C 2483.794 3992.180, 2479.023 3984.404, 2479.006 3977.250 L 2479 3975 2504.845 3975 C 2536.575 3975, 2534.469 3976.070, 2533.807 3960.278 C 2533.427 3951.210, 2532.909 3948.509, 2530.542 3943.253 C 2527.310 3936.074, 2521.190 3929.884, 2514.176 3926.699 C 2508.079 3923.930, 2489.024 3923.233, 2481.863 3925.516 M 2570 3924.883 C 2561.415 3927.682, 2553.424 3934.536, 2550.207 3941.860 C 2547.683 3947.608, 2547.998 3961.398, 2550.774 3966.682 C 2551.983 3968.982, 2553.465 3971.169, 2554.068 3971.542 C 2554.779 3971.981, 2554.297 3973.147, 2552.696 3974.860 C 2545.230 3982.847, 2544.408 3994.334, 2550.848 4000.681 L 2553.637 4003.430 2550.203 4006.864 C 2540.029 4017.038, 2540.887 4032.468, 2552 4039.204 C 2558.906 4043.390, 2566.823 4045, 2580.500 4045 C 2597.391 4045, 2607.150 4042.197, 2615.361 4034.988 C 2621.557 4029.548, 2624.544 4020.253, 2622.902 4011.523 C 2621.471 4003.917, 2618.107 3999.670, 2610.574 3995.962 C 2604.323 3992.884, 2603.414 3992.729, 2587.529 3992.030 C 2573.652 3991.420, 2570.671 3991.012, 2568.996 3989.496 C 2564.836 3985.731, 2567.431 3980.073, 2572.443 3981.979 C 2576.396 3983.481, 2589.891 3983.221, 2595.576 3981.533 C 2602.189 3979.569, 2608.446 3974.802, 2611.703 3969.245 C 2615.169 3963.329, 2616.269 3949.586, 2613.602 3945.515 L 2611.954 3943 2617.438 3943 L 2622.923 3943 2624.012 3938.957 C 2624.685 3936.457, 2624.784 3933.307, 2624.271 3930.707 L 2623.442 3926.500 2609.471 3925.817 C 2576.630 3924.210, 2572.375 3924.109, 2570 3924.883 M 2671.500 3925.157 C 2670.400 3925.759, 2667.137 3928.543, 2664.250 3931.342 L 2659 3936.432 2659 3931.916 C 2659 3929.432, 2658.460 3926.860, 2657.800 3926.200 C 2657.077 3925.477, 2653.578 3925, 2649 3925 C 2644.422 3925, 2640.923 3925.477, 2640.200 3926.200 C 2639.305 3927.095, 2639 3937.978, 2639 3969 C 2639 4000.022, 2639.305 4010.905, 2640.200 4011.800 C 2640.958 4012.558, 2644.756 4013, 2650.500 4013 C 2656.244 4013, 2660.042 4012.558, 2660.800 4011.800 C 2661.671 4010.929, 2662 4003.553, 2662 3984.890 L 2662 3959.180 2666.010 3954.106 C 2672.072 3946.438, 2673.799 3945.601, 2682.001 3946.363 C 2690.486 3947.152, 2691 3946.536, 2691 3935.566 C 2691 3925.435, 2689.652 3923.988, 2680.250 3924.030 C 2676.537 3924.047, 2672.600 3924.554, 2671.500 3925.157 M 2717.928 3925.002 C 2711.191 3926.686, 2703.271 3930.043, 2701.551 3931.943 C 2699.234 3934.504, 2698.494 3940.936, 2699.993 3945.480 C 2701.121 3948.896, 2701.471 3949.155, 2704.359 3948.712 C 2706.087 3948.448, 2710.425 3946.964, 2714 3945.414 C 2718.734 3943.362, 2722.615 3942.487, 2728.284 3942.191 C 2740.924 3941.532, 2744.289 3944.098, 2745.619 3955.414 L 2746.275 3961 2735.388 3961.015 C 2708.777 3961.051, 2695 3970.120, 2695 3987.602 C 2695 3995.248, 2696.647 4000.228, 2700.768 4005.042 C 2706.774 4012.059, 2710.733 4013.500, 2724 4013.500 C 2734.152 4013.500, 2736.027 4013.223, 2740 4011.137 C 2742.475 4009.838, 2745.512 4007.847, 2746.750 4006.713 L 2749 4004.651 2749 4007.626 C 2749 4012.177, 2750.556 4013, 2759.165 4013 C 2766.019 4013, 2767.061 4012.755, 2768.049 4010.909 C 2768.832 4009.446, 2769.049 3999.306, 2768.771 3977.159 C 2768.435 3950.367, 2768.112 3944.819, 2766.668 3941.069 C 2764.055 3934.284, 2760.572 3930.428, 2754.258 3927.328 C 2748.889 3924.691, 2747.587 3924.487, 2735 3924.304 C 2727.575 3924.197, 2719.893 3924.511, 2717.928 3925.002 M 2920.500 3924.934 C 2901.154 3929.639, 2889.967 3946.519, 2890.015 3970.934 C 2890.053 3990.609, 2897.436 4004.092, 2911.880 4010.865 C 2917.142 4013.332, 2918.423 4013.500, 2932 4013.500 C 2946.225 4013.500, 2946.628 4013.440, 2953.225 4010.314 C 2964.983 4004.744, 2972.356 3994.923, 2975.032 3981.268 C 2976.806 3972.214, 2975.849 3953.922, 2973.253 3947.277 C 2966.877 3930.954, 2954.976 3923.902, 2934.145 3924.102 C 2928.290 3924.159, 2922.150 3924.533, 2920.500 3924.934 M 3027.041 3926.561 C 3024.038 3927.958, 3019.651 3930.684, 3017.291 3932.618 L 3013 3936.134 3013 3931.767 C 3013 3929.365, 3012.460 3926.860, 3011.800 3926.200 C 3011.077 3925.477, 3007.578 3925, 3003 3925 C 2998.422 3925, 2994.923 3925.477, 2994.200 3926.200 C 2993.305 3927.095, 2993 3937.978, 2993 3969 C 2993 4000.022, 2993.305 4010.905, 2994.200 4011.800 C 2995.828 4013.428, 3013.172 4013.428, 3014.800 4011.800 C 3015.674 4010.926, 3016 4003.247, 3016 3983.512 L 3016 3956.425 3020.750 3951.828 C 3023.363 3949.300, 3026.483 3946.729, 3027.684 3946.116 C 3030.835 3944.506, 3037.680 3944.744, 3040.450 3946.559 C 3045.399 3949.802, 3046 3953.742, 3046 3982.949 C 3046 4006.078, 3046.221 4010.078, 3047.571 4011.429 C 3049.602 4013.459, 3065.695 4013.675, 3068.385 4011.708 C 3070.024 4010.509, 3070.126 4008.099, 3069.794 3978.458 C 3069.454 3948.106, 3069.323 3946.216, 3067.186 3940.857 C 3064.472 3934.049, 3057.076 3926.670, 3051.382 3925.089 C 3049.247 3924.496, 3044.125 3924.013, 3040 3924.015 C 3034.073 3924.019, 3031.355 3924.552, 3027.041 3926.561 M 1242.250 3925.662 C 1241.563 3925.940, 1241 3927.522, 1241 3929.178 C 1241 3930.834, 1245.991 3949.584, 1252.090 3970.844 C 1260.136 3998.886, 1263.736 4009.981, 1265.201 4011.250 C 1266.866 4012.692, 1269.191 4013, 1278.420 4013 C 1285.967 4013, 1290.191 4012.581, 1291.376 4011.714 C 1292.595 4010.823, 1295.084 4002.758, 1299.477 3985.464 C 1302.964 3971.734, 1305.859 3960.828, 1305.909 3961.230 C 1305.959 3961.631, 1308.434 3970.856, 1311.410 3981.730 C 1314.385 3992.603, 1317.322 4003.392, 1317.936 4005.705 C 1319.775 4012.630, 1320.585 4013, 1333.916 4013 C 1343.881 4013, 1345.935 4012.730, 1347.281 4011.241 C 1348.592 4009.794, 1366.857 3949.467, 1371.048 3932.747 C 1372.816 3925.693, 1371.863 3925, 1360.401 3925 C 1351.784 3925, 1350.935 3925.177, 1349.637 3927.250 C 1348.862 3928.488, 1345.224 3941.348, 1341.553 3955.828 C 1337.882 3970.308, 1334.546 3983.053, 1334.140 3984.150 C 1333.631 3985.527, 1330.989 3977.065, 1325.610 3956.822 C 1321.325 3940.695, 1317.354 3926.938, 1316.787 3926.250 C 1315.203 3924.331, 1297.626 3924.541, 1296.001 3926.499 C 1295.317 3927.323, 1291.495 3940.935, 1287.507 3956.749 C 1283.519 3972.562, 1279.982 3984.825, 1279.647 3984 C 1279.311 3983.175, 1275.690 3969.949, 1271.600 3954.609 C 1267.510 3939.270, 1263.564 3926.339, 1262.831 3925.875 C 1261.422 3924.981, 1244.374 3924.805, 1242.250 3925.662 M 1745.571 3926.572 C 1744.508 3927.635, 1744.210 3929.013, 1744.653 3930.822 C 1746.181 3937.069, 1773.989 4010.496, 1774.948 4010.816 C 1776.603 4011.368, 1776.332 4012.363, 1770.502 4027.172 C 1763.442 4045.105, 1763.404 4045, 1776.924 4045 C 1784.845 4045, 1787.205 4044.654, 1788.954 4043.238 C 1790.565 4041.934, 1795.917 4027.246, 1809.565 3986.671 C 1819.704 3956.529, 1828 3930.862, 1828 3929.633 C 1828 3928.405, 1827.460 3926.860, 1826.800 3926.200 C 1825.125 3924.525, 1807.587 3924.567, 1806.256 3926.250 C 1805.712 3926.938, 1801.567 3939.425, 1797.046 3954 C 1792.525 3968.575, 1788.527 3980.813, 1788.163 3981.195 C 1787.798 3981.577, 1783.276 3969.652, 1778.113 3954.695 C 1772.950 3939.738, 1768.026 3926.938, 1767.172 3926.250 C 1764.755 3924.306, 1747.580 3924.562, 1745.571 3926.572 M 1564.290 3942.965 C 1560.608 3945.210, 1557.348 3950.970, 1556.399 3956.908 L 1555.744 3961 1572.433 3961 L 1589.123 3961 1588.430 3956.250 C 1587.484 3949.764, 1584.567 3944.344, 1581.040 3942.521 C 1576.819 3940.338, 1568.225 3940.566, 1564.290 3942.965 M 1998.290 3942.965 C 1994.608 3945.210, 1991.348 3950.970, 1990.399 3956.908 L 1989.744 3961 2006.433 3961 L 2023.123 3961 2022.430 3956.250 C 2021.484 3949.764, 2018.567 3944.344, 2015.040 3942.521 C 2010.819 3940.338, 2002.225 3940.566, 1998.290 3942.965 M 2487.290 3942.965 C 2483.608 3945.210, 2480.348 3950.970, 2479.399 3956.908 L 2478.744 3961 2495.433 3961 L 2512.123 3961 2511.430 3956.250 C 2510.484 3949.764, 2507.567 3944.344, 2504.040 3942.521 C 2499.819 3940.338, 2491.225 3940.566, 2487.290 3942.965 M 2573.770 3942.966 C 2567.834 3947.636, 2567.386 3958.275, 2572.917 3963.218 C 2575.449 3965.480, 2576.972 3966, 2581.065 3966 C 2587.841 3966, 2591.387 3963.989, 2593.376 3959.018 C 2595.287 3954.242, 2595.317 3953.683, 2593.933 3948.698 C 2592.533 3943.657, 2588.214 3941.009, 2581.385 3941.004 C 2577.809 3941.001, 2575.518 3941.592, 2573.770 3942.966 M 1062.984 3944.857 C 1060.574 3946.142, 1058.576 3948.509, 1056.500 3952.538 C 1053.696 3957.981, 1053.500 3959.087, 1053.506 3969.431 C 1053.512 3979.220, 1053.801 3981.078, 1056.006 3985.499 C 1059.552 3992.606, 1063.582 3995, 1072 3995 C 1080.415 3995, 1084.445 3992.607, 1088 3985.499 C 1090.250 3981, 1090.500 3979.300, 1090.500 3968.500 C 1090.500 3957.556, 1090.280 3956.107, 1088 3952.039 C 1084.332 3945.494, 1080.080 3943, 1072.587 3943 C 1068.543 3943, 1065.287 3943.630, 1062.984 3944.857 M 2923.984 3944.857 C 2921.574 3946.142, 2919.576 3948.509, 2917.500 3952.538 C 2914.696 3957.981, 2914.500 3959.087, 2914.506 3969.431 C 2914.512 3979.220, 2914.801 3981.078, 2917.006 3985.499 C 2920.552 3992.606, 2924.582 3995, 2933 3995 C 2941.415 3995, 2945.445 3992.607, 2949 3985.499 C 2951.250 3981, 2951.500 3979.300, 2951.500 3968.500 C 2951.500 3957.556, 2951.280 3956.107, 2949 3952.039 C 2945.332 3945.494, 2941.080 3943, 2933.587 3943 C 2929.543 3943, 2926.287 3943.630, 2923.984 3944.857 M 1415.500 3975.971 C 1408.780 3976.751, 1403.573 3979.060, 1402.030 3981.945 C 1399.991 3985.755, 1400.802 3990.956, 1403.923 3994.077 C 1406.424 3996.577, 1407.616 3996.999, 1412.173 3996.996 C 1417.889 3996.992, 1421.473 3995.340, 1426.250 3990.509 C 1428.671 3988.061, 1429 3986.965, 1429 3981.364 L 1429 3975 1425.250 3975.137 C 1423.188 3975.212, 1418.800 3975.587, 1415.500 3975.971 M 2732.500 3975.971 C 2725.780 3976.751, 2720.573 3979.060, 2719.030 3981.945 C 2716.991 3985.755, 2717.802 3990.956, 2720.923 3994.077 C 2723.424 3996.577, 2724.616 3996.999, 2729.173 3996.996 C 2734.889 3996.992, 2738.473 3995.340, 2743.250 3990.509 C 2745.671 3988.061, 2746 3986.965, 2746 3981.364 L 2746 3975 2742.250 3975.137 C 2740.188 3975.212, 2735.800 3975.587, 2732.500 3975.971 M 2568.448 4012.899 C 2564.999 4018.110, 2565.336 4023.436, 2569.301 4026.384 C 2572.678 4028.895, 2585.133 4029.876, 2591.066 4028.098 C 2597.873 4026.059, 2601.744 4019.127, 2598.970 4013.945 C 2596.971 4010.209, 2592.714 4009, 2581.564 4009 L 2571.028 4009 2568.448 4012.899" stroke="none" fill="#d41c23" fill-rule="evenodd"/></svg>