<svg width="478" height="98" viewBox="0 0 478 98" fill="none" xmlns="http://www.w3.org/2000/svg">
<path d="M129.204 49.9581C129.204 30.6476 141.65 17.373 159.891 17.373C178.132 17.373 190.578 30.8557 190.578 49.9581C190.578 69.0604 178.248 82.5431 159.891 82.5431C141.534 82.5431 129.204 69.0604 129.204 49.9581ZM179.92 49.9581C179.92 37.9555 170.651 26.5044 159.914 26.5044C149.177 26.5044 140.024 38.3024 140.024 49.9581C140.024 61.6137 149.293 73.4118 159.914 73.4118C170.536 73.4118 179.92 61.4981 179.92 49.9581Z" fill="#302080"/>
<path d="M191.86 35.7224H201.697L212.752 67.5454L223.724 35.7224H233.561L217.621 79.685H207.784L191.844 35.7224H191.86Z" fill="#302080"/>
<path d="M256.031 71.6658C260.834 71.6658 264.404 69.475 266.279 65.3901L275.952 68.322C272.613 76.2943 265.062 80.8569 256.525 80.8569C243.266 80.8569 234.169 71.501 234.169 58.1426C234.169 43.73 243.118 34.4565 256.031 34.4565C269.602 34.4565 277.58 44.5536 276.445 60.4322H244.746C245.487 67.6796 249.385 71.6658 256.048 71.6658H256.031ZM244.977 52.9541H266.526C265.638 46.1184 262.463 43.0217 256.442 43.0217C249.862 43.0217 246.112 46.4478 244.977 52.9541Z" fill="#302080"/>
<path d="M305.841 35.3213V44.43C303.242 43.6888 299.508 43.9359 296.728 45.4842C292.747 47.6914 290.954 51.8257 290.954 56.9649V79.2673H281.117V35.3213H289.819V42.3217C290.871 40.4439 292.336 38.7473 294.211 37.5943C297.386 35.4036 301.926 34.6624 305.841 35.3213Z" fill="#302080"/>
<path d="M327.226 61.3873C327.226 64.8134 327.061 67.5806 328.114 69.2772C330.072 72.4562 334.612 72.4562 340.139 71.6326V79.8519C331.437 81.565 322.587 80.7414 319.165 74.4822C317.126 70.6608 317.455 66.9053 317.455 61.865V43.5486H309.493V35.8894H317.455V23.7004H327.209V35.9059H340.139V43.5651H327.209V61.3873H327.226Z" fill="#302080"/>
<path d="M342.195 57.6649C342.195 43.9112 351.062 34.4565 364.057 34.4565C377.052 34.4565 385.919 44.0595 385.919 57.6649C385.919 71.2704 377.135 80.8733 364.057 80.8733C350.979 80.8733 342.195 71.2704 342.195 57.6649ZM375.621 57.6649C375.621 49.1162 371.723 43.6641 364.073 43.6641C356.424 43.6641 352.608 49.3633 352.608 57.6649C352.608 65.9666 356.506 71.6658 364.073 71.6658C371.64 71.6658 375.621 65.8842 375.621 57.6649Z" fill="#302080"/>
<path d="M430.794 55.0624V79.6545H420.875V58.4885C420.875 53.0364 419.986 43.6641 410.544 43.6641C405.593 43.6641 400.296 46.349 400.296 57.0226V79.6545H390.377V35.6919H399.161V40.5675C402.336 36.7461 407.123 34.4565 413.472 34.4565C429.643 34.4565 430.794 49.841 430.794 55.046V55.0624Z" fill="#302080"/>
<path d="M457.492 71.6658C462.296 71.6658 465.865 69.475 467.74 65.3901L477.413 68.322C474.074 76.2943 466.523 80.8569 457.986 80.8569C444.727 80.8569 435.63 71.501 435.63 58.1426C435.63 43.73 444.579 34.4565 457.492 34.4565C471.063 34.4565 479.042 44.5536 477.89 60.4322H446.191C446.931 67.6796 450.83 71.6658 457.492 71.6658ZM446.421 52.9541H467.971C467.082 46.1184 463.908 43.0217 457.887 43.0217C451.307 43.0217 447.557 46.4478 446.421 52.9541Z" fill="#302080"/>
<g clip-path="url(#clip0_860_2636)">
<path d="M48.3579 6.32123C26.2124 6.32123 8.01507 23.3008 6.17456 44.9517C8.19319 43.6467 10.3602 42.4603 12.5867 41.3481C15.956 24.6948 30.6801 12.164 48.3283 12.164C65.6944 12.164 80.2255 24.2944 83.8917 40.5177C86.1627 41.5706 88.3446 42.7421 90.4226 43.9878C88.1219 22.7966 70.1769 6.3064 48.3579 6.3064V6.32123Z" fill="url(#paint0_linear_860_2636)"/>
<path d="M48.3283 6.3064C70.1473 6.3064 88.0923 22.7966 90.393 43.9878C92.7381 45.4114 94.9646 46.9388 97.0277 48.57C97.0129 21.8179 75.2978 0.122559 48.5064 0.122559C21.7151 0.122559 0 21.8179 0 48.5849C0 48.8814 0 49.178 0 49.4598C1.91473 47.8582 3.97788 46.3456 6.15978 44.9517C8.0003 23.3008 26.1679 6.3064 48.3135 6.3064H48.3283Z" fill="url(#paint1_linear_860_2636)"/>
<path d="M48.2837 12.1641C30.6355 12.1641 15.9263 24.7097 12.5718 41.363C15.0654 40.1174 17.6332 38.9903 20.3494 38.0116C24.6984 26.8303 35.5634 18.9114 48.2985 18.9114C60.7962 18.9114 72.0322 27.0379 76.5296 37.893C79.2607 38.8124 81.3387 39.3611 83.862 40.5326C80.181 24.2945 65.6647 12.1789 48.2985 12.1789L48.2837 12.1641Z" fill="url(#paint2_linear_860_2636)"/>
<path d="M72.6408 21.4769C80.4927 28.1649 85.4947 37.9819 85.4947 49.1039C85.4947 69.2274 69.1676 85.5396 49.0258 85.5396C45.1519 85.5396 41.4263 84.9316 37.9234 83.8194C35.786 85.2134 33.6041 86.4591 31.3777 87.5268C36.7508 90.0033 42.7473 91.3824 49.0555 91.3824C72.4182 91.3824 91.3725 72.4602 91.3725 49.1039C91.3725 34.5564 84.0104 21.7141 72.8041 14.1067C72.8635 16.4942 72.8041 19.03 72.6408 21.4917V21.4769Z" fill="url(#paint3_linear_860_2636)"/>
<path d="M72.2105 6.29168C72.5519 8.79784 72.73 11.4671 72.8042 14.0919C85.2277 22.5298 92.7679 37.3147 91.1648 53.3007C88.8345 76.5383 68.099 93.4734 44.8403 91.1452C40.046 90.6706 35.519 89.3953 31.3778 87.4972C28.9139 88.6835 26.4203 89.6623 23.9119 90.4185C31.2888 94.9415 39.957 97.5515 49.2486 97.5515C76.04 97.5515 97.7551 75.8561 97.7551 49.0892C97.7551 30.6118 87.4244 14.4627 72.2105 6.27686V6.29168Z" fill="url(#paint4_linear_860_2636)"/>
<path d="M78.9789 49.4598C78.9789 65.9945 65.561 79.4002 49.0112 79.4002C47.4527 79.4002 45.9239 79.2816 44.4248 79.0443C42.3171 80.8387 40.15 82.3364 37.9236 83.8045C41.4265 84.9167 45.1521 85.5247 49.026 85.5247C69.1678 85.5247 85.4801 69.3311 85.4801 49.2225C85.6137 38.0115 80.4929 28.1648 72.641 21.4768C72.4629 24.2351 72.0918 27.2158 71.602 30.0333C76.1736 35.2829 78.8156 42.0006 78.9789 49.4746V49.4598Z" fill="url(#paint5_linear_860_2636)"/>
<path d="M6.17467 44.9517C6.05592 46.3456 6.10045 47.962 6.11529 49.3857C6.35278 72.4601 25.4852 90.9671 48.5065 91.3824C55.4678 91.5158 61.969 90.0032 67.7577 87.0225C65.5016 86.0438 63.3048 84.8278 61.1081 83.508C57.1599 84.9761 52.8703 85.6582 48.4174 85.5693C36.365 85.3172 25.4407 79.2075 18.6723 70.0874C14.3976 63.8294 11.8001 57.527 11.6665 49.4598C11.6665 46.7905 12.1563 43.9581 12.6016 41.3481C12.6016 41.3481 11.4587 41.9117 9.95959 42.7273C9.23229 43.1128 8.29719 43.6615 7.56989 44.1064C6.78322 44.5809 6.20435 44.9517 6.20435 44.9517H6.17467Z" fill="url(#paint6_linear_860_2636)"/>
<path d="M0 49.4598C0 49.7564 0 49.9343 0 49.9343C0 76.7013 21.8042 97.8776 48.5955 97.8776C58.5996 97.8776 67.8615 94.7634 75.654 89.7363C73.012 89.0986 70.3254 88.1495 67.7279 87.0225C61.9392 90.0032 55.3638 91.4268 48.4025 91.3823C41.5451 90.9819 38.6508 90.3888 32.1645 87.8826C26.257 85.2875 21.6112 81.9954 17.4255 77.3834C10.7908 70.0726 6.234 60.1814 6.05588 49.2373C6.05588 47.0278 6.07073 46.4939 6.1301 44.9517C6.1301 44.9517 4.45286 46.0194 3.117 47.0129C1.88504 47.9027 0 49.4598 0 49.4598Z" fill="url(#paint7_linear_860_2636)"/>
<path d="M12.5718 41.363C12.5718 41.363 11.6367 46.4049 11.6367 48.9556C11.6367 69.079 28.8099 85.5841 48.9368 85.5841C53.3897 85.5841 57.1301 84.9909 61.0783 83.5228C58.8222 82.1585 56.6106 80.6311 54.4583 78.9257C52.4991 79.3261 51.0148 79.3261 48.9368 79.3261C32.387 79.3261 18.9691 65.9204 18.9691 49.3856C18.9691 45.3669 19.3995 40.8439 20.6463 37.2256L12.557 41.363H12.5718Z" fill="url(#paint8_linear_860_2636)"/>
</g>
<defs>
<linearGradient id="paint0_linear_860_2636" x1="6.5011" y1="22.5" x2="89.915" y2="34.2956" gradientUnits="userSpaceOnUse">
<stop stop-color="#8070CD"/>
<stop offset="0.33" stop-color="#7E6ECA"/>
<stop offset="0.5" stop-color="#7968C2"/>
<stop offset="0.63" stop-color="#715FB5"/>
<stop offset="0.75" stop-color="#6552A2"/>
<stop offset="0.85" stop-color="#564189"/>
<stop offset="0.94" stop-color="#442C6B"/>
<stop offset="0.98" stop-color="#3B225D"/>
</linearGradient>
<linearGradient id="paint1_linear_860_2636" x1="2.89436" y1="14.8184" x2="56.3309" y2="35.4342" gradientUnits="userSpaceOnUse">
<stop stop-color="#5947B2"/>
<stop offset="0.45" stop-color="#5745AF"/>
<stop offset="0.68" stop-color="#5140A8"/>
<stop offset="0.85" stop-color="#46389A"/>
<stop offset="1" stop-color="#392E89"/>
</linearGradient>
<linearGradient id="paint2_linear_860_2636" x1="13.1506" y1="23.4937" x2="83.3833" y2="35.6604" gradientUnits="userSpaceOnUse">
<stop stop-color="#B5ADD9"/>
<stop offset="0.32" stop-color="#B2AAD8"/>
<stop offset="0.49" stop-color="#ABA2D5"/>
<stop offset="0.62" stop-color="#9F95CF"/>
<stop offset="0.74" stop-color="#8E81C8"/>
<stop offset="0.85" stop-color="#7769BF"/>
<stop offset="0.94" stop-color="#5C4AB3"/>
<stop offset="0.95" stop-color="#5947B2"/>
</linearGradient>
<linearGradient id="paint3_linear_860_2636" x1="57.2933" y1="85.3172" x2="74.1117" y2="27.7859" gradientUnits="userSpaceOnUse">
<stop offset="0.09" stop-color="#1F8C9B"/>
<stop offset="0.15" stop-color="#339CAC"/>
<stop offset="0.23" stop-color="#4AAEBF"/>
<stop offset="0.33" stop-color="#5BBCCE"/>
<stop offset="0.45" stop-color="#67C6D9"/>
<stop offset="0.61" stop-color="#6ECCDF"/>
<stop offset="1" stop-color="#71CEE1"/>
</linearGradient>
<linearGradient id="paint4_linear_860_2636" x1="56.67" y1="93.9331" x2="70.5534" y2="20.8643" gradientUnits="userSpaceOnUse">
<stop offset="0.16" stop-color="#176D74"/>
<stop offset="0.23" stop-color="#1C828F"/>
<stop offset="0.3" stop-color="#2193A5"/>
<stop offset="0.39" stop-color="#24A0B6"/>
<stop offset="0.49" stop-color="#27AAC3"/>
<stop offset="0.63" stop-color="#28AFCA"/>
<stop offset="1" stop-color="#29B1CC"/>
</linearGradient>
<linearGradient id="paint5_linear_860_2636" x1="50.2135" y1="82.1733" x2="77.491" y2="43.2526" gradientUnits="userSpaceOnUse">
<stop offset="0.13" stop-color="#2D95A0"/>
<stop offset="0.18" stop-color="#3FA0AB"/>
<stop offset="0.27" stop-color="#5FB5BF"/>
<stop offset="0.38" stop-color="#7AC6D0"/>
<stop offset="0.49" stop-color="#8FD4DC"/>
<stop offset="0.61" stop-color="#9DDDE6"/>
<stop offset="0.76" stop-color="#A6E3EB"/>
<stop offset="1" stop-color="#A9E5ED"/>
</linearGradient>
<linearGradient id="paint6_linear_860_2636" x1="4.25994" y1="43.098" x2="47.9611" y2="87.8483" gradientUnits="userSpaceOnUse">
<stop offset="0.04" stop-color="#6D2E87"/>
<stop offset="0.08" stop-color="#7B3B94"/>
<stop offset="0.17" stop-color="#914FAA"/>
<stop offset="0.27" stop-color="#A25FBB"/>
<stop offset="0.4" stop-color="#AF6AC7"/>
<stop offset="0.57" stop-color="#B671CE"/>
<stop offset="1" stop-color="#B873D0"/>
</linearGradient>
<linearGradient id="paint7_linear_860_2636" x1="-3.6365" y1="51.7435" x2="49.5118" y2="90.5535" gradientUnits="userSpaceOnUse">
<stop stop-color="#611F7C"/>
<stop offset="0.08" stop-color="#712B8C"/>
<stop offset="0.18" stop-color="#81379D"/>
<stop offset="0.31" stop-color="#8D40A9"/>
<stop offset="0.49" stop-color="#9445B0"/>
<stop offset="1" stop-color="#9647B2"/>
</linearGradient>
<linearGradient id="paint8_linear_860_2636" x1="13.0468" y1="42.6086" x2="51.224" y2="91.4013" gradientUnits="userSpaceOnUse">
<stop stop-color="#9A62BF"/>
<stop offset="0.05" stop-color="#A471C4"/>
<stop offset="0.13" stop-color="#B387CC"/>
<stop offset="0.23" stop-color="#BF98D1"/>
<stop offset="0.35" stop-color="#C7A4D5"/>
<stop offset="0.52" stop-color="#CBABD8"/>
<stop offset="1" stop-color="#CDADD9"/>
</linearGradient>
<clipPath id="clip0_860_2636">
<rect width="97.755" height="97.755" fill="white" transform="translate(0 0.122559)"/>
</clipPath>
</defs>
</svg>
