<?xml version="1.0" encoding="utf-8"?>
<!-- Generator: Adobe Illustrator 26.0.2, SVG Export Plug-In . SVG Version: 6.00 Build 0)  -->
<svg version="1.1" id="Layer_1" xmlns="http://www.w3.org/2000/svg" xmlns:xlink="http://www.w3.org/1999/xlink" x="0px" y="0px"
	 viewBox="0 0 2525.5 800" style="enable-background:new 0 0 2525.5 800;" xml:space="preserve">
<style type="text/css">
	.st0{fill:#0756C3;}
	.st1{fill:#6390E7;}
	.st2{fill:#18181A;}
</style>
<g>
	<g>
		<g>
			<path class="st0" d="M541.3,572.3c-20.2,0-40.5-11-51.4-29.7l-75.9-135.1L338,542.6c-16,28.9-52.3,38.2-80.1,22.1
				C229.2,548.6,220,512,236,484l125.7-226.8c11-17.8,30.4-29.7,51.4-29.7c21.1,0,40.5,11.9,51.4,29.7l127.4,225.9
				c16,28.9,5.9,64.5-21.9,80.7C560.7,569.8,550.5,572.3,541.3,572.3"/>
		</g>
		<g>
			<path class="st1" d="M659.3,572.3H541.2V419.4c0-33.1,26.1-59.4,59-59.4c32.9,0,59,26.3,59,59.4L659.3,572.3L659.3,572.3z"/>
		</g>
		<g>
			<path class="st1" d="M600.3,346.4c32.6,0,59-26.6,59-59.4s-26.4-59.4-59-59.4s-59,26.6-59,59.4
				C541.2,319.8,567.7,346.4,600.3,346.4"/>
		</g>
	</g>
	<path id="PARTNERSHIPONAI" class="st2" d="M853,452.9V416h11.7c5.1,0,9.9-0.6,14.6-1.7c4.7-1.1,8.8-2.9,12.4-5.2
		c3.6-2.4,6.4-5.5,8.6-9.5c2.1-3.9,3.2-8.7,3.2-14.4c0-5.6-1-10.3-3-14.1c-2-3.8-4.7-6.9-8.1-9.2c-3.4-2.3-7.5-4-12.1-5.1
		s-9.6-1.6-15-1.6l0,0h-35.9v97.7L853,452.9L853,452.9z M862.9,397.2H853v-23h10.3c2.1,0,4.2,0.1,6.1,0.4c2,0.3,3.7,0.8,5.3,1.7
		c1.6,0.8,2.8,2,3.7,3.5c0.9,1.5,1.4,3.4,1.4,5.7c0,2.3-0.5,4.2-1.4,5.7c-0.9,1.5-2.2,2.7-3.8,3.7c-1.6,0.9-3.4,1.6-5.5,1.9
		C867.2,397.1,865.1,397.2,862.9,397.2L862.9,397.2z M926.7,452.9l7.2-19.2h37.8l7.6,19.2h26.2l-40.6-97.8H942l-41,97.7h25.7V452.9z
		 M965.2,414.8h-24.6l12.4-33.5L965.2,414.8z M1040.3,452.9v-38.8h8l21.1,38.8h27.6l-25.5-41.8c6.3-1.9,11.3-5.2,14.9-9.7
		c3.6-4.5,5.4-10.1,5.4-16.7c0-5.6-1.1-10.3-3.2-14.1c-2.1-3.8-4.9-6.8-8.5-9.1c-3.5-2.3-7.5-3.9-12-4.9s-9-1.4-13.7-1.4l0,0h-37.3
		v97.7L1040.3,452.9L1040.3,452.9z M1051.3,397h-11.2v-22.8h12.6c1.7,0,3.6,0.1,5.5,0.4c1.9,0.3,3.6,0.8,5.1,1.6
		c1.5,0.8,2.8,1.9,3.7,3.3c1,1.4,1.4,3.3,1.4,5.6c0,2.5-0.5,4.5-1.6,6.1s-2.4,2.8-4.1,3.6c-1.7,0.8-3.5,1.4-5.5,1.7
		C1055.2,396.8,1053.3,397,1051.3,397L1051.3,397z M1152.4,452.9v-77.6h27.6v-20.1h-78.8v20.1h27.6v77.6H1152.4z M1217.1,452.9
		l-0.6-63.9h0.4l39.3,63.9h26.8v-97.7h-22.9l0.6,63.8h-0.4l-39.2-63.8h-26.9v97.7L1217.1,452.9L1217.1,452.9z M1375,452.9v-20.1
		h-45.4v-20.3h40.6v-18.9h-40.6v-18.4h42.9v-20h-65.7v97.7L1375,452.9L1375,452.9z M1417.3,452.9v-38.8h8l21.1,38.8h27.6l-25.5-41.8
		c6.3-1.9,11.3-5.2,14.9-9.7c3.6-4.5,5.4-10.1,5.4-16.7c0-5.6-1.1-10.3-3.2-14.1c-2.1-3.8-4.9-6.8-8.5-9.1c-3.5-2.3-7.5-3.9-12-4.9
		s-9-1.4-13.7-1.4l0,0h-37.3v97.7L1417.3,452.9L1417.3,452.9z M1428.3,397h-11.2v-22.8h12.6c1.7,0,3.6,0.1,5.5,0.4
		c1.9,0.3,3.6,0.8,5.1,1.6c1.5,0.8,2.8,1.9,3.7,3.3c1,1.4,1.4,3.3,1.4,5.6c0,2.5-0.5,4.5-1.6,6.1s-2.4,2.8-4.1,3.6
		c-1.7,0.8-3.5,1.4-5.5,1.7C1432.2,396.8,1430.3,397,1428.3,397L1428.3,397z M1517.7,455.3c4.8,0,9.4-0.6,13.9-1.9
		c4.5-1.3,8.5-3.3,12-5.9c3.5-2.6,6.3-6,8.3-10.1c2.1-4.1,3.1-8.9,3.1-14.6c0-4.9-1-8.9-2.9-12.2c-1.9-3.3-4.4-6-7.3-8.2
		c-2.9-2.2-6.2-4-9.8-5.3c-3.6-1.3-7-2.6-10.3-3.7c-2.3-0.7-4.4-1.4-6.2-2.1c-1.8-0.7-3.4-1.4-4.8-2.3s-2.3-1.8-3-2.9
		c-0.7-1.1-1-2.5-1-4.1c0-1.9,0.4-3.5,1.3-4.8c0.9-1.2,2-2.3,3.2-3c1.3-0.8,2.7-1.3,4.3-1.6c1.6-0.3,3.2-0.4,4.8-0.4
		c3,0,6.2,0.8,9.5,2.3c3.3,1.5,5.9,3.6,7.9,6.1l0,0l15-15.9c-4.3-4-9.4-6.9-15.1-9c-5.8-2-11.4-3-16.9-3c-4.6,0-9.2,0.6-13.7,1.7
		c-4.5,1.1-8.6,3-12.1,5.5c-3.6,2.5-6.5,5.7-8.7,9.5c-2.2,3.9-3.3,8.5-3.3,13.9c0,4.4,0.7,8.2,2.1,11.2c1.4,3.1,3.3,5.7,5.7,7.9
		c2.3,2.2,5,3.9,8,5.3c3,1.4,6,2.6,9.2,3.6c3.2,1,6.1,2,8.6,2.8c2.5,0.9,4.6,1.8,6.3,2.9c1.7,1.1,3,2.2,3.9,3.5
		c0.9,1.3,1.4,2.9,1.4,4.7c0,1.9-0.4,3.6-1.1,5c-0.7,1.4-1.7,2.5-3,3.3c-1.2,0.8-2.7,1.4-4.3,1.8c-1.7,0.4-3.4,0.6-5.1,0.6
		c-3.9,0-7.8-1-11.7-3c-3.9-2-7.1-4.4-9.5-7.4l0,0l-15.5,15.7c4.3,4.5,9.8,8,16.3,10.4C1503.9,454.1,1510.7,455.3,1517.7,455.3z
		 M1597.9,452.9V412h38.1v40.8h23.6v-97.7H1636v37h-38.1v-37h-23.6v97.7h23.6V452.9z M1706.9,452.9v-97.7h-23.7v97.7L1706.9,452.9
		L1706.9,452.9z M1754.2,452.9V416h11.7c5.1,0,9.9-0.6,14.6-1.7c4.7-1.1,8.8-2.9,12.4-5.2s6.4-5.5,8.6-9.5c2.2-4,3.2-8.7,3.2-14.4
		c0-5.6-1-10.3-3-14.1s-4.7-6.9-8.1-9.2c-3.4-2.3-7.5-4-12.1-5.1c-4.6-1.1-9.6-1.6-15-1.6l0,0h-35.9v97.7L1754.2,452.9L1754.2,452.9
		z M1764.1,397.2h-9.9v-23h10.3c2.1,0,4.2,0.1,6.1,0.4s3.7,0.8,5.3,1.7c1.6,0.8,2.8,2,3.7,3.5c0.9,1.5,1.4,3.4,1.4,5.7
		c0,2.3-0.5,4.2-1.4,5.7c-0.9,1.5-2.2,2.7-3.8,3.7c-1.6,0.9-3.4,1.6-5.5,1.9C1768.4,397.1,1766.3,397.2,1764.1,397.2L1764.1,397.2z
		 M1909.1,455.5c7.6,0,14.7-1.2,21.3-3.7c6.5-2.5,12.2-6,16.9-10.6c4.7-4.6,8.4-10,11.1-16.4c2.7-6.4,4-13.5,4-21.2
		c0-7.8-1.3-14.9-4-21.2c-2.7-6.3-6.4-11.7-11.1-16.1s-10.4-7.8-16.9-10.2c-6.5-2.4-13.6-3.6-21.3-3.6c-7.7,0-14.7,1.2-21.2,3.6
		c-6.5,2.4-12.1,5.8-16.8,10.2c-4.7,4.4-8.4,9.8-11.1,16.1c-2.7,6.3-4,13.4-4,21.2c0,7.7,1.3,14.8,4,21.2
		c2.7,6.4,6.4,11.9,11.1,16.4c4.7,4.6,10.3,8.1,16.8,10.6C1894.4,454.2,1901.4,455.5,1909.1,455.5z M1909.1,433.9
		c-4.1,0-7.9-0.8-11.3-2.3c-3.4-1.5-6.3-3.6-8.8-6.3s-4.3-5.9-5.7-9.6c-1.4-3.7-2.1-7.8-2.1-12.2c0-4.2,0.7-8.2,2-11.9
		c1.3-3.7,3.2-6.8,5.7-9.5c2.5-2.6,5.4-4.7,8.8-6.2c3.4-1.5,7.2-2.3,11.3-2.3s7.9,0.8,11.4,2.3c3.4,1.5,6.4,3.6,8.8,6.2
		c2.4,2.6,4.3,5.8,5.7,9.5c1.4,3.7,2.1,7.6,2.1,11.9c0,4.4-0.7,8.5-2.1,12.2s-3.3,6.9-5.8,9.6s-5.4,4.8-8.8,6.3
		C1917,433.2,1913.2,433.9,1909.1,433.9z M2004.3,452.9l-0.6-63.9h0.4l39.3,63.9h26.8v-97.7h-22.9l0.6,63.8h-0.4l-39.2-63.8h-26.9
		v97.7L2004.3,452.9L2004.3,452.9z M2143.2,452.9l7.2-19.2h37.8l7.6,19.2h26.2l-40.6-97.7h-22.9l-41,97.7L2143.2,452.9L2143.2,452.9
		z M2181.7,414.8h-24.6l12.4-33.5L2181.7,414.8z M2257.4,452.9v-97.7h-23.7v97.7L2257.4,452.9L2257.4,452.9z"/>
</g>
</svg>
