<?xml version="1.0" encoding="utf-8"?>
<!-- Generator: Adobe Illustrator 26.3.1, SVG Export Plug-In . SVG Version: 6.00 Build 0)  -->
<svg version="1.1" id="Layer_1" xmlns="http://www.w3.org/2000/svg" xmlns:xlink="http://www.w3.org/1999/xlink" x="0px" y="0px"
	 viewBox="0 0 612 120.73" style="enable-background:new 0 0 612 120.73;" xml:space="preserve">
<style type="text/css">
	.st0{fill:#2DA2DC;}
	.st1{fill:#4EBBEB;}
	.st2{fill:#0F84C6;}
	.st3{fill:#354255;}
</style>
<g>
	<g>
		<path class="st0" d="M112.33,45.28V81.7l-2.87-1.65l-1.68-0.97c-0.74-0.43-1.19-1.21-1.19-2.06V41.97L112.33,45.28z"/>
		<path class="st1" d="M169.68,41.97l-5.73,3.31l-5.73-3.31l-2.87-1.66L149.61,37l-2.87-1.65l-2.87-1.65l-2.87-1.66l-2.87-1.66
			l-2.87,1.65l-2.87,1.66l-2.87,1.65L126.67,37l-5.73,3.31l-2.87,1.66l-5.74,3.31l-5.73-3.31l2.87-1.65l2.87-1.65l2.87-1.65
			l2.87-1.66l5.73-3.31l2.87-1.65l2.87-1.65l2.87-1.66h0l2.87-1.65l1.68-0.97c0.74-0.43,1.64-0.43,2.38,0l1.68,0.97l5.73,3.31
			l2.87,1.66l2.87,1.65l5.73,3.31l2.87,1.66l2.87,1.65l2.87,1.65L169.68,41.97z"/>
		<polygon class="st0" points="138.14,89.98 138.14,96.6 135.27,94.94 129.53,91.63 129.53,85.01 132.4,86.67 135.27,88.32 		"/>
		<path class="st2" d="M169.68,41.97v35.05c0,0.85-0.45,1.64-1.19,2.06l-7.41,4.28l-2.87,1.66l-5.73,3.31l-2.87,1.65l-2.87,1.65
			l-2.87,1.66l-2.87,1.65l-2.87,1.65v-6.62l2.87-1.65l2.87-1.66h0l2.87-1.65l2.87-1.65l8.6-4.97l2.87-1.66l2.87-1.65v-29.8
			L169.68,41.97z"/>
		<polygon class="st1" points="158.21,48.59 152.47,51.9 149.61,50.24 146.74,48.59 143.87,46.93 138.14,43.62 132.4,46.93 
			129.53,48.59 126.66,50.24 123.8,51.9 118.06,48.59 120.93,46.94 123.8,45.28 129.53,41.97 132.4,40.31 132.4,40.31 135.27,38.66 
			138.14,37 141,38.66 143.87,40.31 146.74,41.97 152.47,45.28 155.34,46.94 		"/>
		<polygon class="st0" points="123.8,51.9 123.8,88.32 118.06,85.01 118.06,71.77 118.06,71.77 118.06,71.77 118.06,48.59 
			118.06,48.59 		"/>
		<polygon class="st2" points="146.74,58.52 146.74,65.14 143.87,66.8 138.14,70.11 138.14,63.49 141,61.83 143.87,60.18 		"/>
		<polygon class="st2" points="158.21,48.59 158.21,71.77 158.21,71.77 155.34,73.42 149.61,76.73 146.74,78.39 143.87,80.04 
			141,81.7 138.14,83.35 138.14,76.73 141,75.08 146.74,71.77 149.61,70.11 152.47,68.46 152.47,51.9 158.21,48.59 		"/>
		<polygon class="st0" points="138.14,76.73 138.14,83.35 135.27,81.7 132.4,80.04 129.53,78.39 129.53,71.77 135.27,75.08 		"/>
		<polygon class="st0" points="138.14,63.49 138.14,70.11 132.4,66.8 129.53,65.14 129.53,58.52 132.4,60.18 135.27,61.83 		"/>
	</g>
	<g>
		<path class="st3" d="M212.44,46.26c-1.52-0.89-3.27-1.33-5.23-1.33h-13.43v31.14h7.56V65.66h5.87c1.95,0,3.7-0.46,5.23-1.38
			c1.52-0.91,2.74-2.17,3.65-3.76c0.91-1.58,1.35-3.39,1.35-5.4c0-1.92-0.46-3.66-1.35-5.2C215.19,48.37,213.97,47.16,212.44,46.26z
			 M209.21,57.21c-0.32,0.56-0.75,1.01-1.29,1.33s-1.12,0.49-1.78,0.49h-4.93V51.6h4.93c0.65,0,1.25,0.15,1.78,0.45
			c0.53,0.3,0.96,0.71,1.29,1.25c0.32,0.53,0.49,1.18,0.49,1.95C209.71,55.99,209.55,56.65,209.21,57.21z"/>
		<rect x="221.82" y="45.13" class="st3" width="7.6" height="31.14"/>
		<polygon class="st3" points="264.47,44.93 255.7,44.93 249.42,54.49 242.89,44.93 233.68,44.93 244.62,60.13 233.46,76.07 
			242.22,76.07 248.93,66.28 255.7,76.07 264.9,76.07 253.7,60.63 		"/>
		<polygon class="st3" points="277.62,63.31 289.99,63.31 289.99,57.16 277.62,57.16 277.62,51.38 291.99,51.38 291.99,44.93 
			270.28,44.93 270.28,76.07 292.44,76.07 292.44,69.62 277.62,69.62 		"/>
		<polygon class="st3" points="306.53,44.93 298.97,44.93 298.97,76.07 320.41,76.07 320.41,69.4 306.53,69.4 		"/>
		<path class="st3" d="M345.57,60.01c-0.96-0.77-2.11-1.42-3.43-1.95c-1.32-0.53-2.8-0.96-4.43-1.29c-0.71-0.11-1.39-0.28-2.05-0.47
			c-0.66-0.19-1.23-0.43-1.73-0.71s-0.91-0.6-1.2-0.95c-0.3-0.35-0.45-0.78-0.45-1.29c0-0.56,0.18-1.05,0.53-1.45
			c0.35-0.4,0.85-0.71,1.49-0.93c0.64-0.22,1.4-0.33,2.29-0.33c0.86,0,1.7,0.13,2.52,0.4c0.82,0.27,1.59,0.66,2.32,1.15
			c0.72,0.5,1.4,1.14,2.02,1.91l4.67-4.5c-0.74-1.12-1.64-2.09-2.7-2.89c-1.06-0.8-2.32-1.42-3.78-1.85
			c-1.47-0.43-3.23-0.65-5.27-0.65c-1.54,0-3.03,0.23-4.45,0.69c-1.42,0.46-2.68,1.11-3.76,1.95c-1.09,0.85-1.94,1.86-2.58,3.03
			c-0.64,1.17-0.95,2.46-0.95,3.85c0,1.31,0.21,2.49,0.62,3.53c0.42,1.06,1.05,1.99,1.89,2.8c0.85,0.82,1.91,1.5,3.18,2.07
			c1.28,0.56,2.77,1.04,4.5,1.42c0.62,0.11,1.23,0.26,1.82,0.42c0.59,0.16,1.15,0.35,1.69,0.58c0.53,0.22,0.99,0.47,1.38,0.73
			c0.38,0.27,0.69,0.58,0.91,0.93c0.22,0.35,0.33,0.75,0.33,1.2c0,0.59-0.18,1.09-0.53,1.49c-0.35,0.4-0.86,0.7-1.52,0.91
			c-0.66,0.21-1.38,0.32-2.18,0.32c-1.6,0-3.15-0.34-4.65-1.03c-1.5-0.69-2.99-2.02-4.47-4l-4.58,5.2c1.01,1.28,2.15,2.38,3.43,3.32
			s2.73,1.65,4.38,2.13c1.65,0.49,3.5,0.73,5.54,0.73c2.37,0,4.47-0.39,6.3-1.18c1.82-0.78,3.26-1.92,4.32-3.43
			c1.05-1.5,1.58-3.32,1.58-5.5c0-1.39-0.26-2.62-0.78-3.67C347.28,61.7,346.54,60.78,345.57,60.01z"/>
		<polygon class="st3" points="351.78,51.61 361.03,51.61 361.03,76.07 368.59,76.07 368.59,51.61 378.07,51.61 378.07,44.93 
			351.78,44.93 		"/>
		<path class="st3" d="M402.85,63.79c1.6-0.89,2.86-2.11,3.78-3.67c0.91-1.55,1.38-3.32,1.38-5.27c0-1.9-0.46-3.59-1.38-5.1
			c-0.92-1.5-2.19-2.68-3.8-3.53c-1.62-0.86-3.42-1.29-5.4-1.29h-14.01v31.14h7.2V65.13h3.89l6.16,10.95h8.63l-6.98-12.03
			C402.48,63.95,402.68,63.89,402.85,63.79z M390.61,51.24h5.47c0.95,0,1.75,0.16,2.43,0.49c0.67,0.32,1.18,0.79,1.53,1.4
			c0.35,0.61,0.53,1.32,0.53,2.11c0,0.8-0.15,1.52-0.47,2.13c-0.32,0.62-0.75,1.11-1.33,1.45c-0.58,0.34-1.26,0.51-2.02,0.51h-6.13
			v-8.1C390.62,51.24,390.61,51.24,390.61,51.24z"/>
		<polygon class="st3" points="421.98,63.31 434.34,63.31 434.34,57.16 421.98,57.16 421.98,51.38 436.34,51.38 436.34,44.93 
			414.63,44.93 414.63,76.07 436.79,76.07 436.79,69.62 421.98,69.62 		"/>
		<path class="st3" d="M451.69,44.93l-12.33,31.14h7.48l2.22-5.96h11.39l2.22,5.96h7.65l-12.23-31.14
			C458.09,44.93,451.69,44.93,451.69,44.93z M451.18,64.41l1.52-4.1c0.24-0.74,0.49-1.46,0.75-2.16c0.27-0.7,0.51-1.39,0.73-2.09
			c0.2-0.62,0.4-1.25,0.59-1.89c0.19,0.62,0.38,1.25,0.58,1.89c0.24,0.75,0.48,1.49,0.71,2.2c0.24,0.71,0.48,1.38,0.71,2l1.54,4.13
			L451.18,64.41L451.18,64.41z"/>
		<path class="st3" d="M498.93,44.93l-9.05,14.52l-8.93-14.52h-6.76v31.14h7.34v-9.7c0-2.88-0.07-5.36-0.2-7.45
			c-0.03-0.5-0.09-1.01-0.13-1.5l7.05,11.1h2.93l7.26-11.26c-0.06,0.64-0.12,1.28-0.16,1.92c-0.13,2.13-0.2,4.53-0.2,7.21v9.7h7.33
			V44.93H498.93z"/>
	</g>
</g>
</svg>
