<svg width="1074" height="228" viewBox="0 0 1074 228" fill="none" xmlns="http://www.w3.org/2000/svg">
<path d="M151.821 38.4589C164.607 38.4589 175.571 43.0306 184.715 52.174C193.858 61.3174 198.43 72.3009 198.43 85.1245C198.43 97.986 193.858 108.951 184.715 118.018C175.609 127.048 164.645 131.563 151.821 131.563C138.96 131.525 127.995 127.01 118.927 118.018C109.822 108.913 105.269 97.9481 105.269 85.1245C105.269 72.3389 109.822 61.3554 118.927 52.174C128.071 43.0306 139.035 38.4589 151.821 38.4589ZM151.821 57.0682C144.043 57.0682 137.461 59.7999 132.074 65.2632C126.61 70.8023 123.879 77.3848 123.879 85.0107C123.879 92.7124 126.61 99.2949 132.074 104.758C137.499 110.184 144.081 112.896 151.821 112.896C159.447 112.896 166.01 110.184 171.512 104.758C177.013 99.3329 179.764 92.7504 179.764 85.0107C179.764 77.3469 177.013 70.7644 171.512 65.2632C166.048 59.7999 159.485 57.0682 151.821 57.0682ZM231.892 112.896C234.548 112.896 236.976 111.967 239.177 110.108C241.453 108.211 242.591 106.029 242.591 103.563C242.591 99.9968 240.467 97.2652 236.218 95.3682C234.814 94.7232 232.898 94.0593 230.47 93.3764L228.99 92.978L227.624 92.5796C226.562 92.3141 225.689 92.0675 225.006 91.8398C219.012 89.7911 214.118 86.6231 210.324 82.336C206.075 77.5935 203.95 72.263 203.95 66.3444C203.95 58.6048 206.701 52.0033 212.202 46.54C217.665 41.1146 224.267 38.402 232.006 38.402C239.025 38.402 245.152 40.7163 250.388 45.3449C255.624 49.8976 258.716 55.6075 259.664 62.4746L241.339 66.3444C241.339 63.8025 240.429 61.621 238.608 59.7999C236.787 57.9788 234.624 57.0682 232.12 57.0682C229.54 57.0682 227.34 57.9788 225.519 59.7999C223.66 61.6589 222.73 63.8594 222.73 66.4013C222.73 69.9677 224.741 72.8131 228.762 74.9377C230.242 75.7345 232.082 76.4743 234.283 77.1572C235.004 77.3848 235.914 77.6694 237.014 78.0108L238.323 78.3523L239.575 78.7507C245.797 80.5338 250.881 83.5121 254.827 87.6854C259.19 92.2761 261.372 97.6066 261.372 103.677C261.372 111.303 258.412 117.885 252.494 123.424C246.689 128.888 239.879 131.619 232.063 131.619C224.931 131.619 218.557 129.324 212.942 124.733C207.327 120.105 203.988 114.376 202.926 107.547L221.25 103.677C221.25 106.143 222.389 108.325 224.665 110.222C226.865 112.043 229.313 112.953 232.006 112.953L231.892 112.896ZM329.606 39.1987V57.4666H307.07V130.937H288.574V57.4666H265.981V39.1987H329.606ZM492.594 39.1987V112.612H529.471V130.937H474.155V39.1987H492.594ZM575.852 37.3207L617.738 130.937H597.763L591.559 116.994H560.145L553.942 130.937H534.024L575.852 37.3207ZM584.275 100.718L575.909 81.3116L567.43 100.718H584.275ZM671.745 39.1987V57.4666H649.209V130.937H630.713V57.4666H608.12V39.1987H671.745ZM735.028 38.9711V57.3528H698.151V75.8483H725.809V94.23H698.151V131.05H679.712V38.9711H735.028ZM784.197 38.4589C796.983 38.4589 807.948 43.0306 817.091 52.174C826.234 61.3174 830.806 72.3009 830.806 85.1245C830.806 97.986 826.234 108.951 817.091 118.018C807.986 127.048 797.021 131.563 784.197 131.563C771.336 131.525 760.371 127.01 751.304 118.018C742.198 108.913 737.646 97.9481 737.646 85.1245C737.646 72.3389 742.198 61.3554 751.304 52.174C760.447 43.0306 771.412 38.4589 784.197 38.4589ZM784.197 57.0682C776.42 57.0682 769.837 59.7999 764.45 65.2632C758.987 70.8023 756.255 77.3848 756.255 85.0107C756.255 92.7124 758.987 99.2949 764.45 104.758C769.875 110.184 776.458 112.896 784.197 112.896C791.823 112.896 798.387 110.184 803.888 104.758C809.389 99.3329 812.14 92.7504 812.14 85.0107C812.14 77.3469 809.389 70.7644 803.888 65.2632C798.425 59.7999 791.861 57.0682 784.197 57.0682ZM838.717 39.1987H868.651C878.363 39.1987 886.369 42.3097 892.667 48.5318C895.74 51.6049 897.921 54.5073 899.211 57.2389C900.767 60.5776 901.545 64.6182 901.545 69.3606V71.7508C901.545 77.935 899.61 83.7587 895.74 89.222C892.97 93.0918 889.309 95.9183 884.756 97.7015L906.097 130.937H883.561L857.212 90.3602V130.937H838.774L838.717 39.1987ZM870.415 82.8481C873.754 82.8481 876.618 81.5772 879.008 79.0352C881.361 76.4933 882.537 73.4581 882.537 69.9297C882.537 66.591 881.323 63.6507 878.895 61.1088C876.391 58.6806 872.597 57.4666 867.513 57.4666H857.155V82.7912H864.269V82.8481H870.415ZM959.023 98.6689L1003.92 37.0361V130.937H985.486V92.9211L959.023 129.457L932.503 92.9211V130.937H914.065V37.0361L959.023 98.6689ZM1040.92 112.896C1043.57 112.896 1046 111.967 1048.2 110.108C1050.48 108.211 1051.61 106.029 1051.61 103.563C1051.61 99.9968 1049.49 97.2652 1045.24 95.3682C1043.84 94.7232 1041.92 94.0593 1039.49 93.3764L1038.01 92.978L1036.65 92.5796C1035.58 92.3141 1034.71 92.0675 1034.03 91.8398C1028.03 89.7911 1023.14 86.6231 1019.35 82.336C1015.1 77.5935 1012.97 72.263 1012.97 66.3444C1012.97 58.6048 1015.72 52.0033 1021.22 46.54C1026.69 41.1146 1033.29 38.402 1041.03 38.402C1048.05 38.402 1054.18 40.7163 1059.41 45.3449C1064.65 49.8976 1067.74 55.6075 1068.69 62.4746L1050.36 66.3444C1050.36 63.8025 1049.45 61.621 1047.63 59.7999C1045.81 57.9788 1043.65 57.0682 1041.14 57.0682C1038.56 57.0682 1036.36 57.9788 1034.54 59.7999C1032.68 61.6589 1031.75 63.8594 1031.75 66.4013C1031.75 69.9677 1033.76 72.8131 1037.79 74.9377C1039.27 75.7345 1041.11 76.4743 1043.31 77.1572C1044.03 77.3848 1044.94 77.6694 1046.04 78.0108L1047.35 78.3523L1048.6 78.7507C1054.82 80.5338 1059.9 83.5121 1063.85 87.6854C1068.21 92.2761 1070.39 97.6066 1070.39 103.677C1070.39 111.303 1067.44 117.885 1061.52 123.424C1055.71 128.888 1048.9 131.619 1041.09 131.619C1033.95 131.619 1027.58 129.324 1021.96 124.733C1016.35 120.105 1013.01 114.376 1011.95 107.547L1030.27 103.677C1030.27 106.143 1031.41 108.325 1033.69 110.222C1035.89 112.043 1038.34 112.953 1041.03 112.953L1040.92 112.896Z" fill="black"/>
<path d="M11 212.958L11 71.6711V53.0873C11 36.1433 19.7453 11.0006 50.3538 11.0006C78.776 11.0006 90.2542 36.1433 90.2542 49.8078C90.2542 65.1121 81.5089 89.1616 43.7948 89.1616" stroke="black" stroke-width="21.8632"/>
<path d="M144.368 177.156C144.368 172.194 139.401 163.42 127.102 163.42C113.857 163.42 110.073 172.319 110.073 178.316V184.894V193.364M110.073 214.862V193.364M110.073 193.364H129.786" stroke="black" stroke-width="11.4315"/>
<path d="M392.051 131.031V89.1683V73.9788C392.051 60.1295 399.199 39.5791 424.217 39.5791C447.448 39.5791 456.83 60.1295 456.83 71.2983C456.83 83.8073 449.682 103.464 418.856 103.464H407.293" stroke="black" stroke-width="17.87"/>
<path d="M236.842 163.452C244.002 163.452 250.142 166.012 255.262 171.132C260.383 176.253 262.943 182.403 262.943 189.585C262.943 196.787 260.383 202.927 255.262 208.005C250.163 213.062 244.023 215.59 236.842 215.59C229.64 215.569 223.5 213.04 218.422 208.005C213.323 202.906 210.773 196.766 210.773 189.585C210.773 182.425 213.323 176.274 218.422 171.132C223.542 166.012 229.682 163.452 236.842 163.452ZM236.842 173.873C232.487 173.873 228.8 175.403 225.783 178.462C222.724 181.564 221.194 185.25 221.194 189.521C221.194 193.834 222.724 197.52 225.783 200.579C228.822 203.618 232.508 205.137 236.842 205.137C241.113 205.137 244.788 203.618 247.869 200.579C250.95 197.541 252.49 193.855 252.49 189.521C252.49 185.229 250.95 181.543 247.869 178.462C244.809 175.403 241.134 173.873 236.842 173.873ZM346.893 205.264C349.697 205.264 352.13 204.244 354.191 202.205C356.252 200.144 357.282 197.722 357.282 194.939V163.866H367.672V194.97C367.672 200.707 365.643 205.604 361.585 209.662C357.505 213.699 352.619 215.717 346.925 215.717C341.167 215.717 336.259 213.699 332.201 209.662C328.143 205.604 326.114 200.707 326.114 194.97V163.866H336.504V194.939C336.504 197.743 337.534 200.165 339.595 202.205C341.634 204.244 344.067 205.264 346.893 205.264ZM463.732 192.262V163.739H474.089V216.291L443.112 186.78V215.303H432.787V162.783L463.732 192.262ZM552.876 163.866C560.313 163.866 566.57 166.384 571.647 171.419C576.237 176.029 578.531 182.085 578.531 189.585C578.531 197.106 576.237 203.15 571.647 207.718C566.591 212.732 560.334 215.239 552.876 215.239H539.205V163.898H552.876V163.866ZM568.237 189.521C568.237 184.91 566.825 181.192 563.999 178.367C561.173 175.52 557.455 174.096 552.845 174.096H549.498V204.945H552.94C557.572 204.945 561.279 203.533 564.063 200.707C566.846 197.902 568.237 194.174 568.237 189.521ZM658.721 162.814L682.176 215.239H670.99L667.516 207.431H649.925L646.451 215.239H635.297L658.721 162.814ZM663.437 198.317L658.752 187.449L654.004 198.317H663.437ZM771.162 163.866V174.096H758.541V215.239H748.184V174.096H735.532V163.866H771.162ZM834.365 163.866H844.69V215.239H834.365V163.866ZM933.962 163.452C941.122 163.452 947.262 166.012 952.383 171.132C957.503 176.253 960.063 182.403 960.063 189.585C960.063 196.787 957.503 202.927 952.383 208.005C947.284 213.062 941.143 215.59 933.962 215.59C926.76 215.569 920.62 213.04 915.542 208.005C910.443 202.906 907.893 196.766 907.893 189.585C907.893 182.425 910.443 176.274 915.542 171.132C920.662 166.012 926.802 163.452 933.962 163.452ZM933.962 173.873C929.607 173.873 925.921 175.403 922.904 178.462C919.844 181.564 918.314 185.25 918.314 189.521C918.314 193.834 919.844 197.52 922.904 200.579C925.942 203.618 929.628 205.137 933.962 205.137C938.233 205.137 941.908 203.618 944.989 200.579C948.07 197.541 949.61 193.855 949.61 189.521C949.61 185.229 948.07 181.543 944.989 178.462C941.93 175.403 938.254 173.873 933.962 173.873ZM1054.18 192.262V163.739H1064.54V216.291L1033.56 186.78V215.303H1023.23V162.783L1054.18 192.262Z" fill="black"/>
</svg>
