<?xml version="1.0" encoding="UTF-8"?>
<svg id="a" data-name="Layer 1" xmlns="http://www.w3.org/2000/svg" viewBox="0 0 1855 847.8">
  <defs>
    <style>
      .b {
        fill: #4eadc3;
      }

      .c {
        fill: #2fb7ca;
      }
    </style>
  </defs>
  <g>
    <polyline class="c" points="797.19 475.33 797.19 655.54 715.04 655.54 715.04 475.33"/>
    <polyline class="c" points="973.35 475.33 973.35 571.69 973.35 583.54 973.35 654.69 972.5 654.69 890.35 654.69 890.35 654.69 890.35 475.33"/>
    <polyline class="c" points="1180.01 475.33 1180.01 571.69 1180.01 583.54 1180.01 654.69 1097 654.69 1095.31 654.69 1095.31 583.54 1095.31 546.29 1095.31 475.33"/>
    <path class="c" d="M1330.75,475.33v59.1c0,11.3,4.08,21.04,12.27,29.22,8.18,8.19,17.92,12.27,29.22,12.27s21.03-4.09,29.22-12.27c8.18-8.18,12.28-17.92,12.28-29.22v-31.34h75.38v34.72c0,16.39-3.11,31.63-9.32,45.74-6.21,14.13-14.54,26.41-24.98,36.85-10.46,10.45-22.87,18.78-37.27,24.99-14.39,6.21-29.79,9.31-46.16,9.31s-31.62-3.09-45.73-9.31c-14.12-6.21-26.4-14.53-36.84-24.99-10.46-10.44-18.93-22.72-25.41-36.85-6.5-14.1-9.74-29.34-9.74-45.74v-62.47"/>
    <polyline class="c" points="1650.89 475.33 1650.89 572.54 1650.89 584.39 1650.89 654.69 1650.05 654.69 1568.74 654.69 1568.74 654.69 1568.74 475.33"/>
    <polyline class="c" points="1855 475.33 1855 572.54 1855 584.39 1855 654.69 1772.85 654.69 1771.16 654.69 1771.16 584.39 1771.16 547.13 1771.16 475.33"/>
    <rect class="c" x="715.04" y="475.33" width="82.15" height="180.21"/>
    <polygon class="c" points="1095.31 475.33 1095.31 546.29 1095.31 583.54 1095.31 654.69 1097 654.69 1180.01 654.69 1180.01 583.54 1180.01 571.69 1180.01 475.33 1095.31 475.33"/>
    <polygon class="c" points="890.35 475.33 890.35 654.69 890.35 654.69 972.5 654.69 973.35 654.69 973.35 583.54 973.35 571.69 973.35 475.33 890.35 475.33"/>
    <path class="c" d="M1253.68,475.33v62.47c0,16.39,3.24,31.63,9.74,45.74,6.48,14.13,14.95,26.41,25.41,36.85,10.44,10.45,22.72,18.78,36.84,24.99,14.11,6.21,29.35,9.31,45.73,9.31s31.76-3.09,46.16-9.31c14.4-6.21,26.82-14.53,37.27-24.99,10.44-10.44,18.76-22.72,24.98-36.85,6.21-14.1,9.32-29.34,9.32-45.74v-34.72h-75.38v31.34c0,11.3-4.1,21.04-12.28,29.22-8.19,8.19-17.93,12.27-29.22,12.27s-21.04-4.09-29.22-12.27c-8.19-8.18-12.27-17.92-12.27-29.22v-59.1h-77.08Z"/>
    <polygon class="c" points="1568.74 475.33 1568.74 654.69 1568.74 654.69 1650.05 654.69 1650.89 654.69 1650.89 584.39 1650.89 572.54 1650.89 475.33 1568.74 475.33"/>
    <polygon class="c" points="1771.16 475.33 1771.16 547.13 1771.16 584.39 1771.16 654.69 1772.85 654.69 1855 654.69 1855 584.39 1855 572.54 1855 475.33 1771.16 475.33"/>
    <path class="c" d="M368.64,475.33v372.47l79.61-8.83v-204.61c19.19,9.04,38.96,13.55,59.28,13.55,16.37,0,31.76-2.96,46.16-8.9,14.4-5.92,26.96-13.96,37.69-24.13,10.72-10.16,19.19-22.15,25.41-35.99,6.21-13.83,9.32-28.65,9.32-44.46v-59.1h-76.23v56.55c0,11.3-4.1,20.75-12.28,28.37-8.19,7.63-17.93,11.44-29.22,11.44-11.86,0-23.58-3.81-35.15-11.44-11.58-7.62-17.36-17.07-17.36-28.37v-56.55h-87.23Z"/>
  </g>
  <g>
    <g>
      <path class="b" d="M444.54,314.22c0-11.29,5.78-20.88,17.36-28.79,11.57-7.9,23.29-11.86,35.15-11.86s21.03,3.96,29.22,11.86c8.18,7.91,12.28,17.5,12.28,28.79v161.12h76.23v-159.42c-.57-15.25-3.96-29.64-10.16-43.19-6.22-13.55-14.69-25.41-25.41-35.58-10.73-10.15-23.29-18.2-37.69-24.13-14.4-5.93-29.51-8.9-45.31-8.9-21.46,0-41.22,4.81-59.29,14.4v-11.01h-79.61v267.82h87.23v-161.12Z"/>
      <rect class="b" x="703.7" y="208.35" width="82.15" height="266.98"/>
      <path class="b" d="M962.01,339.63c0-6.21,2.25-12.14,6.78-17.79,4.52-5.64,10.17-10.58,16.95-14.82,6.78-4.23,13.97-7.47,21.59-9.74,7.63-2.25,14.53-3.39,20.76-3.39s12.7,1.14,19.48,3.39c6.78,2.27,12.83,5.51,18.2,9.74,5.36,4.23,9.74,9.18,13.13,14.82,3.39,5.65,5.09,11.58,5.09,17.79v135.71h84.7v-130.62c0-16.38-2.27-30.77-6.78-43.2-4.53-12.41-9.32-23.14-14.4-32.18-6.21-10.15-12.99-19.19-20.33-27.1-11.3-10.72-24.57-19.19-39.8-25.41-15.25-6.21-31.34-9.31-48.28-9.31-14.12,0-27.81,2.11-41.08,6.34-13.27,4.24-25.55,10.03-36.84,17.37v-23.71h-82.15v267.82h83v-135.71Z"/>
      <path class="b" d="M1319.42,309.98c0-11.28,4.09-21.02,12.27-29.22,8.18-8.18,17.92-12.28,29.22-12.28s21.03,4.1,29.22,12.28c8.18,8.2,12.28,17.94,12.28,29.22v28.8h75.38v-26.25c-.57-15.81-3.96-30.77-10.16-44.89-6.22-14.1-14.69-26.39-25.41-36.84-10.73-10.45-23.15-18.64-37.26-24.57-14.12-5.93-29.09-8.9-44.89-8.9s-31.62,2.96-45.73,8.9c-14.12,5.93-26.4,14.12-36.84,24.57-10.46,10.45-18.78,22.74-24.99,36.84-6.21,14.12-9.6,29.08-10.16,44.89v162.81h77.08v-165.35Z"/>
      <path class="b" d="M1639.56,343.01c0-6.21,2.25-12.14,6.78-17.78,4.52-5.64,10.02-10.58,16.52-14.82,6.48-4.23,13.55-7.48,21.18-9.74,7.62-2.25,14.52-3.39,20.75-3.39s12.56,1.14,19.06,3.39c6.48,2.26,12.41,5.51,17.78,9.74,5.36,4.24,9.74,9.19,13.13,14.82,3.39,5.65,5.09,11.58,5.09,17.78v132.32h83.84v-127.24c0-16.36-2.11-30.62-6.35-42.77-4.23-12.14-8.89-22.72-13.97-31.75-6.21-10.17-12.99-19.19-20.33-27.1-11.3-10.72-24.43-19.07-39.38-24.99-14.97-5.93-30.92-8.9-47.86-8.9-13.55,0-26.97,1.99-40.23,5.93-13.27,3.96-25.56,9.61-36.84,16.94V8.83l-81.31-8.83v475.33h82.15v-132.32Z"/>
      <path class="b" d="M248.06,272.72c-6.22-13.55-14.69-25.41-25.41-35.58-10.73-10.15-23.29-18.2-37.69-24.13-14.4-5.93-29.51-8.9-45.31-8.9-21.46,0-41.22,4.81-59.28,14.4v68.6H.75v560.68h79.61v-213.44c19.19,9.04,38.96,13.55,59.28,13.55,16.37,0,31.76-2.96,46.16-8.9,14.4-5.92,26.96-13.96,37.69-24.13,10.72-10.16,19.19-22.15,25.41-35.99,6.21-13.83,9.32-28.65,9.32-44.46v-218.51c-.57-15.25-3.96-29.64-10.16-43.19ZM182,531.88c0,11.3-4.1,20.75-12.28,28.37-8.19,7.63-17.93,11.44-29.22,11.44-11.86,0-23.58-3.81-35.15-11.44-11.58-7.62-17.36-17.07-17.36-28.37v-217.67c0-11.29,5.78-20.88,17.36-28.79,11.57-7.9,23.29-11.86,35.15-11.86s21.03,3.96,29.22,11.86c8.17,7.91,12.28,17.5,12.28,28.79v217.67Z"/>
    </g>
    <polygon class="b" points="79.61 217.75 79.61 206.75 0 206.75 0 286.37 79.61 286.37 79.61 217.75"/>
    <rect class="b" x="704.97" y="39.62" width="79.61" height="79.63"/>
  </g>
</svg>