<svg xmlns="http://www.w3.org/2000/svg" width="3500" height="1200" viewBox="0 0 3500 1200">
  <defs>
    <style>
      .cls-1 {
        fill: #399;
        fill-rule: evenodd;
      }
    </style>
  </defs>
  <path id="PYCLA" class="cls-1" d="M549.125,702q63.861,0,111.125-15.75t77.438-43.75a175.476,175.476,0,0,0,45.062-66.937q14.868-38.925,14.875-86.188,0-95.361-60.813-145.687Q675.987,293.381,550,293.375H256v612.5H388.125v-203Zm-161-84.875v-238H550q32.361,0,54.25,5.688,21.861,5.7,35,18.375,13.125,12.693,18.812,33.687t5.688,52.5q0,63.882-25.812,95.375T550,616.25Zm832.995,26.25L1465.25,292.5h-147L1154.62,534.875,988.375,292.5H842.25l245.87,350.875V905h132.13Zm784,159.25q-20.13,3.507-47.68,7.438-27.57,3.938-56.88,7.437t-59.5,6.125q-30.18,2.625-55.56,2.625-49.875,0-80.5-13.562-30.645-13.557-46.81-41.563-16.2-27.993-21.88-70.437-5.7-42.432-5.69-99.313,0-57.75,4.82-100.625,4.8-42.861,21-71.75,16.17-28.875,46.81-43.312,30.615-14.437,81.37-14.438a880.331,880.331,0,0,1,115.5,7.875q59.505,7.875,105,15.75l9.63-86.625q-36.75-6.993-95.37-14.437-58.635-7.425-134.76-7.438-92.745,0-149.18,24.5t-87.5,67.375q-31.08,42.882-41.13,100.188T1496.75,602.25q0,68.25,11.37,125.125t42.88,98q31.5,41.139,87.94,64.313t145.68,23.187q32.37,0,65.63-2.625,33.24-2.625,63.87-6.125T1971,896.25q26.25-4.368,43.75-7ZM2589.62,905V819.25H2261.5V292.5H2129.38V905h460.24Zm246.76-612.5-231,612.5h134.74L2797,752.75h254.62L3109.38,905h134.74L3014,292.5H2836.38ZM3017.5,667H2830.25l93.63-263.375Z"/>
</svg>
