<?xml version="1.0" encoding="utf-8"?>
<!-- Generator: Adobe Illustrator 25.0.0, SVG Export Plug-In . SVG Version: 6.00 Build 0)  -->
<svg version="1.1" id="Capa_1" xmlns="http://www.w3.org/2000/svg" xmlns:xlink="http://www.w3.org/1999/xlink" x="0px" y="0px"
	 viewBox="0 0 1920 436" style="enable-background:new 0 0 1920 436;" xml:space="preserve">
<style type="text/css">
	.st0{fill:#36B4A7;}
	.st1{fill:#64BA93;}
	.st2{fill:#DBDFE2;}
	.st3{fill:#FFFFFF;}
	.st4{fill:#383838;}
</style>
<g>
	<path id="path11_14_" class="st0" d="M401.7,64C268.04,4.1,137.3,73.79,102.33,185.44c-18.83,60.16,12.45,119.61,93.78,133.62
		C94.63,219.08,250.4,37.44,401.7,64z"/>
	<path id="path13_13_" class="st1" d="M148.46,311.11l45.91,57.98c81.79,81.94,257.74,29.81,294.35-110.58
		c6.38-41.74,5.32-89.57-16.99-136.27C441.5,262.27,290.65,358.66,148.46,311.11z"/>
	<path id="path15_14_" class="st2" d="M412.12,369.51c29.88-22.33,51.92-46.91,64.87-77.54C544.27,133.78,437.35,5.92,279.34,84.26
		c67.37-28.07,155.69-20.65,190.03,38.03C526.6,220.47,447.76,351.86,412.12,369.51z"/>
	<path id="path17_14_" class="st3" d="M329.14,298.29c-81.36,26.18-228.82,29.69-231.15-78.63c-0.49-15.06,2.66-23.97,5.01-38.61
		l-4.73,13.96C60.89,317.24,222.27,352.94,329.14,298.29z"/>
	<g>
		<g>
			<path class="st4" d="M722.9,395.3h-23.44V291.96c-19.88,25.32-44.42,37.98-73.62,37.98c-26.51,0-48.85-10.01-67.05-30.03
				c-17.97-19.66-26.95-43.51-26.95-71.54c0-27.67,9.18-51.34,27.54-71.01c18.36-19.67,40.74-29.5,67.13-29.5
				c30.21,0,54.53,13.43,72.94,40.28v-35.33h23.44V395.3z M700.28,230.3c0-21.94-6.84-40.43-20.5-55.45
				c-13.66-15.02-30.87-22.53-51.62-22.53c-27.89,0-48.69,12.85-62.41,38.55c-6.58,12.21-9.87,25.12-9.87,38.73
				c0,13.62,3.29,26.55,9.87,38.82c6.58,12.26,15.42,21.83,26.52,28.69c11.1,6.87,23.01,10.3,35.73,10.3
				c12.83,0,24.99-3.4,36.48-10.2c11.49-6.81,20.33-16.02,26.52-27.64C697.19,257.95,700.28,244.86,700.28,230.3z"/>
		</g>
		<g>
			<path class="st4" d="M927.59,227.01c0,21.65-1.95,38.81-5.85,51.52c-5.36,17.29-15.13,30.53-29.3,39.7
				c-11.83,7.65-26.62,11.47-44.36,11.47c-34.94,0-58.6-14.41-70.99-43.22c-5.92-13.53-8.87-33.94-8.87-61.23v-92.45h25v89.54
				c0,22.09,1.11,37.13,3.32,45.12c3.43,12.22,10.08,21.74,19.93,28.55c9.3,6.35,20.15,9.52,32.56,9.52c12.06,0,22.64-3,31.72-8.99
				c9.62-6.46,16.28-15.51,19.93-27.14c2.32-7.39,3.48-23.08,3.48-47.06v-89.54h23.44V227.01z"/>
		</g>
		<g>
			<path class="st4" d="M1158.85,324.98h-23.44v-33.03c-19.88,25.32-44.41,37.98-73.61,37.98c-26.5,0-48.85-10.01-67.04-30.03
				c-17.97-19.66-26.95-43.51-26.95-71.54c0-27.67,9.18-51.34,27.54-71.01c18.36-19.67,40.73-29.5,67.13-29.5
				c30.2,0,54.52,13.43,72.94,40.27v-35.33h23.44V324.98z M1136.71,230.3c0-21.94-6.84-40.43-20.49-55.45
				c-13.67-15.02-30.88-22.53-51.63-22.53c-27.89,0-48.69,12.85-62.41,38.55c-6.58,12.21-9.87,25.12-9.87,38.73
				c0,13.62,3.29,26.55,9.87,38.82c6.58,12.26,15.42,21.83,26.52,28.69c11.1,6.87,23.01,10.3,35.73,10.3
				c12.83,0,24.99-3.4,36.48-10.2c11.49-6.81,20.33-16.02,26.52-27.64C1133.61,257.95,1136.71,244.86,1136.71,230.3z"/>
		</g>
		<path class="st1" d="M1227.6,324.98h-23.44V59.35h23.44V324.98z"/>
		<path class="st1" d="M1455.74,324.98h-23.44v-33.03c-19.88,25.32-44.41,37.98-73.61,37.98c-26.5,0-48.85-10.01-67.04-30.03
			c-17.97-19.66-26.95-43.51-26.95-71.54c0-27.67,9.18-51.34,27.54-71.01c18.36-19.67,40.73-29.5,67.13-29.5
			c30.2,0,54.52,13.43,72.94,40.27v-35.33h23.44V324.98z M1433.24,230.3c0-21.94-6.84-40.43-20.49-55.45
			c-13.67-15.02-30.88-22.53-51.63-22.53c-27.89,0-48.69,12.85-62.41,38.55c-6.58,12.21-9.87,25.12-9.87,38.73
			c0,13.62,3.29,26.55,9.87,38.82c6.58,12.26,15.42,21.83,26.52,28.69c11.1,6.87,23.01,10.3,35.73,10.3
			c12.83,0,24.99-3.4,36.48-10.2c11.49-6.81,20.33-16.02,26.52-27.64C1430.14,257.95,1433.24,244.86,1433.24,230.3z"/>
		<path class="st1" d="M1695.42,229.51c0,27.71-9.12,51.38-27.35,70.99c-18.23,19.61-40.45,29.41-66.65,29.41
			c-29.66,0-53.74-13.38-72.25-40.16v35.23h-23.44V59.35h23.44v106.92c19.51-25.25,43.82-37.87,72.92-37.87
			c26.32,0,48.45,9.9,66.39,29.68C1686.45,177.87,1695.42,201.68,1695.42,229.51z M1672.17,228.89c0-13.61-3.29-26.58-9.88-38.9
			c-6.58-12.32-15.42-21.92-26.52-28.78c-11.1-6.86-22.95-10.3-35.55-10.3c-12.83,0-25.02,3.44-36.56,10.3
			c-11.55,6.86-20.42,16.11-26.61,27.73c-6.19,11.62-9.29,24.7-9.29,39.25c0,21.95,6.84,40.43,20.5,55.45
			c13.66,15.02,30.88,22.53,51.62,22.53c27.89,0,48.75-12.85,62.59-38.55C1668.93,255.41,1672.17,242.51,1672.17,228.89z"/>
		<path class="st1" d="M1827.23,273.62c0,16.26-5.31,29.74-15.93,40.46c-10.62,10.72-23.71,16.08-39.25,16.08
			c-22.47,0-40.42-9.05-53.84-27.17l14.76-17.65c11.93,14.12,24.59,21.18,37.98,21.18c8.81,0,16.65-3.02,23.51-9.07
			c6.86-6.04,10.29-13.64,10.29-22.79c0-9.26-4.08-17.42-12.22-24.46c-4.01-3.52-11.94-8.45-23.76-14.79
			c-13.5-7.29-23.38-14.52-29.62-21.7c-8.48-9.64-12.72-21.17-12.72-34.58c0-14.94,4.78-27.14,14.34-36.61
			c9.56-9.47,21.44-14.2,35.65-14.2c16.77,0,33.65,8.65,50.65,25.94l-15.07,16.41c-12.5-12.7-24.71-19.05-36.65-19.05
			c-7.26,0-13.68,2.51-19.25,7.55c-5.58,5.03-8.37,11.29-8.37,18.78c0,12.63,11.61,25.27,34.81,37.9
			c14.29,7.78,24.66,15.2,31.13,22.26C1822.71,247.99,1827.23,259.84,1827.23,273.62z"/>
	</g>
</g>
</svg>
