<svg width="1388" height="1074" viewBox="0 0 1388 1074" fill="none" xmlns="http://www.w3.org/2000/svg">
<rect width="1388" height="1074" fill="white"/>
<path d="M763.249 535.689C762.943 536.246 762.216 537.419 761.093 538.998C759.17 541.701 756.893 544.415 754.297 546.932C743.622 557.282 731.417 561.095 717.119 555.182C706.651 550.854 700.125 542.339 693.461 526.691C692.717 524.944 691.982 523.148 691.01 520.723C690.732 520.029 690.408 519.218 689.807 517.712C689.32 516.493 688.956 515.588 688.598 514.706C680.338 494.377 673.213 485.542 658.611 485.542C645.995 485.542 640.438 501.535 634.724 536.287C631.054 558.605 628.436 581.833 623.325 633.404C623.087 635.806 623.087 635.806 622.849 638.207C617.931 687.826 615.416 710.202 611.996 731.207C609.893 744.118 607.741 753.868 605.526 760.344C604.487 763.381 603.483 765.537 602.652 766.7C602.459 766.969 602.379 767.053 602.476 766.986C602.937 766.671 603.617 766.443 604.39 766.443C606.09 766.443 607.258 767.13 607.84 767.821C607.706 767.662 607.352 767.027 606.918 765.979C605.736 763.127 604.475 758.5 603.217 752.278C600.74 740.024 598.349 722.055 595.983 698.405C592.192 660.512 589.343 620.557 583.658 531.43C583.44 528.01 583.44 528.01 583.221 524.588C577.548 435.633 574.759 396.236 570.983 357.435C565.495 301.031 560.637 274.704 551.176 268.835C545.165 265.107 539.416 268.041 535.921 273.923C533.918 277.294 532.251 282.112 530.679 288.6C527.971 299.771 525.464 316.384 523.01 338.635C519.155 373.589 516.33 410.525 510.605 494.792C510.443 497.19 510.443 497.19 510.28 499.587C504.913 578.591 502.309 613.254 498.789 647.69C494.563 689.034 489.624 715.19 486.779 717.542C488.601 716.035 491.633 716.508 492.772 717.834C492.265 717.244 491.293 715.113 490.252 711.749C487.882 704.094 485.517 691.557 483.158 674.382C479.321 646.445 476.322 615.07 470.595 547.493C470.241 543.312 470.241 543.312 469.887 539.128C458.081 399.757 453.062 359.384 440.67 349.135C432.108 342.054 424.586 347.808 420.019 358.652C417.133 365.507 414.5 375.898 411.877 390.091C407.823 412.019 404.729 435.772 398.473 489.411C398.276 491.098 398.276 491.098 398.079 492.785C387.687 581.898 381.366 620.519 375.415 625.441C376.51 624.536 378.743 625.06 378.823 625.165C377.361 623.259 375.526 618.946 373.616 612.586C370.122 600.949 366.857 584.878 362.069 557.31C361.597 554.597 361.112 551.782 360.482 548.113C360.371 547.464 359.225 540.784 358.886 538.814C346.757 468.256 341.034 445.715 327.346 440.055C315.625 435.208 307.715 444.401 301.095 462.157C296.959 473.252 293.783 485.461 287.737 511.62C287.361 513.246 287.361 513.246 286.986 514.871C281.586 538.246 278.914 548.849 275.541 559.126C271.723 570.758 268.016 577.379 266.012 578.208C265.578 578.387 264.779 577.879 262.481 573.938C259.624 569.039 256.837 561.718 252.89 549.318C252.088 546.799 249.268 537.779 249.199 537.56C244.161 521.546 240.777 512.303 236.531 504.26C230.266 492.393 222.864 485.542 213.156 485.542C203.031 485.542 195.067 492.246 188.261 503.987C183.612 512.007 180.007 520.938 174.254 537.358C174.116 537.75 171.963 543.917 171.338 545.689C163.909 566.783 158.959 576.425 154.648 578.208C152.011 579.298 147.748 578.137 142.099 574.204C136.832 570.537 131.007 564.886 124.97 557.813C120.763 552.884 116.711 547.575 112.977 542.263C111.671 540.404 110.499 538.68 109.483 537.139C108.883 536.23 108.474 535.594 108.276 535.279C105.889 531.475 101.051 530.447 97.4706 532.983C93.8899 535.52 92.9224 540.66 95.3096 544.464C95.5728 544.883 96.0493 545.625 96.7213 546.643C97.8248 548.316 99.087 550.173 100.49 552.169C104.5 557.875 108.856 563.582 113.426 568.936C120.275 576.961 127.011 583.495 133.557 588.053C142.991 594.621 151.993 597.073 160.301 593.637C170.836 589.281 176.533 578.185 185.934 551.492C186.568 549.694 188.728 543.508 188.859 543.134C199.153 513.755 205.91 502.099 213.156 502.099C219.016 502.099 225.437 514.265 234.418 542.809C234.476 542.991 237.309 552.053 238.127 554.622C242.451 568.205 245.545 576.334 249.233 582.658C255.011 592.566 262.59 597.39 271.665 593.637C279.579 590.364 284.928 580.813 290.256 564.578C293.854 553.618 296.595 542.739 302.121 518.818C302.497 517.192 302.497 517.192 302.872 515.569C308.732 490.215 311.813 478.373 315.585 468.254C317.739 462.477 319.804 458.457 321.592 456.379C322.139 455.743 322.483 455.48 322.55 455.456C322.258 455.563 321.857 455.552 321.694 455.485C323.502 456.233 327.688 465.605 331.71 481.445C335.312 495.629 338.375 511.651 343.555 541.789C343.893 543.755 345.039 550.433 345.151 551.084C345.782 554.764 346.269 557.589 346.743 560.315C351.654 588.587 355.005 605.082 358.769 617.619C361.227 625.803 363.74 631.709 366.738 635.62C371.61 641.976 378.761 643.656 384.988 638.506C396.484 628.998 401.401 598.954 413.546 494.821C413.742 493.134 413.742 493.134 413.939 491.447C420.144 438.251 423.215 414.67 427.169 393.282C429.582 380.23 431.962 370.837 434.245 365.414C434.756 364.202 435.235 363.256 435.653 362.6C435.884 362.236 435.997 362.104 435.894 362.183C434.528 363.228 432.239 363.145 431.097 362.201C433.815 364.449 438.542 385.768 442.745 419.579C446.262 447.872 448.968 476.894 454.365 540.612C454.72 544.796 454.72 544.796 455.074 548.978C460.829 616.895 463.842 648.414 467.737 676.773C470.217 694.825 472.727 708.134 475.447 716.922C477.12 722.325 478.919 726.269 481.26 728.994C485.346 733.753 491.406 734.698 496.352 730.608C509.3 719.899 514.184 672.121 525.824 500.779C525.987 498.382 525.987 498.382 526.149 495.984C531.855 411.997 534.672 375.171 538.489 340.562C540.867 318.998 543.28 303.003 545.771 292.729C546.972 287.771 548.157 284.348 549.099 282.762C549.143 282.687 548.938 282.912 548.192 283.292C546.611 284.1 544.688 283.983 543.318 283.134C542.795 282.809 542.74 282.743 542.887 283.006C543.348 283.824 543.888 285.104 544.459 286.798C545.725 290.555 547.014 295.951 548.291 302.873C550.757 316.237 553.131 334.98 555.481 359.138C559.231 397.667 562.013 436.968 567.673 525.708C567.891 529.129 567.891 529.129 568.109 532.549C573.809 621.912 576.665 661.968 580.486 700.155C586.547 760.743 591.047 783 604.39 783C616.645 783 621.861 767.751 627.352 734.029C630.854 712.52 633.389 689.965 638.347 639.941C638.585 637.54 638.585 637.54 638.823 635.138C643.894 583.982 646.491 560.937 650.076 539.136C652.285 525.696 654.56 515.527 656.912 508.758C658.023 505.563 659.101 503.287 660.009 502.039C660.241 501.72 660.363 501.596 660.312 501.63C659.911 501.899 659.304 502.099 658.611 502.099C664.695 502.099 668.336 506.614 674.29 521.268C674.633 522.114 674.986 522.991 675.462 524.181C676.059 525.678 676.388 526.502 676.671 527.209C677.684 529.738 678.462 531.636 679.262 533.516C687.446 552.733 696.362 564.366 711.466 570.612C731.942 579.079 750.115 573.402 764.802 559.162C770.554 553.585 774.519 548.009 776.699 544.054C778.873 540.108 777.625 535.037 773.911 532.727C770.197 530.417 765.423 531.743 763.249 535.689Z" fill="#3FCFA4"/>
<path d="M624.751 487.311C625.057 486.754 625.784 485.581 626.907 484.002C628.83 481.299 631.107 478.585 633.703 476.068C644.378 465.718 656.583 461.905 670.881 467.818C681.349 472.146 687.875 480.661 694.539 496.309C695.283 498.056 696.018 499.852 696.99 502.277C697.268 502.971 697.592 503.782 698.193 505.288C698.68 506.507 699.044 507.412 699.402 508.294C707.662 528.623 714.787 537.458 729.389 537.458C742.005 537.458 747.562 521.465 753.276 486.713C756.946 464.395 759.564 441.167 764.675 389.596C764.913 387.194 764.913 387.194 765.151 384.793C770.069 335.174 772.584 312.798 776.004 291.793C778.107 278.882 780.259 269.132 782.474 262.656C783.513 259.619 784.517 257.463 785.348 256.3C785.541 256.031 785.621 255.947 785.524 256.014C785.063 256.329 784.383 256.557 783.61 256.557C781.91 256.557 780.742 255.87 780.16 255.179C780.294 255.338 780.648 255.973 781.082 257.021C782.264 259.873 783.525 264.5 784.783 270.722C787.26 282.976 789.651 300.945 792.017 324.595C795.808 362.488 798.657 402.443 804.342 491.57C804.56 494.99 804.56 494.99 804.779 498.412C810.452 587.367 813.241 626.764 817.017 665.565C822.505 721.969 827.363 748.296 836.824 754.165C842.835 757.893 848.584 754.959 852.079 749.077C854.082 745.706 855.749 740.888 857.321 734.4C860.029 723.229 862.536 706.616 864.99 684.365C868.845 649.411 871.67 612.475 877.395 528.208C877.557 525.81 877.557 525.81 877.72 523.413C883.087 444.409 885.691 409.746 889.211 375.31C893.437 333.966 898.376 307.81 901.221 305.458C899.399 306.965 896.367 306.492 895.228 305.166C895.735 305.756 896.707 307.887 897.748 311.251C900.118 318.906 902.483 331.443 904.842 348.618C908.679 376.555 911.678 407.93 917.405 475.507C917.759 479.688 917.759 479.688 918.113 483.872C929.919 623.243 934.938 663.616 947.33 673.865C955.892 680.946 963.414 675.192 967.981 664.348C970.867 657.493 973.5 647.102 976.123 632.909C980.177 610.981 983.271 587.228 989.527 533.589C989.724 531.902 989.724 531.902 989.921 530.215C1000.31 441.102 1006.63 402.481 1012.58 397.559C1011.49 398.464 1009.26 397.94 1009.18 397.835C1010.64 399.741 1012.47 404.054 1014.38 410.414C1017.88 422.051 1021.14 438.122 1025.93 465.69C1026.4 468.403 1026.89 471.218 1027.52 474.887C1027.63 475.536 1028.78 482.216 1029.11 484.186C1041.24 554.744 1046.97 577.285 1060.65 582.945C1072.38 587.792 1080.29 578.599 1086.9 560.843C1091.04 549.748 1094.22 537.539 1100.26 511.38C1100.64 509.754 1100.64 509.754 1101.01 508.129C1106.41 484.754 1109.09 474.151 1112.46 463.874C1116.28 452.242 1119.98 445.621 1121.99 444.792C1122.42 444.613 1123.22 445.121 1125.52 449.062C1128.38 453.961 1131.16 461.282 1135.11 473.682C1135.91 476.201 1138.73 485.221 1138.8 485.44C1143.84 501.454 1147.22 510.697 1151.47 518.74C1157.73 530.607 1165.14 537.458 1174.84 537.458C1184.97 537.458 1192.93 530.754 1199.74 519.013C1204.39 510.993 1207.99 502.062 1213.75 485.642C1213.88 485.25 1216.04 479.083 1216.66 477.311C1224.09 456.217 1229.04 446.575 1233.35 444.792C1235.99 443.702 1240.25 444.863 1245.9 448.796C1251.17 452.463 1256.99 458.114 1263.03 465.187C1267.24 470.116 1271.29 475.425 1275.02 480.737C1276.33 482.596 1277.5 484.32 1278.52 485.861C1279.12 486.77 1279.53 487.406 1279.72 487.721C1282.11 491.525 1286.95 492.553 1290.53 490.017C1294.11 487.48 1295.08 482.34 1292.69 478.536C1292.43 478.117 1291.95 477.375 1291.28 476.357C1290.18 474.684 1288.91 472.827 1287.51 470.831C1283.5 465.125 1279.14 459.418 1274.57 454.064C1267.72 446.039 1260.99 439.505 1254.44 434.947C1245.01 428.379 1236.01 425.927 1227.7 429.363C1217.16 433.719 1211.47 444.815 1202.07 471.508C1201.43 473.306 1199.27 479.492 1199.14 479.866C1188.85 509.245 1182.09 520.901 1174.84 520.901C1168.98 520.901 1162.56 508.735 1153.58 480.191C1153.52 480.009 1150.69 470.947 1149.87 468.378C1145.55 454.795 1142.46 446.666 1138.77 440.342C1132.99 430.434 1125.41 425.61 1116.34 429.363C1108.42 432.636 1103.07 442.187 1097.74 458.422C1094.15 469.382 1091.41 480.261 1085.88 504.182C1085.5 505.808 1085.5 505.808 1085.13 507.431C1079.27 532.785 1076.19 544.627 1072.42 554.746C1070.26 560.523 1068.2 564.543 1066.41 566.621C1065.86 567.257 1065.52 567.52 1065.45 567.544C1065.74 567.437 1066.14 567.448 1066.31 567.515C1064.5 566.767 1060.31 557.395 1056.29 541.555C1052.69 527.371 1049.63 511.349 1044.44 481.211C1044.11 479.245 1042.96 472.567 1042.85 471.916C1042.22 468.236 1041.73 465.411 1041.26 462.685C1036.35 434.413 1033 417.918 1029.23 405.381C1026.77 397.197 1024.26 391.291 1021.26 387.38C1016.39 381.024 1009.24 379.344 1003.01 384.494C991.516 394.002 986.599 424.046 974.454 528.179C974.258 529.866 974.258 529.866 974.061 531.553C967.856 584.749 964.785 608.33 960.831 629.718C958.418 642.77 956.038 652.163 953.755 657.586C953.244 658.798 952.765 659.744 952.347 660.4C952.116 660.764 952.003 660.896 952.106 660.817C953.472 659.772 955.761 659.855 956.903 660.799C954.185 658.551 949.458 637.232 945.255 603.421C941.738 575.128 939.032 546.106 933.635 482.388C933.28 478.204 933.28 478.204 932.926 474.022C927.171 406.105 924.158 374.586 920.263 346.227C917.783 328.175 915.273 314.866 912.553 306.078C910.88 300.675 909.081 296.731 906.74 294.006C902.654 289.247 896.594 288.302 891.648 292.392C878.7 303.101 873.816 350.879 862.176 522.221C862.013 524.618 862.013 524.618 861.851 527.016C856.145 611.003 853.328 647.829 849.511 682.438C847.133 704.002 844.72 719.997 842.229 730.271C841.028 735.229 839.843 738.652 838.901 740.238C838.857 740.313 839.062 740.088 839.808 739.708C841.389 738.9 843.312 739.017 844.682 739.866C845.205 740.191 845.26 740.257 845.113 739.994C844.652 739.176 844.112 737.896 843.541 736.202C842.275 732.445 840.986 727.049 839.709 720.127C837.243 706.763 834.869 688.02 832.519 663.862C828.769 625.333 825.987 586.032 820.327 497.292C820.109 493.871 820.109 493.871 819.891 490.451C814.191 401.088 811.335 361.032 807.514 322.845C801.453 262.257 796.953 240 783.61 240C771.355 240 766.139 255.249 760.648 288.971C757.146 310.48 754.611 333.035 749.653 383.059C749.415 385.46 749.415 385.46 749.177 387.862C744.106 439.018 741.509 462.063 737.924 483.864C735.715 497.304 733.44 507.473 731.088 514.242C729.977 517.437 728.899 519.713 727.991 520.961C727.759 521.28 727.637 521.404 727.688 521.37C728.089 521.101 728.696 520.901 729.389 520.901C723.305 520.901 719.664 516.386 713.71 501.732C713.367 500.886 713.014 500.009 712.538 498.819C711.941 497.322 711.612 496.498 711.329 495.791C710.316 493.262 709.538 491.364 708.738 489.484C700.554 470.267 691.638 458.634 676.534 452.388C656.058 443.921 637.885 449.598 623.198 463.838C617.446 469.415 613.481 474.991 611.301 478.946C609.127 482.892 610.375 487.963 614.089 490.273C617.803 492.583 622.577 491.257 624.751 487.311Z" fill="#98FEE1"/>
<path d="M392.978 884.968H396.53C400.242 884.968 403.09 884.2 405.074 882.664C407.058 881.128 408.05 878.92 408.05 876.04C408.05 873.16 407.058 870.952 405.074 869.416C403.09 867.88 400.242 867.112 396.53 867.112H392.978V884.968ZM434.354 925H410.93L392.978 897.16V925H374.162V852.616H403.442C407.474 852.616 410.994 853.224 414.002 854.44C417.01 855.592 419.474 857.192 421.394 859.24C423.378 861.288 424.85 863.656 425.81 866.344C426.834 869.032 427.346 871.912 427.346 874.984C427.346 880.488 426.002 884.968 423.314 888.424C420.69 891.816 416.786 894.12 411.602 895.336L434.354 925ZM483.409 868.552H461.041V880.648H482.161V896.584H461.041V909.064H483.409V925H442.225V852.616H483.409V868.552ZM536.719 871.144C534.671 869.48 532.623 868.264 530.575 867.496C528.527 866.664 526.543 866.248 524.623 866.248C522.191 866.248 520.207 866.824 518.671 867.976C517.135 869.128 516.367 870.632 516.367 872.488C516.367 873.768 516.751 874.824 517.519 875.656C518.287 876.488 519.279 877.224 520.495 877.864C521.775 878.44 523.183 878.952 524.719 879.4C526.319 879.848 527.887 880.328 529.423 880.84C535.567 882.888 540.047 885.64 542.863 889.096C545.743 892.488 547.183 896.936 547.183 902.44C547.183 906.152 546.543 909.512 545.263 912.52C544.047 915.528 542.223 918.12 539.791 920.296C537.423 922.408 534.479 924.04 530.959 925.192C527.503 926.408 523.567 927.016 519.151 927.016C509.999 927.016 501.519 924.296 493.711 918.856L501.775 903.688C504.591 906.184 507.375 908.04 510.127 909.256C512.879 910.472 515.599 911.08 518.287 911.08C521.359 911.08 523.631 910.376 525.103 908.968C526.639 907.56 527.407 905.96 527.407 904.168C527.407 903.08 527.215 902.152 526.831 901.384C526.447 900.552 525.807 899.816 524.911 899.176C524.015 898.472 522.831 897.832 521.359 897.256C519.951 896.68 518.223 896.04 516.175 895.336C513.743 894.568 511.343 893.736 508.975 892.84C506.671 891.88 504.591 890.632 502.735 889.096C500.943 887.56 499.471 885.64 498.319 883.336C497.231 880.968 496.687 877.992 496.687 874.408C496.687 870.824 497.263 867.592 498.415 864.712C499.631 861.768 501.295 859.272 503.407 857.224C505.583 855.112 508.207 853.48 511.279 852.328C514.415 851.176 517.903 850.6 521.743 850.6C525.327 850.6 529.071 851.112 532.975 852.136C536.879 853.096 540.623 854.536 544.207 856.456L536.719 871.144ZM600.221 868.552H577.853V880.648H598.973V896.584H577.853V909.064H600.221V925H559.037V852.616H600.221V868.552ZM610.523 925L622.811 852.616H641.435L655.931 891.208L670.331 852.616H688.955L701.243 925H682.523L676.283 883.336L659.195 925H651.707L635.483 883.336L629.243 925H610.523ZM731.978 910.408H736.106C740.842 910.408 744.234 909.8 746.282 908.584C748.33 907.368 749.354 905.416 749.354 902.728C749.354 900.04 748.33 898.088 746.282 896.872C744.234 895.656 740.842 895.048 736.106 895.048H731.978V910.408ZM731.978 881.032H735.434C741.322 881.032 744.266 878.696 744.266 874.024C744.266 869.352 741.322 867.016 735.434 867.016H731.978V881.032ZM713.162 852.616H741.194C747.85 852.616 752.906 854.216 756.362 857.416C759.818 860.616 761.546 865.224 761.546 871.24C761.546 874.888 760.874 877.928 759.53 880.36C758.25 882.728 756.266 884.744 753.578 886.408C756.266 886.92 758.538 887.72 760.394 888.808C762.314 889.832 763.85 891.112 765.002 892.648C766.218 894.184 767.082 895.912 767.594 897.832C768.106 899.752 768.362 901.8 768.362 903.976C768.362 907.368 767.754 910.376 766.538 913C765.386 915.624 763.722 917.832 761.546 919.624C759.434 921.416 756.842 922.76 753.77 923.656C750.698 924.552 747.242 925 743.402 925H713.162V852.616ZM798.447 852.616V909.064H821.007V925H779.631V852.616H798.447ZM871.909 868.552H849.541V880.648H870.661V896.584H849.541V909.064H871.909V925H830.725V852.616H871.909V868.552Z" fill="#32D1A2"/>
<path d="M882.979 915.784C882.979 914.248 883.267 912.808 883.843 911.464C884.419 910.056 885.219 908.84 886.243 907.816C887.267 906.792 888.451 905.992 889.795 905.416C891.203 904.84 892.675 904.552 894.211 904.552C895.747 904.552 897.187 904.84 898.531 905.416C899.939 905.992 901.155 906.792 902.179 907.816C903.203 908.84 904.003 910.056 904.579 911.464C905.155 912.808 905.443 914.248 905.443 915.784C905.443 917.32 905.155 918.792 904.579 920.2C904.003 921.544 903.203 922.728 902.179 923.752C901.155 924.776 899.939 925.576 898.531 926.152C897.187 926.728 895.747 927.016 894.211 927.016C892.675 927.016 891.203 926.728 889.795 926.152C888.451 925.576 887.267 924.776 886.243 923.752C885.219 922.728 884.419 921.544 883.843 920.2C883.267 918.792 882.979 917.32 882.979 915.784ZM957.46 898.12L949.012 874.024L940.564 898.12H957.46ZM962.452 912.424H935.572L931.252 925H911.188L938.74 852.616H959.284L986.836 925H966.772L962.452 912.424ZM1013.88 852.616V925H995.068V852.616H1013.88Z" fill="#98FEE1"/>
</svg>
