<svg width="969" height="147" viewBox="0 0 969 147" fill="none" xmlns="http://www.w3.org/2000/svg">
<g clip-path="url(#clip0_14_15)">
<path d="M330.364 96.3474V50.6526C330.364 22.7236 305.42 0 274.761 0H0V147H274.765C305.425 147 330.368 124.276 330.368 96.3474H330.364ZM184.571 14.4242L184.307 14.8524L159.494 54.7204L159.255 54.3384L134.583 14.4242H184.571ZM15.8782 132.576V14.4242H39.6871L39.7708 14.5543L114.531 132.58H15.8782V132.576ZM122.486 113.462L61.2181 14.4242H113.057L113.14 14.5543L149.071 71.231L148.979 71.3821L122.725 113.844L122.486 113.462ZM130.744 132.576L159.318 87.2294L187.892 132.576H130.74H130.744ZM195.856 113.462L169.572 71.231L205.416 14.42H257.941L196.09 113.84L195.852 113.462H195.856ZM204.381 132.148L278.672 14.5963L278.844 14.6131C299.165 16.5106 314.486 32.0053 314.486 50.6526V96.3474C314.486 116.325 296.669 132.576 274.765 132.576H204.113L204.385 132.148H204.381Z" fill="#222222"/>
<path d="M755.671 53.016L714.049 119.923L697.254 92.947L722.449 53.016H705.959L689.252 79.8619L672.662 53.016H655.695L681.011 92.9512L664.337 119.915L623.185 53.398L622.946 53.016H605.988L657.893 134.964L658.132 135.346H670.422L689.135 105.654L707.839 135.346H720.133L772.156 53.016H755.671Z" fill="#222222"/>
<path d="M416.417 10.7971H448.177C454.144 10.7971 460.078 11.1497 465.986 11.855C471.89 12.5603 477.187 14.0841 481.864 16.4308C486.541 18.7774 490.343 22.2072 493.27 26.72C496.193 31.237 497.659 37.366 497.659 45.1029C497.659 54.2502 494.912 61.6386 489.414 67.2681C483.916 72.8976 476.312 76.4742 466.601 77.9981L501.871 135.346H483.794L450.108 79.4044H431.156V135.346H416.417V10.7971ZM431.156 65.6855H444.317C448.412 65.6855 452.649 65.5721 457.038 65.3328C461.426 65.0977 465.463 64.3379 469.147 63.0449C472.832 61.7562 475.872 59.7327 478.271 56.9747C480.667 54.2208 481.868 50.2621 481.868 45.0987C481.868 40.6446 480.989 37.068 479.234 34.3687C477.48 31.6694 475.169 29.5914 472.305 28.1221C469.436 26.657 466.22 25.6915 462.653 25.2213C459.085 24.7553 455.484 24.5161 451.862 24.5161H431.156V65.6813V65.6855Z" fill="#222222"/>
<path d="M592.622 120.393C587.71 126.728 582.325 131.153 576.48 133.676C570.63 136.199 563.847 137.458 556.126 137.458C549.69 137.458 543.899 136.316 538.757 134.028C533.606 131.74 529.252 128.663 525.684 124.793C522.116 120.922 519.37 116.351 517.439 111.074C515.509 105.797 514.546 100.168 514.546 94.1897C514.546 87.8549 515.597 82.024 517.703 76.6842C519.809 71.3486 522.732 66.777 526.475 62.9652C530.219 59.1535 534.662 56.1897 539.812 54.0782C544.958 51.9666 550.573 50.9087 556.653 50.9087C562.381 50.9087 567.649 51.8784 572.443 53.8137C577.238 55.7489 581.362 58.5658 584.817 62.2558C588.263 65.95 590.926 70.467 592.798 75.8026C594.665 81.1382 595.607 87.2085 595.607 94.0092V98.4086H529.281C529.515 101.927 530.361 105.302 531.823 108.526C533.284 111.754 535.185 114.567 537.526 116.972C539.866 119.377 542.613 121.279 545.775 122.69C548.932 124.1 552.382 124.801 556.126 124.801C562.092 124.801 567.121 123.748 571.216 121.636C575.307 119.524 578.992 116.418 582.271 112.312L592.622 120.402V120.393ZM580.864 86.7929C580.625 79.7571 578.347 74.1276 574.022 69.9045C569.692 65.6813 563.725 63.5697 556.121 63.5697C548.517 63.5697 542.374 65.6813 537.697 69.9045C533.02 74.1276 530.21 79.7571 529.277 86.7929H580.864Z" fill="#222222"/>
<path d="M787.833 26.4933C787.833 24.0543 788.704 21.9385 790.45 20.1376C792.192 18.3366 794.332 17.4341 796.869 17.4341C799.407 17.4341 801.542 18.3366 803.288 20.1376C805.03 21.9385 805.901 24.0543 805.901 26.4933C805.901 29.1422 805.055 31.3125 803.368 33.0085C801.676 34.7045 799.507 35.5525 796.869 35.5525C794.231 35.5525 792.062 34.7045 790.371 33.0085C788.679 31.3167 787.833 29.1422 787.833 26.4933ZM790.027 53.016H803.711V135.342H790.027V53.016Z" fill="#222222"/>
<path d="M830.908 72.545C830.908 68.792 830.79 65.2741 830.56 61.9913C830.321 58.7085 830.208 55.7196 830.208 53.0203H843.193C843.193 55.2494 843.252 57.4785 843.369 59.7034C843.482 61.9325 843.545 64.2204 843.545 66.5671H843.892C844.826 64.5731 846.141 62.6378 847.841 60.7613C849.537 58.8848 851.555 57.214 853.896 55.7447C856.232 54.2797 858.866 53.1042 861.793 52.2269C864.716 51.3453 867.873 50.9087 871.269 50.9087C872.203 50.9087 873.136 50.9717 874.078 51.0892C875.012 51.2067 875.946 51.4376 876.888 51.7903L876.009 65.6897C873.668 64.9845 871.21 64.6318 868.639 64.6318C860.219 64.6318 854.105 67.3605 850.303 72.8095C846.501 78.2626 844.6 85.7392 844.6 95.2392V135.346H830.916V72.545H830.908Z" fill="#222222"/>
<path d="M966.015 120.393C961.103 126.728 955.718 131.153 949.873 133.676C944.023 136.199 937.24 137.458 929.518 137.458C923.082 137.458 917.291 136.316 912.149 134.028C906.999 131.74 902.644 128.663 899.077 124.793C895.509 120.922 892.762 116.351 890.832 111.074C888.902 105.797 887.938 100.168 887.938 94.1897C887.938 87.8549 888.99 82.024 891.096 76.6842C893.202 71.3486 896.125 66.777 899.868 62.9652C903.611 59.1535 908.054 56.1897 913.204 54.0782C918.351 51.9666 923.966 50.9087 930.046 50.9087C935.774 50.9087 941.042 51.8784 945.836 53.8137C950.63 55.7489 954.755 58.5658 958.209 62.2558C961.656 65.95 964.319 70.467 966.19 75.8026C968.058 81.1382 969 87.2085 969 94.0092V98.4086H902.673C902.908 101.927 903.754 105.302 905.215 108.526C906.677 111.754 908.578 114.567 910.918 116.972C913.259 119.377 916.006 121.279 919.167 122.69C922.324 124.1 925.775 124.801 929.518 124.801C935.485 124.801 940.514 123.748 944.609 121.636C948.7 119.524 952.385 116.418 955.664 112.312L966.015 120.402V120.393ZM954.261 86.7929C954.022 79.7571 951.744 74.1276 947.419 69.9045C943.089 65.6813 937.122 63.5697 929.518 63.5697C921.914 63.5697 915.771 65.6813 911.094 69.9045C906.417 74.1276 903.607 79.7571 902.673 86.7929H954.261Z" fill="#222222"/>
</g>
<defs>
<clipPath id="clip0_14_15">
<rect width="969" height="147" fill="white"/>
</clipPath>
</defs>
</svg>
