<svg version="1.1" id="Layer_1" xmlns="http://www.w3.org/2000/svg" xmlns:xlink="http://www.w3.org/1999/xlink" x="0px" y="0px"
	 width="100%" viewBox="0 0 628 167" enable-background="new 0 0 628 167" xml:space="preserve">
<path fill="#FEFEFF" opacity="1.000000" stroke="none" 
	d="
M457.000000,168.000000 
	C304.714417,168.000000 152.928818,168.000000 1.071608,168.000000 
	C1.071608,112.398651 1.071608,56.797188 1.071608,1.097862 
	C210.333313,1.097862 419.666656,1.097862 628.972900,1.097862 
	C628.972900,56.737785 628.972900,112.368904 628.972900,168.000000 
	C571.797241,168.000000 514.648621,168.000000 457.000000,168.000000 
M493.207550,100.981773 
	C492.822693,100.975349 492.437836,100.968925 491.868683,100.218742 
	C486.484253,81.925354 481.099792,63.631969 475.721771,45.360382 
	C465.918213,45.360382 456.478699,45.360382 446.799683,45.360382 
	C446.799683,71.094620 446.799683,96.617218 446.799683,122.187027 
	C453.370941,122.187027 459.582428,122.187027 465.505737,122.187027 
	C465.505737,101.888977 465.505737,81.961945 465.505737,61.532482 
	C466.079376,63.220959 466.570099,64.544579 466.980774,65.892601 
	C472.351379,83.521362 477.679840,101.163109 483.132416,118.766441 
	C483.559662,120.145813 484.800476,122.310570 485.718597,122.339287 
	C494.445679,122.612305 503.184753,122.502098 511.877625,122.502098 
	C511.877625,96.363976 511.877625,70.966423 511.877625,45.392921 
	C505.496277,45.392921 499.419098,45.392921 493.784027,45.392921 
	C493.784027,64.050461 493.784027,82.461540 493.207550,100.981773 
M224.091599,122.365562 
	C230.417496,122.726555 236.741608,123.175110 243.072266,123.305672 
	C243.669250,123.317986 244.655670,121.397163 244.873291,120.261208 
	C247.313889,107.521347 249.626953,94.757118 251.999771,82.004181 
	C253.445206,74.235527 254.934784,66.475105 256.404541,58.710983 
	C256.854797,58.755749 257.305054,58.800510 257.755310,58.845276 
	C257.755310,80.262413 257.755310,101.679550 257.755310,123.155113 
	C264.852936,123.155113 271.235260,123.155113 277.780640,123.155113 
	C277.168060,97.016151 276.564941,71.281693 275.958496,45.403732 
	C265.045197,45.403732 254.636063,45.403732 244.001205,45.403732 
	C240.921661,64.280746 237.875992,82.950043 234.830338,101.619339 
	C234.468796,101.609261 234.107239,101.599190 233.745697,101.589111 
	C230.717361,82.933670 227.689011,64.278221 224.645523,45.529449 
	C213.860092,45.529449 203.331650,45.529449 192.534866,45.529449 
	C191.982651,71.633873 191.438385,97.362640 190.884354,123.553146 
	C195.939514,123.553146 200.437088,123.235954 204.869278,123.638466 
	C209.726791,124.079597 211.019577,122.335190 210.958633,117.547112 
	C210.700165,97.240623 210.848953,76.928955 210.848953,56.619183 
	C211.164932,56.583134 211.480911,56.547085 211.796890,56.511032 
	C215.851044,78.185455 219.905197,99.859879 224.091599,122.365562 
M405.156158,51.642658 
	C405.155975,68.792526 405.194336,85.942528 405.136078,103.092201 
	C405.113739,109.675285 400.256897,113.216751 394.607117,110.844650 
	C390.764557,109.231300 390.156250,105.864250 390.162720,102.164909 
	C390.192871,85.015099 390.175873,67.865196 390.175781,50.715332 
	C390.175751,48.964237 390.175781,47.213142 390.175781,45.416119 
	C383.187622,45.416119 376.936005,45.416119 370.156189,45.416119 
	C370.156189,55.443981 370.107391,65.220108 370.169373,74.995522 
	C370.236877,85.645233 370.051971,96.313965 370.640503,106.937660 
	C371.148834,116.113754 376.509766,122.326813 385.450836,124.034744 
	C392.026123,125.290764 399.006805,125.640869 405.666595,124.980354 
	C418.813507,123.676453 425.066132,116.180641 425.158630,103.002861 
	C425.236938,91.847672 425.175018,80.691498 425.175079,69.535759 
	C425.175110,61.582581 425.175049,53.629406 425.175049,45.477036 
	C418.326172,45.477036 411.949341,45.477036 405.156128,45.477036 
	C405.156128,47.425644 405.156128,49.056568 405.156158,51.642658 
M581.295532,49.167839 
	C572.314270,42.437614 562.113159,42.287476 551.699890,43.930576 
	C539.727783,45.819656 533.343506,52.071877 532.793945,64.108170 
	C532.164368,77.897202 532.503479,91.747154 532.867126,105.558914 
	C533.106201,114.639732 538.534424,120.260864 546.899658,122.963127 
	C556.034119,125.913902 565.288696,125.834435 574.372986,122.687927 
	C581.931335,120.069954 586.964294,114.729988 587.526245,106.696945 
	C588.148682,97.800522 587.668518,88.826958 587.668518,79.868950 
	C578.456909,79.868950 569.417358,79.868950 560.414551,79.868950 
	C560.414551,83.735924 560.414551,87.175781 560.414551,90.773994 
	C563.068665,90.947174 565.484985,91.104843 568.141846,91.278198 
	C568.141846,95.407936 568.267883,99.222198 568.110291,103.024696 
	C567.907593,107.915535 564.862183,110.780609 560.163513,110.792374 
	C555.720398,110.803505 552.313477,108.093719 552.237793,103.553535 
	C552.023987,90.728531 551.991394,77.893608 552.265625,65.070679 
	C552.378235,59.803280 555.344543,57.468266 560.273560,57.554066 
	C565.229553,57.640339 567.682922,60.115723 567.973572,65.398376 
	C568.053223,66.845383 567.985657,68.300491 567.985657,69.809685 
	C574.811096,69.809685 581.186829,69.809685 587.657349,69.809685 
	C588.308655,62.074986 587.498474,55.162548 581.295532,49.167839 
M62.308582,43.529961 
	C53.281502,45.143559 46.321583,49.343418 44.129654,58.895153 
	C41.638176,69.752213 44.715210,77.439056 54.193661,83.843826 
	C58.722939,86.904343 63.707367,89.283356 68.330612,92.215485 
	C71.535355,94.247971 74.714897,96.442764 77.469925,99.029213 
	C80.563965,101.933952 80.218842,105.734474 78.258888,109.116844 
	C76.269417,112.550148 72.695229,112.612991 69.370262,111.814514 
	C65.650597,110.921234 64.064735,108.124565 64.167015,104.327538 
	C64.224426,102.196037 64.177345,100.061737 64.177345,97.664047 
	C62.273457,97.580658 60.803524,97.466988 59.333138,97.460732 
	C54.038273,97.438194 48.743256,97.451881 43.521999,97.451881 
	C41.008530,114.575974 48.871655,124.742798 65.412361,126.058067 
	C69.365929,126.372444 73.384003,126.368736 77.339500,126.072243 
	C88.705292,125.220284 96.207504,119.813889 98.617699,111.052872 
	C102.000488,98.756531 98.999870,89.464119 88.901443,82.602608 
	C84.110283,79.347191 78.795952,76.871719 73.822372,73.870972 
	C70.993774,72.164375 67.607018,70.622475 65.896408,68.056557 
	C64.448349,65.884468 63.942673,61.768547 65.081047,59.589729 
	C66.051628,57.732086 70.255615,56.196194 72.476654,56.746815 
	C74.667404,57.289928 76.505119,60.440907 77.832405,62.819069 
	C78.574860,64.149361 77.965942,66.233871 77.965942,68.176147 
	C81.832161,68.176147 84.981613,68.176147 88.131065,68.176147 
	C91.240791,68.176147 94.350525,68.176147 97.362808,68.176147 
	C99.089043,53.931641 94.009575,46.113705 81.009697,43.821102 
	C75.204582,42.797333 69.112320,43.401737 62.308582,43.529961 
M171.147736,99.228676 
	C167.861115,81.273438 164.574493,63.318207 161.299805,45.428112 
	C149.315384,45.428112 137.882172,45.428112 126.321671,45.428112 
	C121.501877,71.454399 116.727234,97.236885 111.896019,123.324814 
	C119.149788,123.324814 125.917023,123.324814 133.227402,123.324814 
	C136.623245,100.943596 140.014252,78.594231 143.405273,56.244865 
	C143.774780,56.237141 144.144287,56.229412 144.513794,56.221687 
	C147.832932,78.573418 151.152054,100.925140 154.475677,123.307205 
	C161.670425,123.307205 168.274612,123.307205 175.589432,123.307205 
	C174.121964,115.327553 172.719299,107.700218 171.147736,99.228676 
M350.730438,92.077583 
	C347.143341,88.458382 343.898163,84.386513 339.873505,81.346588 
	C335.803925,78.272720 330.909851,76.309639 326.479309,73.687050 
	C323.917328,72.170555 320.772339,70.799026 319.329498,68.470215 
	C317.912231,66.182755 317.386871,62.492493 318.147919,59.912769 
	C319.187195,56.389858 322.880554,56.153419 326.179230,56.941555 
	C329.578461,57.753719 331.009277,60.168381 331.000854,63.576443 
	C330.997314,65.012596 331.125183,66.449066 331.189880,67.813385 
	C337.785370,67.813385 344.003174,67.813385 350.344482,67.813385 
	C351.033875,59.490089 350.627869,51.462704 342.670776,47.391647 
	C330.410004,41.118725 317.430817,40.858799 305.442200,47.944832 
	C293.870941,54.784199 293.714172,73.105148 304.975800,81.782333 
	C310.993439,86.418961 318.006378,89.745300 324.416016,93.900711 
	C327.021698,95.590004 330.211792,97.483238 331.321960,100.064011 
	C332.438934,102.660606 332.371674,107.001472 330.828094,109.133400 
	C329.492218,110.978386 325.305634,111.536293 322.476624,111.329514 
	C318.818573,111.062134 317.455414,107.974716 317.541962,104.384361 
	C317.595886,102.147331 317.552002,99.907936 317.552002,97.787521 
	C310.057831,97.787521 303.465912,97.787521 296.931244,97.787521 
	C294.922119,112.346634 300.504028,122.350899 313.127533,124.598213 
	C320.494598,125.909752 328.392944,125.671516 335.849091,124.648972 
	C343.464050,123.604630 349.904846,119.078430 351.249420,110.965706 
	C352.223999,105.085625 351.165924,98.868645 350.730438,92.077583 
z"/>
<path fill="#1A2EA2" opacity="1.000000" stroke="none" 
	d="
M224.025482,121.949936 
	C219.905197,99.859879 215.851044,78.185455 211.796890,56.511032 
	C211.480911,56.547085 211.164932,56.583134 210.848953,56.619183 
	C210.848953,76.928955 210.700165,97.240623 210.958633,117.547112 
	C211.019577,122.335190 209.726791,124.079597 204.869278,123.638466 
	C200.437088,123.235954 195.939514,123.553146 190.884354,123.553146 
	C191.438385,97.362640 191.982651,71.633873 192.534866,45.529449 
	C203.331650,45.529449 213.860092,45.529449 224.645523,45.529449 
	C227.689011,64.278221 230.717361,82.933670 233.745697,101.589111 
	C234.107239,101.599190 234.468796,101.609261 234.830338,101.619339 
	C237.875992,82.950043 240.921661,64.280746 244.001205,45.403732 
	C254.636063,45.403732 265.045197,45.403732 275.958496,45.403732 
	C276.564941,71.281693 277.168060,97.016151 277.780640,123.155113 
	C271.235260,123.155113 264.852936,123.155113 257.755310,123.155113 
	C257.755310,101.679550 257.755310,80.262413 257.755310,58.845276 
	C257.305054,58.800510 256.854797,58.755749 256.404541,58.710983 
	C254.934784,66.475105 253.445206,74.235527 251.999771,82.004181 
	C249.626953,94.757118 247.313889,107.521347 244.873291,120.261208 
	C244.655670,121.397163 243.669250,123.317986 243.072266,123.305672 
	C236.741608,123.175110 230.417496,122.726555 224.025482,121.949936 
z"/>
<path fill="#1A2EA3" opacity="1.000000" stroke="none" 
	d="
M493.784027,100.872620 
	C493.784027,82.461540 493.784027,64.050461 493.784027,45.392921 
	C499.419098,45.392921 505.496277,45.392921 511.877625,45.392921 
	C511.877625,70.966423 511.877625,96.363976 511.877625,122.502098 
	C503.184753,122.502098 494.445679,122.612305 485.718597,122.339287 
	C484.800476,122.310570 483.559662,120.145813 483.132416,118.766441 
	C477.679840,101.163109 472.351379,83.521362 466.980774,65.892601 
	C466.570099,64.544579 466.079376,63.220959 465.505737,61.532482 
	C465.505737,81.961945 465.505737,101.888977 465.505737,122.187027 
	C459.582428,122.187027 453.370941,122.187027 446.799683,122.187027 
	C446.799683,96.617218 446.799683,71.094620 446.799683,45.360382 
	C456.478699,45.360382 465.918213,45.360382 475.721771,45.360382 
	C481.099792,63.631969 486.484253,81.925354 491.919403,100.946083 
	C492.391998,102.864357 492.813873,104.055290 493.235779,105.246216 
	C493.506134,105.189140 493.776489,105.132057 494.046844,105.074974 
	C493.959229,103.674194 493.871643,102.273407 493.784027,100.872620 
z"/>
<path fill="#182CA2" opacity="1.000000" stroke="none" 
	d="
M405.156128,51.165077 
	C405.156128,49.056568 405.156128,47.425644 405.156128,45.477036 
	C411.949341,45.477036 418.326172,45.477036 425.175049,45.477036 
	C425.175049,53.629406 425.175110,61.582581 425.175079,69.535759 
	C425.175018,80.691498 425.236938,91.847672 425.158630,103.002861 
	C425.066132,116.180641 418.813507,123.676453 405.666595,124.980354 
	C399.006805,125.640869 392.026123,125.290764 385.450836,124.034744 
	C376.509766,122.326813 371.148834,116.113754 370.640503,106.937660 
	C370.051971,96.313965 370.236877,85.645233 370.169373,74.995522 
	C370.107391,65.220108 370.156189,55.443981 370.156189,45.416119 
	C376.936005,45.416119 383.187622,45.416119 390.175781,45.416119 
	C390.175781,47.213142 390.175751,48.964237 390.175781,50.715332 
	C390.175873,67.865196 390.192871,85.015099 390.162720,102.164909 
	C390.156250,105.864250 390.764557,109.231300 394.607117,110.844650 
	C400.256897,113.216751 405.113739,109.675285 405.136078,103.092201 
	C405.194336,85.942528 405.155975,68.792526 405.156128,51.165077 
z"/>
<path fill="#192DA2" opacity="1.000000" stroke="none" 
	d="
M581.561279,49.412598 
	C587.498474,55.162548 588.308655,62.074986 587.657349,69.809685 
	C581.186829,69.809685 574.811096,69.809685 567.985657,69.809685 
	C567.985657,68.300491 568.053223,66.845383 567.973572,65.398376 
	C567.682922,60.115723 565.229553,57.640339 560.273560,57.554066 
	C555.344543,57.468266 552.378235,59.803280 552.265625,65.070679 
	C551.991394,77.893608 552.023987,90.728531 552.237793,103.553535 
	C552.313477,108.093719 555.720398,110.803505 560.163513,110.792374 
	C564.862183,110.780609 567.907593,107.915535 568.110291,103.024696 
	C568.267883,99.222198 568.141846,95.407936 568.141846,91.278198 
	C565.484985,91.104843 563.068665,90.947174 560.414551,90.773994 
	C560.414551,87.175781 560.414551,83.735924 560.414551,79.868950 
	C569.417358,79.868950 578.456909,79.868950 587.668518,79.868950 
	C587.668518,88.826958 588.148682,97.800522 587.526245,106.696945 
	C586.964294,114.729988 581.931335,120.069954 574.372986,122.687927 
	C565.288696,125.834435 556.034119,125.913902 546.899658,122.963127 
	C538.534424,120.260864 533.106201,114.639732 532.867126,105.558914 
	C532.503479,91.747154 532.164368,77.897202 532.793945,64.108170 
	C533.343506,52.071877 539.727783,45.819656 551.699890,43.930576 
	C562.113159,42.287476 572.314270,42.437614 581.561279,49.412598 
z"/>
<path fill="#182CA2" opacity="1.000000" stroke="none" 
	d="
M62.729477,43.398590 
	C69.112320,43.401737 75.204582,42.797333 81.009697,43.821102 
	C94.009575,46.113705 99.089043,53.931641 97.362808,68.176147 
	C94.350525,68.176147 91.240791,68.176147 88.131065,68.176147 
	C84.981613,68.176147 81.832161,68.176147 77.965942,68.176147 
	C77.965942,66.233871 78.574860,64.149361 77.832405,62.819069 
	C76.505119,60.440907 74.667404,57.289928 72.476654,56.746815 
	C70.255615,56.196194 66.051628,57.732086 65.081047,59.589729 
	C63.942673,61.768547 64.448349,65.884468 65.896408,68.056557 
	C67.607018,70.622475 70.993774,72.164375 73.822372,73.870972 
	C78.795952,76.871719 84.110283,79.347191 88.901443,82.602608 
	C98.999870,89.464119 102.000488,98.756531 98.617699,111.052872 
	C96.207504,119.813889 88.705292,125.220284 77.339500,126.072243 
	C73.384003,126.368736 69.365929,126.372444 65.412361,126.058067 
	C48.871655,124.742798 41.008530,114.575974 43.521999,97.451881 
	C48.743256,97.451881 54.038273,97.438194 59.333138,97.460732 
	C60.803524,97.466988 62.273457,97.580658 64.177345,97.664047 
	C64.177345,100.061737 64.224426,102.196037 64.167015,104.327538 
	C64.064735,108.124565 65.650597,110.921234 69.370262,111.814514 
	C72.695229,112.612991 76.269417,112.550148 78.258888,109.116844 
	C80.218842,105.734474 80.563965,101.933952 77.469925,99.029213 
	C74.714897,96.442764 71.535355,94.247971 68.330612,92.215485 
	C63.707367,89.283356 58.722939,86.904343 54.193661,83.843826 
	C44.715210,77.439056 41.638176,69.752213 44.129654,58.895153 
	C46.321583,49.343418 53.281502,45.143559 62.729477,43.398590 
z"/>
<path fill="#1A2EA2" opacity="1.000000" stroke="none" 
	d="
M171.232178,99.650772 
	C172.719299,107.700218 174.121964,115.327553 175.589432,123.307205 
	C168.274612,123.307205 161.670425,123.307205 154.475677,123.307205 
	C151.152054,100.925140 147.832932,78.573418 144.513794,56.221687 
	C144.144287,56.229412 143.774780,56.237141 143.405273,56.244865 
	C140.014252,78.594231 136.623245,100.943596 133.227402,123.324814 
	C125.917023,123.324814 119.149788,123.324814 111.896019,123.324814 
	C116.727234,97.236885 121.501877,71.454399 126.321671,45.428112 
	C137.882172,45.428112 149.315384,45.428112 161.299805,45.428112 
	C164.574493,63.318207 167.861115,81.273438 171.232178,99.650772 
z"/>
<path fill="#192DA2" opacity="1.000000" stroke="none" 
	d="
M350.872345,92.439743 
	C351.165924,98.868645 352.223999,105.085625 351.249420,110.965706 
	C349.904846,119.078430 343.464050,123.604630 335.849091,124.648972 
	C328.392944,125.671516 320.494598,125.909752 313.127533,124.598213 
	C300.504028,122.350899 294.922119,112.346634 296.931244,97.787521 
	C303.465912,97.787521 310.057831,97.787521 317.552002,97.787521 
	C317.552002,99.907936 317.595886,102.147331 317.541962,104.384361 
	C317.455414,107.974716 318.818573,111.062134 322.476624,111.329514 
	C325.305634,111.536293 329.492218,110.978386 330.828094,109.133400 
	C332.371674,107.001472 332.438934,102.660606 331.321960,100.064011 
	C330.211792,97.483238 327.021698,95.590004 324.416016,93.900711 
	C318.006378,89.745300 310.993439,86.418961 304.975800,81.782333 
	C293.714172,73.105148 293.870941,54.784199 305.442200,47.944832 
	C317.430817,40.858799 330.410004,41.118725 342.670776,47.391647 
	C350.627869,51.462704 351.033875,59.490089 350.344482,67.813385 
	C344.003174,67.813385 337.785370,67.813385 331.189880,67.813385 
	C331.125183,66.449066 330.997314,65.012596 331.000854,63.576443 
	C331.009277,60.168381 329.578461,57.753719 326.179230,56.941555 
	C322.880554,56.153419 319.187195,56.389858 318.147919,59.912769 
	C317.386871,62.492493 317.912231,66.182755 319.329498,68.470215 
	C320.772339,70.799026 323.917328,72.170555 326.479309,73.687050 
	C330.909851,76.309639 335.803925,78.272720 339.873505,81.346588 
	C343.898163,84.386513 347.143341,88.458382 350.872345,92.439743 
z"/>
<path fill="#9DA5D7" opacity="1.000000" stroke="none" 
	d="
M493.495789,100.927200 
	C493.871643,102.273407 493.959229,103.674194 494.046844,105.074974 
	C493.776489,105.132057 493.506134,105.189140 493.235779,105.246216 
	C492.813873,104.055290 492.391998,102.864357 492.011536,101.317963 
	C492.437836,100.968925 492.822693,100.975349 493.495789,100.927200 
z"/>
</svg>