<svg version="1.1" id="Layer_1" xmlns="http://www.w3.org/2000/svg" xmlns:xlink="http://www.w3.org/1999/xlink" x="0px" y="0px"
	 width="100%" viewBox="0 0 2868 776" enable-background="new 0 0 2868 776" xml:space="preserve">
<path fill="#F6C09E" opacity="1.000000" stroke="none" 
	d="
M2059.000000,777.000000 
	C1372.666626,777.000000 686.833313,777.000000 1.000000,777.000000 
	C1.000000,518.333313 1.000000,259.666656 1.000000,1.000000 
	C957.000000,1.000000 1913.000000,1.000000 2869.000000,1.000000 
	C2869.000000,259.666656 2869.000000,518.333313 2869.000000,777.000000 
	C2599.166748,777.000000 2329.333252,777.000000 2059.000000,777.000000 
M1393.402710,239.702209 
	C1393.670898,239.541840 1393.800659,239.305435 1393.854614,238.058960 
	C1393.871948,223.228241 1393.690674,208.393082 1394.020386,193.569321 
	C1394.127563,188.744156 1392.393066,187.819595 1387.999268,187.824127 
	C1285.682739,187.929596 1183.366089,187.934982 1081.049561,187.811386 
	C1076.376831,187.805740 1074.795044,188.865677 1074.799683,193.836472 
	C1074.931396,336.979706 1074.922729,480.123077 1074.824341,623.266357 
	C1074.821411,627.512268 1075.781616,629.008423 1080.334106,629.003052 
	C1186.483398,628.878418 1292.632690,628.881714 1398.781982,628.995667 
	C1403.111938,629.000305 1404.051880,627.509827 1403.987183,623.524231 
	C1403.773804,610.363159 1403.908691,597.196472 1403.906250,584.031982 
	C1403.905029,576.911804 1403.901611,576.906433 1396.964966,576.906311 
	C1334.641724,576.904907 1272.318604,576.916321 1209.995361,576.900269 
	C1184.667114,576.893738 1159.338867,576.828735 1133.782471,576.485779 
	C1133.614990,576.292969 1133.423706,576.127563 1133.146729,575.055847 
	C1133.129272,527.904724 1133.110474,480.753571 1133.096069,433.602448 
	C1133.093994,426.913910 1133.104004,426.908112 1139.964844,426.907990 
	C1216.940063,426.906555 1293.915283,426.866547 1370.890259,427.005707 
	C1375.586060,427.014191 1377.239258,425.929749 1377.113525,420.983856 
	C1376.779175,407.829956 1377.002930,394.661926 1376.998657,381.499512 
	C1376.996582,375.009369 1376.990479,375.001099 1370.503296,375.000916 
	C1293.361572,374.998871 1216.219604,374.956055 1139.078247,375.102692 
	C1134.233154,375.111908 1132.969116,373.725586 1132.990356,368.952515 
	C1133.171997,328.133148 1133.092896,287.312683 1133.095947,246.492523 
	C1133.096436,239.919159 1133.105591,239.908905 1139.574829,239.908569 
	C1194.057251,239.905731 1248.539673,239.919815 1303.022095,239.901810 
	C1333.011475,239.891891 1363.000854,239.830048 1393.402710,239.702209 
M2232.853027,425.058380 
	C2232.870605,410.561951 2232.893799,396.065521 2232.903564,381.569092 
	C2232.908203,375.010712 2232.895752,375.001587 2226.443848,375.001404 
	C2149.291748,374.999237 2072.139893,374.958893 1994.988037,375.100037 
	C1990.254150,375.108704 1988.775635,373.937836 1988.798218,369.045898 
	C1988.987793,328.054565 1988.906006,287.061981 1988.906250,246.069794 
	C1988.906250,245.403259 1988.975220,244.729065 1988.899292,244.071457 
	C1988.508667,240.687653 1990.198608,239.598083 1993.318237,239.888351 
	C1994.639771,240.011307 1995.982422,239.906052 1997.315552,239.906052 
	C2079.300049,239.905853 2161.284424,239.872269 2243.268555,239.996063 
	C2247.794189,240.002884 2249.306152,238.842148 2249.199707,234.160568 
	C2248.896729,220.836655 2248.851807,207.494766 2249.215820,194.173935 
	C2249.355713,189.050079 2247.811523,187.790100 2242.783936,187.797256 
	C2140.636963,187.942841 2038.489624,187.936493 1936.342529,187.810425 
	C1931.638672,187.804611 1930.101562,188.922699 1930.106079,193.859619 
	C1930.234375,336.998901 1930.226318,480.138367 1930.128662,623.277710 
	C1930.125854,627.502686 1931.010620,629.547424 1935.621826,628.965454 
	C1938.246094,628.634277 1940.946655,628.905823 1943.612793,628.905823 
	C2046.926392,628.905823 2150.239990,628.865601 2253.553467,629.025085 
	C2258.696777,629.033020 2260.098633,627.636414 2259.897217,622.605408 
	C2259.384033,609.798279 2259.377441,596.970093 2259.227051,584.149597 
	C2259.142090,576.911377 2259.194336,576.906982 2251.841064,576.906921 
	C2166.357422,576.906006 2080.873535,576.907166 1995.389771,576.904724 
	C1988.916382,576.904541 1988.907837,576.893616 1988.907471,570.322388 
	C1988.904785,524.664429 1988.904297,479.006439 1988.907959,433.348480 
	C1988.908447,426.917358 1988.920288,426.907990 1995.537109,426.907532 
	C2039.028809,426.904541 2082.520508,426.920685 2126.012207,426.901367 
	C2161.337891,426.885681 2196.663574,426.829132 2232.402100,426.701843 
	C2232.670654,426.541473 2232.800293,426.304962 2232.853027,425.058380 
M1775.092896,376.500000 
	C1775.092896,428.250214 1775.092896,480.000458 1775.092896,533.165405 
	C1773.301880,530.749634 1772.308105,529.517700 1771.429932,528.208252 
	C1756.491333,505.931030 1741.548462,483.656464 1726.642456,461.357330 
	C1666.828979,371.877075 1607.007568,282.402008 1547.295898,192.853836 
	C1544.908569,189.273590 1542.463379,187.711380 1538.037476,187.792953 
	C1522.379150,188.081543 1506.712036,187.903717 1491.048340,187.906128 
	C1483.912842,187.907227 1483.906372,187.910889 1483.906372,194.836487 
	C1483.905029,337.309845 1483.905151,479.783173 1483.906738,622.256531 
	C1483.906738,628.893494 1483.914673,628.902649 1490.323120,628.905334 
	C1504.487183,628.911316 1518.651123,628.908508 1532.815186,628.906738 
	C1539.901978,628.905884 1539.906616,628.903381 1539.906738,621.993530 
	C1539.907715,511.514191 1539.907349,401.034882 1539.907349,290.555542 
	C1539.907349,288.651978 1539.907349,286.748383 1539.907349,284.844818 
	C1542.221436,286.103668 1543.368042,287.635956 1544.430420,289.224426 
	C1580.368408,342.956543 1616.294434,396.696655 1652.230713,450.429932 
	C1691.038452,508.456848 1729.876831,566.463440 1768.605347,624.543213 
	C1770.661133,627.626038 1772.735107,629.064697 1776.614258,629.007446 
	C1792.774414,628.768921 1808.943481,628.721863 1825.101685,629.019409 
	C1829.993408,629.109497 1831.216309,627.592102 1831.196777,622.829041 
	C1831.021240,580.171082 1831.094482,537.512085 1831.094482,494.853394 
	C1831.094482,394.705444 1831.095215,294.557526 1831.092651,194.409592 
	C1831.092529,187.917801 1831.081177,187.909592 1824.524658,187.907089 
	C1810.193970,187.901657 1795.863403,187.901550 1781.532715,187.907150 
	C1775.103638,187.909668 1775.094482,187.918274 1775.094238,194.533859 
	C1775.092041,254.855911 1775.093018,315.177948 1775.092896,376.500000 
M2462.759521,578.821472 
	C2452.272461,575.068542 2441.432373,572.075623 2431.371338,567.404785 
	C2410.287354,557.616333 2393.640381,542.731262 2385.339111,520.484558 
	C2381.238770,509.496307 2379.010010,497.804352 2376.047607,486.401459 
	C2375.497559,484.283936 2375.747070,482.079285 2372.369385,482.399567 
	C2361.275391,483.451569 2350.156738,484.243408 2339.056396,485.231873 
	C2332.833008,485.786011 2326.626465,486.530609 2320.212891,487.210541 
	C2320.514404,490.082581 2320.827393,492.210510 2320.948730,494.349243 
	C2322.231934,517.004822 2328.436768,538.179138 2339.579834,557.978760 
	C2352.772217,581.420105 2371.383301,599.383240 2394.774170,612.283936 
	C2424.799561,628.843811 2457.707764,634.575073 2491.436768,635.733704 
	C2507.182129,636.274597 2523.105957,635.625549 2538.763916,633.867371 
	C2571.857422,630.151489 2602.208252,618.990784 2627.771973,596.880432 
	C2656.212158,572.282349 2670.755615,541.134583 2671.057129,503.468048 
	C2671.262695,477.741272 2663.745117,454.668121 2647.438232,434.535522 
	C2632.226074,415.754730 2612.613770,403.047699 2590.559570,394.234833 
	C2558.905273,381.585754 2525.541260,374.735687 2492.463867,367.030823 
	C2470.051514,361.810242 2447.906982,355.790039 2426.668457,346.749084 
	C2398.841309,334.903442 2388.006348,308.628632 2396.201172,281.087799 
	C2401.471924,263.373932 2414.354736,251.524048 2430.582764,243.340454 
	C2444.512451,236.316086 2459.636963,234.006760 2474.982666,232.790680 
	C2500.237549,230.789322 2525.236816,231.325439 2549.313965,240.550140 
	C2569.952148,248.457245 2585.089111,262.375092 2593.370117,282.895142 
	C2596.887695,291.610992 2598.903564,300.985107 2601.007812,310.195770 
	C2601.977295,314.439270 2603.148682,316.553894 2608.018555,316.042328 
	C2618.107178,314.982422 2628.256592,314.517181 2638.373047,313.703979 
	C2644.779785,313.188965 2651.171387,312.487488 2658.100342,311.818359 
	C2657.712158,308.067352 2657.296387,304.975067 2657.085938,301.868866 
	C2655.606445,280.038116 2648.106445,260.104034 2636.120117,242.196060 
	C2618.251465,215.499344 2592.538330,199.185867 2562.054688,190.062393 
	C2536.141846,182.306900 2509.676514,179.716751 2482.652100,180.747025 
	C2454.646973,181.814667 2427.815674,187.278900 2402.544922,199.508194 
	C2382.138672,209.383636 2365.591064,223.672485 2353.807373,243.263107 
	C2344.905029,258.063507 2339.911133,274.006805 2337.757568,291.159363 
	C2335.172363,311.748413 2339.248535,331.018799 2348.392090,349.121948 
	C2361.326172,374.730194 2383.260986,390.755005 2408.863281,401.980804 
	C2435.364502,413.600800 2463.526123,420.004395 2491.483154,426.991852 
	C2518.124268,433.650391 2545.068604,439.334625 2570.542480,449.980957 
	C2583.612549,455.443359 2595.651367,462.598267 2603.979248,474.449615 
	C2625.024902,504.399963 2614.465088,544.509766 2583.796631,564.099731 
	C2563.696533,576.938965 2541.146484,581.885254 2517.964355,583.785522 
	C2499.710938,585.281738 2481.399658,583.971313 2462.759521,578.821472 
M289.571503,337.981873 
	C272.408752,324.068939 265.827026,297.987518 275.193970,277.335114 
	C285.874023,253.787582 305.101471,241.392944 329.445496,236.104416 
	C351.067047,231.407333 372.999512,230.692749 395.002258,233.013855 
	C411.401367,234.743820 427.198059,238.719803 441.303619,247.551056 
	C464.703491,262.201263 475.245087,284.710175 478.880249,311.094635 
	C479.404297,314.898376 480.623505,316.357635 484.468750,316.025787 
	C495.075836,315.110413 505.703674,314.438263 516.317078,313.592255 
	C522.718933,313.081909 529.109314,312.426788 535.894653,311.800751 
	C535.193298,305.188751 534.952332,299.192688 533.875122,293.350830 
	C525.183960,246.216415 498.710266,213.233078 454.271515,195.261856 
	C424.666931,183.289627 393.636200,179.603836 361.786011,180.697830 
	C338.077301,181.512161 315.152313,185.509506 292.997314,193.906784 
	C271.715454,201.973114 253.266327,214.082397 239.124680,232.200363 
	C225.110336,250.155197 217.178085,270.537628 215.355606,293.211700 
	C213.025970,322.195618 220.948135,348.021851 240.475464,369.749054 
	C258.598846,389.914185 281.756897,402.416565 307.408203,409.801636 
	C342.277222,419.840515 377.491394,428.678558 412.542755,438.086700 
	C431.724274,443.235260 450.814911,448.689972 467.289917,460.436096 
	C490.018585,476.640778 495.368652,497.419250 491.060577,521.744385 
	C486.829681,545.633728 470.819641,560.793274 449.420471,570.691223 
	C434.772644,577.466370 419.312256,581.540833 403.273010,582.765259 
	C391.032227,583.699646 378.587250,584.797058 366.452911,583.597839 
	C349.765533,581.948730 333.372101,577.999817 317.696869,571.489319 
	C291.836365,560.748535 271.378937,544.368713 261.693726,517.260010 
	C258.137054,507.304901 256.374481,496.703308 253.900726,486.370941 
	C253.320786,483.948700 253.054840,481.999084 249.593643,482.364471 
	C239.176147,483.464111 228.719437,484.186981 218.284439,485.128021 
	C211.700623,485.721802 205.128281,486.443024 198.409744,487.121277 
	C198.278931,488.420319 198.072784,489.229370 198.136459,490.016571 
	C199.646118,508.675110 202.780396,526.891296 210.473999,544.224121 
	C226.413651,580.134338 252.785568,605.013489 288.839966,620.046204 
	C313.780243,630.444824 340.068329,634.434265 366.750946,635.771851 
	C389.551910,636.914856 412.327789,636.195007 434.792877,631.014648 
	C463.073120,624.493347 488.956726,613.115723 510.165131,593.001648 
	C532.075745,572.221619 545.281982,546.603271 548.148315,516.349670 
	C552.400085,471.473297 535.901794,436.019745 498.621582,410.390167 
	C477.963379,396.187927 454.701935,388.198059 430.733643,382.013184 
	C399.146393,373.862274 367.390381,366.350891 335.889526,357.885223 
	C319.829803,353.569183 303.908478,348.376099 289.571503,337.981873 
M897.869934,557.409241 
	C880.204590,571.866089 860.238342,580.997559 837.530090,584.305969 
	C810.381165,588.261414 784.117798,585.695862 758.696228,575.128296 
	C729.126038,562.836182 707.189880,542.501648 693.282532,513.577332 
	C679.166931,484.220001 673.858948,452.675659 672.286682,420.683197 
	C670.720459,388.812408 674.443848,357.294373 683.929871,326.502136 
	C693.627136,295.024078 710.876099,269.335449 738.845459,251.651474 
	C772.702759,230.244751 809.982300,226.466812 848.486023,233.326370 
	C875.801819,238.192780 897.891907,252.341492 914.103333,275.291016 
	C923.432861,288.498138 930.012268,302.979309 935.152893,318.184753 
	C936.214294,321.324432 937.488281,322.216949 940.939392,321.317963 
	C952.044434,318.425201 963.267761,315.986908 974.443604,313.365448 
	C980.884033,311.854797 987.320923,310.328918 993.616455,308.843628 
	C993.616455,307.728912 993.736816,307.198059 993.599243,306.745636 
	C985.599365,280.433319 973.478638,256.243408 955.033691,235.715515 
	C932.232666,210.339615 903.911560,193.846283 870.686890,186.016846 
	C842.662292,179.412796 814.372620,178.856491 785.918091,182.874802 
	C753.708740,187.423340 723.883179,198.508026 697.121338,216.872894 
	C664.058411,239.561874 641.951843,270.864716 628.070740,308.273651 
	C620.374390,329.014954 615.972717,350.381683 613.670715,372.370483 
	C611.496765,393.135437 610.522461,413.932800 613.390503,434.525665 
	C616.181946,454.568939 619.699402,474.692017 625.163635,494.143616 
	C635.776428,531.923157 653.617004,565.781677 683.761780,592.218750 
	C702.523682,608.673035 723.728027,620.353271 747.662292,627.087158 
	C780.965149,636.456970 814.833679,638.381104 849.089111,634.097473 
	C889.715332,629.017151 924.459900,612.114197 952.989868,582.525146 
	C968.973267,565.948486 980.455078,546.520996 989.368164,525.558777 
	C994.295715,513.969910 997.953247,501.841125 1002.456421,489.188477 
	C982.257568,484.084076 963.008423,479.219635 943.254395,474.227631 
	C936.075562,506.293365 923.384216,535.000732 897.869934,557.409241 
z"/>
<path fill="#FFFFFF" opacity="1.000000" stroke="none" 
	d="
M1775.093018,376.000000 
	C1775.093018,315.177948 1775.092041,254.855911 1775.094238,194.533859 
	C1775.094482,187.918274 1775.103638,187.909668 1781.532715,187.907150 
	C1795.863403,187.901550 1810.193970,187.901657 1824.524658,187.907089 
	C1831.081177,187.909592 1831.092529,187.917801 1831.092651,194.409592 
	C1831.095215,294.557526 1831.094482,394.705444 1831.094482,494.853394 
	C1831.094482,537.512085 1831.021240,580.171082 1831.196777,622.829041 
	C1831.216309,627.592102 1829.993408,629.109497 1825.101685,629.019409 
	C1808.943481,628.721863 1792.774414,628.768921 1776.614258,629.007446 
	C1772.735107,629.064697 1770.661133,627.626038 1768.605347,624.543213 
	C1729.876831,566.463440 1691.038452,508.456848 1652.230713,450.429932 
	C1616.294434,396.696655 1580.368408,342.956543 1544.430420,289.224426 
	C1543.368042,287.635956 1542.221436,286.103668 1539.907349,284.844818 
	C1539.907349,286.748383 1539.907349,288.651978 1539.907349,290.555542 
	C1539.907349,401.034882 1539.907715,511.514191 1539.906738,621.993530 
	C1539.906616,628.903381 1539.901978,628.905884 1532.815186,628.906738 
	C1518.651123,628.908508 1504.487183,628.911316 1490.323120,628.905334 
	C1483.914673,628.902649 1483.906738,628.893494 1483.906738,622.256531 
	C1483.905151,479.783173 1483.905029,337.309845 1483.906372,194.836487 
	C1483.906372,187.910889 1483.912842,187.907227 1491.048340,187.906128 
	C1506.712036,187.903717 1522.379150,188.081543 1538.037476,187.792953 
	C1542.463379,187.711380 1544.908569,189.273590 1547.295898,192.853836 
	C1607.007568,282.402008 1666.828979,371.877075 1726.642456,461.357330 
	C1741.548462,483.656464 1756.491333,505.931030 1771.429932,528.208252 
	C1772.308105,529.517700 1773.301880,530.749634 1775.092896,533.165405 
	C1775.092896,480.000458 1775.092896,428.250214 1775.093018,376.000000 
M1775.538086,534.501404 
	C1775.538086,534.501404 1775.483643,534.525879 1775.538086,534.501404 
z"/>
<path fill="#FFFFFF" opacity="1.000000" stroke="none" 
	d="
M2231.989258,426.790710 
	C2196.663574,426.829132 2161.337891,426.885681 2126.012207,426.901367 
	C2082.520508,426.920685 2039.028809,426.904541 1995.537109,426.907532 
	C1988.920288,426.907990 1988.908447,426.917358 1988.907959,433.348480 
	C1988.904297,479.006439 1988.904785,524.664429 1988.907471,570.322388 
	C1988.907837,576.893616 1988.916382,576.904541 1995.389771,576.904724 
	C2080.873535,576.907166 2166.357422,576.906006 2251.841064,576.906921 
	C2259.194336,576.906982 2259.142090,576.911377 2259.227051,584.149597 
	C2259.377441,596.970093 2259.384033,609.798279 2259.897217,622.605408 
	C2260.098633,627.636414 2258.696777,629.033020 2253.553467,629.025085 
	C2150.239990,628.865601 2046.926392,628.905823 1943.612793,628.905823 
	C1940.946655,628.905823 1938.246094,628.634277 1935.621826,628.965454 
	C1931.010620,629.547424 1930.125854,627.502686 1930.128662,623.277710 
	C1930.226318,480.138367 1930.234375,336.998901 1930.106079,193.859619 
	C1930.101562,188.922699 1931.638672,187.804611 1936.342529,187.810425 
	C2038.489624,187.936493 2140.636963,187.942841 2242.783936,187.797256 
	C2247.811523,187.790100 2249.355713,189.050079 2249.215820,194.173935 
	C2248.851807,207.494766 2248.896729,220.836655 2249.199707,234.160568 
	C2249.306152,238.842148 2247.794189,240.002884 2243.268555,239.996063 
	C2161.284424,239.872269 2079.300049,239.905853 1997.315552,239.906052 
	C1995.982422,239.906052 1994.639771,240.011307 1993.318237,239.888351 
	C1990.198608,239.598083 1988.508667,240.687653 1988.899292,244.071457 
	C1988.975220,244.729065 1988.906250,245.403259 1988.906250,246.069794 
	C1988.906006,287.061981 1988.987793,328.054565 1988.798218,369.045898 
	C1988.775635,373.937836 1990.254150,375.108704 1994.988037,375.100037 
	C2072.139893,374.958893 2149.291748,374.999237 2226.443848,375.001404 
	C2232.895752,375.001587 2232.908203,375.010712 2232.903564,381.569092 
	C2232.893799,396.065521 2232.870605,410.561951 2232.670410,425.638672 
	C2232.293945,426.385651 2232.127930,426.576233 2231.989258,426.790710 
z"/>
<path fill="#FFFFFF" opacity="1.000000" stroke="none" 
	d="
M1134.010620,576.790344 
	C1159.338867,576.828735 1184.667114,576.893738 1209.995361,576.900269 
	C1272.318604,576.916321 1334.641724,576.904907 1396.964966,576.906311 
	C1403.901611,576.906433 1403.905029,576.911804 1403.906250,584.031982 
	C1403.908691,597.196472 1403.773804,610.363159 1403.987183,623.524231 
	C1404.051880,627.509827 1403.111938,629.000305 1398.781982,628.995667 
	C1292.632690,628.881714 1186.483398,628.878418 1080.334106,629.003052 
	C1075.781616,629.008423 1074.821411,627.512268 1074.824341,623.266357 
	C1074.922729,480.123077 1074.931396,336.979706 1074.799683,193.836472 
	C1074.795044,188.865677 1076.376831,187.805740 1081.049561,187.811386 
	C1183.366089,187.934982 1285.682739,187.929596 1387.999268,187.824127 
	C1392.393066,187.819595 1394.127563,188.744156 1394.020386,193.569321 
	C1393.690674,208.393082 1393.871948,223.228241 1393.671631,238.639175 
	C1393.294922,239.386215 1393.128784,239.576950 1392.990234,239.791595 
	C1363.000854,239.830048 1333.011475,239.891891 1303.022095,239.901810 
	C1248.539673,239.919815 1194.057251,239.905731 1139.574829,239.908569 
	C1133.105591,239.908905 1133.096436,239.919159 1133.095947,246.492523 
	C1133.092896,287.312683 1133.171997,328.133148 1132.990356,368.952515 
	C1132.969116,373.725586 1134.233154,375.111908 1139.078247,375.102692 
	C1216.219604,374.956055 1293.361572,374.998871 1370.503296,375.000916 
	C1376.990479,375.001099 1376.996582,375.009369 1376.998657,381.499512 
	C1377.002930,394.661926 1376.779175,407.829956 1377.113525,420.983856 
	C1377.239258,425.929749 1375.586060,427.014191 1370.890259,427.005707 
	C1293.915283,426.866547 1216.940063,426.906555 1139.964844,426.907990 
	C1133.104004,426.908112 1133.093994,426.913910 1133.096069,433.602448 
	C1133.110474,480.753571 1133.129272,527.904724 1133.222168,575.729126 
	C1133.459473,576.670898 1133.697144,576.800171 1134.010620,576.790344 
z"/>
<path fill="#FFFFFF" opacity="1.000000" stroke="none" 
	d="
M2463.162109,578.908325 
	C2481.399658,583.971313 2499.710938,585.281738 2517.964355,583.785522 
	C2541.146484,581.885254 2563.696533,576.938965 2583.796631,564.099731 
	C2614.465088,544.509766 2625.024902,504.399963 2603.979248,474.449615 
	C2595.651367,462.598267 2583.612549,455.443359 2570.542480,449.980957 
	C2545.068604,439.334625 2518.124268,433.650391 2491.483154,426.991852 
	C2463.526123,420.004395 2435.364502,413.600800 2408.863281,401.980804 
	C2383.260986,390.755005 2361.326172,374.730194 2348.392090,349.121948 
	C2339.248535,331.018799 2335.172363,311.748413 2337.757568,291.159363 
	C2339.911133,274.006805 2344.905029,258.063507 2353.807373,243.263107 
	C2365.591064,223.672485 2382.138672,209.383636 2402.544922,199.508194 
	C2427.815674,187.278900 2454.646973,181.814667 2482.652100,180.747025 
	C2509.676514,179.716751 2536.141846,182.306900 2562.054688,190.062393 
	C2592.538330,199.185867 2618.251465,215.499344 2636.120117,242.196060 
	C2648.106445,260.104034 2655.606445,280.038116 2657.085938,301.868866 
	C2657.296387,304.975067 2657.712158,308.067352 2658.100342,311.818359 
	C2651.171387,312.487488 2644.779785,313.188965 2638.373047,313.703979 
	C2628.256592,314.517181 2618.107178,314.982422 2608.018555,316.042328 
	C2603.148682,316.553894 2601.977295,314.439270 2601.007812,310.195770 
	C2598.903564,300.985107 2596.887695,291.610992 2593.370117,282.895142 
	C2585.089111,262.375092 2569.952148,248.457245 2549.313965,240.550140 
	C2525.236816,231.325439 2500.237549,230.789322 2474.982666,232.790680 
	C2459.636963,234.006760 2444.512451,236.316086 2430.582764,243.340454 
	C2414.354736,251.524048 2401.471924,263.373932 2396.201172,281.087799 
	C2388.006348,308.628632 2398.841309,334.903442 2426.668457,346.749084 
	C2447.906982,355.790039 2470.051514,361.810242 2492.463867,367.030823 
	C2525.541260,374.735687 2558.905273,381.585754 2590.559570,394.234833 
	C2612.613770,403.047699 2632.226074,415.754730 2647.438232,434.535522 
	C2663.745117,454.668121 2671.262695,477.741272 2671.057129,503.468048 
	C2670.755615,541.134583 2656.212158,572.282349 2627.771973,596.880432 
	C2602.208252,618.990784 2571.857422,630.151489 2538.763916,633.867371 
	C2523.105957,635.625549 2507.182129,636.274597 2491.436768,635.733704 
	C2457.707764,634.575073 2424.799561,628.843811 2394.774170,612.283936 
	C2371.383301,599.383240 2352.772217,581.420105 2339.579834,557.978760 
	C2328.436768,538.179138 2322.231934,517.004822 2320.948730,494.349243 
	C2320.827393,492.210510 2320.514404,490.082581 2320.212891,487.210541 
	C2326.626465,486.530609 2332.833008,485.786011 2339.056396,485.231873 
	C2350.156738,484.243408 2361.275391,483.451569 2372.369385,482.399567 
	C2375.747070,482.079285 2375.497559,484.283936 2376.047607,486.401459 
	C2379.010010,497.804352 2381.238770,509.496307 2385.339111,520.484558 
	C2393.640381,542.731262 2410.287354,557.616333 2431.371338,567.404785 
	C2441.432373,572.075623 2452.272461,575.068542 2463.162109,578.908325 
z"/>
<path fill="#FFFFFF" opacity="1.000000" stroke="none" 
	d="
M289.856018,338.198364 
	C303.908478,348.376099 319.829803,353.569183 335.889526,357.885223 
	C367.390381,366.350891 399.146393,373.862274 430.733643,382.013184 
	C454.701935,388.198059 477.963379,396.187927 498.621582,410.390167 
	C535.901794,436.019745 552.400085,471.473297 548.148315,516.349670 
	C545.281982,546.603271 532.075745,572.221619 510.165131,593.001648 
	C488.956726,613.115723 463.073120,624.493347 434.792877,631.014648 
	C412.327789,636.195007 389.551910,636.914856 366.750946,635.771851 
	C340.068329,634.434265 313.780243,630.444824 288.839966,620.046204 
	C252.785568,605.013489 226.413651,580.134338 210.473999,544.224121 
	C202.780396,526.891296 199.646118,508.675110 198.136459,490.016571 
	C198.072784,489.229370 198.278931,488.420319 198.409744,487.121277 
	C205.128281,486.443024 211.700623,485.721802 218.284439,485.128021 
	C228.719437,484.186981 239.176147,483.464111 249.593643,482.364471 
	C253.054840,481.999084 253.320786,483.948700 253.900726,486.370941 
	C256.374481,496.703308 258.137054,507.304901 261.693726,517.260010 
	C271.378937,544.368713 291.836365,560.748535 317.696869,571.489319 
	C333.372101,577.999817 349.765533,581.948730 366.452911,583.597839 
	C378.587250,584.797058 391.032227,583.699646 403.273010,582.765259 
	C419.312256,581.540833 434.772644,577.466370 449.420471,570.691223 
	C470.819641,560.793274 486.829681,545.633728 491.060577,521.744385 
	C495.368652,497.419250 490.018585,476.640778 467.289917,460.436096 
	C450.814911,448.689972 431.724274,443.235260 412.542755,438.086700 
	C377.491394,428.678558 342.277222,419.840515 307.408203,409.801636 
	C281.756897,402.416565 258.598846,389.914185 240.475464,369.749054 
	C220.948135,348.021851 213.025970,322.195618 215.355606,293.211700 
	C217.178085,270.537628 225.110336,250.155197 239.124680,232.200363 
	C253.266327,214.082397 271.715454,201.973114 292.997314,193.906784 
	C315.152313,185.509506 338.077301,181.512161 361.786011,180.697830 
	C393.636200,179.603836 424.666931,183.289627 454.271515,195.261856 
	C498.710266,213.233078 525.183960,246.216415 533.875122,293.350830 
	C534.952332,299.192688 535.193298,305.188751 535.894653,311.800751 
	C529.109314,312.426788 522.718933,313.081909 516.317078,313.592255 
	C505.703674,314.438263 495.075836,315.110413 484.468750,316.025787 
	C480.623505,316.357635 479.404297,314.898376 478.880249,311.094635 
	C475.245087,284.710175 464.703491,262.201263 441.303619,247.551056 
	C427.198059,238.719803 411.401367,234.743820 395.002258,233.013855 
	C372.999512,230.692749 351.067047,231.407333 329.445496,236.104416 
	C305.101471,241.392944 285.874023,253.787582 275.193970,277.335114 
	C265.827026,297.987518 272.408752,324.068939 289.856018,338.198364 
z"/>
<path fill="#FFFFFF" opacity="1.000000" stroke="none" 
	d="
M898.137939,557.175903 
	C923.384216,535.000732 936.075562,506.293365 943.254395,474.227631 
	C963.008423,479.219635 982.257568,484.084076 1002.456421,489.188477 
	C997.953247,501.841125 994.295715,513.969910 989.368164,525.558777 
	C980.455078,546.520996 968.973267,565.948486 952.989868,582.525146 
	C924.459900,612.114197 889.715332,629.017151 849.089111,634.097473 
	C814.833679,638.381104 780.965149,636.456970 747.662292,627.087158 
	C723.728027,620.353271 702.523682,608.673035 683.761780,592.218750 
	C653.617004,565.781677 635.776428,531.923157 625.163635,494.143616 
	C619.699402,474.692017 616.181946,454.568939 613.390503,434.525665 
	C610.522461,413.932800 611.496765,393.135437 613.670715,372.370483 
	C615.972717,350.381683 620.374390,329.014954 628.070740,308.273651 
	C641.951843,270.864716 664.058411,239.561874 697.121338,216.872894 
	C723.883179,198.508026 753.708740,187.423340 785.918091,182.874802 
	C814.372620,178.856491 842.662292,179.412796 870.686890,186.016846 
	C903.911560,193.846283 932.232666,210.339615 955.033691,235.715515 
	C973.478638,256.243408 985.599365,280.433319 993.599243,306.745636 
	C993.736816,307.198059 993.616455,307.728912 993.616455,308.843628 
	C987.320923,310.328918 980.884033,311.854797 974.443604,313.365448 
	C963.267761,315.986908 952.044434,318.425201 940.939392,321.317963 
	C937.488281,322.216949 936.214294,321.324432 935.152893,318.184753 
	C930.012268,302.979309 923.432861,288.498138 914.103333,275.291016 
	C897.891907,252.341492 875.801819,238.192780 848.486023,233.326370 
	C809.982300,226.466812 772.702759,230.244751 738.845459,251.651474 
	C710.876099,269.335449 693.627136,295.024078 683.929871,326.502136 
	C674.443848,357.294373 670.720459,388.812408 672.286682,420.683197 
	C673.858948,452.675659 679.166931,484.220001 693.282532,513.577332 
	C707.189880,542.501648 729.126038,562.836182 758.696228,575.128296 
	C784.117798,585.695862 810.381165,588.261414 837.530090,584.305969 
	C860.238342,580.997559 880.204590,571.866089 898.137939,557.175903 
z"/>
<path fill="#FDEFE7" opacity="1.000000" stroke="none" 
	d="
M1393.196533,239.746902 
	C1393.128784,239.576950 1393.294922,239.386215 1393.640259,239.106201 
	C1393.800659,239.305435 1393.670898,239.541840 1393.196533,239.746902 
z"/>
<path fill="#FDEFE7" opacity="1.000000" stroke="none" 
	d="
M2232.195801,426.746277 
	C2232.127930,426.576233 2232.293945,426.385651 2232.639160,426.105652 
	C2232.800293,426.304962 2232.670654,426.541473 2232.195801,426.746277 
z"/>
<path fill="#F8D0B6" opacity="1.000000" stroke="none" 
	d="
M1133.896484,576.638062 
	C1133.697144,576.800171 1133.459473,576.670898 1133.253296,576.195923 
	C1133.423706,576.127563 1133.614990,576.292969 1133.896484,576.638062 
z"/>
<path fill="#FDEFE7" opacity="1.000000" stroke="none" 
	d="
M1775.510864,534.513672 
	C1775.483643,534.525879 1775.538086,534.501404 1775.510864,534.513672 
z"/>
</svg>