<svg width="589" height="166" viewBox="0 0 589 166" fill="none" xmlns="http://www.w3.org/2000/svg">
<path d="M41.3333 41.3333H165.333V-4.49498e-05H22.9627C10.28 -4.49498e-05 0 10.2813 0 22.9626V99.2H41.3333V41.3333Z" fill="#E64210"/>
<path d="M124 66.1334V124H0V165.333H142.371C155.052 165.333 165.333 155.052 165.333 142.371V66.1334H124Z" fill="#E64210"/>
<path d="M563.592 80.3924H548.893V65.5871H563.592V80.3924Z" fill="#E64210"/>
<path d="M248.838 165.334H192.89V150.634H248.838C249.251 150.634 249.587 150.298 249.587 149.885V137.735C249.587 137.321 249.251 136.985 248.838 136.985H208.339C199.821 136.985 192.89 130.054 192.89 121.535V109.386C192.89 100.867 199.821 93.9367 208.339 93.9367H264.287V108.637H208.339C207.926 108.637 207.589 108.973 207.589 109.386V121.535C207.589 121.949 207.926 122.286 208.339 122.286H248.838C257.357 122.286 264.287 129.215 264.287 137.735V149.885C264.287 158.403 257.357 165.334 248.838 165.334Z" fill="black"/>
<path d="M292.283 122.286H333.532C333.944 122.286 334.281 121.949 334.281 121.537V109.386C334.281 108.973 333.944 108.637 333.532 108.637H293.032C292.619 108.637 292.283 108.973 292.283 109.386V122.286ZM348.98 165.334H293.032C284.513 165.334 277.584 158.403 277.584 149.885V109.386C277.584 100.869 284.513 93.9365 293.032 93.9365H333.532C342.049 93.9365 348.98 100.869 348.98 109.386V121.537C348.98 130.054 342.049 136.985 333.532 136.985H292.283V149.885C292.283 150.298 292.619 150.634 293.032 150.634H348.98V165.334Z" fill="black"/>
<path d="M538.288 165.334H482.34C473.82 165.334 466.89 158.403 466.89 149.885V109.386C466.89 100.867 473.82 93.9367 482.34 93.9367H538.288V108.637H482.34C481.926 108.637 481.59 108.973 481.59 109.386V149.885C481.59 150.298 481.926 150.634 482.34 150.634H538.288V165.334Z" fill="black"/>
<path d="M416.283 149.885C416.283 150.298 415.945 150.634 415.533 150.634H375.033C374.62 150.634 374.284 150.298 374.284 149.885V109.386C374.284 108.971 374.62 108.635 375.033 108.635H415.533C415.945 108.635 416.283 108.971 416.283 109.386V118.085V149.885ZM416.283 65.5874V93.9741C416.032 93.9634 415.785 93.9368 415.533 93.9368H375.033C366.515 93.9368 359.585 100.867 359.585 109.386V149.885C359.585 158.403 366.515 165.334 375.033 165.334H415.533C424.051 165.334 430.981 158.403 430.981 149.885V118.085V109.386V65.5874H416.283Z" fill="black"/>
<path d="M456.39 80.3924H441.692V65.5871H456.39V80.3924Z" fill="black"/>
<path d="M456.39 165.334H441.692V93.9363H456.39V165.334Z" fill="black"/>
<path d="M589 80.3924H574.301V65.5871H589V80.3924Z" fill="black"/>
<path d="M589 165.334H574.301V93.9363H589V165.334Z" fill="black"/>
<path d="M563.592 165.334H548.893V93.9363H563.592V165.334Z" fill="black"/>
</svg>
