<svg clip-rule="evenodd" fill-rule="evenodd" stroke-linejoin="round" stroke-miterlimit="2" viewBox="0 0 3200 1320" xmlns="http://www.w3.org/2000/svg" xmlns:xlink="http://www.w3.org/1999/xlink"><linearGradient id="a"><stop offset="0" stop-color="#1e22aa"/><stop offset="1" stop-color="#00a9ce"/></linearGradient><linearGradient id="b" gradientTransform="matrix(309 326.615 -326.615 309 8 -255.615)" gradientUnits="userSpaceOnUse" x1="0" x2="1" xlink:href="#a" y1="0" y2="0"/><linearGradient id="c" gradientTransform="matrix(309 326.615 -326.615 309 8 36.3847)" gradientUnits="userSpaceOnUse" x1="0" x2="1" xlink:href="#a" y1="0" y2="0"/><linearGradient id="d" gradientTransform="matrix(-309 326.615 326.615 309 329 -134.615)" gradientUnits="userSpaceOnUse" x1="0" x2="1" xlink:href="#a" y1="0" y2="0"/><linearGradient id="e" gradientTransform="matrix(309 326.615 -326.615 309 8 190)" gradientUnits="userSpaceOnUse" x1="0" x2="1" xlink:href="#a" y1="0" y2="0"/><linearGradient id="f" gradientTransform="matrix(309 326.615 -326.615 309 8 311)" gradientUnits="userSpaceOnUse" x1="0" x2="1" xlink:href="#a" y1="0" y2="0"/><linearGradient id="g" gradientTransform="matrix(309 326.615 -326.615 309 8 19)" gradientUnits="userSpaceOnUse" x1="0" x2="1" xlink:href="#a" y1="0" y2="0"/><linearGradient id="h" gradientTransform="matrix(603.375 116.334 -16.637 86.2895 115.735 59.4584)" gradientUnits="userSpaceOnUse" x1="0" x2="1" xlink:href="#a" y1="0" y2="0"/><clipPath id="i"><path clip-rule="evenodd" d="m32 32.823c0-6.526-5.376-11.823-12-11.823-6.614 0-12 5.297-12 11.823v26.354c0 6.526 5.386 11.823 12 11.823 6.624 0 12-5.297 12-11.823z"/></clipPath><clipPath id="j"><path clip-rule="evenodd" d="m305.18 204c6.514 0 11.82-5.378 11.82-12.005 0-6.617-5.306-11.995-11.82-11.995h-26.359c-6.525 0-11.821 5.378-11.821 11.995 0 6.627 5.296 12.005 11.821 12.005z"/></clipPath><clipPath id="k"><path clip-rule="nonzero" d="m317 192v-50h-145.548c-56.631 0-100.566-33.796-101.439-72.37l-.013-1.17v-47.46h-50v47.46c0 69.088 67.607 122.463 148.982 123.524l2.47.016z"/></clipPath><clipPath id="l"><path clip-rule="nonzero" d="m308 190v50h-145.548c-56.631 0-100.566 33.796-101.439 72.37l-.013 1.17v47.46h-50v-47.46c0-69.088 67.607-122.463 148.982-123.524l2.47-.016z"/></clipPath><clipPath id="m"><path clip-rule="evenodd" d="m320 322.783c0-6.506-5.384-11.783-12-11.783-6.626 0-12 5.277-12 11.783v26.434c0 6.506 5.374 11.783 12 11.783 6.616 0 12-5.277 12-11.783z"/></clipPath><clipPath id="n"><path clip-rule="evenodd" d="m49.134 202c6.55 0 11.866-5.378 11.866-11.995 0-6.627-5.316-12.005-11.866-12.005h-26.268c-6.55 0-11.866 5.378-11.866 12.005 0 6.617 5.316 11.995 11.866 11.995z"/></clipPath><g clip-path="url(#i)" transform="matrix(1.78838246 0 0 1.78838246 134.129735 804.776581)"><path d="m3 16h34v60h-34z" fill="url(#b)"/></g><g clip-path="url(#j)" transform="matrix(1.78838246 0 0 1.78838246 134.129735 282.569804)"><path d="m262 175h60v34h-60z" fill="url(#c)"/></g><g clip-path="url(#k)" transform="matrix(-1.78838246 0 0 1.78838246 736.812467 588.383307)"><path d="m15 16h307v181h-307z" fill="url(#d)"/></g><g clip-path="url(#l)" transform="matrix(1.78838246 0 0 1.78838246 129.330735 7.846726)"><path d="m6 185h307v181h-307z" fill="url(#e)"/></g><g clip-path="url(#m)" transform="matrix(1.78838246 0 0 1.78838246 129.330735 -208.547655)"><path d="m291 306h34v60h-34z" fill="url(#f)"/></g><g clip-path="url(#n)" transform="matrix(1.78838246 0 0 1.78838246 129.330735 313.66023)"><path d="m6 173h60v34h-60z" fill="url(#g)"/></g><g fill="url(#h)" fill-rule="nonzero"><path d="m534.771 133.904c0 11.872-3.957 21.803-11.872 29.792-7.989 8.064-17.771 12.096-29.344 12.096-11.648 0-21.429-4.032-29.344-12.096-7.915-7.989-11.872-17.92-11.872-29.792s3.957-21.803 11.872-29.792c7.915-8.064 17.696-12.096 29.344-12.096s21.429 4.069 29.344 12.208c7.915 7.989 11.872 17.883 11.872 29.68zm-71.904 0c0 9.259 2.912 16.912 8.736 22.96 5.899 6.048 13.216 9.072 21.952 9.072s16.016-3.024 21.84-9.072c5.899-5.973 8.848-13.627 8.848-22.96s-2.949-16.987-8.848-22.96c-5.824-6.048-13.104-9.072-21.84-9.072s-16.053 3.024-21.952 9.072c-5.824 6.048-8.736 13.701-8.736 22.96zm101.672 40.096c-.773 0-1.411-.251-1.914-.754s-.754-1.141-.754-1.914v-68.556h-22.388c-.773 0-1.411-.251-1.914-.754s-.754-1.141-.754-1.914v-4.524c0-.851.251-1.527.754-2.03s1.141-.754 1.914-.754h55.68c.851 0 1.508.251 1.972.754s.696 1.179.696 2.03v4.524c0 .773-.251 1.411-.754 1.914s-1.141.754-1.914.754h-22.272v68.556c0 .773-.271 1.411-.812 1.914s-1.199.754-1.972.754zm49.068 0c-.773 0-1.392-.251-1.856-.754s-.696-1.141-.696-1.914v-75.864c0-.773.232-1.411.696-1.914s1.083-.754 1.856-.754h5.8c.851 0 1.508.232 1.972.696s.696 1.121.696 1.972v75.864c0 .773-.251 1.411-.754 1.914s-1.141.754-1.914.754zm23.896 0c-.619 0-1.16-.232-1.624-.696s-.696-1.005-.696-1.624c0-.541.155-1.044.464-1.508l26.564-37.468-25.288-36.076c-.309-.464-.464-.967-.464-1.508 0-.619.232-1.16.696-1.624s1.005-.696 1.624-.696h6.612c1.083 0 2.088.657 3.016 1.972l20.764 29.348 20.532-29.348c.773-1.315 1.779-1.972 3.016-1.972h6.148c.619 0 1.16.232 1.624.696s.696 1.005.696 1.624c0 .541-.155 1.044-.464 1.508l-25.056 36.192 26.564 37.352c.309.464.464.967.464 1.508 0 .619-.251 1.16-.754 1.624s-1.063.696-1.682.696h-6.612c-1.16 0-2.165-.619-3.016-1.856l-21.924-30.624-21.808 30.624c-.851 1.237-1.856 1.856-3.016 1.856z" transform="matrix(3.74828971 0 0 3.74828971 447.609975 138.055628)"/><path d="m150.92 175.55c-7.853 0-14.415-1.188-19.685-3.565s-9.171-5.141-11.702-8.292c-2.532-3.152-3.798-5.865-3.798-8.138 0-1.033.336-1.86 1.008-2.48.671-.62 1.472-.93 2.402-.93h12.71c.827 0 1.55.413 2.17 1.24.517.413 1.679 1.395 3.488 2.945 1.808 1.55 3.874 2.764 6.2 3.643 2.325.878 4.882 1.317 7.672 1.317 4.133 0 7.492-.801 10.075-2.403 2.583-1.601 3.875-3.9 3.875-6.897 0-2.067-.594-3.746-1.782-5.038-1.189-1.291-3.307-2.479-6.355-3.564-3.049-1.086-7.621-2.3-13.718-3.643-8.783-1.86-15.267-4.702-19.452-8.525-4.186-3.823-6.278-8.887-6.278-15.19 0-4.133 1.24-8.034 3.72-11.702 2.48-3.669 6.174-6.665 11.083-8.99 4.908-2.326 10.772-3.488 17.592-3.488 7.027 0 13.072 1.111 18.135 3.333 5.063 2.221 8.912 4.882 11.547 7.982 2.636 3.1 3.953 5.838 3.953 8.215 0 .93-.336 1.731-1.007 2.403-.672.671-1.473 1.007-2.403 1.007h-11.625c-1.137 0-2.015-.413-2.635-1.24-.723-.517-1.886-1.472-3.487-2.867-1.602-1.396-3.385-2.506-5.348-3.333s-4.34-1.24-7.13-1.24c-3.823 0-6.768.827-8.835 2.48s-3.1 3.823-3.1 6.51c0 1.86.491 3.41 1.473 4.65.981 1.24 2.97 2.402 5.967 3.488 2.997 1.085 7.492 2.195 13.485 3.332 18.6 3.617 27.9 11.728 27.9 24.335 0 7.337-3.177 13.278-9.532 17.825-6.356 4.547-15.216 6.82-26.583 6.82zm82.3 0c-11.573 0-20.744-3.307-27.512-9.92-6.769-6.613-10.36-16.017-10.773-28.21l-.155-3.875c0-12.917 3.384-23.095 10.153-30.535 6.768-7.44 16.145-11.16 28.132-11.16 12.297 0 21.777 3.72 28.443 11.16 6.665 7.44 9.997 17.36 9.997 29.76v3.255c0 1.033-.362 1.912-1.085 2.635s-1.653 1.085-2.79 1.085h-51.46v1.24c.207 5.787 1.782 10.566 4.728 14.338 2.945 3.771 7 5.657 12.167 5.657 5.89 0 10.695-2.377 14.415-7.13.93-1.137 1.653-1.834 2.17-2.092.517-.259 1.395-.388 2.635-.388h13.64c.93 0 1.731.258 2.403.775.671.517 1.007 1.24 1.007 2.17 0 2.48-1.472 5.399-4.417 8.758-2.946 3.358-7.156 6.277-12.633 8.757s-11.832 3.72-19.065 3.72zm16.895-48.98v-.31c0-6.097-1.524-10.979-4.573-14.647-3.048-3.669-7.207-5.503-12.477-5.503s-9.403 1.834-12.4 5.503c-2.997 3.668-4.495 8.55-4.495 14.647v.31zm37.04 47.43c-1.033 0-1.912-.362-2.635-1.085s-1.085-1.602-1.085-2.635v-73.16c0-1.137.362-2.041 1.085-2.712.723-.672 1.602-1.008 2.635-1.008h12.865c1.137 0 2.041.336 2.713 1.008.671.671 1.007 1.575 1.007 2.712v6.355c6.303-7.75 14.932-11.625 25.885-11.625 9.507 0 17.05 3.1 22.63 9.3s8.37 14.725 8.37 25.575v43.555c0 1.033-.336 1.912-1.007 2.635-.672.723-1.576 1.085-2.713 1.085h-13.95c-1.033 0-1.912-.362-2.635-1.085s-1.085-1.602-1.085-2.635v-42.625c0-5.993-1.472-10.669-4.417-14.027-2.946-3.359-7.156-5.038-12.633-5.038-5.27 0-9.507 1.705-12.71 5.115s-4.805 8.06-4.805 13.95v42.625c0 1.033-.336 1.912-1.007 2.635-.672.723-1.576 1.085-2.713 1.085zm119.345 1.55c-7.853 0-14.415-1.188-19.685-3.565s-9.171-5.141-11.702-8.292c-2.532-3.152-3.798-5.865-3.798-8.138 0-1.033.336-1.86 1.008-2.48.671-.62 1.472-.93 2.402-.93h12.71c.827 0 1.55.413 2.17 1.24.517.413 1.679 1.395 3.487 2.945 1.809 1.55 3.875 2.764 6.201 3.643 2.325.878 4.882 1.317 7.672 1.317 4.133 0 7.492-.801 10.075-2.403 2.583-1.601 3.875-3.9 3.875-6.897 0-2.067-.594-3.746-1.782-5.038-1.189-1.291-3.307-2.479-6.356-3.564-3.048-1.086-7.62-2.3-13.717-3.643-8.783-1.86-15.267-4.702-19.452-8.525-4.186-3.823-6.278-8.887-6.278-15.19 0-4.133 1.24-8.034 3.72-11.702 2.48-3.669 6.174-6.665 11.083-8.99 4.908-2.326 10.772-3.488 17.592-3.488 7.027 0 13.072 1.111 18.135 3.333 5.063 2.221 8.912 4.882 11.548 7.982 2.635 3.1 3.952 5.838 3.952 8.215 0 .93-.336 1.731-1.007 2.403-.672.671-1.473 1.007-2.403 1.007h-11.625c-1.137 0-2.015-.413-2.635-1.24-.723-.517-1.886-1.472-3.487-2.867-1.602-1.396-3.385-2.506-5.348-3.333s-4.34-1.24-7.13-1.24c-3.823 0-6.768.827-8.835 2.48s-3.1 3.823-3.1 6.51c0 1.86.491 3.41 1.473 4.65.981 1.24 2.97 2.402 5.967 3.488 2.997 1.085 7.492 2.195 13.485 3.332 18.6 3.617 27.9 11.728 27.9 24.335 0 7.337-3.177 13.278-9.532 17.825-6.356 4.547-15.216 6.82-26.583 6.82z" transform="matrix(3.74828971 0 0 3.74828971 447.609975 138.055628)"/></g></svg>