<svg id="Capa_1" data-name="Capa 1" xmlns="http://www.w3.org/2000/svg" viewBox="0 0 643.6 173.58"><defs><style>.cls-1{fill:#0e3bda;}</style></defs><path class="cls-1" d="M163.14,108.08c-4.95,0-13-2-16.72-6.33a2,2,0,0,1-.56-1.37,1.75,1.75,0,0,1,.43-1.19,1.88,1.88,0,0,1,1.32-.63,2.14,2.14,0,0,1,1.31.5,21.59,21.59,0,0,0,14.28,5.32c5.51,0,11.39-2,11.39-7.7,0-4.63-5.44-6.45-14.33-9.7-5.7-2.07-12-4.57-12-11.59,0-7.39,6.82-10.58,15-10.58,5.2,0,11,1.88,14.34,4.45a2,2,0,0,1,.81,1.56,2,2,0,0,1-.31,1,1.92,1.92,0,0,1-1.5.82,2.22,2.22,0,0,1-1.07-.31,21.56,21.56,0,0,0-12.27-3.82c-5.76,0-10.89,2.06-10.89,6.88s5.69,6.64,13.52,9.39c7.39,2.57,12.84,5.33,12.84,11.71C178.73,104.32,171.59,108.08,163.14,108.08Z"/><path class="cls-1" d="M227.5,107.76a1.94,1.94,0,0,1-1.94-1.94V75.33c-3.51,7.14-14.21,31.37-14.21,31.37a1.88,1.88,0,0,1-1.76,1.06,1.72,1.72,0,0,1-1.75-1.06L193.63,75.39v30.37a2.06,2.06,0,0,1-2,2,2,2,0,0,1-1.94-2V66.94A2,2,0,0,1,191.62,65a2,2,0,0,1,1.82,1.25l16.15,35.44,16.09-35.5a2,2,0,0,1,3.76.81v38.82A2,2,0,0,1,227.5,107.76Z"/><path class="cls-1" d="M277.46,107.58a1.72,1.72,0,0,1-.75.18,1.82,1.82,0,0,1-1.75-1.12L269.7,95.05H248.35l-5.2,11.52a2,2,0,0,1-1.75,1.19,2,2,0,0,1-.82-.18,2,2,0,0,1-1.12-1.76,1.9,1.9,0,0,1,.12-.81l17.66-38.82A2.12,2.12,0,0,1,259.05,65a2.15,2.15,0,0,1,1.76,1.19L278.46,105a1.77,1.77,0,0,1,.13.81A2,2,0,0,1,277.46,107.58ZM259.05,71.45l-9.07,20h18.09Z"/><path class="cls-1" d="M311,88s.25.63,8.14,16.91a2.28,2.28,0,0,1,.19.87,2,2,0,0,1-1.07,1.76,2,2,0,0,1-.81.18,2.09,2.09,0,0,1-1.82-1.12c-8.76-18-8.76-18-8.76-18H291.49v17.16a2.08,2.08,0,0,1-2.13,2,2,2,0,0,1-2-2V67.57a2,2,0,0,1,2-2h17.91c7.13,0,12.39,4.39,12.39,11.59C319.66,82.59,316.28,87,311,88ZM307.7,69.26H291.49V85.1H307.7a7.92,7.92,0,0,0,0-15.84Z"/><path class="cls-1" d="M358.23,69.32H345.08V105.7a2.07,2.07,0,0,1-4.13,0V69.32H327.8a1.88,1.88,0,0,1,0-3.76h30.43a1.88,1.88,0,1,1,0,3.76Z"/><path class="cls-1" d="M396.49,69.32H373.7V83.66h13.21a1.88,1.88,0,0,1,0,3.75H373.7v18.35a2.07,2.07,0,0,1-4.14,0V67.57a2,2,0,0,1,2.07-2h24.86a1.88,1.88,0,0,1,0,3.76Z"/><path class="cls-1" d="M431.05,88s.25.63,8.14,16.91a2.26,2.26,0,0,1,.18.87,2,2,0,0,1-1.06,1.76,2,2,0,0,1-.82.18,2.07,2.07,0,0,1-1.81-1.12c-8.77-18-8.77-18-8.77-18H411.57v17.16a2.08,2.08,0,0,1-2.12,2,2,2,0,0,1-2-2V67.57a2,2,0,0,1,2-2h17.9c7.14,0,12.4,4.39,12.4,11.59C439.75,82.59,436.37,87,431.05,88Zm-3.26-18.78H411.57V85.1h16.22a7.92,7.92,0,0,0,0-15.84Z"/><path class="cls-1" d="M485.89,107.58a1.72,1.72,0,0,1-.75.18,1.82,1.82,0,0,1-1.75-1.12l-5.26-11.59H456.78l-5.2,11.52a2,2,0,0,1-1.75,1.19,2,2,0,0,1-.82-.18,2,2,0,0,1-1.12-1.76A1.9,1.9,0,0,1,448,105l17.66-38.82a1.93,1.93,0,0,1,3.57,0L486.89,105a1.77,1.77,0,0,1,.13.81A2,2,0,0,1,485.89,107.58Zm-18.4-36.13-9.08,20H476.5Z"/><path class="cls-1" d="M533.92,107.76a2,2,0,0,1-1.95-1.94V75.33c-3.5,7.14-14.21,31.37-14.21,31.37a1.86,1.86,0,0,1-1.75,1.06,1.71,1.71,0,0,1-1.75-1.06L500,75.39v30.37a2.06,2.06,0,0,1-2,2,2,2,0,0,1-1.94-2V66.94A2,2,0,0,1,498,65a2,2,0,0,1,1.81,1.25L516,101.69l16.09-35.5a2,2,0,0,1,3.76.81v38.82A2,2,0,0,1,533.92,107.76Z"/><path class="cls-1" d="M576.68,107.26h-25a2.08,2.08,0,0,1-2.06-2.06V67.57a2,2,0,0,1,2.06-2h24a1.88,1.88,0,1,1,0,3.76h-22V83.66h12.46a1.88,1.88,0,1,1,0,3.75H553.7v16.1h23a1.88,1.88,0,1,1,0,3.75Z"/><path class="cls-1" d="M125.57,99.26l-2.52-32.37a5.3,5.3,0,0,0-5.3-5.26h-.08l-47.25-.2,0,0h-.31a5.3,5.3,0,0,0-5.3,5.3c0,.08,0,.15,0,.22h0l2.56,39.28a5.29,5.29,0,0,0,5.29,5.18,4.57,4.57,0,0,0,.83-.07v0l47.4-5.85h0a5.3,5.3,0,0,0,4.74-5.27C125.62,99.92,125.6,99.59,125.57,99.26Zm-8.87,2.49h0L77,106.45h0a5.34,5.34,0,0,1-.69,0,4.35,4.35,0,0,1-4.44-4.16l-2.14-31.5h0c0-.06,0-.12,0-.18a4.35,4.35,0,0,1,4.44-4.25h.26l0,0,39.56.16h.06a4.41,4.41,0,0,1,4.44,4.23l2.12,26a7,7,0,0,1,0,.79A4.32,4.32,0,0,1,116.7,101.75Z"/></svg>