<?xml version="1.0" encoding="UTF-8" standalone="no"?>
<!-- Created with Inkscape (http://www.inkscape.org/) -->

<svg
   version="1.1"
   id="svg2"
   width="200"
   height="200"
   viewBox="0 0 200 200"
   sodipodi:docname="sprt250.ai"
   xmlns:inkscape="http://www.inkscape.org/namespaces/inkscape"
   xmlns:sodipodi="http://sodipodi.sourceforge.net/DTD/sodipodi-0.dtd"
   xmlns="http://www.w3.org/2000/svg"
   xmlns:svg="http://www.w3.org/2000/svg">
  <defs
     id="defs6">
    <clipPath
       clipPathUnits="userSpaceOnUse"
       id="clipPath16">
      <path
         d="M 0,150 H 150 V 0 H 0 Z"
         id="path14" />
    </clipPath>
  </defs>
  <sodipodi:namedview
     id="namedview4"
     pagecolor="#ffffff"
     bordercolor="#000000"
     borderopacity="0.25"
     inkscape:showpageshadow="2"
     inkscape:pageopacity="0.0"
     inkscape:pagecheckerboard="0"
     inkscape:deskcolor="#d1d1d1" />
  <g
     id="g8"
     inkscape:groupmode="layer"
     inkscape:label="sprt250"
     transform="matrix(1.3333333,0,0,-1.3333333,0,200)">
    <g
       id="g10">
      <g
         id="g12"
         clip-path="url(#clipPath16)">
        <g
           id="g18"
           transform="translate(36.4678,75.8462)">
          <path
             d="m 0,0 c 1.044,-0.622 1.999,-1.053 2.863,-1.29 0.865,-0.236 1.672,-0.356 2.421,-0.356 1.234,0 2.165,0.182 2.792,0.545 0.628,0.366 0.942,0.858 0.942,1.48 C 9.018,0.728 8.92,1.018 8.725,1.25 8.53,1.48 8.248,1.677 7.878,1.834 7.509,1.993 7.045,2.132 6.486,2.253 5.927,2.375 5.284,2.504 4.556,2.642 4.008,2.726 3.417,2.848 2.784,3.005 2.151,3.164 1.563,3.412 1.02,3.75 0.477,4.086 0.026,4.538 -0.333,5.102 -0.691,5.666 -0.87,6.396 -0.87,7.292 c 0,0.761 0.137,1.454 0.411,2.082 0.274,0.626 0.696,1.169 1.266,1.628 0.569,0.459 1.292,0.815 2.167,1.068 0.876,0.254 1.914,0.381 3.117,0.381 1.244,0 2.407,-0.138 3.488,-0.411 1.081,-0.275 2.107,-0.655 3.077,-1.141 L 11.612,7.895 C 11.222,8.063 10.811,8.231 10.378,8.4 9.945,8.568 9.5,8.72 9.042,8.852 8.583,8.982 8.116,9.088 7.641,9.167 7.167,9.247 6.687,9.287 6.202,9.287 5.611,9.287 5.115,9.23 4.714,9.121 4.313,9.01 3.989,8.861 3.741,8.678 3.494,8.493 3.317,8.282 3.211,8.044 3.106,7.808 3.053,7.566 3.053,7.325 3.053,6.766 3.356,6.349 3.963,6.075 4.569,5.8 5.526,5.589 6.834,5.441 7.625,5.314 8.403,5.16 9.168,4.976 9.933,4.791 10.615,4.526 11.217,4.185 11.818,3.841 12.303,3.388 12.672,2.824 13.041,2.26 13.226,1.528 13.226,0.632 13.226,-0.223 13.044,-0.988 12.68,-1.67 12.316,-2.35 11.802,-2.922 11.138,-3.387 10.473,-3.85 9.679,-4.206 8.756,-4.454 7.833,-4.702 6.813,-4.825 5.695,-4.825 c -0.643,0 -1.255,0.026 -1.835,0.078 -0.58,0.053 -1.147,0.141 -1.701,0.262 -0.554,0.121 -1.099,0.287 -1.637,0.498 -0.538,0.211 -1.086,0.473 -1.646,0.791 z"
             style="fill:#8f191c;fill-opacity:1;fill-rule:nonzero;stroke:none"
             id="path20" />
        </g>
        <g
           id="g22"
           transform="translate(64.6558,79.6582)">
          <path
             d="M 0,0 C 0,0.781 -0.137,1.498 -0.411,2.152 -0.686,2.806 -1.06,3.367 -1.534,3.837 -2.009,4.306 -2.563,4.67 -3.196,4.928 -3.829,5.187 -4.503,5.316 -5.221,5.316 -5.948,5.316 -6.628,5.187 -7.261,4.928 -7.894,4.67 -8.445,4.306 -8.915,3.837 -9.384,3.367 -9.756,2.808 -10.03,2.16 -10.305,1.511 -10.441,0.791 -10.441,0 c 0,-0.77 0.136,-1.479 0.411,-2.128 0.274,-0.648 0.649,-1.205 1.123,-1.669 0.475,-0.464 1.029,-0.828 1.661,-1.092 0.633,-0.263 1.313,-0.395 2.041,-0.395 0.728,0 1.408,0.13 2.041,0.388 0.633,0.258 1.184,0.622 1.653,1.091 0.469,0.47 0.839,1.026 1.108,1.669 C -0.134,-1.492 0,-0.78 0,0 m 3.845,0.016 c 0,-1.192 -0.206,-2.312 -0.617,-3.362 -0.412,-1.05 -0.995,-1.965 -1.749,-2.746 -0.754,-0.779 -1.661,-1.396 -2.721,-1.849 -1.06,-0.455 -2.244,-0.68 -3.551,-0.68 -1.182,0 -2.226,0.187 -3.133,0.568 -0.907,0.379 -1.688,0.869 -2.342,1.473 v -7.119 h -3.844 V 8.148 h 3.133 l 0.3,-1.898 c 0.327,0.316 0.697,0.619 1.108,0.909 0.411,0.29 0.862,0.546 1.352,0.767 0.491,0.222 1.018,0.396 1.582,0.522 0.565,0.127 1.158,0.19 1.78,0.19 1.297,0 2.482,-0.224 3.552,-0.672 C -0.235,7.518 0.681,6.903 1.44,6.123 2.199,5.342 2.79,4.427 3.212,3.378 3.633,2.328 3.845,1.208 3.845,0.016"
             style="fill:#8f191c;fill-opacity:1;fill-rule:nonzero;stroke:none"
             id="path24" />
        </g>
        <g
           id="g26"
           transform="translate(78.3369,85.1006)">
          <path
             d="M 0,0 C -0.591,0 -1.157,-0.095 -1.701,-0.285 -2.244,-0.475 -2.74,-0.744 -3.188,-1.091 -3.636,-1.439 -4.024,-1.856 -4.351,-2.341 -4.678,-2.827 -4.92,-3.359 -5.079,-3.939 H 1.06 c 0.854,0 1.508,0.16 1.961,0.482 0.454,0.322 0.681,0.752 0.681,1.29 0,0.253 -0.077,0.506 -0.229,0.759 C 3.319,-1.155 3.09,-0.923 2.784,-0.712 2.479,-0.501 2.094,-0.33 1.63,-0.198 1.165,-0.066 0.622,0 0,0 m -5.047,-7.072 c 0.169,-0.559 0.414,-1.068 0.736,-1.526 0.321,-0.459 0.701,-0.852 1.139,-1.179 0.438,-0.327 0.92,-0.58 1.447,-0.759 0.528,-0.18 1.081,-0.27 1.662,-0.27 0.527,0 0.997,0.04 1.408,0.119 0.411,0.08 0.788,0.19 1.131,0.333 0.342,0.142 0.654,0.313 0.933,0.514 0.279,0.2 0.551,0.421 0.815,0.664 l 2.12,-2.278 c -0.306,-0.317 -0.678,-0.633 -1.115,-0.949 -0.438,-0.317 -0.931,-0.6 -1.48,-0.846 -0.548,-0.248 -1.146,-0.449 -1.795,-0.602 -0.649,-0.154 -1.337,-0.228 -2.064,-0.228 -1.287,0 -2.472,0.225 -3.553,0.68 -1.081,0.453 -2.017,1.072 -2.808,1.859 -0.791,0.785 -1.408,1.7 -1.851,2.744 -0.443,1.044 -0.664,2.157 -0.664,3.338 0,1.181 0.221,2.299 0.664,3.354 0.443,1.055 1.06,1.975 1.851,2.761 0.791,0.785 1.73,1.407 2.816,1.866 1.087,0.459 2.273,0.688 3.56,0.688 1.171,0 2.217,-0.142 3.141,-0.426 C 3.968,2.5 4.751,2.112 5.395,1.622 6.038,1.131 6.528,0.548 6.866,-0.126 7.203,-0.802 7.372,-1.524 7.372,-2.294 7.372,-2.948 7.274,-3.563 7.08,-4.137 6.885,-4.712 6.565,-5.218 6.122,-5.656 5.68,-6.094 5.097,-6.439 4.374,-6.692 3.651,-6.945 2.763,-7.072 1.709,-7.072 Z"
             style="fill:#8f191c;fill-opacity:1;fill-rule:nonzero;stroke:none"
             id="path28" />
        </g>
        <g
           id="g30"
           transform="translate(93.6475,74.1694)">
          <path
             d="m 0,0 c 0.484,0 0.979,0.061 1.479,0.182 0.501,0.121 0.97,0.285 1.409,0.49 0.437,0.206 0.816,0.454 1.138,0.744 0.322,0.29 0.556,0.608 0.704,0.957 V 4.254 C 4.256,4.266 3.744,4.279 3.195,4.294 2.647,4.311 2.088,4.318 1.519,4.318 0.928,4.318 0.354,4.29 -0.206,4.231 -0.765,4.174 -1.261,4.071 -1.693,3.922 -2.126,3.774 -2.477,3.57 -2.745,3.306 -3.014,3.042 -3.148,2.7 -3.148,2.277 -3.148,1.855 -3.067,1.5 -2.903,1.21 -2.74,0.92 -2.516,0.683 -2.229,0.498 -1.946,0.312 -1.611,0.184 -1.227,0.109 -0.841,0.035 -0.433,0 0,0 M 5.142,-0.791 C 4.72,-1.15 4.25,-1.472 3.733,-1.757 3.217,-2.041 2.676,-2.279 2.111,-2.47 1.548,-2.658 0.97,-2.804 0.38,-2.904 c -0.591,-0.101 -1.177,-0.144 -1.757,-0.135 -0.78,0.012 -1.516,0.12 -2.207,0.325 -0.69,0.205 -1.294,0.527 -1.811,0.966 -0.517,0.436 -0.928,0.998 -1.234,1.685 -0.307,0.685 -0.459,1.517 -0.459,2.499 0,0.897 0.216,1.638 0.65,2.223 0.431,0.585 1.014,1.051 1.747,1.4 0.733,0.348 1.592,0.592 2.579,0.734 0.986,0.144 2.033,0.215 3.14,0.215 0.528,0 1.126,-0.01 1.796,-0.031 C 3.493,6.955 4.129,6.938 4.73,6.929 v 1.47 c 0,0.35 -0.084,0.679 -0.251,0.99 C 4.309,9.7 4.062,9.972 3.733,10.204 3.406,10.436 3,10.621 2.516,10.758 2.03,10.895 1.471,10.962 0.838,10.962 c -0.495,0 -0.967,-0.061 -1.416,-0.181 -0.448,-0.121 -0.838,-0.28 -1.17,-0.474 C -2.081,10.11 -2.345,9.881 -2.539,9.619 -2.734,9.354 -2.832,9.081 -2.832,8.795 h -3.876 c 0.021,0.854 0.224,1.615 0.609,2.279 0.385,0.665 0.911,1.222 1.575,1.676 0.664,0.455 1.447,0.796 2.348,1.029 0.903,0.232 1.875,0.347 2.919,0.347 1.244,0 2.355,-0.13 3.33,-0.395 0.976,-0.263 1.799,-0.635 2.468,-1.114 0.671,-0.48 1.18,-1.055 1.527,-1.725 0.348,-0.67 0.523,-1.405 0.523,-2.207 V -2.644 H 5.458 Z"
             style="fill:#8f191c;fill-opacity:1;fill-rule:nonzero;stroke:none"
             id="path32" />
        </g>
        <g
           id="g34"
           transform="translate(113.7354,84.436)">
          <path
             d="m 0,0 -1.914,-0.016 c -0.749,0 -1.424,-0.108 -2.024,-0.324 -0.602,-0.216 -1.117,-0.538 -1.543,-0.965 -0.428,-0.427 -0.754,-0.96 -0.981,-1.598 -0.226,-0.638 -0.341,-1.374 -0.341,-2.207 v -7.801 h -3.843 V 3.37 h 3.116 l 0.347,-1.946 c 0.549,0.559 1.243,1.023 2.081,1.392 0.838,0.369 1.832,0.554 2.982,0.554 H 0 Z"
             style="fill:#8f191c;fill-opacity:1;fill-rule:nonzero;stroke:none"
             id="path36" />
        </g>
        <path
           d="m 114.586,87.879 h 3.939 V 71.525 h -3.939 z"
           style="fill:#231f20;fill-opacity:1;fill-rule:nonzero;stroke:none"
           id="path38" />
        <g
           id="g40"
           transform="translate(124.1689,85.2935)">
          <path
             d="M 0,0 H -4.793 V 2.585 H 7.761 V 0 H 2.955 V -13.766 H 0 Z"
             style="fill:#231f20;fill-opacity:1;fill-rule:nonzero;stroke:none"
             id="path42" />
        </g>
        <g
           id="g44"
           transform="translate(25.603,71.4766)">
          <path
             d="m 0,0 c -4.585,0 -8.315,3.698 -8.315,8.244 0,4.546 3.73,8.245 8.315,8.245 4.585,0 8.315,-3.699 8.315,-8.245 C 8.315,3.698 4.585,0 0,0"
             style="fill:#231f20;fill-opacity:1;fill-rule:evenodd;stroke:none"
             id="path46" />
        </g>
        <g
           id="g48"
           transform="translate(25.603,88.0625)">
          <path
             d="m 0,0 c -4.646,0 -8.413,-3.734 -8.413,-8.342 0,-4.606 3.767,-8.342 8.413,-8.342 4.646,0 8.412,3.736 8.412,8.342 C 8.412,-3.734 4.646,0 0,0 m 0,-0.194 c 4.531,0 8.218,-3.655 8.218,-8.148 0,-4.491 -3.687,-8.146 -8.218,-8.146 -4.531,0 -8.218,3.655 -8.218,8.146 0,4.493 3.687,8.148 8.218,8.148"
             style="fill:#231f20;fill-opacity:1;fill-rule:nonzero;stroke:none"
             id="path50" />
        </g>
        <g
           id="g52"
           transform="translate(23.5835,78.3701)">
          <path
             d="M 0,0 C 0.667,2.095 1.334,4.191 2.001,6.287 2.632,4.339 3.263,2.391 3.894,0.442 4.13,0.59 4.367,0.737 4.603,0.885 4.106,2.461 3.608,4.039 3.111,5.615 4.1,4.181 5.088,2.747 6.077,1.312 4.894,0.564 3.711,-0.183 2.529,-0.931 2.432,-1.062 2.932,-1.375 3.147,-1.435 c 0.358,0.225 0.716,0.448 1.074,0.672 0.012,0.01 0.024,0.02 0.036,0.031 C 4.518,-1.546 4.779,-2.36 5.04,-3.174 3.36,-2.116 1.68,-1.058 0,0 M -0.71,0.473 C -1.152,0.748 -1.595,1.022 -2.038,1.297 -1.049,2.736 -0.061,4.176 0.928,5.615 0.382,3.912 -0.164,2.207 -0.71,0.503 Z M 4.985,-0.275 C 5.701,0.178 6.417,0.631 7.132,1.083 5.434,3.535 3.736,5.987 2.038,8.438 H 2.02 C 0.764,6.638 -0.492,4.837 -1.747,3.037 -2.081,2.559 -2.414,2.08 -2.748,1.602 -2.857,1.448 -3.052,1.281 -3.093,1.083 L 1.31,-1.694 v -0.015 c -0.776,-0.493 -1.553,-0.987 -2.329,-1.48 0.218,0.676 0.436,1.353 0.655,2.029 -0.237,0.153 -0.473,0.306 -0.71,0.458 -0.303,-0.925 -0.606,-1.852 -0.909,-2.777 -0.114,-0.321 -0.146,-0.692 0.218,-0.809 0.475,-0.152 0.873,0.312 1.11,0.458 l 2.675,1.679 c 0.933,-0.596 1.868,-1.191 2.801,-1.786 0.24,-0.147 0.695,-0.548 1.11,-0.29 0.346,0.215 0.084,0.764 -0.018,1.068 -0.309,0.962 -0.619,1.923 -0.928,2.884"
             style="fill:#ffffff;fill-opacity:1;fill-rule:evenodd;stroke:none"
             id="path54" />
        </g>
        <g
           id="g56"
           transform="translate(21.4043,79.6768)">
          <path
             d="M 0,0 2.118,-1.346 3.323,5.146 Z"
             style="fill:#ffffff;fill-opacity:1;fill-rule:evenodd;stroke:none"
             id="path58" />
        </g>
        <path
           d="m 73.552,64.801 h 0.775 V 60.53 h -0.775 z"
           style="fill:#231f20;fill-opacity:1;fill-rule:nonzero;stroke:none"
           id="path60" />
        <g
           id="g62"
           transform="translate(78.0654,60.5293)">
          <path
             d="m 0,0 h -0.763 v 1.725 c 0,0.17 -0.018,0.316 -0.055,0.435 -0.038,0.121 -0.091,0.217 -0.16,0.293 C -1.046,2.527 -1.13,2.582 -1.229,2.615 -1.328,2.65 -1.437,2.666 -1.56,2.666 -1.692,2.666 -1.814,2.643 -1.926,2.594 -2.037,2.543 -2.133,2.473 -2.214,2.387 -2.295,2.297 -2.358,2.191 -2.4,2.066 -2.447,1.945 -2.47,1.811 -2.47,1.664 V 0 h -0.757 v 3.23 h 0.618 l 0.056,-0.326 c 0.066,0.059 0.14,0.114 0.223,0.164 0.084,0.053 0.172,0.098 0.267,0.137 0.094,0.039 0.194,0.068 0.297,0.09 0.104,0.021 0.208,0.033 0.315,0.033 0.249,0 0.467,-0.033 0.648,-0.105 C -0.62,3.154 -0.47,3.051 -0.351,2.916 -0.23,2.781 -0.144,2.613 -0.085,2.416 -0.028,2.217 0,1.994 0,1.74 Z"
             style="fill:#231f20;fill-opacity:1;fill-rule:nonzero;stroke:none"
             id="path64" />
        </g>
        <g
           id="g66"
           transform="translate(78.7393,63.1016)">
          <path
             d="M 0,0 H -0.619 V 0.66 H 0 V 0.797 C 0,0.943 0.019,1.09 0.054,1.238 0.089,1.385 0.148,1.514 0.233,1.629 0.319,1.744 0.434,1.838 0.576,1.908 0.72,1.982 0.9,2.018 1.118,2.018 H 1.675 V 1.391 L 1.296,1.395 C 1.195,1.395 1.111,1.379 1.044,1.346 0.976,1.316 0.92,1.271 0.877,1.217 0.833,1.16 0.805,1.096 0.787,1.021 0.769,0.945 0.761,0.867 0.761,0.783 V 0.66 H 1.663 V 0 H 0.761 V -2.572 H 0 Z"
             style="fill:#231f20;fill-opacity:1;fill-rule:nonzero;stroke:none"
             id="path68" />
        </g>
        <g
           id="g70"
           transform="translate(81.1572,62.1484)">
          <path
             d="m 0,0 c 0,-0.156 0.026,-0.299 0.079,-0.428 0.054,-0.127 0.126,-0.24 0.217,-0.332 0.091,-0.092 0.198,-0.168 0.321,-0.219 0.122,-0.052 0.255,-0.078 0.396,-0.078 0.14,0 0.272,0.024 0.395,0.077 0.122,0.05 0.229,0.125 0.32,0.216 0.091,0.092 0.164,0.207 0.218,0.334 0.052,0.131 0.078,0.274 0.078,0.43 0,0.152 -0.026,0.291 -0.078,0.42 C 1.892,0.549 1.819,0.66 1.728,0.752 1.637,0.844 1.53,0.918 1.406,0.969 1.282,1.021 1.151,1.047 1.013,1.047 0.872,1.047 0.739,1.021 0.617,0.971 0.494,0.92 0.387,0.846 0.296,0.752 0.205,0.66 0.133,0.549 0.079,0.42 0.026,0.291 0,0.152 0,0 m -0.757,-0.006 c 0,0.236 0.044,0.459 0.13,0.668 0.088,0.209 0.21,0.389 0.366,0.545 0.157,0.156 0.344,0.277 0.561,0.367 0.215,0.09 0.451,0.135 0.707,0.135 0.257,0 0.494,-0.045 0.711,-0.135 C 1.935,1.484 2.121,1.363 2.277,1.207 2.436,1.051 2.558,0.871 2.646,0.662 2.733,0.453 2.777,0.23 2.777,-0.006 2.777,-0.244 2.733,-0.467 2.647,-0.676 2.56,-0.883 2.438,-1.062 2.28,-1.217 2.122,-1.373 1.935,-1.494 1.718,-1.584 1.501,-1.672 1.263,-1.717 1.003,-1.717 c -0.256,0 -0.49,0.045 -0.706,0.133 -0.214,0.09 -0.401,0.211 -0.556,0.367 -0.156,0.155 -0.278,0.336 -0.365,0.545 -0.089,0.207 -0.133,0.43 -0.133,0.666"
             style="fill:#231f20;fill-opacity:1;fill-rule:nonzero;stroke:none"
             id="path72" />
        </g>
        <g
           id="g74"
           transform="translate(84.2012,61.5273)">
          <path
             d="M 0,0 C 0.081,-0.039 0.177,-0.082 0.29,-0.129 0.401,-0.178 0.522,-0.223 0.65,-0.264 0.779,-0.307 0.913,-0.34 1.053,-0.369 1.191,-0.396 1.33,-0.412 1.47,-0.412 c 0.334,0 0.576,0.057 0.727,0.172 0.152,0.113 0.229,0.267 0.229,0.467 C 2.426,0.332 2.399,0.42 2.348,0.49 2.296,0.564 2.222,0.627 2.125,0.68 2.029,0.732 1.913,0.777 1.778,0.818 1.642,0.855 1.492,0.895 1.33,0.934 1.242,0.951 1.146,0.975 1.04,0.998 0.935,1.025 0.828,1.055 0.723,1.094 0.616,1.133 0.514,1.178 0.415,1.23 0.313,1.283 0.227,1.348 0.149,1.426 0.072,1.5 0.011,1.59 -0.035,1.691 c -0.048,0.1 -0.071,0.215 -0.071,0.35 0,0.195 0.03,0.373 0.095,0.539 0.063,0.162 0.162,0.303 0.298,0.42 0.135,0.115 0.308,0.209 0.52,0.273 0.212,0.069 0.465,0.098 0.762,0.098 0.157,0 0.305,-0.01 0.447,-0.033 C 2.158,3.313 2.294,3.281 2.425,3.242 2.553,3.203 2.677,3.158 2.793,3.109 2.908,3.061 3.02,3.014 3.123,2.969 L 2.905,2.314 C 2.845,2.348 2.763,2.385 2.657,2.426 2.55,2.469 2.433,2.51 2.302,2.551 2.173,2.592 2.038,2.623 1.9,2.652 1.76,2.678 1.628,2.691 1.501,2.691 1.337,2.691 1.201,2.674 1.095,2.643 0.986,2.607 0.902,2.564 0.839,2.51 0.775,2.457 0.732,2.396 0.707,2.328 0.681,2.258 0.669,2.189 0.669,2.117 0.669,2.023 0.695,1.943 0.747,1.877 0.8,1.809 0.871,1.756 0.962,1.711 1.055,1.664 1.162,1.629 1.287,1.598 1.415,1.57 1.554,1.545 1.703,1.523 1.904,1.48 2.097,1.43 2.279,1.371 2.463,1.312 2.622,1.238 2.761,1.139 2.898,1.041 3.008,0.918 3.091,0.768 3.173,0.619 3.214,0.43 3.214,0.201 3.214,-0.006 3.17,-0.189 3.083,-0.352 2.996,-0.514 2.874,-0.646 2.716,-0.758 2.558,-0.867 2.369,-0.951 2.147,-1.008 1.929,-1.066 1.686,-1.096 1.42,-1.096 c -0.18,0 -0.349,0.012 -0.51,0.037 -0.163,0.024 -0.314,0.057 -0.455,0.096 -0.142,0.039 -0.271,0.084 -0.39,0.135 -0.119,0.049 -0.223,0.101 -0.317,0.156 z"
             style="fill:#231f20;fill-opacity:1;fill-rule:nonzero;stroke:none"
             id="path76" />
        </g>
        <g
           id="g78"
           transform="translate(89.3652,63.2246)">
          <path
             d="m 0,0 c -0.116,0 -0.226,-0.02 -0.335,-0.059 -0.106,-0.037 -0.204,-0.089 -0.292,-0.16 -0.088,-0.066 -0.165,-0.15 -0.229,-0.248 -0.064,-0.095 -0.112,-0.201 -0.143,-0.316 h 1.208 c 0.169,0 0.297,0.033 0.386,0.097 0.09,0.061 0.134,0.149 0.134,0.256 0,0.049 -0.014,0.1 -0.045,0.151 C 0.654,-0.23 0.609,-0.184 0.549,-0.141 0.488,-0.1 0.412,-0.066 0.321,-0.039 0.23,-0.014 0.123,0 0,0 m -0.993,-1.404 c 0.033,-0.112 0.081,-0.211 0.145,-0.303 0.064,-0.092 0.138,-0.17 0.224,-0.234 0.087,-0.065 0.182,-0.116 0.285,-0.153 0.104,-0.035 0.214,-0.052 0.327,-0.052 0.104,0 0.196,0.007 0.278,0.025 0.081,0.016 0.155,0.035 0.221,0.066 0.069,0.028 0.129,0.061 0.185,0.102 0.055,0.039 0.107,0.084 0.161,0.131 L 1.249,-2.273 C 1.189,-2.338 1.116,-2.4 1.029,-2.461 0.943,-2.525 0.846,-2.582 0.738,-2.629 0.632,-2.68 0.514,-2.719 0.386,-2.75 0.258,-2.781 0.122,-2.795 -0.021,-2.795 c -0.253,0 -0.487,0.045 -0.7,0.135 -0.212,0.09 -0.397,0.211 -0.552,0.367 -0.157,0.156 -0.277,0.34 -0.365,0.547 -0.087,0.205 -0.131,0.426 -0.131,0.66 0,0.236 0.044,0.457 0.131,0.666 0.088,0.209 0.208,0.393 0.365,0.549 0.155,0.154 0.34,0.281 0.554,0.371 0.213,0.09 0.448,0.137 0.7,0.137 C 0.212,0.637 0.418,0.609 0.6,0.551 0.781,0.494 0.937,0.42 1.062,0.32 1.189,0.225 1.285,0.109 1.352,-0.027 1.418,-0.16 1.451,-0.303 1.451,-0.457 1.451,-0.586 1.433,-0.707 1.395,-0.822 1.355,-0.936 1.293,-1.037 1.206,-1.125 1.118,-1.209 1.004,-1.279 0.861,-1.33 0.72,-1.381 0.544,-1.404 0.337,-1.404 Z"
             style="fill:#231f20;fill-opacity:1;fill-rule:nonzero;stroke:none"
             id="path80" />
        </g>
        <g
           id="g82"
           transform="translate(93.874,60.8887)">
          <path
             d="m 0,0 c -0.171,-0.158 -0.36,-0.275 -0.569,-0.348 -0.208,-0.076 -0.426,-0.111 -0.653,-0.109 -0.255,0.004 -0.491,0.049 -0.707,0.139 -0.216,0.091 -0.401,0.216 -0.558,0.369 -0.158,0.154 -0.279,0.332 -0.367,0.539 -0.086,0.205 -0.13,0.428 -0.13,0.664 0,0.236 0.044,0.459 0.13,0.668 0.088,0.209 0.209,0.391 0.367,0.545 0.157,0.156 0.342,0.281 0.558,0.371 0.216,0.088 0.452,0.135 0.707,0.135 0.224,0 0.441,-0.037 0.649,-0.114 0.207,-0.074 0.396,-0.189 0.567,-0.341 L -0.468,2.031 c -0.092,0.086 -0.2,0.155 -0.328,0.203 -0.128,0.049 -0.269,0.073 -0.422,0.073 -0.135,0 -0.264,-0.024 -0.385,-0.073 C -1.725,2.186 -1.831,2.115 -1.924,2.027 -2.017,1.936 -2.09,1.824 -2.145,1.693 -2.198,1.566 -2.228,1.42 -2.228,1.258 c 0,-0.164 0.03,-0.311 0.083,-0.44 0.055,-0.131 0.13,-0.24 0.222,-0.332 0.094,-0.091 0.201,-0.16 0.323,-0.209 0.121,-0.047 0.248,-0.07 0.382,-0.07 0.162,0 0.305,0.023 0.429,0.07 0.125,0.047 0.234,0.116 0.327,0.207 z"
             style="fill:#231f20;fill-opacity:1;fill-rule:nonzero;stroke:none"
             id="path84" />
        </g>
        <g
           id="g86"
           transform="translate(95.2012,62.1328)">
          <path
             d="m 0,0 c -0.07,0 -0.128,0.057 -0.128,0.127 0,0.066 0.058,0.121 0.128,0.121 0.07,0 0.126,-0.055 0.126,-0.121 C 0.126,0.057 0.07,0 0,0"
             style="fill:#000000;fill-opacity:1;fill-rule:evenodd;stroke:none"
             id="path88" />
        </g>
        <g
           id="g90"
           transform="translate(95.2012,62.5)">
          <path
             d="m 0,0 c -0.136,0 -0.246,-0.109 -0.246,-0.24 0,-0.137 0.11,-0.244 0.246,-0.244 0.136,0 0.245,0.107 0.245,0.244 C 0.245,-0.109 0.136,0 0,0 M 0,-0.234 -0.011,-0.24 c 0,0.002 0.004,0.006 0.011,0.006"
             style="fill:#0c0c0c;fill-opacity:1;fill-rule:nonzero;stroke:none"
             id="path92" />
        </g>
        <g
           id="g94"
           transform="translate(101.0645,61.1387)">
          <path
             d="m 0,0 c -0.097,-0.098 -0.205,-0.189 -0.325,-0.277 -0.12,-0.086 -0.249,-0.159 -0.388,-0.221 -0.139,-0.064 -0.286,-0.113 -0.441,-0.148 -0.156,-0.036 -0.32,-0.055 -0.49,-0.055 -0.214,0 -0.42,0.027 -0.617,0.078 -0.198,0.053 -0.383,0.129 -0.554,0.227 -0.172,0.095 -0.329,0.212 -0.47,0.347 -0.143,0.135 -0.262,0.285 -0.363,0.449 -0.099,0.168 -0.177,0.344 -0.233,0.536 -0.056,0.191 -0.083,0.388 -0.083,0.597 0,0.207 0.027,0.406 0.083,0.596 0.056,0.189 0.134,0.369 0.233,0.533 0.101,0.164 0.22,0.315 0.363,0.451 0.141,0.135 0.298,0.25 0.47,0.348 0.171,0.096 0.356,0.17 0.554,0.221 0.197,0.052 0.403,0.08 0.617,0.08 0.168,0 0.33,-0.018 0.484,-0.051 0.152,-0.033 0.298,-0.082 0.436,-0.143 0.138,-0.06 0.267,-0.136 0.388,-0.22 C -0.215,3.26 -0.103,3.166 0,3.061 L -0.483,2.557 c -0.141,0.166 -0.312,0.297 -0.514,0.39 -0.201,0.094 -0.417,0.141 -0.647,0.141 -0.211,0 -0.411,-0.041 -0.597,-0.121 C -2.427,2.889 -2.59,2.777 -2.729,2.641 -2.867,2.5 -2.978,2.336 -3.057,2.145 -3.139,1.953 -3.179,1.748 -3.179,1.529 c 0,-0.22 0.04,-0.425 0.122,-0.613 0.079,-0.189 0.19,-0.354 0.328,-0.494 0.139,-0.139 0.302,-0.248 0.488,-0.328 0.186,-0.078 0.386,-0.119 0.597,-0.119 0.228,0 0.442,0.046 0.646,0.142 0.202,0.094 0.375,0.223 0.519,0.387 z"
             style="fill:#231f20;fill-opacity:1;fill-rule:nonzero;stroke:none"
             id="path96" />
        </g>
        <g
           id="g98"
           transform="translate(102.1357,62.1484)">
          <path
             d="m 0,0 c 0,-0.156 0.025,-0.299 0.079,-0.428 0.055,-0.127 0.127,-0.24 0.221,-0.332 0.092,-0.092 0.2,-0.168 0.324,-0.219 0.123,-0.052 0.257,-0.078 0.4,-0.078 0.142,0 0.277,0.024 0.401,0.077 0.124,0.05 0.232,0.125 0.324,0.216 0.093,0.092 0.166,0.207 0.22,0.334 0.053,0.131 0.08,0.274 0.08,0.43 0,0.152 -0.027,0.291 -0.08,0.42 C 1.915,0.549 1.842,0.66 1.749,0.752 1.657,0.844 1.548,0.918 1.424,0.969 1.298,1.021 1.165,1.047 1.024,1.047 0.881,1.047 0.747,1.021 0.624,0.971 0.5,0.92 0.392,0.846 0.3,0.752 0.206,0.66 0.134,0.549 0.079,0.42 0.025,0.291 0,0.152 0,0 m -0.768,-0.006 c 0,0.236 0.045,0.459 0.133,0.668 0.089,0.209 0.212,0.389 0.37,0.545 0.16,0.156 0.349,0.277 0.567,0.367 0.219,0.09 0.457,0.135 0.717,0.135 0.26,0 0.5,-0.045 0.719,-0.135 C 1.958,1.484 2.148,1.363 2.306,1.207 2.465,1.051 2.589,0.871 2.678,0.662 2.768,0.453 2.812,0.23 2.812,-0.006 2.812,-0.244 2.768,-0.467 2.681,-0.676 2.592,-0.883 2.467,-1.062 2.309,-1.217 2.148,-1.373 1.958,-1.494 1.738,-1.584 1.519,-1.672 1.277,-1.717 1.015,-1.717 c -0.259,0 -0.496,0.045 -0.714,0.133 -0.218,0.09 -0.406,0.211 -0.565,0.367 -0.157,0.155 -0.28,0.336 -0.369,0.545 -0.09,0.207 -0.135,0.43 -0.135,0.666"
             style="fill:#231f20;fill-opacity:1;fill-rule:nonzero;stroke:none"
             id="path100" />
        </g>
        <g
           id="g102"
           transform="translate(110.6064,60.5293)">
          <path
             d="m 0,0 h -0.769 v 1.74 c 0,0.319 -0.057,0.555 -0.173,0.703 -0.117,0.149 -0.28,0.223 -0.492,0.223 -0.122,0 -0.233,-0.02 -0.336,-0.062 C -1.87,2.564 -1.957,2.506 -2.032,2.432 -2.106,2.355 -2.165,2.262 -2.207,2.152 -2.248,2.043 -2.272,1.918 -2.276,1.781 V 0 H -3.05 v 1.74 c 0,0.319 -0.056,0.555 -0.173,0.703 -0.116,0.149 -0.279,0.223 -0.491,0.223 -0.125,0 -0.238,-0.021 -0.343,-0.062 C -4.16,2.561 -4.249,2.5 -4.323,2.42 -4.396,2.34 -4.454,2.242 -4.495,2.125 -4.536,2.008 -4.557,1.877 -4.557,1.73 V 0 h -0.765 v 3.23 h 0.624 l 0.052,-0.296 c 0.063,0.054 0.13,0.105 0.205,0.154 0.074,0.047 0.156,0.088 0.244,0.123 0.089,0.037 0.182,0.064 0.283,0.088 0.1,0.019 0.203,0.029 0.312,0.029 0.228,0 0.429,-0.043 0.605,-0.127 0.175,-0.088 0.322,-0.207 0.436,-0.365 0.063,0.068 0.137,0.129 0.22,0.189 0.082,0.061 0.175,0.114 0.276,0.159 0.1,0.043 0.211,0.078 0.332,0.105 0.119,0.025 0.248,0.039 0.386,0.039 0.215,0 0.406,-0.033 0.574,-0.105 0.167,-0.069 0.308,-0.17 0.421,-0.305 C -0.236,2.787 -0.148,2.621 -0.09,2.428 -0.029,2.232 0,2.01 0,1.762 Z"
             style="fill:#231f20;fill-opacity:1;fill-rule:nonzero;stroke:none"
             id="path104" />
        </g>
        <g
           id="g106"
           transform="translate(113.8633,62.1445)">
          <path
             d="M 0,0 C 0,0.154 -0.027,0.295 -0.082,0.426 -0.137,0.557 -0.211,0.668 -0.306,0.762 -0.4,0.852 -0.511,0.926 -0.637,0.979 -0.763,1.029 -0.896,1.053 -1.04,1.053 -1.187,1.053 -1.321,1.029 -1.447,0.979 -1.573,0.926 -1.684,0.852 -1.777,0.762 -1.87,0.668 -1.946,0.557 -2,0.428 -2.054,0.299 -2.081,0.156 -2.081,0 c 0,-0.152 0.027,-0.295 0.081,-0.424 0.054,-0.127 0.13,-0.24 0.225,-0.33 0.094,-0.092 0.204,-0.166 0.331,-0.219 0.126,-0.05 0.261,-0.076 0.406,-0.076 0.145,0 0.281,0.024 0.406,0.074 0.128,0.053 0.237,0.127 0.331,0.219 0.094,0.092 0.167,0.203 0.222,0.33 C -0.026,-0.297 0,-0.156 0,0 m 0.768,0.004 c 0,-0.238 -0.042,-0.461 -0.123,-0.67 -0.083,-0.209 -0.2,-0.389 -0.35,-0.543 -0.15,-0.154 -0.331,-0.279 -0.543,-0.369 -0.211,-0.09 -0.446,-0.135 -0.707,-0.135 -0.235,0 -0.444,0.037 -0.625,0.115 -0.181,0.073 -0.337,0.17 -0.467,0.291 v -1.414 h -0.766 v 4.338 h 0.624 l 0.06,-0.379 c 0.066,0.063 0.139,0.125 0.222,0.182 0.082,0.059 0.172,0.109 0.268,0.152 0.098,0.045 0.203,0.078 0.317,0.104 0.111,0.025 0.229,0.037 0.354,0.037 0.258,0 0.494,-0.043 0.708,-0.133 C -0.047,1.49 0.136,1.369 0.288,1.215 0.439,1.061 0.557,0.879 0.641,0.67 0.725,0.461 0.768,0.238 0.768,0.004"
             style="fill:#231f20;fill-opacity:1;fill-rule:nonzero;stroke:none"
             id="path108" />
        </g>
        <g
           id="g110"
           transform="translate(115.7666,64.9531)">
          <path
             d="M 0,0 V -3.342 C 0,-3.426 0.005,-3.498 0.014,-3.553 0.023,-3.609 0.043,-3.652 0.069,-3.684 0.097,-3.717 0.133,-3.74 0.178,-3.752 0.224,-3.764 0.283,-3.77 0.356,-3.77 H 0.505 V -4.426 H 0.322 c -0.222,0 -0.405,0.016 -0.546,0.055 -0.141,0.037 -0.253,0.098 -0.333,0.182 -0.081,0.08 -0.136,0.191 -0.166,0.328 -0.029,0.138 -0.044,0.308 -0.044,0.511 V 0 Z"
             style="fill:#231f20;fill-opacity:1;fill-rule:nonzero;stroke:none"
             id="path112" />
        </g>
        <path
           d="m 116.456,63.76 h 0.772 v -3.23 h -0.772 z m -0.085,0.914 c 0,0.058 0.012,0.113 0.034,0.166 0.024,0.051 0.056,0.096 0.096,0.135 0.041,0.039 0.091,0.07 0.15,0.091 0.06,0.022 0.123,0.036 0.196,0.036 0.071,0 0.137,-0.014 0.196,-0.036 0.061,-0.021 0.111,-0.052 0.154,-0.091 0.042,-0.039 0.075,-0.084 0.098,-0.135 0.022,-0.053 0.034,-0.108 0.034,-0.166 0,-0.059 -0.012,-0.111 -0.034,-0.164 -0.023,-0.051 -0.056,-0.098 -0.098,-0.137 -0.043,-0.037 -0.093,-0.066 -0.154,-0.088 -0.059,-0.025 -0.125,-0.033 -0.196,-0.033 -0.073,0 -0.136,0.008 -0.195,0.033 -0.057,0.022 -0.107,0.051 -0.149,0.088 -0.042,0.039 -0.074,0.086 -0.098,0.137 -0.022,0.053 -0.034,0.105 -0.034,0.164"
           style="fill:#231f20;fill-opacity:1;fill-rule:nonzero;stroke:none"
           id="path114" />
        <g
           id="g116"
           transform="translate(119.0557,61.0547)">
          <path
             d="m 0,0 c 0.098,0 0.195,0.012 0.295,0.033 0.1,0.028 0.193,0.059 0.281,0.1 0.087,0.041 0.163,0.09 0.226,0.146 C 0.867,0.338 0.913,0.4 0.943,0.471 V 0.844 C 0.849,0.846 0.746,0.848 0.638,0.852 0.527,0.855 0.416,0.855 0.304,0.855 0.185,0.855 0.07,0.85 -0.041,0.838 -0.152,0.828 -0.251,0.807 -0.337,0.779 -0.424,0.748 -0.494,0.707 -0.547,0.654 -0.601,0.602 -0.628,0.535 -0.628,0.451 c 0,-0.084 0.017,-0.156 0.049,-0.213 0.033,-0.056 0.077,-0.105 0.134,-0.14 0.056,-0.036 0.124,-0.063 0.2,-0.077 C -0.168,0.006 -0.086,0 0,0 M 1.024,-0.158 C 0.94,-0.229 0.847,-0.291 0.744,-0.348 0.641,-0.406 0.533,-0.453 0.421,-0.49 0.309,-0.529 0.193,-0.557 0.076,-0.578 c -0.118,-0.018 -0.234,-0.027 -0.35,-0.026 -0.155,0.002 -0.303,0.024 -0.44,0.065 -0.139,0.041 -0.259,0.105 -0.361,0.191 -0.104,0.086 -0.185,0.2 -0.246,0.334 -0.061,0.137 -0.092,0.301 -0.092,0.496 0,0.18 0.043,0.327 0.129,0.442 0.087,0.115 0.203,0.209 0.349,0.277 0.146,0.07 0.317,0.119 0.513,0.147 0.197,0.029 0.406,0.041 0.627,0.041 0.106,0 0.225,0 0.357,-0.004 0.134,-0.004 0.261,-0.008 0.381,-0.01 v 0.293 c 0,0.068 -0.016,0.133 -0.05,0.193 C 0.859,1.924 0.81,1.979 0.744,2.025 0.679,2.07 0.599,2.107 0.501,2.135 0.405,2.162 0.294,2.176 0.167,2.176 0.069,2.176 -0.024,2.162 -0.114,2.141 -0.205,2.113 -0.281,2.084 -0.348,2.045 -0.414,2.006 -0.468,1.959 -0.506,1.908 -0.545,1.855 -0.564,1.801 -0.564,1.744 h -0.773 c 0.003,0.17 0.045,0.32 0.121,0.453 0.076,0.133 0.182,0.244 0.314,0.334 0.132,0.088 0.289,0.157 0.468,0.203 0.181,0.047 0.373,0.069 0.582,0.069 0.249,0 0.469,-0.028 0.664,-0.078 C 1.007,2.672 1.171,2.598 1.305,2.502 1.437,2.408 1.539,2.295 1.608,2.16 1.678,2.029 1.713,1.883 1.713,1.723 V -0.525 H 1.089 Z"
             style="fill:#231f20;fill-opacity:1;fill-rule:nonzero;stroke:none"
             id="path118" />
        </g>
        <g
           id="g120"
           transform="translate(124.4531,60.5293)">
          <path
             d="m 0,0 h -0.771 v 1.725 c 0,0.17 -0.02,0.316 -0.058,0.435 C -0.866,2.281 -0.921,2.377 -0.99,2.453 -1.06,2.527 -1.144,2.582 -1.243,2.615 -1.344,2.65 -1.456,2.666 -1.58,2.666 -1.715,2.666 -1.838,2.643 -1.95,2.594 -2.063,2.543 -2.16,2.473 -2.242,2.387 -2.325,2.297 -2.388,2.191 -2.434,2.066 -2.479,1.945 -2.501,1.811 -2.501,1.664 V 0 h -0.767 v 3.23 h 0.624 l 0.057,-0.326 c 0.068,0.059 0.144,0.114 0.228,0.164 0.084,0.053 0.174,0.098 0.27,0.137 0.096,0.039 0.195,0.068 0.301,0.092 0.105,0.019 0.212,0.031 0.318,0.031 0.253,0 0.472,-0.033 0.657,-0.105 0.184,-0.069 0.337,-0.172 0.459,-0.307 0.12,-0.135 0.209,-0.303 0.268,-0.5 C -0.029,2.217 0,1.994 0,1.74 Z"
             style="fill:#231f20;fill-opacity:1;fill-rule:nonzero;stroke:none"
             id="path122" />
        </g>
        <g
           id="g124"
           transform="translate(127.71,60.8887)">
          <path
             d="m 0,0 c -0.173,-0.158 -0.365,-0.275 -0.576,-0.348 -0.212,-0.076 -0.431,-0.111 -0.662,-0.109 -0.257,0.004 -0.496,0.049 -0.714,0.139 -0.22,0.091 -0.407,0.216 -0.567,0.369 -0.158,0.154 -0.283,0.332 -0.371,0.539 -0.089,0.205 -0.131,0.428 -0.131,0.664 0,0.236 0.042,0.459 0.131,0.668 0.088,0.209 0.213,0.391 0.371,0.545 0.16,0.156 0.347,0.281 0.567,0.371 0.218,0.088 0.457,0.135 0.714,0.135 0.228,0 0.446,-0.037 0.656,-0.114 0.211,-0.074 0.403,-0.189 0.574,-0.341 L -0.474,2.031 C -0.566,2.117 -0.677,2.186 -0.806,2.234 -0.936,2.283 -1.078,2.307 -1.233,2.307 -1.371,2.307 -1.5,2.283 -1.623,2.234 -1.746,2.186 -1.855,2.115 -1.947,2.027 -2.041,1.936 -2.116,1.824 -2.173,1.693 -2.228,1.566 -2.256,1.42 -2.256,1.258 c 0,-0.164 0.028,-0.311 0.083,-0.44 0.057,-0.131 0.132,-0.24 0.227,-0.332 0.094,-0.091 0.202,-0.16 0.325,-0.209 0.124,-0.047 0.253,-0.07 0.388,-0.07 0.163,0 0.309,0.023 0.434,0.07 0.127,0.047 0.237,0.116 0.332,0.207 z"
             style="fill:#231f20;fill-opacity:1;fill-rule:nonzero;stroke:none"
             id="path126" />
        </g>
        <g
           id="g128"
           transform="translate(129.5527,63.2246)">
          <path
             d="m 0,0 c -0.117,0 -0.231,-0.02 -0.339,-0.059 -0.108,-0.037 -0.207,-0.089 -0.297,-0.16 -0.089,-0.066 -0.166,-0.15 -0.231,-0.248 -0.066,-0.095 -0.113,-0.201 -0.146,-0.316 h 1.224 c 0.171,0 0.301,0.033 0.391,0.097 0.091,0.061 0.136,0.149 0.136,0.256 0,0.049 -0.015,0.1 -0.047,0.151 C 0.662,-0.23 0.616,-0.184 0.556,-0.141 0.494,-0.1 0.417,-0.066 0.324,-0.039 0.232,-0.014 0.124,0 0,0 m -1.006,-1.404 c 0.033,-0.112 0.082,-0.211 0.146,-0.303 0.065,-0.092 0.14,-0.17 0.229,-0.234 0.086,-0.065 0.182,-0.116 0.287,-0.153 0.106,-0.035 0.217,-0.052 0.331,-0.052 0.106,0 0.199,0.007 0.281,0.025 0.083,0.016 0.157,0.035 0.226,0.066 0.068,0.028 0.13,0.061 0.186,0.102 0.055,0.039 0.11,0.084 0.162,0.131 L 1.265,-2.273 C 1.203,-2.338 1.13,-2.4 1.042,-2.461 0.955,-2.525 0.856,-2.582 0.747,-2.629 0.639,-2.68 0.519,-2.719 0.39,-2.75 0.261,-2.781 0.123,-2.795 -0.022,-2.795 c -0.255,0 -0.492,0.045 -0.707,0.135 -0.216,0.09 -0.404,0.211 -0.56,0.367 -0.158,0.156 -0.281,0.34 -0.369,0.547 -0.089,0.205 -0.133,0.426 -0.133,0.66 0,0.236 0.044,0.457 0.133,0.666 0.088,0.209 0.211,0.393 0.369,0.549 0.156,0.154 0.344,0.281 0.56,0.371 0.217,0.09 0.453,0.137 0.71,0.137 0.234,0 0.442,-0.028 0.626,-0.086 C 0.791,0.494 0.947,0.42 1.075,0.32 1.203,0.225 1.302,0.109 1.369,-0.027 1.436,-0.16 1.47,-0.303 1.47,-0.457 1.47,-0.586 1.451,-0.707 1.412,-0.822 1.373,-0.936 1.309,-1.037 1.22,-1.125 1.133,-1.209 1.017,-1.279 0.872,-1.33 0.729,-1.381 0.551,-1.404 0.341,-1.404 Z"
             style="fill:#231f20;fill-opacity:1;fill-rule:nonzero;stroke:none"
             id="path130" />
        </g>
      </g>
    </g>
  </g>
</svg>
