<?xml version="1.0" encoding="UTF-8" standalone="no"?>
<svg
   xmlns:dc="http://purl.org/dc/elements/1.1/"
   xmlns:cc="http://creativecommons.org/ns#"
   xmlns:rdf="http://www.w3.org/1999/02/22-rdf-syntax-ns#"
   xmlns:svg="http://www.w3.org/2000/svg"
   xmlns="http://www.w3.org/2000/svg"
   id="svg6"
   xml:space="preserve"
   viewBox="0 0 1024 768"
   y="0px"
   x="0px"
   version="1.1"><metadata
     id="metadata12"><rdf:RDF><cc:Work
         rdf:about=""><dc:format>image/svg+xml</dc:format><dc:type
           rdf:resource="http://purl.org/dc/dcmitype/StillImage" /></cc:Work></rdf:RDF></metadata><defs
     id="defs10" /><rect
     id="rect2"
     height="768"
     width="1024"
     fill="#FFFFFF" /><path
     id="path4"
     fill="#00000a"
     d="m612.80432 403.05594c2.39948 2.466 5.27826 4.42468 8.55518 5.82196 3.33929 1.42743 6.78778 2.12085 10.54297 2.12085 3.65948 0 7.18384-0.7132 10.47534-2.12085 3.23743-1.37964 6.138-3.33722 8.62274-5.81677 2.43481-2.43585 4.36859-5.31464 5.74609-8.55518 1.43054-3.33099 2.125-6.78052 2.125-10.54297 0-3.66315-0.71527-7.18646-2.125-10.4707-1.35986-3.20154-3.29254-6.10107-5.75128-8.62738-2.52112-2.44989-5.41962-4.38312-8.61652-5.74609-3.29254-1.40765-6.81689-2.1214-10.47638-2.1214-3.75519 0-7.20367 0.69397-10.54193 2.12091-3.24054 1.38165-6.11725 3.31641-8.55103 5.75073-2.48157 2.47742-4.43921 5.37854-5.81781 8.6217-1.40973 3.28577-2.125 6.80908-2.125 10.47223 0 3.76245 0.69446 7.21198 2.125 10.54193 1.39417 3.2821 3.35284 6.16193 5.81262 8.55103zm8.13306-29.99872c2.87982-2.94476 6.77429-4.56659 10.96509-4.56659 4.13043 0 8.026 1.62286 10.96814 4.57025 2.90472 2.90417 4.50476 6.79919 4.50476 10.96814 0 4.10602-1.60107 8.0047-4.50061 10.96973-2.97229 2.9068-6.86884 4.50787-10.97229 4.50787-4.16479 0-8.0603-1.60004-10.9682-4.50476-2.94733-2.94739-4.57129-6.84393-4.57129-10.97284 0-4.1908 1.62189-8.08472 4.5744-10.9718zm-357.50177 25.59998c-1.19873 0.88373-3.18024 1.39001-5.43628 1.39001-1.97168 0-3.99481-0.47302-5.85626-1.37024-1.95398-0.91382-3.78271-2.34955-5.14673-4.03693l-2.10004-2.67078-7.62836 9.02612 1.68994 1.85468c5.00378 5.34375 11.74109 8.28589 18.97076 8.28589 4.87689 0 9.44403-1.41803 12.86652-3.99841 1.85785-1.44617 3.32629-3.19482 4.3717-5.21069 1.05731-2.1936 1.5932-4.57019 1.5932-7.06433 0-4.79999-1.64264-8.43976-5.00946-11.11835-2.76385-2.35065-6.41925-3.76245-10.24768-5.23877-0.21521-0.10864-0.44757-0.19904-0.67993-0.28845-0.2038-0.07849-0.40808-0.15649-0.64618-0.27295-2.60376-0.95123-5.23352-1.97839-6.80908-3.03052-1.00635-0.75269-1.62964-1.49237-1.63013-2.84338 0.05975-3.08722 3.1189-4.1825 5.72058-4.1825 2.92609 0 6.4707 1.52985 9.72583 4.19757l2.25702 1.85315 7.03473-9.16028-2.17651-1.68781c-5.0199-4.07281-10.84338-6.22589-16.84106-6.22589-4.65442 0-8.99127 1.54596-12.21313 4.354-3.35596 2.93646-5.20441 6.88293-5.20441 11.11322 0 2.35321 0.52917 4.65704 1.53711 6.67651 1.02246 1.89526 2.30176 3.39545 4.0213 4.71686 3.09137 2.45874 6.90894 3.97656 10.57153 5.32709l0.15387 0.04779c0.15649 0.04785 0.33948 0.10193 0.56976 0.21313 2.98578 1.09473 5.11133 1.97223 6.48419 2.97131 1.16492 0.8161 1.61816 1.72784 1.61816 3.25195 0 1.35986-0.49487 2.35065-1.56097 3.12097zm45.02197 12.07538h11.49731v-42.44104h14.45929v-10.95673h-40.21265v10.95673h14.25604v42.44104zm81.71436-10.95569h-23.40796v-10.16553h23.40796v-10.96039h-23.40796v-10.36414h23.40796v-10.95618l-34.90161 0.00464v53.39728h34.90161v-10.95569zm58.6225 0h-23.40796v-10.16553h23.40796v-10.96039h-23.40796v-10.36414h23.40796v-10.95618l-34.90112 0.00464v53.39728h34.90112v-10.95569zm58.82263 0h-23.60706v-42.61365l-11.49316 3.66107v49.90826h35.10022v-10.95569zm27.32373 10.95984h9.84222l9.21222-31.92462 9.00012 31.92462h9.84326l17.04486-53.39777h-12.15027l-9.65509 31.29718-8.74542-31.29718h-10.68018l-8.8161 31.30243-9.5553-30.97284-0.10083-0.32959h-12.21576l16.87329 53.07239 0.10297 0.32538zm157.89368-42.44104h7.47186c2.61261 0 4.6441 0.58685 5.88538 1.70551 1.22888 1.04639 1.85266 2.66821 1.85266 4.82135 0 2.06-0.59052 3.62103-1.80585 4.7735-1.3609 1.2995-3.62836 1.95813-6.73895 1.95813h-2.48779v10.83508l12.73553 18.34747h12.95282l0.38257-0.73499-13.50903-19.2832c2.6521-1.05939 4.78754-2.54706 6.34906-4.42157 2.53357-2.87146 3.81757-6.68744 3.81757-11.34137 0-5.08954-1.58026-9.43317-4.57025-12.5614-1.57611-1.64886-3.58362-2.91101-5.95605-3.74792-2.26953-0.86755-4.99548-1.30731-8.10089-1.30731h-19.77075v53.39777h11.49213v-42.44104zm61.90411 27.409l3.9444-4.59729 14.11096 19.43286 0.14038 0.19232h13.42065l0.37738-0.74225-20.36438-27.88568 20.34357-24.00049-0.35657-0.76935h-13.93842l-17.67798 21.30005v-21.30005h-11.49213v53.39777h11.49213v-15.02789zm-562.09985-79.99817v136.58698h638.72253v-136.58698h-638.72254zm626.71643 124.58087h-614.71033v-112.57477h614.71033v112.57477z" /></svg>