<svg width="139" height="64" viewBox="0 0 139 64" fill="none" xmlns="http://www.w3.org/2000/svg">
<rect width="139" height="64" rx="12" fill="white"/>
<path fill-rule="evenodd" clip-rule="evenodd" d="M108.301 37.237H99.9609V25.4367H102.08V35.3189H108.301V37.237Z" fill="black"/>
<path fill-rule="evenodd" clip-rule="evenodd" d="M114.275 37.237H112.122V27.4052H108.369V25.4367H118.027V27.4052H114.275L114.275 37.237Z" fill="black"/>
<path fill-rule="evenodd" clip-rule="evenodd" d="M92.0458 37.4216C91.2799 37.4216 90.5772 37.311 89.9569 37.0929C89.336 36.8743 88.798 36.5418 88.3578 36.1049C87.9173 35.6677 87.574 35.1197 87.3369 34.4756C87.1 33.8326 86.98 33.0761 86.98 32.2261V25.4367H89.0987V32.1422C89.0987 33.2262 89.365 34.0607 89.8902 34.6232C90.4147 35.1851 91.1516 35.4699 92.0797 35.4699C92.9966 35.4699 93.7278 35.1962 94.2526 34.6562C94.7773 34.1165 95.0436 33.2989 95.0436 32.2261V25.4367H97.1623V32.1255C97.1623 32.9964 97.0396 33.773 96.7971 34.4337C96.5544 35.0947 96.2081 35.6539 95.7679 36.0964C95.3281 36.5389 94.787 36.8741 94.1598 37.0929C93.5339 37.311 92.8226 37.4216 92.0458 37.4216Z" fill="black"/>
<path fill-rule="evenodd" clip-rule="evenodd" d="M79.0713 27.8473L74.0703 39.8704H76.4577L80.0479 30.7867L83.6141 39.8528L83.6208 39.8704H85.9569L80.9631 27.8645L80.9562 27.8473H79.0713Z" fill="#E50044"/>
<path fill-rule="evenodd" clip-rule="evenodd" d="M74.6381 23L71.0655 32.0879L67.482 23.0178L67.4752 23H65.0877L70.0814 35.0108L70.0886 35.028H71.9737L76.9583 23.0386L76.9742 23H74.6381Z" fill="#E50044"/>
<path fill-rule="evenodd" clip-rule="evenodd" d="M33.7631 37.2183H31.5858V32.5129L26.8065 25.2782H29.3542L29.3626 25.2911L32.6919 30.5175L36.0634 25.2782H38.543L33.7631 32.4619V37.2183Z" fill="black"/>
<path fill-rule="evenodd" clip-rule="evenodd" d="M50.6317 37.2183H48.8312L48.8229 37.2074L42.2838 28.8173V37.2183H40.1406V25.2782H42.1285L42.137 25.2889L48.4885 33.4414V25.2782H50.6317V37.2183Z" fill="black"/>
<path fill-rule="evenodd" clip-rule="evenodd" d="M22.0339 37.3869C21.1111 37.3869 20.2158 37.2293 19.3729 36.9181C18.5297 36.6077 17.7382 36.1232 17.02 35.4782L17 35.4602L17.0173 35.4396L18.3016 33.9237L18.323 33.9422C18.9003 34.4369 19.4909 34.8209 20.0783 35.0839C20.6641 35.3469 21.3394 35.4805 22.0853 35.4805C22.7265 35.4805 23.2417 35.3451 23.617 35.0781C23.9896 34.8131 24.1784 34.4496 24.1784 33.9975C24.1784 33.7878 24.1418 33.5974 24.0692 33.431C23.9973 33.2671 23.862 33.1141 23.6669 32.9758C23.4701 32.8368 23.1955 32.7039 22.8505 32.5803C22.5037 32.4566 22.046 32.3254 21.49 32.1907C20.8513 32.0442 20.276 31.8782 19.7807 31.6976C19.2837 31.5169 18.8596 31.287 18.5205 31.014C18.1814 30.7408 17.9189 30.406 17.7407 30.0192C17.5629 29.6329 17.4726 29.155 17.4726 28.5985C17.4726 28.0757 17.5762 27.5946 17.7805 27.1689C17.9852 26.7426 18.2701 26.3711 18.6277 26.0646C18.9848 25.7584 19.4205 25.5193 19.9228 25.3547C20.4246 25.1905 20.9794 25.1071 21.572 25.1071C22.4491 25.1071 23.2496 25.2363 23.951 25.491C24.6512 25.745 25.3187 26.1208 25.9346 26.6075L25.9553 26.6238L24.7946 28.2472L24.7715 28.2307C24.2287 27.8377 23.684 27.5333 23.1525 27.3257C22.6222 27.1185 22.0788 27.0134 21.5379 27.0134C20.9318 27.0134 20.4545 27.1512 20.1187 27.4231C19.785 27.6939 19.6158 28.0266 19.6158 28.4118C19.6158 28.6447 19.6554 28.8463 19.7331 29.0111C19.8109 29.1762 19.9549 29.3323 20.1612 29.4753C20.3693 29.6202 20.661 29.7563 21.0287 29.8792C21.3961 30.0027 21.8714 30.1339 22.4411 30.269C23.0683 30.4272 23.6321 30.6047 24.1173 30.7967C24.6036 30.9897 25.0133 31.2283 25.3342 31.5062C25.6562 31.7852 25.9039 32.1142 26.0702 32.4835C26.2369 32.8531 26.3214 33.2938 26.3214 33.7936C26.3214 34.3608 26.2149 34.8731 26.005 35.3165C25.7949 35.7595 25.4984 36.1397 25.1236 36.4469C24.7488 36.7535 24.293 36.9893 23.7687 37.1479C23.244 37.3064 22.6604 37.3869 22.0339 37.3869Z" fill="black"/>
<path fill-rule="evenodd" clip-rule="evenodd" d="M59.069 37.4243C58.1917 37.4243 57.3708 37.2635 56.629 36.9466C55.8876 36.6296 55.237 36.1909 54.6954 35.6418C54.1538 35.0932 53.7233 34.4361 53.4149 33.6887C53.1073 32.942 52.9511 32.1273 52.9511 31.2675C52.9511 30.4186 53.1044 29.6096 53.4064 28.8634C53.708 28.1173 54.1388 27.4545 54.6867 26.8933C55.2343 26.333 55.8937 25.8854 56.646 25.5627C57.3991 25.2402 58.2432 25.0767 59.1546 25.0767C59.7012 25.0767 60.2066 25.1226 60.6572 25.2132C61.108 25.304 61.5271 25.4331 61.903 25.597C62.279 25.761 62.6318 25.959 62.9516 26.1854C63.2712 26.4124 63.5772 26.6645 63.8613 26.9348L63.8806 26.9533L62.4927 28.5402L62.4716 28.5206C61.9968 28.0832 61.4866 27.725 60.9551 27.4556C60.4259 27.1873 59.8142 27.051 59.1376 27.051C58.5737 27.051 58.0454 27.1614 57.567 27.3793C57.0876 27.5979 56.6676 27.8983 56.3186 28.2728C55.9689 28.6477 55.6946 29.0931 55.5031 29.5965C55.3112 30.0999 55.2141 30.6505 55.2141 31.2336C55.2141 31.8163 55.3112 32.3699 55.5031 32.8791C55.695 33.389 55.9694 33.8402 56.3186 34.2198C56.6672 34.5996 57.0874 34.9029 57.567 35.1217C58.0456 35.3396 58.5742 35.4502 59.1376 35.4502C59.8594 35.4502 60.4879 35.3111 61.0059 35.0374C61.5259 34.7626 62.0478 34.3839 62.5568 33.9124L62.5768 33.8941L63.9662 35.2906L63.9478 35.3102C63.6417 35.6367 63.3152 35.9322 62.9779 36.1876C62.6419 36.4421 62.275 36.6658 61.8869 36.8527C61.4981 37.0398 61.0671 37.1834 60.6059 37.2793C60.1432 37.3755 59.6261 37.4243 59.069 37.4243Z" fill="black"/>
</svg>
