<?xml version="1.0" standalone="no"?>
<!DOCTYPE svg PUBLIC "-//W3C//DTD SVG 20010904//EN"
 "http://www.w3.org/TR/2001/REC-SVG-20010904/DTD/svg10.dtd">
<svg version="1.0" xmlns="http://www.w3.org/2000/svg"
 width="2145.000000pt" height="587.000000pt" viewBox="0 0 2145.000000 587.000000"
 preserveAspectRatio="xMidYMid meet">

<g transform="translate(0.000000,587.000000) scale(0.100000,-0.100000)"
fill="#000000" stroke="none">
<path d="M14900 3010 l0 -1290 164 0 165 0 3 548 3 547 24 60 c76 192 231 295
442 295 222 0 392 -124 445 -325 11 -39 14 -171 14 -587 l0 -538 165 0 166 0
-3 618 -3 617 -27 73 c-74 202 -211 337 -417 410 -70 25 -88 27 -236 27 -147
-1 -167 -3 -240 -28 -104 -34 -193 -88 -269 -159 -33 -32 -62 -58 -63 -58 -2
0 -3 243 -3 540 l0 540 -165 0 -165 0 0 -1290z"/>
<path d="M7420 4075 l0 -155 445 0 445 0 0 -1100 0 -1100 175 0 175 0 0 1100
0 1100 440 0 440 0 0 155 0 155 -1060 0 -1060 0 0 -155z"/>
<path d="M18135 4185 c-74 -26 -135 -114 -135 -196 0 -39 27 -110 53 -137 40
-43 91 -62 165 -62 58 0 75 4 115 29 61 39 87 91 87 171 0 102 -52 174 -145
199 -53 14 -91 13 -140 -4z"/>
<path d="M13800 3800 l0 -360 -220 0 -220 0 0 -150 0 -150 220 0 220 0 0 -710
0 -710 165 0 165 0 0 710 0 710 220 0 220 0 0 150 0 150 -220 0 -220 0 0 360
0 360 -165 0 -165 0 0 -360z"/>
<path d="M9975 3455 c-190 -42 -346 -136 -473 -286 -71 -83 -152 -237 -177
-336 -35 -140 -38 -346 -6 -485 52 -229 211 -439 423 -561 75 -43 214 -85 320
-96 267 -27 508 53 651 216 16 18 33 33 38 33 5 0 9 -49 9 -110 l0 -110 165 0
165 0 0 860 0 860 -165 0 -165 0 0 -115 c0 -63 -1 -115 -3 -115 -1 0 -33 29
-70 65 -81 77 -233 157 -342 180 -87 18 -289 18 -370 0z m389 -305 c106 -27
169 -63 249 -141 117 -116 176 -287 164 -474 -22 -330 -242 -545 -557 -545
-196 0 -367 83 -475 231 -126 170 -140 460 -33 662 116 219 394 333 652 267z"/>
<path d="M19512 3459 c-238 -42 -463 -188 -599 -389 -80 -118 -128 -251 -142
-395 -46 -464 257 -874 717 -971 98 -20 301 -21 403 -1 221 44 450 192 571
371 53 76 111 204 132 286 42 166 28 388 -34 548 -96 250 -343 463 -620 537
-76 20 -344 29 -428 14z m327 -314 c195 -46 364 -209 416 -401 21 -77 22 -249
1 -327 -27 -98 -73 -177 -150 -252 -118 -117 -240 -166 -410 -166 -142 0 -224
23 -339 98 -155 102 -247 284 -247 487 1 272 169 492 430 560 72 19 219 19
299 1z"/>
<path d="M11542 2873 c4 -547 5 -571 26 -648 70 -256 259 -448 502 -510 231
-60 495 -26 664 85 71 47 159 130 197 186 34 49 81 146 103 209 19 57 20 86
23 653 l4 592 -166 0 -165 0 0 -538 c0 -592 -1 -599 -62 -714 -38 -71 -82
-112 -163 -150 -117 -54 -284 -54 -401 1 -69 33 -143 101 -175 162 -47 93 -49
119 -49 696 l0 543 -171 0 -170 0 3 -567z"/>
<path d="M18050 2580 l0 -860 165 0 165 0 0 860 0 860 -165 0 -165 0 0 -860z"/>
<path d="M3327 3176 c-3 -8 0 -17 7 -19 10 -4 12 1 9 14 -6 23 -9 24 -16 5z"/>
<path d="M3306 3134 c-6 -16 2 -18 22 -5 11 7 11 9 -1 14 -9 3 -18 -1 -21 -9z"/>
<path d="M3315 3110 c-4 -6 -3 -10 2 -9 4 1 10 1 13 -1 3 -1 16 -4 30 -6 24
-4 24 -4 5 10 -24 18 -41 20 -50 6z"/>
<path d="M17123 2120 c-78 -45 -113 -107 -113 -202 0 -136 98 -231 240 -231
140 0 238 97 240 236 0 59 -21 112 -63 155 -52 54 -96 72 -179 72 -62 0 -80
-4 -125 -30z"/>
</g>
</svg>
