<svg id="svg" version="1.1" xmlns="http://www.w3.org/2000/svg" xmlns:xlink="http://www.w3.org/1999/xlink" width="400" height="270.6359945872801" viewBox="0, 0, 400,270.6359945872801"><g id="svgg"><path id="path0" d="M71.677 69.876 C 71.627 70.308,71.533 70.725,71.445 70.907 C 71.005 71.812,71.419 72.381,72.173 71.909 C 72.349 71.800,72.581 71.852,72.689 72.027 C 72.799 72.205,72.768 72.271,72.617 72.178 C 72.470 72.087,72.350 72.174,72.350 72.370 C 72.350 72.578,72.550 72.675,72.829 72.602 C 73.200 72.504,73.349 72.694,73.490 73.448 C 73.598 74.022,73.788 74.349,73.955 74.245 C 74.134 74.135,74.155 74.204,74.012 74.436 C 73.679 74.976,73.673 77.131,74.005 77.135 C 74.162 77.138,74.107 77.258,73.884 77.402 C 73.523 77.635,73.523 77.665,73.884 77.673 C 74.244 77.680,74.244 77.710,73.884 77.943 C 73.660 78.087,73.617 78.207,73.787 78.210 C 73.957 78.212,74.169 78.403,74.258 78.634 C 74.346 78.865,74.312 78.988,74.182 78.907 C 73.907 78.738,73.647 79.542,73.815 80.042 C 73.878 80.229,74.017 80.328,74.123 80.263 C 74.230 80.197,74.317 80.432,74.317 80.785 C 74.317 81.138,74.247 81.384,74.163 81.331 C 74.078 81.279,74.011 82.250,74.014 83.488 C 74.017 84.727,74.100 85.690,74.198 85.629 C 74.297 85.568,74.336 85.732,74.287 85.993 C 74.237 86.254,74.173 86.468,74.146 86.468 C 73.894 86.468,74.074 88.195,74.362 88.541 C 74.684 88.929,74.669 89.027,74.254 89.259 C 73.848 89.486,73.829 89.595,74.133 89.960 C 74.427 90.316,74.428 90.392,74.136 90.392 C 73.921 90.392,73.989 90.546,74.306 90.779 C 74.809 91.150,74.810 91.174,74.335 91.358 C 73.957 91.504,73.922 91.602,74.188 91.766 C 74.681 92.071,74.724 93.363,74.235 93.176 C 73.814 93.014,73.858 93.657,74.290 93.974 C 74.457 94.097,74.431 94.175,74.222 94.177 C 74.036 94.179,73.884 94.310,73.884 94.468 C 73.884 94.626,73.985 94.692,74.109 94.615 C 74.233 94.538,74.335 94.648,74.335 94.858 C 74.335 95.068,74.247 95.186,74.140 95.120 C 73.898 94.970,73.660 95.820,73.815 96.280 C 73.878 96.467,74.021 96.564,74.132 96.495 C 74.244 96.427,74.335 96.542,74.335 96.752 C 74.335 96.963,74.233 97.072,74.109 96.995 C 73.985 96.918,73.884 97.053,73.884 97.294 C 73.884 97.534,73.995 97.663,74.131 97.579 C 74.437 97.390,74.359 97.927,73.975 98.647 C 73.679 99.202,73.779 99.961,74.120 99.750 C 74.225 99.686,74.306 100.100,74.300 100.670 C 74.294 101.241,74.198 101.651,74.087 101.582 C 73.975 101.513,73.884 101.575,73.884 101.721 C 73.884 101.866,74.036 102.046,74.222 102.121 C 74.449 102.213,74.424 102.265,74.145 102.279 C 73.766 102.299,73.719 102.586,73.862 104.008 C 73.874 104.128,73.985 104.164,74.109 104.087 C 74.233 104.011,74.335 104.120,74.335 104.330 C 74.335 104.540,74.233 104.650,74.109 104.573 C 73.761 104.358,73.842 104.854,74.222 105.263 C 74.450 105.509,74.456 105.569,74.241 105.448 C 74.065 105.349,73.845 105.392,73.751 105.544 C 73.658 105.695,73.801 105.821,74.071 105.823 C 74.486 105.826,74.498 105.867,74.154 106.089 C 73.854 106.283,73.842 106.353,74.106 106.356 C 74.378 106.359,74.365 106.458,74.050 106.774 C 73.659 107.165,73.727 108.113,74.128 107.864 C 74.232 107.800,74.317 108.037,74.317 108.390 C 74.317 108.743,74.219 108.971,74.100 108.898 C 73.981 108.824,73.884 108.961,73.884 109.202 C 73.884 109.480,74.007 109.565,74.222 109.436 C 74.481 109.281,74.479 109.334,74.213 109.662 C 73.746 110.238,73.652 113.030,74.109 112.748 C 74.233 112.671,74.335 112.780,74.335 112.991 C 74.335 113.201,74.233 113.310,74.109 113.233 C 73.985 113.157,73.884 113.291,73.884 113.532 C 73.884 113.773,73.977 113.912,74.092 113.841 C 74.206 113.770,74.300 114.484,74.300 115.426 C 74.300 116.369,74.206 117.082,74.092 117.011 C 73.977 116.941,73.884 117.080,73.884 117.321 C 73.884 117.599,74.007 117.685,74.222 117.555 C 74.483 117.398,74.489 117.441,74.248 117.742 C 73.788 118.319,73.658 120.063,74.096 119.792 C 74.213 119.720,74.309 120.069,74.309 120.568 C 74.309 121.067,74.234 121.429,74.141 121.372 C 74.049 121.315,73.974 121.451,73.974 121.674 C 73.974 121.898,74.116 122.026,74.290 121.959 C 74.463 121.892,74.605 121.997,74.605 122.192 C 74.605 122.387,74.473 122.496,74.312 122.434 C 74.130 122.364,74.034 122.707,74.057 123.339 C 74.079 123.899,74.118 124.357,74.146 124.357 C 74.173 124.357,74.237 124.571,74.287 124.832 C 74.336 125.093,74.286 125.251,74.175 125.182 C 73.867 124.992,73.980 128.388,74.290 128.616 C 74.449 128.733,74.393 128.818,74.154 128.823 C 73.793 128.830,73.793 128.860,74.154 129.093 C 74.497 129.315,74.499 129.356,74.170 129.360 C 73.889 129.363,73.927 129.478,74.306 129.771 C 74.608 130.004,74.658 130.118,74.425 130.038 C 74.080 129.920,74.024 130.317,74.052 132.676 C 74.093 136.103,74.102 136.194,74.380 136.022 C 74.504 135.946,74.605 136.049,74.605 136.251 C 74.605 136.454,74.473 136.569,74.312 136.507 C 74.151 136.446,74.001 136.700,73.980 137.073 C 73.959 137.445,74.030 137.695,74.138 137.629 C 74.246 137.562,74.335 137.679,74.335 137.889 C 74.335 138.099,74.260 138.225,74.168 138.168 C 74.077 138.112,74.025 138.757,74.052 139.601 C 74.080 140.446,74.126 141.137,74.155 141.137 C 74.184 141.137,74.238 141.467,74.274 141.871 C 74.310 142.274,74.237 142.541,74.112 142.464 C 73.986 142.386,73.871 142.452,73.857 142.609 C 73.749 143.749,73.826 144.261,74.168 144.682 C 74.497 145.087,74.498 145.127,74.176 144.933 C 73.888 144.759,73.835 144.814,73.964 145.152 C 74.067 145.419,74.003 145.604,73.807 145.606 C 73.599 145.609,73.627 145.707,73.884 145.873 C 74.244 146.106,74.244 146.136,73.884 146.143 C 73.523 146.151,73.523 146.181,73.884 146.414 C 74.244 146.647,74.244 146.677,73.884 146.685 C 73.523 146.692,73.523 146.722,73.884 146.955 C 74.244 147.189,74.244 147.219,73.884 147.226 C 73.523 147.233,73.523 147.263,73.884 147.497 C 74.244 147.730,74.244 147.760,73.884 147.767 C 73.523 147.775,73.523 147.805,73.884 148.038 C 74.244 148.271,74.244 148.301,73.884 148.309 C 73.523 148.316,73.523 148.346,73.884 148.579 C 74.107 148.723,74.158 148.843,73.996 148.846 C 73.835 148.848,73.698 149.002,73.693 149.188 C 73.664 150.100,72.950 151.048,72.192 151.182 C 72.081 151.202,71.928 151.248,71.854 151.286 C 71.779 151.323,71.607 151.368,71.470 151.387 C 71.078 151.441,70.907 151.693,70.645 152.608 L 70.400 153.463 87.094 153.373 C 105.476 153.274,105.290 153.289,111.037 151.408 C 130.499 145.039,142.609 124.825,139.138 104.500 C 136.199 87.292,123.209 73.937,105.891 70.319 C 102.285 69.566,71.759 69.170,71.677 69.876 M71.954 150.651 C 71.791 150.848,71.530 150.931,71.375 150.835 C 71.208 150.731,71.175 150.792,71.295 150.986 C 71.436 151.215,71.597 151.228,71.835 151.030 C 72.022 150.876,72.237 150.812,72.314 150.888 C 72.391 150.965,72.591 150.863,72.758 150.661 C 72.992 150.379,72.968 150.293,72.657 150.293 C 72.434 150.293,72.118 150.454,71.954 150.651 " stroke="none" fill="#fc5414" fill-rule="evenodd"></path><path id="path1" d="M157.240 72.936 L 157.240 76.319 164.953 76.319 L 172.666 76.319 172.666 91.475 L 172.666 106.631 176.725 106.631 L 180.785 106.631 180.785 91.475 L 180.785 76.319 188.498 76.319 L 196.211 76.319 196.211 72.936 L 196.211 69.553 176.725 69.553 L 157.240 69.553 157.240 72.936 M203.248 88.092 L 203.248 106.631 207.307 106.631 L 211.367 106.631 211.367 99.053 L 211.367 91.475 223.545 91.475 L 235.724 91.475 235.724 99.053 L 235.724 106.631 239.783 106.631 L 243.843 106.631 243.843 88.092 L 243.843 69.553 239.783 69.553 L 235.724 69.553 235.724 77.267 L 235.724 84.980 223.545 84.980 L 211.367 84.980 211.367 77.267 L 211.367 69.553 207.307 69.553 L 203.248 69.553 203.248 88.092 M251.962 88.092 L 251.962 106.631 268.877 106.631 L 285.792 106.631 285.792 103.248 L 285.792 99.865 272.936 99.865 L 260.081 99.865 260.081 95.670 L 260.081 91.475 271.448 91.475 L 282.815 91.475 282.815 88.227 L 282.815 84.980 271.448 84.980 L 260.081 84.980 260.081 80.650 L 260.081 76.319 272.936 76.319 L 285.792 76.319 285.792 72.936 L 285.792 69.553 268.877 69.553 L 251.962 69.553 251.962 88.092 M161.299 134.927 L 161.299 153.481 173.410 153.388 C 185.228 153.298,185.563 153.281,187.280 152.674 C 203.811 146.836,204.517 123.987,188.363 117.650 C 185.382 116.481,184.036 116.373,172.345 116.373 L 161.299 116.373 161.299 134.927 M211.858 127.946 C 208.779 134.308,204.736 142.649,202.873 146.482 L 199.486 153.451 203.411 153.451 L 207.335 153.451 209.202 149.526 L 211.068 145.602 222.468 145.602 L 233.869 145.602 235.742 149.526 L 237.616 153.451 241.528 153.451 L 245.440 153.451 242.656 147.700 C 241.125 144.537,237.083 136.194,233.674 129.161 L 227.476 116.373 222.466 116.377 L 217.456 116.380 211.858 127.946 M249.797 134.912 L 249.797 153.451 253.857 153.451 L 257.916 153.451 257.916 134.912 L 257.916 116.373 253.857 116.373 L 249.797 116.373 249.797 134.912 M267.659 134.912 L 267.659 153.451 281.732 153.451 L 295.805 153.451 295.805 150.203 L 295.805 146.955 285.792 146.955 L 275.778 146.955 275.778 131.664 L 275.778 116.373 271.719 116.373 L 267.659 116.373 267.659 134.912 M288.045 116.755 C 288.125 116.964,291.975 122.809,296.599 129.743 L 305.007 142.350 305.007 147.900 L 305.007 153.451 309.066 153.451 L 313.126 153.451 313.126 147.932 L 313.126 142.413 321.547 129.741 C 326.178 122.771,330.027 116.912,330.101 116.721 C 330.206 116.447,329.323 116.374,325.942 116.375 L 321.651 116.377 315.446 125.577 C 312.033 130.637,309.165 134.777,309.073 134.777 C 308.981 134.777,306.118 130.636,302.710 125.575 L 296.514 116.373 292.207 116.373 C 288.614 116.373,287.923 116.437,288.045 116.755 M226.099 130.785 C 228.000 134.692,229.617 138.041,229.692 138.227 C 229.799 138.493,228.248 138.566,222.469 138.566 C 218.286 138.566,215.149 138.462,215.201 138.325 C 215.622 137.200,222.329 123.681,222.466 123.681 C 222.564 123.681,224.199 126.878,226.099 130.785 M184.322 124.652 C 193.864 127.442,194.770 140.498,185.715 144.742 C 184.172 145.465,184.145 145.467,176.793 145.550 L 169.418 145.634 169.418 134.928 L 169.418 124.222 176.135 124.222 C 181.474 124.222,183.153 124.310,184.322 124.652 M161.299 182.544 L 161.299 201.083 178.214 201.083 L 195.129 201.083 195.129 197.700 L 195.129 194.317 182.273 194.317 L 169.418 194.317 169.418 189.986 L 169.418 185.656 180.650 185.656 L 191.881 185.656 191.881 182.409 L 191.881 179.161 180.650 179.161 L 169.418 179.161 169.418 174.966 L 169.418 170.771 182.273 170.771 L 195.129 170.771 195.129 167.388 L 195.129 164.005 178.214 164.005 L 161.299 164.005 161.299 182.544 M202.977 182.544 L 202.977 201.083 213.949 201.083 C 226.616 201.083,227.576 200.970,231.640 199.009 C 244.965 192.581,245.188 173.013,232.015 166.095 C 228.227 164.106,227.382 164.005,214.436 164.005 L 202.977 164.005 202.977 182.544 M249.797 182.544 L 249.797 201.083 253.857 201.083 L 257.916 201.083 257.916 182.544 L 257.916 164.005 253.857 164.005 L 249.797 164.005 249.797 182.544 M264.953 167.388 L 264.953 170.771 272.666 170.771 L 280.379 170.771 280.379 185.927 L 280.379 201.083 284.438 201.083 L 288.498 201.083 288.498 185.927 L 288.498 170.771 296.346 170.771 L 304.195 170.771 304.195 167.388 L 304.195 164.005 284.574 164.005 L 264.953 164.005 264.953 167.388 M224.493 171.852 C 235.008 173.572,237.163 187.384,227.649 192.088 L 225.606 193.099 218.351 193.183 L 211.096 193.266 211.096 182.425 L 211.096 171.583 216.982 171.585 C 220.220 171.586,223.599 171.706,224.493 171.852 " stroke="none" fill="#040404" fill-rule="evenodd"></path><path id="path2" d="" stroke="none" fill="#1002c0c" fill-rule="evenodd"></path><path id="path3" d="" stroke="none" fill="#442c0c" fill-rule="evenodd"></path><path id="path4" d="" stroke="none" fill="#04300c" fill-rule="evenodd"></path></g></svg>