<svg width="200" height="46" viewBox="0 0 200 46" fill="none" xmlns="http://www.w3.org/2000/svg">
<path d="M44.0469 9.44282H40.1868C39.6609 9.44282 39.2336 9.03456 39.2336 8.53193V4.72326C39.2336 4.22064 39.6609 3.81238 40.1868 3.81238H44.0469C44.5729 3.81238 45.0001 4.22064 45.0001 4.72326V8.53012C45.002 9.03456 44.5748 9.44282 44.0469 9.44282Z" fill="#47DE95"/>
<path d="M45 14.6469V43.5648C45 44.3015 44.419 44.9094 43.6709 44.9928C43.6139 44.9983 43.5551 45.0019 43.4962 45.0019H1.58544C0.710126 45.0019 0 44.3233 0 43.4868V1.50975C0 0.676892 0.706329 0.00189209 1.57785 0.00189209H35.062C35.9373 0.00189209 36.6456 0.678706 36.6456 1.5152V3.93758C36.6456 4.77044 35.9392 5.44544 35.0677 5.44544H5.6962V39.5583H39.3038V14.7575C39.3038 13.9229 40.0101 13.2479 40.8835 13.2479H43.5361C44.3449 13.2479 45 13.8739 45 14.6469Z" fill="#13111D"/>
<path d="M43.671 44.9929V45.0025H43.4963C43.5552 45.0025 43.6141 44.9987 43.671 44.9929Z" fill="#13111D"/>
<path d="M199.925 30.9696C199.263 31.0935 198.612 31.1462 197.974 31.1276C197.343 31.1152 196.776 31.0006 196.274 30.7838C195.773 30.5609 195.392 30.2109 195.131 29.734C194.902 29.3005 194.782 28.8576 194.769 28.4055C194.757 27.9534 194.751 27.4424 194.751 26.8726V18.149H196.98V26.7425C196.98 27.1451 196.983 27.4981 196.99 27.8016C197.002 28.1051 197.067 28.3529 197.185 28.5449C197.408 28.9165 197.764 29.124 198.253 29.1673C198.742 29.2107 199.3 29.1859 199.925 29.093V30.9696ZM192.93 22.692V20.9361H199.925V22.692H192.93Z" fill="#13111D"/>
<path d="M189.353 30.9696V26.1387C189.353 25.8228 189.332 25.4728 189.288 25.0888C189.245 24.7048 189.143 24.3363 188.982 23.9833C188.827 23.6241 188.592 23.3299 188.276 23.1007C187.966 22.8716 187.545 22.757 187.012 22.757C186.727 22.757 186.446 22.8034 186.167 22.8963C185.888 22.9892 185.634 23.1503 185.405 23.3794C185.182 23.6024 185.003 23.9121 184.866 24.3085C184.73 24.6987 184.662 25.2003 184.662 25.8135L183.333 25.2468C183.333 24.3921 183.497 23.6179 183.826 22.9242C184.16 22.2305 184.649 21.6793 185.294 21.2705C185.938 20.8556 186.73 20.6481 187.672 20.6481C188.415 20.6481 189.028 20.7719 189.511 21.0197C189.995 21.2674 190.378 21.5833 190.663 21.9673C190.948 22.3513 191.159 22.7601 191.295 23.1936C191.431 23.6272 191.518 24.039 191.555 24.4292C191.599 24.8132 191.62 25.126 191.62 25.3676V30.9696H189.353ZM182.395 30.9696V20.9361H184.392V24.0483H184.662V30.9696H182.395Z" fill="#13111D"/>
<path d="M176.07 31.2484C175.054 31.2484 174.162 31.0285 173.394 30.5888C172.626 30.149 172.025 29.539 171.592 28.7586C171.165 27.9782 170.951 27.0801 170.951 26.0644C170.951 24.9681 171.162 24.0174 171.583 23.2122C172.004 22.4009 172.589 21.7722 173.339 21.3263C174.088 20.8804 174.955 20.6574 175.94 20.6574C176.98 20.6574 177.863 20.9021 178.588 21.3913C179.318 21.8744 179.86 22.5588 180.213 23.4445C180.566 24.3302 180.7 25.3738 180.613 26.5753H178.392V25.7578C178.386 24.6677 178.194 23.8719 177.816 23.3702C177.439 22.8685 176.844 22.6177 176.033 22.6177C175.116 22.6177 174.435 22.9026 173.989 23.4724C173.543 24.036 173.32 24.8628 173.32 25.9529C173.32 26.9686 173.543 27.7552 173.989 28.3126C174.435 28.8701 175.085 29.1488 175.94 29.1488C176.491 29.1488 176.965 29.028 177.361 28.7864C177.764 28.5387 178.074 28.1826 178.29 27.7181L180.501 28.387C180.117 29.2912 179.523 29.9942 178.718 30.4959C177.919 30.9975 177.036 31.2484 176.07 31.2484ZM172.614 26.5753V24.8845H179.517V26.5753H172.614Z" fill="#13111D"/>
<path d="M169.859 30.9696C169.196 31.0935 168.546 31.1462 167.908 31.1276C167.276 31.1152 166.709 31.0006 166.208 30.7838C165.706 30.5609 165.325 30.2109 165.065 29.734C164.836 29.3005 164.715 28.8576 164.703 28.4055C164.69 27.9534 164.684 27.4424 164.684 26.8726V18.149H166.914V26.7425C166.914 27.1451 166.917 27.4981 166.923 27.8016C166.935 28.1051 167 28.3529 167.118 28.5449C167.341 28.9165 167.697 29.124 168.186 29.1673C168.676 29.2107 169.233 29.1859 169.859 29.093V30.9696ZM162.863 22.692V20.9361H169.859V22.692H162.863Z" fill="#13111D"/>
<path d="M159.287 30.9696V26.1387C159.287 25.8228 159.265 25.4728 159.222 25.0888C159.178 24.7048 159.076 24.3363 158.915 23.9833C158.76 23.6241 158.525 23.3299 158.209 23.1007C157.899 22.8716 157.478 22.757 156.946 22.757C156.661 22.757 156.379 22.8034 156.1 22.8963C155.822 22.9892 155.568 23.1503 155.338 23.3794C155.115 23.6024 154.936 23.9121 154.8 24.3085C154.663 24.6987 154.595 25.2003 154.595 25.8135L153.267 25.2468C153.267 24.3921 153.431 23.6179 153.759 22.9242C154.094 22.2305 154.583 21.6793 155.227 21.2705C155.871 20.8556 156.664 20.6481 157.605 20.6481C158.348 20.6481 158.962 20.7719 159.445 21.0197C159.928 21.2674 160.312 21.5833 160.597 21.9673C160.882 22.3513 161.092 22.7601 161.228 23.1936C161.365 23.6272 161.451 24.039 161.489 24.4292C161.532 24.8132 161.554 25.126 161.554 25.3676V30.9696H159.287ZM152.328 30.9696V20.9361H154.326V24.0483H154.595V30.9696H152.328Z" fill="#13111D"/>
<path d="M145.293 31.2484C144.289 31.2484 143.413 31.0223 142.663 30.5702C141.914 30.1181 141.332 29.4956 140.917 28.7028C140.508 27.9039 140.304 26.9872 140.304 25.9529C140.304 24.9 140.514 23.9772 140.935 23.1844C141.357 22.3916 141.942 21.7722 142.691 21.3263C143.441 20.8804 144.308 20.6574 145.293 20.6574C146.302 20.6574 147.182 20.8835 147.931 21.3356C148.68 21.7877 149.263 22.4133 149.678 23.2122C150.093 24.005 150.3 24.9186 150.3 25.9529C150.3 26.9934 150.09 27.9132 149.668 28.7121C149.253 29.5049 148.671 30.1273 147.922 30.5795C147.172 31.0254 146.296 31.2484 145.293 31.2484ZM145.293 29.1488C146.184 29.1488 146.847 28.8515 147.281 28.2569C147.714 27.6623 147.931 26.8943 147.931 25.9529C147.931 24.9805 147.711 24.2063 147.271 23.6303C146.832 23.0481 146.172 22.757 145.293 22.757C144.692 22.757 144.196 22.8933 143.806 23.1658C143.422 23.4321 143.137 23.8068 142.951 24.2899C142.766 24.7668 142.673 25.3212 142.673 25.9529C142.673 26.9253 142.893 27.7026 143.332 28.2848C143.778 28.8608 144.432 29.1488 145.293 29.1488Z" fill="#13111D"/>
<path d="M132.801 31.2484C131.463 31.2484 130.318 30.9573 129.364 30.3751C128.41 29.7867 127.676 28.9691 127.162 27.9224C126.654 26.8757 126.4 25.6618 126.4 24.2806C126.4 22.8994 126.654 21.6855 127.162 20.6388C127.676 19.5921 128.41 18.7776 129.364 18.1954C130.318 17.6071 131.463 17.3129 132.801 17.3129C134.343 17.3129 135.629 17.7 136.657 18.4742C137.685 19.2422 138.406 20.2796 138.821 21.5864L136.564 22.2089C136.304 21.3356 135.861 20.6543 135.235 20.165C134.61 19.6695 133.798 19.4218 132.801 19.4218C131.903 19.4218 131.154 19.6231 130.553 20.0256C129.958 20.4282 129.509 20.9949 129.206 21.7258C128.909 22.4504 128.757 23.302 128.751 24.2806C128.751 25.2592 128.899 26.1139 129.197 26.8447C129.5 27.5694 129.952 28.133 130.553 28.5356C131.154 28.9382 131.903 29.1394 132.801 29.1394C133.798 29.1394 134.61 28.8917 135.235 28.3962C135.861 27.9007 136.304 27.2194 136.564 26.3523L138.821 26.9748C138.406 28.2816 137.685 29.3222 136.657 30.0964C135.629 30.8644 134.343 31.2484 132.801 31.2484Z" fill="#13111D"/>
<path d="M118.065 35.429L119.998 30.1242L120.035 31.685L115.659 20.9361H117.991L121.094 28.8886H120.499L123.519 20.9361H125.758L120.165 35.429H118.065Z" fill="#13111D"/>
<path d="M100.851 30.9696V17.5916H102.867L107.494 27.0677L112.12 17.5916H114.136V30.9696H112.046V22.3946L107.94 30.9696H107.048L102.951 22.3946V30.9696H100.851Z" fill="#13111D"/>
<path d="M98.6934 30.9696C98.0307 31.0935 97.3803 31.1461 96.7424 31.1276C96.1107 31.1152 95.5439 31.0006 95.0423 30.7838C94.5406 30.5609 94.1597 30.2109 93.8996 29.734C93.6704 29.3005 93.5496 28.8576 93.5372 28.4055C93.5249 27.9534 93.5187 27.4424 93.5187 26.8726V18.149H95.7483V26.7425C95.7483 27.1451 95.7514 27.4981 95.7576 27.8016C95.77 28.1051 95.835 28.3529 95.9527 28.5449C96.1757 28.9165 96.5318 29.124 97.0211 29.1673C97.5104 29.2107 98.0678 29.1859 98.6934 29.093V30.9696ZM91.6978 22.692V20.9361H98.6934V22.692H91.6978Z" fill="#47DE95"/>
<path d="M86.6344 31.2484C85.3957 31.2484 84.3892 30.9697 83.615 30.4122C82.8408 29.8548 82.3701 29.0713 82.2029 28.0618L84.4883 27.7088C84.606 28.2042 84.8661 28.5944 85.2687 28.8793C85.6713 29.1642 86.1791 29.3067 86.7923 29.3067C87.3311 29.3067 87.7461 29.2014 88.0372 28.9908C88.3345 28.7741 88.4831 28.4799 88.4831 28.1082C88.4831 27.8791 88.4274 27.6964 88.3159 27.5601C88.2106 27.4177 87.9753 27.2814 87.6098 27.1513C87.2444 27.0213 86.6839 26.8572 85.9283 26.659C85.086 26.436 84.4171 26.1975 83.9216 25.9436C83.4261 25.6835 83.07 25.3769 82.8532 25.0239C82.6364 24.6708 82.528 24.2435 82.528 23.7418C82.528 23.1162 82.6922 22.5712 83.0204 22.1067C83.3487 21.6422 83.807 21.2861 84.3954 21.0383C84.9838 20.7844 85.6775 20.6574 86.4764 20.6574C87.2568 20.6574 87.9474 20.7782 88.5482 21.0197C89.1551 21.2613 89.6444 21.605 90.016 22.051C90.3877 22.4969 90.6168 23.0202 90.7035 23.621L88.4181 24.0298C88.3624 23.6024 88.1673 23.2649 87.8328 23.0172C87.5046 22.7694 87.0648 22.6301 86.5136 22.5991C85.9871 22.5681 85.5629 22.6486 85.2408 22.8406C84.9188 23.0264 84.7577 23.2897 84.7577 23.6303C84.7577 23.8223 84.8228 23.9864 84.9528 24.1227C85.0829 24.259 85.343 24.3952 85.7332 24.5315C86.1296 24.6677 86.718 24.835 87.4984 25.0332C88.2973 25.2375 88.9353 25.4729 89.4122 25.7392C89.8953 25.9993 90.2421 26.3121 90.4527 26.6775C90.6695 27.043 90.7778 27.4858 90.7778 28.0061C90.7778 29.0156 90.4093 29.8084 89.6723 30.3844C88.9415 30.9604 87.9288 31.2484 86.6344 31.2484Z" fill="#47DE95"/>
<path d="M74.8917 31.2576C74.1485 31.2576 73.5354 31.1338 73.0523 30.886C72.5692 30.6383 72.1852 30.3224 71.9003 29.9384C71.6154 29.5544 71.4048 29.1456 71.2685 28.7121C71.1323 28.2785 71.0425 27.8698 70.9991 27.4858C70.9619 27.0956 70.9434 26.7797 70.9434 26.5382V20.9361H73.2102V25.7671C73.2102 26.0767 73.2319 26.4267 73.2752 26.8169C73.3186 27.2009 73.4177 27.5725 73.5725 27.9317C73.7336 28.2847 73.9689 28.5758 74.2786 28.805C74.5945 29.0342 75.0187 29.1487 75.5514 29.1487C75.8363 29.1487 76.1181 29.1023 76.3968 29.0094C76.6755 28.9165 76.9263 28.7585 77.1493 28.5356C77.3785 28.3064 77.5612 27.9936 77.6974 27.5973C77.8337 27.2009 77.9018 26.6992 77.9018 26.0922L79.2303 26.6589C79.2303 27.5136 79.0631 28.2878 78.7287 28.9815C78.4004 29.6752 77.9142 30.2295 77.2701 30.6445C76.6259 31.0533 75.8332 31.2576 74.8917 31.2576ZM78.1712 30.9696V27.8574H77.9018V20.9361H80.1501V30.9696H78.1712Z" fill="#47DE95"/>
<path d="M63.7078 30.9696V20.9361H65.6866V23.3794L65.4451 23.0636C65.5689 22.7291 65.7331 22.4256 65.9374 22.1531C66.148 21.8744 66.3989 21.6452 66.69 21.4656C66.9377 21.2984 67.2102 21.1683 67.5075 21.0754C67.811 20.9763 68.1207 20.9175 68.4365 20.8989C68.7524 20.8741 69.059 20.8865 69.3563 20.9361V23.0264C69.059 22.9397 68.7152 22.9118 68.3251 22.9428C67.9411 22.9738 67.5942 23.0821 67.2845 23.268C66.9749 23.4352 66.7209 23.6489 66.5227 23.909C66.3307 24.1691 66.1883 24.4664 66.0954 24.8009C66.0025 25.1291 65.956 25.4852 65.956 25.8692V30.9696H63.7078Z" fill="#47DE95"/>
<path d="M56.5795 30.9696V19.6912H52.2502V17.5916H63.1478V19.6912H58.8185V30.9696H56.5795Z" fill="#47DE95"/>
</svg>
