<?xml version="1.0" encoding="utf-8"?>
<!-- Generator: Adobe Illustrator 15.0.0, SVG Export Plug-In . SVG Version: 6.00 Build 0)  -->
<!DOCTYPE svg PUBLIC "-//W3C//DTD SVG 1.1//EN" "http://www.w3.org/Graphics/SVG/1.1/DTD/svg11.dtd">
<svg version="1.1" id="レイヤー_1" xmlns="http://www.w3.org/2000/svg" xmlns:xlink="http://www.w3.org/1999/xlink" x="0px"
	 y="0px" width="424.274px" height="149.703px" viewBox="0 0 424.274 149.703" enable-background="new 0 0 424.274 149.703"
	 xml:space="preserve">
<g>
	<path fill="#0068B7" d="M119.792,74.84c0,13.421,3.458,19.777,10.979,19.777c7.519,0,10.988-6.355,10.988-19.777
		c0-13.41-3.469-19.85-10.988-19.85C123.25,54.99,119.792,61.43,119.792,74.84z M158.076,74.84c0,16.63-10.753,26.908-27.305,26.908
		c-16.542,0-27.296-10.277-27.296-26.908c0-16.631,10.753-26.974,27.296-26.974C147.323,47.866,158.076,58.208,158.076,74.84z"/>
	<path fill="#0068B7" d="M49.901,68.979V49.884h49.907v19.096H92.82c0-7.668-2.253-12.482-10.897-12.482v33.605
		c0,1.873,1.053,3,2.925,3h4.508v6.622H60.192v-6.622h4.667c1.872,0,2.934-1.127,2.934-3V56.498
		c-8.653,0-10.908,4.814-10.908,12.482H49.901z"/>
	<path fill="#0068B7" d="M167.788,59.518c0-1.884-1.054-3.012-2.93-3.012h-4.671v-6.622h31.539c12.339,0,19.64,3.843,19.64,14.157
		c0,10.305-7.301,14.22-21.151,14.22h-8.281V90.15c0,1.877,1.063,3.004,2.937,3.004h5.045v6.631h-29.655v-6.631h4.597
		c1.875,0,2.93-1.127,2.93-3.004V59.518z M181.934,71.631h6.471c5.272,0,8.806-2.854,8.806-7.526c0-4.663-3.385-7.6-7.604-7.6
		h-7.674V71.631z"/>
	<path fill="#0068B7" d="M292.739,49.869l11.852,37.591c1.5,4.586,2.551,5.639,5.182,5.639h1.842v6.623h-26.73v-6.623h2.256
		c2.256,0,4.137-0.299,4.137-1.128c0-0.745-0.074-1.573-0.369-2.702l-1.588-5.413h-14.617l-0.902,3.01
		c-0.83,2.627-1.127,3.754-1.127,4.807c0,1.203,2.627,1.426,4.658,1.426h2.178v6.623h-22.098v-6.623h2.551
		c2.641,0,3.693-1.053,5.191-5.639l12.561-37.591H292.739z M276.884,77.241h10.182l-4.697-16.164h-0.146L276.884,77.241z"/>
	<path fill="#0068B7" d="M358.583,84.25h0.148V59.499c0-1.881-1.053-3.01-2.938-3.01h-4.584v-6.62h23.164v6.62h-4.514
		c-1.879,0-2.926,1.128-2.926,3.01v40.254h-15.195l-20.91-37.093h-0.146v27.462c0,1.874,1.053,3.002,2.936,3.002h4.586v6.629
		h-23.252v-6.629h4.596c1.873,0,2.928-1.128,2.928-3.002V59.499c0-1.881-1.055-3.01-2.928-3.01h-4.67v-6.62h24.23L358.583,84.25z"/>
	<path fill="#0068B7" d="M221.343,59.533c0-1.883-1.055-3.012-2.93-3.012h-4.672V49.9h31.539c12.34,0,19.643,3.843,19.643,14.156
		c0,10.305-7.303,14.221-21.152,14.221h-8.281v11.89c0,1.873,1.063,3.004,2.936,3.004h5.047v6.631h-29.654v-6.631h4.596
		c1.875,0,2.93-1.131,2.93-3.004V59.533z M235.489,71.647h6.473c5.27,0,8.805-2.854,8.805-7.526c0-4.662-3.387-7.6-7.602-7.6h-7.676
		V71.647z"/>
</g>
</svg>
