<?xml version="1.0" encoding="UTF-8"?>
<!DOCTYPE svg PUBLIC "-//W3C//DTD SVG 1.1//EN" "http://www.w3.org/Graphics/SVG/1.1/DTD/svg11.dtd">
<!-- Creator: CorelDRAW 2018 -->
<svg xmlns="http://www.w3.org/2000/svg" xml:space="preserve" width="210mm" height="150mm" version="1.1" style="shape-rendering:geometricPrecision; text-rendering:geometricPrecision; image-rendering:optimizeQuality; fill-rule:evenodd; clip-rule:evenodd"
viewBox="0 0 21000 15000"
 xmlns:xlink="http://www.w3.org/1999/xlink">
 <defs>
  <style type="text/css">
   <![CDATA[
    .fil2 {fill:blue}
    .fil0 {fill:#0099FF}
    .fil3 {fill:#0099FF}
    .fil1 {fill:aqua}
   ]]>
  </style>
 </defs>
 <g id="Layer_x0020_1">
  <metadata id="CorelCorpID_0Corel-Layer"/>
  <g id="_1041791472">
   <path class="fil0" d="M8692.41 5824.75l-45.27 366.63 -864.53 0 0 2752.02 -430 0 0 -2752.02 -887.17 0 0 -366.63 2226.97 0zm1372.96 678.95c84.5,0 162.95,9.05 235.37,27.16l-76.95 407.37c-72.42,-18.11 -141.82,-27.16 -208.21,-27.16 -147.85,0 -267.05,54.32 -357.58,162.95 -90.53,108.63 -161.43,277.61 -212.74,506.95l0 1362.43 -416.42 0 0 -2385.38 357.58 0 40.74 484.32c63.37,-178.04 149.36,-312.32 258,-402.85 108.63,-90.53 235.37,-135.79 380.21,-135.79zm2483.82 2439.7l-357.58 0 -31.69 -371.16c-90.53,147.87 -194.63,256.5 -312.32,325.9 -117.68,66.39 -261.05,99.58 -430,99.58 -208.22,0 -371.16,-63.37 -488.85,-190.11 -117.68,-126.74 -176.53,-306.28 -176.53,-538.63l0 -1710.96 416.43 0 0 1665.69c0,162.95 28.64,279.13 86,348.53 57.36,66.39 150.85,99.58 280.63,99.58 232.33,0 431.49,-137.3 597.48,-411.89l0 -1701.91 416.43 0 0 2385.38zm2661.65 -1262.85c0,69.4 -3.04,140.32 -9.05,212.74l-1520.85 0c18.1,262.53 84.43,455.66 199.16,579.37 114.64,123.72 262.53,185.58 443.58,185.58 114.64,0 220.23,-16.59 316.84,-49.79 96.54,-33.19 197.6,-86 303.27,-158.42l181.05 248.95c-253.47,199.16 -531.14,298.74 -832.84,298.74 -331.99,0 -591.48,-108.63 -778.54,-325.9 -184.1,-217.26 -276.1,-516 -276.1,-896.21 0,-247.45 39.17,-466.22 117.68,-656.33 81.48,-193.12 196.11,-344 344,-452.63 150.85,-108.63 327.38,-162.95 529.59,-162.95 316.84,0 559.7,104.11 728.74,312.32 168.96,208.21 253.47,496.39 253.47,864.53zm-411.89 -122.21c0,-235.37 -46.83,-414.92 -140.32,-538.63 -93.57,-123.72 -233.89,-185.59 -420.95,-185.59 -341.04,0 -526.62,250.46 -556.74,751.38l1118.01 0 0 -27.16zm1887.07 -1674.75c-126.73,0 -217.26,28.66 -271.58,86 -54.31,54.32 -81.47,140.32 -81.47,258l0 330.43 579.37 0 -45.26 321.37 -534.11 0 0 2064.01 -416.42 0 0 -2064.01 -425.48 0 0 -321.37 425.48 0 0 -325.9c0,-205.19 64.93,-369.65 194.63,-493.37 132.82,-126.74 316.84,-190.11 552.21,-190.11 108.63,0 205.25,10.56 289.69,31.69 87.56,18.1 181.05,48.28 280.63,90.52l-131.26 303.27c-135.79,-60.35 -274.55,-90.53 -416.43,-90.53zm1661.01 3073.39c-93.57,277.62 -224.84,496.4 -393.79,656.32 -166,162.95 -404.33,261.03 -715.16,294.22l-45.27 -325.9c156.94,-27.16 282.12,-66.39 375.69,-117.69 93.57,-51.29 167.47,-117.68 221.79,-199.16 57.36,-78.45 110.11,-185.57 158.42,-321.37l-140.31 0 -801.17 -2385.38 443.58 0 638.22 2082.12 624.63 -2082.12 430.01 0 -796.64 2398.96z"/>
   <g>
    <polygon class="fil1" points="1856.32,7492.1 4598.5,5951.38 4598.5,7506.1 1856.32,9040.72 "/>
    <polygon class="fil2" points="2948.36,5761.73 5690.54,4224.77 5690.54,5779.49 2948.36,7317.86 "/>
    <polygon class="fil3" points="4306.73,10016.05 4310.58,6872.52 2953.43,7631.01 2948.35,10775.22 "/>
   </g>
  </g>
 </g>
</svg>
