<?xml version="1.0" encoding="UTF-8"?>
<svg id="Layer_1" data-name="Layer 1" xmlns="http://www.w3.org/2000/svg" viewBox="0 0 680.16 171.56">
  <defs>
    <style>
      .cls-1 {
        fill: #414042;
      }

      .cls-2 {
        fill: #00aeef;
      }
    </style>
  </defs>
  <g>
    <path class="cls-1" d="M206.67,114.01v-32.17h-10.88v-17.61l12.2-.91,2.76-21.15h19.52v21.15h19.09v18.52h-19.09v31.89c0,9.03,4.1,12.65,10.31,12.65,2.63,0,5.48-.76,7.57-1.51l3.72,17.14c-4.23,1.34-9.97,2.89-17.7,2.89-19.68,0-27.5-12.43-27.5-30.88Z"/>
    <path class="cls-1" d="M264.97,63.32h19.25l1.7,13.92h.59c5.8-10.63,14.51-15.85,22.63-15.85,4.55,0,7.2.59,9.5,1.61l-3.93,20.37c-2.83-.7-5.18-1.29-8.59-1.29-6.01,0-13.3,3.87-17.54,14.73v46.16h-23.6V63.32Z"/>
    <path class="cls-1" d="M328.11,112.76v-49.45h23.6v46.42c0,11.46,3.08,15.05,9.89,15.05,5.93,0,9.55-2.49,14.16-8.76v-52.71h23.6v79.65h-19.25l-1.7-11.05h-.59c-6.65,7.93-14.15,12.97-25.01,12.97-17.32,0-24.71-12.22-24.71-32.13Z"/>
    <path class="cls-1" d="M422.84,127.29V28.59h13.21v99.66c0,4.04,1.76,5.64,3.68,5.64.76,0,1.4,0,2.89-.32l1.79,10.08c-1.88.68-4.14,1.23-7.6,1.23-9.9,0-13.97-6.32-13.97-17.6Z"/>
    <path class="cls-1" d="M457.98,104.05c0-25.4,17.12-41.05,35.08-41.05,19.9,0,31.14,14.3,31.14,36.62,0,2.79-.24,5.57-.62,7.5h-52.55c.94,16.53,11.05,27.25,25.93,27.25,7.49,0,13.64-2.42,19.42-6.24l4.73,8.66c-6.84,4.48-15.15,8.09-25.77,8.09-20.8,0-37.36-15.21-37.36-40.84ZM512.53,97.66c0-15.64-7.03-24.14-19.24-24.14-10.97,0-20.78,8.81-22.38,24.14h41.62Z"/>
    <path class="cls-1" d="M543.41,64.93h10.91l1.11,11.26h.44c7.43-7.32,15.46-13.18,26.18-13.18,16.44,0,23.82,10.61,23.82,30.52v49.45h-13.2v-47.74c0-14.54-4.39-20.76-14.72-20.76-7.98,0-13.5,4.07-21.33,11.99v56.51h-13.21v-78.04Z"/>
    <path class="cls-1" d="M622.57,134.06l6.52-8.7c6.78,5.46,13.66,9.24,23.04,9.24,10.24,0,15.33-5.46,15.33-12.12,0-8.03-9.21-11.58-17.85-14.79-10.93-4-23.27-9.38-23.27-22.54,0-12.49,10-22.15,26.92-22.15,9.71,0,18.21,3.98,24.26,8.77l-6.32,8.46c-5.38-3.97-10.89-6.95-17.8-6.95-9.83,0-14.37,5.24-14.37,11.19,0,7.42,8.48,10.24,17.32,13.54,11.25,4.24,23.8,8.82,23.8,23.67,0,12.66-10.05,23.2-28.47,23.2-11.09,0-21.78-4.7-29.12-10.83Z"/>
  </g>
  <path class="cls-2" d="M167.2,79.6c-.21,34.36-28.19,72.1-63.77,74.95l.06-32.82c15.54-6.66,27.46-20.8,27.22-42.14h36.49Z"/>
  <path class="cls-2" d="M89.39,0c39.55,4.83,69.98,36.01,69.93,71.62l-29.1-.04c-4.71-19.5-21.88-28.43-40.83-27.79V0Z"/>
  <path class="cls-2" d="M91.67,49.98c-17.58,0-31.88,14.3-31.88,31.88s14.3,31.88,31.88,31.88,31.88-14.3,31.88-31.88-14.3-31.88-31.88-31.88ZM91.67,99.18c-9.56,0-17.32-7.75-17.32-17.32s7.75-17.32,17.32-17.32,17.32,7.75,17.32,17.32-7.75,17.32-17.32,17.32Z"/>
  <path class="cls-2" d="M81.41,43.79V6.79S6.81.8,0,79.6h52.41s.21-29.62,29-35.82Z"/>
  <path class="cls-2" d="M53.22,87.45H16.67s-2.56,77.48,78.84,84.11v-49.29s-36.85,2.69-42.3-34.82Z"/>
</svg>