
<svg id="Layer_1" data-name="Layer 1" xmlns:xlink="http://www.w3.org/1999/xlink" viewBox="0 0 1500 537.03">
  <defs>
    
    <linearGradient id="linear-gradient" x1="91.07" y1="79.64" x2="441.08" y2="455.12" gradientUnits="userSpaceOnUse">
      <stop offset="0" stop-color="#3fbcff"></stop>
      <stop offset=".11" stop-color="#3fb3ff"></stop>
      <stop offset=".64" stop-color="#3f95ff"></stop>
      <stop offset="1" stop-color="#3f7cff"></stop>
    </linearGradient>
  </defs>
  <g>
    <path class="cls-3" d="M154.34,163.83c90.37-22.16,168.45-9.97,232.07,36.27,14.26,10.35,27.76,22.43,40.42,36.17.07.07.14.15.21.22,12.92,14.03,24.96,29.79,36.06,47.17,1.03,1.59,2.05,3.21,3.05,4.83V125.32c0-30.83-24.99-55.82-55.82-55.82H123.94c-30.83,0-55.82,24.99-55.82,55.82v20.82c0,18.63,4.76,36.97,13.95,53.18.06.1.11.2.17.3.9,1.88,1.9,3.71,2.97,5.51,3.43,5.69,6.92,11.21,10.48,16.55,2.02,3.04,4.06,6.02,6.13,8.94.1.14.19.28.3.41,5.6,7.9,11.36,15.37,17.28,22.42,7.93,9.45,16.15,18.11,24.61,25.99.47.45.96.89,1.44,1.33,12.39,11.36,25.33,21.02,38.77,28.92,55.97,32.92,122.31,36.32,197.18,10.1,5.6-1.97,11.62-1.63,16.97.94,5.35,2.57,9.37,7.07,11.33,12.68,1.96,5.6,1.62,11.62-.94,16.97-2.58,5.35-7.08,9.38-12.69,11.33-37.97,13.29-74.73,20.03-109.25,20.03-44.98,0-87.11-11.37-125.23-33.81-12.99-7.65-25.54-16.61-37.62-26.83-9.75-8.26-19.2-17.35-28.29-27.24-9.58-10.4-18.77-21.68-27.57-33.83v151.69c0,30.83,24.99,55.82,55.82,55.82h299.71c23.48,0,42.51-19.03,42.51-42.51h0c0-21.99-4.07-43.82-12.32-64.2-.31-.75-.62-1.51-.94-2.27-2.7-6.44-5.83-12.56-8.88-18.55,0-.02,0-.03,0-.03-14.11-27.8-30.13-51.67-47.94-71.45-11.24-12.51-23.22-23.37-35.85-32.55-52.54-38.14-118.24-47.9-195.29-28.98-5.77,1.4-11.73.48-16.81-2.59-5.07-3.09-8.65-7.95-10.05-13.72-1.41-5.75-.5-11.71,2.58-16.79,3.07-5.06,7.93-8.64,13.69-10.06Z"></path>
    <path class="cls-2" d="M315.95,279.36c-5.99,26.93-32.68,43.91-59.61,37.93-26.93-5.99-43.9-32.67-37.91-59.6,5.99-26.93,32.66-43.92,59.59-37.93,6.5,1.45,12.44,4.1,17.59,7.69-4.62,3.45-8.07,8.5-9.42,14.56-2.99,13.45,5.51,26.78,18.95,29.77,4.07.9,8.13.75,11.9-.27-.16,2.6-.52,5.23-1.1,7.86Z"></path>
  </g>
  <g>
    <path class="cls-1" d="M545.63,173.19h140.69v38.18h-49.3v152.72h-42.09v-152.72h-49.3v-38.18Z"></path>
    <path class="cls-1" d="M668.29,364.09v-128.07h41.79v27.36h1.8c3.41-8.22,8.67-15.23,15.78-21.04,7.11-5.81,15.28-8.72,24.5-8.72,4.81,0,9.42.9,13.83,2.71v46.9c-1.2-1.2-2.81-2.3-4.81-3.31-2.01-1-4.11-1.8-6.31-2.41-2.21-.6-4.46-1.05-6.76-1.35-2.31-.3-4.26-.45-5.86-.45-6.01,0-11.08,1.1-15.18,3.31-4.11,2.21-7.42,5.16-9.92,8.87-2.51,3.71-4.36,7.97-5.56,12.78-1.2,4.81-1.8,9.82-1.8,15.03v12.03l.3,24.35v12.03h-41.79Z"></path>
    <path class="cls-1" d="M778.02,236.02h42.09v68.84c0,6.61,1.6,12.23,4.81,16.83,3.2,4.61,7.82,6.91,13.83,6.91,2.8,0,5.56-.6,8.27-1.8,2.71-1.2,5.16-2.86,7.37-4.96,2.2-2.1,4.01-4.51,5.41-7.21,1.4-2.71,2.1-5.66,2.1-8.87v-69.75h41.79v128.07h-32.47l-9.32-27.66c-2.61.4-5.46,2.16-8.57,5.26-3.11,3.11-6.61,6.46-10.52,10.07-3.91,3.61-8.22,6.92-12.93,9.92-4.71,3.01-9.97,4.51-15.78,4.51-7.42,0-13.43-1.5-18.04-4.51-4.61-3.01-8.27-7.01-10.97-12.02-2.71-5.01-4.56-10.77-5.56-17.29-1-6.51-1.5-13.28-1.5-20.29v-76.06Z"></path>
    <path class="cls-1" d="M918.41,364.09v-190.9h41.79c0,25.25-.1,50.35-.3,75.31-.2,24.95-.1,50.05.3,75.31l-2.4,4.21.9.9,3.01-3.01h79.07v38.18h-122.36Z"></path>
    <path class="cls-1" d="M1050.39,297.95c0-10.02,1.65-18.99,4.96-26.91,3.31-7.92,7.71-14.73,13.23-20.44,5.51-5.71,12.03-10.07,19.54-13.08s15.48-4.51,23.9-4.51c6.61,0,13.18.9,19.69,2.71,6.51,1.8,12.33,4.61,17.44,8.42,5.11,3.81,9.22,8.77,12.33,14.88,3.1,6.12,4.66,13.48,4.66,22.1,0,12.23-3.61,21.7-10.82,28.41-7.21,6.72-15.93,10.07-26.16,10.07-6.01,0-11.17-.95-15.48-2.86-4.31-1.9-7.92-4.06-10.82-6.46-2.91-2.41-5.36-4.61-7.37-6.61-2.01-2-3.81-3.1-5.41-3.31,0,5.61.95,10.48,2.86,14.58,1.9,4.11,4.41,7.52,7.52,10.22,3.11,2.71,6.76,4.71,10.97,6.01,4.21,1.31,8.52,1.95,12.93,1.95,5.61,0,11.17-.9,16.68-2.71,5.51-1.8,10.47-4.71,14.88-8.72l8.12,31.57c-7.42,5.01-14.88,8.72-22.4,11.12s-15.59,3.61-24.2,3.61c-9.42,0-18.24-1.5-26.46-4.51-8.22-3.01-15.33-7.46-21.34-13.38-6.01-5.91-10.72-13.23-14.13-21.95-3.41-8.72-5.11-18.79-5.11-30.21ZM1093.08,284.12c1.8,3.61,4.66,6.12,8.57,7.52,3.91,1.4,7.56,2.1,10.97,2.1,2,0,4.16-.25,6.46-.75,2.3-.5,4.46-1.3,6.46-2.4,2-1.1,3.66-2.6,4.96-4.51,1.3-1.9,1.95-4.16,1.95-6.76,0-2.4-.6-4.41-1.8-6.01-1.2-1.6-2.66-2.86-4.36-3.76-1.71-.9-3.56-1.55-5.56-1.95-2.01-.4-3.81-.6-5.41-.6-4.61,0-9.22,1.46-13.83,4.36-4.61,2.91-7.42,7.17-8.42,12.78Z"></path>
    <path class="cls-1" d="M1178.16,364.09v-128.07h31.87l9.92,27.06v.3h1.8c3.8-8.82,9.32-15.98,16.53-21.5,7.21-5.51,15.13-8.27,23.75-8.27,6.81,0,12.82,1.5,18.04,4.51,5.21,3.01,9.57,7.02,13.08,12.03,3.5,5.01,6.16,10.78,7.97,17.29,1.8,6.52,2.71,13.38,2.71,20.59v76.06h-42.09v-63.43c0-9.02-2.1-15.63-6.31-19.84-4.21-4.21-8.92-6.31-14.13-6.31s-10.07,2.1-14.58,6.31c-4.51,4.21-6.76,10.52-6.76,18.94v64.33h-41.79Z"></path>
    <path class="cls-1" d="M1387.39,324.11c0-.6-.4-1.2-1.2-1.8-.8-.6-1.71-1.1-2.71-1.5-1-.4-2-.75-3.01-1.05-1-.3-1.8-.55-2.41-.75-5.41-1.4-11.68-2.65-18.79-3.76-7.12-1.1-13.88-2.9-20.29-5.41-6.42-2.5-11.83-6.16-16.23-10.97-4.41-4.81-6.61-11.62-6.61-20.44s2.1-15.48,6.31-21.19,9.37-10.37,15.48-13.98c6.11-3.61,12.73-6.21,19.84-7.82,7.11-1.6,13.68-2.4,19.69-2.4,14.23,0,27.66,3.01,40.28,9.02v37.58c-1.61-2-3.96-3.76-7.07-5.26-3.11-1.5-6.57-2.8-10.37-3.91-3.81-1.1-7.77-1.9-11.88-2.41-4.11-.5-7.97-.75-11.57-.75-1,0-2.66.15-4.96.45-2.31.3-4.61.8-6.91,1.5-2.31.7-4.36,1.61-6.16,2.71-1.8,1.1-2.71,2.56-2.71,4.36,0,.8.4,1.5,1.2,2.1.8.6,1.75,1.16,2.86,1.65,1.1.5,2.2.85,3.31,1.05,1.1.2,1.95.4,2.56.6,5.21,1.4,11.32,2.71,18.34,3.91,7.01,1.2,13.68,3.16,19.99,5.86,6.31,2.71,11.67,6.42,16.08,11.12,4.41,4.71,6.61,11.27,6.61,19.69s-2.1,15.48-6.31,21.19-9.37,10.37-15.48,13.98c-6.12,3.61-12.73,6.21-19.84,7.82-7.12,1.6-13.68,2.41-19.69,2.41-8.42,0-16.69-1.2-24.8-3.61-8.12-2.41-15.89-5.91-23.3-10.52l7.52-32.17c2.2,2.01,5.06,3.71,8.57,5.11,3.5,1.4,7.22,2.55,11.12,3.46,3.91.9,7.76,1.5,11.57,1.8,3.8.3,7.01.45,9.62.45,1.2,0,2.95-.05,5.26-.15,2.3-.1,4.66-.45,7.06-1.05,2.41-.6,4.51-1.45,6.31-2.55,1.8-1.1,2.71-2.56,2.71-4.36Z"></path>
  </g>
</svg>