<svg version="1.1" id="Layer_1" xmlns="http://www.w3.org/2000/svg" xmlns:xlink="http://www.w3.org/1999/xlink" x="0px" y="0px"
	 width="100%" viewBox="0 0 1024 480" enable-background="new 0 0 1024 480" xml:space="preserve">
<path fill="#000000" opacity="1.000000" stroke="none" 
	d="
M107.732208,258.116333 
	C113.576958,256.189697 117.452492,260.425110 123.030701,262.258789 
	C123.030701,259.112823 123.031998,256.535156 123.030502,253.957504 
	C123.011093,220.632675 122.978790,187.307831 122.996910,153.983017 
	C122.998260,151.500031 123.072693,148.952286 123.615700,146.548157 
	C124.682251,141.826035 128.447266,139.289551 133.201782,139.683975 
	C137.971436,140.079666 140.970505,143.224167 141.372482,148.147232 
	C141.583557,150.732010 140.950821,153.410019 141.895660,155.910507 
	C144.213348,156.179184 145.567169,154.759781 147.099167,153.881882 
	C177.595947,136.405838 208.076782,118.902016 238.560852,101.403801 
	C239.427551,100.906311 240.266953,100.352127 241.165207,99.920326 
	C246.075455,97.559959 251.182343,98.952690 253.790466,103.333054 
	C256.436737,107.777512 255.129059,112.749138 250.452911,115.890335 
	C248.546539,117.170929 246.250748,117.902153 244.753250,119.920738 
	C245.439697,122.155716 247.618484,122.591736 249.241867,123.535957 
	C279.912445,141.375046 310.606323,159.174164 341.327087,176.926651 
	C345.320007,179.234039 347.735199,182.433105 347.063141,187.071533 
	C346.454163,191.274200 343.587433,193.724472 339.434784,194.670624 
	C337.160187,195.188904 335.152740,194.487442 333.208496,193.476578 
	C331.010315,192.333725 328.850464,191.117111 325.918793,189.521606 
	C325.717010,193.827515 325.397858,197.527710 325.392975,201.228333 
	C325.349335,234.219910 325.361511,267.211548 325.355408,300.203156 
	C325.355133,301.702667 325.415070,303.207489 325.312897,304.700684 
	C324.998077,309.300995 321.972992,312.595276 317.612427,313.178558 
	C313.180969,313.771271 309.086243,311.034180 307.620514,306.648987 
	C306.542053,303.422394 307.355804,300.022339 306.587646,296.546814 
	C304.162994,296.214600 302.563507,297.908508 300.817413,298.918182 
	C271.545197,315.845062 242.310577,332.836914 213.057770,349.797394 
	C210.899811,351.048553 208.743393,352.352600 206.452805,353.314148 
	C201.943237,355.207245 197.229202,353.479218 194.906006,349.307526 
	C192.682724,345.315216 193.554626,340.552826 197.328415,337.675720 
	C199.684204,335.879730 202.333313,334.468506 204.744385,332.951538 
	C204.642838,330.908386 203.096313,330.708954 202.034973,330.093903 
	C170.759583,311.969391 139.472916,293.864319 108.184868,275.761597 
	C99.829826,270.927490 99.452721,263.199615 107.732208,258.116333 
M215.483658,136.039627 
	C192.826996,149.078613 170.235916,162.234100 147.456711,175.055374 
	C143.059372,177.530411 141.470810,180.535324 141.487106,185.378876 
	C141.579498,212.860626 141.555038,240.343719 141.337051,267.824493 
	C141.303513,272.052368 142.698853,274.447815 146.350662,276.534760 
	C171.071823,290.662354 195.694611,304.962830 220.285980,319.315704 
	C223.164917,320.996002 225.370026,321.266052 228.457947,319.457886 
	C253.029236,305.069427 277.693176,290.837708 302.425415,276.727356 
	C305.768494,274.820038 307.048340,272.554901 307.033173,268.779541 
	C306.917999,240.131058 306.920227,211.481827 307.001984,182.833160 
	C307.011200,179.610519 305.910309,177.708862 303.076965,176.087173 
	C279.665771,162.687454 256.197388,149.375702 233.082077,135.478851 
	C226.829041,131.719559 221.731049,130.846436 215.483658,136.039627 
z"/>
<path fill="#000000" opacity="1.000000" stroke="none" 
	d="
M936.154053,329.952393 
	C937.270813,326.471283 938.305298,323.339874 937.000122,319.349060 
	C928.030457,325.161255 918.672241,325.906189 909.084717,322.743896 
	C903.400269,320.868958 898.943420,317.168091 895.696899,312.040833 
	C887.767395,299.517578 888.822937,280.979309 898.128174,270.434021 
	C907.485413,259.829712 920.460571,258.252319 936.760437,265.737427 
	C938.569702,262.305481 947.705688,260.158203 950.998657,262.375183 
	C952.315186,263.261475 952.292603,264.625092 952.292358,265.945374 
	C952.288086,286.088745 952.603699,306.240234 952.122864,326.372559 
	C951.823303,338.911743 942.701050,347.890717 929.019470,349.956512 
	C921.397217,351.107422 913.755249,350.663666 906.514832,347.358948 
	C900.878662,344.786438 897.198242,340.484314 895.037842,334.813049 
	C893.819153,331.613800 894.624695,329.655731 898.502075,329.678589 
	C900.987793,329.693268 903.482788,329.456268 905.959717,329.198151 
	C907.783386,329.008087 909.036682,329.494904 910.209656,331.044739 
	C917.218811,340.305786 929.604309,339.905182 936.154053,329.952393 
M908.932678,279.494873 
	C904.793701,285.161926 904.550598,291.637390 905.699890,298.101166 
	C907.393677,307.627197 914.476074,312.626129 924.032593,311.633270 
	C932.405273,310.763397 937.607788,304.411133 937.675720,294.970581 
	C937.684082,293.808197 937.649719,292.645050 937.679626,291.483398 
	C937.865173,284.270935 935.672363,278.199219 928.613281,275.239471 
	C921.565491,272.284515 914.972107,273.377686 908.932678,279.494873 
z"/>
<path fill="#000000" opacity="1.000000" stroke="none" 
	d="
M770.248047,262.368774 
	C778.209656,265.513123 780.868958,271.850372 781.040771,279.220856 
	C781.355042,292.703461 781.106323,306.198456 781.192017,319.687683 
	C781.213196,323.024689 779.991821,324.369171 776.499146,324.445801 
	C765.823792,324.680115 765.825500,324.804962 765.825623,314.134918 
	C765.825745,304.308960 765.868469,294.482758 765.817078,284.657074 
	C765.778381,277.257446 763.346252,274.316620 757.426392,274.268066 
	C750.601929,274.212097 744.461243,279.295807 744.395081,285.351746 
	C744.273193,296.508820 744.161133,307.672211 744.421814,318.824188 
	C744.525940,323.280975 742.977112,324.966949 738.657898,324.396545 
	C737.511597,324.245148 736.311890,324.235352 735.166504,324.386475 
	C730.628967,324.985199 729.494873,322.814087 729.579773,318.600494 
	C729.801270,307.613281 729.668152,296.618469 729.632874,285.626801 
	C729.607788,277.800476 727.148010,274.437531 721.454956,274.289337 
	C714.752502,274.114807 708.322327,280.006683 708.281677,286.507324 
	C708.213989,297.332153 708.110962,308.160004 708.304382,318.981567 
	C708.377808,323.087799 706.976501,324.561127 702.832520,324.445007 
	C692.018616,324.142120 692.920410,325.518677 692.905823,314.439850 
	C692.886719,299.950745 692.914490,285.461578 692.928894,270.972443 
	C692.937927,261.844635 692.943542,261.869629 701.928162,261.862427 
	C705.393799,261.859619 709.051331,261.431274 708.311707,267.414581 
	C720.209351,259.647430 731.289978,257.011810 741.913330,268.446259 
	C750.349792,262.288269 759.329895,258.471558 770.248047,262.368774 
z"/>
<path fill="#000000" opacity="1.000000" stroke="none" 
	d="
M404.308228,175.982849 
	C404.559265,181.279266 403.804932,186.106430 405.095551,190.883560 
	C407.572357,200.051331 413.713715,203.918182 424.557953,202.906143 
	C433.010132,202.117340 438.497742,196.579010 438.655334,187.678482 
	C438.950012,171.032227 438.813843,154.378479 438.873840,137.727905 
	C438.902710,129.724792 438.920135,129.720078 446.777069,129.716537 
	C448.608154,129.715714 450.440735,129.721329 452.269867,129.793823 
	C453.953156,129.860535 455.238892,130.564651 455.232605,132.448441 
	C455.166443,152.245422 457.098969,172.192596 454.464142,191.796265 
	C451.978424,210.290909 435.835602,220.592575 417.113373,218.046371 
	C398.834625,215.560471 387.883301,203.302734 387.743866,184.879089 
	C387.619141,168.395325 387.832275,151.908463 387.633148,135.426147 
	C387.581085,131.118210 388.862061,129.522141 393.309937,129.643524 
	C405.874664,129.986389 404.220123,128.320221 404.302063,140.519119 
	C404.380280,152.174362 404.312073,163.830566 404.308228,175.982849 
z"/>
<path fill="#000000" opacity="1.000000" stroke="none" 
	d="
M399.804688,242.729340 
	C412.473328,234.254578 425.353241,234.079956 438.422577,240.515976 
	C445.690002,244.094818 449.278046,250.556992 450.793945,258.288879 
	C450.947601,259.072540 451.172455,260.260284 450.767395,260.669128 
	C447.644684,263.820923 443.510406,261.713715 439.899536,262.541840 
	C437.982361,262.981506 436.593597,262.434265 435.599396,260.256226 
	C431.260925,250.751755 423.111694,247.307739 413.721283,250.700989 
	C410.318939,251.930435 407.851776,254.143188 407.545319,257.819489 
	C407.264404,261.189331 409.568878,263.337891 412.258759,264.913269 
	C416.324493,267.294434 420.886810,268.378418 425.369202,269.639465 
	C428.570374,270.540070 431.845337,271.208313 434.994720,272.258148 
	C448.506927,276.762268 455.377106,285.421387 455.216187,297.549011 
	C455.050140,310.067169 447.092560,320.406372 434.147675,324.197937 
	C422.913635,327.488342 412.096375,326.242889 402.024017,319.950897 
	C398.118073,317.510925 395.038513,314.271912 392.791779,310.305450 
	C390.579163,306.399261 387.441986,301.545502 389.750885,297.833557 
	C392.173889,293.938263 398.080383,296.080200 402.441772,295.490753 
	C404.656494,295.191437 404.874664,297.093079 405.409851,298.742737 
	C408.998077,309.802338 421.126770,314.771484 431.671967,309.563507 
	C436.078644,307.387146 438.430359,303.846527 438.714905,298.900818 
	C439.010590,293.760986 437.122772,289.835602 432.593811,287.240723 
	C428.041962,284.632782 422.987366,283.561401 417.965149,282.398926 
	C413.252747,281.308105 408.603302,280.062622 404.296967,277.771973 
	C389.978973,270.155945 387.777008,254.133881 399.804688,242.729340 
z"/>
<path fill="#000000" opacity="1.000000" stroke="none" 
	d="
M739.549866,153.305450 
	C745.282410,153.542587 749.870483,155.965897 754.451843,158.235809 
	C756.263672,156.630020 755.568237,154.667465 755.589172,152.945511 
	C755.680298,145.447815 755.729492,137.946732 755.594299,130.450485 
	C755.536194,127.228134 756.849060,126.099709 759.989014,125.914757 
	C770.407959,125.301056 770.413208,125.211197 770.414917,135.702332 
	C770.418945,160.531616 770.448853,185.361023 770.355774,210.189972 
	C770.345825,212.856613 771.776001,216.461502 766.920837,217.067856 
	C759.239624,218.027145 756.554688,217.101578 754.869751,212.369247 
	C737.704529,220.311020 726.580688,219.543808 716.508667,209.723511 
	C707.359680,200.803177 704.611084,183.638611 710.226990,170.495529 
	C715.075684,159.148178 725.994873,152.623367 739.549866,153.305450 
M747.847900,168.506744 
	C735.846252,163.014893 726.027100,167.894852 722.970398,180.692886 
	C721.841003,185.421768 722.338806,189.953278 723.936401,194.364822 
	C725.943176,199.906006 729.908997,203.581375 735.785950,204.587357 
	C742.215149,205.687866 748.031494,204.360626 752.361511,198.988861 
	C758.538940,191.325256 756.397461,174.749496 747.847900,168.506744 
z"/>
<path fill="#000000" opacity="1.000000" stroke="none" 
	d="
M592.128296,177.041077 
	C592.133240,188.866699 592.030396,200.200363 592.200195,211.529953 
	C592.261292,215.605011 590.758362,217.479446 586.656799,217.093689 
	C586.491821,217.078186 586.323730,217.094421 586.157104,217.097992 
	C576.758667,217.299057 576.757446,217.299072 576.757507,208.052643 
	C576.757568,195.887314 576.652954,183.720490 576.824158,171.557541 
	C576.877441,167.774078 575.846252,165.785156 571.759888,166.346115 
	C567.355103,166.950790 566.502136,164.571991 566.552368,160.722198 
	C566.601685,156.944687 566.841492,153.980438 571.782043,154.625656 
	C575.875732,155.160294 577.100525,152.980865 576.778809,149.277039 
	C576.635193,147.623306 576.730042,145.945557 576.767944,144.279877 
	C577.058777,131.490540 585.962646,123.687920 598.759460,124.823029 
	C603.242737,125.220718 606.083740,126.748474 605.316895,131.895523 
	C605.028381,133.832016 605.709900,135.881058 604.760010,137.694702 
	C603.675598,138.637756 602.478760,138.303482 601.343262,138.246094 
	C598.383850,138.096512 594.915283,137.117569 593.217773,140.380173 
	C591.143677,144.366547 591.855286,148.864349 592.612000,153.090179 
	C592.978271,155.135635 595.325500,154.592087 596.914307,154.599945 
	C605.913086,154.644501 614.915283,154.761230 623.909790,154.559235 
	C627.884521,154.470001 629.133484,156.045715 629.103333,159.858124 
	C628.969055,176.855225 628.916260,193.854889 629.082703,210.851196 
	C629.129272,215.609665 627.418152,217.665878 622.653320,217.114426 
	C621.337280,216.962112 619.984192,217.003296 618.657471,217.093979 
	C614.978455,217.345413 613.675171,215.621384 613.705811,212.023392 
	C613.817871,198.859177 613.565735,185.689774 613.833191,172.530090 
	C613.929077,167.812500 612.627991,165.729431 607.681702,166.293396 
	C604.719971,166.631058 601.689331,166.359207 598.689636,166.368530 
	C592.160339,166.388824 592.160400,166.390732 592.140930,173.048157 
	C592.137512,174.214600 592.132507,175.381058 592.128296,177.041077 
z"/>
<path fill="#000000" opacity="1.000000" stroke="none" 
	d="
M697.241516,201.105621 
	C690.117737,214.967697 678.233154,220.421646 662.377930,217.385117 
	C648.757629,214.776611 640.007874,204.600922 638.583801,189.713333 
	C636.737976,170.415771 647.909241,155.937119 666.674683,153.305862 
	C681.964539,151.161911 696.598511,161.859436 699.212341,177.091156 
	C701.441650,190.081909 701.441711,190.104324 688.318359,190.144455 
	C678.153137,190.175537 667.987549,190.099792 657.822632,190.155060 
	C653.166870,190.180374 652.518616,191.296478 654.355530,195.592407 
	C656.657532,200.975784 660.810425,204.006241 666.523254,204.720627 
	C673.127747,205.546494 679.192871,204.564362 683.434387,198.629044 
	C685.973816,195.075638 693.182739,193.235535 697.013672,195.211044 
	C700.086853,196.795731 697.908813,198.863541 697.241516,201.105621 
M658.327576,169.773621 
	C656.075806,172.156662 653.864868,174.558456 654.163757,178.277496 
	C664.604004,178.277496 674.770081,178.277496 684.981628,178.277496 
	C683.425781,166.379257 670.134033,162.018631 658.327576,169.773621 
z"/>
<path fill="#000000" opacity="1.000000" stroke="none" 
	d="
M555.926453,278.172302 
	C566.326904,258.558380 589.325684,256.621857 602.688599,266.857513 
	C611.693970,273.755432 614.280823,283.487152 614.291626,294.268066 
	C614.293945,296.596954 613.251099,297.453827 610.951538,297.509125 
	C598.136597,297.817139 585.322144,298.212128 572.505798,297.721283 
	C567.257568,297.520264 566.495422,298.432281 568.560059,303.285004 
	C570.922729,308.838135 575.321289,311.910889 581.184387,312.589874 
	C587.404358,313.310181 593.186829,312.251892 597.299744,306.834442 
	C600.307678,302.872437 607.225952,300.968475 611.427185,302.972778 
	C614.051147,304.224609 612.580688,306.081970 611.992798,307.639740 
	C607.465942,319.633820 595.046265,327.041992 581.683899,325.798737 
	C558.105225,323.604889 546.160461,301.817963 555.926453,278.172302 
M595.213562,277.240448 
	C585.654846,270.794830 574.409729,272.509857 569.571777,281.151184 
	C567.316711,285.179016 568.013794,286.498932 572.582581,286.587982 
	C576.898193,286.672089 581.217651,286.691559 585.533142,286.613464 
	C590.099060,286.530884 594.718323,287.038086 599.534790,286.021973 
	C599.216431,282.458588 597.956543,279.883972 595.213562,277.240448 
z"/>
<path fill="#000000" opacity="1.000000" stroke="none" 
	d="
M629.529846,281.823181 
	C625.434387,281.346527 625.497742,279.261322 626.449951,276.409485 
	C630.002502,265.770203 642.026001,259.156586 654.818909,260.935883 
	C669.746460,263.012085 676.283813,270.574707 676.303223,285.795685 
	C676.312134,292.793579 676.301880,299.791504 676.324951,306.789337 
	C676.335083,309.862885 677.000793,312.586212 680.765076,312.820557 
	C685.355713,313.106384 683.999451,316.561554 684.262146,319.141602 
	C684.562134,322.087158 683.915100,324.434540 680.449158,325.013550 
	C673.050659,326.249512 666.870117,324.523132 663.050476,317.876801 
	C660.672241,317.632751 659.768555,319.298859 658.508789,320.257904 
	C653.548401,324.033997 647.951172,325.976440 641.758362,325.772552 
	C631.048340,325.419891 623.492432,318.894592 622.695496,309.587250 
	C621.720276,298.196869 627.653748,290.234711 639.447327,287.855896 
	C645.134460,286.708740 650.983032,286.332245 656.770813,285.723236 
	C661.531677,285.222321 662.755371,283.215027 660.839539,278.727173 
	C657.956177,271.972992 645.141235,270.519501 641.453674,277.193176 
	C638.441101,282.645081 634.675537,282.532654 629.529846,281.823181 
M660.333618,305.571442 
	C661.912292,303.747314 661.614746,301.536682 661.636047,299.379730 
	C661.656555,297.310150 660.715759,296.075684 658.619751,296.448700 
	C653.380859,297.380890 647.941162,297.039948 642.850098,298.817993 
	C638.327820,300.397369 636.365417,303.844116 637.336426,308.137329 
	C638.129761,311.644989 641.973572,313.818024 646.446106,313.247620 
	C651.801147,312.564636 656.172241,309.998962 660.333618,305.571442 
z"/>
<path fill="#000000" opacity="1.000000" stroke="none" 
	d="
M527.150940,175.229553 
	C527.149719,187.368378 526.993591,199.037735 527.218628,210.699738 
	C527.309021,215.383759 525.786804,217.627319 520.929260,217.097839 
	C519.611816,216.954254 518.257019,216.986343 516.933167,217.099274 
	C512.982300,217.436279 511.684204,215.559235 511.730865,211.761749 
	C511.868195,200.597076 511.829071,189.429016 511.743591,178.263168 
	C511.670685,168.742279 505.477203,164.404572 496.393768,167.373932 
	C488.836639,169.844360 485.230499,174.853897 485.222260,182.905090 
	C485.212372,192.571548 485.090088,202.240051 485.257599,211.903488 
	C485.325775,215.836014 483.764313,217.103607 479.942657,217.152771 
	C469.893188,217.282028 469.908722,217.418747 469.909180,207.570923 
	C469.909882,191.904556 470.010010,176.236618 469.804108,160.572815 
	C469.744354,156.027435 471.262573,154.008591 475.862305,154.614182 
	C476.681000,154.721970 477.530060,154.670288 478.359589,154.612564 
	C482.229919,154.343323 485.918793,154.320648 485.643188,160.432602 
	C496.213074,153.510117 506.652771,150.005569 518.001404,156.416443 
	C525.095581,160.424011 526.691406,167.348618 527.150940,175.229553 
z"/>
<path fill="#000000" opacity="1.000000" stroke="none" 
	d="
M842.907166,279.970093 
	C839.941345,282.401184 839.221191,285.244934 839.271484,288.640808 
	C839.419678,298.630585 839.175415,308.627350 839.399475,318.614288 
	C839.493591,322.810333 838.361267,324.578217 833.804932,324.489563 
	C824.461609,324.307800 824.555847,324.538727 824.559509,315.225372 
	C824.565796,299.240906 824.512878,283.255371 824.303955,267.272644 
	C824.254883,263.520630 825.331299,261.504425 829.359192,261.850891 
	C830.350952,261.936157 831.365417,261.948120 832.354126,261.845612 
	C836.654907,261.399689 840.147278,261.962006 839.473145,268.157349 
	C844.501282,265.450134 848.756409,262.625305 853.846802,261.452881 
	C869.572205,257.830933 881.222778,266.762695 881.287720,282.786926 
	C881.337036,294.943512 881.163208,307.102112 881.326294,319.256622 
	C881.378662,323.163605 880.005066,324.457153 876.108643,324.460571 
	C865.924133,324.469543 865.938843,324.625580 865.949463,314.656281 
	C865.959167,305.497040 865.928528,296.337769 865.924316,287.178497 
	C865.922241,282.596283 865.912903,277.971344 860.961975,275.569916 
	C855.974915,273.150940 851.233093,274.199188 846.748169,277.007812 
	C845.486389,277.798035 844.362488,278.808289 842.907166,279.970093 
z"/>
<path fill="#000000" opacity="1.000000" stroke="none" 
	d="
M487.064819,294.992371 
	C487.069458,298.817963 487.012115,302.147491 487.107208,305.472687 
	C487.274933,311.338501 488.800507,312.775970 494.705139,312.669891 
	C497.330414,312.622803 500.030060,311.761749 500.256378,316.112122 
	C500.632965,323.351959 500.141632,324.575989 495.251373,325.414917 
	C491.594666,326.042267 487.980713,326.060486 484.345459,325.329498 
	C476.509644,323.753815 471.853790,317.958466 471.719574,309.103302 
	C471.570831,299.288727 471.505127,289.466431 471.740448,279.655579 
	C471.839203,275.536926 470.496948,273.745117 466.345551,274.258698 
	C462.189636,274.772797 459.773407,273.700012 459.943146,268.700867 
	C460.096283,264.192505 460.852356,261.113342 466.289795,261.833984 
	C470.346039,262.371582 471.934540,260.673370 471.751617,256.476624 
	C471.581299,252.568512 471.045074,248.545074 472.420013,244.309204 
	C477.117676,244.453888 481.141174,246.546890 485.177551,248.279129 
	C487.817322,249.411987 487.029419,252.279785 487.047974,254.536072 
	C487.107483,261.770081 487.077545,261.770325 494.049164,261.854980 
	C499.676575,261.923279 502.850250,267.748901 499.989380,272.779816 
	C498.829163,274.820129 496.789154,274.221497 495.064850,274.232849 
	C487.104095,274.285309 487.023743,273.167877 487.061005,282.514648 
	C487.076935,286.507843 487.068695,290.501099 487.064819,294.992371 
z"/>
<path fill="#000000" opacity="1.000000" stroke="none" 
	d="
M515.219177,324.251251 
	C512.292908,323.472229 512.733887,321.384491 512.729980,319.651764 
	C512.689819,302.025482 512.775085,284.398560 512.651184,266.773071 
	C512.625000,263.044586 514.110535,261.611023 517.674622,261.869781 
	C518.997375,261.965820 520.343567,261.971252 521.662415,261.844910 
	C525.367615,261.489868 528.372375,262.083710 528.459656,267.184174 
	C533.228210,264.519928 537.239929,261.345398 542.345581,260.937378 
	C545.082703,260.718658 548.788940,259.705872 549.976379,262.768066 
	C551.285400,266.144073 549.992126,270.013611 548.375122,273.309174 
	C547.659790,274.767029 545.668701,274.191589 544.209229,274.255890 
	C533.899597,274.710052 527.995972,280.789795 528.002930,290.979279 
	C528.009094,300.125031 527.856873,309.275146 528.101624,318.414612 
	C528.220337,322.846802 526.909729,325.023041 522.171997,324.430847 
	C520.040955,324.164490 517.854614,324.340515 515.219177,324.251251 
z"/>
<path fill="#000000" opacity="1.000000" stroke="none" 
	d="
M811.013428,288.000000 
	C811.023499,298.475677 810.908569,308.453796 811.101257,318.425934 
	C811.185852,322.805695 809.883179,324.690735 805.116516,324.477539 
	C794.726624,324.012787 795.709229,325.443695 795.680542,315.066162 
	C795.637329,299.437531 795.820679,283.806549 795.589172,268.181274 
	C795.519958,263.513550 796.837036,261.239868 801.733887,261.856598 
	C802.715027,261.980133 803.739502,261.963623 804.721985,261.838867 
	C809.485107,261.233978 811.325073,263.246155 811.111633,268.050323 
	C810.824036,274.522247 811.023071,281.015747 811.013428,288.000000 
z"/>
<path fill="#000000" opacity="1.000000" stroke="none" 
	d="
M556.901367,210.742279 
	C557.336487,215.801285 555.181641,217.593262 550.713257,217.097900 
	C549.068237,216.915527 547.387512,217.051407 545.723083,217.048691 
	C543.149475,217.044479 541.688293,215.998550 541.692871,213.188965 
	C541.722717,194.879211 541.718323,176.569351 541.682373,158.259598 
	C541.677368,155.731949 542.801575,154.571564 545.293518,154.660095 
	C545.625427,154.671875 545.959045,154.647751 546.291565,154.632538 
	C556.949341,154.145172 556.946045,154.145020 556.937256,164.831818 
	C556.924744,179.979172 556.917664,195.126511 556.901367,210.742279 
z"/>
<path fill="#000000" opacity="1.000000" stroke="none" 
	d="
M800.668701,237.061218 
	C809.301392,236.511749 814.434998,242.368057 811.635254,249.098343 
	C809.923096,253.214172 806.647217,255.403915 802.237915,255.002914 
	C797.770508,254.596634 794.990356,251.683884 794.218750,247.353531 
	C793.337280,242.406189 795.850342,239.144577 800.668701,237.061218 
z"/>
<path fill="#000000" opacity="1.000000" stroke="none" 
	d="
M616.611328,130.322601 
	C621.225647,128.009537 625.068237,128.772858 628.229126,132.221512 
	C631.013733,135.259705 631.056091,138.881271 629.367737,142.436737 
	C627.591370,146.177704 624.308777,147.624664 620.329834,147.223221 
	C616.522949,146.839142 613.904358,144.651535 612.676697,141.020325 
	C611.198242,136.647186 612.874329,133.270096 616.611328,130.322601 
z"/>
<path fill="#000000" opacity="1.000000" stroke="none" 
	d="
M552.841492,129.851257 
	C557.272827,132.589218 559.331238,136.175919 557.780823,140.938919 
	C556.491638,144.899353 553.491394,147.183472 549.203735,147.282516 
	C544.848938,147.383133 542.092285,145.000977 540.523560,141.129425 
	C539.113953,137.650528 540.200500,134.492325 542.528992,131.948364 
	C545.201111,129.028870 548.648254,128.165085 552.841492,129.851257 
z"/>
<path fill="#000000" opacity="1.000000" stroke="none" 
	d="
M205.406982,196.513794 
	C222.609161,206.246735 239.430252,215.921844 257.576324,226.359070 
	C239.078094,237.103592 221.961884,247.045380 204.364059,257.266907 
	C203.980453,255.360291 203.683533,254.568726 203.682022,253.776596 
	C203.647934,235.780762 203.633728,217.784851 203.666046,199.789017 
	C203.668243,198.574326 203.220718,197.008026 205.406982,196.513794 
z"/>
</svg>