<svg width="708" height="720" viewBox="0 0 708 720" fill="none" xmlns="http://www.w3.org/2000/svg">
<path d="M30.9 565.6L63.15 645.1L50.55 642.55L79.8 565.6H105.6L55.2 681.1L4.8 565.6H30.9ZM112.161 676L161.961 561.25H163.161L212.961 676H187.761L155.961 595.3L171.711 584.5L133.611 676H112.161ZM146.211 636.1H179.361L187.011 654.4H139.461L146.211 636.1ZM244.055 565.6H265.805V655H317.705V676H244.055V565.6ZM355.148 565.6H376.898V676H355.148V565.6ZM420.393 676V565.6H453.393C464.493 565.6 473.943 567.25 481.743 570.55C489.543 573.85 495.793 578.25 500.493 583.75C505.293 589.25 508.793 595.4 510.993 602.2C513.193 609 514.293 615.85 514.293 622.75C514.293 630.95 512.793 638.35 509.793 644.95C506.893 651.45 502.893 657.05 497.793 661.75C492.693 666.35 486.793 669.9 480.093 672.4C473.393 674.8 466.293 676 458.793 676H420.393ZM442.143 655H455.043C460.543 655 465.543 654.3 470.043 652.9C474.543 651.4 478.393 649.25 481.593 646.45C484.893 643.65 487.393 640.15 489.093 635.95C490.893 631.65 491.793 626.75 491.793 621.25C491.793 614.05 490.593 608.2 488.193 603.7C485.893 599.1 482.993 595.55 479.493 593.05C476.093 590.55 472.593 588.85 468.993 587.95C465.393 586.95 462.343 586.45 459.843 586.45H442.143V655ZM551.115 565.6H572.865V676H551.115V565.6ZM603.909 676L653.709 561.25H654.909L704.709 676H679.509L647.709 595.3L663.459 584.5L625.359 676H603.909ZM637.959 636.1H671.109L678.759 654.4H631.209L637.959 636.1Z" fill="#022F6B"/>
<path d="M662.75 336L372 168L663 0L662.75 336Z" fill="#022F6B"/>
<path fill-rule="evenodd" clip-rule="evenodd" d="M45.25 0.43335V349.183L361 531.433L433.537 489.641L433.26 489.428L433.25 489.433L360.5 447.183V418.683L458.5 475.183L458.057 475.433H458.195L499.561 451.6L499.256 451.064L499.275 451.053L360.5 370.683V341.683L525 436.683L524.867 436.759L524.978 436.956L663 357.433L45.25 0.43335ZM360.5 264.683V293.683L566 412.683L591.5 398.433L360.5 264.683Z" fill="#022F6B"/>
</svg>
