<svg version="1.1" id="Layer_1" xmlns="http://www.w3.org/2000/svg" xmlns:xlink="http://www.w3.org/1999/xlink" x="0px" y="0px"
	 width="100%" viewBox="0 0 2593 1154" enable-background="new 0 0 2593 1154" xml:space="preserve">
<path fill="#000000" opacity="1.000000" stroke="none" 
	d="
M1963.000000,1155.000000 
	C1308.666626,1155.000000 654.833313,1155.000000 1.000000,1155.000000 
	C1.000000,770.333313 1.000000,385.666656 1.000000,1.000000 
	C865.333313,1.000000 1729.666626,1.000000 2594.000000,1.000000 
	C2594.000000,385.666656 2594.000000,770.333313 2594.000000,1155.000000 
	C2383.833252,1155.000000 2173.666748,1155.000000 1963.000000,1155.000000 
M411.506378,665.996216 
	C408.149689,685.331787 404.792969,704.667297 401.232788,725.175110 
	C360.836395,675.851379 321.118958,627.356689 281.153534,578.559204 
	C270.136169,587.430115 259.326385,596.133850 248.492737,604.856873 
	C239.507935,593.881042 231.216507,583.752258 222.748627,573.407898 
	C233.777435,564.328247 244.450851,555.541138 255.103577,546.771118 
	C237.039139,524.671631 219.300659,502.970856 201.363617,481.027191 
	C191.934723,488.842499 182.430740,496.735687 172.905731,504.603455 
	C170.664429,506.454834 168.571609,507.692017 166.102203,504.556152 
	C158.637650,495.076874 150.990784,485.741211 143.195923,476.078064 
	C153.792419,467.316803 164.661224,458.330383 175.453506,449.407227 
	C166.098358,438.043518 157.298737,427.354614 148.258362,416.373260 
	C136.887543,425.628937 125.962494,434.521729 115.020187,443.428589 
	C123.959602,454.430695 132.731110,465.226135 141.414139,475.912689 
	C131.241226,484.396729 121.800972,492.426056 112.150520,500.194214 
	C110.069618,501.869293 109.366470,502.627136 111.342484,504.975952 
	C118.680138,513.697632 125.691902,522.693359 133.018539,531.424683 
	C134.738708,533.474670 136.061615,534.956299 133.424942,537.093323 
	C124.438011,544.377380 115.513672,551.740417 106.418152,558.885803 
	C105.584488,559.540771 103.131912,559.422607 102.407944,558.693481 
	C100.023094,556.291687 98.138786,553.401550 95.969498,550.775513 
	C89.849129,543.366577 83.682571,535.995728 77.368469,528.410706 
	C66.079094,537.711853 55.300766,546.591919 44.292007,555.661804 
	C71.236191,588.559570 97.671349,620.835815 124.529930,653.629089 
	C134.238266,645.747803 143.637878,638.290955 152.823502,630.579285 
	C156.804016,627.237488 157.647385,627.276062 160.934540,631.483154 
	C168.056244,640.598083 175.383255,649.552612 182.811188,658.802917 
	C174.353271,665.757446 165.863861,673.098328 156.978638,679.923950 
	C150.464142,684.928406 150.241760,684.619690 155.131729,690.652710 
	C156.150375,691.909485 157.020096,693.287903 158.050644,694.533997 
	C166.268906,704.470947 174.569260,714.340637 182.727753,724.326233 
	C192.513687,736.303772 202.130875,748.419189 211.921570,760.392761 
	C220.083984,770.375061 228.464355,780.179199 236.615631,790.170410 
	C246.288467,802.026672 255.735153,814.067688 265.435150,825.901428 
	C275.370544,838.022339 285.563660,849.931763 295.515198,862.039612 
	C305.546509,874.244446 315.429596,886.571167 325.357117,898.861084 
	C329.288086,903.727478 333.163818,908.638550 337.177795,913.671082 
	C407.386963,913.671082 478.126465,913.671082 550.000000,913.671082 
	C550.000000,896.440613 549.999817,879.530884 550.000305,862.621155 
	C550.000366,861.621277 549.932251,860.614990 550.019165,859.622498 
	C551.333984,844.615112 552.675781,829.610168 553.997437,814.603394 
	C554.687134,806.771667 555.049927,798.897339 556.092407,791.113464 
	C557.836609,778.090881 559.945984,765.115784 562.013245,752.138428 
	C564.637634,735.663513 566.994141,719.132874 570.162048,702.760925 
	C573.711304,684.418091 577.398926,666.057007 582.163818,648.004089 
	C591.297180,613.400208 600.882690,578.905212 610.968567,544.567078 
	C617.153503,523.510010 624.164124,502.664917 631.622437,482.020294 
	C640.488708,457.478516 649.920593,433.127838 659.689575,408.929413 
	C668.386475,387.386475 677.837769,366.146912 687.040466,344.809875 
	C690.277466,337.304535 693.591553,329.821472 697.213989,322.498138 
	C698.908752,319.071716 697.490479,318.190277 694.634888,316.931213 
	C683.987854,312.236816 673.466370,307.257660 662.870911,302.372986 
	C667.833679,291.720032 672.698914,281.418030 677.418823,271.049896 
	C678.672363,268.296204 679.904175,267.412872 682.997681,268.897949 
	C693.116760,273.755829 703.448242,278.170349 713.587952,282.987061 
	C717.211426,284.708282 718.777832,283.858826 720.433777,280.246155 
	C729.731445,259.961914 739.295410,239.799561 748.795715,219.608414 
	C752.249939,212.267120 752.211914,213.608551 744.895081,210.052643 
	C738.312012,206.853317 731.585388,203.949234 725.156372,201.021637 
	C730.711853,188.938690 736.047668,177.333588 741.492371,165.491699 
	C728.873352,159.670715 716.835388,154.117783 704.537964,148.445145 
	C698.680908,161.064743 693.095825,173.098297 687.426941,185.312531 
	C696.391846,189.544128 704.765076,193.496429 713.722107,197.724304 
	C708.476624,209.058914 703.393982,220.041672 698.341980,230.958298 
	C686.537781,225.461258 674.904846,220.044006 663.371643,214.673172 
	C668.715576,203.064545 674.058533,191.458008 679.503906,179.628998 
	C654.922729,168.192230 630.814453,156.975510 606.616821,145.717194 
	C595.219177,169.820206 583.990723,193.565323 572.685974,217.471741 
	C584.061035,222.792862 595.073120,227.944168 606.166626,233.133575 
	C600.499573,245.159607 595.065491,256.691193 589.607910,268.272675 
	C577.297607,262.557953 565.546265,257.102722 553.526367,251.522842 
	C547.557190,264.502441 541.700439,276.977631 536.062744,289.551025 
	C524.776733,314.721466 513.004089,339.697357 502.555511,365.213440 
	C490.725403,394.103241 479.741302,423.357971 469.125854,452.720306 
	C461.772522,473.059692 455.422546,493.775116 449.076569,514.461243 
	C443.713135,531.944641 438.647797,549.536804 434.086395,567.244568 
	C428.189423,590.137024 422.782227,613.159302 417.455811,636.193176 
	C415.237549,645.785950 413.771423,655.552673 411.506378,665.996216 
M2478.503418,631.997192 
	C2478.688232,631.215088 2478.800781,630.407227 2479.068604,629.654541 
	C2490.025146,598.856140 2501.061523,568.085938 2511.944580,537.261597 
	C2521.706055,509.613434 2531.333252,481.917633 2540.950928,454.218964 
	C2544.147949,445.010895 2547.132080,435.728821 2550.314453,426.178223 
	C2495.365234,426.178223 2440.902588,426.178223 2386.364990,426.178223 
	C2384.236816,433.269043 2382.082764,440.304443 2380.013916,447.364716 
	C2370.992432,478.151978 2362.005127,508.949249 2352.986328,539.737305 
	C2345.004883,566.983582 2336.948975,594.208130 2329.017090,621.468872 
	C2322.249756,644.727966 2315.647461,668.035217 2308.839844,691.282410 
	C2308.367676,692.895386 2306.792236,694.185303 2305.729492,695.625366 
	C2305.136963,694.277161 2304.383057,692.975891 2303.975830,691.573792 
	C2298.296143,672.013794 2292.566650,652.467346 2287.044434,632.862671 
	C2280.125000,608.297241 2273.447998,583.663635 2266.547607,559.092834 
	C2261.471680,541.019592 2256.114990,523.025330 2251.045654,504.950287 
	C2244.154053,480.376648 2237.371582,455.772064 2230.661133,431.148315 
	C2229.626953,427.352386 2228.029541,425.852173 2223.688232,425.869598 
	C2173.022705,426.073181 2122.356445,426.000000 2071.690186,426.000000 
	C2069.607910,426.000000 2067.525635,426.000000 2065.091553,426.000000 
	C2067.494873,432.770538 2069.772217,439.103516 2071.992432,445.456451 
	C2080.663330,470.266602 2089.359375,495.067963 2097.962891,519.901367 
	C2107.353027,547.005371 2116.633545,574.147400 2125.994385,601.261536 
	C2135.302979,628.224915 2144.664307,655.170166 2153.980469,682.130920 
	C2163.663086,710.152100 2173.347656,738.172729 2182.978271,766.211792 
	C2190.839111,789.098206 2198.587646,812.023193 2206.449219,834.909424 
	C2215.714844,861.882812 2225.102051,888.814697 2234.247070,915.828796 
	C2234.946045,917.893311 2234.706299,920.676208 2233.937256,922.770447 
	C2229.794189,934.048645 2225.571533,945.308899 2220.941406,956.393677 
	C2215.978516,968.276001 2208.949707,978.188171 2196.689209,984.221863 
	C2184.387451,990.275757 2171.399658,992.004272 2158.187256,992.876587 
	C2148.613037,993.508789 2138.963379,993.000000 2129.000977,993.000000 
	C2129.000977,1028.897949 2128.980469,1064.357178 2129.098877,1099.815796 
	C2129.102539,1100.875000 2130.401123,1102.668579 2131.362305,1102.874146 
	C2144.616455,1105.710327 2157.836670,1109.952026 2171.226074,1110.620239 
	C2191.593018,1111.636597 2212.097412,1112.012451 2232.472412,1108.176880 
	C2250.938721,1104.700562 2268.168213,1098.275391 2283.885498,1088.400024 
	C2306.752686,1074.032227 2323.506592,1053.756836 2335.954590,1029.966919 
	C2347.737305,1007.447510 2355.562988,983.308350 2363.997803,959.433655 
	C2373.338623,932.993958 2382.690430,906.558044 2391.965088,880.095154 
	C2403.676758,846.678040 2415.350830,813.247559 2426.976318,779.800354 
	C2438.181885,747.560791 2449.290527,715.287415 2460.470459,683.038879 
	C2466.294678,666.238342 2472.180176,649.458923 2478.503418,631.997192 
M1006.335876,775.971252 
	C997.059631,781.355774 988.064087,787.317810 978.443604,791.994080 
	C962.635986,799.677734 945.525146,803.661743 928.132202,804.717896 
	C915.396179,805.491211 902.383118,804.536316 889.706909,802.796570 
	C870.700806,800.188232 854.265564,791.245361 840.065857,778.488037 
	C827.115112,766.852783 818.895386,752.011292 813.095398,735.817383 
	C811.086731,730.209106 810.002075,724.269836 808.334717,717.864868 
	C909.589966,717.864868 1009.653870,717.864868 1109.001465,717.864868 
	C1109.001465,689.605896 1109.533569,661.711304 1108.777100,633.851746 
	C1108.398682,619.915039 1106.085693,605.976379 1103.905396,592.155640 
	C1100.532837,570.775574 1093.559692,550.410156 1084.325317,530.891052 
	C1077.055908,515.525146 1068.075439,501.216858 1056.898071,488.244934 
	C1045.132935,474.590851 1032.314697,462.097321 1017.318420,452.194214 
	C999.017700,440.108917 979.293030,430.488831 957.842102,425.625305 
	C940.978943,421.801971 923.783691,418.387970 906.585083,417.387817 
	C888.354004,416.327576 869.856140,417.450043 851.641113,419.277039 
	C836.940125,420.751556 822.168884,423.610565 807.992859,427.775299 
	C782.851013,435.161682 759.754333,446.948059 738.994690,463.322876 
	C724.136047,475.042999 711.089355,488.438477 700.197083,503.705811 
	C684.541931,525.648987 673.397949,549.846741 665.472229,575.739746 
	C656.226135,605.946594 652.987244,636.886597 652.180054,668.152222 
	C651.797729,682.958496 652.822327,697.860779 654.163391,712.632935 
	C655.214600,724.213013 657.094543,735.809021 659.738464,747.133545 
	C664.498047,767.519287 672.056641,786.892090 682.514771,805.151245 
	C691.004456,819.973450 700.728027,833.878601 712.146057,846.504700 
	C725.049072,860.772949 739.657532,873.165161 755.966553,883.464966 
	C772.591370,893.964233 790.086670,902.692139 808.733459,908.990051 
	C832.002258,916.849121 856.031372,921.757568 880.447937,922.706604 
	C905.772766,923.690796 931.185364,923.947083 956.445923,919.220520 
	C976.168884,915.530090 995.171143,910.067017 1013.486328,902.058350 
	C1040.902344,890.070007 1065.118774,873.412781 1085.718262,851.673706 
	C1090.011475,847.143005 1093.605957,841.950073 1097.271362,837.375671 
	C1073.761353,809.432007 1050.808960,782.151367 1028.440186,755.564209 
	C1021.121826,762.376038 1014.034363,768.972900 1006.335876,775.971252 
M2038.499390,426.000000 
	C2013.069946,426.000000 1987.640625,426.000000 1962.998901,426.000000 
	C1962.998901,409.192078 1962.645630,392.957733 1963.119385,376.747559 
	C1963.451904,365.372467 1968.096558,355.315765 1976.257080,347.365387 
	C1988.054077,335.872070 2003.112915,331.111267 2018.957520,330.239899 
	C2035.265747,329.343079 2051.796875,328.694824 2068.000000,333.816803 
	C2068.000000,296.933777 2068.033447,260.439209 2067.863770,223.945602 
	C2067.857666,222.631760 2066.042725,221.052597 2064.708008,220.111435 
	C2063.760986,219.443634 2062.198730,219.663681 2060.916992,219.452011 
	C2045.898071,216.971924 2030.950317,213.080902 2015.845703,212.325333 
	C1992.508179,211.157928 1969.054077,211.214600 1945.860840,215.896805 
	C1929.713135,219.156647 1914.014771,223.682190 1899.080078,230.516937 
	C1877.793213,240.258713 1859.312012,253.800461 1844.354858,272.052551 
	C1835.158447,283.274689 1827.716919,295.579498 1822.166504,308.819427 
	C1811.660400,333.880676 1808.615356,360.483673 1808.046387,387.407227 
	C1807.776611,400.174286 1808.000000,412.951752 1808.000000,426.118652 
	C1784.417236,426.118652 1761.342651,426.118652 1738.263672,426.118652 
	C1738.263672,461.591888 1738.263672,496.663544 1738.263672,532.134766 
	C1761.598999,532.134766 1784.673706,532.134766 1808.141602,532.134766 
	C1808.141602,659.606323 1808.141602,786.677551 1808.141602,913.725708 
	C1859.613159,913.725708 1910.684570,913.725708 1962.154541,913.725708 
	C1962.154541,786.380737 1962.154541,659.309509 1962.154541,531.838623 
	C1993.959229,531.838623 2025.366455,531.838623 2056.714844,531.838623 
	C2056.714844,496.365387 2056.714844,461.293640 2056.714844,426.000000 
	C2050.787109,426.000000 2045.142944,426.000000 2038.499390,426.000000 
M1469.000000,427.682068 
	C1469.572754,423.499298 1468.558228,421.065216 1463.559204,420.727722 
	C1457.447998,420.315063 1451.419556,418.805206 1445.324097,418.008026 
	C1429.075562,415.883026 1412.828491,415.982574 1397.021240,420.556549 
	C1368.199585,428.896240 1346.245850,446.574402 1329.877930,471.485931 
	C1326.913818,475.997192 1323.862305,480.451019 1320.144287,485.982788 
	C1318.396729,465.114258 1316.767578,445.660553 1315.142456,426.254211 
	C1267.101074,426.254211 1219.692627,426.254211 1172.227783,426.254211 
	C1172.227783,588.893066 1172.227783,751.277527 1172.227783,913.777588 
	C1223.187622,913.777588 1273.919678,913.777588 1325.000000,913.777588 
	C1325.000000,911.765869 1325.000000,909.971313 1325.000000,908.176758 
	C1325.000000,808.194702 1324.995239,708.212646 1325.035400,608.230591 
	C1325.036133,606.328918 1325.001099,604.063843 1325.949341,602.590332 
	C1329.616943,596.891602 1332.991333,590.761536 1337.713257,586.027283 
	C1355.000610,568.694275 1377.289795,563.013794 1400.718994,561.145630 
	C1411.456177,560.289551 1422.323608,560.798279 1433.121460,561.083862 
	C1438.644287,561.229858 1444.134766,562.356873 1449.657227,562.842224 
	C1455.316040,563.339539 1460.996094,563.594788 1468.000000,564.040833 
	C1468.000000,547.652466 1467.872070,531.765137 1468.032959,515.880676 
	C1468.227905,496.630249 1468.721680,477.382965 1468.977173,458.132874 
	C1469.107666,448.303040 1469.000000,438.470062 1469.000000,427.682068 
M1682.000000,847.500000 
	C1682.000000,707.075500 1682.000000,566.651001 1682.000000,426.285461 
	C1630.695923,426.285461 1579.958618,426.285461 1529.283203,426.285461 
	C1529.283203,588.971741 1529.283203,751.372437 1529.283203,913.714539 
	C1580.304077,913.714539 1631.041382,913.714539 1682.000000,913.714539 
	C1682.000000,891.786560 1682.000000,870.143250 1682.000000,847.500000 
M1591.526611,374.000000 
	C1594.109131,374.333313 1596.727051,375.119019 1599.268066,374.920807 
	C1609.682129,374.108429 1620.231812,373.811859 1630.437744,371.819824 
	C1650.059570,367.989929 1665.683716,357.150543 1677.313477,341.042999 
	C1686.563965,328.230621 1689.421753,313.514130 1689.128662,297.760010 
	C1688.694458,274.418793 1678.841187,256.129364 1660.608154,242.352066 
	C1646.741333,231.873840 1630.386353,227.222595 1613.271118,226.137650 
	C1597.077026,225.111084 1581.038208,226.543579 1565.760620,232.954498 
	C1549.406860,239.817001 1536.525146,250.461945 1527.966187,266.165192 
	C1521.291992,278.410492 1519.435791,291.585999 1520.000244,305.278961 
	C1520.537598,318.315369 1524.148315,330.567505 1531.748901,341.054657 
	C1546.180176,360.966339 1566.376343,371.251923 1591.526611,374.000000 
M690.967346,126.283119 
	C693.720276,119.973801 696.373230,113.618309 699.256836,107.369270 
	C701.711426,102.050026 702.636108,101.918793 708.052246,104.496269 
	C718.020325,109.239952 728.043030,113.868942 738.121704,118.582558 
	C744.001465,105.855789 749.607483,93.721542 755.227783,81.556488 
	C744.135254,76.364532 733.445618,71.580376 722.981506,66.345642 
	C719.270020,64.488937 717.581482,65.072067 715.957764,68.779160 
	C711.344788,79.310616 706.452698,89.719803 701.703247,100.105453 
	C689.357361,94.429794 677.498901,88.978249 665.535461,83.478401 
	C659.635864,96.179169 654.105774,108.084534 648.390381,120.388824 
	C660.981995,126.218575 673.111328,131.834290 685.260254,137.459091 
	C687.243103,133.529938 688.902222,130.242157 690.967346,126.283119 
M796.540283,86.958527 
	C803.505859,90.242996 810.562744,93.351173 817.397705,96.888054 
	C820.695984,98.594849 822.321533,97.994560 823.771973,94.691933 
	C828.663269,83.554832 833.734070,72.496613 838.717896,61.449139 
	C826.442383,55.806507 814.124634,50.144421 801.722290,44.443478 
	C795.828796,57.165367 790.258606,69.189392 784.540466,81.532646 
	C788.626038,83.288383 792.289612,84.862801 796.540283,86.958527 
M788.957092,176.469345 
	C793.398254,166.899536 797.839417,157.329742 802.410950,147.479065 
	C789.846130,141.619644 777.651367,135.932755 765.379883,130.210129 
	C759.744324,142.462158 754.082886,154.770554 748.317993,167.303818 
	C761.117676,173.228012 773.226746,178.832550 785.515503,184.520279 
	C786.688477,181.514221 787.558777,179.283783 788.957092,176.469345 
z"/>
<path fill="#FFFFFF" opacity="1.000000" stroke="none" 
	d="
M411.734833,665.618286 
	C413.771423,655.552673 415.237549,645.785950 417.455811,636.193176 
	C422.782227,613.159302 428.189423,590.137024 434.086395,567.244568 
	C438.647797,549.536804 443.713135,531.944641 449.076569,514.461243 
	C455.422546,493.775116 461.772522,473.059692 469.125854,452.720306 
	C479.741302,423.357971 490.725403,394.103241 502.555511,365.213440 
	C513.004089,339.697357 524.776733,314.721466 536.062744,289.551025 
	C541.700439,276.977631 547.557190,264.502441 553.526367,251.522842 
	C565.546265,257.102722 577.297607,262.557953 589.607910,268.272675 
	C595.065491,256.691193 600.499573,245.159607 606.166626,233.133575 
	C595.073120,227.944168 584.061035,222.792862 572.685974,217.471741 
	C583.990723,193.565323 595.219177,169.820206 606.616821,145.717194 
	C630.814453,156.975510 654.922729,168.192230 679.503906,179.628998 
	C674.058533,191.458008 668.715576,203.064545 663.371643,214.673172 
	C674.904846,220.044006 686.537781,225.461258 698.341980,230.958298 
	C703.393982,220.041672 708.476624,209.058914 713.722107,197.724304 
	C704.765076,193.496429 696.391846,189.544128 687.426941,185.312531 
	C693.095825,173.098297 698.680908,161.064743 704.537964,148.445145 
	C716.835388,154.117783 728.873352,159.670715 741.492371,165.491699 
	C736.047668,177.333588 730.711853,188.938690 725.156372,201.021637 
	C731.585388,203.949234 738.312012,206.853317 744.895081,210.052643 
	C752.211914,213.608551 752.249939,212.267120 748.795715,219.608414 
	C739.295410,239.799561 729.731445,259.961914 720.433777,280.246155 
	C718.777832,283.858826 717.211426,284.708282 713.587952,282.987061 
	C703.448242,278.170349 693.116760,273.755829 682.997681,268.897949 
	C679.904175,267.412872 678.672363,268.296204 677.418823,271.049896 
	C672.698914,281.418030 667.833679,291.720032 662.870911,302.372986 
	C673.466370,307.257660 683.987854,312.236816 694.634888,316.931213 
	C697.490479,318.190277 698.908752,319.071716 697.213989,322.498138 
	C693.591553,329.821472 690.277466,337.304535 687.040466,344.809875 
	C677.837769,366.146912 668.386475,387.386475 659.689575,408.929413 
	C649.920593,433.127838 640.488708,457.478516 631.622437,482.020294 
	C624.164124,502.664917 617.153503,523.510010 610.968567,544.567078 
	C600.882690,578.905212 591.297180,613.400208 582.163818,648.004089 
	C577.398926,666.057007 573.711304,684.418091 570.162048,702.760925 
	C566.994141,719.132874 564.637634,735.663513 562.013245,752.138428 
	C559.945984,765.115784 557.836609,778.090881 556.092407,791.113464 
	C555.049927,798.897339 554.687134,806.771667 553.997437,814.603394 
	C552.675781,829.610168 551.333984,844.615112 550.019165,859.622498 
	C549.932251,860.614990 550.000366,861.621277 550.000305,862.621155 
	C549.999817,879.530884 550.000000,896.440613 550.000000,913.671082 
	C478.126465,913.671082 407.386963,913.671082 337.177795,913.671082 
	C333.163818,908.638550 329.288086,903.727478 325.357117,898.861084 
	C315.429596,886.571167 305.546509,874.244446 295.515198,862.039612 
	C285.563660,849.931763 275.370544,838.022339 265.435150,825.901428 
	C255.735153,814.067688 246.288467,802.026672 236.615631,790.170410 
	C228.464355,780.179199 220.083984,770.375061 211.921570,760.392761 
	C202.130875,748.419189 192.513687,736.303772 182.727753,724.326233 
	C174.569260,714.340637 166.268906,704.470947 158.050644,694.533997 
	C157.020096,693.287903 156.150375,691.909485 155.131729,690.652710 
	C150.241760,684.619690 150.464142,684.928406 156.978638,679.923950 
	C165.863861,673.098328 174.353271,665.757446 182.811188,658.802917 
	C175.383255,649.552612 168.056244,640.598083 160.934540,631.483154 
	C157.647385,627.276062 156.804016,627.237488 152.823502,630.579285 
	C143.637878,638.290955 134.238266,645.747803 124.529930,653.629089 
	C97.671349,620.835815 71.236191,588.559570 44.292007,555.661804 
	C55.300766,546.591919 66.079094,537.711853 77.368469,528.410706 
	C83.682571,535.995728 89.849129,543.366577 95.969498,550.775513 
	C98.138786,553.401550 100.023094,556.291687 102.407944,558.693481 
	C103.131912,559.422607 105.584488,559.540771 106.418152,558.885803 
	C115.513672,551.740417 124.438011,544.377380 133.424942,537.093323 
	C136.061615,534.956299 134.738708,533.474670 133.018539,531.424683 
	C125.691902,522.693359 118.680138,513.697632 111.342484,504.975952 
	C109.366470,502.627136 110.069618,501.869293 112.150520,500.194214 
	C121.800972,492.426056 131.241226,484.396729 141.414139,475.912689 
	C132.731110,465.226135 123.959602,454.430695 115.020187,443.428589 
	C125.962494,434.521729 136.887543,425.628937 148.258362,416.373260 
	C157.298737,427.354614 166.098358,438.043518 175.453506,449.407227 
	C164.661224,458.330383 153.792419,467.316803 143.195923,476.078064 
	C150.990784,485.741211 158.637650,495.076874 166.102203,504.556152 
	C168.571609,507.692017 170.664429,506.454834 172.905731,504.603455 
	C182.430740,496.735687 191.934723,488.842499 201.363617,481.027191 
	C219.300659,502.970856 237.039139,524.671631 255.103577,546.771118 
	C244.450851,555.541138 233.777435,564.328247 222.748627,573.407898 
	C231.216507,583.752258 239.507935,593.881042 248.492737,604.856873 
	C259.326385,596.133850 270.136169,587.430115 281.153534,578.559204 
	C321.118958,627.356689 360.836395,675.851379 401.232788,725.175110 
	C404.792969,704.667297 408.149689,685.331787 411.734833,665.618286 
M159.466232,517.019714 
	C152.745056,522.411316 145.949234,527.715698 139.403549,533.312500 
	C138.642410,533.963318 138.657654,536.651062 139.360306,537.677429 
	C141.650772,541.022827 144.427734,544.034973 147.015625,547.176941 
	C152.262329,553.546997 157.507797,559.918091 162.691757,566.213440 
	C163.423782,565.817566 163.734543,565.704041 163.980316,565.508789 
	C173.773346,557.726807 183.588684,549.971985 193.271362,542.054932 
	C193.797058,541.625122 193.659302,539.469788 193.066864,538.725464 
	C185.766022,529.552856 178.379013,520.446228 170.820984,511.485565 
	C170.140778,510.679138 167.715729,510.357391 166.797516,510.929138 
	C164.327179,512.467407 162.234100,514.611511 159.466232,517.019714 
M176.466171,584.979004 
	C172.746689,580.256348 169.150681,575.426086 165.207672,570.898071 
	C164.380127,569.947815 161.629913,569.281982 160.858582,569.884399 
	C151.614853,577.103455 142.512985,584.511108 133.592514,592.125427 
	C132.764297,592.832397 132.727127,595.835205 133.513245,596.846191 
	C139.414322,604.434998 145.596573,611.806152 151.733078,619.210388 
	C153.376541,621.193359 155.000427,624.350952 156.936142,624.598145 
	C158.767639,624.832092 160.993362,621.948120 163.055267,620.448608 
	C163.313644,620.260681 163.667496,620.199280 163.914474,620.001221 
	C171.653427,613.794250 179.422623,607.623413 187.046066,601.277405 
	C187.667847,600.759827 187.815918,598.629333 187.285416,597.941711 
	C183.996399,593.678467 180.450272,589.613525 176.466171,584.979004 
M619.396301,238.037003 
	C628.044556,242.112122 636.692871,246.187256 645.467468,250.321884 
	C650.786072,238.807373 655.887817,227.762360 661.343689,215.950775 
	C649.150696,211.329208 638.092834,204.216888 625.601074,200.492462 
	C620.222534,212.169128 615.236511,222.993744 610.237183,233.847168 
	C613.176514,235.290833 615.898987,236.627960 619.396301,238.037003 
z"/>
<path fill="#FFFFFF" opacity="1.000000" stroke="none" 
	d="
M2478.270752,632.333618 
	C2472.180176,649.458923 2466.294678,666.238342 2460.470459,683.038879 
	C2449.290527,715.287415 2438.181885,747.560791 2426.976318,779.800354 
	C2415.350830,813.247559 2403.676758,846.678040 2391.965088,880.095154 
	C2382.690430,906.558044 2373.338623,932.993958 2363.997803,959.433655 
	C2355.562988,983.308350 2347.737305,1007.447510 2335.954590,1029.966919 
	C2323.506592,1053.756836 2306.752686,1074.032227 2283.885498,1088.400024 
	C2268.168213,1098.275391 2250.938721,1104.700562 2232.472412,1108.176880 
	C2212.097412,1112.012451 2191.593018,1111.636597 2171.226074,1110.620239 
	C2157.836670,1109.952026 2144.616455,1105.710327 2131.362305,1102.874146 
	C2130.401123,1102.668579 2129.102539,1100.875000 2129.098877,1099.815796 
	C2128.980469,1064.357178 2129.000977,1028.897949 2129.000977,993.000000 
	C2138.963379,993.000000 2148.613037,993.508789 2158.187256,992.876587 
	C2171.399658,992.004272 2184.387451,990.275757 2196.689209,984.221863 
	C2208.949707,978.188171 2215.978516,968.276001 2220.941406,956.393677 
	C2225.571533,945.308899 2229.794189,934.048645 2233.937256,922.770447 
	C2234.706299,920.676208 2234.946045,917.893311 2234.247070,915.828796 
	C2225.102051,888.814697 2215.714844,861.882812 2206.449219,834.909424 
	C2198.587646,812.023193 2190.839111,789.098206 2182.978271,766.211792 
	C2173.347656,738.172729 2163.663086,710.152100 2153.980469,682.130920 
	C2144.664307,655.170166 2135.302979,628.224915 2125.994385,601.261536 
	C2116.633545,574.147400 2107.353027,547.005371 2097.962891,519.901367 
	C2089.359375,495.067963 2080.663330,470.266602 2071.992432,445.456451 
	C2069.772217,439.103516 2067.494873,432.770538 2065.091553,426.000000 
	C2067.525635,426.000000 2069.607910,426.000000 2071.690186,426.000000 
	C2122.356445,426.000000 2173.022705,426.073181 2223.688232,425.869598 
	C2228.029541,425.852173 2229.626953,427.352386 2230.661133,431.148315 
	C2237.371582,455.772064 2244.154053,480.376648 2251.045654,504.950287 
	C2256.114990,523.025330 2261.471680,541.019592 2266.547607,559.092834 
	C2273.447998,583.663635 2280.125000,608.297241 2287.044434,632.862671 
	C2292.566650,652.467346 2298.296143,672.013794 2303.975830,691.573792 
	C2304.383057,692.975891 2305.136963,694.277161 2305.729492,695.625366 
	C2306.792236,694.185303 2308.367676,692.895386 2308.839844,691.282410 
	C2315.647461,668.035217 2322.249756,644.727966 2329.017090,621.468872 
	C2336.948975,594.208130 2345.004883,566.983582 2352.986328,539.737305 
	C2362.005127,508.949249 2370.992432,478.151978 2380.013916,447.364716 
	C2382.082764,440.304443 2384.236816,433.269043 2386.364990,426.178223 
	C2440.902588,426.178223 2495.365234,426.178223 2550.314453,426.178223 
	C2547.132080,435.728821 2544.147949,445.010895 2540.950928,454.218964 
	C2531.333252,481.917633 2521.706055,509.613434 2511.944580,537.261597 
	C2501.061523,568.085938 2490.025146,598.856140 2479.068604,629.654541 
	C2478.800781,630.407227 2478.688232,631.215088 2478.270752,632.333618 
z"/>
<path fill="#FFFFFF" opacity="1.000000" stroke="none" 
	d="
M1006.641357,775.770508 
	C1014.034363,768.972900 1021.121826,762.376038 1028.440186,755.564209 
	C1050.808960,782.151367 1073.761353,809.432007 1097.271362,837.375671 
	C1093.605957,841.950073 1090.011475,847.143005 1085.718262,851.673706 
	C1065.118774,873.412781 1040.902344,890.070007 1013.486328,902.058350 
	C995.171143,910.067017 976.168884,915.530090 956.445923,919.220520 
	C931.185364,923.947083 905.772766,923.690796 880.447937,922.706604 
	C856.031372,921.757568 832.002258,916.849121 808.733459,908.990051 
	C790.086670,902.692139 772.591370,893.964233 755.966553,883.464966 
	C739.657532,873.165161 725.049072,860.772949 712.146057,846.504700 
	C700.728027,833.878601 691.004456,819.973450 682.514771,805.151245 
	C672.056641,786.892090 664.498047,767.519287 659.738464,747.133545 
	C657.094543,735.809021 655.214600,724.213013 654.163391,712.632935 
	C652.822327,697.860779 651.797729,682.958496 652.180054,668.152222 
	C652.987244,636.886597 656.226135,605.946594 665.472229,575.739746 
	C673.397949,549.846741 684.541931,525.648987 700.197083,503.705811 
	C711.089355,488.438477 724.136047,475.042999 738.994690,463.322876 
	C759.754333,446.948059 782.851013,435.161682 807.992859,427.775299 
	C822.168884,423.610565 836.940125,420.751556 851.641113,419.277039 
	C869.856140,417.450043 888.354004,416.327576 906.585083,417.387817 
	C923.783691,418.387970 940.978943,421.801971 957.842102,425.625305 
	C979.293030,430.488831 999.017700,440.108917 1017.318420,452.194214 
	C1032.314697,462.097321 1045.132935,474.590851 1056.898071,488.244934 
	C1068.075439,501.216858 1077.055908,515.525146 1084.325317,530.891052 
	C1093.559692,550.410156 1100.532837,570.775574 1103.905396,592.155640 
	C1106.085693,605.976379 1108.398682,619.915039 1108.777100,633.851746 
	C1109.533569,661.711304 1109.001465,689.605896 1109.001465,717.864868 
	C1009.653870,717.864868 909.589966,717.864868 808.334717,717.864868 
	C810.002075,724.269836 811.086731,730.209106 813.095398,735.817383 
	C818.895386,752.011292 827.115112,766.852783 840.065857,778.488037 
	C854.265564,791.245361 870.700806,800.188232 889.706909,802.796570 
	C902.383118,804.536316 915.396179,805.491211 928.132202,804.717896 
	C945.525146,803.661743 962.635986,799.677734 978.443604,791.994080 
	C988.064087,787.317810 997.059631,781.355774 1006.641357,775.770508 
M865.500000,622.000000 
	C897.259521,622.000000 929.019043,622.000000 960.841187,622.000000 
	C961.485229,607.799438 961.062195,594.242920 956.947449,581.103271 
	C951.281860,563.011658 940.143188,549.059570 922.739197,541.532898 
	C904.632446,533.702209 885.403015,532.905640 866.140015,537.070374 
	C850.487793,540.454407 838.610596,549.649963 829.187134,562.310791 
	C819.146851,575.800293 814.758057,591.567688 811.059387,607.577271 
	C809.990601,612.203064 809.570801,616.978760 808.884399,621.482361 
	C809.710693,621.837097 809.859436,621.956787 810.008240,621.956970 
	C828.172180,621.977051 846.336060,621.988342 865.500000,622.000000 
z"/>
<path fill="#FFFFFF" opacity="1.000000" stroke="none" 
	d="
M2038.999023,426.000000 
	C2045.142944,426.000000 2050.787109,426.000000 2056.714844,426.000000 
	C2056.714844,461.293640 2056.714844,496.365387 2056.714844,531.838623 
	C2025.366455,531.838623 1993.959229,531.838623 1962.154541,531.838623 
	C1962.154541,659.309509 1962.154541,786.380737 1962.154541,913.725708 
	C1910.684570,913.725708 1859.613159,913.725708 1808.141602,913.725708 
	C1808.141602,786.677551 1808.141602,659.606323 1808.141602,532.134766 
	C1784.673706,532.134766 1761.598999,532.134766 1738.263672,532.134766 
	C1738.263672,496.663544 1738.263672,461.591888 1738.263672,426.118652 
	C1761.342651,426.118652 1784.417236,426.118652 1808.000000,426.118652 
	C1808.000000,412.951752 1807.776611,400.174286 1808.046387,387.407227 
	C1808.615356,360.483673 1811.660400,333.880676 1822.166504,308.819427 
	C1827.716919,295.579498 1835.158447,283.274689 1844.354858,272.052551 
	C1859.312012,253.800461 1877.793213,240.258713 1899.080078,230.516937 
	C1914.014771,223.682190 1929.713135,219.156647 1945.860840,215.896805 
	C1969.054077,211.214600 1992.508179,211.157928 2015.845703,212.325333 
	C2030.950317,213.080902 2045.898071,216.971924 2060.916992,219.452011 
	C2062.198730,219.663681 2063.760986,219.443634 2064.708008,220.111435 
	C2066.042725,221.052597 2067.857666,222.631760 2067.863770,223.945602 
	C2068.033447,260.439209 2068.000000,296.933777 2068.000000,333.816803 
	C2051.796875,328.694824 2035.265747,329.343079 2018.957520,330.239899 
	C2003.112915,331.111267 1988.054077,335.872070 1976.257080,347.365387 
	C1968.096558,355.315765 1963.451904,365.372467 1963.119385,376.747559 
	C1962.645630,392.957733 1962.998901,409.192078 1962.998901,426.000000 
	C1987.640625,426.000000 2013.069946,426.000000 2038.999023,426.000000 
z"/>
<path fill="#FFFFFF" opacity="1.000000" stroke="none" 
	d="
M1469.000000,428.160278 
	C1469.000000,438.470062 1469.107666,448.303040 1468.977173,458.132874 
	C1468.721680,477.382965 1468.227905,496.630249 1468.032959,515.880676 
	C1467.872070,531.765137 1468.000000,547.652466 1468.000000,564.040833 
	C1460.996094,563.594788 1455.316040,563.339539 1449.657227,562.842224 
	C1444.134766,562.356873 1438.644287,561.229858 1433.121460,561.083862 
	C1422.323608,560.798279 1411.456177,560.289551 1400.718994,561.145630 
	C1377.289795,563.013794 1355.000610,568.694275 1337.713257,586.027283 
	C1332.991333,590.761536 1329.616943,596.891602 1325.949341,602.590332 
	C1325.001099,604.063843 1325.036133,606.328918 1325.035400,608.230591 
	C1324.995239,708.212646 1325.000000,808.194702 1325.000000,908.176758 
	C1325.000000,909.971313 1325.000000,911.765869 1325.000000,913.777588 
	C1273.919678,913.777588 1223.187622,913.777588 1172.227783,913.777588 
	C1172.227783,751.277527 1172.227783,588.893066 1172.227783,426.254211 
	C1219.692627,426.254211 1267.101074,426.254211 1315.142456,426.254211 
	C1316.767578,445.660553 1318.396729,465.114258 1320.144287,485.982788 
	C1323.862305,480.451019 1326.913818,475.997192 1329.877930,471.485931 
	C1346.245850,446.574402 1368.199585,428.896240 1397.021240,420.556549 
	C1412.828491,415.982574 1429.075562,415.883026 1445.324097,418.008026 
	C1451.419556,418.805206 1457.447998,420.315063 1463.559204,420.727722 
	C1468.558228,421.065216 1469.572754,423.499298 1469.000000,428.160278 
z"/>
<path fill="#FFFFFF" opacity="1.000000" stroke="none" 
	d="
M1682.000000,848.000000 
	C1682.000000,870.143250 1682.000000,891.786560 1682.000000,913.714539 
	C1631.041382,913.714539 1580.304077,913.714539 1529.283203,913.714539 
	C1529.283203,751.372437 1529.283203,588.971741 1529.283203,426.285461 
	C1579.958618,426.285461 1630.695923,426.285461 1682.000000,426.285461 
	C1682.000000,566.651001 1682.000000,707.075500 1682.000000,848.000000 
z"/>
<path fill="#FFFFFF" opacity="1.000000" stroke="none" 
	d="
M1591.066650,374.000000 
	C1566.376343,371.251923 1546.180176,360.966339 1531.748901,341.054657 
	C1524.148315,330.567505 1520.537598,318.315369 1520.000244,305.278961 
	C1519.435791,291.585999 1521.291992,278.410492 1527.966187,266.165192 
	C1536.525146,250.461945 1549.406860,239.817001 1565.760620,232.954498 
	C1581.038208,226.543579 1597.077026,225.111084 1613.271118,226.137650 
	C1630.386353,227.222595 1646.741333,231.873840 1660.608154,242.352066 
	C1678.841187,256.129364 1688.694458,274.418793 1689.128662,297.760010 
	C1689.421753,313.514130 1686.563965,328.230621 1677.313477,341.042999 
	C1665.683716,357.150543 1650.059570,367.989929 1630.437744,371.819824 
	C1620.231812,373.811859 1609.682129,374.108429 1599.268066,374.920807 
	C1596.727051,375.119019 1594.109131,374.333313 1591.066650,374.000000 
z"/>
<path fill="#FFFFFF" opacity="1.000000" stroke="none" 
	d="
M690.764404,126.618752 
	C688.902222,130.242157 687.243103,133.529938 685.260254,137.459091 
	C673.111328,131.834290 660.981995,126.218575 648.390381,120.388824 
	C654.105774,108.084534 659.635864,96.179169 665.535461,83.478401 
	C677.498901,88.978249 689.357361,94.429794 701.703247,100.105453 
	C706.452698,89.719803 711.344788,79.310616 715.957764,68.779160 
	C717.581482,65.072067 719.270020,64.488937 722.981506,66.345642 
	C733.445618,71.580376 744.135254,76.364532 755.227783,81.556488 
	C749.607483,93.721542 744.001465,105.855789 738.121704,118.582558 
	C728.043030,113.868942 718.020325,109.239952 708.052246,104.496269 
	C702.636108,101.918793 701.711426,102.050026 699.256836,107.369270 
	C696.373230,113.618309 693.720276,119.973801 690.764404,126.618752 
z"/>
<path fill="#FFFFFF" opacity="1.000000" stroke="none" 
	d="
M796.246765,86.697876 
	C792.289612,84.862801 788.626038,83.288383 784.540466,81.532646 
	C790.258606,69.189392 795.828796,57.165367 801.722290,44.443478 
	C814.124634,50.144421 826.442383,55.806507 838.717896,61.449139 
	C833.734070,72.496613 828.663269,83.554832 823.771973,94.691933 
	C822.321533,97.994560 820.695984,98.594849 817.397705,96.888054 
	C810.562744,93.351173 803.505859,90.242996 796.246765,86.697876 
z"/>
<path fill="#FFFFFF" opacity="1.000000" stroke="none" 
	d="
M788.693115,176.761353 
	C787.558777,179.283783 786.688477,181.514221 785.515503,184.520279 
	C773.226746,178.832550 761.117676,173.228012 748.317993,167.303818 
	C754.082886,154.770554 759.744324,142.462158 765.379883,130.210129 
	C777.651367,135.932755 789.846130,141.619644 802.410950,147.479065 
	C797.839417,157.329742 793.398254,166.899536 788.693115,176.761353 
z"/>
<path fill="#000000" opacity="1.000000" stroke="none" 
	d="
M159.728745,516.767456 
	C162.234100,514.611511 164.327179,512.467407 166.797516,510.929138 
	C167.715729,510.357391 170.140778,510.679138 170.820984,511.485565 
	C178.379013,520.446228 185.766022,529.552856 193.066864,538.725464 
	C193.659302,539.469788 193.797058,541.625122 193.271362,542.054932 
	C183.588684,549.971985 173.773346,557.726807 163.980316,565.508789 
	C163.734543,565.704041 163.423782,565.817566 162.691757,566.213440 
	C157.507797,559.918091 152.262329,553.546997 147.015625,547.176941 
	C144.427734,544.034973 141.650772,541.022827 139.360306,537.677429 
	C138.657654,536.651062 138.642410,533.963318 139.403549,533.312500 
	C145.949234,527.715698 152.745056,522.411316 159.728745,516.767456 
z"/>
<path fill="#000000" opacity="1.000000" stroke="none" 
	d="
M176.727844,585.230896 
	C180.450272,589.613525 183.996399,593.678467 187.285416,597.941711 
	C187.815918,598.629333 187.667847,600.759827 187.046066,601.277405 
	C179.422623,607.623413 171.653427,613.794250 163.914474,620.001221 
	C163.667496,620.199280 163.313644,620.260681 163.055267,620.448608 
	C160.993362,621.948120 158.767639,624.832092 156.936142,624.598145 
	C155.000427,624.350952 153.376541,621.193359 151.733078,619.210388 
	C145.596573,611.806152 139.414322,604.434998 133.513245,596.846191 
	C132.727127,595.835205 132.764297,592.832397 133.592514,592.125427 
	C142.512985,584.511108 151.614853,577.103455 160.858582,569.884399 
	C161.629913,569.281982 164.380127,569.947815 165.207672,570.898071 
	C169.150681,575.426086 172.746689,580.256348 176.727844,585.230896 
z"/>
<path fill="#000000" opacity="1.000000" stroke="none" 
	d="
M619.008850,238.001053 
	C615.898987,236.627960 613.176514,235.290833 610.237183,233.847168 
	C615.236511,222.993744 620.222534,212.169128 625.601074,200.492462 
	C638.092834,204.216888 649.150696,211.329208 661.343689,215.950775 
	C655.887817,227.762360 650.786072,238.807373 645.467468,250.321884 
	C636.692871,246.187256 628.044556,242.112122 619.008850,238.001053 
z"/>
<path fill="#000000" opacity="1.000000" stroke="none" 
	d="
M865.000000,622.000000 
	C846.336060,621.988342 828.172180,621.977051 810.008240,621.956970 
	C809.859436,621.956787 809.710693,621.837097 808.884399,621.482361 
	C809.570801,616.978760 809.990601,612.203064 811.059387,607.577271 
	C814.758057,591.567688 819.146851,575.800293 829.187134,562.310791 
	C838.610596,549.649963 850.487793,540.454407 866.140015,537.070374 
	C885.403015,532.905640 904.632446,533.702209 922.739197,541.532898 
	C940.143188,549.059570 951.281860,563.011658 956.947449,581.103271 
	C961.062195,594.242920 961.485229,607.799438 960.841187,622.000000 
	C929.019043,622.000000 897.259521,622.000000 865.000000,622.000000 
z"/>
</svg>