<?xml version="1.0" encoding="utf-8"?>
<!-- Generator: Adobe Illustrator 26.0.3, SVG Export Plug-In . SVG Version: 6.00 Build 0)  -->
<svg version="1.1" id="logo" xmlns="http://www.w3.org/2000/svg" xmlns:xlink="http://www.w3.org/1999/xlink" x="0px" y="0px"
	 viewBox="0 0 504 504" style="enable-background:new 0 0 504 504;" xml:space="preserve">
<style type="text/css">
	.st0{fill:none;}
	.st1{display:none;}
	.st2{display:inline;}
	.st3{fill:#004987;}
	.st4{fill:#6AAAE4;}
</style>
<g id="GUIDES">
	<rect class="st0" width="504" height="504"/>
	<rect class="st0" width="504" height="504"/>
</g>
<g id="BKGD" class="st1">
	<rect class="st2" width="504" height="504"/>
</g>
<g id="VIRTRU">
	<g>
		<g>
			<path class="st3" d="M284.9,278.5c-3.6,0-6.5-2.9-6.5-6.5v-37c0-3.6,2.9-6.5,6.5-6.5s6.5,2.9,6.5,6.5v37
				C291.3,275.6,288.4,278.5,284.9,278.5z"/>
			<path class="st3" d="M311.1,235.3"/>
			<path class="st3" d="M311.1,278.5c-3.6,0-6.5-2.9-6.5-6.5v-39.9l3.9-1.7c1.3-0.6,12.9-5.3,23.1-1.5c3.3,1.3,5,5,3.8,8.3
				c-1.3,3.3-5,5-8.3,3.8c-2.8-1.1-6.6-0.6-9.5,0v30.9C317.5,275.6,314.6,278.5,311.1,278.5z"/>
			<path class="st3" d="M363.2,228.6h-6.9v-4c0-3.6-2.9-6.5-6.5-6.5s-6.5,2.9-6.5,6.5V272c0,3.6,2.9,6.5,6.5,6.5s6.5-2.9,6.5-6.5
				v-30.5h6.9c3.6,0,6.5-2.9,6.5-6.5C369.7,231.5,366.8,228.6,363.2,228.6z"/>
			<circle class="st3" cx="285" cy="215.3" r="6.5"/>
			<path class="st3" d="M384.1,235.8"/>
			<path class="st3" d="M384.1,278.5L384.1,278.5c-3.6,0-6.5-2.9-6.5-6.5v-39.9l4.1-1.6c1.3-0.5,12.8-4.8,22.9-1
				c3.3,1.3,5,5,3.8,8.3c-1.3,3.3-5,5-8.3,3.8c-2.9-1.1-6.5-0.8-9.5-0.2V272C390.6,275.6,387.7,278.5,384.1,278.5z"/>
			<path class="st3" d="M436,278.5c-10.7,0-19.5-8.7-19.5-19.4v-24c0-3.6,2.9-6.5,6.5-6.5s6.5,2.9,6.5,6.5v24c0,3.6,2.9,6.5,6.5,6.5
				s6.5-2.9,6.5-6.5v-24c0-3.6,2.9-6.5,6.5-6.5s6.5,2.9,6.5,6.5v24C455.4,269.8,446.7,278.5,436,278.5z"/>
			<path class="st3" d="M225.3,279.6v-49.2h12.9v31.4v0.4c7.4-3.8,17.4-11.7,17.4-27.2c0-3.6,2.9-6.5,6.5-6.5s6.5,2.9,6.5,6.5
				c0,27.8-23.2,39.8-35.4,42.9C233.1,278,228.1,279.3,225.3,279.6z"/>
		</g>
	</g>
</g>
<g id="V_00000150815147831699412820000002538107907449541296_">
	<path class="st3" d="M105.8,230.4L105.8,230.4l0,49.2c2.8-0.4,7.8-1.6,7.8-1.6c12.2-3.2,35.4-15.1,35.4-42.9c0-3.6-2.9-6.5-6.5-6.5
		s-6.5,2.9-6.5,6.5c0,15.5-9.9,23.5-17.3,27.2v-0.4v-31.4h0H105.8z"/>
</g>
<g id="CIRCLE">
	<path class="st3" d="M185.8,213.1c-0.2,2.7-1.4,5.2-3.8,6.9c-2.6,1.9-5.8,2.2-8.5,1.2c-0.1-0.2-0.2-0.4-0.4-0.6
		c6.4,10.3,9.8,22.7,8.8,35.8c-2.5,32.7-31,57.3-63.7,54.8s-57.3-31-54.8-63.7s31-57.3,63.7-54.8c7.3,0.6,14.2,2.4,20.5,5.3
		c-0.2-0.1-0.4-0.2-0.6-0.3c2.6,1.2,5.8,0.9,8.1-1.2c3.1-2.7,3.3-7.4,0.6-10.4c-0.5-0.6-1.1-1.1-1.8-1.4c-7.9-3.7-16.5-6-25.6-6.7
		c-40.8-3.1-76.5,27.6-79.5,68.4s27.6,76.5,68.4,79.5s76.5-27.6,79.5-68.4C197.9,241.3,193.8,225.9,185.8,213.1z"/>
</g>
<g id="CONNECT">
	<path class="st4" d="M185.2,212.2c-0.2-0.4-0.5-0.8-0.8-1.2c-0.2-0.3-0.4-0.5-0.5-0.8c-0.3-0.5-0.7-1-1-1.5c-1-1.4-2.1-2.8-3.2-4.1
		c0,0,0,0,0,0c-0.2-0.3-0.4-0.5-0.7-0.8c-0.1-0.1-0.2-0.2-0.2-0.3c-0.1-0.1-0.2-0.3-0.4-0.4c-0.4-0.4-0.7-0.8-1.1-1.2
		c-0.3-0.4-0.7-0.7-1-1.1c-0.2-0.3-0.5-0.5-0.8-0.8c-0.6-0.6-1.1-1.1-1.7-1.7c-0.1-0.1-0.1-0.1-0.2-0.2c-3.3-3.2-7-6.1-10.9-8.6
		c0,0,0.1,0,0.1,0.1c-1.5-1-3-1.9-4.6-2.7c-0.3-0.2-0.7-0.4-1-0.5c-0.1,0-0.2-0.1-0.2-0.1c-1-0.5-2.1-1.1-3.1-1.6
		c0.7,0.4,1.3,0.9,1.8,1.4c2.7,3.1,2.4,7.7-0.6,10.4c-2.3,2-5.5,2.4-8.1,1.2c0.2,0.1,0.4,0.2,0.6,0.3c0.3,0.1,0.5,0.2,0.8,0.4
		c0.7,0.3,1.4,0.7,2,1c4,2.1,7.7,4.6,11,7.5c0.6,0.6,1.3,1.1,1.9,1.7c0,0,0.1,0.1,0.1,0.1c0.5,0.5,1,1,1.5,1.4
		c0.2,0.2,0.4,0.4,0.6,0.6c0.3,0.3,0.5,0.6,0.8,0.9c0.3,0.4,0.6,0.7,1,1.1c0,0,0,0,0,0c1.6,1.8,3.1,3.7,4.4,5.7
		c0.2,0.2,0.3,0.5,0.5,0.7c0.3,0.4,0.6,0.9,0.8,1.3c0.1,0.2,0.2,0.4,0.4,0.6c2.8,1,6,0.6,8.5-1.2c2.3-1.7,3.6-4.3,3.8-6.9
		C185.6,212.8,185.4,212.5,185.2,212.2z"/>
</g>
</svg>
