<svg version="1.1" id="Layer_1" xmlns="http://www.w3.org/2000/svg" xmlns:xlink="http://www.w3.org/1999/xlink" x="0px" y="0px"
	 width="100%" viewBox="0 0 4003 1000" enable-background="new 0 0 4003 1000" xml:space="preserve">
<path fill="#FFFFFF" opacity="1.000000" stroke="none" 
	d="
M2883.000000,1001.000000 
	C1922.000000,1001.000000 961.500000,1001.000000 1.000000,1001.000000 
	C1.000000,667.666687 1.000000,334.333344 1.000000,1.000000 
	C1335.333374,1.000000 2669.666748,1.000000 4004.000000,1.000000 
	C4004.000000,334.333344 4004.000000,667.666687 4004.000000,1001.000000 
	C3630.500000,1001.000000 3257.000000,1001.000000 2883.000000,1001.000000 
M3862.535645,714.499634 
	C3862.535645,732.225281 3862.535645,749.950989 3862.535645,767.457947 
	C3898.470947,767.457947 3933.542725,767.457947 3968.695801,767.457947 
	C3968.756836,766.259949 3968.835693,765.437622 3968.835693,764.615295 
	C3968.840576,674.125916 3968.886230,583.636414 3968.807617,493.147125 
	C3968.786377,468.761017 3965.127686,444.876190 3954.417969,422.814667 
	C3926.198242,364.682983 3881.025146,328.603699 3815.943848,320.847015 
	C3762.591309,314.488220 3715.940186,330.519623 3676.990723,367.594604 
	C3667.682129,376.455139 3659.934570,386.955688 3651.475830,396.693817 
	C3621.649414,353.006805 3580.268066,326.405914 3526.870117,320.639496 
	C3473.327148,314.857422 3426.948242,331.447418 3387.621094,370.241058 
	C3387.621094,356.779480 3387.621094,344.436981 3387.621094,332.087524 
	C3351.881836,332.087524 3316.784180,332.087524 3281.562500,332.087524 
	C3281.562500,477.388062 3281.562500,622.431458 3281.562500,767.584229 
	C3316.960205,767.584229 3352.038086,767.584229 3387.617920,767.584229 
	C3387.617920,765.376038 3387.617676,763.415466 3387.617676,761.454834 
	C3387.617676,682.297424 3387.640869,603.140076 3387.596680,523.982666 
	C3387.588867,510.197144 3389.337402,496.754578 3394.921387,484.051056 
	C3410.543213,448.510529 3446.785400,423.914337 3487.978516,427.791321 
	C3511.165527,429.973633 3530.839111,439.239288 3546.766602,456.164276 
	C3564.572021,475.085205 3571.829102,498.007172 3571.814453,523.639771 
	C3571.769043,602.963806 3571.798096,682.287903 3571.798096,761.611938 
	C3571.798096,763.555725 3571.797852,765.499451 3571.797852,767.591858 
	C3607.417236,767.591858 3642.488770,767.591858 3677.975098,767.591858 
	C3677.975098,765.390625 3677.975342,763.430237 3677.975342,761.469849 
	C3677.975342,682.145813 3677.858398,602.821350 3678.126221,523.498169 
	C3678.159180,513.769226 3678.984375,503.688629 3681.612305,494.383820 
	C3693.207031,453.331879 3732.007080,424.205597 3777.545166,427.676788 
	C3813.931396,430.450348 3844.098633,455.500549 3856.719727,488.276428 
	C3861.214355,499.948456 3862.526123,512.136658 3862.528809,524.521667 
	C3862.543213,587.514282 3862.535645,650.506958 3862.535645,714.499634 
M2595.500000,113.830338 
	C2581.752197,113.830338 2568.004639,113.830338 2553.960693,113.830338 
	C2553.960693,204.564011 2553.960693,294.626923 2553.960693,385.851257 
	C2552.346436,383.783966 2551.377441,382.578400 2550.445557,381.344971 
	C2536.477051,362.859802 2519.161865,348.288696 2498.843506,337.234985 
	C2469.617920,321.335632 2437.995850,318.261078 2405.747559,321.493591 
	C2341.072266,327.976410 2287.838135,356.953400 2247.955322,408.042877 
	C2197.597656,472.551056 2184.914551,545.237610 2210.528809,622.703125 
	C2232.491699,689.126404 2277.898926,735.574097 2342.607178,762.515076 
	C2376.414307,776.590454 2411.902344,781.635132 2448.239502,777.797791 
	C2486.951660,773.709656 2518.141846,754.698669 2543.827148,726.057190 
	C2547.182617,722.315430 2550.245361,718.311157 2554.138916,713.584595 
	C2554.138916,732.263123 2554.138916,749.835815 2554.138916,767.524902 
	C2589.739502,767.524902 2624.943848,767.524902 2660.256592,767.524902 
	C2660.256592,549.514404 2660.256592,331.817383 2660.256592,113.830330 
	C2638.798340,113.830330 2617.649170,113.830330 2595.500000,113.830338 
M218.452606,591.025696 
	C201.456482,540.595764 184.428787,490.176483 167.475159,439.732269 
	C155.924881,405.365417 144.443192,370.975311 133.042542,336.558594 
	C131.971588,333.325592 130.727203,331.800110 126.886559,331.823730 
	C95.556953,332.016266 64.225655,331.927185 32.894875,331.946503 
	C31.329334,331.947449 29.763926,332.158630 27.615812,332.314056 
	C28.334419,334.864197 28.784126,336.767975 29.404121,338.614594 
	C40.520760,371.724091 51.723167,404.804932 62.778866,437.934753 
	C98.894279,546.159058 134.980621,654.393066 170.951065,762.665588 
	C172.272125,766.642029 173.975479,768.064148 178.261353,768.037537 
	C209.590912,767.842407 240.923050,767.823975 272.252197,768.049988 
	C276.920868,768.083618 278.773682,766.663330 280.238281,762.226013 
	C310.106903,671.734253 340.166290,581.305481 370.203705,490.869385 
	C370.793091,489.094849 371.576050,487.384613 372.563232,484.904480 
	C373.515656,487.428375 374.214111,489.103333 374.786133,490.820404 
	C404.906708,581.230469 435.055756,671.631104 465.014618,762.094788 
	C466.554962,766.745850 468.682129,768.079895 473.443359,768.046143 
	C504.605927,767.825134 535.771240,767.856995 566.934448,768.023804 
	C571.022278,768.045715 572.916931,766.998291 574.284241,762.888855 
	C599.330322,687.616211 624.607422,612.420593 649.749817,537.179932 
	C671.993530,470.613953 694.132690,404.013092 716.313171,337.425995 
	C716.858765,335.787994 717.346741,334.130768 717.936951,332.241333 
	C716.590027,332.088562 715.939453,331.950470 715.288940,331.950226 
	C682.791626,331.936829 650.293823,332.010345 617.797485,331.833557 
	C613.908203,331.812378 613.117615,333.942932 612.180969,336.735687 
	C602.556519,365.432556 592.847168,394.101044 583.250305,422.807190 
	C567.747192,469.180359 552.332153,515.582947 536.835388,561.958252 
	C531.219849,578.763306 525.476379,595.525635 519.487915,613.203125 
	C518.485901,610.608276 517.767700,608.951843 517.198669,607.245728 
	C487.153320,517.161316 457.096161,427.080872 427.172882,336.955963 
	C425.932709,333.220764 424.463226,331.791199 420.305847,331.818420 
	C388.643097,332.025726 356.977814,332.023651 325.315002,331.821045 
	C321.156433,331.794464 319.593872,333.244720 318.358032,336.974701 
	C306.012726,374.233307 293.454071,411.421173 281.017120,448.649506 
	C263.310059,501.653137 245.656311,554.674500 227.968384,607.684509 
	C227.497238,609.096497 226.894577,610.464661 225.862350,613.112549 
	C223.159439,604.986145 220.959335,598.371399 218.452606,591.025696 
M1386.655151,753.856750 
	C1409.964722,770.640686 1436.339478,778.513184 1464.706421,778.721252 
	C1480.061890,778.833923 1495.591553,777.337463 1510.772949,774.892517 
	C1555.217773,767.735107 1593.515869,747.688354 1626.392578,717.151306 
	C1650.125244,695.107483 1668.429810,669.171143 1681.274170,639.414795 
	C1690.898804,617.117371 1697.157715,593.838867 1698.701538,569.660034 
	C1699.680664,554.322449 1698.708374,538.823364 1698.000977,523.424683 
	C1697.179077,505.533844 1692.688721,488.260437 1686.546509,471.566437 
	C1672.417236,433.164246 1649.713013,400.567902 1618.473267,374.034363 
	C1603.312134,361.157257 1586.806152,350.237213 1568.892334,341.628723 
	C1544.560181,329.935760 1518.934814,322.874176 1491.910767,320.806061 
	C1470.237915,319.147430 1448.741699,318.986847 1427.623291,325.043732 
	C1399.816040,333.019043 1376.898193,348.704132 1357.456787,369.791870 
	C1353.045776,374.576477 1348.848389,379.558197 1343.692139,385.429108 
	C1343.692139,294.212677 1343.692139,204.320084 1343.692139,114.252274 
	C1308.298096,114.252274 1273.398438,114.252274 1238.292725,114.252274 
	C1238.292725,332.210358 1238.292725,549.847900 1238.292725,767.578003 
	C1273.620117,767.578003 1308.514893,767.578003 1344.085083,767.578003 
	C1344.085083,749.466980 1344.085083,731.698975 1344.085083,712.769653 
	C1356.516846,729.219604 1370.060669,742.619324 1386.655151,753.856750 
M3073.672607,367.831360 
	C3055.698975,351.162689 3035.790771,337.461609 3012.642334,329.001923 
	C2980.231934,317.157288 2946.905762,317.063995 2913.622314,323.528381 
	C2860.867676,333.774445 2816.915527,359.955322 2783.288818,401.762543 
	C2735.539551,461.127625 2721.101318,529.230347 2740.080811,602.335327 
	C2762.377930,688.219666 2818.364746,744.117126 2903.081543,770.465454 
	C2930.025879,778.845520 2958.011475,781.243408 2986.123047,777.586243 
	C3026.988281,772.269836 3057.656250,750.662476 3080.383545,716.924866 
	C3080.938965,716.100586 3081.737793,715.440430 3082.690674,714.415894 
	C3084.345459,732.576294 3085.942871,750.105469 3087.526611,767.486816 
	C3123.344727,767.486816 3158.583984,767.486816 3193.640137,767.486816 
	C3193.640137,622.066528 3193.640137,476.996674 3193.640137,332.101685 
	C3158.169922,332.101685 3123.059814,332.101685 3087.597412,332.101685 
	C3089.095703,350.321259 3090.569824,368.248413 3091.805664,383.278107 
	C3086.858154,379.066681 3080.532471,373.681915 3073.672607,367.831360 
M1942.590088,778.937317 
	C1964.019043,779.473511 1985.123413,777.000854 2005.559692,770.602844 
	C2052.139893,756.019958 2088.310547,727.584045 2115.379395,687.141785 
	C2135.700928,656.780090 2145.103271,623.092773 2145.796143,586.937439 
	C2146.255371,562.964417 2141.892090,539.586548 2132.853027,517.325684 
	C2121.479492,489.315216 2105.649414,464.702789 2078.072266,449.758026 
	C2074.026855,447.565796 2069.764648,445.774109 2065.036865,443.528229 
	C2081.917969,435.399658 2095.214600,423.953796 2104.548340,408.507416 
	C2131.573242,363.783447 2135.488037,316.181030 2118.366699,267.514587 
	C2101.902832,220.717285 2069.838379,186.550415 2025.781250,164.036514 
	C1988.784668,145.130630 1949.373779,140.629532 1908.868042,148.422394 
	C1872.609497,155.398163 1840.755615,172.157578 1813.643555,197.128220 
	C1784.357788,224.100861 1764.460938,256.809143 1757.412964,296.474792 
	C1755.719849,306.003113 1755.306641,315.758789 1754.264160,325.800598 
	C1790.563965,325.800598 1825.480591,325.800598 1860.624268,325.800598 
	C1861.075317,323.697113 1861.567505,321.785858 1861.878296,319.845520 
	C1862.192505,317.885101 1862.176758,315.865997 1862.563477,313.923950 
	C1866.285400,295.229279 1877.573120,281.584259 1892.221069,270.401794 
	C1910.856445,256.175446 1932.011108,249.482498 1955.367798,252.228210 
	C1987.329224,255.985413 2013.960449,280.529144 2020.443237,312.115051 
	C2026.587158,342.050018 2015.921265,372.162079 1986.695312,388.664917 
	C1967.195435,399.675690 1946.070801,404.750488 1923.883911,406.047333 
	C1917.648071,406.411835 1911.421265,406.931335 1905.357666,407.367645 
	C1905.357666,434.806274 1905.357666,461.710785 1905.357666,488.511627 
	C1915.188354,489.348450 1924.612549,490.053925 1934.016235,490.970215 
	C1957.624634,493.270599 1980.296387,498.983521 2000.457031,511.877686 
	C2034.455933,533.622437 2042.280151,563.515442 2038.565918,596.228943 
	C2036.098145,617.963745 2024.866089,635.599426 2008.521851,649.881226 
	C1991.458008,664.792053 1971.336426,672.616089 1948.788818,672.723816 
	C1933.248169,672.797974 1918.081787,669.670166 1904.257446,661.759827 
	C1876.418091,645.829834 1861.175537,621.962524 1859.113159,589.944580 
	C1858.826782,585.499512 1857.834717,583.936523 1853.136475,583.965210 
	C1821.139404,584.160889 1789.140503,584.063538 1757.142212,584.079773 
	C1755.551025,584.080627 1753.959839,584.258972 1752.420776,584.351562 
	C1750.140747,680.708801 1828.675049,775.484375 1942.590088,778.937317 
M984.428162,320.997894 
	C974.792175,320.621857 965.157654,320.200073 955.519836,319.878967 
	C932.955627,319.127197 911.056030,323.271118 889.989441,330.752441 
	C842.230042,347.713074 804.825562,378.202850 777.392395,420.637695 
	C754.932617,455.379517 742.470703,493.673584 740.168762,535.018372 
	C738.813782,559.354370 740.719177,583.551941 746.679077,607.260376 
	C759.703430,659.071289 787.351990,701.483643 829.188110,734.676697 
	C863.365967,761.793518 902.541565,776.003906 945.804749,778.737549 
	C968.122314,780.147705 990.282593,777.695190 1011.971436,771.863342 
	C1046.617310,762.547485 1076.471191,744.695374 1102.759644,720.621399 
	C1116.819580,707.745911 1128.926392,693.120789 1139.126831,677.047852 
	C1145.051147,667.712708 1150.040405,657.783997 1155.648071,647.769409 
	C1153.949097,647.290466 1153.333130,647.092163 1152.705444,646.943420 
	C1122.016113,639.671814 1091.235352,632.757019 1060.688477,624.929932 
	C1051.046997,622.459534 1043.551758,621.978210 1039.071167,632.456360 
	C1038.759888,633.184326 1037.998657,633.717102 1037.457886,634.350220 
	C1012.070129,664.072571 980.389465,677.536499 941.294128,670.928345 
	C903.480835,664.536865 877.561951,642.635376 861.803833,608.223633 
	C858.621826,601.274902 856.517578,593.832703 853.595276,585.727173 
	C960.814514,585.727173 1066.715698,585.727173 1172.863892,585.727173 
	C1173.325562,580.748352 1173.724243,576.292114 1174.154297,571.838989 
	C1176.227783,550.365723 1175.621094,528.941345 1171.642456,507.764099 
	C1165.114624,473.019745 1152.157227,440.835785 1131.909790,411.697327 
	C1111.701782,382.615631 1086.271729,359.455383 1054.864868,342.900238 
	C1032.994263,331.371765 1009.768738,324.309601 984.428162,320.997894 
z"/>
<path fill="#010101" opacity="1.000000" stroke="none" 
	d="
M3862.535645,713.999634 
	C3862.535645,650.506958 3862.543213,587.514282 3862.528809,524.521667 
	C3862.526123,512.136658 3861.214355,499.948456 3856.719727,488.276428 
	C3844.098633,455.500549 3813.931396,430.450348 3777.545166,427.676788 
	C3732.007080,424.205597 3693.207031,453.331879 3681.612305,494.383820 
	C3678.984375,503.688629 3678.159180,513.769226 3678.126221,523.498169 
	C3677.858398,602.821350 3677.975342,682.145813 3677.975342,761.469849 
	C3677.975342,763.430237 3677.975098,765.390625 3677.975098,767.591858 
	C3642.488770,767.591858 3607.417236,767.591858 3571.797852,767.591858 
	C3571.797852,765.499451 3571.798096,763.555725 3571.798096,761.611938 
	C3571.798096,682.287903 3571.769043,602.963806 3571.814453,523.639771 
	C3571.829102,498.007172 3564.572021,475.085205 3546.766602,456.164276 
	C3530.839111,439.239288 3511.165527,429.973633 3487.978516,427.791321 
	C3446.785400,423.914337 3410.543213,448.510529 3394.921387,484.051056 
	C3389.337402,496.754578 3387.588867,510.197144 3387.596680,523.982666 
	C3387.640869,603.140076 3387.617676,682.297424 3387.617676,761.454834 
	C3387.617676,763.415466 3387.617920,765.376038 3387.617920,767.584229 
	C3352.038086,767.584229 3316.960205,767.584229 3281.562500,767.584229 
	C3281.562500,622.431458 3281.562500,477.388062 3281.562500,332.087524 
	C3316.784180,332.087524 3351.881836,332.087524 3387.621094,332.087524 
	C3387.621094,344.436981 3387.621094,356.779480 3387.621094,370.241058 
	C3426.948242,331.447418 3473.327148,314.857422 3526.870117,320.639496 
	C3580.268066,326.405914 3621.649414,353.006805 3651.475830,396.693817 
	C3659.934570,386.955688 3667.682129,376.455139 3676.990723,367.594604 
	C3715.940186,330.519623 3762.591309,314.488220 3815.943848,320.847015 
	C3881.025146,328.603699 3926.198242,364.682983 3954.417969,422.814667 
	C3965.127686,444.876190 3968.786377,468.761017 3968.807617,493.147125 
	C3968.886230,583.636414 3968.840576,674.125916 3968.835693,764.615295 
	C3968.835693,765.437622 3968.756836,766.259949 3968.695801,767.457947 
	C3933.542725,767.457947 3898.470947,767.457947 3862.535645,767.457947 
	C3862.535645,749.950989 3862.535645,732.225281 3862.535645,713.999634 
z"/>
<path fill="#010101" opacity="1.000000" stroke="none" 
	d="
M2596.000000,113.830338 
	C2617.649170,113.830330 2638.798340,113.830330 2660.256592,113.830330 
	C2660.256592,331.817383 2660.256592,549.514404 2660.256592,767.524902 
	C2624.943848,767.524902 2589.739502,767.524902 2554.138916,767.524902 
	C2554.138916,749.835815 2554.138916,732.263123 2554.138916,713.584595 
	C2550.245361,718.311157 2547.182617,722.315430 2543.827148,726.057190 
	C2518.141846,754.698669 2486.951660,773.709656 2448.239502,777.797791 
	C2411.902344,781.635132 2376.414307,776.590454 2342.607178,762.515076 
	C2277.898926,735.574097 2232.491699,689.126404 2210.528809,622.703125 
	C2184.914551,545.237610 2197.597656,472.551056 2247.955322,408.042877 
	C2287.838135,356.953400 2341.072266,327.976410 2405.747559,321.493591 
	C2437.995850,318.261078 2469.617920,321.335632 2498.843506,337.234985 
	C2519.161865,348.288696 2536.477051,362.859802 2550.445557,381.344971 
	C2551.377441,382.578400 2552.346436,383.783966 2553.960693,385.851257 
	C2553.960693,294.626923 2553.960693,204.564011 2553.960693,113.830338 
	C2568.004639,113.830338 2581.752197,113.830338 2596.000000,113.830338 
M2365.093018,657.434570 
	C2383.958496,669.728882 2404.557861,676.129089 2427.163330,676.448914 
	C2459.546875,676.906982 2487.357422,666.079468 2509.481201,642.457214 
	C2550.744141,598.399597 2556.911133,527.585632 2524.464600,475.735992 
	C2490.093750,420.810547 2425.260254,409.131958 2375.918701,435.115692 
	C2332.498047,457.981720 2309.582764,495.178497 2307.647461,544.226501 
	C2305.763184,591.990234 2325.271240,629.643860 2365.093018,657.434570 
z"/>
<path fill="#B3A7FA" opacity="1.000000" stroke="none" 
	d="
M218.605927,591.391235 
	C220.959335,598.371399 223.159439,604.986145 225.862350,613.112549 
	C226.894577,610.464661 227.497238,609.096497 227.968384,607.684509 
	C245.656311,554.674500 263.310059,501.653137 281.017120,448.649506 
	C293.454071,411.421173 306.012726,374.233307 318.358032,336.974701 
	C319.593872,333.244720 321.156433,331.794464 325.315002,331.821045 
	C356.977814,332.023651 388.643097,332.025726 420.305847,331.818420 
	C424.463226,331.791199 425.932709,333.220764 427.172882,336.955963 
	C457.096161,427.080872 487.153320,517.161316 517.198669,607.245728 
	C517.767700,608.951843 518.485901,610.608276 519.487915,613.203125 
	C525.476379,595.525635 531.219849,578.763306 536.835388,561.958252 
	C552.332153,515.582947 567.747192,469.180359 583.250305,422.807190 
	C592.847168,394.101044 602.556519,365.432556 612.180969,336.735687 
	C613.117615,333.942932 613.908203,331.812378 617.797485,331.833557 
	C650.293823,332.010345 682.791626,331.936829 715.288940,331.950226 
	C715.939453,331.950470 716.590027,332.088562 717.936951,332.241333 
	C717.346741,334.130768 716.858765,335.787994 716.313171,337.425995 
	C694.132690,404.013092 671.993530,470.613953 649.749817,537.179932 
	C624.607422,612.420593 599.330322,687.616211 574.284241,762.888855 
	C572.916931,766.998291 571.022278,768.045715 566.934448,768.023804 
	C535.771240,767.856995 504.605927,767.825134 473.443359,768.046143 
	C468.682129,768.079895 466.554962,766.745850 465.014618,762.094788 
	C435.055756,671.631104 404.906708,581.230469 374.786133,490.820404 
	C374.214111,489.103333 373.515656,487.428375 372.563232,484.904480 
	C371.576050,487.384613 370.793091,489.094849 370.203705,490.869385 
	C340.166290,581.305481 310.106903,671.734253 280.238281,762.226013 
	C278.773682,766.663330 276.920868,768.083618 272.252197,768.049988 
	C240.923050,767.823975 209.590912,767.842407 178.261353,768.037537 
	C173.975479,768.064148 172.272125,766.642029 170.951065,762.665588 
	C134.980621,654.393066 98.894279,546.159058 62.778866,437.934753 
	C51.723167,404.804932 40.520760,371.724091 29.404121,338.614594 
	C28.784126,336.767975 28.334419,334.864197 27.615812,332.314056 
	C29.763926,332.158630 31.329334,331.947449 32.894875,331.946503 
	C64.225655,331.927185 95.556953,332.016266 126.886559,331.823730 
	C130.727203,331.800110 131.971588,333.325592 133.042542,336.558594 
	C144.443192,370.975311 155.924881,405.365417 167.475159,439.732269 
	C184.428787,490.176483 201.456482,540.595764 218.605927,591.391235 
z"/>
<path fill="#B3A7FA" opacity="1.000000" stroke="none" 
	d="
M1386.355469,753.656738 
	C1370.060669,742.619324 1356.516846,729.219604 1344.085083,712.769653 
	C1344.085083,731.698975 1344.085083,749.466980 1344.085083,767.578003 
	C1308.514893,767.578003 1273.620117,767.578003 1238.292725,767.578003 
	C1238.292725,549.847900 1238.292725,332.210358 1238.292725,114.252274 
	C1273.398438,114.252274 1308.298096,114.252274 1343.692139,114.252274 
	C1343.692139,204.320084 1343.692139,294.212677 1343.692139,385.429108 
	C1348.848389,379.558197 1353.045776,374.576477 1357.456787,369.791870 
	C1376.898193,348.704132 1399.816040,333.019043 1427.623291,325.043732 
	C1448.741699,318.986847 1470.237915,319.147430 1491.910767,320.806061 
	C1518.934814,322.874176 1544.560181,329.935760 1568.892334,341.628723 
	C1586.806152,350.237213 1603.312134,361.157257 1618.473267,374.034363 
	C1649.713013,400.567902 1672.417236,433.164246 1686.546509,471.566437 
	C1692.688721,488.260437 1697.179077,505.533844 1698.000977,523.424683 
	C1698.708374,538.823364 1699.680664,554.322449 1698.701538,569.660034 
	C1697.157715,593.838867 1690.898804,617.117371 1681.274170,639.414795 
	C1668.429810,669.171143 1650.125244,695.107483 1626.392578,717.151306 
	C1593.515869,747.688354 1555.217773,767.735107 1510.772949,774.892517 
	C1495.591553,777.337463 1480.061890,778.833923 1464.706421,778.721252 
	C1436.339478,778.513184 1409.964722,770.640686 1386.355469,753.656738 
M1393.574585,451.045013 
	C1387.375000,458.412506 1380.448486,465.291107 1375.105957,473.235016 
	C1355.559814,502.299286 1349.709839,534.757996 1354.233032,568.994873 
	C1358.670898,602.586121 1373.278076,631.136292 1400.126465,652.557800 
	C1426.272461,673.419067 1456.323120,679.727234 1488.865723,674.421265 
	C1518.761841,669.546753 1542.845459,654.154968 1561.647461,630.785034 
	C1589.548584,596.105225 1597.064453,556.691650 1585.960327,513.975037 
	C1578.605225,485.680664 1562.529419,462.727356 1538.871460,445.401581 
	C1511.623291,425.446594 1481.250854,418.311340 1447.874634,423.822327 
	C1427.175903,427.240021 1409.759521,437.101288 1393.574585,451.045013 
z"/>
<path fill="#000000" opacity="1.000000" stroke="none" 
	d="
M3073.939697,368.064240 
	C3080.532471,373.681915 3086.858154,379.066681 3091.805664,383.278107 
	C3090.569824,368.248413 3089.095703,350.321259 3087.597412,332.101685 
	C3123.059814,332.101685 3158.169922,332.101685 3193.640137,332.101685 
	C3193.640137,476.996674 3193.640137,622.066528 3193.640137,767.486816 
	C3158.583984,767.486816 3123.344727,767.486816 3087.526611,767.486816 
	C3085.942871,750.105469 3084.345459,732.576294 3082.690674,714.415894 
	C3081.737793,715.440430 3080.938965,716.100586 3080.383545,716.924866 
	C3057.656250,750.662476 3026.988281,772.269836 2986.123047,777.586243 
	C2958.011475,781.243408 2930.025879,778.845520 2903.081543,770.465454 
	C2818.364746,744.117126 2762.377930,688.219666 2740.080811,602.335327 
	C2721.101318,529.230347 2735.539551,461.127625 2783.288818,401.762543 
	C2816.915527,359.955322 2860.867676,333.774445 2913.622314,323.528381 
	C2946.905762,317.063995 2980.231934,317.157288 3012.642334,329.001923 
	C3035.790771,337.461609 3055.698975,351.162689 3073.939697,368.064240 
M3079.114258,548.507141 
	C3079.143066,530.167664 3076.020752,512.399109 3068.955566,495.450745 
	C3040.328369,426.777985 2969.035889,405.365051 2911.459229,434.547241 
	C2865.862793,457.657440 2843.206787,496.599884 2841.758057,547.780212 
	C2839.710205,620.132141 2899.262207,676.546936 2961.227539,676.519104 
	C2996.172852,676.503418 3025.282715,664.321228 3047.964111,637.844482 
	C3069.649902,612.529724 3079.169434,582.627930 3079.114258,548.507141 
z"/>
<path fill="#B3A7FA" opacity="1.000000" stroke="none" 
	d="
M1942.104858,778.933228 
	C1828.675049,775.484375 1750.140747,680.708801 1752.420776,584.351562 
	C1753.959839,584.258972 1755.551025,584.080627 1757.142212,584.079773 
	C1789.140503,584.063538 1821.139404,584.160889 1853.136475,583.965210 
	C1857.834717,583.936523 1858.826782,585.499512 1859.113159,589.944580 
	C1861.175537,621.962524 1876.418091,645.829834 1904.257446,661.759827 
	C1918.081787,669.670166 1933.248169,672.797974 1948.788818,672.723816 
	C1971.336426,672.616089 1991.458008,664.792053 2008.521851,649.881226 
	C2024.866089,635.599426 2036.098145,617.963745 2038.565918,596.228943 
	C2042.280151,563.515442 2034.455933,533.622437 2000.457031,511.877686 
	C1980.296387,498.983521 1957.624634,493.270599 1934.016235,490.970215 
	C1924.612549,490.053925 1915.188354,489.348450 1905.357666,488.511627 
	C1905.357666,461.710785 1905.357666,434.806274 1905.357666,407.367645 
	C1911.421265,406.931335 1917.648071,406.411835 1923.883911,406.047333 
	C1946.070801,404.750488 1967.195435,399.675690 1986.695312,388.664917 
	C2015.921265,372.162079 2026.587158,342.050018 2020.443237,312.115051 
	C2013.960449,280.529144 1987.329224,255.985413 1955.367798,252.228210 
	C1932.011108,249.482498 1910.856445,256.175446 1892.221069,270.401794 
	C1877.573120,281.584259 1866.285400,295.229279 1862.563477,313.923950 
	C1862.176758,315.865997 1862.192505,317.885101 1861.878296,319.845520 
	C1861.567505,321.785858 1861.075317,323.697113 1860.624268,325.800598 
	C1825.480591,325.800598 1790.563965,325.800598 1754.264160,325.800598 
	C1755.306641,315.758789 1755.719849,306.003113 1757.412964,296.474792 
	C1764.460938,256.809143 1784.357788,224.100861 1813.643555,197.128220 
	C1840.755615,172.157578 1872.609497,155.398163 1908.868042,148.422394 
	C1949.373779,140.629532 1988.784668,145.130630 2025.781250,164.036514 
	C2069.838379,186.550415 2101.902832,220.717285 2118.366699,267.514587 
	C2135.488037,316.181030 2131.573242,363.783447 2104.548340,408.507416 
	C2095.214600,423.953796 2081.917969,435.399658 2065.036865,443.528229 
	C2069.764648,445.774109 2074.026855,447.565796 2078.072266,449.758026 
	C2105.649414,464.702789 2121.479492,489.315216 2132.853027,517.325684 
	C2141.892090,539.586548 2146.255371,562.964417 2145.796143,586.937439 
	C2145.103271,623.092773 2135.700928,656.780090 2115.379395,687.141785 
	C2088.310547,727.584045 2052.139893,756.019958 2005.559692,770.602844 
	C1985.123413,777.000854 1964.019043,779.473511 1942.104858,778.933228 
z"/>
<path fill="#B3A7FA" opacity="1.000000" stroke="none" 
	d="
M984.877686,321.017334 
	C1009.768738,324.309601 1032.994263,331.371765 1054.864868,342.900238 
	C1086.271729,359.455383 1111.701782,382.615631 1131.909790,411.697327 
	C1152.157227,440.835785 1165.114624,473.019745 1171.642456,507.764099 
	C1175.621094,528.941345 1176.227783,550.365723 1174.154297,571.838989 
	C1173.724243,576.292114 1173.325562,580.748352 1172.863892,585.727173 
	C1066.715698,585.727173 960.814514,585.727173 853.595276,585.727173 
	C856.517578,593.832703 858.621826,601.274902 861.803833,608.223633 
	C877.561951,642.635376 903.480835,664.536865 941.294128,670.928345 
	C980.389465,677.536499 1012.070129,664.072571 1037.457886,634.350220 
	C1037.998657,633.717102 1038.759888,633.184326 1039.071167,632.456360 
	C1043.551758,621.978210 1051.046997,622.459534 1060.688477,624.929932 
	C1091.235352,632.757019 1122.016113,639.671814 1152.705444,646.943420 
	C1153.333130,647.092163 1153.949097,647.290466 1155.648071,647.769409 
	C1150.040405,657.783997 1145.051147,667.712708 1139.126831,677.047852 
	C1128.926392,693.120789 1116.819580,707.745911 1102.759644,720.621399 
	C1076.471191,744.695374 1046.617310,762.547485 1011.971436,771.863342 
	C990.282593,777.695190 968.122314,780.147705 945.804749,778.737549 
	C902.541565,776.003906 863.365967,761.793518 829.188110,734.676697 
	C787.351990,701.483643 759.703430,659.071289 746.679077,607.260376 
	C740.719177,583.551941 738.813782,559.354370 740.168762,535.018372 
	C742.470703,493.673584 754.932617,455.379517 777.392395,420.637695 
	C804.825562,378.202850 842.230042,347.713074 889.989441,330.752441 
	C911.056030,323.271118 932.955627,319.127197 955.519836,319.878967 
	C965.157654,320.200073 974.792175,320.621857 984.877686,321.017334 
M893.500000,506.000000 
	C950.540466,506.000000 1007.580994,506.000000 1064.910889,506.000000 
	C1064.712158,504.543152 1064.672485,503.894073 1064.531250,503.267883 
	C1056.953735,469.641418 1038.181396,443.995544 1008.638489,426.539062 
	C981.269409,410.367096 952.027893,407.209106 922.480774,419.034119 
	C887.308472,433.110382 864.677124,459.474030 853.327209,495.539551 
	C852.315063,498.755615 851.722168,502.103607 850.788513,506.000000 
	C865.239929,506.000000 878.869995,506.000000 893.500000,506.000000 
z"/>
<path fill="#FEFEFE" opacity="1.000000" stroke="none" 
	d="
M2364.792236,657.232483 
	C2325.271240,629.643860 2305.763184,591.990234 2307.647461,544.226501 
	C2309.582764,495.178497 2332.498047,457.981720 2375.918701,435.115692 
	C2425.260254,409.131958 2490.093750,420.810547 2524.464600,475.735992 
	C2556.911133,527.585632 2550.744141,598.399597 2509.481201,642.457214 
	C2487.357422,666.079468 2459.546875,676.906982 2427.163330,676.448914 
	C2404.557861,676.129089 2383.958496,669.728882 2364.792236,657.232483 
z"/>
<path fill="#FFFFFF" opacity="1.000000" stroke="none" 
	d="
M1393.832520,450.800598 
	C1409.759521,437.101288 1427.175903,427.240021 1447.874634,423.822327 
	C1481.250854,418.311340 1511.623291,425.446594 1538.871460,445.401581 
	C1562.529419,462.727356 1578.605225,485.680664 1585.960327,513.975037 
	C1597.064453,556.691650 1589.548584,596.105225 1561.647461,630.785034 
	C1542.845459,654.154968 1518.761841,669.546753 1488.865723,674.421265 
	C1456.323120,679.727234 1426.272461,673.419067 1400.126465,652.557800 
	C1373.278076,631.136292 1358.670898,602.586121 1354.233032,568.994873 
	C1349.709839,534.757996 1355.559814,502.299286 1375.105957,473.235016 
	C1380.448486,465.291107 1387.375000,458.412506 1393.832520,450.800598 
z"/>
<path fill="#FFFFFF" opacity="1.000000" stroke="none" 
	d="
M3079.123535,549.003662 
	C3079.169434,582.627930 3069.649902,612.529724 3047.964111,637.844482 
	C3025.282715,664.321228 2996.172852,676.503418 2961.227539,676.519104 
	C2899.262207,676.546936 2839.710205,620.132141 2841.758057,547.780212 
	C2843.206787,496.599884 2865.862793,457.657440 2911.459229,434.547241 
	C2969.035889,405.365051 3040.328369,426.777985 3068.955566,495.450745 
	C3076.020752,512.399109 3079.143066,530.167664 3079.123535,549.003662 
z"/>
<path fill="#FFFFFF" opacity="1.000000" stroke="none" 
	d="
M893.000000,506.000000 
	C878.869995,506.000000 865.239929,506.000000 850.788513,506.000000 
	C851.722168,502.103607 852.315063,498.755615 853.327209,495.539551 
	C864.677124,459.474030 887.308472,433.110382 922.480774,419.034119 
	C952.027893,407.209106 981.269409,410.367096 1008.638489,426.539062 
	C1038.181396,443.995544 1056.953735,469.641418 1064.531250,503.267883 
	C1064.672485,503.894073 1064.712158,504.543152 1064.910889,506.000000 
	C1007.580994,506.000000 950.540466,506.000000 893.000000,506.000000 
z"/>
</svg>