<svg version="1.1" id="Layer_1" xmlns="http://www.w3.org/2000/svg" xmlns:xlink="http://www.w3.org/1999/xlink" x="0px" y="0px"
	 width="100%" viewBox="0 0 2450 1280" enable-background="new 0 0 2450 1280" xml:space="preserve">
<path fill="#000000" opacity="1.000000" stroke="none" 
	d="
M1399.000000,1281.000000 
	C933.098572,1281.000000 467.197083,1281.000000 1.000000,1281.000000 
	C1.000000,1097.970703 1.000000,914.941284 1.362534,731.366577 
	C2.802118,732.628113 4.116267,734.336975 4.911399,736.260315 
	C7.227614,741.863159 9.247169,747.588257 11.542712,753.200073 
	C19.014349,771.465698 26.599375,789.684937 34.061535,807.954407 
	C42.949955,829.715942 51.716049,851.527405 60.609009,873.287048 
	C71.052528,898.840698 81.570351,924.364014 92.067558,949.895691 
	C94.658272,956.197021 97.294090,962.479797 100.299820,969.710815 
	C122.130058,917.170105 143.483719,865.776428 165.286987,813.300659 
	C187.177521,865.824036 208.618179,917.267944 230.558502,969.910767 
	C264.041992,887.655579 297.000671,806.689575 330.236481,725.042786 
	C314.973175,725.042786 300.370056,724.976868 285.770874,725.186646 
	C284.767029,725.201111 283.403473,727.115417 282.869171,728.417664 
	C279.807617,735.879944 276.966187,743.432312 274.013123,750.939514 
	C265.348297,772.967102 256.588104,794.957520 248.016037,817.021118 
	C241.501053,833.789978 235.216736,850.648438 228.396088,868.609070 
	C207.675858,817.723022 187.405518,767.941895 166.564728,716.759766 
	C145.529587,768.080322 125.140854,817.823792 104.443748,868.319641 
	C85.560028,820.069580 66.963142,772.552429 48.352448,725.000000 
	C32.320724,725.000000 16.660362,725.000000 1.000000,725.000000 
	C1.000000,483.718079 1.000000,242.436157 1.000000,1.000000 
	C404.029358,1.000000 807.058777,1.000000 1210.879883,1.335388 
	C1210.834595,2.110847 1210.037476,2.817019 1209.154053,2.950000 
	C1199.807861,4.356956 1190.294312,5.010722 1181.121460,7.141078 
	C1156.396606,12.883377 1131.570435,18.410515 1107.237305,25.563753 
	C1074.291382,35.248970 1042.737183,48.722961 1011.999390,64.572342 
	C1011.999390,73.321022 1011.881958,82.148918 1012.070312,90.970284 
	C1012.127380,93.643501 1011.300171,94.874832 1008.887085,96.109268 
	C998.921021,101.207550 989.198730,106.782860 979.227783,111.871017 
	C975.450928,113.798309 973.655823,116.037079 973.889832,120.517303 
	C974.288757,128.155670 973.999756,135.829971 973.999756,143.374420 
	C970.271057,145.438828 966.757324,147.421555 963.209473,149.341278 
	C953.652954,154.512268 944.038635,159.579300 934.570312,164.906403 
	C933.354004,165.590714 932.095520,167.618896 932.179138,168.940842 
	C932.486267,173.797806 933.151001,178.656647 934.040833,183.447952 
	C937.622009,202.731064 940.867310,222.093552 945.113281,241.232224 
	C951.572388,270.346161 961.738342,298.314941 974.221985,325.336700 
	C985.176514,349.048492 998.108398,371.726318 1012.999939,393.262634 
	C1028.781250,416.085754 1046.490356,437.324677 1065.857544,457.115295 
	C1075.969238,467.447998 1086.875732,477.076447 1098.010864,486.314575 
	C1110.543701,496.712280 1123.320923,506.922821 1136.750488,516.105286 
	C1153.608887,527.632202 1171.031006,538.381348 1188.610229,548.790100 
	C1199.443726,555.204651 1210.962036,560.486450 1222.330322,565.949158 
	C1224.188232,566.841858 1227.197021,566.758972 1229.098267,565.880798 
	C1235.239380,563.044495 1241.036255,559.474609 1247.101074,556.459595 
	C1272.153198,544.005249 1295.871460,529.399536 1318.628784,513.132080 
	C1344.279053,494.796722 1368.678955,475.029083 1389.828003,451.564392 
	C1402.229004,437.805664 1414.353271,423.766174 1425.995605,409.362885 
	C1441.638306,390.010803 1454.741699,368.897919 1465.927368,346.703522 
	C1473.496338,331.685455 1480.311890,316.266754 1486.959229,300.810059 
	C1496.825928,277.867371 1503.559082,253.844788 1508.794678,229.521561 
	C1513.094849,209.544342 1515.687256,189.196335 1518.824097,168.979691 
	C1519.015381,167.747253 1517.680908,165.604156 1516.473633,164.932129 
	C1503.450562,157.684143 1490.310547,150.646545 1477.000122,143.441833 
	C1477.000122,135.212814 1477.154663,126.882217 1476.870483,118.566589 
	C1476.813232,116.891457 1475.501099,114.564438 1474.073486,113.740753 
	C1462.575439,107.106934 1450.911255,100.761177 1439.000366,94.162575 
	C1439.000366,85.508537 1439.122803,76.513115 1438.880615,67.527519 
	C1438.839844,66.020203 1437.578003,63.811844 1436.275513,63.185207 
	C1422.120605,56.375694 1408.115356,49.137867 1393.544922,43.333279 
	C1364.263916,31.668247 1334.545898,21.133125 1303.544556,14.855484 
	C1283.033325,10.702057 1262.441284,6.948925 1241.903198,2.925274 
	C1241.171265,2.781873 1240.630127,1.663797 1240.000000,0.999989 
	C1643.588745,1.000000 2047.177612,1.000000 2451.000000,1.000000 
	C2451.000000,309.029327 2451.000000,617.058716 2450.636230,925.664429 
	C2447.787354,922.266663 2445.922852,917.678345 2442.705566,914.429077 
	C2431.090820,902.697998 2406.295410,903.501709 2397.821533,920.704651 
	C2392.356689,931.798889 2393.659912,946.469482 2403.826660,955.005493 
	C2418.933350,967.689270 2442.000732,962.113892 2448.984863,943.984192 
	C2449.293701,943.182983 2450.312012,942.655151 2451.000000,942.000000 
	C2451.000000,1054.966431 2451.000000,1167.932983 2451.000000,1281.000000 
	C2101.637207,1281.000000 1752.274536,1281.000000 1402.475098,1280.633789 
	C1407.820679,1268.239746 1413.547607,1256.185059 1419.398315,1244.190796 
	C1427.782349,1227.002686 1436.272461,1209.866333 1444.687378,1192.693237 
	C1452.599121,1176.546875 1460.412231,1160.352051 1468.375122,1144.230957 
	C1483.144043,1114.331421 1498.020874,1084.485352 1512.776978,1054.579468 
	C1515.494751,1049.071167 1517.853882,1043.385742 1520.730957,1037.000000 
	C1507.288696,1037.000000 1494.952148,1037.518433 1482.688110,1036.799805 
	C1475.666138,1036.388306 1471.775391,1038.681274 1469.899902,1045.145020 
	C1469.812866,1045.445435 1469.511719,1045.677246 1469.377930,1045.971802 
	C1458.898926,1069.031616 1448.443481,1092.102295 1437.948730,1115.155029 
	C1429.220703,1134.327026 1420.478149,1153.492554 1411.675415,1172.630127 
	C1408.686279,1179.128540 1405.494019,1185.533325 1402.040161,1192.718506 
	C1396.512573,1180.777832 1391.448120,1169.764771 1386.321777,1158.780762 
	C1378.444458,1141.902222 1370.493652,1125.058105 1362.630005,1108.173218 
	C1352.135620,1085.639771 1341.655762,1063.099365 1331.285034,1040.508789 
	C1330.079346,1037.882568 1328.607056,1036.871094 1325.681519,1036.932373 
	C1316.687012,1037.120605 1307.685913,1037.000244 1298.687378,1037.000000 
	C1292.937256,1036.999878 1287.187256,1037.000000 1280.817871,1037.000000 
	C1285.669434,1047.290527 1290.052979,1056.825195 1294.638428,1066.261963 
	C1302.930054,1083.326172 1311.353027,1100.326660 1319.700928,1117.363647 
	C1327.758789,1133.808594 1335.771729,1150.275635 1343.839722,1166.715576 
	C1352.190308,1183.731445 1360.553345,1200.741577 1368.967163,1217.726196 
	C1376.525879,1232.984619 1384.269043,1248.152588 1391.705933,1263.469604 
	C1394.465820,1269.153687 1396.587402,1275.147461 1399.000000,1281.000000 
M1949.855347,811.299377 
	C1945.816528,826.153442 1945.165283,841.154724 1946.815063,856.469177 
	C1948.354370,870.759521 1952.180176,884.339050 1958.638306,896.976074 
	C1965.761475,910.915039 1975.020264,923.330383 1987.068237,933.768860 
	C2006.547607,950.645813 2029.060791,960.418152 2054.400635,962.762878 
	C2072.918213,964.476318 2091.215088,962.179382 2108.907471,955.217407 
	C2142.018066,942.188477 2164.787598,918.769104 2177.709473,886.247253 
	C2185.764160,865.975769 2187.770508,844.529358 2184.167725,822.589661 
	C2179.045654,791.394409 2164.331055,765.976685 2139.774902,746.383972 
	C2112.264160,724.433777 2080.455811,716.956360 2046.163330,722.341248 
	C2018.419922,726.697754 1994.774414,739.744751 1976.080811,761.304749 
	C1963.551270,775.755676 1954.640869,791.943726 1949.855347,811.299377 
M1276.038208,1131.430420 
	C1274.010864,1118.966431 1269.590698,1107.354980 1263.671265,1096.248047 
	C1254.739136,1079.488647 1242.386353,1065.756958 1226.844482,1054.961792 
	C1199.088379,1035.682861 1168.370605,1030.004883 1135.394897,1036.004272 
	C1102.292480,1042.026611 1076.510986,1059.927490 1058.301880,1087.605469 
	C1040.153442,1115.191040 1034.808105,1146.056152 1040.999512,1178.620728 
	C1046.732422,1208.774292 1061.742065,1233.328735 1086.328247,1251.848511 
	C1115.170776,1273.574341 1147.733276,1280.791016 1182.716431,1273.611206 
	C1219.853882,1265.989502 1247.423828,1244.533936 1265.074219,1210.736694 
	C1271.703369,1198.043213 1275.950073,1184.597534 1277.311646,1170.334595 
	C1278.525024,1157.624512 1278.878662,1144.902588 1276.038208,1131.430420 
M875.496948,795.999878 
	C872.074951,792.910461 868.549133,789.927673 865.248718,786.713562 
	C849.174805,771.060913 833.186523,755.320374 817.115417,739.664917 
	C809.516174,732.262268 801.806641,724.972656 794.122009,717.658142 
	C793.470215,717.037781 792.628174,716.617249 791.332520,715.734680 
	C791.332520,797.092651 791.332520,877.769226 791.332520,958.581787 
	C805.631531,958.581787 819.659912,958.581787 834.288818,958.581787 
	C834.288818,909.359131 834.288818,860.552063 834.288818,811.322449 
	C841.860229,818.355835 848.950134,824.826660 855.909241,831.435242 
	C864.928711,840.000305 873.843994,848.675110 882.803955,857.302795 
	C891.764099,865.930420 900.724548,874.557678 909.684204,883.185730 
	C918.763855,891.929504 927.885254,900.630310 936.912659,909.427673 
	C953.102417,925.205200 969.193726,941.084106 985.421753,956.822021 
	C989.462036,960.740112 993.867188,964.282043 998.631287,968.458679 
	C998.631287,886.800598 998.631287,806.107971 998.631287,725.309875 
	C984.017151,725.309875 969.773315,725.309875 954.958862,725.309875 
	C954.958862,774.131653 954.958862,822.647766 954.958862,871.891602 
	C951.514893,869.053345 948.622986,866.940430 946.044922,864.496582 
	C937.017883,855.939758 928.063599,847.305176 919.147156,838.632874 
	C904.736389,824.616760 890.377563,810.547241 875.496948,795.999878 
M1545.000000,772.500000 
	C1545.000000,834.566101 1545.000000,896.632141 1545.000000,959.000000 
	C1547.831543,959.000000 1549.817017,959.000000 1551.802490,959.000000 
	C1577.130737,959.000000 1602.460327,958.844482 1627.786621,959.066833 
	C1640.132690,959.175232 1652.031860,957.249329 1663.546753,952.964722 
	C1679.902832,946.878662 1693.116455,937.022705 1700.608276,920.761780 
	C1706.264160,908.485657 1707.809204,895.485107 1705.833496,882.216675 
	C1703.959473,869.629578 1698.203247,858.667969 1688.645142,850.335327 
	C1680.876221,843.562439 1672.006470,838.161621 1661.239624,835.697327 
	C1662.368896,834.963745 1663.038452,834.500183 1663.734863,834.081177 
	C1670.368408,830.088806 1676.659180,825.860291 1681.420532,819.420532 
	C1690.148682,807.615906 1693.274414,794.429565 1691.917847,780.137756 
	C1690.842651,768.811462 1687.361816,758.183716 1679.811401,749.351379 
	C1664.989258,732.012085 1644.950806,725.950867 1623.309692,725.193542 
	C1599.177490,724.349121 1574.992798,725.000000 1550.831055,725.000000 
	C1549.055664,725.000000 1547.280151,725.000000 1545.000000,725.000000 
	C1545.000000,740.922241 1545.000000,756.211121 1545.000000,772.500000 
M506.872559,1174.137939 
	C508.712006,1158.267090 508.831940,1142.479736 505.004181,1126.816162 
	C497.246704,1095.072144 478.994019,1070.872925 451.302887,1054.124146 
	C431.105377,1041.907959 408.440033,1037.421387 385.038025,1037.068970 
	C363.543915,1036.745239 342.041077,1036.994385 320.542084,1037.010864 
	C318.785980,1037.012207 317.030029,1037.165527 315.360870,1037.244263 
	C315.360870,1115.751709 315.360870,1193.661377 315.360870,1272.000000 
	C317.515594,1272.000000 319.320953,1272.000000 321.126282,1272.000000 
	C340.958679,1272.000000 360.791595,1271.912354 380.623260,1272.032837 
	C392.564209,1272.105347 404.378143,1271.701416 416.147247,1269.098145 
	C442.943146,1263.170776 465.165283,1249.492920 482.537842,1228.709839 
	C495.425781,1213.291748 503.554443,1195.114990 506.872559,1174.137939 
M1894.439697,1141.862427 
	C1901.144043,1127.465088 1902.468262,1112.431030 1900.047485,1096.863525 
	C1896.642090,1074.963501 1884.173462,1059.617920 1865.310547,1049.166870 
	C1848.116089,1039.640137 1829.042847,1037.568237 1809.861694,1037.103149 
	C1790.540283,1036.634888 1771.198608,1037.000122 1751.865845,1037.000000 
	C1750.086792,1037.000000 1748.307861,1037.000000 1746.426147,1037.000000 
	C1746.426147,1115.643921 1746.426147,1193.671997 1746.426147,1271.630371 
	C1761.101318,1271.630371 1775.347290,1271.630371 1790.105713,1271.630371 
	C1790.105713,1241.683838 1790.105713,1212.101929 1790.105713,1182.000366 
	C1795.738037,1182.000366 1800.895752,1181.664185 1805.974609,1182.151245 
	C1808.290161,1182.373413 1811.126953,1183.672974 1812.552612,1185.434692 
	C1816.775757,1190.653320 1820.295166,1196.433350 1824.302124,1201.836426 
	C1840.657104,1223.889771 1857.077515,1245.894653 1873.514526,1267.887207 
	C1875.495605,1270.537964 1877.635498,1272.274048 1881.633667,1272.155273 
	C1895.287842,1271.750000 1908.961548,1272.000000 1922.627808,1272.000000 
	C1924.335571,1272.000000 1926.043457,1272.000000 1928.678345,1272.000000 
	C1903.986206,1238.888184 1880.056274,1206.798462 1856.046997,1174.602295 
	C1871.893311,1168.248047 1884.650269,1159.717407 1894.439697,1141.862427 
M1249.000000,822.500000 
	C1249.000000,867.895569 1249.000000,913.291077 1249.000000,958.644958 
	C1264.079468,958.644958 1278.321533,958.644958 1293.064453,958.644958 
	C1293.064453,928.721313 1293.064453,899.147644 1293.064453,869.000427 
	C1298.674438,869.000427 1303.822388,868.669250 1308.893799,869.148560 
	C1311.218506,869.368286 1314.170532,870.591858 1315.511963,872.364014 
	C1326.410767,886.761353 1336.970581,901.414917 1347.682617,915.954346 
	C1357.345825,929.070129 1367.098389,942.120117 1376.745972,955.247314 
	C1378.724365,957.939514 1380.887451,959.191711 1384.503662,959.115601 
	C1398.158569,958.828003 1411.823242,959.008667 1425.484253,958.989075 
	C1427.213379,958.986572 1428.942261,958.836060 1430.691650,958.753113 
	C1430.612061,957.892395 1430.699585,957.487305 1430.536621,957.269043 
	C1407.744873,926.721924 1385.023193,896.121460 1362.017334,865.736206 
	C1359.033325,861.794983 1360.482300,861.265747 1363.947754,859.748352 
	C1378.785645,853.251526 1390.361206,843.024780 1397.770996,828.474731 
	C1403.561401,817.104431 1404.582275,804.865112 1404.036133,792.323730 
	C1403.332397,776.163940 1397.841431,761.955994 1386.680908,750.273804 
	C1370.288452,733.115112 1349.192749,726.096924 1326.262817,725.206055 
	C1302.475220,724.281982 1278.623657,725.000122 1254.800171,725.000000 
	C1253.028076,725.000000 1251.255981,725.000000 1249.000000,725.000000 
	C1249.000000,757.605225 1249.000000,789.552612 1249.000000,822.500000 
M1886.996216,845.503662 
	C1893.185547,839.815552 1897.814453,833.114136 1901.081543,825.312805 
	C1906.778809,811.708008 1907.052979,797.684448 1904.990112,783.426086 
	C1902.683105,767.479980 1894.964478,754.173584 1882.608643,744.370117 
	C1865.583740,730.862305 1845.478149,725.084534 1823.787964,725.015686 
	C1801.460571,724.944885 1779.133057,725.000000 1756.805542,725.000000 
	C1755.032715,725.000000 1753.259766,725.000000 1751.427612,725.000000 
	C1751.427612,803.339722 1751.427612,881.021667 1751.427612,958.632446 
	C1766.101562,958.632446 1780.344727,958.632446 1795.094238,958.632446 
	C1795.094238,928.692871 1795.094238,899.116089 1795.094238,869.001465 
	C1800.881470,869.001465 1806.189941,868.737732 1811.448608,869.134705 
	C1813.475342,869.287720 1816.044189,870.437134 1817.246094,871.996155 
	C1824.354614,881.215698 1831.110962,890.705994 1838.028320,900.073608 
	C1851.687378,918.570679 1865.408447,937.022034 1879.011597,955.559937 
	C1880.953857,958.206665 1883.151611,959.123718 1886.435425,959.079163 
	C1900.262573,958.891663 1914.093750,959.009460 1927.923462,958.986755 
	C1929.481689,958.984192 1931.039795,958.799927 1933.371460,958.650330 
	C1909.080811,926.065491 1885.289185,894.150085 1862.242554,863.234070 
	C1870.801514,857.153259 1878.647949,851.578613 1886.996216,845.503662 
M693.349976,856.897644 
	C701.544067,852.739319 708.450867,847.002686 714.083435,839.764954 
	C726.571899,823.717407 730.055054,805.492126 727.020203,785.714417 
	C724.567749,769.732666 717.774658,756.268799 705.240051,745.607117 
	C689.008057,731.800537 669.821838,725.948975 649.214600,725.198120 
	C625.752319,724.343201 602.234924,725.000122 578.741516,725.000000 
	C576.974915,724.999939 575.208374,725.000000 573.449097,725.000000 
	C573.449097,803.384460 573.449097,881.065613 573.449097,958.611206 
	C588.144897,958.611206 602.388611,958.611206 617.136169,958.611206 
	C617.136169,928.650208 617.136169,899.073792 617.136169,869.024963 
	C623.432556,869.024963 629.227844,868.924316 635.013000,869.121277 
	C636.010986,869.155334 637.205139,870.272095 637.903870,871.195129 
	C645.141846,880.756775 652.323975,890.361206 659.468811,899.992798 
	C672.295349,917.283752 685.200623,934.518494 697.814758,951.963440 
	C701.211670,956.661194 704.474182,959.562256 710.973633,959.196167 
	C723.098450,958.513367 735.289124,959.000000 747.452393,959.000000 
	C749.693420,959.000000 751.934509,959.000000 755.280273,959.000000 
	C730.668579,926.015381 706.757446,893.969666 682.896790,861.991577 
	C686.462036,860.202026 689.546143,858.653992 693.349976,856.897644 
M1685.455322,1272.000000 
	C1688.539917,1272.000000 1691.624512,1272.000000 1694.634521,1272.000000 
	C1694.634521,1259.243774 1694.634521,1247.332153 1694.634521,1234.909180 
	C1660.361328,1234.909180 1626.449219,1234.909180 1592.422607,1234.909180 
	C1592.422607,1213.359863 1592.422607,1192.331543 1592.422607,1170.790649 
	C1623.755005,1170.790649 1654.667480,1170.790649 1685.694092,1170.790649 
	C1685.694092,1158.361206 1685.694092,1146.450439 1685.694092,1133.848389 
	C1654.362305,1133.848389 1623.328613,1133.848389 1592.364136,1133.848389 
	C1592.364136,1113.574951 1592.364136,1093.997070 1592.364136,1073.907959 
	C1626.303101,1073.907959 1659.882202,1073.907959 1693.576538,1073.907959 
	C1693.576538,1061.358276 1693.576538,1049.329346 1693.576538,1037.381714 
	C1645.247314,1037.381714 1597.342529,1037.381714 1549.310913,1037.381714 
	C1549.310913,1115.665771 1549.310913,1193.567627 1549.310913,1272.000000 
	C1594.569702,1272.000000 1639.519531,1272.000000 1685.455322,1272.000000 
M1098.000000,811.455017 
	C1098.000000,794.714905 1098.000000,777.974792 1098.000000,760.732727 
	C1132.147217,760.732727 1165.394043,760.732727 1198.664062,760.732727 
	C1198.664062,748.633057 1198.664062,737.054504 1198.664062,725.453857 
	C1150.300415,725.453857 1102.274048,725.453857 1054.391235,725.453857 
	C1054.391235,803.482544 1054.391235,881.056763 1054.391235,958.668579 
	C1103.025879,958.668579 1151.268677,958.668579 1199.548462,958.668579 
	C1199.548462,946.634644 1199.548462,934.937622 1199.548462,922.732971 
	C1165.519409,922.732971 1131.939331,922.732971 1098.334717,922.732971 
	C1098.334717,900.968811 1098.334717,879.724365 1098.334717,857.787354 
	C1129.362549,857.787354 1160.062988,857.787354 1190.603516,857.787354 
	C1190.603516,845.175171 1190.603516,833.262024 1190.603516,820.842163 
	C1159.630371,820.842163 1129.049805,820.842163 1098.000000,820.842163 
	C1098.000000,817.705994 1098.000000,815.072571 1098.000000,811.455017 
M518.500122,959.000000 
	C526.722351,959.000000 534.944580,959.000000 543.861023,959.000000 
	C503.746460,877.169373 464.025787,796.142151 423.788300,714.060608 
	C420.520905,721.102905 417.686981,727.468079 414.639771,733.729431 
	C406.127930,751.219238 397.522491,768.663513 388.964172,786.130737 
	C381.200867,801.975403 373.466278,817.834106 365.691071,833.672913 
	C356.902435,851.576233 348.085327,869.465515 339.275604,887.358459 
	C328.204285,909.844849 317.122009,932.325867 306.069885,954.821777 
	C305.473969,956.034790 305.113220,957.363281 304.557220,958.870605 
	C320.616608,958.870605 336.090149,958.870605 351.247284,958.870605 
	C358.866180,942.865173 366.318787,927.058167 374.003448,911.364746 
	C374.590363,910.166077 376.815918,909.106567 378.284485,909.100403 
	C409.101807,908.971252 439.919861,908.976685 470.737244,909.097412 
	C472.030609,909.102478 473.987854,910.162231 474.506317,911.262817 
	C480.194458,923.338013 485.868774,935.428711 491.120392,947.697754 
	C495.915863,958.901184 495.685059,959.000000 508.005005,959.000000 
	C511.170074,959.000000 514.335144,959.000000 518.500122,959.000000 
M2367.218750,878.444214 
	C2365.311523,866.999878 2360.173096,857.147278 2351.712891,849.321716 
	C2339.974365,838.463928 2325.718994,831.623474 2311.390625,824.887451 
	C2297.095215,818.166687 2282.748779,811.458435 2268.973877,803.762024 
	C2261.236816,799.438904 2256.884521,791.791748 2258.153809,782.418457 
	C2260.175293,767.490601 2272.775635,760.224792 2284.965576,759.075378 
	C2303.499023,757.327637 2320.277344,762.790894 2335.472900,773.096558 
	C2342.751465,778.033142 2349.500000,783.751770 2357.000000,789.508728 
	C2357.000000,776.012634 2356.662109,762.905029 2357.174561,749.830750 
	C2357.366211,744.938477 2355.335693,741.984924 2351.970215,739.608582 
	C2327.421631,722.274841 2300.220459,717.108826 2271.027100,723.201233 
	C2251.687744,727.237122 2236.062012,737.392273 2225.186279,754.252441 
	C2220.176270,762.019043 2217.812988,770.670471 2216.629395,779.709900 
	C2214.356201,797.066650 2217.739014,812.834351 2229.701172,826.213196 
	C2241.504395,839.414734 2257.506348,846.099487 2272.724854,853.976624 
	C2287.292236,861.516724 2302.384277,868.149719 2316.453857,876.513794 
	C2330.133545,884.646240 2329.107910,907.754272 2316.079834,917.012573 
	C2304.061035,925.553528 2290.570557,926.249084 2277.119141,924.676392 
	C2259.942139,922.668091 2244.302979,915.695862 2230.147461,905.589539 
	C2225.062012,901.958923 2219.778320,898.605774 2214.000000,894.733826 
	C2214.000000,908.915466 2214.102539,922.237244 2213.932129,935.555481 
	C2213.885986,939.168762 2215.328369,941.237305 2218.245850,943.168030 
	C2231.155273,951.710205 2245.148926,957.579956 2260.296387,960.606750 
	C2279.209229,964.386047 2298.171631,964.679871 2316.687256,958.854797 
	C2336.927490,952.487244 2353.305176,941.158264 2362.594971,921.042847 
	C2368.849609,907.500000 2368.292725,893.391113 2367.218750,878.444214 
M792.999573,1211.282715 
	C792.666016,1204.674316 792.670471,1198.027710 791.926453,1191.465820 
	C790.500916,1178.892456 784.060852,1168.363159 774.767334,1160.651123 
	C765.892944,1153.286621 755.460632,1147.579712 745.159180,1142.206055 
	C729.546265,1134.061768 713.246033,1127.236816 697.616760,1119.121582 
	C677.352112,1108.599609 680.049133,1088.378174 691.564758,1079.216919 
	C699.865784,1072.613037 709.951416,1071.035400 720.677612,1071.864624 
	C737.195129,1073.141846 751.547852,1079.336426 764.569885,1089.140259 
	C770.123352,1093.321045 775.534607,1097.690796 781.663635,1102.485718 
	C781.809326,1100.064819 781.983337,1098.485596 781.986755,1096.906006 
	C782.010681,1085.740112 781.704041,1074.562866 782.127319,1063.413086 
	C782.332092,1058.019043 780.065002,1054.800659 775.989136,1051.962524 
	C762.775940,1042.762329 748.379456,1036.851074 732.295776,1034.860474 
	C710.551514,1032.169067 689.790894,1034.438232 670.774658,1046.113159 
	C659.694763,1052.915771 651.582092,1062.388550 646.247559,1074.323486 
	C641.524231,1084.891113 640.290710,1095.962036 641.050354,1107.302246 
	C641.843567,1119.143555 645.980469,1129.646606 654.048767,1138.619263 
	C665.648865,1151.519287 680.973206,1158.460205 696.083557,1165.918945 
	C711.255676,1173.408081 726.468628,1180.892456 741.137085,1189.297852 
	C751.953979,1195.496338 754.214966,1213.651733 746.862854,1223.728394 
	C739.569214,1233.725220 728.947266,1236.711060 717.714050,1237.882935 
	C701.137329,1239.612427 685.450073,1235.321777 670.925354,1227.785889 
	C659.849548,1222.039307 649.558960,1214.779297 639.000061,1208.242798 
	C639.000061,1221.154419 639.110962,1234.625488 638.928589,1248.092773 
	C638.877808,1251.846558 640.108643,1254.137695 643.322876,1256.175049 
	C668.020447,1271.828369 694.682861,1278.457031 723.910156,1275.130493 
	C739.109131,1273.400635 753.097168,1268.956299 765.500122,1259.968384 
	C781.768616,1248.179199 790.875305,1232.195435 792.999573,1211.282715 
M967.450012,1274.002441 
	C979.400818,1271.960327 990.678833,1268.016479 1001.385986,1262.313232 
	C1004.588623,1260.607300 1006.175476,1258.643677 1006.100525,1254.715210 
	C1005.840149,1241.058594 1006.007446,1227.393799 1005.989258,1213.732178 
	C1005.987244,1212.219482 1005.838989,1210.707153 1005.682678,1207.769287 
	C989.872742,1225.263184 970.640625,1232.650024 949.317505,1233.774536 
	C927.546082,1234.922852 907.893494,1227.718994 892.160400,1212.472290 
	C863.847595,1185.034790 859.976624,1141.818359 882.217651,1108.732178 
	C891.996643,1094.184937 905.797180,1083.874512 922.742859,1079.346924 
	C954.004822,1070.993896 981.922852,1077.650391 1005.960205,1101.949829 
	C1005.960205,1084.275391 1005.989441,1068.015503 1005.881958,1051.756592 
	C1005.875977,1050.855469 1004.928040,1049.670776 1004.089050,1049.120605 
	C1001.754517,1047.589355 999.322754,1046.159058 996.794495,1044.977661 
	C972.644470,1033.692749 947.389954,1031.250366 921.354553,1035.991333 
	C890.314575,1041.643555 865.859009,1058.026367 847.190674,1083.035156 
	C834.545532,1099.974976 827.218750,1119.138672 824.819519,1140.330322 
	C823.273254,1153.987427 823.609985,1167.479370 826.469421,1180.757202 
	C830.540710,1199.661743 838.830200,1216.687988 851.146729,1231.783813 
	C864.162659,1247.737061 880.173523,1259.372681 899.169800,1267.148315 
	C909.762939,1271.484253 920.632996,1274.126709 932.065857,1275.277588 
	C943.700378,1276.448608 955.134705,1276.242065 967.450012,1274.002441 
M1940.489014,1070.050049 
	C1946.997314,1079.713745 1953.479858,1089.394897 1960.018921,1099.037720 
	C1974.496582,1120.387451 1989.066895,1141.675049 2003.403564,1163.119019 
	C2004.933350,1165.406982 2005.876587,1168.558350 2005.891479,1171.315796 
	C2006.062378,1202.801147 2006.000000,1234.287964 2006.000000,1265.774292 
	C2006.000000,1267.706055 2006.000000,1269.637817 2006.000000,1271.706299 
	C2021.288330,1271.706299 2035.862305,1271.706299 2051.000000,1271.706299 
	C2051.000000,1269.468994 2051.000000,1267.517578 2051.000000,1265.566162 
	C2051.000000,1234.079834 2050.964844,1202.593262 2051.078125,1171.107300 
	C2051.085693,1168.983643 2051.749756,1166.565552 2052.894287,1164.791138 
	C2059.926514,1153.888184 2067.114014,1143.082764 2074.382812,1132.335083 
	C2091.391113,1107.187378 2108.500732,1082.108398 2125.508789,1056.960571 
	C2129.778320,1050.647949 2133.818115,1044.180054 2138.458008,1037.020630 
	C2121.635986,1037.020630 2105.846191,1036.982544 2090.057861,1037.108643 
	C2089.033447,1037.116821 2087.694580,1038.164795 2087.048096,1039.104858 
	C2072.999756,1059.534546 2059.024170,1080.014526 2045.045410,1100.491943 
	C2039.559326,1108.528564 2034.098877,1116.582764 2028.356445,1125.026489 
	C2026.935425,1123.244629 2025.827759,1122.034668 2024.919189,1120.690063 
	C2006.890747,1094.008911 1988.877075,1067.317871 1970.889893,1040.608887 
	C1969.231934,1038.147095 1967.446167,1036.822510 1964.095581,1036.889282 
	C1950.606812,1037.157837 1937.109497,1036.991699 1923.615356,1037.013672 
	C1922.179810,1037.015991 1920.744507,1037.197144 1918.277344,1037.365967 
	C1919.870972,1039.845825 1920.990112,1041.676758 1922.196045,1043.448486 
	C1928.116211,1052.145386 1934.059570,1060.826294 1940.489014,1070.050049 
M580.496094,1272.000000 
	C585.582458,1272.000000 590.668823,1272.000000 595.999817,1272.000000 
	C595.999817,1269.140381 595.999878,1267.150635 595.999878,1265.160889 
	C595.999878,1231.662720 595.999939,1198.164673 595.999939,1164.666504 
	C595.999939,1124.002075 595.919067,1083.337280 596.109009,1042.673706 
	C596.131042,1037.955078 594.692932,1036.784424 590.195618,1036.901978 
	C578.870667,1037.198120 567.532776,1036.989136 556.200073,1037.013062 
	C554.598206,1037.016479 552.996643,1037.190063 551.315979,1037.289551 
	C551.315979,1115.667603 551.315979,1193.573975 551.315979,1272.000000 
	C560.914429,1272.000000 570.206116,1272.000000 580.496094,1272.000000 
z"/>
<path fill="#FEC200" opacity="1.000000" stroke="none" 
	d="
M1239.531372,0.999989 
	C1240.630127,1.663797 1241.171265,2.781873 1241.903198,2.925274 
	C1262.441284,6.948925 1283.033325,10.702057 1303.544556,14.855484 
	C1334.545898,21.133125 1364.263916,31.668247 1393.544922,43.333279 
	C1408.115356,49.137867 1422.120605,56.375694 1436.275513,63.185207 
	C1437.578003,63.811844 1438.839844,66.020203 1438.880615,67.527519 
	C1439.122803,76.513115 1439.000366,85.508537 1439.000366,94.162575 
	C1450.911255,100.761177 1462.575439,107.106934 1474.073486,113.740753 
	C1475.501099,114.564438 1476.813232,116.891457 1476.870483,118.566589 
	C1477.154663,126.882217 1477.000122,135.212814 1477.000122,143.441833 
	C1490.310547,150.646545 1503.450562,157.684143 1516.473633,164.932129 
	C1517.680908,165.604156 1519.015381,167.747253 1518.824097,168.979691 
	C1515.687256,189.196335 1513.094849,209.544342 1508.794678,229.521561 
	C1503.559082,253.844788 1496.825928,277.867371 1486.959229,300.810059 
	C1480.311890,316.266754 1473.496338,331.685455 1465.927368,346.703522 
	C1454.741699,368.897919 1441.638306,390.010803 1425.995605,409.362885 
	C1414.353271,423.766174 1402.229004,437.805664 1389.828003,451.564392 
	C1368.678955,475.029083 1344.279053,494.796722 1318.628784,513.132080 
	C1295.871460,529.399536 1272.153198,544.005249 1247.101074,556.459595 
	C1241.036255,559.474609 1235.239380,563.044495 1229.098267,565.880798 
	C1227.197021,566.758972 1224.188232,566.841858 1222.330322,565.949158 
	C1210.962036,560.486450 1199.443726,555.204651 1188.610229,548.790100 
	C1171.031006,538.381348 1153.608887,527.632202 1136.750488,516.105286 
	C1123.320923,506.922821 1110.543701,496.712280 1098.010864,486.314575 
	C1086.875732,477.076447 1075.969238,467.447998 1065.857544,457.115295 
	C1046.490356,437.324677 1028.781250,416.085754 1012.999939,393.262634 
	C998.108398,371.726318 985.176514,349.048492 974.221985,325.336700 
	C961.738342,298.314941 951.572388,270.346161 945.113281,241.232224 
	C940.867310,222.093552 937.622009,202.731064 934.040833,183.447952 
	C933.151001,178.656647 932.486267,173.797806 932.179138,168.940842 
	C932.095520,167.618896 933.354004,165.590714 934.570312,164.906403 
	C944.038635,159.579300 953.652954,154.512268 963.209473,149.341278 
	C966.757324,147.421555 970.271057,145.438828 973.999756,143.374420 
	C973.999756,135.829971 974.288757,128.155670 973.889832,120.517303 
	C973.655823,116.037079 975.450928,113.798309 979.227783,111.871017 
	C989.198730,106.782860 998.921021,101.207550 1008.887085,96.109268 
	C1011.300171,94.874832 1012.127380,93.643501 1012.070312,90.970284 
	C1011.881958,82.148918 1011.999390,73.321022 1011.999390,64.572342 
	C1042.737183,48.722961 1074.291382,35.248970 1107.237305,25.563753 
	C1131.570435,18.410515 1156.396606,12.883377 1181.121460,7.141078 
	C1190.294312,5.010722 1199.807861,4.356956 1209.154053,2.950000 
	C1210.037476,2.817019 1210.834595,2.110847 1211.335938,1.335388 
	C1220.354248,1.000000 1229.708496,1.000000 1239.531372,0.999989 
M1097.414062,438.498932 
	C1107.549927,447.359131 1117.685669,456.219360 1128.126221,465.689636 
	C1138.694336,473.483978 1149.262451,481.278290 1160.161255,489.674225 
	C1174.076294,498.183655 1187.991333,506.693054 1202.278809,515.775696 
	C1209.141602,519.429871 1215.963867,523.164490 1222.904785,526.663574 
	C1224.142578,527.287598 1226.177002,527.528320 1227.325439,526.938049 
	C1234.652100,523.172607 1241.833618,519.125122 1249.771484,515.039001 
	C1265.873047,504.755310 1281.974609,494.471619 1298.707153,483.884033 
	C1299.160034,483.401367 1299.562256,482.855591 1300.073242,482.445221 
	C1314.378174,470.956512 1328.694336,459.481476 1343.638550,447.773895 
	C1360.696411,431.798981 1377.113281,415.229126 1391.791504,396.114471 
	C1406.156494,377.799530 1419.549927,358.838928 1430.846436,337.720734 
	C1449.937256,303.182983 1463.793091,266.614960 1472.829102,228.243851 
	C1475.635498,216.325684 1477.554321,204.198380 1479.873047,192.165573 
	C1480.737305,187.681091 1479.933472,184.483780 1475.001099,182.411102 
	C1468.768799,179.792130 1462.954468,176.168350 1456.995117,172.913361 
	C1452.060181,170.217957 1445.281128,168.551773 1442.801392,164.366364 
	C1440.306030,160.154526 1441.353638,153.280243 1442.197876,147.779648 
	C1443.618896,138.518875 1440.051880,133.095169 1431.478394,130.371887 
	C1431.008179,130.222565 1430.527222,130.107483 1429.660767,129.399307 
	C1426.172729,127.527809 1422.675903,125.672256 1419.198608,123.780983 
	C1414.268433,121.099426 1407.402954,119.535049 1404.966431,115.380630 
	C1402.414673,111.029945 1404.020386,104.181824 1403.988403,98.424316 
	C1403.920044,86.108803 1403.967529,86.108543 1391.605835,81.083031 
	C1377.444702,75.590866 1363.283691,70.098701 1348.592041,64.143143 
	C1333.151855,59.710770 1317.711548,55.278397 1301.704224,50.310528 
	C1294.657837,48.685959 1287.651733,46.852158 1280.555420,45.486782 
	C1270.404663,43.533672 1260.187744,41.923096 1249.196167,40.006023 
	C1234.539185,35.819931 1219.809570,35.415817 1204.172363,39.041695 
	C1192.114624,41.411133 1180.056885,43.780571 1167.213013,46.062893 
	C1154.749146,49.345825 1142.285278,52.628757 1129.049194,55.909126 
	C1120.699585,58.606644 1112.349976,61.304161 1103.225342,63.982254 
	C1095.458252,66.912285 1087.691162,69.842316 1079.171753,72.874451 
	C1072.323975,75.704964 1065.656982,79.157249 1058.584229,81.214706 
	C1048.901611,84.031372 1044.951050,89.642448 1046.967285,99.512085 
	C1047.194702,100.625648 1046.798828,101.867126 1047.029297,102.979408 
	C1048.947754,112.238655 1045.626831,118.395073 1036.456177,121.203117 
	C1036.195190,121.283028 1036.027710,121.667824 1035.110962,121.987694 
	C1027.520752,126.062859 1019.976746,130.228027 1012.314148,134.162125 
	C1009.789856,135.458160 1008.726746,136.978577 1008.838806,139.921326 
	C1009.085632,146.405762 1008.720215,152.914139 1008.988586,159.396866 
	C1009.149292,163.280090 1008.164978,165.546768 1004.355103,167.446869 
	C992.815735,173.201965 981.571045,179.547745 970.474731,185.521637 
	C970.680054,188.939865 970.478149,191.986862 971.099121,194.855774 
	C974.624512,211.142578 977.813904,227.529068 982.110718,243.616409 
	C991.507080,278.796326 1005.134399,312.303528 1023.890198,344.348480 
	C1035.481445,361.280365 1047.072754,378.212250 1058.896973,395.798401 
	C1060.222046,397.485931 1061.443848,399.268036 1062.888550,400.846100 
	C1074.237793,413.242828 1085.629639,425.600494 1097.414062,438.498932 
z"/>
<path fill="#0022AF" opacity="1.000000" stroke="none" 
	d="
M1.000000,725.428467 
	C16.660362,725.000000 32.320724,725.000000 48.352448,725.000000 
	C66.963142,772.552429 85.560028,820.069580 104.443748,868.319641 
	C125.140854,817.823792 145.529587,768.080322 166.564728,716.759766 
	C187.405518,767.941895 207.675858,817.723022 228.396088,868.609070 
	C235.216736,850.648438 241.501053,833.789978 248.016037,817.021118 
	C256.588104,794.957520 265.348297,772.967102 274.013123,750.939514 
	C276.966187,743.432312 279.807617,735.879944 282.869171,728.417664 
	C283.403473,727.115417 284.767029,725.201111 285.770874,725.186646 
	C300.370056,724.976868 314.973175,725.042786 330.236481,725.042786 
	C297.000671,806.689575 264.041992,887.655579 230.558502,969.910767 
	C208.618179,917.267944 187.177521,865.824036 165.286987,813.300659 
	C143.483719,865.776428 122.130058,917.170105 100.299820,969.710815 
	C97.294090,962.479797 94.658272,956.197021 92.067558,949.895691 
	C81.570351,924.364014 71.052528,898.840698 60.609009,873.287048 
	C51.716049,851.527405 42.949955,829.715942 34.061535,807.954407 
	C26.599375,789.684937 19.014349,771.465698 11.542712,753.200073 
	C9.247169,747.588257 7.227614,741.863159 4.911399,736.260315 
	C4.116267,734.336975 2.802118,732.628113 1.362534,730.910645 
	C1.000000,729.285645 1.000000,727.571289 1.000000,725.428467 
z"/>
<path fill="#0022AF" opacity="1.000000" stroke="none" 
	d="
M1399.375000,1281.000000 
	C1396.587402,1275.147461 1394.465820,1269.153687 1391.705933,1263.469604 
	C1384.269043,1248.152588 1376.525879,1232.984619 1368.967163,1217.726196 
	C1360.553345,1200.741577 1352.190308,1183.731445 1343.839722,1166.715576 
	C1335.771729,1150.275635 1327.758789,1133.808594 1319.700928,1117.363647 
	C1311.353027,1100.326660 1302.930054,1083.326172 1294.638428,1066.261963 
	C1290.052979,1056.825195 1285.669434,1047.290527 1280.817871,1037.000000 
	C1287.187256,1037.000000 1292.937256,1036.999878 1298.687378,1037.000000 
	C1307.685913,1037.000244 1316.687012,1037.120605 1325.681519,1036.932373 
	C1328.607056,1036.871094 1330.079346,1037.882568 1331.285034,1040.508789 
	C1341.655762,1063.099365 1352.135620,1085.639771 1362.630005,1108.173218 
	C1370.493652,1125.058105 1378.444458,1141.902222 1386.321777,1158.780762 
	C1391.448120,1169.764771 1396.512573,1180.777832 1402.040161,1192.718506 
	C1405.494019,1185.533325 1408.686279,1179.128540 1411.675415,1172.630127 
	C1420.478149,1153.492554 1429.220703,1134.327026 1437.948730,1115.155029 
	C1448.443481,1092.102295 1458.898926,1069.031616 1469.377930,1045.971802 
	C1469.511719,1045.677246 1469.812866,1045.445435 1469.899902,1045.145020 
	C1471.775391,1038.681274 1475.666138,1036.388306 1482.688110,1036.799805 
	C1494.952148,1037.518433 1507.288696,1037.000000 1520.730957,1037.000000 
	C1517.853882,1043.385742 1515.494751,1049.071167 1512.776978,1054.579468 
	C1498.020874,1084.485352 1483.144043,1114.331421 1468.375122,1144.230957 
	C1460.412231,1160.352051 1452.599121,1176.546875 1444.687378,1192.693237 
	C1436.272461,1209.866333 1427.782349,1227.002686 1419.398315,1244.190796 
	C1413.547607,1256.185059 1407.820679,1268.239746 1402.019287,1280.633789 
	C1401.250000,1281.000000 1400.500000,1281.000000 1399.375000,1281.000000 
z"/>
<path fill="#0022AF" opacity="1.000000" stroke="none" 
	d="
M2451.000000,941.533081 
	C2450.312012,942.655151 2449.293701,943.182983 2448.984863,943.984192 
	C2442.000732,962.113892 2418.933350,967.689270 2403.826660,955.005493 
	C2393.659912,946.469482 2392.356689,931.798889 2397.821533,920.704651 
	C2406.295410,903.501709 2431.090820,902.697998 2442.705566,914.429077 
	C2445.922852,917.678345 2447.787354,922.266663 2450.636230,926.120361 
	C2451.000000,931.022095 2451.000000,936.044189 2451.000000,941.533081 
z"/>
<path fill="#0022AF" opacity="1.000000" stroke="none" 
	d="
M1949.912354,810.887695 
	C1954.640869,791.943726 1963.551270,775.755676 1976.080811,761.304749 
	C1994.774414,739.744751 2018.419922,726.697754 2046.163330,722.341248 
	C2080.455811,716.956360 2112.264160,724.433777 2139.774902,746.383972 
	C2164.331055,765.976685 2179.045654,791.394409 2184.167725,822.589661 
	C2187.770508,844.529358 2185.764160,865.975769 2177.709473,886.247253 
	C2164.787598,918.769104 2142.018066,942.188477 2108.907471,955.217407 
	C2091.215088,962.179382 2072.918213,964.476318 2054.400635,962.762878 
	C2029.060791,960.418152 2006.547607,950.645813 1987.068237,933.768860 
	C1975.020264,923.330383 1965.761475,910.915039 1958.638306,896.976074 
	C1952.180176,884.339050 1948.354370,870.759521 1946.815063,856.469177 
	C1945.165283,841.154724 1945.816528,826.153442 1949.912354,810.887695 
M2088.106934,918.892029 
	C2089.438232,918.256592 2090.729248,917.511780 2092.107178,917.002319 
	C2106.134521,911.816040 2117.415283,903.076416 2126.034180,890.878418 
	C2137.200928,875.074646 2141.767334,857.502441 2141.093994,838.192688 
	C2140.373047,817.509766 2133.346436,799.394714 2119.022705,784.771790 
	C2101.364014,766.743713 2079.657227,759.044983 2054.278076,762.947144 
	C2029.599243,766.741638 2011.854370,780.494385 2000.192749,801.893555 
	C1990.545654,819.596069 1987.758545,838.627686 1991.892212,858.735413 
	C1996.958618,883.380920 2010.038574,902.027222 2032.075806,913.902405 
	C2049.572266,923.330811 2068.236572,924.371582 2088.106934,918.892029 
z"/>
<path fill="#0022AF" opacity="1.000000" stroke="none" 
	d="
M1276.095459,1131.862549 
	C1278.878662,1144.902588 1278.525024,1157.624512 1277.311646,1170.334595 
	C1275.950073,1184.597534 1271.703369,1198.043213 1265.074219,1210.736694 
	C1247.423828,1244.533936 1219.853882,1265.989502 1182.716431,1273.611206 
	C1147.733276,1280.791016 1115.170776,1273.574341 1086.328247,1251.848511 
	C1061.742065,1233.328735 1046.732422,1208.774292 1040.999512,1178.620728 
	C1034.808105,1146.056152 1040.153442,1115.191040 1058.301880,1087.605469 
	C1076.510986,1059.927490 1102.292480,1042.026611 1135.394897,1036.004272 
	C1168.370605,1030.004883 1199.088379,1035.682861 1226.844482,1054.961792 
	C1242.386353,1065.756958 1254.739136,1079.488647 1263.671265,1096.248047 
	C1269.590698,1107.354980 1274.010864,1118.966431 1276.095459,1131.862549 
M1223.114258,1196.598145 
	C1232.960938,1179.492676 1236.008179,1161.163818 1233.020142,1141.736572 
	C1229.730835,1120.350952 1220.157227,1102.360840 1202.689941,1089.476440 
	C1172.192993,1066.981201 1132.798828,1070.392456 1105.980347,1096.657959 
	C1092.170776,1110.182739 1084.792725,1127.315063 1083.192139,1146.362183 
	C1081.389526,1167.812256 1085.926880,1187.860474 1099.732788,1205.265747 
	C1117.500732,1227.665894 1140.194580,1237.756592 1168.739014,1234.032715 
	C1192.942383,1230.875366 1210.255859,1217.526123 1223.114258,1196.598145 
z"/>
<path fill="#0022AF" opacity="1.000000" stroke="none" 
	d="
M875.746826,796.250122 
	C890.377563,810.547241 904.736389,824.616760 919.147156,838.632874 
	C928.063599,847.305176 937.017883,855.939758 946.044922,864.496582 
	C948.622986,866.940430 951.514893,869.053345 954.958862,871.891602 
	C954.958862,822.647766 954.958862,774.131653 954.958862,725.309875 
	C969.773315,725.309875 984.017151,725.309875 998.631287,725.309875 
	C998.631287,806.107971 998.631287,886.800598 998.631287,968.458679 
	C993.867188,964.282043 989.462036,960.740112 985.421753,956.822021 
	C969.193726,941.084106 953.102417,925.205200 936.912659,909.427673 
	C927.885254,900.630310 918.763855,891.929504 909.684204,883.185730 
	C900.724548,874.557678 891.764099,865.930420 882.803955,857.302795 
	C873.843994,848.675110 864.928711,840.000305 855.909241,831.435242 
	C848.950134,824.826660 841.860229,818.355835 834.288818,811.322449 
	C834.288818,860.552063 834.288818,909.359131 834.288818,958.581787 
	C819.659912,958.581787 805.631531,958.581787 791.332520,958.581787 
	C791.332520,877.769226 791.332520,797.092651 791.332520,715.734680 
	C792.628174,716.617249 793.470215,717.037781 794.122009,717.658142 
	C801.806641,724.972656 809.516174,732.262268 817.115417,739.664917 
	C833.186523,755.320374 849.174805,771.060913 865.248718,786.713562 
	C868.549133,789.927673 872.074951,792.910461 875.746826,796.250122 
z"/>
<path fill="#0022AF" opacity="1.000000" stroke="none" 
	d="
M1545.000000,772.000000 
	C1545.000000,756.211121 1545.000000,740.922241 1545.000000,725.000000 
	C1547.280151,725.000000 1549.055664,725.000000 1550.831055,725.000000 
	C1574.992798,725.000000 1599.177490,724.349121 1623.309692,725.193542 
	C1644.950806,725.950867 1664.989258,732.012085 1679.811401,749.351379 
	C1687.361816,758.183716 1690.842651,768.811462 1691.917847,780.137756 
	C1693.274414,794.429565 1690.148682,807.615906 1681.420532,819.420532 
	C1676.659180,825.860291 1670.368408,830.088806 1663.734863,834.081177 
	C1663.038452,834.500183 1662.368896,834.963745 1661.239624,835.697327 
	C1672.006470,838.161621 1680.876221,843.562439 1688.645142,850.335327 
	C1698.203247,858.667969 1703.959473,869.629578 1705.833496,882.216675 
	C1707.809204,895.485107 1706.264160,908.485657 1700.608276,920.761780 
	C1693.116455,937.022705 1679.902832,946.878662 1663.546753,952.964722 
	C1652.031860,957.249329 1640.132690,959.175232 1627.786621,959.066833 
	C1602.460327,958.844482 1577.130737,959.000000 1551.802490,959.000000 
	C1549.817017,959.000000 1547.831543,959.000000 1545.000000,959.000000 
	C1545.000000,896.632141 1545.000000,834.566101 1545.000000,772.000000 
M1647.259644,915.914612 
	C1648.470093,914.785461 1649.622070,913.584656 1650.900391,912.538513 
	C1660.783081,904.451538 1664.573975,890.833557 1659.836548,878.844360 
	C1654.410767,865.113281 1642.034424,857.858887 1626.871826,857.111877 
	C1615.419556,856.547607 1603.917114,856.987427 1592.437012,857.017456 
	C1591.023560,857.021179 1589.610474,857.254517 1588.360596,857.366760 
	C1588.360596,879.470459 1588.360596,901.022034 1588.360596,922.068115 
	C1599.953857,922.068115 1611.183350,921.893250 1622.404419,922.124573 
	C1631.058960,922.302979 1639.039307,920.294495 1647.259644,915.914612 
M1622.484131,762.945862 
	C1611.191772,762.070740 1599.899536,761.195618 1588.415527,760.305603 
	C1588.415527,782.316711 1588.415527,802.999634 1588.415527,824.821960 
	C1600.752686,823.841064 1612.736084,823.735291 1624.385132,821.708618 
	C1634.712036,819.911865 1643.252930,814.159424 1646.974854,803.470398 
	C1653.569458,784.531067 1643.490601,767.201233 1622.484131,762.945862 
z"/>
<path fill="#0022AF" opacity="1.000000" stroke="none" 
	d="
M506.701111,1174.546143 
	C503.554443,1195.114990 495.425781,1213.291748 482.537842,1228.709839 
	C465.165283,1249.492920 442.943146,1263.170776 416.147247,1269.098145 
	C404.378143,1271.701416 392.564209,1272.105347 380.623260,1272.032837 
	C360.791595,1271.912354 340.958679,1272.000000 321.126282,1272.000000 
	C319.320953,1272.000000 317.515594,1272.000000 315.360870,1272.000000 
	C315.360870,1193.661377 315.360870,1115.751709 315.360870,1037.244263 
	C317.030029,1037.165527 318.785980,1037.012207 320.542084,1037.010864 
	C342.041077,1036.994385 363.543915,1036.745239 385.038025,1037.068970 
	C408.440033,1037.421387 431.105377,1041.907959 451.302887,1054.124146 
	C478.994019,1070.872925 497.246704,1095.072144 505.004181,1126.816162 
	C508.831940,1142.479736 508.712006,1158.267090 506.701111,1174.546143 
M359.000000,1160.500000 
	C359.000000,1185.227661 359.000000,1209.955322 359.000000,1235.000122 
	C369.464630,1235.000122 379.108734,1235.137695 388.747589,1234.971313 
	C408.201385,1234.635620 425.311157,1227.650391 439.042419,1214.208130 
	C461.170532,1192.545898 468.397430,1165.682251 461.686340,1135.759277 
	C455.947449,1110.170898 441.081757,1090.935669 416.290588,1080.939697 
	C408.211121,1077.682007 399.279633,1075.849976 390.578278,1075.000732 
	C380.298462,1073.997314 369.845734,1074.765137 359.000000,1074.765137 
	C359.000000,1102.955933 359.000000,1131.227905 359.000000,1160.500000 
z"/>
<path fill="#0022AF" opacity="1.000000" stroke="none" 
	d="
M1894.282227,1142.211426 
	C1884.650269,1159.717407 1871.893311,1168.248047 1856.046997,1174.602295 
	C1880.056274,1206.798462 1903.986206,1238.888184 1928.678345,1272.000000 
	C1926.043457,1272.000000 1924.335571,1272.000000 1922.627808,1272.000000 
	C1908.961548,1272.000000 1895.287842,1271.750000 1881.633667,1272.155273 
	C1877.635498,1272.274048 1875.495605,1270.537964 1873.514526,1267.887207 
	C1857.077515,1245.894653 1840.657104,1223.889771 1824.302124,1201.836426 
	C1820.295166,1196.433350 1816.775757,1190.653320 1812.552612,1185.434692 
	C1811.126953,1183.672974 1808.290161,1182.373413 1805.974609,1182.151245 
	C1800.895752,1181.664185 1795.738037,1182.000366 1790.105713,1182.000366 
	C1790.105713,1212.101929 1790.105713,1241.683838 1790.105713,1271.630371 
	C1775.347290,1271.630371 1761.101318,1271.630371 1746.426147,1271.630371 
	C1746.426147,1193.671997 1746.426147,1115.643921 1746.426147,1037.000000 
	C1748.307861,1037.000000 1750.086792,1037.000000 1751.865845,1037.000000 
	C1771.198608,1037.000122 1790.540283,1036.634888 1809.861694,1037.103149 
	C1829.042847,1037.568237 1848.116089,1039.640137 1865.310547,1049.166870 
	C1884.173462,1059.617920 1896.642090,1074.963501 1900.047485,1096.863525 
	C1902.468262,1112.431030 1901.144043,1127.465088 1894.282227,1142.211426 
M1838.522583,1079.866211 
	C1823.167603,1071.960938 1806.715454,1074.244629 1790.282471,1074.124390 
	C1790.282471,1098.265869 1790.282471,1121.839844 1790.282471,1146.508545 
	C1802.811401,1145.942749 1815.237671,1146.651123 1827.142334,1144.488159 
	C1839.146240,1142.306885 1849.705322,1135.853882 1853.969360,1123.173584 
	C1859.312988,1107.282959 1855.756958,1090.263062 1838.522583,1079.866211 
z"/>
<path fill="#0022AF" opacity="1.000000" stroke="none" 
	d="
M1249.000000,822.000000 
	C1249.000000,789.552612 1249.000000,757.605225 1249.000000,725.000000 
	C1251.255981,725.000000 1253.028076,725.000000 1254.800171,725.000000 
	C1278.623657,725.000122 1302.475220,724.281982 1326.262817,725.206055 
	C1349.192749,726.096924 1370.288452,733.115112 1386.680908,750.273804 
	C1397.841431,761.955994 1403.332397,776.163940 1404.036133,792.323730 
	C1404.582275,804.865112 1403.561401,817.104431 1397.770996,828.474731 
	C1390.361206,843.024780 1378.785645,853.251526 1363.947754,859.748352 
	C1360.482300,861.265747 1359.033325,861.794983 1362.017334,865.736206 
	C1385.023193,896.121460 1407.744873,926.721924 1430.536621,957.269043 
	C1430.699585,957.487305 1430.612061,957.892395 1430.691650,958.753113 
	C1428.942261,958.836060 1427.213379,958.986572 1425.484253,958.989075 
	C1411.823242,959.008667 1398.158569,958.828003 1384.503662,959.115601 
	C1380.887451,959.191711 1378.724365,957.939514 1376.745972,955.247314 
	C1367.098389,942.120117 1357.345825,929.070129 1347.682617,915.954346 
	C1336.970581,901.414917 1326.410767,886.761353 1315.511963,872.364014 
	C1314.170532,870.591858 1311.218506,869.368286 1308.893799,869.148560 
	C1303.822388,868.669250 1298.674438,869.000427 1293.064453,869.000427 
	C1293.064453,899.147644 1293.064453,928.721313 1293.064453,958.644958 
	C1278.321533,958.644958 1264.079468,958.644958 1249.000000,958.644958 
	C1249.000000,913.291077 1249.000000,867.895569 1249.000000,822.000000 
M1319.187500,761.006409 
	C1310.595093,761.006409 1302.002808,761.006409 1293.283813,761.006409 
	C1293.283813,785.289124 1293.283813,808.852661 1293.283813,833.492737 
	C1305.793823,832.951843 1318.226196,833.733276 1330.135986,831.598999 
	C1349.345215,828.156494 1357.480469,816.050781 1358.856812,803.119385 
	C1361.123535,781.821350 1351.936890,770.723267 1335.472412,764.384033 
	C1330.640747,762.523743 1325.253174,762.106995 1319.187500,761.006409 
z"/>
<path fill="#0022AF" opacity="1.000000" stroke="none" 
	d="
M1886.745361,845.753845 
	C1878.647949,851.578613 1870.801514,857.153259 1862.242554,863.234070 
	C1885.289185,894.150085 1909.080811,926.065491 1933.371460,958.650330 
	C1931.039795,958.799927 1929.481689,958.984192 1927.923462,958.986755 
	C1914.093750,959.009460 1900.262573,958.891663 1886.435425,959.079163 
	C1883.151611,959.123718 1880.953857,958.206665 1879.011597,955.559937 
	C1865.408447,937.022034 1851.687378,918.570679 1838.028320,900.073608 
	C1831.110962,890.705994 1824.354614,881.215698 1817.246094,871.996155 
	C1816.044189,870.437134 1813.475342,869.287720 1811.448608,869.134705 
	C1806.189941,868.737732 1800.881470,869.001465 1795.094238,869.001465 
	C1795.094238,899.116089 1795.094238,928.692871 1795.094238,958.632446 
	C1780.344727,958.632446 1766.101562,958.632446 1751.427612,958.632446 
	C1751.427612,881.021667 1751.427612,803.339722 1751.427612,725.000000 
	C1753.259766,725.000000 1755.032715,725.000000 1756.805542,725.000000 
	C1779.133057,725.000000 1801.460571,724.944885 1823.787964,725.015686 
	C1845.478149,725.084534 1865.583740,730.862305 1882.608643,744.370117 
	C1894.964478,754.173584 1902.683105,767.479980 1904.990112,783.426086 
	C1907.052979,797.684448 1906.778809,811.708008 1901.081543,825.312805 
	C1897.814453,833.114136 1893.185547,839.815552 1886.745361,845.753845 
M1795.000000,802.500000 
	C1795.000000,812.573669 1795.000000,822.647400 1795.000000,833.510315 
	C1807.777100,832.969604 1819.818848,833.420044 1831.553345,831.732910 
	C1848.157593,829.345459 1861.889038,816.806885 1861.214844,795.767151 
	C1860.798462,782.774963 1852.694092,770.954346 1840.825806,765.722534 
	C1826.115479,759.237976 1810.742432,761.397766 1795.727173,761.039856 
	C1795.357056,761.955994 1795.133301,762.252686 1795.132080,762.550354 
	C1795.075684,775.533508 1795.038940,788.516785 1795.000000,802.500000 
z"/>
<path fill="#0022AF" opacity="1.000000" stroke="none" 
	d="
M692.990112,857.001831 
	C689.546143,858.653992 686.462036,860.202026 682.896790,861.991577 
	C706.757446,893.969666 730.668579,926.015381 755.280273,959.000000 
	C751.934509,959.000000 749.693420,959.000000 747.452393,959.000000 
	C735.289124,959.000000 723.098450,958.513367 710.973633,959.196167 
	C704.474182,959.562256 701.211670,956.661194 697.814758,951.963440 
	C685.200623,934.518494 672.295349,917.283752 659.468811,899.992798 
	C652.323975,890.361206 645.141846,880.756775 637.903870,871.195129 
	C637.205139,870.272095 636.010986,869.155334 635.013000,869.121277 
	C629.227844,868.924316 623.432556,869.024963 617.136169,869.024963 
	C617.136169,899.073792 617.136169,928.650208 617.136169,958.611206 
	C602.388611,958.611206 588.144897,958.611206 573.449097,958.611206 
	C573.449097,881.065613 573.449097,803.384460 573.449097,725.000000 
	C575.208374,725.000000 576.974915,724.999939 578.741516,725.000000 
	C602.234924,725.000122 625.752319,724.343201 649.214600,725.198120 
	C669.821838,725.948975 689.008057,731.800537 705.240051,745.607117 
	C717.774658,756.268799 724.567749,769.732666 727.020203,785.714417 
	C730.055054,805.492126 726.571899,823.717407 714.083435,839.764954 
	C708.450867,847.002686 701.544067,852.739319 692.990112,857.001831 
M679.134888,813.543457 
	C687.305786,797.572876 682.275391,777.519653 667.855957,768.430359 
	C660.544006,763.821350 652.299622,761.903198 643.948059,761.257568 
	C635.091980,760.573059 626.141907,761.103821 617.383545,761.103821 
	C617.383545,785.470581 617.383545,809.045532 617.383545,832.984070 
	C627.735718,832.984070 637.786438,833.767578 647.662903,832.790222 
	C660.648193,831.505066 672.149780,826.586365 679.134888,813.543457 
z"/>
<path fill="#0022AF" opacity="1.000000" stroke="none" 
	d="
M1684.962402,1272.000000 
	C1639.519531,1272.000000 1594.569702,1272.000000 1549.310913,1272.000000 
	C1549.310913,1193.567627 1549.310913,1115.665771 1549.310913,1037.381714 
	C1597.342529,1037.381714 1645.247314,1037.381714 1693.576538,1037.381714 
	C1693.576538,1049.329346 1693.576538,1061.358276 1693.576538,1073.907959 
	C1659.882202,1073.907959 1626.303101,1073.907959 1592.364136,1073.907959 
	C1592.364136,1093.997070 1592.364136,1113.574951 1592.364136,1133.848389 
	C1623.328613,1133.848389 1654.362305,1133.848389 1685.694092,1133.848389 
	C1685.694092,1146.450439 1685.694092,1158.361206 1685.694092,1170.790649 
	C1654.667480,1170.790649 1623.755005,1170.790649 1592.422607,1170.790649 
	C1592.422607,1192.331543 1592.422607,1213.359863 1592.422607,1234.909180 
	C1626.449219,1234.909180 1660.361328,1234.909180 1694.634521,1234.909180 
	C1694.634521,1247.332153 1694.634521,1259.243774 1694.634521,1272.000000 
	C1691.624512,1272.000000 1688.539917,1272.000000 1684.962402,1272.000000 
z"/>
<path fill="#0022AF" opacity="1.000000" stroke="none" 
	d="
M1098.000000,811.947144 
	C1098.000000,815.072571 1098.000000,817.705994 1098.000000,820.842163 
	C1129.049805,820.842163 1159.630371,820.842163 1190.603516,820.842163 
	C1190.603516,833.262024 1190.603516,845.175171 1190.603516,857.787354 
	C1160.062988,857.787354 1129.362549,857.787354 1098.334717,857.787354 
	C1098.334717,879.724365 1098.334717,900.968811 1098.334717,922.732971 
	C1131.939331,922.732971 1165.519409,922.732971 1199.548462,922.732971 
	C1199.548462,934.937622 1199.548462,946.634644 1199.548462,958.668579 
	C1151.268677,958.668579 1103.025879,958.668579 1054.391235,958.668579 
	C1054.391235,881.056763 1054.391235,803.482544 1054.391235,725.453857 
	C1102.274048,725.453857 1150.300415,725.453857 1198.664062,725.453857 
	C1198.664062,737.054504 1198.664062,748.633057 1198.664062,760.732727 
	C1165.394043,760.732727 1132.147217,760.732727 1098.000000,760.732727 
	C1098.000000,777.974792 1098.000000,794.714905 1098.000000,811.947144 
z"/>
<path fill="#0022AF" opacity="1.000000" stroke="none" 
	d="
M518.000183,959.000000 
	C514.335144,959.000000 511.170074,959.000000 508.005005,959.000000 
	C495.685059,959.000000 495.915863,958.901184 491.120392,947.697754 
	C485.868774,935.428711 480.194458,923.338013 474.506317,911.262817 
	C473.987854,910.162231 472.030609,909.102478 470.737244,909.097412 
	C439.919861,908.976685 409.101807,908.971252 378.284485,909.100403 
	C376.815918,909.106567 374.590363,910.166077 374.003448,911.364746 
	C366.318787,927.058167 358.866180,942.865173 351.247284,958.870605 
	C336.090149,958.870605 320.616608,958.870605 304.557220,958.870605 
	C305.113220,957.363281 305.473969,956.034790 306.069885,954.821777 
	C317.122009,932.325867 328.204285,909.844849 339.275604,887.358459 
	C348.085327,869.465515 356.902435,851.576233 365.691071,833.672913 
	C373.466278,817.834106 381.200867,801.975403 388.964172,786.130737 
	C397.522491,768.663513 406.127930,751.219238 414.639771,733.729431 
	C417.686981,727.468079 420.520905,721.102905 423.788300,714.060608 
	C464.025787,796.142151 503.746460,877.169373 543.861023,959.000000 
	C534.944580,959.000000 526.722351,959.000000 518.000183,959.000000 
M450.308777,875.000000 
	C452.399384,875.000000 454.489990,875.000000 457.359406,875.000000 
	C446.078094,851.221436 435.174713,828.239380 423.926605,804.530823 
	C412.699921,828.494446 401.948425,851.443787 390.912628,875.000000 
	C411.105347,875.000000 430.229370,875.000000 450.308777,875.000000 
z"/>
<path fill="#0022AF" opacity="1.000000" stroke="none" 
	d="
M2367.487305,878.799927 
	C2368.292725,893.391113 2368.849609,907.500000 2362.594971,921.042847 
	C2353.305176,941.158264 2336.927490,952.487244 2316.687256,958.854797 
	C2298.171631,964.679871 2279.209229,964.386047 2260.296387,960.606750 
	C2245.148926,957.579956 2231.155273,951.710205 2218.245850,943.168030 
	C2215.328369,941.237305 2213.885986,939.168762 2213.932129,935.555481 
	C2214.102539,922.237244 2214.000000,908.915466 2214.000000,894.733826 
	C2219.778320,898.605774 2225.062012,901.958923 2230.147461,905.589539 
	C2244.302979,915.695862 2259.942139,922.668091 2277.119141,924.676392 
	C2290.570557,926.249084 2304.061035,925.553528 2316.079834,917.012573 
	C2329.107910,907.754272 2330.133545,884.646240 2316.453857,876.513794 
	C2302.384277,868.149719 2287.292236,861.516724 2272.724854,853.976624 
	C2257.506348,846.099487 2241.504395,839.414734 2229.701172,826.213196 
	C2217.739014,812.834351 2214.356201,797.066650 2216.629395,779.709900 
	C2217.812988,770.670471 2220.176270,762.019043 2225.186279,754.252441 
	C2236.062012,737.392273 2251.687744,727.237122 2271.027100,723.201233 
	C2300.220459,717.108826 2327.421631,722.274841 2351.970215,739.608582 
	C2355.335693,741.984924 2357.366211,744.938477 2357.174561,749.830750 
	C2356.662109,762.905029 2357.000000,776.012634 2357.000000,789.508728 
	C2349.500000,783.751770 2342.751465,778.033142 2335.472900,773.096558 
	C2320.277344,762.790894 2303.499023,757.327637 2284.965576,759.075378 
	C2272.775635,760.224792 2260.175293,767.490601 2258.153809,782.418457 
	C2256.884521,791.791748 2261.236816,799.438904 2268.973877,803.762024 
	C2282.748779,811.458435 2297.095215,818.166687 2311.390625,824.887451 
	C2325.718994,831.623474 2339.974365,838.463928 2351.712891,849.321716 
	C2360.173096,857.147278 2365.311523,866.999878 2367.487305,878.799927 
z"/>
<path fill="#0022AF" opacity="1.000000" stroke="none" 
	d="
M792.999146,1211.753540 
	C790.875305,1232.195435 781.768616,1248.179199 765.500122,1259.968384 
	C753.097168,1268.956299 739.109131,1273.400635 723.910156,1275.130493 
	C694.682861,1278.457031 668.020447,1271.828369 643.322876,1256.175049 
	C640.108643,1254.137695 638.877808,1251.846558 638.928589,1248.092773 
	C639.110962,1234.625488 639.000061,1221.154419 639.000061,1208.242798 
	C649.558960,1214.779297 659.849548,1222.039307 670.925354,1227.785889 
	C685.450073,1235.321777 701.137329,1239.612427 717.714050,1237.882935 
	C728.947266,1236.711060 739.569214,1233.725220 746.862854,1223.728394 
	C754.214966,1213.651733 751.953979,1195.496338 741.137085,1189.297852 
	C726.468628,1180.892456 711.255676,1173.408081 696.083557,1165.918945 
	C680.973206,1158.460205 665.648865,1151.519287 654.048767,1138.619263 
	C645.980469,1129.646606 641.843567,1119.143555 641.050354,1107.302246 
	C640.290710,1095.962036 641.524231,1084.891113 646.247559,1074.323486 
	C651.582092,1062.388550 659.694763,1052.915771 670.774658,1046.113159 
	C689.790894,1034.438232 710.551514,1032.169067 732.295776,1034.860474 
	C748.379456,1036.851074 762.775940,1042.762329 775.989136,1051.962524 
	C780.065002,1054.800659 782.332092,1058.019043 782.127319,1063.413086 
	C781.704041,1074.562866 782.010681,1085.740112 781.986755,1096.906006 
	C781.983337,1098.485596 781.809326,1100.064819 781.663635,1102.485718 
	C775.534607,1097.690796 770.123352,1093.321045 764.569885,1089.140259 
	C751.547852,1079.336426 737.195129,1073.141846 720.677612,1071.864624 
	C709.951416,1071.035400 699.865784,1072.613037 691.564758,1079.216919 
	C680.049133,1088.378174 677.352112,1108.599609 697.616760,1119.121582 
	C713.246033,1127.236816 729.546265,1134.061768 745.159180,1142.206055 
	C755.460632,1147.579712 765.892944,1153.286621 774.767334,1160.651123 
	C784.060852,1168.363159 790.500916,1178.892456 791.926453,1191.465820 
	C792.670471,1198.027710 792.666016,1204.674316 792.999146,1211.753540 
z"/>
<path fill="#0022AF" opacity="1.000000" stroke="none" 
	d="
M967.012207,1274.020996 
	C955.134705,1276.242065 943.700378,1276.448608 932.065857,1275.277588 
	C920.632996,1274.126709 909.762939,1271.484253 899.169800,1267.148315 
	C880.173523,1259.372681 864.162659,1247.737061 851.146729,1231.783813 
	C838.830200,1216.687988 830.540710,1199.661743 826.469421,1180.757202 
	C823.609985,1167.479370 823.273254,1153.987427 824.819519,1140.330322 
	C827.218750,1119.138672 834.545532,1099.974976 847.190674,1083.035156 
	C865.859009,1058.026367 890.314575,1041.643555 921.354553,1035.991333 
	C947.389954,1031.250366 972.644470,1033.692749 996.794495,1044.977661 
	C999.322754,1046.159058 1001.754517,1047.589355 1004.089050,1049.120605 
	C1004.928040,1049.670776 1005.875977,1050.855469 1005.881958,1051.756592 
	C1005.989441,1068.015503 1005.960205,1084.275391 1005.960205,1101.949829 
	C981.922852,1077.650391 954.004822,1070.993896 922.742859,1079.346924 
	C905.797180,1083.874512 891.996643,1094.184937 882.217651,1108.732178 
	C859.976624,1141.818359 863.847595,1185.034790 892.160400,1212.472290 
	C907.893494,1227.718994 927.546082,1234.922852 949.317505,1233.774536 
	C970.640625,1232.650024 989.872742,1225.263184 1005.682678,1207.769287 
	C1005.838989,1210.707153 1005.987244,1212.219482 1005.989258,1213.732178 
	C1006.007446,1227.393799 1005.840149,1241.058594 1006.100525,1254.715210 
	C1006.175476,1258.643677 1004.588623,1260.607300 1001.385986,1262.313232 
	C990.678833,1268.016479 979.400818,1271.960327 967.012207,1274.020996 
z"/>
<path fill="#0022AF" opacity="1.000000" stroke="none" 
	d="
M1940.241943,1069.781494 
	C1934.059570,1060.826294 1928.116211,1052.145386 1922.196045,1043.448486 
	C1920.990112,1041.676758 1919.870972,1039.845825 1918.277344,1037.365967 
	C1920.744507,1037.197144 1922.179810,1037.015991 1923.615356,1037.013672 
	C1937.109497,1036.991699 1950.606812,1037.157837 1964.095581,1036.889282 
	C1967.446167,1036.822510 1969.231934,1038.147095 1970.889893,1040.608887 
	C1988.877075,1067.317871 2006.890747,1094.008911 2024.919189,1120.690063 
	C2025.827759,1122.034668 2026.935425,1123.244629 2028.356445,1125.026489 
	C2034.098877,1116.582764 2039.559326,1108.528564 2045.045410,1100.491943 
	C2059.024170,1080.014526 2072.999756,1059.534546 2087.048096,1039.104858 
	C2087.694580,1038.164795 2089.033447,1037.116821 2090.057861,1037.108643 
	C2105.846191,1036.982544 2121.635986,1037.020630 2138.458008,1037.020630 
	C2133.818115,1044.180054 2129.778320,1050.647949 2125.508789,1056.960571 
	C2108.500732,1082.108398 2091.391113,1107.187378 2074.382812,1132.335083 
	C2067.114014,1143.082764 2059.926514,1153.888184 2052.894287,1164.791138 
	C2051.749756,1166.565552 2051.085693,1168.983643 2051.078125,1171.107300 
	C2050.964844,1202.593262 2051.000000,1234.079834 2051.000000,1265.566162 
	C2051.000000,1267.517578 2051.000000,1269.468994 2051.000000,1271.706299 
	C2035.862305,1271.706299 2021.288330,1271.706299 2006.000000,1271.706299 
	C2006.000000,1269.637817 2006.000000,1267.706055 2006.000000,1265.774292 
	C2006.000000,1234.287964 2006.062378,1202.801147 2005.891479,1171.315796 
	C2005.876587,1168.558350 2004.933350,1165.406982 2003.403564,1163.119019 
	C1989.066895,1141.675049 1974.496582,1120.387451 1960.018921,1099.037720 
	C1953.479858,1089.394897 1946.997314,1079.713745 1940.241943,1069.781494 
z"/>
<path fill="#0022AF" opacity="1.000000" stroke="none" 
	d="
M579.996948,1272.000000 
	C570.206116,1272.000000 560.914429,1272.000000 551.315979,1272.000000 
	C551.315979,1193.573975 551.315979,1115.667603 551.315979,1037.289551 
	C552.996643,1037.190063 554.598206,1037.016479 556.200073,1037.013062 
	C567.532776,1036.989136 578.870667,1037.198120 590.195618,1036.901978 
	C594.692932,1036.784424 596.131042,1037.955078 596.109009,1042.673706 
	C595.919067,1083.337280 595.999939,1124.002075 595.999939,1164.666504 
	C595.999939,1198.164673 595.999878,1231.662720 595.999878,1265.160889 
	C595.999878,1267.150635 595.999817,1269.140381 595.999817,1272.000000 
	C590.668823,1272.000000 585.582458,1272.000000 579.996948,1272.000000 
z"/>
<path fill="#2224B5" opacity="1.000000" stroke="none" 
	d="
M1249.062866,515.170410 
	C1241.833618,519.125122 1234.652100,523.172607 1227.325439,526.938049 
	C1226.177002,527.528320 1224.142578,527.287598 1222.904785,526.663574 
	C1215.963867,523.164490 1209.141602,519.429871 1202.263550,515.093018 
	C1202.498901,512.299683 1202.954102,510.190216 1202.966064,508.078217 
	C1203.035400,495.862671 1202.914307,483.645264 1203.092773,471.431915 
	C1203.119507,469.603180 1204.385742,467.792572 1205.417725,466.130920 
	C1206.340942,464.799469 1207.435181,463.311035 1207.436157,461.821838 
	C1207.515137,342.260284 1207.508911,222.698654 1207.506958,103.137039 
	C1207.506958,101.971588 1207.793457,100.674599 1207.372314,99.682617 
	C1207.040894,98.901909 1205.823242,98.497421 1204.999634,97.461823 
	C1205.000244,77.717293 1205.000244,58.436752 1205.000244,39.156212 
	C1219.809570,35.415817 1234.539185,35.819931 1249.598145,40.544216 
	C1249.999878,60.332752 1249.999634,79.583099 1249.604614,98.905441 
	C1247.490723,98.666397 1245.771606,98.355362 1243.874268,98.012062 
	C1243.874268,221.401688 1243.874268,344.432434 1243.874268,467.573334 
	C1245.055786,467.257690 1245.849976,467.045502 1246.996094,467.052795 
	C1247.898438,469.260345 1248.903931,471.243195 1248.926636,473.237244 
	C1249.085693,487.213684 1249.041870,501.192413 1249.062866,515.170410 
z"/>
<path fill="#2B2ECB" opacity="1.000000" stroke="none" 
	d="
M1129.821411,55.911697 
	C1142.285278,52.628757 1154.749146,49.345825 1167.606445,46.565559 
	C1168.000000,63.994492 1167.942505,80.921204 1168.071655,97.846466 
	C1168.088135,100.007568 1169.078247,102.161240 1169.292480,104.599014 
	C1168.698120,106.595177 1168.181763,108.312531 1168.194702,110.025887 
	C1168.752441,183.774231 1169.358032,257.522217 1169.953857,331.270264 
	C1169.974487,333.821686 1169.956421,336.373444 1169.956421,339.053925 
	C1168.844849,338.831238 1168.348022,338.863251 1168.266602,338.694550 
	C1167.620728,337.357483 1166.995361,336.004333 1166.471680,334.615417 
	C1153.292236,299.664124 1143.518799,263.762451 1137.108765,226.984009 
	C1134.043335,209.396317 1131.796021,191.666077 1129.526001,173.835449 
	C1130.249268,171.957962 1130.949219,170.246002 1130.952148,168.532791 
	C1131.015625,132.889084 1131.017944,97.245186 1130.949707,61.601501 
	C1130.946045,59.704193 1130.214233,57.808277 1129.821411,55.911697 
z"/>
<path fill="#0D0B80" opacity="1.000000" stroke="none" 
	d="
M1430.318359,338.134155 
	C1419.549927,358.838928 1406.156494,377.799530 1391.401367,395.871399 
	C1390.674194,393.008636 1390.058350,390.390320 1390.045166,387.768982 
	C1389.957764,370.468628 1390.048218,353.167297 1389.934814,335.867249 
	C1389.921509,333.850830 1389.014526,331.840271 1388.657227,329.495148 
	C1399.857056,310.615387 1410.267334,291.854004 1413.508423,269.970673 
	C1415.559937,256.119293 1412.849121,244.098938 1401.840210,234.884506 
	C1397.539673,231.285080 1392.596558,228.453629 1387.738525,225.130478 
	C1389.519775,222.839264 1391.495850,220.397446 1393.364868,217.876266 
	C1402.348022,205.758606 1406.654907,192.097885 1402.633667,177.480743 
	C1400.465332,169.598190 1394.916992,162.645462 1391.062012,154.871582 
	C1391.487061,152.185699 1391.956299,149.902466 1391.966919,147.617096 
	C1392.068848,125.576744 1392.093750,103.536049 1392.140625,81.495445 
	C1403.967529,86.108543 1403.920044,86.108803 1403.988403,98.424316 
	C1404.020386,104.181824 1402.414673,111.029945 1404.966431,115.380630 
	C1407.402954,119.535049 1414.268433,121.099426 1419.198608,123.780983 
	C1422.675903,125.672256 1426.172729,127.527809 1429.531982,129.913483 
	C1428.935791,132.119614 1428.061279,133.811142 1428.059570,135.503586 
	C1427.990601,201.185867 1427.982422,266.868286 1428.098999,332.550415 
	C1428.102295,334.412964 1429.546265,336.272949 1430.318359,338.134155 
z"/>
<path fill="#3C42F4" opacity="1.000000" stroke="none" 
	d="
M1023.675171,343.728485 
	C1005.134399,312.303528 991.507080,278.796326 982.110718,243.616409 
	C977.813904,227.529068 974.624512,211.142578 971.099121,194.855774 
	C970.478149,191.986862 970.680054,188.939865 970.474731,185.521637 
	C981.571045,179.547745 992.815735,173.201965 1004.355103,167.446869 
	C1008.164978,165.546768 1009.149292,163.280090 1008.988586,159.396866 
	C1008.720215,152.914139 1009.085632,146.405762 1008.838806,139.921326 
	C1008.726746,136.978577 1009.789856,135.458160 1012.314148,134.162125 
	C1019.976746,130.228027 1027.520752,126.062859 1035.728516,122.239075 
	C1036.897339,125.545815 1037.887695,128.595657 1037.926147,131.657455 
	C1038.121094,147.194183 1038.069214,162.733994 1037.966553,178.568817 
	C1030.466797,186.556290 1023.055115,194.202011 1015.805420,201.998474 
	C1014.927307,202.942871 1014.287231,204.875595 1014.611633,206.054504 
	C1018.560364,220.401367 1022.710632,234.692780 1026.461914,249.164841 
	C1025.743408,251.213013 1025.052856,253.094086 1025.047974,254.976944 
	C1024.977783,281.967377 1025.036011,308.958191 1024.942261,335.948456 
	C1024.933228,338.543274 1024.116821,341.135223 1023.675171,343.728485 
z"/>
<path fill="#090576" opacity="1.000000" stroke="none" 
	d="
M1430.582397,337.927429 
	C1429.546265,336.272949 1428.102295,334.412964 1428.098999,332.550415 
	C1427.982422,266.868286 1427.990601,201.185867 1428.059570,135.503586 
	C1428.061279,133.811142 1428.935791,132.119614 1429.727173,130.202057 
	C1430.527222,130.107483 1431.008179,130.222565 1431.478394,130.371887 
	C1440.051880,133.095169 1443.618896,138.518875 1442.197876,147.779648 
	C1441.353638,153.280243 1440.306030,160.154526 1442.801392,164.366364 
	C1445.281128,168.551773 1452.060181,170.217957 1456.995117,172.913361 
	C1462.954468,176.168350 1468.768799,179.792130 1475.001099,182.411102 
	C1479.933472,184.483780 1480.737305,187.681091 1479.873047,192.165573 
	C1477.554321,204.198380 1475.635498,216.325684 1472.829102,228.243851 
	C1463.793091,266.614960 1449.937256,303.182983 1430.582397,337.927429 
z"/>
<path fill="#363AE3" opacity="1.000000" stroke="none" 
	d="
M1038.103882,178.272736 
	C1038.069214,162.733994 1038.121094,147.194183 1037.926147,131.657455 
	C1037.887695,128.595657 1036.897339,125.545815 1036.081299,122.200455 
	C1036.027710,121.667824 1036.195190,121.283028 1036.456177,121.203117 
	C1045.626831,118.395073 1048.947754,112.238655 1047.029297,102.979408 
	C1046.798828,101.867126 1047.194702,100.625648 1046.967285,99.512085 
	C1044.951050,89.642448 1048.901611,84.031372 1058.584229,81.214706 
	C1065.656982,79.157249 1072.323975,75.704964 1079.632202,73.248596 
	C1080.394897,75.748924 1080.959717,77.874924 1080.961304,80.001350 
	C1081.008057,144.041443 1081.025757,208.081619 1080.906494,272.121521 
	C1080.901489,274.770782 1079.532837,277.417450 1078.532349,279.845642 
	C1062.971558,245.740005 1052.757935,210.184311 1044.090942,173.544312 
	C1041.674927,175.452454 1039.889404,176.862595 1038.103882,178.272736 
z"/>
<path fill="#3337DA" opacity="1.000000" stroke="none" 
	d="
M1078.799438,280.065308 
	C1079.532837,277.417450 1080.901489,274.770782 1080.906494,272.121521 
	C1081.025757,208.081619 1081.008057,144.041443 1080.961304,80.001350 
	C1080.959717,77.874924 1080.394897,75.748924 1080.008301,73.197540 
	C1087.691162,69.842316 1095.458252,66.912285 1103.612671,64.460518 
	C1104.000000,84.404770 1103.932617,103.871353 1104.104370,123.335838 
	C1104.121582,125.289589 1105.589478,127.230522 1106.160645,129.462158 
	C1100.317871,132.846359 1094.568115,135.740448 1089.162354,139.175766 
	C1087.627563,140.151108 1086.120117,142.780182 1086.257568,144.519928 
	C1087.316528,157.932388 1088.279663,171.386856 1090.238647,184.685974 
	C1093.403564,206.172363 1096.700317,227.675110 1101.084839,248.935120 
	C1104.803833,266.967712 1109.912109,284.730042 1114.847412,302.489227 
	C1117.762695,312.980103 1121.537109,323.232239 1124.953735,333.678284 
	C1120.850464,336.033417 1117.005615,338.240234 1112.868408,340.614868 
	C1099.390137,321.283386 1087.688721,301.474640 1078.799438,280.065308 
z"/>
<path fill="#13118C" opacity="1.000000" stroke="none" 
	d="
M1388.521851,329.826996 
	C1389.014526,331.840271 1389.921509,333.850830 1389.934814,335.867249 
	C1390.048218,353.167297 1389.957764,370.468628 1390.045166,387.768982 
	C1390.058350,390.390320 1390.674194,393.008636 1391.114624,396.070740 
	C1377.113281,415.229126 1360.696411,431.798981 1343.080444,447.553284 
	C1342.348267,444.874207 1342.073364,442.418152 1342.016235,439.957031 
	C1341.636108,423.592682 1341.302734,407.227234 1341.069946,390.552307 
	C1358.711548,371.472809 1374.451904,351.304291 1388.521851,329.826996 
z"/>
<path fill="#2C2FCC" opacity="1.000000" stroke="none" 
	d="
M1159.830566,489.072601 
	C1149.262451,481.278290 1138.694336,473.483978 1128.310547,465.162720 
	C1128.996460,462.788879 1129.927490,460.943634 1129.934814,459.094696 
	C1130.031860,434.598145 1130.023315,410.101074 1129.952271,385.604340 
	C1129.946655,383.659637 1129.283447,381.716827 1129.116699,379.497589 
	C1133.364502,376.813324 1137.421387,374.404572 1141.252563,372.129791 
	C1148.658936,385.298157 1155.852783,398.088806 1162.879883,411.270721 
	C1162.475464,413.790955 1162.036255,415.919434 1162.031250,418.048981 
	C1161.980103,439.501282 1162.063599,460.954224 1161.905029,482.405487 
	C1161.888672,484.632843 1160.553711,486.850464 1159.830566,489.072601 
z"/>
<path fill="#393EE9" opacity="1.000000" stroke="none" 
	d="
M1023.782715,344.038483 
	C1024.116821,341.135223 1024.933228,338.543274 1024.942261,335.948456 
	C1025.036011,308.958191 1024.977783,281.967377 1025.047974,254.976944 
	C1025.052856,253.094086 1025.743408,251.213013 1026.628906,249.497162 
	C1036.215942,276.869446 1047.579712,303.076782 1061.270386,328.667908 
	C1060.761230,331.721344 1060.065796,334.318298 1060.051025,336.919067 
	C1059.952881,354.300903 1060.043701,371.683777 1059.941162,389.065582 
	C1059.929321,391.094177 1059.109375,393.118073 1058.664062,395.144135 
	C1047.072754,378.212250 1035.481445,361.280365 1023.782715,344.038483 
z"/>
<path fill="#1D1DA6" opacity="1.000000" stroke="none" 
	d="
M1249.999512,98.833443 
	C1249.999634,79.583099 1249.999878,60.332752 1249.999512,40.624325 
	C1260.187744,41.923096 1270.404663,43.533672 1280.555420,45.486782 
	C1287.651733,46.852158 1294.657837,48.685959 1301.703735,50.902237 
	C1301.468872,53.450390 1301.037476,55.406193 1301.031128,57.363380 
	C1300.977295,73.860222 1301.001221,90.357323 1300.614746,106.868500 
	C1283.750854,102.540482 1267.086304,99.369095 1249.999512,98.833443 
z"/>
<path fill="#12108B" opacity="1.000000" stroke="none" 
	d="
M1391.873291,81.289238 
	C1392.093750,103.536049 1392.068848,125.576744 1391.966919,147.617096 
	C1391.956299,149.902466 1391.487061,152.185699 1390.756348,154.719818 
	C1385.733154,150.880051 1381.561646,146.237534 1376.554199,142.819427 
	C1367.029419,136.317566 1357.026978,130.515640 1347.569702,124.118622 
	C1348.277710,121.733505 1348.938232,119.654953 1348.952759,117.571892 
	C1349.076050,99.917236 1349.081665,82.261772 1349.122559,64.606537 
	C1363.283691,70.098701 1377.444702,75.590866 1391.873291,81.289238 
z"/>
<path fill="#171698" opacity="1.000000" stroke="none" 
	d="
M1348.857300,64.374847 
	C1349.081665,82.261772 1349.076050,99.917236 1348.952759,117.571892 
	C1348.938232,119.654953 1348.277710,121.733505 1347.248047,124.017006 
	C1338.841187,120.929985 1331.188599,117.415474 1323.339478,114.415588 
	C1316.002075,111.611305 1308.456055,109.352974 1301.001831,106.854347 
	C1301.001221,90.357323 1300.977295,73.860222 1301.031128,57.363380 
	C1301.037476,55.406193 1301.468872,53.450390 1301.987305,51.169987 
	C1317.711548,55.278397 1333.151855,59.710770 1348.857300,64.374847 
z"/>
<path fill="#282BC2" opacity="1.000000" stroke="none" 
	d="
M1159.995850,489.373413 
	C1160.553711,486.850464 1161.888672,484.632843 1161.905029,482.405487 
	C1162.063599,460.954224 1161.980103,439.501282 1162.031250,418.048981 
	C1162.036255,415.919434 1162.475464,413.790955 1163.167236,411.457733 
	C1177.440430,429.493530 1191.259521,447.733551 1205.078491,465.973572 
	C1204.385742,467.792572 1203.119507,469.603180 1203.092773,471.431915 
	C1202.914307,483.645264 1203.035400,495.862671 1202.966064,508.078217 
	C1202.954102,510.190216 1202.498901,512.299683 1202.077393,514.806396 
	C1187.991333,506.693054 1174.076294,498.183655 1159.995850,489.373413 
z"/>
<path fill="#18179A" opacity="1.000000" stroke="none" 
	d="
M1340.954102,390.862122 
	C1341.302734,407.227234 1341.636108,423.592682 1342.016235,439.957031 
	C1342.073364,442.418152 1342.348267,444.874207 1342.765503,447.668427 
	C1328.694336,459.481476 1314.378174,470.956512 1300.073242,482.445221 
	C1299.562256,482.855591 1299.160034,483.401367 1298.223755,483.639832 
	C1297.493530,481.268219 1297.044800,479.141907 1297.033203,477.013214 
	C1296.965332,464.540924 1297.074219,452.067169 1296.922974,439.596375 
	C1296.898926,437.608826 1295.862061,435.633575 1295.500000,433.372650 
	C1310.789062,419.015808 1325.871582,404.938934 1340.954102,390.862122 
z"/>
<path fill="#1E1EA7" opacity="1.000000" stroke="none" 
	d="
M1295.293457,433.652649 
	C1295.862061,435.633575 1296.898926,437.608826 1296.922974,439.596375 
	C1297.074219,452.067169 1296.965332,464.540924 1297.033203,477.013214 
	C1297.044800,479.141907 1297.493530,481.268219 1297.908203,483.791779 
	C1281.974609,494.471619 1265.873047,504.755310 1249.417236,515.104736 
	C1249.041870,501.192413 1249.085693,487.213684 1248.926636,473.237244 
	C1248.903931,471.243195 1247.898438,469.260345 1247.205078,466.769958 
	C1263.139282,455.395996 1279.216309,444.524323 1295.293457,433.652649 
z"/>
<path fill="#3439DF" opacity="1.000000" stroke="none" 
	d="
M1058.780518,395.471252 
	C1059.109375,393.118073 1059.929321,391.094177 1059.941162,389.065582 
	C1060.043701,371.683777 1059.952881,354.300903 1060.051025,336.919067 
	C1060.065796,334.318298 1060.761230,331.721344 1061.524658,328.924011 
	C1074.360352,346.784973 1086.812866,364.844513 1098.959717,383.161255 
	C1098.102783,385.780243 1097.094849,388.138000 1097.074097,390.504456 
	C1096.934814,406.325317 1097.005737,422.148071 1097.008423,437.970215 
	C1085.629639,425.600494 1074.237793,413.242828 1062.888550,400.846100 
	C1061.443848,399.268036 1060.222046,397.485931 1058.780518,395.471252 
z"/>
<path fill="#3034D4" opacity="1.000000" stroke="none" 
	d="
M1097.211182,438.234558 
	C1097.005737,422.148071 1096.934814,406.325317 1097.074097,390.504456 
	C1097.094849,388.138000 1098.102783,385.780243 1099.251709,383.309021 
	C1102.435913,386.145386 1105.022339,389.091217 1107.594238,392.020599 
	C1114.940674,387.802612 1121.933228,383.787872 1128.925781,379.773102 
	C1129.283447,381.716827 1129.946655,383.659637 1129.952271,385.604340 
	C1130.023315,410.101074 1130.031860,434.598145 1129.934814,459.094696 
	C1129.927490,460.943634 1128.996460,462.788879 1128.158203,464.857697 
	C1117.685669,456.219360 1107.549927,447.359131 1097.211182,438.234558 
z"/>
<path fill="#272AC1" opacity="1.000000" stroke="none" 
	d="
M1169.617188,104.318359 
	C1169.078247,102.161240 1168.088135,100.007568 1168.071655,97.846466 
	C1167.942505,80.921204 1168.000000,63.994492 1167.999512,46.609116 
	C1180.056885,43.780571 1192.114624,41.411133 1204.586304,39.098953 
	C1205.000244,58.436752 1205.000244,77.717293 1204.641357,97.670715 
	C1192.727417,100.335182 1181.172241,102.326775 1169.617188,104.318359 
z"/>
<path fill="#3034D4" opacity="1.000000" stroke="none" 
	d="
M1106.384277,129.177368 
	C1105.589478,127.230522 1104.121582,125.289589 1104.104370,123.335838 
	C1103.932617,103.871353 1104.000000,84.404770 1104.000244,64.470230 
	C1112.349976,61.304161 1120.699585,58.606644 1129.435303,55.910419 
	C1130.214233,57.808277 1130.946045,59.704193 1130.949707,61.601501 
	C1131.017944,97.245186 1131.015625,132.889084 1130.952148,168.532791 
	C1130.949219,170.246002 1130.249268,171.957962 1129.422852,173.427429 
	C1128.656006,172.087280 1128.148682,171.006531 1128.053711,169.890671 
	C1127.007446,157.606125 1126.065674,145.312637 1125.003052,133.029587 
	C1124.658325,129.045563 1124.042358,125.084991 1123.518066,120.852516 
	C1117.509521,123.771919 1111.946899,126.474640 1106.384277,129.177368 
z"/>
<path fill="#000000" opacity="1.000000" stroke="none" 
	d="
M2087.701660,918.937439 
	C2068.236572,924.371582 2049.572266,923.330811 2032.075806,913.902405 
	C2010.038574,902.027222 1996.958618,883.380920 1991.892212,858.735413 
	C1987.758545,838.627686 1990.545654,819.596069 2000.192749,801.893555 
	C2011.854370,780.494385 2029.599243,766.741638 2054.278076,762.947144 
	C2079.657227,759.044983 2101.364014,766.743713 2119.022705,784.771790 
	C2133.346436,799.394714 2140.373047,817.509766 2141.093994,838.192688 
	C2141.767334,857.502441 2137.200928,875.074646 2126.034180,890.878418 
	C2117.415283,903.076416 2106.134521,911.816040 2092.107178,917.002319 
	C2090.729248,917.511780 2089.438232,918.256592 2087.701660,918.937439 
z"/>
<path fill="#000000" opacity="1.000000" stroke="none" 
	d="
M1223.011719,1196.956543 
	C1210.255859,1217.526123 1192.942383,1230.875366 1168.739014,1234.032715 
	C1140.194580,1237.756592 1117.500732,1227.665894 1099.732788,1205.265747 
	C1085.926880,1187.860474 1081.389526,1167.812256 1083.192139,1146.362183 
	C1084.792725,1127.315063 1092.170776,1110.182739 1105.980347,1096.657959 
	C1132.798828,1070.392456 1172.192993,1066.981201 1202.689941,1089.476440 
	C1220.157227,1102.360840 1229.730835,1120.350952 1233.020142,1141.736572 
	C1236.008179,1161.163818 1232.960938,1179.492676 1223.011719,1196.956543 
z"/>
<path fill="#000000" opacity="1.000000" stroke="none" 
	d="
M1646.904175,916.020569 
	C1639.039307,920.294495 1631.058960,922.302979 1622.404419,922.124573 
	C1611.183350,921.893250 1599.953857,922.068115 1588.360596,922.068115 
	C1588.360596,901.022034 1588.360596,879.470459 1588.360596,857.366760 
	C1589.610474,857.254517 1591.023560,857.021179 1592.437012,857.017456 
	C1603.917114,856.987427 1615.419556,856.547607 1626.871826,857.111877 
	C1642.034424,857.858887 1654.410767,865.113281 1659.836548,878.844360 
	C1664.573975,890.833557 1660.783081,904.451538 1650.900391,912.538513 
	C1649.622070,913.584656 1648.470093,914.785461 1646.904175,916.020569 
z"/>
<path fill="#000000" opacity="1.000000" stroke="none" 
	d="
M1622.912598,762.968750 
	C1643.490601,767.201233 1653.569458,784.531067 1646.974854,803.470398 
	C1643.252930,814.159424 1634.712036,819.911865 1624.385132,821.708618 
	C1612.736084,823.735291 1600.752686,823.841064 1588.415527,824.821960 
	C1588.415527,802.999634 1588.415527,782.316711 1588.415527,760.305603 
	C1599.899536,761.195618 1611.191772,762.070740 1622.912598,762.968750 
z"/>
<path fill="#000000" opacity="1.000000" stroke="none" 
	d="
M359.000000,1160.000000 
	C359.000000,1131.227905 359.000000,1102.955933 359.000000,1074.765137 
	C369.845734,1074.765137 380.298462,1073.997314 390.578278,1075.000732 
	C399.279633,1075.849976 408.211121,1077.682007 416.290588,1080.939697 
	C441.081757,1090.935669 455.947449,1110.170898 461.686340,1135.759277 
	C468.397430,1165.682251 461.170532,1192.545898 439.042419,1214.208130 
	C425.311157,1227.650391 408.201385,1234.635620 388.747589,1234.971313 
	C379.108734,1235.137695 369.464630,1235.000122 359.000000,1235.000122 
	C359.000000,1209.955322 359.000000,1185.227661 359.000000,1160.000000 
z"/>
<path fill="#000000" opacity="1.000000" stroke="none" 
	d="
M1838.880249,1079.972656 
	C1855.756958,1090.263062 1859.312988,1107.282959 1853.969360,1123.173584 
	C1849.705322,1135.853882 1839.146240,1142.306885 1827.142334,1144.488159 
	C1815.237671,1146.651123 1802.811401,1145.942749 1790.282471,1146.508545 
	C1790.282471,1121.839844 1790.282471,1098.265869 1790.282471,1074.124390 
	C1806.715454,1074.244629 1823.167603,1071.960938 1838.880249,1079.972656 
z"/>
<path fill="#000000" opacity="1.000000" stroke="none" 
	d="
M1319.653931,761.017517 
	C1325.253174,762.106995 1330.640747,762.523743 1335.472412,764.384033 
	C1351.936890,770.723267 1361.123535,781.821350 1358.856812,803.119385 
	C1357.480469,816.050781 1349.345215,828.156494 1330.135986,831.598999 
	C1318.226196,833.733276 1305.793823,832.951843 1293.283813,833.492737 
	C1293.283813,808.852661 1293.283813,785.289124 1293.283813,761.006409 
	C1302.002808,761.006409 1310.595093,761.006409 1319.653931,761.017517 
z"/>
<path fill="#000000" opacity="1.000000" stroke="none" 
	d="
M1795.000000,802.000000 
	C1795.038940,788.516785 1795.075684,775.533508 1795.132080,762.550354 
	C1795.133301,762.252686 1795.357056,761.955994 1795.727173,761.039856 
	C1810.742432,761.397766 1826.115479,759.237976 1840.825806,765.722534 
	C1852.694092,770.954346 1860.798462,782.774963 1861.214844,795.767151 
	C1861.889038,816.806885 1848.157593,829.345459 1831.553345,831.732910 
	C1819.818848,833.420044 1807.777100,832.969604 1795.000000,833.510315 
	C1795.000000,822.647400 1795.000000,812.573669 1795.000000,802.000000 
z"/>
<path fill="#000000" opacity="1.000000" stroke="none" 
	d="
M679.028320,813.906677 
	C672.149780,826.586365 660.648193,831.505066 647.662903,832.790222 
	C637.786438,833.767578 627.735718,832.984070 617.383545,832.984070 
	C617.383545,809.045532 617.383545,785.470581 617.383545,761.103821 
	C626.141907,761.103821 635.091980,760.573059 643.948059,761.257568 
	C652.299622,761.903198 660.544006,763.821350 667.855957,768.430359 
	C682.275391,777.519653 687.305786,797.572876 679.028320,813.906677 
z"/>
<path fill="#000000" opacity="1.000000" stroke="none" 
	d="
M449.831116,875.000000 
	C430.229370,875.000000 411.105347,875.000000 390.912628,875.000000 
	C401.948425,851.443787 412.699921,828.494446 423.926605,804.530823 
	C435.174713,828.239380 446.078094,851.221436 457.359406,875.000000 
	C454.489990,875.000000 452.399384,875.000000 449.831116,875.000000 
z"/>
<path fill="#FEC101" opacity="1.000000" stroke="none" 
	d="
M1295.500000,433.372620 
	C1279.216309,444.524323 1263.139282,455.395996 1246.853149,466.550476 
	C1245.849976,467.045502 1245.055786,467.257690 1243.874268,467.573334 
	C1243.874268,344.432434 1243.874268,221.401688 1243.874268,98.012062 
	C1245.771606,98.355362 1247.490723,98.666397 1249.604614,98.905441 
	C1267.086304,99.369095 1283.750854,102.540482 1300.614746,106.868500 
	C1308.456055,109.352974 1316.002075,111.611305 1323.339478,114.415588 
	C1331.188599,117.415474 1338.841187,120.929985 1346.901123,124.321472 
	C1357.026978,130.515640 1367.029419,136.317566 1376.554199,142.819427 
	C1381.561646,146.237534 1385.733154,150.880051 1390.587891,155.121490 
	C1394.916992,162.645462 1400.465332,169.598190 1402.633667,177.480743 
	C1406.654907,192.097885 1402.348022,205.758606 1393.364868,217.876266 
	C1391.495850,220.397446 1389.519775,222.839264 1387.738525,225.130478 
	C1392.596558,228.453629 1397.539673,231.285080 1401.840210,234.884506 
	C1412.849121,244.098938 1415.559937,256.119293 1413.508423,269.970673 
	C1410.267334,291.854004 1399.857056,310.615387 1388.657227,329.495148 
	C1374.451904,351.304291 1358.711548,371.472809 1341.069946,390.552277 
	C1325.871582,404.938934 1310.789062,419.015808 1295.500000,433.372620 
M1321.701782,225.864044 
	C1323.876587,224.607712 1325.983398,223.210693 1328.237793,222.118774 
	C1339.553589,216.637970 1349.950317,209.991058 1357.827515,199.906876 
	C1364.098999,191.878082 1364.029419,179.925049 1355.990356,172.225403 
	C1345.690430,162.360199 1333.280273,156.420685 1319.601562,151.206497 
	C1307.509644,146.834656 1295.259033,143.174164 1282.147461,142.625793 
	C1282.147461,177.414902 1282.147461,211.950089 1282.147461,247.227554 
	C1295.431396,239.949081 1308.206299,232.949570 1321.701782,225.864044 
M1325.766968,351.892944 
	C1342.731445,333.511292 1357.967285,313.886627 1368.824463,291.191956 
	C1372.357422,283.806885 1374.474365,276.114014 1374.122803,267.668182 
	C1373.722168,258.041382 1365.159180,248.002853 1355.656860,247.264954 
	C1354.756958,247.195068 1353.708496,247.576736 1352.897583,248.042343 
	C1342.552734,253.982925 1332.238647,259.977142 1321.221802,266.049164 
	C1309.354004,272.724121 1297.540894,279.499786 1285.578857,286.001343 
	C1282.683350,287.575104 1281.794434,289.375214 1281.807617,292.612518 
	C1281.938843,324.719147 1281.886963,356.826538 1281.886963,388.933716 
	C1281.886963,390.359039 1281.886963,391.784332 1281.886963,393.266388 
	C1282.686646,393.165741 1283.092773,393.241364 1283.268066,393.074432 
	C1296.982788,380.014862 1310.684692,366.941589 1324.354370,353.834808 
	C1324.783936,353.422882 1324.868286,352.650635 1325.766968,351.892944 
z"/>
<path fill="#FEC101" opacity="1.000000" stroke="none" 
	d="
M1106.160645,129.462128 
	C1111.946899,126.474640 1117.509521,123.771919 1123.518066,120.852516 
	C1124.042358,125.084991 1124.658325,129.045563 1125.003052,133.029587 
	C1126.065674,145.312637 1127.007446,157.606125 1128.053711,169.890671 
	C1128.148682,171.006531 1128.656006,172.087280 1129.074951,173.592377 
	C1131.796021,191.666077 1134.043335,209.396317 1137.108765,226.984009 
	C1143.518799,263.762451 1153.292236,299.664124 1166.471680,334.615417 
	C1166.995361,336.004333 1167.620728,337.357483 1168.266602,338.694550 
	C1168.348022,338.863251 1168.844849,338.831238 1169.956421,339.053925 
	C1169.956421,336.373444 1169.974487,333.821686 1169.953857,331.270264 
	C1169.358032,257.522217 1168.752441,183.774231 1168.194702,110.025887 
	C1168.181763,108.312531 1168.698120,106.595177 1169.292358,104.599030 
	C1181.172241,102.326775 1192.727417,100.335182 1204.640869,98.134705 
	C1205.823242,98.497421 1207.040894,98.901909 1207.372314,99.682617 
	C1207.793457,100.674599 1207.506958,101.971588 1207.506958,103.137039 
	C1207.508911,222.698654 1207.515137,342.260284 1207.436157,461.821838 
	C1207.435181,463.311035 1206.340942,464.799469 1205.417725,466.130890 
	C1191.259521,447.733551 1177.440430,429.493530 1163.333984,411.066498 
	C1155.852783,398.088806 1148.658936,385.298157 1141.252563,372.129791 
	C1137.421387,374.404572 1133.364502,376.813324 1129.116699,379.497589 
	C1121.933228,383.787872 1114.940674,387.802612 1107.594238,392.020599 
	C1105.022339,389.091217 1102.435913,386.145386 1099.557495,383.051819 
	C1086.812866,364.844513 1074.360352,346.784973 1061.653320,328.469330 
	C1047.579712,303.076782 1036.215942,276.869446 1026.975586,249.330902 
	C1022.710632,234.692780 1018.560364,220.401367 1014.611633,206.054504 
	C1014.287231,204.875595 1014.927307,202.942871 1015.805420,201.998474 
	C1023.055115,194.202011 1030.466797,186.556290 1037.966553,178.568817 
	C1039.889404,176.862595 1041.674927,175.452454 1044.090942,173.544312 
	C1052.757935,210.184311 1062.971558,245.740005 1078.532349,279.845642 
	C1087.688721,301.474640 1099.390137,321.283386 1112.868408,340.614868 
	C1117.005615,338.240234 1120.850464,336.033417 1124.953735,333.678284 
	C1121.537109,323.232239 1117.762695,312.980103 1114.847412,302.489227 
	C1109.912109,284.730042 1104.803833,266.967712 1101.084839,248.935120 
	C1096.700317,227.675110 1093.403564,206.172363 1090.238647,184.685974 
	C1088.279663,171.386856 1087.316528,157.932388 1086.257568,144.519928 
	C1086.120117,142.780182 1087.627563,140.151108 1089.162354,139.175766 
	C1094.568115,135.740448 1100.317871,132.846359 1106.160645,129.462128 
z"/>
<path fill="#1A1A9F" opacity="1.000000" stroke="none" 
	d="
M1325.113647,352.046387 
	C1324.868286,352.650635 1324.783936,353.422882 1324.354370,353.834808 
	C1310.684692,366.941589 1296.982788,380.014862 1283.268066,393.074432 
	C1283.092773,393.241364 1282.686646,393.165741 1281.886963,393.266388 
	C1281.886963,391.784332 1281.886963,390.359039 1281.886963,388.933716 
	C1281.886963,356.826538 1281.938843,324.719147 1281.807617,292.612518 
	C1281.794434,289.375214 1282.683350,287.575104 1285.578857,286.001343 
	C1297.540894,279.499786 1309.354004,272.724121 1321.825073,266.335022 
	C1322.618896,268.585480 1322.972168,270.549866 1322.975220,272.514740 
	C1323.013062,296.792938 1322.944946,321.071533 1323.092163,345.348907 
	C1323.105591,347.585419 1324.409058,349.814087 1325.113647,352.046387 
z"/>
<path fill="#1A1A9F" opacity="1.000000" stroke="none" 
	d="
M1320.981201,225.950058 
	C1308.206299,232.949570 1295.431396,239.949081 1282.147461,247.227554 
	C1282.147461,211.950089 1282.147461,177.414902 1282.147461,142.625793 
	C1295.259033,143.174164 1307.509644,146.834656 1319.831055,151.937958 
	C1320.040527,175.316956 1319.998657,197.964508 1320.043579,220.611877 
	C1320.047119,222.391891 1320.654541,224.170700 1320.981201,225.950058 
z"/>
<path fill="#151493" opacity="1.000000" stroke="none" 
	d="
M1325.440308,351.969666 
	C1324.409058,349.814087 1323.105591,347.585419 1323.092163,345.348907 
	C1322.944946,321.071533 1323.013062,296.792938 1322.975220,272.514740 
	C1322.972168,270.549866 1322.618896,268.585480 1322.172607,266.289307 
	C1332.238647,259.977142 1342.552734,253.982925 1352.897583,248.042343 
	C1353.708496,247.576736 1354.756958,247.195068 1355.656860,247.264954 
	C1365.159180,248.002853 1373.722168,258.041382 1374.122803,267.668182 
	C1374.474365,276.114014 1372.357422,283.806885 1368.824463,291.191956 
	C1357.967285,313.886627 1342.731445,333.511292 1325.440308,351.969666 
z"/>
<path fill="#161594" opacity="1.000000" stroke="none" 
	d="
M1321.341553,225.907043 
	C1320.654541,224.170700 1320.047119,222.391891 1320.043579,220.611877 
	C1319.998657,197.964508 1320.040527,175.316956 1320.085693,152.181488 
	C1333.280273,156.420685 1345.690430,162.360199 1355.990356,172.225403 
	C1364.029419,179.925049 1364.098999,191.878082 1357.827515,199.906876 
	C1349.950317,209.991058 1339.553589,216.637970 1328.237793,222.118774 
	C1325.983398,223.210693 1323.876587,224.607712 1321.341553,225.907043 
z"/>
</svg>