<?xml version="1.0" encoding="UTF-8"?>
<svg version="1.1" xmlns="http://www.w3.org/2000/svg" width="465" height="85">
<path d="M0 0 C7.26 0 14.52 0 22 0 C22.43234912 4.622018 22.86119879 9.24411396 23.28173828 13.8671875 C23.42529465 15.43442477 23.57074891 17.00148955 23.71826172 18.56835938 C24.57998543 27.7366307 25.24303092 36.77832693 25 46 C25.66 46 26.32 46 27 46 C26.9781665 44.86232178 26.95633301 43.72464355 26.93383789 42.55249023 C26.93638718 38.02190725 27.43611204 33.64221931 28.05859375 29.16015625 C28.22150658 27.94881264 28.22150658 27.94881264 28.38771057 26.71299744 C28.61633242 25.02275162 28.84756079 23.33285646 29.08129883 21.64331055 C29.43972988 19.04634371 29.78779099 16.44812906 30.13476562 13.84960938 C30.35876441 12.20304182 30.58335231 10.55655428 30.80859375 8.91015625 C30.91280136 8.13108414 31.01700897 7.35201202 31.12437439 6.54933167 C31.88473581 1.11526419 31.88473581 1.11526419 33 0 C34.63472882 -0.08700342 36.27314055 -0.10701063 37.91015625 -0.09765625 C39.39418945 -0.09282227 39.39418945 -0.09282227 40.90820312 -0.08789062 C41.94912109 -0.07951172 42.99003906 -0.07113281 44.0625 -0.0625 C45.62967773 -0.05573242 45.62967773 -0.05573242 47.22851562 -0.04882812 C49.8190666 -0.03699913 52.40950559 -0.02051689 55 0 C56.59677389 9.91482685 57.90114127 19.84627592 59.125 29.8125 C60.053125 37.3303125 60.053125 37.3303125 61 45 C62.65 30.15 64.3 15.3 66 0 C72.93 0 79.86 0 87 0 C85.5919098 13.42284978 83.83645143 26.76990004 81.91333008 40.12817383 C81.43082169 43.48394663 80.95443302 46.84055241 80.47851562 50.19726562 C80.17223488 52.33859317 79.86560755 54.47987118 79.55859375 56.62109375 C79.34607216 58.12089027 79.34607216 58.12089027 79.1292572 59.65098572 C78.92883568 61.03502342 78.92883568 61.03502342 78.72436523 62.44702148 C78.60826401 63.2565477 78.49216278 64.06607391 78.37254333 64.90013123 C78 67 78 67 77 70 C67.76 70 58.52 70 49 70 C48.65066406 67.26847656 48.30132812 64.53695312 47.94140625 61.72265625 C47.601528 59.08816374 47.26018688 56.45386465 46.91870117 53.81958008 C46.68149054 51.98351453 46.44580997 50.14725065 46.21166992 48.31079102 C45.87557104 45.67671373 45.53404176 43.04339019 45.19140625 40.41015625 C45.08719864 39.58411392 44.98299103 38.75807159 44.87562561 37.90699768 C44.69057596 34.13932274 44.69057596 34.13932274 43 31 C42.85377197 32.07483643 42.70754395 33.14967285 42.55688477 34.25708008 C42.01372886 38.24380889 41.46678829 42.23001084 40.91870117 46.21606445 C40.68199 47.94150884 40.4463062 49.6670945 40.21166992 51.39282227 C39.87428298 53.8729373 39.53320775 56.35252126 39.19140625 58.83203125 C39.03509483 59.98998955 39.03509483 59.98998955 38.87562561 61.17134094 C38.45009501 64.23651078 37.98110781 67.05667657 37 70 C28.09 70 19.18 70 10 70 C7.74975123 58.74875614 7.74975123 58.74875614 7.03857422 53.57226562 C6.87855927 52.41827271 6.71854431 51.26427979 6.55368042 50.07531738 C6.38901276 48.86452515 6.22434509 47.65373291 6.0546875 46.40625 C5.7925798 44.50353333 5.7925798 44.50353333 5.525177 42.56237793 C5.15905872 39.90016945 4.79407342 37.23783822 4.43115234 34.57519531 C3.96569503 31.16067927 3.49630503 27.74671827 3.02558708 24.33292389 C2.57538928 21.06591371 2.12755058 17.79858093 1.6796875 14.53125 C1.51097137 13.30426392 1.34225525 12.07727783 1.16842651 10.81311035 C1.01471588 9.68433472 0.86100525 8.55555908 0.70263672 7.39257812 C0.56654999 6.39681763 0.43046326 5.40105713 0.29025269 4.37512207 C0 2 0 2 0 0 Z " fill="#FD4F17" transform="translate(254,13)"/>
<path d="M0 0 C6.93 0 13.86 0 21 0 C22.68374409 14.31182476 23.91404362 28.631156 25 43 C26.80547202 34.76608145 27.95747942 26.47777916 29.0625 18.125 C29.40552803 15.54400102 29.75049315 12.96325854 30.09765625 10.3828125 C30.24726807 9.25246582 30.39687988 8.12211914 30.55102539 6.95751953 C30.91242991 4.57684836 31.35802156 2.31705813 32 0 C35.64581687 -0.02887512 39.29160463 -0.04675585 42.9375 -0.0625 C44.49887695 -0.07506836 44.49887695 -0.07506836 46.09179688 -0.08789062 C47.08115234 -0.09111328 48.07050781 -0.09433594 49.08984375 -0.09765625 C50.46450806 -0.10551147 50.46450806 -0.10551147 51.86694336 -0.11352539 C54 0 54 0 55 1 C55.23840851 2.37680008 55.41820499 3.7638449 55.57250977 5.15258789 C55.67253799 6.03342545 55.77256622 6.914263 55.87562561 7.8217926 C55.97983322 8.77907761 56.08404083 9.73636261 56.19140625 10.72265625 C56.30097153 11.69786728 56.4105368 12.67307831 56.52342224 13.67784119 C56.87387347 16.80561958 57.21824656 19.93403398 57.5625 23.0625 C57.79842936 25.17777889 58.03475226 27.29301393 58.27148438 29.40820312 C58.85223087 34.6049677 59.42798296 39.80226772 60 45 C60.14622803 43.70787598 60.29245605 42.41575195 60.44311523 41.08447266 C60.98535558 36.30196865 61.5325657 31.52004428 62.08129883 26.73828125 C62.3183388 24.66649662 62.55402091 22.59455618 62.78833008 20.52246094 C63.12486741 17.54841007 63.4662441 14.57494918 63.80859375 11.6015625 C63.96490517 10.20618759 63.96490517 10.20618759 64.12437439 8.78262329 C64.27441673 7.49151138 64.27441673 7.49151138 64.42749023 6.17431641 C64.51409409 5.41486725 64.60069794 4.65541809 64.68992615 3.87295532 C65 2 65 2 66 0 C72.6 0 79.2 0 86 0 C85.39186694 8.89624957 84.46128081 17.66071866 83.1875 26.484375 C83.01371826 27.70658752 82.83993652 28.92880005 82.66088867 30.18804932 C82.29649586 32.7428487 81.93001887 35.29735164 81.56152344 37.8515625 C81.1841347 40.47162482 80.80903653 43.09186854 80.43847656 45.71289062 C79.90095658 49.51237285 79.35769944 53.31098795 78.8125 57.109375 C78.64580811 58.28836365 78.47911621 59.46735229 78.30737305 60.68206787 C78.07207886 62.30075775 78.07207886 62.30075775 77.83203125 63.95214844 C77.69514893 64.90555115 77.5582666 65.85895386 77.41723633 66.84124756 C77 69 77 69 76 70 C73.92737924 70.08767112 71.85179706 70.10695873 69.77734375 70.09765625 C68.64288818 70.09515869 67.50843262 70.09266113 66.33959961 70.09008789 C64.1605603 70.07643188 64.1605603 70.07643188 61.9375 70.0625 C55.0384375 70.0315625 55.0384375 70.0315625 48 70 C46.35 56.47 44.7 42.94 43 29 C42.38125 33.00125 41.7625 37.0025 41.125 41.125 C40.92495361 42.41801025 40.72490723 43.71102051 40.51879883 45.04321289 C39.40558997 52.27172167 38.34429684 59.50195781 37.39453125 66.75390625 C37 69 37 69 36 70 C34.00035018 70.08758003 31.9976389 70.10696576 29.99609375 70.09765625 C28.17368164 70.09282227 28.17368164 70.09282227 26.31445312 70.08789062 C25.03505859 70.07951172 23.75566406 70.07113281 22.4375 70.0625 C21.15423828 70.05798828 19.87097656 70.05347656 18.54882812 70.04882812 C15.36583978 70.03699545 12.18294238 70.02051068 9 70 C8.03836628 63.43891748 7.07825785 56.87761297 6.11914062 50.31616211 C5.79363397 48.09052646 5.46779589 45.86493926 5.14160156 43.6394043 C4.08472037 36.42764901 3.03712108 29.21462334 2 22 C1.88346069 21.19508118 1.76692139 20.39016235 1.64685059 19.56085205 C1.35027774 17.50097867 1.06152593 15.43998336 0.7734375 13.37890625 C0.62052246 12.29295166 0.46760742 11.20699707 0.31005859 10.08813477 C-0.02603801 6.74066555 0 3.36429949 0 0 Z " fill="#FD4F17" transform="translate(0,13)"/>
<path d="M0 0 C0.33 8.25 0.66 16.5 1 25 C3.64 23.68 6.28 22.36 9 21 C16.08647681 20.23684096 21.10094476 21.70772377 26.6875 26.125 C33.32558088 34.3777492 34.59316711 43.68801788 34 54 C32.86475051 63.51310332 30.19971482 70.72762731 22.68359375 76.87109375 C18.04443882 79.9818032 12.34875027 79.44318216 7 79 C3.54871328 77.66792442 1.59003919 76.59003919 -1 74 C-1.33 74.99 -1.66 75.98 -2 77 C-8.27 77 -14.54 77 -21 77 C-21 52.25 -21 27.5 -21 2 C-5 0 -5 0 0 0 Z M2.34375 37.8671875 C-0.95765836 42.28007001 -0.66926917 45.76224489 -0.5 51.125 C-0.50257813 52.03121094 -0.50515625 52.93742187 -0.5078125 53.87109375 C-0.63377079 58.62430056 -0.63377079 58.62430056 1.34179688 62.74951172 C3.06328113 64.24829919 3.06328113 64.24829919 6 64.5 C9.06296747 64.28819727 9.06296747 64.28819727 10.8125 62.1875 C13.64630073 54.58098226 13.9349528 45.65184122 11 38 C7.18281362 35.45520908 6.11313881 35.2175289 2.34375 37.8671875 Z " fill="#FC4F17" transform="translate(166,6)"/>
<path d="M0 0 C4.40943863 2.77235227 7.3394713 5.65071676 8.78125 10.74609375 C9.59709304 16.33801791 9.11520537 20.40654127 6.09375 25.31640625 C3.89665484 27.51350141 1.58054271 29.45642157 -0.90625 31.31640625 C-0.019375 31.68765625 0.8675 32.05890625 1.78125 32.44140625 C6.42844167 35.0718921 9.3670309 38.13624894 11.09375 43.31640625 C11.82775541 50.09091516 11.31995741 55.7998442 7.09375 61.31640625 C-0.24727029 68.48226119 -8.36875865 69.75138174 -18.33496094 69.75463867 C-26.47406216 69.55459796 -34.19496093 67.29960395 -40.15625 61.50390625 C-40.73375 60.78203125 -41.31125 60.06015625 -41.90625 59.31640625 C-40.42903578 55.86438986 -38.46830999 53.66678689 -35.78125 51.06640625 C-35.05679688 50.36 -34.33234375 49.65359375 -33.5859375 48.92578125 C-33.03164062 48.3946875 -32.47734375 47.86359375 -31.90625 47.31640625 C-31.14441406 47.84041016 -31.14441406 47.84041016 -30.3671875 48.375 C-26.26578499 51.08622675 -22.96165409 53.20650616 -17.90625 53.31640625 C-14.63810596 52.61699689 -14.63810596 52.61699689 -11.90625 51.31640625 C-10.50689987 48.51770598 -10.65359595 46.41141833 -10.90625 43.31640625 C-12.6603063 40.80367509 -13.81786184 40.33853287 -16.82421875 39.5859375 C-17.90316406 39.43511719 -18.98210937 39.28429688 -20.09375 39.12890625 C-21.18042969 38.97035156 -22.26710937 38.81179687 -23.38671875 38.6484375 C-24.21816406 38.53886719 -25.04960937 38.42929687 -25.90625 38.31640625 C-25.59874629 36.16985124 -25.2851134 34.0241734 -24.96875 31.87890625 C-24.70771484 30.08646484 -24.70771484 30.08646484 -24.44140625 28.2578125 C-23.90625 25.31640625 -23.90625 25.31640625 -22.90625 24.31640625 C-21.22740762 23.92324145 -19.53774955 23.57555173 -17.84375 23.25390625 C-16.92464844 23.07730469 -16.00554687 22.90070312 -15.05859375 22.71875 C-13.99318359 22.51958984 -13.99318359 22.51958984 -12.90625 22.31640625 C-12.13908149 19.46562534 -12.13908149 19.46562534 -11.90625 16.31640625 C-13.0485994 14.51755133 -13.0485994 14.51755133 -14.90625 13.31640625 C-20.95120277 12.68312548 -25.07996108 14.86905702 -29.90625 18.31640625 C-33.27138392 17.19469494 -34.27918173 16.11931987 -36.59375 13.50390625 C-37.21636719 12.81683594 -37.83898437 12.12976562 -38.48046875 11.421875 C-39.90625 9.31640625 -39.90625 9.31640625 -39.90625 5.31640625 C-37.96484375 3.68359375 -37.96484375 3.68359375 -35.34375 2.19140625 C-34.49683594 1.69382812 -33.64992187 1.19625 -32.77734375 0.68359375 C-22.7614715 -4.08586922 -10.14192644 -4.85122148 0 0 Z " fill="#FD4F17" transform="translate(241.90625,15.68359375)"/>
<path d="M0 0 C7.84667739 -0.39480138 14.98333598 1.10457788 21.2265625 6.0703125 C27.91892481 12.9097597 29.94838726 20.4081331 30.109375 29.8125 C30.02979301 34.01708199 30.02979301 34.01708199 28.859375 35.1875 C26.4836898 35.2758967 24.13728826 35.30280305 21.76171875 35.28515625 C20.69843102 35.28303383 20.69843102 35.28303383 19.61366272 35.28086853 C17.34135788 35.27525443 15.06915025 35.26269963 12.796875 35.25 C11.25976704 35.24498681 9.72265755 35.24042359 8.18554688 35.23632812 C4.41011858 35.22528042 0.63476329 35.20800641 -3.140625 35.1875 C-1.45254592 39.41834903 -1.45254592 39.41834903 1.859375 42.1875 C8.16715553 42.77743631 12.21783296 42.14259345 17.859375 39.1875 C21.60072836 40.37996322 23.07086273 42.5694123 25.109375 45.8125 C25.63015625 46.62976563 26.1509375 47.44703125 26.6875 48.2890625 C27.07421875 48.91554687 27.4609375 49.54203125 27.859375 50.1875 C20.5967175 56.96598034 12.46964033 58.81243275 2.76245117 58.65307617 C-5.78134577 58.26108454 -11.57486171 56.19603301 -17.578125 50.0625 C-23.77297003 42.40341888 -25.13474941 33.83879119 -24.140625 24.1875 C-22.73324388 16.27098119 -19.54501248 9.65919366 -13.1484375 4.6171875 C-8.7411631 1.70672327 -5.24597387 0.45950136 0 0 Z M-0.953125 15.3125 C-2.56290769 17.85426215 -2.81171509 20.2273108 -3.140625 23.1875 C0.819375 23.1875 4.779375 23.1875 8.859375 23.1875 C8.715 21.888125 8.570625 20.58875 8.421875 19.25 C8.30005859 18.15365234 8.30005859 18.15365234 8.17578125 17.03515625 C8.04050886 15.17609771 8.04050886 15.17609771 6.859375 14.1875 C2.75507224 13.79839078 2.75507224 13.79839078 -0.953125 15.3125 Z " fill="#FD4F17" transform="translate(435.140625,26.8125)"/>
<path d="M0 0 C6.5236614 5.28567285 9.42933237 10.85216167 11 19 C11 22.96 11 26.92 11 31 C0.11 31 -10.78 31 -22 31 C-19.83333333 36.83333333 -19.83333333 36.83333333 -17 38 C-10.69221947 38.58993631 -6.64154204 37.95509345 -1 35 C2.45656674 36.17055049 4.13793922 38.09858316 6.25 41 C7.03117187 42.051875 7.03117187 42.051875 7.828125 43.125 C9 45 9 45 9 47 C7.62884903 47.79831456 6.25285116 48.5883061 4.875 49.375 C4.10929687 49.81585938 3.34359375 50.25671875 2.5546875 50.7109375 C-5.99083919 55.02290051 -15.71808317 55.28401405 -25.01953125 53.3828125 C-31.96118477 50.97296043 -36.50530113 46.47388801 -40.05859375 40.1015625 C-44.11118081 31.22077363 -44.1168106 21.56885701 -41.04296875 12.390625 C-38.26681481 6.02730586 -34.16270113 1.27000468 -28 -2 C-18.55243835 -5.63367756 -8.85008817 -4.90057121 0 0 Z M-19.8125 11.125 C-21.42228269 13.66676215 -21.67109009 16.0398108 -22 19 C-18.04 19 -14.08 19 -10 19 C-9.4452998 13.23112508 -9.4452998 13.23112508 -12 10 C-15.10294377 9.60387952 -17.1109399 9.44816959 -19.8125 11.125 Z " fill="#FD4F17" transform="translate(130,31)"/>
<path d="M0 0 C-0.43632909 6.88940671 -1.08389845 13.35751464 -3 20 C-3.90492188 20.00386719 -3.90492188 20.00386719 -4.828125 20.0078125 C-7.33943426 20.12932746 -9.56914909 20.34618493 -12 21 C-16.05332622 25.66132515 -17.10204603 29.72900956 -17.31640625 35.76171875 C-17.35830078 36.87998047 -17.40019531 37.99824219 -17.44335938 39.15039062 C-17.48267578 40.31763672 -17.52199219 41.48488281 -17.5625 42.6875 C-17.60568359 43.86634766 -17.64886719 45.04519531 -17.69335938 46.25976562 C-17.79951094 49.17303626 -17.90026629 52.0865026 -18 55 C-24.6 55 -31.2 55 -38 55 C-38 37.18 -38 19.36 -38 1 C-32.06 1 -26.12 1 -20 1 C-19.34 2.98 -18.68 4.96 -18 7 C-17.29875 6.05125 -16.5975 5.1025 -15.875 4.125 C-11.32229326 -1.28453638 -6.69726718 -1.33945344 0 0 Z " fill="#FD4F17" transform="translate(411,28)"/>
<path d="M0 0 C6.93 0 13.86 0 21 0 C21 17.82 21 35.64 21 54 C14.07 54 7.14 54 0 54 C0 36.18 0 18.36 0 0 Z " fill="#FC4F17" transform="translate(344,29)"/>
<path d="M0 0 C3.63467079 1.62400184 4.77408696 2.66113044 7 6 C7.72022276 10.47208083 7.58211165 13.98669453 5.3125 17.9375 C2.80392405 20.17487855 1.27293835 21.23885155 -2 22 C-5.97565605 21.72100659 -9.75501466 21.433739 -13 19 C-15.81183156 14.92769222 -16.56368225 11.68608895 -15.69140625 6.90234375 C-14.72511594 4.24368058 -13.17113026 2.47868568 -10.87890625 0.84375 C-7.2930206 -0.76654376 -3.82110035 -0.65565006 0 0 Z " fill="#FD4F17" transform="translate(359,0)"/>
</svg>
