
        <svg xmlns="http://www.w3.org/2000/svg" xmlns:xlink="http://www.w3.org/1999/xlink" version="1.1" width="3164.461175028675" 
        height="663.5510557416183" viewBox="0 0 3164.461175028675 663.5510557416183">
			
			<g transform="scale(8.223058751433754) translate(10, 10)">
				<defs id="SvgjsDefs2558"></defs><g id="SvgjsG2559" featureKey="symbolFeature-0" transform="matrix(0.7986039063148199,0,0,0.7986039063148199,-7.9860337318919585,-9.583149389949432)" fill="#96deff"><g xmlns="http://www.w3.org/2000/svg" transform="translate(0,-952.36218)"><path d="m 60.7828,964.36215 27.1809,0.8834 -27.1809,25.9958 z m -1.9745,1.4513 0,26.7845 -25.2681,0 c 8.6166,-8.7334 16.8796,-17.8103 25.2681,-26.7845 z m 27.7053,3.628 3.4864,1.1989 -12.5877,7.4768 z m -68.1835,2.9656 5.5226,0 12.8654,14.0705 -5.9854,6.1204 -12.4026,0 c 9e-4,-6.7347 0,-13.4597 0,-20.1909 z m -1.9746,1.2304 0,5.8364 -6.3555,0 z m 3.363,20.9796 38.627,0 -10.7675,29.43465 z m 39.0898,4.54286 0,41.20229 -12.5878,-6.8775 c 4.1972,-11.443 8.3886,-22.879 12.5878,-34.32479 z" style="text-indent:0;text-transform:none;direction:ltr;block-progression:tb;baseline-shift:baseline;color:;enable-background:accumulate;" fill="#96deff" fill-opacity="1" stroke="none" marker="none" visibility="visible" display="inline" overflow="visible"></path></g></g><g id="SvgjsG2560" featureKey="nameFeature-0" transform="matrix(0.43023003866414167,0,0,0.43023003866414167,83.18194748778858,4.983519456021354)" fill="#cbb26a"><path d="M36.86 12 c0.44 0 0.58 0.28 0.48 0.68 l-7.14 26.84 c-0.08 0.32 -0.4 0.48 -0.72 0.48 l-2.5 0 c-0.32 0 -0.62 -0.16 -0.72 -0.48 l-6.66 -22.12 l-6.66 22.12 c-0.1 0.32 -0.4 0.48 -0.72 0.48 l-2.5 0 c-0.32 0 -0.64 -0.16 -0.72 -0.48 l-7.06 -26.84 c-0.12 -0.42 0.04 -0.68 0.48 -0.68 l1.92 0 c0.32 0 0.6 0.12 0.68 0.48 l5.96 23.72 l7.04 -23.72 c0.06 -0.22 0.18 -0.34 0.32 -0.42 c0.08 -0.04 0.2 -0.06 0.32 -0.06 l1.88 0 c0.12 0 0.24 0.02 0.32 0.06 c0.14 0.08 0.26 0.2 0.32 0.42 l7.04 23.72 l6.04 -23.72 c0.1 -0.36 0.36 -0.48 0.68 -0.48 l1.92 0 z M63.900000000000006 40.52 c-7.92 0 -14.32 -6.4 -14.32 -14.4 c0 -8.04 6.4 -14.44 14.32 -14.44 c7.88 0 14.28 6.4 14.28 14.44 c0 8 -6.4 14.4 -14.28 14.4 z M63.900000000000006 37.6 c6.28 0 11.24 -5.08 11.24 -11.48 c0 -6.44 -4.96 -11.52 -11.24 -11.52 c-6.32 0 -11.28 5.08 -11.28 11.52 c0 6.4 4.96 11.48 11.28 11.48 z M102.42 12 c7.04 0 9.76 3.12 9.76 8.64 s-2.72 8.64 -9.76 8.64 l-7.42 0 l0 10.12 c0 0.36 -0.24 0.6 -0.6 0.6 l-1.92 0 c-0.36 0 -0.6 -0.24 -0.6 -0.6 l0 -26.8 c0 -0.36 0.24 -0.6 0.6 -0.6 l9.94 0 z M102.62 26.4 c3.84 0 6.52 -1.08 6.52 -5.76 s-2.68 -5.76 -6.52 -5.76 l-7.62 0 l0 11.52 l7.62 0 z M142.58 37.12 c0.36 0 0.6 0.24 0.6 0.6 l0 1.68 c0 0.36 -0.24 0.6 -0.6 0.6 l-16.8 0 c-0.36 0 -0.6 -0.24 -0.6 -0.6 l0 -26.8 c0 -0.36 0.24 -0.6 0.6 -0.6 l1.92 0 c0.36 0 0.6 0.24 0.6 0.6 l0 24.52 l14.28 0 z M173.68 37.12 c0.36 0 0.6 0.24 0.6 0.6 l0 1.68 c0 0.36 -0.24 0.6 -0.6 0.6 l-16.8 0 c-0.36 0 -0.6 -0.24 -0.6 -0.6 l0 -26.8 c0 -0.36 0.24 -0.6 0.6 -0.6 l1.92 0 c0.36 0 0.6 0.24 0.6 0.6 l0 24.52 l14.28 0 z M206.07999999999998 14.879999999999999 l-7.74 0 l0 22.24 l7.74 0 c0.36 0 0.6 0.24 0.6 0.6 l0 1.68 c0 0.36 -0.24 0.6 -0.6 0.6 l-18.6 0 c-0.36 0 -0.6 -0.24 -0.6 -0.6 l0 -1.68 c0 -0.36 0.24 -0.6 0.6 -0.6 l7.74 0 l0 -22.24 l-7.74 0 c-0.36 0 -0.6 -0.24 -0.6 -0.6 l0 -1.68 c0 -0.36 0.24 -0.6 0.6 -0.6 l18.6 0 c0.36 0 0.6 0.24 0.6 0.6 l0 1.68 c0 0.36 -0.24 0.6 -0.6 0.6 z M263.48 12 c0.36 0 0.6 0.24 0.6 0.6 l0 1.68 c0 0.36 -0.24 0.6 -0.6 0.6 l-8.64 0 l0 24.52 c0 0.36 -0.24 0.6 -0.6 0.6 l-1.92 0 c-0.36 0 -0.6 -0.24 -0.6 -0.6 l0 -24.52 l-8.64 0 c-0.36 0 -0.6 -0.24 -0.6 -0.6 l0 -1.68 c0 -0.36 0.24 -0.6 0.6 -0.6 l20.4 0 z M294.68 37.12 c0.36 0 0.6 0.24 0.6 0.6 l0 1.68 c0 0.36 -0.24 0.6 -0.6 0.6 l-17 0 c-0.36 0 -0.6 -0.24 -0.6 -0.6 l0 -26.8 c0 -0.36 0.24 -0.6 0.6 -0.6 l16.96 0 c0.36 0 0.6 0.24 0.6 0.6 l0 1.68 c0 0.36 -0.24 0.6 -0.6 0.6 l-14.44 0 l0 8.96 l13.36 0 c0.36 0 0.6 0.24 0.6 0.6 l0 1.68 c0 0.36 -0.24 0.6 -0.6 0.6 l-13.36 0 l0 10.4 l14.48 0 z M330.6 34.64 l1.24 1.28 c0.28 0.28 0.24 0.58 -0.04 0.84 c-2.58 2.42 -5.62 3.76 -9.44 3.76 c-7.96 0 -14.08 -6.4 -14.08 -14.4 c0 -8.04 6.12 -14.44 14.08 -14.44 c3.82 0 6.86 1.44 9.44 3.76 c0.28 0.24 0.32 0.56 0.04 0.84 l-1.24 1.28 c-0.28 0.28 -0.56 0.24 -0.84 0 c-2.06 -1.78 -4.38 -2.84 -7.4 -2.84 c-6.04 0 -10.92 4.88 -10.92 11.4 c0 6.48 4.88 11.36 10.92 11.36 c3.02 0 5.34 -1.06 7.4 -2.84 c0.28 -0.24 0.56 -0.28 0.84 0 z M366.04 12 c0.36 0 0.6 0.24 0.6 0.6 l0 26.8 c0 0.36 -0.24 0.6 -0.6 0.6 l-1.92 0 c-0.36 0 -0.6 -0.24 -0.6 -0.6 l0 -12.28 l-14.96 0 l0 12.28 c0 0.36 -0.24 0.6 -0.6 0.6 l-1.92 0 c-0.36 0 -0.6 -0.24 -0.6 -0.6 l0 -26.8 c0 -0.36 0.24 -0.6 0.6 -0.6 l1.92 0 c0.36 0 0.6 0.24 0.6 0.6 l0 11.64 l14.96 0 l0 -11.64 c0 -0.36 0.24 -0.6 0.6 -0.6 l1.92 0 z M401.18 12 c0.36 0 0.6 0.24 0.6 0.6 l0 26.8 c0 0.32 -0.18 0.54 -0.48 0.6 l-2.68 0 c-0.32 0 -0.56 -0.12 -0.72 -0.4 l-13.64 -23.12 l0 22.92 c0 0.36 -0.24 0.6 -0.6 0.6 l-1.92 0 c-0.36 0 -0.6 -0.24 -0.6 -0.6 l0 -26.8 c0 -0.32 0.18 -0.54 0.48 -0.6 l2.68 0 c0.32 0 0.56 0.12 0.72 0.4 l13.64 23.12 l0 -22.92 c0 -0.36 0.24 -0.6 0.6 -0.6 l1.92 0 z M429.8 40.52 c-7.92 0 -14.32 -6.4 -14.32 -14.4 c0 -8.04 6.4 -14.44 14.32 -14.44 c7.88 0 14.28 6.4 14.28 14.44 c0 8 -6.4 14.4 -14.28 14.4 z M429.8 37.6 c6.28 0 11.24 -5.08 11.24 -11.48 c0 -6.44 -4.96 -11.52 -11.24 -11.52 c-6.32 0 -11.28 5.08 -11.28 11.52 c0 6.4 4.96 11.48 11.28 11.48 z M475.18 37.12 c0.36 0 0.6 0.24 0.6 0.6 l0 1.68 c0 0.36 -0.24 0.6 -0.6 0.6 l-16.8 0 c-0.36 0 -0.6 -0.24 -0.6 -0.6 l0 -26.8 c0 -0.36 0.24 -0.6 0.6 -0.6 l1.92 0 c0.36 0 0.6 0.24 0.6 0.6 l0 24.52 l14.28 0 z M502.40000000000003 40.52 c-7.92 0 -14.32 -6.4 -14.32 -14.4 c0 -8.04 6.4 -14.44 14.32 -14.44 c7.88 0 14.28 6.4 14.28 14.44 c0 8 -6.4 14.4 -14.28 14.4 z M502.40000000000003 37.6 c6.28 0 11.24 -5.08 11.24 -11.48 c0 -6.44 -4.96 -11.52 -11.24 -11.52 c-6.32 0 -11.28 5.08 -11.28 11.52 c0 6.4 4.96 11.48 11.28 11.48 z M555.94 25.560000000000002 c0.36 0 0.6 0.24 0.6 0.6 l0 1.28 c0 7.44 -4.88 13.08 -12.84 13.08 c-8.08 0 -14.12 -6.44 -14.12 -14.46 c0 -7.98 6.12 -14.38 14.08 -14.38 c3.82 0 6.86 1.44 9.44 3.76 c0.28 0.24 0.32 0.56 0.04 0.84 l-1.24 1.28 c-0.28 0.28 -0.56 0.24 -0.84 0 c-2.06 -1.78 -4.38 -2.84 -7.4 -2.84 c-6.04 0 -10.92 4.88 -10.92 11.34 c0 6.5 4.8 11.42 10.96 11.42 c5.66 0 9.72 -3.68 9.88 -9.04 l-9.44 0 c-0.36 0 -0.6 -0.24 -0.6 -0.6 l0 -1.68 c0 -0.36 0.24 -0.6 0.6 -0.6 l11.8 0 z M588.94 14.879999999999999 l-7.74 0 l0 22.24 l7.74 0 c0.36 0 0.6 0.24 0.6 0.6 l0 1.68 c0 0.36 -0.24 0.6 -0.6 0.6 l-18.6 0 c-0.36 0 -0.6 -0.24 -0.6 -0.6 l0 -1.68 c0 -0.36 0.24 -0.6 0.6 -0.6 l7.74 0 l0 -22.24 l-7.74 0 c-0.36 0 -0.6 -0.24 -0.6 -0.6 l0 -1.68 c0 -0.36 0.24 -0.6 0.6 -0.6 l18.6 0 c0.36 0 0.6 0.24 0.6 0.6 l0 1.68 c0 0.36 -0.24 0.6 -0.6 0.6 z M621.14 37.12 c0.36 0 0.6 0.24 0.6 0.6 l0 1.68 c0 0.36 -0.24 0.6 -0.6 0.6 l-17 0 c-0.36 0 -0.6 -0.24 -0.6 -0.6 l0 -26.8 c0 -0.36 0.24 -0.6 0.6 -0.6 l16.96 0 c0.36 0 0.6 0.24 0.6 0.6 l0 1.68 c0 0.36 -0.24 0.6 -0.6 0.6 l-14.44 0 l0 8.96 l13.36 0 c0.36 0 0.6 0.24 0.6 0.6 l0 1.68 c0 0.36 -0.24 0.6 -0.6 0.6 l-13.36 0 l0 10.4 l14.48 0 z M644.3 24.240000000000002 c5.48 1.16 10.34 2.72 10.34 8.6 c0 4.52 -3.14 7.76 -10.22 7.76 c-5.96 0 -9.68 -2.24 -10.08 -6.6 c-0.04 -0.4 0.2 -0.74 0.56 -0.74 l1.9 0 c0.36 0 0.56 0.3 0.6 0.62 c0.3 2.36 2.86 3.88 7.02 3.88 c4.6 0 7.14 -1.6 7.14 -4.92 c0 -3.92 -2.9 -4.64 -7.26 -5.68 c-5.1 -1.22 -9.28 -2.88 -9.28 -8.24 c0 -4.38 3.04 -7.26 9.12 -7.26 c5.68 0 9.2 2.18 9.64 6.5 c0.04 0.4 -0.2 0.58 -0.56 0.58 l-1.76 0 c-0.36 0 -0.56 -0.14 -0.6 -0.46 c-0.28 -2.24 -2.72 -3.82 -6.72 -3.82 c-3.68 0 -6.12 1.48 -6.12 4.46 c0 3.06 2.26 4.46 6.28 5.32 z"></path></g><g id="SvgjsG2561" featureKey="sloganFeature-0" transform="matrix(0.5668716160709494,0,0,0.5668716160709494,97.46106651331452,38.689469405342464)" fill="#cbb26a"><path d="M18.43 6 c0.22 0 0.29 0.14 0.24 0.34 l-3.57 13.42 c-0.04 0.16 -0.2 0.24 -0.36 0.24 l-1.25 0 c-0.16 0 -0.31 -0.08 -0.36 -0.24 l-3.33 -11.06 l-3.33 11.06 c-0.05 0.16 -0.2 0.24 -0.36 0.24 l-1.25 0 c-0.16 0 -0.32 -0.08 -0.36 -0.24 l-3.53 -13.42 c-0.06 -0.21 0.02 -0.34 0.24 -0.34 l0.96 0 c0.16 0 0.3 0.06 0.34 0.24 l2.98 11.86 l3.52 -11.86 c0.03 -0.11 0.09 -0.17 0.16 -0.21 c0.04 -0.02 0.1 -0.03 0.16 -0.03 l0.94 0 c0.06 0 0.12 0.01 0.16 0.03 c0.07 0.04 0.13 0.1 0.16 0.21 l3.52 11.86 l3.02 -11.86 c0.05 -0.18 0.18 -0.24 0.34 -0.24 l0.96 0 z M36.15 20.26 c-3.96 0 -7.16 -3.2 -7.16 -7.2 c0 -4.02 3.2 -7.22 7.16 -7.22 c3.94 0 7.14 3.2 7.14 7.22 c0 4 -3.2 7.2 -7.14 7.2 z M36.15 18.8 c3.14 0 5.62 -2.54 5.62 -5.74 c0 -3.22 -2.48 -5.76 -5.62 -5.76 c-3.16 0 -5.64 2.54 -5.64 5.76 c0 3.2 2.48 5.74 5.64 5.74 z M61.44 14.46 l2.74 5.19 c0.11 0.21 0.01 0.35 -0.22 0.35 l-1.03 0 c-0.16 0 -0.27 -0.07 -0.35 -0.22 l-2.68 -5.14 l-0.29 0 l-3.71 0 l0 5.06 c0 0.18 -0.12 0.3 -0.3 0.3 l-0.96 0 c-0.18 0 -0.3 -0.12 -0.3 -0.3 l0 -13.4 c0 -0.18 0.12 -0.3 0.3 -0.3 l4.97 0 c3.52 0 4.88 1.56 4.88 4.32 c0 2.22 -0.88 3.66 -3.05 4.14 z M55.89999999999999 7.4399999999999995 l0 5.76 l3.81 0 c1.92 0 3.26 -0.54 3.26 -2.88 s-1.34 -2.88 -3.26 -2.88 l-3.81 0 z M84.91 19.64 c0.14 0.2 0.06 0.36 -0.18 0.36 l-1.18 0 c-0.16 0 -0.26 -0.04 -0.36 -0.18 l-4.88 -6.51 l-1.76 1.95 l0 4.44 c0 0.18 -0.12 0.3 -0.3 0.3 l-0.96 0 c-0.18 0 -0.3 -0.12 -0.3 -0.3 l0 -13.4 c0 -0.18 0.12 -0.3 0.3 -0.3 l0.96 0 c0.18 0 0.3 0.12 0.3 0.3 l0 6.87 l6.28 -7.01 c0.1 -0.12 0.22 -0.16 0.36 -0.16 l1.26 0 c0.26 0 0.34 0.18 0.16 0.36 l-5.29 5.84 z M98.97999999999999 18.67 c0.18 0 0.3 0.12 0.3 0.3 l0 0.35 c0 1.62 -0.32 3.46 -0.7 4.48 c-0.06 0.16 -0.2 0.24 -0.36 0.24 l-0.46 0 c-0.2 0 -0.3 -0.12 -0.26 -0.34 c0.19 -1.02 0.3 -2.72 0.28 -3.7 l-2.5 0 c-0.18 0 -0.3 -0.12 -0.3 -0.3 l0 -0.73 c0 -0.18 0.12 -0.3 0.3 -0.3 l3.7 0 z M131.39999999999998 6 c3.52 0 4.88 1.56 4.88 4.32 s-1.36 4.32 -4.88 4.32 l-3.71 0 l0 5.06 c0 0.18 -0.12 0.3 -0.3 0.3 l-0.96 0 c-0.18 0 -0.3 -0.12 -0.3 -0.3 l0 -13.4 c0 -0.18 0.12 -0.3 0.3 -0.3 l4.97 0 z M131.49999999999997 13.2 c1.92 0 3.26 -0.54 3.26 -2.88 s-1.34 -2.88 -3.26 -2.88 l-3.81 0 l0 5.76 l3.81 0 z M155.67999999999998 18.56 c0.18 0 0.3 0.12 0.3 0.3 l0 0.84 c0 0.18 -0.12 0.3 -0.3 0.3 l-8.4 0 c-0.18 0 -0.3 -0.12 -0.3 -0.3 l0 -13.4 c0 -0.18 0.12 -0.3 0.3 -0.3 l0.96 0 c0.18 0 0.3 0.12 0.3 0.3 l0 12.26 l7.14 0 z M177.76999999999998 19.66 c0.08 0.2 -0.02 0.34 -0.24 0.34 l-0.96 0 c-0.16 0 -0.27 -0.06 -0.34 -0.24 l-1.07 -2.86 l-6.74 0 l-1.07 2.86 c-0.07 0.18 -0.18 0.24 -0.34 0.24 l-0.96 0 c-0.22 0 -0.32 -0.14 -0.24 -0.34 l5.12 -13.42 c0.06 -0.16 0.2 -0.24 0.36 -0.24 l1 0 c0.16 0 0.3 0.08 0.36 0.24 z M168.93999999999997 15.5 l5.7 0 l-2.85 -7.6 z M199.28999999999996 6 c0.24 0 0.33 0.16 0.2 0.36 l-5.31 8.22 l0 5.12 c0 0.18 -0.12 0.3 -0.3 0.3 l-0.96 0 c-0.18 0 -0.3 -0.12 -0.3 -0.3 l0 -5.12 l-5.31 -8.22 c-0.13 -0.2 -0.04 -0.36 0.2 -0.36 l1.13 0 c0.16 0 0.27 0.06 0.36 0.2 l4.4 6.82 l4.4 -6.82 c0.09 -0.14 0.2 -0.2 0.36 -0.2 l1.13 0 z M213.49999999999997 18.67 c0.18 0 0.3 0.12 0.3 0.3 l0 0.35 c0 1.62 -0.32 3.46 -0.7 4.48 c-0.06 0.16 -0.2 0.24 -0.36 0.24 l-0.46 0 c-0.2 0 -0.3 -0.12 -0.26 -0.34 c0.19 -1.02 0.3 -2.72 0.28 -3.7 l-2.5 0 c-0.18 0 -0.3 -0.12 -0.3 -0.3 l0 -0.73 c0 -0.18 0.12 -0.3 0.3 -0.3 l3.7 0 z M249.34999999999997 18.56 c0.18 0 0.3 0.12 0.3 0.3 l0 0.84 c0 0.18 -0.12 0.3 -0.3 0.3 l-8.4 0 c-0.18 0 -0.3 -0.12 -0.3 -0.3 l0 -13.4 c0 -0.18 0.12 -0.3 0.3 -0.3 l0.96 0 c0.18 0 0.3 0.12 0.3 0.3 l0 12.26 l7.14 0 z M269.19999999999993 18.56 c0.18 0 0.3 0.12 0.3 0.3 l0 0.84 c0 0.18 -0.12 0.3 -0.3 0.3 l-8.5 0 c-0.18 0 -0.3 -0.12 -0.3 -0.3 l0 -13.4 c0 -0.18 0.12 -0.3 0.3 -0.3 l8.48 0 c0.18 0 0.3 0.12 0.3 0.3 l0 0.84 c0 0.18 -0.12 0.3 -0.3 0.3 l-7.22 0 l0 4.48 l6.68 0 c0.18 0 0.3 0.12 0.3 0.3 l0 0.84 c0 0.18 -0.12 0.3 -0.3 0.3 l-6.68 0 l0 5.2 l7.24 0 z M291.63999999999993 19.66 c0.08 0.2 -0.02 0.34 -0.24 0.34 l-0.96 0 c-0.16 0 -0.27 -0.06 -0.34 -0.24 l-1.07 -2.86 l-6.74 0 l-1.07 2.86 c-0.07 0.18 -0.18 0.24 -0.34 0.24 l-0.96 0 c-0.22 0 -0.32 -0.14 -0.24 -0.34 l5.12 -13.42 c0.06 -0.16 0.2 -0.24 0.36 -0.24 l1 0 c0.16 0 0.3 0.08 0.36 0.24 z M282.80999999999995 15.5 l5.7 0 l-2.85 -7.6 z M309.2699999999999 14.46 l2.74 5.19 c0.11 0.21 0.01 0.35 -0.22 0.35 l-1.03 0 c-0.16 0 -0.27 -0.07 -0.35 -0.22 l-2.68 -5.14 l-0.29 0 l-3.71 0 l0 5.06 c0 0.18 -0.12 0.3 -0.3 0.3 l-0.96 0 c-0.18 0 -0.3 -0.12 -0.3 -0.3 l0 -13.4 c0 -0.18 0.12 -0.3 0.3 -0.3 l4.97 0 c3.52 0 4.88 1.56 4.88 4.32 c0 2.22 -0.88 3.66 -3.05 4.14 z M303.7299999999999 7.4399999999999995 l0 5.76 l3.81 0 c1.92 0 3.26 -0.54 3.26 -2.88 s-1.34 -2.88 -3.26 -2.88 l-3.81 0 z M333.0899999999999 6 c0.18 0 0.3 0.12 0.3 0.3 l0 13.4 c0 0.16 -0.09 0.27 -0.24 0.3 l-1.34 0 c-0.16 0 -0.28 -0.06 -0.36 -0.2 l-6.82 -11.56 l0 11.46 c0 0.18 -0.12 0.3 -0.3 0.3 l-0.96 0 c-0.18 0 -0.3 -0.12 -0.3 -0.3 l0 -13.4 c0 -0.16 0.09 -0.27 0.24 -0.3 l1.34 0 c0.16 0 0.28 0.06 0.36 0.2 l6.82 11.56 l0 -11.46 c0 -0.18 0.12 -0.3 0.3 -0.3 l0.96 0 z M348.3899999999999 18.67 c0.18 0 0.3 0.12 0.3 0.3 l0 0.35 c0 1.62 -0.32 3.46 -0.7 4.48 c-0.06 0.16 -0.2 0.24 -0.36 0.24 l-0.46 0 c-0.2 0 -0.3 -0.12 -0.26 -0.34 c0.19 -1.02 0.3 -2.72 0.28 -3.7 l-2.5 0 c-0.18 0 -0.3 -0.12 -0.3 -0.3 l0 -0.73 c0 -0.18 0.12 -0.3 0.3 -0.3 l3.7 0 z M384.2399999999999 18.56 c0.18 0 0.3 0.12 0.3 0.3 l0 0.84 c0 0.18 -0.12 0.3 -0.3 0.3 l-8.4 0 c-0.18 0 -0.3 -0.12 -0.3 -0.3 l0 -13.4 c0 -0.18 0.12 -0.3 0.3 -0.3 l0.96 0 c0.18 0 0.3 0.12 0.3 0.3 l0 12.26 l7.14 0 z M404.63999999999993 7.4399999999999995 l-3.87 0 l0 11.12 l3.87 0 c0.18 0 0.3 0.12 0.3 0.3 l0 0.84 c0 0.18 -0.12 0.3 -0.3 0.3 l-9.3 0 c-0.18 0 -0.3 -0.12 -0.3 -0.3 l0 -0.84 c0 -0.18 0.12 -0.3 0.3 -0.3 l3.87 0 l0 -11.12 l-3.87 0 c-0.18 0 -0.3 -0.12 -0.3 -0.3 l0 -0.84 c0 -0.18 0.12 -0.3 0.3 -0.3 l9.3 0 c0.18 0 0.3 0.12 0.3 0.3 l0 0.84 c0 0.18 -0.12 0.3 -0.3 0.3 z M425.63999999999993 6.24 c0.07 -0.18 0.18 -0.24 0.34 -0.24 l0.96 0 c0.22 0 0.32 0.14 0.24 0.34 l-5.12 13.42 c-0.06 0.16 -0.2 0.24 -0.36 0.24 l-1 0 c-0.16 0 -0.3 -0.08 -0.36 -0.24 l-5.12 -13.42 c-0.08 -0.2 0.02 -0.34 0.24 -0.34 l0.96 0 c0.16 0 0.27 0.06 0.34 0.24 l4.44 11.86 z M446.50999999999993 18.56 c0.18 0 0.3 0.12 0.3 0.3 l0 0.84 c0 0.18 -0.12 0.3 -0.3 0.3 l-8.5 0 c-0.18 0 -0.3 -0.12 -0.3 -0.3 l0 -13.4 c0 -0.18 0.12 -0.3 0.3 -0.3 l8.48 0 c0.18 0 0.3 0.12 0.3 0.3 l0 0.84 c0 0.18 -0.12 0.3 -0.3 0.3 l-7.22 0 l0 4.48 l6.68 0 c0.18 0 0.3 0.12 0.3 0.3 l0 0.84 c0 0.18 -0.12 0.3 -0.3 0.3 l-6.68 0 l0 5.2 l7.24 0 z"></path></g>
			</g>
		</svg>
	
