<svg width="125" height="27" viewBox="0 0 125 27" fill="none" xmlns="http://www.w3.org/2000/svg">
<path d="M98.5782 25.93L110.34 0.995803H112.42L124.181 25.93H119.265L111.436 7.74881L103.495 25.93H98.5782ZM104.478 20.4385V16.8765H118.584V20.4385H104.478Z" fill="#020304"/>
<path d="M84.0817 26.4866C82.216 26.4866 80.4764 26.165 78.8628 25.5218C77.2492 24.854 75.8374 23.9387 74.6272 22.7761C73.417 21.5888 72.4716 20.2035 71.7908 18.6204C71.1101 17.0373 70.7697 15.3305 70.7697 13.5C70.7697 11.6695 71.1101 9.96271 71.7908 8.37959C72.4716 6.79646 73.417 5.4236 74.6272 4.26099C75.8374 3.07365 77.2492 2.15841 78.8628 1.51527C80.4764 0.847385 82.216 0.513445 84.0817 0.513445C85.9474 0.513445 87.687 0.847385 89.3006 1.51527C90.9141 2.15841 92.326 3.07365 93.5362 4.26099C94.7464 5.4236 95.6918 6.79646 96.3725 8.37959C97.0533 9.96271 97.3936 11.6695 97.3936 13.5C97.3936 15.3305 97.0533 17.0373 96.3725 18.6204C95.6918 20.2035 94.7464 21.5888 93.5362 22.7761C92.326 23.9387 90.9141 24.854 89.3006 25.5218C87.687 26.165 85.9474 26.4866 84.0817 26.4866ZM84.0817 22.5906C85.8213 22.5906 87.3718 22.1948 88.7333 21.4032C90.12 20.5869 91.2041 19.4986 91.9856 18.1381C92.7672 16.7776 93.158 15.2315 93.158 13.5C93.158 11.7685 92.7672 10.2224 91.9856 8.86195C91.2041 7.47671 90.12 6.38832 88.7333 5.59675C87.3718 4.80519 85.8213 4.40941 84.0817 4.40941C82.342 4.40941 80.7915 4.80519 79.4301 5.59675C78.0686 6.38832 76.9845 7.47671 76.1777 8.86195C75.3961 10.2224 75.0054 11.7685 75.0054 13.5C75.0054 15.2315 75.3961 16.7776 76.1777 18.1381C76.9845 19.4986 78.0686 20.5869 79.4301 21.4032C80.7915 22.1948 82.342 22.5906 84.0817 22.5906Z" fill="#020304"/>
<path d="M52.7561 18.9544L50.9787 15.986L64.9335 1.07001H70.0768L52.7561 18.9544ZM49.7307 25.93V1.07001H53.8528V25.93H49.7307ZM65.5764 25.93L55.1386 13.7226L58.3154 10.9398L71.0978 25.93H65.5764Z" fill="#020304"/>
<path d="M20.8255 25.93L32.5869 0.995803H34.6668L46.4282 25.93H41.5119L33.6836 7.74881L25.7418 25.93H20.8255ZM26.7251 20.4385V16.8765H40.8312V20.4385H26.7251Z" fill="#020304"/>
<path fill-rule="evenodd" clip-rule="evenodd" d="M97.7595 26.4434L110.005 0.482358H112.754L125 26.4434H118.918L116.553 20.952H106.239L103.84 26.4434H97.7595ZM105.893 20.4385H116.9L119.265 25.93H124.181L112.42 0.995803H110.34L98.5782 25.93H103.495L105.893 20.4385ZM111.436 7.74881L107.449 16.8765H115.367L111.436 7.74881ZM114.577 16.3631L111.433 9.06017L108.243 16.3631H114.577Z" fill="#020304"/>
<path fill-rule="evenodd" clip-rule="evenodd" d="M78.6594 25.9949C76.9874 25.3028 75.5198 24.3522 74.2611 23.143L74.2571 23.1392C72.9981 21.9038 72.015 20.4627 71.3087 18.82C70.599 17.1697 70.2464 15.3945 70.2464 13.5C70.2464 11.6055 70.599 9.83035 71.3087 8.18001C72.0151 6.5372 72.9985 5.10758 74.259 3.89612C75.5183 2.66109 76.9875 1.709 78.6625 1.0409C80.3437 0.345529 82.1519 0 84.0817 0C86.0114 0 87.8197 0.345529 89.5009 1.0409C91.1758 1.70897 92.645 2.66099 93.9042 3.89592C95.1648 5.10743 96.1483 6.53712 96.8547 8.18001C97.5643 9.83035 97.9169 11.6055 97.9169 13.5C97.9169 15.3945 97.5643 17.1697 96.8547 18.82C96.1483 20.4627 95.1653 21.9038 93.9062 23.1392L93.9023 23.143C92.6436 24.3522 91.176 25.3028 89.504 25.9949L89.4976 25.9976C87.8171 26.6673 86.01 27 84.0817 27C82.1533 27 80.3463 26.6673 78.6658 25.9975L78.6594 25.9949ZM93.5362 4.26099C92.326 3.07365 90.9141 2.15841 89.3006 1.51527C87.687 0.847385 85.9474 0.513445 84.0817 0.513445C82.216 0.513445 80.4764 0.847385 78.8628 1.51527C77.2492 2.15841 75.8374 3.07365 74.6272 4.26099C73.417 5.4236 72.4716 6.79646 71.7908 8.37959C71.1101 9.96271 70.7697 11.6695 70.7697 13.5C70.7697 15.3305 71.1101 17.0373 71.7908 18.6204C72.4716 20.2035 73.417 21.5888 74.6272 22.7761C75.8374 23.9387 77.2492 24.854 78.8628 25.5218C80.4764 26.165 82.216 26.4866 84.0817 26.4866C85.9474 26.4866 87.687 26.165 89.3006 25.5218C90.9141 24.854 92.326 23.9387 93.5362 22.7761C94.7464 21.5888 95.6918 20.2035 96.3725 18.6204C97.0533 17.0373 97.3936 15.3305 97.3936 13.5C97.3936 11.6695 97.0533 9.96271 96.3725 8.37959C95.6918 6.79646 94.7464 5.4236 93.5362 4.26099ZM91.5298 9.11405L91.5278 9.11062C90.7917 7.80596 89.7746 6.78521 88.4701 6.04055L88.4665 6.03848C87.1937 5.29844 85.737 4.92286 84.0817 4.92286C82.4263 4.92286 80.9697 5.29844 79.6969 6.03847C78.4161 6.7831 77.396 7.8056 76.633 9.11507C75.9007 10.3903 75.5287 11.8474 75.5287 13.5C75.5287 15.1517 75.9003 16.6082 76.6319 17.8829C77.3944 19.1677 78.4154 20.1925 79.6999 20.9633C80.972 21.7022 82.4276 22.0771 84.0817 22.0771C85.7363 22.0771 87.1924 21.7019 88.4649 20.9625C89.7747 20.1913 90.7936 19.1674 91.5298 17.8859C92.2625 16.6105 92.6347 15.153 92.6347 13.5C92.6347 11.847 92.2625 10.3895 91.5298 9.11405ZM88.7333 21.4032C87.3718 22.1948 85.8213 22.5906 84.0817 22.5906C82.342 22.5906 80.7915 22.1948 79.4301 21.4032C78.0686 20.5869 76.9845 19.4986 76.1777 18.1381C75.3961 16.7776 75.0054 15.2315 75.0054 13.5C75.0054 11.7685 75.3961 10.2224 76.1777 8.86195C76.9845 7.47671 78.0686 6.38832 79.4301 5.59675C80.7915 4.80519 82.342 4.40941 84.0817 4.40941C85.8213 4.40941 87.3718 4.80519 88.7333 5.59675C90.12 6.38832 91.2041 7.47671 91.9856 8.86195C92.7672 10.2224 93.158 11.7685 93.158 13.5C93.158 15.2315 92.7672 16.7776 91.9856 18.1381C91.2041 19.4986 90.12 20.5869 88.7333 21.4032Z" fill="#020304"/>
<path fill-rule="evenodd" clip-rule="evenodd" d="M53.8528 17.8219V25.93H49.7307V1.07001H53.8528V12.9139L64.9335 1.07001H70.0768L59.3467 12.1493L71.0978 25.93H65.5764L56.3973 15.1947L53.8528 17.8219ZM54.3762 18.027V26.4434H49.2074V0.556567H54.3762V11.5952L64.7035 0.556567H71.2959L60.0476 12.171L72.218 26.4434H65.3324L56.373 15.9651L54.3762 18.027Z" fill="#020304"/>
<path fill-rule="evenodd" clip-rule="evenodd" d="M20.0067 26.4434L32.2525 0.482358H35.0014L47.2472 26.4434H41.165L38.8005 20.952H28.4857L26.087 26.4434H20.0067ZM28.1407 20.4385H39.1476L41.5119 25.93H46.4282L34.6668 0.995803H32.5869L20.8255 25.93H25.7418L28.1407 20.4385ZM33.6836 7.74881L29.6966 16.8765H37.6138L33.6836 7.74881ZM36.8247 16.3631L33.6802 9.06017L30.4902 16.3631H36.8247Z" fill="#020304"/>
<path fill-rule="evenodd" clip-rule="evenodd" d="M6.47351 0.257725L8.47999 3.771L12.2914 9.76536L18.3367 0.257725H24.596L20.232 7.5731L9.36378 24.79V16.5509L0 0.257725H6.47351ZM15.6776 18.3635L15.6776 26.4434H10.5603L15.6776 18.3635Z" fill="#020304"/>
<path d="M10.5603 26.4434L15.6776 18.3635L15.6776 26.4434H10.5603Z" fill="#675CE0"/>
</svg>
