<svg version="1.1" id="Layer_1" xmlns="http://www.w3.org/2000/svg" xmlns:xlink="http://www.w3.org/1999/xlink" x="0px" y="0px"
	 width="100%" viewBox="0 0 409 291" enable-background="new 0 0 409 291" xml:space="preserve">
<path fill="#FFFEFE" opacity="1.000000" stroke="none" 
	d="
M294.000000,0.999999 
	C332.651917,1.000000 371.303833,1.000000 409.977875,1.000000 
	C409.977875,97.948227 409.977875,194.896469 409.977875,291.922363 
	C273.770508,291.922363 137.540939,291.922363 1.155688,291.922363 
	C1.155688,195.000183 1.155688,98.000122 1.155688,1.000000 
	C14.072488,1.000000 27.067585,1.000000 40.764412,1.419649 
	C41.466141,20.934494 41.466141,40.029690 41.466141,59.523540 
	C43.604774,59.429440 45.631851,59.340244 47.672508,59.250450 
	C47.847996,56.115517 47.918343,53.619068 48.137501,51.135754 
	C50.281780,26.839056 57.822399,19.242134 81.548172,18.929819 
	C108.536446,18.574558 135.533112,18.854389 162.526093,18.884405 
	C162.912918,18.884834 163.299332,19.225794 163.889755,19.503790 
	C163.084106,20.614323 162.425415,21.541292 161.747513,22.454014 
	C121.026520,77.280479 78.676872,130.827209 34.399677,182.814957 
	C28.118135,190.190384 27.223692,197.404816 28.411373,206.043915 
	C93.374016,206.043915 158.095169,206.043915 223.173355,206.043915 
	C223.173355,171.425110 223.173355,137.297943 223.626816,103.113556 
	C228.579498,103.038818 233.080383,102.933907 237.577637,103.019707 
	C252.556641,103.305466 267.568970,103.144989 282.501587,104.149910 
	C294.519043,104.958649 305.309479,109.576561 309.713165,121.917908 
	C312.470367,129.644974 313.733429,137.995544 314.908905,146.175278 
	C316.634735,158.184250 317.228485,170.363754 319.154968,182.333725 
	C320.873871,193.013885 325.952484,201.993408 336.962250,205.743210 
	C346.538727,209.004837 356.538910,210.443283 366.455475,207.846298 
	C371.131042,206.621857 375.769989,204.183990 379.657074,201.270630 
	C385.686737,196.751373 387.467865,188.904724 384.990784,182.410233 
	C382.598083,176.137131 375.771881,173.127930 368.856476,175.297760 
	C362.839966,177.185547 360.148071,182.441788 361.692139,189.193726 
	C361.922638,190.201599 361.943085,191.257492 362.060669,192.291168 
	C360.047546,191.184875 358.596985,189.772491 358.015686,188.064285 
	C356.469330,183.520126 354.705597,178.924988 354.096710,174.212082 
	C352.711945,163.494095 352.015594,152.688644 350.953247,141.927231 
	C348.597992,118.068855 339.035095,107.082191 315.600647,101.843727 
	C307.361359,100.001945 298.953400,98.914429 290.559204,97.471634 
	C298.068359,95.608696 305.601196,94.216911 312.816101,91.854256 
	C329.739471,86.312393 340.166687,74.903915 341.535400,56.726318 
	C343.808777,26.533518 332.785553,9.111653 303.890350,3.231704 
	C300.579315,2.557927 297.296112,1.747218 294.000000,0.999999 
M234.826187,265.113770 
	C227.368637,262.222412 226.229080,252.873566 229.458954,247.375992 
	C232.858002,241.590454 239.672623,240.315033 246.491348,244.036636 
	C247.431931,244.549973 248.695358,244.471756 249.809326,244.667419 
	C249.521149,242.872330 248.999512,242.010056 248.249252,241.459152 
	C243.403351,237.900925 235.558533,238.018143 230.423203,241.652161 
	C225.447067,245.173477 223.191940,251.824188 224.854645,258.074615 
	C226.476929,264.173126 231.845657,268.742706 238.189819,268.992096 
	C247.104324,269.342499 254.498459,267.179169 250.774750,255.904922 
	C247.308929,257.231110 242.984192,254.227783 238.590942,258.662659 
	C242.628189,258.962646 245.341309,259.164276 247.826111,259.348907 
	C249.230560,263.161804 247.308426,264.980133 244.375397,265.430481 
	C241.500412,265.871918 238.498062,265.483643 234.826187,265.113770 
M108.153931,241.572128 
	C104.530663,246.058716 100.907394,250.545288 97.058945,255.310699 
	C92.392708,249.686249 88.058670,244.462204 83.523483,238.995712 
	C83.523483,249.437729 83.523483,259.090057 83.523483,268.742371 
	C84.174408,268.797363 84.825333,268.852356 85.476257,268.907349 
	C85.656830,265.481018 85.913048,262.056580 85.997437,258.627869 
	C86.088257,254.937881 86.017960,251.243912 86.017960,246.439270 
	C90.155609,251.597214 93.426193,255.674301 96.936684,260.050446 
	C100.655899,255.465164 103.931564,251.426727 107.981842,246.433289 
	C107.981842,251.534927 107.707863,255.339951 108.064957,259.084778 
	C108.373497,262.320496 106.401878,266.243561 110.701141,269.927734 
	C110.701141,258.939697 110.701141,249.261978 110.701141,239.584274 
	C110.389984,239.355408 110.078835,239.126541 109.767677,238.897675 
	C109.390991,239.608017 109.014297,240.318344 108.153931,241.572128 
M157.468811,267.560608 
	C158.507736,267.606262 160.411850,267.862488 160.459488,267.666809 
	C161.764313,262.306000 166.045395,263.936340 169.380203,263.978302 
	C172.846634,264.021942 177.275070,262.202637 178.766220,267.717712 
	C178.930710,268.326141 180.441452,268.570557 182.717499,269.631653 
	C178.094711,258.486694 174.067062,248.776550 169.571655,237.938705 
	C165.262650,248.495117 161.506088,257.698120 157.468811,267.560608 
M301.896851,251.410706 
	C301.896851,248.461472 301.896851,245.512238 301.896851,241.671234 
	C307.085449,241.671234 311.833252,241.671234 316.581055,241.671234 
	C316.577057,240.941086 316.573059,240.210953 316.569061,239.480804 
	C310.847595,238.711121 305.051300,239.197403 299.107544,239.198425 
	C299.107544,249.295044 299.107544,258.842194 299.107544,268.893250 
	C305.270081,268.368164 311.313293,270.076599 316.934448,267.908478 
	C316.887512,267.235626 316.840576,266.562775 316.793640,265.889923 
	C311.902710,265.889923 307.011780,265.889923 302.163513,265.889923 
	C302.163513,263.344849 302.163513,261.414185 302.163513,258.828857 
	C306.574463,258.828857 310.741699,258.828857 314.908905,258.828857 
	C315.020416,258.338959 315.131927,257.849030 315.243439,257.359131 
	C314.287354,256.941986 313.353333,256.241058 312.370697,256.164520 
	C310.057770,255.984406 307.705444,255.928406 305.398895,256.142853 
	C302.402496,256.421448 301.543549,255.035141 301.896851,251.410706 
M372.377472,241.926270 
	C374.462097,242.720154 376.546722,243.514038 379.539246,244.653671 
	C377.511108,239.220078 373.850311,238.192184 370.303986,239.211685 
	C367.885437,239.906952 365.156128,242.271423 364.177368,244.574478 
	C362.739838,247.956955 364.710449,251.012070 368.022644,252.814209 
	C369.921539,253.847397 371.860931,254.808197 373.800415,255.764420 
	C376.918549,257.301758 379.185852,259.393707 377.815247,263.210144 
	C376.795135,266.050598 372.069946,267.083588 368.587799,265.304016 
	C367.434174,264.714447 366.581757,263.538055 365.430389,262.940796 
	C364.592773,262.506317 363.490234,262.582520 362.505829,262.431061 
	C362.278870,263.028687 362.051910,263.626312 361.824951,264.223907 
	C364.385254,265.781616 366.766663,267.943176 369.544647,268.766388 
	C374.699860,270.294006 379.555817,268.029663 381.007446,264.211578 
	C382.707855,259.739136 380.761383,255.751343 375.440887,252.912613 
	C373.681274,251.973785 371.624542,251.419678 370.153015,250.163330 
	C368.785522,248.995789 366.945496,246.853348 367.256409,245.636642 
	C367.642059,244.127502 370.027039,243.129272 372.377472,241.926270 
M31.095346,241.944061 
	C31.094280,249.582718 31.036427,257.222168 31.144049,264.859314 
	C31.163614,266.247803 31.859751,267.626740 32.243553,269.010071 
	C32.863796,268.907990 33.484035,268.805878 34.104275,268.703766 
	C34.104275,259.339417 34.348003,249.963943 33.922897,240.618927 
	C33.823853,238.441620 31.777466,238.602448 31.095346,241.944061 
z"/>
<path fill="#ED2025" opacity="1.000000" stroke="none" 
	d="
M223.173355,103.170761 
	C223.173355,137.297943 223.173355,171.425110 223.173355,206.043915 
	C158.095169,206.043915 93.374016,206.043915 28.411373,206.043915 
	C27.223692,197.404816 28.118135,190.190384 34.399677,182.814957 
	C78.676872,130.827209 121.026520,77.280479 161.747513,22.454014 
	C162.425415,21.541292 163.084106,20.614323 163.889755,19.503790 
	C163.299332,19.225794 162.912918,18.884834 162.526093,18.884405 
	C135.533112,18.854389 108.536446,18.574558 81.548172,18.929819 
	C57.822399,19.242134 50.281780,26.839056 48.137501,51.135754 
	C47.918343,53.619068 47.847996,56.115517 47.672508,59.250450 
	C45.631851,59.340244 43.604774,59.429440 41.466141,59.523540 
	C41.466141,40.029690 41.466141,20.934494 41.233070,1.419649 
	C41.444447,1.000000 41.888889,1.000000 42.943405,1.315558 
	C45.532471,1.753291 47.511417,1.981256 49.490479,1.982255 
	C107.241272,2.011418 164.992081,2.017943 222.782715,2.488600 
	C222.933487,7.476353 223.044434,12.003600 222.930634,16.820166 
	C176.267548,73.122948 130.020782,129.286957 87.426018,188.465256 
	C108.854813,188.465256 129.819763,188.475098 150.784729,188.462799 
	C177.483871,188.447144 196.269608,175.550934 206.079651,150.574020 
	C212.066895,135.330170 213.767975,119.336021 214.905838,103.104942 
	C217.942688,103.088364 220.558029,103.129562 223.173355,103.170761 
z"/>
<path fill="#179B9C" opacity="1.000000" stroke="none" 
	d="
M223.155365,16.530846 
	C223.044434,12.003600 222.933487,7.476353 223.061584,2.411867 
	C223.533752,1.583086 223.766876,1.291545 224.000000,1.000002 
	C247.020889,1.000000 270.041779,1.000000 293.531342,0.999999 
	C297.296112,1.747218 300.579315,2.557927 303.890350,3.231704 
	C332.785553,9.111653 343.808777,26.533518 341.535400,56.726318 
	C340.166687,74.903915 329.739471,86.312393 312.816101,91.854256 
	C305.601196,94.216911 298.068359,95.608696 290.559204,97.471634 
	C298.953400,98.914429 307.361359,100.001945 315.600647,101.843727 
	C339.035095,107.082191 348.597992,118.068855 350.953247,141.927231 
	C352.015594,152.688644 352.711945,163.494095 354.096710,174.212082 
	C354.705597,178.924988 356.469330,183.520126 358.015686,188.064285 
	C358.596985,189.772491 360.047546,191.184875 362.060669,192.291168 
	C361.943085,191.257492 361.922638,190.201599 361.692139,189.193726 
	C360.148071,182.441788 362.839966,177.185547 368.856476,175.297760 
	C375.771881,173.127930 382.598083,176.137131 384.990784,182.410233 
	C387.467865,188.904724 385.686737,196.751373 379.657074,201.270630 
	C375.769989,204.183990 371.131042,206.621857 366.455475,207.846298 
	C356.538910,210.443283 346.538727,209.004837 336.962250,205.743210 
	C325.952484,201.993408 320.873871,193.013885 319.154968,182.333725 
	C317.228485,170.363754 316.634735,158.184250 314.908905,146.175278 
	C313.733429,137.995544 312.470367,129.644974 309.713165,121.917908 
	C305.309479,109.576561 294.519043,104.958649 282.501587,104.149910 
	C267.568970,103.144989 252.556641,103.305466 237.577637,103.019707 
	C233.080383,102.933907 228.579498,103.038818 223.626816,103.113556 
	C220.558029,103.129562 217.942688,103.088364 214.404572,103.038437 
	C203.909012,103.029724 194.336227,103.029724 184.382004,103.029724 
	C184.659225,99.647560 184.880737,96.945259 185.154480,93.605621 
	C195.263184,93.605621 205.040756,93.605621 215.267426,93.703423 
	C218.145752,93.737518 220.575027,93.673813 223.463776,93.702583 
	C238.909103,93.809174 253.895920,93.935265 268.880585,93.808929 
	C287.434692,93.652496 300.102081,84.503777 303.372498,66.887398 
	C305.216736,56.953045 304.773560,46.405083 304.026794,36.231449 
	C303.269165,25.909382 296.480927,19.900629 286.388275,17.972967 
	C281.832672,17.102863 277.181091,16.274580 272.568268,16.247753 
	C256.098389,16.151978 239.626495,16.407965 223.155365,16.530846 
M366.963348,196.471512 
	C366.093384,195.514282 365.223389,194.557053 364.353424,193.599823 
	C364.012939,194.010590 363.672424,194.421371 363.331940,194.832153 
	C364.260895,195.421432 365.189850,196.010727 366.963348,196.471512 
z"/>
<path fill="#F1575B" opacity="1.000000" stroke="none" 
	d="
M223.531342,1.000002 
	C223.766876,1.291545 223.533752,1.583086 223.021744,1.951361 
	C164.992081,2.017943 107.241272,2.011418 49.490479,1.982255 
	C47.511417,1.981256 45.532471,1.753291 43.276733,1.315558 
	C103.020897,1.000000 163.041794,1.000000 223.531342,1.000002 
z"/>
<path fill="#7C7D80" opacity="1.000000" stroke="none" 
	d="
M235.188904,265.286621 
	C238.498062,265.483643 241.500412,265.871918 244.375397,265.430481 
	C247.308426,264.980133 249.230560,263.161804 247.826111,259.348907 
	C245.341309,259.164276 242.628189,258.962646 238.590942,258.662659 
	C242.984192,254.227783 247.308929,257.231110 250.774750,255.904922 
	C254.498459,267.179169 247.104324,269.342499 238.189819,268.992096 
	C231.845657,268.742706 226.476929,264.173126 224.854645,258.074615 
	C223.191940,251.824188 225.447067,245.173477 230.423203,241.652161 
	C235.558533,238.018143 243.403351,237.900925 248.249252,241.459152 
	C248.999512,242.010056 249.521149,242.872330 249.809326,244.667419 
	C248.695358,244.471756 247.431931,244.549973 246.491348,244.036636 
	C239.672623,240.315033 232.858002,241.590454 229.458954,247.375992 
	C226.229080,252.873566 227.368637,262.222412 235.188904,265.286621 
z"/>
<path fill="#737477" opacity="1.000000" stroke="none" 
	d="
M108.395767,241.300415 
	C109.014297,240.318344 109.390991,239.608017 109.767677,238.897675 
	C110.078835,239.126541 110.389984,239.355408 110.701141,239.584274 
	C110.701141,249.261978 110.701141,258.939697 110.701141,269.927734 
	C106.401878,266.243561 108.373497,262.320496 108.064957,259.084778 
	C107.707863,255.339951 107.981842,251.534927 107.981842,246.433289 
	C103.931564,251.426727 100.655899,255.465164 96.936684,260.050446 
	C93.426193,255.674301 90.155609,251.597214 86.017960,246.439270 
	C86.017960,251.243912 86.088257,254.937881 85.997437,258.627869 
	C85.913048,262.056580 85.656830,265.481018 85.476257,268.907349 
	C84.825333,268.852356 84.174408,268.797363 83.523483,268.742371 
	C83.523483,259.090057 83.523483,249.437729 83.523483,238.995712 
	C88.058670,244.462204 92.392708,249.686249 97.058945,255.310699 
	C100.907394,250.545288 104.530663,246.058716 108.395767,241.300415 
z"/>
<path fill="#7A7A7D" opacity="1.000000" stroke="none" 
	d="
M157.609161,267.230865 
	C161.506088,257.698120 165.262650,248.495117 169.571655,237.938705 
	C174.067062,248.776550 178.094711,258.486694 182.717499,269.631653 
	C180.441452,268.570557 178.930710,268.326141 178.766220,267.717712 
	C177.275070,262.202637 172.846634,264.021942 169.380203,263.978302 
	C166.045395,263.936340 161.764313,262.306000 160.459488,267.666809 
	C160.411850,267.862488 158.507736,267.606262 157.609161,267.230865 
M166.172699,253.795395 
	C165.371475,256.036469 164.570251,258.277557 163.702133,260.705750 
	C167.861069,260.705750 171.402939,260.705750 175.720490,260.705750 
	C173.648361,255.548737 171.778244,250.894455 169.654953,245.610138 
	C168.394455,248.582397 167.438522,250.836472 166.172699,253.795395 
z"/>
<path fill="#7A7A7D" opacity="1.000000" stroke="none" 
	d="
M301.897003,251.888870 
	C301.543549,255.035141 302.402496,256.421448 305.398895,256.142853 
	C307.705444,255.928406 310.057770,255.984406 312.370697,256.164520 
	C313.353333,256.241058 314.287354,256.941986 315.243439,257.359131 
	C315.131927,257.849030 315.020416,258.338959 314.908905,258.828857 
	C310.741699,258.828857 306.574463,258.828857 302.163513,258.828857 
	C302.163513,261.414185 302.163513,263.344849 302.163513,265.889923 
	C307.011780,265.889923 311.902710,265.889923 316.793640,265.889923 
	C316.840576,266.562775 316.887512,267.235626 316.934448,267.908478 
	C311.313293,270.076599 305.270081,268.368164 299.107544,268.893250 
	C299.107544,258.842194 299.107544,249.295044 299.107544,239.198425 
	C305.051300,239.197403 310.847595,238.711121 316.569061,239.480804 
	C316.573059,240.210953 316.577057,240.941086 316.581055,241.671234 
	C311.833252,241.671234 307.085449,241.671234 301.896851,241.671234 
	C301.896851,245.512238 301.896851,248.461472 301.897003,251.888870 
z"/>
<path fill="#7A7B7E" opacity="1.000000" stroke="none" 
	d="
M371.962952,241.918304 
	C370.027039,243.129272 367.642059,244.127502 367.256409,245.636642 
	C366.945496,246.853348 368.785522,248.995789 370.153015,250.163330 
	C371.624542,251.419678 373.681274,251.973785 375.440887,252.912613 
	C380.761383,255.751343 382.707855,259.739136 381.007446,264.211578 
	C379.555817,268.029663 374.699860,270.294006 369.544647,268.766388 
	C366.766663,267.943176 364.385254,265.781616 361.824951,264.223907 
	C362.051910,263.626312 362.278870,263.028687 362.505829,262.431061 
	C363.490234,262.582520 364.592773,262.506317 365.430389,262.940796 
	C366.581757,263.538055 367.434174,264.714447 368.587799,265.304016 
	C372.069946,267.083588 376.795135,266.050598 377.815247,263.210144 
	C379.185852,259.393707 376.918549,257.301758 373.800415,255.764420 
	C371.860931,254.808197 369.921539,253.847397 368.022644,252.814209 
	C364.710449,251.012070 362.739838,247.956955 364.177368,244.574478 
	C365.156128,242.271423 367.885437,239.906952 370.303986,239.211685 
	C373.850311,238.192184 377.511108,239.220078 379.539246,244.653671 
	C376.546722,243.514038 374.462097,242.720154 371.962952,241.918304 
z"/>
<path fill="#7C7C7F" opacity="1.000000" stroke="none" 
	d="
M31.106388,241.495361 
	C31.777466,238.602448 33.823853,238.441620 33.922897,240.618927 
	C34.348003,249.963943 34.104275,259.339417 34.104275,268.703766 
	C33.484035,268.805878 32.863796,268.907990 32.243553,269.010071 
	C31.859751,267.626740 31.163614,266.247803 31.144049,264.859314 
	C31.036427,257.222168 31.094280,249.582718 31.106388,241.495361 
z"/>
<path fill="#FEFEFE" opacity="1.000000" stroke="none" 
	d="
M222.930634,16.820164 
	C239.626495,16.407965 256.098389,16.151978 272.568268,16.247753 
	C277.181091,16.274580 281.832672,17.102863 286.388275,17.972967 
	C296.480927,19.900629 303.269165,25.909382 304.026794,36.231449 
	C304.773560,46.405083 305.216736,56.953045 303.372498,66.887398 
	C300.102081,84.503777 287.434692,93.652496 268.880585,93.808929 
	C253.895920,93.935265 238.909103,93.809174 223.464630,93.261635 
	C223.006027,82.145027 223.006027,71.561844 223.006027,60.717010 
	C220.196396,60.717010 217.789307,60.717010 214.818344,60.717010 
	C214.818344,71.810974 214.818344,82.708298 214.818344,93.605621 
	C205.040756,93.605621 195.263184,93.605621 185.154480,93.605621 
	C184.880737,96.945259 184.659225,99.647560 184.382004,103.029724 
	C194.336227,103.029724 203.909012,103.029724 213.983063,103.096222 
	C213.767975,119.336021 212.066895,135.330170 206.079651,150.574020 
	C196.269608,175.550934 177.483871,188.447144 150.784729,188.462799 
	C129.819763,188.475098 108.854813,188.465256 87.426018,188.465256 
	C130.020782,129.286957 176.267548,73.122948 222.930634,16.820164 
z"/>
<path fill="#EB2328" opacity="1.000000" stroke="none" 
	d="
M215.267426,93.703423 
	C214.818344,82.708298 214.818344,71.810974 214.818344,60.717010 
	C217.789307,60.717010 220.196396,60.717010 223.006027,60.717010 
	C223.006027,71.561844 223.006027,82.145027 223.005157,93.169159 
	C220.575027,93.673813 218.145752,93.737518 215.267426,93.703423 
z"/>
<path fill="#FFFEFE" opacity="1.000000" stroke="none" 
	d="
M366.541077,196.535767 
	C365.189850,196.010727 364.260895,195.421432 363.331940,194.832153 
	C363.672424,194.421371 364.012939,194.010590 364.353424,193.599823 
	C365.223389,194.557053 366.093384,195.514282 366.541077,196.535767 
z"/>
<path fill="#F8F8F8" opacity="1.000000" stroke="none" 
	d="
M166.327652,253.442963 
	C167.438522,250.836472 168.394455,248.582397 169.654953,245.610138 
	C171.778244,250.894455 173.648361,255.548737 175.720490,260.705750 
	C171.402939,260.705750 167.861069,260.705750 163.702133,260.705750 
	C164.570251,258.277557 165.371475,256.036469 166.327652,253.442963 
z"/>
</svg>