<svg xmlns="http://www.w3.org/2000/svg" height="285" version="1.1" width="1000">
<path d="M541.817 184.201c0 30.971-38.541 29.133-38.541 29.133h-38.54V157.371h38.54C542.939 157.105 541.817 184.201 541.817 184.201M464.736 72.023h29.368c30.496 1.611 29.345 24.316 29.345 24.316c0 28.216-33.721 28.676-33.721 28.676H464.736V72.023zM534.688 136.02c0 0 26.38-11.241 26.145-41.057c0 0 4.012-48.864-60.729-54.824H428.266v204.849h82.344c0 0 68.802 0.205 68.802-57.799C579.411 187.189 581.038 147.716 534.688 136.02M348.773 0h302.453V285.013H348.773V0zM193.041 184.201c0 30.971-38.541 29.133-38.541 29.133h-38.543V157.371h38.543C194.166 157.105 193.041 184.201 193.041 184.201M115.957 72.023h29.374c30.497 1.611 29.343 24.316 29.343 24.316c0 28.216-33.719 28.676-33.719 28.676h-24.998V72.023zM185.915 136.02c0 0 26.384-11.241 26.147-41.057c0 0 4.009-48.864-60.732-54.824h-71.841v204.849h82.349c0 0 68.801 0.205 68.801-57.799C230.639 187.189 232.26 147.716 185.915 136.02M0 0h302.453V285.013H0V0zM938.301 54.825v37.846c0 0-36.942-22.702-77.764-23.159c0 0-76.161-1.495-79.594 73.005c0 0-2.751 68.513 78.676 72.417c0 0 34.165 4.115 80.514-25.441v39.195c0 0-62.173 36.939-134.197 8.488c0 0-60.545-22.109-62.851-94.659c0 0-2.518-74.619 78.23-99.389c0 0 21.563-8.255 60.313-4.586C881.629 38.541 904.789 40.832 938.301 54.825M697.547 285.013H1000V0H697.547V285.013z"/></svg>
