<svg id="Logo" xmlns="http://www.w3.org/2000/svg" viewBox="0 0 246.14 200">
<defs><style>.cls-1{fill:#1d9bf0;}</style></defs>
<path id="Logo-2" data-name="Logo" class="cls-1" d="M222,51.29c.15,2.16.15,4.34.15,6.52,0,66.74-50.8,143.69-143.69,143.69v0A142.91,142.91,0,0,1,1,178.82a102.72,102.72,0,0,0,12,.72,101.29,101.29,0,0,0,62.72-21.66,50.53,50.53,0,0,1-47.18-35.07,50.35,50.35,0,0,0,22.8-.86,50.53,50.53,0,0,1-40.52-49.5v-.64a50.25,50.25,0,0,0,22.92,6.32A50.55,50.55,0,0,1,18.14,10.71,143.38,143.38,0,0,0,122.22,63.48a50.55,50.55,0,0,1,86.06-46.06A101.19,101.19,0,0,0,240.34,5.16a50.66,50.66,0,0,1-22.2,27.93,100.89,100.89,0,0,0,29-7.94A102.84,102.84,0,0,1,222,51.29Z" transform="translate(-1.01 -1.5)"/>
</svg>