<?xml version="1.0" encoding="utf-8"?>
<!-- Generator: Adobe Illustrator 23.0.1, SVG Export Plug-In . SVG Version: 6.00 Build 0)  -->
<svg version="1.1" id="Layer_1" xmlns="http://www.w3.org/2000/svg" xmlns:xlink="http://www.w3.org/1999/xlink" x="0px" y="0px"
	 viewBox="0 0 1150.1 400" style="enable-background:new 0 0 1150.1 400;" xml:space="preserve">
<style type="text/css">
	.st0{fill:#F68E1E;}
	.st1{fill:#FFFFFF;}
</style>
<title>WITNESS_2019_LOGO_FOUR</title>
<rect x="2.1" y="200.1" class="st0" width="334.9" height="97.9"/>
<rect x="404.6" y="200.1" class="st0" width="355.1" height="97.9"/>
<rect x="502.7" y="300" class="st0" width="571.9" height="97.9"/>
<g>
	<g>
		<g>
			<path d="M587.2,366.5c-1,2.6-2.9,7.2-6.9,11.9c-5.6,6.5-14.5,12.3-27.4,12.3c-21,0-37.1-15.4-37.1-41.9c0-27,17.4-41.5,37.7-41.5
				c24.7,0,30.6,19,32.4,24.5l-14.8,3.9c-0.2-1.5-0.9-4.8-2.9-7.9c-1.7-2.5-6.1-7-14.3-7c-12.9,0-21.9,10.7-21.9,27.7
				c0,18.1,9.6,28.1,22,28.1c7.4,0,11.9-3.6,15.2-7.8c2.6-3.5,3.6-6.4,4.2-8.2L587.2,366.5z"/>
			<path d="M658.5,309.3v79.4h-15v-36.1h-34.1v36.1h-14.8v-79.4h14.8v30h34.1v-30H658.5z"/>
			<path d="M714.4,373.1h-29.8l-4.6,15.5h-15.9l26.8-79.4h16.9l27.1,79.4H719L714.4,373.1z M710.5,360.2l-10.9-36.5l-11,36.5H710.5z
				"/>
			<path d="M787.4,309.3H802v79.4h-12.9L754.3,333l0.9,55.7h-14.5v-79.4h13.4l35.1,56.1L787.4,309.3z"/>
			<path d="M884.1,345.3v43.4h-12.7v-6.7c-7.1,7-15.1,8.8-21.7,8.8c-24.5,0-37.4-19.6-37.4-40.9c0-25,16.5-42.5,38.3-42.5
				c16.5,0,28.7,10.1,33.5,23.4l-14.2,5.7c-1.5-4.4-5.7-15.7-19.2-15.7c-15,0-22.3,13-22.3,28.7c0,17.4,9.6,27.4,22.5,27.4
				c8.3,0,18.2-4.4,19.6-18.4h-19.8v-13H884.1z"/>
			<path d="M911.5,322.5v18.7h38.2V354h-38.2v21.3h44.6v13.4h-59.3v-79.4h56.4v13.3H911.5z"/>
			<path d="M999.2,309.3v79.4h-14.6v-79.4H999.2z"/>
			<path d="M1063.9,322.8H1042v65.9h-14.8v-65.9h-21.5v-13.5h58.2V322.8z"/>
		</g>
		<path d="M1076.6,399.9H500.7V298h575.9V399.9z M502.7,397.9h571.9V300H502.7V397.9z"/>
	</g>
	<g>
		<g>
			<path d="M338.9,300H0.1V198.1h338.9V300z M2.1,298h334.9v-97.9H2.1V298z"/>
			<g>
				<path d="M26.1,265.1c1.9,2.9,7.9,12,24.6,12c2.8,0,5.7-0.2,8.5-1.3c5.7-2.4,6.7-6.4,6.7-9.1c0-5.1-3.5-6.9-6-7.9
					c-1.8-0.7-2-0.8-9.2-2.5l-9.6-2c-5.1-1.2-7.5-1.8-10-2.8c-3.6-1.5-13.4-6.3-13.4-19.5c0-15.1,12.7-24.7,31.4-24.7
					c17.1,0,26.3,8.4,31.9,16.1L69,232.5c-2.7-3.9-7.9-11.8-20.6-11.8c-8,0-15,3.6-15,9.7c0,6.7,7.4,8.1,14.6,9.4l8.2,1.8
					c10.7,2.2,25.7,6.6,25.7,23.6c0,18.2-16.9,25.5-33.7,25.5c-4.4,0-9.3-0.5-14.2-1.8c-5.3-1.6-14.6-5.4-20.6-15.1L26.1,265.1z"/>
				<path d="M105.9,222.6v18.7h38.2v12.8h-38.2v21.3h44.6v13.4H91.3v-79.4h56.4v13.3H105.9z"/>
				<path d="M173.6,222.6v18.7h38.2v12.8h-38.2v21.3h44.6v13.4H159v-79.4h56.4v13.3H173.6z"/>
				<path d="M261.2,209.4v79.4h-14.6v-79.4H261.2z"/>
				<path d="M325.8,222.8h-21.9v65.9h-14.8v-65.9h-21.5v-13.5h58.2V222.8z"/>
			</g>
		</g>
	</g>
</g>
<rect x="150.1" y="0.1" width="1000" height="200"/>
<g>
	<path class="st1" d="M1059.1,115.3c5.1,1.2,9.8,2.4,14,3.5c4.2,1.1,7.8,2.4,10.7,3.9c3,1.5,5.3,3.4,6.9,5.6
		c1.6,2.3,2.5,5.1,2.5,8.5c0,6.4-2.7,11.2-8.1,14.3c-5.4,3.1-12.5,4.7-21.4,4.7c-4.4,0-8.6-0.4-12.6-1.2c-4.1-0.8-7.9-2.3-11.4-4.7
		c-5-3.1-8-6.5-9.1-10c-1.1-3.6-1.8-7.3-2.1-11.2l-37.1,1.9c0.2,2.2,0.4,5.2,0.8,9c0.4,3.8,1.4,7.9,3,12.1c1.6,4.3,4,8.6,7.1,13
		c3.1,4.4,7.5,8.3,13.1,11.7c3.6,2.2,7.5,3.9,11.8,5.3c4.3,1.4,8.5,2.4,12.7,3.1c4.2,0.7,8.2,1.2,12,1.4c3.8,0.2,7.1,0.3,9.9,0.3
		c3.9,0,8-0.2,12.4-0.6c4.4-0.4,8.7-1.1,13-2c4.3-0.9,8.4-2.1,12.5-3.6c4-1.5,7.7-3.4,11-5.7c6.7-4.8,11.8-10.9,15.4-18.2
		c2.2-4.2,3.6-8.4,4.2-12.5c0.6-4.1,0.9-7.8,0.9-11.1c0-9.7-1.9-17.5-5.6-23.6c-3.7-6.1-8.6-11-14.5-14.8
		c-5.9-3.8-12.5-6.7-19.7-8.8c-7.2-2-14.3-3.7-21.1-5.1c-6.1-1.2-11.4-2.5-16-3.6c-4.6-1.2-8.4-2.5-11.3-3.9c-3-1.4-5.2-3.1-6.7-5
		c-1.5-1.9-2.2-4.5-2.2-7.6c0-4.2,1.1-7.4,3.4-9.6c2.3-2.2,4.8-3.8,7.7-4.9c2.9-1.1,5.8-1.7,8.6-1.9c2.9-0.2,4.9-0.2,6.2-0.2
		c3.7,0,7.4,0.3,11,0.8c3.6,0.5,6.9,1.8,10,3.6c4.5,2.8,7.4,6.1,8.5,9.8c1.2,3.7,2,7.3,2.5,10.7l36.7-2.8c-0.3-2.5-0.8-5.5-1.4-9
		c-0.6-3.5-1.8-7.2-3.4-11.1c-1.6-3.9-3.9-7.7-6.8-11.6c-2.9-3.8-6.7-7.2-11.6-10.3c-4.8-3-10.8-5.5-18-7.4
		c-7.2-1.9-15.8-2.8-25.9-2.8c-3.3,0-6.9,0.2-11,0.5c-4.1,0.3-8.2,0.9-12.5,1.9c-4.3,0.9-8.5,2.2-12.6,3.9
		c-4.1,1.6-7.9,3.8-11.3,6.4c-6.2,4.5-10.9,10.5-14,17.8c-2.3,5.9-3.5,12.2-3.5,19c0,1.9,0.2,4.2,0.5,6.9c0.3,2.7,0.9,5.6,1.9,8.7
		c0.9,3,2.4,6.2,4.3,9.4c1.9,3.2,4.6,6.3,7.8,9.2c5.6,4.8,12,8.3,19.3,10.5c7.2,2.2,14.2,4.1,20.9,5.6L1059.1,115.3z M912.6,115.3
		c5.1,1.2,9.8,2.4,14,3.5c4.2,1.1,7.8,2.4,10.7,3.9c3,1.5,5.3,3.4,6.9,5.6c1.6,2.3,2.5,5.1,2.5,8.5c0,6.4-2.7,11.2-8.1,14.3
		c-5.4,3.1-12.5,4.7-21.4,4.7c-4.4,0-8.6-0.4-12.6-1.2c-4.1-0.8-7.9-2.3-11.4-4.7c-5-3.1-8-6.5-9.1-10c-1.1-3.6-1.8-7.3-2.1-11.2
		l-37.1,1.9c0.2,2.2,0.4,5.2,0.8,9c0.4,3.8,1.4,7.9,3,12.1c1.6,4.3,4,8.6,7.1,13c3.1,4.4,7.5,8.3,13.1,11.7
		c3.6,2.2,7.5,3.9,11.8,5.3c4.3,1.4,8.5,2.4,12.7,3.1c4.2,0.7,8.2,1.2,12,1.4c3.8,0.2,7.1,0.3,9.9,0.3c3.9,0,8-0.2,12.4-0.6
		c4.4-0.4,8.7-1.1,13-2c4.3-0.9,8.4-2.1,12.5-3.6c4-1.5,7.7-3.4,11-5.7c6.7-4.8,11.8-10.9,15.4-18.2c2.2-4.2,3.6-8.4,4.2-12.5
		c0.6-4.1,0.9-7.8,0.9-11.1c0-9.7-1.9-17.5-5.6-23.6c-3.7-6.1-8.6-11-14.5-14.8c-5.9-3.8-12.5-6.7-19.7-8.8
		c-7.2-2-14.3-3.7-21.1-5.1c-6.1-1.2-11.4-2.5-16-3.6c-4.6-1.2-8.4-2.5-11.3-3.9c-3-1.4-5.2-3.1-6.7-5c-1.5-1.9-2.2-4.5-2.2-7.6
		c0-4.2,1.1-7.4,3.4-9.6c2.3-2.2,4.8-3.8,7.7-4.9c2.9-1.1,5.8-1.7,8.6-1.9c2.9-0.2,4.9-0.2,6.2-0.2c3.7,0,7.4,0.3,11,0.8
		c3.6,0.5,6.9,1.8,10,3.6c4.5,2.8,7.4,6.1,8.5,9.8c1.2,3.7,2,7.3,2.5,10.7l36.7-2.8c-0.3-2.5-0.8-5.5-1.4-9
		c-0.6-3.5-1.8-7.2-3.4-11.1c-1.6-3.9-3.9-7.7-6.8-11.6c-2.9-3.8-6.7-7.2-11.6-10.3c-4.8-3-10.8-5.5-18-7.4
		c-7.2-1.9-15.8-2.8-25.9-2.8c-3.3,0-6.9,0.2-11,0.5c-4.1,0.3-8.2,0.9-12.5,1.9c-4.3,0.9-8.5,2.2-12.6,3.9
		c-4.1,1.6-7.9,3.8-11.3,6.4c-6.2,4.5-10.9,10.5-14,17.8c-2.3,5.9-3.5,12.2-3.5,19c0,1.9,0.2,4.2,0.5,6.9c0.3,2.7,0.9,5.6,1.9,8.7
		c0.9,3,2.4,6.2,4.3,9.4c1.9,3.2,4.6,6.3,7.8,9.2c5.6,4.8,12,8.3,19.3,10.5c7.2,2.2,14.2,4.1,20.9,5.6L912.6,115.3z M755.2,81.5
		V48.3h83.4V17.9H718.3v164.9H840v-30.1h-84.8v-41.8h77.3V81.5H755.2z M667.7,17.9l2.3,108.4L606,17.9h-35.7v164.9h36.9l-2.8-107
		l64.7,107h34.8V17.9H667.7z M564.8,48.8V17.9H429.3v30.8h49.3v134.1h36.9V48.8H564.8z M385,182.9h36.5V17.9H385V182.9z
		 M314.9,128.4L291.6,17.9h-35.5l-22.9,110.5L207,17.9h-37.4l46.3,164.9H250l23.8-111.7l23.4,111.7h34.6l46.7-164.9h-36.7
		L314.9,128.4z"/>
</g>
<g>
	<path d="M761.7,300H402.6V198.1h359.1V300z M404.6,298h355.1v-97.9H404.6V298z"/>
	<g>
		<path d="M435.6,242.5h33.2v12.7h-33.2v33.6h-14.7v-79.4h52.5v13.3h-37.8V242.5z"/>
		<path d="M495.8,209.4v79.4h-14.6v-79.4H495.8z"/>
		<path d="M522.9,275.3h31.5v13.5h-46.4v-79.5h15V275.3z"/>
		<path d="M634.7,209.4v79.4h-14.5l1.3-65.2l-17.1,65.2H591l-17.2-65.2l1.5,65.2h-14.5v-79.4h21.6l15.5,58.9l15.2-58.9H634.7z"/>
		<path d="M684.4,209.4v79.4h-14.6v-79.4H684.4z"/>
		<path d="M749,222.9h-21.9v65.9h-14.8v-65.9h-21.5v-13.5H749V222.9z"/>
	</g>
</g>
</svg>
