<?xml version="1.0" encoding="utf-8"?>
<!-- Generator: Adobe Illustrator 27.2.0, SVG Export Plug-In . SVG Version: 6.00 Build 0)  -->
<svg version="1.1" id="Layer_1" xmlns="http://www.w3.org/2000/svg" xmlns:xlink="http://www.w3.org/1999/xlink" x="0px" y="0px"
	 viewBox="0 0 298 221" style="enable-background:new 0 0 298 221;" xml:space="preserve">
<style type="text/css">
	.st0{fill:#FFFFFF;}
	.st1{fill:#231F20;}
	.st2{fill:none;stroke:#231F20;stroke-width:8.0705;stroke-linecap:round;stroke-linejoin:round;stroke-miterlimit:10;}
</style>
<g>
	<path class="st0" d="M146.3,91.4v58c0,31.6-25.6,57.2-57.2,57.2l0,0c-31.6,0-57.2-25.6-57.2-57.2v-58c14.1,9.2,34.5,15,57.2,15
		C111.4,106.5,132.2,100.4,146.3,91.4z"/>
	<path class="st0" d="M146.2,67.9c0.3,3.2-1.4,6.2-4.1,7.7c-13.8,7.7-32.4,12.6-53,12.6s-39.1-4.8-53-12.6C33.3,74,31.7,71,32,67.9
		c2.6-29.2,27.2-52.2,57.1-52.2l0,0C119,15.7,143.6,38.7,146.2,67.9z"/>
	<circle class="st0" cx="89.1" cy="61.9" r="10"/>
	<path class="st0" d="M31.8,73.1"/>
</g>
<g>
	<circle class="st1" cx="118" cy="66" r="6"/>
	<path class="st1" d="M89.1,75.9c-7.7,0-14-6.3-14-14s6.3-14,14-14s14,6.3,14,14C103.1,69.6,96.8,75.9,89.1,75.9z M89.1,56
		c-3.3,0-5.9,2.7-5.9,5.9s2.7,5.9,5.9,5.9s5.9-2.7,5.9-5.9S92.3,56,89.1,56z"/>
	<path class="st1" d="M89.1,210.7c-33.8,0-61.3-27.5-61.3-61.3v-58c0-1.5,0.8-2.8,2.1-3.5s2.9-0.6,4.1,0.2c14,9.1,34,14.4,55,14.4
		c20.3,0,40.9-5.4,55.1-14.4c1.2-0.8,2.8-0.8,4.1-0.1c1.3,0.7,2.1,2.1,2.1,3.5v58C150.3,183.2,122.8,210.7,89.1,210.7z M35.8,98.5
		v51c0,29.3,23.9,53.2,53.2,53.2s53.2-23.9,53.2-53.2v-51c-14.9,7.7-33.9,12.1-53.2,12.1C69.5,110.5,50.5,106.2,35.8,98.5z"/>
	<path class="st1" d="M89.1,92.3c-20.4,0-39.9-4.6-54.9-13.1c-4.2-2.3-6.6-6.9-6.2-11.6c1.3-15.2,8.3-29.3,19.6-39.7
		C59,17.4,73.7,11.7,89.1,11.7s30.2,5.8,41.5,16.2s18.2,24.5,19.6,39.7l0,0c0.4,4.7-2,9.3-6.2,11.6C128.9,87.6,109.4,92.3,89.1,92.3
		z M89.1,19.8c-27.3,0-50.6,21.3-53.1,48.5c-0.1,1.6,0.7,3.1,2.1,3.9c13.9,7.8,32,12,51,12s37.1-4.3,51-12c1.4-0.8,2.2-2.3,2.1-3.9
		l0,0C139.7,41.1,116.4,19.8,89.1,19.8z"/>
	<path class="st1" d="M79.1,65.7c-0.1,0-0.2,0-0.3,0c-15.5-1.2-30.1-5.1-42.1-11.3c-2-1-2.8-3.5-1.7-5.4c1-2,3.5-2.8,5.4-1.7
		c11.1,5.7,24.6,9.3,39,10.4c2.2,0.2,3.9,2.1,3.7,4.3C83,64.1,81.2,65.7,79.1,65.7z"/>
	<path class="st1" d="M89.1,151.5c-22.5,0-44.1-5.7-59.3-15.6c-1.9-1.2-2.4-3.7-1.2-5.6s3.7-2.4,5.6-1.2c14,9.1,34,14.3,54.9,14.3
		s41-5.2,54.9-14.3c1.9-1.2,4.4-0.7,5.6,1.2c1.2,1.9,0.7,4.4-1.2,5.6C133.1,145.8,111.5,151.5,89.1,151.5z"/>
	<path class="st1" d="M89.1,169.6c-22.4,0-43.9-5.7-59.2-15.5c-1.9-1.2-2.4-3.7-1.2-5.6s3.7-2.4,5.6-1.2c14,9,33.9,14.2,54.8,14.2
		s40.8-5.2,54.8-14.2c1.9-1.2,4.4-0.7,5.6,1.2c1.2,1.9,0.7,4.4-1.2,5.6C133,164,111.4,169.6,89.1,169.6z"/>
	<path class="st2" d="M31.8,73.1"/>
</g>
<g>
	<path d="M190.9,107.7c2.9,1.4,6.4,2.1,10.4,2.1s7.5-0.7,10.2-2.1s5-3.1,6.7-5s2.9-4,3.7-6s1.1-3.8,1.1-5.1c0-0.4-0.2-0.6-0.6-0.6
		h-7c-0.4,0-0.7,0.2-0.8,0.6c-0.3,1-0.7,2.2-1.3,3.5c-0.5,1.3-1.3,2.5-2.3,3.6s-2.3,2-3.8,2.8s-3.5,1.1-5.8,1.1
		c-4.7,0-8.3-1.9-10.8-5.8s-3.8-9.3-3.8-16.1c0-6.9,1.3-12.3,3.8-16.1c2.5-3.8,6.1-5.8,10.8-5.8c2.4,0,4.4,0.4,5.9,1.2
		s2.8,1.8,3.8,3c1,1.1,1.7,2.4,2.2,3.6c0.5,1.3,0.9,2.3,1.2,3.2c0.1,0.4,0.4,0.6,0.8,0.6h7c0.4,0,0.6-0.2,0.6-0.7
		c0-1.1-0.3-2.7-1-4.8c-0.7-2-1.9-4.1-3.5-6c-1.7-2-3.9-3.7-6.7-5.2c-2.8-1.5-6.3-2.2-10.5-2.2c-4,0-7.5,0.7-10.4,2.2
		s-5.3,3.5-7.2,6.1c-1.9,2.6-3.3,5.7-4.2,9.2c-0.9,3.5-1.3,7.5-1.3,11.7c0,4.3,0.4,8.2,1.3,11.8c0.9,3.6,2.3,6.7,4.2,9.2
		C185.5,104.2,188,106.3,190.9,107.7z"/>
	<path d="M235.9,109h38c0.4,0,0.7-0.2,0.7-0.6v-6c0-0.4-0.2-0.6-0.7-0.6h-27c-0.2,0-0.2,0-0.2,0c0-0.1,0-0.1,0-0.2l18.5-16.2
		c0.7-0.7,1.6-1.6,2.7-2.6c1.1-1,2.1-2.3,3.1-3.7c1-1.4,1.8-3,2.5-4.7s1.1-3.6,1.1-5.7c0-2.3-0.4-4.5-1.3-6.6
		c-0.9-2.1-2.2-3.9-3.8-5.5c-1.6-1.5-3.7-2.8-6.1-3.7s-5.2-1.4-8.2-1.4c-2.7,0-5.2,0.4-7.5,1.2s-4.3,1.9-6,3.4c-1.7,1.4-3,3.2-4,5.2
		c-0.9,2-1.4,4.3-1.4,6.7c0,0.4,0.2,0.6,0.7,0.6h7.1c0.4,0,0.7-0.2,0.7-0.6c0-1.2,0.2-2.3,0.7-3.4c0.5-1.1,1.2-2.1,2.1-2.9
		c0.9-0.9,2-1.5,3.3-2.1c1.3-0.5,2.7-0.8,4.3-0.8c1.9,0,3.6,0.3,4.9,1c1.4,0.6,2.5,1.5,3.4,2.5s1.5,2.1,2,3.2
		c0.4,1.2,0.7,2.2,0.7,3.2c0,1.2-0.3,2.4-0.8,3.5c-0.5,1.2-1.2,2.3-2,3.3s-1.6,1.9-2.4,2.6l-25.2,23.4c-0.2,0.1-0.3,0.4-0.3,0.6
		c-0.1,0.3-0.1,0.4-0.1,0.6v5.6C235.2,108.8,235.5,109,235.9,109z"/>
	<path d="M218.8,126.3c-1.5-1.6-3.3-2.8-5.3-3.7c-2-0.9-4.1-1.3-6.3-1.3h-22.6c-0.4,0-0.7,0.2-0.7,0.7v55.5c0,0.4,0.2,0.7,0.7,0.7
		h6.8c0.4,0,0.7-0.2,0.7-0.7v-21.6c0-0.1,0-0.2,0.1-0.2h15c2.2,0,4.3-0.4,6.3-1.3s3.8-2.1,5.3-3.6s2.7-3.4,3.6-5.4s1.3-4.3,1.3-6.7
		c0-2.4-0.5-4.7-1.3-6.8C221.5,129.7,220.3,127.8,218.8,126.3z M215.6,138.6c0,1.3-0.3,2.6-0.8,3.8c-0.5,1.2-1.2,2.2-2.1,3.1
		s-1.9,1.6-3,2.1s-2.3,0.8-3.5,0.8h-14c-0.1,0-0.1,0-0.1-0.1v-19.5c0-0.1,0-0.1,0.1-0.1h14c1.2,0,2.4,0.3,3.5,0.8s2.1,1.3,3,2.2
		c0.9,0.9,1.6,2,2.1,3.2C215.3,135.9,215.6,137.2,215.6,138.6z"/>
	<path d="M280.2,177.2l-18.6-55.5c-0.2-0.5-0.5-0.6-0.7-0.6H251c-0.2,0-0.5,0.1-0.7,0.6l-18.9,55.4c-0.1,0.2-0.1,0.4,0,0.6
		s0.3,0.2,0.6,0.2h7.5c0.3,0,0.5-0.2,0.6-0.6l3.8-11.4c0.1-0.2,0.2-0.2,0.2-0.2h23.2c0.3,0,0.3,0.1,0.3,0.2l3.7,11.5
		c0.2,0.5,0.4,0.6,0.6,0.6h7.5c0.3,0,0.5-0.1,0.6-0.2C280.2,177.7,280.2,177.5,280.2,177.2z M265.4,158.9c0,0-0.1,0-0.2,0h-18.8
		c-0.1,0-0.2,0-0.2,0l0,0c0,0,0,0,0-0.1l9.4-29.2c0.1-0.3,0.2-0.3,0.3,0l9.4,29.2C265.4,158.8,265.4,158.9,265.4,158.9z"/>
</g>
</svg>
