<svg width="728" height="205" viewBox="0 0 728 205" fill="none" xmlns="http://www.w3.org/2000/svg">
<path d="M263.474 76.8778H230.965V61.4643H314.198V76.8778H281.69V159.55H263.474V76.8778Z" fill="#0F4484"/>
<path d="M335.478 95.6543C340.523 87.8074 349.397 83.884 362.102 83.884V100.559C360.607 100.278 359.253 100.138 358.038 100.138C351.219 100.138 345.894 102.147 342.064 106.164C338.234 110.087 336.319 115.785 336.319 123.259V159.55H318.804V84.7247H335.478V95.6543Z" fill="#0F4484"/>
<path d="M444.483 84.7247V159.55H427.808V150.022C425.006 153.385 421.503 156.001 417.299 157.869C413.095 159.644 408.565 160.531 403.707 160.531C393.712 160.531 385.818 157.775 380.026 152.264C374.328 146.659 371.479 138.392 371.479 127.462V84.7247H388.994V125.08C388.994 131.806 390.489 136.85 393.478 140.213C396.561 143.483 400.905 145.118 406.51 145.118C412.769 145.118 417.72 143.203 421.363 139.373C425.099 135.449 426.968 129.844 426.968 122.558V84.7247H444.483Z" fill="#0F4484"/>
<path d="M529.35 122.558C529.35 123.772 529.257 125.5 529.07 127.742H470.359C471.386 133.254 474.049 137.644 478.346 140.914C482.736 144.09 488.154 145.678 494.6 145.678C502.82 145.678 509.593 142.969 514.918 137.551L524.306 148.341C520.943 152.357 516.693 155.393 511.555 157.449C506.417 159.504 500.625 160.531 494.18 160.531C485.959 160.531 478.719 158.896 472.461 155.627C466.202 152.357 461.344 147.827 457.888 142.035C454.525 136.15 452.843 129.517 452.843 122.138C452.843 114.851 454.478 108.312 457.748 102.52C461.111 96.6352 465.735 92.0578 471.62 88.7883C477.505 85.5188 484.137 83.884 491.517 83.884C498.804 83.884 505.296 85.5188 510.994 88.7883C516.786 91.9644 521.27 96.4951 524.446 102.38C527.716 108.172 529.35 114.898 529.35 122.558ZM491.517 97.8963C485.912 97.8963 481.148 99.5778 477.225 102.941C473.395 106.21 471.059 110.601 470.219 116.112H512.676C511.928 110.694 509.64 106.304 505.81 102.941C501.98 99.5778 497.216 97.8963 491.517 97.8963Z" fill="#0F4484"/>
<path d="M582.046 83.884C589.333 83.884 595.825 85.4721 601.524 88.6482C607.315 91.8243 611.846 96.3082 615.115 102.1C618.385 107.892 620.02 114.571 620.02 122.138C620.02 129.704 618.385 136.43 615.115 142.315C611.846 148.107 607.315 152.591 601.524 155.767C595.825 158.943 589.333 160.531 582.046 160.531C571.958 160.531 563.971 157.168 558.085 150.442V186.734H540.57V84.7247H557.245V94.5333C560.141 90.9836 563.69 88.3212 567.894 86.5463C572.191 84.7714 576.909 83.884 582.046 83.884ZM580.085 145.538C586.53 145.538 591.808 143.39 595.919 139.092C600.122 134.795 602.224 129.144 602.224 122.138C602.224 115.131 600.122 109.48 595.919 105.183C591.808 100.886 586.53 98.737 580.085 98.737C575.881 98.737 572.098 99.7179 568.735 101.68C565.372 103.548 562.709 106.257 560.748 109.807C558.786 113.357 557.805 117.467 557.805 122.138C557.805 126.808 558.786 130.919 560.748 134.468C562.709 138.018 565.372 140.774 568.735 142.736C572.098 144.604 575.881 145.538 580.085 145.538Z" fill="#0F4484"/>
<path d="M629.625 84.7247H647.14V159.55H629.625V84.7247ZM638.452 72.3939C635.276 72.3939 632.614 71.4131 630.465 69.4513C628.317 67.3962 627.243 64.874 627.243 61.8847C627.243 58.8954 628.317 56.4199 630.465 54.4582C632.614 52.4031 635.276 51.3755 638.452 51.3755C641.629 51.3755 644.291 52.3563 646.439 54.3181C648.588 56.1864 649.662 58.5685 649.662 61.4643C649.662 64.547 648.588 67.1627 646.439 69.3112C644.384 71.3663 641.722 72.3939 638.452 72.3939Z" fill="#0F4484"/>
<path d="M696.052 160.531C688.298 160.531 681.339 158.896 675.173 155.627C669.008 152.357 664.197 147.827 660.741 142.035C657.284 136.15 655.556 129.517 655.556 122.138C655.556 114.758 657.284 108.172 660.741 102.38C664.197 96.5885 668.961 92.0578 675.033 88.7883C681.199 85.5188 688.205 83.884 696.052 83.884C703.432 83.884 709.877 85.3786 715.389 88.3679C720.994 91.3572 725.197 95.6543 728 101.259L714.548 109.106C712.399 105.65 709.69 103.081 706.421 101.399C703.245 99.6245 699.742 98.737 695.912 98.737C689.373 98.737 683.954 100.886 679.657 105.183C675.36 109.386 673.212 115.038 673.212 122.138C673.212 129.237 675.314 134.935 679.517 139.233C683.814 143.436 689.279 145.538 695.912 145.538C699.742 145.538 703.245 144.697 706.421 143.016C709.69 141.241 712.399 138.625 714.548 135.169L728 143.016C725.104 148.621 720.853 152.965 715.249 156.047C709.737 159.037 703.338 160.531 696.052 160.531Z" fill="#0F4484"/>
<path fill-rule="evenodd" clip-rule="evenodd" d="M22.1681 171.107C4.01164 150.028 -3.33806 122.171 1.40521 94.8096C10.133 44.4516 58.4893 10.2761 108.972 19.0125C139.44 24.2604 165.307 44.3912 178.015 72.5458C179.625 76.1113 177.84 80.4442 174.263 82.0517C170.683 83.6399 166.366 82.115 164.757 78.5495C153.988 54.6894 132.326 37.7906 106.512 33.3401C63.7449 25.9674 22.9181 54.6756 15.5234 97.3383C11.5046 120.516 17.7941 143.991 33.1749 161.851C35.7341 164.82 35.6496 169.307 32.6746 171.857C31.3329 173.005 29.6611 173.609 28.0236 173.609C25.9198 173.609 23.572 172.74 22.1681 171.107Z" fill="#00A4E5"/>
<path fill-rule="evenodd" clip-rule="evenodd" d="M77.9512 202.878C65.6691 200.754 53.8411 196.558 43.4298 189.87C40.1504 187.759 39.071 182.895 41.1784 179.614C43.2858 176.337 48.5704 176.076 51.9351 178.113C61.0198 183.612 69.8679 186.805 80.2813 188.607C122.817 195.964 163.407 166.6 170.759 124.079C172.112 116.258 171.927 111.022 171.259 101.065C170.999 97.1819 173.395 93.8193 177.263 93.3101C181.12 92.8031 185.009 96.1996 185.518 100.064C186.724 109.27 186.361 118.106 184.768 127.331C177.005 172.221 137.556 204.129 93.4609 204.129C88.2531 204.133 83.2549 203.797 77.9512 202.878Z" fill="#0F7EC1"/>
<path fill-rule="evenodd" clip-rule="evenodd" d="M146.744 111.07C146.744 81.3631 122.625 57.2864 92.9605 57.2864C83.616 57.2864 74.4998 59.6944 66.4441 64.2907C63.0294 66.2559 58.6417 64.9631 56.688 61.539C54.7365 58.1106 55.7706 53.7352 59.1896 51.7829C69.3926 45.9562 81.1438 42.7773 92.9605 42.7773C130.489 42.7773 161.253 73.237 161.253 110.82C161.253 114.763 157.688 118.324 153.748 118.324C149.811 118.324 146.744 115.013 146.744 111.07Z" fill="#0F7EC1"/>
<path fill-rule="evenodd" clip-rule="evenodd" d="M93.2103 179.112C55.5661 178.882 24.918 148.665 24.918 111.542C24.918 98.0482 28.3072 85.1802 35.9248 74.0468C38.1357 70.8202 43.1709 69.864 46.4313 72.0456C49.6982 74.225 50.1389 78.8252 47.9322 82.0518C41.9157 90.844 39.427 100.905 39.427 111.57C39.427 140.914 63.7508 164.603 93.4605 164.603C97.404 164.603 100.215 167.965 100.215 171.858C100.215 175.752 98.0869 178.974 93.2103 179.112Z" fill="#00C9FF"/>
<path fill-rule="evenodd" clip-rule="evenodd" d="M113.973 168.606C112.188 164.976 113.641 160.664 117.225 158.85C126.968 153.924 134.831 146.174 140.239 136.586C142.225 133.064 146.776 131.836 150.245 133.835C153.719 135.851 154.733 140.319 152.747 143.841C145.912 155.968 135.8 165.624 123.479 171.858C122.4 172.403 121.352 172.628 120.226 172.609C117.611 172.684 115.221 171.141 113.973 168.606Z" fill="#00C9FF"/>
<path fill-rule="evenodd" clip-rule="evenodd" d="M76.4506 150.594C72.7589 149.033 70.8847 144.532 72.4481 140.838C74.0114 137.153 78.2667 135.513 81.954 137.086C85.4595 138.57 89.1016 139.587 92.9597 139.587C108.683 139.587 121.479 126.541 121.479 110.819C121.479 95.0975 108.683 82.3015 92.9597 82.3015C77.2384 82.3015 64.4431 95.0975 64.4431 110.819C64.4431 114.826 61.1956 118.074 57.1886 118.074C53.1816 118.074 49.9341 114.826 49.9341 110.819C49.9341 87.0943 69.2354 67.7925 92.9597 67.7925C116.684 67.7925 136.238 87.0943 136.238 110.819C136.238 134.544 117.416 152.57 96.2128 153.846C86.6328 154.294 81.7538 152.841 76.4506 150.594Z" fill="#00A4E5"/>
<path fill-rule="evenodd" clip-rule="evenodd" d="M182.014 0C169.876 0 160.001 9.68898 160.001 21.8934C160.001 34.0978 169.876 44.0273 182.014 44.0273C194.153 44.0273 204.029 34.0978 204.029 21.8934C204.029 9.68898 194.153 0 182.014 0ZM189.52 22.0123C189.52 26.1572 186.159 29.5175 182.014 29.5175C177.87 29.5175 174.51 26.1572 174.51 22.0123C174.51 17.8684 177.87 14.5081 182.014 14.5081C186.159 14.5081 189.52 17.8684 189.52 22.0123Z" fill="#00C9FF"/>
</svg>
