<?xml version="1.0" encoding="UTF-8"?>
<!DOCTYPE svg PUBLIC "-//W3C//DTD SVG 1.1//EN" "http://www.w3.org/Graphics/SVG/1.1/DTD/svg11.dtd">
<svg xmlns="http://www.w3.org/2000/svg" version="1.1" width="6110px" height="2047px" style="shape-rendering:geometricPrecision; text-rendering:geometricPrecision; image-rendering:optimizeQuality; fill-rule:evenodd; clip-rule:evenodd" xmlns:xlink="http://www.w3.org/1999/xlink">
<g><path style="opacity:0.996" fill="#151d25" d="M 398.5,-0.5 C 423.167,-0.5 447.833,-0.5 472.5,-0.5C 530.241,2.15159 585.575,15.3183 638.5,39C 721.209,81.3955 776.042,147.229 803,236.5C 818.202,290.118 825.702,344.784 825.5,400.5C 824.668,613.127 824.168,825.794 824,1038.5C 819.947,1051.22 811.447,1059.05 798.5,1062C 739.5,1062.67 680.5,1062.67 621.5,1062C 605.729,1058.23 595.896,1048.4 592,1032.5C 583.667,993.167 575.333,953.833 567,914.5C 563.929,912.232 560.596,911.899 557,913.5C 515.735,1011.75 442.235,1068.25 336.5,1083C 273.465,1090.25 213.132,1080.58 155.5,1054C 77.0119,1011.29 27.8453,946.122 8,858.5C 4.16829,839.836 1.33495,821.169 -0.5,802.5C -0.5,782.167 -0.5,761.833 -0.5,741.5C 13.2398,603.492 83.2398,505.992 209.5,449C 268.67,424.031 330.336,409.364 394.5,405C 434.502,401.713 474.502,401.713 514.5,405C 529.342,406.096 544.008,408.263 558.5,411.5C 560.905,373.356 557.738,335.689 549,298.5C 530.888,231.725 487.222,198.058 418,197.5C 353.933,197.343 308.933,226.343 283,284.5C 277.568,297.888 272.902,311.555 269,325.5C 262.508,343.649 249.675,351.482 230.5,349C 172.147,338.775 113.814,328.441 55.5,318C 34.101,311.717 25.601,297.551 30,275.5C 55.2807,168.238 117.447,90.7381 216.5,43C 274.501,16.9697 335.168,2.46975 398.5,-0.5 Z M 470.5,546.5 C 500.404,545.242 530.071,547.242 559.5,552.5C 559.616,587.175 559.116,621.842 558,656.5C 556.629,703.064 547.629,748.064 531,791.5C 497.283,869.776 438.783,899.276 355.5,880C 316.538,865.702 291.371,838.535 280,798.5C 267.92,751.302 270.587,704.968 288,659.5C 311.853,609.323 350.353,575.823 403.5,559C 425.53,552.442 447.863,548.276 470.5,546.5 Z"/></g>
<g><path style="opacity:0.998" fill="#151d25" d="M 1467.5,-0.5 C 1484.83,-0.5 1502.17,-0.5 1519.5,-0.5C 1600.22,6.77252 1664.72,42.7725 1713,107.5C 1730.41,131.635 1744.74,157.635 1756,185.5C 1759.33,186.833 1762.67,186.833 1766,185.5C 1795.75,131.402 1835.25,85.569 1884.5,48C 1924.99,20.2261 1969.66,4.05939 2018.5,-0.5C 2035.5,-0.5 2052.5,-0.5 2069.5,-0.5C 2157.88,8.75437 2226.38,50.421 2275,124.5C 2308.7,180.268 2329.7,240.602 2338,305.5C 2342.59,340.382 2345.09,375.382 2345.5,410.5C 2344.67,619.794 2344.17,829.127 2344,1038.5C 2339.95,1051.22 2331.45,1059.05 2318.5,1062C 2247.5,1062.67 2176.5,1062.67 2105.5,1062C 2088.02,1058.34 2079.02,1047.51 2078.5,1029.5C 2079.67,830.206 2079.83,630.873 2079,431.5C 2080.01,392.872 2073.67,355.538 2060,319.5C 2038.02,268.32 1999.02,242.654 1943,242.5C 1885.17,243.564 1844.17,270.231 1820,322.5C 1806.99,353.196 1799.33,385.196 1797,418.5C 1795.95,434.149 1795.28,449.815 1795,465.5C 1794.67,656.5 1794.33,847.5 1794,1038.5C 1789.95,1051.22 1781.45,1059.05 1768.5,1062C 1697.5,1062.67 1626.5,1062.67 1555.5,1062C 1538.02,1058.34 1529.02,1047.51 1528.5,1029.5C 1529.67,830.206 1529.83,630.873 1529,431.5C 1530.01,392.872 1523.67,355.538 1510,319.5C 1488.02,268.32 1449.02,242.654 1393,242.5C 1335.17,243.564 1294.17,270.231 1270,322.5C 1256.99,353.196 1249.33,385.196 1247,418.5C 1245.95,434.149 1245.28,449.815 1245,465.5C 1244.67,656.5 1244.33,847.5 1244,1038.5C 1239.95,1051.22 1231.45,1059.05 1218.5,1062C 1147.5,1062.67 1076.5,1062.67 1005.5,1062C 988.02,1058.34 979.02,1047.51 978.5,1029.5C 979.002,700.165 979.835,370.831 981,41.5C 985.925,30.9063 994.092,24.4063 1005.5,22C 1064.83,21.3333 1124.17,21.3333 1183.5,22C 1197.12,25.6185 1206.29,34.1185 1211,47.5C 1219.79,89.8059 1228.46,132.139 1237,174.5C 1240.07,176.768 1243.4,177.101 1247,175.5C 1265.13,126.709 1293.96,85.542 1333.5,52C 1373.02,21.4364 1417.69,3.9364 1467.5,-0.5 Z"/></g>
<g><path style="opacity:0.996" fill="#151d25" d="M 2873.5,-0.5 C 2898.17,-0.5 2922.83,-0.5 2947.5,-0.5C 3005.24,2.15159 3060.57,15.3183 3113.5,39C 3189.99,77.8317 3242.82,137.665 3272,218.5C 3291.61,277.581 3301.11,338.247 3300.5,400.5C 3299.67,613.127 3299.17,825.794 3299,1038.5C 3294.95,1051.22 3286.45,1059.05 3273.5,1062C 3214.5,1062.67 3155.5,1062.67 3096.5,1062C 3083.06,1059.24 3073.9,1051.4 3069,1038.5C 3059.62,997.261 3050.62,955.928 3042,914.5C 3038.93,912.232 3035.6,911.899 3032,913.5C 2992.37,1008.91 2921.54,1065.08 2819.5,1082C 2753.8,1090.91 2690.8,1081.58 2630.5,1054C 2552.01,1011.29 2502.85,946.122 2483,858.5C 2466.85,782.002 2472.18,707.002 2499,633.5C 2530.34,560.317 2580.84,504.484 2650.5,466C 2712.51,433.222 2778.51,413.556 2848.5,407C 2899.14,401.536 2949.8,401.202 3000.5,406C 3011.63,407.138 3022.63,408.971 3033.5,411.5C 3036.17,370.858 3032.34,330.858 3022,291.5C 3002.26,228.444 2959.26,197.111 2893,197.5C 2825.83,198.031 2779.83,229.365 2755,291.5C 2751.14,302.76 2747.47,314.094 2744,325.5C 2737.51,343.649 2724.67,351.482 2705.5,349C 2646.61,338.769 2587.78,328.269 2529,317.5C 2508.62,310.753 2500.62,296.753 2505,275.5C 2530.28,168.238 2592.45,90.7381 2691.5,43C 2749.5,16.9697 2810.17,2.46975 2873.5,-0.5 Z M 2945.5,546.5 C 2975.4,545.242 3005.07,547.242 3034.5,552.5C 3034.62,587.175 3034.12,621.842 3033,656.5C 3031.63,703.064 3022.63,748.064 3006,791.5C 2972.28,869.776 2913.78,899.276 2830.5,880C 2791.54,865.702 2766.37,838.535 2755,798.5C 2742.92,751.302 2745.59,704.968 2763,659.5C 2786.85,609.323 2825.35,575.823 2878.5,559C 2900.53,552.442 2922.86,548.276 2945.5,546.5 Z"/></g>
<g><path style="opacity:0.996" fill="#151d25" d="M 4661.5,-0.5 C 4681.83,-0.5 4702.17,-0.5 4722.5,-0.5C 4803,5.8281 4875.33,33.3281 4939.5,82C 5005.85,133.854 5056.02,198.354 5090,275.5C 5132.81,373.016 5150.81,475.016 5144,581.5C 5138.63,698.933 5102.97,805.933 5037,902.5C 4928.49,1048.79 4783.99,1106.63 4603.5,1076C 4513.42,1055.23 4438.26,1010.06 4378,940.5C 4312.77,862.606 4271.1,773.273 4253,672.5C 4234.58,568.69 4238.24,465.69 4264,363.5C 4286.62,279.566 4325.96,204.899 4382,139.5C 4435.34,80.2356 4500.17,38.7356 4576.5,15C 4604.5,7.22403 4632.84,2.05736 4661.5,-0.5 Z M 4679.5,212.5 C 4727.17,209.436 4766.67,225.769 4798,261.5C 4826.28,298.267 4844.94,339.6 4854,385.5C 4861.88,422.425 4866.55,459.758 4868,497.5C 4870.16,550.007 4868.16,602.34 4862,654.5C 4856.16,703.542 4841.83,749.875 4819,793.5C 4780.88,857.962 4725.05,882.129 4651.5,866C 4625.94,857.97 4604.44,843.803 4587,823.5C 4569.55,801.952 4556.22,777.952 4547,751.5C 4534.92,716.418 4526.92,680.418 4523,643.5C 4514.89,568.372 4515.89,493.372 4526,418.5C 4532,372.511 4546,329.177 4568,288.5C 4581.73,263.433 4600.9,243.6 4625.5,229C 4642.58,220.069 4660.58,214.569 4679.5,212.5 Z"/></g>
<g><path style="opacity:0.998" fill="#151d25" d="M 5774.5,-0.5 C 5792.17,-0.5 5809.83,-0.5 5827.5,-0.5C 5919.77,8.53703 5990.94,51.8704 6041,129.5C 6076.5,188.987 6097.83,253.32 6105,322.5C 6106.68,338.304 6108.18,353.971 6109.5,369.5C 6109.5,592.5 6109.5,815.5 6109.5,1038.5C 6105.13,1051.03 6096.47,1058.87 6083.5,1062C 6012.5,1062.67 5941.5,1062.67 5870.5,1062C 5853.02,1058.34 5844.02,1047.51 5843.5,1029.5C 5844.67,830.206 5844.83,630.873 5844,431.5C 5844.59,397.635 5839.59,364.635 5829,332.5C 5801.36,264.578 5750.86,235.078 5677.5,244C 5633.61,250.347 5600.44,272.514 5578,310.5C 5559.89,344.935 5549.56,381.602 5547,420.5C 5545.94,435.481 5545.27,450.481 5545,465.5C 5544.67,656.5 5544.33,847.5 5544,1038.5C 5539.95,1051.22 5531.45,1059.05 5518.5,1062C 5447.5,1062.67 5376.5,1062.67 5305.5,1062C 5288.02,1058.34 5279.02,1047.51 5278.5,1029.5C 5279,700.165 5279.84,370.831 5281,41.5C 5285.93,30.9063 5294.09,24.4063 5305.5,22C 5364.83,21.3333 5424.17,21.3333 5483.5,22C 5497.12,25.6185 5506.29,34.1185 5511,47.5C 5519.79,89.8059 5528.46,132.139 5537,174.5C 5540.07,176.768 5543.4,177.101 5547,175.5C 5569.55,115.175 5608.05,68.0079 5662.5,34C 5697.44,14.4358 5734.78,2.9358 5774.5,-0.5 Z"/></g>
<g><path style="opacity:0.996" fill="#151d25" d="M 3470.5,21.5 C 3693.83,21.3333 3917.17,21.5 4140.5,22C 4154.67,25.5 4163.5,34.3333 4167,48.5C 4167.67,104.5 4167.67,160.5 4167,216.5C 4165.87,227.552 4162.54,237.885 4157,247.5C 4026.83,426.333 3896.67,605.167 3766.5,784C 3902.34,769.932 4033.01,790.265 4158.5,845C 4174.55,851.601 4184.05,863.434 4187,880.5C 4187.67,933.5 4187.67,986.5 4187,1039.5C 4183.67,1058.47 4172.51,1065.97 4153.5,1062C 4106.33,1044.39 4058.33,1029.39 4009.5,1017C 3909.77,993.931 3809.1,988.931 3707.5,1002C 3664.91,1007.38 3622.91,1015.72 3581.5,1027C 3544.2,1037.32 3507.2,1048.66 3470.5,1061C 3460.99,1062.64 3451.99,1061.31 3443.5,1057C 3439.01,1053.17 3436.17,1048.33 3435,1042.5C 3434.33,983.167 3434.33,923.833 3435,864.5C 3436.4,854.966 3439.4,845.966 3444,837.5C 3587.71,635.912 3731.54,434.412 3875.5,233C 3740.5,232.667 3605.5,232.333 3470.5,232C 3456.89,229.725 3448.39,221.891 3445,208.5C 3444.33,154.167 3444.33,99.8333 3445,45.5C 3449.18,32.8142 3457.68,24.8142 3470.5,21.5 Z"/></g>
<g><path style="opacity:0.994" fill="#fe6200" d="M 3815.5,1139.5 C 3898.72,1135.09 3979.38,1147.26 4057.5,1176C 4079.35,1184.53 4098.51,1197.03 4115,1213.5C 4126.5,1229.65 4133.5,1247.65 4136,1267.5C 4142.04,1349.25 4130.7,1428.58 4102,1505.5C 4068.05,1599.75 4013.88,1680.25 3939.5,1747C 3917.63,1767.59 3894.29,1786.26 3869.5,1803C 3856.11,1811.86 3841.45,1817.03 3825.5,1818.5C 3808.89,1817.43 3796.72,1809.43 3789,1794.5C 3785.24,1784.72 3784.57,1774.72 3787,1764.5C 3791.73,1748.03 3798.4,1732.37 3807,1717.5C 3859.16,1637.51 3899.82,1551.84 3929,1460.5C 3935.88,1438.97 3940.55,1416.97 3943,1394.5C 3944.95,1378.79 3942.61,1363.79 3936,1349.5C 3928.36,1340.42 3918.86,1333.92 3907.5,1330C 3883.16,1321.87 3858.16,1317.2 3832.5,1316C 3763.43,1312.02 3694.76,1315.69 3626.5,1327C 3599.09,1331.61 3571.76,1336.61 3544.5,1342C 3527.57,1344.33 3510.57,1345 3493.5,1344C 3468.62,1341.95 3455.29,1328.45 3453.5,1303.5C 3453.92,1292.99 3457.42,1283.66 3464,1275.5C 3481.11,1258.38 3499.94,1243.55 3520.5,1231C 3611.43,1176.64 3709.76,1146.14 3815.5,1139.5 Z"/></g>
<g><path style="opacity:0.996" fill="#fe6200" d="M 2377.5,2046.5 C 2353.17,2046.5 2328.83,2046.5 2304.5,2046.5C 2072.73,2042.89 1845.73,2007.72 1623.5,1941C 1425.64,1879.9 1241.98,1790.9 1072.5,1674C 939.535,1580.04 823.035,1468.54 723,1339.5C 708.967,1320.11 696.967,1299.44 687,1277.5C 682.272,1265.25 679.438,1252.59 678.5,1239.5C 678.698,1219.89 687.698,1206.39 705.5,1199C 718.896,1196.24 731.896,1197.57 744.5,1203C 763.788,1211.64 781.788,1222.3 798.5,1235C 1022.45,1416.66 1274.45,1547 1554.5,1626C 1874.31,1716.65 2200.31,1754.65 2532.5,1740C 2796.67,1729.86 3055.33,1686.86 3308.5,1611C 3433.35,1573.39 3553.35,1524.05 3668.5,1463C 3683,1456.28 3698,1450.94 3713.5,1447C 3741.78,1444.23 3760.28,1456.39 3769,1483.5C 3770.29,1494.08 3769.29,1504.41 3766,1514.5C 3759.02,1530.47 3750.02,1545.14 3739,1558.5C 3712.72,1587.78 3684.22,1614.62 3653.5,1639C 3542.28,1727.33 3420.94,1800 3289.5,1857C 3039.5,1963 2778.83,2024.33 2507.5,2041C 2464.04,2043.55 2420.7,2045.38 2377.5,2046.5 Z"/></g>
</svg>
