<svg xmlns="http://www.w3.org/2000/svg" viewBox="0 0 402.97 170"><defs><style>.cls-1{fill:#0068b5;}</style></defs><g id="Layer_2" data-name="Layer 2"><g id="Layer_1-2" data-name="Layer 1"><rect id="rect4" class="cls-1" y="2.37" width="31.72" height="31.72"/><g id="g10"><path id="path6" d="M30.93,167.63V53.39H.93V167.63Zm199.56,1.13v-28a70.14,70.14,0,0,1-10.84-.67,12.37,12.37,0,0,1-7.11-3.16,12.69,12.69,0,0,1-3.16-6.78,73,73,0,0,1-.68-11.06v-40h21.79V53.39H208.71V8.8H178.57V119.32c0,9.37.8,17.27,2.38,23.59A33,33,0,0,0,189,158a32.21,32.21,0,0,0,14.67,8.24c6.1,1.7,13.78,2.49,22.92,2.49ZM403,167.63V0H372.84V167.63ZM149.56,64.57c-8.35-9-20.09-13.55-35-13.55a44.23,44.23,0,0,0-19.75,4.4,42.28,42.28,0,0,0-14.9,12.2l-1.7,2.14V53.39H48.54V167.63H78.49v-58.7c.34-10.72,2.93-18.62,7.9-23.7a25.87,25.87,0,0,1,19.08-8.13c8.69,0,15.35,2.71,19.75,7.9s6.55,12.53,6.55,21.9h0v.22h0v60.4h30.32v-64.8C162.21,86.47,157.92,73.6,149.56,64.57Zm207.71,45.72A63,63,0,0,0,353,87.14,62,62,0,0,0,340.9,68.29a55.16,55.16,0,0,0-18.63-12.64,60.93,60.93,0,0,0-23.93-4.51,59.48,59.48,0,0,0-23.25,4.62,60.55,60.55,0,0,0-18.85,12.65,58.71,58.71,0,0,0-12.65,18.85A57.47,57.47,0,0,0,239,110.51a61.11,61.11,0,0,0,4.4,23.25,58,58,0,0,0,12.3,18.86,56.5,56.5,0,0,0,19.08,12.64,62.38,62.38,0,0,0,24.5,4.74c25.51,0,41.31-11.63,50.79-22.46l-21.67-16.48c-4.52,5.41-15.35,12.75-28.9,12.75-8.46,0-15.46-1.92-20.77-5.87A29,29,0,0,1,267.86,122l-.33-1h89.74Zm-89.52-10.5c0-8.36,9.6-22.92,30.25-23s30.37,14.56,30.37,22.91Z"/></g></g></g></svg>