<?xml version="1.0" standalone="no"?>
<!DOCTYPE svg PUBLIC "-//W3C//DTD SVG 20010904//EN"
 "http://www.w3.org/TR/2001/REC-SVG-20010904/DTD/svg10.dtd">
<svg version="1.0" xmlns="http://www.w3.org/2000/svg"
 width="1200.000000pt" height="1200.000000pt" viewBox="0 0 1200.000000 1200.000000"
 preserveAspectRatio="xMidYMid meet">

<g transform="translate(0.000000,1200.000000) scale(0.100000,-0.100000)"
fill="#000000" stroke="none">
<path d="M0 6000 l0 -6000 6000 0 6000 0 0 6000 0 6000 -6000 0 -6000 0 0
-6000z m6384 3785 c271 -28 491 -79 741 -175 479 -183 737 -321 1010 -543 55
-45 109 -89 119 -97 187 -146 429 -427 619 -717 46 -71 194 -350 215 -408 6
-16 18 -45 26 -63 9 -18 11 -30 5 -26 -6 3 -19 24 -29 46 -16 36 -18 37 -23
16 -4 -12 -1 -25 5 -29 6 -4 8 -14 5 -24 -4 -10 -3 -14 4 -9 8 4 9 -1 4 -16
-5 -15 -4 -20 4 -16 7 5 9 1 5 -8 -6 -17 -24 -12 -24 5 0 6 -11 25 -25 43 -14
18 -25 38 -25 43 0 6 -7 17 -16 24 -11 9 -8 -3 10 -38 33 -67 88 -204 83 -210
-3 -2 -21 36 -42 84 -159 373 -429 758 -775 1103 -290 290 -517 452 -885 630
-182 88 -250 114 -460 175 -486 140 -1014 164 -1529 69 -77 -14 -158 -32 -179
-40 -47 -18 -60 -17 -27 1 l25 13 -34 -1 c-40 -2 -51 15 -19 30 53 24 161 60
233 77 11 3 -7 3 -39 0 -33 -3 -66 -8 -75 -11 -14 -4 -14 -3 -1 5 20 14 200
47 330 62 58 6 114 13 125 14 71 11 509 4 639 -9z m1284 -1492 c-2 -5 2 -8 7
-8 6 0 9 4 7 8 -9 29 132 -84 222 -177 85 -88 120 -131 185 -225 47 -68 49
-75 35 -95 -8 -13 -11 -25 -8 -29 11 -11 24 3 17 18 -4 11 -1 13 11 9 14 -5
14 -8 0 -29 -16 -24 -16 -24 -89 73 -88 116 -220 262 -332 367 -46 42 -80 81
-77 86 6 11 25 12 22 2z m-1529 -82 c19 -15 44 -40 55 -55 21 -27 21 -36 24
-951 l2 -924 -178 -3 -179 -3 -6 895 c-4 492 -3 911 1 930 12 49 31 77 74 107
70 48 149 50 207 4z m2017 -485 c0 -14 -5 -21 -9 -17 -4 4 -5 15 -1 24 9 24
12 21 10 -7z m-2828 -459 c75 -70 70 11 67 -1167 -2 -1172 3 -1085 -70 -1148
-19 -18 -47 -35 -61 -38 -41 -10 -96 3 -123 31 -25 25 -26 30 -28 167 -2 131
-4 144 -27 178 -35 53 -109 113 -286 230 -195 130 -255 190 -314 313 -56 117
-66 164 -67 295 0 88 4 121 25 187 54 172 134 261 381 428 155 104 247 182
271 229 10 19 14 63 14 145 0 93 3 124 16 142 42 60 144 64 202 8z m1581 32
c50 -17 61 -51 61 -183 0 -63 5 -127 10 -141 18 -48 116 -131 293 -249 242
-161 315 -242 373 -413 63 -188 26 -410 -96 -568 -46 -59 -126 -126 -265 -220
-171 -116 -231 -164 -271 -212 l-39 -47 -5 -149 c-5 -147 -6 -150 -33 -173
-60 -52 -162 -36 -215 34 l-27 35 -7 1056 c-4 581 -5 1072 -2 1091 8 50 49
106 97 129 47 24 80 26 126 10z m1600 -411 c0 -28 -2 -30 -9 -13 -12 28 -12
45 0 45 6 0 10 -15 9 -32z m49 -68 c0 -22 -1 -22 -8 5 -4 17 -8 41 -8 55 0 22
1 22 8 -5 4 -16 8 -41 8 -55z m-29 -12 c1 -5 -3 -8 -9 -8 -5 0 -10 12 -9 28 0
24 1 25 9 7 5 -11 9 -23 9 -27z m634 -1788 c-3 -11 -9 -23 -14 -26 -4 -2 -4
-16 1 -30 7 -17 7 -31 0 -42 -10 -15 -10 -14 -6 3 3 11 1 27 -5 35 -8 11 -9 3
-6 -33 3 -26 1 -50 -4 -53 -5 -3 -6 1 -3 9 3 8 1 18 -4 21 -5 3 -12 -7 -14
-24 -2 -16 -1 -27 4 -24 14 9 9 -4 -38 -99 -110 -218 -207 -371 -363 -572
-124 -159 -130 -165 -295 -328 -272 -268 -561 -465 -962 -657 -106 -50 -215
-93 -221 -86 -3 2 13 10 36 17 23 7 41 16 41 21 0 4 6 8 13 8 6 0 23 10 37 21
26 22 26 22 -45 -5 -16 -6 -32 -14 -35 -18 -8 -10 -120 -40 -133 -35 -6 3 -1
6 13 7 22 1 23 2 6 9 -16 6 -9 11 35 25 114 37 236 106 187 106 -24 0 4 14 30
15 15 0 26 6 25 11 -1 6 33 28 75 49 124 61 365 213 483 305 25 19 61 46 79
60 54 40 301 263 350 316 117 127 210 235 255 293 51 68 186 265 215 316 57
98 88 143 95 137 4 -4 6 0 4 8 -4 25 39 112 52 104 9 -5 6 -11 -6 -21 -13 -9
-16 -16 -9 -23 7 -7 24 19 54 82 24 51 48 99 53 106 15 19 26 14 20 -8z m-998
-57 c-16 -27 -30 -52 -34 -58 -3 -5 -4 -20 -2 -33 1 -13 -3 -30 -10 -38 -10
-12 -9 -13 6 -7 27 10 -49 -95 -155 -215 -92 -104 -219 -221 -291 -269 -23
-15 -53 -35 -66 -44 -14 -9 -33 -15 -43 -12 -13 4 4 25 79 96 235 222 371 378
493 563 50 75 61 84 23 17z m929 -14 c-3 -5 -10 -7 -15 -3 -5 3 -7 10 -3 15 3
5 10 7 15 3 5 -3 7 -10 3 -15z m-27 -41 c-3 -7 -5 -2 -5 12 0 14 2 19 5 13 2
-7 2 -19 0 -25z m-912 -17 c3 -5 2 -12 -3 -15 -5 -3 -9 1 -9 9 0 17 3 19 12 6z
m-4897 -386 c-3 -3 -9 2 -12 12 -6 14 -5 15 5 6 7 -7 10 -15 7 -18z m62 -75
c19 -25 44 -56 56 -70 12 -14 54 -63 94 -110 87 -103 304 -326 422 -434 52
-47 84 -84 81 -92 -6 -17 13 -18 21 -1 3 6 3 2 1 -9 -4 -14 0 -24 11 -28 9 -4
14 -9 11 -12 -3 -3 -20 2 -39 11 -32 16 -32 16 -13 -2 23 -22 31 -47 13 -40
-7 2 -12 10 -11 16 2 6 -3 12 -10 13 -6 0 -16 2 -22 2 -5 1 -17 6 -25 11 -13
7 -13 6 -2 -7 8 -9 21 -14 30 -11 14 4 15 3 2 -5 -10 -8 -21 -5 -40 9 -14 11
-36 27 -50 36 -128 86 -338 290 -479 467 -120 150 -154 202 -145 218 4 7 3 8
-4 4 -19 -12 -14 3 19 51 17 24 34 41 38 36 4 -4 23 -28 41 -53z m3977 -1206
c-3 -3 -12 -4 -19 -1 -8 3 -5 6 6 6 11 1 17 -2 13 -5z m-2997 -1563 c0 -11
-43 -129 -96 -263 -53 -134 -115 -293 -139 -354 -64 -162 -65 -164 -92 -164
-15 0 -23 6 -23 16 0 9 69 189 153 400 137 346 154 384 175 384 15 0 22 -6 22
-19z m581 7 c0 -7 3 -24 5 -38 7 -40 -4 -70 -26 -70 -18 0 -20 7 -20 60 0 53
2 60 20 60 11 0 20 -6 21 -12z m1331 6 c3 -3 4 -13 1 -23 -4 -16 -21 -19 -151
-23 -159 -5 -185 -13 -233 -65 -40 -42 -49 -66 -49 -128 0 -51 3 -59 40 -98
35 -38 40 -40 40 -19 0 22 2 22 115 22 95 0 123 -4 154 -19 54 -28 97 -81 117
-145 31 -97 -6 -198 -94 -261 l-44 -30 -194 -3 -194 -3 0 24 0 25 178 4 c174
3 178 4 218 31 46 31 84 97 84 147 0 82 -73 164 -155 174 -99 13 -180 16 -164
6 9 -5 53 -12 97 -16 79 -7 111 -21 97 -44 -10 -16 -170 -12 -212 5 -94 40
-142 108 -143 203 0 96 51 180 134 218 47 22 64 24 202 24 83 0 153 -3 156 -6z
m338 -394 l0 -400 -25 0 -25 0 0 400 0 400 25 0 25 0 0 -400z m424 370 c29
-15 59 -40 74 -63 50 -75 35 -201 -31 -265 -56 -54 -89 -62 -267 -62 -153 0
-160 1 -160 20 0 17 7 20 48 21 26 0 97 4 159 8 125 9 166 27 202 85 31 50 29
125 -5 166 -47 55 -73 62 -246 68 l-158 5 0 24 0 25 168 -4 c154 -3 171 -5
216 -28z m457 -47 c41 -43 105 -112 142 -153 l67 -74 67 74 c195 217 253 264
253 208 0 -29 -294 -348 -320 -348 -14 0 -80 66 -287 290 -37 39 -44 80 -15
80 10 0 52 -35 93 -77z m-3075 -83 c34 -71 244 -611 244 -627 0 -10 -8 -13
-26 -11 -24 3 -32 18 -96 178 -148 373 -178 455 -178 483 0 43 31 31 56 -23z
m526 -42 c2 -18 2 -160 0 -315 -4 -269 -5 -283 -23 -283 -18 0 -19 13 -19 315
0 302 1 315 19 315 14 0 20 -9 23 -32z m576 -174 c13 -4 22 -14 22 -25 0 -18
-10 -19 -175 -19 -163 0 -175 1 -175 18 0 10 3 22 7 25 8 9 290 9 321 1z
m2202 -229 c0 -188 -1 -195 -20 -195 -19 0 -20 7 -20 195 0 188 1 195 20 195
19 0 20 -7 20 -195z"/>
<path d="M6957 9649 c7 -7 15 -10 18 -7 3 3 -2 9 -12 12 -14 6 -15 5 -6 -5z"/>
<path d="M5208 9643 c7 -3 16 -2 19 1 4 3 -2 6 -13 5 -11 0 -14 -3 -6 -6z"/>
<path d="M7105 9590 c102 -43 223 -89 300 -115 45 -15 -46 31 -115 58 -273
105 -363 133 -185 57z"/>
<path d="M7150 9531 c8 -5 26 -12 40 -15 l25 -7 -25 15 c-14 9 -32 15 -40 15
-13 0 -13 -1 0 -8z"/>
<path d="M7537 9419 c7 -7 15 -10 18 -7 3 3 -2 9 -12 12 -14 6 -15 5 -6 -5z"/>
<path d="M7852 9244 c10 -10 20 -15 24 -12 3 4 -5 12 -18 18 -22 12 -22 12 -6
-6z"/>
<path d="M7913 9209 c9 -6 14 -15 11 -21 -4 -7 -2 -8 5 -4 14 9 -3 36 -23 36
-6 0 -3 -5 7 -11z"/>
<path d="M4989 6532 c-55 -35 -173 -163 -216 -234 -18 -29 -40 -84 -50 -122
-19 -80 -11 -145 32 -232 46 -93 205 -252 270 -268 25 -6 64 7 77 28 4 6 8
190 8 409 l0 398 -25 24 c-31 32 -41 31 -96 -3z"/>
<path d="M6999 6541 l-24 -19 0 -400 c0 -379 1 -401 19 -421 39 -43 108 -17
198 75 78 80 103 115 150 209 36 73 39 86 36 146 -3 49 -12 82 -36 130 -53
109 -246 299 -303 299 -9 0 -27 -9 -40 -19z"/>
<path d="M9085 4830 c3 -5 8 -10 11 -10 2 0 4 5 4 10 0 6 -5 10 -11 10 -5 0
-7 -4 -4 -10z"/>
<path d="M7650 3335 c-14 -8 -20 -14 -14 -15 5 0 19 7 30 15 24 18 16 19 -16
0z"/>
<path d="M7417 3269 c7 -7 15 -10 18 -7 3 3 -2 9 -12 12 -14 6 -15 5 -6 -5z"/>
<path d="M7400 3210 c-8 -5 -10 -10 -5 -10 6 0 17 5 25 10 8 5 11 10 5 10 -5
0 -17 -5 -25 -10z"/>
</g>
</svg>
