<svg width="1518" height="276" viewBox="0 0 1518 276" fill="none" xmlns="http://www.w3.org/2000/svg">
<g clip-path="url(#clip0_2816_1419)">
<path d="M402.66 93.8006H385.86C382.48 93.8006 379.26 92.2206 377.19 89.5506C375.12 86.8806 374.41 83.3406 375.34 80.0706L378.99 66.4506C380.3 61.7106 384.61 58.3906 389.52 58.3906H406.32C409.7 58.3906 412.92 59.9706 414.99 62.6406C417.06 65.3106 417.77 68.8506 416.85 72.1206L413.2 85.7406C411.89 90.4806 407.58 93.8006 402.67 93.8006H402.66Z" fill="#D61000"/>
<path d="M1080.7 93.8006H1063.9C1060.52 93.8006 1057.3 92.2206 1055.23 89.5506C1053.16 86.8806 1052.45 83.3406 1053.37 80.0706L1057.03 66.4506C1058.34 61.7106 1062.65 58.3906 1067.55 58.3906H1084.35C1087.73 58.3906 1090.95 59.9706 1093.02 62.6406C1095.1 65.3106 1095.81 68.8506 1094.88 72.1206L1091.22 85.7406C1089.92 90.4806 1085.61 93.8006 1080.7 93.8006Z" fill="#D61000"/>
<path d="M1221.88 218.5H1205.08C1201.7 218.5 1198.48 216.92 1196.41 214.25C1194.34 211.58 1193.63 208.04 1194.55 204.77L1198.21 191.15C1199.52 186.41 1203.83 183.09 1208.73 183.09H1225.53C1228.91 183.09 1232.13 184.67 1234.2 187.34C1236.28 190.01 1236.99 193.55 1236.06 196.82L1232.4 210.44C1231.1 215.18 1226.79 218.5 1221.88 218.5Z" fill="#D61000"/>
<path d="M213.162 74.3801C217.742 69.8001 223.202 68.3301 227.342 68.3301C236.562 68.3301 242.772 76.0701 240.922 85.2201L217.962 202.91C216.272 211.46 207.922 218.55 199.362 218.55C190.802 218.55 184.962 211.47 186.602 202.91L188.892 191.41H171.552C163.422 191.41 159.662 185.36 159.662 180.13C159.662 169.07 169.042 162.2 177.222 162.2H194.562L201.652 126.08L46.8216 267.16C42.4616 271.36 37.6016 272.99 33.2416 272.99C24.6816 272.99 20.1016 266.29 20.1016 260.24C20.1016 255.66 21.7916 250.87 25.9416 246.67L213.162 74.3801Z" fill="#D61000"/>
<path d="M248.233 154.909C253.853 125.489 277.463 107.939 304.403 107.939C331.343 107.939 349.123 129.629 343.453 159.049L334.673 203.889C332.983 212.009 325.453 218.489 317.333 218.489C309.213 218.489 303.753 212.009 305.443 203.889L314.823 155.889C317.553 142.319 310.463 135.019 299.993 135.019C289.523 135.019 279.923 142.319 277.253 155.889L267.873 203.889C266.183 212.009 258.653 218.489 250.533 218.489C242.413 218.489 236.953 212.009 238.643 203.889L248.243 154.849V154.909H248.233Z" fill="#D61000"/>
<path d="M371.492 122.549C373.182 114.429 380.652 107.949 388.832 107.949C397.012 107.949 402.412 114.429 400.722 122.549L384.852 203.949C383.162 212.069 375.692 218.549 367.512 218.549C359.332 218.549 353.932 212.069 355.622 203.949L371.492 122.549Z" fill="#D61000"/>
<path d="M416.37 149.459C421.39 123.139 441.46 107.939 464.2 107.939C476.31 107.939 486.12 111.919 491.36 123.579C500.96 111.919 512.69 107.939 524.79 107.939C547.53 107.939 562.58 127.339 557.57 153.659L547.75 203.949C546.06 212.069 538.59 218.549 530.41 218.549C522.23 218.549 516.83 212.069 518.52 203.949L528.77 151.149C530.84 140.309 525.82 135.079 518.3 135.079C510.78 135.079 503.68 140.309 501.61 151.149L491.36 203.949C489.67 212.069 482.14 218.549 474.02 218.549C465.9 218.549 460.44 212.069 462.13 203.949L472.38 151.149C474.45 140.309 469.44 135.079 461.91 135.079C454.38 135.079 447.29 140.309 445.22 151.149L434.97 203.949C433.28 212.069 425.81 218.549 417.63 218.549C409.45 218.549 404.05 212.069 405.74 203.949L416.38 149.459H416.37Z" fill="#D61000"/>
<path d="M571.348 173.489C571.348 139.269 599.758 107.939 636.738 107.939C654.298 107.939 665.748 115.459 671.858 121.289C674.798 124.229 676.058 127.339 676.058 131.319C676.058 134.859 674.588 139.279 671.038 142.819L638.478 174.099C635.148 177.259 629.918 179.109 626.158 179.109C618.028 179.109 613.828 172.839 613.828 167.449C613.828 162.659 615.898 158.079 619.068 154.919L639.138 135.739C638.098 135.519 636.028 135.089 633.688 135.089C615.748 135.089 600.908 151.599 600.908 169.089C600.908 181.619 609.688 191.429 622.828 191.429C630.138 191.429 637.658 188.109 642.238 184.349C646.218 181.029 650.588 178.739 655.378 178.739C663.508 178.739 667.268 184.789 667.268 190.239C667.268 195.249 664.978 200.479 660.778 203.809C652.218 210.889 637.598 218.629 619.598 218.629C591.188 218.629 571.328 198.799 571.328 173.569V173.519L571.348 173.489Z" fill="#D61000"/>
<path d="M746.209 134.071C753.199 134.071 758.959 136.571 763.829 141.721C766.959 145.041 770.509 146.801 774.089 146.801C782.199 146.801 789.059 139.881 789.059 131.691C789.059 129.081 788.229 126.621 786.719 124.771C777.929 114.001 763.509 107.561 748.149 107.561C731.039 107.561 714.709 114.621 702.179 127.451C690.719 139.181 683.789 154.811 683.129 170.391H683.039V172.891C683.039 199.331 704.079 219.261 731.969 219.261C746.789 219.261 760.929 213.991 772.889 204.011C776.179 201.231 778.229 196.751 778.229 192.311C778.229 185.481 773.139 180.331 766.399 180.331C763.019 180.331 759.369 181.911 755.229 185.151C748.689 190.221 741.509 192.791 733.909 192.791C720.449 192.791 711.049 183.331 711.049 169.791C711.049 150.761 727.489 134.071 746.229 134.071H746.209Z" fill="#D61000"/>
<path d="M818.693 55.6898C820.383 47.5698 827.853 41.0898 836.033 41.0898C844.213 41.0898 849.613 47.5698 847.923 55.6898L835.983 116.12C843.293 110.89 851.413 108 860.633 108C885.503 108 900.113 129.69 894.503 159.11L885.723 203.95C884.253 212.07 876.563 218.55 868.383 218.55C860.203 218.55 855.023 212.07 856.493 203.95L865.873 155.95C868.603 142.16 861.513 135.08 851.043 135.08C840.573 135.08 830.973 142.16 828.303 155.95L818.923 203.95C817.233 212.07 809.763 218.55 801.583 218.55C793.403 218.55 788.003 212.07 789.693 203.95L818.763 55.6898H818.713H818.693Z" fill="#D61000"/>
<path d="M905.12 173.489C905.12 139.269 931.46 107.939 966.31 107.939C978.86 107.939 989.28 112.519 996.58 120.039C999.09 113.169 1005.96 107.939 1013.27 107.939C1021.4 107.939 1026.85 114.419 1025.16 122.539L1009.29 203.939C1007.82 212.059 1000.07 218.539 991.95 218.539C985.68 218.539 981.09 214.779 980.06 209.329C971.06 215.159 960.64 218.539 949.14 218.539C922.79 218.539 905.07 198.489 905.07 173.479H905.12V173.489ZM988.46 157.419C988.46 144.889 980.49 135.079 967.35 135.079C949.41 135.079 934.57 151.589 934.57 169.079C934.57 181.609 943.35 191.419 956.5 191.419C974.44 191.419 988.46 174.909 988.46 157.419Z" fill="#D61000"/>
<path d="M1050.3 122.549C1051.99 114.429 1059.52 107.949 1067.65 107.949C1075.78 107.949 1081.23 114.429 1079.54 122.549L1063.67 203.949C1061.97 212.069 1054.5 218.549 1046.32 218.549C1038.14 218.549 1032.74 212.069 1034.43 203.949L1050.3 122.549Z" fill="#D61000"/>
<path d="M1424.04 93.8006H1407.24C1403.86 93.8006 1400.64 92.2206 1398.57 89.5506C1396.5 86.8806 1395.79 83.3406 1396.71 80.0706L1400.37 66.4506C1401.68 61.7106 1405.99 58.3906 1410.89 58.3906H1427.69C1431.07 58.3906 1434.29 59.9706 1436.36 62.6406C1438.44 65.3106 1439.15 68.8506 1438.22 72.1206L1434.56 85.7406C1433.26 90.4806 1428.95 93.8006 1424.04 93.8006Z" fill="#D61000"/>
<path d="M1248.46 173.489C1248.46 139.269 1274.8 107.939 1309.65 107.939C1322.2 107.939 1332.62 112.519 1339.92 120.039C1342.43 113.169 1349.3 107.939 1356.61 107.939C1364.74 107.939 1370.19 114.419 1368.5 122.539L1352.63 203.939C1351.16 212.059 1343.41 218.539 1335.29 218.539C1329.02 218.539 1324.43 214.779 1323.4 209.329C1314.4 215.159 1303.98 218.539 1292.48 218.539C1266.13 218.539 1248.41 198.489 1248.41 173.479H1248.46V173.489ZM1331.8 157.419C1331.8 144.889 1323.83 135.079 1310.69 135.079C1292.75 135.079 1277.91 151.589 1277.91 169.079C1277.91 181.609 1286.69 191.419 1299.84 191.419C1317.78 191.419 1331.8 174.909 1331.8 157.419Z" fill="#D61000"/>
<path d="M1393.8 122.549C1395.49 114.429 1403.02 107.949 1411.15 107.949C1419.28 107.949 1424.73 114.429 1423.04 122.549L1407.17 203.949C1405.47 212.069 1398 218.549 1389.82 218.549C1381.64 218.549 1376.24 212.069 1377.93 203.949L1393.8 122.549Z" fill="#D61000"/>
<path d="M1089.95 154.909C1095.57 125.489 1119.18 107.939 1146.13 107.939C1173.08 107.939 1190.85 129.629 1185.18 159.049L1176.39 203.889C1174.7 212.009 1167.18 218.489 1159.05 218.489C1150.92 218.489 1145.47 212.009 1147.16 203.889L1156.54 155.889C1159.27 142.319 1152.18 135.019 1141.71 135.019C1131.24 135.019 1121.64 142.319 1118.97 155.889L1109.59 203.889C1107.89 212.009 1100.37 218.489 1092.24 218.489C1084.11 218.489 1078.66 212.009 1080.35 203.889L1089.95 154.849V154.909Z" fill="#D61000"/>
<path d="M1433.91 273.36L35.9299 275.38C28.3999 275.38 22.2999 269.28 22.2999 261.76C22.2999 254.24 28.4099 248.14 35.9299 248.14L1433.96 246.12C1443.94 246.12 1452.67 238.98 1454.58 229.17L1489.86 52.36C1491.12 46.15 1489.54 39.77 1485.5 34.92C1481.46 30.02 1475.57 27.24 1469.25 27.24L83.9299 29.26C74.3899 29.26 66.0399 35.69 63.5899 44.9L26.8299 185.32C24.9199 192.62 17.4499 196.93 10.1999 195.07C2.88989 193.16 -1.42011 185.7 0.439887 178.45L37.1899 37.93C42.8599 16.79 62.0599 2.02 83.9299 2.02L1469.19 0C1483.7 0 1497.33 6.43 1506.55 17.65C1515.77 28.87 1519.42 43.48 1516.59 57.7L1481.3 234.51C1476.83 257.01 1456.87 273.36 1433.91 273.36Z" fill="#D61000"/>
</g>
<defs>
<clipPath id="clip0_2816_1419">
<rect width="1517.53" height="275.38" fill="white"/>
</clipPath>
</defs>
</svg>