<svg version="1.1" id="Layer_1" xmlns="http://www.w3.org/2000/svg" xmlns:xlink="http://www.w3.org/1999/xlink" x="0px" y="0px"
	 width="100%" viewBox="0 0 1410 107" enable-background="new 0 0 1410 107" xml:space="preserve">
<path fill="#000000" opacity="1.000000" stroke="none" 
	d="
M724.000000,1.000002 
	C921.359192,1.000000 1118.718384,1.000000 1316.836182,1.342428 
	C1316.776123,2.122676 1315.996094,2.666472 1315.132690,2.981134 
	C1309.589844,5.001053 1303.838623,6.563045 1298.515137,9.045916 
	C1288.891479,13.534477 1284.153320,21.733915 1283.035767,32.052719 
	C1281.993530,41.676029 1288.409546,51.958477 1298.687378,56.914577 
	C1313.491089,64.053070 1329.744995,64.044304 1345.590088,66.003151 
	C1356.231567,67.318718 1366.870605,68.653442 1377.507568,70.004288 
	C1380.339233,70.363876 1382.961182,70.755547 1383.072632,74.702751 
	C1383.180664,78.523514 1382.008789,81.272285 1378.126587,81.967690 
	C1369.868530,83.446846 1361.593384,85.489044 1353.272339,85.778076 
	C1344.320801,86.089012 1335.206421,85.268463 1326.356812,83.785637 
	C1319.731079,82.675438 1312.519653,81.146881 1309.705322,73.288300 
	C1309.495850,72.703156 1308.420776,72.070091 1307.742920,72.064438 
	C1298.202148,71.984863 1288.660278,72.010361 1278.316162,72.010361 
	C1280.345947,77.329170 1281.386841,82.191666 1283.867188,86.152771 
	C1291.068115,97.652473 1302.857300,101.998985 1315.335571,105.051247 
	C1317.973022,105.696373 1320.449463,106.999863 1323.000000,108.000000 
	C1125.640869,108.000000 928.281677,108.000000 730.161011,107.643021 
	C730.562988,106.857399 731.693542,106.254272 732.895142,106.027145 
	C744.709534,103.794083 756.314392,100.983582 763.893616,90.517586 
	C772.276917,78.941254 770.195862,60.037132 758.271667,52.604366 
	C749.827332,47.340755 740.750916,44.833591 730.979980,43.923145 
	C718.806274,42.788799 706.639160,41.509224 694.516357,39.930424 
	C687.187561,38.975956 679.867493,37.646252 672.722229,35.795216 
	C670.813965,35.300873 668.811584,32.441387 668.328125,30.329865 
	C668.087341,29.278114 670.963196,26.636919 672.808716,26.148552 
	C678.229492,24.714087 683.822510,23.297340 689.380554,23.156752 
	C698.773254,22.919163 708.229858,23.255682 717.584839,24.140690 
	C724.170898,24.763752 730.627014,26.678892 734.919861,32.571972 
	C735.387634,33.214031 736.298157,33.930794 737.009888,33.937786 
	C746.297791,34.029015 755.586853,33.998356 766.583801,33.998356 
	C763.726440,28.516392 762.028198,23.563807 758.959961,19.698853 
	C750.745300,9.351156 738.775146,5.711604 726.468628,2.939505 
	C725.546936,2.731886 724.818359,1.666595 724.000000,1.000002 
M1232.185181,104.998230 
	C1235.559692,104.000793 1238.938232,103.016815 1242.308105,102.003723 
	C1262.435791,95.952484 1266.076294,69.773170 1252.717163,58.392620 
	C1248.787476,55.044868 1243.903564,52.816986 1239.587158,50.156097 
	C1240.961182,49.582981 1242.876343,48.797379 1244.781372,47.987453 
	C1258.403931,42.195610 1258.572754,24.538895 1252.764404,16.341625 
	C1245.650269,6.301374 1234.729614,3.379249 1223.475220,3.167336 
	C1196.152466,2.652861 1168.813354,2.996469 1141.480835,3.009971 
	C1140.046631,3.010680 1138.612427,3.156054 1137.299072,3.227501 
	C1137.299072,37.663799 1137.299072,71.735367 1137.299072,104.999886 
	C1168.829712,104.999886 1200.057983,104.999886 1232.185181,104.998230 
M1094.540527,66.033302 
	C1094.303345,65.799393 1094.003418,65.602989 1093.838013,65.326149 
	C1082.216553,45.879086 1070.635742,26.407547 1058.946045,7.001636 
	C1057.819946,5.132157 1057.156250,2.799878 1053.782349,2.890104 
	C1042.799561,3.183807 1031.802979,2.929594 1020.814880,3.094807 
	C1019.529419,3.114136 1017.755188,4.114264 1017.071411,5.202497 
	C1012.884949,11.865273 1008.977112,18.702291 1004.922058,25.448587 
	C990.765015,49.001755 976.549927,72.520203 962.461670,96.114410 
	C960.759705,98.964867 959.697205,102.197182 958.005920,106.000000 
	C966.710327,106.000000 974.032776,105.730667 981.323059,106.098557 
	C985.873474,106.328171 989.047119,105.562355 990.830872,100.813599 
	C992.054688,97.555351 994.166748,94.603767 996.071350,91.636826 
	C997.542419,89.345161 999.138428,87.819405 1002.573730,87.860085 
	C1025.384399,88.130226 1048.200562,88.089935 1071.012939,87.906090 
	C1074.562866,87.877495 1076.815918,88.709801 1078.488281,91.915894 
	C1080.941650,96.619225 1083.760254,101.131958 1086.487305,105.836235 
	C1096.102295,105.836235 1105.896240,105.836235 1116.599487,105.836235 
	C1115.776123,103.579651 1115.354492,101.589203 1114.388428,99.912506 
	C1107.980103,88.790054 1101.455322,77.734787 1094.540527,66.033302 
M948.322266,105.999741 
	C949.214355,105.221870 950.858093,104.465416 950.880981,103.662766 
	C951.083435,96.554939 950.998474,89.438919 950.998474,81.936951 
	C923.139038,81.936951 895.733643,81.936951 867.934692,81.936951 
	C867.934692,55.470116 867.934692,29.397842 867.934692,3.234964 
	C858.463989,3.234964 849.392883,3.234964 840.235229,3.234964 
	C840.235229,37.539471 840.235229,71.608543 840.235229,105.999992 
	C876.095703,105.999992 911.721985,105.999992 948.322266,105.999741 
z"/>
<path fill="#000000" opacity="1.000000" stroke="none" 
	d="
M514.000000,108.000008 
	C344.498199,108.000000 174.996384,108.002579 5.494593,107.958641 
	C3.996314,107.958252 2.498195,107.333328 1.468658,106.500000 
	C9.263165,106.000000 16.596586,105.800293 23.911926,106.077606 
	C28.062174,106.234932 30.971420,105.655334 32.564419,101.107361 
	C33.706482,97.846809 36.117584,95.023811 38.009132,92.035103 
	C39.334812,89.940483 40.294132,87.877777 43.656425,87.903618 
	C67.297928,88.085358 90.941933,87.942398 114.583397,88.126305 
	C116.203766,88.138908 118.319870,89.595001 119.327011,91.006538 
	C122.306519,95.182419 124.783920,99.713104 127.607437,104.006554 
	C128.188293,104.889809 129.409897,105.899940 130.350067,105.913887 
	C139.824905,106.054405 149.302628,105.999474 159.911194,105.999474 
	C157.548645,101.557304 155.716690,97.701294 153.526901,94.060516 
	C136.054413,65.010490 118.496132,36.012070 101.024956,6.961255 
	C99.431305,4.311361 97.862633,2.696136 94.288666,2.882167 
	C86.816444,3.271109 79.251854,3.583523 71.832718,2.845903 
	C63.381664,2.005688 58.798370,4.778902 54.449951,12.540092 
	C39.930870,38.454197 24.275383,63.733585 8.929976,89.180588 
	C6.630214,92.994240 3.660042,96.403610 1.000000,100.000000 
	C1.000000,67.023430 1.000000,34.046856 1.000000,1.000000 
	C170.689301,1.000000 340.378632,1.000000 510.833313,1.352391 
	C505.488556,3.473252 499.244904,4.880002 493.292694,7.076398 
	C473.555176,14.359597 457.914398,25.450363 454.767456,48.462078 
	C452.910309,62.042233 456.532532,73.756554 465.394836,83.806862 
	C477.588196,97.634781 493.915680,103.248726 511.532318,106.067848 
	C512.434753,106.212273 513.181030,107.333549 514.000000,108.000008 
M302.972107,51.208199 
	C303.072021,50.570175 303.091797,49.906921 303.283600,49.297840 
	C307.386078,36.270470 304.886597,24.196363 295.700500,14.583323 
	C288.297272,6.835994 278.053131,3.182556 267.212097,3.080561 
	C240.887619,2.832895 214.559235,3.000000 188.232422,3.000000 
	C185.276703,3.000000 182.320984,3.000000 179.201447,3.000000 
	C179.201447,37.477886 179.201447,71.543671 179.201447,105.796463 
	C188.140030,105.796463 196.876923,105.796463 206.012054,105.796463 
	C206.012054,95.526138 206.012054,85.449501 206.012054,75.000000 
	C211.691528,75.000000 216.986084,75.140625 222.270966,74.974472 
	C240.427505,74.403618 258.755829,76.960373 276.708069,72.894379 
	C288.538391,70.214935 298.208099,64.157730 302.972107,51.208199 
M367.000000,101.380707 
	C367.000000,102.822777 367.000000,104.264839 367.000000,105.750824 
	C376.566284,105.750824 385.637390,105.750824 395.101227,105.750824 
	C395.101227,79.433311 395.101227,53.362186 395.101227,26.897839 
	C412.233490,26.897839 428.974060,26.897839 445.746887,26.897839 
	C445.746887,18.759493 445.746887,11.021798 445.746887,3.249523 
	C402.093445,3.249523 358.693542,3.249523 315.252502,3.249523 
	C315.252502,11.239293 315.252502,18.976967 315.252502,27.109510 
	C332.574310,27.109510 349.648102,27.109510 367.000000,27.109510 
	C367.000000,51.804375 367.000000,76.102325 367.000000,101.380707 
z"/>
<path fill="#FFFFFF" opacity="1.000000" stroke="none" 
	d="
M514.468628,108.000008 
	C513.181030,107.333549 512.434753,106.212273 511.532318,106.067848 
	C493.915680,103.248726 477.588196,97.634781 465.394836,83.806862 
	C456.532532,73.756554 452.910309,62.042233 454.767456,48.462078 
	C457.914398,25.450363 473.555176,14.359597 493.292694,7.076398 
	C499.244904,4.880002 505.488556,3.473252 511.299347,1.352391 
	C527.687561,1.000000 544.375122,1.000000 561.232239,1.350313 
	C562.392273,2.133563 563.343384,2.750318 564.379089,2.971828 
	C579.701538,6.248941 593.874084,11.462065 605.509399,22.817728 
	C622.068909,38.979172 622.612061,68.658630 605.852661,85.566940 
	C593.796814,97.729919 578.533325,103.354996 561.961060,106.064217 
	C560.896973,106.238182 559.983521,107.333359 559.000000,108.000000 
	C544.312439,108.000000 529.624878,108.000000 514.468628,108.000008 
M567.944519,79.571548 
	C571.285217,78.048653 574.712097,76.688583 577.951599,74.974541 
	C591.752991,67.672287 596.155029,49.275581 583.163757,37.634033 
	C573.228088,28.730597 560.885925,26.083263 548.326538,25.210764 
	C538.166321,24.504929 527.829651,25.176708 517.658020,26.147335 
	C508.706024,27.001577 500.302094,29.938904 492.462372,34.874840 
	C478.288330,43.798836 478.092834,64.137413 492.956360,74.029594 
	C503.577209,81.098145 515.747314,82.801781 527.882263,83.837112 
	C541.118958,84.966431 554.349426,83.706238 567.944519,79.571548 
z"/>
<path fill="#FFFFFF" opacity="1.000000" stroke="none" 
	d="
M1323.468628,108.000000 
	C1320.449463,106.999863 1317.973022,105.696373 1315.335571,105.051247 
	C1302.857300,101.998985 1291.068115,97.652473 1283.867188,86.152771 
	C1281.386841,82.191666 1280.345947,77.329170 1278.316162,72.010361 
	C1288.660278,72.010361 1298.202148,71.984863 1307.742920,72.064438 
	C1308.420776,72.070091 1309.495850,72.703156 1309.705322,73.288300 
	C1312.519653,81.146881 1319.731079,82.675438 1326.356812,83.785637 
	C1335.206421,85.268463 1344.320801,86.089012 1353.272339,85.778076 
	C1361.593384,85.489044 1369.868530,83.446846 1378.126587,81.967690 
	C1382.008789,81.272285 1383.180664,78.523514 1383.072632,74.702751 
	C1382.961182,70.755547 1380.339233,70.363876 1377.507568,70.004288 
	C1366.870605,68.653442 1356.231567,67.318718 1345.590088,66.003151 
	C1329.744995,64.044304 1313.491089,64.053070 1298.687378,56.914577 
	C1288.409546,51.958477 1281.993530,41.676029 1283.035767,32.052719 
	C1284.153320,21.733915 1288.891479,13.534477 1298.515137,9.045916 
	C1303.838623,6.563045 1309.589844,5.001053 1315.132690,2.981134 
	C1315.996094,2.666472 1316.776123,2.122676 1317.297363,1.342428 
	C1333.020874,1.000000 1349.041870,1.000000 1365.232178,1.350200 
	C1372.235229,3.805719 1379.310059,5.346775 1385.848755,8.141704 
	C1397.111084,12.955842 1405.959839,20.341221 1408.057739,34.000000 
	C1399.593018,34.000000 1391.326904,33.941994 1383.062500,34.033413 
	C1380.393311,34.062943 1378.544800,33.594707 1376.490112,31.299255 
	C1374.286865,28.837677 1370.760742,27.216751 1367.511108,26.123264 
	C1363.584595,24.802031 1359.365723,23.932716 1355.231201,23.730917 
	C1345.992065,23.279949 1336.711304,22.996763 1327.478760,23.387541 
	C1322.933838,23.579914 1318.321289,25.047165 1313.992432,26.629848 
	C1310.060181,28.067549 1309.661621,31.351469 1312.764282,34.168930 
	C1314.140381,35.418549 1315.960083,36.599506 1317.737793,36.915722 
	C1326.330322,38.444122 1334.949219,39.898571 1343.611084,40.945156 
	C1356.395630,42.489845 1369.337769,43.012146 1382.000610,45.198444 
	C1393.123901,47.118919 1403.848389,50.879787 1409.150635,62.538132 
	C1409.314331,62.898022 1410.363525,62.855125 1411.000000,62.999996 
	C1411.000000,70.020950 1411.000000,77.041893 1410.623169,84.533447 
	C1408.445801,87.551666 1406.892578,90.326233 1404.800537,92.606316 
	C1397.072266,101.029297 1386.796143,104.137802 1375.970703,106.063843 
	C1374.899536,106.254417 1373.986450,107.333359 1373.000000,108.000000 
	C1356.645752,108.000000 1340.291504,108.000000 1323.468628,108.000000 
z"/>
<path fill="#FFFFFF" opacity="1.000000" stroke="none" 
	d="
M723.531372,1.000002 
	C724.818359,1.666595 725.546936,2.731886 726.468628,2.939505 
	C738.775146,5.711604 750.745300,9.351156 758.959961,19.698853 
	C762.028198,23.563807 763.726440,28.516392 766.583801,33.998356 
	C755.586853,33.998356 746.297791,34.029015 737.009888,33.937786 
	C736.298157,33.930794 735.387634,33.214031 734.919861,32.571972 
	C730.627014,26.678892 724.170898,24.763752 717.584839,24.140690 
	C708.229858,23.255682 698.773254,22.919163 689.380554,23.156752 
	C683.822510,23.297340 678.229492,24.714087 672.808716,26.148552 
	C670.963196,26.636919 668.087341,29.278114 668.328125,30.329865 
	C668.811584,32.441387 670.813965,35.300873 672.722229,35.795216 
	C679.867493,37.646252 687.187561,38.975956 694.516357,39.930424 
	C706.639160,41.509224 718.806274,42.788799 730.979980,43.923145 
	C740.750916,44.833591 749.827332,47.340755 758.271667,52.604366 
	C770.195862,60.037132 772.276917,78.941254 763.893616,90.517586 
	C756.314392,100.983582 744.709534,103.794083 732.895142,106.027145 
	C731.693542,106.254272 730.562988,106.857399 729.699707,107.643021 
	C713.979126,108.000000 697.958191,108.000000 681.768921,107.643021 
	C680.936279,106.862724 680.304016,106.135086 679.603027,106.061447 
	C667.828674,104.824585 656.897278,101.057709 647.610718,93.769485 
	C640.919617,88.518188 637.562195,81.028831 636.858398,72.181412 
	C647.080017,72.181412 656.868713,72.181412 666.646851,72.181412 
	C668.134399,76.962685 673.638000,81.631180 679.473938,82.985550 
	C694.317932,86.430458 709.353333,86.443466 724.373230,84.861435 
	C728.897278,84.384903 733.404602,82.689270 737.616272,80.855453 
	C739.189331,80.170525 740.819580,77.456909 740.741516,75.745018 
	C740.662842,74.018967 738.741272,72.086357 737.168091,70.810188 
	C735.889709,69.773224 733.969360,69.247299 732.270020,69.053551 
	C716.881226,67.299088 701.501343,65.398102 686.072144,64.090866 
	C675.003479,63.153069 664.489624,60.744713 654.478333,55.880871 
	C639.457153,48.583084 637.580017,29.974236 644.822021,18.786076 
	C651.251221,8.853471 661.664551,5.412657 672.530518,2.939310 
	C673.453003,2.729318 674.181396,1.666583 675.000000,0.999995 
	C691.020874,1.000000 707.041809,1.000000 723.531372,1.000002 
z"/>
<path fill="#FFFFFF" opacity="1.000000" stroke="none" 
	d="
M1.000000,100.428467 
	C3.660042,96.403610 6.630214,92.994240 8.929976,89.180588 
	C24.275383,63.733585 39.930870,38.454197 54.449951,12.540092 
	C58.798370,4.778902 63.381664,2.005688 71.832718,2.845903 
	C79.251854,3.583523 86.816444,3.271109 94.288666,2.882167 
	C97.862633,2.696136 99.431305,4.311361 101.024956,6.961255 
	C118.496132,36.012070 136.054413,65.010490 153.526901,94.060516 
	C155.716690,97.701294 157.548645,101.557304 159.911194,105.999474 
	C149.302628,105.999474 139.824905,106.054405 130.350067,105.913887 
	C129.409897,105.899940 128.188293,104.889809 127.607437,104.006554 
	C124.783920,99.713104 122.306519,95.182419 119.327011,91.006538 
	C118.319870,89.595001 116.203766,88.138908 114.583397,88.126305 
	C90.941933,87.942398 67.297928,88.085358 43.656425,87.903618 
	C40.294132,87.877777 39.334812,89.940483 38.009132,92.035103 
	C36.117584,95.023811 33.706482,97.846809 32.564419,101.107361 
	C30.971420,105.655334 28.062174,106.234932 23.911926,106.077606 
	C16.596586,105.800293 9.263165,106.000000 1.468657,106.000000 
	C1.000000,104.285645 1.000000,102.571281 1.000000,100.428467 
M89.489471,65.000000 
	C93.933418,65.000000 98.377357,65.000000 103.667885,65.000000 
	C102.370934,62.176758 101.560684,59.936844 100.375725,57.916725 
	C95.500534,49.605553 90.361977,41.445137 85.644936,33.046928 
	C83.982323,30.086796 82.112885,28.989614 78.724983,28.859463 
	C75.074615,28.719229 74.072525,30.682226 72.824860,33.367714 
	C71.477394,36.268005 69.514160,38.878876 67.863670,41.642349 
	C63.279099,49.318443 58.717453,57.008221 53.963905,65.000000 
	C65.861313,65.000000 77.177460,65.000000 89.489471,65.000000 
z"/>
<path fill="#000000" opacity="1.000000" stroke="none" 
	d="
M674.531372,0.999995 
	C674.181396,1.666583 673.453003,2.729318 672.530518,2.939310 
	C661.664551,5.412657 651.251221,8.853471 644.822021,18.786076 
	C637.580017,29.974236 639.457153,48.583084 654.478333,55.880871 
	C664.489624,60.744713 675.003479,63.153069 686.072144,64.090866 
	C701.501343,65.398102 716.881226,67.299088 732.270020,69.053551 
	C733.969360,69.247299 735.889709,69.773224 737.168091,70.810188 
	C738.741272,72.086357 740.662842,74.018967 740.741516,75.745018 
	C740.819580,77.456909 739.189331,80.170525 737.616272,80.855453 
	C733.404602,82.689270 728.897278,84.384903 724.373230,84.861435 
	C709.353333,86.443466 694.317932,86.430458 679.473938,82.985550 
	C673.638000,81.631180 668.134399,76.962685 666.646851,72.181412 
	C656.868713,72.181412 647.080017,72.181412 636.858398,72.181412 
	C637.562195,81.028831 640.919617,88.518188 647.610718,93.769485 
	C656.897278,101.057709 667.828674,104.824585 679.603027,106.061447 
	C680.304016,106.135086 680.936279,106.862724 681.300293,107.643021 
	C640.645752,108.000000 600.291565,108.000000 559.468628,108.000000 
	C559.983521,107.333359 560.896973,106.238182 561.961060,106.064217 
	C578.533325,103.354996 593.796814,97.729919 605.852661,85.566940 
	C622.612061,68.658630 622.068909,38.979172 605.509399,22.817728 
	C593.874084,11.462065 579.701538,6.248941 564.379089,2.971828 
	C563.343384,2.750318 562.392273,2.133563 561.700928,1.350313 
	C599.354248,1.000000 636.708435,1.000000 674.531372,0.999995 
z"/>
<path fill="#000000" opacity="1.000000" stroke="none" 
	d="
M1411.000000,62.531338 
	C1410.363525,62.855125 1409.314331,62.898022 1409.150635,62.538132 
	C1403.848389,50.879787 1393.123901,47.118919 1382.000610,45.198444 
	C1369.337769,43.012146 1356.395630,42.489845 1343.611084,40.945156 
	C1334.949219,39.898571 1326.330322,38.444122 1317.737793,36.915722 
	C1315.960083,36.599506 1314.140381,35.418549 1312.764282,34.168930 
	C1309.661621,31.351469 1310.060181,28.067549 1313.992432,26.629848 
	C1318.321289,25.047165 1322.933838,23.579914 1327.478760,23.387541 
	C1336.711304,22.996763 1345.992065,23.279949 1355.231201,23.730917 
	C1359.365723,23.932716 1363.584595,24.802031 1367.511108,26.123264 
	C1370.760742,27.216751 1374.286865,28.837677 1376.490112,31.299255 
	C1378.544800,33.594707 1380.393311,34.062943 1383.062500,34.033413 
	C1391.326904,33.941994 1399.593018,34.000000 1408.057739,34.000000 
	C1405.959839,20.341221 1397.111084,12.955842 1385.848755,8.141704 
	C1379.310059,5.346775 1372.235229,3.805719 1365.700928,1.350200 
	C1380.938354,1.000000 1395.876831,1.000000 1411.000000,1.000000 
	C1411.000000,21.353855 1411.000000,41.708267 1411.000000,62.531338 
z"/>
<path fill="#000000" opacity="1.000000" stroke="none" 
	d="
M1373.468628,108.000000 
	C1373.986450,107.333359 1374.899536,106.254417 1375.970703,106.063843 
	C1386.796143,104.137802 1397.072266,101.029297 1404.800537,92.606316 
	C1406.892578,90.326233 1408.445801,87.551666 1410.623169,85.002022 
	C1411.000000,92.611259 1411.000000,100.222511 1411.000000,108.000000 
	C1398.646118,108.000000 1386.291748,108.000000 1373.468628,108.000000 
z"/>
<path fill="#FFFFFF" opacity="1.000000" stroke="none" 
	d="
M1231.735840,104.999054 
	C1200.057983,104.999886 1168.829712,104.999886 1137.299072,104.999886 
	C1137.299072,71.735367 1137.299072,37.663799 1137.299072,3.227501 
	C1138.612427,3.156054 1140.046631,3.010680 1141.480835,3.009971 
	C1168.813354,2.996469 1196.152466,2.652861 1223.475220,3.167336 
	C1234.729614,3.379249 1245.650269,6.301374 1252.764404,16.341625 
	C1258.572754,24.538895 1258.403931,42.195610 1244.781372,47.987453 
	C1242.876343,48.797379 1240.961182,49.582981 1239.587158,50.156097 
	C1243.903564,52.816986 1248.787476,55.044868 1252.717163,58.392620 
	C1266.076294,69.773170 1262.435791,95.952484 1242.308105,102.003723 
	C1238.938232,103.016815 1235.559692,104.000793 1231.735840,104.999054 
M1202.500000,83.000000 
	C1209.149292,83.000000 1215.833374,83.401962 1222.432983,82.829132 
	C1225.694580,82.546028 1229.393188,81.139549 1231.812256,79.011566 
	C1234.306519,76.817474 1235.223877,72.492447 1232.720947,69.840851 
	C1230.502686,67.490784 1226.810059,65.275635 1223.720825,65.209312 
	C1204.446899,64.795509 1185.159790,64.998398 1165.876953,65.020645 
	C1165.277222,65.021339 1164.677734,65.280113 1164.318848,65.362968 
	C1164.318848,71.396568 1164.318848,77.128471 1164.318848,83.000000 
	C1176.924683,83.000000 1189.212402,83.000000 1202.500000,83.000000 
M1206.498291,42.000000 
	C1211.484985,41.999882 1216.574097,42.596924 1221.418579,41.766647 
	C1224.149536,41.298588 1227.768188,38.977104 1228.685059,36.602051 
	C1230.062988,33.031990 1229.569336,28.551617 1224.584839,26.957956 
	C1222.020752,26.138176 1219.358887,25.113939 1216.731567,25.086279 
	C1200.443237,24.914787 1184.152344,24.993452 1167.862305,25.012892 
	C1166.605835,25.014391 1165.349731,25.198778 1164.322754,25.280012 
	C1164.322754,31.069834 1164.322754,36.466911 1164.322754,42.000000 
	C1178.263062,42.000000 1191.881104,42.000000 1206.498291,42.000000 
z"/>
<path fill="#FFFFFF" opacity="1.000000" stroke="none" 
	d="
M1094.754395,66.345505 
	C1101.455322,77.734787 1107.980103,88.790054 1114.388428,99.912506 
	C1115.354492,101.589203 1115.776123,103.579651 1116.599487,105.836235 
	C1105.896240,105.836235 1096.102295,105.836235 1086.487305,105.836235 
	C1083.760254,101.131958 1080.941650,96.619225 1078.488281,91.915894 
	C1076.815918,88.709801 1074.562866,87.877495 1071.012939,87.906090 
	C1048.200562,88.089935 1025.384399,88.130226 1002.573730,87.860085 
	C999.138428,87.819405 997.542419,89.345161 996.071350,91.636826 
	C994.166748,94.603767 992.054688,97.555351 990.830872,100.813599 
	C989.047119,105.562355 985.873474,106.328171 981.323059,106.098557 
	C974.032776,105.730667 966.710327,106.000000 958.005920,106.000000 
	C959.697205,102.197182 960.759705,98.964867 962.461670,96.114410 
	C976.549927,72.520203 990.765015,49.001755 1004.922058,25.448587 
	C1008.977112,18.702291 1012.884949,11.865273 1017.071411,5.202497 
	C1017.755188,4.114264 1019.529419,3.114136 1020.814880,3.094807 
	C1031.802979,2.929594 1042.799561,3.183807 1053.782349,2.890104 
	C1057.156250,2.799878 1057.819946,5.132157 1058.946045,7.001636 
	C1070.635742,26.407547 1082.216553,45.879086 1093.838013,65.326149 
	C1094.003418,65.602989 1094.303345,65.799393 1094.754395,66.345505 
M1057.218506,65.000000 
	C1058.777222,64.925987 1060.335938,64.851982 1062.268188,64.760231 
	C1055.641846,53.480679 1049.239014,42.758175 1043.044067,31.916849 
	C1041.420898,29.076181 1039.069580,28.471653 1036.432007,29.106571 
	C1034.685059,29.527090 1032.636353,30.594709 1031.670898,32.016525 
	C1028.338501,36.924561 1025.372559,42.085938 1022.360352,47.205791 
	C1018.952942,52.997520 1015.646362,58.848560 1012.108337,65.000000 
	C1027.312256,65.000000 1041.794434,65.000000 1057.218506,65.000000 
z"/>
<path fill="#FFFFFF" opacity="1.000000" stroke="none" 
	d="
M947.835205,105.999863 
	C911.721985,105.999992 876.095703,105.999992 840.235229,105.999992 
	C840.235229,71.608543 840.235229,37.539471 840.235229,3.234964 
	C849.392883,3.234964 858.463989,3.234964 867.934692,3.234964 
	C867.934692,29.397842 867.934692,55.470116 867.934692,81.936951 
	C895.733643,81.936951 923.139038,81.936951 950.998474,81.936951 
	C950.998474,89.438919 951.083435,96.554939 950.880981,103.662766 
	C950.858093,104.465416 949.214355,105.221870 947.835205,105.999863 
z"/>
<path fill="#FFFFFF" opacity="1.000000" stroke="none" 
	d="
M302.778900,51.569847 
	C298.208099,64.157730 288.538391,70.214935 276.708069,72.894379 
	C258.755829,76.960373 240.427505,74.403618 222.270966,74.974472 
	C216.986084,75.140625 211.691528,75.000000 206.012054,75.000000 
	C206.012054,85.449501 206.012054,95.526138 206.012054,105.796463 
	C196.876923,105.796463 188.140030,105.796463 179.201447,105.796463 
	C179.201447,71.543671 179.201447,37.477886 179.201447,3.000000 
	C182.320984,3.000000 185.276703,3.000000 188.232422,3.000000 
	C214.559235,3.000000 240.887619,2.832895 267.212097,3.080561 
	C278.053131,3.182556 288.297272,6.835994 295.700500,14.583323 
	C304.886597,24.196363 307.386078,36.270470 303.283600,49.297840 
	C303.091797,49.906921 303.072021,50.570175 302.778900,51.569847 
M258.336914,26.000000 
	C240.922089,26.000000 223.507263,26.000000 206.350067,26.000000 
	C206.350067,34.770798 206.350067,42.847065 206.350067,51.000000 
	C225.027740,51.000000 243.357040,51.123039 261.681824,50.890347 
	C265.115265,50.846748 268.681366,49.763512 271.922424,48.489071 
	C278.344360,45.963829 280.272308,36.202126 274.610168,31.025103 
	C270.178558,26.973202 264.806152,26.415852 258.336914,26.000000 
z"/>
<path fill="#FFFFFF" opacity="1.000000" stroke="none" 
	d="
M367.000000,100.890488 
	C367.000000,76.102325 367.000000,51.804375 367.000000,27.109510 
	C349.648102,27.109510 332.574310,27.109510 315.252502,27.109510 
	C315.252502,18.976967 315.252502,11.239293 315.252502,3.249523 
	C358.693542,3.249523 402.093445,3.249523 445.746887,3.249523 
	C445.746887,11.021798 445.746887,18.759493 445.746887,26.897839 
	C428.974060,26.897839 412.233490,26.897839 395.101227,26.897839 
	C395.101227,53.362186 395.101227,79.433311 395.101227,105.750824 
	C385.637390,105.750824 376.566284,105.750824 367.000000,105.750824 
	C367.000000,104.264839 367.000000,102.822777 367.000000,100.890488 
z"/>
<path fill="#000000" opacity="1.000000" stroke="none" 
	d="
M567.583496,79.770966 
	C554.349426,83.706238 541.118958,84.966431 527.882263,83.837112 
	C515.747314,82.801781 503.577209,81.098145 492.956360,74.029594 
	C478.092834,64.137413 478.288330,43.798836 492.462372,34.874840 
	C500.302094,29.938904 508.706024,27.001577 517.658020,26.147335 
	C527.829651,25.176708 538.166321,24.504929 548.326538,25.210764 
	C560.885925,26.083263 573.228088,28.730597 583.163757,37.634033 
	C596.155029,49.275581 591.752991,67.672287 577.951599,74.974541 
	C574.712097,76.688583 571.285217,78.048653 567.583496,79.770966 
z"/>
<path fill="#000000" opacity="1.000000" stroke="none" 
	d="
M88.991547,65.000000 
	C77.177460,65.000000 65.861313,65.000000 53.963905,65.000000 
	C58.717453,57.008221 63.279099,49.318443 67.863670,41.642349 
	C69.514160,38.878876 71.477394,36.268005 72.824860,33.367714 
	C74.072525,30.682226 75.074615,28.719229 78.724983,28.859463 
	C82.112885,28.989614 83.982323,30.086796 85.644936,33.046928 
	C90.361977,41.445137 95.500534,49.605553 100.375725,57.916725 
	C101.560684,59.936844 102.370934,62.176758 103.667885,65.000000 
	C98.377357,65.000000 93.933418,65.000000 88.991547,65.000000 
z"/>
<path fill="#000000" opacity="1.000000" stroke="none" 
	d="
M1202.000000,83.000000 
	C1189.212402,83.000000 1176.924683,83.000000 1164.318848,83.000000 
	C1164.318848,77.128471 1164.318848,71.396568 1164.318848,65.362968 
	C1164.677734,65.280113 1165.277222,65.021339 1165.876953,65.020645 
	C1185.159790,64.998398 1204.446899,64.795509 1223.720825,65.209312 
	C1226.810059,65.275635 1230.502686,67.490784 1232.720947,69.840851 
	C1235.223877,72.492447 1234.306519,76.817474 1231.812256,79.011566 
	C1229.393188,81.139549 1225.694580,82.546028 1222.432983,82.829132 
	C1215.833374,83.401962 1209.149292,83.000000 1202.000000,83.000000 
z"/>
<path fill="#000000" opacity="1.000000" stroke="none" 
	d="
M1205.998657,42.000000 
	C1191.881104,42.000000 1178.263062,42.000000 1164.322754,42.000000 
	C1164.322754,36.466911 1164.322754,31.069834 1164.322754,25.280012 
	C1165.349731,25.198778 1166.605835,25.014391 1167.862305,25.012892 
	C1184.152344,24.993452 1200.443237,24.914787 1216.731567,25.086279 
	C1219.358887,25.113939 1222.020752,26.138176 1224.584839,26.957956 
	C1229.569336,28.551617 1230.062988,33.031990 1228.685059,36.602051 
	C1227.768188,38.977104 1224.149536,41.298588 1221.418579,41.766647 
	C1216.574097,42.596924 1211.484985,41.999882 1205.998657,42.000000 
z"/>
<path fill="#000000" opacity="1.000000" stroke="none" 
	d="
M1056.747559,65.000000 
	C1041.794434,65.000000 1027.312256,65.000000 1012.108337,65.000000 
	C1015.646362,58.848560 1018.952942,52.997520 1022.360352,47.205791 
	C1025.372559,42.085938 1028.338501,36.924561 1031.670898,32.016525 
	C1032.636353,30.594709 1034.685059,29.527090 1036.432007,29.106571 
	C1039.069580,28.471653 1041.420898,29.076181 1043.044067,31.916849 
	C1049.239014,42.758175 1055.641846,53.480679 1062.268188,64.760231 
	C1060.335938,64.851982 1058.777222,64.925987 1056.747559,65.000000 
z"/>
<path fill="#000000" opacity="1.000000" stroke="none" 
	d="
M258.813477,26.000000 
	C264.806152,26.415852 270.178558,26.973202 274.610168,31.025103 
	C280.272308,36.202126 278.344360,45.963829 271.922424,48.489071 
	C268.681366,49.763512 265.115265,50.846748 261.681824,50.890347 
	C243.357040,51.123039 225.027740,51.000000 206.350067,51.000000 
	C206.350067,42.847065 206.350067,34.770798 206.350067,26.000000 
	C223.507263,26.000000 240.922089,26.000000 258.813477,26.000000 
z"/>
</svg>