<?xml version="1.0" encoding="UTF-8" standalone="no"?>
<!-- Created with Inkscape (http://www.inkscape.org/) -->

<svg
   version="1.1"
   id="svg2"
   width="1440"
   height="1440"
   viewBox="0 0 1440 1440"
   sodipodi:docname="logoArkage-new.ai"
   xmlns:inkscape="http://www.inkscape.org/namespaces/inkscape"
   xmlns:sodipodi="http://sodipodi.sourceforge.net/DTD/sodipodi-0.dtd"
   xmlns="http://www.w3.org/2000/svg"
   xmlns:svg="http://www.w3.org/2000/svg">
  <defs
     id="defs6">
    <clipPath
       clipPathUnits="userSpaceOnUse"
       id="clipPath16">
      <path
         d="M 0,1080 H 1080 V 0 H 0 Z"
         id="path14" />
    </clipPath>
  </defs>
  <sodipodi:namedview
     id="namedview4"
     pagecolor="#ffffff"
     bordercolor="#000000"
     borderopacity="0.25"
     inkscape:showpageshadow="2"
     inkscape:pageopacity="0.0"
     inkscape:pagecheckerboard="0"
     inkscape:deskcolor="#d1d1d1" />
  <g
     id="g8"
     inkscape:groupmode="layer"
     inkscape:label="logoArkage-new"
     transform="matrix(1.3333333,0,0,-1.3333333,0,1440)">
    <g
       id="g10">
      <g
         id="g12"
         clip-path="url(#clipPath16)">
        <g
           id="g18"
           transform="translate(891.1707,640.7785)">
          <path
             d="m 0,0 v -17.718 c 0,-3.667 -1.682,-5.629 -6.464,-7.323 l -1.416,-0.28 c -6.185,-2.249 -9.283,-3.109 -9.561,-10.698 v -88.877 c 13.398,-11.182 32.812,-17.743 59.379,-17.743 18.29,0 39.106,3.086 51.211,9.271 4.78,2.529 6.185,4.78 6.185,7.88 v 21.666 c 0,2.818 -0.847,4.502 -3.378,4.502 -3.087,0 -6.474,-1.973 -10.965,-3.378 -9.574,-3.933 -24.763,-6.184 -39.12,-6.184 -24.763,0 -34.893,8.158 -38.259,25.89 9.285,-1.696 18.845,-2.531 28.699,-2.531 44.178,0 63.3,19.694 63.3,47.821 0,31.795 -24.194,49.083 -66.12,49.083 C 20.68,11.381 9.546,10.025 0,6.078 Z"
             style="fill:#000000;fill-opacity:1;fill-rule:nonzero;stroke:none"
             id="path20" />
        </g>
        <g
           id="g22"
           transform="translate(168.3918,662.9197)">
          <path
             d="M 0,0 23.916,-4.572 34.761,25.51 9.853,36.541 C 4.382,39.01 1.925,38.732 0,34.35 L -12.434,6.617 c -0.894,-1.994 0.307,-4.299 2.452,-4.709 z"
             style="fill:#ff6214;fill-opacity:1;fill-rule:nonzero;stroke:none"
             id="path24" />
        </g>
        <g
           id="g26"
           transform="translate(266.0098,530.6172)">
          <path
             d="m 0,0 c -2.313,-0.003 -4.186,-1.879 -4.186,-4.191 v -23.21 c 0,-2.266 1.838,-4.103 4.104,-4.103 l 9.13,0.011 h 30.776 v 26.434 c 0,3.655 1.125,5.071 6.474,5.071 h 6.812 c 7.034,0 11.902,7.026 9.431,13.612 L 4.833,167.415 c -1.416,3.378 -2.82,4.236 -7.034,4.236 h -42.773 c -5.629,0 -6.184,-0.858 -7.6,-4.502 l -4.31,-11.982 33.018,-14.622 c 3.837,-1.634 3.293,-3.824 1.382,-8.207 l -3.56,-8.761 c -1.379,-3.282 -4.103,-4.103 -8.764,-3.282 L -67.231,126.494 -107.15,15.771 C -111.943,1.972 -114.75,0.29 -119.822,0.012 L -129.132,0 c -2.312,-0.003 -4.185,-1.879 -4.185,-4.191 v -23.21 c 0,-2.266 1.837,-4.103 4.104,-4.103 h 72.535 c 2.266,0 4.104,1.837 4.104,4.103 v 23.21 c 0,2.312 -1.873,4.188 -4.186,4.191 l -2.279,0.012 h -5.84 c -5.171,0 -8.789,5.112 -7.07,9.989 l 6.992,19.832 H 7.64 l 6.866,-18.83 C 16.454,5.663 12.5,0.012 6.816,0.012 h -4.82 z"
             style="fill:#000000;fill-opacity:1;fill-rule:nonzero;stroke:none"
             id="path28" />
        </g>
        <g
           id="g30"
           transform="translate(384.1548,614.1931)">
          <path
             d="M 0,0 C 3.947,12.938 16.316,37.982 46.709,37.982 V -17.35 C 37.389,-14.148 30.022,-6.159 27.85,3.656 10.978,-5.629 0.558,-34.604 0,-61.898 v -9.005 c 0.558,-10.965 4.502,-12.678 14.912,-12.678 h 1.734 5.841 l 2.279,-0.013 c 2.312,-0.002 4.185,-1.878 4.185,-4.191 v -23.209 c 0,-2.266 -1.837,-4.104 -4.103,-4.103 h -8.202 l -15.791,0.016 h -20.377 v 25.611 c 0,3.644 -1.127,5.629 -6.465,5.906 h -7.911 c -6.139,0 -11.115,4.977 -11.115,11.115 v 60.746 c 0,8.739 -1.124,12.552 -14.632,12.552 h -1.525 c -2.266,-0.001 -4.104,1.836 -4.104,4.103 v 23.209 c 0,2.313 1.873,4.188 4.186,4.191 h 55.902 1.073 c 2.267,0.001 4.104,-1.836 4.104,-4.103 l 0,-23.209 z"
             style="fill:#000000;fill-opacity:1;fill-rule:nonzero;stroke:none"
             id="path32" />
        </g>
        <g
           id="g34"
           transform="translate(481.0651,579.3619)">
          <path
             d="M 0,0 44.578,35.68 H 28.904 C 26.637,35.679 24.8,37.516 24.8,39.783 v 23.209 c 0,2.313 1.873,4.188 4.185,4.191 h 72.03 c 3.22,0 4.624,-0.593 5.313,-2.288 C 94.345,58.941 88.089,49.463 88.089,35.678 L 48.122,2.199 81.843,-27.503 c -0.641,-3.438 -1.066,-7.068 -1.066,-11.098 0,-22.842 10.784,-36.629 31.104,-41.483 v -0.165 h -2.707 -74.281 l -2.383,-0.005 c -2.266,0 -4.104,1.837 -4.104,4.103 v 23.21 c 0,2.312 1.873,4.188 4.186,4.191 l 2.301,0.018 H 49.805 L 0,-7.351 v -34.886 c 0,-3.587 2.908,-6.495 6.495,-6.495 h 3.634 l 1.985,-0.03 c 2.312,-0.003 4.186,-1.879 4.186,-4.191 v -23.21 c 0,-2.266 -1.838,-4.103 -4.104,-4.103 l -2.067,0.017 h -44.93 l -0.025,14.254 v 12.703 c 0,0.028 -0.004,0.055 -0.005,0.083 v 0.256 c 0,2.241 -1.761,4.066 -3.974,4.18 -0.191,0.024 -0.384,0.041 -0.582,0.041 h -5.3 l -0.037,15.758 v 49.267 c 1.099,-0.129 2.211,-0.214 3.344,-0.214 15.795,0 28.574,12.907 28.365,28.75 -0.206,15.585 -13.2,27.983 -28.787,27.984 -0.978,0 -1.918,0 -2.922,0 v 11.624 c 0,3.847 -3.118,6.966 -6.965,6.966 h -8.382 c -2.266,-0.001 -4.186,1.836 -4.186,4.103 v 23.209 c 0,2.313 1.873,4.188 4.186,4.191 h 54.275 1.692 C -1.837,122.907 0,121.069 0,118.803 V 95.594 Z"
             style="fill:#000000;fill-opacity:1;fill-rule:nonzero;stroke:none"
             id="path36" />
        </g>
        <g
           id="g38"
           transform="translate(606.0439,498.7707)">
          <path
             d="m 0,0 c 4.633,-0.846 9.649,-1.343 15.218,-1.343 21.097,0 36.855,5.893 47.265,15.479 6.196,-11.823 18.856,-15.479 30.67,-15.479 17.777,0 23.859,3.858 24.544,4.211 -17.26,8.716 -28.672,27.864 -28.672,64.439 0,20.844 3.534,37.474 9.742,50.376 -9.147,29.099 -26.809,35.716 -62.163,35.716 -19.716,0 -34.846,-2.454 -45.572,-7.608 l -0.022,-0.016 v -0.423 -2.482 l 0.078,0.506 v -23.21 c 0,-2.312 -1.873,-4.188 -4.186,-4.191 h -14.604 c 0.655,-13.796 10.699,-23.636 22.657,-23.636 13.799,0 25.613,10.129 25.613,25.621 5.337,1.116 10.687,1.683 15.467,1.683 16.608,0 22.234,-7.043 22.234,-20.539 v -6.462 h -8.447 c -43.804,0 -77.815,-6.791 -83.903,-39.556 l 3.984,-3.509 c 13.785,-12.091 17.16,-17.72 22.79,-17.72 L -4.1,31.841 c 2.266,0 4.104,-1.837 4.104,-4.103 z"
             style="fill:#000000;fill-opacity:1;fill-rule:nonzero;stroke:none"
             id="path40" />
        </g>
        <g
           id="g42"
           transform="translate(879.6867,646.3104)">
          <path
             d="m 0,0 v 0.235 h -51.141 c -5.059,0 -6.474,-2.265 -6.474,-7.881 V -9.05 h -0.28 c -9.005,7.02 -25.338,14.914 -39.972,14.914 -24.122,0 -44.505,-8.457 -56.229,-29.569 l 0.053,-80.717 c 0,-7.767 3.087,-11.276 8.146,-11.276 h 7.164 c 2.267,0 4.104,-1.838 4.104,-4.104 v -0.423 -7.7 -17.962 c 8.037,-3.497 17.196,-4.966 27.014,-4.966 15.47,0 34.163,3.377 47.381,16.038 v -10.326 c 0,-30.948 -17.163,-40.799 -39.943,-40.799 -6.15,0 -12.011,0.835 -17.044,1.95 1.219,3.706 1.59,7.797 0.738,12.081 -2.015,10.124 -10.577,17.851 -20.851,18.861 -13.956,1.374 -25.724,-9.217 -26.141,-22.785 0,0 -3.801,-43.878 64.413,-43.878 49.527,0 83.852,23.361 83.852,77.948 v 10.348 c -16.556,13.799 -23.904,34.653 -23.904,59.068 0,32.845 13.222,60.304 39.114,72.347"
             style="fill:#000000;fill-opacity:1;fill-rule:nonzero;stroke:none"
             id="path44" />
        </g>
        <g
           id="g46"
           transform="translate(143.0024,427.0879)">
          <path
             d="m 0,0 v 25.798 h -9.875 v 5.525 H 15.792 V 25.798 H 5.917 L 5.917,0 Z"
             style="fill:#000000;fill-opacity:1;fill-rule:nonzero;stroke:none"
             id="path48" />
        </g>
        <g
           id="g50"
           transform="translate(177.7612,427.0879)">
          <path
             d="m 0,0 v 11.094 c 0,0.536 -0.029,1.221 -0.087,2.055 -0.058,0.833 -0.239,1.671 -0.544,2.512 -0.305,0.841 -0.801,1.545 -1.49,2.11 -0.689,0.566 -1.664,0.849 -2.925,0.849 -0.508,0 -1.052,-0.08 -1.632,-0.239 -0.58,-0.16 -1.124,-0.468 -1.631,-0.925 -0.508,-0.457 -0.925,-1.128 -1.251,-2.012 -0.326,-0.884 -0.489,-2.059 -0.489,-3.524 l -3.394,1.609 c 0,1.857 0.377,3.597 1.131,5.221 0.754,1.624 1.889,2.937 3.405,3.937 1.515,1 3.426,1.501 5.731,1.501 1.842,0 3.343,-0.312 4.503,-0.935 1.16,-0.624 2.063,-1.414 2.708,-2.371 0.645,-0.957 1.106,-1.954 1.381,-2.991 0.275,-1.037 0.442,-1.983 0.501,-2.838 0.057,-0.857 0.086,-1.48 0.086,-1.871 L 6.003,0 Z m -16.053,0 v 31.323 h 5.264 V 15.227 h 0.74 V 0 Z"
             style="fill:#000000;fill-opacity:1;fill-rule:nonzero;stroke:none"
             id="path52" />
        </g>
        <path
           d="m 189.333,450.58 h 5.917 v -23.492 h -5.917 z m 0,8.483 h 5.917 v -5.221 h -5.917 z"
           style="fill:#000000;fill-opacity:1;fill-rule:nonzero;stroke:none"
           id="path54" />
        <g
           id="g56"
           transform="translate(217.2617,427.0879)">
          <path
             d="m 0,0 v 11.094 c 0,0.536 -0.029,1.221 -0.087,2.055 -0.058,0.833 -0.239,1.671 -0.544,2.512 -0.305,0.841 -0.801,1.545 -1.49,2.11 -0.689,0.566 -1.664,0.849 -2.925,0.849 -0.508,0 -1.052,-0.08 -1.632,-0.239 -0.58,-0.16 -1.124,-0.468 -1.631,-0.925 -0.508,-0.457 -0.925,-1.128 -1.251,-2.012 -0.326,-0.884 -0.489,-2.059 -0.489,-3.524 l -3.394,1.609 c 0,1.857 0.377,3.597 1.131,5.221 0.754,1.624 1.889,2.937 3.405,3.937 1.515,1 3.426,1.501 5.731,1.501 1.842,0 3.343,-0.312 4.503,-0.935 1.16,-0.624 2.063,-1.414 2.708,-2.371 0.645,-0.957 1.106,-1.954 1.381,-2.991 0.275,-1.037 0.442,-1.983 0.501,-2.838 0.057,-0.857 0.086,-1.48 0.086,-1.871 L 6.003,0 Z m -16.053,0 v 23.492 h 5.264 v -7.787 h 0.74 V 0 Z"
             style="fill:#000000;fill-opacity:1;fill-rule:nonzero;stroke:none"
             id="path58" />
        </g>
        <g
           id="g60"
           transform="translate(228.355,427.0879)">
          <path
             d="M 0,0 0.043,31.323 H 6.047 V 12.181 l 7.961,11.311 h 7.309 L 12.833,11.746 21.882,0 h -7.7 L 6.047,11.311 V 0 Z"
             style="fill:#000000;fill-opacity:1;fill-rule:nonzero;stroke:none"
             id="path62" />
        </g>
        <g
           id="g64"
           transform="translate(281.6895,426.4355)">
          <path
             d="m 0,0 c -3.132,0 -5.833,0.682 -8.103,2.045 -2.269,1.362 -4.017,3.269 -5.242,5.721 -1.225,2.45 -1.838,5.299 -1.838,8.547 0,3.249 0.613,6.098 1.838,8.549 1.225,2.45 2.973,4.358 5.242,5.721 2.27,1.363 4.971,2.045 8.103,2.045 3.596,0 6.616,-0.892 9.06,-2.676 2.443,-1.783 4.166,-4.198 5.166,-7.243 L 8.266,21.056 C 7.686,22.955 6.707,24.431 5.33,25.482 3.952,26.533 2.175,27.06 0,27.06 c -1.987,0 -3.643,-0.444 -4.97,-1.328 -1.327,-0.884 -2.324,-2.131 -2.991,-3.741 -0.667,-1.609 -1,-3.502 -1,-5.678 0,-2.174 0.333,-4.067 1,-5.676 C -7.294,9.026 -6.297,7.779 -4.97,6.896 -3.643,6.011 -1.987,5.568 0,5.568 c 2.175,0 3.952,0.53 5.33,1.588 1.377,1.059 2.356,2.531 2.936,4.416 l 5.96,-1.653 C 13.226,6.873 11.503,4.459 9.06,2.675 6.616,0.892 3.596,0 0,0"
             style="fill:#000000;fill-opacity:1;fill-rule:nonzero;stroke:none"
             id="path66" />
        </g>
        <g
           id="g68"
           transform="translate(300.1782,427.0879)">
          <path
             d="M 0,0 V 23.492 H 5.22 V 17.75 l -0.565,0.739 c 0.304,0.812 0.71,1.552 1.218,2.219 0.507,0.667 1.131,1.218 1.871,1.653 0.565,0.348 1.181,0.619 1.848,0.816 0.667,0.195 1.356,0.318 2.067,0.37 0.71,0.05 1.421,0.032 2.132,-0.055 V 17.967 C 13.138,18.17 12.38,18.239 11.518,18.174 10.655,18.108 9.875,17.909 9.179,17.575 8.483,17.257 7.896,16.832 7.417,16.303 6.939,15.773 6.576,15.15 6.33,14.433 6.083,13.715 5.96,12.906 5.96,12.007 V 0 Z"
             style="fill:#000000;fill-opacity:1;fill-rule:nonzero;stroke:none"
             id="path70" />
        </g>
        <path
           d="m 320.277,441.574 h 15.574 v -4.394 h -15.574 z m 7.787,-15.138 c -2.407,0 -4.528,0.518 -6.362,1.554 -1.835,1.037 -3.271,2.466 -4.307,4.285 -1.038,1.821 -1.556,3.906 -1.556,6.254 0,2.567 0.508,4.8 1.523,6.7 1.015,1.9 2.414,3.375 4.198,4.426 1.784,1.052 3.836,1.577 6.156,1.577 2.465,0 4.56,-0.58 6.286,-1.74 1.726,-1.16 3.002,-2.792 3.829,-4.893 0.826,-2.104 1.116,-4.577 0.87,-7.418 h -5.852 v 2.175 c 0,2.393 -0.38,4.115 -1.141,5.166 -0.762,1.051 -2.005,1.577 -3.731,1.577 -2.016,0 -3.499,-0.613 -4.448,-1.838 -0.95,-1.226 -1.425,-3.034 -1.425,-5.427 0,-2.189 0.475,-3.883 1.425,-5.079 0.949,-1.196 2.345,-1.795 4.187,-1.795 1.16,0 2.153,0.254 2.98,0.762 0.826,0.507 1.457,1.24 1.892,2.197 l 5.917,-1.697 c -0.885,-2.147 -2.281,-3.814 -4.188,-5.003 -1.906,-1.189 -3.991,-1.783 -6.253,-1.783"
           style="fill:#000000;fill-opacity:1;fill-rule:nonzero;stroke:none"
           id="path72" />
        <g
           id="g74"
           transform="translate(350.4243,431.0898)">
          <path
             d="m 0,0 c 1.087,0 2.004,0.192 2.751,0.577 0.747,0.384 1.342,0.822 1.784,1.316 0.443,0.493 0.743,0.906 0.903,1.24 0.305,0.638 0.482,1.381 0.533,2.229 0.05,0.849 0.076,1.556 0.076,2.121 L 7.787,7.048 C 6.032,6.758 4.611,6.515 3.524,6.319 2.436,6.124 1.559,5.946 0.892,5.786 0.225,5.627 -0.363,5.453 -0.87,5.265 -1.45,5.032 -1.918,4.782 -2.273,4.514 -2.628,4.245 -2.89,3.952 -3.056,3.633 -3.223,3.313 -3.306,2.959 -3.306,2.567 -3.306,2.03 -3.172,1.57 -2.904,1.186 -2.636,0.802 -2.255,0.508 -1.762,0.305 -1.269,0.102 -0.682,0 0,0 m -1.262,-4.654 c -1.682,0 -3.107,0.322 -4.274,0.967 -1.168,0.646 -2.052,1.508 -2.653,2.589 -0.603,1.08 -0.903,2.273 -0.903,3.578 0,1.087 0.166,2.081 0.5,2.98 0.333,0.899 0.873,1.693 1.62,2.382 0.747,0.688 1.751,1.265 3.013,1.729 0.87,0.319 1.907,0.602 3.111,0.849 1.203,0.246 2.566,0.481 4.089,0.707 1.523,0.225 3.197,0.475 5.025,0.75 L 6.134,10.702 c 0,1.393 -0.334,2.415 -1.001,3.068 -0.667,0.652 -1.783,0.978 -3.349,0.978 -0.87,0 -1.777,-0.21 -2.72,-0.631 -0.942,-0.421 -1.602,-1.167 -1.979,-2.24 l -5.351,1.696 c 0.595,1.944 1.711,3.525 3.35,4.742 1.639,1.218 3.872,1.828 6.7,1.828 2.073,0 3.915,-0.32 5.525,-0.957 1.609,-0.639 2.827,-1.741 3.654,-3.307 0.464,-0.87 0.74,-1.739 0.827,-2.609 0.086,-0.871 0.13,-1.842 0.13,-2.916 V -4.002 H 6.743 V 0.827 L 7.482,-0.174 C 6.337,-1.754 5.101,-2.896 3.774,-3.6 2.447,-4.303 0.769,-4.654 -1.262,-4.654"
             style="fill:#000000;fill-opacity:1;fill-rule:nonzero;stroke:none"
             id="path76" />
        </g>
        <g
           id="g78"
           transform="translate(381.5728,427.0879)">
          <path
             d="m 0,0 c -1.625,-0.305 -3.216,-0.438 -4.774,-0.402 -1.559,0.036 -2.952,0.311 -4.177,0.826 -1.226,0.514 -2.157,1.346 -2.795,2.491 -0.58,1.072 -0.885,2.164 -0.914,3.273 -0.029,1.11 -0.043,2.368 -0.043,3.774 v 20.056 h 5.916 V 10.311 c 0,-0.915 0.011,-1.738 0.033,-2.469 0.022,-0.733 0.17,-1.317 0.446,-1.751 C -5.786,5.264 -4.953,4.814 -3.807,4.742 -2.661,4.669 -1.392,4.728 0,4.916 Z M -16.706,23.492 H 0 v -4.568 h -16.706 z"
             style="fill:#000000;fill-opacity:1;fill-rule:nonzero;stroke:none"
             id="path80" />
        </g>
        <path
           d="m 388.098,441.574 h 15.574 v -4.394 h -15.574 z m 7.787,-15.138 c -2.407,0 -4.528,0.518 -6.362,1.554 -1.835,1.037 -3.271,2.466 -4.307,4.285 -1.037,1.821 -1.555,3.906 -1.555,6.254 0,2.567 0.507,4.8 1.522,6.7 1.015,1.9 2.415,3.375 4.198,4.426 1.784,1.052 3.836,1.577 6.156,1.577 2.465,0 4.561,-0.58 6.286,-1.74 1.726,-1.16 3.002,-2.792 3.829,-4.893 0.827,-2.104 1.116,-4.577 0.87,-7.418 h -5.852 v 2.175 c 0,2.393 -0.38,4.115 -1.141,5.166 -0.762,1.051 -2.005,1.577 -3.731,1.577 -2.016,0 -3.499,-0.613 -4.448,-1.838 -0.95,-1.226 -1.425,-3.034 -1.425,-5.427 0,-2.189 0.475,-3.883 1.425,-5.079 0.949,-1.196 2.345,-1.795 4.187,-1.795 1.16,0 2.153,0.254 2.98,0.762 0.827,0.507 1.458,1.24 1.893,2.197 l 5.916,-1.697 c -0.885,-2.147 -2.281,-3.814 -4.187,-5.003 -1.907,-1.189 -3.992,-1.783 -6.254,-1.783"
           style="fill:#000000;fill-opacity:1;fill-rule:nonzero;stroke:none"
           id="path82" />
        <g
           id="g84"
           transform="translate(440.6929,426.4355)">
          <path
             d="m 0,0 c -3.132,0 -5.833,0.682 -8.103,2.045 -2.269,1.362 -4.017,3.269 -5.242,5.721 -1.225,2.45 -1.838,5.299 -1.838,8.547 0,3.249 0.613,6.098 1.838,8.549 1.225,2.45 2.973,4.358 5.242,5.721 2.27,1.363 4.971,2.045 8.103,2.045 3.596,0 6.616,-0.892 9.06,-2.676 2.443,-1.783 4.166,-4.198 5.166,-7.243 L 8.266,21.056 C 7.686,22.955 6.707,24.431 5.33,25.482 3.952,26.533 2.175,27.06 0,27.06 c -1.987,0 -3.643,-0.444 -4.97,-1.328 -1.327,-0.884 -2.324,-2.131 -2.991,-3.741 -0.667,-1.609 -1,-3.502 -1,-5.678 0,-2.174 0.333,-4.067 1,-5.676 C -7.294,9.026 -6.297,7.779 -4.97,6.896 -3.643,6.011 -1.987,5.568 0,5.568 c 2.175,0 3.952,0.53 5.33,1.588 1.377,1.059 2.356,2.531 2.936,4.416 l 5.96,-1.653 C 13.226,6.873 11.503,4.459 9.06,2.675 6.616,0.892 3.596,0 0,0"
             style="fill:#000000;fill-opacity:1;fill-rule:nonzero;stroke:none"
             id="path86" />
        </g>
        <g
           id="g88"
           transform="translate(469.7529,431.96)">
          <path
             d="m 0,0 c 1.899,0 3.317,0.642 4.252,1.926 0.936,1.283 1.403,2.932 1.403,4.948 0,2.088 -0.475,3.756 -1.424,5.003 -0.95,1.247 -2.36,1.871 -4.231,1.871 -1.291,0 -2.349,-0.291 -3.176,-0.87 C -4.002,12.297 -4.615,11.492 -5.014,10.463 -5.413,9.434 -5.612,8.237 -5.612,6.874 -5.612,4.771 -5.137,3.1 -4.187,1.86 -3.238,0.62 -1.842,0 0,0 m 0,-5.524 c -2.364,0 -4.437,0.529 -6.221,1.587 -1.784,1.059 -3.173,2.52 -4.166,4.383 -0.993,1.864 -1.489,4.006 -1.489,6.428 0,2.45 0.507,4.607 1.522,6.471 1.015,1.863 2.415,3.317 4.198,4.361 1.784,1.045 3.836,1.566 6.156,1.566 2.363,0 4.441,-0.529 6.232,-1.587 1.791,-1.059 3.186,-2.52 4.187,-4.383 C 11.42,11.438 11.92,9.296 11.92,6.874 11.92,4.437 11.416,2.288 10.408,0.425 9.4,-1.439 8.001,-2.896 6.21,-3.947 4.419,-4.999 2.349,-5.524 0,-5.524"
             style="fill:#000000;fill-opacity:1;fill-rule:nonzero;stroke:none"
             id="path90" />
        </g>
        <g
           id="g92"
           transform="translate(501.8154,427.0879)">
          <path
             d="M 0,0 V 16.097 H -0.74 V 31.323 H 5.22 V 0 Z m -5.395,4.611 c 1.32,0 2.375,0.297 3.166,0.892 0.79,0.595 1.359,1.429 1.707,2.502 C -0.174,9.078 0,10.324 0,11.746 c 0,1.421 -0.174,2.668 -0.522,3.741 -0.348,1.074 -0.903,1.908 -1.664,2.502 -0.762,0.594 -1.759,0.892 -2.991,0.892 -1.32,0 -2.404,-0.323 -3.252,-0.968 -0.848,-0.645 -1.476,-1.509 -1.882,-2.589 -0.406,-1.08 -0.608,-2.273 -0.608,-3.578 0,-1.319 0.195,-2.519 0.586,-3.6 0.392,-1.081 0.994,-1.94 1.806,-2.578 0.812,-0.637 1.856,-0.957 3.132,-0.957 m -0.957,-5.263 c -2.161,0 -4.053,0.544 -5.677,1.631 -1.624,1.087 -2.889,2.567 -3.796,4.437 -0.906,1.871 -1.359,3.98 -1.359,6.33 0,2.393 0.46,4.521 1.381,6.384 0.921,1.863 2.215,3.332 3.883,4.405 1.667,1.073 3.625,1.61 5.873,1.61 2.233,0 4.111,-0.544 5.633,-1.631 C 1.109,21.426 2.262,19.946 3.045,18.076 3.828,16.205 4.22,14.096 4.22,11.746 4.22,9.396 3.825,7.287 3.034,5.416 2.244,3.546 1.066,2.066 -0.5,0.979 -2.066,-0.108 -4.017,-0.652 -6.352,-0.652"
             style="fill:#000000;fill-opacity:1;fill-rule:nonzero;stroke:none"
             id="path94" />
        </g>
        <path
           d="m 515.737,441.574 h 15.574 v -4.394 h -15.574 z m 7.787,-15.138 c -2.407,0 -4.528,0.518 -6.362,1.554 -1.835,1.037 -3.271,2.466 -4.308,4.285 -1.037,1.821 -1.555,3.906 -1.555,6.254 0,2.567 0.508,4.8 1.523,6.7 1.015,1.9 2.414,3.375 4.198,4.426 1.784,1.052 3.835,1.577 6.156,1.577 2.465,0 4.56,-0.58 6.286,-1.74 1.725,-1.16 3.002,-2.792 3.829,-4.893 0.826,-2.104 1.116,-4.577 0.87,-7.418 h -5.852 v 2.175 c 0,2.393 -0.38,4.115 -1.142,5.166 -0.761,1.051 -2.004,1.577 -3.73,1.577 -2.016,0 -3.499,-0.613 -4.448,-1.838 -0.95,-1.226 -1.425,-3.034 -1.425,-5.427 0,-2.189 0.475,-3.883 1.425,-5.079 0.949,-1.196 2.345,-1.795 4.187,-1.795 1.16,0 2.153,0.254 2.98,0.762 0.826,0.507 1.457,1.24 1.892,2.197 l 5.917,-1.697 c -0.885,-2.147 -2.281,-3.814 -4.188,-5.003 -1.906,-1.189 -3.991,-1.783 -6.253,-1.783"
           style="fill:#000000;fill-opacity:1;fill-rule:nonzero;stroke:none"
           id="path96" />
        <g
           id="g98"
           transform="translate(560.8926,432.6562)">
          <path
             d="m 0,0 h 4.132 c 0.393,0 0.922,0.011 1.588,0.033 0.668,0.022 1.27,0.083 1.807,0.185 1.361,0.275 2.474,0.913 3.338,1.914 0.863,1.001 1.502,2.204 1.914,3.61 0.414,1.407 0.621,2.858 0.621,4.351 0,1.566 -0.215,3.053 -0.643,4.459 -0.427,1.407 -1.076,2.595 -1.947,3.567 -0.869,0.972 -1.965,1.588 -3.283,1.85 -0.537,0.115 -1.139,0.18 -1.807,0.195 -0.666,0.015 -1.195,0.022 -1.588,0.022 H 0 Z M -6.003,-5.568 V 25.755 H 4.132 c 0.246,0 0.754,-0.008 1.524,-0.023 0.767,-0.014 1.508,-0.065 2.219,-0.152 2.523,-0.304 4.662,-1.182 6.416,-2.632 1.755,-1.45 3.089,-3.292 4.001,-5.524 0.915,-2.234 1.372,-4.677 1.372,-7.331 0,-2.654 -0.457,-5.098 -1.372,-7.33 C 17.38,0.529 16.046,-1.312 14.291,-2.763 12.537,-4.213 10.398,-5.09 7.875,-5.395 7.164,-5.481 6.423,-5.532 5.656,-5.547 4.886,-5.562 4.378,-5.568 4.132,-5.568 Z"
             style="fill:#000000;fill-opacity:1;fill-rule:nonzero;stroke:none"
             id="path100" />
        </g>
        <g
           id="g102"
           transform="translate(585.2544,427.0879)">
          <path
             d="M 0,0 V 23.492 H 5.221 V 17.75 l -0.566,0.739 c 0.305,0.812 0.71,1.552 1.218,2.219 0.508,0.667 1.132,1.218 1.871,1.653 0.566,0.348 1.182,0.619 1.849,0.816 0.667,0.195 1.355,0.318 2.066,0.37 0.711,0.05 1.421,0.032 2.132,-0.055 v -5.525 c -0.652,0.203 -1.41,0.272 -2.273,0.207 C 10.655,18.108 9.876,17.909 9.18,17.575 8.483,17.257 7.896,16.832 7.418,16.303 6.939,15.773 6.576,15.15 6.33,14.433 6.083,13.715 5.96,12.906 5.96,12.007 V 0 Z"
             style="fill:#000000;fill-opacity:1;fill-rule:nonzero;stroke:none"
             id="path104" />
        </g>
        <path
           d="m 605.353,441.574 h 15.574 v -4.394 h -15.574 z m 7.787,-15.138 c -2.407,0 -4.528,0.518 -6.362,1.554 -1.835,1.037 -3.271,2.466 -4.307,4.285 -1.037,1.821 -1.555,3.906 -1.555,6.254 0,2.567 0.507,4.8 1.522,6.7 1.015,1.9 2.415,3.375 4.198,4.426 1.783,1.052 3.836,1.577 6.156,1.577 2.465,0 4.56,-0.58 6.287,-1.74 1.725,-1.16 3.002,-2.792 3.828,-4.893 0.826,-2.104 1.116,-4.577 0.87,-7.418 h -5.852 v 2.175 c 0,2.393 -0.381,4.115 -1.141,5.166 -0.762,1.051 -2.005,1.577 -3.731,1.577 -2.015,0 -3.499,-0.613 -4.448,-1.838 -0.95,-1.226 -1.425,-3.034 -1.425,-5.427 0,-2.189 0.475,-3.883 1.425,-5.079 0.949,-1.196 2.346,-1.795 4.187,-1.795 1.16,0 2.154,0.254 2.98,0.762 0.826,0.507 1.457,1.24 1.893,2.197 l 5.916,-1.697 c -0.885,-2.147 -2.281,-3.814 -4.187,-5.003 -1.907,-1.189 -3.992,-1.783 -6.254,-1.783"
           style="fill:#000000;fill-opacity:1;fill-rule:nonzero;stroke:none"
           id="path106" />
        <g
           id="g108"
           transform="translate(635.5005,431.0898)">
          <path
             d="m 0,0 c 1.088,0 2.005,0.192 2.752,0.577 0.747,0.384 1.341,0.822 1.784,1.316 0.442,0.493 0.742,0.906 0.902,1.24 0.305,0.638 0.482,1.381 0.534,2.229 0.05,0.849 0.076,1.556 0.076,2.121 L 7.788,7.048 C 6.033,6.758 4.612,6.515 3.524,6.319 2.437,6.124 1.56,5.946 0.893,5.786 0.225,5.627 -0.362,5.453 -0.87,5.265 -1.45,5.032 -1.917,4.782 -2.272,4.514 -2.628,4.245 -2.89,3.952 -3.056,3.633 -3.223,3.313 -3.306,2.959 -3.306,2.567 -3.306,2.03 -3.172,1.57 -2.903,1.186 -2.636,0.802 -2.255,0.508 -1.762,0.305 -1.269,0.102 -0.682,0 0,0 m -1.261,-4.654 c -1.682,0 -3.107,0.322 -4.274,0.967 -1.168,0.646 -2.053,1.508 -2.654,2.589 -0.602,1.08 -0.903,2.273 -0.903,3.578 0,1.087 0.166,2.081 0.5,2.98 0.334,0.899 0.874,1.693 1.621,2.382 0.746,0.688 1.751,1.265 3.013,1.729 0.87,0.319 1.906,0.602 3.11,0.849 1.203,0.246 2.567,0.481 4.089,0.707 1.523,0.225 3.198,0.475 5.026,0.75 L 6.135,10.702 c 0,1.393 -0.334,2.415 -1.001,3.068 -0.667,0.652 -1.783,0.978 -3.35,0.978 -0.87,0 -1.776,-0.21 -2.719,-0.631 -0.943,-0.421 -1.602,-1.167 -1.979,-2.24 l -5.352,1.696 c 0.595,1.944 1.711,3.525 3.351,4.742 1.638,1.218 3.871,1.828 6.699,1.828 2.073,0 3.915,-0.32 5.526,-0.957 1.609,-0.639 2.827,-1.741 3.654,-3.307 0.464,-0.87 0.739,-1.739 0.826,-2.609 0.087,-0.871 0.131,-1.842 0.131,-2.916 V -4.002 H 6.743 v 4.829 l 0.74,-1.001 C 6.337,-1.754 5.102,-2.896 3.774,-3.6 2.447,-4.303 0.769,-4.654 -1.261,-4.654"
             style="fill:#000000;fill-opacity:1;fill-rule:nonzero;stroke:none"
             id="path110" />
        </g>
        <g
           id="g112"
           transform="translate(680.8315,427.0879)">
          <path
             d="m 0,0 v 13.878 c 0,1.552 -0.367,2.759 -1.099,3.621 -0.732,0.863 -1.744,1.295 -3.035,1.295 -0.826,0 -1.544,-0.192 -2.153,-0.577 -0.609,-0.384 -1.084,-0.921 -1.425,-1.61 -0.341,-0.688 -0.511,-1.482 -0.511,-2.381 l -2.479,1.653 c 0,1.609 0.381,3.03 1.141,4.264 0.762,1.232 1.785,2.193 3.068,2.881 1.283,0.689 2.708,1.034 4.274,1.034 2.683,0 4.709,-0.794 6.079,-2.382 1.37,-1.588 2.056,-3.665 2.056,-6.232 L 5.916,0 Z m -14.14,0 v 13.878 c 0,1.552 -0.366,2.759 -1.097,3.621 -0.733,0.863 -1.744,1.295 -3.035,1.295 -1.233,0 -2.222,-0.425 -2.969,-1.273 -0.747,-0.848 -1.12,-1.947 -1.12,-3.295 l -2.48,1.74 c 0,1.537 0.384,2.915 1.153,4.133 0.768,1.218 1.801,2.182 3.099,2.893 1.298,0.71 2.752,1.066 4.361,1.066 1.842,0 3.354,-0.392 4.536,-1.175 1.181,-0.783 2.055,-1.827 2.621,-3.132 0.565,-1.306 0.848,-2.741 0.848,-4.307 V 0 Z m -14.181,0 v 23.492 h 5.22 v -7.787 h 0.74 V 0 Z"
             style="fill:#000000;fill-opacity:1;fill-rule:nonzero;stroke:none"
             id="path114" />
        </g>
      </g>
    </g>
  </g>
</svg>
