<?xml version="1.0" standalone="no"?>
<!DOCTYPE svg PUBLIC "-//W3C//DTD SVG 20010904//EN"
 "http://www.w3.org/TR/2001/REC-SVG-20010904/DTD/svg10.dtd">
<svg version="1.0" xmlns="http://www.w3.org/2000/svg"
 width="2054.000000pt" height="550.000000pt" viewBox="0 0 2054.000000 550.000000"
 preserveAspectRatio="xMidYMid meet">

<g transform="translate(0.000000,550.000000) scale(0.100000,-0.100000)"
fill="#000000" stroke="none">
<path d="M0 2790 l0 -2710 475 0 475 0 0 273 1 272 37 -45 c227 -277 513 -460
854 -546 139 -35 442 -45 615 -20 492 72 928 348 1204 762 30 44 63 96 73 116
l20 36 -409 416 c-225 229 -411 416 -415 416 -4 0 -12 -29 -18 -64 -29 -157
-120 -358 -215 -476 -112 -138 -280 -246 -452 -291 -125 -32 -322 -37 -452
-10 -403 83 -668 393 -737 864 -31 207 -16 491 35 677 24 86 102 256 150 327
47 70 154 178 226 229 278 200 681 217 991 42 104 -58 250 -204 314 -314 60
-103 102 -207 130 -325 12 -52 24 -96 25 -99 5 -5 257 246 585 583 l260 267
-55 93 c-229 384 -582 653 -998 761 -287 74 -641 76 -897 5 -284 -79 -552
-259 -750 -504 l-32 -40 0 1008 0 1007 -520 0 -520 0 0 -2710z"/>
<path d="M8578 4065 c-621 -85 -1145 -397 -1450 -864 l-49 -75 403 -403 c221
-221 404 -400 407 -397 3 2 15 41 28 87 49 172 139 325 262 447 197 195 444
293 771 307 235 10 455 -25 708 -112 123 -42 367 -147 387 -166 5 -5 13 -9 17
-9 5 0 7 217 6 482 l-3 483 -103 37 c-249 92 -504 153 -757 183 -159 18 -491
18 -627 0z"/>
<path d="M12326 4069 c-206 -27 -459 -101 -641 -188 -400 -191 -711 -501 -904
-901 -140 -290 -204 -580 -205 -935 0 -276 29 -467 109 -712 208 -634 714
-1101 1378 -1273 173 -44 312 -60 532 -60 355 0 636 62 930 206 575 280 951
791 1066 1449 27 153 36 456 20 616 -39 379 -162 713 -368 1002 -68 96 -239
276 -338 357 -285 233 -664 391 -1055 440 -100 12 -425 11 -524 -1z m514 -929
c388 -100 656 -428 720 -880 17 -116 14 -363 -5 -477 -73 -429 -317 -725 -692
-840 -81 -24 -103 -27 -263 -27 -192 -1 -258 11 -395 73 -186 85 -355 251
-452 446 -136 270 -170 648 -88 975 99 397 377 675 743 745 111 21 322 14 432
-15z"/>
<path d="M17106 4064 c-264 -52 -493 -200 -667 -429 -20 -27 -63 -90 -93 -139
l-56 -89 0 296 0 297 -480 0 -480 0 0 -1960 0 -1960 520 0 520 0 0 1265 c0
1424 -4 1350 74 1510 58 119 129 191 243 247 79 39 89 42 191 46 61 2 131 -1
163 -7 136 -28 260 -120 322 -239 77 -146 71 -33 75 -1505 l3 -1317 499 0 500
0 0 1273 c0 1416 -3 1346 69 1492 97 198 270 305 491 305 209 0 353 -87 435
-263 67 -143 65 -87 65 -1517 l0 -1290 520 0 520 0 0 1420 c0 1226 -2 1434
-15 1530 -43 307 -142 539 -304 712 -168 180 -347 275 -607 324 -69 12 -126
15 -249 11 -174 -5 -254 -21 -397 -78 -231 -93 -466 -309 -599 -553 l-27 -48
-50 100 c-72 145 -123 215 -226 317 -140 137 -292 214 -500 250 -110 19 -363
19 -460 -1z"/>
<path d="M7472 1352 l-414 -407 64 -92 c142 -206 299 -362 503 -498 270 -181
623 -305 983 -346 162 -18 587 -7 741 20 240 42 471 110 654 194 l77 36 0 445
c0 262 -4 446 -9 446 -5 0 -47 -16 -93 -36 -200 -87 -395 -146 -593 -181 -147
-25 -528 -25 -643 0 -159 35 -300 95 -427 180 -78 53 -200 175 -254 256 -56
82 -125 229 -147 311 -10 36 -20 68 -23 72 -3 4 -192 -176 -419 -400z"/>
</g>
</svg>
