<?xml version="1.0" encoding="UTF-8" standalone="no"?>
<!DOCTYPE svg PUBLIC "-//W3C//DTD SVG 1.1//EN" "http://www.w3.org/Graphics/SVG/1.1/DTD/svg11.dtd">
<svg width="100%" height="100%" viewBox="0 0 200 200" version="1.1" xmlns="http://www.w3.org/2000/svg" xmlns:xlink="http://www.w3.org/1999/xlink" xml:space="preserve" xmlns:serif="http://www.serif.com/" style="fill-rule:evenodd;clip-rule:evenodd;stroke-linecap:round;stroke-linejoin:round;stroke-miterlimit:1.5;">
    <g transform="matrix(1.05713,0,0,1.07365,-5.25572,-5.83649)">
        <rect x="4.972" y="5.436" width="189.192" height="186.28" style="stroke:black;stroke-width:0.94px;"/>
    </g>
    <circle cx="100" cy="100" r="100" style="fill:none;"/>
    <path d="M130.36,131.15C127.808,140.765 122.72,149.521 115.63,156.5C111.571,155.605 107.675,154.087 104.08,152C102.51,151.104 101.003,150.102 99.57,149C109.954,141.53 116.123,129.492 116.123,116.7C116.123,104.314 110.34,92.613 100.5,85.09C104.442,82.234 108.876,80.125 113.58,78.87C114.66,78.58 115.76,78.35 116.85,78.15C119.887,81.338 122.539,84.872 124.75,88.68C132.217,101.513 134.238,116.818 130.36,131.15ZM96,166C91.279,163.275 86.983,159.872 83.25,155.9C66.705,158.871 49.971,151.131 41.52,136.6C38.035,130.548 36.201,123.685 36.201,116.701C36.201,94.824 54.203,76.821 76.081,76.821C78.863,76.821 81.638,77.112 84.36,77.69C89.091,72.949 94.645,69.106 100.75,66.35C83.998,58.19 64.242,58.869 48.09,68.16C30.573,78.092 19.711,96.737 19.711,116.875C19.711,147.595 44.99,172.875 75.711,172.875C83.822,172.875 91.837,171.112 99.2,167.71C98.11,167.18 97,166.6 96,166ZM75.41,89.36C73.218,93.177 71.483,97.238 70.24,101.46C70.96,102.31 71.7,103.14 72.5,103.94C75.939,107.381 79.979,110.164 84.42,112.15C86.99,92.416 103.986,77.49 123.887,77.49C129.521,77.49 135.092,78.686 140.23,81C141.068,75.075 140.552,69.037 138.72,63.34C114.238,56.624 88.106,67.356 75.41,89.34L75.41,89.36ZM156.76,75.6C156.758,81.044 155.96,86.458 154.39,91.67C165.237,104.517 166.901,122.883 158.54,137.47C151.442,149.778 138.271,157.386 124.063,157.386C117.041,157.386 110.142,155.528 104.07,152C95.54,147.075 89.125,139.164 86.07,129.8C79.604,128.072 73.505,125.186 68.07,121.28C69.382,139.88 79.861,156.66 96,166C104.527,170.944 114.21,173.549 124.066,173.549C144.044,173.549 162.563,162.848 172.54,145.54C186.8,120.703 179.893,88.734 156.65,72C156.72,73.17 156.76,74.38 156.76,75.6ZM100.68,131.73C105.083,131.727 109.47,131.204 113.75,130.17C114.13,129.17 114.48,128.06 114.75,126.97C116.009,122.27 116.399,117.38 115.9,112.54C111.062,114.529 105.881,115.548 100.65,115.54C80.318,115.564 63.068,100.007 61,79.78C55.467,82.034 50.512,85.503 46.5,89.93C52.914,114.496 75.29,131.759 100.68,131.73ZM48.09,68.17C52.809,65.448 57.899,63.427 63.2,62.17C68.9,46.356 83.97,35.733 100.78,35.68C122.642,35.702 140.619,53.698 140.619,75.56C140.619,85.41 136.97,94.919 130.38,102.24C132.124,108.71 132.673,115.443 132,122.11C147.441,111.682 156.731,94.233 156.76,75.6C156.761,75.482 156.761,75.365 156.761,75.247C156.761,44.526 131.482,19.247 100.761,19.247C71.985,19.247 47.655,41.427 45,70.08C46,69.42 47,68.77 48.09,68.17Z" style="fill-rule:nonzero;"/>
    <path d="M112.53,155.69C109.583,154.791 106.748,153.56 104.08,152.02C103.32,151.58 102.58,151.11 101.87,150.63C112.538,142.61 118.827,130.014 118.827,116.667C118.827,103.763 112.949,91.538 102.87,83.48C106.201,81.42 109.816,79.86 113.6,78.85L113.79,78.85C123.917,88.836 129.625,102.48 129.625,116.703C129.625,131.52 123.431,145.682 112.55,155.74L112.53,155.69ZM96,166C92.216,163.812 88.702,161.188 85.53,158.18C75.077,160.549 64.106,158.892 54.82,153.54C41.639,145.965 33.485,131.876 33.485,116.674C33.485,109.205 35.453,101.867 39.19,95.4C48.771,78.93 68.256,70.756 86.72,75.46C90.045,72.5 93.715,69.952 97.65,67.87C72.84,57.006 43.497,66.588 29.88,90C25.191,98.105 22.721,107.306 22.721,116.67C22.721,135.707 32.928,153.35 49.43,162.84C57.518,167.528 66.702,169.998 76.05,170C82.94,169.998 89.766,168.678 96.16,166.11L96,166ZM123.93,64C99.781,63.99 78.499,80.394 72.36,103.75L72.5,103.9C75.262,106.681 78.419,109.04 81.87,110.9C85.014,90.225 102.974,74.79 123.887,74.79C129.603,74.79 135.26,75.943 140.52,78.18C140.58,77.32 140.62,76.45 140.62,75.57C140.621,72.49 140.268,69.42 139.57,66.42C134.506,64.838 129.235,64.023 123.93,64ZM156.76,75.6C156.756,79.979 156.239,84.342 155.22,88.6C162.504,96.466 166.556,106.799 166.56,117.52C166.56,117.543 166.56,117.567 166.56,117.59C166.56,140.899 147.379,160.08 124.07,160.08C124.047,160.08 124.023,160.08 124,160.08C104.959,160.003 88.155,147.22 83,128.89C78.785,127.494 74.755,125.59 71,123.22C74.001,150.117 96.936,170.729 124,170.85C124.013,170.85 124.027,170.85 124.04,170.85C153.258,170.85 177.3,146.808 177.3,117.59C177.3,117.557 177.3,117.523 177.3,117.49C177.3,108.145 174.841,98.963 170.17,90.87C166.724,84.908 162.172,79.658 156.76,75.4L156.76,75.6ZM54.5,102.38C66.558,123.307 91.414,133.537 114.71,127.16L114.77,126.97C115.786,123.19 116.241,119.282 116.12,115.37C111.187,117.3 105.936,118.291 100.638,118.291C79.262,118.291 61.045,102.159 58.46,80.94C57.68,81.32 56.91,81.72 56.15,82.16C53.479,83.698 50.993,85.537 48.74,87.64C49.915,92.813 51.856,97.781 54.5,102.38ZM48.09,68.17C51.877,65.992 55.904,64.26 60.09,63.01C63.267,52.768 70.194,44.093 79.48,38.73C85.957,34.974 93.313,32.996 100.8,32.996C115.975,32.996 130.041,41.123 137.62,54.27C147.099,70.803 144.438,91.769 131.13,105.41C132.03,109.77 132.402,114.222 132.24,118.67C154.071,102.624 160.463,72.412 147,48.9C137.51,32.408 119.874,22.21 100.846,22.21C91.448,22.21 82.216,24.698 74.09,29.42C65.994,34.091 59.271,40.814 54.6,48.91C51.157,54.876 48.892,61.449 47.93,68.27L48.09,68.17Z" style="fill:white;fill-rule:nonzero;"/>
</svg>
