<svg width="880" height="160" viewBox="0 0 880 160" fill="none" xmlns="http://www.w3.org/2000/svg">
<path fill-rule="evenodd" clip-rule="evenodd" d="M770.745 29.0599L786.805 13H860.751V45.1198H802.865V70.7832L836.082 114.753H870.426V146.873H820.092L778.81 92.2275H756.24V146.548H724.12V13.4165H756.24V60.1076H770.745V29.0599ZM180.745 13.3606L180.745 146.551H212.865L212.865 109.093L245.346 141.573L256.702 146.276H339.17V114.157H263.354L240.375 91.1782L319.642 99.735L337.425 83.7808L337.469 29.9905L321.473 13.9177L180.745 13.3606ZM305.32 65.8825L212.865 55.902V45.6078L305.336 45.9739L305.32 65.8825ZM502.625 13.4239H371.46V45.5437H486.565V60.0299L378.98 60.5777L363.002 76.6374V130.707L380.841 146.668L486.565 134.882V147H518.685V29.4838L502.625 13.4239ZM395.122 92.6158L486.565 92.1501V102.563L395.122 112.757V92.6158ZM660.974 46.3029H578.271V56.5067L688.774 75.2499L702.149 91.0837V130.215L686.089 146.275L553.745 146.275L537.93 127.419L543.861 93.8681L575.49 99.4593L572.893 114.155L670.029 114.155V104.649L559.525 85.9057L546.151 70.0719V30.243L562.211 14.1831L679.871 14.1831L695.721 32.8326L690.469 64.9739L658.77 59.7946L660.974 46.3029Z" fill="black"/>
<path d="M49 147H9V33L29 13L148.5 13.5V53.5L81.1295 53.222L151.5 117L124.5 147L49 78.5V147Z" fill="#0000FF"/>
</svg>
