<svg id="Layer_1" data-name="Layer 1" xmlns="http://www.w3.org/2000/svg" viewBox="0 0 700 700"><defs><style>.cls-1{fill:red;}</style></defs><path class="cls-1" d="M201.53,365.93A15.93,15.93,0,1,0,185.48,350a15.92,15.92,0,0,0,16.05,15.93"/><path class="cls-1" d="M183.1,365.93a15.93,15.93,0,1,1,0-31.86"/><path class="cls-1" d="M220.28,383.85V368.71h15.26a15.34,15.34,0,0,1-15.26,15.14"/><path class="cls-1" d="M183.1,316.55v15.13H167.84a15.08,15.08,0,0,1,15.26-15.13"/><path class="cls-1" d="M220.28,316.55v15.13h15.26a15.08,15.08,0,0,0-15.26-15.13"/><path class="cls-1" d="M183.1,383.85V368.71H167.84a15.08,15.08,0,0,0,15.26,15.14"/><path class="cls-1" d="M238.67,363.94V336.06c4.7,3.18,7.82,8,7.82,13.94a16.11,16.11,0,0,1-7.82,13.94"/><path class="cls-1" d="M187.64,313h27.78a16.87,16.87,0,0,0-14.08-8,15.73,15.73,0,0,0-13.7,8"/><path class="cls-1" d="M215.43,387H187.64a16.11,16.11,0,0,0,27.79,0"/><path class="cls-1" d="M217.58,368.71a16,16,0,0,1-32.09,0"/><path class="cls-1" d="M220.28,365.93a15.93,15.93,0,1,0,0-31.86"/><path class="cls-1" d="M217.58,331.68a16,16,0,1,0-32.09,0"/><path class="cls-1" d="M164.71,363.94V336.06c-5.1,3.18-8.22,8-8.22,13.94a15.67,15.67,0,0,0,8.22,13.94"/><path d="M287.58,346.48h2.74c4.3,0,9.78-.39,9.78-5.87s-5.09-5.87-9.78-5.87h-2.74m-9.39-7.05H288c9.78,0,21.52-.39,21.52,12.14,0,5.08-3.52,9.39-9.39,10.17,2.34.39,3.91,2.74,4.7,4.7l7,17.21h-9.78l-5.48-13.69c-1.17-3.52-2.34-4.69-6.26-4.69h-2.74v18.38h-9.38V327.69Z"/><path d="M329.45,366.43a7.65,7.65,0,0,0,5.87-2.73c1.57-2,1.95-4.31,1.95-7.05h-3.52c-4.31,0-9.78.79-9.78,5.87,0,2.75,2.35,3.91,5.48,3.91M319.28,341a29.57,29.57,0,0,1,11.35-2.34c10.17,0,14.48,3.91,14.48,13.69v12.14c0,2.74.39,5.09.39,7.43h-7.44a23.09,23.09,0,0,1-.38-4.69c-2,3.52-6.66,5.47-10.57,5.47-5.87,0-11.74-3.52-11.74-9.78a10.25,10.25,0,0,1,5.86-9.39A36,36,0,0,1,332.58,352h4.7c0-5.47-2.34-7-7.43-7a15.32,15.32,0,0,0-10.18,3.52Z"/><path d="M367.81,366c5.86,0,7.43-5.87,7.43-10.56,0-4.31-1.95-10.18-7.83-10.18-5.47,0-7,5.87-7,10.18S361.94,366,367.81,366m7.82,2.35a12.77,12.77,0,0,1-10.17,4.31c-10.18,0-13.7-8.22-13.7-17.22s3.52-16.82,13.7-16.82a12.15,12.15,0,0,1,9.78,4.31h.39V324.18h8.22v47.73h-8.22v-3.52Z"/><path d="M393.24,325.35h8.61v7.83h-8.61Zm0,14.09h8.61v32.47h-8.61Z"/><path d="M426.11,366c6.66,0,8.22-5.87,8.22-11.35,0-4.69-2.74-9.39-8.22-9.39s-8.22,4.7-8.22,9.39c0,5.48,1.57,11.35,8.22,11.35m0-27.39c9.78,0,17.61,6.65,17.61,17.22,0,9.39-6.65,16.82-17.61,16.82s-17.21-7.43-17.21-16.82C408.9,345.3,416.33,338.65,426.11,338.65Z"/><rect x="448.02" y="351.57" width="16.83" height="6.66"/><path d="M505.55,371.13A49.57,49.57,0,0,1,495,372.7c-14.48,0-24.65-7-24.65-21.92,0-15.26,9.39-23.86,24.65-23.86a23.68,23.68,0,0,1,10.18,1.95l-.79,7.43A16.83,16.83,0,0,0,495,334c-9.39,0-15.26,7-15.26,16s5.47,15.66,15.26,15.66a26.29,26.29,0,0,0,10.18-2"/><path d="M522.77,366.43a7,7,0,0,0,5.86-2.73c1.57-2,2-4.31,2-7.05h-3.51c-3.92,0-9.78.79-9.78,5.87,0,2.75,2.34,3.91,5.48,3.91M512.59,341a30.05,30.05,0,0,1,11.75-2.34c9.78,0,14.08,3.91,14.08,13.69v12.14c0,2.74.4,5.09.4,7.43h-7.44a22.52,22.52,0,0,1-.39-4.69c-2,3.52-6.26,5.47-10.57,5.47-5.86,0-11.35-3.52-11.35-9.78a10,10,0,0,1,5.48-9.39A37.55,37.55,0,0,1,525.89,352h4.7c0-5.47-2.34-7-7.43-7A15.29,15.29,0,0,0,513,348.44Z"/><path d="M547,339.44h8.22v4.3c2.73-3.52,6.26-5.09,11-5.09,7.82,0,11.34,5.48,11.34,12.91v20.35H569V354.3c0-3.53-.4-9-5.88-9-5.87,0-7.43,6.66-7.43,10.57v16H547"/><path d="M597.9,366.43a7.07,7.07,0,0,0,5.87-2.73c1.57-2,2-4.31,2-7.05H602.2c-3.91,0-9.78.79-9.78,5.87,0,2.75,2.35,3.91,5.48,3.91M587.73,341a30,30,0,0,1,11.74-2.34c10.17,0,14.09,3.91,14.09,13.69v3.92c0,3.52.39,5.86.39,8.22a45,45,0,0,0,.39,7.43h-7.82a22,22,0,0,1-.4-4.69c-2,3.52-6.26,5.47-10.17,5.47-6.26,0-11.74-3.52-11.74-9.78a9.94,9.94,0,0,1,5.47-9.39A37.65,37.65,0,0,1,601,352h4.7c0-5.47-2.35-7-7.43-7a16.87,16.87,0,0,0-10.18,3.52Z"/><path d="M636.25,366c5.87,0,7.83-5.87,7.83-10.56,0-4.31-2.34-10.18-7.83-10.18s-7,5.87-7,10.18,1.57,10.56,7,10.56m8.22,2.35h-.39a12.77,12.77,0,0,1-10.17,4.31c-10.18,0-14.09-8.22-14.09-17.22s3.91-16.82,14.09-16.82A13.57,13.57,0,0,1,644.08,343V324.18h8.61v47.73h-8.22Z"/><path d="M673,366.43a7.89,7.89,0,0,0,6.26-2.73c1.57-2,2-4.31,2-7.05h-3.91c-3.92,0-9.78.79-9.78,5.87,0,2.75,2.34,3.91,5.48,3.91M663.25,341a26.86,26.86,0,0,1,11.35-2.34c10.17,0,14.09,3.91,14.09,13.69v3.92c0,3.52.39,5.86.39,8.22a45,45,0,0,0,.39,7.43h-7.83v-4.69h-.39c-2,3.52-6.26,5.47-10.17,5.47-5.87,0-11.75-3.52-11.75-9.78a9.64,9.64,0,0,1,5.87-9.39,33.62,33.62,0,0,1,11-1.57h5.09c0-5.47-2.35-7-7.83-7a16.87,16.87,0,0,0-10.17,3.52V341Z"/><path d="M45.36,371.53a48.07,48.07,0,0,1-10.18,1.17c-14.87,0-24.65-7-24.65-21.92,0-15.26,9-23.86,24.65-23.86a35.8,35.8,0,0,1,10.18,1.95l-.79,7.43A18.94,18.94,0,0,0,34.79,334c-9,0-15.26,7-15.26,16s5.87,16,15.65,16c3.52,0,7.83-.78,9.79-2"/><path d="M61,345.7h3.53c3.91,0,8.6-.79,8.6-5.48,0-5.1-4.69-5.49-8.6-5.49H61m0,30.54h4.3c3.92,0,9-1.18,9-6.26,0-5.87-4.71-6.66-9-6.66H61Zm-9-37.58H67.66c5.87,0,14.48,1.57,14.48,11.35,0,5.48-3.52,9-9,10.18,6.26.78,10.57,4.69,10.57,10.17,0,10.95-10.57,12.52-16,12.52H52V327.69Z"/><path d="M124,371.53a42.76,42.76,0,0,1-10.17,1.17c-14.48,0-24.66-7-24.66-21.92,0-15.26,9.4-23.86,24.66-23.86A31.31,31.31,0,0,1,124,328.87l-.78,7.43a16.83,16.83,0,0,0-9.39-2.34c-9.39,0-15.26,7-15.26,16s5.47,16,15.26,16c3.52,0,7.83-.78,9.78-2"/></svg>