<svg width="567" height="414" viewBox="0 0 567 414" fill="none" xmlns="http://www.w3.org/2000/svg">
<g clip-path="url(#clip0_1308_4230)">
<path d="M85.4602 275.39C81.3202 271.11 77.4002 268.04 73.6802 266.17C69.3102 263.96 64.1902 262.86 58.3102 262.86C47.2102 262.86 38.1802 266.71 31.2502 274.38C24.8702 281.32 21.6802 290.59 21.6802 302.19C21.6802 315.26 25.6902 325.39 33.6902 332.57C40.4702 338.53 48.7102 341.51 58.4402 341.51C64.5602 341.51 69.8702 340.32 74.3502 337.96C78.1902 335.94 82.1902 332.67 86.3702 328.17C87.6102 326.84 89.6202 326.75 90.9102 328.03L100.56 337.6C101.84 338.88 101.9 341.02 100.62 342.31C96.3102 346.68 92.2602 350.06 88.4402 352.42C79.5302 358.13 69.5002 361 58.3102 361C40.5902 361 26.1302 354.67 14.9402 342.01C4.98023 330.9 -0.00976562 317.62 -0.00976562 302.2C-0.00976562 284.31 6.37024 269.61 19.1102 258.1C29.8802 248.31 42.9502 243.41 58.3102 243.41C66.8902 243.41 74.6002 245 81.4602 248.18C87.5402 251.01 93.6302 255.36 99.7202 261.28C101.03 262.55 100.99 264.66 99.7002 265.94L90.0502 275.5C88.7602 276.78 86.7402 276.72 85.4602 275.41V275.39Z" fill="#0C1217"/>
<path d="M112.1 199.08L127.07 202.06C128.85 202.41 130.3 204.18 130.3 206V253.55C130.3 255.37 131.28 255.74 132.61 254.48C140.39 247.08 149.9 243.38 161.18 243.38C173.1 243.38 183.31 247.14 191.81 254.65C197.12 259.31 200.93 264.98 203.26 271.67C205.59 278.38 206.75 287.07 206.75 297.77V354.5C206.75 356.32 205.27 357.8 203.45 357.8H188.62C186.79 357.8 185.32 356.31 185.32 354.5V299.73C185.32 288.3 183.84 279.89 180.91 274.5C176.91 267.15 169.6 263.48 158.98 263.48C153.76 263.48 148.94 264.58 144.52 266.78C140.11 268.99 136.89 271.97 134.85 275.73C131.82 281.11 130.31 289.94 130.31 302.19V354.51C130.31 356.33 128.84 357.81 127.02 357.81H112.18C110.36 357.81 108.88 356.32 108.88 354.51V201.75C108.88 199.93 110.33 198.74 112.12 199.1L112.1 199.08Z" fill="#0C1217"/>
<path d="M318.5 310.76H238.74C236.92 310.76 235.68 312.22 236.11 313.99C237.39 319.33 239.49 324.06 242.43 328.15C248.8 337.06 257.86 341.5 269.62 341.5C275.91 341.5 281.79 340.08 287.27 337.22C292.74 334.35 296.9 330.52 299.76 325.7C300.12 325.14 300.43 324.65 300.69 324.23C301.2 323.41 302.96 323.34 304.64 324.03L317.3 329.33C318.98 330.03 319.6 331.87 318.61 333.4C306.74 351.79 290.45 360.98 269.76 360.98C252.77 360.98 238.93 354.85 228.24 342.6C218.35 331.33 213.41 317.81 213.41 302.05C213.41 283.84 219.75 268.93 232.4 257.34C242.53 248.04 254.45 243.38 268.17 243.38C283.76 243.38 296.74 249.21 307.12 260.89C317 272 321.94 286.42 321.94 304.14C321.94 304.58 321.92 305.68 321.88 307.46C321.84 309.28 320.34 310.76 318.52 310.76H318.5ZM299.8 290.26C298.29 284 295.83 278.66 292.39 274.25C286.35 266.5 278.31 262.62 268.27 262.62C259.77 262.62 252.63 265.35 246.83 270.82C241.7 275.67 238.13 282.15 236.12 290.26C235.69 292.03 236.91 293.49 238.73 293.49H297.18C299 293.49 300.23 292.03 299.8 290.26Z" fill="#0C1217"/>
<path d="M443.47 257.72V406.64C443.47 408.46 442.01 410.23 440.24 410.58L425.27 413.56C423.49 413.91 422.04 412.72 422.04 410.91V348.96C422.04 347.13 420.9 346.59 419.44 347.7C413.49 352.27 408.16 355.54 403.48 357.55C398.13 359.84 392.28 360.98 385.9 360.98C376.1 360.98 366.87 358.48 358.22 353.5C349.24 348.36 342.13 341.29 336.9 332.3C331.67 323.15 329.07 313.12 329.07 302.17C329.07 284.28 335.52 269.55 348.42 257.95C359.27 248.23 371.77 243.37 385.9 243.37C392.27 243.37 398.13 244.51 403.48 246.79C408.16 248.79 413.49 252.08 419.44 256.64C420.89 257.74 423.49 258.38 425.27 258.02L440.24 255.04C442.02 254.69 443.47 255.88 443.47 257.7V257.72ZM386.76 262.85C376.31 262.85 367.53 266.65 360.42 274.24C353.97 281.27 350.75 290.62 350.75 302.29C350.75 318.05 356.54 329.41 368.14 336.35C373.77 339.78 379.9 341.49 386.52 341.49C397.14 341.49 405.79 337.82 412.49 330.47C418.86 323.36 422.04 314.01 422.04 302.42C422.04 289.02 418 278.69 409.91 271.42C403.46 265.7 395.75 262.85 386.76 262.85Z" fill="#0C1217"/>
<path d="M563.62 357.8H548.78C546.95 357.8 545.48 356.31 545.48 354.5V348.97C545.48 347.14 544.33 346.6 542.88 347.71C536.92 352.28 531.59 355.55 526.92 357.56C521.56 359.85 515.71 360.99 509.34 360.99C499.62 360.99 490.4 358.49 481.65 353.51C472.66 348.28 465.6 341.22 460.46 332.31C455.15 323.09 452.49 313 452.49 302.06C452.49 284.18 458.95 269.47 471.86 257.96C482.72 248.24 495.21 243.38 509.34 243.38C515.71 243.38 521.56 244.5 526.92 246.74C531.6 248.7 536.93 252.01 542.9 256.63C544.33 257.75 545.48 257.2 545.48 255.38V206C545.48 204.18 546.93 202.41 548.71 202.06L563.68 199.08C565.45 198.72 566.91 199.91 566.91 201.73V354.49C566.91 356.31 565.43 357.79 563.61 357.79L563.62 357.8ZM510.7 262.86C503.59 262.86 497.21 264.58 491.58 268C479.99 274.95 474.2 286.39 474.2 302.31C474.2 315.29 478.28 325.39 486.44 332.57C493.22 338.53 501.14 341.51 510.21 341.51C520.58 341.51 529.12 337.8 535.81 330.37C542.26 323.26 545.49 313.83 545.49 302.07C545.49 288.84 541.44 278.63 533.36 271.44C526.91 265.72 519.36 262.87 510.71 262.87L510.7 262.86Z" fill="#0C1217"/>
<path d="M364.66 141.8L365.6 139.92C369.05 131.63 365.82 121.98 358.06 117.42C355.28 115.79 352.13 114.93 348.93 114.93C342.54 114.93 336.56 118.35 333.33 123.85L332.82 124.65L322.88 141.87C322.48 142.71 322.02 143.52 321.49 144.28L321.45 144.34L321.38 144.46L321.3 144.58C321.02 144.97 320.73 145.35 320.42 145.72H354.04C358.89 145.72 362.65 144.33 364.66 141.8Z" fill="url(#paint0_linear_1308_4230)"/>
<path d="M283.35 187.9H284.53C291.45 187.8 297.89 186.23 302.66 183.47L352.03 154.97C353.62 154.05 355.2 152.9 356.73 151.55C355.86 151.63 354.96 151.67 354.04 151.67H259.99C259.08 151.66 258.17 151.57 257.29 151.41L274.14 180.58C276.72 185.04 279.98 187.63 283.35 187.9Z" fill="url(#paint1_linear_1308_4230)"/>
<path d="M220.75 99.77L203.99 128.81C201.42 133.26 200.81 137.38 202.26 140.42C202.46 140.77 202.66 141.13 202.87 141.48C206.4 147.41 210.98 152.2 215.77 154.97L265.13 183.47C266.73 184.4 268.51 185.19 270.44 185.83C269.94 185.12 269.45 184.36 268.99 183.56L246.3 144.26C245.81 143.55 245.36 142.78 244.96 141.95L223.01 103.92C222.2 102.82 221.52 101.64 221.01 100.41C220.92 100.2 220.84 99.99 220.76 99.78L220.75 99.77Z" fill="url(#paint2_linear_1308_4230)"/>
<path d="M218.1 92.46L221.07 87.32C221.57 86.17 222.21 85.05 222.99 83.99L246.21 43.76L246.31 43.59L246.38 43.47L246.46 43.35C246.75 42.94 247.05 42.55 247.36 42.17H213.73C208.6 42.17 204.73 43.69 202.81 46.47C202.59 46.84 202.38 47.21 202.17 47.58C198.82 53.59 196.96 59.95 196.96 65.45V122.45C196.96 124.3 197.17 126.24 197.57 128.23C197.93 127.44 198.35 126.64 198.81 125.84L218.08 92.46H218.1Z" fill="url(#paint3_linear_1308_4230)"/>
<path d="M252.29 36.22H308.17C308.97 36.26 309.75 36.34 310.51 36.48L293.67 7.31C291.08 2.83 287.8 0.24 284.41 0H284.37C284.27 0 284.09 0 283.9 0C283.69 0 283.47 0 283.26 0C276.33 0.1 269.9 1.67 265.13 4.42L215.77 32.92C214.17 33.84 212.6 34.99 211.08 36.33C211.95 36.25 212.84 36.21 213.76 36.21H252.29V36.22Z" fill="url(#paint4_linear_1308_4230)"/>
<path d="M318.08 37.7101L333.36 64.4201C336.59 69.9201 342.6 73.3601 349.02 73.3601C352.23 73.3601 355.41 72.4901 358.19 70.8501C366.82 65.7701 369.72 54.6201 364.65 45.9901L363.91 44.7801C360.57 39.6401 356.33 35.4101 352.02 32.9201L302.66 4.42006C301.06 3.50006 299.28 2.71006 297.36 2.06006C297.86 2.77006 298.34 3.53006 298.8 4.32006L318.07 37.6901L318.08 37.7101Z" fill="url(#paint5_linear_1308_4230)"/>
</g>
<defs>
<linearGradient id="paint0_linear_1308_4230" x1="196.96" y1="95.3954" x2="367.147" y2="95.3954" gradientUnits="userSpaceOnUse">
<stop stop-color="#FE5000"/>
<stop offset="1" stop-color="#FF8412"/>
</linearGradient>
<linearGradient id="paint1_linear_1308_4230" x1="196.96" y1="95.3954" x2="367.147" y2="95.3954" gradientUnits="userSpaceOnUse">
<stop stop-color="#FE5000"/>
<stop offset="1" stop-color="#FF8412"/>
</linearGradient>
<linearGradient id="paint2_linear_1308_4230" x1="196.96" y1="95.3954" x2="367.147" y2="95.3954" gradientUnits="userSpaceOnUse">
<stop stop-color="#FE5000"/>
<stop offset="1" stop-color="#FF8412"/>
</linearGradient>
<linearGradient id="paint3_linear_1308_4230" x1="196.96" y1="95.3954" x2="367.147" y2="95.3954" gradientUnits="userSpaceOnUse">
<stop stop-color="#FE5000"/>
<stop offset="1" stop-color="#FF8412"/>
</linearGradient>
<linearGradient id="paint4_linear_1308_4230" x1="196.96" y1="95.3954" x2="367.147" y2="95.3954" gradientUnits="userSpaceOnUse">
<stop stop-color="#FE5000"/>
<stop offset="1" stop-color="#FF8412"/>
</linearGradient>
<linearGradient id="paint5_linear_1308_4230" x1="196.96" y1="95.3954" x2="367.147" y2="95.3954" gradientUnits="userSpaceOnUse">
<stop stop-color="#FE5000"/>
<stop offset="1" stop-color="#FF8412"/>
</linearGradient>
<clipPath id="clip0_1308_4230">
<rect width="566.93" height="413.63" fill="white"/>
</clipPath>
</defs>
</svg>
