<svg id="Layer_1" data-name="Layer 1" xmlns="http://www.w3.org/2000/svg" viewBox="0 0 700 700"><defs><style>.cls-1{fill:#e70;}.cls-2{fill:#777;}</style></defs><path class="cls-1" d="M106.58,404a56,56,0,0,1-19.65-5.44,54.37,54.37,0,0,1-24-23.31A47.86,47.86,0,0,1,57.36,352a50.05,50.05,0,0,1,9.38-29.41,60.33,60.33,0,0,1,13.74-13.36,55,55,0,0,1,48.45-6.29c4.09,1.43,6.94,2.86,7.83,3.94a4.92,4.92,0,0,1-.66,7.14c-2.08,1.89-3.51,1.85-8.37-.08a45.29,45.29,0,0,0-26.6-2.24,45.37,45.37,0,0,0-22.58,13.36C59.25,347,68.17,380.64,96,390.83a41.43,41.43,0,0,0,15.17,2.55C132,393.3,149.46,379,153.09,359c.46-2.63.54-4.56.38-9.65-.23-6.84-.15-7.38,1.63-9a5.58,5.58,0,0,1,8.33,1.58c1.47,2.82,1.62,14.13.2,20.54A53.3,53.3,0,0,1,131.9,400,57.33,57.33,0,0,1,106.58,404Z"/><path class="cls-1" d="M180.22,404a50.17,50.17,0,0,1-12.54-2.54c-4.59-1.47-7.72-3-8.69-4.21-2.93-3.63-.23-8.65,4.64-8.53a21.06,21.06,0,0,1,4.28,1.43,44,44,0,0,0,20.65,3.16,39.22,39.22,0,0,0,12-2.78,41.66,41.66,0,0,0,26.09-30.14,46.52,46.52,0,0,0,0-16.64,41.81,41.81,0,0,0-26.94-30.45,40,40,0,0,0-15-2.55c-20.92,0-38.37,14.32-42,34.39-.47,2.66-.54,4.56-.35,9.73.23,6.29.19,6.48-.62,7.6a5.44,5.44,0,0,1-9,0c-1.82-2.66-2.12-13.74-.54-20.88A53.35,53.35,0,0,1,169.88,302a54.07,54.07,0,0,1,15-2,48.33,48.33,0,0,1,16.29,2.51,51.76,51.76,0,0,1,21.42,12.81A49.64,49.64,0,0,1,238.39,352c0,11-2.89,20-9.38,29.45a59.88,59.88,0,0,1-13.74,13.35A55.66,55.66,0,0,1,180.22,404Z"/><path id="ink" class="cls-2" d="M332.26,304.6a57.73,57.73,0,0,0-24.2-5.33,55.85,55.85,0,0,0-27.6,7.18,51.25,51.25,0,0,0-19.68,19q-6.88,11.82-6.87,27Q253.91,376,269,391t38.79,15a58.54,58.54,0,0,0,22.89-4.25q10-4.22,21.27-15.24l-13.12-13.7c-5.56,5.51-10.7,9.34-15.33,11.46a37.82,37.82,0,0,1-15.4,3.16,36.41,36.41,0,0,1-18-4.47,31.63,31.63,0,0,1-12.5-12.39,35.85,35.85,0,0,1-4.4-18.07A34,34,0,0,1,307.75,318q17.26,0,31.08,14.6l13.54-12.9A58.69,58.69,0,0,0,332.26,304.6ZM364.46,401h66.42V382.49h-47V299H364.46V401ZM444.32,297.5a11.67,11.67,0,0,0-3.55,8.57,12.28,12.28,0,0,0,3.55,8.88,11.73,11.73,0,0,0,8.64,3.66,11.45,11.45,0,0,0,8.46-3.59,11.92,11.92,0,0,0,3.55-8.64,12.11,12.11,0,0,0-3.55-8.77,12,12,0,0,0-16.95-.19.25.25,0,0,0-.15.08Zm-1,103.25h19V325.1h-19Zm37.67,0h19V370.41c0-7.87.27-13,.85-15.36a20.52,20.52,0,0,1,5.72-10.65,14,14,0,0,1,9.88-3.86,12,12,0,0,1,7.45,2.31,12.3,12.3,0,0,1,4.24,6.76c.81,3,1.2,8.95,1.2,18v33.12h18.76V350.77c0-8.73-2.2-15.29-6.6-19.73a26,26,0,0,0-19.11-7.83,28.43,28.43,0,0,0-10.73,2.12A45.3,45.3,0,0,0,500,332.89v-7.75H481l0,75.61Zm87,0h19V365.9l32.11,34.85h23.55l-36.48-39.37,32.58-36.24H614.92L587,356.32v-60.4H568Z"/></svg>