<?xml version="1.0" encoding="UTF-8"?>
<svg id="Vertical" xmlns="http://www.w3.org/2000/svg" xmlns:xlink="http://www.w3.org/1999/xlink" version="1.1" viewBox="0 0 1085.7 841.9">
  <defs>
    <style>
      .cls-1 {
        fill: url(#linear-gradient);
      }

      .cls-1, .cls-2, .cls-3, .cls-4, .cls-5, .cls-6, .cls-7 {
        stroke-width: 0px;
      }

      .cls-2, .cls-3 {
        fill: #db3832;
      }

      .cls-3 {
        display: none;
      }

      .cls-4 {
        fill: url(#linear-gradient-4);
      }

      .cls-5 {
        fill: url(#linear-gradient-2);
      }

      .cls-6 {
        fill: url(#linear-gradient-3);
      }

      .cls-7 {
        fill: url(#linear-gradient-5);
      }
    </style>
    <linearGradient id="linear-gradient" x1="531.8" y1="603.5" x2="531.8" y2="824.7" gradientUnits="userSpaceOnUse">
      <stop offset="0" stop-color="#514b48"/>
      <stop offset=".3" stop-color="#48423f"/>
      <stop offset=".7" stop-color="#2f2a28"/>
      <stop offset="1" stop-color="#1c1715"/>
    </linearGradient>
    <linearGradient id="linear-gradient-2" x1="744.7" y1="603.7" x2="744.7" y2="827.8" xlink:href="#linear-gradient"/>
    <linearGradient id="linear-gradient-3" x1="317.5" y1="602.4" x2="317.5" y2="827.6" xlink:href="#linear-gradient"/>
    <linearGradient id="linear-gradient-4" x1="198.5" y1="162" x2="198.5" y2="694.4" gradientTransform="translate(618.7 719.3) rotate(-180)" gradientUnits="userSpaceOnUse">
      <stop offset="0" stop-color="#db3832"/>
      <stop offset=".2" stop-color="#d2342e"/>
      <stop offset=".5" stop-color="#b92c25"/>
      <stop offset=".8" stop-color="#921e17"/>
      <stop offset="1" stop-color="#801811"/>
    </linearGradient>
    <linearGradient id="linear-gradient-5" x1="423.1" y1="64.3" x2="876.8" y2="518" gradientUnits="userSpaceOnUse">
      <stop offset="0" stop-color="#db3832"/>
      <stop offset=".2" stop-color="#d2342e"/>
      <stop offset=".5" stop-color="#b92c25"/>
      <stop offset=".8" stop-color="#921e17"/>
      <stop offset="1" stop-color="#801811"/>
    </linearGradient>
  </defs>
  <g id="Letters">
    <path id="path7" class="cls-1" d="M498.3,824.7h-54.4v-200.8c24.1-13.2,60.7-20.3,95.3-20.3s41.9,5.1,53.4,12.2c13.1,9.5,20.2,22.7,24.1,37.5,2.1,10.1,3.1,20.3,3.1,31.4v139h-55.5v-133.9c0-27.4-6.3-43.6-36.6-43.6s-23,2-29.3,6.1v172.4Z"/>
    <path id="path15" class="cls-5" d="M654.9,756.8c0-38.5,16.8-62.9,60.7-69,23-4.1,40.5-4.1,65.6-5.1,0-25.4-11.5-36.5-40.8-36.5s-50.7,3.5-74.1,11.2l-.2-43c21-6,46.1-10.8,78.5-10.8,49.2,0,90,13.2,90,70v133.9c-24.1,13.2-55.2,20.3-94.9,20.3-53.9-.3-84.8-24.3-84.8-71h0ZM781.2,717.3c-16.8,1-30,1-45.7,5.1-18.8,4.1-27.2,11.2-27.2,33.5s13.6,29.4,37.7,29.4,22.7-1,35.3-6.1v-61.9h0Z"/>
    <path id="path17" class="cls-6" d="M402.1,816.8c-18.8,5.1-54,10.8-83.4,10.8-74.3,0-85.8-55.8-85.8-114.6s16.8-110.6,98.4-110.6,55.1,6.8,70.8,10.8l-.3,43.9c-23.2-6.8-34.9-9-52-9.4-51.3-1.3-60.4,12.5-60.4,64.3s4.9,67.3,60.4,67.3,38.6-5.9,52.3-8.9v46.4Z"/>
  </g>
  <g id="Logo">
    <polygon class="cls-3" points="762.4 423.2 821.8 557.3 453.2 557.3 762.4 423.2"/>
    <polygon class="cls-2" points="775.9 414.5 836.8 557.4 441.6 557.4 775.9 414.5"/>
    <polygon class="cls-4" points="462.4 25 607.7 25 377.9 557.3 232.6 557.3 462.4 25"/>
    <polygon class="cls-7" points="837.5 557.3 692.1 557.3 462.4 25 607.7 25 837.5 557.3"/>
  </g>
</svg>