<?xml version="1.0" encoding="UTF-8" standalone="no"?>
<svg
   xmlns:dc="http://purl.org/dc/elements/1.1/"
   xmlns:cc="http://creativecommons.org/ns#"
   xmlns:rdf="http://www.w3.org/1999/02/22-rdf-syntax-ns#"
   xmlns:svg="http://www.w3.org/2000/svg"
   xmlns="http://www.w3.org/2000/svg"
   viewBox="0 0 1122.52 793.70667"
   height="793.70667"
   width="1122.52"
   xml:space="preserve"
   id="svg2"
   version="1.1"><metadata
     id="metadata8"><rdf:RDF><cc:Work
         rdf:about=""><dc:format>image/svg+xml</dc:format><dc:type
           rdf:resource="http://purl.org/dc/dcmitype/StillImage" /></cc:Work></rdf:RDF></metadata><defs
     id="defs6"><clipPath
       id="clipPath26"
       clipPathUnits="userSpaceOnUse"><path
         id="path24"
         d="M 0,595.28 H 841.89 V 0 H 0 Z" /></clipPath></defs><g
     transform="matrix(1.3333333,0,0,-1.3333333,0,793.70667)"
     id="g10"><g
       transform="translate(266.1318,205.5039)"
       id="g12"><path
         id="path14"
         style="fill:#818d96;fill-opacity:1;fill-rule:nonzero;stroke:none"
         d="M 0,0 H 9.072 V -2.111 H 4.08 V -42.672 H 9.072 V -44.64 H 0 Z" /></g><g
       transform="translate(594.9619,160.8643)"
       id="g16"><path
         id="path18"
         style="fill:#818d96;fill-opacity:1;fill-rule:nonzero;stroke:none"
         d="m 0,0 h -9.072 v 1.968 h 4.992 v 40.56 h -4.992 v 2.112 l 9.072,0 z" /></g><g
       id="g20"><g
         clip-path="url(#clipPath26)"
         id="g22"><g
           transform="translate(470.7744,370.918)"
           id="g28"><path
             id="path30"
             style="fill:#315f70;fill-opacity:1;fill-rule:nonzero;stroke:none"
             d="m 0,0 c -2.883,1.521 -5.78,3.057 -8.698,4.609 -4.911,-2.334 -9.816,-4.573 -14.626,-6.713 2.961,-1.105 5.936,-2.196 8.927,-3.275 C -9.483,-3.615 -4.672,-1.82 0,0" /></g><g
           transform="translate(483.3145,364.3477)"
           id="g32"><path
             id="path34"
             style="fill:#315f70;fill-opacity:1;fill-rule:nonzero;stroke:none"
             d="m 0,0 c -2.752,1.428 -5.526,2.88 -8.32,4.346 -4.303,-1.7 -8.745,-3.387 -13.313,-5.056 2.847,-1.009 5.696,-2.007 8.544,-2.986 C -8.623,-2.502 -4.255,-1.266 0,0" /></g><g
           transform="translate(495.5684,358.042)"
           id="g36"><path
             id="path38"
             style="fill:#315f70;fill-opacity:1;fill-rule:nonzero;stroke:none"
             d="m 0,0 c -2.524,1.281 -5.072,2.59 -7.643,3.914 -3.738,-1.148 -7.599,-2.281 -11.575,-3.395 2.581,-0.872 5.155,-1.723 7.716,-2.562 C -7.582,-1.398 -3.74,-0.723 0,0" /></g><g
           transform="translate(513.5957,361.9912)"
           id="g40"><path
             id="path42"
             style="fill:#184738;fill-opacity:1;fill-rule:nonzero;stroke:none"
             d="M 0,0 C -1.666,1.183 -3.354,2.387 -5.064,3.601 -6.099,4.337 -7.136,5.077 -8.173,5.817 -12.161,4.358 -16.36,2.925 -20.75,1.513 -17.916,0.061 -15.089,-1.38 -12.274,-2.799 -8.027,-1.918 -3.93,-0.982 0,0" /></g><g
           transform="translate(417.4873,360.1357)"
           id="g44"><path
             id="path46"
             style="fill:#3e5d73;fill-opacity:1;fill-rule:nonzero;stroke:none"
             d="m 0,0 c -2.769,0.675 -5.502,1.357 -8.205,2.052 -4.609,-2.203 -9.166,-4.338 -13.614,-6.387 2.728,-0.329 5.493,-0.647 8.298,-0.946 C -8.98,-3.547 -4.468,-1.787 0,0" /></g><g
           transform="translate(403.8481,363.6094)"
           id="g48"><path
             id="path50"
             style="fill:#3e5d73;fill-opacity:1;fill-rule:nonzero;stroke:none"
             d="m 0,0 c -3.001,0.799 -5.953,1.606 -8.848,2.425 -5.007,-2.722 -10.061,-5.422 -15.135,-8.101 2.936,-0.436 5.934,-0.861 8.992,-1.268 C -9.863,-4.611 -4.866,-2.298 0,0" /></g><g
           transform="translate(525.1572,353.7813)"
           id="g52"><path
             id="path54"
             style="fill:#184738;fill-opacity:1;fill-rule:nonzero;stroke:none"
             d="m 0,0 c -2.506,1.777 -5.063,3.59 -7.677,5.446 -3.488,-0.919 -7.144,-1.805 -10.955,-2.653 2.678,-1.342 5.337,-2.658 7.975,-3.952 C -6.948,-0.823 -3.39,-0.438 0,0" /></g><g
           transform="translate(451.1836,363.7012)"
           id="g56"><path
             id="path58"
             style="fill:#2a3e4d;fill-opacity:1;fill-rule:nonzero;stroke:none"
             d="M 0,0 C -2.787,1.019 -5.561,2.051 -8.327,3.089 -8.566,2.987 -8.813,2.87 -9.053,2.771 c -4.086,-1.778 -8.255,-3.542 -12.488,-5.301 2.814,-0.638 5.651,-1.264 8.504,-1.873 C -8.634,-2.964 -4.281,-1.493 0,0" /></g><g
           transform="translate(437.9951,368.6279)"
           id="g60"><path
             id="path62"
             style="fill:#2a3e4d;fill-opacity:1;fill-rule:nonzero;stroke:none"
             d="m 0,0 c -2.93,1.122 -5.836,2.247 -8.716,3.373 -4.909,-2.485 -9.818,-4.907 -14.683,-7.263 2.95,-0.728 5.933,-1.451 8.949,-2.16 C -9.562,-4.056 -4.738,-2.039 0,0" /></g><g
           transform="translate(511.957,389.7622)"
           id="g64"><path
             id="path66"
             style="fill:#308d6f;fill-opacity:1;fill-rule:nonzero;stroke:none"
             d="M 0,0 C 5.595,3.117 10.451,6.192 14.552,9.19 11.755,12.337 8.935,15.45 6.096,18.515 1.645,14.972 -3.4,11.442 -8.851,7.972 -5.893,5.338 -2.941,2.674 0,0" /></g><g
           transform="translate(368.8818,347.7773)"
           id="g68"><path
             id="path70"
             style="fill:#537c9a;fill-opacity:1;fill-rule:nonzero;stroke:none"
             d="M 0,0 C 4.619,2.005 9.122,4.003 13.555,5.99 10.787,6.387 8.065,6.803 5.397,7.236 0.833,4.854 -3.743,2.505 -8.315,0.187 -5.595,0.101 -2.824,0.035 -0.009,-0.005 -0.003,-0.002 0,-0.002 0,0" /></g><g
           transform="translate(500.2861,400.2373)"
           id="g72"><path
             id="path74"
             style="fill:#308d6f;fill-opacity:1;fill-rule:nonzero;stroke:none"
             d="M 0,0 C 5.829,3.679 10.926,7.253 15.282,10.706 12.425,13.747 9.557,16.73 6.677,19.654 2.032,15.713 -3.207,11.737 -8.908,7.763 -5.94,5.212 -2.971,2.621 0,0" /></g><g
           transform="translate(541.9102,356.6592)"
           id="g76"><path
             id="path78"
             style="fill:#246a53;fill-opacity:1;fill-rule:nonzero;stroke:none"
             d="m 0,0 c -2.618,2.518 -5.271,5.058 -7.953,7.608 -3.68,-1.316 -7.685,-2.586 -11.97,-3.806 2.797,-1.982 5.594,-3.975 8.393,-5.947 C -7.4,-1.513 -3.55,-0.795 0,0" /></g><g
           transform="translate(476.4561,420.4526)"
           id="g80"><path
             id="path82"
             style="fill:#308d6f;fill-opacity:1;fill-rule:nonzero;stroke:none"
             d="M 0,0 C 6.136,4.577 11.583,8.97 16.336,13.161 13.197,16.048 10.063,18.83 6.934,21.478 1.982,16.941 -3.517,12.268 -9.503,7.5 -6.361,5.084 -3.191,2.576 0,0" /></g><g
           transform="translate(480.5684,444.293)"
           id="g84"><path
             id="path86"
             style="fill:#308d6f;fill-opacity:1;fill-rule:nonzero;stroke:none"
             d="m 0,0 c -3.249,2.675 -6.491,5.212 -9.715,7.589 -4.93,-4.648 -10.44,-9.52 -16.525,-14.611 3.167,-2.235 6.375,-4.581 9.621,-7.031 C -10.438,-9.151 -4.895,-4.467 0,0" /></g><g
           transform="translate(552.5313,346.3965)"
           id="g88"><path
             id="path90"
             style="fill:#246a53;fill-opacity:1;fill-rule:nonzero;stroke:none"
             d="m 0,0 c -2.467,2.396 -4.979,4.822 -7.527,7.282 -3.248,-0.788 -6.735,-1.49 -10.428,-2.122 2.654,-1.875 5.3,-3.725 7.92,-5.556 C -6.489,-0.36 -3.127,-0.232 0,0" /></g><g
           transform="translate(523.4453,379.1621)"
           id="g92"><path
             id="path94"
             style="fill:#308d6f;fill-opacity:1;fill-rule:nonzero;stroke:none"
             d="M 0,0 C 5.278,2.514 9.858,5.038 13.694,7.567 10.983,10.75 8.242,13.925 5.476,17.063 1.452,14.097 -3.271,11.079 -8.666,8.02 -5.766,5.354 -2.871,2.679 0,0" /></g><g
           transform="translate(537.7207,365.6865)"
           id="g96"><path
             id="path98"
             style="fill:#308d6f;fill-opacity:1;fill-rule:nonzero;stroke:none"
             d="m 0,0 c 2.823,-2.693 5.617,-5.377 8.366,-8.022 4.265,1.114 8.013,2.358 11.172,3.736 0.166,0.069 0.315,0.138 0.474,0.209 C 17.436,-0.833 14.813,2.44 12.147,5.718 9.718,4.31 6.988,2.94 3.938,1.616 2.682,1.068 1.355,0.532 0,0" /></g><g
           transform="translate(534.8232,368.4434)"
           id="g100"><path
             id="path102"
             style="fill:#308d6f;fill-opacity:1;fill-rule:nonzero;stroke:none"
             d="m 0,0 c 1.881,0.712 3.686,1.433 5.391,2.18 2.725,1.185 5.165,2.386 7.345,3.613 -2.653,3.235 -5.34,6.477 -8.058,9.7 C 0.935,13.003 -3.479,10.522 -8.539,8.063 -5.666,5.365 -2.817,2.681 0,0" /></g><g
           transform="translate(488.4951,410.4585)"
           id="g104"><path
             id="path106"
             style="fill:#308d6f;fill-opacity:1;fill-rule:nonzero;stroke:none"
             d="M 0,0 C 6.002,4.162 11.304,8.178 15.883,12.037 12.866,15.045 9.848,17.977 6.825,20.811 2.012,16.56 -3.396,12.204 -9.308,7.775 -6.219,5.241 -3.114,2.649 0,0" /></g><g
           transform="translate(465.5986,395.8887)"
           id="g108"><path
             id="path110"
             style="fill:#184738;fill-opacity:1;fill-rule:nonzero;stroke:none"
             d="m 0,0 c -3.126,2.161 -6.228,4.292 -9.289,6.378 -5.353,-3.508 -10.928,-7.035 -16.686,-10.573 3.121,-1.696 6.304,-3.417 9.534,-5.156 C -10.654,-6.181 -5.17,-3.062 0,0" /></g><g
           transform="translate(477.7813,387.3896)"
           id="g112"><path
             id="path114"
             style="fill:#184738;fill-opacity:1;fill-rule:nonzero;stroke:none"
             d="m 0,0 c -2.976,2.091 -5.942,4.166 -8.887,6.208 -5.163,-3.07 -10.496,-6.117 -15.932,-9.104 3.028,-1.635 6.091,-3.276 9.182,-4.917 C -10.134,-5.178 -4.912,-2.57 0,0" /></g><g
           transform="translate(445.3838,384.4805)"
           id="g116"><path
             id="path118"
             style="fill:#315f70;fill-opacity:1;fill-rule:nonzero;stroke:none"
             d="m 0,0 c -3.097,1.676 -6.198,3.357 -9.314,5.045 -5.401,-3.274 -10.944,-6.551 -16.608,-9.811 3.123,-1.274 6.293,-2.547 9.506,-3.814 C -10.722,-5.689 -5.231,-2.823 0,0" /></g><g
           transform="translate(458.0889,377.6504)"
           id="g120"><path
             id="path122"
             style="fill:#315f70;fill-opacity:1;fill-rule:nonzero;stroke:none"
             d="m 0,0 c -2.948,1.581 -5.915,3.171 -8.891,4.775 -5.189,-2.814 -10.453,-5.587 -15.731,-8.29 3.016,-1.173 6.057,-2.343 9.131,-3.506 C -10.106,-4.66 -4.938,-2.316 0,0" /></g><g
           transform="translate(399.7241,368.6123)"
           id="g124"><path
             id="path126"
             style="fill:#2a3e4d;fill-opacity:1;fill-rule:nonzero;stroke:none"
             d="M 0,0 C 3.081,-0.843 6.226,-1.675 9.415,-2.494 14.798,0.086 20.017,2.638 25.057,5.165 21.946,6.404 18.883,7.64 15.866,8.881 10.651,5.905 5.361,2.942 0,0" /></g><g
           transform="translate(557.2568,346.8584)"
           id="g128"><path
             id="path130"
             style="fill:#308d6f;fill-opacity:1;fill-rule:nonzero;stroke:none"
             d="M 0,0 C 3.944,0.471 7.448,1.142 10.423,2.037 7.933,5.26 5.382,8.53 2.787,11.825 2.354,11.623 1.907,11.419 1.45,11.221 -1.364,9.995 -4.582,8.883 -8.145,7.888 -5.38,5.219 -2.664,2.583 0,0" /></g><g
           transform="translate(510.6338,368.542)"
           id="g132"><path
             id="path134"
             style="fill:#246a53;fill-opacity:1;fill-rule:nonzero;stroke:none"
             d="m 0,0 c 2.495,-1.78 5.015,-3.572 7.542,-5.367 4.562,1.225 8.854,2.53 12.831,3.899 -2.722,2.586 -5.47,5.176 -8.241,7.771 C 11.059,5.814 9.966,5.321 8.838,4.831 5.717,3.472 2.394,2.122 -1.108,0.787 -0.74,0.526 -0.368,0.262 0,0" /></g><g
           transform="translate(565.1641,339.168)"
           id="g136"><path
             id="path138"
             style="fill:#308d6f;fill-opacity:1;fill-rule:nonzero;stroke:none"
             d="M 0,0 C 1.078,-1.045 2.152,-2.089 3.225,-3.135 6.61,-3.305 9.613,-3.24 12.192,-2.943 9.813,0.206 7.365,3.421 4.854,6.688 2.122,5.772 -1.057,5.047 -4.624,4.501 -3.063,2.981 -1.519,1.476 0,0" /></g><g
           transform="translate(497.1152,378.1602)"
           id="g140"><path
             id="path142"
             style="fill:#246a53;fill-opacity:1;fill-rule:nonzero;stroke:none"
             d="m 0,0 c 2.952,-2.097 5.903,-4.198 8.86,-6.3 4.231,1.577 8.273,3.184 12.054,4.828 0.64,0.282 1.246,0.559 1.866,0.84 C 19.978,1.975 17.158,4.582 14.323,7.173 9.954,4.804 5.171,2.412 0,0" /></g><g
           transform="translate(344.6177,348.7393)"
           id="g144"><path
             id="path146"
             style="fill:#537c9a;fill-opacity:1;fill-rule:nonzero;stroke:none"
             d="M 0,0 C 2.795,-0.19 5.669,-0.357 8.613,-0.495 13.806,2.112 18.884,4.69 23.845,7.25 20.952,7.761 18.128,8.28 15.394,8.826 10.28,5.863 5.143,2.911 0,0" /></g><g
           transform="translate(405.9624,385.3525)"
           id="g148"><path
             id="path150"
             style="fill:#315f70;fill-opacity:1;fill-rule:nonzero;stroke:none"
             d="M 0,0 C 3.076,-1.321 6.224,-2.645 9.441,-3.974 15.413,-0.559 21.137,2.789 26.608,6.079 23.497,7.773 20.381,9.474 17.27,11.177 11.659,7.46 5.889,3.733 0,0" /></g><g
           transform="translate(385.5293,372.6934)"
           id="g152"><path
             id="path154"
             style="fill:#2a3e4d;fill-opacity:1;fill-rule:nonzero;stroke:none"
             d="m 0,0 c 3.031,-0.916 6.162,-1.828 9.359,-2.734 5.732,3.114 11.28,6.188 16.631,9.212 -3.132,1.301 -6.203,2.6 -9.195,3.886 C 11.288,6.905 5.683,3.446 0,0" /></g><g
           transform="translate(487.0371,377.5938)"
           id="g156"><path
             id="path158"
             style="fill:#184738;fill-opacity:1;fill-rule:nonzero;stroke:none"
             d="m 0,0 c 0.964,0.418 1.911,0.837 2.853,1.252 -2.933,2.079 -5.864,4.148 -8.777,6.2 -4.923,-2.6 -9.951,-5.136 -15.003,-7.582 3.018,-1.599 6.049,-3.203 9.096,-4.799 C -7.767,-3.305 -3.818,-1.661 0,0" /></g><g
           transform="translate(364.9365,360.4375)"
           id="g160"><path
             id="path162"
             style="fill:#3e5d73;fill-opacity:1;fill-rule:nonzero;stroke:none"
             d="M 0,0 C 2.932,-0.548 5.951,-1.071 9.059,-1.586 14.608,1.308 20.004,4.157 25.25,6.981 22.199,7.875 19.22,8.774 16.326,9.678 10.934,6.439 5.488,3.207 0,0" /></g><g
           transform="translate(426.6211,398.7842)"
           id="g164"><path
             id="path166"
             style="fill:#184738;fill-opacity:1;fill-rule:nonzero;stroke:none"
             d="M 0,0 C 3.095,-1.692 6.269,-3.425 9.517,-5.194 15.545,-1.526 21.24,2.059 26.622,5.563 23.447,7.718 20.313,9.819 17.229,11.857 11.706,7.938 5.951,3.98 0,0" /></g><g
           transform="translate(472.2979,395.6421)"
           id="g168"><path
             id="path170"
             style="fill:#246a53;fill-opacity:1;fill-rule:nonzero;stroke:none"
             d="m 0,0 c 3.006,-2.095 6.031,-4.213 9.072,-6.349 5.667,3.037 10.911,6.028 15.707,8.952 C 21.85,5.185 18.923,7.732 15.998,10.24 10.95,6.81 5.587,3.389 0,0" /></g><g
           transform="translate(484.6855,386.959)"
           id="g172"><path
             id="path174"
             style="fill:#246a53;fill-opacity:1;fill-rule:nonzero;stroke:none"
             d="m 0,0 c 3.001,-2.114 6.012,-4.246 9.026,-6.384 5.389,2.472 10.351,4.927 14.88,7.349 C 21.021,3.59 18.126,6.197 15.227,8.772 10.385,5.794 5.274,2.86 0,0" /></g><g
           transform="translate(459.5703,404.4229)"
           id="g176"><path
             id="path178"
             style="fill:#246a53;fill-opacity:1;fill-rule:nonzero;stroke:none"
             d="M 0,0 C 3.118,-2.13 6.271,-4.3 9.449,-6.505 15.358,-2.945 20.806,0.534 25.83,3.923 22.747,6.534 19.673,9.097 16.62,11.589 11.416,7.769 5.855,3.901 0,0" /></g><g
           transform="translate(447.002,412.897)"
           id="g180"><path
             id="path182"
             style="fill:#246a53;fill-opacity:1;fill-rule:nonzero;stroke:none"
             d="M 0,0 C 3.125,-2.076 6.302,-4.213 9.519,-6.397 15.606,-2.37 21.253,1.543 26.444,5.334 23.281,7.882 20.138,10.36 17.025,12.741 11.684,8.563 5.987,4.305 0,0" /></g><g
           transform="translate(501.8398,370.3574)"
           id="g184"><path
             id="path186"
             style="fill:#184738;fill-opacity:1;fill-rule:nonzero;stroke:none"
             d="m 0,0 c -2.844,2.025 -5.687,4.047 -8.526,6.062 -1.578,-0.715 -3.183,-1.431 -4.833,-2.148 -2.933,-1.274 -5.964,-2.546 -9.077,-3.811 2.956,-1.541 5.914,-3.079 8.87,-4.605 C -8.871,-3.041 -4.34,-1.541 0,0" /></g><g
           transform="translate(491.6211,353.5674)"
           id="g188"><path
             id="path190"
             style="fill:#315f70;fill-opacity:1;fill-rule:nonzero;stroke:none"
             d="m 0,0 c 2.203,-0.697 4.396,-1.381 6.574,-2.049 3.162,0.149 6.24,0.328 9.239,0.539 C 13.641,-0.43 11.445,0.67 9.231,1.793 6.234,1.171 3.163,0.574 0,0" /></g><g
           transform="translate(508.25,348.5098)"
           id="g192"><path
             id="path194"
             style="fill:#315f70;fill-opacity:1;fill-rule:nonzero;stroke:none"
             d="M 0,0 C 1.143,-0.329 2.278,-0.654 3.411,-0.98 5.455,-1.175 7.466,-1.351 9.452,-1.507 8.133,-0.868 6.807,-0.218 5.465,0.434 3.672,0.283 1.85,0.137 0,0" /></g><g
           transform="translate(470.3096,356.9092)"
           id="g196"><path
             id="path198"
             style="fill:#2a3e4d;fill-opacity:1;fill-rule:nonzero;stroke:none"
             d="m 0,0 c -2.858,-0.763 -5.764,-1.517 -8.718,-2.254 2.026,-0.37 4.053,-0.73 6.076,-1.082 2.969,0.396 5.912,0.805 8.817,1.235 C 4.121,-1.408 2.062,-0.71 0,0" /></g><g
           transform="translate(464.1465,359.0527)"
           id="g200"><path
             id="path202"
             style="fill:#2a3e4d;fill-opacity:1;fill-rule:nonzero;stroke:none"
             d="m 0,0 c -2.555,0.896 -5.105,1.801 -7.655,2.722 -3.727,-1.328 -7.521,-2.638 -11.375,-3.935 2.586,-0.53 5.181,-1.05 7.779,-1.554 C -7.459,-1.87 -3.7,-0.948 0,0" /></g><g
           transform="translate(461.0068,427.9282)"
           id="g204"><path
             id="path206"
             style="fill:#246a53;fill-opacity:1;fill-rule:nonzero;stroke:none"
             d="m 0,0 c -3.228,2.427 -6.417,4.748 -9.565,6.947 -5.328,-4.386 -11.066,-8.936 -17.234,-13.646 3.11,-1.98 6.284,-4.039 9.523,-6.171 C -11.086,-8.438 -5.321,-4.147 0,0" /></g><g
           transform="translate(529.4512,350.7451)"
           id="g208"><path
             id="path210"
             style="fill:#184738;fill-opacity:1;fill-rule:nonzero;stroke:none"
             d="M 0,0 C -2.84,-0.41 -5.79,-0.78 -8.824,-1.119 -6.518,-2.23 -4.234,-3.324 -1.98,-4.395 1,-4.548 3.896,-4.651 6.691,-4.709 4.507,-3.179 2.273,-1.601 0,0" /></g><g
           transform="translate(584.2539,320.707)"
           id="g212"><path
             id="path214"
             style="fill:#308d6f;fill-opacity:1;fill-rule:nonzero;stroke:none"
             d="m 0,0 c 2.051,-1.963 4.055,-3.858 5.989,-5.681 1.672,-0.902 3.224,-1.692 4.659,-2.364 -1.766,2.394 -3.601,4.876 -5.5,7.441 C 3.603,-0.536 1.885,-0.336 0,0" /></g><g
           transform="translate(430.959,356.9873)"
           id="g216"><path
             id="path218"
             style="fill:#3e5d73;fill-opacity:1;fill-rule:nonzero;stroke:none"
             d="m 0,0 c -2.478,0.553 -4.946,1.117 -7.394,1.691 -3.827,-1.555 -7.704,-3.098 -11.618,-4.623 2.442,-0.233 4.907,-0.449 7.392,-0.656 C -7.724,-2.417 -3.845,-1.219 0,0" /></g><g
           transform="translate(579.8086,332.9658)"
           id="g220"><path
             id="path222"
             style="fill:#308d6f;fill-opacity:1;fill-rule:nonzero;stroke:none"
             d="m 0,0 c -2.269,-0.381 -4.845,-0.567 -7.687,-0.564 2.464,-2.387 4.908,-4.751 7.309,-7.065 2.676,-0.71 5.093,-1.219 7.2,-1.502 C 4.626,-6.173 2.349,-3.12 0,0" /></g><g
           transform="translate(561.3076,333.084)"
           id="g224"><path
             id="path226"
             style="fill:#246a53;fill-opacity:1;fill-rule:nonzero;stroke:none"
             d="M 0,0 C 1.896,-1.272 3.759,-2.514 5.578,-3.717 7.296,-4.346 8.956,-4.925 10.55,-5.459 8.908,-3.869 7.191,-2.206 5.427,-0.491 3.685,-0.376 1.87,-0.207 0,0" /></g><g
           transform="translate(562.7402,336.4795)"
           id="g228"><path
             id="path230"
             style="fill:#246a53;fill-opacity:1;fill-rule:nonzero;stroke:none"
             d="M 0,0 C -0.035,0.028 -0.065,0.061 -0.099,0.093 -2.281,2.218 -4.52,4.393 -6.792,6.603 -9.434,6.326 -12.233,6.13 -15.198,6.006 -12.756,4.317 -10.352,2.664 -7.986,1.043 -5.176,0.607 -2.519,0.26 0,0" /></g><g
           transform="translate(535.9609,342.3799)"
           id="g232"><path
             id="path234"
             style="fill:#184738;fill-opacity:1;fill-rule:nonzero;stroke:none"
             d="M 0,0 C 1.672,-0.767 3.326,-1.522 4.953,-2.256 6.735,-2.638 8.486,-2.997 10.198,-3.333 8.639,-2.252 7.063,-1.157 5.451,-0.034 3.682,-0.048 1.856,-0.032 0,0" /></g><g
           transform="translate(429.0986,352.6572)"
           id="g236"><path
             id="path238"
             style="fill:#3e5d73;fill-opacity:1;fill-rule:nonzero;stroke:none"
             d="M 0,0 C 1.913,-0.132 3.844,-0.262 5.774,-0.376 8.786,0.253 11.779,0.897 14.76,1.561 12.768,1.966 10.784,2.381 8.806,2.802 5.896,1.857 2.958,0.923 0,0" /></g><g
           transform="translate(354.6182,358.6865)"
           id="g240"><path
             id="path242"
             style="fill:#537c9a;fill-opacity:1;fill-rule:nonzero;stroke:none"
             d="m 0,0 c -3.01,0.656 -5.905,1.333 -8.669,2.028 -5.46,-3.462 -11.06,-6.978 -16.804,-10.546 2.828,-0.341 5.809,-0.648 8.901,-0.919 C -10.921,-6.256 -5.389,-3.109 0,0" /></g><g
           transform="translate(249.9058,302.8369)"
           id="g244"><path
             id="path246"
             style="fill:#92e9cd;fill-opacity:1;fill-rule:nonzero;stroke:none"
             d="M 0,0 C 1,0.309 2.029,0.623 3.065,0.946 6.116,2.492 9.22,4.078 12.373,5.693 11.138,5.47 9.935,5.267 8.753,5.066 5.808,3.362 2.887,1.669 0,0" /></g><g
           transform="translate(332.5625,346.1709)"
           id="g248"><path
             id="path250"
             style="fill:#9fd7e9;fill-opacity:1;fill-rule:nonzero;stroke:none"
             d="m 0,0 c -2.874,0.309 -5.61,0.653 -8.213,1.033 -2.58,-1.596 -5.178,-3.197 -7.809,-4.808 -2.786,-1.704 -5.568,-3.405 -8.347,-5.093 2.681,-0.028 5.487,-0.018 8.411,0.038 C -10.685,-5.945 -5.359,-2.997 0,0" /></g><g
           transform="translate(267.9043,313.2969)"
           id="g252"><path
             id="path254"
             style="fill:#92e9cd;fill-opacity:1;fill-rule:nonzero;stroke:none"
             d="m 0,0 c 1.979,0.405 4.024,0.84 6.133,1.307 4.108,2.139 8.284,4.332 12.52,6.569 C 16.555,7.685 14.532,7.526 12.588,7.406 8.354,4.898 4.156,2.432 0,0" /></g><g
           transform="translate(440.5674,412.8096)"
           id="g256"><path
             id="path258"
             style="fill:#184738;fill-opacity:1;fill-rule:nonzero;stroke:none"
             d="m 0,0 c -3.214,2.103 -6.363,4.138 -9.433,6.086 -5.541,-4.185 -11.406,-8.494 -17.593,-12.933 3.035,-1.666 6.187,-3.401 9.453,-5.191 C -11.389,-7.926 -5.535,-3.91 0,0" /></g><g
           transform="translate(419.5996,398.5171)"
           id="g260"><path
             id="path262"
             style="fill:#315f70;fill-opacity:1;fill-rule:nonzero;stroke:none"
             d="m 0,0 c -3.113,1.705 -6.225,3.413 -9.326,5.118 -5.659,-4.023 -11.575,-8.142 -17.752,-12.359 3.017,-1.374 6.148,-2.762 9.366,-4.163 C -11.557,-7.526 -5.651,-3.722 0,0" /></g><g
           transform="translate(309.9038,333.6807)"
           id="g264"><path
             id="path266"
             style="fill:#bacad7;fill-opacity:1;fill-rule:nonzero;stroke:none"
             d="m 0,0 c -2.566,0.013 -5.058,0.058 -7.445,0.147 -4.981,-3.007 -9.94,-5.98 -14.867,-8.909 2.429,0.24 4.962,0.514 7.6,0.837 C -9.87,-5.341 -4.959,-2.696 0,0" /></g><g
           transform="translate(395.9541,347.9639)"
           id="g268"><path
             id="path270"
             style="fill:#537c9a;fill-opacity:1;fill-rule:nonzero;stroke:none"
             d="M 0,0 C 1.697,0.041 3.403,0.096 5.118,0.156 7.95,0.941 10.789,1.744 13.607,2.559 11.816,2.732 10.034,2.916 8.251,3.1 5.519,2.06 2.76,1.024 0,0" /></g><g
           transform="translate(376.6104,371.6055)"
           id="g272"><path
             id="path274"
             style="fill:#3e5d73;fill-opacity:1;fill-rule:nonzero;stroke:none"
             d="m 0,0 c -3.114,1.012 -6.111,2.034 -8.986,3.057 -5.598,-3.661 -11.377,-7.387 -17.319,-11.179 2.912,-0.682 5.958,-1.349 9.152,-1.99 C -11.272,-6.698 -5.555,-3.325 0,0" /></g><g
           transform="translate(398.2451,384.8291)"
           id="g276"><path
             id="path278"
             style="fill:#2a3e4d;fill-opacity:1;fill-rule:nonzero;stroke:none"
             d="m 0,0 c -3.166,1.383 -6.221,2.749 -9.172,4.097 -5.65,-3.829 -11.504,-7.739 -17.568,-11.724 2.983,-1.022 6.099,-2.044 9.328,-3.059 C -11.406,-7.065 -5.605,-3.501 0,0" /></g><g
           transform="translate(361.1182,340.4971)"
           id="g280"><path
             id="path282"
             style="fill:#9fd7e9;fill-opacity:1;fill-rule:nonzero;stroke:none"
             d="M 0,0 C 1.446,0.156 2.895,0.323 4.356,0.491 7.312,1.495 10.28,2.516 13.25,3.555 11.617,3.561 9.996,3.58 8.394,3.603 5.621,2.399 2.818,1.196 0,0" /></g><g
           transform="translate(396.2744,351.9541)"
           id="g284"><path
             id="path286"
             style="fill:#537c9a;fill-opacity:1;fill-rule:nonzero;stroke:none"
             d="m 0,0 c -2.39,0.279 -4.747,0.582 -7.083,0.882 -3.929,-1.783 -7.761,-3.495 -11.458,-5.131 2.328,-0.001 4.681,0.013 7.054,0.037 C -7.655,-2.835 -3.821,-1.425 0,0" /></g><g
           transform="translate(288.3394,317.9883)"
           id="g288"><path
             id="path290"
             style="fill:#92e9cd;fill-opacity:1;fill-rule:nonzero;stroke:none"
             d="M 0,0 C 1.091,0.274 2.198,0.549 3.312,0.832 6.12,2.108 8.96,3.411 11.829,4.729 10.536,4.56 9.253,4.391 7.992,4.24 5.314,2.811 2.645,1.395 0,0" /></g><g
           transform="translate(305.564,327.168)"
           id="g292"><path
             id="path294"
             style="fill:#bacad7;fill-opacity:1;fill-rule:nonzero;stroke:none"
             d="m 0,0 c 2.047,0.304 4.142,0.632 6.28,0.977 4.036,1.895 8.132,3.836 12.274,5.82 C 16.382,6.708 14.248,6.643 12.149,6.596 8.08,4.365 4.027,2.17 0,0" /></g><g
           transform="translate(346.6777,344.9736)"
           id="g296"><path
             id="path298"
             style="fill:#9fd7e9;fill-opacity:1;fill-rule:nonzero;stroke:none"
             d="m 0,0 c -2.644,0.168 -5.214,0.359 -7.706,0.576 -4.761,-2.68 -9.523,-5.334 -14.276,-7.95 2.536,0.102 5.13,0.239 7.792,0.402 C -9.507,-4.698 -4.772,-2.374 0,0" /></g><g
           transform="translate(341.9663,338.665)"
           id="g300"><path
             id="path302"
             style="fill:#9fd7e9;fill-opacity:1;fill-rule:nonzero;stroke:none"
             d="M 0,0 C 2.273,0.181 4.574,0.38 6.908,0.592 10.853,2.234 14.839,3.917 18.866,5.636 16.499,5.712 14.179,5.805 11.899,5.908 7.92,3.912 3.955,1.943 0,0" /></g><g
           transform="translate(324.96,330.4092)"
           id="g304"><path
             id="path306"
             style="fill:#bacad7;fill-opacity:1;fill-rule:nonzero;stroke:none"
             d="M 0,0 C 1.361,0.25 2.731,0.505 4.115,0.767 7.036,1.934 9.986,3.122 12.965,4.334 11.424,4.225 9.887,4.124 8.367,4.031 5.562,2.674 2.773,1.327 0,0" /></g><g
           transform="translate(206.1265,287.1016)"
           id="g308"><path
             id="path310"
             style="fill:#38a380;fill-opacity:1;fill-rule:nonzero;stroke:none"
             d="m 0,0 c 8.288,0 12.245,-3.209 14.063,-9.305 0.161,-0.535 0,-0.695 -0.481,-0.909 l -0.962,-0.32 c -0.535,-0.108 -0.749,-0.054 -0.91,0.428 C 10.106,-4.813 6.952,-2.3 0,-2.3 c -7.915,0 -11.925,-4.063 -11.925,-10.802 V -26.31 c 0,-6.684 4.171,-10.854 11.925,-10.854 7.166,0 10.213,2.78 11.817,8.074 0.215,0.482 0.428,0.588 0.91,0.428 l 1.016,-0.374 c 0.481,-0.161 0.588,-0.374 0.428,-0.857 -1.818,-6.095 -5.669,-9.572 -14.171,-9.572 -9.305,0 -14.384,5.027 -14.384,13.209 v 13.102 C -14.384,-5.027 -9.465,0 0,0" /></g><g
           transform="translate(240.0786,284.8018)"
           id="g312"><path
             id="path314"
             style="fill:#38a380;fill-opacity:1;fill-rule:nonzero;stroke:none"
             d="m 0,0 c -7.807,0 -11.978,-4.063 -11.978,-10.908 v -13.048 c 0,-6.846 4.171,-10.908 11.978,-10.908 7.701,0 11.872,4.062 11.872,10.908 v 13.048 C 11.872,-4.063 7.701,0 0,0 m 0,2.3 c 9.305,0 14.331,-5.028 14.331,-13.208 v -13.048 c 0,-8.182 -5.026,-13.209 -14.331,-13.209 -9.411,0 -14.438,5.027 -14.438,13.209 v 13.048 C -14.438,-2.728 -9.411,2.3 0,2.3" /></g><g
           transform="translate(264.5127,285.6572)"
           id="g316"><path
             id="path318"
             style="fill:#38a380;fill-opacity:1;fill-rule:nonzero;stroke:none"
             d="m 0,0 v -34.972 h 19.465 c 0.481,0 0.641,-0.161 0.641,-0.64 v -0.964 c 0,-0.534 -0.16,-0.695 -0.641,-0.695 h -21.23 c -0.534,0 -0.695,0.161 -0.695,0.695 L -2.46,0 c 0,0.534 0.161,0.695 0.695,0.695 h 1.123 C -0.16,0.695 0,0.534 0,0" /></g><g
           transform="translate(292.2095,285.6572)"
           id="g320"><path
             id="path322"
             style="fill:#38a380;fill-opacity:1;fill-rule:nonzero;stroke:none"
             d="m 0,0 v -34.972 h 19.464 c 0.482,0 0.642,-0.161 0.642,-0.64 v -0.964 c 0,-0.534 -0.16,-0.695 -0.642,-0.695 H -1.765 c -0.535,0 -0.695,0.161 -0.695,0.695 L -2.46,0 c 0,0.534 0.16,0.695 0.695,0.695 h 1.123 C -0.161,0.695 0,0.534 0,0" /></g><g
           transform="translate(329.9595,284.1602)"
           id="g324"><path
             id="path326"
             style="fill:#38a380;fill-opacity:1;fill-rule:nonzero;stroke:none"
             d="m 0,0 h -0.16 c 0,-0.268 -0.055,-1.229 -0.429,-2.299 L -8.182,-21.282 H 8.127 L 0.535,-2.299 C 0.16,-1.229 0.054,-0.268 0,0 m 15.721,-35.774 h -0.963 c -0.803,0 -1.069,0.107 -1.176,0.588 l -4.76,11.818 H -8.93 l -4.706,-11.818 c -0.161,-0.481 -0.428,-0.588 -1.23,-0.588 h -0.909 c -0.535,0 -0.642,0.267 -0.481,0.642 L -1.444,1.818 C -1.23,2.3 -1.016,2.46 -0.535,2.46 h 1.07 c 0.481,0 0.747,-0.16 0.908,-0.642 l 14.813,-36.95 c 0.16,-0.375 0.053,-0.642 -0.535,-0.642" /></g><g
           transform="translate(367.7075,266.6201)"
           id="g328"><path
             id="path330"
             style="fill:#38a380;fill-opacity:1;fill-rule:nonzero;stroke:none"
             d="M 0,0 H -14.01 V -15.935 H 0 c 5.241,0 8.182,2.782 8.182,8.022 C 8.182,-2.78 5.241,0 0,0 M -0.855,17.434 H -14.01 V 2.247 h 13.155 c 4.973,0 7.807,2.566 7.807,7.647 0,4.972 -2.781,7.54 -7.807,7.54 M 9.465,10.16 C 9.465,5.615 7.54,2.674 3.904,1.391 V 1.284 c 4.385,-0.963 6.845,-4.171 6.845,-9.411 0,-6.524 -4.118,-10.107 -10.642,-10.107 h -15.881 c -0.536,0 -0.696,0.161 -0.696,0.695 v 36.576 c 0,0.534 0.16,0.695 0.696,0.695 h 15.186 c 6.363,0 10.053,-3.369 10.053,-9.572" /></g><g
           transform="translate(430.5986,284.8047)"
           id="g332"><path
             id="path334"
             style="fill:#184738;fill-opacity:1;fill-rule:nonzero;stroke:none"
             d="m 0,0 -13.919,-35.761 c -0.156,-0.469 -0.418,-0.626 -0.887,-0.626 h -0.99 c -0.521,0 -0.728,0.157 -0.887,0.574 L -30.6,0 c -0.157,0.365 -0.053,0.625 0.418,0.625 h 0.989 c 0.782,0 0.991,-0.104 1.147,-0.572 l 11.573,-29.976 c 0.468,-1.304 0.886,-2.814 1.147,-3.492 h 0.156 c 0.261,0.678 0.626,2.138 1.095,3.492 L -2.556,0.053 c 0.158,0.468 0.418,0.572 1.149,0.572 h 0.99 C 0.104,0.625 0.156,0.365 0,0" /></g><g
           transform="translate(458.1719,284.7529)"
           id="g336"><path
             id="path338"
             style="fill:#184738;fill-opacity:1;fill-rule:nonzero;stroke:none"
             d="m 0,0 v -0.938 c 0,-0.47 -0.157,-0.625 -0.678,-0.625 h -19.549 v -14.91 h 17.308 c 0.469,0 0.625,-0.156 0.625,-0.626 v -0.938 c 0,-0.522 -0.156,-0.678 -0.625,-0.678 H -20.227 V -34.093 H 0.052 c 0.469,0 0.677,-0.156 0.677,-0.625 v -0.939 c 0,-0.522 -0.208,-0.678 -0.677,-0.678 h -21.999 c -0.522,0 -0.678,0.156 -0.678,0.678 V 0 c 0,0.521 0.156,0.677 0.678,0.677 H -0.678 C -0.157,0.677 0,0.521 0,0" /></g><g
           transform="translate(492.5742,284.7529)"
           id="g340"><path
             id="path342"
             style="fill:#184738;fill-opacity:1;fill-rule:nonzero;stroke:none"
             d="m 0,0 v -35.657 c 0,-0.522 -0.156,-0.678 -0.626,-0.678 H -1.72 c -0.365,0 -0.521,0.052 -0.729,0.417 L -20.955,-9.54 c -1.722,2.45 -3.129,5.266 -4.223,6.776 h -0.105 c 0,-1.98 0.313,-5.316 0.313,-8.6 v -24.293 c 0,-0.522 -0.156,-0.678 -0.626,-0.678 h -1.042 c -0.521,0 -0.678,0.156 -0.678,0.678 V 0 c 0,0.521 0.157,0.677 0.678,0.677 h 1.042 c 0.418,0 0.626,-0.207 0.73,-0.364 l 17.985,-25.701 c 1.929,-2.761 3.545,-5.681 4.796,-7.455 h 0.105 c 0,2.294 -0.366,5.787 -0.366,9.385 v 23.51 c 0,0.469 0.157,0.625 0.678,0.625 h 1.042 C -0.156,0.677 0,0.521 0,0" /></g><g
           transform="translate(523.9004,284.7529)"
           id="g344"><path
             id="path346"
             style="fill:#184738;fill-opacity:1;fill-rule:nonzero;stroke:none"
             d="m 0,0 v -0.938 c 0,-0.47 -0.156,-0.625 -0.678,-0.625 H -11.99 v -34.094 c 0,-0.522 -0.156,-0.678 -0.625,-0.678 h -1.095 c -0.521,0 -0.677,0.156 -0.677,0.678 V -1.563 H -25.7 c -0.521,0 -0.678,0.155 -0.678,0.625 V 0 c 0,0.521 0.157,0.677 0.678,0.677 H -0.678 C -0.156,0.677 0,0.521 0,0" /></g><g
           transform="translate(542.2998,249.8779)"
           id="g348"><path
             id="path350"
             style="fill:#184738;fill-opacity:1;fill-rule:nonzero;stroke:none"
             d="m 0,0 c 7.611,0 11.312,4.326 11.312,11.052 v 23.823 c 0,0.521 0.157,0.677 0.626,0.677 h 1.147 c 0.469,0 0.625,-0.156 0.625,-0.677 V 11.052 C 13.71,2.972 9.175,-2.241 0,-2.241 c -9.228,0 -13.763,5.213 -13.763,13.293 v 23.823 c 0,0.521 0.158,0.677 0.678,0.677 h 1.096 c 0.468,0 0.625,-0.156 0.625,-0.677 V 11.052 C -11.364,4.326 -7.663,0 0,0" /></g><g
           transform="translate(579.6211,283.1895)"
           id="g352"><path
             id="path354"
             style="fill:#184738;fill-opacity:1;fill-rule:nonzero;stroke:none"
             d="M 0,0 H -12.98 V -16.266 H 0 c 5.212,0 8.34,2.869 8.34,8.081 C 8.34,-2.972 5.317,0 0,0 m 10.843,-8.185 c 0,-5.996 -3.544,-9.591 -9.175,-10.061 1.98,-0.834 3.128,-2.138 4.274,-4.275 l 5.839,-11.573 c 0.261,-0.364 0.157,-0.677 -0.365,-0.677 h -0.99 c -0.834,0 -1.095,0.104 -1.304,0.574 L 3.7,-23.459 c -1.719,3.44 -3.7,4.952 -8.08,4.952 h -8.6 v -15.587 c 0,-0.521 -0.157,-0.677 -0.626,-0.677 h -1.095 c -0.522,0 -0.678,0.156 -0.678,0.677 V 1.563 c 0,0.521 0.156,0.677 0.678,0.677 H 0.261 c 6.567,0 10.582,-3.804 10.582,-10.425" /></g><g
           transform="translate(620.2266,284.7529)"
           id="g356"><path
             id="path358"
             style="fill:#184738;fill-opacity:1;fill-rule:nonzero;stroke:none"
             d="m 0,0 v -0.938 c 0,-0.47 -0.157,-0.625 -0.677,-0.625 h -19.55 v -14.91 h 17.308 c 0.469,0 0.626,-0.156 0.626,-0.626 v -0.938 c 0,-0.522 -0.157,-0.678 -0.626,-0.678 h -17.308 v -15.378 h 20.28 c 0.469,0 0.677,-0.156 0.677,-0.625 v -0.939 c 0,-0.522 -0.208,-0.678 -0.677,-0.678 h -21.998 c -0.523,0 -0.679,0.156 -0.679,0.678 V 0 c 0,0.521 0.156,0.677 0.679,0.677 H -0.677 C -0.157,0.677 0,0.521 0,0" /></g><g
           transform="translate(639.043,286.1602)"
           id="g360"><path
             id="path362"
             style="fill:#184738;fill-opacity:1;fill-rule:nonzero;stroke:none"
             d="M 0,0 C 6.985,0 10.947,-2.555 13.657,-8.079 13.919,-8.55 13.763,-8.81 13.345,-8.967 L 12.303,-9.435 C 11.886,-9.592 11.729,-9.592 11.469,-9.122 9.123,-4.483 5.838,-2.293 0,-2.293 c -6.725,0 -10.634,-2.921 -10.634,-7.924 0,-6.151 5.785,-7.141 11.676,-7.767 6.36,-0.73 12.98,-1.826 12.98,-9.853 0,-6.777 -4.691,-10.635 -13.762,-10.635 -7.297,0 -11.52,2.919 -14.023,9.123 -0.208,0.522 -0.156,0.73 0.366,0.938 l 0.99,0.365 c 0.469,0.157 0.626,0.105 0.886,-0.417 2.242,-5.265 5.943,-7.715 11.781,-7.715 7.508,0 11.364,2.711 11.364,8.237 0,6.151 -5.421,6.933 -11.103,7.611 -6.516,0.781 -13.607,1.876 -13.607,9.956 C -13.086,-4.014 -8.236,0 0,0" /></g><g
           transform="translate(398.0991,269.2275)"
           id="g364"><path
             id="path366"
             style="fill:#7dddf1;fill-opacity:1;fill-rule:nonzero;stroke:none"
             d="m 0,0 c 0,-3.088 -2.503,-5.591 -5.59,-5.591 -3.089,0 -5.592,2.503 -5.592,5.591 0,3.087 2.503,5.59 5.592,5.59 C -2.503,5.59 0,3.087 0,0" /></g><g
           transform="translate(291.3203,176.208)"
           id="g368"><path
             id="path370"
             style="fill:#818d96;fill-opacity:1;fill-rule:nonzero;stroke:none"
             d="m 0,0 h -5.376 v 0.609 c 0.546,0.252 1.106,0.42 1.68,0.504 v 12.453 c -0.28,0.056 -0.56,0.129 -0.84,0.22 -0.28,0.091 -0.56,0.193 -0.84,0.305 V 14.7 H 0 V 14.091 C -0.252,13.979 -0.525,13.877 -0.819,13.786 -1.113,13.695 -1.4,13.622 -1.68,13.566 V 1.113 C -1.386,1.057 -1.092,0.987 -0.798,0.903 -0.504,0.819 -0.238,0.721 0,0.609 Z" /></g><g
           transform="translate(311.9634,176.208)"
           id="g372"><path
             id="path374"
             style="fill:#818d96;fill-opacity:1;fill-rule:nonzero;stroke:none"
             d="m 0,0 h -5.166 v 0.609 c 0.28,0.112 0.56,0.206 0.84,0.284 0.28,0.077 0.567,0.15 0.861,0.22 v 9.45 l 0.084,2.457 H -3.549 L -4.242,10.773 -8.547,0 h -0.546 l -4.095,10.773 -0.756,2.457 h -0.189 l 0.021,-2.667 v -9.45 c 0.266,-0.056 0.532,-0.126 0.798,-0.21 0.266,-0.084 0.532,-0.182 0.798,-0.294 V 0 h -4.389 v 0.609 c 0.266,0.112 0.542,0.213 0.829,0.304 0.287,0.091 0.578,0.165 0.872,0.221 v 12.432 c -0.294,0.056 -0.585,0.129 -0.872,0.22 -0.287,0.091 -0.57,0.193 -0.85,0.305 V 14.7 h 4.305 L -8.967,5.103 -8.253,2.94 h 0.021 l 0.714,2.205 3.78,9.555 H 0.021 V 14.091 C -0.231,13.979 -0.49,13.877 -0.756,13.786 -1.022,13.695 -1.295,13.622 -1.575,13.566 V 1.092 C -1.281,1.036 -1.005,0.97 -0.746,0.893 -0.487,0.815 -0.238,0.721 0,0.609 Z" /></g><g
           transform="translate(319.3872,182.2559)"
           id="g376"><path
             id="path378"
             style="fill:#818d96;fill-opacity:1;fill-rule:nonzero;stroke:none"
             d="M 0,0 H 4.219 L 2.569,4.452 2.172,6.258 H 2.131 L 1.608,4.41 Z m 0.01,-6.048 h -4.662 v 0.61 c 0.504,0.223 1.007,0.391 1.512,0.503 L 2.173,8.904 H 2.782 L 8.095,-4.935 c 0.28,-0.056 0.556,-0.119 0.829,-0.189 0.273,-0.07 0.529,-0.175 0.766,-0.314 v -0.61 H 4.272 v 0.61 c 0.281,0.111 0.568,0.209 0.862,0.293 0.294,0.084 0.58,0.154 0.861,0.21 l -1.421,3.843 h -4.992 l -1.378,-3.843 c 0.588,-0.084 1.19,-0.252 1.806,-0.503 z" /></g><g
           transform="translate(342.8335,177.2158)"
           id="g380"><path
             id="path382"
             style="fill:#818d96;fill-opacity:1;fill-rule:nonzero;stroke:none"
             d="m 0,0 c -0.266,-0.154 -0.578,-0.305 -0.935,-0.451 -0.357,-0.148 -0.734,-0.28 -1.133,-0.4 -0.4,-0.119 -0.799,-0.216 -1.198,-0.294 -0.399,-0.076 -0.773,-0.115 -1.123,-0.115 -1.12,0 -2.128,0.151 -3.024,0.451 -0.896,0.301 -1.659,0.763 -2.289,1.387 -0.63,0.622 -1.117,1.41 -1.46,2.362 -0.343,0.952 -0.514,2.086 -0.514,3.402 0,1.372 0.199,2.541 0.598,3.508 0.399,0.965 0.932,1.753 1.597,2.362 0.664,0.608 1.42,1.05 2.268,1.323 0.846,0.273 1.711,0.409 2.593,0.409 0.924,0 1.704,-0.059 2.342,-0.178 0.636,-0.12 1.193,-0.298 1.669,-0.536 0,-0.209 -0.007,-0.469 -0.021,-0.777 -0.014,-0.307 -0.035,-0.63 -0.063,-0.966 C -0.721,11.151 -0.756,10.818 -0.798,10.489 -0.84,10.16 -0.882,9.87 -0.924,9.618 H -1.47 l -1.092,3.025 c -0.154,0.084 -0.412,0.139 -0.775,0.168 -0.363,0.027 -0.719,0.042 -1.067,0.042 -0.699,0 -1.362,-0.13 -1.99,-0.389 -0.627,-0.26 -1.175,-0.658 -1.643,-1.197 -0.468,-0.539 -0.841,-1.218 -1.12,-2.038 -0.28,-0.818 -0.419,-1.781 -0.419,-2.887 0,-0.994 0.136,-1.89 0.408,-2.688 0.272,-0.798 0.649,-1.48 1.131,-2.048 0.482,-0.566 1.047,-1.004 1.697,-1.312 0.649,-0.308 1.35,-0.462 2.105,-0.462 0.278,0 0.551,0.028 0.816,0.084 0.265,0.056 0.51,0.123 0.733,0.199 0.224,0.077 0.409,0.158 0.555,0.242 0.147,0.084 0.248,0.154 0.304,0.21 V 4.81 C -2.191,4.837 -2.538,4.9 -2.867,4.998 -3.196,5.096 -3.521,5.201 -3.843,5.313 V 5.922 H 1.302 V 5.313 C 1.162,5.215 0.994,5.124 0.798,5.04 0.602,4.956 0.336,4.879 0,4.81 Z" /></g><g
           transform="translate(352.9761,176.208)"
           id="g384"><path
             id="path386"
             style="fill:#818d96;fill-opacity:1;fill-rule:nonzero;stroke:none"
             d="m 0,0 h -5.376 v 0.609 c 0.546,0.252 1.106,0.42 1.68,0.504 v 12.453 c -0.28,0.056 -0.56,0.129 -0.84,0.22 -0.28,0.091 -0.56,0.193 -0.84,0.305 V 14.7 H 0 V 14.091 C -0.252,13.979 -0.525,13.877 -0.819,13.786 -1.113,13.695 -1.4,13.622 -1.68,13.566 V 1.113 C -1.386,1.057 -1.092,0.987 -0.798,0.903 -0.504,0.819 -0.238,0.721 0,0.609 Z" /></g><g
           transform="translate(366.311,190.9082)"
           id="g388"><path
             id="path390"
             style="fill:#818d96;fill-opacity:1;fill-rule:nonzero;stroke:none"
             d="M 0,0 H 4.536 V -0.609 C 3.948,-1.001 3.374,-1.281 2.814,-1.449 V -14.952 H 1.617 l -7.623,11.571 -0.819,1.638 h -0.063 l 0.189,-1.638 v -9.975 c 0.574,-0.155 1.113,-0.399 1.617,-0.735 V -14.7 h -4.536 v 0.609 c 0.252,0.153 0.521,0.29 0.808,0.409 0.287,0.119 0.592,0.228 0.914,0.326 v 12.033 c -0.28,0.112 -0.557,0.231 -0.83,0.357 -0.273,0.126 -0.528,0.252 -0.766,0.378 V 0 h 3.549 l 6.615,-9.976 0.966,-1.805 h 0.084 l -0.105,1.805 v 8.527 C 1.323,-1.323 1.04,-1.19 0.767,-1.05 0.494,-0.91 0.238,-0.764 0,-0.609 Z" /></g><g
           transform="translate(384.1187,190.9082)"
           id="g392"><path
             id="path394"
             style="fill:#818d96;fill-opacity:1;fill-rule:nonzero;stroke:none"
             d="m 0,0 c -0.014,-0.561 -0.039,-1.124 -0.074,-1.69 -0.034,-0.568 -0.087,-1.138 -0.157,-1.712 h -0.546 l -0.861,2.31 h -4.578 v -5.565 h 3.423 l 0.819,1.553 h 0.525 c 0.084,-1.385 0.084,-2.799 0,-4.241 h -0.525 l -0.819,1.596 h -3.423 v -5.859 h 4.83 l 1.029,2.52 h 0.525 c 0.098,-0.588 0.168,-1.183 0.21,-1.785 0.042,-0.603 0.049,-1.211 0.021,-1.827 H -9.954 v 0.609 c 0.49,0.224 1.064,0.392 1.722,0.504 v 12.453 c -0.28,0.056 -0.567,0.129 -0.861,0.22 -0.294,0.091 -0.581,0.192 -0.861,0.305 l 0,0.609 z" /></g><g
           transform="translate(389.3687,177.4053)"
           id="g396"><path
             id="path398"
             style="fill:#818d96;fill-opacity:1;fill-rule:nonzero;stroke:none"
             d="M 0,0 C 0,0.42 0.133,0.756 0.399,1.008 0.665,1.26 1.008,1.386 1.428,1.386 1.861,1.386 2.212,1.26 2.478,1.008 2.744,0.756 2.877,0.42 2.877,0 c 0,-0.406 -0.133,-0.735 -0.399,-0.987 -0.266,-0.252 -0.617,-0.378 -1.05,-0.378 -0.42,0 -0.763,0.126 -1.029,0.378 C 0.133,-0.735 0,-0.406 0,0" /></g><g
           transform="translate(414.9883,177.2158)"
           id="g400"><path
             id="path402"
             style="fill:#818d96;fill-opacity:1;fill-rule:nonzero;stroke:none"
             d="m 0,0 c -0.266,-0.154 -0.578,-0.305 -0.935,-0.451 -0.357,-0.148 -0.734,-0.28 -1.133,-0.4 -0.4,-0.119 -0.799,-0.216 -1.198,-0.294 -0.399,-0.076 -0.773,-0.115 -1.123,-0.115 -1.12,0 -2.128,0.151 -3.024,0.451 -0.896,0.301 -1.659,0.763 -2.289,1.387 -0.63,0.622 -1.117,1.41 -1.46,2.362 -0.343,0.952 -0.514,2.086 -0.514,3.402 0,1.372 0.199,2.541 0.598,3.508 0.399,0.965 0.932,1.753 1.597,2.362 0.664,0.608 1.42,1.05 2.268,1.323 0.846,0.273 1.711,0.409 2.593,0.409 0.924,0 1.704,-0.059 2.342,-0.178 0.636,-0.12 1.193,-0.298 1.669,-0.536 0,-0.209 -0.007,-0.469 -0.021,-0.777 -0.014,-0.307 -0.035,-0.63 -0.063,-0.966 C -0.721,11.151 -0.756,10.818 -0.798,10.489 -0.84,10.16 -0.882,9.87 -0.924,9.618 H -1.47 l -1.092,3.025 c -0.154,0.084 -0.412,0.139 -0.775,0.168 -0.363,0.027 -0.719,0.042 -1.067,0.042 -0.699,0 -1.362,-0.13 -1.99,-0.389 -0.627,-0.26 -1.175,-0.658 -1.643,-1.197 -0.468,-0.539 -0.841,-1.218 -1.12,-2.038 -0.28,-0.818 -0.419,-1.781 -0.419,-2.887 0,-0.994 0.136,-1.89 0.408,-2.688 0.272,-0.798 0.649,-1.48 1.131,-2.048 0.482,-0.566 1.047,-1.004 1.697,-1.312 0.649,-0.308 1.35,-0.462 2.105,-0.462 0.278,0 0.551,0.028 0.816,0.084 0.265,0.056 0.51,0.123 0.733,0.199 0.224,0.077 0.409,0.158 0.555,0.242 0.147,0.084 0.248,0.154 0.304,0.21 V 4.81 C -2.191,4.837 -2.538,4.9 -2.867,4.998 -3.196,5.096 -3.521,5.201 -3.843,5.313 V 5.922 H 1.302 V 5.313 C 1.162,5.215 0.994,5.124 0.798,5.04 0.602,4.956 0.336,4.879 0,4.81 Z" /></g><g
           transform="translate(424.5225,189.9844)"
           id="g404"><path
             id="path406"
             style="fill:#818d96;fill-opacity:1;fill-rule:nonzero;stroke:none"
             d="m 0,0 c -0.336,0 -0.613,-0.008 -0.83,-0.021 -0.217,-0.014 -0.416,-0.042 -0.598,-0.083 v -6.239 h 1.512 c 0.966,0 1.732,0.307 2.299,0.918 0.567,0.612 0.85,1.419 0.85,2.421 0,1.028 -0.3,1.786 -0.903,2.274 C 1.729,-0.244 0.951,0 0,0 m -1.428,-12.663 c 0.322,-0.07 0.629,-0.144 0.924,-0.221 0.293,-0.077 0.58,-0.172 0.86,-0.283 v -0.609 h -5.523 v 0.609 c 0.309,0.14 0.603,0.244 0.883,0.314 0.28,0.071 0.559,0.133 0.84,0.19 V -0.21 c -0.365,0.069 -0.686,0.149 -0.966,0.241 -0.28,0.091 -0.532,0.186 -0.757,0.283 v 0.61 h 1.849 c 0.561,0 1.175,0.027 1.841,0.084 0.667,0.055 1.317,0.084 1.948,0.084 0.687,0 1.33,-0.077 1.925,-0.232 C 2.994,0.706 3.51,0.462 3.944,0.126 4.379,-0.21 4.72,-0.638 4.965,-1.155 c 0.246,-0.519 0.369,-1.142 0.369,-1.869 0,-1.023 -0.271,-1.87 -0.812,-2.541 -0.54,-0.672 -1.274,-1.156 -2.201,-1.45 0.602,-0.952 1.232,-1.896 1.89,-2.835 0.658,-0.937 1.344,-1.869 2.059,-2.793 l 1.142,-0.608 v -0.525 H 4.857 l -0.798,0.588 c -0.393,0.49 -0.749,0.969 -1.071,1.438 -0.322,0.469 -0.623,0.945 -0.903,1.428 -0.28,0.483 -0.543,0.973 -0.788,1.47 -0.244,0.497 -0.493,1.026 -0.745,1.585 h -1.98 z" /></g><g
           transform="translate(436.9326,183.5576)"
           id="g408"><path
             id="path410"
             style="fill:#818d96;fill-opacity:1;fill-rule:nonzero;stroke:none"
             d="M 0,0 C 0,-0.896 0.096,-1.739 0.284,-2.53 0.473,-3.321 0.757,-4.011 1.135,-4.599 1.513,-5.187 1.988,-5.652 2.563,-5.995 3.137,-6.338 3.815,-6.51 4.6,-6.51 c 0.713,0 1.337,0.172 1.869,0.515 0.531,0.343 0.969,0.808 1.312,1.396 0.343,0.588 0.602,1.278 0.778,2.069 C 8.732,-1.739 8.82,-0.896 8.82,0 8.82,0.896 8.729,1.74 8.548,2.531 8.365,3.321 8.086,4.012 7.707,4.6 7.33,5.188 6.854,5.652 6.279,5.996 5.705,6.339 5.026,6.511 4.242,6.511 3.473,6.511 2.818,6.339 2.279,5.996 1.74,5.652 1.303,5.188 0.967,4.6 0.631,4.012 0.386,3.321 0.231,2.531 0.078,1.74 0,0.896 0,0 m -2.246,0 c 0,1.093 0.15,2.104 0.451,3.035 0.301,0.931 0.734,1.736 1.303,2.415 0.566,0.679 1.263,1.207 2.089,1.585 0.825,0.378 1.764,0.568 2.813,0.568 1.051,0 1.988,-0.19 2.815,-0.568 C 8.051,6.657 8.747,6.129 9.314,5.45 9.881,4.771 10.314,3.966 10.616,3.035 10.917,2.104 11.067,1.093 11.067,0 c 0,-1.092 -0.15,-2.104 -0.451,-3.034 C 10.314,-3.965 9.881,-4.771 9.314,-5.449 8.747,-6.128 8.051,-6.656 7.225,-7.034 6.398,-7.413 5.461,-7.602 4.41,-7.602 c -1.049,0 -1.988,0.189 -2.813,0.568 -0.826,0.378 -1.523,0.906 -2.089,1.585 -0.569,0.678 -1.002,1.484 -1.303,2.415 -0.301,0.93 -0.451,1.942 -0.451,3.034" /></g><g
           transform="translate(467.2568,189.7744)"
           id="g412"><path
             id="path414"
             style="fill:#818d96;fill-opacity:1;fill-rule:nonzero;stroke:none"
             d="M 0,0 C -0.294,0.042 -0.588,0.107 -0.882,0.199 -1.176,0.29 -1.484,0.398 -1.806,0.524 v 0.61 H 2.898 V 0.524 C 2.422,0.314 1.918,0.14 1.387,0 l -3.508,-13.566 -1.302,-0.252 -3.381,11.423 -3.317,-11.171 -1.281,-0.252 L -15.119,0 c -0.281,0.069 -0.554,0.146 -0.82,0.23 -0.266,0.084 -0.525,0.182 -0.777,0.294 v 0.61 h 5.46 V 0.524 C -11.521,0.427 -11.795,0.332 -12.074,0.241 -12.355,0.149 -12.656,0.069 -12.979,0 l 2.081,-8.464 0.46,-2.729 h 0.043 l 0.735,2.771 2.836,9.556 h 0.713 l 3.045,-9.556 0.609,-2.729 h 0.042 l 0.483,2.771 z" /></g><g
           transform="translate(472.4023,177.4053)"
           id="g416"><path
             id="path418"
             style="fill:#818d96;fill-opacity:1;fill-rule:nonzero;stroke:none"
             d="M 0,0 C 0,0.42 0.133,0.756 0.399,1.008 0.665,1.26 1.008,1.386 1.428,1.386 1.861,1.386 2.212,1.26 2.478,1.008 2.743,0.756 2.877,0.42 2.877,0 c 0,-0.406 -0.134,-0.735 -0.399,-0.987 -0.266,-0.252 -0.617,-0.378 -1.05,-0.378 -0.42,0 -0.763,0.126 -1.029,0.378 C 0.133,-0.735 0,-0.406 0,0" /></g><g
           transform="translate(491.0078,189.9844)"
           id="g420"><path
             id="path422"
             style="fill:#818d96;fill-opacity:1;fill-rule:nonzero;stroke:none"
             d="m 0,0 c -0.336,0 -0.612,-0.008 -0.829,-0.021 -0.217,-0.014 -0.417,-0.042 -0.599,-0.083 v -6.239 h 1.512 c 0.966,0 1.732,0.307 2.3,0.918 0.566,0.612 0.849,1.419 0.849,2.421 0,1.028 -0.3,1.786 -0.902,2.274 C 1.729,-0.244 0.952,0 0,0 m -1.428,-12.663 c 0.322,-0.07 0.63,-0.144 0.924,-0.221 0.294,-0.077 0.581,-0.172 0.86,-0.283 v -0.609 h -5.522 v 0.609 c 0.308,0.14 0.603,0.244 0.882,0.314 0.28,0.071 0.56,0.133 0.84,0.19 V -0.21 c -0.364,0.069 -0.686,0.149 -0.965,0.241 -0.281,0.091 -0.533,0.186 -0.757,0.283 v 0.61 h 1.849 c 0.56,0 1.174,0.027 1.841,0.084 0.666,0.055 1.316,0.084 1.948,0.084 0.687,0 1.329,-0.077 1.925,-0.232 C 2.994,0.706 3.51,0.462 3.944,0.126 4.38,-0.21 4.72,-0.638 4.966,-1.155 c 0.245,-0.519 0.368,-1.142 0.368,-1.869 0,-1.023 -0.271,-1.87 -0.812,-2.541 -0.54,-0.672 -1.274,-1.156 -2.201,-1.45 0.602,-0.952 1.233,-1.896 1.891,-2.835 0.658,-0.937 1.344,-1.869 2.058,-2.793 l 1.143,-0.608 v -0.525 H 4.857 l -0.797,0.588 c -0.393,0.49 -0.75,0.969 -1.072,1.438 -0.322,0.469 -0.623,0.945 -0.903,1.428 -0.279,0.483 -0.543,0.973 -0.787,1.47 -0.245,0.497 -0.494,1.026 -0.746,1.585 h -1.98 z" /></g><g
           transform="translate(511.2725,190.9082)"
           id="g424"><path
             id="path426"
             style="fill:#818d96;fill-opacity:1;fill-rule:nonzero;stroke:none"
             d="M 0,0 C -0.014,-0.561 -0.039,-1.124 -0.074,-1.69 -0.108,-2.258 -0.161,-2.828 -0.23,-3.402 h -0.547 l -0.862,2.31 h -4.577 v -5.565 h 3.423 l 0.818,1.553 h 0.526 c 0.084,-1.385 0.084,-2.799 0,-4.241 h -0.526 l -0.818,1.596 h -3.423 v -5.859 h 4.829 l 1.03,2.52 h 0.525 c 0.098,-0.588 0.168,-1.183 0.21,-1.785 0.042,-0.603 0.049,-1.211 0.02,-1.827 H -9.954 v 0.609 c 0.49,0.224 1.063,0.392 1.722,0.504 v 12.453 c -0.28,0.056 -0.567,0.129 -0.861,0.22 -0.294,0.091 -0.581,0.192 -0.861,0.305 l 0,0.609 z" /></g><g
           transform="translate(520.8057,189.9844)"
           id="g428"><path
             id="path430"
             style="fill:#818d96;fill-opacity:1;fill-rule:nonzero;stroke:none"
             d="m 0,0 c -0.336,0 -0.608,-0.008 -0.818,-0.021 -0.21,-0.014 -0.413,-0.042 -0.61,-0.084 v -6.804 c 0.071,-0.029 0.172,-0.046 0.305,-0.053 0.133,-0.007 0.273,-0.017 0.42,-0.031 0.146,-0.015 0.291,-0.022 0.431,-0.022 h 0.335 c 0.491,0 0.953,0.067 1.386,0.201 0.434,0.132 0.817,0.345 1.145,0.639 0.329,0.295 0.592,0.665 0.787,1.113 0.197,0.449 0.295,0.988 0.295,1.618 0,1.147 -0.326,2.008 -0.977,2.583 C 2.048,-0.287 1.148,0 0,0 m -1.428,-12.663 c 0.379,-0.042 0.736,-0.109 1.072,-0.2 0.335,-0.091 0.651,-0.193 0.944,-0.304 v -0.609 h -5.754 v 0.609 c 0.28,0.14 0.567,0.244 0.861,0.314 0.295,0.071 0.581,0.133 0.862,0.19 V -0.21 c -0.323,0.056 -0.623,0.129 -0.903,0.22 -0.281,0.091 -0.553,0.192 -0.82,0.304 v 0.61 h 1.891 c 0.559,0 1.169,0.027 1.827,0.084 0.657,0.055 1.288,0.084 1.889,0.084 0.686,0 1.358,-0.073 2.016,-0.221 C 3.115,0.725 3.699,0.476 4.211,0.126 4.723,-0.225 5.135,-0.69 5.45,-1.271 5.766,-1.852 5.922,-2.576 5.922,-3.444 5.922,-4.271 5.762,-4.978 5.439,-5.565 5.117,-6.153 4.688,-6.637 4.148,-7.015 3.609,-7.393 2.996,-7.669 2.311,-7.844 1.625,-8.02 0.918,-8.106 0.189,-8.106 h -0.325 c -0.147,0 -0.304,0.002 -0.472,0.01 -0.168,0.007 -0.33,0.018 -0.484,0.032 -0.154,0.013 -0.265,0.028 -0.336,0.042 z" /></g><g
           transform="translate(540.21,190.9082)"
           id="g432"><path
             id="path434"
             style="fill:#818d96;fill-opacity:1;fill-rule:nonzero;stroke:none"
             d="M 0,0 C -0.014,-0.561 -0.038,-1.124 -0.073,-1.69 -0.107,-2.258 -0.16,-2.828 -0.23,-3.402 h -0.546 l -0.862,2.31 h -4.577 v -5.565 h 3.422 l 0.819,1.553 h 0.525 c 0.085,-1.385 0.085,-2.799 0,-4.241 h -0.525 l -0.819,1.596 h -3.422 v -5.859 h 4.829 l 1.03,2.52 h 0.524 c 0.098,-0.588 0.168,-1.183 0.211,-1.785 0.041,-0.603 0.049,-1.211 0.02,-1.827 H -9.953 v 0.609 c 0.49,0.224 1.063,0.392 1.722,0.504 v 12.453 c -0.281,0.056 -0.568,0.129 -0.861,0.22 -0.295,0.091 -0.582,0.192 -0.861,0.305 l 0,0.609 z" /></g><g
           transform="translate(548.6211,182.2559)"
           id="g436"><path
             id="path438"
             style="fill:#818d96;fill-opacity:1;fill-rule:nonzero;stroke:none"
             d="M 0,0 H 4.22 L 2.569,4.452 2.173,6.258 H 2.131 L 1.608,4.41 Z m 0.01,-6.048 h -4.662 v 0.61 c 0.504,0.223 1.007,0.391 1.512,0.503 L 2.173,8.904 H 2.782 L 8.095,-4.935 c 0.279,-0.056 0.556,-0.119 0.83,-0.189 0.272,-0.07 0.527,-0.175 0.765,-0.314 v -0.61 H 4.272 v 0.61 c 0.281,0.111 0.568,0.209 0.862,0.293 0.294,0.084 0.58,0.154 0.861,0.21 l -1.421,3.843 h -4.992 l -1.378,-3.843 c 0.588,-0.084 1.19,-0.252 1.806,-0.503 z" /></g><g
           transform="translate(568.1611,176.208)"
           id="g440"><path
             id="path442"
             style="fill:#818d96;fill-opacity:1;fill-rule:nonzero;stroke:none"
             d="m 0,0 h -5.901 v 0.609 c 0.307,0.112 0.62,0.21 0.934,0.294 0.315,0.084 0.654,0.154 1.019,0.21 v 12.495 h -3.213 l -1.113,-3.003 h -0.525 c -0.043,0.28 -0.078,0.598 -0.105,0.956 -0.029,0.357 -0.053,0.72 -0.074,1.091 -0.02,0.371 -0.039,0.736 -0.052,1.092 -0.015,0.358 -0.021,0.676 -0.021,0.956 H 3.15 C 3.15,14.42 3.143,14.104 3.129,13.755 3.114,13.405 3.097,13.044 3.075,12.674 3.055,12.303 3.033,11.938 3.012,11.581 2.99,11.225 2.959,10.899 2.916,10.605 H 2.363 L 1.26,13.608 H -1.932 V 1.113 c 0.364,-0.07 0.703,-0.14 1.018,-0.21 C -0.599,0.833 -0.295,0.735 0,0.609 Z" /></g><g
           transform="translate(574.2725,177.4053)"
           id="g444"><path
             id="path446"
             style="fill:#818d96;fill-opacity:1;fill-rule:nonzero;stroke:none"
             d="m 0,0 c 0,0.42 0.133,0.756 0.398,1.008 0.266,0.252 0.61,0.378 1.03,0.378 0.433,0 0.783,-0.126 1.05,-0.378 C 2.743,0.756 2.877,0.42 2.877,0 c 0,-0.406 -0.134,-0.735 -0.399,-0.987 -0.267,-0.252 -0.617,-0.378 -1.05,-0.378 -0.42,0 -0.764,0.126 -1.03,0.378 C 0.133,-0.735 0,-0.406 0,0" /></g></g></g></g></svg>