<?xml version="1.0" encoding="utf-8"?>
<!-- Generator: Adobe Illustrator 26.0.2, SVG Export Plug-In . SVG Version: 6.00 Build 0)  -->
<svg version="1.1" id="Layer_1" xmlns="http://www.w3.org/2000/svg" xmlns:xlink="http://www.w3.org/1999/xlink" x="0px" y="0px"
	 viewBox="0 0 2000 880.3" style="enable-background:new 0 0 2000 880.3;" xml:space="preserve">
<style type="text/css">
	.st0{fill:#562BB9;}
	.st1{fill:#562BB9;}
	.st2{fill:url(#SVGID_1_);}
</style>
<g>
	<rect x="1724.8" y="279.7" class="st0" width="141.8" height="407.2"/>
	<ellipse class="st0" cx="1798" cy="173.4" rx="83" ry="69.4"/>
	<polygon class="st0" points="1477.5,533.6 1396.6,279.7 1252.9,279.7 1388.7,687 1563,687 1702.2,279.7 1547.1,279.7 	"/>
	<path class="st0" d="M1101.8,280c-43.7-0.5-87.6,16.8-117.5,51.1v-51.4H842.5V687h141.8V432.1c0-6.2,2.4-12.2,6.8-16.5
		c6-6,13.1-11.7,21.1-16.1c29.8-16.4,67.6-7.7,87.5,20c0.4,0.5,0.7,1,1.1,1.6c4.5,6.8,6.8,14.8,6.8,22.9V687c0,0,140.3,0,140.3,0
		c0-37.5,0-75,0-112.5c0-49.2,0.2-99.5-0.2-149.1c-0.3-39.8-14.1-78.8-43.9-106.1C1175.5,293.4,1138.7,280.4,1101.8,280z"/>
	<path class="st0" d="M595,275.2c-109.7,0-199.8,81.9-209.9,186.4c8-10.5,19.6-18.1,36.5-12.9v-30.6c0,0-5.7-24.3,33.4-20.9
		c0,0,26,2.8,24.9,47.5c0,0,22.9,5.6,44.3,21.4c6.2-38.3,34.7-67.3,68.9-67.3c38.8,0,70.2,37.1,70.2,82.9
		c0,45.8-31.4,82.9-70.2,82.9c-32.8,0-60.3-26.7-68-62.6c-15.1,73-45.5,114.2-67.1,135.3c36.9,30.8,84.6,49.5,137,49.5
		c116.5,0,210.9-92.2,210.9-205.9S711.5,275.2,595,275.2z"/>
</g>
<g>
	<path class="st1" d="M212.9,390.3c1.5-1.3,3.3-2.2,5.2-2.9c-11,9.2-20.3,20.3-27,33c-12,22.1-16.1,48.3-11.6,72.9
		c3.5,20.2,13.1,39.2,26.7,54.5c21.3,24,53.4,38.1,85.6,37.2c30.5-0.5,60.4-14.3,80.8-36.9c15.4-16.7,25-38.5,28-61
		c0.6-3.8,0.2-7.8,2.1-11.2c2.5-4.5,7.7-7.5,12.9-6.7c5.3,0.5,10,4.8,10.9,10c0.7,3.7-0.1,7.5-0.4,11.2c-2.7,19-8.7,37.7-18.8,54.1
		c-12.2,20.1-29.6,37.1-50.1,48.7c-3.5,1.7-5.2,5.8-4.6,9.5c0.7,4,4.2,7.1,8.1,7.7c3.9,0.2,7-2.4,10.2-4.3
		c25.4-15.5,46.3-38.5,59.1-65.5c15.9-32.9,19.7-71.4,10.3-106.7c-0.8-3.7-2.7-7.6-1.3-11.4c1.7-5.7,8.6-8.9,14.2-6.8
		c2.4,0.7,4.3,2.6,5.2,5c3.7,10.1,5.7,20.6,6.8,31.3c0.9,11.6,1.9,23.2,0.8,34.8c-1.6,18.6-6.3,37-13.3,54.3
		c-5.4,13-12.5,25.2-20.5,36.7c-4.1,5.6,1.2,14.4,8,13.9c2.5-0.3,5.1-1.3,6.7-3.4c22.2-30.3,35.5-67.1,37.4-104.7
		c0-6,5.3-11.4,11.3-11.3c5.6-0.4,10.7,3.9,12,9.3v5.6c-2.3,31.7-11,63.1-26.3,91c-16.4,30-39.8,56.1-68,75.4
		c-31.1,21.7-68,34.7-105.7,38h-29.4c-9.5-2.7-19-5.3-27.9-9.6c-34.6-15-64-41.8-81.8-75.1c-10.6-19.5-17.4-41.1-19.9-63.1
		c-5.5-45.1,8.7-91.8,37.4-126.9C194.9,407.2,204,398.3,213.9,390.3z"/>
</g>
<linearGradient id="SVGID_1_" gradientUnits="userSpaceOnUse" x1="251.218" y1="279.4334" x2="219.1898" y2="629.0745">
	<stop  offset="0" style="stop-color:#562BB9"/>
	<stop  offset="1" style="stop-color:#562BB9"/>
</linearGradient>
<path class="st2" d="M408.6,311.6c-3.2-16.3-14.6-30.8-29.8-37.7c-16.5-7.4-34.1-12.3-51.9-15.5c-10.2-2.4-20.8-2.8-31.2-3.3h-10.3
	c-24.9,0.8-49.8,5.3-73,14.3c-51.6,19.4-95.1,59.3-118.8,109.1c-9.6,19.8-16,41.1-19.4,62.8c-1.7,11.3-2.2,22.7-2.2,34.2v8.5
	c1.2,20.5,4.9,40.9,11.6,60.3c8.9,25.8,22.5,50,40.3,70.8c26.1,31,61.1,54.2,99.7,66.6c16,5.5,32.8,8.4,49.6,10h6.2
	c-9.5-2.7-19-5.3-27.9-9.6c-34.6-15-64-41.8-81.8-75.1c-10.6-19.5-17.4-41.1-19.9-63.1c-5.5-45.1,8.7-91.8,37.4-126.9
	c8-9.8,17.2-18.7,27-26.6c1.5-1.3,3.3-2.2,5.2-2.9c3.7-2.7,7.2-5.7,11.1-8.1c9.7-6.1,20.2-10.9,31.3-13.8
	c20.5-5.2,42.7-5.7,62.9,1.3c5.9,1.9,11.5,4.6,17.5,6.5c12,3.5,25.3,2.8,36.6-2.6c13-5.7,23.4-16.8,28-30.2
	C409.8,331.3,410.6,321.2,408.6,311.6z"/>
</svg>
