<?xml version="1.0" encoding="UTF-8"?>
<svg xmlns="http://www.w3.org/2000/svg" xmlns:xlink="http://www.w3.org/1999/xlink" version="1.1" viewBox="0 0 164.2 241.3">
  <defs>
    <style>
      .cls-1 {
        fill: url(#Sfumatura_senza_nome_110-37);
      }

      .cls-2 {
        fill: url(#Sfumatura_senza_nome_110-38);
      }

      .cls-3 {
        fill: url(#Sfumatura_senza_nome_110-35);
      }

      .cls-4 {
        fill: url(#Sfumatura_senza_nome_110-36);
      }

      .cls-5 {
        fill: url(#Sfumatura_senza_nome_110-31);
      }

      .cls-6 {
        fill: url(#Sfumatura_senza_nome_110-34);
      }

      .cls-7 {
        fill: url(#Sfumatura_senza_nome_110-33);
      }

      .cls-8 {
        fill: url(#Sfumatura_senza_nome_110-30);
      }

      .cls-9 {
        fill: url(#Sfumatura_senza_nome_110-32);
      }

      .cls-10 {
        fill: url(#Sfumatura_senza_nome_110-24);
      }

      .cls-11 {
        fill: url(#Sfumatura_senza_nome_110-22);
      }

      .cls-12 {
        fill: url(#Sfumatura_senza_nome_110-28);
      }

      .cls-13 {
        fill: url(#Sfumatura_senza_nome_110-29);
      }

      .cls-14 {
        fill: url(#Sfumatura_senza_nome_110-20);
      }

      .cls-15 {
        fill: url(#Sfumatura_senza_nome_110-23);
      }

      .cls-16 {
        fill: url(#Sfumatura_senza_nome_110-21);
      }

      .cls-17 {
        fill: url(#Sfumatura_senza_nome_110-15);
      }

      .cls-18 {
        fill: url(#Sfumatura_senza_nome_110-16);
      }

      .cls-19 {
        fill: url(#Sfumatura_senza_nome_110-13);
      }

      .cls-20 {
        fill: url(#Sfumatura_senza_nome_110-14);
      }

      .cls-21 {
        fill: url(#Sfumatura_senza_nome_110-11);
      }

      .cls-22 {
        fill: url(#Sfumatura_senza_nome_110-12);
      }

      .cls-23 {
        fill: url(#Sfumatura_senza_nome_110-10);
      }

      .cls-24 {
        fill: url(#Sfumatura_senza_nome_110-19);
      }

      .cls-25 {
        fill: url(#Sfumatura_senza_nome_110-17);
      }

      .cls-26 {
        fill: url(#Sfumatura_senza_nome_110-18);
      }

      .cls-27 {
        fill: url(#Sfumatura_senza_nome_110-26);
      }

      .cls-28 {
        fill: url(#Sfumatura_senza_nome_110-25);
      }

      .cls-29 {
        fill: url(#Sfumatura_senza_nome_110-27);
      }

      .cls-30 {
        fill: url(#Sfumatura_senza_nome_110-6);
      }

      .cls-31 {
        fill: url(#Sfumatura_senza_nome_110-8);
      }

      .cls-32 {
        fill: url(#Sfumatura_senza_nome_110-7);
      }

      .cls-33 {
        fill: url(#Sfumatura_senza_nome_110-9);
      }

      .cls-34 {
        fill: url(#Sfumatura_senza_nome_110-2);
      }

      .cls-35 {
        fill: url(#Sfumatura_senza_nome_110-4);
      }

      .cls-36 {
        fill: url(#Sfumatura_senza_nome_110-3);
      }

      .cls-37 {
        fill: url(#Sfumatura_senza_nome_110-5);
      }

      .cls-38 {
        fill: url(#Sfumatura_senza_nome_2);
      }

      .cls-39 {
        fill: url(#Sfumatura_senza_nome_2-2);
      }

      .cls-40 {
        fill: url(#Sfumatura_senza_nome_2-3);
      }

      .cls-41 {
        fill: url(#Sfumatura_senza_nome_2-4);
      }

      .cls-42 {
        fill: url(#Sfumatura_senza_nome_110);
      }
    </style>
    <linearGradient id="Sfumatura_senza_nome_2" data-name="Sfumatura senza nome 2" x1="29.5" y1="203.1" x2="54.4" y2="203.1" gradientUnits="userSpaceOnUse">
      <stop offset="0" stop-color="#f3cb5a"/>
      <stop offset="1" stop-color="#ff00a9"/>
    </linearGradient>
    <linearGradient id="Sfumatura_senza_nome_2-2" data-name="Sfumatura senza nome 2" x1="59.9" x2="84" xlink:href="#Sfumatura_senza_nome_2"/>
    <linearGradient id="Sfumatura_senza_nome_2-3" data-name="Sfumatura senza nome 2" x1="87.8" x2="112.4" xlink:href="#Sfumatura_senza_nome_2"/>
    <linearGradient id="Sfumatura_senza_nome_2-4" data-name="Sfumatura senza nome 2" x1="113.5" x2="140.8" xlink:href="#Sfumatura_senza_nome_2"/>
    <linearGradient id="Sfumatura_senza_nome_110" data-name="Sfumatura senza nome 110" x1="15.6" y1="160.7" x2="135.5" y2="40.8" gradientUnits="userSpaceOnUse">
      <stop offset="0" stop-color="#eecc6d"/>
      <stop offset="1" stop-color="#ea31a6"/>
    </linearGradient>
    <linearGradient id="Sfumatura_senza_nome_110-2" data-name="Sfumatura senza nome 110" x1="23.6" y1="168.8" x2="143.5" y2="48.8" xlink:href="#Sfumatura_senza_nome_110"/>
    <linearGradient id="Sfumatura_senza_nome_110-3" data-name="Sfumatura senza nome 110" x1="3.7" y1="148.8" x2="123.6" y2="28.9" xlink:href="#Sfumatura_senza_nome_110"/>
    <linearGradient id="Sfumatura_senza_nome_110-4" data-name="Sfumatura senza nome 110" x1="-14.3" y1="130.8" x2="105.6" y2="10.9" xlink:href="#Sfumatura_senza_nome_110"/>
    <linearGradient id="Sfumatura_senza_nome_110-5" data-name="Sfumatura senza nome 110" x1="-11.3" y1="133.8" x2="108.6" y2="13.9" xlink:href="#Sfumatura_senza_nome_110"/>
    <linearGradient id="Sfumatura_senza_nome_110-6" data-name="Sfumatura senza nome 110" x1="113.2" y1="80.4" x2="113.2" y2="80.4" xlink:href="#Sfumatura_senza_nome_110"/>
    <linearGradient id="Sfumatura_senza_nome_110-7" data-name="Sfumatura senza nome 110" x1="111.9" y1="86.9" x2="111.9" y2="86.9" xlink:href="#Sfumatura_senza_nome_110"/>
    <linearGradient id="Sfumatura_senza_nome_110-8" data-name="Sfumatura senza nome 110" x1="16.2" y1="161.3" x2="136.1" y2="41.4" xlink:href="#Sfumatura_senza_nome_110"/>
    <linearGradient id="Sfumatura_senza_nome_110-9" data-name="Sfumatura senza nome 110" x1="11.1" y1="156.2" x2="131" y2="36.3" xlink:href="#Sfumatura_senza_nome_110"/>
    <linearGradient id="Sfumatura_senza_nome_110-10" data-name="Sfumatura senza nome 110" x1="-1.1" y1="144.1" x2="118.8" y2="24.1" xlink:href="#Sfumatura_senza_nome_110"/>
    <linearGradient id="Sfumatura_senza_nome_110-11" data-name="Sfumatura senza nome 110" x1="25.6" y1="170.7" x2="145.5" y2="50.8" xlink:href="#Sfumatura_senza_nome_110"/>
    <linearGradient id="Sfumatura_senza_nome_110-12" data-name="Sfumatura senza nome 110" x1="37.6" y1="182.7" x2="157.5" y2="62.8" xlink:href="#Sfumatura_senza_nome_110"/>
    <linearGradient id="Sfumatura_senza_nome_110-13" data-name="Sfumatura senza nome 110" x1="24.8" y1="169.9" x2="144.7" y2="50" xlink:href="#Sfumatura_senza_nome_110"/>
    <linearGradient id="Sfumatura_senza_nome_110-14" data-name="Sfumatura senza nome 110" x1="23.6" y1="168.7" x2="143.5" y2="48.8" xlink:href="#Sfumatura_senza_nome_110"/>
    <linearGradient id="Sfumatura_senza_nome_110-15" data-name="Sfumatura senza nome 110" x1="18.2" y1="163.3" x2="138.1" y2="43.4" xlink:href="#Sfumatura_senza_nome_110"/>
    <linearGradient id="Sfumatura_senza_nome_110-16" data-name="Sfumatura senza nome 110" x1="60.7" y1="205.8" x2="180.6" y2="85.9" xlink:href="#Sfumatura_senza_nome_110"/>
    <linearGradient id="Sfumatura_senza_nome_110-17" data-name="Sfumatura senza nome 110" x1="40" y1="185.1" x2="159.9" y2="65.2" xlink:href="#Sfumatura_senza_nome_110"/>
    <linearGradient id="Sfumatura_senza_nome_110-18" data-name="Sfumatura senza nome 110" x1="40.5" y1="185.6" x2="160.4" y2="65.7" xlink:href="#Sfumatura_senza_nome_110"/>
    <linearGradient id="Sfumatura_senza_nome_110-19" data-name="Sfumatura senza nome 110" x1="44.2" y1="189.4" x2="164.2" y2="69.5" xlink:href="#Sfumatura_senza_nome_110"/>
    <linearGradient id="Sfumatura_senza_nome_110-20" data-name="Sfumatura senza nome 110" x1="46.4" y1="191.5" x2="166.3" y2="71.6" xlink:href="#Sfumatura_senza_nome_110"/>
    <linearGradient id="Sfumatura_senza_nome_110-21" data-name="Sfumatura senza nome 110" x1="48.3" y1="193.4" x2="168.2" y2="73.5" xlink:href="#Sfumatura_senza_nome_110"/>
    <linearGradient id="Sfumatura_senza_nome_110-22" data-name="Sfumatura senza nome 110" x1="36.4" y1="181.5" x2="156.3" y2="61.6" xlink:href="#Sfumatura_senza_nome_110"/>
    <linearGradient id="Sfumatura_senza_nome_110-23" data-name="Sfumatura senza nome 110" x1="63.1" y1="208.2" x2="183" y2="88.3" xlink:href="#Sfumatura_senza_nome_110"/>
    <linearGradient id="Sfumatura_senza_nome_110-24" data-name="Sfumatura senza nome 110" x1="20.3" y1="165.4" x2="140.2" y2="45.5" xlink:href="#Sfumatura_senza_nome_110"/>
    <linearGradient id="Sfumatura_senza_nome_110-25" data-name="Sfumatura senza nome 110" x1="7.1" y1="152.3" x2="127.1" y2="32.3" xlink:href="#Sfumatura_senza_nome_110"/>
    <linearGradient id="Sfumatura_senza_nome_110-26" data-name="Sfumatura senza nome 110" x1="-1.8" y1="143.3" x2="118.1" y2="23.4" xlink:href="#Sfumatura_senza_nome_110"/>
    <linearGradient id="Sfumatura_senza_nome_110-27" data-name="Sfumatura senza nome 110" x1="-1.6" y1="143.5" x2="118.3" y2="23.6" xlink:href="#Sfumatura_senza_nome_110"/>
    <linearGradient id="Sfumatura_senza_nome_110-28" data-name="Sfumatura senza nome 110" x1="1.1" y1="146.2" x2="121" y2="26.3" xlink:href="#Sfumatura_senza_nome_110"/>
    <linearGradient id="Sfumatura_senza_nome_110-29" data-name="Sfumatura senza nome 110" x1="36.8" y1="181.9" x2="156.7" y2="62" xlink:href="#Sfumatura_senza_nome_110"/>
    <linearGradient id="Sfumatura_senza_nome_110-30" data-name="Sfumatura senza nome 110" x1="-10.2" y1="134.9" x2="109.7" y2="15" xlink:href="#Sfumatura_senza_nome_110"/>
    <linearGradient id="Sfumatura_senza_nome_110-31" data-name="Sfumatura senza nome 110" x1="-.3" y1="144.8" x2="119.6" y2="24.9" xlink:href="#Sfumatura_senza_nome_110"/>
    <linearGradient id="Sfumatura_senza_nome_110-32" data-name="Sfumatura senza nome 110" x1="56.2" y1="201.4" x2="176.2" y2="81.5" xlink:href="#Sfumatura_senza_nome_110"/>
    <linearGradient id="Sfumatura_senza_nome_110-33" data-name="Sfumatura senza nome 110" x1="-35" y1="110.1" x2="84.9" y2="-9.8" xlink:href="#Sfumatura_senza_nome_110"/>
    <linearGradient id="Sfumatura_senza_nome_110-34" data-name="Sfumatura senza nome 110" x1="12.9" y1="158" x2="132.8" y2="38.1" xlink:href="#Sfumatura_senza_nome_110"/>
    <linearGradient id="Sfumatura_senza_nome_110-35" data-name="Sfumatura senza nome 110" x1="-32.9" y1="112.2" x2="87" y2="-7.7" xlink:href="#Sfumatura_senza_nome_110"/>
    <linearGradient id="Sfumatura_senza_nome_110-36" data-name="Sfumatura senza nome 110" x1="8.9" y1="154" x2="128.8" y2="34.1" xlink:href="#Sfumatura_senza_nome_110"/>
    <linearGradient id="Sfumatura_senza_nome_110-37" data-name="Sfumatura senza nome 110" x1="2.8" y1="147.9" x2="122.7" y2="28" xlink:href="#Sfumatura_senza_nome_110"/>
    <linearGradient id="Sfumatura_senza_nome_110-38" data-name="Sfumatura senza nome 110" x1="54.9" y1="200" x2="174.8" y2="80.1" xlink:href="#Sfumatura_senza_nome_110"/>
  </defs>
  <!-- Generator: Adobe Illustrator 28.6.0, SVG Export Plug-In . SVG Version: 1.2.0 Build 709)  -->
  <g>
    <g id="Livello_1">
      <g>
        <g>
          <path class="cls-38" d="M29.5,219v-31.8h12.1c4.2,0,7.5,1.6,9.8,4.8,2,2.8,3,6.5,3,11.1s-1.3,9.3-3.8,12.2c-2.2,2.5-5.2,3.7-8.9,3.7h-12.1ZM33.5,215.4h7.4c6.3,0,9.5-4.1,9.5-12.3s-3.2-12.3-9.5-12.3h-7.4v24.6Z"/>
          <path class="cls-39" d="M80,204.6h-16.1v14.5h-4v-31.8h4v13.7h16.1v-13.7h4v31.8h-4v-14.5Z"/>
          <path class="cls-40" d="M102.1,190.8v28.2h-4v-28.2h-10.3v-3.6h24.5v3.6h-10.2Z"/>
          <path class="cls-41" d="M133.1,209.5h-12.1l-3.3,9.6h-4.2l11.2-31.8h5.2l11,31.8h-4.4l-3.2-9.6ZM132,206.1l-4.8-14.4-5.1,14.4h9.9Z"/>
        </g>
        <g>
          <path class="cls-42" d="M109.6,89.3h-42.7c-.7,0-1.2-.6-1.2-1.2s.6-1.2,1.2-1.2h42.7c.7,0,1.2.6,1.2,1.2s-.6,1.2-1.2,1.2Z"/>
          <path class="cls-34" d="M112.9,88.2c-.4,0-.8-.2-1-.5-.4-.6-.3-1.3.2-1.8,0,0,.2-.1.2-.2.5-.5,1.3-.4,1.8.1.5.5.4,1.3-.1,1.8-.1.1-.2.2-.4.3-.2.2-.5.3-.8.3ZM115.1,84.5c0,0-.1,0-.2,0-.7,0-1.2-.7-1.1-1.4,0-.1,0-.2,0-.3,0-.7.6-1.2,1.3-1.2.7,0,1.2.6,1.2,1.3,0,.2,0,.3,0,.5,0,.6-.6,1.1-1.2,1.1ZM115.1,80.1c-.7,0-1.2-.6-1.2-1.2v-.4c0-.7.6-1.2,1.2-1.2s1.2.6,1.2,1.2v.4c0,.7-.6,1.2-1.2,1.2ZM115.1,75.7c-.7,0-1.2-.6-1.2-1.2v-.4c0-.7.6-1.2,1.2-1.2s1.2.6,1.2,1.2v.4c0,.7-.6,1.2-1.2,1.2ZM115.1,71.3c-.7,0-1.2-.6-1.2-1.2v-.4c0-.7.6-1.2,1.2-1.2s1.2.6,1.2,1.2v.4c0,.7-.6,1.2-1.2,1.2Z"/>
          <path class="cls-36" d="M115.1,70.9c-.7,0-1.2-.6-1.2-1.2,0-7.5-6.1-13.5-13.5-13.5h-35c-.7,0-1.2-.6-1.2-1.2s.6-1.2,1.2-1.2h35c8.8,0,16,7.2,16,16s-.6,1.2-1.2,1.2Z"/>
          <path class="cls-35" d="M50.7,69.2s0,0-.1,0c-.7,0-1.2-.7-1.1-1.4v-.4c.2-.7.8-1.2,1.5-1.1.7,0,1.2.7,1.1,1.4v.4c-.1.6-.7,1.1-1.3,1.1ZM51.9,65c-.2,0-.3,0-.5-.1-.6-.3-.9-1-.6-1.7l.2-.4c.3-.6,1-.9,1.7-.6.6.3.9,1,.6,1.7l-.2.3c-.2.5-.7.7-1.1.7ZM54.3,61.3c-.3,0-.6-.1-.8-.3-.5-.5-.6-1.2-.1-1.8,0-.1.2-.2.3-.3.5-.5,1.3-.5,1.8,0,.5.5.5,1.3,0,1.8l-.2.3c-.2.3-.6.4-.9.4ZM57.6,58.4c-.4,0-.8-.2-1.1-.6-.4-.6-.2-1.4.4-1.7.1,0,.2-.2.4-.2.6-.4,1.4-.2,1.7.4.4.6.2,1.4-.4,1.7-.1,0-.2.1-.3.2-.2.1-.4.2-.7.2ZM61.6,56.7c-.6,0-1.1-.4-1.2-.9-.2-.7.2-1.4.9-1.5.1,0,.3,0,.4-.1.7-.2,1.3.3,1.5.9.2.7-.3,1.3-.9,1.5h-.4c-.1.1-.2.1-.3.1Z"/>
          <path class="cls-37" d="M50.6,76.9c-.7,0-1.2-.6-1.2-1.2v-6c0-.6,0-1.3.1-1.9,0-.7.7-1.2,1.4-1.1.7,0,1.2.7,1.1,1.4,0,.5,0,1,0,1.6v6c0,.7-.6,1.2-1.2,1.2Z"/>
          <path class="cls-30" d="M113.2,80.4"/>
          <path class="cls-32" d="M111.9,86.9"/>
          <path class="cls-31" d="M109.6,94.7h-42.7c-3.7,0-6.7-3-6.7-6.7s3-6.7,6.7-6.7h38.1c.7,0,1.2.6,1.2,1.2s-.6,1.2-1.2,1.2h-38.1c-2.3,0-4.2,1.9-4.2,4.2s1.9,4.2,4.2,4.2h42.7c5.3,0,9.7-4.3,9.7-9.7v-12.9c0-.7.6-1.2,1.2-1.2s1.2.6,1.2,1.2v12.9c0,6.7-5.5,12.2-12.2,12.2Z"/>
          <path class="cls-33" d="M120.5,70.2c-.7,0-1.2-.5-1.2-1.2v-.4c0-.7.5-1.3,1.2-1.3.7,0,1.3.5,1.3,1.2v.4c0,.7-.5,1.3-1.2,1.3,0,0,0,0,0,0ZM119.9,65.8c-.6,0-1.1-.4-1.2-.9v-.4c-.3-.7.1-1.4.8-1.5.7-.2,1.4.2,1.5.9,0,.1,0,.3.1.4.2.7-.2,1.3-.9,1.5-.1,0-.2,0-.3,0ZM118.3,61.7c-.5,0-.9-.2-1.1-.7l-.2-.3c-.3-.6-.1-1.4.5-1.7.6-.3,1.4-.1,1.7.5,0,.1.1.3.2.4.3.6,0,1.4-.5,1.7-.2,0-.4.1-.6.1ZM115.9,58.1c-.4,0-.7-.2-1-.4l-.2-.3c-.5-.5-.4-1.3.1-1.8.5-.5,1.3-.4,1.8.1l.3.3c.4.5.4,1.3-.2,1.8-.2.2-.5.3-.8.3ZM112.7,55c-.3,0-.5,0-.8-.3l-.3-.2c-.6-.4-.7-1.2-.2-1.8.4-.6,1.2-.7,1.8-.2l.3.3c.5.4.6,1.2.2,1.8-.2.3-.6.5-1,.5ZM109,52.7c-.2,0-.4,0-.5-.1l-.3-.2c-.6-.3-.9-1-.6-1.7.3-.6,1-.9,1.7-.6l.4.2c.6.3.9,1,.6,1.7-.2.5-.7.7-1.1.7ZM104.9,51.3c0,0-.2,0-.3,0h-.4c-.7-.2-1.1-.9-1-1.6.1-.7.8-1.1,1.5-1h.4c.7.2,1.1.9.9,1.6-.1.6-.6,1-1.2,1ZM100.5,50.8h-.4c-.7,0-1.2-.6-1.2-1.3s.6-1.2,1.2-1.2h.4c.7,0,1.2.6,1.2,1.3,0,.7-.6,1.2-1.2,1.2ZM96.1,50.8h-.4c-.7,0-1.2-.6-1.2-1.2s.6-1.2,1.2-1.2h.4c.7,0,1.2.6,1.2,1.2s-.6,1.2-1.2,1.2Z"/>
          <path class="cls-23" d="M50.6,82.3c-3.7,0-6.7-3-6.7-6.7v-6c0-11.8,9.6-21.4,21.4-21.4h22.9c.7,0,1.2.6,1.2,1.2s-.6,1.2-1.2,1.2h-22.9c-10.4,0-18.9,8.5-18.9,18.9v6c0,2.3,1.9,4.2,4.2,4.2s4.2-1.9,4.2-4.2v-6c0-5.8,4.8-10.6,10.6-10.6h35c5.8,0,10.6,4.8,10.6,10.6s-.6,1.2-1.2,1.2-1.2-.6-1.2-1.2c0-4.5-3.6-8.1-8.1-8.1h-35c-4.5,0-8.1,3.6-8.1,8.1v6c0,3.7-3,6.7-6.7,6.7Z"/>
          <path class="cls-21" d="M73.2,167.1h-3.8c-12.9,0-23.4-10.5-23.4-23.4v-36.3c0-4.8,3.9-8.7,8.7-8.7h42.6c.7,0,1.2.6,1.2,1.2s-.6,1.2-1.2,1.2h-42.6c-3.4,0-6.2,2.8-6.2,6.2v36.3c0,11.5,9.4,20.9,20.9,20.9h3.8c1.7,0,3-1.4,3-3v-44.1c0-.7.6-1.2,1.2-1.2s1.2.6,1.2,1.2v44.1c0,3-2.5,5.5-5.5,5.5Z"/>
          <path class="cls-22" d="M71.2,160.1c-.2,0-.4,0-.7-.2-.6-.4-.8-1.1-.4-1.7,0,0,0,0,0-.1.3-.6,1-1,1.6-.7.6.3,1,1,.7,1.6,0,.2-.2.4-.3.5-.2.4-.6.6-1.1.6ZM71.5,156.3c-.7,0-1.2-.6-1.2-1.2v-.4c0-.7.6-1.2,1.2-1.2s1.2.6,1.2,1.2v.4c0,.7-.6,1.2-1.2,1.2ZM71.5,152.4c-.7,0-1.2-.6-1.2-1.2v-.4c0-.7.6-1.2,1.2-1.2s1.2.6,1.2,1.2v.4c0,.7-.6,1.2-1.2,1.2ZM71.5,148.5c-.7,0-1.2-.6-1.2-1.2v-.4c0-.7.6-1.2,1.2-1.2s1.2.6,1.2,1.2v.4c0,.7-.6,1.2-1.2,1.2ZM71.5,144.6c-.7,0-1.2-.6-1.2-1.2v-.4c0-.7.6-1.2,1.2-1.2s1.2.6,1.2,1.2v.4c0,.7-.6,1.2-1.2,1.2ZM71.5,140.7c-.7,0-1.2-.6-1.2-1.2v-.4c0-.7.6-1.2,1.2-1.2s1.2.6,1.2,1.2v.4c0,.7-.6,1.2-1.2,1.2Z"/>
          <path class="cls-19" d="M69.4,161.1c-9.6,0-17.4-7.8-17.4-17.4v-36.3c0-1.5,1.2-2.7,2.7-2.7h15.2c1.5,0,2.7,1.2,2.7,2.7v31.6c0,.7-.6,1.2-1.2,1.2s-1.2-.6-1.2-1.2v-31.6c0-.1-.1-.2-.2-.2h-15.2c-.1,0-.2.1-.2.2v36.3c0,8.2,6.7,14.9,14.9,14.9s1.2.6,1.2,1.2-.6,1.2-1.2,1.2Z"/>
          <path class="cls-20" d="M62.3,150.9c-2,0-4-1.3-4.2-3.8,0-.3,0-.6,0-.8v-34.3c0-.7.6-1.2,1.2-1.2s1.2.6,1.2,1.2v34.3c0,.2,0,.4,0,.6.1,1.5,1.6,1.5,1.8,1.5.2,0,1.8-.1,1.8-1.7v-21.2c0-.7.6-1.2,1.2-1.2s1.2.6,1.2,1.2v21.2c0,2.7-2.1,4.1-4.2,4.2,0,0-.1,0-.2,0Z"/>
          <path class="cls-17" d="M65.5,121.4c-.7,0-1.2-.6-1.2-1.2v-.4c0-.7.6-1.2,1.2-1.2s1.2.6,1.2,1.2v.4c0,.7-.6,1.2-1.2,1.2ZM65.5,117.5c-.7,0-1.2-.6-1.2-1.2v-.4c0-.7.6-1.2,1.2-1.2s1.2.6,1.2,1.2v.4c0,.7-.6,1.2-1.2,1.2ZM65.5,113.6c-.7,0-1.2-.6-1.2-1.2v-.4c0-.7.6-1.2,1.2-1.2s1.2.6,1.2,1.2v.4c0,.7-.6,1.2-1.2,1.2Z"/>
          <path class="cls-18" d="M94.6,167.1h-.4c-.7,0-1.2-.6-1.2-1.2s.6-1.2,1.2-1.2h.4c.7,0,1.2.6,1.2,1.2s-.6,1.2-1.2,1.2ZM98.6,167.1c-.7,0-1.2-.5-1.2-1.2,0-.7.5-1.3,1.2-1.3h.4c.7,0,1.3.5,1.3,1.2,0,.7-.5,1.3-1.2,1.3h-.4s0,0,0,0ZM102.9,166.5c-.6,0-1.1-.4-1.2-1-.2-.7.3-1.3.9-1.5h.4c.7-.3,1.3.2,1.5.8.2.7-.2,1.3-.9,1.5h-.4c0,.1-.2.1-.3.1ZM107.1,165.1c-.5,0-.9-.3-1.1-.7-.3-.6,0-1.4.6-1.7l.3-.2c.6-.3,1.4,0,1.7.6s0,1.4-.6,1.7l-.4.2c-.2,0-.3.1-.5.1ZM110.9,162.9c-.4,0-.8-.2-1-.5-.4-.6-.3-1.3.3-1.7l.3-.2c.6-.4,1.3-.3,1.8.2.4.6.3,1.3-.2,1.8-.1,0-.2.2-.3.3-.2.2-.5.2-.7.2ZM114.2,160c-.3,0-.6-.1-.9-.3-.5-.5-.5-1.3,0-1.8l.2-.3c.5-.5,1.2-.6,1.8-.1.5.5.6,1.2.1,1.8,0,.1-.2.2-.3.3-.2.3-.6.4-.9.4ZM116.8,156.5c-.2,0-.4,0-.7-.2-.6-.4-.8-1.1-.4-1.7l.2-.3c.4-.6,1.1-.8,1.7-.4.6.4.8,1.1.4,1.7l-.2.4c-.2.4-.6.6-1.1.6ZM118.7,152.6c-.1,0-.3,0-.4,0-.6-.2-1-1-.7-1.6v-.4c.4-.7,1.1-1,1.7-.8.7.2,1,.9.8,1.6v.4c-.3.5-.8.8-1.3.8ZM119.8,148.3c0,0-.1,0-.2,0-.7-.1-1.2-.7-1.1-1.4v-.4c.1-.7.8-1.2,1.5-1.1.7,0,1.2.7,1.1,1.4v.4c-.2.6-.7,1.1-1.3,1.1Z"/>
          <path class="cls-25" d="M89.9,164.2c-.7,0-1.2-.6-1.2-1.2v-55.4c0-.7.6-1.2,1.2-1.2s1.2.6,1.2,1.2v55.4c0,.7-.6,1.2-1.2,1.2Z"/>
          <path class="cls-26" d="M120.1,136.1c-.7,0-1.2-.6-1.2-1.2v-27.3c0-3.4-2.8-6.2-6.2-6.2h-15.2c-.7,0-1.2-.6-1.2-1.2s.6-1.2,1.2-1.2h15.2c4.8,0,8.7,3.9,8.7,8.7v27.3c0,.7-.6,1.2-1.2,1.2Z"/>
          <path class="cls-24" d="M97.9,161.1c-1.8,0-3.3-1.5-3.3-3.3v-50.3c0-1.5,1.2-2.7,2.7-2.7h15.2c1.5,0,2.7,1.2,2.7,2.7v36.3c0,9.6-7.8,17.4-17.4,17.4ZM97.4,107.3c-.1,0-.2.1-.2.2v50.3c0,.4.4.8.8.8,8.2,0,14.9-6.7,14.9-14.9v-36.3c0-.1-.1-.2-.2-.2h-15.2Z"/>
          <path class="cls-14" d="M108.1,149c-.7,0-1.2-.6-1.2-1.2v-35.7c0-.7.6-1.2,1.2-1.2s1.2.6,1.2,1.2v35.7c0,.7-.6,1.2-1.2,1.2Z"/>
          <path class="cls-16" d="M101.9,154.6c-.7,0-1.2-.6-1.2-1.2v-27.3c0-.7.6-1.2,1.2-1.2s1.2.6,1.2,1.2v27.3c0,.7-.6,1.2-1.2,1.2Z"/>
          <path class="cls-11" d="M101.9,121.4c-.7,0-1.2-.6-1.2-1.2v-.4c0-.7.6-1.2,1.2-1.2s1.2.6,1.2,1.2v.4c0,.7-.6,1.2-1.2,1.2ZM101.9,117.5c-.7,0-1.2-.6-1.2-1.2v-.4c0-.7.6-1.2,1.2-1.2s1.2.6,1.2,1.2v.4c0,.7-.6,1.2-1.2,1.2ZM101.9,113.6c-.7,0-1.2-.6-1.2-1.2v-.4c0-.7.6-1.2,1.2-1.2s1.2.6,1.2,1.2v.4c0,.7-.6,1.2-1.2,1.2Z"/>
          <path class="cls-15" d="M126.4,171.8c-.3,0-.7-.1-.9-.4-.5-.5-.5-1.3,0-1.8,3.6-3.4,5.5-8,5.5-12.8v-30.7c0-2.9-2.3-5.2-5.2-5.2s-1.2-.6-1.2-1.2.6-1.2,1.2-1.2c4.2,0,7.7,3.4,7.7,7.7v30.7c0,5.6-2.2,10.8-6.3,14.6-.2.2-.6.3-.9.3Z"/>
          <path class="cls-10" d="M41.7,171.5c-.3,0-.6-.1-.9-.4-3.8-3.8-6-8.9-6-14.3v-30.7c0-4.2,3.4-7.7,7.7-7.7s1.2.6,1.2,1.2-.6,1.2-1.2,1.2c-2.9,0-5.2,2.3-5.2,5.2v30.7c0,4.7,1.9,9.2,5.2,12.5.5.5.5,1.3,0,1.8s-.6.4-.9.4Z"/>
          <path class="cls-28" d="M110.2,79.6h-42c-4.2,0-7.7-3.6-7.7-7.9s3.4-7.9,7.7-7.9h31.5c.7,0,1.2.6,1.2,1.2s-.6,1.2-1.2,1.2h-31.5c-2.8,0-5.2,2.4-5.2,5.4s2.3,5.4,5.2,5.4h39.5c-.5-3.9-4-4.2-4.1-4.2l-34.6-.2c-.7,0-1.2-.6-1.2-1.3,0-.7.6-1.2,1.2-1.2h0l34.7.2c2.4.1,6.8,2,6.6,8v1.2Z"/>
          <g>
            <path class="cls-27" d="M60.9,81.8c-.5,0-1-.3-1.2-.8-.2-.6,0-1.4.7-1.6.1,0,.2,0,.2,0,.7-.2,1.4.1,1.6.8.2.7-.1,1.4-.8,1.6h-.1c-.1.1-.3.1-.5.1Z"/>
            <path class="cls-29" d="M54.5,90.4c-.7,0-1.2-.6-1.2-1.2v-.3c0-.7.6-1.3,1.2-1.3s1.2.5,1.2,1.2v.4c0,.7-.6,1.2-1.2,1.2ZM55.2,86.7c-.2,0-.4,0-.5-.1-.6-.3-.9-1-.6-1.7,0-.1.1-.2.2-.4.3-.6,1.1-.8,1.7-.5.6.3.8,1.1.5,1.7,0,0,0,.2-.1.3-.2.4-.7.7-1.1.7ZM57.6,83.7c-.4,0-.7-.2-1-.4-.4-.5-.4-1.3.2-1.8,0,0,.2-.2.3-.2.5-.4,1.3-.3,1.8.2.4.5.3,1.3-.2,1.8l-.2.2c-.2.2-.5.3-.8.3Z"/>
            <path class="cls-12" d="M54.5,94.1c-.7,0-1.2-.6-1.2-1.2h0v-.2c0-.7.6-1.2,1.2-1.2s1.2.6,1.2,1.2v.2c0,.7-.6,1.2-1.2,1.2Z"/>
          </g>
          <path class="cls-13" d="M83.5,168.3c-.7,0-1.2-.6-1.2-1.2v-56.5c0-1-.8-1.8-1.7-1.8s-1.7.8-1.7,1.8-.6,1.2-1.2,1.2-1.2-.6-1.2-1.2c0-2.4,1.9-4.3,4.2-4.3s4.2,1.9,4.2,4.3v56.5c0,.7-.6,1.2-1.2,1.2Z"/>
          <path class="cls-8" d="M101.9,45.1c-.7,0-1.2-.6-1.2-1.2,0-5.8-3.9-10.5-8.7-10.5h-16.6c-4.8,0-8.7,4.7-8.7,10.5s-.6,1.2-1.2,1.2-1.2-.6-1.2-1.2c0-7.2,5-13,11.2-13h16.6c6.2,0,11.2,5.8,11.2,13s-.6,1.2-1.2,1.2Z"/>
          <path class="cls-5" d="M19.3,140.2c-.7,0-1.2-.6-1.2-1.2v-17.8c0-13.6,11.1-24.7,24.7-24.7s1.2.6,1.2,1.2-.6,1.2-1.2,1.2c-12.2,0-22.2,10-22.2,22.2v17.8c0,.7-.6,1.2-1.2,1.2Z"/>
          <path class="cls-9" d="M151,140.2c-.7,0-1.2-.6-1.2-1.2v-17.8c0-12.2-10-22.2-22.2-22.2s-1.2-.6-1.2-1.2.6-1.2,1.2-1.2c13.6,0,24.7,11.1,24.7,24.7v17.8c0,.7-.6,1.2-1.2,1.2Z"/>
          <path class="cls-7" d="M44,54.2c-9.4,0-17.1-7.7-17.1-17.1v-12c0-.7.6-1.2,1.2-1.2s1.2.6,1.2,1.2v12c0,8.1,6.6,14.6,14.6,14.6s1.2.6,1.2,1.2-.6,1.2-1.2,1.2Z"/>
          <path class="cls-6" d="M120.8,54.2c-.7,0-1.2-.6-1.2-1.2s.6-1.2,1.2-1.2c8.1,0,14.6-6.6,14.6-14.6v-12c0-.7.6-1.2,1.2-1.2s1.2.6,1.2,1.2v12c0,9.4-7.7,17.1-17.1,17.1Z"/>
          <path class="cls-3" d="M46.8,48.6c-6.6,0-11.9-5.4-11.9-11.9v-8.1c0-.7.6-1.2,1.2-1.2s1.2.6,1.2,1.2v8.1c0,5.2,4.2,9.4,9.4,9.4s1.2.6,1.2,1.2-.6,1.2-1.2,1.2Z"/>
          <path class="cls-4" d="M117.3,48.6c-.7,0-1.2-.6-1.2-1.2s.6-1.2,1.2-1.2c5.2,0,9.4-4.2,9.4-9.4v-8.1c0-.7.6-1.2,1.2-1.2s1.2.6,1.2,1.2v8.1c0,6.6-5.4,11.9-11.9,11.9Z"/>
          <path class="cls-1" d="M26,136.1c-.7,0-1.2-.6-1.2-1.2v-13.1c0-10.2,8.3-18.5,18.5-18.5s1.2.6,1.2,1.2-.6,1.2-1.2,1.2c-8.8,0-16,7.2-16,16v13.1c0,.7-.6,1.2-1.2,1.2Z"/>
          <path class="cls-2" d="M143.9,136.1c-.7,0-1.2-.6-1.2-1.2v-13.1c0-8.8-7.2-16-16-16s-1.2-.6-1.2-1.2.6-1.2,1.2-1.2c10.2,0,18.5,8.3,18.5,18.5v13.1c0,.7-.6,1.2-1.2,1.2Z"/>
        </g>
      </g>
    </g>
  </g>
</svg>