<?xml version="1.0" encoding="UTF-8"?>
<svg id="Layer_1" data-name="Layer 1" xmlns="http://www.w3.org/2000/svg" xmlns:xlink="http://www.w3.org/1999/xlink" version="1.1" viewBox="0 0 1131 502">
  <defs>
    <style>
      .cls-1 {
        fill: url(#linear-gradient);
        fill-rule: evenodd;
      }

      .cls-1, .cls-2 {
        stroke-width: 0px;
      }

      .cls-2 {
        fill: #231f20;
      }
    </style>
    <linearGradient id="linear-gradient" x1="892.3" y1="39.3" x2="648.6" y2="461.4" gradientUnits="userSpaceOnUse">
      <stop offset="0" stop-color="#ff003c"/>
      <stop offset=".3" stop-color="#c60072"/>
      <stop offset=".7" stop-color="#2900d6"/>
      <stop offset="1" stop-color="#30c"/>
    </linearGradient>
  </defs>
  <path class="cls-1" d="M966.3,395.4c-72.7,98.4-209.3,128.6-317.7,66-29.9-17.3-54.7-39.9-74-66h47.6c37.7,38.4,90.1,62.3,148.2,62.3s110.6-23.9,148.2-62.3h47.7ZM966.4,105.3c-19.3-26.1-44.2-48.7-74-66-108.4-62.6-245-32.4-317.7,66h47.5c37.7-38.5,90.2-62.4,148.3-62.4s110.6,23.9,148.3,62.4h47.7Z"/>
  <path class="cls-2" d="M6.8,135.7h175.8v29.2H38.8v72h132.9v27.6H38.8v80h146.3v28.4H6.8v-237.1Z"/>
  <path class="cls-2" d="M200.2,135.7h33.1v208.7h121.4v28.4h-154.5v-237.1Z"/>
  <path class="cls-2" d="M394.9,135.7v146.6c0,17.2,3.3,31.5,10,43,9.9,17.2,26.5,25.8,49.9,25.8s47.1-9.3,57.2-27.9c5.4-10.1,8.1-23.7,8.1-40.9v-146.6h33.1v133.2c0,29.2-4,51.6-12.1,67.3-14.8,28.6-42.7,43-83.7,43s-68.9-14.3-83.5-43c-8.1-15.7-12.1-38.2-12.1-67.3v-133.2h33.1,0Z"/>
  <path class="cls-2" d="M593.9,135.7l69.5,201.9,69-201.9h36.8l-88.6,237.1h-34.8l-88.2-237.1h36.3Z"/>
  <path class="cls-2" d="M843.9,135.7h33.1v237.1h-33.1v-237.1Z"/>
  <path class="cls-2" d="M1101.2,169.6c16.1,21,24.1,47.8,24.1,80.5s-9.2,64.8-27.6,88.3c-21.6,27.5-52.3,41.3-92.2,41.3s-66.6-12-87.9-36.1c-19-23.2-28.5-52.6-28.5-88.1s8.1-59.5,24.4-82.3c20.9-29.3,51.8-43.9,92.7-43.9s74.5,13.5,95,40.3ZM1072.3,320.6c13-20.3,19.4-43.6,19.4-70s-7.5-50.3-22.4-67.3c-14.9-17-35.4-25.5-61.3-25.5s-45.6,8.4-61.5,25.3c-15.9,16.8-23.8,41.7-23.8,74.5s6.8,48.4,20.4,66.4c13.6,18,35.7,27,66.2,27s50-10.1,62.9-30.4Z"/>
  <path class="cls-2" d="M776.5,377c12.8,0,23.2-10.2,23.2-22.7s-10.4-22.7-23.2-22.7-23.2,10.2-23.2,22.7,10.4,22.7,23.2,22.7Z"/>
</svg>