<?xml version="1.0" encoding="UTF-8"?>
<svg id="Layer_1" data-name="Layer 1" xmlns="http://www.w3.org/2000/svg" version="1.1" viewBox="0 0 819.4 1058.8">
  <defs>
    <style>
      .cls-1 {
        fill: #000;
        stroke-width: 0px;
      }
    </style>
  </defs>
  <g id="LAB">
    <g>
      <polygon class="cls-1" points="190.9 488.6 232.6 488.6 232.6 468.6 190.9 468.6 190.9 451.3 235.5 451.3 235.5 431.3 170.1 431.3 170.1 529.4 237 529.4 237 509.3 190.9 509.3 190.9 488.6"/>
      <path class="cls-1" d="M465,431.3l-22.3,35.4-22.3-35.4h-92.8v20h28.8v57.9h-30.6c1.6-2,2.9-4.1,4.1-6.3,3.6-7,5.5-15,5.5-23.7s-1.3-13.9-3.7-19.9c-2.5-6.1-6-11.5-10.4-15.9-4.4-4.5-9.7-8-15.8-10.5-6-2.5-12.6-3.7-19.5-3.7s-13.6,1.3-19.6,3.7c-6,2.5-11.3,6-15.8,10.5-4.4,4.5-7.9,9.8-10.4,15.9-2.5,6.1-3.7,12.8-3.7,19.9s1.3,13.9,3.7,19.9c2.5,6.1,6,11.5,10.4,15.9,4.4,4.5,9.7,8,15.8,10.5,6,2.5,12.6,3.7,19.6,3.7h91.2v-78h30.9l24.2,36.7v41.3h20.8v-41.1l37.3-56.8s-25.4,0-25.4,0ZM311.8,490.9c-1.3,3.6-3.1,6.8-5.5,9.5s-5.3,4.9-8.7,6.5-7.3,2.4-11.7,2.4-8.4-.8-11.8-2.4c-3.4-1.6-6.4-3.8-8.7-6.5-2.4-2.7-4.3-5.9-5.5-9.5-1.3-3.7-2-7.6-2-11.7s.7-8,2-11.7c1.3-3.6,3.1-6.8,5.5-9.5s5.3-4.9,8.7-6.5,7.4-2.4,11.8-2.4,8.3.8,11.7,2.4c3.4,1.6,6.4,3.8,8.7,6.5,2.4,2.7,4.3,5.9,5.5,9.5,1.3,3.7,2,7.6,2,11.7s-.7,8-2,11.7Z"/>
      <path class="cls-1" d="M564.3,437.3l-34.3,78.8h-35v-78.8h-8v86.1h48.3l9.7-22.9h45.6l9.4,22.9h9l-36.2-86.1h-8.5ZM548.1,493.2l20.1-47.2,19.5,47.2h-39.6Z"/>
      <path class="cls-1" d="M667,491c-.9-2.5-2.2-4.7-4-6.5-1.7-1.8-3.7-3.3-6.1-4.4-2.4-1.1-4.9-1.8-7.8-2v-.2c5.1-1.1,9-3.2,11.5-6.4,2.6-3.2,3.9-7.1,3.9-11.4s-.8-8.8-2.5-11.7c-1.7-3-3.8-5.3-6.4-6.9-2.6-1.7-5.6-2.8-8.9-3.3-3.3-.5-6.6-.8-9.8-.8h-24.8v86.1h27.5c2.9,0,6.1-.3,9.4-1,3.4-.6,6.5-1.9,9.4-3.6,2.9-1.8,5.3-4.2,7.2-7.4,1.9-3.1,2.9-7.2,2.9-12.1-.1-3.1-.6-5.9-1.5-8.4ZM637.9,444.6c2.5,0,4.9.2,7.2.7s4.3,1.3,6,2.5,3.1,2.8,4.1,4.7c1,2,1.5,4.5,1.5,7.5s-.2,2.9-.7,4.6c-.5,1.7-1.5,3.2-2.9,4.7-1.5,1.5-3.5,2.7-6.1,3.7s-6,1.5-10.1,1.5h-16.7v-29.9c0,0,17.7,0,17.7,0ZM659.6,504.7c-.5,1.9-1.6,3.7-3.1,5.4s-3.8,3.1-6.6,4.3c-2.9,1.1-6.7,1.7-11.4,1.7h-18.4v-34.3h19.6c2.5,0,5,.3,7.5,1,2.5.6,4.7,1.7,6.6,3.1,1.9,1.4,3.5,3.3,4.7,5.5,1.2,2.3,1.8,5,1.8,8.1.1,1.6-.2,3.3-.7,5.2Z"/>
    </g>
  </g>
</svg>