<?xml version="1.0" encoding="utf-8"?>
<!-- Generator: Adobe Illustrator 26.3.1, SVG Export Plug-In . SVG Version: 6.00 Build 0)  -->
<svg version="1.1" id="logos" xmlns="http://www.w3.org/2000/svg" xmlns:xlink="http://www.w3.org/1999/xlink" x="0px" y="0px"
	 viewBox="0 0 288 144" style="enable-background:new 0 0 288 144;" xml:space="preserve">
<style type="text/css">
	.st0{fill:#EA961C;}
	.st1{fill:#2B74B7;}
</style>
<g>
	<g id="Full_color_with_tagline">
		<path class="st0" d="M129.64,111.09c0,2.65-2.16,4.81-4.8,4.81H46.66c-2.65,0-4.81-2.16-4.81-4.81V32.91
			c0-2.65,2.16-4.81,4.81-4.81h78.17c2.65,0,4.8,2.16,4.8,4.81v12.21h5.85V32.91c0-5.88-4.78-10.66-10.66-10.66H46.66
			C40.78,22.26,36,27.04,36,32.91v78.17c0,5.88,4.78,10.66,10.66,10.66h78.17c5.88,0,10.66-4.78,10.66-10.66V98.87h-5.85V111.09z"/>
		<polygon class="st1" points="81.03,60.05 81.03,50.91 51.8,50.91 51.8,93.09 81.26,93.09 81.26,84.01 62.17,84.01 62.17,76.16 
			79.27,76.16 79.27,67.61 62.17,67.61 62.17,60.05 		"/>
		<polygon class="st1" points="119.69,50.91 86.59,50.91 86.59,60.05 103.99,60.05 85.72,86.58 85.72,93.09 119.63,93.09 
			119.63,84.01 99.71,84.01 119.69,54.96 		"/>
		<path class="st1" d="M129.76,93.09h11.48c14.23,0,21.61-6.15,21.61-21.03c0-14.23-7.26-21.14-20.79-21.14h-12.3V93.09z
			 M135.21,55.83h7.09c10.48,0,14.82,5.74,14.82,16.22c0,10.6-4.33,16.17-14.82,16.17h-7.09V55.83z"/>
		<path class="st1" d="M191.96,74.99c4.8-2.34,6.97-6.21,6.97-11.48c0-7.61-4.63-12.59-14.64-12.59h-13.71v42.17h5.45v-16.4h6.38
			c1.64,0,2.99-0.12,4.33-0.35l8.61,16.75h5.97L191.96,74.99z M183.7,72.12h-7.67V55.66h8.08c6.44,0,9.31,2.69,9.31,7.97
			C193.43,69.19,190.26,72.12,183.7,72.12z"/>
		<polygon class="st1" points="247.78,50.91 241.81,50.91 229.86,84.94 218.15,50.91 212,50.91 207.78,93.09 212.99,93.09 
			216.27,60.52 227.69,93.09 232.09,93.09 243.51,60.52 246.9,93.09 252,93.09 		"/>
	</g>
	<g>
		<path class="st1" d="M251.97,55.28c0-0.76,0.19-1.48,0.57-2.14c0.38-0.67,0.91-1.19,1.58-1.58c0.67-0.38,1.39-0.58,2.17-0.58
			c0.77,0,1.48,0.19,2.15,0.57c0.67,0.38,1.2,0.9,1.59,1.57s0.58,1.38,0.58,2.15c0,0.75-0.19,1.45-0.56,2.11s-0.89,1.19-1.56,1.58
			c-0.67,0.4-1.4,0.59-2.2,0.59c-0.79,0-1.52-0.2-2.19-0.59c-0.67-0.39-1.19-0.92-1.57-1.58C252.16,56.74,251.97,56.04,251.97,55.28
			z M252.58,55.28c0,0.66,0.17,1.27,0.5,1.85c0.33,0.57,0.79,1.02,1.36,1.35s1.19,0.49,1.85,0.49c0.67,0,1.28-0.17,1.86-0.5
			c0.57-0.33,1.02-0.78,1.36-1.34c0.34-0.57,0.5-1.18,0.5-1.85c0-0.66-0.17-1.28-0.5-1.84s-0.78-1.02-1.35-1.35s-1.19-0.5-1.86-0.5
			c-0.67,0-1.28,0.17-1.86,0.5c-0.57,0.33-1.02,0.78-1.36,1.34C252.74,53.99,252.58,54.61,252.58,55.28z M258.04,54.24
			c0,0.3-0.08,0.57-0.24,0.81c-0.16,0.23-0.39,0.41-0.69,0.52l1.37,2.26h-0.97l-1.19-2.02h-0.78v2.02h-0.85v-5.09h1.5
			c0.64,0,1.1,0.12,1.4,0.37C257.9,53.36,258.04,53.74,258.04,54.24z M255.55,55.11h0.62c0.31,0,0.55-0.08,0.74-0.24
			c0.19-0.16,0.28-0.36,0.28-0.6c0-0.29-0.08-0.49-0.25-0.61c-0.16-0.12-0.43-0.19-0.78-0.19h-0.61V55.11z"/>
	</g>
</g>
</svg>
