<?xml version="1.0" encoding="utf-8"?>
<!-- Generator: Adobe Illustrator 20.1.0, SVG Export Plug-In . SVG Version: 6.00 Build 0)  -->
<svg version="1.1" id="Layer_1" xmlns="http://www.w3.org/2000/svg" xmlns:xlink="http://www.w3.org/1999/xlink" x="0px" y="0px"
	 viewBox="0 0 982.3 283" style="enable-background:new 0 0 982.3 283;" xml:space="preserve">
<style type="text/css">
	.st0{fill:#FCD0B1;}
	.st1{fill:#333333;}
</style>
<g>
	<rect class="st0" width="283" height="283"/>
	<g>
		<path class="st1" d="M73.1,45.6v52.7h15.5c16.8,0,17.6-2.8,18.9-15.9h4.9v38.5h-4.9c-1.3-13.2-2.1-15.7-18.9-15.7H73.1v45.7
			c0,9.3,2.6,11.5,19.8,11.5v5.7H32.3v-5.7c12.5,0,17-0.6,17-10.8V55.8c0-10.2-4.5-10.8-17-10.8v-5.7h80.5c10.8,0,14.7-0.4,18.1-1.1
			v39.7h-5.3c-2.8-27.6-8.3-32.3-32.9-32.3H73.1z"/>
		<path class="st1" d="M240.9,39.2c10.8,0,14.7-0.4,18.1-1.1v39.7h-5.3c-2.8-27.6-8.3-32.3-32.9-32.3h-6.8v105.2
			c0,10,3.8,11.5,19.8,11.5v5.7h-63.5v-5.7c15.9,0,20-1.5,20-11.5V45.6h-6.8c-24.6,0-30.2,4.7-32.9,32.3H145V38.2
			c3.4,0.6,7.2,1.1,18.1,1.1H240.9z"/>
	</g>
</g>
<g>
	<path class="st1" d="M360.3,109.7c0,5.9,1.6,7.3,12.5,7.3v3.6h-37.5V117c7.4,0,9.9-0.7,9.9-7.1V50c0-6.4-2.6-7.1-9.9-7.1v-3.6h51.4
		c6.8,0,9.3-0.3,11.4-0.7l0.4,23h-3.1c-1.7-16.8-5.9-18.3-21.5-18.3h-13.7v33.3h11.1c10.6,0,11.3-1.7,12.1-10.1h3v24.3h-3
		c-0.8-8.3-1.5-9.9-12.1-9.9h-11.1V109.7z"/>
	<path class="st1" d="M406,120.6V117c7.4,0,9.9-0.7,9.9-7.1V50c0-6.4-2.6-7.1-9.9-7.1v-3.6H441v3.6c-7.4,0-9.9,0.7-9.9,7.1v59.9
		c0,6.4,2.6,7.1,9.9,7.1v3.6H406z"/>
	<path class="st1" d="M520.2,122l-55.6-69v56.5c0,6.6,4.6,7.5,12.2,7.5v3.6h-29.5V117c7.7,0,12-0.9,12-7.5V46.8
		c-3.6-3.6-6.2-3.9-12-3.9v-3.6h26.2l42.7,54.9V50.4c0-6.6-4.6-7.5-12.2-7.5v-3.6h29.5v3.6c-7.7,0-12,0.9-12,7.5V122H520.2z"/>
	<path class="st1" d="M560.1,120.6h-29.4V117c7.8,0,11.3-1.1,13.7-7.7l26.6-70.8h7.4l28.6,71.3c2.6,6.3,3.8,7.1,9.5,7.1v3.6h-34.1
		V117c10.5,0,11.4-0.8,8.9-7.1l-8.5-21.6h-25.5l-7.5,20.9c-2.4,6.4,1.3,7.8,10.3,7.8V120.6z M558.9,83.8H581l-11.5-29.1L558.9,83.8z
		"/>
	<path class="st1" d="M693,122l-55.6-69v56.5c0,6.6,4.6,7.5,12.2,7.5v3.6h-28.9V117c7.1,0,11.3-0.9,11.3-7.5V46.9
		c-4-3.8-7.1-4-13.7-4v-3.6h27.9L689,94.2V50.4c0-6.6-4.6-7.5-12.2-7.5v-3.6h29.5v3.6c-7.7,0-12,0.9-12,7.5V122H693z"/>
	<path class="st1" d="M775.5,39.1h2l1.2,24.3l-3.1,0.1c-2-14-9.4-21.2-23-21.2c-15,0-26.6,12.9-26.6,32.8c0,25.4,16,39.7,32.8,39.7
		c7.3,0,13.8-2,20.1-8.9l2.3,2.4C776,115.8,765.8,122,752,122c-20.5,0-41.4-15.4-41.4-41.4c0-25,18.9-42.7,41.9-42.7
		c10.9,0,16.7,4.7,19.6,4.7C773.7,42.6,774.7,41.4,775.5,39.1z"/>
	<path class="st1" d="M787.9,120.6V117c7.4,0,9.9-0.7,9.9-7.1V50c0-6.4-2.6-7.1-9.9-7.1v-3.6h34.9v3.6c-7.4,0-9.9,0.7-9.9,7.1v59.9
		c0,6.4,2.6,7.1,9.9,7.1v3.6H787.9z"/>
	<path class="st1" d="M855.9,120.6h-27.4V117c6,0,9.3-1.1,11.7-7.7l26.6-70.8h7.4l28.6,71.3c2.6,6.3,3.8,7.1,9.5,7.1v3.6h-34.1V117
		c10.5,0,11.4-0.8,8.9-7.1l-8.5-21.6h-25.5l-7.5,20.9c-2.4,6.4,1.3,7.8,10.3,7.8V120.6z M854.7,83.8h22.2l-11.5-29.1L854.7,83.8z"/>
	<path class="st1" d="M917.9,120.6V117c7.4,0,9.9-0.7,9.9-7.1V50c0-6.4-2.6-7.1-9.9-7.1v-3.6h34.8v3.6c-7.4,0-9.8,0.7-9.8,7.1v60.4
		c0,5.4,2.7,6,7.1,6h4.2c15.7,0,20.8-2.3,25.1-20.3l3,0.4l-2.6,24H917.9z"/>
</g>
<g>
	<path class="st1" d="M409,161.6l0.4,24.3h-3.1c-1.7-17.5-5.9-19.6-21.5-19.6h-5v66.5c0,6.3,2.4,7.3,12.5,7.3v3.6h-40.2V240
		c10.1,0,12.6-0.9,12.6-7.3v-66.5h-5c-15.6,0-19.7,2.1-21.5,19.6h-3.1l0.4-24.3c2.1,0.4,4.6,0.7,11.4,0.7h50.5
		C404.4,162.3,406.8,162,409,161.6z"/>
	<path class="st1" d="M416.9,243.7V240c7.4,0,9.9-0.7,9.9-7.1V173c0-6.4-2.6-7.1-9.9-7.1v-3.6h34.9v3.6c-7.4,0-9.9,0.7-9.9,7.1v59.9
		c0,6.4,2.6,7.1,9.9,7.1v3.6H416.9z"/>
	<path class="st1" d="M556.8,162.3v3.6c-7.4,0-10.6,0.4-9.9,6.8l6.3,60.4c0.7,6.2,3.1,6.8,10.3,6.8v3.6h-34.8V240
		c7.3,0,9.8-0.7,9.3-6.8l-6.6-63.5L505.8,245h-1.1l-24.8-75.3l-6.2,63.4c-0.7,6.4,3.8,7,11.1,7v3.6h-27.1V240c7.4,0,9.9-1.2,10.5-7
		l6.2-60.3c0.7-6.4-2.6-6.8-9.9-6.8v-3.6H493l17.2,55.6l18.5-55.6H556.8z"/>
	<path class="st1" d="M621.8,213.8h-3c-0.8-8.3-1.5-9.9-12.1-9.9h-12.4v29.5c0,5.4,2.7,6,7.1,6h6.7c15.7,0,20.8-2.3,25.1-20.3l3,0.4
		l-2.8,24h-64.1V240c7.4,0,9.9-0.7,9.9-7.1V173c0-6.4-2.6-7.1-9.9-7.1v-3.6H631l0.3,20.3h-3.1c-1.9-14.4-5.5-16.1-21.6-16.1h-12.1
		v33.2h12.4c10.6,0,11.3-1.7,12.1-10.1h3V213.8z"/>
	<path class="st1" d="M686.5,226.9c0-7.4-4.7-11.1-12.8-15.6l-12.9-6.7c-9.7-5.2-15.4-10.9-15.4-21.1c0-12.8,10.9-22.6,25.1-22.6
		c9.8,0,14.8,4.7,17.6,4.7c1.9,0,2.7-1.2,3.5-3.5h2.3l1.2,22.8l-3,0.1c-1.6-11-9.5-19.6-20.7-19.6c-8.3,0-14,5-14,12.1
		c0,7.8,5.9,10.9,12.4,14.5L681,198c10.5,5.6,17.9,11.4,17.9,22.3c0,14.4-12.4,24.7-27.9,24.7c-10.9,0-16.2-5.2-19.2-5.2
		c-1.9,0-2.8,1.6-3.6,4.2h-2.3l-1.6-24.3l3-0.4c2.3,15,12.8,21.4,23.2,21.4C679.2,240.6,686.5,236.7,686.5,226.9z"/>
</g>
</svg>
