<?xml version="1.0" encoding="utf-8"?>
<!-- Generator: Adobe Illustrator 27.1.0, SVG Export Plug-In . SVG Version: 6.00 Build 0)  -->
<svg version="1.1" id="Logo" xmlns="http://www.w3.org/2000/svg" xmlns:xlink="http://www.w3.org/1999/xlink" x="0px" y="0px"
	 viewBox="0 0 100 32.6" style="enable-background:new 0 0 100 32.6;" xml:space="preserve">
<style type="text/css">
	.st0{fill-rule:evenodd;clip-rule:evenodd;fill:#002735;}
	.st1{fill:#FB9B28;}
</style>
<polygon id="L" class="st0" points="77.9,0.9 84.7,0.9 84.7,25.5 100,25.5 100,31.6 77.9,31.6 "/>
<path id="Ampersand" class="st1" d="M66.4,32.6l-5.3-5.3c-6.7,9.3-21.3,4.6-21.3-6.8c0-3.9,2-7.6,5.2-9.8C42.5,5.9,46.1-0.1,51.6,0
	c2,0,3.8,0.8,5.2,2.2l1.6,1.6l-1.5,1.5l-1.6-1.6c-1-1-2.3-1.5-3.7-1.5c-2.8-0.1-5.2,2.4-5.2,5.2c0,1.4,0.5,2.7,1.5,3.7l20,20
	L66.4,32.6L66.4,32.6z M46.3,12.5c-5.1,3.2-5.8,10.6-1.5,14.8c4.2,4.3,11.6,3.5,14.8-1.5C59.5,25.7,46.4,12.6,46.3,12.5z"/>
<path id="G" class="st0" d="M0,16.4L0,16.4C0,7.8,6.6,0.9,15.6,0.9c5.4,0,8.6,1.4,11.7,4.1l-4.1,5c-2.3-1.9-4.3-3-7.8-3
	c-4.8,0-8.5,4.2-8.5,9.3v0.1c0,5.4,3.7,9.4,9,9.4c2.4,0,4.5-0.6,6.2-1.8v-4.3h-6.6V14h12.9v13c-3.1,2.6-7.3,4.7-12.7,4.7
	C6.4,31.7,0,25.2,0,16.4"/>
</svg>
