<?xml version="1.0" encoding="UTF-8" standalone="no" ?>
<!DOCTYPE svg PUBLIC "-//W3C//DTD SVG 1.1//EN" "http://www.w3.org/Graphics/SVG/1.1/DTD/svg11.dtd">
<svg xmlns="http://www.w3.org/2000/svg" xmlns:xlink="http://www.w3.org/1999/xlink" version="1.1" width="1024" height="768" viewBox="0 0 1024 768" xml:space="preserve">
<desc>Created with Fabric.js 5.3.0</desc>
<defs>
</defs>
<g transform="matrix(1 0 0 1 512 384)" id="backgroundElement"  >
<rect style="stroke: none; stroke-width: 1; stroke-dasharray: none; stroke-linecap: butt; stroke-dashoffset: 0; stroke-linejoin: miter; stroke-miterlimit: 4; fill: rgb(0,206,119); fill-rule: nonzero; opacity: 1;"  x="-512" y="-384" rx="0" ry="0" width="1024" height="768" />
</g>
<g transform="matrix(1 0 0 1 512.02 384.19)"  >
<g style=""   >
		<g transform="matrix(1 0 0 1 -123.67 -3.8)" id="path31211"  >
<path style="stroke: rgb(0,0,0); stroke-width: 4.175; stroke-dasharray: none; stroke-linecap: butt; stroke-dashoffset: 0; stroke-linejoin: miter; stroke-miterlimit: 2; fill: rgb(0,0,0); fill-rule: nonzero; opacity: 1;"  transform=" translate(-370.89, -379)" d="M 403.17 347.2 Q 397.7592 342.7511 391.386 340.8273 Q 385.1335 338.9035 377.91900000000004 338.9035 Q 369.6224 338.9035 362.288 342.0297 Q 354.9534 345.1559 349.422 350.56669999999997 Q 344.01120000000003 355.97749999999996 340.88500000000005 363.3117 Q 337.75880000000006 370.6463 337.75880000000006 379.06269999999995 Q 337.75880000000006 382.0686999999999 338.1195200000001 384.71399999999994 L 333.0694200000001 384.71399999999994 Q 332.7087000000001 382.0686999999999 332.7087000000001 379.06269999999995 Q 332.7087000000001 369.8041999999999 336.31590000000006 361.62769999999995 Q 339.92310000000003 353.33109999999994 346.05530000000005 347.1987 Q 352.18750000000006 341.06649999999996 360.36430000000007 337.4593 Q 368.6609000000001 333.8521 377.9193000000001 333.8521 Q 394.3923000000001 333.8521 406.7773000000001 344.1931 z M 409.0618 379.905 L 409.0618 420.18499999999995 L 404.0117 424.15289999999993 L 404.0117 384.95489999999995 L 383.93170000000003 384.95489999999995 L 383.93170000000003 379.90479999999997 z" stroke-linecap="round" />
</g>
		<g transform="matrix(1 0 0 1 -38.95 -3.8)" id="path31213"  >
<path style="stroke: rgb(0,0,0); stroke-width: 4.175; stroke-dasharray: none; stroke-linecap: butt; stroke-dashoffset: 0; stroke-linejoin: miter; stroke-miterlimit: 2; fill: rgb(0,0,0); fill-rule: nonzero; opacity: 1;"  transform=" translate(-455.61, -379)" d="M 419.72 333.85 L 468.177 333.85 Q 474.67 334.21072000000004 479.84000000000003 336.856 Q 482.00430000000006 337.9382 484.0484 339.7418 Q 486.21270000000004 341.54540000000003 487.7758 344.1907 Q 489.4592 346.71569999999997 490.4211 350.2027 Q 491.5033 353.6897 491.5033 358.2588 Q 491.5033 362.8279 490.4211 366.3149 Q 489.3389 369.6816 487.5353 372.3269 Q 485.7317 374.8519 483.44710000000003 376.6555 Q 481.1625 378.3389 478.87800000000004 379.421 Q 473.34700000000004 382.0663 466.37300000000005 382.42699999999996 L 488.25700000000006 424.15 L 482.84620000000007 424.15 L 460.96220000000005 382.42699999999996 L 424.77020000000005 382.42699999999996 L 424.77020000000005 424.15 L 419.72010000000006 424.15 z M 424.7701 377.377 L 468.1771 377.377 Q 473.3474 377.13652 477.3153 374.9722 Q 478.9987 374.13052 480.68199999999996 372.80789999999996 Q 482.36539999999997 371.36499999999995 483.5678 369.32089999999994 Q 484.8904 367.2767999999999 485.6119 364.63149999999996 Q 486.45358 361.866 486.45358 358.25879999999995 Q 486.45358 354.6515999999999 485.6119 351.88609999999994 Q 484.89046 349.12059999999997 483.5678 347.07649999999995 Q 482.36539999999997 345.03239999999994 480.68199999999996 343.7098 Q 478.99859999999995 342.26689999999996 477.3153 341.30499999999995 Q 473.3474 339.1406999999999 468.1771 338.9001999999999 L 424.7701 338.9001999999999 z" stroke-linecap="round" />
</g>
		<g transform="matrix(1 0 0 1 46.03 -3.8)" id="path31215"  >
<path style="stroke: rgb(0,0,0); stroke-width: 4.175; stroke-dasharray: none; stroke-linecap: butt; stroke-dashoffset: 0; stroke-linejoin: miter; stroke-miterlimit: 2; fill: rgb(0,0,0); fill-rule: nonzero; opacity: 1;"  transform=" translate(-540.59, -379)" d="M 540.71 424.15 Q 531.4515 424.15 523.2750000000001 420.66299999999995 Q 515.0987000000001 417.0558 508.96600000000007 410.92359999999996 Q 502.95400000000006 404.79139999999995 499.3468000000001 396.61459999999994 Q 495.85980000000006 388.4382999999999 495.85980000000006 379.17959999999994 Q 495.85980000000006 369.9210999999999 499.3468000000001 361.74459999999993 Q 502.8338000000001 353.4479999999999 508.8458000000001 347.31559999999996 Q 514.9780000000001 341.06309999999996 523.1548000000001 337.4559 Q 531.3311000000001 333.8487 540.7098000000001 333.8487 Q 550.0885000000001 333.8487 558.1448 337.4559 Q 566.3211 341.06309999999996 572.3328 347.31559999999996 Q 578.3448 353.4478 581.8318 361.74459999999993 Q 585.3188 369.92089999999996 585.3188 379.17959999999994 Q 585.3188 388.43809999999996 581.8318 396.61459999999994 Q 578.3448000000001 404.79089999999997 572.2126000000001 410.92359999999996 Q 566.2006000000001 417.0558 558.0246000000001 420.66299999999995 Q 549.9685000000001 424.15 540.7096 424.15 z M 540.71 338.9 Q 532.5337000000001 338.9 525.1990000000001 342.1465 Q 517.9846000000001 345.2727 512.5740000000001 350.8038 Q 507.1632000000001 356.2146 504.0370000000001 363.5488 Q 500.9108000000001 370.88340000000005 500.9108000000001 379.05980000000005 Q 500.9108000000001 387.2361000000001 504.0370000000001 394.5708000000001 Q 507.1632000000001 401.7852000000001 512.5740000000001 407.3158000000001 Q 517.9848000000001 412.7266000000001 525.1990000000001 415.9731000000001 Q 532.5336000000001 419.0993000000001 540.71 419.0993000000001 Q 548.8863 419.0993000000001 556.101 415.85280000000006 Q 563.3154 412.60630000000003 568.606 407.19550000000004 Q 574.0168 401.66450000000003 577.143 394.45050000000003 Q 580.2692000000001 387.1159 580.2692000000001 379.0595 Q 580.2692000000001 371.0034 577.143 363.6685 Q 574.0168 356.33389999999997 568.606 350.9235 Q 563.3154 345.3925 556.101 342.146 Q 548.8866 338.89950000000005 540.71 338.8995 z" stroke-linecap="round" />
</g>
		<g transform="matrix(1 0 0 1 133.66 -3.8)" id="path31217"  >
<path style="stroke: rgb(0,0,0); stroke-width: 4.175; stroke-dasharray: none; stroke-linecap: butt; stroke-dashoffset: 0; stroke-linejoin: miter; stroke-miterlimit: 2; fill: rgb(0,0,0); fill-rule: nonzero; opacity: 1;"  transform=" translate(-628.22, -379)" d="M 628.22 424.15 Q 618.12 424.15 611.7470000000001 421.0238 Q 605.3743000000001 417.8976 601.7671 413.2082 Q 598.1599 408.51879999999994 596.717 402.98819999999995 Q 595.3944 397.33689999999996 595.3944 392.2871999999999 L 595.3944 333.8501999999999 L 600.4445000000001 333.8501999999999 L 600.4445000000001 392.2871999999999 Q 600.4445000000001 399.14089999999993 602.3683000000001 404.1911999999999 Q 604.4124 409.2412999999999 608.0196000000001 412.60799999999995 Q 611.6268000000001 415.8545 616.6769 417.53779999999995 Q 621.8472 419.10089999999997 628.2199 419.10089999999997 Q 634.4724000000001 419.10089999999997 639.6429 417.53779999999995 Q 644.8132 415.85439999999994 648.4204000000001 412.48769999999996 Q 652.0276000000001 409.121 653.9514 403.9507 Q 655.9955 398.6601 655.9955 391.4457 L 655.9955 333.85069999999996 L 661.0456 333.85069999999996 L 661.0456 392.2877 Q 661.0456 397.33779999999996 659.6027 402.9887 Q 658.2801000000001 408.5197 654.6729 413.2087 Q 651.0657 417.8981 644.693 421.02430000000004 Q 638.3203 424.1505000000001 628.22 424.1505 z" stroke-linecap="round" />
</g>
		<g transform="matrix(1 0 0 1 201.07 -3.8)" id="path31219"  >
<path style="stroke: rgb(0,0,0); stroke-width: 4.175; stroke-dasharray: none; stroke-linecap: butt; stroke-dashoffset: 0; stroke-linejoin: miter; stroke-miterlimit: 2; fill: rgb(0,0,0); fill-rule: nonzero; opacity: 1;"  transform=" translate(-695.64, -379)" d="M 668.04 424.15 L 668.04 333.84999999999997 L 673.0901 333.84999999999997 L 673.0901 419.09999999999997 L 723.2301 419.09999999999997 L 723.2301 424.15009999999995 z" stroke-linecap="round" />
</g>
		<g transform="matrix(1 0 0 1 264.46 -3.8)" id="path31221"  >
<path style="stroke: rgb(0,0,0); stroke-width: 4.175; stroke-dasharray: none; stroke-linecap: butt; stroke-dashoffset: 0; stroke-linejoin: miter; stroke-miterlimit: 2; fill: rgb(0,0,0); fill-rule: nonzero; opacity: 1;"  transform=" translate(-759.02, -379)" d="M 795.87 424.15 L 790.6997 424.15 L 758.8357 382.186 L 727.2126999999999 424.15 L 722.0423999999999 424.15 L 755.4694 379.05999999999995 L 722.0423999999999 333.84999999999997 L 727.2126999999999 333.84999999999997 L 758.8357 375.93399999999997 L 790.6997 333.84999999999997 L 795.9903 333.84999999999997 L 762.5633 379.05999999999995 z" stroke-linecap="round" />
</g>
		<g transform="matrix(1 0 0 1 -235.6 1.14)" id="icon"  >
<path style="stroke: none; stroke-width: 0.75; stroke-dasharray: none; stroke-linecap: butt; stroke-dashoffset: 0; stroke-linejoin: miter; stroke-miterlimit: 4; fill: rgb(1,1,1); fill-rule: nonzero; opacity: 1;"  transform=" translate(-258.96, -383.94)" d="M 267.56 334.42 C 266.75727 334.411 265.8286 334.42042000000004 265.4958 334.44 C 265.16344999999995 334.4596 264.65677 334.4971 264.3699 334.523 C 264.08342 334.5493 263.61427999999995 334.59810000000004 263.32739999999995 334.63184 C 263.04091999999997 334.66564 262.50591999999995 334.74026000000003 262.13899999999995 334.79822 C 261.77203999999995 334.85572 261.19032999999996 334.9596 260.8462999999999 335.02882 C 260.50226999999995 335.09802 259.9518499999999 335.21897 259.62319999999994 335.29735999999997 C 259.29459999999995 335.37575999999996 258.70332999999994 335.53297 258.30959999999993 335.64639 C 257.91594999999995 335.76024 257.26539999999994 335.96415 256.8637999999999 336.09967 C 256.4626399999999 336.23561 255.8880499999999 336.44203 255.5868999999999 336.55879 C 255.2862399999999 336.67597 254.7608499999999 336.89281 254.4192999999999 337.04084 C 254.07818999999992 337.18888 253.5636199999999 337.42157000000003 253.2758999999999 337.5575 C 252.98816999999988 337.69345 252.4627499999999 337.96074 252.1082999999999 338.15173 C 251.7538499999999 338.34229999999997 251.1917299999999 338.65713 250.8588999999999 338.85146 C 250.5265499999999 339.04578 249.9352799999999 339.41524 249.54529999999988 339.67292999999995 C 249.15539999999987 339.9306399999999 248.65834999999987 340.26965999999993 248.4402999999999 340.42645999999996 C 248.2226299999999 340.58324999999996 247.7626699999999 340.93019999999996 247.4186999999999 341.19746 C 247.0746799999999 341.46517 246.5117299999999 341.92553999999996 246.16769999999988 342.22126 C 245.82366999999988 342.51649999999995 245.15059999999988 343.14322999999996 244.6722999999999 343.61366 C 244.19357999999988 344.08362 243.5876999999999 344.70586 243.3253999999999 344.99566 C 243.06310999999988 345.28589999999997 242.6402699999999 345.77378999999996 242.3854999999999 346.07986 C 242.1311299999999 346.38636 241.6841099999999 346.95601 241.39182999999989 347.34586 C 241.0999299999999 347.73576 240.6850099999999 348.31749 240.4690299999999 348.63856000000004 C 240.2534399999999 348.95965000000007 239.91358999999989 349.48921 239.7142299999999 349.81576000000007 C 239.5144899999999 350.1418500000001 239.2188299999999 350.64436000000006 239.0574499999999 350.9325600000001 C 238.8960799999999 351.22071000000005 238.5870799999999 351.80991000000006 238.3706599999999 352.24196000000006 C 238.1542399999999 352.6739800000001 237.8614999999999 353.28776000000005 237.7205599999999 353.60596000000004 C 237.5791999999999 353.92454000000004 237.3423399999999 354.49336000000005 237.1938799999999 354.87036000000006 C 237.0454299999999 355.2477400000001 236.8214999999999 355.8574300000001 236.6963999999999 356.2255600000001 C 236.5712999999999 356.59377000000006 236.3957399999999 357.1392100000001 236.3069299999999 357.43736000000007 C 236.2177299999999 357.73552000000007 236.06923999999992 358.26806000000005 235.9766599999999 358.62036000000006 C 235.8844599999999 358.9731500000001 235.8031899999999 359.26588000000004 235.7965199999999 359.27130000000005 C 235.7895199999999 359.27630000000005 235.5029599999999 359.17460000000005 235.1589299999999 359.04487000000006 C 234.8149099999999 358.91477000000003 234.3082799999999 358.73129000000006 234.0330299999999 358.6366300000001 C 233.75780999999992 358.5419300000001 233.2795099999999 358.3872600000001 232.9696299999999 358.2926000000001 C 232.6602199999999 358.1979000000001 232.0501299999999 358.02906000000013 231.6144299999999 357.9173000000001 C 231.17866999999993 357.80555000000015 230.49312999999992 357.6470900000001 230.09072999999992 357.5653600000001 C 229.68832999999992 357.4836600000001 228.99402999999992 357.3606100000001 228.54782999999992 357.29223000000013 C 228.10163999999992 357.22423000000015 227.3702299999999 357.1308500000001 226.92322999999993 357.08539000000013 C 226.47620999999992 357.0394900000001 225.67842999999993 356.98031000000015 225.15102999999993 356.95361000000014 C 224.57556999999994 356.92441000000014 223.72492999999994 356.91561000000013 223.02432999999994 356.93111000000016 C 222.38214999999994 356.9453100000002 221.52852999999993 356.98451000000017 221.12692999999993 357.01781000000017 C 220.72577999999993 357.05161000000015 220.14405999999994 357.10871000000014 219.83422999999993 357.14457000000016 C 219.52481999999992 357.18087000000014 218.97105999999994 357.25758000000013 218.60402999999994 357.31554000000017 C 218.23706999999993 357.37354000000016 217.60862999999995 357.48693000000014 217.20702999999995 357.56741000000017 C 216.80587999999995 357.64791000000014 216.12072999999995 357.80510000000015 215.68502999999995 357.91643000000016 C 215.24926999999997 358.02819000000017 214.54912999999996 358.2254300000002 214.12922999999995 358.35512000000017 C 213.70888999999994 358.48481000000015 213.03462999999994 358.7116500000002 212.63052999999994 358.85927000000015 C 212.22645999999995 359.00730000000016 211.64142999999993 359.23331000000013 211.33032999999995 359.36217000000016 C 211.01923999999994 359.4906100000002 210.42874999999995 359.7520700000002 210.01892999999995 359.94305000000014 C 209.60859999999997 360.13404000000014 208.93312999999995 360.4718100000001 208.51772999999994 360.69365000000016 C 208.10197999999994 360.9155000000002 207.46192999999994 361.27703000000014 207.09492999999995 361.49683000000016 C 206.72796999999994 361.7170100000002 206.10875999999996 362.11024000000015 205.71882999999994 362.37088000000017 C 205.32893999999993 362.63192000000015 204.69092999999995 363.08561000000014 204.30102999999994 363.3791800000002 C 203.91113999999993 363.6727400000002 203.32940999999994 364.1327100000002 203.00832999999994 364.40078000000017 C 202.68723999999995 364.66932000000014 202.15265999999994 365.13845000000015 201.81992999999994 365.4432800000002 C 201.48757999999995 365.74811000000017 200.95255999999995 366.2673000000002 200.63152999999994 366.59668000000016 C 200.31043999999994 366.9265300000002 199.88634999999994 367.3739800000002 199.68870999999993 367.5916300000002 C 199.49145999999993 367.80931000000015 199.11824999999993 368.2404900000002 198.86010999999993 368.55028000000016 C 198.60156999999992 368.86012000000017 198.15120999999994 369.43221000000017 197.85890999999992 369.82208000000014 C 197.56658999999993 370.21198000000015 197.14874999999992 370.79371000000015 196.93062999999992 371.11478000000017 C 196.71253999999993 371.4358700000002 196.35642999999993 371.9892100000002 196.13960999999992 372.3449800000002 C 195.92276999999993 372.7002700000002 195.57915999999992 373.2915600000002 195.37610999999993 373.6585800000002 C 195.1734399999999 374.0255400000002 194.8344299999999 374.6823800000002 194.62340999999992 375.1180800000002 C 194.41239999999993 375.5538500000002 194.13176999999993 376.16348000000016 193.9999899999999 376.4732800000002 C 193.8686399999999 376.7827000000002 193.6772399999999 377.2518600000002 193.5746499999999 377.51578000000023 C 193.4724899999999 377.7793200000002 193.3056899999999 378.22968000000026 193.2039399999999 378.51658000000026 C 193.1021999999999 378.80306000000024 192.9086999999999 379.4035300000003 192.7740099999999 379.8509800000003 C 192.63931999999988 380.29801000000026 192.45208999999988 380.9706800000003 192.3582599999999 381.34468000000027 C 192.2644599999999 381.71915000000024 192.12265999999988 382.3479800000003 192.04384999999988 382.74168000000026 C 191.9646499999999 383.13575000000026 191.8524499999999 383.75828000000024 191.7940699999999 384.12528000000026 C 191.7360699999999 384.49224000000027 191.6518699999999 385.12069000000025 191.6064199999999 385.52228000000025 C 191.5609199999999 385.92344000000026 191.5000899999999 386.5522800000002 191.4708899999999 386.91928000000024 C 191.4400899999999 387.30459000000025 191.4174899999999 388.26458000000025 191.4174899999999 389.19188000000025 C 191.4174899999999 390.1192600000003 191.4399899999999 391.07928000000027 191.4708899999999 391.46448000000026 C 191.50008999999991 391.83144000000027 191.56098999999992 392.45989000000026 191.6064199999999 392.86148000000026 C 191.6518199999999 393.26264000000026 191.7361099999999 393.89148000000023 191.7944899999999 394.25848000000025 C 191.8524899999999 394.6254500000002 191.9658799999999 395.2522300000002 192.04676999999992 395.65088000000026 C 192.12726999999992 396.04953000000023 192.2844699999999 396.73468000000025 192.39579999999992 397.17288000000025 C 192.50755999999993 397.61115000000024 192.69395999999992 398.2791800000002 192.81071999999992 398.65778000000023 C 192.92747999999992 399.03600000000023 193.1088699999999 399.5898100000002 193.21394999999993 399.88798000000025 C 193.31903999999992 400.1861300000003 193.52627999999993 400.7378000000003 193.67473999999993 401.1138800000003 C 193.82360999999992 401.48961000000025 194.10341999999994 402.1463800000003 194.29731999999993 402.57338000000027 C 194.49122999999992 402.99997000000025 194.84858999999992 403.72428000000025 195.09171999999992 404.18298000000027 C 195.33440999999993 404.64169000000027 195.7293099999999 405.34308000000027 195.96906999999993 405.74168000000026 C 196.20842999999994 406.13991000000027 196.57538999999994 406.72163000000023 196.78431999999992 407.0343800000003 C 196.99323999999993 407.34671000000026 197.31348999999992 407.8087600000003 197.4961399999999 408.0610800000003 C 197.6787899999999 408.3133600000003 198.01154999999991 408.7541300000003 198.2354799999999 409.0410200000003 C 198.4594099999999 409.32750000000027 198.8342999999999 409.78745000000026 199.0682099999999 410.0627200000003 C 199.3021499999999 410.3379400000003 199.79378999999992 410.8850100000003 200.1607099999999 411.2782200000003 C 200.52766999999992 411.67145000000033 201.1494399999999 412.2928200000003 201.54270999999991 412.6593200000003 C 201.9359399999999 413.0258600000003 202.4175899999999 413.46249000000034 202.61230999999992 413.63011000000034 C 202.80745999999994 413.79775000000035 203.2390599999999 414.15220000000033 203.57140999999993 414.41822000000036 C 203.90417999999994 414.6838400000004 204.42002999999994 415.07833000000034 204.71820999999994 415.2947400000004 C 205.01635999999993 415.5111700000004 205.57927999999995 415.89730000000037 205.96920999999995 416.1525200000004 C 206.35909999999996 416.4081400000004 206.95042999999995 416.7771800000004 207.28280999999996 416.9727900000004 C 207.61557999999997 417.16836000000035 208.20642999999995 417.49862000000036 208.59640999999996 417.7067100000004 C 208.98629999999997 417.9147900000004 209.69020999999995 418.26215000000036 210.16020999999995 418.4781600000004 C 210.63058999999996 418.6941600000004 211.32490999999996 418.9935700000004 211.70310999999995 419.1432800000004 C 212.08174999999994 419.2929700000004 212.61630999999994 419.4952200000004 212.89150999999995 419.5923800000004 C 213.16672999999994 419.68918000000036 213.64540999999994 419.8488400000004 213.95490999999996 419.9464100000004 C 214.26473999999996 420.0444100000004 214.76182999999995 420.1916100000004 215.05990999999995 420.2733400000004 C 215.35805999999994 420.3555400000004 215.87432999999996 420.4872600000004 216.20670999999996 420.5660800000004 C 216.53946999999997 420.6448800000004 217.05532999999997 420.7574800000004 217.35350999999997 420.8162800000004 C 217.65165999999996 420.8750800000004 218.12075999999996 420.9605600000004 218.39600999999996 421.0060100000004 C 218.67122999999995 421.0519100000004 219.18747999999997 421.1265200000004 219.54280999999997 421.1715600000004 C 219.89851 421.2170600000004 220.41430999999997 421.2741500000004 220.68961 421.2987400000004 C 220.96482999999998 421.3233400000004 221.64038 421.3709400000004 222.19081 421.4050800000004 C 222.91138 421.4496800000004 224.01811 421.46678000000037 226.14191 421.4671800000004 L 229.09221 421.4676000000004 L 229.09179 421.3946000000004 C 229.09137 421.3545000000004 229.05049 420.9742600000004 229.00049 420.55017000000043 L 228.90999000000002 419.7787200000004 L 228.89579000000003 405.6107200000004 L 228.88159000000005 391.4427200000004 L 233.37309000000005 391.4427200000004 L 233.42269000000005 390.5332700000004 C 233.45019000000005 390.0328700000004 233.50069000000005 389.3810700000004 233.53528000000006 389.0841700000004 C 233.56948000000006 388.7872600000004 233.63536000000005 388.3110700000004 233.68123000000006 388.02587000000045 C 233.72713000000005 387.74064000000044 233.80341000000004 387.31864000000047 233.85053000000005 387.08762000000047 C 233.89763000000005 386.8570200000005 233.98231000000004 386.4804700000005 234.03902000000005 386.2511400000005 C 234.09572000000006 386.02179000000046 234.22792000000004 385.5430800000005 234.33258000000006 385.1877400000005 C 234.43725000000006 384.83204000000046 234.64158000000006 384.22242000000045 234.78628000000006 383.83254000000045 C 234.93140000000005 383.44264000000044 235.17326000000006 382.84299000000044 235.32421000000005 382.5002400000005 C 235.47516000000005 382.1574700000005 235.75538000000006 381.5757200000005 235.94637000000006 381.20754000000045 C 236.13777000000005 380.83932000000044 236.44094000000007 380.29434000000043 236.62025000000006 379.9961400000004 C 236.79956000000004 379.6979900000004 237.09396000000007 379.2326400000004 237.27494000000004 378.9619400000004 C 237.45550000000006 378.6908900000004 237.82538000000005 378.1750400000004 238.09686000000005 377.81514000000044 C 238.36833000000004 377.45486000000045 238.78241000000006 376.9352400000004 239.01756000000006 376.66004000000044 C 239.25275000000005 376.38482000000045 239.87864000000005 375.72765000000044 240.40866000000005 375.1997400000004 C 240.93908000000005 374.6718100000004 241.61666000000005 374.0363400000004 241.91486000000006 373.78774000000044 C 242.21301000000005 373.53920000000045 242.70093000000006 373.15224000000046 242.99906000000007 372.92831000000047 C 243.29721000000006 372.7039700000005 243.80388000000008 372.3424300000005 244.12496000000007 372.12432000000047 C 244.44605000000007 371.9066400000005 244.97148000000007 371.56970000000047 245.29256000000007 371.3758000000005 C 245.61365000000006 371.1814800000005 246.14868000000007 370.8766500000005 246.48096000000007 370.6977500000005 C 246.81372000000007 370.5188700000005 247.32036000000008 370.2607400000005 247.60686000000007 370.1243800000005 C 247.89375000000007 369.98802000000046 248.41918000000007 369.7540800000005 248.77446000000006 369.60480000000047 C 249.13016000000007 369.45509000000044 249.78446000000005 369.2023900000005 250.22896000000006 369.0431000000005 C 250.67349000000004 368.8838000000005 251.38656000000006 368.6536200000005 251.81356000000005 368.5314400000005 C 252.24057000000005 368.4092600000005 252.88116000000005 368.24205000000046 253.23636000000005 368.1598900000005 C 253.59206000000006 368.07779000000045 254.13621000000003 367.9643200000005 254.44566000000006 367.90719000000047 C 254.75549000000007 367.8500900000005 255.27463000000006 367.76499000000047 255.59956000000005 367.7174500000005 C 255.92440000000005 367.6699500000005 256.59996000000007 367.5906900000005 257.10076000000004 367.54106000000047 C 257.84761000000003 367.46726000000046 258.29546000000005 367.45056000000045 259.59566 367.44846000000047 C 260.53474 367.4474600000005 261.43506 367.4676600000005 261.80576 367.4984600000005 C 262.14979 367.5276600000005 262.74109000000004 367.5885600000005 263.11936000000003 367.63398000000046 C 263.49800000000005 367.67938000000044 264.13596 367.77368000000047 264.53716000000003 367.8433100000005 C 264.93873 367.9125100000005 265.55796000000004 368.0355500000005 265.91326000000004 368.1160300000005 C 266.26896000000005 368.19653000000045 266.82984000000005 368.3366200000005 267.15966000000003 368.42752000000047 C 267.48993 368.5180200000005 268.08126000000004 368.69732000000045 268.47326000000004 368.82576000000046 C 268.86566000000005 368.95420000000047 269.48696000000007 369.17687000000046 269.85396000000003 369.32033000000047 C 270.22092000000004 369.46377000000047 270.78389000000004 369.69729000000046 271.10496 369.83949000000047 C 271.42605000000003 369.98127000000045 272.04531000000003 370.28109000000046 272.48106 370.5054400000005 C 272.91683 370.72978000000046 273.56146 371.0859000000005 273.91386 371.2972900000005 C 274.26623 371.50871000000046 274.80959 371.8523200000005 275.12066 372.0604100000005 C 275.43215 372.2689100000005 275.95796 372.6442100000005 276.28866 372.8944100000005 C 276.61975 373.1446100000005 277.07090999999997 373.5007300000005 277.29196 373.6854400000005 C 277.51297 373.8705800000005 277.97167 374.2754900000005 278.31156000000004 374.5857400000005 C 278.65142000000003 374.8959800000005 279.18306000000007 375.4213900000005 279.49376000000007 375.7537400000005 C 279.80442000000005 376.0860900000005 280.25561000000005 376.5948600000005 280.4961600000001 376.8842400000005 C 280.7371800000001 377.1736400000005 281.11707000000007 377.65442000000047 281.3401300000001 377.9526400000005 C 281.5628100000001 378.2507900000005 281.8951600000001 378.7198900000005 282.0782200000001 378.9951400000005 C 282.2612800000001 379.2703600000005 282.5344200000001 379.7019500000005 282.6845400000001 379.9542400000005 C 282.83508000000006 380.20652000000047 283.0848600000001 380.6464600000005 283.23957000000007 380.93171000000046 C 283.3942800000001 381.2169400000005 283.65240000000006 381.7327900000005 283.81252000000006 382.07851000000045 C 283.97307000000006 382.42379000000045 284.2128400000001 382.97836000000046 284.34504000000004 383.31111000000044 C 284.47764000000006 383.64346000000046 284.68155 384.2063800000004 284.79831 384.5621100000004 C 284.91507 384.9173900000004 285.07687000000004 385.4524300000004 285.15819 385.7505100000004 C 285.23909 386.04866000000044 285.37002 386.5928300000004 285.44883 386.9598100000004 C 285.52763 387.3267700000004 285.63898 387.9552100000004 285.69612 388.3568100000004 C 285.75322 388.75796000000037 285.81996 389.30211000000037 285.84415 389.5661100000004 C 285.86825 389.82965000000036 285.90045000000003 390.3600600000004 285.91545 390.7441100000004 L 285.94215 391.4425900000004 L 290.43455 391.4425900000004 L 290.42085000000003 405.69359000000037 L 290.40715000000006 419.94459000000035 L 290.33795000000003 420.49878000000035 C 290.29995 420.80403000000035 290.25625 421.14638000000036 290.24125000000004 421.2598000000003 L 290.21375000000006 421.4666400000003 L 326.50575000000003 421.4666400000003 L 326.49035000000003 411.9071400000003 C 326.47695000000004 403.4606400000003 326.46735 402.2636400000003 326.40695000000005 401.6301400000003 C 326.36945000000003 401.2352400000003 326.3002000000001 400.59724000000034 326.25266000000005 400.2123400000003 C 326.20506000000006 399.8270300000003 326.11922000000004 399.2332100000003 326.06168 398.89254000000034 C 326.00418 398.5518600000003 325.9103 398.03559000000035 325.85276000000005 397.74574000000035 C 325.79526000000004 397.45593000000036 325.67387 396.9163200000003 325.58379 396.54734000000036 C 325.49329 396.1778700000004 325.33568 395.58659000000034 325.23310000000004 395.23374000000035 C 325.13093000000003 394.88054000000034 324.92243 394.22544000000033 324.77023 393.77844000000033 C 324.61802 393.3309900000003 324.35698 392.6274400000003 324.19018000000005 392.2146400000003 C 324.02338000000003 391.80181000000033 323.77735000000007 391.22006000000033 323.64308000000005 390.9219400000003 C 323.50922 390.6237800000003 323.22816000000006 390.04204000000027 323.0184100000001 389.62924000000027 C 322.8086600000001 389.2164100000003 322.4558800000001 388.56424000000027 322.23406000000006 388.17974000000027 C 322.01264000000003 387.79527000000024 321.6602700000001 387.21359000000024 321.4518100000001 386.88704000000024 C 321.2428900000001 386.56054000000023 320.92097000000007 386.07719000000026 320.7362300000001 385.8137400000002 C 320.5515000000001 385.54977000000025 320.1937200000001 385.0618600000002 319.94146000000006 384.7295400000002 C 319.6887500000001 384.39677000000023 319.30303000000004 383.9088900000002 319.0841300000001 383.6453400000002 C 318.86521000000005 383.38137000000023 318.4390400000001 382.8934600000002 318.13756000000006 382.5611400000002 C 317.83565000000004 382.2283700000002 317.2255600000001 381.5999400000002 316.7810600000001 381.1637400000002 C 316.3369600000001 380.7275500000002 315.70776000000006 380.1429400000002 315.3824600000001 379.8639400000002 C 315.0576200000001 379.58497000000017 314.5680400000001 379.17798000000016 314.2944600000001 378.9602700000002 C 314.0205000000001 378.7421700000002 313.55471000000006 378.3873100000002 313.2586600000001 378.1717200000002 C 312.96301000000005 377.95571000000024 312.43928000000005 377.59167000000025 312.09526000000005 377.36277000000024 C 311.7512300000001 377.1334200000002 311.25421000000006 376.81441000000024 310.99026000000003 376.65345000000025 C 310.72672000000006 376.49290000000025 310.21048 376.19517000000025 309.84346000000005 375.99208000000027 C 309.47650000000004 375.7894200000003 308.78226000000006 375.4312200000003 308.3005600000001 375.1964800000003 C 307.81892000000005 374.96171000000027 307.0779600000001 374.6264400000003 306.6533600000001 374.45088000000027 C 306.2292700000001 374.27532000000025 305.55376000000007 374.0130400000003 305.1521600000001 373.86708000000027 C 304.7510100000001 373.72155000000026 304.1034600000001 373.50555000000026 303.7135600000001 373.38753000000025 C 303.3236600000001 373.26911000000024 302.67696000000007 373.0872900000003 302.27616000000006 372.98347000000024 C 301.8754200000001 372.8796400000002 301.15316000000007 372.71408000000025 300.6707600000001 372.61567000000025 C 300.1883000000001 372.51767000000024 299.6181600000001 372.41217000000023 299.4034600000001 372.38215000000025 C 299.1887000000001 372.3521500000003 299.00481000000013 372.30545000000023 298.9943900000001 372.27832000000024 C 298.9839900000001 372.25162000000023 299.0231900000001 371.92221000000023 299.08109000000013 371.54691000000025 C 299.13949000000014 371.17161000000027 299.21620000000013 370.62366000000026 299.25206000000014 370.32931000000025 C 299.28786000000014 370.0353300000003 299.34506000000016 369.46276000000023 299.37883000000016 369.05751000000026 C 299.41223000000014 368.65219000000025 299.45183000000014 367.83271000000025 299.46603000000016 367.23641000000026 C 299.48143000000016 366.5958900000003 299.47203000000013 365.76481000000024 299.4435300000002 365.20561000000026 C 299.4172300000002 364.6847800000003 299.3672300000002 363.96261000000027 299.3321900000002 363.6002100000003 C 299.2975900000002 363.2378400000003 299.2412900000002 362.7253400000003 299.2075000000002 362.4618100000003 C 299.1733000000002 362.1982700000003 299.0794900000002 361.5998300000003 298.9994200000002 361.1320100000003 C 298.91892000000024 360.6645500000003 298.79676000000023 360.0265100000003 298.7279500000002 359.7142100000003 C 298.65875000000017 359.40229000000033 298.5277900000002 358.86064000000033 298.4364700000002 358.5116100000003 C 298.3451700000002 358.1621600000003 298.16584000000023 357.53668000000033 298.0382400000002 357.1222100000003 C 297.9106300000002 356.7077100000003 297.6854500000002 356.03761000000026 297.5378400000002 355.6335100000003 C 297.3898000000002 355.2294400000003 297.1633700000002 354.6444100000003 297.0341000000002 354.33331000000027 C 296.9052500000002 354.02223000000026 296.64254000000017 353.4296400000003 296.4507200000002 353.01681000000025 C 296.25890000000027 352.6039800000002 295.9215400000002 351.92841000000027 295.7009500000002 351.51561000000027 C 295.4803600000002 351.1027800000003 295.1200700000002 350.4648100000003 294.9003300000002 350.09781000000027 C 294.6801500000002 349.73085000000026 294.28651000000025 349.1116300000003 294.02463000000023 348.72171000000026 C 293.76317000000023 348.33181000000025 293.3094700000002 347.69381000000027 293.01683000000025 347.30391000000026 C 292.72410000000025 346.91401000000025 292.3200200000002 346.39776000000023 292.11900000000026 346.1571100000003 C 291.91801000000027 345.91608000000025 291.56481000000025 345.50325000000026 291.33375000000024 345.2397100000003 C 291.1027400000002 344.9757400000003 290.5098000000002 344.3560600000003 290.01595000000026 343.8619100000003 C 289.52264000000025 343.3677600000003 288.8933500000003 342.76601000000034 288.61815000000024 342.5242100000003 C 288.34293000000025 342.2827700000003 287.89257000000026 341.8999600000003 287.6173500000002 341.6739300000003 C 287.3421300000002 341.44792000000035 286.8317200000002 341.0501000000003 286.4831500000002 340.7899100000003 C 286.1349600000002 340.52970000000033 285.52945000000017 340.10186000000033 285.1383500000002 339.8395800000003 C 284.7472000000002 339.5772900000003 284.13135000000017 339.18656000000027 283.77015000000017 338.9713800000003 C 283.4094400000002 338.7562100000003 282.8607000000002 338.4422100000003 282.5508500000002 338.2737400000003 C 282.2410200000002 338.1056900000003 281.6501000000002 337.8046100000003 281.2372500000002 337.6052900000003 C 280.8244200000002 337.40596000000033 280.2360500000002 337.1361600000003 279.9295500000002 337.0056400000003 C 279.6234800000002 336.8751200000003 279.11183000000017 336.6674500000003 278.79325000000017 336.5436000000003 C 278.4742400000002 336.4197500000003 277.8804200000002 336.2054100000003 277.4734500000002 336.0678000000003 C 277.0664700000002 335.9301900000003 276.35965000000016 335.71335000000033 275.90265000000016 335.58659000000034 C 275.44521000000015 335.4598200000003 274.69465000000014 335.27217000000036 274.23465000000016 335.1704200000003 C 273.7742900000002 335.0682500000003 273.06955000000016 334.9289800000003 272.66795000000013 334.8610100000003 C 272.26680000000016 334.7926100000003 271.6283500000001 334.6983800000003 271.25015000000013 334.6508400000003 C 270.87193000000013 334.6037400000003 270.2151500000001 334.5357500000003 269.79065000000014 334.5003000000003 C 269.36614000000014 334.46490000000034 268.36245000000014 334.4286000000003 267.55965000000015 334.41980000000035 z M 259.9498 374.954 C 259.29636 374.946 258.6488 374.947 258.5112 374.956 C 258.37359 374.96500000000003 257.95158999999995 375.00190000000003 257.57376999999997 375.03770000000003 C 257.19555999999994 375.074 256.55756999999994 375.15863 256.15596999999997 375.22661000000005 C 255.75398999999996 375.2942100000001 255.12516999999997 375.42260000000005 254.75816999999998 375.51225000000005 C 254.39120999999997 375.60145000000006 253.86581999999999 375.74327000000005 253.59056999999999 375.82709000000006 C 253.31535 375.91049000000004 252.81829 376.07854000000003 252.48557 376.2003 C 252.15322 376.32206 251.63693999999998 376.52807 251.33876999999998 376.65817000000004 C 251.04062 376.78869000000003 250.53393999999997 377.03180000000003 250.21286999999998 377.19902 C 249.89177999999998 377.36624 249.39926999999997 377.64187000000004 249.11907 377.81159 C 248.83843 377.98130000000003 248.38807 378.27404 248.11827 378.46169000000003 C 247.84805 378.64976 247.38352 378.99878 247.08536999999998 379.23734 C 246.78722 379.47586 246.32809999999998 379.87076 246.06497 380.11469 C 245.80183 380.35863 245.40109999999999 380.76021 245.17425999999998 381.00704 C 244.94741999999997 381.25390000000004 244.58046 381.68132 244.35900999999998 381.95654 C 244.13757999999999 382.23176 243.78563999999997 382.71006 243.57713999999999 383.01994 C 243.36864 383.32935000000003 243.07966 383.78846000000004 242.93537999999998 384.03954000000004 C 242.79067999999998 384.29057000000006 242.54631999999998 384.75969000000003 242.39161 385.08204000000006 C 242.23731999999998 385.40438000000006 242.04133 385.8459900000001 241.95585 386.0640900000001 C 241.87035 386.2817600000001 241.72942 386.67624000000006 241.64227 386.9402400000001 C 241.55507 387.20461000000006 241.41667 387.69376000000005 241.33411 388.02774000000005 C 241.25191 388.36218 241.13812000000001 388.9338900000001 241.0814 389.2991400000001 C 241.0247 389.66442000000006 240.95922000000002 390.24444000000005 240.93628 390.5885400000001 C 240.91298 390.9354800000001 240.89378000000002 392.9358400000001 240.89378000000002 395.0817400000001 L 240.89296000000002 398.9494400000001 L 236.38936 398.9494400000001 L 236.38977 408.9049400000001 C 236.39019 415.25294000000014 236.40567 419.0789400000001 236.43277 419.4659400000001 C 236.45607 419.7982800000001 236.51077 420.3149400000001 236.55412 420.6131400000001 C 236.59752 420.9117000000001 236.68297 421.3808400000001 236.74468000000002 421.6556400000001 C 236.80598 421.9308600000001 236.92024 422.3774600000001 236.99822 422.6489400000001 C 237.07622 422.9199900000001 237.23508 423.3982800000001 237.35142 423.7123400000001 C 237.46776 424.0259200000001 237.73881 424.6388900000001 237.95398 425.0746400000001 C 238.16916 425.5104000000001 238.47273 426.0683900000001 238.62869 426.3147400000001 C 238.78465 426.56119000000007 239.02859 426.92732000000007 239.17121 427.1278900000001 C 239.31382 427.3288900000001 239.53525 427.6245400000001 239.66327 427.7850900000001 C 239.79171000000002 427.9456300000001 240.06901000000002 428.2721400000001 240.28001 428.51067000000006 C 240.49102 428.7496100000001 240.89675 429.1599300000001 241.18159 429.42267000000004 C 241.4664 429.68580000000003 241.87255 430.03857000000005 242.08399 430.20664000000005 C 242.2954 430.37511000000006 242.70031 430.67034000000007 242.98384 430.86300000000006 C 243.26739999999998 431.05566000000005 243.66563 431.31044 243.86914 431.4297000000001 C 244.07220999999998 431.54897000000005 244.45711 431.7558000000001 244.72399 431.8896600000001 C 244.99044999999998 432.0231000000001 245.38826999999998 432.2086600000001 245.60718999999997 432.3016500000001 C 245.82610999999997 432.3950500000001 246.25770999999997 432.5576900000001 246.56628999999998 432.6640200000001 C 246.87487 432.76994000000013 247.41446 432.9300700000001 247.76599 433.0197300000001 C 248.11751999999998 433.1094300000001 248.70844 433.2294800000001 249.07959 433.2866100000001 C 249.45072 433.3437100000001 250.02661 433.4108700000001 250.35899 433.4363100000001 C 250.78307 433.4689100000001 253.68459000000001 433.4780100000001 260.07519 433.4676100000001 L 269.18699000000004 433.4526100000001 L 269.81874000000005 433.3613100000001 C 270.16611000000006 433.3113100000001 270.67442000000005 433.2228700000001 270.94834000000003 433.16491000000013 C 271.22232 433.10741000000013 271.68477 432.99477000000013 271.97534 432.9151200000001 C 272.26599000000004 432.8355200000001 272.76142000000004 432.6736800000001 273.07614 432.5560900000001 C 273.39098 432.43808000000007 273.85509 432.2487600000001 274.10734 432.1349200000001 C 274.35963000000004 432.0214900000001 274.79122 431.8054900000001 275.06645000000003 431.6549500000001 C 275.34167 431.5044100000001 275.83497000000006 431.2045900000001 276.16315000000003 430.9881700000001 C 276.49092 430.7721600000001 276.99760000000003 430.4052000000001 277.28905000000003 430.17255000000006 C 277.58012 429.93986000000007 278.12927 429.43905000000007 278.50875 429.05915000000005 C 278.88864 428.67968 279.38948000000005 428.13050000000004 279.62215000000003 427.83945000000006 C 279.85484 427.5479700000001 280.22221 427.04130000000004 280.4386 426.71355000000005 C 280.65461 426.3853700000001 280.96485 425.87332000000004 281.1279 425.57515000000006 C 281.29053 425.27700000000004 281.53823 424.7711500000001 281.67834 424.4509500000001 C 281.81887 424.1307000000001 282.03363 423.5677500000001 282.15581 423.1999500000001 C 282.27797999999996 422.8321600000001 282.43561 422.29635000000013 282.50566999999995 422.00985000000014 C 282.57566999999995 421.72295000000014 282.67121 421.26384000000013 282.71833999999996 420.98945000000015 C 282.76503999999994 420.71464000000014 282.83134999999993 420.20045000000016 282.86511999999993 419.8464500000002 C 282.9177199999999 419.2985100000002 282.9268199999999 417.69565000000017 282.9268199999999 409.0764500000002 L 282.9268199999999 398.9514500000002 L 278.4274199999999 398.9514500000002 L 278.4116199999999 394.6042500000002 C 278.39791999999994 390.8508500000002 278.3862199999999 390.19155000000023 278.3269199999999 389.7774500000002 C 278.2889199999999 389.51348000000024 278.21933999999993 389.0914800000002 278.17137999999994 388.83920000000023 C 278.1234799999999 388.5869100000002 278.02792999999997 388.15532000000024 277.95870999999994 387.88010000000025 C 277.88990999999993 387.60488000000026 277.74978999999996 387.12905000000023 277.64762999999994 386.82300000000026 C 277.5450399999999 386.51651000000027 277.3319599999999 385.96568000000025 277.17349999999993 385.59820000000025 C 277.0146199999999 385.2308200000002 276.7506599999999 384.68373000000025 276.58635999999996 384.3827000000002 C 276.42206999999996 384.0816200000002 276.10847999999993 383.5633200000002 275.88996999999995 383.23050000000023 C 275.6710499999999 382.8981500000002 275.3849799999999 382.48532000000023 275.25404999999995 382.31310000000025 C 275.12269 382.14129000000025 274.89833999999996 381.8594000000002 274.75530999999995 381.68760000000026 C 274.61229 381.51537000000025 274.30578999999994 381.17094000000026 274.07435999999996 380.92155000000025 C 273.8425 380.67218000000025 273.43634999999995 380.2697700000003 273.17157999999995 380.0274700000003 C 272.9063699999999 379.7851900000003 272.46225999999996 379.40531000000027 272.1841299999999 379.18350000000027 C 271.9059899999999 378.96165000000025 271.4464499999999 378.62013000000024 271.16252999999995 378.42540000000025 C 270.87854999999996 378.23024000000026 270.42109999999997 377.93500000000023 270.14592999999996 377.76945000000023 C 269.87071 377.60349000000025 269.27608 377.2840700000002 268.82442999999995 377.05889000000025 C 268.37323 376.83413000000024 267.66932999999995 376.51845000000026 267.26062999999994 376.35791000000023 C 266.8523799999999 376.19736000000023 266.27399999999994 375.9901200000002 265.9758299999999 375.89712000000026 C 265.6776699999999 375.80412000000024 265.2181799999999 375.67194000000023 264.95422999999994 375.6031400000003 C 264.69067999999993 375.53434000000027 264.2027999999999 375.42258000000027 263.87002999999993 375.3546000000003 C 263.5376799999999 375.2871000000003 262.98389999999995 375.1923900000003 262.6398299999999 375.1444400000003 C 262.29579999999993 375.0964400000003 261.8175299999999 375.0376800000003 261.5764299999999 375.0139200000003 C 261.3358199999999 374.99012000000033 260.6039799999999 374.9643200000003 259.9501299999999 374.9564200000003 z M 259.8873 385.462 C 260.346 385.471 260.9185 385.5079 261.15909999999997 385.5442 C 261.40013 385.5805 261.80335999999994 385.65846 262.05564999999996 385.71808 C 262.30792999999994 385.77738 262.75161999999995 385.90699 263.04144999999994 386.00581 C 263.33125999999993 386.10501 263.7290899999999 386.26018 263.92547999999994 386.35109 C 264.12188999999995 386.44159 264.4663299999999 386.62381 264.6910699999999 386.75558 C 264.9158399999999 386.88736 265.2782099999999 387.12713 265.4958999999999 387.28768 C 265.7139899999999 387.44863000000004 266.0625999999999 387.75055000000003 266.2706499999999 387.95863 C 266.4791499999999 388.16713000000004 266.7668799999999 388.49656000000004 266.9103299999999 388.69171 C 267.05377999999985 388.88645 267.2818799999999 389.27134 267.41780999999986 389.54656 C 267.55458999999985 389.8247 267.7147199999999 390.23211 267.77851999999984 390.46397 L 267.89277999999985 390.88096 L 267.9048799999998 394.91546 L 267.9173799999998 398.94996 L 251.3963799999998 398.94996 L 251.4109799999998 394.95716 L 251.42517999999978 390.96436 L 251.49937999999977 390.65161 C 251.54027999999977 390.47939 251.63864999999979 390.16998 251.71746999999976 389.96357 C 251.79666999999975 389.75715 251.94806999999977 389.43814000000003 252.05356999999975 389.25466 C 252.15948999999975 389.07119 252.33713999999975 388.79888 252.44888999999975 388.65001 C 252.56064999999975 388.50073000000003 252.80291999999974 388.22551 252.98764999999975 388.03786 C 253.17196999999976 387.84979000000004 253.44843999999975 387.59417 253.60189999999974 387.46865 C 253.75535999999974 387.34355000000005 254.04057999999975 387.13422 254.23531999999975 387.00370000000004 C 254.43047999999973 386.87317 254.86498999999975 386.62923000000006 255.20153999999974 386.46202000000005 C 255.53805999999975 386.29522000000003 256.07266999999973 386.07337000000007 256.38993999999974 385.96912000000003 C 256.70727999999974 385.86529 257.19183999999973 385.73310000000004 257.4670399999997 385.67555000000004 C 257.7422599999997 385.61805000000004 258.14590999999973 385.55045000000007 258.3635899999997 385.52585000000005 C 258.5816799999997 385.50075000000004 258.82561999999973 385.47285000000005 258.9056899999997 385.46335000000005 C 258.9861899999997 385.45435000000003 259.4269399999997 385.45325 259.8856399999997 385.46135000000004 z M 259.8247 407.978 C 260.20917000000003 407.9897 260.55862 408.02590000000004 260.7838 408.0772 C 260.97896 408.1218 261.2792 408.20855 261.45099999999996 408.27069 C 261.62321999999995 408.33239 261.91303999999997 408.46001 262.09569 408.55425 C 262.27833 408.64845 262.57856 408.83698000000004 262.76288 408.9725 C 262.9472 409.10803000000004 263.24827 409.37198 263.43175 409.55922000000004 C 263.61523 409.74604000000005 263.87127000000004 410.05795000000006 264.00053 410.25185000000005 C 264.12980000000005 410.44576000000006 264.29494000000005 410.72348000000005 264.36749000000003 410.8686000000001 C 264.44009000000005 411.0137200000001 264.56348 411.32313000000005 264.64147 411.55665000000005 C 264.71947 411.78975 264.81244000000004 412.15922000000006 264.84746 412.37685000000005 C 264.88296 412.59452000000005 264.91166000000004 412.96982 264.91166000000004 413.21085000000005 C 264.91166000000004 413.4518800000001 264.88366 413.82092000000006 264.84956000000005 414.03105000000005 C 264.81586000000004 414.2416400000001 264.73906000000005 414.56773000000004 264.6794300000001 414.7558 C 264.6201300000001 414.94428000000005 264.5067900000001 415.23952 264.4283900000001 415.41257 C 264.3495900000001 415.58521 264.1777800000001 415.88795 264.0472600000001 416.08478 C 263.9163200000001 416.2816 263.6586100000001 416.60019 263.4747200000001 416.79326000000003 C 263.2904000000001 416.98592 262.9901700000001 417.25529000000006 262.8071000000001 417.39207000000005 C 262.6240400000001 417.52843000000007 262.3475600000001 417.70858000000004 262.1924400000001 417.79198 L 261.9109700000001 417.94376 L 261.91055000000006 421.20676 L 261.9098000000001 424.46975999999995 L 257.40620000000007 424.46975999999995 L 257.40578000000005 421.20676 L 257.40536000000003 417.94376 L 257.09929000000005 417.76946 C 256.93124000000006 417.67356 256.64225000000005 417.48131 256.4575300000001 417.34202999999997 C 256.2728000000001 417.20275999999996 255.98840000000007 416.94588 255.82494000000008 416.77115999999995 C 255.66189000000008 416.59684999999996 255.42754000000008 416.30119999999994 255.30452000000008 416.11438999999996 C 255.18109000000007 415.92798999999997 255.02388000000008 415.66276999999997 254.9550800000001 415.52515999999997 C 254.8866800000001 415.38755999999995 254.7724300000001 415.11107999999996 254.7019600000001 414.91092 C 254.6314600000001 414.71117999999996 254.5414100000001 414.38257999999996 254.5018000000001 414.18116999999995 C 254.4551000000001 413.94472999999994 254.4292000000001 413.60946999999993 254.42800000000008 413.23166999999995 C 254.42718000000008 412.9105799999999 254.4514000000001 412.50692999999995 254.4822000000001 412.33511999999996 C 254.5131000000001 412.1629 254.59437000000008 411.84389 254.6636000000001 411.62621999999993 C 254.73280000000008 411.40854999999993 254.8787700000001 411.05159999999995 254.98844000000008 410.83309999999994 C 255.09769000000009 410.61457999999993 255.2991000000001 410.28640999999993 255.43588000000008 410.1033499999999 C 255.57266000000007 409.92027999999993 255.80450000000008 409.6508999999999 255.9508700000001 409.50452999999993 C 256.0976600000001 409.3581699999999 256.3491100000001 409.1392399999999 256.5096500000001 409.0178899999999 C 256.6702000000001 408.8965399999999 256.92374000000007 408.7280799999999 257.0726000000001 408.64384999999993 C 257.2218900000001 408.5596499999999 257.4937700000001 408.4282599999999 257.6772500000001 408.3523599999999 C 257.86073000000005 408.2760599999999 258.13304000000005 408.1818099999999 258.28190000000006 408.14260999999993 C 258.4311900000001 408.10340999999994 258.7030700000001 408.04590999999994 258.88655000000006 408.01500999999996 C 259.1067300000001 407.97790999999995 259.42615000000006 407.96540999999996 259.82480000000004 407.97790999999995 z" stroke-linecap="round" />
</g>
</g>
</g>
</svg>