<?xml version="1.0" encoding="UTF-8"?>
<svg version="1.1" xmlns="http://www.w3.org/2000/svg" width="2500" height="1627">
<path d="M0 0 C825 0 1650 0 2500 0 C2500 536.91 2500 1073.82 2500 1627 C1675 1627 850 1627 0 1627 C0 1090.09 0 553.18 0 0 Z " fill="#FEFEFE" transform="translate(0,0)"/>
<path d="M0 0 C1.44435464 0.00351175 1.44435464 0.00351175 2.91788816 0.00709444 C4.44377097 0.00491428 4.44377097 0.00491428 6.0004797 0.00269008 C9.45491765 -0.0009982 12.90931225 0.00252949 16.36374998 0.00595194 C18.8470304 0.00480124 21.33031064 0.00321406 23.81359053 0.0012247 C29.23630542 -0.00209578 34.65900671 -0.00226967 40.08172178 0.00027186 C48.14523869 0.00404089 56.20874716 0.00212763 64.272264 -0.00093645 C78.67033615 -0.00621358 93.06840387 -0.00574128 107.46647644 -0.00285754 C120.0661459 -0.00034625 132.66581373 0.00031672 145.26548338 -0.00088018 C146.51703372 -0.00099476 146.51703372 -0.00099476 147.79386792 -0.00111165 C151.18046764 -0.00142297 154.56706737 -0.00174137 157.95366709 -0.00207142 C189.75055741 -0.00513338 221.5474449 -0.00235225 253.34433478 0.00302548 C281.6206648 0.00777141 309.89699031 0.0073468 338.17332029 0.00256449 C369.91045402 -0.00278514 401.64758525 -0.00491627 433.38471937 -0.00182325 C436.76530282 -0.00150251 440.14588626 -0.00118967 443.52646971 -0.00088018 C444.35891237 -0.0008011 445.19135504 -0.00072203 446.04902324 -0.00064055 C458.64363824 0.00049899 471.23825144 -0.0008372 483.83286619 -0.00335974 C498.14731361 -0.00621236 512.4617559 -0.00551838 526.77620268 -0.00007899 C534.79664506 0.00286782 542.81707633 0.00303388 550.83751844 -0.00072517 C556.80970055 -0.00321655 562.78186808 -0.00053492 568.7540493 0.00424941 C571.18268853 0.00537479 573.61132924 0.00477977 576.03996754 0.00237362 C579.31802191 -0.00062719 582.59601392 0.00241081 585.87406492 0.00709444 C586.83696802 0.00475328 587.79987111 0.00241211 588.79195309 0 C595.28182621 0.01878525 595.28182621 0.01878525 596.39597654 1.13293558 C596.4937584 2.69965961 596.52120644 4.27081192 596.52132571 5.84058434 C596.52508099 7.38091089 596.52508099 7.38091089 596.52891213 8.95235515 C596.52657096 10.09654928 596.52422979 11.2407434 596.52181768 12.41961008 C596.52327112 13.62765152 596.52472457 14.83569295 596.52622205 16.0803417 C596.52926381 19.46375845 596.52776989 22.84712046 596.5244441 26.23053352 C596.52192333 29.8999487 596.52516094 33.56935933 596.52768743 37.23877388 C596.53131216 43.67988604 596.53118159 50.12098983 596.52864027 56.56210238 C596.52487155 66.13996066 596.52678433 75.71781182 596.52984858 85.29567005 C596.53512595 102.39763141 596.53465331 119.49958905 596.53176966 136.60155077 C596.52925846 151.56737065 596.52859537 166.53318915 596.52979231 181.49900919 C596.52990689 182.98554532 596.52990689 182.98554532 596.53002378 184.50211247 C596.53033509 188.52455725 596.53065349 192.54700202 596.53098354 196.56944679 C596.53404557 234.33695637 596.53126429 272.10446357 596.52588665 309.87197279 C596.52114071 343.45847338 596.52156532 377.04497018 596.52634764 410.63147074 C596.53169717 448.32796591 596.53382845 486.02445898 596.53073537 523.72095448 C596.53041463 527.73625698 596.5301018 531.75155948 596.52979231 535.76686198 C596.52971323 536.75560065 596.52963415 537.74433932 596.52955268 538.76303976 C596.5284131 553.7229224 596.5297494 568.68280352 596.53227186 583.64268595 C596.53512438 600.64524163 596.53443075 617.64779299 596.52899112 634.65034813 C596.52604412 644.17716012 596.52587852 653.70396276 596.52963729 663.23077451 C596.53186783 669.58232139 596.53050573 675.93386072 596.52613252 682.28540648 C596.52373767 685.91228784 596.52297339 689.53915054 596.52653851 693.16603136 C596.53032689 697.05945143 596.52650201 700.95284144 596.52181768 704.84626108 C596.52415885 705.99045521 596.52650002 707.13464934 596.52891213 708.31351602 C596.52640861 709.34040039 596.52390509 710.36728475 596.52132571 711.42528683 C596.52122407 712.76303101 596.52122407 712.76303101 596.52112038 714.12780032 C596.39597654 716.13293558 596.39597654 716.13293558 595.39597654 717.13293558 C592.22109502 717.23395917 589.06786692 717.26836125 585.89247561 717.26157004 C584.36957475 717.26419959 584.36957475 717.26419959 582.81590822 717.26688227 C579.36822433 717.27158375 575.92058185 717.26906621 572.4728961 717.26664835 C569.99445306 717.26851424 567.51601031 717.27081405 565.03756803 717.27351367 C559.6253966 717.27837693 554.21323752 717.28008225 548.80106497 717.27905756 C540.75317029 717.27753755 532.70528558 717.28168343 524.65739283 717.28693219 C509.45035973 717.29662244 494.24332999 717.29941705 479.03629417 717.29998925 C467.29672561 717.30044809 455.55715837 717.30250279 443.81759024 717.30568987 C440.44320105 717.30658736 437.06881185 717.30747717 433.69442266 717.30836475 C432.43624119 717.30869632 432.43624119 717.30869632 431.15264191 717.30903459 C407.54691511 717.31519206 383.94118877 717.31913482 360.33546114 717.31869131 C359.44477858 717.31867573 358.55409601 717.31866016 357.63642307 717.3186441 C353.1216637 717.31856099 348.60690434 717.31846195 344.09214497 717.3183594 C343.19543297 717.31833945 342.29872096 717.31831951 341.37483587 717.31829896 C339.56146461 717.31825852 337.74809336 717.31821672 335.93472211 717.31817357 C307.71208497 717.3175606 279.48945985 717.32506988 251.26682615 717.33874613 C219.58864587 717.35409042 187.91047349 717.36271336 156.23228925 717.36178291 C152.85758571 717.36170827 149.48288216 717.36165957 146.10817862 717.36162859 C145.27718652 717.36161694 144.44619443 717.36160528 143.59002076 717.36159328 C130.1887813 717.36156244 116.78755222 717.36796159 103.38631584 717.37656086 C89.92934639 717.38501759 76.47239221 717.38604288 63.01542158 717.37945154 C55.01072873 717.37574264 47.00608211 717.37762794 39.00139411 717.38739388 C33.03915614 717.39405621 27.07697343 717.39037706 21.11473488 717.38252065 C18.69146093 717.38097045 16.26818206 717.38285809 13.84491391 717.38838073 C10.57163071 717.3953512 7.29859292 717.39021856 4.02531862 717.38182455 C3.06664689 717.38679273 2.10797515 717.39176091 1.12025276 717.39687964 C-0.17833039 717.38975343 -0.17833039 717.38975343 -1.50314754 717.38248324 C-2.25256668 717.38257147 -3.00198582 717.38265969 -3.77411463 717.38275058 C-5.60402346 717.13293558 -5.60402346 717.13293558 -7.60402346 715.13293558 C-7.85383845 713.00575983 -7.85383845 713.00575983 -7.85357112 710.30750036 C-7.85832193 709.27980212 -7.86307274 708.25210388 -7.86796752 707.19326326 C-7.86299934 706.05330049 -7.85803116 704.91333772 -7.85291243 703.73883063 C-7.85551971 702.53132372 -7.858127 701.32381682 -7.86081329 700.0797188 C-7.86605565 696.70240272 -7.86224478 693.32530869 -7.8547572 689.94801066 C-7.84881327 686.28353256 -7.85440905 682.61906989 -7.85857803 678.95459187 C-7.86427954 672.52369529 -7.86249495 666.09283395 -7.85589266 659.66193873 C-7.84610207 650.09929577 -7.8477004 640.53667877 -7.85164295 630.97403283 C-7.85792856 614.89006706 -7.85473461 598.80611593 -7.84604883 582.72215182 C-7.83744643 566.78948874 -7.83252839 550.85683224 -7.83271646 534.92416674 C-7.83272411 533.93459774 -7.83273176 532.94502875 -7.83273963 531.92547281 C-7.83278054 527.9089063 -7.83284615 523.8923398 -7.83294545 519.87577329 C-7.8338523 482.16754171 -7.8238948 444.45932017 -7.80851578 406.75109207 C-7.79489004 373.21813415 -7.7886545 339.68518336 -7.78932619 306.15222269 C-7.7893666 303.99906715 -7.78940696 301.8459116 -7.78944727 299.69275605 C-7.78946762 298.62829848 -7.78948797 297.5638409 -7.78950894 296.46712704 C-7.78960973 291.10927215 -7.78970031 285.75141726 -7.78977919 280.39356238 C-7.7897959 279.33663864 -7.78981261 278.27971491 -7.78982983 277.19076318 C-7.79019466 249.20557937 -7.78566005 221.22039646 -7.77945262 193.2352134 C-7.77923235 192.24026523 -7.77901208 191.24531705 -7.77878513 190.22021893 C-7.77789686 186.21892801 -7.77700847 182.21763709 -7.77609418 178.21634618 C-7.7729294 164.2712376 -7.77142429 150.32612973 -7.77098269 136.38102081 C-7.77038666 118.41473761 -7.76641355 100.44846031 -7.75655123 82.48217963 C-7.75142085 72.97091577 -7.74903196 63.45966056 -7.75054741 53.94839537 C-7.75127839 47.60724654 -7.74840413 41.26610618 -7.7425036 34.92496007 C-7.73923397 31.30403634 -7.73758861 27.68313084 -7.7402642 24.0622062 C-7.74309489 20.17519242 -7.7383078 16.28821066 -7.73265791 12.4011994 C-7.73471323 11.25889546 -7.73676855 10.11659153 -7.73888615 8.93967232 C-7.7361264 7.9144776 -7.73336666 6.88928287 -7.73052329 5.83302164 C-7.73023179 4.94266378 -7.72994029 4.05230591 -7.72963996 3.1349675 C-7.44506544 -1.40048173 -3.6933396 0.01069055 0 0 Z " fill="#FEFEFE" transform="translate(784.6040234565735,194.86706441640854)"/>
<path d="M0 0 C1.44435464 0.00351175 1.44435464 0.00351175 2.91788816 0.00709444 C4.44377097 0.00491428 4.44377097 0.00491428 6.0004797 0.00269008 C9.45491765 -0.0009982 12.90931225 0.00252949 16.36374998 0.00595194 C18.8470304 0.00480124 21.33031064 0.00321406 23.81359053 0.0012247 C29.23630542 -0.00209578 34.65900671 -0.00226967 40.08172178 0.00027186 C48.14523869 0.00404089 56.20874716 0.00212763 64.272264 -0.00093645 C78.67033615 -0.00621358 93.06840387 -0.00574128 107.46647644 -0.00285754 C120.0661459 -0.00034625 132.66581373 0.00031672 145.26548338 -0.00088018 C146.51703372 -0.00099476 146.51703372 -0.00099476 147.79386792 -0.00111165 C151.18046764 -0.00142297 154.56706737 -0.00174137 157.95366709 -0.00207142 C189.75055741 -0.00513338 221.5474449 -0.00235225 253.34433478 0.00302548 C281.6206648 0.00777141 309.89699031 0.0073468 338.17332029 0.00256449 C369.91045402 -0.00278514 401.64758525 -0.00491627 433.38471937 -0.00182325 C436.76530282 -0.00150251 440.14588626 -0.00118967 443.52646971 -0.00088018 C444.35891237 -0.0008011 445.19135504 -0.00072203 446.04902324 -0.00064055 C458.64363824 0.00049899 471.23825144 -0.0008372 483.83286619 -0.00335974 C498.14731361 -0.00621236 512.4617559 -0.00551838 526.77620268 -0.00007899 C534.79664506 0.00286782 542.81707633 0.00303388 550.83751844 -0.00072517 C556.80970055 -0.00321655 562.78186808 -0.00053492 568.7540493 0.00424941 C571.18268853 0.00537479 573.61132924 0.00477977 576.03996754 0.00237362 C579.31802191 -0.00062719 582.59601392 0.00241081 585.87406492 0.00709444 C586.83696802 0.00475328 587.79987111 0.00241211 588.79195309 0 C595.28182621 0.01878525 595.28182621 0.01878525 596.39597654 1.13293558 C596.4937584 2.69965961 596.52120644 4.27081192 596.52132571 5.84058434 C596.52508099 7.38091089 596.52508099 7.38091089 596.52891213 8.95235515 C596.52657096 10.09654928 596.52422979 11.2407434 596.52181768 12.41961008 C596.52327112 13.62765152 596.52472457 14.83569295 596.52622205 16.0803417 C596.52926381 19.46375845 596.52776989 22.84712046 596.5244441 26.23053352 C596.52192333 29.8999487 596.52516094 33.56935933 596.52768743 37.23877388 C596.53131216 43.67988604 596.53118159 50.12098983 596.52864027 56.56210238 C596.52487155 66.13996066 596.52678433 75.71781182 596.52984858 85.29567005 C596.53512595 102.39763141 596.53465331 119.49958905 596.53176966 136.60155077 C596.52925846 151.56737065 596.52859537 166.53318915 596.52979231 181.49900919 C596.52990689 182.98554532 596.52990689 182.98554532 596.53002378 184.50211247 C596.53033509 188.52455725 596.53065349 192.54700202 596.53098354 196.56944679 C596.53404557 234.33695637 596.53126429 272.10446357 596.52588665 309.87197279 C596.52114071 343.45847338 596.52156532 377.04497018 596.52634764 410.63147074 C596.53169717 448.32796591 596.53382845 486.02445898 596.53073537 523.72095448 C596.53041463 527.73625698 596.5301018 531.75155948 596.52979231 535.76686198 C596.52971323 536.75560065 596.52963415 537.74433932 596.52955268 538.76303976 C596.5284131 553.7229224 596.5297494 568.68280352 596.53227186 583.64268595 C596.53512438 600.64524163 596.53443075 617.64779299 596.52899112 634.65034813 C596.52604412 644.17716012 596.52587852 653.70396276 596.52963729 663.23077451 C596.53186783 669.58232139 596.53050573 675.93386072 596.52613252 682.28540648 C596.52373767 685.91228784 596.52297339 689.53915054 596.52653851 693.16603136 C596.53032689 697.05945143 596.52650201 700.95284144 596.52181768 704.84626108 C596.52415885 705.99045521 596.52650002 707.13464934 596.52891213 708.31351602 C596.52640861 709.34040039 596.52390509 710.36728475 596.52132571 711.42528683 C596.52122407 712.76303101 596.52122407 712.76303101 596.52112038 714.12780032 C596.39597654 716.13293558 596.39597654 716.13293558 595.39597654 717.13293558 C592.22109502 717.23395917 589.06786692 717.26836125 585.89247561 717.26157004 C584.36957475 717.26419959 584.36957475 717.26419959 582.81590822 717.26688227 C579.36822433 717.27158375 575.92058185 717.26906621 572.4728961 717.26664835 C569.99445306 717.26851424 567.51601031 717.27081405 565.03756803 717.27351367 C559.6253966 717.27837693 554.21323752 717.28008225 548.80106497 717.27905756 C540.75317029 717.27753755 532.70528558 717.28168343 524.65739283 717.28693219 C509.45035973 717.29662244 494.24332999 717.29941705 479.03629417 717.29998925 C467.29672561 717.30044809 455.55715837 717.30250279 443.81759024 717.30568987 C440.44320105 717.30658736 437.06881185 717.30747717 433.69442266 717.30836475 C432.43624119 717.30869632 432.43624119 717.30869632 431.15264191 717.30903459 C407.54691511 717.31519206 383.94118877 717.31913482 360.33546114 717.31869131 C359.44477858 717.31867573 358.55409601 717.31866016 357.63642307 717.3186441 C353.1216637 717.31856099 348.60690434 717.31846195 344.09214497 717.3183594 C343.19543297 717.31833945 342.29872096 717.31831951 341.37483587 717.31829896 C339.56146461 717.31825852 337.74809336 717.31821672 335.93472211 717.31817357 C307.71208497 717.3175606 279.48945985 717.32506988 251.26682615 717.33874613 C219.58864587 717.35409042 187.91047349 717.36271336 156.23228925 717.36178291 C152.85758571 717.36170827 149.48288216 717.36165957 146.10817862 717.36162859 C145.27718652 717.36161694 144.44619443 717.36160528 143.59002076 717.36159328 C130.1887813 717.36156244 116.78755222 717.36796159 103.38631584 717.37656086 C89.92934639 717.38501759 76.47239221 717.38604288 63.01542158 717.37945154 C55.01072873 717.37574264 47.00608211 717.37762794 39.00139411 717.38739388 C33.03915614 717.39405621 27.07697343 717.39037706 21.11473488 717.38252065 C18.69146093 717.38097045 16.26818206 717.38285809 13.84491391 717.38838073 C10.57163071 717.3953512 7.29859292 717.39021856 4.02531862 717.38182455 C3.06664689 717.38679273 2.10797515 717.39176091 1.12025276 717.39687964 C-0.17833039 717.38975343 -0.17833039 717.38975343 -1.50314754 717.38248324 C-2.25256668 717.38257147 -3.00198582 717.38265969 -3.77411463 717.38275058 C-5.60402346 717.13293558 -5.60402346 717.13293558 -7.60402346 715.13293558 C-7.85383845 713.00575983 -7.85383845 713.00575983 -7.85357112 710.30750036 C-7.85832193 709.27980212 -7.86307274 708.25210388 -7.86796752 707.19326326 C-7.86299934 706.05330049 -7.85803116 704.91333772 -7.85291243 703.73883063 C-7.85551971 702.53132372 -7.858127 701.32381682 -7.86081329 700.0797188 C-7.86605565 696.70240272 -7.86224478 693.32530869 -7.8547572 689.94801066 C-7.84881327 686.28353256 -7.85440905 682.61906989 -7.85857803 678.95459187 C-7.86427954 672.52369529 -7.86249495 666.09283395 -7.85589266 659.66193873 C-7.84610207 650.09929577 -7.8477004 640.53667877 -7.85164295 630.97403283 C-7.85792856 614.89006706 -7.85473461 598.80611593 -7.84604883 582.72215182 C-7.83744643 566.78948874 -7.83252839 550.85683224 -7.83271646 534.92416674 C-7.83272411 533.93459774 -7.83273176 532.94502875 -7.83273963 531.92547281 C-7.83278054 527.9089063 -7.83284615 523.8923398 -7.83294545 519.87577329 C-7.8338523 482.16754171 -7.8238948 444.45932017 -7.80851578 406.75109207 C-7.79489004 373.21813415 -7.7886545 339.68518336 -7.78932619 306.15222269 C-7.7893666 303.99906715 -7.78940696 301.8459116 -7.78944727 299.69275605 C-7.78946762 298.62829848 -7.78948797 297.5638409 -7.78950894 296.46712704 C-7.78960973 291.10927215 -7.78970031 285.75141726 -7.78977919 280.39356238 C-7.7897959 279.33663864 -7.78981261 278.27971491 -7.78982983 277.19076318 C-7.79019466 249.20557937 -7.78566005 221.22039646 -7.77945262 193.2352134 C-7.77923235 192.24026523 -7.77901208 191.24531705 -7.77878513 190.22021893 C-7.77789686 186.21892801 -7.77700847 182.21763709 -7.77609418 178.21634618 C-7.7729294 164.2712376 -7.77142429 150.32612973 -7.77098269 136.38102081 C-7.77038666 118.41473761 -7.76641355 100.44846031 -7.75655123 82.48217963 C-7.75142085 72.97091577 -7.74903196 63.45966056 -7.75054741 53.94839537 C-7.75127839 47.60724654 -7.74840413 41.26610618 -7.7425036 34.92496007 C-7.73923397 31.30403634 -7.73758861 27.68313084 -7.7402642 24.0622062 C-7.74309489 20.17519242 -7.7383078 16.28821066 -7.73265791 12.4011994 C-7.73471323 11.25889546 -7.73676855 10.11659153 -7.73888615 8.93967232 C-7.7361264 7.9144776 -7.73336666 6.88928287 -7.73052329 5.83302164 C-7.73023179 4.94266378 -7.72994029 4.05230591 -7.72963996 3.1349675 C-7.44506544 -1.40048173 -3.6933396 0.01069055 0 0 Z M26.39597654 34.13293558 C26.39597654 197.15293558 26.39597654 360.17293558 26.39597654 528.13293558 C203.27597654 528.13293558 380.15597654 528.13293558 562.39597654 528.13293558 C562.39597654 365.11293558 562.39597654 202.09293558 562.39597654 34.13293558 C385.51597654 34.13293558 208.63597654 34.13293558 26.39597654 34.13293558 Z " fill="#097CC9" transform="translate(784.6040234565735,194.86706441640854)"/>
<path d="M0 0 C5.5175644 -0.71194379 5.5175644 -0.71194379 8 0 C11.47934238 3.74002841 13.40070055 7.78135587 15.2578125 12.47265625 C15.55798279 13.21069489 15.85815308 13.94873352 16.16741943 14.70913696 C17.16106162 17.15718718 18.14288401 19.60980556 19.125 22.0625 C19.83131757 23.80805347 20.53853067 25.5532448 21.24658203 27.2980957 C22.74163579 30.98468986 24.23256346 34.67291439 25.72070312 38.36230469 C29.03516688 46.57128472 32.39670094 54.76097096 35.7543335 62.95236206 C37.64850314 67.57533888 39.53895904 72.19983373 41.4296875 76.82421875 C42.19236661 78.68929699 42.95506192 80.55436861 43.71777344 82.41943359 C44.09494507 83.34173767 44.4721167 84.26404175 44.86071777 85.21429443 C47.86552227 92.56146481 50.8713522 99.90821577 53.87701416 107.2550354 C55.75139515 111.83666884 57.62569336 116.41833614 59.5 121 C60.2499996 122.8333335 60.9999996 124.66666683 61.75 126.5 C90.40820312 196.55338542 119.06640625 266.60677083 147.72460938 336.66015625 C148.07228363 337.50926575 148.41995789 338.35837524 148.77816772 339.23321533 C149.46524348 340.91425974 150.15019301 342.5961749 150.83291626 344.2789917 C152.69201679 348.85279049 154.59814513 353.40075563 156.56201172 357.93066406 C156.98377182 358.91902252 157.40553192 359.90738098 157.84007263 360.9256897 C158.65222311 362.82703704 159.47728186 364.72294063 160.317276 366.6121521 C162.47914352 371.71680377 163.90264006 375.50348426 162 381 C158.00613123 384.17964968 154.36805615 384.42771396 149.44620419 384.38031673 C148.69030706 384.38497665 147.93440993 384.38963657 147.15560684 384.3944377 C144.61413671 384.40642072 142.07319793 384.39697971 139.53172302 384.38768005 C137.69471904 384.39185151 135.85771763 384.39732799 134.02072102 384.40399987 C128.96598877 384.41849756 123.91141896 384.41419629 118.85667765 384.40683305 C113.40808798 384.40211444 107.95953411 384.41459954 102.51095581 384.42485046 C91.83479252 384.44206868 81.15868801 384.44287232 70.48251443 384.43763756 C61.80846182 384.43360075 53.13442661 384.43503359 44.46037483 384.44038582 C42.61056972 384.44150845 42.61056972 384.44150845 40.7233948 384.44265376 C38.21840039 384.44418519 35.71340598 384.44572354 33.20841158 384.44726873 C10.37497034 384.46061259 -12.45844406 384.45626797 -35.29188403 384.44505819 C-56.14408282 384.43495254 -76.99620111 384.44331653 -97.84838867 384.46655273 C-121.26804506 384.49260763 -144.68766029 384.5054287 -168.10733265 384.49836498 C-180.51082065 384.49486589 -192.91424253 384.4971504 -205.31772041 384.51461601 C-215.87489114 384.52929705 -226.43194915 384.53002714 -236.98911757 384.5125451 C-242.37895269 384.50399942 -247.76858612 384.50197222 -253.15841103 384.51719666 C-258.08746349 384.53094767 -263.01613964 384.52640522 -267.9451698 384.50695742 C-269.73310008 384.50316748 -271.52105982 384.50620453 -273.30896408 384.51656907 C-275.73045176 384.52961391 -278.15061626 384.51826928 -280.57204533 384.50057125 C-281.27404176 384.51022176 -281.97603818 384.51987227 -282.69930723 384.52981523 C-286.00835379 384.47979936 -287.74421415 384.19169708 -290.42274326 382.18429047 C-292.29177308 379.59593316 -292.72250713 377.61629076 -292.54785156 374.43212891 C-291.30157052 368.89939642 -288.15242394 364.07581289 -285.375 359.1875 C-284.3387006 357.3193022 -283.30851583 355.44781057 -282.27833557 353.57623291 C-281.57135018 352.2930419 -280.86237693 351.01094423 -280.151474 349.72991943 C-276.56797766 343.26443369 -273.18480874 336.70311299 -269.8125 330.125 C-265.7043975 322.15024663 -261.52223775 314.22880301 -257.1875 306.375 C-251.71794232 296.46090445 -246.54681168 286.40364991 -241.38705444 276.32635498 C-236.58972851 266.96193885 -231.69099746 257.67258315 -226.59765625 248.46484375 C-222.06742036 240.22693512 -217.78423425 231.86744871 -213.5 223.5 C-208.30972609 213.36314438 -203.03780843 203.2919014 -197.52734375 193.32421875 C-193.20092231 185.45906673 -189.0966897 177.48624002 -185 169.5 C-180.17317315 160.09609613 -175.30488911 150.72173101 -170.25 141.4375 C-169.53457031 140.11878906 -169.53457031 140.11878906 -168.8046875 138.7734375 C-167.93839687 137.19358377 -167.05866868 135.6209806 -166.16210938 134.05810547 C-164.99394956 132.05003555 -164.99394956 132.05003555 -164.10351562 130.08642578 C-163.234375 128.41015625 -163.234375 128.41015625 -161 126 C-157.79189954 125.05001921 -155.2134431 125.08116823 -152 126 C-149.45417881 127.917797 -147.9053987 130.27818175 -146.1875 132.9375 C-145.68597412 133.65824707 -145.18444824 134.37899414 -144.66772461 135.12158203 C-143.613987 136.64034399 -142.57288603 138.16794345 -141.54394531 139.70361328 C-139.59460998 142.60295676 -137.57137896 145.44566346 -135.54443359 148.29101562 C-134.04113654 150.40504259 -132.55079023 152.52773105 -131.0625 154.65234375 C-127.93322611 159.10793905 -124.75424217 163.52651041 -121.5625 167.9375 C-121.02318848 168.68298096 -120.48387695 169.42846191 -119.92822266 170.1965332 C-118.28620719 172.46488195 -116.64327952 174.73256684 -115 177 C-112.81132367 180.01998366 -110.62395767 183.04090971 -108.4375 186.0625 C-107.90672852 186.7944458 -107.37595703 187.5263916 -106.82910156 188.28051758 C-104.04351948 192.13169939 -101.2926776 196.0030828 -98.5859375 199.91015625 C-97.76138062 201.09629517 -97.76138062 201.09629517 -96.92016602 202.30639648 C-95.86790409 203.82398669 -94.82127889 205.34550461 -93.78100586 206.87133789 C-92.5700137 208.61619262 -91.29136122 210.31375973 -90 212 C-89.34 212 -88.68 212 -88 212 C-77.60807572 187.03856522 -67.32041111 162.03630731 -57.11550903 136.99784851 C-56.69969574 135.977621 -56.28388245 134.95739349 -55.85546875 133.90625 C-55.44328094 132.89484451 -55.03109314 131.88343903 -54.60641479 130.84138489 C-49.05910884 117.2333973 -43.475864 103.64016838 -37.89282227 90.04681396 C-35.60902734 84.48560807 -33.32913515 78.92281196 -31.05078125 73.359375 C-27.04127614 63.5698622 -23.02374066 53.78366996 -19 44 C-18.43360809 42.62237488 -18.43360809 42.62237488 -17.85577393 41.21691895 C-15.49745884 35.48203361 -13.13504483 29.74886226 -10.76754761 24.01776123 C-10.01067503 22.1842774 -9.25490279 20.35033892 -8.50027466 18.51593018 C-7.45380038 15.97287008 -6.40322195 13.43154436 -5.3515625 10.890625 C-5.04086319 10.13319 -4.73016388 9.375755 -4.41004944 8.59536743 C-3.12978501 5.51286215 -1.8579185 2.78687775 0 0 Z " fill="#0A7CC9" transform="translate(1142,319)"/>
<path d="M0 0 C8.18311604 0.62912633 15.90685051 2.57519243 23.83984375 4.60546875 C25.28912106 4.97140442 26.73855185 5.33673274 28.18812561 5.70149231 C32.00160815 6.66243622 35.81337717 7.62999697 39.62469482 8.5994873 C46.3819729 10.3174726 53.14188415 12.02505297 59.90234375 13.73046875 C60.64020615 13.91684654 61.37806854 14.10322433 62.13829041 14.29524994 C71.48518995 16.65388787 80.84454969 18.92572703 90.24609375 21.05859375 C103.53523644 24.07493041 116.73559735 27.423905 129.93588257 30.8031311 C136.51064008 32.48620848 143.0879304 34.1593493 149.66511345 35.83291817 C151.17896788 36.21813396 152.69279866 36.60344273 154.20660591 36.98884392 C170.52220844 41.1422738 186.85237173 45.23662701 203.1875 49.3125 C203.85049606 49.47792801 204.51349213 49.64335602 205.19657898 49.813797 C211.08392133 51.28266312 216.971369 52.75110673 222.85897827 54.21890259 C231.16209279 56.28957007 239.46265087 58.3702098 247.76171875 60.45703125 C250.96543019 61.26164093 254.16918611 62.06607326 257.37295532 62.87045288 C259.31293059 63.3580548 261.2527035 63.8464629 263.19223022 64.33584595 C273.48818165 66.93341598 283.79919682 69.4291646 294.15234375 71.7890625 C309.74743536 75.35222511 325.25711278 79.24743925 340.77156067 83.14358139 C344.05986038 83.9689689 347.34862447 84.79249848 350.63736153 85.61614132 C377.37058661 92.31221174 404.08845807 99.06892472 430.79760742 105.86035156 C438.19480755 107.74120945 445.59279764 109.61892381 452.99203491 111.49175262 C454.34275237 111.83364034 455.69343952 112.17564784 457.0440979 112.51776886 C471.22717936 116.10953977 485.41011005 119.67843437 499.6796875 122.9140625 C515.75941881 126.56502018 531.72239712 130.67925261 547.69818115 134.75610352 C551.80866284 135.80437404 555.91999795 136.84928696 560.03125 137.89453125 C568.02164488 139.9265093 576.01112982 141.96203574 584 144 C583.2921279 146.84325642 582.55814422 149.67731144 581.80078125 152.5078125 C579.1027196 162.6645635 576.542923 172.83425827 574.23046875 183.0859375 C570.79857235 198.11865648 566.95910616 213.03951415 563.10449219 227.96826172 C559.64182207 241.39698839 556.30793232 254.83756571 553.23303223 268.3605957 C550.79032625 279.04505718 548.08000634 289.65522549 545.3359375 300.265625 C539.92843386 321.07448048 539.92843386 321.07448048 535 342 C531.65587542 357.05921068 527.70570014 371.97337612 523.84375 386.90625 C521.10348119 397.53413812 518.46483653 408.17238767 516.03125 418.875 C512.6713837 433.64597394 508.89131521 448.30206547 505.10449219 462.96826172 C501.64182207 476.39698839 498.30793232 489.83756571 495.23303223 503.3605957 C492.79032625 514.04505718 490.08000634 524.65522549 487.3359375 535.265625 C481.92843386 556.07448048 481.92843386 556.07448048 477 577 C473.65587542 592.05921068 469.70570014 606.97337612 465.84375 621.90625 C463.10348119 632.53413812 460.46483653 643.17238767 458.03125 653.875 C454.6713837 668.64597394 450.89131521 683.30206547 447.10449219 697.96826172 C443.64182207 711.39698839 440.30793232 724.83756571 437.23303223 738.3605957 C434.78950466 749.04865083 432.07817456 759.66236588 429.33319092 770.27633667 C425.06655961 786.7841773 420.85392804 803.28966284 417.1484375 819.93359375 C416.27681523 823.80534292 415.39390429 827.67396044 414.4765625 831.53515625 C414.24275879 832.53039307 414.00895508 833.52562988 413.76806641 834.55102539 C413 837 413 837 411 839 C406.28999268 838.59885031 401.80169275 837.53463516 397.23046875 836.36328125 C396.59176346 836.20135788 395.95305817 836.03943451 395.29499817 835.87260437 C393.25827458 835.35599589 391.22277805 834.83477197 389.1875 834.3125 C380.74949982 832.15295124 372.30633493 830.05646586 363.81063843 828.13449097 C343.80413889 823.60160561 323.94096894 818.49600348 304.05969238 813.44793701 C300.01677719 812.42218292 295.97312203 811.39936322 291.92945194 810.37658978 C288.02341336 809.38843432 284.11768429 808.39906051 280.21206474 807.40925026 C278.35295279 806.93813278 276.493778 806.46726323 274.63453865 805.99664879 C272.06083186 805.34487357 269.48751223 804.69159255 266.91430664 804.0378418 C266.15242538 803.84514709 265.39054413 803.65245239 264.60557556 803.45391846 C261.70119079 802.71464373 258.84442028 801.94814009 256 801 C256 771.3 256 741.6 256 711 C266.11234066 712.12359341 266.11234066 712.12359341 270.51831055 713.37182617 C271.50853714 713.64674393 272.49876373 713.92166168 273.51899719 714.20491028 C274.56847031 714.50209457 275.61794342 714.79927887 276.69921875 715.10546875 C286.37652896 717.77810922 296.07687256 720.30272387 305.83203125 722.67578125 C307.06363983 722.97588104 308.29524841 723.27598083 309.56417847 723.58517456 C314.60783404 724.81145333 319.6528577 726.03204362 324.69799805 727.25219727 C328.45174764 728.16121415 332.20441949 729.07458058 335.95703125 729.98828125 C337.09646683 730.26223221 338.2359024 730.53618317 339.40986633 730.81843567 C340.46675156 731.07598129 341.52363678 731.33352692 342.61254883 731.59887695 C343.53562332 731.82203079 344.45869781 732.04518463 345.40974426 732.27510071 C348.0331881 733.0092879 350.49154389 733.94198366 353 735 C353.12375 733.80375 353.2475 732.6075 353.375 731.375 C353.82325054 727.72403187 354.70446837 724.45475101 356 721 C355.33427979 720.8875293 354.66855957 720.77505859 353.98266602 720.65917969 C347.21198159 719.47713769 340.58940546 717.97061122 333.9375 716.25 C325.60697341 714.12696342 317.26287304 712.13419356 308.875 710.25 C291.49850996 706.17983116 274.25919697 701.54189394 257 697 C257 667.63 257 638.26 257 608 C269.37783788 610.25051598 269.37783788 610.25051598 273.65039062 611.27758789 C275.10327484 611.62468307 275.10327484 611.62468307 276.58551025 611.97879028 C278.10552643 612.34700394 278.10552643 612.34700394 279.65625 612.72265625 C280.74484314 612.98408417 281.83343628 613.24551208 282.95501709 613.51486206 C286.47085506 614.36061763 289.98547883 615.2112905 293.5 616.0625 C294.70329956 616.35279083 295.90659912 616.64308167 297.1463623 616.94216919 C312.58954844 620.66823754 328.00485033 624.48272283 343.37683105 628.49224854 C353.13303192 631.03641922 362.91253976 633.40638498 372.75146484 635.60961914 C379.57572162 637.15766987 386.35811046 638.83987444 393.1328125 640.58984375 C394.45998291 640.9325959 394.45998291 640.9325959 395.81396484 641.28227234 C400.24642605 642.42952154 404.67653357 643.58525482 409.10449219 644.74975586 C410.73371199 645.17436232 412.36294324 645.59892489 413.9921875 646.0234375 C414.74202911 646.2231163 415.49187073 646.4227951 416.26443481 646.62852478 C419.66169041 647.51034191 422.46122023 648 426 648 C426.20586731 647.08172424 426.20586731 647.08172424 426.41589355 646.14489746 C429.46105694 632.62168567 432.66820039 619.1499181 436.09375 605.71875 C436.2718924 605.02004791 436.45003479 604.32134583 436.63357544 603.60147095 C438.10311625 597.84250863 439.58003301 592.0854426 441.05718994 586.32843018 C442.34359868 581.31356624 443.62719784 576.2979956 444.90625 571.28125 C445.08536423 570.57890732 445.26447845 569.87656464 445.44902039 569.15293884 C447.74670549 560.12706729 449.94195077 551.08397496 452 542 C454.21994022 532.20145822 456.61119018 522.45336322 459.09375 512.71875 C459.27266281 512.01701157 459.45157562 511.31527313 459.63591003 510.5922699 C461.10467222 504.83637453 462.58081943 499.08237764 464.05718994 493.32843018 C465.34359868 488.31356624 466.62719784 483.2979956 467.90625 478.28125 C468.08536423 477.57890732 468.26447845 476.87656464 468.44902039 476.15293884 C470.74670549 467.12706729 472.94195077 458.08397496 475 449 C477.21994022 439.20145822 479.61119018 429.45336322 482.09375 419.71875 C482.27266281 419.01701157 482.45157562 418.31527313 482.63591003 417.5922699 C484.10467222 411.83637453 485.58081943 406.08237764 487.05718994 400.32843018 C488.34359868 395.31356624 489.62719784 390.2979956 490.90625 385.28125 C491.08536423 384.57890732 491.26447845 383.87656464 491.44902039 383.15293884 C493.74670549 374.12706729 495.94195077 365.08397496 498 356 C500.21994022 346.20145822 502.61119018 336.45336322 505.09375 326.71875 C505.27266281 326.01701157 505.45157562 325.31527313 505.63591003 324.5922699 C507.10467222 318.83637453 508.58081943 313.08237764 510.05718994 307.32843018 C511.34359869 302.31356621 512.62717177 297.29798896 513.90625 292.28125 C514.17504597 291.22733094 514.17504597 291.22733094 514.44927216 290.15212059 C516.74275651 281.14360942 518.93245644 272.11783756 520.984375 263.05078125 C523.2416998 253.07789996 525.69462938 243.165521 528.234375 233.26171875 C528.41825775 232.54382801 528.6021405 231.82593727 528.79159546 231.08629227 C530.4925217 224.44836877 532.20046296 217.81226291 533.91552734 211.17797852 C534.86795429 207.49240912 535.81417711 203.80528987 536.75678253 200.11719704 C537.11001667 198.74016099 537.46553037 197.36370716 537.82360077 195.98792076 C540.0658407 187.37117767 541.82852736 178.82856447 543 170 C535.64434945 168.11165817 528.28742218 166.22834915 520.9296875 164.34814453 C518.43949896 163.71121617 515.94957901 163.07323658 513.45996094 162.43408203 C499.52786846 158.85814075 485.58319361 155.40304036 471.55728149 152.21408081 C458.74863694 149.28595415 446.04127604 145.97073154 433.32275391 142.67724609 C421.62045015 139.65143918 409.91180435 136.7113628 398.125 134.03125 C383.35402606 130.6713837 368.69793453 126.89131521 354.03173828 123.10449219 C340.60301161 119.64182207 327.16243429 116.30793232 313.6394043 113.23303223 C300.80333408 110.29842055 288.06855844 106.97779637 275.32275391 103.67724609 C263.62045015 100.65143918 251.91180435 97.7113628 240.125 95.03125 C225.35402606 91.6713837 210.69793453 87.89131521 196.03173828 84.10449219 C182.60301161 80.64182207 169.16243429 77.30793232 155.6394043 74.23303223 C144.95383981 71.79007408 134.34257685 69.07945583 123.7310791 66.33511353 C108.67200891 62.44290513 93.62205448 58.56602341 78.43847656 55.18676758 C66.57994243 52.51608073 54.82863117 49.40313305 43.06738281 46.3371582 C42.2477002 46.1243924 41.42801758 45.91162659 40.58349609 45.69241333 C39.04252485 45.2922152 37.50211913 44.88983045 35.96240234 44.48483276 C31.99384435 43.45493513 28.05566546 42.60389129 24 42 C23.89342072 42.6369429 23.78684143 43.2738858 23.67703247 43.93013 C22.35162811 51.55477214 20.6091829 59.03467102 18.7421875 66.54296875 C18.43427277 67.79257889 18.12635803 69.04218903 17.80911255 70.32966614 C16.99995893 73.61329335 16.186832 76.89592333 15.37280273 80.17834473 C14.53904744 83.54342036 13.70911489 86.90943855 12.87890625 90.27539062 C11.25667829 96.85127977 9.62819589 103.42557456 8 110 C-3.88 110 -15.76 110 -28 110 C-26.70852725 102.89689985 -25.35270141 95.9669125 -23.6015625 88.98632812 C-23.37039734 88.05319794 -23.13923218 87.12006775 -22.90106201 86.15866089 C-22.14600332 83.11527499 -21.38579781 80.07320588 -20.625 77.03125 C-20.09442688 74.90184889 -19.56399294 72.7724131 -19.03369141 70.64294434 C-17.9265854 66.2011304 -16.81671847 61.76001714 -15.70507812 57.31933594 C-14.27963645 51.62349665 -12.8628426 45.92554499 -11.44827271 40.22699738 C-10.35769707 35.83889735 -9.26175188 31.45215185 -8.16424561 27.06578064 C-7.63928699 24.96425127 -7.1162066 22.86225181 -6.59503174 20.75978088 C-5.86841616 17.83126236 -5.13439947 14.9046971 -4.3984375 11.97851562 C-4.07730988 10.67411026 -4.07730988 10.67411026 -3.74969482 9.34335327 C-3.54789612 8.54736725 -3.34609741 7.75138123 -3.13818359 6.93127441 C-2.87936905 5.89494747 -2.87936905 5.89494747 -2.61532593 4.83768463 C-2 3 -2 3 0 0 Z " fill="#0A7CC9" transform="translate(1139,68)"/>
<path d="M0 0 C2.06686552 0.00315404 4.13228526 -0.02036994 6.19897461 -0.0456543 C25.43714965 -0.13876604 43.5569919 5.17195769 59.26733398 16.31567383 C60.25733398 16.97567383 61.24733398 17.63567383 62.26733398 18.31567383 C62.26733398 13.69567383 62.26733398 9.07567383 62.26733398 4.31567383 C80.41733398 4.31567383 98.56733398 4.31567383 117.26733398 4.31567383 C117.38050773 30.68167521 117.47248442 57.04747779 117.52639484 83.413661 C117.55209951 95.65786161 117.58710107 107.90189979 117.64453125 120.14599609 C117.69460419 130.82668513 117.72668111 141.50725646 117.73777646 152.18805963 C117.74425497 157.83558097 117.75931748 163.48276574 117.79598427 169.13017845 C117.83032247 174.46294785 117.84031184 179.79524714 117.83287239 185.12811661 C117.83423025 187.06890367 117.84393445 189.00970909 117.86336136 190.9503994 C118.12223604 218.18357979 110.99465024 242.60072753 91.94311523 262.72192383 C70.05693148 283.93714429 40.79052781 289.75385045 11.32983398 289.69067383 C10.42169952 289.69046234 9.51356506 289.69025085 8.57791138 289.69003296 C-5.20003046 289.65799653 -18.37958916 288.99642446 -31.73266602 285.31567383 C-32.84085693 285.01886719 -32.84085693 285.01886719 -33.97143555 284.71606445 C-52.78101256 279.56229873 -70.35616141 271.33556101 -85.73266602 259.31567383 C-85.09242737 255.61267195 -83.46613059 253.1466139 -81.35766602 250.06567383 C-80.28258789 248.48786133 -80.28258789 248.48786133 -79.18579102 246.87817383 C-78.79327148 246.3084082 -78.40075195 245.73864258 -77.99633789 245.15161133 C-76.6462701 243.19015271 -75.30625369 241.22205792 -73.96704102 239.25317383 C-69.36065196 232.49766194 -64.72615169 225.7937093 -59.73266602 219.31567383 C-55.87228988 219.95906985 -53.22399637 221.80995159 -49.98266602 223.94067383 C-26.91463347 238.46972903 0.09090736 244.1356648 27.07983398 239.19067383 C37.38977036 236.50222794 47.67375267 231.7420458 53.89233398 222.81567383 C59.69007424 212.79627805 60.88239928 202.71146695 60.26733398 191.31567383 C59.61249023 191.76297852 58.95764648 192.2102832 58.28295898 192.67114258 C35.77609576 207.58035 7.62324591 212.17749543 -18.85766602 207.06567383 C-21.15525094 206.50610488 -23.44728836 205.92317928 -25.73266602 205.31567383 C-26.94567383 205.04883789 -28.15868164 204.78200195 -29.40844727 204.50708008 C-54.4445525 198.65752278 -76.5542593 182.58320584 -90.24169922 160.92529297 C-105.18054892 136.55952464 -109.63877279 107.16819593 -103.56884766 79.27734375 C-97.32697375 53.25855741 -81.94233182 30.82628092 -59.20654297 16.50976562 C-48.37190248 9.94087033 -37.11941232 5.14424901 -24.73266602 2.31567383 C-23.96929932 2.13834717 -23.20593262 1.96102051 -22.41943359 1.77832031 C-14.96158034 0.21698646 -7.59387841 -0.02413025 0 0 Z " fill="#05292A" transform="translate(945.732666015625,1122.684326171875)"/>
<path d="M0 0 C137.3080991 0 137.3080991 0 154.75 6.1875 C155.62140625 6.48938232 156.4928125 6.79126465 157.390625 7.10229492 C183.83419321 16.58357797 203.84656714 34.59289756 216.09521484 59.95751953 C226.41662793 83.25728798 226.37694051 112.96085375 217.375 136.625 C208.02226357 159.3150355 190.26248608 176.04742535 168 186 C149.7936068 193.41124727 130.61598438 196.34406293 111.07421875 196.1953125 C109.77021118 196.19329834 108.46620361 196.19128418 107.12268066 196.18920898 C102.31091733 196.17884575 97.49920465 196.15092427 92.6875 196.125 C76.5071875 196.063125 76.5071875 196.063125 60 196 C60 222.4 60 248.8 60 276 C40.2 276 20.4 276 0 276 C0 184.92 0 93.84 0 0 Z " fill="#052A2B" transform="translate(1380,1058)"/>
<path d="M0 0 C2.77748218 2.48594504 5.49317173 5.01660923 8.12890625 7.65234375 C8.45890625 1.38234375 8.78890625 -4.88765625 9.12890625 -11.34765625 C27.60890625 -11.34765625 46.08890625 -11.34765625 65.12890625 -11.34765625 C65.12890625 56.96234375 65.12890625 125.27234375 65.12890625 195.65234375 C46.64890625 195.65234375 28.16890625 195.65234375 9.12890625 195.65234375 C8.79890625 189.71234375 8.46890625 183.77234375 8.12890625 177.65234375 C7.09765625 178.64234375 6.06640625 179.63234375 5.00390625 180.65234375 C-14.91483887 197.88971933 -41.32918787 202.34610409 -66.87109375 200.65234375 C-93.40722546 197.72058982 -117.52403664 185.08718992 -134.87109375 164.65234375 C-155.11958102 138.38874813 -161.35963379 104.17396203 -157.375 71.72265625 C-156.78182415 67.96423682 -155.89271374 64.31864128 -154.87109375 60.65234375 C-154.53078125 59.42257812 -154.19046875 58.1928125 -153.83984375 56.92578125 C-149.35518401 42.2900336 -142.58280983 29.47684633 -132.87109375 17.65234375 C-132.32066406 16.93820312 -131.77023437 16.2240625 -131.203125 15.48828125 C-116.67961974 -2.51369317 -92.67698034 -13.45865051 -70.04296875 -15.94140625 C-45.84522148 -18.0912919 -19.58690482 -16.01595891 0 0 Z " fill="#05292A" transform="translate(728.87109375,1138.34765625)"/>
<path d="M0 0 C0.63164062 0.19335938 1.26328125 0.38671875 1.9140625 0.5859375 C16.50810329 5.15009697 27.61446978 12.64837394 38 24 C38.9075 23.195625 39.815 22.39125 40.75 21.5625 C42.16083034 20.36807192 43.57832254 19.18149646 45 18 C45.83789062 17.30003906 46.67578125 16.60007812 47.5390625 15.87890625 C70.19996836 -2.13120764 96.47183523 -4.96919326 124.62060547 -2.79785156 C143.83915637 -0.4917995 161.51616523 9.41022958 174 24 C180.48061747 32.71183352 185.14221633 42.52936656 188 53 C188.25583862 53.93253098 188.51167725 54.86506195 188.77526855 55.82585144 C191.9880268 69.92751206 191.38705615 84.31440643 191.30418181 98.69044685 C191.28521878 102.5434114 191.28364932 106.39638563 191.28010559 110.24938965 C191.27084202 117.51982098 191.24630673 124.79011434 191.21605712 132.06048536 C191.18233418 140.34846632 191.16598248 148.63645444 191.15097082 156.92448711 C191.1197509 173.9497512 191.06481159 190.97482561 191 208 C172.19 208 153.38 208 134 208 C133.95101563 198.67105469 133.90203125 189.34210938 133.8515625 179.73046875 C133.81616543 173.81053775 133.7802786 167.89061639 133.7421875 161.97070312 C133.68185582 152.5801821 133.62348924 143.18967912 133.578125 133.79907227 C133.54507151 126.95875608 133.50516767 120.11851908 133.45720994 113.27829057 C133.43207698 109.66009642 133.41025762 106.04195391 133.39665604 102.42369652 C133.38130277 98.37373956 133.35064834 94.32403117 133.31884766 90.27416992 C133.31668747 89.08877121 133.31452728 87.9033725 133.31230164 86.68205261 C133.19541188 74.98232104 132.30692497 64.09353476 124.24609375 55.02734375 C114.40270982 45.6612148 102.64332039 44.51865727 89.71875 44.7265625 C80.14052481 45.10683009 72.81755712 49.40489676 66 56 C58.64330358 64.52000476 54.91980587 76.20495864 54.84178162 87.38471985 C54.8319928 88.45177658 54.82220398 89.51883331 54.81211853 90.6182251 C54.80636307 91.77844177 54.8006076 92.93865845 54.79467773 94.1340332 C54.78477814 95.36371323 54.77487854 96.59339325 54.76467896 97.8603363 C54.73854029 101.22356408 54.71665809 104.58676875 54.69667697 107.95003533 C54.67476675 111.46811455 54.64740276 114.98615127 54.62062073 118.50419617 C54.5707618 125.16220822 54.52579783 131.82024395 54.48259836 138.47830218 C54.42831702 146.80392594 54.36749134 155.12950023 54.30664062 163.45507812 C54.19814516 178.30334738 54.09953956 193.15166201 54 208 C35.19 208 16.38 208 -3 208 C-3.02187378 201.98966553 -3.02187378 201.98966553 -3.04418945 195.85791016 C-3.09456793 182.60647096 -3.16101989 169.35515303 -3.23571491 156.10383034 C-3.28060311 148.07102397 -3.3200337 140.03826125 -3.34643555 132.00537109 C-3.36947231 125.00059796 -3.4029333 117.99596376 -3.44870156 110.99130094 C-3.47255759 107.2853647 -3.49133608 103.5795654 -3.49761391 99.87355423 C-3.50483304 95.72751671 -3.5353337 91.58195327 -3.56762695 87.43603516 C-3.56619186 86.21898895 -3.56475677 85.00194275 -3.5632782 83.74801636 C-3.69339929 71.90417523 -6.19610211 61.83434039 -14.74609375 53.24609375 C-24.89580009 44.82669077 -37.24675958 43.93208177 -49.89453125 44.77685547 C-59.02113309 45.74412287 -66.80215898 51.22250165 -72.75390625 57.99609375 C-80.92494211 69.15703245 -82.1377097 82.69619818 -82.20532227 96.06396484 C-82.21522186 97.27428375 -82.22512146 98.48460266 -82.23532104 99.7315979 C-82.26142889 103.03691695 -82.28332363 106.34221288 -82.30332303 109.64757109 C-82.32525778 113.10692096 -82.35260968 116.56622798 -82.37937927 120.02554321 C-82.42920524 126.57019065 -82.47418133 133.114862 -82.51740164 139.65955603 C-82.57171559 147.84468401 -82.63252703 156.02976207 -82.69335938 164.21484375 C-82.80180236 178.80985742 -82.90043993 193.40491703 -83 208 C-101.81 208 -120.62 208 -140 208 C-140 139.36 -140 70.72 -140 0 C-121.19 0 -102.38 0 -83 0 C-82.505 8.91 -82.505 8.91 -82 18 C-80.824375 17.01 -79.64875 16.02 -78.4375 15 C-67.75754689 6.74351043 -55.87486758 1.72651447 -43 -2 C-42.38584229 -2.17958252 -41.77168457 -2.35916504 -41.13891602 -2.54418945 C-28.39798403 -5.259327 -12.35380169 -3.91995631 0 0 Z " fill="#052A2B" transform="translate(331,1126)"/>
<path d="M0 0 C0.70060547 0.19335938 1.40121094 0.38671875 2.12304688 0.5859375 C32.46908459 9.17293857 56.56600873 27.98797633 72.13012695 55.52856445 C84.27328848 77.80359157 88.36832045 105.17196652 82 130 C72.70063683 160.41680513 53.81863698 184.592703 25.90087891 199.99511719 C-2.68770929 215.10822135 -35.77670603 217.21088086 -66.5625 207.875 C-80.51941131 202.87439541 -92.67003272 195.48302741 -104 186 C-104.79664062 185.36707031 -105.59328125 184.73414063 -106.4140625 184.08203125 C-124.27380888 169.28305413 -138.20918328 144.79942226 -140.78027344 121.71337891 C-142.81201236 96.62366075 -140.61293191 75.06483738 -128 53 C-127.44441406 52.01644531 -126.88882813 51.03289062 -126.31640625 50.01953125 C-110.79590611 24.22646986 -85.21827675 6.6941331 -56.3125 -0.9375 C-38.44434767 -5.21180953 -17.70572938 -4.97267293 0 0 Z " fill="#05292A" transform="translate(2185,1126)"/>
<path d="M0 0 C1.06686035 0.29801514 1.06686035 0.29801514 2.15527344 0.60205078 C31.44866892 8.9976461 56.10230872 27.6464835 71.375 54.125 C83.94322514 76.83292868 88.31504858 103.03587252 82.03515625 128.53515625 C81.69355469 129.67855469 81.35195312 130.82195312 81 132 C80.70198486 133.00716064 80.70198486 133.00716064 80.39794922 134.03466797 C71.67665197 162.78555125 52.09906015 185.7793309 25.875 200.25 C9.4451779 208.92282752 -8.55048497 213.403973 -27.0625 213.3125 C-28.83705566 213.30512817 -28.83705566 213.30512817 -30.64746094 213.29760742 C-57.69392588 212.93902293 -82.13680558 204.35652756 -103 187 C-103.93328125 186.23042969 -104.8665625 185.46085937 -105.828125 184.66796875 C-124.68354577 168.36698347 -137.66561001 144.78023678 -141 120 C-141.29462322 115.28815056 -141.33372563 110.5950882 -141.3125 105.875 C-141.30758545 104.58980469 -141.3026709 103.30460937 -141.29760742 101.98046875 C-140.99159141 77.14766138 -132.67987962 56.32698235 -117 37 C-116.31292969 36.14664062 -115.62585937 35.29328125 -114.91796875 34.4140625 C-87.62637291 2.3122596 -40.38095137 -11.35982178 0 0 Z " fill="#05292A" transform="translate(1923,1126)"/>
<path d="M0 0 C20.41268268 17.04595493 34.22525765 39.19393872 37.71582031 65.81298828 C38.80536779 78.03201986 39.98167887 93.0732845 37 105 C-17.12 105 -71.24 105 -127 105 C-122.18084939 118.49362172 -118.66309674 127.58853026 -106 134 C-87.2604569 142.24660505 -66.90970031 145.63656677 -47 139 C-35.75784125 134.41086824 -26.304532 127.85816747 -18 119 C-14.00842125 120.48072459 -10.42867745 122.36648009 -6.73828125 124.484375 C-6.14758347 124.82245178 -5.55688568 125.16052856 -4.94828796 125.5088501 C-3.70106629 126.22346186 -2.45472813 126.93961762 -1.20922852 127.65722656 C0.66268763 128.7357047 2.53711587 129.80969525 4.41210938 130.8828125 C7.94859009 132.90962031 11.4753843 134.95262422 15 137 C16.01916504 137.58845703 17.03833008 138.17691406 18.08837891 138.78320312 C18.99378418 139.31365234 19.89918945 139.84410156 20.83203125 140.390625 C21.61940674 140.84985352 22.40678223 141.30908203 23.21801758 141.78222656 C25 143 25 143 26 145 C9.28690555 168.519882 -15.50103056 185.30523653 -44.05249023 190.56201172 C-52.93610624 191.96927994 -61.70272037 192.40280418 -70.6875 192.375 C-71.73506973 192.37368576 -71.73506973 192.37368576 -72.80380249 192.37234497 C-84.25626216 192.32515234 -95.03058922 191.46994059 -106 188 C-106.79680176 187.74798828 -107.59360352 187.49597656 -108.41455078 187.23632812 C-135.59248427 178.36667579 -159.38477209 161.95655499 -172.8125 136.125 C-180.24540964 120.36512792 -183.35666545 105.26920206 -183.26074219 87.87573242 C-183.25003428 85.5698813 -183.26068593 83.26481176 -183.2734375 80.95898438 C-183.28172991 72.4397061 -182.77557152 64.36740121 -181 56 C-180.62681641 54.09154297 -180.62681641 54.09154297 -180.24609375 52.14453125 C-176.32393404 35.98220161 -168.27329947 23.04960452 -157 11 C-156.01773437 9.89785156 -156.01773437 9.89785156 -155.015625 8.7734375 C-139.55723284 -7.80800024 -116.83397322 -17.34685817 -95 -22 C-94.24074219 -22.18433594 -93.48148438 -22.36867188 -92.69921875 -22.55859375 C-60.70686405 -29.27189539 -25.35730147 -20.33052365 0 0 Z " fill="#052A2B" transform="translate(1293,1147)"/>
<path d="M0 0 C2.25473261 2.25473261 1.18673855 6.95977249 1.18945312 9.99975586 C1.08143162 22.0208304 -0.04417338 34.02293316 -1 46 C-1.70705078 45.93143799 -2.41410156 45.86287598 -3.14257812 45.79223633 C-22.41563565 43.49055398 -22.41563565 43.49055398 -39.8671875 50.4375 C-47.69907621 58.54214105 -48.17045633 69.21593232 -49 80 C-36.79 80 -24.58 80 -12 80 C-12 95.84 -12 111.68 -12 128 C-24.54 128 -37.08 128 -50 128 C-50 179.48 -50 230.96 -50 284 C-68.48 284 -86.96 284 -106 284 C-106 232.52 -106 181.04 -106 128 C-113.92 128 -121.84 128 -130 128 C-130 112.16 -130 96.32 -130 80 C-122.08 80 -114.16 80 -106 80 C-106 76.37 -106 72.74 -106 69 C-105.44121723 65.26045377 -104.80680075 61.67942251 -104 58 C-103.82855469 57.07703125 -103.65710937 56.1540625 -103.48046875 55.203125 C-100.84964407 42.6430588 -94.6100787 30.50935359 -86 21 C-85.41992188 20.32839844 -84.83984375 19.65679688 -84.2421875 18.96484375 C-64.27000357 -2.72043545 -27.4147468 -8.65964997 0 0 Z " fill="#04292A" transform="translate(2431,1050)"/>
<path d="M0 0 C19.47 0 38.94 0 59 0 C59 91.08 59 182.16 59 276 C39.53 276 20.06 276 0 276 C0 184.92 0 93.84 0 0 Z " fill="#04292A" transform="translate(68,1058)"/>
<path d="M0 0 C0 18.15 0 36.3 0 55 C-7.59 55.66 -15.18 56.32 -23 57 C-36.6561817 60.26814605 -46.03624395 66.20892603 -56 76 C-56.58910156 76.57621094 -57.17820312 77.15242188 -57.78515625 77.74609375 C-71.29412705 92.15335929 -70.46112829 112.67194473 -70.51171875 131.01953125 C-70.52858926 133.33266641 -70.54674265 135.64579253 -70.56611633 137.95890808 C-70.61336471 144.00693945 -70.64333635 150.05493417 -70.66955566 156.10308838 C-70.70476424 163.38132315 -70.76170464 170.65941727 -70.81494904 177.93753815 C-70.89316741 188.95834022 -70.94399683 199.97896191 -71 211 C-89.48 211 -107.96 211 -127 211 C-127 142.69 -127 74.38 -127 4 C-108.52 4 -90.04 4 -71 4 C-70.505 16.375 -70.505 16.375 -70 29 C-67.215625 26.03 -67.215625 26.03 -64.375 23 C-52.18349012 10.55252891 -36.87780599 4.15374877 -19.8125 1.1875 C-19.10061523 1.06334717 -18.38873047 0.93919434 -17.65527344 0.8112793 C-11.60282557 -0.12619977 -6.30540404 0 0 0 Z " fill="#04292A" transform="translate(1762,1123)"/>
<path d="M0 0 C1.03318359 -0.00773437 2.06636719 -0.01546875 3.13085938 -0.0234375 C18.24836362 0.0148589 32.12580703 4.42396497 43.0625 15.25 C57.73817729 32.24696192 59.35529052 49.61642367 58.0625 71.25 C56.50361931 84.90009744 49.7140305 97.56880756 39.0625 106.25 C25.41813833 116.77065249 7.76407982 119.11520097 -8.9375 117.25 C-23.77055997 114.85880022 -35.94258328 107.01331322 -45.06640625 95.09375 C-47.95331561 90.70612993 -50.0427979 86.13513554 -51.9375 81.25 C-52.28941406 80.44304687 -52.64132812 79.63609375 -53.00390625 78.8046875 C-57.91084503 65.37733201 -56.86059531 45.545375 -51.54296875 32.4375 C-44.42858406 18.31259025 -34.85078816 8.0665638 -19.9375 2.25 C-13.23247626 0.13072065 -7.00321061 -0.05223028 0 0 Z " fill="#FDFEFE" transform="translate(681.9375,1171.75)"/>
<path d="M0 0 C11.59330909 9.66709158 19.85823909 24.12139004 21.43261719 39.23876953 C22.54278515 57.28096724 18.18323509 74.17457032 6.203125 88.03515625 C-4.68308088 99.84905619 -17.59158444 105.33175637 -33.45703125 106.24609375 C-48.82874577 106.65267013 -61.90622486 102.59377005 -74.046875 92.91015625 C-86.15811025 81.33549472 -92.80511817 66.25243483 -93.40356445 49.58691406 C-93.46347173 40.21581891 -92.65071049 31.69424286 -88.796875 23.03515625 C-88.384375 22.09800781 -87.971875 21.16085937 -87.546875 20.1953125 C-79.96013656 4.8278565 -66.78777283 -5.17344038 -50.80078125 -10.6484375 C-33.00686396 -15.52578723 -14.74948999 -10.36172272 0 0 Z " fill="#FDFDFD" transform="translate(1929.796875,1183.96484375)"/>
<path d="M0 0 C11.33268755 9.63983796 18.96385405 22.97902354 20.94921875 37.77734375 C22.13711915 55.34269063 18.82636635 72.73788768 7.16137695 86.52416992 C-2.85715827 97.73101911 -15.85397007 105.17769986 -31 106.22265625 C-47.23876792 106.82426306 -63.10694605 102.87985026 -75.3671875 91.58984375 C-88.65592658 77.28363741 -93.61916472 60.94579825 -93.2578125 41.80078125 C-92.69561693 27.14230791 -85.8438161 13.58766688 -75.7109375 3.1796875 C-53.89454403 -16.52234184 -23.44518361 -17.08106206 0 0 Z " fill="#FDFDFD" transform="translate(2192.05078125,1184.22265625)"/>
<path d="M0 0 C11.57287533 9.79846279 19.05493444 22.49066912 20.95800781 37.6328125 C22.21933971 53.21977423 18.05923913 67.93218801 8.46484375 80.359375 C-1.28647157 91.71788017 -13.33509871 98.83510742 -28.3125 100.48046875 C-46.59003659 101.59006625 -61.80574025 99.39593068 -76.59375 87.671875 C-87.47706217 77.60481125 -92.84635272 63.6675422 -93.62109375 49.06640625 C-94.07033982 32.69066236 -90.81624925 18.56858424 -79.875 5.98046875 C-59.29387753 -15.22537581 -23.62011385 -18.72515605 0 0 Z " fill="#FDFEFE" transform="translate(989.3125,1182.51953125)"/>
<path d="M0 0 C10.23 -0.04125 20.46 -0.0825 31 -0.125 C35.82431641 -0.15231201 35.82431641 -0.15231201 40.74609375 -0.18017578 C43.30989414 -0.18601983 45.87369639 -0.1911156 48.4375 -0.1953125 C49.75685547 -0.20554443 51.07621094 -0.21577637 52.43554688 -0.22631836 C58.99378713 -0.22755857 64.73849691 0.00398731 71 2 C71.86367187 2.26039062 72.72734375 2.52078125 73.6171875 2.7890625 C86.35783561 7.50618827 94.71744425 16.64875513 100.375 28.8125 C104.77795241 39.01586363 104.91617122 54.35705089 101.0390625 64.73828125 C95.95575952 75.80306479 90.95215933 83.39245666 79.91796875 88.95703125 C70.57369865 92.29695108 61.1691387 92.26908192 51.3671875 92.1953125 C50.06015869 92.19329834 48.75312988 92.19128418 47.40649414 92.18920898 C42.56262664 92.1788102 37.71880949 92.15088802 32.875 92.125 C16.601875 92.063125 16.601875 92.063125 0 92 C0 61.64 0 31.28 0 0 Z " fill="#FEFEFE" transform="translate(1440,1110)"/>
<path d="M0 0 C10.76557734 6.08206333 16.86893328 14.15335718 21.421875 25.59765625 C24.57168511 37.11324642 22.24306871 48.71321188 16.5234375 58.8984375 C10.40557648 68.42503373 1.63276048 75.79802364 -9.6796875 78.38671875 C-21.90526886 79.687646 -32.60110985 79.1985344 -42.9140625 72.0234375 C-51.9638092 64.64612859 -59.15886367 55.55367443 -60.7265625 43.7109375 C-61.82172676 30.93402113 -59.58666384 20.56136604 -51.375 10.515625 C-37.7622987 -4.38737975 -18.57675665 -8.7827073 0 0 Z " fill="#0A7CC9" transform="translate(924.7265625,276.2890625)"/>
<path d="M0 0 C123.09 0 246.18 0 373 0 C373 4.29 373 8.58 373 13 C249.91 13 126.82 13 0 13 C0 8.71 0 4.42 0 0 Z " fill="#FEFEFE" transform="translate(893,813)"/>
<path d="M0 0 C7.86247125 7.68774967 12.45159245 15.86273958 13.8125 26.75 C-20.1775 26.75 -54.1675 26.75 -89.1875 26.75 C-87.82141888 14.45526989 -84.06427228 8.083019 -75.1875 -0.25 C-52.43816162 -17.89165827 -22.68707003 -16.01440238 0 0 Z " fill="#FDFDFD" transform="translate(1257.1875,1185.25)"/>
<path d="M0 0 C35 0 35 0 45 5 C50.27588238 10.27588238 53.00683893 14.26519799 53.375 21.8125 C53.20569904 28.15188043 51.44693084 32.54839945 46.953125 37.05078125 C45.01276732 38.76751615 43.04572433 40.4110879 41 42 C41.39034424 42.40307373 41.78068848 42.80614746 42.18286133 43.22143555 C46.33708455 47.74512192 48.63253842 52.06055945 50.6875 57.8125 C50.98148682 58.60060059 51.27547363 59.38870117 51.57836914 60.20068359 C53.6187072 65.736873 55.43942695 71.3084983 57 77 C51.72 77 46.44 77 41 77 C40.48050781 75.39769531 39.96101563 73.79539062 39.42578125 72.14453125 C38.72213537 70.03359361 38.01766491 67.9229307 37.3125 65.8125 C36.97283203 64.75740234 36.63316406 63.70230469 36.28320312 62.61523438 C33.99974145 55.8502124 32.18015008 51.3223056 25.75 47.75 C21.9296625 46.70808977 17.93564852 46.43729428 14 46 C14 56.23 14 66.46 14 77 C9.38 77 4.76 77 0 77 C0 51.59 0 26.18 0 0 Z " fill="#0C7DC9" transform="translate(426,1481)"/>
<path d="M0 0 C35 0 35 0 45 5 C50.27588238 10.27588238 53.00683893 14.26519799 53.375 21.8125 C53.20569904 28.15188043 51.44693084 32.54839945 46.953125 37.05078125 C45.01276732 38.76751615 43.04572433 40.4110879 41 42 C41.87914062 42.88042969 42.75828125 43.76085938 43.6640625 44.66796875 C48.09778652 49.84325331 50.07155545 55.98324677 52.375 62.3125 C52.82488281 63.50423828 53.27476563 64.69597656 53.73828125 65.92382812 C57 74.65313925 57 74.65313925 57 77 C51.72 77 46.44 77 41 77 C40.52949219 75.61425781 40.05898437 74.22851562 39.57421875 72.80078125 C38.94561111 70.97125154 38.31668828 69.14183011 37.6875 67.3125 C37.37876953 66.40048828 37.07003906 65.48847656 36.75195312 64.54882812 C35.19176864 60.0325046 33.5921489 56.04375229 31 52 C31 51.34 31 50.68 31 50 C25.0027479 47.39452551 25.0027479 47.39452551 14 46 C14 56.23 14 66.46 14 77 C9.38 77 4.76 77 0 77 C0 51.59 0 26.18 0 0 Z " fill="#0C7DC9" transform="translate(1362,1481)"/>
<path d="M0 0 C38.66719745 0 38.66719745 0 48.26953125 9.02734375 C53.23246346 14.68486241 54.70090667 20.80368498 54.37890625 28.23046875 C53.37952622 35.53521557 50.56160939 41.60574262 45.01171875 46.52734375 C35.68036829 53.35825467 26.10345617 52.33144645 15 52 C15 60.25 15 68.5 15 77 C10.05 77 5.1 77 0 77 C0 51.59 0 26.18 0 0 Z " fill="#0E7FCA" transform="translate(1695,1481)"/>
<path d="M0 0 C4.95 0 9.9 0 15 0 C15.01458252 1.37663818 15.02916504 2.75327637 15.04418945 4.17163086 C15.10243927 9.3100703 15.17967008 14.44808371 15.26245117 19.58618164 C15.29557536 21.80420993 15.32364569 24.02231997 15.34643555 26.24047852 C15.38021202 29.44061924 15.43253953 32.64001913 15.48828125 35.83984375 C15.49467117 36.82145981 15.5010611 37.80307587 15.50764465 38.81443787 C15.64295186 45.24202937 15.9581508 52.59556066 20.45137024 57.62437439 C26.82313643 63.0647585 32.90327675 62.62421665 41 62 C44.59112373 61.05875388 46.91647555 59.51127903 49.13433838 56.41784668 C52.40884873 50.43074885 52.60151878 45.01055011 52.609375 38.28125 C52.62591125 37.18276733 52.64244751 36.08428467 52.65948486 34.95251465 C52.70779597 31.46828525 52.7292991 27.98449183 52.75 24.5 C52.77817367 22.12758243 52.80810304 19.75518502 52.83984375 17.3828125 C52.91355097 11.58857757 52.96322913 5.79458228 53 0 C57.95 0 62.9 0 68 0 C68.09957048 6.90099985 68.17179912 13.80157289 68.21972656 20.703125 C68.23972611 23.04629815 68.26693477 25.38942214 68.30175781 27.73242188 C68.35079125 31.11861371 68.37308621 34.50414041 68.390625 37.890625 C68.41127014 38.92237854 68.43191528 39.95413208 68.45318604 41.01715088 C68.45661381 52.36423061 65.46323343 61.68272981 57.515625 69.8671875 C48.65311146 77.38105768 39.15380613 78.69153431 27.95605469 78.17041016 C19.40998351 77.42588224 12.41780186 72.41037624 7 66 C2.86694014 59.22733888 -0.13368452 52.93906806 -0.11352539 44.95605469 C-0.11344986 43.95531921 -0.11337433 42.95458374 -0.11329651 41.92352295 C-0.10813522 40.85047913 -0.10297394 39.7774353 -0.09765625 38.671875 C-0.0962413 37.56773254 -0.09482635 36.46359009 -0.09336853 35.32598877 C-0.08777258 31.80063158 -0.07522079 28.27533798 -0.0625 24.75 C-0.05748448 22.35937592 -0.05292166 19.96875084 -0.04882812 17.578125 C-0.03780447 11.71872551 -0.02054257 5.85937354 0 0 Z " fill="#0D7EC9" transform="translate(546,1481)"/>
<path d="M0 0 C16.83 0 33.66 0 51 0 C51 4.29 51 8.58 51 13 C39.12 13 27.24 13 15 13 C15 18.94 15 24.88 15 31 C26.88 31 38.76 31 51 31 C51 34.96 51 38.92 51 43 C39.12 43 27.24 43 15 43 C15 49.93 15 56.86 15 64 C26.88 64 38.76 64 51 64 C51 68.29 51 72.58 51 77 C34.17 77 17.34 77 0 77 C0 51.59 0 26.18 0 0 Z " fill="#107FCA" transform="translate(2027,1481)"/>
<path d="M0 0 C6.09256698 -1.52314175 12.09003342 -2.6555343 18 0 C24.25233935 6.07728907 28.52712746 14.09546136 32.70336914 21.68334961 C33.80224338 23.8928032 33.80224338 23.8928032 35 25 C37.48089404 21.20946091 39.95942196 17.41738054 42.4375 13.625 C43.14455078 12.54476563 43.85160156 11.46453125 44.58007812 10.3515625 C45.25361328 9.3203125 45.92714844 8.2890625 46.62109375 7.2265625 C47.2442749 6.27346191 47.86745605 5.32036133 48.50952148 4.33837891 C49.99362565 2.09910806 49.99362565 2.09910806 51 0 C57.27 0 63.54 0 70 0 C64.28209732 9.30821367 57.95749708 18.09416833 51.51855469 26.91210938 C49.32561342 29.92722734 47.16167442 32.96240546 45 36 C46.78560102 39.96800227 49.27536042 43.4423479 51.75 47 C52.22155518 47.68263916 52.69311035 48.36527832 53.17895508 49.06860352 C56.04767546 53.21354559 58.94002731 57.34161063 61.83984375 61.46484375 C62.47889648 62.37427734 63.11794922 63.28371094 63.77636719 64.22070312 C65.04156153 66.01925737 66.30910818 67.81615937 67.57910156 69.61132812 C68.15499023 70.42923828 68.73087891 71.24714844 69.32421875 72.08984375 C69.84072998 72.82066162 70.35724121 73.55147949 70.8894043 74.30444336 C72 76 72 76 72 77 C56.31977946 78.65848486 56.31977946 78.65848486 51.41015625 75.1484375 C49.73527943 72.80431815 48.32338426 70.45047912 47.01611328 67.88476562 C45.3802182 64.85038072 43.44377826 62.01927018 41.54272461 59.14624023 C39.323142 55.78859027 37.16422189 52.39353176 35 49 C30.98210607 53.73042684 27.72376244 58.91498343 24.375 64.125 C23.21622164 65.91931979 22.05737061 67.71359266 20.8984375 69.5078125 C20.13539307 70.69334717 20.13539307 70.69334717 19.35693359 71.90283203 C18.25176024 73.61089953 17.12849835 75.30725247 16 77 C14.12060547 77.34057617 14.12060547 77.34057617 11.8671875 77.29296875 C11.06152344 77.28330078 10.25585938 77.27363281 9.42578125 77.26367188 C8.58402344 77.23853516 7.74226563 77.21339844 6.875 77.1875 C5.60076172 77.16719727 5.60076172 77.16719727 4.30078125 77.14648438 C2.20025163 77.11108219 0.10004707 77.05727401 -2 77 C-0.36854269 71.86242947 2.76569009 67.95996677 5.9375 63.6875 C7.10505664 62.08398097 8.27170488 60.47980016 9.4375 58.875 C11.19068945 56.47106337 12.94774986 54.07053769 14.71875 51.6796875 C16.30861032 49.5273766 17.87489468 47.35964127 19.4375 45.1875 C19.92790771 44.53676514 20.41831543 43.88603027 20.92358398 43.21557617 C22.43554082 41.178287 22.43554082 41.178287 24 38 C22.95584985 34.39777245 21.1775225 31.56585948 19.0234375 28.5234375 C18.43836426 27.69247559 17.85329102 26.86151367 17.25048828 26.00537109 C16.63157715 25.13734863 16.01266602 24.26932617 15.375 23.375 C14.74706543 22.48506348 14.11913086 21.59512695 13.47216797 20.67822266 C9.47631197 15.02798544 5.42412575 9.42446805 1.2578125 3.8984375 C0 2 0 2 0 0 Z " fill="#0D7EC9" transform="translate(1893,1481)"/>
<path d="M0 0 C16.83 0 33.66 0 51 0 C51 4.29 51 8.58 51 13 C39.12 13 27.24 13 15 13 C15 18.94 15 24.88 15 31 C26.55 31 38.1 31 50 31 C50 34.96 50 38.92 50 43 C38.45 43 26.9 43 15 43 C15 49.93 15 56.86 15 64 C26.88 64 38.76 64 51 64 C51 68.29 51 72.58 51 77 C34.17 77 17.34 77 0 77 C0 51.59 0 26.18 0 0 Z " fill="#0F7FCA" transform="translate(999,1481)"/>
<path d="M0 0 C16.5 0 33 0 50 0 C50 3.96 50 7.92 50 12 C38.12 12 26.24 12 14 12 C14 18.27 14 24.54 14 31 C25.88 31 37.76 31 50 31 C50 34.96 50 38.92 50 43 C38.12 43 26.24 43 14 43 C14 49.93 14 56.86 14 64 C26.21 64 38.42 64 51 64 C51 68.29 51 72.58 51 77 C34.17 77 17.34 77 0 77 C0 51.59 0 26.18 0 0 Z " fill="#0C7DC9" transform="translate(1245,1481)"/>
<path d="M0 0 C3.55834866 3.27958402 6.1970704 7.00310489 8.875 11 C9.84941509 12.43547001 10.82471871 13.87033718 11.80078125 15.3046875 C12.31721191 16.06491211 12.83364258 16.82513672 13.36572266 17.60839844 C16.23223071 21.80324649 19.1481125 25.96334505 22.0625 30.125 C22.65023193 30.96877197 23.23796387 31.81254395 23.84350586 32.68188477 C26.55707121 36.56739683 29.29443718 40.42316751 32.1484375 44.20703125 C32.85987915 45.16101807 32.85987915 45.16101807 33.58569336 46.13427734 C34.45906675 47.29930098 35.34457249 48.45537104 36.24438477 49.60009766 C37.95962646 51.89938222 38.98488155 53.4859728 39.0703125 56.390625 C37.50586884 60.20467013 35.28510234 63.43802346 32.9375 66.8125 C32.46505859 67.50537109 31.99261719 68.19824219 31.50585938 68.91210938 C30.3445174 70.6130648 29.1732322 72.30722395 28 74 C21.70103843 69.04124302 16.96545486 63.26482623 12 57 C10.98385649 55.76695347 9.96409794 54.53685618 8.9375 53.3125 C8.298125 52.549375 7.65875 51.78625 7 51 C5.84765551 52.15234449 4.69598712 53.30536969 3.546875 54.4609375 C2.50510351 55.49744751 1.45271095 56.52337836 0.390625 57.5390625 C-3.94915255 61.7394894 -7.65087938 66.24703353 -11.30078125 71.05859375 C-11.86152344 71.69925781 -12.42226563 72.33992187 -13 73 C-13.66 73 -14.32 73 -15 73 C-17.32538037 70.14806264 -19.21194563 66.97587016 -21.1875 63.875 C-21.75919922 63.0190625 -22.33089844 62.163125 -22.91992188 61.28125 C-23.45552734 60.44335938 -23.99113281 59.60546875 -24.54296875 58.7421875 C-25.03821045 57.9776123 -25.53345215 57.21303711 -26.04370117 56.42529297 C-27.32884737 53.16600209 -26.91734034 51.36029519 -26 48 C-24.68408203 45.06591797 -24.68408203 45.06591797 -23.0078125 41.9921875 C-22.3897876 40.84911133 -21.7717627 39.70603516 -21.13500977 38.52832031 C-20.46522562 37.31042635 -19.79521809 36.09265521 -19.125 34.875 C-18.44580972 33.62636983 -17.76734816 32.37734301 -17.08959961 31.12792969 C-15.39188808 28.00357682 -13.68390267 24.88499598 -11.97149658 21.76867676 C-10.49718655 19.08459332 -9.0284295 16.39747303 -7.55859375 13.7109375 C-5.05036816 9.13431735 -2.52959501 4.56484089 0 0 Z " fill="#FCFDFE" transform="translate(987,463)"/>
<path d="M0 0 C2.18238133 2.72946838 3.70426293 5.29960308 5.03369141 8.52709961 C5.59040024 9.86646828 5.59040024 9.86646828 6.15835571 11.2328949 C6.55211395 12.19631302 6.94587219 13.15973114 7.3515625 14.15234375 C7.76989349 15.16228897 8.18822449 16.17223419 8.61923218 17.21278381 C9.95986992 20.45216291 11.29273909 23.6946679 12.625 26.9375 C13.93237186 30.10696718 15.24139332 33.27574394 16.55169678 36.44400024 C17.41711535 38.53842535 18.28028159 40.63378255 19.14117432 42.73007202 C21.26052454 47.87520397 23.42329298 52.9927777 25.69042969 58.07470703 C26.32686905 59.51216026 26.32686905 59.51216026 26.97616577 60.97865295 C27.77786664 62.78054306 28.59044279 64.57764816 29.41567993 66.36888123 C32.03983983 72.28481173 32.03983983 72.28481173 31.83862305 75.89697266 C30.68899815 78.77990392 29.15072589 81.22708638 27.4375 83.8125 C26.79683594 84.78832031 26.15617187 85.76414062 25.49609375 86.76953125 C25.00238281 87.50558594 24.50867187 88.24164063 24 89 C20.52295097 85.76329998 17.82780475 82.13028481 15.125 78.25 C14.24551857 77.00209155 13.36531276 75.7546933 12.484375 74.5078125 C12.06091797 73.90743164 11.63746094 73.30705078 11.20117188 72.68847656 C8.86754943 69.40812436 6.43568863 66.20485347 4 63 C0.47255234 64.17581589 0.11272607 64.94509583 -1.8125 68 C-2.33070312 68.804375 -2.84890625 69.60875 -3.3828125 70.4375 C-4.18332031 71.7059375 -4.18332031 71.7059375 -5 73 C-6.05487969 74.67150018 -7.11706012 76.33842168 -8.1875 78 C-8.65542969 78.7425 -9.12335938 79.485 -9.60546875 80.25 C-11 82 -11 82 -14 83 C-15.87774765 79.78400516 -17.72283211 76.55040512 -19.5625 73.3125 C-20.09552734 72.40048828 -20.62855469 71.48847656 -21.17773438 70.54882812 C-21.67724609 69.66259766 -22.17675781 68.77636719 -22.69140625 67.86328125 C-23.15748291 67.05157471 -23.62355957 66.23986816 -24.10375977 65.40356445 C-26.0948628 60.06376347 -22.75316984 54.61757135 -20.68359375 49.6484375 C-20.34884537 48.83492828 -20.01409698 48.02141907 -19.66920471 47.18325806 C-18.59617827 44.57874591 -17.51686845 41.9768893 -16.4375 39.375 C-15.73853479 37.67985135 -15.03996359 35.98454018 -14.34179688 34.2890625 C-9.61879003 22.83512071 -4.82182114 11.41264235 0 0 Z " fill="#FBFCFE" transform="translate(1146,342)"/>
<path d="M0 0 C2.11694462 1.28464161 3.64764722 2.54384555 5.28515625 4.38671875 C3.87670907 7.6019618 2.18170839 9.70855743 -0.33984375 12.13671875 C-0.97148438 12.7503125 -1.603125 13.36390625 -2.25390625 13.99609375 C-2.73601563 14.455 -3.218125 14.91390625 -3.71484375 15.38671875 C-4.27171875 15.09796875 -4.82859375 14.80921875 -5.40234375 14.51171875 C-10.00955943 12.27037058 -13.59954721 11.07717762 -18.77734375 11.01171875 C-19.79957031 10.98335937 -20.82179688 10.955 -21.875 10.92578125 C-25.42232199 11.50155016 -26.58784643 12.5338011 -28.71484375 15.38671875 C-29.04033207 18.94335101 -29.04033207 18.94335101 -27.71484375 22.38671875 C-22.36558721 26.64927593 -16.12752024 28.79181634 -9.79101562 31.2109375 C-3.16260585 33.86653344 1.88723401 37.21527321 6.22265625 42.94921875 C8.2801863 49.60593363 8.60149756 57.32785813 5.78515625 63.82421875 C2.40538221 69.51330459 -3.46159875 73.46870663 -9.71484375 75.38671875 C-12.61507313 75.69305249 -15.48779605 75.72036712 -18.40234375 75.69921875 C-19.20599365 75.6935791 -20.00964355 75.68793945 -20.83764648 75.68212891 C-31.27061231 75.46918972 -38.3581342 72.62397298 -46.71484375 66.38671875 C-45.32439385 63.28229844 -43.69912777 61.02107445 -41.33984375 58.57421875 C-40.75460937 57.94902344 -40.169375 57.32382813 -39.56640625 56.6796875 C-37.71484375 55.38671875 -37.71484375 55.38671875 -35.70703125 55.55859375 C-33.73887855 56.37672782 -32.03108269 57.33796729 -30.21484375 58.44921875 C-24.90228702 61.17028439 -19.55027881 61.20719599 -13.71484375 60.38671875 C-10.3843103 59.02937406 -10.3843103 59.02937406 -8.71484375 56.38671875 C-7.88151042 53.38671875 -7.88151042 53.38671875 -8.71484375 50.38671875 C-12.82231971 46.29560723 -17.66643835 44.6648535 -22.96484375 42.63671875 C-31.82430969 39.06551983 -38.60271331 35.38498886 -43.77734375 27.07421875 C-45.61114078 19.86128378 -45.92861041 12.77743713 -42.1171875 6.171875 C-31.99639078 -6.71170189 -13.73169635 -6.43130082 0 0 Z " fill="#0D7EC9" transform="translate(724.71484375,1483.61328125)"/>
<path d="M0 0 C5.28 0 10.56 0 16 0 C18.76933862 6.10766712 21.31551593 12.24601357 23.671875 18.5234375 C23.99915588 19.39142975 24.32643677 20.259422 24.66363525 21.15371704 C25.34731754 22.96994883 26.02957403 24.78671792 26.71044922 26.60400391 C27.75580893 29.39048412 28.80935366 32.17378211 29.86328125 34.95703125 C30.52914443 36.72897938 31.19452648 38.50110841 31.859375 40.2734375 C32.17493347 41.10467133 32.49049194 41.93590515 32.81561279 42.79232788 C33.10301331 43.56388214 33.39041382 44.3354364 33.68652344 45.13037109 C34.06813629 46.14555313 34.06813629 46.14555313 34.4574585 47.1812439 C35 49 35 49 35 52 C35.66 52 36.32 52 37 52 C37.17550385 51.3930983 37.35100769 50.78619659 37.53182983 50.16090393 C39.32716141 44.05247105 41.34310907 38.06477929 43.5390625 32.08984375 C43.86538666 31.19632706 44.19171082 30.30281036 44.52792358 29.38221741 C45.21055262 27.51543992 45.89461833 25.64918719 46.58007812 23.78344727 C47.63321309 20.91513086 48.68015653 18.04460528 49.7265625 15.17382812 C50.39286339 13.3540327 51.05951705 11.53436639 51.7265625 9.71484375 C52.04009674 8.85455063 52.35363098 7.99425751 52.67666626 7.1078949 C54.88496797 1.11503203 54.88496797 1.11503203 56 0 C58.69654854 -0.07319621 61.36691458 -0.09242537 64.0625 -0.0625 C64.82111328 -0.05798828 65.57972656 -0.05347656 66.36132812 -0.04882812 C68.24091871 -0.0370068 70.12046899 -0.01907078 72 0 C69.97900976 6.18482124 67.82484354 12.30733033 65.55859375 18.40625 C65.07218163 19.71918282 65.07218163 19.71918282 64.57594299 21.05863953 C63.53193036 23.87322484 62.48505066 26.68672973 61.4375 29.5 C60.90467407 30.93298935 60.90467407 30.93298935 60.36108398 32.39492798 C54.79377647 47.35588901 49.06442309 62.23254665 43 77 C38.38 77 33.76 77 29 77 C28.44127197 75.5452124 27.88254395 74.0904248 27.30688477 72.59155273 C25.18846672 67.076301 23.06909283 61.56141694 20.94946289 56.04663086 C20.04068267 53.68181867 19.13214507 51.31691322 18.22387695 48.9519043 C16.90122847 45.50804091 15.5777432 42.06450044 14.25390625 38.62109375 C13.60054794 36.92054337 13.60054794 36.92054337 12.93399048 35.18563843 C10.75475446 29.52279767 8.55936064 23.86706548 6.33154297 18.22314453 C5.91162582 17.15822281 5.49170868 16.09330109 5.05906677 14.99610901 C4.26337252 12.98214205 3.46472884 10.96933715 2.66273499 8.95787048 C2.31117844 8.06822098 1.95962189 7.17857147 1.59741211 6.26196289 C1.28758896 5.48349503 0.97776581 4.70502716 0.65855408 3.90296936 C0 2 0 2 0 0 Z " fill="#0D7EC9" transform="translate(1110,1481)"/>
<path d="M0 0 C14.77543807 -1.49582613 14.77543807 -1.49582613 19.265625 1.5234375 C21.15014568 4.23600514 22.53172145 7.03734018 24 10 C25.00897212 11.69100705 26.03390818 13.37254061 27.0703125 15.046875 C29.27482203 18.61287061 31.47241174 22.1812562 33.62109375 25.78125 C34.0792749 26.54501953 34.53745605 27.30878906 35.00952148 28.09570312 C36 30 36 30 36 32 C36.66 32 37.32 32 38 32 C38.26047119 31.28593994 38.52094238 30.57187988 38.78930664 29.83618164 C40.06341315 26.85144777 41.59049885 24.33259028 43.37109375 21.62109375 C44.02787109 20.61755859 44.68464844 19.61402344 45.36132812 18.58007812 C46.04646484 17.54302734 46.73160156 16.50597656 47.4375 15.4375 C48.11876953 14.39658203 48.80003906 13.35566406 49.50195312 12.28320312 C51.32123857 9.51240111 53.13969873 6.74343922 55 4 C55.48001465 3.23985596 55.9600293 2.47971191 56.45458984 1.6965332 C58 0 58 0 59.99291992 -0.45410156 C61.10050659 -0.42268066 61.10050659 -0.42268066 62.23046875 -0.390625 C63.43413086 -0.37128906 63.43413086 -0.37128906 64.66210938 -0.3515625 C65.91217773 -0.30128906 65.91217773 -0.30128906 67.1875 -0.25 C68.03248047 -0.23195313 68.87746094 -0.21390625 69.74804688 -0.1953125 C71.83251573 -0.14820586 73.91640144 -0.07646233 76 0 C71.20487794 7.67125875 66.19314384 15.15580347 61 22.5625 C60.32710937 23.52607422 59.65421875 24.48964844 58.9609375 25.48242188 C58.29320312 26.43826172 57.62546875 27.39410156 56.9375 28.37890625 C55.95922241 29.80638184 55.95922241 29.80638184 54.96118164 31.26269531 C53 34 53 34 50.97436523 36.33886719 C44.66574348 43.9314024 44.98889817 51.74429614 45.0625 61.125 C45.04936598 62.66930075 45.03311367 64.21357828 45.01367188 65.7578125 C44.96740818 69.50718305 44.98506191 73.24840611 45 77 C40.05 77 35.1 77 30 77 C30.06703125 74.89882812 30.1340625 72.79765625 30.203125 70.6328125 C30.50839137 54.28933855 29.87813811 42.38267278 18.96679688 29.47802734 C15.26486926 24.81385588 12.12854893 19.74499973 8.91210938 14.73968506 C7.76338052 12.95825035 6.60268517 11.18525694 5.4375 9.41455078 C0 1.12806869 0 1.12806869 0 0 Z " fill="#0E7ECA" transform="translate(1472,1481)"/>
<path d="M0 0 C19.14 0 38.28 0 58 0 C58 4.29 58 8.58 58 13 C50.74 13 43.48 13 36 13 C36 34.12 36 55.24 36 77 C31.05 77 26.1 77 21 77 C21 55.88 21 34.76 21 13 C14.07 13 7.14 13 0 13 C0 8.71 0 4.42 0 0 Z " fill="#0E7ECA" transform="translate(304,1481)"/>
<path d="M0 0 C18.81 0 37.62 0 57 0 C57 4.29 57 8.58 57 13 C50.07 13 43.14 13 36 13 C36 34.12 36 55.24 36 77 C31.05 77 26.1 77 21 77 C21 55.88 21 34.76 21 13 C14.07 13 7.14 13 0 13 C0 8.71 0 4.42 0 0 Z " fill="#0B7DC9" transform="translate(793,1481)"/>
<path d="M0 0 C4.95 0 9.9 0 15 0 C15 20.79 15 41.58 15 63 C27.21 63 39.42 63 52 63 C52 67.62 52 72.24 52 77 C34.84 77 17.68 77 0 77 C0 51.59 0 26.18 0 0 Z " fill="#0B7DC9" transform="translate(2144,1481)"/>
<path d="M0 0 C4.95 0 9.9 0 15 0 C15 25.41 15 50.82 15 77 C10.05 77 5.1 77 0 77 C0 51.59 0 26.18 0 0 Z " fill="#0D7EC9" transform="translate(1813,1481)"/>
<path d="M0 0 C15.59833795 0 15.59833795 0 21 5 C24.20923177 8.61038574 24.53451508 12.0427576 24.33984375 16.72265625 C23.6615961 21.26769508 21.95003945 24.41559295 18.375 27.3203125 C12.01813345 31.10794548 8.06941884 30 0 30 C0 20.1 0 10.2 0 0 Z " fill="#F5F9FC" transform="translate(1710,1492)"/>
<path d="M0 0 C14.37893918 -0.40695111 14.37893918 -0.40695111 20 3 C23.03325858 5.87361339 23.91579685 7.32637477 24.4375 11.5 C23.79839428 16.6128458 22.35995863 18.89705736 18.375 22.12890625 C14.45622684 24.30146683 11.46169449 24.46678676 7.125 24.25 C4.77375 24.1675 2.4225 24.085 0 24 C0 16.08 0 8.16 0 0 Z " fill="#F8FBFD" transform="translate(440,1492)"/>
<path d="M0 0 C14.44745763 -0.40889031 14.44745763 -0.40889031 20 3 C22.46024465 5.64949424 23.85108766 7.56892721 24.23046875 11.21484375 C24.08096558 14.54267352 23.79657327 17.0233319 21.65234375 19.65234375 C16.83574474 23.73521023 13.43617715 24.13464167 7.375 24.0625 C4.94125 24.041875 2.5075 24.02125 0 24 C0 16.08 0 8.16 0 0 Z " fill="#F9FBFD" transform="translate(1376,1492)"/>
</svg>
