<?xml version="1.0" encoding="UTF-8"?>
<svg width="800px" height="267px" viewBox="0 0 800 267" version="1.1" xmlns="http://www.w3.org/2000/svg" xmlns:xlink="http://www.w3.org/1999/xlink">
    <!-- Generator: Sketch 55.2 (78181) - https://sketchapp.com -->
    <title>imatag_primary</title>
    <desc>Created with Sketch.</desc>
    <g id="imatag_primary" stroke="none" stroke-width="1" fill="none" fill-rule="evenodd">
        <g id="logo" transform="translate(80.000000, 80.000000)">
            <path d="M25.6586483,107 L25.6586483,25.6506849 L51.3172967,25.6506849 L51.3172967,107 L25.6586483,107 Z M148.05651,107 L120.259641,107 L105.139366,68.6328571 L105.139366,106.694286 L79.1752577,106.694286 L79.1752577,0 L106.208477,0 L134.158076,71.2314286 L162.260405,0 L189.140893,0 L189.140893,106.694286 L163.176785,106.694286 L163.176785,68.6328571 L148.05651,107 Z M291.323234,107 L286.241325,93.8354793 L242.35211,93.8354793 L237.270201,107 L208.934708,107 L250.359967,-5.68434189e-14 L278.079471,-5.68434189e-14 L319.658727,107 L291.323234,107 Z M252.361931,67.8125894 L276.231504,67.8125894 L264.219719,36.8912732 L252.361931,67.8125894 Z M416.312201,0 L416.312201,26.0228898 L382.502047,26.0228898 L382.502047,107 L356.376019,107 L356.376019,26.0228898 L322.565865,26.0228898 L322.565865,0 L416.312201,0 Z M506.85588,107 L501.773971,93.8354793 L457.884756,93.8354793 L452.802847,107 L424.467354,107 L465.892613,-5.68434189e-14 L493.612117,-5.68434189e-14 L535.191373,107 L506.85588,107 Z M467.894577,67.8125894 L491.76415,67.8125894 L479.752365,36.8912732 L467.894577,67.8125894 Z M593.206684,70.5840336 L593.206684,45.1078431 L640,45.1078431 L640,86.9187675 L636.400514,90.6652661 C626.801885,100.556022 610.754177,107 595.306384,107 C565.760604,107 541.764032,83.022409 541.764032,53.5 C541.764032,23.977591 565.760604,0 595.306384,0 C610.904156,0 625.752035,6.89355742 635.950578,18.732493 L616.603342,35.3669468 C611.204113,29.0728291 603.405227,25.4761905 595.306384,25.4761905 C579.858591,25.4761905 567.26039,38.0644258 567.26039,53.5 C567.26039,68.9355742 579.858591,81.3739496 595.306384,81.3739496 C601.905441,81.3739496 609.254392,79.1260504 614.503642,75.8291317 L614.503642,70.5840336 L593.206684,70.5840336 Z" id="Combined-Shape" fill="#130C4F"></path>
            <polygon id="Pixel" fill="#00E8AA" points="0 25.6506849 0 0 25.6586483 0 25.6586483 25.6506849"></polygon>
        </g>
    </g>
</svg>