<svg width="1001" height="1000" viewBox="0 0 1001 1000" fill="none" xmlns="http://www.w3.org/2000/svg">
<rect width="1000" height="1000" transform="translate(0.5)" fill="#FDFAFA"/>
<path d="M576.548 516.987C577.813 515.586 579.358 514.325 581.183 513.485C583.009 512.644 584.836 512.084 586.801 512.084L595.508 463.189C594.526 462.768 593.683 462.208 592.84 461.649L554.92 495.131C556.045 497.233 556.746 499.615 556.746 502.137C556.746 503.398 556.606 504.799 556.185 506.06L576.548 516.987ZM664.186 554.675L610.115 461.368C607.868 463.189 605.058 464.169 602.11 464.31L593.262 513.204C595.65 514.186 597.757 515.867 599.44 518.108C600.986 520.21 601.969 522.732 602.25 525.394C602.532 528.055 601.969 530.717 600.846 533.099C599.722 535.48 597.897 537.582 595.65 538.982C593.401 540.385 590.875 541.225 588.205 541.365C585.537 541.504 582.869 540.945 580.622 539.684C578.234 538.423 576.269 536.602 575.005 534.219C573.599 531.978 572.898 529.316 572.898 526.655C572.898 525.394 573.038 523.993 573.459 522.732L552.955 511.664C550.427 514.465 547.056 516.288 543.264 516.567L537.646 558.037C540.877 559.157 543.545 561.4 545.231 564.341C546.916 567.283 547.617 570.646 547.056 574.008H652.951C655.198 574.008 657.444 573.448 659.411 572.327C661.377 571.206 663.062 569.524 664.186 567.564C665.309 565.602 665.872 563.36 665.872 561.119C665.872 558.878 665.309 556.635 664.186 554.675ZM500.851 445.536C499.305 443.155 498.462 440.353 498.462 437.551C498.462 434.888 499.165 432.227 500.569 429.985L449.589 380.811C448.043 381.791 446.358 382.49 444.532 382.911L440.74 500.876C442.144 501.297 443.408 501.856 444.672 502.558L500.851 445.536ZM456.47 368.342C456.47 371.003 455.768 373.665 454.364 375.906L505.344 425.082C507.732 423.541 510.54 422.7 513.35 422.7C517.001 422.7 520.512 424.101 523.321 426.483C525.989 429.005 527.675 432.366 528.096 436.01L587.644 444.136C588.347 442.315 589.469 440.633 590.875 439.231C592.279 437.83 593.823 436.711 595.65 435.87L511.383 290.445C510.259 288.484 508.575 286.803 506.608 285.681C504.641 284.562 502.394 284 500.148 284C497.901 284 495.654 284.562 493.687 285.681C491.72 286.803 490.037 288.484 488.912 290.445L450.571 356.572C452.397 357.973 453.942 359.654 454.925 361.756C455.907 363.858 456.47 366.099 456.47 368.342ZM528.096 507.04L451.835 516.567C451.695 517.549 451.554 518.529 451.274 519.509L522.057 561.679C524.444 559.157 527.815 557.617 531.326 557.197L536.943 515.726C534.978 515.026 533.153 513.905 531.747 512.365C529.922 510.823 528.797 509.142 528.096 507.04ZM513.35 452.262C510.68 452.262 508.012 451.56 505.626 450.16L449.589 507.18C450.15 508.02 450.571 509.002 450.993 509.982L527.253 500.456C527.535 498.494 528.096 496.533 529.079 494.711C530.061 492.89 531.467 491.489 533.011 490.228L516.018 451.981C515.315 452.262 514.333 452.262 513.35 452.262ZM447.622 525.394C446.078 527.075 444.111 528.336 441.864 529.036C439.617 529.737 437.369 530.017 435.122 529.737C432.875 529.456 430.629 528.615 428.802 527.215C426.836 525.954 425.291 524.133 424.168 522.171C423.044 520.21 422.483 517.828 422.341 515.586C422.201 513.345 422.763 510.963 423.747 508.861C424.73 506.759 426.134 504.938 427.961 503.538C429.786 502.137 431.893 501.155 434.14 500.735L437.932 382.771C437.229 382.632 436.668 382.351 435.965 382.07L336.109 554.535C334.987 556.495 334.424 558.737 334.424 560.98C334.424 563.221 334.987 565.462 336.109 567.424C337.233 569.385 338.919 571.066 340.884 572.187C342.851 573.307 345.098 573.869 347.345 573.869H517.843C517.704 573.168 517.704 572.467 517.704 571.626C517.704 570.086 517.983 568.544 518.405 567.143L447.622 525.394ZM541.86 487.567C544.949 487.567 547.899 488.407 550.427 490.228L588.347 456.744C587.362 455.063 586.801 453.102 586.661 451.14L527.114 443.014C526.129 445.536 524.444 447.777 522.197 449.459L539.192 487.706C540.034 487.567 540.877 487.427 541.86 487.567Z" fill="#1A1A1A"/>
<path d="M273.547 640.874H263.131C262.473 640.874 261.816 641.088 261.268 641.627C260.829 642.057 260.5 642.703 260.5 643.457V712.771C260.5 713.416 260.829 714.062 261.268 714.601C261.706 715.031 262.364 715.354 263.131 715.354H273.547C274.205 715.354 274.863 715.14 275.411 714.601C275.85 714.171 276.179 713.525 276.179 712.771V643.349C276.179 642.703 275.85 642.057 275.411 641.627C274.863 641.197 274.205 640.874 273.547 640.874ZM363.234 640.874H305.892C305.234 640.874 304.576 641.088 304.028 641.627C303.589 642.057 303.26 642.703 303.26 643.457V652.714C303.26 653.359 303.589 654.005 304.028 654.543C304.467 654.973 305.124 655.296 305.892 655.296H326.724V712.771C326.724 713.416 327.053 714.062 327.491 714.601C327.929 715.031 328.587 715.354 329.356 715.354H339.881C340.539 715.354 341.197 715.14 341.744 714.601C342.184 714.171 342.513 713.525 342.513 712.771V655.188H363.345C364.003 655.188 364.659 654.973 365.208 654.435C365.646 654.005 365.975 653.359 365.975 652.605V643.349C365.975 643.026 365.866 642.703 365.757 642.38C365.646 642.057 365.428 641.734 365.208 641.52C364.988 641.304 364.659 641.088 364.33 640.981C363.892 640.981 363.563 640.874 363.234 640.874ZM450.291 640.874H440.094C439.765 640.874 439.436 640.981 439.107 641.088C438.778 641.197 438.449 641.411 438.23 641.627C438.01 641.843 437.792 642.166 437.681 642.489C437.572 642.811 437.463 643.134 437.463 643.457V670.687H408.297V643.457C408.297 642.811 407.968 642.166 407.53 641.627C407.092 641.197 406.324 640.874 405.666 640.874H395.25C394.592 640.874 393.934 641.088 393.386 641.627C392.948 642.057 392.619 642.703 392.619 643.457V712.771C392.619 713.416 392.838 714.062 393.386 714.601C393.825 715.031 394.483 715.354 395.25 715.354H405.666C406.324 715.354 406.982 715.14 407.53 714.601C407.968 714.171 408.297 713.525 408.297 712.771V685.218H437.463V712.663C437.463 712.986 437.572 713.309 437.681 713.632C437.792 713.955 438.01 714.278 438.23 714.494C438.449 714.708 438.778 714.924 439.107 715.031C439.436 715.14 439.765 715.247 440.094 715.247H450.4C450.729 715.247 451.058 715.14 451.387 715.031C451.716 714.924 452.045 714.708 452.264 714.494C452.483 714.278 452.702 713.955 452.812 713.632C452.922 713.309 453.031 712.986 453.031 712.663V643.349C453.031 642.703 452.702 642.057 452.264 641.627C451.716 641.197 451.058 640.874 450.291 640.874ZM539.21 700.932H502.809V685.218H537.347C537.676 685.218 538.005 685.11 538.334 685.002C538.663 684.895 538.992 684.679 539.21 684.465C539.43 684.249 539.649 683.926 539.759 683.603C539.868 683.28 539.978 682.957 539.978 682.634V673.271C539.978 672.948 539.868 672.625 539.759 672.302C539.649 671.979 539.43 671.656 539.21 671.44C538.992 671.226 538.663 671.01 538.334 670.903C538.005 670.795 537.676 670.687 537.347 670.687H502.809V655.296H538.881C539.539 655.296 540.197 654.973 540.745 654.543C541.184 654.112 541.513 653.359 541.513 652.714V643.457C541.513 643.134 541.403 642.811 541.293 642.489C541.184 642.166 540.964 641.843 540.745 641.627C540.526 641.411 540.197 641.197 539.868 641.088C539.539 640.981 539.21 640.874 538.881 640.874H490.09C489.432 640.874 488.774 641.197 488.227 641.627C487.788 642.057 487.459 642.703 487.459 643.457V712.771C487.459 713.416 487.678 714.062 488.227 714.601C488.665 715.031 489.323 715.354 490.09 715.354H539.32C539.978 715.354 540.635 715.031 541.184 714.601C541.622 714.171 541.951 713.525 541.951 712.771V703.407C541.951 703.084 541.842 702.761 541.732 702.438C541.622 702.115 541.403 701.793 541.184 701.578C540.964 701.362 540.635 701.147 540.307 701.039C539.978 700.824 539.539 700.824 539.21 700.932ZM630.323 640.874H619.907C619.249 640.874 618.591 641.088 618.044 641.627C617.604 642.057 617.275 642.703 617.275 643.457V691.89C617.275 699.425 609.82 702.115 602.802 702.115C592.715 702.115 587.672 698.672 587.672 691.89V643.349C587.672 642.703 587.453 642.057 586.905 641.52C586.466 641.088 585.809 640.765 585.04 640.765H574.625C573.967 640.765 573.31 640.981 572.761 641.52C572.323 641.95 571.994 642.596 571.994 643.349V692.429C571.994 707.605 582.848 716 602.473 716C621.442 716 632.845 707.389 632.845 693.075V643.349C632.845 642.703 632.516 642.057 632.077 641.627C631.639 641.197 630.981 640.874 630.323 640.874ZM738.211 640.874H724.177C723.628 640.874 723.08 640.981 722.641 641.304C722.203 641.627 721.874 642.057 721.655 642.489L703.454 691.999L685.693 642.489C685.473 641.95 685.144 641.52 684.706 641.197C684.266 640.874 683.719 640.765 683.17 640.765H668.807C668.149 640.765 667.492 641.088 666.944 641.52C666.505 641.95 666.176 642.596 666.176 643.349V712.663C666.176 713.309 666.505 713.955 666.944 714.494C667.382 714.924 668.04 715.247 668.807 715.247H678.565C679.223 715.247 679.881 714.924 680.429 714.494C680.868 714.062 681.196 713.416 681.196 712.663V674.24L695.34 713.525C695.56 714.062 695.889 714.494 696.327 714.817C696.767 715.14 697.314 715.247 697.863 715.247H708.717C709.266 715.247 709.813 715.031 710.253 714.817C710.691 714.494 711.02 714.062 711.239 713.632L725.821 674.024V712.771C725.821 713.416 726.15 714.062 726.588 714.601C727.027 715.031 727.795 715.354 728.453 715.354H738.211C738.869 715.354 739.527 715.031 740.074 714.601C740.514 714.171 740.843 713.525 740.843 712.771V643.349C740.843 642.703 740.514 642.057 740.074 641.627C739.527 641.197 738.869 640.874 738.211 640.874Z" fill="#1A1A1A"/>
</svg>
