<?xml version="1.0" encoding="UTF-8" standalone="no"?>
<!-- Created with Inkscape (http://www.inkscape.org/) -->

<svg
   width="151.96976mm"
   height="107.06013mm"
   viewBox="0 0 151.96976 107.06013"
   version="1.1"
   id="svg1"
   xmlns:xlink="http://www.w3.org/1999/xlink"
   xmlns="http://www.w3.org/2000/svg"
   xmlns:svg="http://www.w3.org/2000/svg">
  <defs
     id="defs1">
    <linearGradient
       id="linearGradient100">
      <stop
         style="stop-color:#0478bc;stop-opacity:1;"
         offset="0"
         id="stop100" />
      <stop
         style="stop-color:#28b4af;stop-opacity:1;"
         offset="1"
         id="stop101" />
    </linearGradient>
    <linearGradient
       xlink:href="#linearGradient100"
       id="linearGradient7"
       gradientUnits="userSpaceOnUse"
       gradientTransform="translate(178.10697,15.447479)"
       x1="49.463997"
       y1="639.16437"
       x2="49.981865"
       y2="532.13251" />
  </defs>
  <g
     id="layer1"
     transform="translate(-153.19292,-546.6588)">
    <g
       id="g8">
      <path
         id="path6"
         style="font-weight:300;font-size:97.0139px;line-height:1.25;font-family:'Corsa Grotesk';-inkscape-font-specification:'Corsa Grotesk Light';letter-spacing:10.5833px;fill:url(#linearGradient7);stroke-width:0.0942287"
         d="m 226.32798,546.66169 c -0.53888,-0.008 -1.0795,5.1e-4 -1.62109,0.0269 -1.23803,0.0596 -2.48209,0.2082 -3.72174,0.44958 -9.05187,1.76252 -16.38444,8.17295 -19.32285,16.68167 -1.93964,-0.51699 -3.91627,-0.78865 -5.88388,-0.786 -0.40831,7.1e-4 -0.81634,0.0122 -1.22318,0.0346 -5.42448,0.29855 -10.67617,2.53016 -14.65957,6.47919 -6.37343,6.31837 -8.24172,15.80853 -4.71806,24.00629 3.48255,8.10201 11.54412,13.36667 20.46852,13.42812 v 0.009 h 8.75451 v 4.49533 0.41755 6.85384 h 0.002 v 23.06216 h 10.71097 c 2.14206,0 3.90443,-0.55279 5.25188,-1.69292 1.38196,-1.14012 2.07274,-2.72964 2.07274,-4.69894 0,-1.69298 -0.51838,-3.04031 -1.52032,-4.11138 -1.00194,-1.07098 -2.21108,-1.69327 -3.59306,-1.86603 2.45303,-0.7946 4.24935,-2.69446 4.24935,-5.63118 0,-3.90412 -2.97123,-6.18515 -7.25537,-6.18515 h -7.78144 v -5.7304 -0.41755 -5.32267 h -0.006 v -6.22029 l -7.91011,-7.7215 v -4.93355 c 1.20665,-0.44589 2.08152,-1.59276 2.08152,-2.93987 0,-1.73516 -1.45186,-3.13986 -3.19412,-3.13986 -1.74225,0 -3.19463,1.4047 -3.19463,3.13986 0,1.37946 0.91811,2.54909 2.16989,2.97088 v 5.80275 l 7.91063,7.72149 v 4.01112 h -8.44703 v -0.006 c -8.20771,0.0572 -15.62719,-4.74076 -18.80712,-12.13879 -3.17994,-7.39796 -1.5044,-15.93029 4.25917,-21.64416 5.15993,-5.11534 12.68571,-7.03922 19.65513,-5.20381 l 2.03915,0.65112 0.60462,-2.04432 c 2.70009,-7.76535 9.40123,-13.61763 17.69556,-15.23266 9.1057,-1.77307 18.41076,1.89834 23.76651,9.36687 l 1.73632,-1.24592 c -4.79517,-6.68662 -12.48564,-10.57802 -20.5688,-10.69486 z m 24.46001,15.65951 c -0.35145,-0.008 -0.70336,-0.008 -1.05524,10e-4 -3.37969,0.0822 -6.76519,0.92855 -9.88828,2.57349 l 0.99529,1.89084 c 7.53987,-3.97125 16.75325,-2.80497 23.06267,2.9192 6.30936,5.72415 8.35425,14.7699 5.1201,22.64616 -3.20293,7.80016 -10.90082,12.78363 -19.32182,12.5398 l -5.1e-4,-16.49253 c 1.21597,-0.44126 2.09961,-1.59328 2.09961,-2.94711 0,-1.73512 -1.45185,-3.14037 -3.19412,-3.14037 -1.74227,0 -3.19515,1.40525 -3.19515,3.14037 0,1.37283 0.90975,2.53758 2.15232,2.96468 4.9e-4,7.68984 -0.001,15.37997 -0.002,23.06991 h -5.2e-4 c -5.4e-4,6.96715 5.3e-4,13.93447 -0.001,20.90157 0,4.65189 -2.43168,7.48333 -6.23424,7.86877 v 1.77095 c 2.3264,-0.16298 4.24856,-0.9779 5.78517,-2.45308 1.7275,-1.65836 2.59106,-4.00823 2.59106,-7.01404 l -5.2e-4,-21.07417 h -5.1e-4 v -4.45813 c 9.27694,0.2428 17.76724,-5.26631 21.29792,-13.86478 3.57316,-8.70177 1.30904,-18.71716 -5.66063,-25.04033 -4.0837,-3.7049 -9.27541,-5.68238 -14.5495,-5.80223 z m -28.6241,0.82837 c -1.74226,0 -3.19412,1.40467 -3.19412,3.13986 0,1.37025 0.90577,2.53407 2.14457,2.96313 v 27.05313 l -8.66252,-8.45582 v -5.07928 c 1.2087,-0.44494 2.08618,-1.59297 2.08618,-2.94142 0,-1.73515 -1.45238,-3.13986 -3.19463,-3.13986 -1.74227,0 -3.19413,1.40471 -3.19413,3.13986 0,1.37811 0.91603,2.54648 2.16576,2.96933 v 5.95157 l 10.79934,10.54251 v 5.64255 h -8.17986 v 2.13682 h 10.31669 v -13.81466 l 10.69598,-10.44174 v -5.34282 c 1.21931,-0.43952 2.10633,-1.59399 2.10633,-2.95021 0,-1.73518 -1.45186,-3.13986 -3.19412,-3.13986 -1.74226,0 -3.19515,1.40468 -3.19515,3.13986 0,1.37052 0.90676,2.53427 2.14612,2.96313 v 4.4297 l -8.55916,8.35608 v -21.03179 c 1.21985,-0.43932 2.10736,-1.59373 2.10736,-2.95021 0,-1.73519 -1.45238,-3.13986 -3.19464,-3.13986 z m 0,1.78077 c 0.80279,0 1.41387,0.6097 1.41387,1.35909 0,0.74939 -0.61108,1.35909 -1.41387,1.35909 -0.80278,0 -1.41335,-0.6097 -1.41335,-1.35909 0,-0.74939 0.61057,-1.35909 1.41335,-1.35909 z m 10.69547,8.23309 c 0.8028,0 1.41335,0.6097 1.41335,1.35909 0,0.74939 -0.61055,1.3591 -1.41335,1.35909 -0.80279,0 -1.41438,-0.6097 -1.41438,-1.35909 0,-0.74939 0.61159,-1.35909 1.41438,-1.35909 z m -21.51599,5.30665 c 0.80278,0 1.41386,0.60973 1.41386,1.35909 0,0.74939 -0.61108,1.35857 -1.41386,1.35857 -0.8028,0 -1.41336,-0.60918 -1.41336,-1.35857 0,-0.74936 0.61056,-1.35909 1.41336,-1.35909 z m -13.83482,4.51911 c 0.80278,0 1.41387,0.6097 1.41387,1.35909 0,0.74933 -0.61109,1.35857 -1.41387,1.35857 -0.80278,0 -1.41387,-0.60924 -1.41387,-1.35857 0,-0.74939 0.61109,-1.35909 1.41387,-1.35909 z m 51.09714,1.10329 c 0.80279,0 1.41335,0.60971 1.41335,1.35909 0,0.74939 -0.61056,1.3591 -1.41335,1.35909 -0.8028,0 -1.41387,-0.6097 -1.41387,-1.35909 0,-0.74938 0.61107,-1.35909 1.41387,-1.35909 z m -16.40055,10.91096 c -1.74227,0 -3.19412,1.40417 -3.19412,3.13934 0,1.3837 0.92374,2.55636 2.18126,2.97501 9.6e-4,3.45627 -0.002,6.91259 -0.003,10.36888 h -0.002 c -0.002,7.02468 -5.2e-4,14.04951 -0.005,21.07417 0,2.97128 0.86406,5.28652 2.55695,6.97942 1.50532,1.50527 3.45019,2.32391 5.80533,2.4877 v -1.77199 c -3.79433,-0.39114 -6.21977,-3.22165 -6.21977,-7.86773 3.7e-4,-6.82813 0.001,-13.65641 0.002,-20.48454 h 0.001 c 4.4e-4,-3.60822 6.7e-4,-7.21651 0.001,-10.82466 1.20082,-0.44914 2.07119,-1.5935 2.07119,-2.93626 0,-1.73517 -1.45289,-3.13934 -3.19516,-3.13934 z m 0,1.78077 c 0.80279,0 1.41438,0.60919 1.41438,1.35857 0,0.74938 -0.61159,1.35909 -1.41438,1.35909 -0.80279,0 -1.41335,-0.60971 -1.41335,-1.35909 0,-0.74938 0.61056,-1.35857 1.41335,-1.35857 z m 58.2383,20.71295 -10.12341,24.32358 h 2.14199 c 0.005,-0.007 6.1566,-14.99255 9.22476,-22.49269 h 0.0351 l 5.87354,14.26942 h -9.80922 l -0.6935,1.69292 h 11.19363 l 2.69493,6.53035 h 2.21123 L 293.1037,617.49716 Z m -137.25053,0.13797 v 24.18561 h 2.07274 v -24.18561 z m 25.67388,0 v 24.18561 h 17.17157 v -1.69344 h -15.02958 v -20.79925 h 14.47716 v -1.69292 z m 81.03071,0 v 24.18561 h 2.15077 c -10e-4,-8.06171 -0.006,-16.12394 -0.009,-24.18561 z m -94.55753,0.009 c -1.737,0.005 -3.1135,0.0289 -3.1135,0.0289 9.97189,0.87321 5.27837,4.02072 -0.97824,9.42268 h 2.89388 c 4.87345,-6.32051 8.4804,-8.18783 8.18451,-9.11003 -0.15621,-0.2429 -2.68112,-0.32116 -5.16712,-0.33849 -0.6215,-0.004 -1.24053,-0.005 -1.81953,-0.003 z m 41.20524,1.649 h 7.60108 c 1.48562,0 2.72964,0.41476 3.73156,1.27847 1.00194,0.86371 1.5198,2.03867 1.5198,3.52434 0,2.72936 -1.86588,4.62969 -4.94078,4.62969 h -6.12986 v 1.62367 h 6.47558 c 3.62769,0 5.42447,2.1768 5.42447,4.90616 0,1.48564 -0.51845,2.66067 -1.55494,3.55896 -1.03647,0.89827 -2.34942,1.3472 -3.90416,1.3472 h -8.22275 z m -49.49414,9.58339 v 1.78387 h 2.8789 l 8.74106,11.16005 h 2.48771 l -10.19473,-12.93173 z m 25.73176,0.29818 v 1.69292 h 10.69909 v -1.69292 z m -16.68115,1.46916 -2.44894,0.0109 8.74106,11.16004 h 2.48771 z m -3.81475,4.75061 -2.44895,0.0109 1.95647,2.49081 h 2.4877 z m 101.54211,4.69791 v 1.72806 h 11.33988 v -1.72806 z m -74.85434,5.27719 c -0.59306,0 -1.08179,0.17437 -1.46554,0.5116 -0.38375,0.33724 -0.56947,0.80246 -0.56947,1.3839 0,0.63958 0.27872,1.31405 0.82527,2.01176 -0.97682,0.65121 -1.55805,1.32588 -1.55805,2.3027 0,0.6861 0.25599,1.20918 0.75603,1.5813 0.51167,0.37212 1.15099,0.5581 1.90686,0.5581 0.98845,0 1.86077,-0.33709 2.60501,-1.02319 l 1.05833,0.91881 h 1.01131 l -1.59267,-1.40685 c 0.43027,-0.51167 0.8136,-1.11637 1.15084,-1.82573 l -0.69763,-0.34881 c -0.33724,0.68609 -0.67433,1.23268 -1.0232,1.66294 l -1.942,-1.70945 c -0.29072,-0.26746 -0.49995,-0.45345 -0.60461,-0.55811 l 0.0579,-0.0351 c 0.31397,-0.17443 0.55808,-0.31393 0.72088,-0.41858 0.16281,-0.10466 0.36067,-0.25603 0.59325,-0.45372 0.47678,-0.40701 0.68626,-0.88333 0.68626,-1.45314 0,-1.02333 -0.80238,-1.69809 -1.91874,-1.69809 z m 40.67763,0.0119 c -1.31406,0 -2.36073,0.38333 -3.16312,1.15083 -0.80238,0.75587 -1.19786,1.76794 -1.19786,3.01222 0,1.25591 0.4071,2.26772 1.22112,3.02359 0.81401,0.75588 1.87232,1.12758 3.18636,1.12758 1.26754,0 2.34884,-0.45307 3.24425,-1.36012 l -0.67438,-0.65164 c -0.74424,0.77913 -1.61656,1.16323 -2.60501,1.16323 -0.98844,0 -1.79076,-0.30274 -2.40708,-0.90743 -0.61633,-0.6047 -0.91881,-1.40702 -0.91881,-2.40709 0,-1.00008 0.30248,-1.80215 0.91881,-2.39521 0.61632,-0.59306 1.41864,-0.89555 2.43034,-0.89555 1.00007,0 1.82589,0.34898 2.48874,1.05834 l 0.709,-0.63976 c -0.82565,-0.8489 -1.90669,-1.27899 -3.23236,-1.27899 z m 26.19943,0 c -1.27917,0 -2.32559,0.3836 -3.12797,1.16272 -0.80239,0.76749 -1.19786,1.76741 -1.19786,3.0117 0,1.24428 0.39547,2.24472 1.19786,3.01222 0.80238,0.75588 1.83718,1.13947 3.12797,1.13947 1.29079,0 2.33721,-0.38359 3.12797,-1.13947 0.80239,-0.7675 1.19786,-1.76794 1.19786,-3.01222 0,-1.24429 -0.39547,-2.25609 -1.19786,-3.02359 -0.79076,-0.7675 -1.83718,-1.15083 -3.12797,-1.15083 z m 16.02434,0 c -1.27917,0 -2.3256,0.3836 -3.12798,1.16272 -0.80238,0.76749 -1.19786,1.76741 -1.19786,3.0117 0,1.24428 0.39548,2.24472 1.19786,3.01222 0.80238,0.75588 1.83719,1.13947 3.12798,1.13947 1.2908,0 2.33773,-0.38359 3.12849,-1.13947 0.80239,-0.7675 1.19786,-1.76794 1.19786,-3.01222 0,-1.24429 -0.39547,-2.25609 -1.19786,-3.02359 -0.79076,-0.7675 -1.83769,-1.15083 -3.12849,-1.15083 z m 10.09396,0 c -1.36057,0 -2.44212,0.3836 -3.25614,1.13946 -0.814,0.75587 -1.22111,1.75605 -1.22111,3.02359 0,1.29079 0.40736,2.30261 1.233,3.04685 0.82565,0.74424 1.86071,1.11621 3.11661,1.11621 0.61632,0 1.24427,-0.1165 1.87223,-0.33745 0.63958,-0.22094 1.17404,-0.55831 1.61592,-1.01183 v -2.86029 h -3.45353 v 0.68575 h 2.47685 v 1.80247 c -0.56981,0.51167 -1.55817,0.8723 -2.52336,0.8723 -0.94193,0 -1.721,-0.30248 -2.33733,-0.9188 -0.61631,-0.61633 -0.9188,-1.41864 -0.9188,-2.43035 0,-0.98845 0.30223,-1.77889 0.90692,-2.37195 0.60469,-0.60469 1.44239,-0.90743 2.50062,-0.90743 1.08147,0 2.04657,0.41902 2.59313,0.9772 l 0.59272,-0.70952 c -0.86053,-0.74424 -1.9302,-1.11621 -3.19773,-1.11621 z m 18.21077,0 c -0.83728,0 -1.52361,0.17436 -2.0469,0.53485 -0.5233,0.34887 -0.79065,0.89521 -0.79065,1.62781 0,1.30243 0.91885,1.97709 2.41897,2.34921 l 0.73226,0.18603 c 0.17443,0.0349 0.38392,0.10438 0.6165,0.19741 0.2442,0.093 0.41857,0.18628 0.53485,0.29094 0.24421,0.19769 0.45372,0.52316 0.45372,0.93017 0,0.91867 -0.70963,1.40715 -1.83762,1.40715 -0.98845,0 -1.86051,-0.4071 -2.61637,-1.22111 l -0.60462,0.67437 c 0.86053,0.89541 1.94209,1.33739 3.23288,1.33739 0.87216,0 1.56985,-0.18572 2.10478,-0.54622 0.54655,-0.37212 0.8139,-0.93034 0.8139,-1.6862 -0.0581,-0.9303 -0.41873,-1.45387 -1.19786,-1.81436 -0.54656,-0.26746 -0.86057,-0.36017 -1.54667,-0.54622 -0.5233,-0.13954 -0.77897,-0.20978 -1.18598,-0.39584 -0.19769,-0.093 -0.34854,-0.18576 -0.4532,-0.29042 -0.19769,-0.19769 -0.38395,-0.51181 -0.38395,-0.91881 0,-0.91868 0.74427,-1.34876 1.77922,-1.34876 0.80238,0 1.58145,0.2906 2.33732,0.88367 l 0.48834,-0.69763 c -0.81401,-0.63959 -1.76745,-0.95343 -2.84892,-0.95343 z m -135.88266,0.0465 -3.36051,8.18658 h 1.02319 l 0.83716,-2.09341 h 4.22144 l 0.84905,2.09341 h 1.05782 l -3.33727,-8.18658 z m 13.83844,0 -3.36104,8.18658 h 1.02371 l 0.83716,-2.09341 h 4.22145 l 0.84852,2.09341 h 1.05834 l -3.33727,-8.18658 z m 21.45502,0 -3.36052,8.18658 h 1.02319 l 0.83716,-2.09341 h 4.22145 l 0.84904,2.09341 h 1.05782 l -3.33727,-8.18658 z m -46.39872,0.0465 v 8.14007 h 3.16311 c 1.17451,0 2.10469,-0.38385 2.80242,-1.15135 0.69772,-0.76751 1.0467,-1.74418 1.03508,-2.91869 0,-1.17451 -0.34898,-2.1517 -1.05834,-2.9192 -0.69772,-0.7675 -1.62791,-1.15083 -2.77916,-1.15083 z m 15.34997,0 v 0.80202 h 2.80241 v 7.33805 h 1.02319 v -7.33805 h 2.80293 v -0.80202 z m 37.07267,0 v 8.14007 h 1.02319 v -8.14007 z m 4.97696,0 v 0.80202 h 2.80241 v 7.33805 h 1.02371 v -7.33805 h 2.80241 v -0.80202 z m 7.90752,0 v 8.14007 h 5.86115 V 652.812 h -4.84932 v -2.77915 h 4.04678 v -0.79065 h -4.04678 v -2.96571 h 4.6979 v -0.80202 z m 15.86157,0 v 8.14007 h 1.02371 v -3.60495 h 4.60489 v 3.60495 h 1.02319 v -8.14007 h -1.02319 v 3.68608 h -4.60489 v -3.68608 z m 8.80308,0 v 8.14007 h 0.97668 v -4.37234 c 0,-0.61633 -0.023,-1.39541 -0.0811,-2.31407 v -0.0238 l 4.88394,6.71019 h 0.8723 v -8.14007 h -0.98857 v 4.12791 c 0,1.01171 0.0233,1.83727 0.0698,2.50011 l -4.86068,-6.62802 z m 18.74562,0 v 8.14007 h 5.30303 v -0.81391 h -4.29121 v -7.32616 z m 25.22275,0 v 8.14007 h 1.02371 v -8.14007 z m 3.175,0 v 8.14007 h 5.86062 V 652.812 h -4.8488 v -2.77915 h 4.04678 v -0.79065 h -4.04678 v -2.96571 h 4.69791 v -0.80202 z m -101.32198,0.56978 c 0.6861,0 1.16324,0.3955 1.16324,1.03508 0,0.38375 -0.12811,0.68597 -0.50023,0.99994 -0.18606,0.15117 -0.34905,0.27904 -0.50023,0.37207 -0.13954,0.093 -0.3604,0.23278 -0.67437,0.40721 l -0.093,0.0465 c -0.4419,-0.58143 -0.66301,-1.11641 -0.66301,-1.61644 0,-0.80239 0.56989,-1.24437 1.26762,-1.24437 z m 66.86569,0.20929 c 0.97682,0 1.76777,0.30276 2.37246,0.90744 0.6047,0.60469 0.90692,1.40702 0.90692,2.40709 0,1.00008 -0.30248,1.79076 -0.9188,2.38383 -0.6047,0.59307 -1.39539,0.88367 -2.36058,0.88367 -0.96519,0 -1.74425,-0.2906 -2.36058,-0.88367 -0.6047,-0.59307 -0.90692,-1.39538 -0.90692,-2.38383 0,-1.0117 0.30222,-1.81403 0.90692,-2.40709 0.61633,-0.60468 1.39539,-0.90744 2.36058,-0.90744 z m 16.02434,0 c 0.97682,0 1.76776,0.30276 2.37246,0.90744 0.60469,0.60469 0.90693,1.40702 0.90693,2.40709 0,1.00008 -0.30248,1.79076 -0.91881,2.38383 -0.6047,0.59307 -1.39539,0.88367 -2.36058,0.88367 -0.96519,0 -1.74425,-0.2906 -2.36058,-0.88367 -0.6047,-0.59307 -0.90692,-1.39538 -0.90692,-2.38383 0,-1.0117 0.30222,-1.81403 0.90692,-2.40709 0.61633,-0.60468 1.39539,-0.90744 2.36058,-0.90744 z m -117.67188,0.0233 h 1.91874 c 0.94193,0 1.67502,0.30248 2.19832,0.89555 0.53492,0.59307 0.80202,1.38404 0.80202,2.34921 0,0.98845 -0.25547,1.77914 -0.77877,2.38383 -0.52329,0.6047 -1.26775,0.90692 -2.23294,0.90692 h -1.90737 z m 10.69857,0.0119 h 0.0119 l 1.79059,4.43074 h -3.5817 z m 13.83843,0 h 0.0119 l 1.79059,4.43074 h -3.5817 z m 21.45502,0 h 0.0119 l 1.79059,4.43074 h -3.58169 z m -11.98893,3.50005 c 0.26746,0.26746 0.47669,0.46532 0.62787,0.59324 l 2.06964,1.81384 c -0.56981,0.53493 -1.22076,0.80254 -1.95337,0.80254 -1.06985,0 -1.87224,-0.59312 -1.87224,-1.56993 0,-0.62794 0.37223,-1.17454 1.1281,-1.63969 z" />
      <path
         style="font-weight:800;font-size:25.8497px;line-height:1.25;font-family:'Corsa Grotesk';-inkscape-font-specification:'Corsa Grotesk Ultra-Bold';fill:#0b83ba;fill-opacity:1;stroke:none;stroke-width:0.0116883"
         d="m 302.18605,617.49852 c -0.86493,0 -1.58182,0.26493 -2.15844,0.78702 -0.57662,0.52207 -0.86493,1.2 -0.86493,2.04155 0,0.84935 0.28831,1.53507 0.86493,2.05715 0.58442,0.52208 1.30131,0.78701 2.15844,0.78701 0.84935,0 1.55844,-0.26493 2.12728,-0.78701 0.56883,-0.52208 0.84935,-1.2078 0.84935,-2.05715 0,-0.84935 -0.28052,-1.52727 -0.84935,-2.04935 -0.56104,-0.52207 -1.27013,-0.77922 -2.12728,-0.77922 z m 0,5.2052 c -0.70909,0 -1.28571,-0.2104 -1.74545,-0.62338 -0.45974,-0.41299 -0.68571,-0.99741 -0.68571,-1.74545 0,-0.74026 0.22597,-1.31689 0.68571,-1.73767 0.45974,-0.42077 1.04416,-0.63116 1.74545,-0.63116 0.69352,0 1.26235,0.21039 1.7065,0.63116 0.45195,0.42078 0.67792,0.99741 0.67792,1.73767 0,0.74804 -0.22597,1.33246 -0.67012,1.74545 -0.44417,0.41298 -1.013,0.62338 -1.7143,0.62338 z m 1.31689,-2.84416 c 0,-0.5922 -0.47533,-1.02078 -1.18441,-1.02078 h -1.30909 v 2.94546 h 0.86493 v -0.9117 h 0.19481 l 0.47532,0.9117 h 0.91948 l -0.6,-0.98961 c 0.42857,-0.14026 0.63896,-0.45196 0.63896,-0.93507 z m -1.23896,-0.34285 c 0.27272,0 0.4052,0.10909 0.4052,0.33505 0,0.22598 -0.13248,0.33507 -0.4052,0.33507 h -0.38961 v -0.67012 z"
         id="text6-6"
         aria-label="®" />
    </g>
  </g>
</svg>
