<svg width="2500" height="309" viewBox="0 0 2500 309" fill="none" xmlns="http://www.w3.org/2000/svg">
<g clip-path="url(#clip0_1058_565)">
<path fill-rule="evenodd" clip-rule="evenodd" d="M0 54.5715V0H54.5715L54.5715 54.5715H0ZM100.157 118.131V63.5599H154.729V118.131H100.157ZM200.308 127.126V181.697H254.88V127.126H200.308ZM100.157 245.245V190.674H154.729V245.245H100.157ZM0 254.234V308.805H54.5715L54.5715 254.234H0ZM0 181.697V127.126H54.5715L54.5715 181.697H0ZM418.597 0V308.802H654.2V255.828H478.529V0H418.597ZM689.821 0V308.802H749.753V0H689.821ZM1026.84 0H1092.63L976.027 308.802H898.289L779.076 0H846.174L938.461 246.353L1026.84 0ZM1123.26 181.506V308.802H1363.42V255.828H1183.19V181.506H1332.16V127.248H1183.19V52.9745H1358.86V0H1123.26V127.248H1183.19V181.506H1123.26ZM1408.38 308.802V0H1548.44C1609.02 0 1648.55 30.4856 1648.55 91.3417C1648.55 145.407 1609.02 181.83 1548.44 181.83H1468.31V308.802H1408.38ZM1468.31 126.93H1541.71C1572.11 126.93 1588.4 112.343 1588.4 90.6997C1588.4 67.4017 1572.11 52.9745 1541.71 52.9745H1468.31V126.93ZM1689.59 181.506V308.802H1929.76V255.828H1749.53V181.506H1898.49V127.248H1749.53V52.9745H1925.2V0H1689.59V127.248H1749.53V181.506H1689.59ZM1974.72 308.802V181.506H2034.65V255.828H2214.88V308.802H1974.72ZM2034.65 127.248H2183.61V181.506H2034.65V127.248ZM2034.65 127.248H1974.72V0H2210.32V52.9745H2034.65V127.248ZM2259.84 0V308.802H2319.77V181.599H2406.63C2428.99 181.599 2435.51 188.059 2435.51 210.239V308.802H2495.44V195.381C2495.44 166.309 2479.37 151.666 2447.02 151.666C2482.63 138.53 2500 115.231 2500 76.9217C2500 26.6325 2459.25 0.0112171 2404.46 0H2259.84ZM2386.65 127.133H2319.77V52.9745H2386.65C2422.26 52.9745 2439.85 64.9689 2439.85 90.261C2439.85 115.553 2421.61 127.133 2386.65 127.133Z" fill="#181818"/>
</g>
<defs>
<clipPath id="clip0_1058_565">
<rect width="2500" height="308.333" fill="white"/>
</clipPath>
</defs>
</svg>
