<svg width="191" height="74" viewBox="0 0 191 74" fill="none" xmlns="http://www.w3.org/2000/svg">
<path fill-rule="evenodd" clip-rule="evenodd" d="M20.4772 17.7936C22.5322 22.6448 24.7733 28.6846 28.0532 28.6846C33.5597 28.6846 45.2646 -0.770519 49.6753 0.335823C51.8475 0.880675 53.0645 6.40862 53.7292 9.3998C53.7292 9.3998 36.6465 42.5766 26.4356 42.5766C16.2247 42.5766 9.98096 17.9357 9.98096 17.9357C12.6657 12.8658 18.4223 12.9424 20.4772 17.7936Z" fill="url(#paint0_radial_2001_302)"/>
<path fill-rule="evenodd" clip-rule="evenodd" d="M13.1957 41.9352C13.0301 31.9012 12.8544 21.247 13.351 19.0121C14.0157 16.0209 15.0775 14.5615 16.4106 14.2272C6.17483 13.0694 7.62939e-06 17.3433 7.62939e-06 27.0784V51.3379C7.62939e-06 53.3244 1.62625 54.9108 3.55141 54.4208C7.45982 53.4259 13.1957 50.5059 13.1957 41.9352Z" fill="url(#paint1_linear_2001_302)"/>
<path fill-rule="evenodd" clip-rule="evenodd" d="M65.61 51.3318C65.61 53.3183 63.9514 55.0144 62.0561 54.4193C45.6272 49.261 57.9061 6.53864 49.1992 0.31913C54.9558 -1.32325 65.61 3.4353 65.61 13.1704V51.3318Z" fill="url(#paint2_linear_2001_302)"/>
<path d="M87.7933 56.0281C83.6841 56.0281 80.4442 54.9218 78.0735 52.7092C75.7028 50.4965 74.5175 47.599 74.5175 44.0167C74.5175 40.4343 75.7555 37.5895 78.2315 35.4822C80.7603 33.3222 84.3426 32.0579 88.9786 31.6891L99.8868 30.8165C100.421 30.7738 100.832 30.3281 100.832 29.7926C100.832 27.896 100.463 26.3682 99.7257 25.2092C99.0409 24.0502 98.0662 23.2073 96.8019 22.6805C95.5375 22.1537 94.0624 21.8903 92.3766 21.8903C89.4264 21.8903 87.1611 22.4961 85.5806 23.7078C84.272 24.6675 83.5051 25.9703 83.2801 27.6163C83.1998 28.2033 82.7297 28.6862 82.1372 28.6862H76.6965C76.104 28.6862 75.6193 28.2053 75.66 27.6142C75.8211 25.2692 76.5202 23.2032 77.7574 21.4161C79.1798 19.3616 81.1817 17.7811 83.7631 16.6748C86.3972 15.5158 89.4264 14.9363 92.8507 14.9363C96.2224 14.9363 99.1462 15.5421 101.622 16.7538C104.098 17.9655 106.021 19.783 107.391 22.2064C108.761 24.5771 109.446 27.5536 109.446 31.1359V53.9281C109.446 54.5206 108.965 55.0008 108.373 55.0008H102.719C102.182 55.0008 101.727 54.6028 101.656 54.0699L101.499 52.8893C101.355 51.8126 99.557 51.4386 98.7643 52.1812C97.9944 52.9026 97.0768 53.5527 96.0117 54.1316C93.641 55.3959 90.9015 56.0281 87.7933 56.0281ZM90.5591 49.2322C93.72 49.2322 96.2224 48.3102 98.0662 46.4664C99.9628 44.6225 100.911 42.1201 100.911 38.9592V37.9888C100.911 37.3622 100.376 36.869 99.7517 36.9196L92.1395 37.5368C89.0313 37.8002 86.8187 38.4587 85.5016 39.5124C84.1846 40.566 83.5261 41.9357 83.5261 43.6215C83.5261 45.5181 84.1319 46.9405 85.3436 47.8888C86.6079 48.7844 88.3464 49.2322 90.5591 49.2322Z" fill="url(#paint3_linear_2001_302)"/>
<path d="M122.303 16.1216C122.756 16.1216 123.161 16.4069 123.313 16.8342L135.93 52.2376C136.036 52.5365 136.005 52.8672 135.844 53.1409L132.167 59.403C131.713 60.1778 130.564 60.0835 130.241 59.2449L114.216 17.5794C113.946 16.8768 114.464 16.1216 115.217 16.1216H122.303ZM115.452 72.9919C114.993 72.8777 114.683 72.4565 114.683 71.9828V66.5836C114.683 65.9911 115.163 65.5109 115.755 65.5109H120.214C121.426 65.5109 122.506 65.3528 123.454 65.0367C124.455 64.7733 125.351 64.2465 126.141 63.4563C126.931 62.7187 127.616 61.5597 128.196 59.9793L144.136 16.8227C144.292 16.4014 144.693 16.1216 145.143 16.1216H151.905C152.662 16.1216 153.181 16.8847 152.903 17.5887L134.675 63.6933C133.306 67.1703 131.567 69.6991 129.46 71.2795C127.353 72.86 124.745 73.6502 121.637 73.6502C120.32 73.6502 119.082 73.5712 117.923 73.4131C117.084 73.3333 116.261 73.1929 115.452 72.9919Z" fill="url(#paint4_linear_2001_302)"/>
<path d="M168.745 56.0281C164.636 56.0281 161.396 54.9218 159.026 52.7092C156.655 50.4965 155.47 47.599 155.47 44.0167C155.47 40.4343 156.708 37.5895 159.184 35.4822C161.712 33.3222 165.295 32.0579 169.931 31.6891L180.839 30.8165C181.373 30.7738 181.784 30.3281 181.784 29.7926C181.784 27.896 181.415 26.3682 180.678 25.2092C179.993 24.0502 179.018 23.2073 177.754 22.6805C176.49 22.1537 175.014 21.8903 173.329 21.8903C170.378 21.8903 168.113 22.4961 166.533 23.7078C165.224 24.6675 164.457 25.9703 164.232 27.6163C164.152 28.2033 163.682 28.6862 163.089 28.6862H157.649C157.056 28.6862 156.571 28.2053 156.612 27.6142C156.773 25.2692 157.472 23.2032 158.709 21.4161C160.132 19.3616 162.134 17.7811 164.715 16.6748C167.349 15.5158 170.378 14.9363 173.803 14.9363C177.174 14.9363 180.098 15.5421 182.574 16.7538C185.05 17.9655 186.973 19.783 188.343 22.2064C189.713 24.5771 190.398 27.5536 190.398 31.1359V53.9281C190.398 54.5206 189.917 55.0008 189.325 55.0008H183.672C183.134 55.0008 182.679 54.6028 182.608 54.0699L182.451 52.8893C182.307 51.8126 180.509 51.4386 179.716 52.1812C178.946 52.9026 178.029 53.5527 176.964 54.1316C174.593 55.3959 171.854 56.0281 168.745 56.0281ZM171.511 49.2322C174.672 49.2322 177.174 48.3102 179.018 46.4664C180.915 44.6225 181.863 42.1201 181.863 38.9592V37.9888C181.863 37.3622 181.328 36.869 180.704 36.9196L173.092 37.5368C169.983 37.8002 167.771 38.4587 166.454 39.5124C165.137 40.566 164.478 41.9357 164.478 43.6215C164.478 45.5181 165.084 46.9405 166.296 47.8888C167.56 48.7844 169.299 49.2322 171.511 49.2322Z" fill="url(#paint5_linear_2001_302)"/>
<defs>
<radialGradient id="paint0_radial_2001_302" cx="0" cy="0" r="1" gradientUnits="userSpaceOnUse" gradientTransform="translate(39.9079 45.5574) rotate(-100.994) scale(255.619 226.071)">
<stop offset="0.0828165" stop-color="#008CFF"/>
<stop offset="0.24" stop-color="#160133"/>
</radialGradient>
<linearGradient id="paint1_linear_2001_302" x1="8.2053" y1="14.0421" x2="5.81738" y2="96.6916" gradientUnits="userSpaceOnUse">
<stop offset="0.150281" stop-color="#008CFF"/>
<stop offset="0.591471" stop-color="#212A8D"/>
</linearGradient>
<linearGradient id="paint2_linear_2001_302" x1="57.4046" y1="1.91681e-08" x2="61.7102" y2="110.944" gradientUnits="userSpaceOnUse">
<stop offset="0.150281" stop-color="#008CFF"/>
<stop offset="0.591471" stop-color="#212A8D"/>
</linearGradient>
<linearGradient id="paint3_linear_2001_302" x1="115.136" y1="12.7314" x2="118.933" y2="70.061" gradientUnits="userSpaceOnUse">
<stop stop-color="#018CFF"/>
<stop offset="1" stop-color="#1A42A9"/>
</linearGradient>
<linearGradient id="paint4_linear_2001_302" x1="115.136" y1="12.7314" x2="118.933" y2="70.061" gradientUnits="userSpaceOnUse">
<stop stop-color="#018CFF"/>
<stop offset="1" stop-color="#1A42A9"/>
</linearGradient>
<linearGradient id="paint5_linear_2001_302" x1="115.136" y1="12.7314" x2="118.933" y2="70.061" gradientUnits="userSpaceOnUse">
<stop stop-color="#018CFF"/>
<stop offset="1" stop-color="#1A42A9"/>
</linearGradient>
</defs>
</svg>
