<?xml version="1.0" encoding="UTF-8" standalone="no"?>
<svg
   xmlns:dc="http://purl.org/dc/elements/1.1/"
   xmlns:cc="http://creativecommons.org/ns#"
   xmlns:rdf="http://www.w3.org/1999/02/22-rdf-syntax-ns#"
   xmlns:svg="http://www.w3.org/2000/svg"
   xmlns="http://www.w3.org/2000/svg"
   xmlns:sodipodi="http://sodipodi.sourceforge.net/DTD/sodipodi-0.dtd"
   xmlns:inkscape="http://www.inkscape.org/namespaces/inkscape"
   version="1.1"
   id="svg2"
   xml:space="preserve"
   width="1333.3333"
   height="1333.3333"
   viewBox="0 0 1333.3333 1333.3333"
   sodipodi:docname="Vector File 1.ai"><metadata
     id="metadata8"><rdf:RDF><cc:Work
         rdf:about=""><dc:format>image/svg+xml</dc:format><dc:type
           rdf:resource="http://purl.org/dc/dcmitype/StillImage" /></cc:Work></rdf:RDF></metadata><defs
     id="defs6"><clipPath
       clipPathUnits="userSpaceOnUse"
       id="clipPath18"><path
         d="M 0,1000 H 1000 V 0 H 0 Z"
         id="path16" /></clipPath></defs><sodipodi:namedview
     pagecolor="#ffffff"
     bordercolor="#666666"
     borderopacity="1"
     objecttolerance="10"
     gridtolerance="10"
     guidetolerance="10"
     inkscape:pageopacity="0"
     inkscape:pageshadow="2"
     inkscape:window-width="640"
     inkscape:window-height="480"
     id="namedview4" /><g
     id="g10"
     inkscape:groupmode="layer"
     inkscape:label="Vector File 1"
     transform="matrix(1.3333333,0,0,-1.3333333,0,1333.3333)"><g
       id="g12"><g
         id="g14"
         clip-path="url(#clipPath18)"><g
           id="g20"
           transform="translate(554.5361,544.3076)"><path
             d="m 0,0 c 0,0 -3.647,-0.797 -6.817,3.511 -3.174,4.308 -24.27,40.204 -24.27,40.204 0,0 -3.012,4.629 0,10.531 3.015,5.904 9.835,15.476 9.835,15.476 L 18.398,0 Z m -95.278,43.715 c 0,0 -21.219,-35.896 -24.411,-40.204 C -122.879,-0.797 -126.55,0 -126.55,0 h -18.507 l 39.887,69.722 c 0,0 6.86,-9.572 9.892,-15.476 3.032,-5.902 0,-10.531 0,-10.531 m 73.072,127.479 -40.604,-71.077 -42.999,71.077 -126.36,-221.451 h 130.509 c 0,0 11.368,-1.037 16.633,8.416 5.265,9.453 20.702,35.299 20.702,35.299 l 18.547,-32.547 c 0,0 5.863,-11.965 17.112,-11.727 11.246,0.241 135.215,-0.003 135.215,-0.003 z"
             style="fill:#fbb100;fill-opacity:1;fill-rule:nonzero;stroke:none"
             id="path22" /></g><g
           id="g24"
           transform="translate(491.7246,383.8877)"><path
             d="m 0,0 c -106.922,0 -193.603,86.681 -193.603,193.606 0,106.926 86.681,193.607 193.603,193.607 106.927,0 193.605,-86.681 193.605,-193.607 C 193.605,86.681 106.927,0 0,0 m 0.001,402.373 c -115.299,0 -208.767,-93.468 -208.767,-208.767 0,-115.298 93.468,-208.766 208.767,-208.766 115.298,0 208.768,93.468 208.768,208.766 0,115.299 -93.47,208.767 -208.768,208.767"
             style="fill:#1b1b1b;fill-opacity:1;fill-rule:nonzero;stroke:none"
             id="path26" /></g><g
           id="g28"
           transform="translate(290.5122,240.7461)"><path
             d="m 0,0 4.662,-0.575 c -1.474,-3.608 -3.621,-6.334 -6.44,-8.181 -2.82,-1.846 -5.984,-2.768 -9.493,-2.768 -4.277,0 -7.67,1.157 -10.177,3.471 -2.508,2.316 -3.761,5.631 -3.761,9.949 0,5.624 1.906,10.275 5.72,13.953 3.396,3.281 7.617,4.922 12.664,4.922 3.733,0 6.757,-0.889 9.072,-2.664 2.315,-1.775 3.656,-4.161 4.025,-7.158 L 1.875,10.587 c -0.465,2.259 -1.423,3.944 -2.873,5.059 -1.45,1.116 -3.32,1.673 -5.611,1.673 -4.309,0 -7.794,-1.697 -10.453,-5.091 -2.307,-2.926 -3.461,-6.399 -3.461,-10.417 0,-3.21 0.889,-5.66 2.668,-7.35 1.778,-1.69 4.093,-2.534 6.945,-2.534 2.435,0 4.638,0.702 6.608,2.108 C -2.331,-4.559 -0.897,-2.57 0,0"
             style="fill:#000000;fill-opacity:1;fill-rule:nonzero;stroke:none"
             id="path30" /></g><g
           id="g32"
           transform="translate(320.2725,242.6211)"><path
             d="m 0,0 c 0,-1.832 0.429,-3.516 1.286,-5.049 0.857,-1.534 2.134,-2.734 3.833,-3.6 1.698,-0.867 3.484,-1.299 5.359,-1.299 1.81,0 3.532,0.379 5.167,1.139 1.633,0.759 3.095,1.818 4.385,3.174 1.289,1.356 2.307,3.025 3.052,5.006 0.745,1.982 1.118,3.931 1.118,5.848 0,3.11 -0.982,5.588 -2.944,7.434 -1.963,1.846 -4.386,2.77 -7.27,2.77 -3.685,0 -6.937,-1.396 -9.757,-4.187 C 1.41,8.446 0,4.7 0,0 m -4.638,0.213 c 0,5.566 1.814,10.072 5.443,13.516 3.629,3.444 8.03,5.167 13.205,5.167 4.39,0 7.967,-1.268 10.73,-3.803 2.764,-2.535 4.146,-5.933 4.146,-10.194 0,-3.039 -0.697,-5.858 -2.091,-8.457 -1.042,-1.946 -2.355,-3.625 -3.941,-5.038 -1.586,-1.414 -3.285,-2.503 -5.095,-3.27 -2.403,-1.023 -4.95,-1.533 -7.642,-1.533 -2.82,0 -5.387,0.595 -7.702,1.789 -2.315,1.193 -4.069,2.857 -5.263,4.995 -1.194,2.137 -1.79,4.413 -1.79,6.828"
             style="fill:#000000;fill-opacity:1;fill-rule:nonzero;stroke:none"
             id="path34" /></g><g
           id="g36"
           transform="translate(366.5903,229.7539)"><path
             d="m 0,0 7.377,31.229 h 4.566 l 5.936,-11.715 c 1.81,-3.579 3.245,-6.59 4.302,-9.034 0.609,-1.419 1.313,-3.336 2.114,-5.751 0.433,2.627 0.977,5.339 1.635,8.138 l 4.325,18.362 h 4.59 L 27.492,0 H 22.83 l -8.748,18.043 c -1.554,3.182 -2.764,5.986 -3.628,8.415 C 10.213,24.427 9.748,21.935 9.06,18.98 L 4.59,0 Z"
             style="fill:#000000;fill-opacity:1;fill-rule:nonzero;stroke:none"
             id="path38" /></g><g
           id="g40"
           transform="translate(417.9546,239.8516)"><path
             d="M 0,0 4.614,0.383 4.566,-0.703 c 0,-1.207 0.312,-2.312 0.937,-3.313 0.625,-1.001 1.658,-1.775 3.1,-2.322 1.442,-0.547 3.156,-0.82 5.143,-0.82 2.819,0 4.97,0.547 6.452,1.64 1.482,1.094 2.223,2.344 2.223,3.749 0,0.981 -0.393,1.875 -1.177,2.685 C 20.442,1.711 18.255,2.79 14.683,4.153 11.911,5.219 10.021,6.035 9.012,6.604 7.426,7.526 6.256,8.531 5.503,9.618 4.75,10.704 4.374,11.943 4.374,13.335 c 0,1.604 0.496,3.054 1.49,4.346 0.993,1.292 2.447,2.279 4.362,2.961 1.914,0.681 4.073,1.023 6.476,1.023 2.867,0 5.287,-0.427 7.257,-1.278 1.971,-0.853 3.401,-1.99 4.29,-3.409 0.889,-1.42 1.334,-2.777 1.334,-4.069 0,-0.128 -0.009,-0.341 -0.024,-0.638 L 25.017,11.95 c 0,0.881 -0.089,1.57 -0.265,2.067 -0.32,0.866 -0.817,1.597 -1.49,2.194 -0.673,0.597 -1.598,1.076 -2.775,1.438 -1.178,0.362 -2.496,0.543 -3.953,0.543 -2.564,0 -4.558,-0.511 -5.984,-1.534 -1.09,-0.781 -1.634,-1.817 -1.634,-3.11 0,-0.767 0.224,-1.452 0.672,-2.056 0.449,-0.603 1.258,-1.196 2.428,-1.778 0.833,-0.412 2.811,-1.229 5.936,-2.45 2.53,-0.994 4.277,-1.776 5.238,-2.343 1.282,-0.753 2.267,-1.665 2.956,-2.737 0.689,-1.073 1.033,-2.29 1.033,-3.654 0,-1.69 -0.58,-3.249 -1.742,-4.676 -1.162,-1.427 -2.768,-2.532 -4.818,-3.313 -2.051,-0.78 -4.398,-1.171 -7.041,-1.171 -3.99,0 -7.245,0.77 -9.769,2.311 C 1.286,-6.778 0.016,-4.005 0,0"
             style="fill:#000000;fill-opacity:1;fill-rule:nonzero;stroke:none"
             id="path42" /></g><g
           id="g44"
           transform="translate(471.8428,260.9834)"><path
             d="M 0,0 H 4.71 L 0.192,-19.193 c -0.369,-1.591 -0.553,-2.77 -0.553,-3.536 0,-1.676 0.745,-3.026 2.236,-4.048 1.489,-1.023 3.364,-1.534 5.623,-1.534 1.794,0 3.464,0.366 5.01,1.097 1.546,0.732 2.767,1.807 3.665,3.228 0.897,1.42 1.706,3.685 2.427,6.795 L 22.661,0 h 4.711 L 23.07,-18.32 c -0.737,-3.124 -1.706,-5.599 -2.908,-7.424 -1.202,-1.825 -2.868,-3.288 -4.998,-4.389 -2.131,-1.099 -4.606,-1.65 -7.426,-1.65 -2.66,0 -4.963,0.39 -6.909,1.172 -1.947,0.78 -3.405,1.86 -4.374,3.237 -0.969,1.378 -1.454,2.94 -1.454,4.687 0,1.093 0.329,2.975 0.986,5.645 z"
             style="fill:#000000;fill-opacity:1;fill-rule:nonzero;stroke:none"
             id="path46" /></g><g
           id="g48"
           transform="translate(514.3633,229.7539)"><path
             d="m 0,0 7.354,31.229 h 4.709 L 5.551,3.536 H 23.839 L 22.998,0 Z"
             style="fill:#000000;fill-opacity:1;fill-rule:nonzero;stroke:none"
             id="path50" /></g><g
           id="g52"
           transform="translate(562.0518,229.7539)"><path
             d="m 0,0 6.513,27.672 h -11.56 l 0.841,3.557 h 27.732 l -0.84,-3.557 H 11.223 L 4.71,0 Z"
             style="fill:#000000;fill-opacity:1;fill-rule:nonzero;stroke:none"
             id="path54" /></g><g
           id="g56"
           transform="translate(598.5166,229.7539)"><path
             d="m 0,0 7.378,31.229 h 4.685 L 4.71,0 Z"
             style="fill:#000000;fill-opacity:1;fill-rule:nonzero;stroke:none"
             id="path58" /></g><g
           id="g60"
           transform="translate(626.5469,229.7539)"><path
             d="m 0,0 7.377,31.229 h 4.566 l 5.936,-11.715 c 1.81,-3.579 3.244,-6.59 4.302,-9.034 0.608,-1.419 1.313,-3.336 2.115,-5.751 0.432,2.627 0.976,5.339 1.634,8.138 l 4.325,18.362 h 4.59 L 27.491,0 h -4.662 l -8.747,18.043 c -1.554,3.182 -2.764,5.986 -3.629,8.415 C 10.213,24.427 9.748,21.935 9.06,18.98 L 4.59,0 Z"
             style="fill:#000000;fill-opacity:1;fill-rule:nonzero;stroke:none"
             id="path62" /></g><g
           id="g64"
           transform="translate(694.6123,242.0664)"><path
             d="M 0,0 0.841,3.537 H 16.27 L 13.266,-9.181 c -1.939,-1.08 -4.15,-1.96 -6.633,-2.641 -2.484,-0.682 -4.927,-1.023 -7.329,-1.023 -5.127,0 -8.956,1.37 -11.488,4.112 -2.13,2.314 -3.196,5.29 -3.196,8.925 0,3.749 0.933,7.162 2.8,10.236 1.866,3.075 4.221,5.347 7.065,6.817 2.843,1.47 6.003,2.205 9.48,2.205 2.5,0 4.742,-0.402 6.729,-1.204 1.987,-0.803 3.508,-1.875 4.566,-3.217 1.057,-1.341 1.818,-3.092 2.283,-5.251 L 12.929,9.331 c -0.496,2.145 -1.526,3.788 -3.088,4.932 -1.562,1.142 -3.569,1.715 -6.02,1.715 -2.548,0 -4.926,-0.615 -7.137,-1.843 -2.211,-1.229 -3.977,-3.082 -5.299,-5.56 -1.322,-2.478 -1.983,-5.294 -1.983,-8.447 0,-3.139 0.873,-5.51 2.619,-7.115 1.747,-1.605 4.158,-2.407 7.234,-2.407 3.06,0 6.352,0.895 9.877,2.684 L 10.718,0 Z"
             style="fill:#000000;fill-opacity:1;fill-rule:nonzero;stroke:none"
             id="path66" /></g><g
           id="g68"
           transform="translate(132.2695,274.2832)"><path
             d="M 0,0 V 61.113 H 7.601 L 29.573,35.428 51.59,61.113 h 7.6 V 0 H 50.716 V 47.702 L 29.573,23.064 8.475,47.702 V 0 Z"
             style="fill:#000000;fill-opacity:1;fill-rule:nonzero;stroke:none"
             id="path70" /></g><g
           id="g72"
           transform="translate(132.2695,274.2832)"><path
             d="M 0,0 V 61.113 H 7.601 L 29.573,35.428 51.59,61.113 h 7.6 V 0 H 50.716 V 47.702 L 29.573,23.064 8.475,47.702 V 0 Z"
             style="fill:none;stroke:#000000;stroke-width:1;stroke-linecap:butt;stroke-linejoin:miter;stroke-miterlimit:10;stroke-dasharray:none;stroke-opacity:1"
             id="path74" /></g><g
           id="g76"
           transform="translate(204.5654,274.2832)"><path
             d="M 0,0 V 61.113 H 36.737 V 53.338 H 8.648 V 34.815 H 35.951 V 26.909 H 8.648 V 7.863 h 29.006 l 0,-7.863 z"
             style="fill:#000000;fill-opacity:1;fill-rule:nonzero;stroke:none"
             id="path78" /></g><g
           id="g80"
           transform="translate(204.5654,274.2832)"><path
             d="M 0,0 V 61.113 H 36.737 V 53.338 H 8.648 V 34.815 H 35.951 V 26.909 H 8.648 V 7.863 h 29.006 l 0,-7.863 z"
             style="fill:none;stroke:#000000;stroke-width:1;stroke-linecap:butt;stroke-linejoin:miter;stroke-miterlimit:10;stroke-dasharray:none;stroke-opacity:1"
             id="path82" /></g><g
           id="g84"
           transform="translate(253.4902,274.2832)"><path
             d="M 0,0 V 61.113 H 8.649 V 7.863 H 37.743 V 0 Z"
             style="fill:#000000;fill-opacity:1;fill-rule:nonzero;stroke:none"
             id="path86" /></g><g
           id="g88"
           transform="translate(253.4902,274.2832)"><path
             d="M 0,0 V 61.113 H 8.649 V 7.863 H 37.743 V 0 Z"
             style="fill:none;stroke:#000000;stroke-width:1;stroke-linecap:butt;stroke-linejoin:miter;stroke-miterlimit:10;stroke-dasharray:none;stroke-opacity:1"
             id="path90" /></g><g
           id="g92"
           transform="translate(350.4248,288.7861)"><path
             d="m 0,0 v -9.872 c -3.582,-1.864 -7.229,-3.284 -10.943,-4.26 -3.713,-0.975 -7.39,-1.463 -11.03,-1.463 -3.495,0 -6.83,0.458 -10.004,1.376 -3.174,0.917 -6.174,2.279 -8.999,4.084 -4.543,2.971 -8.074,6.764 -10.592,11.38 -2.52,4.615 -3.78,9.632 -3.78,15.049 0,4.106 0.83,8.088 2.491,11.947 1.66,3.859 4.018,7.23 7.077,10.113 3.26,3.086 6.916,5.395 10.964,6.924 4.047,1.529 8.533,2.293 13.455,2.293 3.435,0 6.842,-0.393 10.221,-1.179 3.378,-0.787 6.916,-2.025 10.616,-3.713 v -9.48 c -3.874,2.097 -7.514,3.648 -10.921,4.653 -3.408,1.004 -6.713,1.506 -9.916,1.506 -7.136,0 -13.034,-2.22 -17.693,-6.661 -4.659,-4.441 -6.989,-10.011 -6.989,-16.709 0,-6.611 2.294,-12.137 6.881,-16.578 4.586,-4.441 10.345,-6.662 17.276,-6.662 3.553,0 7.15,0.597 10.79,1.791 C -7.456,-4.267 -3.757,-2.446 0,0"
             style="fill:#000000;fill-opacity:1;fill-rule:nonzero;stroke:none"
             id="path94" /></g><g
           id="g96"
           transform="translate(350.4248,288.7861)"><path
             d="m 0,0 v -9.872 c -3.582,-1.864 -7.229,-3.284 -10.943,-4.26 -3.713,-0.975 -7.39,-1.463 -11.03,-1.463 -3.495,0 -6.83,0.458 -10.004,1.376 -3.174,0.917 -6.174,2.279 -8.999,4.084 -4.543,2.971 -8.074,6.764 -10.592,11.38 -2.52,4.615 -3.78,9.632 -3.78,15.049 0,4.106 0.83,8.088 2.491,11.947 1.66,3.859 4.018,7.23 7.077,10.113 3.26,3.086 6.916,5.395 10.964,6.924 4.047,1.529 8.533,2.293 13.455,2.293 3.435,0 6.842,-0.393 10.221,-1.179 3.378,-0.787 6.916,-2.025 10.616,-3.713 v -9.48 c -3.874,2.097 -7.514,3.648 -10.921,4.653 -3.408,1.004 -6.713,1.506 -9.916,1.506 -7.136,0 -13.034,-2.22 -17.693,-6.661 -4.659,-4.441 -6.989,-10.011 -6.989,-16.709 0,-6.611 2.294,-12.137 6.881,-16.578 4.586,-4.441 10.345,-6.662 17.276,-6.662 3.553,0 7.15,0.597 10.79,1.791 C -7.456,-4.267 -3.757,-2.446 0,0 Z"
             style="fill:none;stroke:#000000;stroke-width:1;stroke-linecap:butt;stroke-linejoin:miter;stroke-miterlimit:10;stroke-dasharray:none;stroke-opacity:1"
             id="path98" /></g><g
           id="g100"
           transform="translate(360.4717,274.2832)"><path
             d="M 0,0 V 61.113 H 8.648 V 34.815 h 35.253 v 26.298 h 8.694 V 0 H 43.901 V 26.56 H 8.648 L 8.648,0 Z"
             style="fill:#000000;fill-opacity:1;fill-rule:nonzero;stroke:none"
             id="path102" /></g><g
           id="g104"
           transform="translate(360.4717,274.2832)"><path
             d="M 0,0 V 61.113 H 8.648 V 34.815 h 35.253 v 26.298 h 8.694 V 0 H 43.901 V 26.56 H 8.648 L 8.648,0 Z"
             style="fill:none;stroke:#000000;stroke-width:1;stroke-linecap:butt;stroke-linejoin:miter;stroke-miterlimit:10;stroke-dasharray:none;stroke-opacity:1"
             id="path106" /></g><g
           id="g108"
           transform="translate(426.1279,274.2832)"><path
             d="M 0,0 V 61.113 H 36.737 V 53.338 H 8.648 V 34.815 H 35.951 V 26.909 H 8.648 V 7.863 h 29.006 l 0,-7.863 z"
             style="fill:#000000;fill-opacity:1;fill-rule:nonzero;stroke:none"
             id="path110" /></g><g
           id="g112"
           transform="translate(426.1279,274.2832)"><path
             d="M 0,0 V 61.113 H 36.737 V 53.338 H 8.648 V 34.815 H 35.951 V 26.909 H 8.648 V 7.863 h 29.006 l 0,-7.863 z"
             style="fill:none;stroke:#000000;stroke-width:1;stroke-linecap:butt;stroke-linejoin:miter;stroke-miterlimit:10;stroke-dasharray:none;stroke-opacity:1"
             id="path114" /></g><g
           id="g116"
           transform="translate(483.4404,308.9238)"><path
             d="m 0,0 h 7.251 c 4.077,0 7.128,0.787 9.152,2.359 2.024,1.573 3.035,3.975 3.035,7.208 0,3.32 -0.96,5.73 -2.882,7.23 -1.922,1.499 -5.024,2.249 -9.305,2.249 H 0 Z M -8.78,-34.641 V 26.473 H 9.13 c 6.174,0 10.935,-1.457 14.285,-4.369 3.348,-2.913 5.023,-7.033 5.023,-12.362 0,-4.019 -0.917,-7.252 -2.751,-9.698 -1.836,-2.446 -4.733,-4.281 -8.694,-5.504 1.02,-0.554 1.981,-1.289 2.883,-2.206 0.902,-0.917 2.068,-2.454 3.494,-4.608 L 38.224,-34.641 H 27.651 l -10.483,16.033 c -3.146,4.833 -5.687,7.92 -7.623,9.26 C 7.607,-8.009 5.3,-7.339 2.621,-7.339 H 0 v -27.302 z"
             style="fill:#000000;fill-opacity:1;fill-rule:nonzero;stroke:none"
             id="path118" /></g><g
           id="g120"
           transform="translate(483.4404,308.9238)"><path
             d="m 0,0 h 7.251 c 4.077,0 7.128,0.787 9.152,2.359 2.024,1.573 3.035,3.975 3.035,7.208 0,3.32 -0.96,5.73 -2.882,7.23 -1.922,1.499 -5.024,2.249 -9.305,2.249 H 0 Z M -8.78,-34.641 V 26.473 H 9.13 c 6.174,0 10.935,-1.457 14.285,-4.369 3.348,-2.913 5.023,-7.033 5.023,-12.362 0,-4.019 -0.917,-7.252 -2.751,-9.698 -1.836,-2.446 -4.733,-4.281 -8.694,-5.504 1.02,-0.554 1.981,-1.289 2.883,-2.206 0.902,-0.917 2.068,-2.454 3.494,-4.608 L 38.224,-34.641 H 27.651 l -10.483,16.033 c -3.146,4.833 -5.687,7.92 -7.623,9.26 C 7.607,-8.009 5.3,-7.339 2.621,-7.339 H 0 v -27.302 z"
             style="fill:none;stroke:#000000;stroke-width:1;stroke-linecap:butt;stroke-linejoin:miter;stroke-miterlimit:10;stroke-dasharray:none;stroke-opacity:1"
             id="path122" /></g><g
           id="g124"
           transform="translate(544.7285,279.0449)"><path
             d="m 0,0 v 11.532 c 2.767,-3.175 5.409,-5.46 7.929,-6.858 2.518,-1.398 5.205,-2.097 8.059,-2.097 3.029,0 5.417,0.706 7.164,2.118 1.747,1.413 2.621,3.327 2.621,5.745 0,1.98 -0.589,3.72 -1.769,5.22 -1.18,1.5 -3.997,3.662 -8.452,6.487 C 8.649,26.603 4.317,30.054 2.556,32.5 c -1.763,2.446 -2.643,5.358 -2.643,8.737 0,4.746 1.682,8.642 5.045,11.685 3.364,3.043 7.695,4.565 12.996,4.565 2.358,0 4.681,-0.342 6.968,-1.026 2.285,-0.685 4.593,-1.741 6.924,-3.167 v -9.916 c -2.68,2.154 -5.156,3.72 -7.427,4.695 -2.272,0.976 -4.543,1.464 -6.815,1.464 -2.737,0 -4.972,-0.678 -6.705,-2.031 C 9.166,46.151 8.3,44.411 8.3,42.285 c 0,-3.029 3.596,-6.786 10.79,-11.27 l 1.31,-0.786 c 5.854,-3.641 9.683,-6.852 11.489,-9.632 1.805,-2.782 2.709,-6.225 2.709,-10.331 0,-4.661 -1.69,-8.512 -5.068,-11.555 -3.379,-3.043 -7.703,-4.565 -12.974,-4.565 -3.291,0 -6.262,0.466 -8.911,1.398 C 4.994,-3.524 2.446,-2.039 0,0"
             style="fill:#000000;fill-opacity:1;fill-rule:nonzero;stroke:none"
             id="path126" /></g><g
           id="g128"
           transform="translate(544.7285,279.0449)"><path
             d="m 0,0 v 11.532 c 2.767,-3.175 5.409,-5.46 7.929,-6.858 2.518,-1.398 5.205,-2.097 8.059,-2.097 3.029,0 5.417,0.706 7.164,2.118 1.747,1.413 2.621,3.327 2.621,5.745 0,1.98 -0.589,3.72 -1.769,5.22 -1.18,1.5 -3.997,3.662 -8.452,6.487 C 8.649,26.603 4.317,30.054 2.556,32.5 c -1.763,2.446 -2.643,5.358 -2.643,8.737 0,4.746 1.682,8.642 5.045,11.685 3.364,3.043 7.695,4.565 12.996,4.565 2.358,0 4.681,-0.342 6.968,-1.026 2.285,-0.685 4.593,-1.741 6.924,-3.167 v -9.916 c -2.68,2.154 -5.156,3.72 -7.427,4.695 -2.272,0.976 -4.543,1.464 -6.815,1.464 -2.737,0 -4.972,-0.678 -6.705,-2.031 C 9.166,46.151 8.3,44.411 8.3,42.285 c 0,-3.029 3.596,-6.786 10.79,-11.27 l 1.31,-0.786 c 5.854,-3.641 9.683,-6.852 11.489,-9.632 1.805,-2.782 2.709,-6.225 2.709,-10.331 0,-4.661 -1.69,-8.512 -5.068,-11.555 -3.379,-3.043 -7.703,-4.565 -12.974,-4.565 -3.291,0 -6.262,0.466 -8.911,1.398 C 4.994,-3.524 2.446,-2.039 0,0 Z"
             style="fill:none;stroke:#000000;stroke-width:1;stroke-linecap:butt;stroke-linejoin:miter;stroke-miterlimit:10;stroke-dasharray:none;stroke-opacity:1"
             id="path130" /></g><g
           id="g132"
           transform="translate(603.7451,274.2832)"><path
             d="m 0,0 v 30.578 l -23.589,30.535 h 10.353 L 4.587,37.917 22.847,61.113 H 33.374 L 8.868,30.142 V 0 Z"
             style="fill:#000000;fill-opacity:1;fill-rule:nonzero;stroke:none"
             id="path134" /></g><g
           id="g136"
           transform="translate(603.7451,274.2832)"><path
             d="m 0,0 v 30.578 l -23.589,30.535 h 10.353 L 4.587,37.917 22.847,61.113 H 33.374 L 8.868,30.142 V 0 Z"
             style="fill:none;stroke:#000000;stroke-width:1;stroke-linecap:butt;stroke-linejoin:miter;stroke-miterlimit:10;stroke-dasharray:none;stroke-opacity:1"
             id="path138" /></g><g
           id="g140"
           transform="translate(638.124,279.0449)"><path
             d="m 0,0 v 11.532 c 2.767,-3.175 5.409,-5.46 7.929,-6.858 2.518,-1.398 5.205,-2.097 8.059,-2.097 3.029,0 5.417,0.706 7.164,2.118 1.747,1.413 2.621,3.327 2.621,5.745 0,1.98 -0.589,3.72 -1.769,5.22 -1.18,1.5 -3.997,3.662 -8.452,6.487 C 8.649,26.603 4.317,30.054 2.556,32.5 c -1.763,2.446 -2.643,5.358 -2.643,8.737 0,4.746 1.682,8.642 5.045,11.685 3.364,3.043 7.695,4.565 12.996,4.565 2.358,0 4.681,-0.342 6.968,-1.026 2.285,-0.685 4.593,-1.741 6.924,-3.167 v -9.916 c -2.68,2.154 -5.156,3.72 -7.427,4.695 -2.272,0.976 -4.543,1.464 -6.815,1.464 -2.737,0 -4.972,-0.678 -6.705,-2.031 C 9.166,46.151 8.3,44.411 8.3,42.285 c 0,-3.029 3.596,-6.786 10.79,-11.27 l 1.31,-0.786 c 5.854,-3.641 9.683,-6.852 11.489,-9.632 1.805,-2.782 2.709,-6.225 2.709,-10.331 0,-4.661 -1.69,-8.512 -5.068,-11.555 -3.379,-3.043 -7.703,-4.565 -12.974,-4.565 -3.291,0 -6.262,0.466 -8.911,1.398 C 4.994,-3.524 2.446,-2.039 0,0"
             style="fill:#000000;fill-opacity:1;fill-rule:nonzero;stroke:none"
             id="path142" /></g><g
           id="g144"
           transform="translate(638.124,279.0449)"><path
             d="m 0,0 v 11.532 c 2.767,-3.175 5.409,-5.46 7.929,-6.858 2.518,-1.398 5.205,-2.097 8.059,-2.097 3.029,0 5.417,0.706 7.164,2.118 1.747,1.413 2.621,3.327 2.621,5.745 0,1.98 -0.589,3.72 -1.769,5.22 -1.18,1.5 -3.997,3.662 -8.452,6.487 C 8.649,26.603 4.317,30.054 2.556,32.5 c -1.763,2.446 -2.643,5.358 -2.643,8.737 0,4.746 1.682,8.642 5.045,11.685 3.364,3.043 7.695,4.565 12.996,4.565 2.358,0 4.681,-0.342 6.968,-1.026 2.285,-0.685 4.593,-1.741 6.924,-3.167 v -9.916 c -2.68,2.154 -5.156,3.72 -7.427,4.695 -2.272,0.976 -4.543,1.464 -6.815,1.464 -2.737,0 -4.972,-0.678 -6.705,-2.031 C 9.166,46.151 8.3,44.411 8.3,42.285 c 0,-3.029 3.596,-6.786 10.79,-11.27 l 1.31,-0.786 c 5.854,-3.641 9.683,-6.852 11.489,-9.632 1.805,-2.782 2.709,-6.225 2.709,-10.331 0,-4.661 -1.69,-8.512 -5.068,-11.555 -3.379,-3.043 -7.703,-4.565 -12.974,-4.565 -3.291,0 -6.262,0.466 -8.911,1.398 C 4.994,-3.524 2.446,-2.039 0,0 Z"
             style="fill:none;stroke:#000000;stroke-width:1;stroke-linecap:butt;stroke-linejoin:miter;stroke-miterlimit:10;stroke-dasharray:none;stroke-opacity:1"
             id="path146" /></g><g
           id="g148"
           transform="translate(699.0176,274.2832)"><path
             d="m 0,0 v 53.163 h -22.453 v 7.95 h 53.599 v -7.95 H 8.693 L 8.693,0 Z"
             style="fill:#000000;fill-opacity:1;fill-rule:nonzero;stroke:none"
             id="path150" /></g><g
           id="g152"
           transform="translate(699.0176,274.2832)"><path
             d="m 0,0 v 53.163 h -22.453 v 7.95 h 53.599 v -7.95 H 8.693 L 8.693,0 Z"
             style="fill:none;stroke:#000000;stroke-width:1;stroke-linecap:butt;stroke-linejoin:miter;stroke-miterlimit:10;stroke-dasharray:none;stroke-opacity:1"
             id="path154" /></g><g
           id="g156"
           transform="translate(737.3291,274.2832)"><path
             d="M 0,0 V 61.113 H 36.737 V 53.338 H 8.649 V 34.815 H 35.951 V 26.909 H 8.649 V 7.863 H 37.655 V 0 Z"
             style="fill:#000000;fill-opacity:1;fill-rule:nonzero;stroke:none"
             id="path158" /></g><g
           id="g160"
           transform="translate(737.3291,274.2832)"><path
             d="M 0,0 V 61.113 H 36.737 V 53.338 H 8.649 V 34.815 H 35.951 V 26.909 H 8.649 V 7.863 H 37.655 V 0 Z"
             style="fill:none;stroke:#000000;stroke-width:1;stroke-linecap:butt;stroke-linejoin:miter;stroke-miterlimit:10;stroke-dasharray:none;stroke-opacity:1"
             id="path162" /></g><g
           id="g164"
           transform="translate(785.9922,274.2832)"><path
             d="M 0,0 V 61.113 H 7.601 L 29.573,35.428 51.59,61.113 h 7.6 V 0 H 50.716 V 47.702 L 29.573,23.064 8.475,47.702 V 0 Z"
             style="fill:#000000;fill-opacity:1;fill-rule:nonzero;stroke:none"
             id="path166" /></g><g
           id="g168"
           transform="translate(785.9922,274.2832)"><path
             d="M 0,0 V 61.113 H 7.601 L 29.573,35.428 51.59,61.113 h 7.6 V 0 H 50.716 V 47.702 L 29.573,23.064 8.475,47.702 V 0 Z"
             style="fill:none;stroke:#000000;stroke-width:1;stroke-linecap:butt;stroke-linejoin:miter;stroke-miterlimit:10;stroke-dasharray:none;stroke-opacity:1"
             id="path170" /></g></g></g></g></svg>
