<?xml version="1.0" encoding="UTF-8"?>
<svg id="Layer_1" xmlns="http://www.w3.org/2000/svg" version="1.1" viewBox="0 0 350 350">
  <!-- Generator: Adobe Illustrator 30.3.0, SVG Export Plug-In . SVG Version: 2.1.3 Build 182)  -->
  <defs>
    <style>
      .st0 {
        fill: #f0ece1;
      }

      .st1 {
        fill: #705a96;
      }

      .st2 {
        fill: #223;
      }
    </style>
  </defs>
  <g>
    <path class="st2" d="M214.34,172.79c-1.16-1.19-2.11-2.28-3.51-3.12-21.11,10.49-44.92,11.31-66.73,2.19-27.07-11.27-50.47-32.53-68.58-55.92,19.36-25.38,51.51-54.02,83.52-60.56,14.38-3.09,28.67-1.99,42.49,2.89,27.74,9.69,55.34,34.47,72.94,57.66-9.96,12.8-20.23,24.48-32.76,33.82l-7.6,5.66c4.53,5.69,4.03,13.62-1.28,18.3-5.32,4.69-13.19,4.55-18.51-.92h.01ZM228.32,159.71l-19.66-19.74c6.01-9.17,8.96-19.26,7.26-29.9-3.29-20.46-20.04-35.03-40.75-35.23l-.19-13.79c-7.75.08-15.32,1.27-22.94,3.78l-.14,17.09c-11.22,7.34-17.85,19.77-18.21,32.91-.37,13.14,6.02,26.13,16.99,34.11,14.91,10.83,34.63,10.83,49.54-.65l19.9,19.68c2.42,2.4,6.11,1.9,8.05-.09,2.18-2.26,2.41-5.89.16-8.16M144.94,76.13l-.18-8.4c-5.74,2.42-10.69,5.02-15.6,8.37l15.78.03ZM233.48,96.05v-11.3c-6.64-4.7-12.88-9.35-20.43-13.22-.11,21.12-1.27,8.89,6.2,24.57l14.22-.06ZM130.84,95.97c2.05-5.11,4.99-8.71,8.17-12.83l-20,.09c-1.44,0-2.36,1.26-2.42,2.6l.05,10.17,14.19-.03h.01ZM127.9,103.07l-18.12-.1-.19-12.41c-6.67,5.74-12.53,11.48-18.32,18.25l35.52.09,1.1-5.82h.01ZM264.32,115.32c-7.69-9.5-15.12-17.12-23.76-24.46l-.08,24.9,23.83-.42h.01ZM233.52,115.58l-.08-12.31-11.44.06c1.05,4.48,1.2,8.31,1.66,12.47,3.43-.03,6.52.22,9.85-.22h.01ZM109.62,116.01l-24.26.22c7.34,9.38,15.32,17.14,24.18,25.16l.07-25.37h.01ZM128.03,128.59c-1.04-4.16-1.54-8-1.73-12.46-3.32-.18-6.29-.32-9.63,0l.02,12.48h11.34v-.02ZM240.64,140.83c2.02-1.64,4.61-3.32,5.98-5.47,1.02-3.93.19-8.15.26-12.42l-23.54-.05c-.63,2.05-1.02,3.98-1.09,6.04l18.22.21.17,11.69h-.01ZM136.42,145.24c-2.74-3.05-4.14-6.33-5.89-9.61l-13.85.13-.07,11.44c6.16,4.58,12.36,8.85,19.61,12.62l.18-14.58h.01ZM174.83,170.9c.32-2.71.31-4.47,0-6.71-11.6-.07-22.06-3.97-31.23-11.43-.38,3.69-.28,7.04-.14,10.81,9.96,4.58,20.43,7.05,31.37,7.31h0Z"/>
    <path class="st1" d="M175,92.06c-13.17,0-23.84,10.67-23.84,23.84s10.67,23.84,23.84,23.84,23.84-10.67,23.84-23.84-10.67-23.84-23.84-23.84M175,132.7c-9.27,0-16.79-7.52-16.79-16.79s7.52-16.79,16.79-16.79,16.79,7.52,16.79,16.79-7.52,16.79-16.79,16.79"/>
    <circle class="st2" cx="175" cy="115.91" r="16.79"/>
    <circle class="st0" cx="175" cy="109" r="8.72"/>
    <path class="st2" d="M206.27,115.91c0,17.27-13.99,31.28-31.27,31.28s-31.27-14.01-31.27-31.28,13.99-31.28,31.27-31.28,31.27,14.01,31.27,31.28M198.83,115.94c0-13.16-10.67-23.83-23.83-23.83s-23.83,10.67-23.83,23.83,10.67,23.83,23.83,23.83,23.83-10.67,23.83-23.83"/>
  </g>
  <g>
    <g>
      <path class="st2" d="M70.64,242.74c-4.45,0-8.24,1.17-11.35,3.49-2.24,1.68-3.86,3.75-4.88,6.21-1.14-2.46-2.73-4.53-4.77-6.21-2.84-2.33-6.49-3.49-10.94-3.49-4.11,0-7.53.94-10.27,2.82-2.06,1.42-3.63,3-4.73,4.74l-1.03-6.02h-11.5v50.74h12.53v-28.76c0-2.74.48-5.02,1.44-6.83.96-1.81,2.26-3.15,3.9-4.01,1.64-.85,3.46-1.28,5.44-1.28,2.94,0,5.31.92,7.09,2.77,1.78,1.85,2.67,4.56,2.67,8.12v29.99h12.53v-28.76c0-2.81.48-5.1,1.44-6.88.96-1.78,2.24-3.12,3.85-4.01,1.61-.89,3.37-1.33,5.29-1.33,3.01,0,5.43.94,7.24,2.82,1.81,1.89,2.72,4.64,2.72,8.27v29.89h12.43v-33.18c0-5.82-1.64-10.46-4.93-13.92-3.29-3.46-8.01-5.19-14.18-5.19Z"/>
      <path class="st2" d="M133.45,284.13c-2.23,1.3-5.05,1.95-8.47,1.95-4.66,0-8.17-1.4-10.53-4.21-1.88-2.23-3-5.33-3.38-9.26l38.15-.09v-3.8c0-5.34-1.01-9.93-3.03-13.77-2.02-3.83-4.88-6.83-8.58-8.99-3.7-2.16-8.12-3.24-13.25-3.24s-9.31,1.15-13.15,3.44c-3.84,2.29-6.82,5.46-8.94,9.5-2.12,4.04-3.18,8.7-3.18,13.97s1.09,9.81,3.29,13.82c2.19,4.01,5.22,7.16,9.09,9.45s8.3,3.44,13.3,3.44c6.64,0,12.14-1.57,16.49-4.73,4.35-3.15,7.07-7.5,8.17-13.04h-11.61c-.68,2.4-2.14,4.25-4.37,5.55ZM117.02,254.86c2.02-1.23,4.5-1.85,7.45-1.85,3.76,0,6.76,1.06,8.99,3.18,2.23,2.12,3.34,4.93,3.34,8.42h-25.51c.26-1.55.64-2.95,1.17-4.21,1.03-2.47,2.55-4.32,4.57-5.55Z"/>
      <path class="st2" d="M188.15,242.74c-3.43,0-6.59.72-9.5,2.16-2.91,1.44-5.15,3.43-6.73,5.96l-1.03-6.57h-11.61v50.74h12.53v-27.32c0-4.11,1.1-7.4,3.29-9.86,2.19-2.47,5.24-3.7,9.14-3.7,3.29,0,5.89,1.05,7.81,3.13,1.92,2.09,2.88,5.26,2.88,9.5v28.25h12.53v-31.23c0-6.5-1.63-11.64-4.88-15.41-3.25-3.77-8.06-5.65-14.43-5.65Z"/>
      <path class="st2" d="M246.08,243.46c-4.04,0-7.33,1.06-9.86,3.18-1.73,1.45-3.02,3.2-3.89,5.22l-.73-7.48h-11.81v50.64h12.53v-24.65c0-4.93,1.3-8.61,3.9-11.04,2.6-2.43,6.2-3.65,10.79-3.65h4.62v-11.61c-1.03-.27-1.99-.45-2.88-.51-.89-.07-1.78-.1-2.67-.1Z"/>
      <path class="st2" d="M297.75,244.28l-.72,7.81c-1.58-3.01-3.99-5.32-7.24-6.93-3.25-1.61-6.76-2.41-10.53-2.41-4.73,0-8.89,1.1-12.48,3.29-3.6,2.19-6.39,5.24-8.37,9.14-1.99,3.9-2.98,8.52-2.98,13.87s.92,9.96,2.77,14.07c1.85,4.11,4.55,7.34,8.12,9.71,3.56,2.36,7.81,3.54,12.74,3.54,4.11,0,7.67-.89,10.68-2.67,3.01-1.78,5.31-3.97,6.88-6.57l.82,7.91h11.61v-50.74h-11.3ZM294.62,277.71c-1.2,2.36-2.86,4.2-4.98,5.5-2.12,1.3-4.66,1.95-7.6,1.95s-5.38-.67-7.5-2c-2.12-1.34-3.75-3.17-4.88-5.5-1.13-2.33-1.7-5-1.7-8.01s.56-5.68,1.7-8.01c1.13-2.33,2.77-4.16,4.93-5.5,2.16-1.33,4.67-2,7.55-2s5.39.65,7.55,1.95c2.16,1.3,3.82,3.12,4.98,5.44,1.16,2.33,1.75,5.03,1.75,8.11s-.6,5.7-1.8,8.06Z"/>
    </g>
    <path class="st1" d="M330.52,296.26c-2.26,0-4.21-.79-5.86-2.36-1.64-1.57-2.46-3.49-2.46-5.75s.82-4.19,2.46-5.8c1.64-1.61,3.6-2.41,5.86-2.41s4.21.81,5.85,2.41c1.64,1.61,2.47,3.54,2.47,5.8s-.82,4.18-2.47,5.75c-1.64,1.57-3.6,2.36-5.85,2.36Z"/>
  </g>
</svg>