<svg width="813" height="120" viewBox="0 0 813 120" fill="none" xmlns="http://www.w3.org/2000/svg">
<path d="M558.106 54.9364H564.605V35.5422H574.269V83.7696H564.605V63.7764H558.106" fill="black"/>
<path d="M419.287 35.8115H409.75L413.485 46.2625L418.844 60.6378L400.065 60.5552L390.823 84.3901H401.036L406.627 69.2713H422.072L423.528 73.1955L427.664 84.2868H438.129L419.287 35.8115Z" fill="black"/>
<path d="M543.553 35.2331H533.615V83.853H543.553V35.2331Z" fill="black"/>
<path d="M268.614 83.5216V36.017H298.998V44.7124H277.94V55.6591H296.93V63.9208H277.94V74.9088H298.893V83.6249L268.614 83.5216Z" fill="black"/>
<path d="M352.834 44.795V83.5216H343.318V44.795H327.999V36.017H368.089V44.795H352.834Z" fill="black"/>
<path d="M600.5 36.017H611.578L622.465 54.833L633.353 36.017H643.903L626.791 63.549V83.5216H617.401V63.549L600.5 36.017Z" fill="black"/>
<path d="M732.821 83.5216V36.017H742.4V83.5216H732.821Z" fill="black"/>
<path d="M499.287 44.8781C498.56 43.1049 497.452 41.5058 496.037 40.1896C494.573 38.8368 492.853 37.7774 490.973 37.0708C488.892 36.329 486.689 35.9718 484.474 36.0174H466.329V83.522H475.781V65.6355V57.663V44.0519H483.251C485.277 43.9338 487.272 44.5848 488.821 45.8695C489.526 46.5046 490.08 47.283 490.444 48.1501C490.809 49.0171 490.975 49.9518 490.931 50.8884C490.962 51.8083 490.79 52.7238 490.426 53.5723C490.061 54.4208 489.514 55.1821 488.821 55.8041C487.744 56.7648 486.386 57.3714 484.939 57.5391V65.5942C486.978 65.5801 488.999 65.2166 490.91 64.5202C492.785 63.833 494.505 62.7947 495.974 61.4633C497.407 60.1623 498.518 58.5589 499.223 56.7749C499.995 54.8836 500.382 52.863 500.363 50.8265C500.405 48.7939 500.039 46.773 499.287 44.8781V44.8781Z" fill="black"/>
<path d="M793.314 75.4463C792.614 75.5334 791.909 75.5747 791.204 75.5702C789.305 75.5801 787.422 75.2367 785.655 74.5582C783.896 73.89 782.295 72.878 780.949 71.584C779.528 70.2126 778.401 68.5762 777.637 66.7716C776.773 64.6726 776.349 62.4248 776.392 60.1622C776.337 57.7942 776.775 55.4401 777.679 53.2431C778.429 51.4025 779.573 49.7404 781.034 48.3687C782.397 47.1117 784.004 46.1354 785.76 45.4978C787.452 44.8684 789.247 44.5464 791.056 44.5477C792.894 44.5144 794.723 44.8012 796.458 45.3945C797.87 45.9018 799.183 46.6423 800.34 47.5838C801.37 48.4248 802.229 49.4477 802.872 50.5994C803.459 51.662 803.906 52.7932 804.201 53.966L813 51.2603C812.478 49.2942 811.675 47.41 810.616 45.663C809.502 43.7856 808.076 42.1033 806.396 40.6854C804.454 39.1073 802.238 37.8831 799.855 37.0709C797.043 36.1367 794.088 35.6826 791.12 35.7284C787.976 35.7154 784.859 36.2976 781.941 37.4427C779.007 38.5659 776.334 40.2544 774.08 42.408C771.825 44.5615 770.036 47.1364 768.817 49.9797C767.452 53.184 766.777 56.6292 766.834 60.1003C766.781 63.5556 767.449 66.9852 768.796 70.1795C769.986 73.0237 771.757 75.6004 773.999 77.7524C776.241 79.9044 778.907 81.5865 781.836 82.6959C784.842 83.8413 788.041 84.4228 791.267 84.4102C792.595 84.4007 793.92 84.3041 795.234 84.121L793.314 75.4463Z" fill="black"/>
<path d="M224.837 73.2773H234.142V36.0172H221.271L207.029 70.3238L192.449 36.0172H180V83.5218H189.031V50.4751L202.999 83.5218H210.869L224.837 50.2066V73.2773Z" fill="black"/>
<path d="M700.593 65.099C700 63.5748 699.12 62.1735 697.997 60.9682C696.783 59.6834 695.357 58.6081 693.777 57.7875C691.952 56.8462 689.987 56.1911 687.954 55.846L681.181 54.5654C679.661 54.3264 678.266 53.5999 677.214 52.5C676.352 51.6128 675.862 50.4404 675.843 49.216C675.843 48.4207 676.031 47.6363 676.391 46.9234C676.766 46.1932 677.29 45.5463 677.931 45.0232C678.635 44.4359 679.443 43.9807 680.316 43.6807C681.338 43.3643 682.409 43.2245 683.481 43.2676C684.827 43.2342 686.168 43.4587 687.426 43.9285C688.4 44.3287 689.293 44.8952 690.064 45.6015C690.706 46.2317 691.221 46.9744 691.583 47.7909C691.898 48.4539 692.145 49.1457 692.322 49.8563L700.762 47.3158C700.434 45.8791 699.916 44.4904 699.221 43.185C698.433 41.6598 697.368 40.288 696.077 39.1368C694.548 37.8587 692.797 36.8584 690.908 36.1832C688.506 35.3447 685.967 34.9457 683.417 35.0059C681.198 34.9915 678.995 35.3766 676.919 36.1419C674.93 36.8639 673.092 37.9348 671.496 39.302C669.967 40.6149 668.726 42.2167 667.846 44.0111C666.95 45.842 666.489 47.8471 666.495 49.8769C666.438 51.5177 666.715 53.1532 667.309 54.6885C667.903 56.2237 668.803 57.6282 669.956 58.8202C672.482 61.28 675.726 62.9111 679.24 63.488L686.013 64.8305C687.659 65.057 689.193 65.7788 690.401 66.896C690.884 67.3624 691.265 67.9192 691.522 68.5332C691.78 69.1471 691.908 69.8055 691.9 70.4691C691.896 71.2702 691.704 72.0597 691.338 72.7762C690.972 73.4927 690.442 74.1168 689.79 74.6C688.097 75.798 686.028 76.3756 683.945 76.2316C683.417 76.2316 682.932 76.2316 682.447 76.2316V84.4933H683.882C686.438 84.5427 688.98 84.1151 691.372 83.2334C693.429 82.4925 695.32 81.3705 696.942 79.9287C698.4 78.6183 699.558 77.0204 700.34 75.2402C701.105 73.5417 701.5 71.7058 701.5 69.8495C701.499 68.2248 701.192 66.6142 700.593 65.099V65.099Z" fill="black"/>
<path d="M35 1.6672H105L113.333 6.73756L91.6667 27.019H3.33333L26.6667 5.04744L35 1.6672Z" fill="#00FF86"/>
<path d="M85 117.609H15L6.66667 112.539L28.3333 92.2577H116.667L93.3333 114.229L85 117.609Z" fill="#00FF86"/>
<path d="M1.66667 29.4711H30V89.5535L6.66667 113.215L1.66667 104.765V29.4711Z" fill="#00FF86"/>
<path d="M118.333 90.4817H90V30.3993L113.333 6.73756L118.333 15.1882V90.4817Z" fill="#00FF86"/>
<path fill-rule="evenodd" clip-rule="evenodd" d="M120 85.2732V18.3403C120 8.21121 111.792 0 101.667 0H36.1114C31.5084 0 27.0739 1.73216 23.6887 4.85236L5.91058 21.2389C2.14325 24.7114 0 29.6022 0 34.7268V101.66C0 111.789 8.20811 120 18.3333 120H83.8885C88.4916 120 92.9261 118.268 96.3113 115.148L114.089 98.7611C117.857 95.2886 120 90.3978 120 85.2732ZM83.8885 116.665C87.6546 116.665 91.2829 115.248 94.0526 112.695L111.831 96.3087C112.918 95.3064 113.84 94.1596 114.578 92.9109H35.3034C31.2898 92.9109 27.4436 94.52 24.6249 97.3784L8.89855 113.326C11.4756 115.414 14.7584 116.665 18.3333 116.665H83.8885ZM6.55583 110.953L22.2519 95.0365C23.7397 93.5278 25.4618 92.3038 27.3334 91.4V30.3993H30.6667V90.1725C32.1677 89.7799 33.7249 89.5763 35.3034 89.5763H89.3333V29.7803C87.8323 30.1728 86.275 30.3764 84.6966 30.3764H3.97751C3.5544 31.7735 3.33333 33.2381 3.33333 34.7268V101.66C3.33333 105.169 4.53782 108.398 6.55583 110.953ZM116.037 89.5763C116.451 88.1935 116.667 86.7451 116.667 85.2732V18.3403C116.667 14.8186 115.454 11.5802 113.423 9.0203L97.7481 24.9162C96.2603 26.425 94.5382 27.649 92.6666 28.5527V89.5763H116.037ZM95.3751 22.5744L111.076 6.65302C108.502 4.57728 105.23 3.3346 101.667 3.3346H36.1114C32.3454 3.3346 28.7171 4.75181 25.9474 7.3047L8.16926 23.6913C7.09553 24.6809 6.18303 25.8115 5.44974 27.0418H84.6966C88.7102 27.0418 92.5564 25.4327 95.3751 22.5744Z" fill="black"/>
</svg>
