<?xml version="1.0" encoding="utf-8"?>
<!-- Generator: Adobe Illustrator 26.3.1, SVG Export Plug-In . SVG Version: 6.00 Build 0)  -->
<svg version="1.1" id="Layer_1" xmlns="http://www.w3.org/2000/svg" xmlns:xlink="http://www.w3.org/1999/xlink" x="0px" y="0px"
	 viewBox="0 0 723.3 209.6" style="enable-background:new 0 0 723.3 209.6;" xml:space="preserve">
<style type="text/css">
	.st0{fill:#151C55;}
	.st1{fill-rule:evenodd;clip-rule:evenodd;fill:#151C55;}
	.st2{fill-rule:evenodd;clip-rule:evenodd;fill:#FB2072;}
	.st3{fill-rule:evenodd;clip-rule:evenodd;fill:none;}
</style>
<g>
	<g>
		<g>
			<path class="st0" d="M211.1,79.8v52.4h-9.4V95.8l-12,26.1h-8.3l-11.9-26.2v36.4h-9.4V79.8h12.4l13.3,29.8l13.4-29.8H211.1z"/>
		</g>
		<g>
			<path class="st0" d="M252.2,122.1v7.9c-1.4,0.8-3.6,1.5-6.6,2.1c-3,0.6-6.1,0.9-9.3,0.9c-6.6,0-11.3-1.7-14.2-5
				c-2.9-3.3-4.3-8.9-4.3-16.5c0-7.4,1.5-12.8,4.5-16.2c3-3.4,7.8-5.1,14.3-5.1c6.3,0,10.8,1.3,13.4,3.9c2.6,2.6,3.9,7.1,3.9,13.5
				c0,1.2,0,2.2-0.1,3.2c-0.1,1-0.2,2.3-0.3,4.1h-25.9c0.1,3.5,0.8,5.9,2.3,7.3c1.5,1.4,4.1,2.1,7.9,2.1c2.5,0,5.1-0.2,7.8-0.6
				C248.3,123.1,250.5,122.6,252.2,122.1z M236.6,98.5c-3.4,0-5.8,0.7-7.1,2c-1.3,1.3-2,3.8-2,7.3h17.5V106
				c-0.1-2.8-0.7-4.8-1.9-5.9C241.9,99.1,239.8,98.5,236.6,98.5z"/>
		</g>
		<g>
			<path class="st0" d="M286.7,123.2v8.3c-0.9,0.4-2.3,0.7-4,1c-1.7,0.3-3.2,0.5-4.6,0.5c-5.3,0-9.1-1.2-11.4-3.5
				c-2.3-2.3-3.4-6.2-3.4-11.6V99h-5.5v-8.1h5.8l1.3-9.9h8.1v9.9h13.2V99H273v18.6c0,2.5,0.5,4.1,1.6,5c1.1,0.9,3,1.3,5.7,1.3
				c0.9,0,2.1-0.1,3.3-0.2C284.9,123.6,285.9,123.4,286.7,123.2z"/>
		</g>
		<g>
			<path class="st0" d="M304,133c-4.2,0-7.3-1-9.3-3.1c-2-2.1-3-5.4-3-9.8c0-4.6,1.2-7.8,3.6-9.7c2.4-1.9,6.4-2.8,12.2-2.8
				c1.6,0,3.3,0.1,4.9,0.3c1.7,0.2,3.1,0.4,4.3,0.7v-3.5c0-2.2-0.7-3.8-2-4.8c-1.3-1-3.5-1.5-6.4-1.5c-2.6,0-4.9,0.1-7,0.3
				c-2,0.2-4,0.4-5.8,0.8v-8.1c2.1-0.5,4.4-0.9,6.9-1.1c2.5-0.3,5.4-0.4,8.8-0.4c5.1,0,8.9,1.2,11.4,3.5s3.8,5.8,3.8,10.4v28.3h-8.9
				l-0.4-3.7H317c-1.8,1.3-3.8,2.4-6.1,3.2C308.5,132.6,306.2,133,304,133z M308.7,114.4c-3,0-5.1,0.3-6.2,1c-1.1,0.7-1.7,2-1.7,4
				c0,1.9,0.5,3.2,1.4,4.1c0.9,0.8,2.5,1.2,4.7,1.2c1.6,0,3.3-0.2,5.1-0.7c1.8-0.5,3.4-1.1,4.7-1.8v-7.1c-1.3-0.2-2.7-0.4-4-0.5
				C311.5,114.5,310.1,114.4,308.7,114.4z"/>
		</g>
		<g>
			<path class="st0" d="M372,117.4c0,5.4-1.4,9.2-4.1,11.4c-2.8,2.2-7.3,3.3-13.7,3.3h-17.6V79.8h17.6c5.7,0,9.7,0.9,12.1,2.8
				c2.4,1.9,3.6,5.1,3.6,9.7c0,3.6-0.7,6.3-2.2,8.3s-3.7,3.2-6.7,3.7c3.6,0.3,6.4,1.5,8.3,3.7C371,110.3,372,113.4,372,117.4z
				 M366.7,92.7c0-3.8-0.9-6.4-2.8-7.9c-1.9-1.4-5.1-2.2-9.7-2.2h-14.5v20.8h14.5c4.4,0,7.6-0.8,9.6-2.5
				C365.7,99.3,366.7,96.5,366.7,92.7z M368.9,117.3c0-4.2-1.1-7.1-3.3-8.7c-2.2-1.6-6-2.4-11.4-2.4h-14.5v23.1h14.5
				c5.3,0,9.1-0.9,11.4-2.7C367.7,124.9,368.9,121.8,368.9,117.3z"/>
		</g>
		<g>
			<path class="st0" d="M382.7,132.2h-3V90.9h2.6l0.3,3.8h0.3c2.4-1.3,4.8-2.4,7.3-3.1c2.5-0.7,4.8-1,7.1-1c0.6,0,1.1,0,1.8,0
				c0.6,0,1.1,0.1,1.4,0.1v2.9c-0.4-0.1-0.9-0.2-1.5-0.2c-0.6,0-1.5,0-2.5,0c-2.1,0-4.4,0.3-6.8,1c-2.4,0.7-4.7,1.7-6.8,2.9V132.2z"
				/>
		</g>
		<g>
			<path class="st0" d="M438.6,111.4c0,7.9-1.4,13.5-4.1,16.6c-2.7,3.2-7.4,4.8-14.1,4.8c-7.1,0-11.9-1.5-14.4-4.5
				c-2.5-3-3.8-8.6-3.8-16.9c0-7.9,1.4-13.4,4.1-16.6c2.7-3.2,7.4-4.8,14.2-4.8c7,0,11.8,1.5,14.3,4.5
				C437.4,97.5,438.6,103.1,438.6,111.4z M405.3,111.4c0,7.4,1,12.4,3,14.8c2,2.5,6.1,3.7,12.2,3.7c5.8,0,9.8-1.3,11.9-4
				c2.1-2.6,3.2-7.5,3.2-14.6c0-7.4-1-12.4-3.1-14.8c-2-2.5-6.1-3.7-12.1-3.7c-5.8,0-9.8,1.3-12,4
				C406.4,99.5,405.3,104.3,405.3,111.4z"/>
		</g>
		<g>
			<path class="st0" d="M457.8,132.8c-4.2,0-7.3-1-9.3-3c-2-2-3-5.2-3-9.4c0-4.2,1.2-7.2,3.6-9c2.4-1.8,6.5-2.7,12.2-2.7
				c2.1,0,4.2,0.1,6.2,0.3c2,0.2,4.2,0.4,6.6,0.8v-4.8c0-4.4-0.9-7.5-2.8-9.3c-1.9-1.8-4.9-2.7-9.1-2.7c-2.5,0-4.6,0.1-6.5,0.3
				c-1.9,0.2-3.9,0.6-5.9,1.2v-2.8c2.4-0.6,4.6-0.9,6.5-1.2c1.9-0.2,4.2-0.3,6.9-0.3c4.8,0,8.4,1.2,10.6,3.5c2.2,2.3,3.3,6,3.3,11.2
				v27.5h-2.6l-0.3-4.4h-0.1c-1.7,1.5-4.1,2.7-7.1,3.6C464.1,132.3,461,132.8,457.8,132.8z M461.5,111.2c-4.8,0-8.2,0.7-10.2,2
				c-2,1.3-2.9,3.6-2.9,6.9c0,3.5,0.8,5.9,2.4,7.5c1.6,1.5,4.2,2.3,7.9,2.3c2.9,0,5.8-0.4,8.7-1.3c2.9-0.9,5.2-2,6.8-3.3v-13
				c-2-0.3-4-0.6-6.1-0.8S463.7,111.2,461.5,111.2z"/>
		</g>
		<g>
			<path class="st0" d="M517.5,76.6h3v55.6H518l-0.3-4.1h-0.3c-1.9,1.6-4.1,2.7-6.5,3.5c-2.5,0.8-5.2,1.2-8.3,1.2
				c-5.8,0-9.9-1.7-12.5-5.1c-2.5-3.4-3.8-8.8-3.8-16.3c0-7.6,1.5-13.1,4.5-16.4c3-3.3,8-4.9,15.2-4.9c2.2,0,4.3,0.2,6.1,0.5
				c1.8,0.3,3.6,0.8,5.3,1.5V76.6z M506.4,92.8c-6.4,0-10.8,1.4-13.2,4.2c-2.4,2.8-3.6,7.6-3.6,14.4c0,6.7,1,11.5,3.1,14.3
				c2.1,2.8,5.8,4.2,11,4.2c2.7,0,5.3-0.4,7.6-1.1c2.4-0.7,4.4-1.8,6.2-3.3V94.8c-1.6-0.7-3.3-1.2-5.1-1.5
				C510.6,93,508.6,92.8,506.4,92.8z"/>
		</g>
		<g>
			<path class="st0" d="M560.3,127v2.7c-1.5,0.9-3.5,1.6-6.1,2.2c-2.6,0.6-5.3,0.9-8.2,0.9c-5.8,0-9.8-1.6-12.2-4.8
				c-2.3-3.2-3.5-8.7-3.5-16.6c0-7.6,1.5-13.1,4.5-16.4c3-3.3,8.1-4.9,15.1-4.9c1.4,0,2.7,0,3.8,0.1c1.1,0.1,2.9,0.3,5.4,0.7v2.8
				c-1.9-0.3-3.5-0.5-4.8-0.6c-1.3-0.1-2.8-0.1-4.4-0.1c-6.1,0-10.4,1.4-12.9,4.2c-2.5,2.8-3.7,7.6-3.7,14.4c0,7,1,11.9,2.9,14.5
				c1.9,2.7,5.4,4,10.4,4c2.5,0,4.9-0.3,7.5-0.8C556.6,128.6,558.7,127.9,560.3,127z"/>
		</g>
		<g>
			<path class="st0" d="M577.5,132.8c-4.2,0-7.3-1-9.3-3c-2-2-3-5.2-3-9.4c0-4.2,1.2-7.2,3.6-9c2.4-1.8,6.5-2.7,12.2-2.7
				c2.1,0,4.2,0.1,6.2,0.3c2,0.2,4.2,0.4,6.6,0.8v-4.8c0-4.4-0.9-7.5-2.8-9.3c-1.9-1.8-4.9-2.7-9.1-2.7c-2.5,0-4.6,0.1-6.5,0.3
				c-1.9,0.2-3.9,0.6-5.9,1.2v-2.8c2.4-0.6,4.6-0.9,6.5-1.2c1.9-0.2,4.2-0.3,6.9-0.3c4.8,0,8.4,1.2,10.6,3.5c2.2,2.3,3.3,6,3.3,11.2
				v27.5h-2.6l-0.3-4.4h-0.1c-1.7,1.5-4.1,2.7-7.1,3.6C583.7,132.3,580.6,132.8,577.5,132.8z M581.1,111.2c-4.8,0-8.2,0.7-10.2,2
				c-2,1.3-2.9,3.6-2.9,6.9c0,3.5,0.8,5.9,2.4,7.5c1.6,1.5,4.2,2.3,7.9,2.3c2.9,0,5.8-0.4,8.7-1.3c2.9-0.9,5.2-2,6.8-3.3v-13
				c-2-0.3-4-0.6-6.1-0.8S583.4,111.2,581.1,111.2z"/>
		</g>
		<g>
			<path class="st0" d="M619.4,92.8c-4.3,0-7.3,0.7-9.2,2c-1.8,1.3-2.7,3.7-2.7,7.3c0,1.9,0.4,3.3,1.3,4.3c0.9,1,2.3,1.6,4.2,2
				l11,1.8c3.5,0.6,5.9,1.6,7.3,3c1.3,1.5,2,3.9,2,7.1c0,4.3-1.1,7.5-3.3,9.5c-2.2,2-5.7,3-10.6,3c-3.2,0-6.2-0.2-8.9-0.6
				c-2.8-0.4-5-0.9-6.7-1.5v-2.9c1.7,0.7,3.9,1.2,6.6,1.6c2.7,0.4,5.6,0.6,8.7,0.6c4.1,0,7-0.7,8.7-2.2c1.7-1.5,2.5-3.9,2.5-7.3
				c0-2.4-0.5-4.1-1.5-5.2c-1-1.1-3-1.8-5.8-2.3l-11-1.8c-2.6-0.4-4.5-1.4-5.7-2.8c-1.2-1.4-1.8-3.5-1.8-6.1c0-4.3,1.2-7.5,3.5-9.3
				c2.3-1.9,6.1-2.8,11.2-2.8c1.6,0,3,0,4.3,0.1s3.6,0.3,6.9,0.8v2.8c-2-0.3-3.9-0.5-5.7-0.6C623.1,92.9,621.3,92.8,619.4,92.8z"/>
		</g>
		<g>
			<path class="st0" d="M664.2,129v2.6c-1,0.4-2.2,0.7-3.5,0.9c-1.3,0.2-2.7,0.3-4.1,0.3c-4.7,0-8-1.1-9.9-3.2
				c-1.9-2.1-2.9-6-2.9-11.6V93.6h-7.1v-2.7h7.1l0.6-10.4h2.4v10.4h16.8v2.7h-16.8v24.3c0,4.6,0.8,7.8,2.3,9.5
				c1.5,1.7,4.2,2.5,8.1,2.5c1.2,0,2.4-0.1,3.8-0.3C662.4,129.5,663.4,129.3,664.2,129z"/>
		</g>
	</g>
	<g>
		<g>
			<path class="st1" d="M137.4,101.5L94.5,76.8c-2.5-1.4-5.6,0.4-5.6,3.3l0,15.2c0,1.3,0.7,2.6,1.9,3.3l29.7,17.2
				c1.2,0.7,2.6,0.7,3.8,0l13.2-7.6C139.9,106.6,139.9,103,137.4,101.5z"/>
		</g>
		<g>
			<path class="st2" d="M59.1,62.8l0,15.2c0,1.3,0.7,2.6,1.9,3.3l13.2,7.6c2.5,1.4,5.6-0.4,5.6-3.3l0-15.2c0-1.3-0.7-2.6-1.9-3.3
				l-13.2-7.6C62.2,58.1,59.1,59.9,59.1,62.8z"/>
		</g>
		<g>
			<path class="st1" d="M61,116.1l29.4,17c1.2,0.7,2.6,0.7,3.8,0l13.2-7.6c2.5-1.4,2.5-5.1,0-6.5L64.7,94.4
				c-2.5-1.4-5.6,0.4-5.6,3.3l0,15.2C59.1,114.2,59.8,115.4,61,116.1z"/>
		</g>
		<g>
			<path class="st1" d="M77.1,136.3l-12.4-7.2c-2.5-1.4-5.6,0.4-5.6,3.3l0,14.3c0,2.9,3.1,4.7,5.6,3.3l12.4-7.2
				C79.6,141.4,79.6,137.8,77.1,136.3z"/>
		</g>
	</g>
</g>
<g>
	<g>
		<path class="st3" d="M357.9,21.9L349,37.2c-0.8,1.4-0.8,3,0,4.4l8.8,15.3c1.7,2.9,5.9,2.9,7.6,0l8.8-15.3c0.8-1.4,0.8-3,0-4.4
			l-8.8-15.3C363.8,19,359.6,19,357.9,21.9z"/>
	</g>
	<g>
		<g>
			<path class="st3" d="M348.4,0c0,0.8,0.2,1.5,0.6,2.2l8.8,15.3c1.7,2.9,5.9,2.9,7.6,0l8.8-15.3c0.4-0.7,0.6-1.4,0.6-2.2H348.4z"/>
		</g>
	</g>
</g>
<g>
	<g>
		<path class="st3" d="M701.4,101l-15.3-8.8c-1.4-0.8-3-0.8-4.4,0l-15.3,8.8c-2.9,1.7-2.9,5.9,0,7.6l15.3,8.8c1.4,0.8,3,0.8,4.4,0
			l15.3-8.8C704.3,106.9,704.3,102.7,701.4,101z"/>
	</g>
	<g>
		<g>
			<path class="st3" d="M723.3,91.6c-0.8,0-1.5,0.2-2.2,0.6l-15.3,8.8c-2.9,1.7-2.9,5.9,0,7.6l15.3,8.8c0.7,0.4,1.4,0.6,2.2,0.6
				V91.6z"/>
		</g>
	</g>
</g>
<g>
	<g>
		<path class="st3" d="M21.9,101l15.3-8.8c1.4-0.8,3-0.8,4.4,0l15.3,8.8c2.9,1.7,2.9,5.9,0,7.6l-15.3,8.8c-1.4,0.8-3,0.8-4.4,0
			l-15.3-8.8C19,106.9,19,102.7,21.9,101z"/>
	</g>
	<g>
		<g>
			<path class="st3" d="M0,91.6c0.8,0,1.5,0.2,2.2,0.6l15.3,8.8c2.9,1.7,2.9,5.9,0,7.6l-15.3,8.8C1.5,117.8,0.8,118,0,118V91.6z"/>
		</g>
	</g>
</g>
<g>
	<g>
		<path class="st3" d="M357.9,187.7l-8.8-15.3c-0.8-1.4-0.8-3,0-4.4l8.8-15.3c1.7-2.9,5.9-2.9,7.6,0l8.8,15.3c0.8,1.4,0.8,3,0,4.4
			l-8.8,15.3C363.8,190.6,359.6,190.6,357.9,187.7z"/>
	</g>
	<g>
		<g>
			<path class="st3" d="M348.4,209.6c0-0.8,0.2-1.5,0.6-2.2l8.8-15.3c1.7-2.9,5.9-2.9,7.6,0l8.8,15.3c0.4,0.7,0.6,1.4,0.6,2.2H348.4
				z"/>
		</g>
	</g>
</g>
</svg>
