<?xml version="1.0" encoding="UTF-8" standalone="no"?>
<!-- Created with Inkscape (http://www.inkscape.org/) -->

<svg
   version="1.1"
   id="svg2"
   width="1078.6801"
   height="270.61334"
   viewBox="0 0 1078.6801 270.61334"
   sodipodi:docname="NCCG Logo - LRG [DARK BLUE] [NO STRAPLINE].eps"
   xmlns:inkscape="http://www.inkscape.org/namespaces/inkscape"
   xmlns:sodipodi="http://sodipodi.sourceforge.net/DTD/sodipodi-0.dtd"
   xmlns="http://www.w3.org/2000/svg"
   xmlns:svg="http://www.w3.org/2000/svg">
  <defs
     id="defs6" />
  <sodipodi:namedview
     id="namedview4"
     pagecolor="#ffffff"
     bordercolor="#000000"
     borderopacity="0.25"
     inkscape:showpageshadow="2"
     inkscape:pageopacity="0.0"
     inkscape:pagecheckerboard="0"
     inkscape:deskcolor="#d1d1d1" />
  <g
     id="g8"
     inkscape:groupmode="layer"
     inkscape:label="ink_ext_XXXXXX"
     transform="matrix(1.3333333,0,0,-1.3333333,0,270.61333)">
    <g
       id="g10"
       transform="scale(0.1)">
      <path
         d="m 8085,1645.86 c -0.3,4.33 -0.72,8.75 -1.09,13.04 -10.12,4.94 -21.93,10.03 -36.17,15.45 -111.88,42.26 -181.86,-14.5 -190.33,-22.98 -6.78,-6.73 -13.17,-13.07 -19.46,-18.94 69.1,-2 125.95,-27.73 157.55,-29.28 30.58,-1.47 61.29,11.06 89.5,42.71"
         style="fill:#10192b;fill-opacity:1;fill-rule:nonzero;stroke:none"
         id="path12" />
      <path
         d="m 8085,1645.86 c -0.3,4.33 -0.72,8.75 -1.09,13.04 -10.12,4.94 -21.93,10.03 -36.17,15.45 -111.88,42.26 -181.86,-14.5 -190.33,-22.98 -6.78,-6.73 -13.17,-13.07 -19.46,-18.94 69.1,-2 125.95,-27.73 157.55,-29.28 30.58,-1.47 61.29,11.06 89.5,42.71 z"
         style="fill:none;stroke:#101a2b;stroke-width:10;stroke-linecap:butt;stroke-linejoin:miter;stroke-miterlimit:10;stroke-dasharray:none;stroke-opacity:1"
         id="path14" />
      <path
         d="m 7718.13,1671.49 c -23.46,-33.26 -55.15,-61.06 -90.63,-77.78 6.65,-0.17 10.49,-0.46 10.49,-0.46 67.43,-5.05 134.05,36.29 174.99,94.66 21.41,30.45 46.86,51.11 73.64,64.75 -55.78,4.72 -127.55,-23.21 -168.49,-81.17"
         style="fill:#10192b;fill-opacity:1;fill-rule:nonzero;stroke:none"
         id="path16" />
      <path
         d="m 7718.13,1671.49 c -23.46,-33.26 -55.15,-61.06 -90.63,-77.78 6.65,-0.17 10.49,-0.46 10.49,-0.46 67.43,-5.05 134.05,36.29 174.99,94.66 21.41,30.45 46.86,51.11 73.64,64.75 -55.78,4.72 -127.55,-23.21 -168.49,-81.17 z"
         style="fill:none;stroke:#101a2b;stroke-width:10;stroke-linecap:butt;stroke-linejoin:miter;stroke-miterlimit:10;stroke-dasharray:none;stroke-opacity:1"
         id="path18" />
      <path
         d="m 8020.71,1518.64 c -86.94,-4.14 -165.72,81.87 -263.47,52.16 -51.34,-15.58 -87.56,-69.82 -157.94,-91.16 -104.19,-31.69 -163.85,39.15 -264.92,8.37 -11.38,-3.47 -22.46,-8.57 -32.98,-15.34 42.94,-110.82 133.55,-202.24 254.98,-241.04 212.81,-67.93 442.56,50.59 510.54,263.39 3.62,11.35 6.62,22.78 9.16,34.2 -16.37,-5.52 -34.83,-9.63 -55.37,-10.58"
         style="fill:#10192b;fill-opacity:1;fill-rule:nonzero;stroke:none"
         id="path20" />
      <path
         d="m 8020.71,1518.64 c -86.94,-4.14 -165.72,81.87 -263.47,52.16 -51.34,-15.58 -87.56,-69.82 -157.94,-91.16 -104.19,-31.69 -163.85,39.15 -264.92,8.37 -11.38,-3.47 -22.46,-8.57 -32.98,-15.34 42.94,-110.82 133.55,-202.24 254.98,-241.04 212.81,-67.93 442.56,50.59 510.54,263.39 3.62,11.35 6.62,22.78 9.16,34.2 -16.37,-5.52 -34.83,-9.63 -55.37,-10.58 z"
         style="fill:none;stroke:#101a2b;stroke-width:10;stroke-linecap:butt;stroke-linejoin:miter;stroke-miterlimit:10;stroke-dasharray:none;stroke-opacity:1"
         id="path22" />
      <path
         d="m 7455.63,1505.36 c 47.41,-10.96 82.21,-13.97 115.43,-3.86 34.01,10.41 63.83,34.23 91.99,58.21 -13.33,1.66 -27.62,4.38 -43.26,7.99 -89.86,20.72 -152.57,-24.88 -165.45,-39.19 16.29,23.85 40.65,39.11 66.26,48.83 -39.97,-0.59 -122.6,-9 -161.05,-65.26 -1.59,-1.78 -2.47,-2.99 -2.49,-3.69 -1.62,5.57 41.97,79.33 148.9,85.59 107.02,6.13 144.88,30.7 202.45,142.1 5.28,10.16 51.9,95.21 189.3,83.19 33.54,-2.96 56.12,-11.07 104.96,12.75 6.03,2.95 11.36,6.11 16.21,9.47 -49.31,75.1 -123.55,134.59 -215.37,163.93 -212.81,67.92 -442.55,-50.6 -510.48,-263.35 -28.93,-90.46 -24.02,-183.95 7.43,-266.78 23.93,18.34 79.91,47.4 155.17,30.07"
         style="fill:#10192b;fill-opacity:1;fill-rule:nonzero;stroke:none"
         id="path24" />
      <path
         d="m 7455.63,1505.36 c 47.41,-10.96 82.21,-13.97 115.43,-3.86 34.01,10.41 63.83,34.23 91.99,58.21 -13.33,1.66 -27.62,4.38 -43.26,7.99 -89.86,20.72 -152.57,-24.88 -165.45,-39.19 16.29,23.85 40.65,39.11 66.26,48.83 -39.97,-0.59 -122.6,-9 -161.05,-65.26 -1.59,-1.78 -2.47,-2.99 -2.49,-3.69 -1.62,5.57 41.97,79.33 148.9,85.59 107.02,6.13 144.88,30.7 202.45,142.1 5.28,10.16 51.9,95.21 189.3,83.19 33.54,-2.96 56.12,-11.07 104.96,12.75 6.03,2.95 11.36,6.11 16.21,9.47 -49.31,75.1 -123.55,134.59 -215.37,163.93 -212.81,67.92 -442.55,-50.6 -510.48,-263.35 -28.93,-90.46 -24.02,-183.95 7.43,-266.78 23.93,18.34 79.91,47.4 155.17,30.07 z"
         style="fill:none;stroke:#101a2b;stroke-width:10;stroke-linecap:butt;stroke-linejoin:miter;stroke-miterlimit:10;stroke-dasharray:none;stroke-opacity:1"
         id="path26" />
      <path
         d="m 1492.05,1144.52 c 97.39,0 184.4,-44.74 238.74,-122.78 l 4.19,-6.01 125.74,125.7 -3.59,4.32 c -9.97,11.9 -19.18,22.15 -28.21,31.34 -93.41,95.14 -209.07,143.36 -343.71,143.36 -126.01,0 -246.9,-55.17 -340.36,-155.37 -85.75,-91.01 -131.07,-208.029 -131.07,-338.408 0,-125.344 51.56,-253.781 137.92,-343.524 91.32,-96.269 206.42,-145.078 342.05,-145.078 133.08,0 253.12,54.352 347.2,157.149 4.99,5.48 9.85,11.172 14.62,16.98 l 3.54,4.301 -125.66,125.66 -4.2,-5.98 c -54.56,-77.629 -140.38,-122.16 -235.5,-122.16 -169.52,0 -297.33,135.191 -297.33,314.48 0,180.16 127.1,316.02 295.63,316.02"
         style="fill:#10192b;fill-opacity:1;fill-rule:nonzero;stroke:none"
         id="path28" />
      <path
         d="m 1492.05,1144.52 c 97.39,0 184.4,-44.74 238.74,-122.78 l 4.19,-6.01 125.74,125.7 -3.59,4.32 c -9.97,11.9 -19.18,22.15 -28.21,31.34 -93.41,95.14 -209.07,143.36 -343.71,143.36 -126.01,0 -246.9,-55.17 -340.36,-155.37 -85.75,-91.01 -131.07,-208.029 -131.07,-338.408 0,-125.344 51.56,-253.781 137.92,-343.524 91.32,-96.269 206.42,-145.078 342.05,-145.078 133.08,0 253.12,54.352 347.2,157.149 4.99,5.48 9.85,11.172 14.62,16.98 l 3.54,4.301 -125.66,125.66 -4.2,-5.98 c -54.56,-77.629 -140.38,-122.16 -235.5,-122.16 -169.52,0 -297.33,135.191 -297.33,314.48 0,180.16 127.1,316.02 295.63,316.02 z"
         style="fill:none;stroke:#101a2b;stroke-width:10;stroke-linecap:butt;stroke-linejoin:miter;stroke-miterlimit:10;stroke-dasharray:none;stroke-opacity:1"
         id="path30" />
      <path
         d="M 2663.2,666.789 C 2611.6,571.141 2516.52,514.02 2408.89,514.02 c -169.52,0 -297.34,135.191 -297.34,314.48 0,180.16 127.1,316.02 295.64,316.02 110.17,0 206.41,-57.39 257.44,-153.52 l 3.87,-7.328 129.06,129.048 -3.04,4.24 c -15.46,21.51 -32.44,41.74 -50.49,60.13 -93.41,95.14 -209.06,143.36 -343.72,143.36 -126.04,0 -246.9,-55.17 -340.34,-155.37 -85.75,-91.03 -131.08,-208.049 -131.08,-338.408 0,-125.344 51.57,-253.781 137.93,-343.524 91.33,-96.269 206.43,-145.078 342.07,-145.078 133.11,0 253.16,54.352 347.19,157.168 12.46,13.75 24.4,28.852 36.53,46.153 l 2.93,4.211 -128.44,128.449 -3.9,-7.262"
         style="fill:#10192b;fill-opacity:1;fill-rule:nonzero;stroke:none"
         id="path32" />
      <path
         d="M 2663.2,666.789 C 2611.6,571.141 2516.52,514.02 2408.89,514.02 c -169.52,0 -297.34,135.191 -297.34,314.48 0,180.16 127.1,316.02 295.64,316.02 110.17,0 206.41,-57.39 257.44,-153.52 l 3.87,-7.328 129.06,129.048 -3.04,4.24 c -15.46,21.51 -32.44,41.74 -50.49,60.13 -93.41,95.14 -209.06,143.36 -343.72,143.36 -126.04,0 -246.9,-55.17 -340.34,-155.37 -85.75,-91.03 -131.08,-208.049 -131.08,-338.408 0,-125.344 51.57,-253.781 137.93,-343.524 91.33,-96.269 206.43,-145.078 342.07,-145.078 133.11,0 253.16,54.352 347.19,157.168 12.46,13.75 24.4,28.852 36.53,46.153 l 2.93,4.211 -128.44,128.449 z"
         style="fill:none;stroke:#101a2b;stroke-width:10;stroke-linecap:butt;stroke-linejoin:miter;stroke-miterlimit:10;stroke-dasharray:none;stroke-opacity:1"
         id="path34" />
      <path
         d="M 444.773,1324.21 C 210.496,1324.21 5,1133.56 5,914.359 v -551.8 h 190.027 l 0.118,554.339 c 0,122.682 134.203,217.842 249.628,217.842 115.422,0 249.59,-95.16 249.59,-217.842 h 6.02 l -6.137,-2.257 0.234,-552.082 h 190.063 v 553.652 c 0,217.349 -205.5,407.999 -439.77,407.999"
         style="fill:#10192b;fill-opacity:1;fill-rule:nonzero;stroke:none"
         id="path36" />
      <path
         d="M 444.773,1324.21 C 210.496,1324.21 5,1133.56 5,914.359 v -551.8 h 190.027 l 0.118,554.339 c 0,122.682 134.203,217.842 249.628,217.842 115.422,0 249.59,-95.16 249.59,-217.842 h 6.02 l -6.137,-2.257 0.234,-552.082 h 190.063 v 553.652 c 0,217.349 -205.5,407.999 -439.77,407.999 z"
         style="fill:none;stroke:#101a2b;stroke-width:10;stroke-linecap:butt;stroke-linejoin:miter;stroke-miterlimit:10;stroke-dasharray:none;stroke-opacity:1"
         id="path38" />
      <path
         d="m 4886.75,492.18 c -190.41,0 -334,151.191 -334,351.699 0,201.401 142.85,353.271 332.26,353.271 189.41,0 332.26,-151.18 332.26,-351.638 0,-201.434 -142.09,-353.332 -330.52,-353.332 z m 465.6,362.129 c 0,122.3 -49.18,239.851 -138.46,330.961 -91.3,92.96 -204.36,140.07 -336.01,140.07 -122.68,0 -240.59,-53.97 -332.02,-152.01 -85.09,-90.34 -128.19,-201.771 -128.19,-331.35 0,-122.75 50.46,-248.492 135.01,-336.351 89.18,-94.02 201.53,-141.641 334.07,-141.641 129.79,0 246.99,53.114 338.9,153.621 80.49,89.09 126.7,211.84 126.7,336.7"
         style="fill:#10192b;fill-opacity:1;fill-rule:nonzero;stroke:none"
         id="path40" />
      <path
         d="m 4886.75,492.18 c -190.41,0 -334,151.191 -334,351.699 0,201.401 142.85,353.271 332.26,353.271 189.41,0 332.26,-151.18 332.26,-351.638 0,-201.434 -142.09,-353.332 -330.52,-353.332 z m 465.6,362.129 c 0,122.3 -49.18,239.851 -138.46,330.961 -91.3,92.96 -204.36,140.07 -336.01,140.07 -122.68,0 -240.59,-53.97 -332.02,-152.01 -85.09,-90.34 -128.19,-201.771 -128.19,-331.35 0,-122.75 50.46,-248.492 135.01,-336.351 89.18,-94.02 201.53,-141.641 334.07,-141.641 129.79,0 246.99,53.114 338.9,153.621 80.49,89.09 126.7,211.84 126.7,336.7 z"
         style="fill:none;stroke:#101a2b;stroke-width:10;stroke-linecap:butt;stroke-linejoin:miter;stroke-miterlimit:10;stroke-dasharray:none;stroke-opacity:1"
         id="path42" />
      <path
         d="m 3377.08,476.719 c -190.41,0 -333.99,151.191 -333.99,351.691 0,201.41 142.84,353.27 332.27,353.27 189.42,0 332.26,-151.17 332.26,-351.629 0,-201.43 -142.1,-353.332 -330.54,-353.332 z m 5.29,-471.73072 c 288.26,0 460.33,189.28172 460.33,506.29272 v 328.321 c -0.21,122.039 -49.37,239.338 -138.45,330.198 -91.31,92.96 -204.36,140.09 -336.04,140.09 -122.64,0 -240.57,-53.99 -332.03,-152.03 -85.05,-90.29 -128.14,-201.739 -128.14,-331.34 0,-122.77 50.47,-248.508 135.01,-336.348 89.19,-94.024 201.54,-141.652 334.03,-141.652 112.84,0 213.65,38.699 299.68,115.039 l 35.15,31.179 -1.11,-46.968 c -4.64,-194.469 -140.91,-325.098 -339.11,-325.098 -113.96,0 -204.1,46.828 -261.44,135.59 H 2969.89 C 3037.85,96.8789 3186.59,4.98828 3382.37,4.98828"
         style="fill:#10192b;fill-opacity:1;fill-rule:nonzero;stroke:none"
         id="path44" />
      <path
         d="m 3377.08,476.719 c -190.41,0 -333.99,151.191 -333.99,351.691 0,201.41 142.84,353.27 332.27,353.27 189.42,0 332.26,-151.17 332.26,-351.629 0,-201.43 -142.1,-353.332 -330.54,-353.332 z m 5.29,-471.73072 c 288.26,0 460.33,189.28172 460.33,506.29272 v 328.321 c -0.21,122.039 -49.37,239.338 -138.45,330.198 -91.31,92.96 -204.36,140.09 -336.04,140.09 -122.64,0 -240.57,-53.99 -332.03,-152.03 -85.05,-90.29 -128.14,-201.739 -128.14,-331.34 0,-122.77 50.47,-248.508 135.01,-336.348 89.19,-94.024 201.54,-141.652 334.03,-141.652 112.84,0 213.65,38.699 299.68,115.039 l 35.15,31.179 -1.11,-46.968 c -4.64,-194.469 -140.91,-325.098 -339.11,-325.098 -113.96,0 -204.1,46.828 -261.44,135.59 H 2969.89 C 3037.85,96.8789 3186.59,4.98828 3382.37,4.98828 Z"
         style="fill:none;stroke:#101a2b;stroke-width:10;stroke-linecap:butt;stroke-linejoin:miter;stroke-miterlimit:10;stroke-dasharray:none;stroke-opacity:1"
         id="path46" />
      <path
         d="m 4403.48,1174.17 v 137.85 c -108.92,-10.54 -212.93,-63.86 -294.56,-151.37 -83.83,-88.96 -127.22,-198.611 -129.06,-325.92 l -0.24,-9.992 V 374.551 h 143.39 V 833.43 c 2.2,176.41 119.25,317.23 280.47,340.74"
         style="fill:#10192b;fill-opacity:1;fill-rule:nonzero;stroke:none"
         id="path48" />
      <path
         d="m 4403.48,1174.17 v 137.85 c -108.92,-10.54 -212.93,-63.86 -294.56,-151.37 -83.83,-88.96 -127.22,-198.611 -129.06,-325.92 l -0.24,-9.992 V 374.551 h 143.39 V 833.43 c 2.2,176.41 119.25,317.23 280.47,340.74 z"
         style="fill:none;stroke:#101a2b;stroke-width:10;stroke-linecap:butt;stroke-linejoin:miter;stroke-miterlimit:10;stroke-dasharray:none;stroke-opacity:1"
         id="path50" />
      <path
         d="m 6315.5,1282.86 h -142.77 l -0.89,-563.77 C 6160.11,584 6016.71,485.07 5887.93,485.07 c -128.76,0 -272.14,98.93 -283.87,234.02 h -0.66 l -0.27,20.461 V 1282.86 H 5460.4 V 739.551 c 0,-212.16 199.78,-396.61 427.53,-396.61 227.77,0 427.57,184.45 427.57,394.688 v 545.231"
         style="fill:#10192b;fill-opacity:1;fill-rule:nonzero;stroke:none"
         id="path52" />
      <path
         d="m 6315.5,1282.86 h -142.77 l -0.89,-563.77 C 6160.11,584 6016.71,485.07 5887.93,485.07 c -128.76,0 -272.14,98.93 -283.87,234.02 h -0.66 l -0.27,20.461 V 1282.86 H 5460.4 V 739.551 c 0,-212.16 199.78,-396.61 427.53,-396.61 227.77,0 427.57,184.45 427.57,394.688 z"
         style="fill:none;stroke:#101a2b;stroke-width:10;stroke-linecap:butt;stroke-linejoin:miter;stroke-miterlimit:10;stroke-dasharray:none;stroke-opacity:1"
         id="path54" />
      <path
         d="m 6901.6,476.719 c -190.42,0 -333.99,151.191 -333.99,351.691 0,201.41 142.82,353.27 332.23,353.27 189.43,0 332.28,-151.17 332.28,-351.629 0,-201.43 -142.09,-353.332 -330.52,-353.332 z m 465.61,362.121 c 0,122.34 -49.19,239.88 -138.47,330.96 -91.28,92.96 -204.34,140.09 -336.02,140.09 -122.66,0 -240.59,-53.99 -332.05,-152.03 -85.04,-90.31 -128.14,-201.758 -128.14,-331.34 V 25.4492 h 135.19 V 486.988 l 33.88,-29.508 c 83.08,-72.3 184.01,-108.96 300,-108.96 129.82,0 247,53.121 338.91,153.628 80.49,89.043 126.7,211.793 126.7,336.692"
         style="fill:#10192b;fill-opacity:1;fill-rule:nonzero;stroke:none"
         id="path56" />
      <path
         d="m 6901.6,476.719 c -190.42,0 -333.99,151.191 -333.99,351.691 0,201.41 142.82,353.27 332.23,353.27 189.43,0 332.28,-151.17 332.28,-351.629 0,-201.43 -142.09,-353.332 -330.52,-353.332 z m 465.61,362.121 c 0,122.34 -49.19,239.88 -138.47,330.96 -91.28,92.96 -204.34,140.09 -336.02,140.09 -122.66,0 -240.59,-53.99 -332.05,-152.03 -85.04,-90.31 -128.14,-201.758 -128.14,-331.34 V 25.4492 h 135.19 V 486.988 l 33.88,-29.508 c 83.08,-72.3 184.01,-108.96 300,-108.96 129.82,0 247,53.121 338.91,153.628 80.49,89.043 126.7,211.793 126.7,336.692 z"
         style="fill:none;stroke:#101a2b;stroke-width:10;stroke-linecap:butt;stroke-linejoin:miter;stroke-miterlimit:10;stroke-dasharray:none;stroke-opacity:1"
         id="path58" />
    </g>
  </g>
</svg>
