<?xml version="1.0" encoding="utf-8"?>
<!-- Generator: Adobe Illustrator 26.3.1, SVG Export Plug-In . SVG Version: 6.00 Build 0)  -->
<svg version="1.1" id="_イヤー_1" xmlns="http://www.w3.org/2000/svg" xmlns:xlink="http://www.w3.org/1999/xlink" x="0px"
	 y="0px" viewBox="0 0 397.9 139.9" style="enable-background:new 0 0 397.9 139.9;" xml:space="preserve">
<style type="text/css">
	.st0{fill:#0041C0;}
</style>
<path class="st0" d="M347.4,88.4c-2.5,2.6-5.2,4.1-8.7,4.8c-2.4,0.5-4.4,0.6-6.8,0.3c-3.2-0.3-5.8-1.3-8.3-3.2
	c-2.1-1.6-3.6-3.2-4.9-5.5c-1-1.7-1.6-3.4-1.9-5.4c-0.5-2.8-0.3-5.2,0.4-7.9c1.6-6.1,6.3-10.5,12.5-11.8c3.5-0.7,6.7-0.7,10.2,0.2
	c2.5,0.7,4.5,1.7,6.4,3.5c1.2,1.1,2,2.2,2.8,3.6c0.9,1.7,1.2,3.3,1.1,5.3h-11.1c-0.2-1.5-1-2.7-2.1-3.6c-1.5-1.2-3.5-1.3-5.2-0.2
	c-1.1,0.7-1.9,1.7-2.3,2.9c-1,3-1,5.8-0.1,8.9c0.4,1.3,1,2.3,1.9,3.2c1.1,1.1,2.5,1.5,4,1.3c0.9-0.1,1.7-0.6,2.3-1.3
	c0.7-0.7,1-1.5,1.2-2.5c0.1-0.7,0.2-1.3,0.2-2h11.7C351,82.7,349.8,85.8,347.4,88.4"/>
<rect x="302.8" y="47.3" class="st0" width="12.1" height="8.6"/>
<rect x="302.8" y="60.2" class="st0" width="12.1" height="32.4"/>
<path class="st0" d="M277.7,63.6c1.6-1.4,3.1-2.4,5-3.3c3.1-1.5,6.3-1.7,9.6-0.7c3.6,1,6.1,3.5,7.2,7.1c0.5,1.7,0.8,3.2,0.8,5v20.9
	h-12.9V73.8c0-0.6-0.1-1.2-0.3-1.8c-0.3-1.1-1-1.9-2.1-2.3c-2.3-1-4.9-0.1-6.1,2c-0.5,0.9-0.8,1.8-0.8,2.8v18h-12.5V60.2h11.7
	L277.7,63.6"/>
<path class="st0" d="M134.4,63.6c1.6-1.4,3.1-2.4,5-3.3c3.1-1.5,6.3-1.7,9.6-0.7c3.6,1,6.1,3.5,7.2,7.1c0.5,1.7,0.8,3.2,0.8,5v20.9
	h-12.9V73.8c0-0.6-0.1-1.2-0.3-1.8c-0.3-1.1-1.1-1.9-2.1-2.3c-2.3-1-4.9-0.1-6.1,2c-0.5,0.9-0.8,1.8-0.8,2.8v18h-12.5V60.2h11.7
	L134.4,63.6"/>
<path class="st0" d="M210.7,80.7c0.9,0.2,1.7,0.3,2.6,0.7c0.7,0.2,1.3,0.8,1.4,1.6c0.2,0.8-0.1,1.6-0.7,2.2c-0.6,0.6-1.3,1-2.2,1.1
	c-1.1,0.2-2.1,0.1-3.2-0.3c-0.5-0.2-0.9-0.4-1.4-0.8c-0.6-0.5-0.9-1-1.1-1.7c-0.2-0.6-0.2-1.1-0.2-1.7h-11.9v0.7
	c0,1.1,0.2,2.1,0.6,3.1c0.6,1.6,1.4,2.8,2.6,3.9c1.6,1.5,3.3,2.4,5.4,3c4.4,1.2,8.3,1.5,12.8,0.8c2.1-0.3,3.9-0.9,5.8-1.9
	c0.8-0.4,1.5-0.9,2.2-1.5c3.2-2.7,4.4-6.8,3.1-10.8c-0.5-1.5-1.2-2.7-2.4-3.7c-1.6-1.4-3.3-2.3-5.4-2.9c-0.5-0.1-0.8-0.2-1.3-0.4
	c-2.5-0.7-4.7-1.2-7.3-1.6c-0.7-0.1-1.3-0.2-2-0.4c-0.3-0.1-0.6-0.2-0.9-0.3c-0.7-0.3-1.1-1.2-0.7-1.9c0,0,0-0.1,0.1-0.1
	c0.4-0.7,1-1.2,1.7-1.4c1.4-0.4,2.6-0.4,3.9,0.1c1.3,0.4,2.1,1.6,2,2.9h11.4c0-1.4-0.2-2.6-0.7-3.9c-0.5-1.3-1.2-2.4-2.3-3.2
	c-1-0.8-1.9-1.3-3.1-1.8c-1.1-0.4-2.1-0.7-3.3-0.9c-2.8-0.5-5.3-0.6-8.1-0.5c-1.6,0.1-3,0.3-4.6,0.7c-2.2,0.5-3.9,1.3-5.6,2.7
	c-1.5,1.2-2.4,2.5-3.1,4.3c-0.3,0.8-0.4,1.5-0.4,2.4c-0.1,1.4,0.1,2.6,0.7,3.9c0.9,2.4,2.6,4,5,5c1.2,0.5,2.2,0.8,3.5,1.1
	C206.2,79.8,208.3,80.2,210.7,80.7"/>
<path class="st0" d="M69,78.6h-8.3V68H66c1,0,1.9,0,2.9-0.1c1.4-0.1,2.6-0.7,3.4-1.9c0.5-0.6,0.7-1.2,0.8-2c0.1-0.6,0.1-1.2,0-1.8
	c-0.2-2.4-2.2-4.1-4.6-4.1h-8.1v34.4H46.9V47.3h22.5c0.9,0,1.7,0,2.5,0.1c6,0.3,10.9,3.6,13.4,9c1.3,2.8,1.8,5.5,1.4,8.6
	c-0.7,6.5-5.3,11.6-11.7,13C73,78.4,71.1,78.6,69,78.6"/>
<path class="st0" d="M249.6,59.6c-1.3-0.2-2.4-0.3-3.7-0.3s-2.4,0.1-3.7,0.3c-3.7,0.6-6.7,2.1-9.4,4.7c-2.9,2.8-4.5,6.1-4.9,10.1
	c-0.2,2.5,0,4.6,0.6,7c1,3.7,2.9,6.5,5.9,8.8c2,1.5,4,2.4,6.4,3c1.7,0.4,3.2,0.5,5,0.5s3.3-0.2,5-0.5c2.4-0.5,4.4-1.5,6.4-3l-7-7.6
	c-1.1,2.5-4,3.6-6.4,2.5c-1.1-0.5-1.9-1.3-2.4-2.5c-0.5-1-0.8-2-0.9-3.1c-0.3-2.3-0.3-4.2,0.1-6.5c0.2-1.2,0.6-2.1,1.3-3.1
	c1.4-2.2,4.4-2.8,6.5-1.4c0.6,0.4,1,0.8,1.4,1.4c0.7,1,1,2,1.3,3.1c0.4,2.3,0.5,4.2,0.1,6.5c-0.2,1.1-0.4,2.1-0.9,3.1l7,7.6
	c3-2.3,4.9-5.1,5.9-8.8c0.7-2.4,0.9-4.5,0.6-7c-0.4-4-2-7.3-4.9-10.1C256.3,61.7,253.3,60.2,249.6,59.6"/>
<path class="st0" d="M192.8,90.1c-0.2-2.7-0.3-4.9-0.3-7.6c-0.1-3.5-0.1-6.5-0.1-10c0-1.9-0.2-3.5-0.7-5.3c-0.6-2.4-2-4.2-4.2-5.5
	c-1.3-0.7-2.5-1.2-4-1.5c-4.7-1-8.8-1.1-13.5-0.3c-1.3,0.2-2.4,0.6-3.7,1.1c-2.9,1.2-4.8,3.4-5.8,6.3c-0.3,1.1-0.4,2.2-0.3,3.3
	c0,0.2,0.1,0.4,0.2,0.6l10.9,0.3c0-0.7,0.1-1.3,0.3-1.9c0.4-1,1.1-1.7,2.1-2.1c1.5-0.5,2.9-0.6,4.4-0.1c1,0.3,1.7,1,2,2
	c0.2,0.6,0.1,1.2-0.3,1.7c-0.3,0.5-0.7,0.8-1.2,1c-0.3,0.1-0.6,0.2-0.9,0.3c-1.5,0.4-2.8,0.7-4.4,0.9c-1.2,0.2-2.3,0.4-3.5,0.6
	c-1.7,0.3-3,0.7-4.6,1.2c-1.5,0.5-2.6,1.1-3.8,2.2c-1.5,1.3-2.3,3-2.6,4.9c-0.2,1.3-0.1,2.5,0.2,3.8c0.8,3.4,3.1,5.9,6.4,6.8
	c3.7,1.1,7.1,0.9,10.7-0.5c1.7-0.7,3.1-1.7,4.2-3.1l-0.8-5.6c-0.6,0.8-1.2,1.4-2.1,1.8c-0.9,0.4-1.6,0.6-2.6,0.7
	c-0.8,0.1-1.5,0-2.2-0.2c-0.6-0.2-1.1-0.5-1.5-0.9c-0.4-0.4-0.6-0.8-0.7-1.4c-0.2-0.8,0.1-1.6,0.7-2.2c0.4-0.4,0.8-0.6,1.4-0.8
	c1.3-0.5,2.4-0.8,3.6-1.2c1.6-0.4,2.9-0.9,4.3-1.6c0.1,1.2,0.1,2.2,0,3.4c-0.1,0.9-0.4,1.6-0.9,2.3l0.8,5.6c0.2,0.8,0.5,1.5,0.7,2.2
	c0.1,0.4,0.4,0.8,0.6,1.1h12C193.1,91.8,192.8,91,192.8,90.1"/>
<path class="st0" d="M120.1,90.1c-0.2-2.7-0.3-4.9-0.3-7.6c-0.1-3.5-0.1-6.5-0.1-10c0-1.9-0.2-3.5-0.7-5.3c-0.6-2.4-2-4.2-4.2-5.5
	c-1.3-0.7-2.5-1.2-4-1.5c-4.7-1-8.8-1.1-13.5-0.3c-1.3,0.2-2.4,0.6-3.7,1.1c-2.9,1.2-4.8,3.4-5.8,6.3c-0.3,1.1-0.5,2.2-0.3,3.3
	c0,0.2,0.1,0.4,0.2,0.6l10.9,0.3c0-0.7,0.1-1.3,0.3-1.9c0.4-1,1.1-1.7,2.1-2.1c1.5-0.5,2.9-0.6,4.3-0.1c1,0.3,1.7,1,2,2
	c0.2,0.6,0.1,1.2-0.3,1.7c-0.3,0.5-0.7,0.8-1.2,1c-0.3,0.1-0.6,0.2-0.9,0.3c-1.5,0.4-2.8,0.7-4.4,0.9c-1.2,0.2-2.3,0.4-3.5,0.6
	c-1.7,0.3-3,0.7-4.6,1.2c-1.5,0.5-2.6,1.1-3.8,2.2c-1.5,1.3-2.3,3-2.6,4.9c-0.2,1.3-0.1,2.5,0.2,3.8c0.8,3.4,3.1,5.9,6.4,6.8
	c3.7,1.1,7.2,0.9,10.7-0.5c1.7-0.7,3.1-1.7,4.2-3.1l-0.8-5.6c-0.6,0.8-1.2,1.4-2.2,1.8c-0.9,0.4-1.7,0.6-2.6,0.7
	c-0.8,0.1-1.5,0-2.2-0.2c-0.6-0.2-1.1-0.5-1.5-0.9c-0.4-0.4-0.6-0.8-0.7-1.4c-0.2-0.8,0.1-1.6,0.7-2.2c0.4-0.4,0.8-0.6,1.4-0.8
	c1.3-0.5,2.3-0.8,3.6-1.2c1.6-0.4,2.9-0.9,4.3-1.6c0.1,1.2,0.1,2.2,0,3.4c-0.1,0.9-0.4,1.6-0.9,2.3l0.8,5.6c0.2,0.8,0.5,1.5,0.7,2.2
	c0.2,0.4,0.3,0.8,0.7,1.1h12C120.4,91.8,120.1,91,120.1,90.1"/>
</svg>
