<?xml version="1.0" encoding="utf-8"?>
<!-- Generator: Adobe Illustrator 24.3.0, SVG Export Plug-In . SVG Version: 6.00 Build 0)  -->
<svg version="1.1" id="Layer_1" xmlns="http://www.w3.org/2000/svg" xmlns:xlink="http://www.w3.org/1999/xlink" x="0px" y="0px"
	 viewBox="0 0 1366 768" style="enable-background:new 0 0 1366 768;" xml:space="preserve">
<style type="text/css">
	.st0{fill:#231F20;}
	.st1{fill:#DC6827;}
</style>
<g>
	<g>
		<path class="st0" d="M72.37,409.15v55.3H33.08V301.47h65.04c12.46,0,23.49,2.29,33.08,6.88c9.59,4.59,17.01,11.12,22.27,19.59
			c5.26,8.47,7.89,18.08,7.89,28.82c0,15.89-5.69,28.6-17.07,38.11c-11.38,9.52-27,14.27-46.85,14.27H72.37z M72.37,378.82h25.75
			c7.61,0,13.41-1.9,17.4-5.71c3.99-3.81,5.99-9.18,5.99-16.12c0-7.61-2.05-13.69-6.16-18.25c-4.11-4.55-9.7-6.86-16.79-6.94H72.37
			V378.82z"/>
		<path class="st0" d="M237.7,466.69c-18.58,0-33.62-5.54-45.11-16.62c-11.49-11.08-17.24-25.5-17.24-43.26v-3.13
			c0-12.39,2.3-23.32,6.88-32.8c4.59-9.48,11.29-16.81,20.09-22c8.8-5.19,19.25-7.78,31.34-7.78c17.01,0,30.45,5.28,40.3,15.84
			c9.85,10.56,14.77,25.28,14.77,44.16v14.66h-75c1.34,6.79,4.29,12.13,8.84,16.01c4.55,3.88,10.45,5.82,17.69,5.82
			c11.94,0,21.27-4.18,27.99-12.54l17.24,20.37c-4.7,6.49-11.36,11.66-19.98,15.5C256.9,464.77,247.62,466.69,237.7,466.69z
			 M233.45,370.2c-11.04,0-17.61,7.31-19.7,21.94h38.06v-2.91c0.15-6.04-1.38-10.73-4.59-14.05
			C244,371.86,239.42,370.2,233.45,370.2z"/>
		<path class="st0" d="M377.18,377.47l-12.42-0.9c-11.87,0-19.48,3.73-22.84,11.19v76.68h-37.72V343.33h35.37l1.23,15.56
			c6.34-11.86,15.18-17.8,26.53-17.8c4.03,0,7.54,0.45,10.52,1.34L377.18,377.47z"/>
		<path class="st0" d="M426.43,343.33l1.23,14.22c8.58-10.97,20.11-16.46,34.59-16.46c15.3,0,25.63,6.08,31.01,18.25
			c8.21-12.16,20.07-18.25,35.6-18.25c24.55,0,37.16,14.85,37.83,44.55v78.8h-37.83v-76.45c0-6.19-1.05-10.71-3.14-13.54
			c-2.09-2.84-5.89-4.25-11.42-4.25c-7.46,0-13.02,3.32-16.68,9.96l0.11,1.57v82.72H459.9v-76.23c0-6.34-1.01-10.93-3.02-13.77
			c-2.02-2.84-5.86-4.25-11.53-4.25c-7.24,0-12.76,3.32-16.57,9.96v84.29h-37.72V343.33H426.43z"/>
		<path class="st0" d="M656.46,464.45c-1.34-2.46-2.54-6.08-3.58-10.86c-6.94,8.73-16.64,13.1-29.11,13.1
			c-11.42,0-21.12-3.45-29.1-10.35c-7.99-6.9-11.98-15.58-11.98-26.03c0-13.13,4.85-23.06,14.55-29.78
			c9.7-6.72,23.81-10.07,42.31-10.07h11.64v-6.41c0-11.17-4.81-16.76-14.44-16.76c-8.96,0-13.43,4.43-13.43,13.28H585.6
			c0-11.7,4.98-21.21,14.94-28.51c9.96-7.3,22.67-10.96,38.11-10.96c15.45,0,27.65,3.77,36.61,11.31
			c8.95,7.54,13.54,17.87,13.77,31.01v53.62c0.15,11.12,1.87,19.63,5.15,25.52v1.9H656.46z M632.84,439.82c4.7,0,8.6-1.01,11.7-3.02
			c3.1-2.02,5.32-4.29,6.66-6.83v-19.37h-10.97c-13.14,0-19.7,5.89-19.7,17.69c0,3.43,1.16,6.21,3.47,8.34
			S629.26,439.82,632.84,439.82z"/>
		<path class="st0" d="M733.25,427.84c5.97,0,10.93,1.77,14.89,5.32c3.95,3.55,5.93,8.08,5.93,13.6c0,5.52-1.98,10.06-5.93,13.6
			c-3.96,3.54-8.92,5.32-14.89,5.32c-6.05,0-11.03-1.79-14.95-5.37c-3.92-3.58-5.88-8.09-5.88-13.54c0-5.45,1.96-9.96,5.88-13.54
			C722.22,429.64,727.21,427.84,733.25,427.84z"/>
		<path class="st0" d="M830.41,437.58c5.3,0,9.4-1.43,12.31-4.31c2.91-2.87,4.33-6.88,4.25-12.03h35.37
			c0,13.28-4.76,24.18-14.27,32.68c-9.51,8.51-21.77,12.76-36.77,12.76c-17.61,0-31.49-5.52-41.64-16.57
			c-10.15-11.04-15.22-26.34-15.22-45.89v-1.57c0-12.24,2.26-23.04,6.77-32.41c4.52-9.37,11.03-16.57,19.53-21.61
			c8.51-5.04,18.58-7.56,30.22-7.56c15.75,0,28.24,4.37,37.5,13.1c9.25,8.73,13.88,20.56,13.88,35.48h-35.37
			c0-6.27-1.53-11.08-4.59-14.44c-3.06-3.36-7.17-5.04-12.32-5.04c-9.78,0-15.48,6.23-17.13,18.69c-0.52,3.96-0.79,9.4-0.79,16.34
			c0,12.16,1.46,20.6,4.37,25.3C819.44,435.23,824.07,437.58,830.41,437.58z"/>
		<path class="st0" d="M949.52,437.58c5.3,0,9.4-1.43,12.31-4.31c2.91-2.87,4.33-6.88,4.25-12.03h35.37
			c0,13.28-4.76,24.18-14.27,32.68c-9.51,8.51-21.77,12.76-36.77,12.76c-17.61,0-31.49-5.52-41.64-16.57
			c-10.15-11.04-15.22-26.34-15.22-45.89v-1.57c0-12.24,2.26-23.04,6.77-32.41c4.52-9.37,11.03-16.57,19.53-21.61
			c8.51-5.04,18.58-7.56,30.22-7.56c15.75,0,28.24,4.37,37.5,13.1c9.25,8.73,13.88,20.56,13.88,35.48h-35.37
			c0-6.27-1.53-11.08-4.59-14.44c-3.06-3.36-7.17-5.04-12.32-5.04c-9.78,0-15.48,6.23-17.13,18.69c-0.52,3.96-0.79,9.4-0.79,16.34
			c0,12.16,1.46,20.6,4.37,25.3S943.17,437.58,949.52,437.58z"/>
	</g>
	<g>
		<path class="st1" d="M1273.86,463.4c-12.98,0-26.04-4.74-39.92-14.48c-13.42-9.39-26.05-22.38-38.26-34.93
			c-13.28-13.65-27-27.77-41.21-36.66c-8.82-5.51-16.76-8.19-24.29-8.19c-14.21,0-24.97,6.28-30.29,17.7
			c-2.32,5.01-3.55,10.93-3.55,17.1c0,4.94,0.72,9.54,2.13,13.69c4.49,13.33,15.41,20.35,31.6,20.35c7.47,0,15.5-3.11,24.55-9.5
			c6.01-4.26,12.66-10.09,20.92-18.33l17.95,18c-9.42,9.39-16.88,15.89-24.19,21.08c-13.51,9.54-26.34,14.17-39.23,14.17
			c-26.94,0-47.75-14.06-55.68-37.62c-2.3-6.74-3.47-14.11-3.47-21.84c0-9.97,1.99-19.33,5.92-27.81
			c9.61-20.61,29.05-32.41,53.35-32.41c12.43,0,24.78,3.94,37.76,12.06c16.81,10.51,31.63,25.75,45.96,40.49
			c11.91,12.25,23.15,23.81,34.62,31.84c9.47,6.65,17.76,9.88,25.33,9.88c16.54,0,27.56-7.02,31.87-20.29
			c1.27-3.93,1.92-8.32,1.92-13.01c0-6.64-1.31-12.92-3.79-18.15c-5.39-11.38-15.76-17.39-30.01-17.39
			c-8.37,0-16.96,2.81-26.25,8.58c-5.85,3.64-12.08,8.52-19.06,14.93c-0.45,0.41-0.88,0.81-1.31,1.21l-17.35-18.59
			c0.49-0.46,0.98-0.91,1.47-1.36c8.14-7.48,15.61-13.3,22.83-17.79c13.45-8.35,26.42-12.41,39.68-12.41
			c24.07,0,43.38,11.64,52.98,31.93c4.08,8.6,6.24,18.64,6.24,29.03c0,7.36-1.06,14.37-3.16,20.85
			C1322.21,449.25,1301.25,463.4,1273.86,463.4L1273.86,463.4z"/>
	</g>
</g>
</svg>
