<svg width="107" height="28" viewBox="0 0 107 28" fill="none" xmlns="http://www.w3.org/2000/svg">
<path fill-rule="evenodd" clip-rule="evenodd" d="M40.2521 12.3044C40.2521 11.8227 40.1692 11.3897 40.0045 11.0065C39.8398 10.6232 39.6026 10.2928 39.2949 10.0162C38.9873 9.73961 38.6123 9.5283 38.171 9.3812C37.7298 9.23411 37.2367 9.16056 36.6929 9.16056H33V18.5268H34.6325V15.5166H36.4971C37.0171 15.5166 37.5029 15.4472 37.9597 15.3084C38.4145 15.1706 38.8112 14.9676 39.153 14.6993C39.4918 14.431 39.76 14.0975 39.9579 13.6956C40.1537 13.2947 40.2521 12.8306 40.2521 12.3044ZM38.5792 12.3376C38.5792 12.8482 38.3989 13.2584 38.0353 13.5661C37.6738 13.8758 37.1787 14.0291 36.553 14.0291H34.6325V10.645H36.552C37.1694 10.645 37.6624 10.7858 38.0281 11.0686C38.3969 11.3504 38.5792 11.774 38.5792 12.3376ZM51.3182 13.8302C51.3182 13.1704 51.197 12.5458 50.9567 11.9574C50.7153 11.369 50.3808 10.8552 49.9529 10.4181C49.5251 9.98096 49.0113 9.63603 48.4147 9.3812C47.817 9.12742 47.1572 9 46.4341 9C45.7121 9 45.0512 9.12948 44.4535 9.38845C43.8559 9.64741 43.339 9.99754 42.9018 10.4388C42.4647 10.8801 42.126 11.396 41.8846 11.9843C41.6432 12.5737 41.5231 13.1973 41.5231 13.8572C41.5231 14.517 41.6432 15.1416 41.8846 15.731C42.1249 16.3194 42.4605 16.8322 42.8884 17.2693C43.3162 17.7064 43.83 18.0524 44.4277 18.3062C45.0253 18.56 45.6852 18.6874 46.4082 18.6874C47.1313 18.6874 47.7911 18.5579 48.3888 18.299C48.9865 18.04 49.5034 17.6899 49.9405 17.2486C50.3776 16.8063 50.7164 16.2914 50.9577 15.7031C51.197 15.1147 51.3182 14.4901 51.3182 13.8302ZM49.5914 13.8561C49.5914 14.3109 49.5137 14.7408 49.3573 15.1479C49.2019 15.5539 48.9854 15.9061 48.7089 16.2044C48.4323 16.5038 48.0998 16.7389 47.7124 16.914C47.3239 17.088 46.8982 17.175 46.4341 17.175C45.9701 17.175 45.5422 17.086 45.1496 16.9078C44.7571 16.7296 44.4204 16.4883 44.1397 16.1858C43.859 15.8823 43.6404 15.528 43.484 15.122C43.3276 14.7159 43.2499 14.285 43.2499 13.8302C43.2499 13.3755 43.3276 12.9456 43.484 12.5396C43.6404 12.1335 43.8559 11.7813 44.1335 11.483C44.41 11.1836 44.7426 10.9474 45.13 10.7734C45.5184 10.5994 45.9442 10.5124 46.4082 10.5124C46.8723 10.5124 47.3001 10.6015 47.6927 10.7796C48.0853 10.9578 48.4219 11.1991 48.7027 11.5016C48.9834 11.8051 49.2019 12.1594 49.3584 12.5654C49.5137 12.9715 49.5914 13.4014 49.5914 13.8561ZM53.3112 18.5258H59.8682V17.0404H54.9437V9.15953H53.3112V18.5258ZM64.2707 14.7926L67.9904 9.15953H66.1041L63.4544 13.3071L60.8316 9.15953H58.8914L62.6112 14.833V18.5258H64.2707V14.7926ZM76.9817 17.2279V13.2937H72.9937V14.7263H75.3886V16.4883C75.1027 16.7048 74.766 16.8757 74.3786 17.0083C73.9912 17.1378 73.5737 17.202 73.1273 17.202C72.6456 17.202 72.2105 17.117 71.8221 16.9482C71.4347 16.7783 71.1001 16.5421 70.8183 16.2428C70.5376 15.9444 70.3211 15.5891 70.1689 15.1769C70.0166 14.7667 69.942 14.3181 69.942 13.8364C69.942 13.3817 70.0197 12.9518 70.1761 12.5499C70.3315 12.1459 70.5459 11.7937 70.8183 11.4902C71.0897 11.1867 71.4119 10.9464 71.7817 10.7724C72.1515 10.5983 72.5513 10.5113 72.9792 10.5113C73.2733 10.5113 73.5437 10.5362 73.7892 10.5849C74.0347 10.6336 74.2595 10.7009 74.4646 10.7858C74.6697 10.8708 74.8665 10.9754 75.053 11.1007C75.2404 11.2261 75.4238 11.3638 75.602 11.5151L76.6461 10.271C76.4048 10.0659 76.1572 9.88567 75.9034 9.72925C75.6486 9.57284 75.3793 9.44128 75.0934 9.33459C74.8075 9.22686 74.4977 9.14502 74.1632 9.08702C73.8286 9.02901 73.4567 9 73.0455 9C72.3411 9 71.6916 9.12948 71.0991 9.38845C70.5055 9.64741 69.9948 9.99754 69.567 10.4388C69.1392 10.8801 68.8067 11.396 68.5695 11.9843C68.3333 12.5737 68.2142 13.1973 68.2142 13.8572C68.2142 14.5439 68.3302 15.182 68.5622 15.7704C68.7943 16.3598 69.1226 16.8705 69.5463 17.3025C69.97 17.7344 70.4807 18.0742 71.0784 18.3197C71.676 18.5652 72.3411 18.6874 73.0714 18.6874C73.4816 18.6874 73.8752 18.6491 74.2491 18.5735C74.6241 18.4978 74.9742 18.3932 75.2995 18.2596C75.6248 18.126 75.9283 17.9696 76.209 17.7914C76.4938 17.6122 76.7497 17.4247 76.9817 17.2279ZM87.071 18.5258L84.5425 14.98C84.8719 14.891 85.1733 14.7636 85.4458 14.5988C85.7172 14.4341 85.9523 14.2332 86.1481 13.997C86.3439 13.7608 86.4982 13.4884 86.6101 13.1808C86.722 12.8731 86.7779 12.523 86.7779 12.1304C86.7779 11.6756 86.6971 11.2634 86.5365 10.8925C86.376 10.5227 86.1471 10.2099 85.8477 9.95611C85.5494 9.70232 85.1827 9.50551 84.7507 9.36774C84.3177 9.22997 83.834 9.16056 83.2995 9.16056H79.1249V18.5268H80.7564V15.2618H82.824L85.1329 18.5268H87.071V18.5258ZM85.1039 12.2174C85.1039 12.7011 84.9299 13.0875 84.5798 13.3724C84.2318 13.6593 83.7615 13.8033 83.17 13.8033H80.7543V10.645H83.1565C83.7749 10.645 84.2535 10.7765 84.5922 11.0417C84.9351 11.3058 85.1039 11.6984 85.1039 12.2174ZM93.6405 9.09323H92.1157L87.994 18.5258H89.6804L90.6437 16.2645H95.0731L96.023 18.5258H97.7622L93.6405 9.09323ZM94.4702 14.8071H91.2456L92.8512 11.0603L94.4702 14.8071ZM106.326 9.15953H99.3678V18.5258H101V14.7128H105.724V13.2274H101V10.645H106.326V9.15953Z" fill="#0F1440"/>
<path fill-rule="evenodd" clip-rule="evenodd" d="M10.5258 0.395907L7.77173 1.98603L6.2 2.89358L5.96743 3.02772L0.329543 6.28259C0.253823 6.32694 0.209473 6.40266 0.209473 6.49028C0.209473 6.5779 0.252741 6.65362 0.329543 6.69797L5.96743 9.95285L11.9655 6.49028L17.9636 9.95285V16.878L11.9655 20.3405L16.5239 22.9723C17.439 23.5013 18.4872 23.5013 19.4034 22.9723L22.522 21.1724C23.4371 20.6434 23.9617 19.7359 23.9617 18.679V13.4165V12.7491V8.15287C23.9617 7.09604 23.4382 6.18848 22.522 5.65953L17.9636 3.02772L13.4053 0.395907C12.4891 -0.131969 11.4409 -0.131969 10.5258 0.395907Z" fill="url(#paint0_linear_102_77)"/>
<path fill-rule="evenodd" clip-rule="evenodd" d="M10.5183 12.5813L5.96753 9.95386V16.8671V22.1221C5.96753 23.1767 6.49108 24.0832 7.40513 24.6111L11.5968 27.0309C11.6725 27.0752 11.7601 27.0752 11.8358 27.0309C11.9115 26.9865 11.9548 26.9119 11.9548 26.8243V20.3253V15.0704C11.9548 14.0146 11.4323 13.1081 10.5183 12.5813Z" fill="url(#paint1_linear_102_77)"/>
<defs>
<linearGradient id="paint0_linear_102_77" x1="6.98787" y1="0.574152" x2="23.2133" y2="20.5406" gradientUnits="userSpaceOnUse">
<stop offset="0.0326" stop-color="#FF299E"/>
<stop offset="0.2705" stop-color="#FF9190"/>
<stop offset="0.3399" stop-color="#FFA378"/>
<stop offset="0.4488" stop-color="#FFBD55"/>
<stop offset="0.5096" stop-color="#F7C05D"/>
<stop offset="0.6043" stop-color="#E1C872"/>
<stop offset="0.7205" stop-color="#BDD495"/>
<stop offset="0.777" stop-color="#A9DBA9"/>
<stop offset="0.9212" stop-color="#57F3D8"/>
<stop offset="1" stop-color="#2FFFEF"/>
</linearGradient>
<linearGradient id="paint1_linear_102_77" x1="8.05093" y1="17.1743" x2="11.2803" y2="22.2163" gradientUnits="userSpaceOnUse">
<stop stop-color="#F646A0"/>
<stop offset="1" stop-color="#4E79B9"/>
</linearGradient>
</defs>
</svg>
