<?xml version="1.0" encoding="UTF-8"?>
<!-- Created with Inkscape (http://www.inkscape.org/) -->
<svg width="898.67" height="269.33" version="1.1" viewBox="0 0 898.67 269.33" xmlns="http://www.w3.org/2000/svg" xmlns:cc="http://creativecommons.org/ns#" xmlns:dc="http://purl.org/dc/elements/1.1/" xmlns:rdf="http://www.w3.org/1999/02/22-rdf-syntax-ns#">
 <metadata>
  <rdf:RDF>
   <cc:Work rdf:about="">
    <dc:format>image/svg+xml</dc:format>
    <dc:type rdf:resource="http://purl.org/dc/dcmitype/StillImage"/>
    <dc:title/>
   </cc:Work>
  </rdf:RDF>
 </metadata>
 <g transform="translate(.58507 1.1701)" stroke-width="1.3333">
  <path d="m0 134.67v-134.67h898.67v269.33h-898.67z" fill="#fdfdfd"/>
  <path d="m48.857 219.96c-2.0955-0.62794-5.0069-2.225-6.4698-3.5489-6.4484-5.8357-6.3869-5.0486-6.3869-81.768 0-50.831 0.44326-73.015 1.5-75.066 4.5993-8.9301 13.68-13.072 21.499-9.8047 2.4363 1.018 19.108 11.262 37.049 22.764l32.619 20.913 0.66667-17.059c0.37685-9.643 1.3677-18.281 2.2792-19.87 3.6916-6.4357 12.516-9.412 20-6.7454 9.0461 3.223 112.75 70.755 116.05 75.576 3.6812 5.3679 3.8736 12.531 0.48595 18.087-1.7712 2.9045-18.74 14.522-57.976 39.692-30.51 19.572-57.085 36.199-59.056 36.949-6.2806 2.3879-16.059-1.2559-19.508-7.2697-0.91104-1.5882-1.9025-10.223-2.2792-19.848l-0.66667-17.037-29.333 18.892c-30.072 19.367-42.441 26.603-45.135 26.401-0.8422-0.0631-3.2457-0.62839-5.3412-1.2564zm269.81-87.912v-54.717l25.667 0.0075c14.117 0.0041 27.873 0.62025 30.57 1.3692 8.429 2.3411 17.184 9.3215 21.593 17.215 3.3932 6.0759 4.0446 8.682 3.9994 16-0.0296 4.808-0.97814 10.886-2.1077 13.506-2.4221 5.6179-9.6376 14.145-14.492 17.125l-3.438 2.111 11.676 19.948c6.4219 10.971 11.384 20.421 11.026 21-0.35762 0.57864-6.2414 1.0521-13.075 1.0521-9.8373 0-12.799-0.45076-14.221-2.1645-0.98801-1.1905-5.7498-9.4405-10.582-18.333l-8.7854-16.169-12.42-0.80966-0.37143 18.405-0.37143 18.405-24.667 0.76674zm54.117-11.124c4.088-4.7549 4.1097-10.405 0.058-15.115-2.9593-3.4404-3.9675-3.7071-16-4.2334l-12.842-0.56165v24.575l12.784-0.46204c12.091-0.43699 12.958-0.66487 16-4.2031zm51.176 62.741c-8.2205-4.1529-11.96-10.176-11.96-19.263 0-16.536 11.096-24.656 36.426-26.656 10.41-0.82206 10.425-0.82898 9.5789-4.2852-1.2635-5.1609-4.0732-7.3285-9.4992-7.3285-3.7422 0-5.5592 0.87022-7.8714 3.77l-3.0061 3.77-11.481-0.95637c-6.3146-0.526-11.481-1.1271-11.481-1.3357 0-3.0389 5.1026-13.068 8.39-16.49 5.5249-5.7515 9.9665-8.0113 19.045-9.6896 15.043-2.7809 29.509 3.626 36.565 16.194 3.2746 5.8331 3.3333 6.4545 3.3333 35.271v29.333l-8.2671 0.39524c-7.949 0.38003-8.3444 0.24576-10.276-3.4894l-2.0088-3.8846-7.5787 3.8227c-9.8431 4.965-21.097 5.2746-29.91 0.82275zm31.04-19.641c2.3391-2.5948 3.6667-5.566 3.6667-8.2066v-4.1392l-7.8372 0.56689c-9.8627 0.7134-14.83 3.7418-14.83 9.0421 0 8.7683 12.004 10.497 19 2.7368zm63.216 21.641c-0.60827-0.9998-24.918-64.556-28.304-74l-1.7929-5h25.965l7.9169 24c4.3543 13.2 8.2543 24 8.6667 24s4.3124-10.8 8.6667-24l7.9169-24h13.12c7.2161 0 12.835 0.46086 12.487 1.0241s-7.0116 17.786-14.808 38.272c-7.7961 20.486-14.82 38.025-15.609 38.976-1.5632 1.8836-23.128 2.5318-24.225 0.7282zm63.118-38.948v-40.052h8.6198c7.5876 0 8.8066 0.35921 10.181 3 0.85847 1.65 1.6883 3.1588 1.8442 3.3528 0.15582 0.19403 3.2245-1.306 6.8194-3.3333 5.5275-3.1173 8.0792-3.6861 16.536-3.6861 8.5558 0 10.919 0.5402 16.363 3.7404 7.3065 4.2948 12.177 10.979 14.278 19.593 0.88005 3.6095 1.3094 16.093 1.0777 31.333l-0.38516 25.333h-22.667l-0.66667-24.667c-0.68671-25.408-1.4751-29.222-6.6096-31.969-4.7032-2.5171-12.945-1.6189-16.983 1.8507l-3.741 3.2146-1.3333 51.571-23.333 0.7705zm111.33 38.613c-5.8267-1.8254-13.639-8.7663-17.027-15.127-2.7336-5.1329-2.9826-7.6574-3.4073-34.538l-0.45818-29h24.225v23.4c0 30.095 1.661 33.934 14.682 33.934 4.3272 0 6.3677-0.84414 9.421-3.8974l3.8974-3.8974v-49.538h24v80h-8.5049c-8.178 0-8.5681-0.15255-10.149-3.969l-1.644-3.9689-5.992 3.5116c-4.6437 2.7214-8.1356 3.6052-15.518 3.9278-5.2392 0.22891-11.326-0.14775-13.526-0.837zm72.667-38.613v-40.052h8.731c8.4556 0 8.7846 0.12731 10.428 4.0355 1.6802 3.9961 1.7203 4.0096 4.0989 1.3812 3.3182-3.6666 12.733-7.0384 18.197-6.5171l4.5451 0.4336 0.76624 24.629-5.8251-0.79841c-5.9341-0.81336-12.844 1.5337-15.19 5.1596-0.5965 0.92188-1.3846 12.776-1.7512 26.343l-0.66666 24.667-23.333 0.7705z" fill="#a0a4a9"/>
  <path d="m48.857 219.93c-5.0379-1.4663-8.8159-4.9634-11.041-10.22-2.3305-5.5062-2.6938-143.22-0.39383-149.29 3.4601-9.1323 12.417-13.636 21.074-10.597 2.6606 0.93413 19.537 11.149 37.504 22.699l32.667 21.001 0.66667-17.534 0.66666-17.534 4.9804-4.5613c7.2793-6.6667 13.555-6.3751 25.748 1.1966 36.205 22.483 104.34 66.978 106.21 69.352 3.5634 4.5442 4.2866 11.989 1.6952 17.45-1.9078 4.0205-9.4659 9.3683-50.436 35.687-68.655 44.103-65.78 42.42-72.484 42.42-4.6837 0-6.6694-0.84422-10.728-4.5608l-4.9804-4.5608-0.43929-17.439c-0.24161-9.5916-0.64145-17.439-0.88854-17.439-0.24708 0-14.749 9.2031-32.227 20.451-17.478 11.248-32.978 21.065-34.445 21.816-4.3829 2.2421-9.1013 2.839-13.143 1.6626zm379.3-34.72c-11.171-3.4091-16.836-11.696-15.88-23.231 1.1448-13.805 10.993-20.754 33.387-23.557 12.062-1.51 13-1.8415 13-4.5942 0-3.6436-5.8715-8.4937-10.282-8.4937-1.8168 0-4.9691 1.713-7.1315 3.8754-3.7891 3.7892-4.1134 3.8591-14.564 3.1428-11.943-0.81861-12.739-1.7591-8.5327-10.084 5.3511-10.591 13.991-15.727 27.995-16.642 11.593-0.75724 17.758 1.0945 24.787 7.4444 10.205 9.2192 10.916 11.94 11.488 43.93l0.50645 28.333h-8.7524c-7.7252 0-8.9356-0.3521-10.313-3-0.85847-1.65-1.7199-3.1903-1.9143-3.423-0.19442-0.23264-3.5256 1.1845-7.4026 3.1491-7.8825 3.9944-19.197 5.3447-26.39 3.1496zm27.463-20.486c2.0742-2.4113 3.044-5.2404 3.044-8.8795v-5.3407l-6.3333 0.85631c-9.5392 1.2898-14.873 3.2457-16.344 5.9929-2.015 3.7651-1.6029 6.3677 1.4994 9.47 4.0241 4.0241 13.844 2.8874 18.134-2.099zm239.35 20.713c-7.7418-1.9717-14.683-7.9125-18.626-15.941-3.5997-7.33-3.6911-8.1049-4.1489-35.162l-0.46806-27.667h24.269v24.564c0 24.411 0.0213 24.59 3.4137 28.621 4.4003 5.2295 11.184 6.6438 17.475 3.6436 7.3407-3.5005 8.4446-7.9609 8.4446-34.12v-22.709h22.667v78.667h-8.4526c-7.7909 0-8.5753-0.26915-10.019-3.4381-0.86156-1.8909-2.0079-3.2103-2.5473-2.932-12.934 6.6738-23.126 8.735-32.007 6.473zm-376.31-54.22v-54.117l27.667 0.48413c25.789 0.45128 28.098 0.69622 34.027 3.6095 7.7636 3.8148 15.959 12.831 18.071 19.882 4.9201 16.422-1.8282 33.882-16.334 42.261-2.0661 1.1934-1.144 3.3318 8.625 20 6.0162 10.265 11.229 19.414 11.584 20.33 0.48983 1.2653-2.5694 1.6667-12.704 1.6667h-13.349l-19.467-36h-12.786v36h-25.333zm54.061-9.1562c3.2555-3.2555 4.3359-9.7385 2.4445-14.668-1.5808-4.1195-7.9116-6.0597-19.772-6.0597h-11.4v24h12.727c11.735 0 12.982-0.25513 16-3.2727zm144.73 60.323c-8.7044-22.496-27.303-71.602-27.794-73.384-0.57763-2.0976 0.57572-2.3333 11.415-2.3333h12.057l8.3841 25.27c4.6112 13.898 8.7054 24.957 9.0982 24.574 0.39274-0.38264 4.3628-11.604 8.8222-24.936l8.1082-24.241 12.331-0.38478c12.313-0.38421 12.33-0.38033 11.366 2.6667-0.53113 1.6783-7.1188 19.251-14.639 39.051l-13.674 36-12.148 0.38355c-11.592 0.36601-12.202 0.24404-13.328-2.6667zm63.875-36.384v-39.333h8.5049c8.1839 0 8.5671 0.15027 10.154 3.9812l1.649 3.9812 3.5127-2.4989c1.932-1.3744 6.8127-3.4792 10.846-4.6773 15.894-4.7216 31.642 2.3706 38.223 17.214 1.9528 4.4048 2.4497 10.15 2.8539 33l0.48942 27.667h-24.233v-24.487c0-22.327-0.2312-24.781-2.6215-27.82-4.0688-5.1727-9.8217-7.0491-15.967-5.2079-9.1499 2.7414-10.017 5.478-10.517 33.181l-0.43923 24.333h-22.455zm184 0v-39.333h8.5049c8.1596 0 8.571 0.15961 10.133 3.9308l1.6282 3.9308 4.9759-3.2929c6.3463-4.1998 13.088-6.154 17.758-5.1473 3.6572 0.78843 3.6667 0.82027 3.6675 12.351l8.2e-4 11.561-6.7016-0.46432c-4.661-0.32293-7.7402 0.21615-10.112 1.7704-6.0154 3.9415-7.1878 9.2671-7.1878 32.651v21.376h-22.667z" fill="#a6d55b"/>
  <path d="m45.932 217.93c-8.8621-4.3737-8.5982-1.8178-8.5982-83.265 0-80.805-0.24754-78.249 8.0531-83.153 7.9259-4.6819 10.857-3.5112 43.441 17.348 16.778 10.741 32.456 20.7 34.839 22.132l4.3333 2.6032v82.014l-18.333 11.76c-55.669 35.709-54.47 35.134-63.735 30.561zm89.049-2.4956-4.9804-4.5642v-152.41l4.9804-4.5642c7.2784-6.6701 13.553-6.3792 25.748 1.1937 36.205 22.483 104.34 66.978 106.21 69.352 3.5634 4.5442 4.2866 11.989 1.6952 17.45-1.9078 4.0205-9.4659 9.3683-50.436 35.687-68.655 44.103-65.78 42.42-72.484 42.42-4.6852 0-6.6681-0.84362-10.728-4.5642zm293.18-30.227c-11.171-3.4091-16.836-11.696-15.88-23.231 1.1448-13.805 10.993-20.754 33.387-23.557 12.062-1.51 13-1.8415 13-4.5942 0-3.6436-5.8715-8.4937-10.282-8.4937-1.8168 0-4.9691 1.713-7.1315 3.8754-3.7891 3.7892-4.1134 3.8591-14.564 3.1428-11.943-0.81861-12.739-1.7591-8.5327-10.084 5.3511-10.591 13.991-15.727 27.995-16.642 11.593-0.75724 17.758 1.0945 24.787 7.4444 10.205 9.2192 10.916 11.94 11.488 43.93l0.50645 28.333h-8.7524c-7.7252 0-8.9356-0.3521-10.313-3-0.85847-1.65-1.7199-3.1903-1.9143-3.423-0.19442-0.23264-3.5256 1.1845-7.4026 3.1491-7.8825 3.9944-19.197 5.3447-26.39 3.1496zm27.463-20.486c2.0742-2.4113 3.044-5.2404 3.044-8.8795v-5.3407l-6.3333 0.85631c-9.5392 1.2898-14.873 3.2457-16.344 5.9929-2.015 3.7651-1.6029 6.3677 1.4994 9.47 4.0241 4.0241 13.844 2.8874 18.134-2.099zm239.35 20.713c-7.7418-1.9717-14.683-7.9125-18.626-15.941-3.5997-7.33-3.6911-8.1049-4.1489-35.162l-0.46806-27.667h24.269v24.564c0 24.411 0.0213 24.59 3.4137 28.621 4.4003 5.2295 11.184 6.6438 17.475 3.6436 7.3407-3.5005 8.4446-7.9609 8.4446-34.12v-22.709h22.667v78.667h-8.4526c-7.7909 0-8.5753-0.26915-10.019-3.4381-0.86156-1.8909-2.0079-3.2103-2.5473-2.932-12.934 6.6738-23.126 8.735-32.007 6.473zm-376.31-54.22v-54.117l27.667 0.48413c25.789 0.45128 28.098 0.69622 34.027 3.6095 7.7636 3.8148 15.959 12.831 18.071 19.882 4.9201 16.422-1.8282 33.882-16.334 42.261-2.0661 1.1934-1.144 3.3318 8.625 20 6.0162 10.265 11.229 19.414 11.584 20.33 0.48983 1.2653-2.5694 1.6667-12.704 1.6667h-13.349l-19.467-36h-12.786v36h-25.333zm54.061-9.1562c3.2555-3.2555 4.3359-9.7385 2.4445-14.668-1.5808-4.1195-7.9116-6.0597-19.772-6.0597h-11.4v24h12.727c11.735 0 12.982-0.25513 16-3.2727zm144.73 60.323c-8.7044-22.496-27.303-71.602-27.794-73.384-0.57763-2.0976 0.57572-2.3333 11.415-2.3333h12.057l8.3841 25.27c4.6112 13.898 8.7054 24.957 9.0982 24.574 0.39274-0.38264 4.3628-11.604 8.8222-24.936l8.1082-24.241 12.331-0.38478c12.313-0.38421 12.33-0.38033 11.366 2.6667-0.53113 1.6783-7.1188 19.251-14.639 39.051l-13.674 36-12.148 0.38355c-11.592 0.36601-12.202 0.24404-13.328-2.6667zm63.875-36.384v-39.333h8.5049c8.1839 0 8.5671 0.15027 10.154 3.9812l1.649 3.9812 3.5127-2.4989c1.932-1.3744 6.8127-3.4792 10.846-4.6773 15.894-4.7216 31.642 2.3706 38.223 17.214 1.9528 4.4048 2.4497 10.15 2.8539 33l0.48942 27.667h-24.233v-24.487c0-22.327-0.2312-24.781-2.6215-27.82-4.0688-5.1727-9.8217-7.0491-15.967-5.2079-9.1499 2.7414-10.017 5.478-10.517 33.181l-0.43923 24.333h-22.455zm184 0v-39.333h8.5049c8.1596 0 8.571 0.15961 10.133 3.9308l1.6282 3.9308 4.9759-3.2929c6.3463-4.1998 13.088-6.154 17.758-5.1473 3.6572 0.78843 3.6667 0.82027 3.6675 12.351l8.2e-4 11.561-6.7016-0.46432c-4.661-0.32293-7.7402 0.21615-10.112 1.7704-6.0154 3.9415-7.1878 9.2671-7.1878 32.651v21.376h-22.667z" fill="#a6d73f"/>
  <path d="m134.98 215.44-4.9804-4.5642v-152.41l4.9804-4.5642c7.2784-6.6701 13.553-6.3792 25.748 1.1937 36.205 22.483 104.34 66.978 106.21 69.352 3.5634 4.5442 4.2866 11.989 1.6952 17.45-1.9078 4.0205-9.4659 9.3683-50.436 35.687-68.655 44.103-65.78 42.42-72.484 42.42-4.6852 0-6.6681-0.84362-10.728-4.5642zm293.18-30.227c-11.171-3.4091-16.836-11.696-15.88-23.231 1.1448-13.805 10.993-20.754 33.387-23.557 12.062-1.51 13-1.8415 13-4.5942 0-3.6436-5.8715-8.4937-10.282-8.4937-1.8168 0-4.9691 1.713-7.1315 3.8754-3.7891 3.7892-4.1134 3.8591-14.564 3.1428-11.943-0.81861-12.739-1.7591-8.5327-10.084 5.3511-10.591 13.991-15.727 27.995-16.642 11.593-0.75724 17.758 1.0945 24.787 7.4444 10.205 9.2192 10.916 11.94 11.488 43.93l0.50645 28.333h-8.7524c-7.7252 0-8.9356-0.3521-10.313-3-0.85847-1.65-1.7199-3.1903-1.9143-3.423-0.19442-0.23264-3.5256 1.1845-7.4026 3.1491-7.8825 3.9944-19.197 5.3447-26.39 3.1496zm27.463-20.486c2.0742-2.4113 3.044-5.2404 3.044-8.8795v-5.3407l-6.3333 0.85631c-9.5392 1.2898-14.873 3.2457-16.344 5.9929-2.015 3.7651-1.6029 6.3677 1.4994 9.47 4.0241 4.0241 13.844 2.8874 18.134-2.099zm239.35 20.713c-7.7418-1.9717-14.683-7.9125-18.626-15.941-3.5997-7.33-3.6911-8.1049-4.1489-35.162l-0.46806-27.667h24.269v24.564c0 24.411 0.0213 24.59 3.4137 28.621 4.4003 5.2295 11.184 6.6438 17.475 3.6436 7.3407-3.5005 8.4446-7.9609 8.4446-34.12v-22.709h22.667v78.667h-8.4526c-7.7909 0-8.5753-0.26915-10.019-3.4381-0.86156-1.8909-2.0079-3.2103-2.5473-2.932-12.934 6.6738-23.126 8.735-32.007 6.473zm-376.31-54.22v-54.117l27.667 0.48413c25.789 0.45128 28.098 0.69622 34.027 3.6095 7.7636 3.8148 15.959 12.831 18.071 19.882 4.9201 16.422-1.8282 33.882-16.334 42.261-2.0661 1.1934-1.144 3.3318 8.625 20 6.0162 10.265 11.229 19.414 11.584 20.33 0.48983 1.2653-2.5694 1.6667-12.704 1.6667h-13.349l-19.467-36h-12.786v36h-25.333zm54.061-9.1562c3.2555-3.2555 4.3359-9.7385 2.4445-14.668-1.5808-4.1195-7.9116-6.0597-19.772-6.0597h-11.4v24h12.727c11.735 0 12.982-0.25513 16-3.2727zm144.73 60.323c-8.7044-22.496-27.303-71.602-27.794-73.384-0.57763-2.0976 0.57572-2.3333 11.415-2.3333h12.057l8.3841 25.27c4.6112 13.898 8.7054 24.957 9.0982 24.574 0.39274-0.38264 4.3628-11.604 8.8222-24.936l8.1082-24.241 12.331-0.38478c12.313-0.38421 12.33-0.38033 11.366 2.6667-0.53113 1.6783-7.1188 19.251-14.639 39.051l-13.674 36-12.148 0.38355c-11.592 0.36601-12.202 0.24404-13.328-2.6667zm63.875-36.384v-39.333h8.5049c8.1839 0 8.5671 0.15027 10.154 3.9812l1.649 3.9812 3.5127-2.4989c1.932-1.3744 6.8127-3.4792 10.846-4.6773 15.894-4.7216 31.642 2.3706 38.223 17.214 1.9528 4.4048 2.4497 10.15 2.8539 33l0.48942 27.667h-24.233v-24.487c0-22.327-0.2312-24.781-2.6215-27.82-4.0688-5.1727-9.8217-7.0491-15.967-5.2079-9.1499 2.7414-10.017 5.478-10.517 33.181l-0.43923 24.333h-22.455zm184 0v-39.333h8.5049c8.1596 0 8.571 0.15961 10.133 3.9308l1.6282 3.9308 4.9759-3.2929c6.3463-4.1998 13.088-6.154 17.758-5.1473 3.6572 0.78843 3.6667 0.82027 3.6675 12.351l8.2e-4 11.561-6.7016-0.46432c-4.661-0.32293-7.7402 0.21615-10.112 1.7704-6.0154 3.9415-7.1878 9.2671-7.1878 32.651v21.376h-22.667z" fill="#368fcf"/>
  <path d="m428.16 185.21c-11.171-3.4091-16.836-11.696-15.88-23.231 1.1448-13.805 10.993-20.754 33.387-23.557 12.062-1.51 13-1.8415 13-4.5942 0-3.6436-5.8715-8.4937-10.282-8.4937-1.8168 0-4.9691 1.713-7.1315 3.8754-3.7891 3.7892-4.1134 3.8591-14.564 3.1428-11.943-0.81861-12.739-1.7591-8.5327-10.084 5.3511-10.591 13.991-15.727 27.995-16.642 11.593-0.75724 17.758 1.0945 24.787 7.4444 10.205 9.2192 10.916 11.94 11.488 43.93l0.50645 28.333h-8.7524c-7.7252 0-8.9356-0.3521-10.313-3-0.85847-1.65-1.7199-3.1903-1.9143-3.423-0.19442-0.23264-3.5256 1.1845-7.4026 3.1491-7.8825 3.9944-19.197 5.3447-26.39 3.1496zm27.463-20.486c2.0742-2.4113 3.044-5.2404 3.044-8.8795v-5.3407l-6.3333 0.85631c-9.5392 1.2898-14.873 3.2457-16.344 5.9929-2.015 3.7651-1.6029 6.3677 1.4994 9.47 4.0241 4.0241 13.844 2.8874 18.134-2.099zm239.35 20.713c-7.7418-1.9717-14.683-7.9125-18.626-15.941-3.5997-7.33-3.6911-8.1049-4.1489-35.162l-0.46806-27.667h24.269v24.564c0 24.411 0.0213 24.59 3.4137 28.621 4.4003 5.2295 11.184 6.6438 17.475 3.6436 7.3407-3.5005 8.4446-7.9609 8.4446-34.12v-22.709h22.667v78.667h-8.4526c-7.7909 0-8.5753-0.26915-10.019-3.4381-0.86156-1.8909-2.0079-3.2103-2.5473-2.932-12.934 6.6738-23.126 8.735-32.007 6.473zm-376.31-54.22v-54.117l27.667 0.48413c25.789 0.45128 28.098 0.69622 34.027 3.6095 7.7636 3.8148 15.959 12.831 18.071 19.882 4.9201 16.422-1.8282 33.882-16.334 42.261-2.0661 1.1934-1.144 3.3318 8.625 20 6.0162 10.265 11.229 19.414 11.584 20.33 0.48983 1.2653-2.5694 1.6667-12.704 1.6667h-13.349l-19.467-36h-12.786v36h-25.333zm54.061-9.1562c3.2555-3.2555 4.3359-9.7385 2.4445-14.668-1.5808-4.1195-7.9116-6.0597-19.772-6.0597h-11.4v24h12.727c11.735 0 12.982-0.25513 16-3.2727zm144.73 60.323c-8.7044-22.496-27.303-71.602-27.794-73.384-0.57763-2.0976 0.57572-2.3333 11.415-2.3333h12.057l8.3841 25.27c4.6112 13.898 8.7054 24.957 9.0982 24.574 0.39274-0.38264 4.3628-11.604 8.8222-24.936l8.1082-24.241 12.331-0.38478c12.313-0.38421 12.33-0.38033 11.366 2.6667-0.53113 1.6783-7.1188 19.251-14.639 39.051l-13.674 36-12.148 0.38355c-11.592 0.36601-12.202 0.24404-13.328-2.6667zm63.875-36.384v-39.333h8.5049c8.1839 0 8.5671 0.15027 10.154 3.9812l1.649 3.9812 3.5127-2.4989c1.932-1.3744 6.8127-3.4792 10.846-4.6773 15.894-4.7216 31.642 2.3706 38.223 17.214 1.9528 4.4048 2.4497 10.15 2.8539 33l0.48942 27.667h-24.233v-24.487c0-22.327-0.2312-24.781-2.6215-27.82-4.0688-5.1727-9.8217-7.0491-15.967-5.2079-9.1499 2.7414-10.017 5.478-10.517 33.181l-0.43923 24.333h-22.455zm184 0v-39.333h8.5049c8.1596 0 8.571 0.15961 10.133 3.9308l1.6282 3.9308 4.9759-3.2929c6.3463-4.1998 13.088-6.154 17.758-5.1473 3.6572 0.78843 3.6667 0.82027 3.6675 12.351l8.2e-4 11.561-6.7016-0.46432c-4.661-0.32293-7.7402 0.21615-10.112 1.7704-6.0154 3.9415-7.1878 9.2671-7.1878 32.651v21.376h-22.667z" fill="#596069"/>
  <path d="m430.65 185.51c-7.4627-1.5697-13.164-5.6886-16.009-11.566-3.4449-7.1163-3.3359-13.335 0.36165-20.623 4.7156-9.2946 12.316-12.33 38.526-15.385 5.5675-0.64892 6.121-1.0185 5.4826-3.6612-2.168-8.9751-12.245-11.931-17.89-5.2468-3.023 3.5794-3.4317 3.6714-13.342 3-5.6229-0.38091-10.633-1.1024-11.133-1.6032-1.8033-1.8057 2.4384-10.838 7.4372-15.837 11.894-11.894 35.681-12.324 47.744-0.86242 8.7169 8.2821 9.4468 11.615 9.4795 43.277l0.0293 28.333h-7.9531c-6.8963 0-8.1605-0.39864-9.5139-3-0.85847-1.65-1.7421-3.2125-1.9636-3.4722s-3.5902 1.084-7.486 2.9859c-7.8204 3.8179-16.596 5.1693-23.769 3.6605zm23.141-18.912c4.1998-3.3036 7.4259-12.581 5.1621-14.845-2.0828-2.0828-18.447 0.71404-21.769 3.7206-3.1041 2.8092-3.2488 8.1748-0.30807 11.424 3.1038 3.4296 12.383 3.2651 16.915-0.29988zm243.55 18.872c-10.154-2.1556-17.238-7.7007-21.464-16.801-2.1653-4.6622-2.4807-8.8988-2.5063-33.667l-0.0293-28.333h21.079l0.46622 24.333c0.39297 20.512 0.83465 24.877 2.8125 27.794 4.3307 6.3884 14.731 8.6295 20.687 4.4579 6.1399-4.3006 6.9557-8.1929 6.9557-33.186v-23.4h22.667v78.667h-8.5049c-8.1057 0-8.5792-0.1795-10.089-3.8237l-1.5838-3.8237-6.9113 3.7147c-7.5943 4.0818-16.374 5.5962-23.578 4.0668zm-378.67-54.253v-54.119l27 0.48294c24.871 0.44487 27.551 0.72956 33.989 3.6112 13.402 5.9989 21.168 18.793 20.09 33.097-0.88896 11.798-7.0801 22.211-16.934 28.482l-3.1879 2.029 11.521 19.662c6.3367 10.814 11.521 19.935 11.521 20.267 0 0.33268-5.85 0.6036-13 0.60204l-13-3e-3 -9.8121-17.997-9.8121-17.997h-13.043v36h-25.333zm52.074-7.2544c1.4109-0.75508 3.5058-3.1918 4.6555-5.415 1.6971-3.2819 1.8059-4.9037 0.57844-8.623-2.3824-7.2188-5.5102-8.5892-19.604-8.5892h-12.37v24h12.088c6.6482 0 13.242-0.61779 14.653-1.3729zm144.14 51.04c-11.25-29.217-25.548-67.092-25.548-67.673 0-0.36305 5.3558-0.66009 11.902-0.66009h11.902l8.4052 25.333c4.6229 13.933 8.7289 25.333 9.1244 25.333s4.5016-11.4 9.1244-25.333l8.4052-25.333h12.044c10.927 0 11.96 0.21647 11.139 2.3333-0.49812 1.2833-7.2457 18.983-14.995 39.333l-14.089 37h-23.435zm66.452-29v-39.333h8.5049c8.0732 0 8.584 0.19095 10.063 3.7619l1.5582 3.7619 7.4581-3.7619c5.8616-2.9567 9.2822-3.7619 15.98-3.7619 14.256 0 22.351 4.8299 27.933 16.667 2.9861 6.3321 3.1445 8.055 3.1569 34.333l0.013 27.667h-21.333l-8e-3 -21c-4e-3 -11.55-0.60317-23.145-1.3313-25.766-2.6844-9.6634-12.703-14.361-21.227-9.9534-6.9942 3.6171-8.1008 8.2626-8.1008 34.01v22.71h-22.667zm184 0v-39.333h8.5362c8.3322 0 8.5704 0.098 9.9655 4.1 1.5212 4.3638 1.328 4.3854 9.351-1.0425 3.3191-2.2455 6.4176-3.0575 11.667-3.0575h7.1473v22.462l-7.3662-0.17246c-6.6298-0.15523-7.796 0.25709-11.667 4.1247l-4.3005 4.2972-0.835 47.955h-22.498z" fill="#363f4b"/>
  <path d="m320 131.33v-54h21.151c30.714 0 39.942 2.2944 49.71 12.359 9.3728 9.6581 11.61 25.622 5.3193 37.954-1.4928 2.9261-5.8184 8.1112-9.6124 11.522l-6.8982 6.2021 8.6764 14.981c4.772 8.2396 10.006 17.231 11.63 19.981l2.9538 5-26.263-0.0514-19.561-35.949h-14.439v36h-22.667zm46.8-6.0149c6.6948-1.8597 9.806-5.7409 9.806-12.233 0-4.2184-0.79491-6.0521-3.7107-8.5602-3.3763-2.9041-4.9058-3.1918-16.97-3.1918h-13.259v11.778c0 6.4778 0.4 12.178 0.88889 12.667 1.3655 1.3655 17.848 1.0398 23.245-0.45936zm57.8 58.139c-9.2739-4.0394-14.211-15.191-11.38-25.705 2.947-10.944 15.134-17.728 33.756-18.79 6.4704-0.36892 12.041-1.1177 12.378-1.6639 1.1056-1.789-2.2455-9.3258-4.7402-10.661-4.5105-2.414-10.546-1.4945-14.204 2.164-3.2177 3.2177-4.1732 3.4336-13.183 2.9786-5.3426-0.26978-10.134-0.91103-10.648-1.425-1.8752-1.8752 6.0766-15.319 11.102-18.77 13.369-9.1811 35.087-7.6041 45.236 3.2846 1.6045 1.7214 4.1413 5.8298 5.6374 9.1298 2.4541 5.4132 2.723 8.7057 2.7494 33.667l0.0293 27.667h-8.0694c-7.7672 0-8.1216-0.14979-9.4638-4-1.4539-4.1706-3.0051-5.0319-4.5527-2.5278-0.50043 0.80969-3.3858 2.5965-6.412 3.9707-6.5728 2.9847-22.088 3.3593-28.235 0.68165zm30.023-17.791c2.7474-2.5188 4.2683-5.4407 4.8581-9.3333l0.85867-5.6667-5.1704 8e-3c-6.6652 9e-3 -15.199 2.3571-18.17 4.9984-2.9007 2.5785-3.0283 8.7754-0.23809 11.566 1.2717 1.2717 4.4079 2.0952 7.979 2.0952 4.5602 0 6.7834-0.82483 9.8832-3.6667zm63.41 17.333c-4.3451-11.039-28.7-75.342-28.7-75.775 0-0.30723 5.2673-0.55861 11.705-0.55861h11.705l8.5829 25.979c4.7206 14.288 8.9784 25.538 9.4618 25 0.48342-0.5383 4.6037-12.229 9.1562-25.979l8.2772-25h23.74l-2.4576 6.3333c-1.3517 3.4833-8.0929 21.182-14.981 39.33l-12.523 32.997-11.524 4e-3c-9.7384 3e-3 -11.666-0.35817-12.442-2.33zm63.3-37v-39.333h8.3744c8.0764 0 8.4279 0.142 9.8809 3.9914l1.5066 3.9914 7.5878-3.9914c15.518-8.1629 34.104-3.8212 42.63 9.9582l4.0206 6.4983 0.85312 58.219h-21.52l-0.02933-22.333c-0.0337-25.736-1.6286-31.821-9.1571-34.939-5.6571-2.3433-13.218-0.9281-17.409 3.2582-3.3785 3.3753-3.4082 3.5989-3.8192 28.708l-0.41409 25.306h-22.505zm108.57 36.81c-6.4302-2.9206-13.444-10.954-15.259-17.476-0.71417-2.5667-1.3018-16.817-1.3059-31.667l-7e-3 -27h21.333v22.709c0 24.461 1.0688 29.753 6.8225 33.783 5.1495 3.6068 13.74 2.8248 18.823-1.7135l4.3544-3.8878 0.41414-25.446 0.41415-25.446h22.505v78.667h-8.5049c-8.1617 0-8.5707-0.1588-10.135-3.9352l-1.63-3.9353-6.9729 3.9353c-5.884 3.3207-8.4134 3.9307-16.198 3.906-6.0741-0.0193-11.08-0.87138-14.653-2.4945zm75.428-36.81v-39.333h16.798l3.4646 9.581 3.5356-3.2943c5.2439-4.886 8.6858-6.2868 15.448-6.2868h6.0877v22.788l-4.4511-0.83503c-6.1088-1.146-13.519 2.1669-16.127 7.2096-1.6563 3.2029-2.0886 8.7441-2.0886 26.772v22.733h-22.667z" fill="#1a2431"/>
 </g>
</svg>
