<svg width="2700" height="400" viewBox="0 0 2700 400" fill="none" xmlns="http://www.w3.org/2000/svg">
<path d="M239.97 160V120C239.97 53.7222 186.255 0 119.985 0C53.7156 0 0 53.7222 0 120V240L159.98 400V240H79.99V120C79.99 97.8889 97.8768 80 119.985 80C142.093 80 159.98 97.8889 159.98 120V240H239.97C262.079 240 279.965 257.889 279.965 280C279.965 292.778 273.966 304.111 264.634 311.444L159.98 400H239.97C306.24 400 359.955 346.278 359.955 280C359.955 213.722 306.24 160 239.97 160Z" fill="url(#paint0_linear_1220_2024)"/>
<path d="M643.025 195.5C655.912 198.778 667.244 206.667 677.076 219.223C686.908 231.778 691.852 246.834 691.852 264.5C691.852 287.223 683.52 305.723 666.91 319.945C650.301 334.167 629.86 341.334 605.64 341.334H449.938V60.2227H595.419C619.916 60.2227 640.414 66.9449 656.912 80.3338C673.41 93.7227 681.631 111.667 681.631 134.112C681.631 150.556 678.02 164.056 670.799 174.5C663.522 184.945 654.301 191.945 643.025 195.5ZM521.873 114.556V174.556H580.366C588.531 174.556 595.419 171.667 601.085 165.945C606.696 160.223 609.529 153.056 609.529 144.5C609.529 135.945 606.696 128.834 601.085 123.112C595.475 117.445 588.531 114.612 580.366 114.612H521.873V114.556ZM590.587 287.223C598.752 287.223 605.696 284.334 611.362 278.612C617.028 272.889 619.916 265.667 619.916 257.056C619.916 248.556 617.083 241.445 611.473 235.667C605.862 229.945 598.863 227.056 590.587 227.056H521.873V287.223H590.587Z" fill="#151127"/>
<path d="M822.666 117.056C840.33 117.056 855.773 119.945 868.993 125.667C882.158 131.445 891.879 139.445 898.045 149.778L900.878 120.556H965.37V341.278H900.878L898.045 311.889C886.102 333.722 860.994 344.611 822.666 344.611C803.113 344.611 785.337 339.889 769.339 330.389C753.341 320.889 740.62 307.5 731.288 290.111C721.9 272.722 717.234 253 717.234 230.889C717.234 208.833 721.9 189.056 731.288 171.722C740.676 154.333 753.341 140.889 769.339 131.333C785.337 121.833 803.113 117.056 822.666 117.056ZM801.168 272.778C812 283.556 825.388 288.945 841.33 288.945C857.272 288.945 870.715 283.556 881.603 272.778C892.546 262 897.99 248.056 897.99 230.945C897.99 213.833 892.546 199.889 881.603 189.111C870.66 178.333 857.272 172.945 841.33 172.945C825.388 172.945 812 178.333 801.168 189.111C790.336 199.889 784.893 213.833 784.893 230.945C784.893 248.056 790.336 262 801.168 272.778Z" fill="#151127"/>
<path d="M1167.07 341.334V230.945C1167.07 211.889 1163.68 197.445 1156.9 187.611C1150.13 177.834 1139.24 172.889 1124.24 172.889C1108.41 172.889 1096.3 178.056 1087.74 188.445C1079.25 198.834 1074.97 213 1074.97 230.889V341.222H1007.48V120.611H1071.97L1074.97 149.834C1087.69 128 1111.85 117.111 1147.51 117.111C1178.46 117.111 1200.67 126.778 1214.23 146.111C1227.78 165.445 1234.5 193.722 1234.5 231V341.334H1167.07Z" fill="#151127"/>
<path d="M1370.27 117.056C1387.93 117.056 1403.37 119.945 1416.59 125.667C1429.82 131.445 1439.48 139.445 1445.65 149.778L1448.48 120.556H1512.97V341.278H1448.48L1445.65 311.889C1433.7 333.722 1408.6 344.611 1370.27 344.611C1350.71 344.611 1332.94 339.889 1316.94 330.389C1300.94 320.889 1288.22 307.5 1278.89 290.111C1269.5 272.722 1264.84 253 1264.84 230.889C1264.84 208.833 1269.5 189.056 1278.89 171.722C1288.28 154.333 1300.94 140.889 1316.94 131.333C1332.88 121.833 1350.66 117.056 1370.27 117.056ZM1348.71 272.778C1359.55 283.556 1372.93 288.945 1388.88 288.945C1404.82 288.945 1418.26 283.556 1429.15 272.778C1440.09 262 1445.54 248.056 1445.54 230.945C1445.54 213.833 1440.09 199.889 1429.15 189.111C1418.21 178.333 1404.82 172.945 1388.88 172.945C1372.93 172.945 1359.55 178.333 1348.71 189.111C1337.88 199.889 1332.44 213.833 1332.44 230.945C1332.44 248.056 1337.88 262 1348.71 272.778Z" fill="#151127"/>
<path d="M1714.67 341.334V230.945C1714.67 211.889 1711.28 197.445 1704.5 187.611C1697.73 177.834 1686.84 172.889 1671.84 172.889C1656.01 172.889 1643.9 178.056 1635.35 188.445C1626.85 198.834 1622.57 213 1622.57 230.889V341.222H1555.08V120.611H1619.57L1622.57 149.834C1635.29 128 1659.45 117.111 1695.12 117.111C1726.06 117.111 1748.28 126.778 1761.83 146.111C1775.38 165.445 1782.11 193.722 1782.11 231V341.334H1714.67Z" fill="#151127"/>
<path d="M1917.81 117.056C1935.48 117.056 1950.92 119.945 1964.14 125.667C1977.36 131.445 1987.03 139.445 1993.19 149.778L1996.03 120.556H2060.52V341.278H1996.03L1993.19 311.889C1981.25 333.722 1956.14 344.611 1917.81 344.611C1898.26 344.611 1880.49 339.889 1864.49 330.389C1848.49 320.889 1835.77 307.5 1826.44 290.111C1817.05 272.722 1812.38 253 1812.38 230.889C1812.38 208.833 1817.05 189.056 1826.44 171.722C1835.82 154.333 1848.49 140.889 1864.49 131.333C1880.49 121.833 1898.26 117.056 1917.81 117.056ZM1896.32 272.778C1907.15 283.556 1920.54 288.945 1936.48 288.945C1952.42 288.945 1965.86 283.556 1976.75 272.778C1987.69 262 1993.14 248.056 1993.14 230.945C1993.14 213.833 1987.69 199.889 1976.75 189.111C1965.81 178.333 1952.42 172.945 1936.48 172.945C1920.54 172.945 1907.15 178.333 1896.32 189.111C1885.48 199.889 1880.04 213.833 1880.04 230.945C1880.04 248.056 1885.43 262 1896.32 272.778Z" fill="#151127"/>
<path d="M2279.88 60.2227H2351.81V341.278H2279.71V236.667H2175.83V341.334H2103.9V60.2227H2175.61V180.945H2279.88V60.2227Z" fill="#FEB000"/>
<path d="M2699.66 305.611L2651.84 352.056L2623.51 324.222C2599.12 337.944 2571.96 344.778 2541.91 344.778C2520.63 344.778 2500.58 341.222 2481.8 334.167C2463.03 327.111 2446.92 317.333 2433.47 304.889C2420.03 292.389 2409.37 277.167 2401.53 259.222C2393.7 241.278 2389.76 221.833 2389.76 200.889C2389.76 173.056 2396.48 148.111 2409.87 126.111C2423.25 104.111 2441.47 87.0556 2464.53 75.0556C2487.58 63.0556 2513.35 57 2541.91 57C2570.29 57 2596.07 63 2619.17 75.0556C2642.28 87.1111 2660.5 104.111 2673.83 126.111C2687.16 148.111 2693.83 173.056 2693.83 200.889C2693.83 230.056 2686.61 255.833 2672.11 278.333L2699.66 305.611ZM2460.36 200.944C2460.36 223.833 2468.25 242.778 2484.08 257.889C2499.91 273 2519.19 280.556 2541.96 280.556C2564.74 280.556 2584.01 273 2599.84 257.889C2615.67 242.778 2623.56 223.833 2623.56 200.944C2623.56 177.944 2615.67 158.944 2599.95 143.889C2584.23 128.889 2564.9 121.333 2541.96 121.333C2519.02 121.333 2499.74 128.833 2483.97 143.889C2468.19 158.944 2460.36 177.944 2460.36 200.944Z" fill="#FEB000"/>
<defs>
<linearGradient id="paint0_linear_1220_2024" x1="179.978" y1="0" x2="179.978" y2="400" gradientUnits="userSpaceOnUse">
<stop stop-color="#FEB000"/>
<stop offset="1" stop-color="#F2B101"/>
</linearGradient>
</defs>
</svg>
