<?xml version="1.0" encoding="UTF-8"?>
<svg width="158px" height="26px" viewBox="0 0 158 26" version="1.1" xmlns="http://www.w3.org/2000/svg" xmlns:xlink="http://www.w3.org/1999/xlink">
    <title>Group</title>
    <g id="Page-1" stroke="none" stroke-width="1" fill="none" fill-rule="evenodd">
        <g id="02-A---Dashboard-Landing-Copy-58" transform="translate(-31.000000, -24.000000)">
            <g id="Group" transform="translate(31.000000, 24.000000)">
                <path d="M24.7337017,0 C26.5010129,0 27.9337017,1.4326888 27.9337017,3.2 L27.9337017,3.2 L27.9337017,22.8 C27.9337017,24.5673112 26.5010129,26 24.7337017,26 L24.7337017,26 L3.2,26 C1.4326888,26 -2.164332e-16,24.5673112 0,22.8 L0,22.8 L0,3.2 C1.54870083e-15,1.4326888 1.4326888,-3.55271368e-15 3.2,0 L3.2,0 Z M23.1374901,1.625 L4.79621152,1.625 C3.02890032,1.625 1.59621152,3.0576888 1.59621152,4.825 L1.59621152,13.975 C1.59621152,19.7187614 6.25245013,24.375 11.9962115,24.375 L23.1374901,24.375 C24.9048013,24.375 26.3374901,22.9423112 26.3374901,21.175 L26.3374901,4.825 C26.3374901,3.0576888 24.9048013,1.625 23.1374901,1.625 Z" id="Combined-Shape" fill="#251E3B"></path>
                <path d="M10.3753749,6.68075485 C11.6977198,6.68075485 12.7696922,7.77206077 12.7696922,9.11825485 C12.7696922,10.4644489 11.6977198,11.5557548 10.3753749,11.5557548 C9.05302998,11.5557548 7.98105762,10.4644489 7.98105762,9.11825485 C7.98105762,7.77206077 9.05302998,6.68075485 10.3753749,6.68075485 Z M10.3753749,7.81245128 C9.74578228,7.81245128 9.19168009,8.37654699 9.19168009,9.11825485 C9.19168009,9.85996271 9.74578228,10.4240584 10.3753749,10.4240584 C11.0049675,10.4240584 11.5590697,9.85996271 11.5590697,9.11825485 C11.5590697,8.37654699 11.0049675,7.81245128 10.3753749,7.81245128 Z" id="Oval-Copy-99" fill="#9069FF" fill-rule="nonzero" transform="translate(10.375375, 9.118255) scale(1, -1) translate(-10.375375, -9.118255) "></path>
                <path d="M16.760221,6.68075485 C18.0825659,6.68075485 19.1545383,7.77206077 19.1545383,9.11825485 C19.1545383,10.4644489 18.0825659,11.5557548 16.760221,11.5557548 C15.4378761,11.5557548 14.3659037,10.4644489 14.3659037,9.11825485 C14.3659037,7.77206077 15.4378761,6.68075485 16.760221,6.68075485 Z M16.760221,7.81245128 C16.1196834,7.81245128 15.5630624,8.37911123 15.5630624,9.11825485 C15.5630624,9.85739847 16.1196834,10.4240584 16.760221,10.4240584 C17.4007586,10.4240584 17.9573796,9.85739847 17.9573796,9.11825485 C17.9573796,8.37911123 17.4007586,7.81245128 16.760221,7.81245128 Z" id="Oval-Copy-100" fill="#9069FF" fill-rule="nonzero" transform="translate(16.760221, 9.118255) scale(1, -1) translate(-16.760221, -9.118255) "></path>
                <path d="M10.3753749,13.1807548 C11.6977198,13.1807548 12.7696922,14.2720608 12.7696922,15.6182548 C12.7696922,16.9644489 11.6977198,18.0557548 10.3753749,18.0557548 C9.05302998,18.0557548 7.98105762,16.9644489 7.98105762,15.6182548 C7.98105762,14.2720608 9.05302998,13.1807548 10.3753749,13.1807548 Z M10.3753749,14.3124513 C9.74578228,14.3124513 9.19168009,14.876547 9.19168009,15.6182548 C9.19168009,16.3599627 9.74578228,16.9240584 10.3753749,16.9240584 C11.0049675,16.9240584 11.5590697,16.3599627 11.5590697,15.6182548 C11.5590697,14.876547 11.0049675,14.3124513 10.3753749,14.3124513 Z" id="Oval-Copy-101" fill="#9069FF" fill-rule="nonzero" transform="translate(10.375375, 15.618255) scale(1, -1) translate(-10.375375, -15.618255) "></path>
                <path d="M16.760221,13.1807548 C18.0825659,13.1807548 19.1545383,14.2720608 19.1545383,15.6182548 C19.1545383,16.9644489 18.0825659,18.0557548 16.760221,18.0557548 C15.4378761,18.0557548 14.3659037,16.9644489 14.3659037,15.6182548 C14.3659037,14.2720608 15.4378761,13.1807548 16.760221,13.1807548 Z M16.760221,14.3124513 C16.1196834,14.3124513 15.5630624,14.8791112 15.5630624,15.6182548 C15.5630624,16.3573985 16.1196834,16.9240584 16.760221,16.9240584 C17.4007586,16.9240584 17.9573796,16.3573985 17.9573796,15.6182548 C17.9573796,14.8791112 17.4007586,14.3124513 16.760221,14.3124513 Z" id="Oval-Copy-102" fill="#9069FF" fill-rule="nonzero" transform="translate(16.760221, 15.618255) scale(1, -1) translate(-16.760221, -15.618255) "></path>
                <line x1="25.7119819" y1="9.11825485" x2="18.8473937" y2="9.11825485" id="Path-44-Copy-11" stroke="#9069FF" stroke-width="1.2" stroke-linecap="square" stroke-linejoin="round" transform="translate(22.279688, 9.118255) scale(-1, -1) translate(-22.279688, -9.118255) "></line>
                <path d="M22.0398168,23.7694373 L20.4473937,23.7694373 C19.5637381,23.7694373 18.8473937,23.0530929 18.8473937,22.1694373 L18.8473937,15.6182532 L18.8473937,15.6182532" id="Path-44-Copy-12" stroke="#9069FF" stroke-width="1.2" stroke-linecap="square" stroke-linejoin="round" transform="translate(20.443605, 19.693845) scale(-1, -1) translate(-20.443605, -19.693845) "></path>
                <path d="M43.9029168,5.19602749 C44.6763073,5.19602749 45.3593532,5.28088767 45.9504941,5.4498815 C46.5423884,5.61886955 47.0459828,5.82092969 47.4634296,6.05451125 C47.880177,6.2888482 48.2220228,6.53070353 48.487568,6.7800545 C48.7524676,7.03016069 48.9537655,7.22766627 49.0907621,7.37262269 L47.1109835,9.6957079 C46.943585,9.55071712 46.7507351,9.39296667 46.5303891,9.22400152 C46.310043,9.0550363 46.0641916,8.89728593 45.7908442,8.75235234 C45.5182499,8.60736164 45.218052,8.48645969 44.8917568,8.38958937 C44.5654078,8.29266186 44.2207102,8.24385474 43.8562648,8.24385474 C43.6133191,8.24385474 43.3745704,8.28442238 43.1393732,8.36475669 C42.904176,8.44589197 42.6915783,8.55483538 42.5022798,8.69152949 C42.312271,8.82896744 42.1611227,8.99043702 42.0474091,9.1751944 C41.9336901,9.36069563 41.8764862,9.55826987 41.8764862,9.76780274 C41.8764862,10.3160669 42.1498336,10.7599653 42.6958292,11.0986967 C43.2417709,11.4374281 43.9926156,11.7197996 44.9482558,11.9451246 C45.5090487,12.0900582 46.0592951,12.2883763 46.5981878,12.537733 C47.1363811,12.7878335 47.6181292,13.1145491 48.0433246,13.5178797 C48.4678203,13.9212104 48.8089667,14.4168912 49.067463,15.005723 C49.3252598,15.5945549 49.454508,16.3081224 49.454508,17.1470547 C49.454508,17.8733246 49.3026602,18.5424908 48.9996642,19.1553543 C48.6959686,19.768275 48.2827727,20.3008043 47.7593767,20.7521982 C47.2359808,21.204336 46.6214869,21.5550259 45.9165947,21.8043826 C45.2998141,22.0232205 44.638664,22.1460759 43.9341178,22.1733704 L43.6295154,22.1792186 C42.8709761,22.1792186 42.1809242,22.1026035 41.5593654,21.9493734 C40.937107,21.7961432 40.376271,21.594907 39.8754909,21.3447493 C39.3747161,21.0946488 38.9233859,20.8085008 38.5214951,20.4855617 C38.1196043,20.1633663 37.7742071,19.8320733 37.48603,19.4933419 L39.6939838,16.9555456 C39.8910469,17.1816145 40.1227197,17.4114026 40.3882972,17.644967 C40.6531646,17.8793325 40.9491117,18.0926417 41.2754283,18.2863824 C41.601745,18.4801802 41.9584097,18.6371868 42.3447821,18.7580887 C42.7318271,18.8790479 43.1443236,18.9398708 43.5850695,18.9398708 C43.8428664,18.9398708 44.1006633,18.900047 44.3584601,18.8189116 C44.6162569,18.7385202 44.851508,18.6213946 45.0633523,18.4681645 C45.2760038,18.3149343 45.4462003,18.129433 45.5754484,17.9116608 C45.7039971,17.6938313 45.7689441,17.4482511 45.7689441,17.1733179 C45.7689441,16.5769904 45.4956503,16.1128369 44.9496548,15.7823449 C44.4037131,15.4519101 43.5391709,15.1251373 42.3560819,14.8021981 C41.7797222,14.6572073 41.245048,14.4476745 40.7520378,14.1727985 C40.259033,13.8986664 39.8338269,13.5681745 39.4778455,13.1806359 C39.1211593,12.7938413 38.8442659,12.3500002 38.6472027,11.849742 C38.4501449,11.349541 38.3512663,10.793724 38.3512663,10.1801167 C38.3512663,9.50265384 38.4649854,8.86575874 38.6924181,8.26868742 C38.9198507,7.67231421 39.264543,7.14355562 39.7278832,6.68389943 C40.1905185,6.22424315 40.7668728,5.86149733 41.4569408,5.59562182 C42.1470087,5.32974054 42.962074,5.19602749 43.9029168,5.19602749 Z" id="Combined-Shape-path-Copy-66" fill="#251E3B" fill-rule="nonzero"></path>
                <polygon id="Combined-Shape-path-Copy-67" fill="#251E3B" fill-rule="nonzero" points="52.6858739 10.4227788 54.5512554 17.7058471 56.6221319 10.4227788 59.2390039 10.4227788 61.3325338 17.7058471 63.1986149 10.4227788 66.4977795 10.4227788 62.8341695 21.7706811 59.8760973 21.7706811 57.8737192 15.4316548 55.8939406 21.7706811 52.9817672 21.7706811 49.3181571 10.4227788"></polygon>
                <path d="M72.3731781,2.43750023 C74.6851936,2.43896369 76.5775168,3.9580093 77.0754498,5.89787702 C77.1678882,6.25800261 77.2050374,6.60419862 77.1894301,6.92985382 L77.1838106,7.00621599 L77.1351092,10.4219377 L81.0783408,10.4225499 L79.9587996,13.1564327 L76.8962311,13.1564327 L76.8962311,17.6328368 C76.8962311,18.181101 76.9986827,18.6046869 77.2034781,18.9028507 C77.4083273,19.2017582 77.7303715,19.3504682 78.170418,19.3504682 C78.5038159,19.3504682 78.7919607,19.2896453 79.0349602,19.1687433 C79.1964577,19.0881421 79.3513785,18.998513 79.4997068,18.8998562 L79.7172529,18.7451002 L81.036639,20.8744161 C80.0047521,21.7456768 78.8824129,22.1812785 77.6689222,22.1812785 C76.9103828,22.1812785 76.2732894,22.0640958 75.7576419,21.8305313 C75.2420482,21.5969668 74.8246552,21.2740277 74.5061084,20.8624003 C74.1875618,20.451574 73.960113,19.9551495 73.823762,19.374557 C73.7069359,18.8769063 73.6399212,18.3318369 73.6231584,17.7392769 L73.6189666,17.439039 L73.6189666,13.1564327 L72.2607308,13.1564327 L71.7662838,10.4225499 L73.6189666,10.4225499 L73.6719143,9.23287029 L73.6713755,9.2121036 C73.6817761,9.09704076 73.7676332,8.9890227 73.910178,8.98912037 C75.5667098,8.99025527 76.5244527,8.24627177 76.6886825,7.13733886 L76.7049471,6.98184099 L76.7098254,6.6509363 L76.7077919,6.60099437 C76.6951504,6.41449791 76.6633826,6.22074794 76.6121435,6.02112872 C76.1687774,4.29384488 74.4652141,2.92632459 72.3729552,2.92500062 C70.5783044,2.92443601 68.8364434,4.09349863 68.102243,5.7170332 C68.3993771,5.50926363 68.7544383,5.38867449 69.1367131,5.38867449 L69.2712839,5.39370712 C70.2525007,5.46733351 71.0140775,6.33275651 71.0140775,7.37415044 C71.0140775,8.46837506 70.1759283,9.35960924 69.1367131,9.35960924 C68.0974612,9.35960924 67.2593485,8.46839359 67.2593485,7.37415044 C67.2593485,4.66691392 69.7584142,2.43667804 72.3731781,2.43750023 Z" id="Combined-Shape-path-Copy-68" fill="#251E3B" fill-rule="nonzero"></path>
                <path d="M86.6348282,10.0358125 C87.60532,10.0358125 88.4472625,10.2055787 89.1606565,10.5443101 C89.8732971,10.8830415 90.4722404,11.3351793 90.9582932,11.8992357 L88.9784067,14.1734852 C88.7354074,13.8835608 88.4394602,13.6252209 88.091265,13.399152 C87.7423164,13.173827 87.279724,13.0603634 86.7033807,13.0603634 C86.308533,13.0603634 85.9560871,13.1452752 85.6452888,13.3142404 C85.3338447,13.4832627 85.0682455,13.7055552 84.8485454,13.9796874 C84.6281995,14.2538194 84.4615,14.5722956 84.3478026,14.9350587 C84.2341053,15.2978216 84.1768532,15.6816409 84.1768532,16.0841706 C84.1768532,16.4552302 84.2341053,16.8217124 84.3478026,17.1852192 C84.4615,17.5479823 84.6281995,17.8709787 84.8485454,18.1533502 C85.0682455,18.4357789 85.3338447,18.6656242 85.6452888,18.842886 C85.9560871,19.0208916 86.308533,19.1087787 86.7033807,19.1087787 C87.2641737,19.1087787 87.7345676,18.991596 88.1138642,18.7580315 C88.4924616,18.5244098 88.7961568,18.2705329 89.0236058,17.995657 L90.9346174,20.2706503 C90.4948395,20.7866435 89.9149447,21.2305418 89.1945561,21.6015443 C88.4741124,21.9725467 87.6208703,22.1581052 86.6348282,22.1581052 C85.7702865,22.1581052 84.9848961,22.0085941 84.2800043,21.7104304 C83.5751117,21.4122667 82.9719178,20.9931438 82.4711216,20.4523751 C81.9703789,19.9123503 81.5797284,19.2709921 81.2993323,18.5289301 C81.0182363,17.786868 80.8783882,16.9727111 80.8783882,16.0849144 C80.8783882,15.245982 81.022487,14.4603769 81.3106319,13.7258676 C81.5988311,12.992045 81.9964761,12.3506297 82.5050211,11.8023082 C83.0128662,11.2540439 83.6196117,10.8222186 84.3252035,10.5075188 C85.0300953,10.192819 85.7999888,10.0358125 86.6348282,10.0358125 Z" id="Combined-Shape-path-Copy-69" fill="#251E3B" fill-rule="nonzero"></path>
                <polygon id="Combined-Shape-path-Copy-70" fill="#251E3B" fill-rule="nonzero" points="70.7752915 10.4227788 70.7752915 21.7706811 67.4987802 21.7706811 67.4987802 10.4227788"></polygon>
                <path d="M91.9806555,5.63242449 L95.234998,5.63242449 L95.234998,11.5118116 C95.5836776,11.07621 96.0464305,10.7419416 96.6227203,10.5076333 C97.1990101,10.2740688 97.7833712,10.1568861 98.3752656,10.1568861 C99.6042535,10.1568861 100.585722,10.5436808 101.321823,11.3180138 C102.057386,12.0924042 102.424898,13.2377397 102.424898,14.7533911 L102.424898,21.7698801 L99.1710944,21.7698801 L99.1710944,15.2851764 C99.1710944,14.6242497 99.0123591,14.1082565 98.6938128,13.736453 C98.3752656,13.3654506 97.9501777,13.1799494 97.4196257,13.1799494 C97.0704082,13.1799494 96.7599323,13.2490116 96.486585,13.3857058 C96.2137757,13.5231438 95.9856276,13.7041819 95.8042924,13.9302509 C95.6218813,14.1563197 95.4857452,14.4184361 95.3942711,14.7165998 C95.303335,15.0155646 95.2581351,15.3339835 95.2581351,15.6727149 L95.2581351,21.7698801 L91.9817321,21.7698801 L91.9817321,5.63242449 L91.9806555,5.63242449 Z" id="Combined-Shape-path-Copy-71" fill="#251E3B" fill-rule="nonzero"></path>
                <path d="M109.495344,10.0358125 C110.466051,10.0358125 111.307617,10.2055787 112.021118,10.5443101 C112.733543,10.8830415 113.333509,11.3351793 113.818863,11.8992357 L111.838707,14.1734852 C111.59603,13.8835608 111.300083,13.6252209 110.951941,13.399152 C110.602186,13.173827 110.139432,13.0603634 109.563681,13.0603634 C109.169264,13.0603634 108.81628,13.1452752 108.505805,13.3142404 C108.194253,13.4832627 107.928976,13.7055552 107.708899,13.9796874 C107.488823,14.2538194 107.322016,14.5722956 107.20848,14.9350587 C107.094406,15.2978216 107.037368,15.6816409 107.037368,16.0841706 C107.037368,16.4552302 107.094406,16.8217124 107.20848,17.1852192 C107.322016,17.5479823 107.488823,17.8709787 107.708899,18.1533502 C107.928976,18.4357789 108.194253,18.6656242 108.505805,18.842886 C108.81628,19.0208916 109.169264,19.1087787 109.563681,19.1087787 C110.124904,19.1087787 110.595191,18.991596 110.974541,18.7580315 C111.352816,18.5244098 111.656834,18.2705329 111.883906,17.995657 L113.795187,20.2706503 C113.35557,20.7866435 112.774976,21.2305418 112.055018,21.6015443 C111.406086,21.9354465 110.649936,22.119139 109.786959,22.1525385 L109.495344,22.1581052 L109.495344,22.1581052 C108.630641,22.1581052 107.846111,22.0085941 107.140681,21.7104304 C106.434712,21.4122667 105.831518,20.9931438 105.331637,20.4523751 C104.830679,19.9123503 104.440029,19.2709921 104.159686,18.5289301 C103.878806,17.786868 103.738903,16.9727111 103.738903,16.0849144 C103.738903,15.245982 103.882034,14.4603769 104.170987,13.7258676 C104.459401,12.992045 104.857046,12.3506297 105.365536,11.8023082 C105.873489,11.2540439 106.480988,10.8222186 107.18588,10.5075188 C107.890773,10.192819 108.660235,10.0358125 109.495344,10.0358125 Z" id="Combined-Shape-path-Copy-72" fill="#251E3B" fill-rule="nonzero"></path>
                <path d="M114.842301,5.63242449 L118.096105,5.63242449 L118.096105,11.5118116 C118.445323,11.07621 118.907539,10.7419416 119.483829,10.5076333 C120.060656,10.2740688 120.644479,10.1568861 121.236373,10.1568861 C122.464823,10.1568861 123.447367,10.5436808 124.18293,11.3180138 C124.918493,12.0924042 125.286544,13.2377397 125.286544,14.7533911 L125.286544,21.7698801 L122.032202,21.7698801 L122.032202,15.2851764 C122.032202,14.6242497 121.872929,14.1082565 121.554381,13.736453 C121.235835,13.3654506 120.811285,13.1799494 120.280195,13.1799494 C119.930978,13.1799494 119.620502,13.2490116 119.347155,13.3857058 C119.074345,13.5231438 118.846196,13.7041819 118.664862,13.9302509 C118.482451,14.1563197 118.346315,14.4184361 118.254841,14.7165998 C118.163904,15.0155646 118.118705,15.3339835 118.118705,15.6727149 L118.118705,21.7698801 L114.842301,21.7698801 L114.842301,5.63242449 L114.842301,5.63242449 Z" id="Combined-Shape-path-Copy-73" fill="#251E3B" fill-rule="nonzero"></path>
                <path d="M132.332776,10.0350115 C133.181875,10.0350115 133.955642,10.1919608 134.653539,10.5066606 C135.350898,10.8213604 135.950326,11.2532429 136.451283,11.8015071 C136.952242,12.3497713 137.341815,12.9911867 137.623234,13.7249522 C137.903576,14.4595187 138.044017,15.2451238 138.044017,16.0841134 C138.044017,16.9230457 137.903576,17.7093947 137.623234,18.4431601 C137.341815,19.1777266 136.952242,19.8183982 136.451283,20.3666624 C135.951402,20.9149838 135.351436,21.3505855 134.653539,21.6735247 C133.955642,21.9957773 133.181875,22.1572468 132.332776,22.1572468 C131.483139,22.1572468 130.705605,21.9957773 130.000712,21.6735247 C129.294744,21.3513293 128.692088,20.9157277 128.191668,20.3666624 C127.691249,19.8183982 127.300061,19.1777266 127.019718,18.4431601 C126.738837,17.7093947 126.598935,16.9230457 126.598935,16.0841134 C126.598935,15.2451238 126.738837,14.4595187 127.019718,13.7249522 C127.300061,12.9911867 127.691249,12.3497713 128.191668,11.8015071 C128.692088,11.2532429 129.294744,10.8213604 130.000712,10.5066606 C130.706143,10.1919608 131.483139,10.0350115 132.332776,10.0350115 Z M132.332776,13.060249 C131.923293,13.060249 131.555242,13.1451607 131.228624,13.3141832 C130.902544,13.4831483 130.633501,13.709961 130.420957,13.9915887 C130.207875,14.2740174 130.045912,14.5962128 129.9313,14.9589758 C129.817763,15.3217389 129.760188,15.6973187 129.760188,16.0841134 C129.760188,16.470908 129.817763,16.8464306 129.9313,17.2091937 C130.044836,17.5719566 130.207875,17.8986722 130.420957,18.1893405 C130.633501,18.4800086 130.902544,18.7098539 131.228624,18.878819 C131.555242,19.0485853 131.923293,19.1326959 132.332776,19.1326959 C132.74172,19.1326959 133.106005,19.0477842 133.424552,18.878819 C133.743098,18.7098539 134.012141,18.4792075 134.232756,18.1893405 C134.452295,17.8986722 134.615335,17.5727005 134.722414,17.2091937 C134.827879,16.8464306 134.881688,16.470908 134.881688,16.0841134 C134.881688,15.6973187 134.828955,15.3217389 134.722414,14.9589758 C134.616411,14.5962128 134.452833,14.2732164 134.232756,13.9915887 C134.012141,13.70916 133.743098,13.4831483 133.424552,13.3141832 C133.106005,13.1451607 132.74172,13.060249 132.332776,13.060249 Z" id="Combined-Shape" fill="#251E3B" fill-rule="nonzero"></path>
                <path d="M139.379545,10.4226643 L142.519814,10.4226643 L142.63335,11.8504287 C142.906159,11.463634 143.281743,11.0926316 143.760101,10.7373641 C144.237921,10.3828977 144.855643,10.2048349 145.614882,10.2048349 C145.902758,10.2048349 146.149201,10.2213709 146.354212,10.2529553 C146.559223,10.2852264 146.760467,10.3415863 146.957406,10.4226643 L146.433849,13.4952785 C146.100236,13.382616 145.705818,13.3255695 145.251136,13.3255695 C144.477369,13.3255695 143.851575,13.5718936 143.373756,14.0638552 C142.895935,14.5558168 142.656487,15.2535348 142.656487,16.1570665 L142.656487,21.7705666 L139.380084,21.7705666 L139.380084,10.4226643 L139.379545,10.4226643 Z" id="Combined-Shape-path-Copy-76" fill="#251E3B" fill-rule="nonzero"></path>
                <path d="M158,5.63158908 L158,21.7697656 L154.950669,21.7697656 L154.812919,20.6334133 C154.479306,21.05328 154.050452,21.4040273 153.52797,21.6856549 C153.004413,21.9680837 152.408752,22.1092409 151.741526,22.1092409 C151.088828,22.1092409 150.478639,21.9718029 149.909882,21.6976708 C149.341126,21.4235386 148.847701,21.032281 148.430685,20.5245272 C148.013668,20.0160868 147.683821,19.4039099 147.441145,18.6858794 C147.198469,17.9685928 147.077399,17.1574685 147.077399,16.2539368 C147.077399,15.2377426 147.248511,14.3469706 147.589657,13.580133 C147.930803,12.8140394 148.370957,12.1809206 148.909043,11.6807196 C149.447128,11.1804614 150.047094,10.8056826 150.706787,10.5555821 C151.36648,10.3054816 152.015411,10.1808032 152.652505,10.1808032 C153.167991,10.1808032 153.569941,10.2168507 153.858355,10.2897466 C154.146231,10.3625853 154.442178,10.4556792 154.746196,10.5675979 L154.746196,5.63158908 L158,5.63158908 Z M153.015712,13.1324583 C152.18168,13.1324583 151.53221,13.4314231 151.069456,14.0278078 C150.607241,14.6248791 150.375864,15.3909728 150.375864,16.3260317 C150.375864,17.148428 150.565271,17.8221716 150.944621,18.3464615 C151.323971,18.870694 151.892728,19.1327531 152.651429,19.1327531 C153.015174,19.1327531 153.329954,19.0644346 153.595769,18.9269967 C153.860507,18.7903026 154.080584,18.6085778 154.255462,18.3825088 C154.429802,18.1571838 154.554637,17.89049 154.630508,17.5840869 C154.705839,17.2776266 154.744044,16.9629268 154.744044,16.6407315 L154.744044,13.5440856 C154.517509,13.3990948 154.26999,13.2939851 154.005252,13.2293859 C153.739438,13.1647866 153.409591,13.1324583 153.015712,13.1324583 Z" id="Combined-Shape" fill="#251E3B" fill-rule="nonzero"></path>
            </g>
        </g>
    </g>
</svg>