<svg width="481" height="210" viewBox="0 0 481 210" fill="none" xmlns="http://www.w3.org/2000/svg">
<rect width="481" height="210" rx="20" fill="#1E1E1E"/>
<path d="M192.6 88.8H220.2V97.8H192.6V88.8ZM201.6 69.6H211.2V144H201.6V69.6ZM239.428 88.8V144H229.828V88.8H239.428ZM256.108 99.36C254.828 98.4 253.668 97.72 252.628 97.32C251.588 96.84 250.268 96.6 248.668 96.6C246.268 96.6 244.388 97.2 243.028 98.4C241.668 99.6 240.708 101.24 240.148 103.32C239.668 105.4 239.428 107.76 239.428 110.4H235.108C235.108 106 235.868 102.12 237.388 98.76C238.988 95.32 241.028 92.6 243.508 90.6C245.988 88.6 248.508 87.6 251.068 87.6C253.068 87.6 254.908 87.88 256.588 88.44C258.348 88.92 259.948 89.92 261.388 91.44L256.108 99.36ZM280.561 122.4C280.561 126.8 281.561 130.2 283.561 132.6C285.561 135 288.481 136.2 292.321 136.2C295.121 136.2 297.561 135.64 299.641 134.52C301.801 133.32 303.441 131.68 304.561 129.6C305.761 127.52 306.361 125.12 306.361 122.4V88.8H315.961V144H306.361V135.36C304.521 138.64 302.241 141.12 299.521 142.8C296.801 144.4 293.601 145.2 289.921 145.2C284.161 145.2 279.561 143.24 276.121 139.32C272.681 135.4 270.961 130.16 270.961 123.6V88.8H280.561V122.4ZM329.808 88.8H357.408V97.8H329.808V88.8ZM356.448 61.92C355.648 60.56 354.688 59.72 353.568 59.4C352.528 59 351.528 58.8 350.568 58.8C349.368 58.8 348.328 59.16 347.448 59.88C346.648 60.52 346.008 61.64 345.528 63.24C345.048 64.84 344.808 66.96 344.808 69.6V144H335.208V68.4C335.208 64 335.848 60.4 337.128 57.6C338.408 54.8 340.208 52.72 342.528 51.36C344.928 49.92 347.808 49.2 351.168 49.2C352.928 49.2 354.488 49.44 355.848 49.92C357.208 50.4 358.368 51 359.328 51.72C360.368 52.44 361.168 53.2 361.728 54L356.448 61.92ZM363.544 116.4C363.544 110.8 364.784 105.84 367.264 101.52C369.824 97.2 373.264 93.8 377.584 91.32C381.904 88.84 386.744 87.6 392.104 87.6C397.544 87.6 402.384 88.84 406.624 91.32C410.944 93.8 414.344 97.2 416.824 101.52C419.384 105.84 420.664 110.8 420.664 116.4C420.664 121.92 419.384 126.88 416.824 131.28C414.344 135.6 410.944 139 406.624 141.48C402.384 143.96 397.544 145.2 392.104 145.2C386.744 145.2 381.904 143.96 377.584 141.48C373.264 139 369.824 135.6 367.264 131.28C364.784 126.88 363.544 121.92 363.544 116.4ZM373.264 116.4C373.264 120.24 374.064 123.64 375.664 126.6C377.344 129.56 379.584 131.92 382.384 133.68C385.264 135.36 388.504 136.2 392.104 136.2C395.704 136.2 398.904 135.36 401.704 133.68C404.584 131.92 406.824 129.56 408.424 126.6C410.104 123.64 410.944 120.24 410.944 116.4C410.944 112.56 410.104 109.16 408.424 106.2C406.824 103.16 404.584 100.8 401.704 99.12C398.904 97.44 395.704 96.6 392.104 96.6C388.504 96.6 385.264 97.44 382.384 99.12C379.584 100.8 377.344 103.16 375.664 106.2C374.064 109.16 373.264 112.56 373.264 116.4Z" fill="white"/>
<path d="M108.201 74C104.831 74 54.8437 95.9043 54.0099 98.6321C53.6152 99.9235 65.0317 105.23 77.5 110.461L108.201 98.6321L139.45 110.461C151.762 105.362 163 100.173 163 98.6321C163 95.3292 111.572 74 108.201 74Z" fill="white" fill-opacity="0.5" stroke="white" stroke-opacity="0.5" stroke-width="8"/>
<path d="M108.201 98C106.423 98 93.6665 103.467 80 109.5L108.201 122.119L139.5 109.5C125.438 103.455 110.002 98 108.201 98Z" fill="#F1F1F1" stroke="#F1F1F1" stroke-width="8"/>
<path fill-rule="evenodd" clip-rule="evenodd" d="M108.201 144.995C105.033 144.995 53.1762 124.785 54.0099 122.114C54.4038 120.853 63.7651 116.901 76 111.5L108.201 122.114L142 111.5C154.263 116.771 163 120.608 163 122.114C163 125.348 111.37 144.996 108.201 144.995Z" fill="#C1C1C1" stroke="#C1C1C1" stroke-width="8"/>
<path d="M108.201 122C105.033 122 53.1762 101.36 54.0099 98.6321C54.8437 95.9043 104.831 74 108.201 74C111.572 74 163 95.3292 163 98.6321C163 101.935 111.37 122 108.201 122Z" stroke="white" stroke-width="8"/>
</svg>
