<svg width="1350" height="345" viewBox="0 0 1350 345" fill="none" xmlns="http://www.w3.org/2000/svg">
<path fill-rule="evenodd" clip-rule="evenodd" d="M1180.47 212.645V260.645C1131.87 260.645 1092.47 221.245 1092.47 172.645C1092.47 124.045 1131.87 84.6445 1180.47 84.6445V132.645C1158.38 132.645 1140.47 150.553 1140.47 172.645C1140.47 194.736 1158.38 212.645 1180.47 212.645Z" fill="#E4FF42"/>
<path fill-rule="evenodd" clip-rule="evenodd" d="M1004.47 132.645C1026.56 132.645 1044.47 150.553 1044.47 172.645C1044.47 194.736 1026.56 212.645 1004.47 212.645V260.645C1053.07 260.645 1092.47 221.245 1092.47 172.645C1092.47 124.045 1053.07 84.6445 1004.47 84.6445L1004.47 132.645Z" fill="#E4FF42"/>
<path d="M49.68 123.535H0V84.6548H148.56V123.535H98.64V260.335H49.68V123.535Z" fill="black"/>
<path d="M229.68 189.545H217.68V260.345H168.96V84.6548H232.32C277.92 84.6548 306.48 95.6948 308.16 134.335C308.88 160.975 288.48 173.215 275.52 177.055C295.68 182.335 308.16 196.735 308.64 223.375L309.6 260.335H260.16L259.44 222.415C258.96 198.895 242.88 190.015 229.68 189.535V189.545ZM236.64 156.665C251.76 156.665 258.24 150.905 258 139.865C257.76 129.065 251.52 123.785 236.64 123.785H217.68V156.665H236.64Z" fill="black"/>
<path d="M325.92 191.225V84.665H374.64V192.665C374.64 209.225 381.6 216.425 397.44 216.425C413.28 216.425 420.24 209.225 420.24 192.665V84.665H469.2V190.025C469.2 240.905 447.36 263.225 397.2 263.225C347.04 263.225 325.92 241.145 325.92 191.225Z" fill="black"/>
<path d="M560.16 119.695C550.56 119.695 544.08 124.495 544.08 132.415C544.08 142.735 552.24 146.335 560.88 149.935C593.52 160.015 627.84 171.295 626.88 210.415C626.16 244.975 605.28 263.215 559.92 263.215C521.52 263.215 493.44 247.855 492.96 202.975V201.535L541.92 203.935C542.88 217.615 549.84 222.415 561.36 223.135C572.64 223.615 579.6 218.335 578.64 208.255C576.24 182.095 496.56 194.095 496.56 133.615C496.56 92.5749 526.56 81.7749 561.36 81.7749C596.16 81.7749 625.68 95.6949 625.92 138.175V139.855L578.64 137.455C578.4 123.295 571.2 119.695 560.16 119.695Z" fill="black"/>
<path d="M688.08 123.535H638.4V84.6548H786.96V123.535H737.04V260.335H688.08V123.535Z" fill="black"/>
<path d="M807.36 84.6548H897.6L935.28 237.295V84.6548H984.24V260.335H893.04L856.08 113.935V260.335H807.36V84.6548Z" fill="black"/>
<path d="M1248.38 123.535H1198.7V84.6548H1347.26V123.535H1297.34V260.335H1248.38V123.535Z" fill="black"/>
</svg>
