<svg version="1.1" id="Layer_1" xmlns="http://www.w3.org/2000/svg" xmlns:xlink="http://www.w3.org/1999/xlink" x="0px" y="0px"
	 width="100%" viewBox="0 0 930 930" enable-background="new 0 0 930 930" xml:space="preserve">
<path fill="#FFFFFF" opacity="1.000000" stroke="none" 
	d="
M931.000000,330.000000 
	C931.000000,530.666687 931.000000,730.833313 931.000000,931.000000 
	C621.000000,931.000000 311.000000,931.000000 1.000000,931.000000 
	C1.000000,621.000000 1.000000,311.000000 1.000000,1.000000 
	C311.000000,1.000000 621.000000,1.000000 931.000000,1.000000 
	C931.000000,110.500000 931.000000,220.000000 931.000000,330.000000 
M910.253540,568.779419 
	C921.715027,520.025024 924.909119,470.721039 920.187744,420.874023 
	C915.093079,367.086090 900.983032,315.763397 877.504395,267.135223 
	C794.350830,94.910477 618.142334,-6.092143 427.062164,8.844760 
	C370.104797,13.297168 315.964935,28.360033 264.661224,53.389629 
	C75.402618,145.723450 -25.844645,353.897400 17.880398,560.516968 
	C70.794319,810.557983 322.557892,969.327881 571.042603,909.358276 
	C739.962708,868.590942 869.446350,738.831726 910.253540,568.779419 
z"/>
<path fill="#676767" opacity="1.000000" stroke="none" 
	d="
M910.171448,569.184692 
	C869.446350,738.831726 739.962708,868.590942 571.042603,909.358276 
	C322.557892,969.327881 70.794319,810.557983 17.880398,560.516968 
	C-25.844645,353.897400 75.402618,145.723450 264.661224,53.389629 
	C315.964935,28.360033 370.104797,13.297168 427.062164,8.844760 
	C618.142334,-6.092143 794.350830,94.910477 877.504395,267.135223 
	C900.983032,315.763397 915.093079,367.086090 920.187744,420.874023 
	C924.909119,470.721039 921.715027,520.025024 910.171448,569.184692 
M650.102722,797.630005 
	C779.011169,725.786743 854.343445,587.778503 845.219177,440.065369 
	C841.787292,384.506378 826.553406,332.315002 800.254272,283.293060 
	C719.907837,133.526688 546.846375,54.817200 381.225006,92.747490 
	C197.607529,134.799225 73.412743,300.810944 84.790276,489.067963 
	C87.876152,540.127930 101.084450,588.523682 123.818382,634.294556 
	C193.202408,773.987610 341.318237,857.314941 496.610199,844.230530 
	C550.863159,839.659424 601.776978,824.206726 650.102722,797.630005 
z"/>
<path fill="#FFFFFF" opacity="1.000000" stroke="none" 
	d="
M649.777344,797.802979 
	C601.776978,824.206726 550.863159,839.659424 496.610199,844.230530 
	C341.318237,857.314941 193.202408,773.987610 123.818382,634.294556 
	C101.084450,588.523682 87.876152,540.127930 84.790276,489.067963 
	C73.412743,300.810944 197.607529,134.799225 381.225006,92.747490 
	C546.846375,54.817200 719.907837,133.526688 800.254272,283.293060 
	C826.553406,332.315002 841.787292,384.506378 845.219177,440.065369 
	C854.343445,587.778503 779.011169,725.786743 649.777344,797.802979 
M308.500061,514.719910 
	C300.713715,514.719910 292.927399,514.719910 285.225739,514.719910 
	C284.684204,512.648804 284.282501,511.112549 283.938507,509.796936 
	C271.501068,509.796936 259.425171,509.796936 247.409943,509.796936 
	C244.181686,534.965942 263.353424,551.713989 281.047882,551.867615 
	C306.365997,552.087524 331.691071,552.177124 357.006195,551.823547 
	C373.160217,551.597900 387.621185,538.899414 390.024933,522.975952 
	C391.109253,515.792847 390.842682,508.377991 390.863403,501.067383 
	C390.931000,477.242218 376.069489,462.361908 352.291962,462.325317 
	C331.635864,462.293518 310.979736,462.318146 290.323608,462.317841 
	C288.557068,462.317810 286.790527,462.317841 284.867645,462.317841 
	C284.867645,457.200500 284.867645,452.794128 284.867645,448.154846 
	C307.717072,448.154846 330.281738,448.154846 352.799133,448.154846 
	C353.104218,449.852600 353.358124,451.265778 353.595490,452.586731 
	C366.135559,452.586731 378.364655,452.586731 390.551941,452.586731 
	C392.758087,429.636169 379.320251,411.723663 357.446777,410.824951 
	C331.677155,409.766235 305.806885,409.946533 280.023926,410.844269 
	C262.457733,411.455933 249.057205,425.198303 247.349609,442.303253 
	C246.690598,448.904694 247.084702,455.616913 247.095215,462.278503 
	C247.130737,484.783386 262.213623,499.949219 284.627014,499.990112 
	C305.616241,500.028381 326.605560,499.998596 347.594849,499.998749 
	C349.361847,499.998779 351.128845,499.998749 352.783142,499.998749 
	C352.783142,505.234680 352.783142,509.794617 352.783142,514.719727 
	C338.099213,514.719727 323.799652,514.719727 308.500061,514.719910 
M686.782715,441.357056 
	C686.782715,431.242462 686.782715,421.127869 686.782715,410.957520 
	C685.644287,410.694977 685.016663,410.423737 684.389099,410.423584 
	C648.901917,410.415497 613.406921,409.987335 577.930786,410.619110 
	C558.651062,410.962433 544.447144,425.066010 543.839355,444.262573 
	C543.064880,468.725555 542.997192,493.250183 543.781799,517.711121 
	C544.440369,538.243408 559.883667,551.923889 580.500427,551.952393 
	C614.322144,551.999146 648.143982,551.965881 681.965759,551.966431 
	C683.552551,551.966431 685.139343,551.966431 686.626953,551.966431 
	C686.626953,539.151184 686.626953,527.068604 686.626953,514.605103 
	C651.344849,514.605103 616.407715,514.605103 581.269897,514.605103 
	C581.269897,492.190216 581.269897,470.165771 581.269897,447.671936 
	C616.534241,447.671936 651.437744,447.671936 686.782593,447.671936 
	C686.782593,445.580811 686.782593,443.945557 686.782715,441.357056 
M135.963638,506.497192 
	C135.970139,509.996857 135.934906,513.497192 135.990097,516.996094 
	C136.276352,535.142151 150.645828,551.041931 168.730072,551.715942 
	C187.363129,552.410339 206.043945,551.825928 224.703796,551.774353 
	C224.962311,551.773621 225.219833,551.422913 225.412552,551.283020 
	C225.412552,539.165588 225.412552,527.109436 225.412552,514.573486 
	C207.921066,514.573486 190.821136,514.573486 173.456009,514.573486 
	C173.456009,492.185303 173.456009,470.286957 173.456009,447.794556 
	C190.936432,447.794556 208.160370,447.794556 225.515167,447.794556 
	C225.515167,435.127106 225.515167,423.055084 225.515167,410.297821 
	C208.019882,410.297821 190.808075,410.297821 173.082291,410.297821 
	C173.082291,396.043427 173.082291,382.467560 173.082291,368.746582 
	C160.464813,368.746582 148.378174,368.746582 135.963638,368.746582 
	C135.963638,414.535187 135.963638,460.016663 135.963638,506.497192 
M706.959900,460.500000 
	C706.966980,479.331970 706.855469,498.164948 707.015137,516.995605 
	C707.169128,535.152405 721.640381,551.039917 739.725403,551.715332 
	C758.358093,552.411072 777.038757,551.825256 795.698364,551.773376 
	C795.956543,551.772644 796.213806,551.421509 796.405518,551.281921 
	C796.405518,539.164429 796.405518,527.109009 796.405518,514.572388 
	C778.912903,514.572388 761.813293,514.572388 744.449463,514.572388 
	C744.449463,492.183044 744.449463,470.284943 744.449463,447.792358 
	C761.931458,447.792358 779.154785,447.792358 796.508179,447.792358 
	C796.508179,435.124725 796.508179,423.052948 796.508179,410.297424 
	C779.011841,410.297424 761.800171,410.297424 744.077332,410.297424 
	C744.077332,396.044617 744.077332,382.467285 744.077332,368.746674 
	C731.462646,368.746674 719.376160,368.746674 706.959961,368.746674 
	C706.959961,399.202423 706.959961,429.351196 706.959900,460.500000 
M415.359009,537.493347 
	C415.359009,542.246643 415.359009,546.999939 415.359009,551.654053 
	C428.273529,551.654053 440.364807,551.654053 453.016388,551.654053 
	C453.016388,516.953064 453.016388,482.563904 453.016388,447.874512 
	C466.058990,447.874512 478.537018,447.874512 491.015015,447.874512 
	C503.611145,447.874512 516.207275,447.874512 528.787231,447.874512 
	C528.787231,435.051300 528.787231,422.953857 528.787231,410.635132 
	C527.564148,410.532349 526.592163,410.379761 525.619995,410.379333 
	C500.954163,410.368622 476.288208,410.331757 451.622742,410.428894 
	C448.489899,410.441254 445.279144,410.850555 442.242096,411.619476 
	C426.025635,415.725433 415.437134,429.825867 415.385315,447.498291 
	C415.298370,477.163727 415.360138,506.829559 415.359009,537.493347 
z"/>
<path fill="#686868" opacity="1.000000" stroke="none" 
	d="
M309.000061,514.719849 
	C323.799652,514.719727 338.099213,514.719727 352.783142,514.719727 
	C352.783142,509.794617 352.783142,505.234680 352.783142,499.998749 
	C351.128845,499.998749 349.361847,499.998779 347.594849,499.998749 
	C326.605560,499.998596 305.616241,500.028381 284.627014,499.990112 
	C262.213623,499.949219 247.130737,484.783386 247.095215,462.278503 
	C247.084702,455.616913 246.690598,448.904694 247.349609,442.303253 
	C249.057205,425.198303 262.457733,411.455933 280.023926,410.844269 
	C305.806885,409.946533 331.677155,409.766235 357.446777,410.824951 
	C379.320251,411.723663 392.758087,429.636169 390.551941,452.586731 
	C378.364655,452.586731 366.135559,452.586731 353.595490,452.586731 
	C353.358124,451.265778 353.104218,449.852600 352.799133,448.154846 
	C330.281738,448.154846 307.717072,448.154846 284.867645,448.154846 
	C284.867645,452.794128 284.867645,457.200500 284.867645,462.317841 
	C286.790527,462.317841 288.557068,462.317810 290.323608,462.317841 
	C310.979736,462.318146 331.635864,462.293518 352.291962,462.325317 
	C376.069489,462.361908 390.931000,477.242218 390.863403,501.067383 
	C390.842682,508.377991 391.109253,515.792847 390.024933,522.975952 
	C387.621185,538.899414 373.160217,551.597900 357.006195,551.823547 
	C331.691071,552.177124 306.365997,552.087524 281.047882,551.867615 
	C263.353424,551.713989 244.181686,534.965942 247.409943,509.796936 
	C259.425171,509.796936 271.501068,509.796936 283.938507,509.796936 
	C284.282501,511.112549 284.684204,512.648804 285.225739,514.719910 
	C292.927399,514.719910 300.713715,514.719910 309.000061,514.719849 
z"/>
<path fill="#676767" opacity="1.000000" stroke="none" 
	d="
M686.782654,441.833679 
	C686.782593,443.945557 686.782593,445.580811 686.782593,447.671936 
	C651.437744,447.671936 616.534241,447.671936 581.269897,447.671936 
	C581.269897,470.165771 581.269897,492.190216 581.269897,514.605103 
	C616.407715,514.605103 651.344849,514.605103 686.626953,514.605103 
	C686.626953,527.068604 686.626953,539.151184 686.626953,551.966431 
	C685.139343,551.966431 683.552551,551.966431 681.965759,551.966431 
	C648.143982,551.965881 614.322144,551.999146 580.500427,551.952393 
	C559.883667,551.923889 544.440369,538.243408 543.781799,517.711121 
	C542.997192,493.250183 543.064880,468.725555 543.839355,444.262573 
	C544.447144,425.066010 558.651062,410.962433 577.930786,410.619110 
	C613.406921,409.987335 648.901917,410.415497 684.389099,410.423584 
	C685.016663,410.423737 685.644287,410.694977 686.782715,410.957520 
	C686.782715,421.127869 686.782715,431.242462 686.782654,441.833679 
z"/>
<path fill="#676767" opacity="1.000000" stroke="none" 
	d="
M135.963638,505.997681 
	C135.963638,460.016663 135.963638,414.535187 135.963638,368.746582 
	C148.378174,368.746582 160.464813,368.746582 173.082291,368.746582 
	C173.082291,382.467560 173.082291,396.043427 173.082291,410.297821 
	C190.808075,410.297821 208.019882,410.297821 225.515167,410.297821 
	C225.515167,423.055084 225.515167,435.127106 225.515167,447.794556 
	C208.160370,447.794556 190.936432,447.794556 173.456009,447.794556 
	C173.456009,470.286957 173.456009,492.185303 173.456009,514.573486 
	C190.821136,514.573486 207.921066,514.573486 225.412552,514.573486 
	C225.412552,527.109436 225.412552,539.165588 225.412552,551.283020 
	C225.219833,551.422913 224.962311,551.773621 224.703796,551.774353 
	C206.043945,551.825928 187.363129,552.410339 168.730072,551.715942 
	C150.645828,551.041931 136.276352,535.142151 135.990097,516.996094 
	C135.934906,513.497192 135.970139,509.996857 135.963638,505.997681 
z"/>
<path fill="#676767" opacity="1.000000" stroke="none" 
	d="
M706.959961,460.000000 
	C706.959961,429.351196 706.959961,399.202423 706.959961,368.746674 
	C719.376160,368.746674 731.462646,368.746674 744.077332,368.746674 
	C744.077332,382.467285 744.077332,396.044617 744.077332,410.297424 
	C761.800171,410.297424 779.011841,410.297424 796.508179,410.297424 
	C796.508179,423.052948 796.508179,435.124725 796.508179,447.792358 
	C779.154785,447.792358 761.931458,447.792358 744.449463,447.792358 
	C744.449463,470.284943 744.449463,492.183044 744.449463,514.572388 
	C761.813293,514.572388 778.912903,514.572388 796.405518,514.572388 
	C796.405518,527.109009 796.405518,539.164429 796.405518,551.281921 
	C796.213806,551.421509 795.956543,551.772644 795.698364,551.773376 
	C777.038757,551.825256 758.358093,552.411072 739.725403,551.715332 
	C721.640381,551.039917 707.169128,535.152405 707.015137,516.995605 
	C706.855469,498.164948 706.966980,479.331970 706.959961,460.000000 
z"/>
<path fill="#696969" opacity="1.000000" stroke="none" 
	d="
M415.359192,536.994263 
	C415.360138,506.829559 415.298370,477.163727 415.385315,447.498291 
	C415.437134,429.825867 426.025635,415.725433 442.242096,411.619476 
	C445.279144,410.850555 448.489899,410.441254 451.622742,410.428894 
	C476.288208,410.331757 500.954163,410.368622 525.619995,410.379333 
	C526.592163,410.379761 527.564148,410.532349 528.787231,410.635132 
	C528.787231,422.953857 528.787231,435.051300 528.787231,447.874512 
	C516.207275,447.874512 503.611145,447.874512 491.015015,447.874512 
	C478.537018,447.874512 466.058990,447.874512 453.016388,447.874512 
	C453.016388,482.563904 453.016388,516.953064 453.016388,551.654053 
	C440.364807,551.654053 428.273529,551.654053 415.359009,551.654053 
	C415.359009,546.999939 415.359009,542.246643 415.359192,536.994263 
z"/>
</svg>