<?xml version="1.0" encoding="UTF-8"?>
<svg version="1.1" xmlns="http://www.w3.org/2000/svg" width="3508" height="2480">
<path d="M0 0 C1157.64 0 2315.28 0 3508 0 C3508 818.4 3508 1636.8 3508 2480 C2350.36 2480 1192.72 2480 0 2480 C0 1661.6 0 843.2 0 0 Z " fill="#FEFEFE" transform="translate(0,0)"/>
<path d="M0 0 C26.07 0 52.14 0 79 0 C77.72712082 5.72795629 76.47948976 10.94922965 74.671875 16.4609375 C74.44672211 17.1517038 74.22156921 17.84247009 73.98959351 18.5541687 C73.24706688 20.82911106 72.49860081 23.10204992 71.75 25.375 C71.21559142 27.00735881 70.68158416 28.63984905 70.14794922 30.27246094 C69.30506239 32.85043976 68.46166458 35.42824479 67.61654663 38.00549316 C65.59081254 44.18358753 63.58399522 50.36759303 61.5859375 56.5546875 C60.71321974 59.2521483 59.84014482 61.9494932 58.96691895 64.64678955 C58.42874567 66.31081944 57.89146655 67.97513895 57.35534668 69.63983154 C53.53974524 81.48004455 49.55437143 93.259141 45.5201149 105.02620292 C38.19389565 126.40611056 31.00644077 147.83093188 23.86425781 169.27290106 C22.26784757 174.06473806 20.66992302 178.85607015 19.07226562 183.64749146 C16.40241056 191.65526216 13.73378719 199.66344249 11.06591797 207.671875 C8.00130637 216.87118882 4.93450085 226.06976913 1.8666048 235.26798809 C-0.8006786 243.265278 -3.46677624 251.26296252 -6.13190937 259.26096928 C-7.70964821 263.99572732 -9.28776709 268.73035765 -10.86697388 273.46462631 C-12.34594131 277.8986054 -13.82340081 282.33308432 -15.29977608 286.76792717 C-15.83534489 288.37593585 -16.37140178 289.98378207 -16.90803337 291.59143639 C-19.98795794 300.81955033 -22.99614808 310.06642521 -25.90281677 319.35072601 C-28.4554883 327.4980307 -31.16092399 335.5928209 -33.875 343.6875 C-35.56625 348.740625 -37.2575 353.79375 -39 359 C-61.44 359 -83.88 359 -107 359 C-114.1875 338.375 -114.1875 338.375 -116.42260742 331.95849609 C-120.84181221 319.27914336 -125.2928974 306.61426114 -129.92895508 294.01220703 C-133.33449325 284.74387012 -136.58447781 275.43773064 -139.65380859 266.05249023 C-142.5281052 256.65571143 -142.5281052 256.65571143 -147 248 C-151.70895157 260.91786477 -156.38456174 273.83684326 -160.61547852 286.9206543 C-161.90205133 290.86423584 -163.26822927 294.73697876 -164.8359375 298.578125 C-167.45415456 305.01657863 -169.74047531 311.57159788 -172.04418945 318.12719727 C-172.7980434 320.27138114 -173.55597716 322.41408805 -174.31445312 324.55664062 C-178.3460553 335.99767382 -182.16244971 347.48734912 -186 359 C-208.44 359 -230.88 359 -254 359 C-254.99 356.03 -255.98 353.06 -257 350 C-257.73956639 347.7893008 -258.47914023 345.57860406 -259.21916199 343.36805725 C-260.66857181 339.0375829 -262.11577138 334.70637073 -263.5625 330.375 C-263.87568176 329.43739838 -264.18886353 328.49979675 -264.51153564 327.53378296 C-268.36795909 315.98106854 -272.17503198 304.41636522 -275.875 292.8125 C-280.08977215 279.60383269 -284.56797358 266.49068475 -289.0625 253.375 C-293.80071347 239.5464695 -298.44084785 225.71618896 -302.6796875 211.72509766 C-306.4861051 199.22796988 -310.66994014 186.85727105 -314.83666992 174.4765625 C-315.11274078 173.65496643 -315.38881165 172.83337036 -315.67324829 171.98687744 C-316.19655956 170.43050836 -316.72130487 168.87462054 -317.24765015 167.3192749 C-319 162.11106894 -319 162.11106894 -319 161 C-292.27 161 -265.54 161 -238 161 C-229.19053118 189.63077367 -229.19053118 189.63077367 -225.51953125 202.65625 C-224.39932119 206.62319107 -223.24417067 210.57869413 -222.07421875 214.53125 C-221.7501001 215.62872559 -221.42598145 216.72620117 -221.09204102 217.85693359 C-220.4590102 219.99622935 -219.82289834 222.1346164 -219.18334961 224.27197266 C-218.89854736 225.2366748 -218.61374512 226.20137695 -218.3203125 227.1953125 C-218.06523926 228.05141113 -217.81016602 228.90750977 -217.54736328 229.78955078 C-217 232 -217 232 -217 235 C-216.34 235 -215.68 235 -215 235 C-214.73807861 233.72600342 -214.47615723 232.45200684 -214.20629883 231.1394043 C-213.03789728 225.89365427 -211.41848945 220.85707664 -209.69921875 215.76953125 C-209.38096634 214.81664719 -209.06271393 213.86376312 -208.7348175 212.88200378 C-208.063687 210.87529926 -207.3904089 208.86931184 -206.71508789 206.86401367 C-205.69672749 203.83990186 -204.68467497 200.81373995 -203.67382812 197.78710938 C-200.61301823 188.64158699 -197.50623306 179.51963741 -194.23120117 170.44848633 C-192.77195921 166.36127777 -191.36039031 162.25901297 -189.95703125 158.15234375 C-189.69915329 157.39774368 -189.44127533 156.64314362 -189.17558289 155.86567688 C-188.11689358 152.764789 -187.05977664 149.66336697 -186.00317383 146.56176758 C-185.21805196 144.2582519 -184.4313612 141.95527643 -183.64453125 139.65234375 C-183.40805374 138.95648666 -183.17157623 138.26062958 -182.92793274 137.54368591 C-181.70959082 133.97960367 -180.40038103 130.50095258 -179 127 C-157.22 127 -135.44 127 -113 127 C-108.49899396 138.25251509 -108.49899396 138.25251509 -106.80859375 143.23950195 C-106.23592522 144.92292946 -106.23592522 144.92292946 -105.65168762 146.6403656 C-105.25100571 147.82767776 -104.85032379 149.01498993 -104.4375 150.23828125 C-104.00475535 151.5147562 -103.57182329 152.79116763 -103.13871765 154.06752014 C-101.99129046 157.4518683 -100.8476796 160.8374935 -99.70516586 164.22350311 C-98.9983341 166.31743511 -98.29042082 168.41099848 -97.58218384 170.50445557 C-90.21623447 192.28089604 -82.97580715 214.09503454 -76 236 C-68.14300308 212.9075576 -68.14300308 212.9075576 -61.0234375 189.58203125 C-57.91503425 178.70261989 -54.3410214 167.97728955 -50.75 157.25 C-46.55633799 144.72079823 -42.48185081 132.15686226 -38.4609375 119.57128906 C-36.69499589 114.04418966 -34.92544724 108.51824546 -33.15625 102.9921875 C-30.09751514 93.43743437 -27.04004949 83.882276 -23.98358154 74.32679749 C-22.27957867 68.99963671 -20.57526546 63.67257554 -18.87036133 58.34570312 C-14.7527445 45.48294781 -14.7527445 45.48294781 -10.64453125 32.6171875 C-10.33193359 31.6375 -10.01933594 30.6578125 -9.69726562 29.6484375 C-9.09502896 27.7606316 -8.49349357 25.87260188 -7.89257812 23.984375 C-5.33143456 15.96409244 -2.66314588 7.98943765 0 0 Z " fill="#F3703F" transform="translate(2229,1059)"/>
<path d="M0 0 C0.97453125 0.2165625 1.9490625 0.433125 2.953125 0.65625 C32.60576768 7.93935522 60.5685267 26.83053378 76.78808594 52.91845703 C88.29645583 72.68484738 94.42095504 92.87032971 94.3125 115.8125 C94.30512817 117.66343262 94.30512817 117.66343262 94.29760742 119.55175781 C94.18350787 128.42460689 93.47066274 136.44234155 91 145 C90.83371094 145.62696777 90.66742187 146.25393555 90.49609375 146.89990234 C82.52665989 176.92548233 62.80469831 202.98763074 36.01098633 218.78662109 C5.66329714 235.85599107 -29.03211721 240.50167896 -63 233 C-64.03253906 232.80664062 -65.06507812 232.61328125 -66.12890625 232.4140625 C-83.93815117 228.68260166 -101.25935506 218.66790358 -115 207 C-115.94617187 206.19949219 -116.89234375 205.39898438 -117.8671875 204.57421875 C-138.86875957 186.33512488 -153.17069691 159.76707071 -156 132 C-158.21017182 93.29989146 -148.74110865 63.10358327 -123.1796875 33.921875 C-92.58375244 1.33919091 -42.62849744 -10.05213477 0 0 Z " fill="#F3703F" transform="translate(1805,1185)"/>
<path d="M0 0 C31.80375 -0.0928125 31.80375 -0.0928125 64.25 -0.1875 C70.90704102 -0.21481201 77.56408203 -0.24212402 84.42285156 -0.27026367 C92.64794922 -0.28381348 92.64794922 -0.28381348 96.51702881 -0.28633118 C99.17882964 -0.29089229 101.84017959 -0.30018037 104.50189209 -0.31672668 C123.91727554 -0.43205186 143.35089033 -0.42209544 161.875 6.1875 C162.74229736 6.48865723 163.60959473 6.78981445 164.50317383 7.10009766 C176.70911807 11.50632245 186.82580336 17.71353172 196 27 C196.69609375 27.67417969 197.3921875 28.34835937 198.109375 29.04296875 C213.50595644 44.94680191 216.44909997 65.03394599 216.21484375 86.3125 C216.04239127 92.85926745 215.07007926 98.78138132 213 105 C212.67128906 106.05960938 212.34257813 107.11921875 212.00390625 108.2109375 C206.09063498 125.43922267 194.43892414 137.71278689 179.13671875 147.0546875 C176.63574944 148.60572451 174.33269735 150.2175654 172 152 C181.81169781 166.51983393 191.66028109 181.00814558 201.69555664 195.37475586 C205.59650331 200.96466961 209.43536064 206.58371896 213.18359375 212.27734375 C215.79728155 216.19506504 218.495991 220.05314992 221.20874023 223.90283203 C224 227.89246278 224 227.89246278 224 229 C212.87574931 229.70041422 201.75685008 230.23056202 190.61491776 230.55436516 C185.43742659 230.70996561 180.27515747 230.91990853 175.10644531 231.26318359 C140.80337464 233.48172707 140.80337464 233.48172707 132.24291992 226.20031738 C126.27688472 220.138575 122.35538192 212.65912737 118.85922623 204.98174095 C115.6986593 198.04332395 111.51777583 191.91922843 107.16571808 185.68210983 C105.27926606 182.95999413 103.45528006 180.19764308 101.625 177.4375 C101.01914063 176.52871094 100.41328125 175.61992188 99.7890625 174.68359375 C99.19867187 173.79800781 98.60828125 172.91242188 98 172 C97.26523438 170.93910156 96.53046875 169.87820313 95.7734375 168.78515625 C94 166 94 166 94 164 C88.39 164 82.78 164 77 164 C77 185.45 77 206.9 77 229 C51.59 229 26.18 229 0 229 C0 153.43 0 77.86 0 0 Z " fill="#F3703F" transform="translate(1413,1187)"/>
<path d="M0 0 C25.41 0 50.82 0 77 0 C77 26.73 77 53.46 77 81 C100.1 81 123.2 81 147 81 C147 54.27 147 27.54 147 0 C172.41 0 197.82 0 224 0 C224 75.57 224 151.14 224 229 C198.59 229 173.18 229 147 229 C147 201.94 147 174.88 147 147 C123.9 147 100.8 147 77 147 C77 174.06 77 201.12 77 229 C51.59 229 26.18 229 0 229 C0 153.43 0 77.86 0 0 Z " fill="#F3703F" transform="translate(2517,1187)"/>
<path d="M0 0 C2.17381471 2.04130871 3.31009188 3.476747 4.37109375 6.2265625 C2.22424172 8.85049276 0.07726926 11.47432314 -2.0703125 14.09765625 C-3.66445459 16.04578549 -5.25522994 17.99648775 -6.84375 19.94921875 C-10.89015851 24.91759376 -14.98110265 29.84285826 -19.12890625 34.7265625 C-28.12263002 45.28130796 -28.12263002 45.28130796 -36.62890625 56.2265625 C-40.16285338 55.60812175 -42.28540021 54.18590956 -45.12890625 52.0390625 C-61.67172133 40.27099579 -79.55455932 36.22342638 -99.62890625 38.2265625 C-103.67294562 39.0464247 -107.00268549 40.28049069 -110.62890625 42.2265625 C-111.48484375 42.66226562 -112.34078125 43.09796875 -113.22265625 43.546875 C-125.71711766 50.43388235 -132.8531934 60.66277485 -137.0859375 74.15625 C-140.48597634 87.12042689 -140.50950106 103.08185583 -134.62890625 115.2265625 C-134.19320313 116.17660156 -133.7575 117.12664062 -133.30859375 118.10546875 C-127.23841123 130.29558938 -117.6984495 138.03716918 -104.86328125 142.55078125 C-89.38489417 147.12263462 -74.98475897 145.61394899 -59.62890625 141.2265625 C-59.62890625 133.6365625 -59.62890625 126.0465625 -59.62890625 118.2265625 C-72.49890625 118.2265625 -85.36890625 118.2265625 -98.62890625 118.2265625 C-98.62890625 101.7265625 -98.62890625 85.2265625 -98.62890625 68.2265625 C-61.99890625 68.2265625 -25.36890625 68.2265625 12.37109375 68.2265625 C12.57734375 85.9021875 12.78359375 103.5778125 12.99609375 121.7890625 C13.08713379 127.36369385 13.17817383 132.9383252 13.27197266 138.68188477 C13.31713867 145.5057373 13.31713867 145.5057373 13.32553101 148.70347595 C13.34085636 150.9300384 13.37596691 153.15651936 13.42684937 155.3825531 C13.8355716 174.20984542 13.8355716 174.20984542 10.21865845 179.19065857 C7.63113836 181.03302644 5.34149031 182.14077972 2.37109375 183.2265625 C1.0204839 184.05839642 -0.31493259 184.91638533 -1.62109375 185.81640625 C-17.00372125 195.25534488 -33.81578925 202.07752716 -51.50390625 205.7890625 C-52.57382813 206.01722656 -53.64375 206.24539063 -54.74609375 206.48046875 C-56.66808594 206.84978516 -56.66808594 206.84978516 -58.62890625 207.2265625 C-59.46212402 207.39865234 -60.2953418 207.57074219 -61.15380859 207.74804688 C-69.93448202 209.41770637 -78.60191124 209.62420687 -87.50390625 209.6015625 C-88.27214722 209.60135101 -89.04038818 209.60113953 -89.83190918 209.60092163 C-102.75951948 209.5655095 -115.0850069 208.56119018 -127.62890625 205.2265625 C-128.66966309 204.95368408 -128.66966309 204.95368408 -129.73144531 204.67529297 C-149.32579658 199.31963125 -168.13059221 188.36241869 -182.62890625 174.2265625 C-183.47453125 173.4221875 -184.32015625 172.6178125 -185.19140625 171.7890625 C-185.99578125 170.9434375 -186.80015625 170.0978125 -187.62890625 169.2265625 C-188.27085938 168.59105469 -188.9128125 167.95554687 -189.57421875 167.30078125 C-205.07429145 151.23363272 -213.17608224 129.97935375 -216.62890625 108.2265625 C-216.81066406 107.34871094 -216.99242187 106.47085937 -217.1796875 105.56640625 C-221.27196368 75.14122245 -213.55769689 43.23408531 -195.00390625 18.6640625 C-178.59387205 -2.18962017 -157.04587752 -17.04447869 -131.62890625 -24.7734375 C-130.65953125 -25.06863281 -129.69015625 -25.36382813 -128.69140625 -25.66796875 C-85.00735215 -37.71669563 -35.56866738 -27.82058824 0 0 Z " fill="#F3703F" transform="translate(1378.62890625,1211.7734375)"/>
<path d="M0 0 C3.66540544 2.99523399 6.9572957 6.27672398 10.24560547 9.67724609 C11.03193359 10.42103516 11.81826172 11.16482422 12.62841797 11.93115234 C30.5233437 29.8572539 35.39555718 55.49051143 35.49560547 79.80224609 C35.52654297 81.64689453 35.52654297 81.64689453 35.55810547 83.52880859 C35.648724 105.09601823 28.46955736 127.26262048 14.24560547 143.67724609 C13.64103516 144.42490234 13.03646484 145.17255859 12.41357422 145.94287109 C0.03389977 160.7682246 -19.52343963 170.92879025 -38.75439453 172.67724609 C-60.89113225 173.96069422 -79.39830653 170.33118866 -96.75439453 155.67724609 C-97.30740234 155.24541016 -97.86041016 154.81357422 -98.43017578 154.36865234 C-102.56018487 151.11373562 -105.17927034 147.84822432 -108.75439453 143.67724609 C-109.08439453 170.07724609 -109.41439453 196.47724609 -109.75439453 223.67724609 C-123.28439453 223.67724609 -136.81439453 223.67724609 -150.75439453 223.67724609 C-150.75439453 146.12724609 -150.75439453 68.57724609 -150.75439453 -11.32275391 C-137.22439453 -11.32275391 -123.69439453 -11.32275391 -109.75439453 -11.32275391 C-109.42439453 -2.41275391 -109.09439453 6.49724609 -108.75439453 15.67724609 C-106.98064453 13.69724609 -105.20689453 11.71724609 -103.37939453 9.67724609 C-76.43353312 -19.7085949 -32.31500772 -24.36441857 0 0 Z " fill="#12ABB9" transform="translate(1103.75439453125,1197.32275390625)"/>
<path d="M0 0 C69.96 0 139.92 0 212 0 C212 21.45 212 42.9 212 65 C189.89 65 167.78 65 145 65 C145 119.12 145 173.24 145 229 C119.59 229 94.18 229 68 229 C68 174.88 68 120.76 68 65 C45.56 65 23.12 65 0 65 C0 43.55 0 22.1 0 0 Z " fill="#F3703F" transform="translate(2288,1187)"/>
<path d="M0 0 C13.86 0 27.72 0 42 0 C42.0093457 3.35502686 42.01869141 6.71005371 42.02832031 10.16674805 C42.06217945 21.2867935 42.11777817 32.40665513 42.18390274 43.52655315 C42.22357025 50.26453188 42.25602464 57.0023959 42.27099609 63.74047852 C42.28620729 70.25050028 42.3207327 76.76016623 42.36830902 83.27002907 C42.38307673 85.74611114 42.39103835 88.22224402 42.39188385 90.69836998 C42.40247677 106.17378615 42.4289635 119.57204282 51 133 C51.495 134.1446875 51.495 134.1446875 52 135.3125 C53.31834178 137.53720176 54.67520321 137.89490293 57 139 C59.26728687 140.28133642 61.52556982 141.57725519 63.78125 142.87890625 C71.81744856 146.93945024 83.79066524 146.05391166 92.37890625 144.31640625 C95.06960165 143.39399147 97.49055145 142.3358756 100 141 C101.21236328 140.36384766 101.21236328 140.36384766 102.44921875 139.71484375 C111.42203381 134.39047911 115.97243314 125.76584388 119 116 C120.20413138 110.41613149 120.17283443 104.90545498 120.20532227 99.22119141 C120.21522186 98.14742249 120.22512146 97.07365356 120.23532104 95.96734619 C120.2668328 92.42877383 120.29165265 88.89018805 120.31640625 85.3515625 C120.33698469 82.89390724 120.35798139 80.43625544 120.37937927 77.97860718 C120.43450799 71.51783054 120.48395782 65.05702245 120.53222656 58.59619141 C120.5825088 52.00029713 120.63815976 45.40444839 120.69335938 38.80859375 C120.80082843 25.87243333 120.90180208 12.93623412 121 0 C134.86 0 148.72 0 163 0 C163 59.4 163 118.8 163 180 C149.14 180 135.28 180 121 180 C120.505 167.625 120.505 167.625 120 155 C117.89625 157.6915625 117.89625 157.6915625 115.75 160.4375 C105.06803837 173.51876167 90.77842441 181.76403228 74 184 C53.95067051 185.46547006 36.03266953 182.46149922 20.24609375 169.125 C6.97875706 156.57294581 0.48713213 139.26515612 -0.08926582 121.20269585 C-0.12243281 117.99983683 -0.12374221 114.79847461 -0.11352539 111.59545898 C-0.11367142 110.384702 -0.11381744 109.17394501 -0.1139679 107.92649841 C-0.11339397 104.63373062 -0.10840699 101.3410063 -0.10139394 98.0482471 C-0.09510792 94.59695042 -0.09455247 91.14565272 -0.09336853 87.6943512 C-0.09027061 81.17102163 -0.08207811 74.64770899 -0.07201904 68.12438685 C-0.06080992 60.69264112 -0.0553354 53.26089454 -0.05032361 45.82914245 C-0.03989409 30.55275019 -0.02156791 15.27638121 0 0 Z " fill="#14ABB9" transform="translate(767,1186)"/>
<path d="M0 0 C13.17517939 -0.50339948 24.89099137 3.95429378 34.90625 12.421875 C43.29184351 20.30758216 48.16666458 29.19803632 51.27734375 40.19921875 C51.62539062 41.235625 51.9734375 42.27203125 52.33203125 43.33984375 C56.35088889 59.74741129 52.91818874 77.74099707 45.02734375 92.41796875 C38.01575543 103.5613859 27.89801003 111.41301887 15.27734375 115.19921875 C1.89783452 118.08499525 -12.15649632 116.32257257 -24.21484375 109.828125 C-38.41934444 100.60183717 -45.40552137 88.09412445 -49.72265625 72.19921875 C-53.33801313 54.53431043 -49.87017424 36.77994506 -40.12890625 21.73828125 C-32.15257148 10.71438462 -20.54671768 2.89302244 -7.09765625 0.57421875 C-4.73422894 0.33653061 -2.36904088 0.17334445 0 0 Z " fill="#FDFEFE" transform="translate(1043.72265625,1217.80078125)"/>
<path d="M0 0 C6.71228347 6.56312162 10.70365838 13.98336131 13.8125 22.75 C14.32043091 23.89251221 14.32043091 23.89251221 14.83862305 25.05810547 C18.92647137 36.35733225 17.05468869 52.7546126 12.43505859 63.67675781 C6.00344958 77.39408763 -4.77712691 85.98072699 -18.8125 91.0625 C-32.09080009 93.82545941 -46.09410063 92.0275483 -57.5 84.5625 C-69.54108006 75.35117133 -76.97934873 62.80223119 -79.1875 47.75 C-80.49495197 30.86207877 -76.99110812 16.53596544 -66 3.5 C-47.14887118 -16.36157458 -21.24211008 -14.99443064 0 0 Z " fill="#FEFEFD" transform="translate(1805.1875,1261.25)"/>
<path d="M0 0 C9.838125 -0.0928125 9.838125 -0.0928125 19.875 -0.1875 C21.92444824 -0.21481201 23.97389648 -0.24212402 26.08544922 -0.27026367 C27.74185602 -0.27903986 29.39826938 -0.2866811 31.0546875 -0.29296875 C31.8887915 -0.30831665 32.72289551 -0.32366455 33.58227539 -0.33947754 C42.54313602 -0.34338603 51.37632354 1.63986505 58 8 C62.78448482 13.64323851 62.47208838 19.15379379 62.53125 26.37890625 C61.51329865 33.3174423 57.27797738 36.95729392 52 41 C45.61295892 45.25802738 38.67644059 45.28530849 31.25 45.1953125 C30.45207031 45.19329834 29.65414063 45.19128418 28.83203125 45.18920898 C25.88796127 45.17884649 22.94397407 45.15092496 20 45.125 C13.4 45.08375 6.8 45.0425 0 45 C0 30.15 0 15.3 0 0 Z " fill="#FEFDFC" transform="translate(1490,1251)"/>
</svg>
