<?xml version="1.0" encoding="utf-8"?>
<!-- Generator: Adobe Illustrator 21.0.0, SVG Export Plug-In . SVG Version: 6.00 Build 0)  -->
<svg version="1.1" id="Layer_1" xmlns="http://www.w3.org/2000/svg" width="151" height="40" xmlns:xlink="http://www.w3.org/1999/xlink" x="0px" y="0px"
	 viewBox="0 0 151 40" style="enable-background:new 0 0 151 40;" xml:space="preserve">
<style type="text/css">
	.st0{fill:#FFFFFF;}
	.st1{fill:#0069A6;}
	.st2{fill:#555759;}
</style>
<g>
	<g id="XMLID_299_">
		<g id="XMLID_316_">
			<g id="XMLID_333_">
				<ellipse class="st0" cx="20.2" cy="20" rx="20.2" ry="20"/>
			</g>
			<g id="XMLID_317_">
				<path id="XMLID_332_" class="st1" d="M37.3,9.3c-1-1.5-2.1-2.9-3.4-4.1C25,2.8,15.4,2.8,6.5,5.3C5.2,6.5,4.1,7.8,3.1,9.3
					C14,6.6,26.4,6.6,37.3,9.3z"/>
				<path id="XMLID_331_" class="st1" d="M22.7,12.2c1.3-1.8,2.1-3.1,2.6-3.7C17.5,7.9,9.6,8.6,2.4,10.6c-0.5,1-1,2.1-1.4,3.1
					C7.8,12.6,15.3,12,22.7,12.2z"/>
				<path id="XMLID_330_" class="st1" d="M19.6,27.8c-0.8,1.2-1.8,2.5-2.7,3.8c7.2,0.3,14.5-0.4,21.2-2.2c0.5-1,1-2,1.4-3.1
					c-6,1.1-12.6,1.6-19.2,1.6C20,27.9,19.8,27.8,19.6,27.8z"/>
				<path id="XMLID_329_" class="st1" d="M22,13.2c-7.3-0.1-14.6,0.4-21.3,1.7c-0.2,0.9-0.4,1.8-0.5,2.8c6-0.4,12.6-0.6,19.3-0.6
					C20.4,15.6,21.2,14.3,22,13.2z"/>
				<path id="XMLID_328_" class="st1" d="M16.1,32.6c-1.1,1.5-2.1,2.9-2.7,3.5c6.8,0.9,13.8,0.4,20.4-1.4c1.3-1.2,2.5-2.6,3.4-4.1
					C31.8,32,26,32.7,20.2,32.7C18.8,32.7,17.5,32.7,16.1,32.6z"/>
				<path id="XMLID_327_" class="st1" d="M31.9,3.7C28.6,1.4,24.6,0,20.2,0S11.8,1.4,8.5,3.7C16.2,1.9,24.2,1.9,31.9,3.7z"/>
				<path id="XMLID_326_" class="st1" d="M23.5,21.9c5.8-0.1,11.5-0.2,16.8-0.6c0-0.4,0-0.9,0-1.3c0-0.4,0-0.9,0-1.3
					c-4.6-0.3-9.4-0.5-14.4-0.5C25.1,19.4,24.4,20.5,23.5,21.9z"/>
				<path id="XMLID_325_" class="st1" d="M26.6,17.1c4.7,0.1,9.3,0.3,13.7,0.5c-0.1-0.9-0.3-1.9-0.5-2.8c-3.5-0.6-7.1-1.1-10.8-1.3
					C28,14.9,27.2,16.1,26.6,17.1z"/>
				<path id="XMLID_324_" class="st1" d="M18.7,18.1c-3.9,0-7.7,0.1-11.5,0.2c0.4,0.8,1.1,2.2,1.8,3.4c2.4,0.1,4.8,0.1,7.2,0.2
					C17,20.8,17.8,19.5,18.7,18.1z"/>
				<path id="XMLID_323_" class="st1" d="M9.7,22.8c0,0.1,0.1,0.2,0.1,0.2c0.6,1,1.3,2,1.8,2.8c0.2,0.2,0.3,0.5,0.4,0.7
					c0.3,0.5,0.6,0.8,0.6,0.8s0.2-0.3,0.5-0.8c0.1-0.2,0.3-0.4,0.5-0.7c0.5-0.7,1.1-1.7,1.9-2.9C13.6,22.9,11.6,22.9,9.7,22.8z"/>
				<path id="XMLID_322_" class="st1" d="M20.3,26.8c6.7,0,13.3-0.6,19.4-1.7c0.2-0.9,0.4-1.8,0.5-2.8c-5.5,0.3-11.4,0.5-17.4,0.6
					C22.2,24,21.3,25.3,20.3,26.8z"/>
				<path id="XMLID_321_" class="st1" d="M3.8,22.6c-1.2-0.1-2.5-0.1-3.7-0.2c0.1,0.9,0.3,1.9,0.5,2.8c1.6,0.3,3.2,0.5,4.9,0.8
					C4.8,24.7,4.3,23.5,3.8,22.6z"/>
				<path id="XMLID_320_" class="st1" d="M8.8,30.7c-1-1.3-1.6-2.1-2.5-3.6c-1.8-0.2-3.5-0.5-5.2-0.8c0.4,1.1,0.8,2.1,1.4,3.1
					c2.1,0.6,4.3,1,6.5,1.4C8.9,30.7,8.8,30.7,8.8,30.7z"/>
				<path id="XMLID_319_" class="st1" d="M9.8,32c-2.3-0.3-4.5-0.8-6.7-1.3c1,1.5,2.1,2.9,3.4,4.1c2.1,0.6,4.3,1.1,6.5,1.4
					C11.7,34.5,10.7,33.2,9.8,32z"/>
				<path id="XMLID_318_" class="st1" d="M8.5,36.3c3.3,2.3,7.3,3.7,11.7,3.7s8.4-1.4,11.7-3.7c-3.8,0.9-7.8,1.3-11.7,1.3
					S12.3,37.2,8.5,36.3z"/>
			</g>
		</g>
		<g id="XMLID_300_">
			<g id="XMLID_301_">
				<g id="XMLID_302_">
					<g id="XMLID_303_">
						<path id="XMLID_313_" class="st2" d="M71.9,25.9c0,4.2,3,7.6,7.4,7.6c3.3,0,5.4-2,6.9-4.7l3.3,1.9c-2.2,4.1-5.8,6.4-10.5,6.4
							C72.3,37,68,31.9,68,25.3c0-6.7,3.9-12.3,11-12.3c7.3,0,11.2,6,10.8,12.8H71.9z M85.7,22.6c-0.5-3.3-3.3-5.9-6.7-5.9
							c-3.3,0-6.4,2.7-6.9,5.9H85.7z"/>
						<path id="XMLID_311_" class="st2" d="M96.5,16.2L96.5,16.2c1.4-1.8,2.6-3.1,5.1-3.1c1.3,0,2.4,0.4,3.5,1.1l-1.8,3.5
							c-0.8-0.5-1.3-1-2.3-1c-4.2,0-4.4,5.5-4.4,8.4v11.3h-3.9V13.7h3.9V16.2z"/>
						<path id="XMLID_308_" class="st2" d="M111.7,6.2c0,1.5-1.3,2.8-2.8,2.8c-1.5,0-2.8-1.2-2.8-2.8c0-1.5,1.3-2.8,2.8-2.8
							C110.5,3.4,111.7,4.7,111.7,6.2z M110.9,36.4H107V13.7h3.9V36.4z"/>
						<path id="XMLID_306_" class="st2" d="M124.3,19c-0.5-1.2-1.7-2.3-3.1-2.3c-1.4,0-2.8,1.1-2.8,2.5c0,2.1,2.6,2.8,5.3,4
							c2.7,1.1,5.3,2.7,5.3,6.5c0,4.3-3.5,7.4-7.7,7.4c-3.8,0-6.8-2.2-8-5.7l3.4-1.4c1,2.1,2.1,3.6,4.6,3.6c2.1,0,3.7-1.4,3.7-3.5
							c0-5.1-10.2-3.3-10.2-10.5c0-3.8,3.1-6.4,6.8-6.4c2.6,0,5,1.8,6,4.2L124.3,19z"/>
						<polygon id="XMLID_305_" class="st2" points="148.7,13.7 143.5,13.7 135.3,22.1 135.3,3.4 131.4,3.4 131.4,36.4 135.3,36.4 
							135.3,27.1 136.3,26.1 145.4,36.4 150.5,36.4 139,23.4 						"/>
						<polygon id="XMLID_304_" class="st2" points="68.1,3.4 59.5,26.6 50.8,3.4 46.4,3.4 59.3,37.1 59.5,37.4 72.5,3.4 						"/>
					</g>
				</g>
			</g>
		</g>
	</g>
</g>
</svg>
