<?xml version="1.0" encoding="UTF-8"?>
<svg id="Layer_2" data-name="Layer 2" xmlns="http://www.w3.org/2000/svg" viewBox="0 0 372.2444933 70.5603847">
  <defs>
    <style>
      .cls-1 {
        fill: #212121;
        stroke-width: 0px;
      }
    </style>
  </defs>
  <g id="primary">
    <g id="veritone_logo_primary_RGB_cosmos">
      <g>
        <path class="cls-1" d="M159.5026259.8501463c-1.611277,0-2.9787507.550335-4.0643658,1.6363683-1.0860333,1.0860333-1.6367865,2.453507-1.6367865,4.064784,0,1.5502216.5507531,2.8863312,1.6363683,3.9694372,1.0847788,1.0864515,2.4522524,1.6372047,4.064784,1.6372047,1.5418579,0,2.8888403-.5461531,4.0041468-1.6238227,1.1261794-1.0877061,1.6970055-2.4279975,1.6970055-3.9828192,0-1.6158771-.5708261-2.9875326-1.6978419-4.078166-1.1161428-1.0768332-2.4631253-1.6229863-4.0033104-1.6229863Z"/>
        <polygon class="cls-1" points="154.841132 22.7520748 154.841132 69.6152806 164.0696926 69.6152806 164.0696926 19.9386786 154.841132 22.7520748"/>
      </g>
      <path class="cls-1" d="M88.9585505,18.7109702c-7.2555558,0-13.4250783,2.5066168-18.3366923,7.4508494-4.9095231,4.9433963-7.3989942,11.1589194-7.3989942,18.4738578,0,7.3203749,2.5396536,13.5384071,7.5482872,18.480967,5.0036153,4.9392144,11.2814483,7.4437402,18.6599513,7.4437402,5.3502928,0,10.155269-1.3448915,14.2815266-3.9974558,4.1195666-2.6483824,7.2706106-6.2142685,9.3648943-10.5977115l.4834249-1.0120141-8.0208392-3.3843927-.4416062.9195947c-1.4159834,2.9507321-3.5090126,5.3139105-6.2213777,7.0238798-2.7094378,1.7087148-5.8558817,2.5751996-9.3515123,2.5751996-4.5565727,0-8.4636999-1.448602-11.6134893-4.3060783-2.8737856-2.6040545-4.6556832-5.9307373-5.3076377-9.9018473h41.8242019l.073601-.9911047c.5871355-7.893292-1.6204772-14.6332224-6.5626189-20.0332796-4.9459054-5.4042391-11.3320491-8.1442046-18.9811194-8.1442046ZM99.7327372,31.1215252c2.6626008,2.3477055,4.4148071,5.2892375,5.2194001,8.758104h-32.0482291c.9028671-3.5182127,2.7203107-6.4731267,5.4134392-8.7978319,2.9988237-2.5864906,6.5789282-3.8979271,10.6412031-3.8979271,4.1827129,0,7.8079817,1.3248185,10.7741867,3.937655"/>
      <path class="cls-1" d="M189.3478424,0l-9.2289833,2.8298759v16.8261985h-10.7729322v8.5669923h10.7729322v23.7835865c0,5.878882,1.4904208,10.3321624,4.4290254,13.2356393,2.934841,2.9018041,7.4642314,4.3729883,13.4631333,4.3729883h5.8901731v-8.5674105h-5.8901731c-3.1543895,0-5.4117664-.657391-6.7089845-1.9541909-1.2967999-1.2972181-1.9541909-3.5863773-1.9541909-6.8034949v-24.0671177h14.5533486v-8.5669923h-14.5533486V0Z"/>
      <path class="cls-1" d="M231.6546328,18.7109702c-7.3768302,0-13.6550815,2.5041077-18.6599513,7.4433221-5.0086335,4.9442326-7.5482872,11.1622649-7.5482872,18.4813852,0,7.3203749,2.5396536,13.5384071,7.5482872,18.480967,5.0031971,4.9387962,11.2818665,7.4437402,18.6599513,7.4437402,7.378503,0,13.656336-2.5045259,18.6599513-7.4437402,5.0086335-4.9425599,7.5482872-11.1605921,7.5482872-18.480967,0-7.3191203-2.5396536-13.5371526-7.5482872-18.4813852-5.0048698-4.9392144-11.2831211-7.4433221-18.6599513-7.4433221ZM231.6546328,61.8039534c-4.7857395,0-8.6937031-1.6108588-11.9467849-4.9245778-3.2589364-3.3179008-4.8434494-7.322884-4.8434494-12.2436981,0-4.8526495,1.6296773-8.9717979,4.8434494-12.2436981l.0004182-.0004182c3.2526636-3.3133008,7.1606272-4.9241596,11.9463667-4.9241596,4.8476313,0,8.7710679,1.5953859,11.9936219,4.8769044,3.1828262,3.2417907,4.7966124,7.3772484,4.7966124,12.2913715,0,4.9153777-1.6137862,9.0508354-4.7966124,12.2913715-3.2217177,3.2815185-7.1447361,4.8769044-11.9936219,4.8769044Z"/>
      <path class="cls-1" d="M289.395475,18.7109702c-4.3780066,0-8.2838792,1.2817452-11.6101438,3.8092713-2.0119008,1.5288941-3.6804695,3.3910837-4.9914878,5.5639867v-8.428154h-9.2285652v49.9592063h9.2285652v-28.3815597c0-4.0217107,1.3164547-7.2643377,4.0254744-9.9135565,2.7136197-2.656328,6.0854667-3.9472733,10.3079075-3.9472733,3.8268352,0,6.9444242,1.2997272,9.5309148,3.9732009,2.5956908,2.6851829,3.8573629,5.9194462,3.8573629,9.8876289v28.3815597h9.2289833v-29.2321534c0-6.1711952-1.9240814-11.3763769-5.7195525-15.4704341-3.8176351-4.1149665-8.7397038-6.2017229-14.6294587-6.2017229Z"/>
      <path class="cls-1" d="M359.7852391,26.8551748c-4.9459054-5.4042391-11.3320491-8.1442046-18.9811194-8.1442046-7.2555558,0-13.4250783,2.5066168-18.3366923,7.4508494-4.9095231,4.9433963-7.3989942,11.1589194-7.3989942,18.4738578,0,7.3203749,2.5396536,13.5384071,7.5482872,18.480967,5.0036153,4.9392144,11.2814483,7.4437402,18.6599513,7.4437402,5.3502928,0,10.155269-1.3448915,14.2815266-3.9974558,4.1195666-2.6483824,7.2706106-6.2142685,9.3648943-10.5977115l.4834249-1.0120141-8.0208392-3.3843927-.4416062.9195947c-1.4159834,2.9507321-3.5090126,5.3139105-6.2213777,7.0238798-2.7094378,1.7087148-5.8558817,2.5751996-9.3515123,2.5751996-4.5565727,0-8.4636999-1.448602-11.6134893-4.3060783-2.8737856-2.6040545-4.6556832-5.9307373-5.3076377-9.9018473h41.8242019l.073601-.9911047c.5871355-7.893292-1.6204772-14.6332224-6.5626189-20.0332796ZM330.1629166,31.0817974c2.9988237-2.5864906,6.5789282-3.8979271,10.6412031-3.8979271,4.1827129,0,7.8079817,1.3248185,10.7741867,3.937655,2.6626008,2.3477055,4.4148071,5.2892375,5.2194001,8.758104h-32.0482291c.9028671-3.5182127,2.7203107-6.4731267,5.4134392-8.7978319Z"/>
      <g>
        <polygon class="cls-1" points="55.314171 18.9725847 27.6383499 61.7193071 33.3546939 70.5603847 66.7413769 18.9725847 55.314171 18.9725847"/>
        <polygon class="cls-1" points="32.5518799 51.5991531 11.4276733 18.9726882 0 18.9726882 21.1152954 51.5991531 32.5518799 51.5991531"/>
      </g>
      <path class="cls-1" d="M148.2136224,19.1065266c-4.7230092-.8650191-8.9683997-.1471853-12.6188146,2.1290521-2.4020294,1.4985026-4.3988104,3.7671606-5.9704166,6.7739455v-8.3157235l-9.2285412,2.8133903v47.1080896h9.2285412v-28.3815751c0-4.7233759,1.7275933-8.2898072,5.2813108-10.903446,3.5830568-2.6349098,7.7975189-3.3627679,12.8822567-2.2275831l1.3038855.2916811v-9.126954l-.8782218-.1608769Z"/>
      <path class="cls-1" d="M366.5136132,66.7238363v-.3888638h2.3283219v.3888638h-.9575771v2.4790067h-.4131678v-2.4790067h-.9575771ZM369.2453813,66.3349725h.4812189l1.0207674,2.1047253,1.0159066-2.1047253h.4812189v2.8678704h-.4131678v-2.0950037l-.9381339,1.8908502h-.2965086l-.9381339-1.8859894v2.0901429h-.4131678v-2.8678704Z"/>
    </g>
  </g>
</svg>