<?xml version="1.0" encoding="UTF-8" standalone="no"?>
<svg
   width="375.70801mm"
   height="130.02377mm"
   viewBox="0 0 375.70801 130.02377"
   version="1.1"
   id="svg8"
   inkscape:version="1.2.2 (732a01da63, 2022-12-09)"
   sodipodi:docname="VV_Logo_Text_Alpha_17.svg"
   xmlns:inkscape="http://www.inkscape.org/namespaces/inkscape"
   xmlns:sodipodi="http://sodipodi.sourceforge.net/DTD/sodipodi-0.dtd"
   xmlns="http://www.w3.org/2000/svg"
   xmlns:svg="http://www.w3.org/2000/svg"
   xmlns:rdf="http://www.w3.org/1999/02/22-rdf-syntax-ns#"
   xmlns:cc="http://creativecommons.org/ns#"
   xmlns:dc="http://purl.org/dc/elements/1.1/">
  <defs
     id="defs2" />
  <sodipodi:namedview
     id="base"
     pagecolor="#ffffff"
     bordercolor="#666666"
     borderopacity="1.0"
     inkscape:pageopacity="0.0"
     inkscape:pageshadow="2"
     inkscape:zoom="0.24748738"
     inkscape:cx="466.69046"
     inkscape:cy="234.35538"
     inkscape:document-units="mm"
     inkscape:current-layer="layer1"
     inkscape:document-rotation="0"
     showgrid="false"
     showborder="false"
     inkscape:window-width="1920"
     inkscape:window-height="1017"
     inkscape:window-x="632"
     inkscape:window-y="1072"
     inkscape:window-maximized="1"
     inkscape:showpageshadow="2"
     inkscape:pagecheckerboard="0"
     inkscape:deskcolor="#d1d1d1" />
  <metadata
     id="metadata5">
    <rdf:RDF>
      <cc:Work
         rdf:about="">
        <dc:format>image/svg+xml</dc:format>
        <dc:type
           rdf:resource="http://purl.org/dc/dcmitype/StillImage" />
      </cc:Work>
    </rdf:RDF>
  </metadata>
  <g
     inkscape:label="Layer 1"
     inkscape:groupmode="layer"
     id="layer1">
    <g
       id="g5112"
       transform="translate(64.375526,3.0053566)">
      <g
         id="g334"
         transform="matrix(0.59687746,0,0,0.59687746,-29.265861,12.309973)"
         inkscape:export-filename="VVTextLogoAlpha_17.png"
         inkscape:export-xdpi="53.012375"
         inkscape:export-ydpi="53.012375">
        <path
           style="color:#000000;font-style:normal;font-variant:normal;font-weight:normal;font-stretch:normal;font-size:medium;line-height:normal;font-family:sans-serif;font-variant-ligatures:normal;font-variant-position:normal;font-variant-caps:normal;font-variant-numeric:normal;font-variant-alternates:normal;font-variant-east-asian:normal;font-feature-settings:normal;font-variation-settings:normal;text-indent:0;text-align:start;text-decoration:none;text-decoration-line:none;text-decoration-style:solid;text-decoration-color:#000000;letter-spacing:normal;word-spacing:normal;text-transform:none;writing-mode:lr-tb;direction:ltr;text-orientation:mixed;dominant-baseline:auto;baseline-shift:baseline;text-anchor:start;white-space:normal;shape-padding:0;shape-margin:0;inline-size:0;clip-rule:nonzero;display:inline;overflow:visible;visibility:visible;isolation:auto;mix-blend-mode:normal;color-interpolation:sRGB;color-interpolation-filters:linearRGB;solid-color:#000000;solid-opacity:1;vector-effect:none;fill:#00194f;fill-opacity:1;fill-rule:nonzero;stroke:none;stroke-width:26.09;stroke-linecap:butt;stroke-linejoin:round;stroke-miterlimit:4;stroke-dasharray:none;stroke-dashoffset:0;stroke-opacity:1;paint-order:normal;color-rendering:auto;image-rendering:auto;shape-rendering:auto;text-rendering:auto;enable-background:accumulate;stop-color:#000000"
           d="m 120.00508,60.664071 -0.002,0.0016 c 7.9e-4,-1.6e-5 0.001,1.6e-5 0.002,0 z m 0,0.0016 v 0.0088 c -0.9153,0.02101 -1.94237,0.329965 -3.02927,0.957567 l -32.602151,18.822585 -8.899196,5.137671 h -0.01035 l -6.96805,4.023011 v 0.0021 h -5.3e-4 v 0 L 61.519242,85.589681 52.620562,80.451494 20.018416,61.628353 c -1.0869,-0.627298 -2.114589,-0.936447 -3.029789,-0.957045 l 0.0026,0.0031 c -2.3391,-0.053 -3.946012,1.777209 -3.946012,4.984711 v 42.679051 c 0,4.4627 3.111001,9.85178 6.975801,12.08298 l 32.602143,18.82263 8.898681,5.13767 6.973736,4.02611 5.29e-4,-0.003 6.965982,-4.02146 0.01035,-0.01 8.899197,-5.13819 32.602146,-18.82314 c 3.8646,-2.2312 6.9758,-7.62019 6.9758,-12.08299 V 65.650848 c 0,-3.206536 -1.60641,-5.036979 -3.94446,-4.985226 z"
           id="path322" />
        <path
           id="path324"
           style="color:#000000;font-style:normal;font-variant:normal;font-weight:normal;font-stretch:normal;font-size:medium;line-height:normal;font-family:sans-serif;font-variant-ligatures:normal;font-variant-position:normal;font-variant-caps:normal;font-variant-numeric:normal;font-variant-alternates:normal;font-variant-east-asian:normal;font-feature-settings:normal;font-variation-settings:normal;text-indent:0;text-align:start;text-decoration:none;text-decoration-line:none;text-decoration-style:solid;text-decoration-color:#000000;letter-spacing:normal;word-spacing:normal;text-transform:none;writing-mode:lr-tb;direction:ltr;text-orientation:mixed;dominant-baseline:auto;baseline-shift:baseline;text-anchor:start;white-space:normal;shape-padding:0;shape-margin:0;inline-size:0;clip-rule:nonzero;display:inline;overflow:visible;visibility:visible;isolation:auto;mix-blend-mode:normal;color-interpolation:sRGB;color-interpolation-filters:linearRGB;solid-color:#000000;solid-opacity:1;vector-effect:none;fill:#ffffff;fill-opacity:1;fill-rule:nonzero;stroke:none;stroke-width:0.264583;stroke-linecap:butt;stroke-linejoin:round;stroke-miterlimit:4;stroke-dasharray:none;stroke-dashoffset:0;stroke-opacity:1;paint-order:normal;color-rendering:auto;image-rendering:auto;shape-rendering:auto;text-rendering:auto;enable-background:accumulate;stop-color:#000000"
           d="M 68.44905,7.4846934e-5 C 66.174054,0.00788006 63.940622,0.61031778 61.970378,1.7477724 L 34.985461,17.3277 c -2.326097,1.342972 -5.601039,4.325622 -7.026961,7.92303 -1.425922,3.597409 -1.120179,5.825154 -1.126546,6.458521 -5.56e-4,0.04375 -9.26e-4,0.0875 -0.001,0.131258 v 18.657775 l -0.289905,-0.167431 -0.0021,-10e-4 c -2.563117,-1.479317 -5.625768,-2.618374 -9.256804,-2.700095 -0.57205,-0.01262 -1.14431,0.01241 -1.713074,0.07493 h -0.0026 c -0.04532,0.0045 -0.09051,0.01059 -0.135909,0.0155 -0.343114,0.04138 -0.684447,0.09637 -1.023194,0.164848 -3.878636,0.674176 -7.8911402,2.765237 -10.37919,5.818736 C 0.91382819,57.525909 2.3111328e-7,61.876914 2.3111328e-7,65.659116 v 42.679044 c 0,10.52511 4.38212196888672,18.1174 13.49840076888672,23.38049 l 32.602145,18.82262 8.89868,5.13767 h 5.3e-4 l 6.783564,3.91243 c 4.585806,2.64375 8.350271,2.93054 14.465268,-0.59997 l 5.292702,-3.05976 0.442864,-0.25115 c 0.861724,-0.48863 0.986505,-0.57412 0.986505,-0.57412 l 0.361217,-0.20774 7.562328,-4.36666 32.602146,-18.82262 c 9.11596,-5.26304 13.4984,-12.85488 13.4984,-23.38049 V 65.650848 c 0,-3.781689 -0.91354,-8.131082 -4.02559,-11.952242 -2.50334,-3.073711 -6.5513,-5.17364 -10.45364,-5.834269 -10e-4,-2.04e-4 -0.002,-3.18e-4 -0.004,-5.29e-4 -0.28143,-0.05514 -0.56459,-0.100984 -0.84904,-0.13746 -0.0908,-0.01042 -0.18131,-0.02328 -0.27182,-0.03204 -0.45281,-0.04841 -0.90783,-0.07307 -1.36322,-0.0739 -0.052,-1.38e-4 -0.10405,8e-6 -0.15607,5.3e-4 -0.0107,2.13e-4 -0.0134,2.91e-4 -0.0253,5.29e-4 -0.0954,0.0012 -0.19088,0.0034 -0.28628,0.0067 -0.0524,0.0017 -0.10474,0.0038 -0.1571,0.0062 -0.10359,0.0048 -0.20712,0.01083 -0.31058,0.01809 -0.0524,0.0036 -0.10475,0.0076 -0.15709,0.01188 -0.2072,0.01711 -0.41397,0.03916 -0.62012,0.06615 h -10e-4 c -0.1986,0.02593 -0.39657,0.05642 -0.59376,0.09147 -2.76623,0.371263 -5.19111,1.313908 -7.26777,2.513024 l -0.28836,0.166915 V 31.831207 c 0,-5.227613 -3.45684,-11.444985 -7.53546,-14.117484 -0.20543,-0.134728 -0.41463,-0.263626 -0.62735,-0.38654 L 75.015575,1.7472556 C 73.019476,0.59508836 70.753793,-0.00775153 68.44905,7.4846934e-5 Z M 54.552742,36.157041 l 13.9392,8.048088 13.940234,-8.048088 1.640729,0.947229 v 13.380062 l -13.905095,8.027934 -5.29e-4,5.29e-4 -1.678451,0.968933 -1.66243,-0.959631 -13.904049,-8.02743 V 37.098586 Z" />
        <path
           id="path326"
           style="fill:#00194f;fill-opacity:1;stroke:none;stroke-width:5.24865;stroke-linecap:butt;stroke-linejoin:round;stroke-miterlimit:4;stroke-dasharray:none;stroke-opacity:1;paint-order:normal"
           d="m 120.00495,60.664329 v 0.01 c -0.9153,0.021 -1.9424,0.3299 -3.0293,0.9575 l -32.6021,18.8227 -8.8992,5.1377 h -0.01 l -6.9681,4.023 v 8.0552 8.774701 25.1293 8.7752 8.0547 l 6.966,-4.0214 0.01,-0.01 8.8992,-5.1382 32.6022,-18.8228 c 3.8646,-2.2312 6.9758,-7.6202 6.9758,-12.083 V 65.650629 c 0,-3.2075 -1.6074,-5.0377 -3.9466,-4.9848 z m -103.0138,0.01 v 0 c -2.3391,-0.053 -3.9461,1.7772 -3.9461,4.9847 v 42.678901 c 0,4.4627 3.1111,9.8518 6.9759,12.083 l 32.6021,18.8227 8.8987,5.1377 6.9737,4.0262 v -8.055 -8.7752 -25.129 -8.774701 -8.0563 l -6.9763,-4.0277 -8.8987,-5.1382 -32.6021,-18.8233 c -1.0869,-0.6273 -2.1146,-0.9364 -3.0298,-0.957 z" />
        <path
           id="path328"
           style="fill:#004ef9;fill-opacity:1;stroke:none;stroke-width:2.709;stroke-linecap:butt;stroke-linejoin:round;stroke-miterlimit:4;stroke-dasharray:none;stroke-opacity:1;paint-order:normal"
           d="m 95.08215,29.257729 v 0.01 c -0.4725,0.011 -1.0026,0.1703 -1.5636,0.4942 l -16.827,9.715 -4.5932,2.6517 h -0.01 l -3.5965,2.0764 v 4.1576 4.5289 12.9701 4.5292 4.1573 l 3.5954,-2.0756 0.01,-0.01 4.5931,-2.652 16.8271,-9.7151 c 1.9947,-1.1516 3.6005,-3.9331 3.6005,-6.2364 v -22.0277 c 0,-1.6555 -0.8297,-2.6001 -2.037,-2.5728 z m -53.1689,0.01 v 0 c -1.2073,-0.028 -2.0368,0.9173 -2.0368,2.5728 v 22.028 c 0,2.3033 1.6058,5.0848 3.6006,6.2364 l 16.827,9.7151 4.5929,2.6517 3.5993,2.0781 v -4.1575 -4.5292 -12.9699 -4.5289 -4.1582 l -3.6006,-2.0788 -4.5929,-2.652 -16.8271,-9.7153 c -0.561,-0.3238 -1.0914,-0.4833 -1.5638,-0.4939 z" />
        <path
           id="path330"
           style="fill:#002981;fill-opacity:1;stroke:none;stroke-width:5.24865;stroke-linecap:butt;stroke-linejoin:round;stroke-miterlimit:4;stroke-dasharray:none;stroke-opacity:1;paint-order:normal"
           d="m 119.90873,60.663945 v 0.01 c -0.9153,0.021 -1.9424,0.3299 -3.0293,0.9575 l -32.602099,18.8227 -8.8992,5.1377 h -0.01 l -6.9681,4.023 v 8.0552 8.774705 25.1293 8.7752 8.0547 l 6.966,-4.0214 0.01,-0.01 8.8992,-5.1382 32.602199,-18.82281 c 3.8646,-2.2312 6.9758,-7.62019 6.9758,-12.083 V 65.650245 c 0,-3.2075 -1.6074,-5.0377 -3.9466,-4.9848 z M 68.399231,148.40715 v -8.055 -8.7752 -25.129 -8.774705 -8.0563 z"
           sodipodi:nodetypes="cccccccccccccccsssccccccccc" />
        <path
           id="path332"
           style="fill:#3172ff;fill-opacity:1;stroke:none;stroke-width:2.709;stroke-linecap:butt;stroke-linejoin:round;stroke-miterlimit:4;stroke-dasharray:none;stroke-opacity:1;paint-order:normal"
           d="m 95.07775,29.256029 v 8e-4 c -0.4725,0.011 -1.0014,0.1795 -1.5624,0.5034 l -16.827,9.715 -4.5932,2.6517 h -0.01 l -3.5921,2.0781 v 30.3448 l 3.591,-2.079 0.01,-0.01 4.5931,-2.652 16.8271,-9.7151 c 1.9947,-1.1516 3.6056,-3.9321 3.6057,-6.2354 v -22.0235 c 1e-4,-1.6555 -0.8359,-2.6053 -2.0432,-2.578 z"
           sodipodi:nodetypes="ccsccccccccssssc" />
      </g>
      <rect
         style="fill:#ffffff;fill-opacity:0.0141844;stroke:none;stroke-width:10;stroke-linecap:square;stroke-linejoin:round;stroke-dasharray:none;stroke-opacity:1;paint-order:markers stroke fill"
         id="rect1212"
         width="375.70801"
         height="130.02377"
         x="-64.375526"
         y="-3.0053566"
         ry="20.782804" />
      <g
         id="g1158"
         transform="matrix(0.59687746,0,0,0.59687746,-4142.1408,-313.79971)">
        <g
           id="g466"
           transform="matrix(0.58338647,0,0,0.58338647,2932.3811,269.64418)"
           style="fill:#ffffff;stroke:#ffffff;stroke-width:28.7183;stroke-linecap:square;stroke-linejoin:round;stroke-dasharray:none;stroke-opacity:1;paint-order:markers stroke fill">
          <g
             id="g444"
             transform="translate(0.20199,-62.68914)"
             style="fill:#ffffff;stroke:#ffffff;stroke-width:28.7183;stroke-linecap:square;stroke-linejoin:round;stroke-dasharray:none;stroke-opacity:1;paint-order:markers stroke fill">
            <path
               d="m 7218.8185,669.04441 q -6.8437,0 -12.8242,-2.40457 -5.9189,-2.46623 -10.5431,-7.02867 -4.5624,-4.62409 -7.2136,-11.89937 -2.6512,-7.33703 -2.6512,-16.46191 0,-9.06332 2.5895,-16.27694 2.6512,-7.27537 7.2137,-11.83782 4.6241,-4.56244 10.543,-6.96701 5.9189,-2.40457 12.7626,-2.40457 8.6934,0 15.5987,4.13096 6.967,4.06921 10.0498,11.40614 v -7.83016 q 0,-3.0211 1.6031,-4.62418 1.6646,-1.66464 4.6857,-1.66464 h 1.5414 q 3.0827,0 4.6858,1.66464 1.603,1.60308 1.603,4.62418 v 59.49714 q 0,3.08267 -1.603,4.68575 -1.6031,1.60299 -4.6858,1.60299 h -1.5414 q -3.0211,0 -4.6857,-1.60299 -1.6031,-1.60308 -1.6031,-4.68575 v -7.33702 q -3.0211,7.21363 -9.9881,11.34459 -6.967,4.06921 -15.5371,4.06921 z m 3.5143,-12.14608 q 10.0499,0 16.2153,-6.90536 6.1655,-6.96701 6.1655,-18.74308 0,-11.7145 -6.2272,-18.55821 -6.2271,-6.90536 -16.4002,-6.90536 -10.0498,0 -16.2152,6.84371 -6.1039,6.8437 -6.1039,18.61986 0,11.89938 6.1655,18.80474 6.1655,6.8437 16.4002,6.8437 z"
               style="font-style:normal;font-variant:normal;font-weight:normal;font-stretch:normal;font-size:14.1111px;line-height:1.25;font-family:'Urbane Rounded';-inkscape-font-specification:'Urbane Rounded';white-space:pre;fill:#ffffff;fill-opacity:1;stroke:#ffffff;stroke-width:28.7183;stroke-linecap:square;stroke-linejoin:round;stroke-dasharray:none;stroke-opacity:1;paint-order:markers stroke fill"
               id="path428" />
            <path
               d="m 7334.8533,595.18167 q 3.0828,0 4.6858,1.66464 1.603,1.60308 1.603,4.62418 v 59.62045 q 0,3.08267 -1.603,4.68575 -1.603,1.60299 -4.6858,1.60299 h -1.5413 q -3.0211,0 -4.6858,-1.60299 -1.6031,-1.60308 -1.6031,-4.68575 v -7.21371 q -2.5895,6.59709 -8.755,10.66639 -6.1038,4.06922 -14.8588,4.06922 -14.859,0 -22.0109,-8.50844 -7.152,-8.57 -7.152,-25.83349 v -32.80042 q 0,-3.0211 1.6031,-4.62418 1.6646,-1.66464 4.6857,-1.66464 h 1.5414 q 3.0827,0 4.6858,1.66464 1.603,1.60308 1.603,4.62418 v 31.69066 q 0,11.89946 4.6858,17.57166 4.7474,5.67229 14.7355,5.67229 9.9882,0 14.6123,-6.28882 4.6241,-6.35048 4.6241,-18.61978 v -30.02601 q 0,-3.0211 1.6031,-4.62418 1.6647,-1.66464 4.6858,-1.66464 z"
               style="font-style:normal;font-variant:normal;font-weight:normal;font-stretch:normal;font-size:14.1111px;line-height:1.25;font-family:'Urbane Rounded';-inkscape-font-specification:'Urbane Rounded';white-space:pre;fill:#ffffff;fill-opacity:1;stroke:#ffffff;stroke-width:28.7183;stroke-linecap:square;stroke-linejoin:round;stroke-dasharray:none;stroke-opacity:1;paint-order:markers stroke fill"
               id="path430" />
            <path
               d="m 7364.756,667.37968 q -3.0828,0 -4.7474,-1.60299 -1.6031,-1.66473 -1.6031,-4.68575 v -83.11102 q 0,-3.02111 1.6031,-4.62418 1.6646,-1.66464 4.7474,-1.66464 h 1.6031 q 3.0827,0 4.6857,1.66464 1.6648,1.60307 1.6648,4.62418 v 83.11102 q 0,3.02102 -1.6648,4.68575 -1.603,1.60299 -4.6857,1.60299 z"
               style="font-style:normal;font-variant:normal;font-weight:normal;font-stretch:normal;font-size:14.1111px;line-height:1.25;font-family:'Urbane Rounded';-inkscape-font-specification:'Urbane Rounded';white-space:pre;fill:#ffffff;fill-opacity:1;stroke:#ffffff;stroke-width:28.7183;stroke-linecap:square;stroke-linejoin:round;stroke-dasharray:none;stroke-opacity:1;paint-order:markers stroke fill"
               id="path432" />
            <path
               d="m 7420.4922,668.36622 q -14.1806,0 -20.5928,-6.7204 -6.4121,-6.78205 -6.4121,-23.059 v -32.43058 h -4.1925 q -3.0211,0 -4.6859,-1.41803 -1.6029,-1.47977 -1.6029,-4.13095 0,-2.6511 1.3563,-4.00756 1.4181,-1.41803 3.9459,-1.41803 h 5.1791 v -7.58364 q 0,-5.73386 5.549,-6.84371 l 1.7879,-0.36956 q 3.3294,-0.74002 5.1174,0.74002 1.788,1.47977 1.788,4.80915 v 9.24827 h 15.0439 q 6.2888,0 6.2888,5.42559 0,2.65119 -1.6647,4.13096 -1.603,1.41803 -4.6241,1.41803 h -15.0439 v 30.76585 q 0,11.15962 3.3294,15.66041 3.3293,4.43914 11.5912,4.43914 6.2271,0 6.782,4.80914 0.6783,5.85716 -5.3024,6.41213 -1.233,0.12349 -3.6376,0.12349 z"
               style="font-style:normal;font-variant:normal;font-weight:normal;font-stretch:normal;font-size:14.1111px;line-height:1.25;font-family:'Urbane Rounded';-inkscape-font-specification:'Urbane Rounded';white-space:pre;fill:#ffffff;fill-opacity:1;stroke:#ffffff;stroke-width:28.7183;stroke-linecap:square;stroke-linejoin:round;stroke-dasharray:none;stroke-opacity:1;paint-order:markers stroke fill"
               id="path434" />
            <path
               d="m 7472.3441,668.7978 q -16.8318,0 -27.0049,-10.23474 -10.1114,-10.29638 -10.1114,-27.31317 0,-16.64686 10.1114,-27.06665 10.1731,-10.41969 26.3884,-10.41969 15.5987,0 25.0319,9.55654 9.4949,9.4949 10.1731,25.27861 0.063,3.08276 -1.603,4.74741 -1.6031,1.60307 -4.6858,1.60307 h -51.2353 q 0.3695,10.4197 6.4737,16.2153 6.1656,5.73385 16.7086,5.73385 5.7339,0 9.7415,-1.41803 4.0692,-1.47977 7.5835,-4.62418 0.247,-0.18523 0.9865,-0.86351 0.74,-0.67827 0.9865,-0.8635 0.247,-0.18523 0.8635,-0.67828 0.6165,-0.49305 0.9248,-0.61653 0.3078,-0.18523 0.9248,-0.43131 0.6166,-0.24697 1.0482,-0.24697 0.4931,-0.0626 1.1098,-0.0626 0.6165,0 1.233,0.18523 l 1.5415,0.43131 q 6.5971,1.66473 2.8978,7.02875 -9.4333,14.05734 -30.0877,14.05734 z m -22.5657,-45.00824 h 43.7751 q -0.7401,-8.69331 -6.4122,-13.74907 -5.6723,-5.05566 -15.1671,-5.05566 -9.3099,0 -15.1672,4.80905 -5.7956,4.74749 -7.0286,13.99568 z"
               style="font-style:normal;font-variant:normal;font-weight:normal;font-stretch:normal;font-size:14.1111px;line-height:1.25;font-family:'Urbane Rounded';-inkscape-font-specification:'Urbane Rounded';white-space:pre;fill:#ffffff;fill-opacity:1;stroke:#ffffff;stroke-width:28.7183;stroke-linecap:square;stroke-linejoin:round;stroke-dasharray:none;stroke-opacity:1;paint-order:markers stroke fill"
               id="path436" />
            <path
               d="m 7551.7559,669.04441 q -6.8437,0 -12.8243,-2.40457 -5.9189,-2.46623 -10.543,-7.02867 -4.5625,-4.62409 -7.2136,-11.89937 -2.6512,-7.33703 -2.6512,-16.46191 0,-9.06332 2.5895,-16.27694 2.6511,-7.27537 7.2137,-11.83782 4.624,-4.56244 10.543,-6.96701 5.9189,-2.40457 12.7626,-2.40457 8.6933,0 15.6604,4.13096 7.0286,4.06921 9.9881,11.40614 v -31.32073 q 0,-3.08276 1.603,-4.68584 1.6647,-1.60298 4.6857,-1.60298 h 1.5415 q 3.0827,0 4.6857,1.60298 1.6031,1.60308 1.6031,4.68584 v 82.98771 q 0,3.08267 -1.6031,4.68575 -1.603,1.60299 -4.6857,1.60299 h -1.5415 q -3.021,0 -4.6857,-1.60299 -1.603,-1.60308 -1.603,-4.68575 v -7.33702 q -3.0211,7.21363 -9.9881,11.34459 -6.9671,4.06921 -15.5371,4.06921 z m 3.5143,-12.14608 q 10.1114,0 16.2153,-6.90536 6.1655,-6.90536 6.1655,-18.74308 0,-11.7145 -6.2272,-18.55821 -6.1655,-6.90536 -16.4002,-6.90536 -10.0498,0 -16.2153,6.84371 -6.1039,6.8437 -6.1039,18.61986 0,11.89938 6.1656,18.80474 6.1655,6.8437 16.4002,6.8437 z"
               style="font-style:normal;font-variant:normal;font-weight:normal;font-stretch:normal;font-size:14.1111px;line-height:1.25;font-family:'Urbane Rounded';-inkscape-font-specification:'Urbane Rounded';white-space:pre;fill:#ffffff;fill-opacity:1;stroke:#ffffff;stroke-width:28.7183;stroke-linecap:square;stroke-linejoin:round;stroke-dasharray:none;stroke-opacity:1;paint-order:markers stroke fill"
               id="path438" />
            <g
               id="g442"
               transform="translate(6862.6262,552.608)"
               style="fill:#ffffff;fill-opacity:1;stroke:#ffffff;stroke-width:28.7183;stroke-linecap:square;stroke-linejoin:round;stroke-dasharray:none;stroke-opacity:1;paint-order:markers stroke fill">
              <path
                 d="m 239.81369,75.505391 q -0.57878,0 -0.81993,-0.551215 l -3.59668,-8.846998 q -0.15158,-0.35829 0,-0.585666 0.15848,-0.234266 0.55122,-0.234266 h 0.31005 q 0.59945,0 0.79927,0.551215 l 3.03857,7.765239 3.03168,-7.765239 q 0.19981,-0.551215 0.80615,-0.551215 h 0.31006 q 0.39274,0 0.54432,0.234266 0.15848,0.227376 0.007,0.585666 l -3.61734,8.846998 q -0.24116,0.551215 -0.81305,0.551215 z"
                 style="font-style:normal;font-variant:normal;font-weight:normal;font-stretch:normal;font-size:14.1111px;line-height:1.25;font-family:'Urbane Rounded';-inkscape-font-specification:'Urbane Rounded';white-space:pre;shape-inside:url(#rect1501);fill:#ffffff;fill-opacity:1;stroke:#ffffff;stroke-width:3.20938;stroke-linecap:square;stroke-linejoin:round;stroke-dasharray:none;stroke-opacity:1;paint-order:markers stroke fill"
                 id="path440"
                 transform="matrix(8.9482438,0,0,8.9482438,-1867.5894,-560.69106)" />
            </g>
          </g>
          <g
             id="g464"
             transform="translate(-530.33816,47.869637)"
             style="fill:#ffffff;stroke:#ffffff;stroke-width:28.7183;stroke-linecap:square;stroke-linejoin:round;stroke-dasharray:none;stroke-opacity:1;paint-order:markers stroke fill">
            <path
               d="m 7758.1154,668.7978 q -16.832,0 -27.005,-10.23474 -10.1115,-10.29638 -10.1115,-27.31317 0,-16.64686 10.1115,-27.06665 10.173,-10.41969 26.3883,-10.41969 15.5988,0 25.032,9.55654 9.4949,9.4949 10.1731,25.27861 0.063,3.08276 -1.6031,4.74741 -1.603,1.60307 -4.6857,1.60307 h -51.2353 q 0.3695,10.4197 6.4737,16.2153 6.1655,5.73385 16.7086,5.73385 5.7338,0 9.7415,-1.41803 4.0692,-1.47977 7.5835,-4.62418 0.247,-0.18523 0.9865,-0.86351 0.74,-0.67827 0.9864,-0.8635 0.247,-0.18523 0.8635,-0.67828 0.6166,-0.49305 0.9248,-0.61653 0.3079,-0.18523 0.9248,-0.43131 0.6166,-0.24697 1.0482,-0.24697 0.4931,-0.0626 1.1098,-0.0626 0.6165,0 1.2331,0.18523 l 1.5414,0.43131 q 6.5971,1.66473 2.8978,7.02875 -9.4333,14.05734 -30.0877,14.05734 z m -22.5658,-45.00824 h 43.7751 q -0.7401,-8.69331 -6.4122,-13.74907 -5.6723,-5.05566 -15.1672,-5.05566 -9.3098,0 -15.1671,4.80905 -5.7956,4.74749 -7.0286,13.99568 z"
               style="font-style:normal;font-variant:normal;font-weight:normal;font-stretch:normal;font-size:14.1111px;line-height:1.25;font-family:'Urbane Rounded';-inkscape-font-specification:'Urbane Rounded';white-space:pre;fill:#ffffff;fill-opacity:1;stroke:#ffffff;stroke-width:28.7183;stroke-linecap:square;stroke-linejoin:round;stroke-dasharray:none;stroke-opacity:1;paint-order:markers stroke fill"
               id="path446" />
            <path
               d="m 7844.6173,593.88686 q 14.8589,0 22.0109,8.57009 7.152,8.50835 7.152,25.77183 v 32.86216 q 0,3.02102 -1.6647,4.68575 -1.603,1.60299 -4.6858,1.60299 h -1.4797 q -3.0827,0 -4.7475,-1.60299 -1.603,-1.66473 -1.603,-4.68575 V 629.4002 q 0,-11.89947 -4.7474,-17.57167 -4.6858,-5.67229 -14.6739,-5.67229 -9.9881,0 -14.6122,6.28883 -4.5626,6.28882 -4.5626,18.55821 v 30.08766 q 0,3.02102 -1.6646,4.68575 -1.6031,1.60299 -4.6858,1.60299 h -1.4797 q -3.0828,0 -4.7474,-1.60299 -1.6031,-1.66473 -1.6031,-4.68575 v -59.62045 q 0,-3.0211 1.6031,-4.62418 1.6646,-1.66464 4.7474,-1.66464 h 1.4797 q 3.0827,0 4.6858,1.66464 1.6646,1.60308 1.6646,4.62418 v 7.15198 q 2.5896,-6.5971 8.6934,-10.66631 6.1655,-4.0693 14.9205,-4.0693 z"
               style="font-style:normal;font-variant:normal;font-weight:normal;font-stretch:normal;font-size:14.1111px;line-height:1.25;font-family:'Urbane Rounded';-inkscape-font-specification:'Urbane Rounded';white-space:pre;fill:#ffffff;fill-opacity:1;stroke:#ffffff;stroke-width:28.7183;stroke-linecap:square;stroke-linejoin:round;stroke-dasharray:none;stroke-opacity:1;paint-order:markers stroke fill"
               id="path448" />
            <path
               d="m 7919.0968,668.36622 q -14.1808,0 -20.5929,-6.7204 -6.4121,-6.78205 -6.4121,-23.059 v -32.43058 h -4.1926 q -3.0211,0 -4.6857,-1.41803 -1.6031,-1.47977 -1.6031,-4.13095 0,-2.6511 1.3565,-4.00756 1.418,-1.41803 3.9459,-1.41803 h 5.179 v -7.58364 q 0,-5.73386 5.549,-6.84371 l 1.788,-0.36956 q 3.3294,-0.74002 5.1173,0.74002 1.7881,1.47977 1.7881,4.80915 v 9.24827 h 15.0437 q 6.2889,0 6.2889,5.42559 0,2.65119 -1.6647,4.13096 -1.6031,1.41803 -4.6242,1.41803 h -15.0437 v 30.76585 q 0,11.15962 3.3293,15.66041 3.3294,4.43914 11.5911,4.43914 6.2272,0 6.7821,4.80914 0.6783,5.85716 -5.3023,6.41213 -1.2332,0.12349 -3.6376,0.12349 z"
               style="font-style:normal;font-variant:normal;font-weight:normal;font-stretch:normal;font-size:14.1111px;line-height:1.25;font-family:'Urbane Rounded';-inkscape-font-specification:'Urbane Rounded';white-space:pre;fill:#ffffff;fill-opacity:1;stroke:#ffffff;stroke-width:28.7183;stroke-linecap:square;stroke-linejoin:round;stroke-dasharray:none;stroke-opacity:1;paint-order:markers stroke fill"
               id="path450" />
            <path
               d="m 7998.5084,595.18167 q 3.0828,0 4.6858,1.66464 1.603,1.60308 1.603,4.62418 v 59.62045 q 0,3.08267 -1.603,4.68575 -1.603,1.60299 -4.6858,1.60299 h -1.5413 q -3.0211,0 -4.6859,-1.60299 -1.603,-1.60308 -1.603,-4.68575 v -7.21371 q -2.5895,6.59709 -8.755,10.66639 -6.1039,4.06922 -14.8588,4.06922 -14.859,0 -22.0109,-8.50844 -7.152,-8.57 -7.152,-25.83349 v -32.80042 q 0,-3.0211 1.6031,-4.62418 1.6646,-1.66464 4.6857,-1.66464 h 1.5414 q 3.0827,0 4.6858,1.66464 1.603,1.60308 1.603,4.62418 v 31.69066 q 0,11.89946 4.6858,17.57166 4.7474,5.67229 14.7355,5.67229 9.9882,0 14.6123,-6.28882 4.6241,-6.35048 4.6241,-18.61978 v -30.02601 q 0,-3.0211 1.603,-4.62418 1.6648,-1.66464 4.6859,-1.66464 z"
               style="font-style:normal;font-variant:normal;font-weight:normal;font-stretch:normal;font-size:14.1111px;line-height:1.25;font-family:'Urbane Rounded';-inkscape-font-specification:'Urbane Rounded';white-space:pre;fill:#ffffff;fill-opacity:1;stroke:#ffffff;stroke-width:28.7183;stroke-linecap:square;stroke-linejoin:round;stroke-dasharray:none;stroke-opacity:1;paint-order:markers stroke fill"
               id="path452" />
            <path
               d="m 8054.9228,594.25678 q 3.2061,0 4.7475,1.91134 1.5413,1.84969 1.1714,4.93245 l -0.1235,0.98646 q -0.247,2.95945 -1.973,4.25417 -1.7263,1.29472 -4.994,1.29472 -17.51,0.36956 -17.51,23.98389 v 29.47113 q 0,3.02102 -1.6648,4.68575 -1.6029,1.60299 -4.6857,1.60299 h -1.4798 q -3.0827,0 -4.7474,-1.60299 -1.6031,-1.66473 -1.6031,-4.68575 v -59.62045 q 0,-3.0211 1.6031,-4.62418 1.6647,-1.66464 4.7474,-1.66464 h 1.4798 q 3.0828,0 4.6857,1.60299 1.6648,1.54142 1.6648,4.43922 v 6.04212 q 1.9729,-5.48724 6.6587,-9.24819 4.6858,-3.76103 12.0227,-3.76103 z"
               style="font-style:normal;font-variant:normal;font-weight:normal;font-stretch:normal;font-size:14.1111px;line-height:1.25;font-family:'Urbane Rounded';-inkscape-font-specification:'Urbane Rounded';white-space:pre;fill:#ffffff;fill-opacity:1;stroke:#ffffff;stroke-width:28.7183;stroke-linecap:square;stroke-linejoin:round;stroke-dasharray:none;stroke-opacity:1;paint-order:markers stroke fill"
               id="path454" />
            <path
               d="m 8100.4242,668.7978 q -16.8318,0 -27.0049,-10.23474 -10.1115,-10.29638 -10.1115,-27.31317 0,-16.64686 10.1115,-27.06665 10.1731,-10.41969 26.3883,-10.41969 15.5988,0 25.032,9.55654 9.4949,9.4949 10.1731,25.27861 0.063,3.08276 -1.603,4.74741 -1.6031,1.60307 -4.6858,1.60307 h -51.2353 q 0.3695,10.4197 6.4737,16.2153 6.1656,5.73385 16.7086,5.73385 5.7338,0 9.7415,-1.41803 4.0692,-1.47977 7.5835,-4.62418 0.247,-0.18523 0.9865,-0.86351 0.74,-0.67827 0.9865,-0.8635 0.247,-0.18523 0.8635,-0.67828 0.6166,-0.49305 0.9248,-0.61653 0.3078,-0.18523 0.9248,-0.43131 0.6166,-0.24697 1.0482,-0.24697 0.4931,-0.0626 1.1098,-0.0626 0.6165,0 1.233,0.18523 l 1.5415,0.43131 q 6.5971,1.66473 2.8978,7.02875 -9.4333,14.05734 -30.0877,14.05734 z m -22.5657,-45.00824 h 43.7751 q -0.7401,-8.69331 -6.4122,-13.74907 -5.6723,-5.05566 -15.1671,-5.05566 -9.3099,0 -15.1672,4.80905 -5.7956,4.74749 -7.0286,13.99568 z"
               style="font-style:normal;font-variant:normal;font-weight:normal;font-stretch:normal;font-size:14.1111px;line-height:1.25;font-family:'Urbane Rounded';-inkscape-font-specification:'Urbane Rounded';white-space:pre;fill:#ffffff;fill-opacity:1;stroke:#ffffff;stroke-width:28.7183;stroke-linecap:square;stroke-linejoin:round;stroke-dasharray:none;stroke-opacity:1;paint-order:markers stroke fill"
               id="path456" />
            <path
               d="m 8177.3697,668.61284 q -9.2482,0 -17.9416,-3.39103 -8.6317,-3.45268 -13.0709,-9.06332 -1.9113,-2.46622 -1.1098,-4.7474 0.8635,-2.28127 4.0076,-3.20607 l 1.2948,-0.36956 q 1.9113,-0.74002 3.8226,-0.24697 1.9113,0.49305 4.5008,2.7744 6.9054,6.16552 18.4349,6.16552 7.8918,0 12.331,-2.65118 4.4392,-2.71275 4.4392,-7.46024 0,-2.65119 -1.6031,-4.50079 -1.603,-1.91135 -4.3158,-2.95946 -2.7129,-1.10976 -6.2272,-1.84969 -3.5143,-0.80176 -7.3986,-1.47968 -3.8843,-0.67828 -7.7685,-1.47968 -3.8227,-0.86351 -7.337,-2.34292 -3.5144,-1.47977 -6.2271,-3.51433 -2.7128,-2.09631 -4.3159,-5.48733 -1.603,-3.45268 -1.603,-7.95347 0,-6.41213 4.0075,-11.28293 4.0693,-4.87071 10.6047,-7.27528 6.5354,-2.40457 14.3656,-2.40457 7.337,0 15.0439,2.83614 7.7068,2.77449 12.2694,7.52199 2.2195,2.34282 1.6029,4.62409 -0.6165,2.28127 -3.6992,3.20607 l -1.2948,0.36956 q -1.2331,0.36956 -2.2196,0.4313 -0.9248,0.0626 -2.1579,-0.4313 -1.1715,-0.49305 -1.7263,-0.80176 -0.5548,-0.30872 -2.343,-1.41803 -7.8301,-4.68584 -15.2904,-4.68584 -7.0287,0 -11.1596,2.28127 -4.1308,2.21952 -4.1308,6.35047 0,2.58954 1.6029,4.37749 1.6031,1.78803 4.316,2.83614 2.7745,0.98646 6.2888,1.7263 3.576,0.74002 7.4602,1.41811 3.9459,0.67828 7.8302,1.54134 3.9459,0.80176 7.4602,2.34292 3.5761,1.54133 6.2889,3.69929 2.7744,2.15796 4.3775,5.73395 1.603,3.51433 1.603,8.20008 0,10.04977 -8.6933,16.3386 -8.6934,6.22717 -22.3192,6.22717 z"
               style="font-style:normal;font-variant:normal;font-weight:normal;font-stretch:normal;font-size:14.1111px;line-height:1.25;font-family:'Urbane Rounded';-inkscape-font-specification:'Urbane Rounded';white-space:pre;fill:#ffffff;fill-opacity:1;stroke:#ffffff;stroke-width:28.7183;stroke-linecap:square;stroke-linejoin:round;stroke-dasharray:none;stroke-opacity:1;paint-order:markers stroke fill"
               id="path458" />
            <g
               id="g462"
               transform="translate(7398.5397,552.608)"
               style="fill:#ffffff;fill-opacity:1;stroke:#ffffff;stroke-width:28.7183;stroke-linecap:square;stroke-linejoin:round;stroke-dasharray:none;stroke-opacity:1;paint-order:markers stroke fill">
              <path
                 d="m 239.81369,75.505391 q -0.57878,0 -0.81993,-0.551215 l -3.59668,-8.846998 q -0.15158,-0.35829 0,-0.585666 0.15848,-0.234266 0.55122,-0.234266 h 0.31005 q 0.59945,0 0.79927,0.551215 l 3.03857,7.765239 3.03168,-7.765239 q 0.19981,-0.551215 0.80615,-0.551215 h 0.31006 q 0.39274,0 0.54432,0.234266 0.15848,0.227376 0.007,0.585666 l -3.61734,8.846998 q -0.24116,0.551215 -0.81305,0.551215 z"
                 style="font-style:normal;font-variant:normal;font-weight:normal;font-stretch:normal;font-size:14.1111px;line-height:1.25;font-family:'Urbane Rounded';-inkscape-font-specification:'Urbane Rounded';white-space:pre;shape-inside:url(#rect1501);fill:#ffffff;fill-opacity:1;stroke:#ffffff;stroke-width:3.20938;stroke-linecap:square;stroke-linejoin:round;stroke-dasharray:none;stroke-opacity:1;paint-order:markers stroke fill"
                 id="path460"
                 transform="matrix(8.9482438,0,0,8.9482438,-1867.5894,-560.69106)" />
            </g>
          </g>
        </g>
        <g
           id="g426"
           transform="matrix(0.58338647,0,0,0.58338647,2932.3811,269.64418)">
          <g
             id="g405"
             transform="translate(0.20199,-62.68914)">
            <path
               d="m 7218.8185,669.04441 q -6.8437,0 -12.8242,-2.40457 -5.9189,-2.46623 -10.5431,-7.02867 -4.5624,-4.62409 -7.2136,-11.89937 -2.6512,-7.33703 -2.6512,-16.46191 0,-9.06332 2.5895,-16.27694 2.6512,-7.27537 7.2137,-11.83782 4.6241,-4.56244 10.543,-6.96701 5.9189,-2.40457 12.7626,-2.40457 8.6934,0 15.5987,4.13096 6.967,4.06921 10.0498,11.40614 v -7.83016 q 0,-3.0211 1.6031,-4.62418 1.6646,-1.66464 4.6857,-1.66464 h 1.5414 q 3.0827,0 4.6858,1.66464 1.603,1.60308 1.603,4.62418 v 59.49714 q 0,3.08267 -1.603,4.68575 -1.6031,1.60299 -4.6858,1.60299 h -1.5414 q -3.0211,0 -4.6857,-1.60299 -1.6031,-1.60308 -1.6031,-4.68575 v -7.33702 q -3.0211,7.21363 -9.9881,11.34459 -6.967,4.06921 -15.5371,4.06921 z m 3.5143,-12.14608 q 10.0499,0 16.2153,-6.90536 6.1655,-6.96701 6.1655,-18.74308 0,-11.7145 -6.2272,-18.55821 -6.2271,-6.90536 -16.4002,-6.90536 -10.0498,0 -16.2152,6.84371 -6.1039,6.8437 -6.1039,18.61986 0,11.89938 6.1655,18.80474 6.1655,6.8437 16.4002,6.8437 z"
               style="font-style:normal;font-variant:normal;font-weight:normal;font-stretch:normal;font-size:14.1111px;line-height:1.25;font-family:'Urbane Rounded';-inkscape-font-specification:'Urbane Rounded';white-space:pre;fill:#00194f;fill-opacity:1;stroke-width:8.94824;stroke-linecap:square;paint-order:stroke fill markers"
               id="path336" />
            <path
               d="m 7334.8533,595.18167 q 3.0828,0 4.6858,1.66464 1.603,1.60308 1.603,4.62418 v 59.62045 q 0,3.08267 -1.603,4.68575 -1.603,1.60299 -4.6858,1.60299 h -1.5413 q -3.0211,0 -4.6858,-1.60299 -1.6031,-1.60308 -1.6031,-4.68575 v -7.21371 q -2.5895,6.59709 -8.755,10.66639 -6.1038,4.06922 -14.8588,4.06922 -14.859,0 -22.0109,-8.50844 -7.152,-8.57 -7.152,-25.83349 v -32.80042 q 0,-3.0211 1.6031,-4.62418 1.6646,-1.66464 4.6857,-1.66464 h 1.5414 q 3.0827,0 4.6858,1.66464 1.603,1.60308 1.603,4.62418 v 31.69066 q 0,11.89946 4.6858,17.57166 4.7474,5.67229 14.7355,5.67229 9.9882,0 14.6123,-6.28882 4.6241,-6.35048 4.6241,-18.61978 v -30.02601 q 0,-3.0211 1.6031,-4.62418 1.6647,-1.66464 4.6858,-1.66464 z"
               style="font-style:normal;font-variant:normal;font-weight:normal;font-stretch:normal;font-size:14.1111px;line-height:1.25;font-family:'Urbane Rounded';-inkscape-font-specification:'Urbane Rounded';white-space:pre;fill:#00194f;fill-opacity:1;stroke-width:8.94824;stroke-linecap:square;paint-order:stroke fill markers"
               id="path338" />
            <path
               d="m 7364.756,667.37968 q -3.0828,0 -4.7474,-1.60299 -1.6031,-1.66473 -1.6031,-4.68575 v -83.11102 q 0,-3.02111 1.6031,-4.62418 1.6646,-1.66464 4.7474,-1.66464 h 1.6031 q 3.0827,0 4.6857,1.66464 1.6648,1.60307 1.6648,4.62418 v 83.11102 q 0,3.02102 -1.6648,4.68575 -1.603,1.60299 -4.6857,1.60299 z"
               style="font-style:normal;font-variant:normal;font-weight:normal;font-stretch:normal;font-size:14.1111px;line-height:1.25;font-family:'Urbane Rounded';-inkscape-font-specification:'Urbane Rounded';white-space:pre;fill:#00194f;fill-opacity:1;stroke-width:8.94824;stroke-linecap:square;paint-order:stroke fill markers"
               id="path340" />
            <path
               d="m 7420.4922,668.36622 q -14.1806,0 -20.5928,-6.7204 -6.4121,-6.78205 -6.4121,-23.059 v -32.43058 h -4.1925 q -3.0211,0 -4.6859,-1.41803 -1.6029,-1.47977 -1.6029,-4.13095 0,-2.6511 1.3563,-4.00756 1.4181,-1.41803 3.9459,-1.41803 h 5.1791 v -7.58364 q 0,-5.73386 5.549,-6.84371 l 1.7879,-0.36956 q 3.3294,-0.74002 5.1174,0.74002 1.788,1.47977 1.788,4.80915 v 9.24827 h 15.0439 q 6.2888,0 6.2888,5.42559 0,2.65119 -1.6647,4.13096 -1.603,1.41803 -4.6241,1.41803 h -15.0439 v 30.76585 q 0,11.15962 3.3294,15.66041 3.3293,4.43914 11.5912,4.43914 6.2271,0 6.782,4.80914 0.6783,5.85716 -5.3024,6.41213 -1.233,0.12349 -3.6376,0.12349 z"
               style="font-style:normal;font-variant:normal;font-weight:normal;font-stretch:normal;font-size:14.1111px;line-height:1.25;font-family:'Urbane Rounded';-inkscape-font-specification:'Urbane Rounded';white-space:pre;fill:#00194f;fill-opacity:1;stroke-width:8.94824;stroke-linecap:square;paint-order:stroke fill markers"
               id="path342" />
            <path
               d="m 7472.3441,668.7978 q -16.8318,0 -27.0049,-10.23474 -10.1114,-10.29638 -10.1114,-27.31317 0,-16.64686 10.1114,-27.06665 10.1731,-10.41969 26.3884,-10.41969 15.5987,0 25.0319,9.55654 9.4949,9.4949 10.1731,25.27861 0.063,3.08276 -1.603,4.74741 -1.6031,1.60307 -4.6858,1.60307 h -51.2353 q 0.3695,10.4197 6.4737,16.2153 6.1656,5.73385 16.7086,5.73385 5.7339,0 9.7415,-1.41803 4.0692,-1.47977 7.5835,-4.62418 0.247,-0.18523 0.9865,-0.86351 0.74,-0.67827 0.9865,-0.8635 0.247,-0.18523 0.8635,-0.67828 0.6165,-0.49305 0.9248,-0.61653 0.3078,-0.18523 0.9248,-0.43131 0.6166,-0.24697 1.0482,-0.24697 0.4931,-0.0626 1.1098,-0.0626 0.6165,0 1.233,0.18523 l 1.5415,0.43131 q 6.5971,1.66473 2.8978,7.02875 -9.4333,14.05734 -30.0877,14.05734 z m -22.5657,-45.00824 h 43.7751 q -0.7401,-8.69331 -6.4122,-13.74907 -5.6723,-5.05566 -15.1671,-5.05566 -9.3099,0 -15.1672,4.80905 -5.7956,4.74749 -7.0286,13.99568 z"
               style="font-style:normal;font-variant:normal;font-weight:normal;font-stretch:normal;font-size:14.1111px;line-height:1.25;font-family:'Urbane Rounded';-inkscape-font-specification:'Urbane Rounded';white-space:pre;fill:#00194f;fill-opacity:1;stroke-width:8.94824;stroke-linecap:square;paint-order:stroke fill markers"
               id="path344" />
            <path
               d="m 7551.7559,669.04441 q -6.8437,0 -12.8243,-2.40457 -5.9189,-2.46623 -10.543,-7.02867 -4.5625,-4.62409 -7.2136,-11.89937 -2.6512,-7.33703 -2.6512,-16.46191 0,-9.06332 2.5895,-16.27694 2.6511,-7.27537 7.2137,-11.83782 4.624,-4.56244 10.543,-6.96701 5.9189,-2.40457 12.7626,-2.40457 8.6933,0 15.6604,4.13096 7.0286,4.06921 9.9881,11.40614 v -31.32073 q 0,-3.08276 1.603,-4.68584 1.6647,-1.60298 4.6857,-1.60298 h 1.5415 q 3.0827,0 4.6857,1.60298 1.6031,1.60308 1.6031,4.68584 v 82.98771 q 0,3.08267 -1.6031,4.68575 -1.603,1.60299 -4.6857,1.60299 h -1.5415 q -3.021,0 -4.6857,-1.60299 -1.603,-1.60308 -1.603,-4.68575 v -7.33702 q -3.0211,7.21363 -9.9881,11.34459 -6.9671,4.06921 -15.5371,4.06921 z m 3.5143,-12.14608 q 10.1114,0 16.2153,-6.90536 6.1655,-6.90536 6.1655,-18.74308 0,-11.7145 -6.2272,-18.55821 -6.1655,-6.90536 -16.4002,-6.90536 -10.0498,0 -16.2153,6.84371 -6.1039,6.8437 -6.1039,18.61986 0,11.89938 6.1656,18.80474 6.1655,6.8437 16.4002,6.8437 z"
               style="font-style:normal;font-variant:normal;font-weight:normal;font-stretch:normal;font-size:14.1111px;line-height:1.25;font-family:'Urbane Rounded';-inkscape-font-specification:'Urbane Rounded';white-space:pre;fill:#00194f;fill-opacity:1;stroke-width:8.94824;stroke-linecap:square;paint-order:stroke fill markers"
               id="path346" />
            <g
               id="g364"
               transform="translate(6862.6262,552.608)"
               style="fill:#00194f;fill-opacity:1">
              <path
                 d="m 239.81369,75.505391 q -0.57878,0 -0.81993,-0.551215 l -3.59668,-8.846998 q -0.15158,-0.35829 0,-0.585666 0.15848,-0.234266 0.55122,-0.234266 h 0.31005 q 0.59945,0 0.79927,0.551215 l 3.03857,7.765239 3.03168,-7.765239 q 0.19981,-0.551215 0.80615,-0.551215 h 0.31006 q 0.39274,0 0.54432,0.234266 0.15848,0.227376 0.007,0.585666 l -3.61734,8.846998 q -0.24116,0.551215 -0.81305,0.551215 z"
                 style="font-style:normal;font-variant:normal;font-weight:normal;font-stretch:normal;font-size:14.1111px;line-height:1.25;font-family:'Urbane Rounded';-inkscape-font-specification:'Urbane Rounded';white-space:pre;shape-inside:url(#rect1501);fill:#00194f;fill-opacity:1;stroke-linecap:square;paint-order:stroke fill markers"
                 id="path362"
                 transform="matrix(8.9482438,0,0,8.9482438,-1867.5894,-560.69106)" />
            </g>
          </g>
          <g
             id="g395"
             transform="translate(-530.33816,47.869637)"
             style="stroke-linecap:square;paint-order:stroke fill markers">
            <path
               d="m 7758.1154,668.7978 q -16.832,0 -27.005,-10.23474 -10.1115,-10.29638 -10.1115,-27.31317 0,-16.64686 10.1115,-27.06665 10.173,-10.41969 26.3883,-10.41969 15.5988,0 25.032,9.55654 9.4949,9.4949 10.1731,25.27861 0.063,3.08276 -1.6031,4.74741 -1.603,1.60307 -4.6857,1.60307 h -51.2353 q 0.3695,10.4197 6.4737,16.2153 6.1655,5.73385 16.7086,5.73385 5.7338,0 9.7415,-1.41803 4.0692,-1.47977 7.5835,-4.62418 0.247,-0.18523 0.9865,-0.86351 0.74,-0.67827 0.9864,-0.8635 0.247,-0.18523 0.8635,-0.67828 0.6166,-0.49305 0.9248,-0.61653 0.3079,-0.18523 0.9248,-0.43131 0.6166,-0.24697 1.0482,-0.24697 0.4931,-0.0626 1.1098,-0.0626 0.6165,0 1.2331,0.18523 l 1.5414,0.43131 q 6.5971,1.66473 2.8978,7.02875 -9.4333,14.05734 -30.0877,14.05734 z m -22.5658,-45.00824 h 43.7751 q -0.7401,-8.69331 -6.4122,-13.74907 -5.6723,-5.05566 -15.1672,-5.05566 -9.3098,0 -15.1671,4.80905 -5.7956,4.74749 -7.0286,13.99568 z"
               style="font-style:normal;font-variant:normal;font-weight:normal;font-stretch:normal;font-size:14.1111px;line-height:1.25;font-family:'Urbane Rounded';-inkscape-font-specification:'Urbane Rounded';white-space:pre;fill:#00194f;fill-opacity:1;stroke-width:8.94824;stroke-linecap:square;paint-order:stroke fill markers"
               id="path348" />
            <path
               d="m 7844.6173,593.88686 q 14.8589,0 22.0109,8.57009 7.152,8.50835 7.152,25.77183 v 32.86216 q 0,3.02102 -1.6647,4.68575 -1.603,1.60299 -4.6858,1.60299 h -1.4797 q -3.0827,0 -4.7475,-1.60299 -1.603,-1.66473 -1.603,-4.68575 V 629.4002 q 0,-11.89947 -4.7474,-17.57167 -4.6858,-5.67229 -14.6739,-5.67229 -9.9881,0 -14.6122,6.28883 -4.5626,6.28882 -4.5626,18.55821 v 30.08766 q 0,3.02102 -1.6646,4.68575 -1.6031,1.60299 -4.6858,1.60299 h -1.4797 q -3.0828,0 -4.7474,-1.60299 -1.6031,-1.66473 -1.6031,-4.68575 v -59.62045 q 0,-3.0211 1.6031,-4.62418 1.6646,-1.66464 4.7474,-1.66464 h 1.4797 q 3.0827,0 4.6858,1.66464 1.6646,1.60308 1.6646,4.62418 v 7.15198 q 2.5896,-6.5971 8.6934,-10.66631 6.1655,-4.0693 14.9205,-4.0693 z"
               style="font-style:normal;font-variant:normal;font-weight:normal;font-stretch:normal;font-size:14.1111px;line-height:1.25;font-family:'Urbane Rounded';-inkscape-font-specification:'Urbane Rounded';white-space:pre;fill:#00194f;fill-opacity:1;stroke-width:8.94824;stroke-linecap:square;paint-order:stroke fill markers"
               id="path350" />
            <path
               d="m 7919.0968,668.36622 q -14.1808,0 -20.5929,-6.7204 -6.4121,-6.78205 -6.4121,-23.059 v -32.43058 h -4.1926 q -3.0211,0 -4.6857,-1.41803 -1.6031,-1.47977 -1.6031,-4.13095 0,-2.6511 1.3565,-4.00756 1.418,-1.41803 3.9459,-1.41803 h 5.179 v -7.58364 q 0,-5.73386 5.549,-6.84371 l 1.788,-0.36956 q 3.3294,-0.74002 5.1173,0.74002 1.7881,1.47977 1.7881,4.80915 v 9.24827 h 15.0437 q 6.2889,0 6.2889,5.42559 0,2.65119 -1.6647,4.13096 -1.6031,1.41803 -4.6242,1.41803 h -15.0437 v 30.76585 q 0,11.15962 3.3293,15.66041 3.3294,4.43914 11.5911,4.43914 6.2272,0 6.7821,4.80914 0.6783,5.85716 -5.3023,6.41213 -1.2332,0.12349 -3.6376,0.12349 z"
               style="font-style:normal;font-variant:normal;font-weight:normal;font-stretch:normal;font-size:14.1111px;line-height:1.25;font-family:'Urbane Rounded';-inkscape-font-specification:'Urbane Rounded';white-space:pre;fill:#00194f;fill-opacity:1;stroke-width:8.94824;stroke-linecap:square;paint-order:stroke fill markers"
               id="path352" />
            <path
               d="m 7998.5084,595.18167 q 3.0828,0 4.6858,1.66464 1.603,1.60308 1.603,4.62418 v 59.62045 q 0,3.08267 -1.603,4.68575 -1.603,1.60299 -4.6858,1.60299 h -1.5413 q -3.0211,0 -4.6859,-1.60299 -1.603,-1.60308 -1.603,-4.68575 v -7.21371 q -2.5895,6.59709 -8.755,10.66639 -6.1039,4.06922 -14.8588,4.06922 -14.859,0 -22.0109,-8.50844 -7.152,-8.57 -7.152,-25.83349 v -32.80042 q 0,-3.0211 1.6031,-4.62418 1.6646,-1.66464 4.6857,-1.66464 h 1.5414 q 3.0827,0 4.6858,1.66464 1.603,1.60308 1.603,4.62418 v 31.69066 q 0,11.89946 4.6858,17.57166 4.7474,5.67229 14.7355,5.67229 9.9882,0 14.6123,-6.28882 4.6241,-6.35048 4.6241,-18.61978 v -30.02601 q 0,-3.0211 1.603,-4.62418 1.6648,-1.66464 4.6859,-1.66464 z"
               style="font-style:normal;font-variant:normal;font-weight:normal;font-stretch:normal;font-size:14.1111px;line-height:1.25;font-family:'Urbane Rounded';-inkscape-font-specification:'Urbane Rounded';white-space:pre;fill:#00194f;fill-opacity:1;stroke-width:8.94824;stroke-linecap:square;paint-order:stroke fill markers"
               id="path354" />
            <path
               d="m 8054.9228,594.25678 q 3.2061,0 4.7475,1.91134 1.5413,1.84969 1.1714,4.93245 l -0.1235,0.98646 q -0.247,2.95945 -1.973,4.25417 -1.7263,1.29472 -4.994,1.29472 -17.51,0.36956 -17.51,23.98389 v 29.47113 q 0,3.02102 -1.6648,4.68575 -1.6029,1.60299 -4.6857,1.60299 h -1.4798 q -3.0827,0 -4.7474,-1.60299 -1.6031,-1.66473 -1.6031,-4.68575 v -59.62045 q 0,-3.0211 1.6031,-4.62418 1.6647,-1.66464 4.7474,-1.66464 h 1.4798 q 3.0828,0 4.6857,1.60299 1.6648,1.54142 1.6648,4.43922 v 6.04212 q 1.9729,-5.48724 6.6587,-9.24819 4.6858,-3.76103 12.0227,-3.76103 z"
               style="font-style:normal;font-variant:normal;font-weight:normal;font-stretch:normal;font-size:14.1111px;line-height:1.25;font-family:'Urbane Rounded';-inkscape-font-specification:'Urbane Rounded';white-space:pre;fill:#00194f;fill-opacity:1;stroke-width:8.94824;stroke-linecap:square;paint-order:stroke fill markers"
               id="path356" />
            <path
               d="m 8100.4242,668.7978 q -16.8318,0 -27.0049,-10.23474 -10.1115,-10.29638 -10.1115,-27.31317 0,-16.64686 10.1115,-27.06665 10.1731,-10.41969 26.3883,-10.41969 15.5988,0 25.032,9.55654 9.4949,9.4949 10.1731,25.27861 0.063,3.08276 -1.603,4.74741 -1.6031,1.60307 -4.6858,1.60307 h -51.2353 q 0.3695,10.4197 6.4737,16.2153 6.1656,5.73385 16.7086,5.73385 5.7338,0 9.7415,-1.41803 4.0692,-1.47977 7.5835,-4.62418 0.247,-0.18523 0.9865,-0.86351 0.74,-0.67827 0.9865,-0.8635 0.247,-0.18523 0.8635,-0.67828 0.6166,-0.49305 0.9248,-0.61653 0.3078,-0.18523 0.9248,-0.43131 0.6166,-0.24697 1.0482,-0.24697 0.4931,-0.0626 1.1098,-0.0626 0.6165,0 1.233,0.18523 l 1.5415,0.43131 q 6.5971,1.66473 2.8978,7.02875 -9.4333,14.05734 -30.0877,14.05734 z m -22.5657,-45.00824 h 43.7751 q -0.7401,-8.69331 -6.4122,-13.74907 -5.6723,-5.05566 -15.1671,-5.05566 -9.3099,0 -15.1672,4.80905 -5.7956,4.74749 -7.0286,13.99568 z"
               style="font-style:normal;font-variant:normal;font-weight:normal;font-stretch:normal;font-size:14.1111px;line-height:1.25;font-family:'Urbane Rounded';-inkscape-font-specification:'Urbane Rounded';white-space:pre;fill:#00194f;fill-opacity:1;stroke-width:8.94824;stroke-linecap:square;paint-order:stroke fill markers"
               id="path358" />
            <path
               d="m 8177.3697,668.61284 q -9.2482,0 -17.9416,-3.39103 -8.6317,-3.45268 -13.0709,-9.06332 -1.9113,-2.46622 -1.1098,-4.7474 0.8635,-2.28127 4.0076,-3.20607 l 1.2948,-0.36956 q 1.9113,-0.74002 3.8226,-0.24697 1.9113,0.49305 4.5008,2.7744 6.9054,6.16552 18.4349,6.16552 7.8918,0 12.331,-2.65118 4.4392,-2.71275 4.4392,-7.46024 0,-2.65119 -1.6031,-4.50079 -1.603,-1.91135 -4.3158,-2.95946 -2.7129,-1.10976 -6.2272,-1.84969 -3.5143,-0.80176 -7.3986,-1.47968 -3.8843,-0.67828 -7.7685,-1.47968 -3.8227,-0.86351 -7.337,-2.34292 -3.5144,-1.47977 -6.2271,-3.51433 -2.7128,-2.09631 -4.3159,-5.48733 -1.603,-3.45268 -1.603,-7.95347 0,-6.41213 4.0075,-11.28293 4.0693,-4.87071 10.6047,-7.27528 6.5354,-2.40457 14.3656,-2.40457 7.337,0 15.0439,2.83614 7.7068,2.77449 12.2694,7.52199 2.2195,2.34282 1.6029,4.62409 -0.6165,2.28127 -3.6992,3.20607 l -1.2948,0.36956 q -1.2331,0.36956 -2.2196,0.4313 -0.9248,0.0626 -2.1579,-0.4313 -1.1715,-0.49305 -1.7263,-0.80176 -0.5548,-0.30872 -2.343,-1.41803 -7.8301,-4.68584 -15.2904,-4.68584 -7.0287,0 -11.1596,2.28127 -4.1308,2.21952 -4.1308,6.35047 0,2.58954 1.6029,4.37749 1.6031,1.78803 4.316,2.83614 2.7745,0.98646 6.2888,1.7263 3.576,0.74002 7.4602,1.41811 3.9459,0.67828 7.8302,1.54134 3.9459,0.80176 7.4602,2.34292 3.5761,1.54133 6.2889,3.69929 2.7744,2.15796 4.3775,5.73395 1.603,3.51433 1.603,8.20008 0,10.04977 -8.6933,16.3386 -8.6934,6.22717 -22.3192,6.22717 z"
               style="font-style:normal;font-variant:normal;font-weight:normal;font-stretch:normal;font-size:14.1111px;line-height:1.25;font-family:'Urbane Rounded';-inkscape-font-specification:'Urbane Rounded';white-space:pre;fill:#00194f;fill-opacity:1;stroke-width:8.94824;stroke-linecap:square;paint-order:stroke fill markers"
               id="path360" />
            <g
               id="g368"
               transform="translate(7398.5397,552.608)"
               style="fill:#00194f;fill-opacity:1;stroke-linecap:square;paint-order:stroke fill markers">
              <path
                 d="m 239.81369,75.505391 q -0.57878,0 -0.81993,-0.551215 l -3.59668,-8.846998 q -0.15158,-0.35829 0,-0.585666 0.15848,-0.234266 0.55122,-0.234266 h 0.31005 q 0.59945,0 0.79927,0.551215 l 3.03857,7.765239 3.03168,-7.765239 q 0.19981,-0.551215 0.80615,-0.551215 h 0.31006 q 0.39274,0 0.54432,0.234266 0.15848,0.227376 0.007,0.585666 l -3.61734,8.846998 q -0.24116,0.551215 -0.81305,0.551215 z"
                 style="font-style:normal;font-variant:normal;font-weight:normal;font-stretch:normal;font-size:14.1111px;line-height:1.25;font-family:'Urbane Rounded';-inkscape-font-specification:'Urbane Rounded';white-space:pre;shape-inside:url(#rect1501);fill:#00194f;fill-opacity:1;stroke-linecap:square;paint-order:stroke fill markers"
                 id="path366"
                 transform="matrix(8.9482438,0,0,8.9482438,-1867.5894,-560.69106)" />
            </g>
          </g>
        </g>
      </g>
      <g
         id="g384"
         transform="matrix(0.59687746,0,0,0.59687746,-30.52108,11.06205)"
         inkscape:export-xdpi="53.012375"
         inkscape:export-ydpi="53.012375">
        <path
           id="path374"
           style="color:#000000;font-style:normal;font-variant:normal;font-weight:normal;font-stretch:normal;font-size:medium;line-height:normal;font-family:sans-serif;font-variant-ligatures:normal;font-variant-position:normal;font-variant-caps:normal;font-variant-numeric:normal;font-variant-alternates:normal;font-variant-east-asian:normal;font-feature-settings:normal;font-variation-settings:normal;text-indent:0;text-align:start;text-decoration:none;text-decoration-line:none;text-decoration-style:solid;text-decoration-color:#000000;letter-spacing:normal;word-spacing:normal;text-transform:none;writing-mode:lr-tb;direction:ltr;text-orientation:mixed;dominant-baseline:auto;baseline-shift:baseline;text-anchor:start;white-space:normal;shape-padding:0;shape-margin:0;inline-size:0;clip-rule:nonzero;display:inline;overflow:visible;visibility:visible;isolation:auto;mix-blend-mode:normal;color-interpolation:sRGB;color-interpolation-filters:linearRGB;solid-color:#000000;solid-opacity:1;vector-effect:none;fill:#ffffff;fill-opacity:1;fill-rule:nonzero;stroke:none;stroke-width:0.999999;stroke-linecap:butt;stroke-linejoin:round;stroke-miterlimit:4;stroke-dasharray:none;stroke-dashoffset:0;stroke-opacity:1;paint-order:normal;color-rendering:auto;image-rendering:auto;shape-rendering:auto;text-rendering:auto;enable-background:accumulate;stop-color:#000000"
           d="m 266.6543,7.9023438 c -8.59841,0.029518 -17.03974,2.3064272 -24.48633,6.6054682 L 140.17773,73.392578 c -8.79154,5.0758 -21.16928,16.34881 -26.55859,29.945312 -5.38931,13.59651 -4.23375,22.01633 -4.25781,24.41016 -0.002,0.16535 -0.004,0.33071 -0.004,0.49609 v 28.66211 l -71.005858,40.99609 c -0.499369,0.28832 -0.972453,0.60169 -1.427734,0.9336 -5.241258,3.35396 -9.966161,7.39724 -13.75,12.04101 C 11.403057,225.32283 7.9492188,241.76756 7.9492188,256.0625 v 161.30664 c 0,39.77994 16.5623512,68.47519 51.0175782,88.36719 l 123.220703,71.14062 33.63281,19.41797 h 0.002 l 25.63867,14.78711 c 17.33218,9.99213 31.56007,11.07608 54.67187,-2.26758 l 20.00391,-11.56445 1.67383,-0.94922 c 3.25691,-1.84679 3.72851,-2.16992 3.72851,-2.16992 l 1.36524,-0.78516 28.58203,-16.5039 123.2207,-71.14063 c 34.45402,-19.8918 51.01758,-48.58535 51.01758,-88.36719 V 256.03125 c 0,-14.293 -3.45277,-30.73165 -15.21484,-45.17383 -3.64323,-4.47331 -8.15828,-8.39432 -13.16797,-11.67578 -0.47158,-0.34685 -0.96315,-0.6748 -1.48242,-0.97461 l -71.54297,-41.30469 v -28.69336 c 0,-19.7579 -13.06522,-43.256634 -28.48047,-53.357418 -0.77643,-0.509208 -1.56712,-0.99638 -2.3711,-1.460937 L 291.47266,14.505859 C 283.92835,10.151212 275.36514,7.872764 266.6543,7.9023438 Z m -52.52149,136.6562462 52.6836,30.41797 52.6875,-30.41797 6.20117,3.58008 v 50.57031 l -52.55469,30.3418 -0.004,0.002 -6.34375,3.66211 -6.2832,-3.62695 -52.54883,-30.33984 v -50.63086 z"
           transform="scale(0.26458333)" />
        <path
           id="path376"
           style="fill:#001237;fill-opacity:1;stroke:none;stroke-width:5.24865;stroke-linecap:butt;stroke-linejoin:round;stroke-miterlimit:4;stroke-dasharray:none;stroke-opacity:1;paint-order:normal"
           d="m 122.10793,62.754967 v 0.01 c -0.9153,0.021 -1.9424,0.3299 -3.0293,0.9575 l -32.602098,18.8227 -8.8992,5.1377 h -0.01 l -6.9681,4.023 v 8.0552 8.774703 25.1293 8.7752 8.0547 l 6.966,-4.0214 0.01,-0.01 8.8992,-5.1382 32.602198,-18.8228 c 3.8646,-2.2312 6.9758,-7.6202 6.9758,-12.083 V 67.741267 c 0,-3.2075 -1.6074,-5.0377 -3.9466,-4.9848 z m -103.013798,0.01 v 0 c -2.3391,-0.053 -3.9461,1.7772 -3.9461,4.9847 v 42.678903 c 0,4.4627 3.1111,9.8518 6.9759,12.083 l 32.6021,18.8227 8.8987,5.1377 6.9737,4.0262 v -8.055 -8.7752 -25.129 -8.774703 -8.0563 l -6.9763,-4.0277 -8.8987,-5.1382 -32.6021,-18.8233 c -1.0869,-0.6273 -2.1146,-0.9364 -3.0298,-0.957 z" />
        <path
           id="path378"
           style="fill:#004ef9;fill-opacity:1;stroke:none;stroke-width:2.709;stroke-linecap:butt;stroke-linejoin:round;stroke-miterlimit:4;stroke-dasharray:none;stroke-opacity:1;paint-order:normal"
           d="m 97.185132,31.348367 v 0.01 c -0.4725,0.011 -1.0026,0.1703 -1.5636,0.4942 l -16.827,9.715 -4.5932,2.6517 h -0.01 l -3.5965,2.0764 v 4.1576 4.5289 12.9701 4.5292 4.1573 l 3.5954,-2.0756 0.01,-0.01 4.5931,-2.652 16.8271,-9.7151 c 1.9947,-1.1516 3.6005,-3.9331 3.6005,-6.2364 v -22.0277 c 0,-1.6555 -0.8297,-2.6001 -2.037,-2.5728 z m -53.1689,0.01 v 0 c -1.2073,-0.028 -2.0368,0.9173 -2.0368,2.5728 v 22.028 c 0,2.3033 1.6058,5.0848 3.6006,6.2364 l 16.827,9.7151 4.5929,2.6517 3.5993,2.0781 v -4.1575 -4.5292 -12.9699 -4.5289 -4.1582 l -3.6006,-2.0788 -4.5929,-2.652 -16.8271,-9.7153 c -0.561,-0.3238 -1.0914,-0.4833 -1.5638,-0.4939 z" />
        <path
           id="path380"
           style="fill:#002981;fill-opacity:1;stroke:none;stroke-width:5.24865;stroke-linecap:butt;stroke-linejoin:round;stroke-miterlimit:4;stroke-dasharray:none;stroke-opacity:1;paint-order:normal"
           d="m 122.01171,62.754583 v 0.01 c -0.9153,0.021 -1.9424,0.3299 -3.0293,0.9575 l -32.602097,18.8227 -8.8992,5.1377 h -0.01 l -6.9681,4.023 v 8.0552 8.774707 25.1293 8.7752 8.0547 l 6.966,-4.0214 0.01,-0.01 8.8992,-5.1382 32.602197,-18.82281 c 3.8646,-2.2312 6.9758,-7.62019 6.9758,-12.083 V 67.740883 c 0,-3.2075 -1.6074,-5.0377 -3.9466,-4.9848 z M 70.502213,150.49779 v -8.055 -8.7752 -25.129 -8.774707 -8.0563 z"
           sodipodi:nodetypes="cccccccccccccccsssccccccccc" />
        <path
           id="path382"
           style="fill:#3172ff;fill-opacity:1;stroke:none;stroke-width:2.709;stroke-linecap:butt;stroke-linejoin:round;stroke-miterlimit:4;stroke-dasharray:none;stroke-opacity:1;paint-order:normal"
           d="m 97.180732,31.346667 v 8e-4 c -0.4725,0.011 -1.0014,0.1795 -1.5624,0.5034 l -16.827,9.715 -4.5932,2.6517 h -0.01 l -3.5921,2.0781 v 30.3448 l 3.591,-2.079 0.01,-0.01 4.5931,-2.652 16.8271,-9.7151 c 1.9947,-1.1516 3.6056,-3.9321 3.6057,-6.2354 v -22.0235 c 1e-4,-1.6555 -0.8359,-2.6053 -2.0432,-2.578 z"
           sodipodi:nodetypes="ccsccccccccssssc" />
      </g>
    </g>
  </g>
</svg>
