<svg width="1096" height="305" viewBox="0 0 1096 305" fill="none" xmlns="http://www.w3.org/2000/svg">
<path d="M438.125 119.353H456.058L436.927 189.346H417.613L405.202 141.938L394 189.346H375.033L355.902 119.353H373.835L384.69 174.168L397.789 119.353H413.642L427.264 174.168L438.125 119.353ZM519.496 172.277V185.546C517.075 186.926 513.287 188.136 508.282 189.17C503.277 190.204 497.938 190.727 492.429 190.727C481.227 190.727 473.298 187.795 468.475 182.103C463.477 176.412 461.062 167.102 461.062 154.003C461.062 141.427 463.641 132.294 468.816 126.602C473.815 120.733 481.914 117.808 492.952 117.808C503.806 117.808 511.219 120.046 515.695 124.528C520.183 129.01 522.415 136.593 522.415 147.46C522.415 149.357 522.415 151.248 522.25 152.805C522.25 154.526 521.904 156.764 521.727 159.695H477.767C477.767 165.563 479.148 169.698 481.568 172.106C484.146 174.514 488.634 175.56 495.013 175.56C499.325 175.56 503.624 175.384 508.282 174.691C512.77 174.003 516.558 173.134 519.496 172.277ZM492.946 132.287C487.254 132.287 483.289 133.321 481.045 135.559C478.801 137.967 477.767 141.938 477.767 147.965H507.425V145.045C507.248 140.211 506.214 136.769 504.147 135.042C502.079 133.145 498.279 132.287 492.946 132.287ZM551.202 190.727C543.972 190.727 538.791 188.823 535.349 185.381C532.071 181.757 530.35 176.247 530.35 168.658C530.35 160.905 532.418 155.383 536.383 152.282C540.348 149.01 547.237 147.46 557.241 147.46C559.831 147.46 562.75 147.624 565.517 147.806C568.436 148.153 570.85 148.494 572.93 149.01V142.978C572.93 139.36 571.72 136.599 569.476 134.872C567.244 133.151 563.62 132.293 558.798 132.293C554.31 132.293 550.351 132.458 546.897 132.804C543.455 133.151 540.177 133.492 537.076 134.185V120.393C540.7 119.535 544.489 119.012 548.8 118.496C552.935 118.149 557.934 117.808 563.626 117.808C572.249 117.808 578.792 119.882 582.927 123.841C587.239 127.635 589.312 133.668 589.312 141.427V189.352H574.14L573.453 183.143H573.289C570.175 185.387 566.733 187.279 562.769 188.665C558.792 190.033 554.991 190.727 551.202 190.727ZM559.138 159.178C553.957 159.178 550.515 159.689 548.618 160.899C546.727 162.097 545.863 164.341 545.863 167.619C545.863 170.896 546.55 173.128 548.107 174.508C549.652 175.901 552.419 176.588 556.207 176.588C558.962 176.588 561.899 176.242 564.83 175.378C567.931 174.691 570.686 173.657 572.93 172.447V160.382C570.686 159.871 568.442 159.695 566.21 159.525C563.96 159.342 561.552 159.178 559.138 159.178ZM647.727 119.353H665.66L640.15 189.346H621.36L595.673 119.353H613.777L630.84 174.344L647.727 119.353ZM727.542 172.277V185.546C725.133 186.926 721.509 188.136 716.34 189.17C711.342 190.204 706.173 190.727 700.651 190.727C689.45 190.727 681.35 187.795 676.515 182.103C671.693 176.412 669.285 167.102 669.285 154.003C669.285 141.427 671.863 132.294 676.862 126.602C682.043 120.733 690.143 117.808 701.174 117.808C711.852 117.808 719.441 120.046 723.917 124.528C728.405 129.01 730.473 136.593 730.473 147.46C730.473 149.357 730.473 151.248 730.473 152.805C730.296 154.526 730.126 156.764 729.785 159.695H685.825C685.989 165.563 687.206 169.698 689.79 172.106C692.198 174.514 696.68 175.56 703.235 175.56C707.371 175.56 711.846 175.384 716.334 174.691C720.822 174.003 724.61 173.134 727.542 172.277ZM701.18 132.287C695.488 132.287 691.347 133.321 689.115 135.559C687.048 137.967 685.837 141.938 685.837 147.965H715.483V145.045C715.483 140.211 714.285 136.769 712.205 135.042C710.131 133.145 706.519 132.287 701.18 132.287ZM793.57 171.589V185.381C791.162 186.926 787.361 188.136 782.539 189.17C777.716 190.204 772.718 190.727 767.373 190.727C757.369 190.727 750.303 187.959 746.338 182.626C742.203 177.281 740.135 167.795 740.135 154.179C740.135 140.898 742.89 131.424 748.059 126.079C753.404 120.569 762.374 117.808 775.296 117.808C778.41 117.808 781.164 117.978 783.755 118.155C786.163 118.325 788.924 118.502 791.679 118.842V133.492C788.054 133.145 784.789 132.98 782.022 132.804C779.267 132.804 777.035 132.64 775.302 132.64C767.549 132.64 762.38 134.02 760.136 136.775C757.904 139.53 756.694 145.398 756.694 154.185C756.694 162.808 757.552 168.488 759.449 171.255C761.352 174.01 765.141 175.39 771.003 175.39C774.792 175.39 778.927 175.043 783.056 174.356C787.015 173.657 790.633 172.623 793.57 171.589ZM821.148 189.346H804.601V95.0527H821.148V124.528C825.112 122.46 829.083 120.733 833.036 119.535C837.001 118.495 840.789 117.808 844.414 117.808C852.35 117.808 858.206 119.882 862.171 123.671C866.135 127.459 868.039 133.151 868.039 140.904V189.352H851.662V142.978C851.662 139.36 850.629 136.769 848.731 135.048C846.664 133.491 843.562 132.64 839.421 132.64C836.502 132.64 833.389 132.987 830.123 133.674C827.01 134.361 823.915 135.218 821.154 136.258V189.346H821.148ZM899.581 190.727C892.339 190.727 886.994 188.823 883.716 185.381C880.274 181.757 878.717 176.247 878.717 168.658C878.717 160.905 880.621 155.383 884.75 152.282C888.715 149.01 895.617 147.46 905.438 147.46C908.192 147.46 910.947 147.624 913.884 147.806C916.639 148.153 919.229 148.494 921.297 149.01V142.978C921.297 139.36 920.099 136.599 917.855 134.872C915.611 133.151 911.987 132.293 907 132.293C902.689 132.293 898.724 132.458 895.276 132.804C891.822 133.151 888.556 133.492 885.273 134.185V120.393C888.897 119.535 892.85 119.012 896.997 118.496C901.308 118.149 906.307 117.808 911.987 117.808C920.61 117.808 926.989 119.882 931.3 123.841C935.612 127.635 937.679 133.668 937.679 141.427V189.352H922.513L921.826 183.143H921.479C918.548 185.387 915.1 187.279 911.135 188.665C907.164 190.033 903.376 190.727 899.581 190.727ZM907.505 159.178C902.336 159.178 898.882 159.689 896.991 160.899C895.087 162.097 894.06 164.341 894.06 167.619C894.06 170.896 894.929 173.128 896.468 174.508C898.025 175.901 900.779 176.588 904.568 176.588C907.158 176.588 910.09 176.242 913.191 175.378C916.292 174.691 919.059 173.657 921.291 172.447V160.382C919.059 159.871 916.633 159.695 914.571 159.525C912.339 159.342 909.919 159.178 907.505 159.178ZM969.733 109.356H952.335V95.0527H969.733V109.356ZM969.386 189.346H952.839V119.353H969.386V189.346ZM1001.28 189.346H984.729V119.353H999.044L999.731 126.419H1000.08C1003.52 123.494 1006.97 121.25 1010.77 119.876C1014.72 118.489 1019.21 117.802 1024.38 117.802C1032.13 117.802 1038 119.876 1042.13 123.664C1046.27 127.629 1048.17 133.321 1048.17 140.898V189.346H1031.79V142.972C1031.79 139.524 1030.59 136.939 1028.52 135.212C1026.28 133.491 1023 132.634 1018.52 132.634C1015.42 132.634 1012.49 132.981 1009.55 133.832C1006.62 134.701 1003.86 135.906 1001.28 137.456V189.346Z" fill="#171D26"/>
<path d="M304.877 250.881C304.877 255.539 300.924 259.504 296.266 259.504C295.396 259.504 294.545 259.327 293.858 259.145C292.301 258.798 290.927 257.947 289.893 256.737C262.139 227.614 228.699 203.826 191.294 187.443C186.636 185.376 181.808 183.478 176.985 181.575C172.157 183.478 167.329 185.376 162.5 187.443C125.442 203.819 92.1725 227.268 64.4185 256.39C62.8678 258.293 60.4536 259.504 57.8692 259.504C53.0408 259.504 49.082 255.539 49.082 250.881C49.082 195.889 62.8739 146.079 85.2766 109.873C108.549 72.4679 140.955 49.1895 176.985 49.1895C213.18 49.1895 245.41 72.4618 268.688 109.873C291.085 146.079 304.877 195.889 304.877 250.881ZM151.816 173.31C140.268 170.033 128.373 167.442 116.473 165.721C103.544 181.234 92.3367 197.957 82.8624 215.89C103.891 198.991 126.993 184.512 151.816 173.31ZM176.979 163.143C192.146 157.798 208.005 153.486 224.205 150.379C209.902 135.206 194.043 121.597 176.979 109.526C159.91 121.591 144.05 135.206 129.741 150.379C145.954 153.486 161.807 157.798 176.979 163.143ZM244.716 147.113C252.129 146.244 259.718 145.557 267.308 145.21C263.343 135.73 258.849 126.942 253.85 119.006C244.716 104.181 234.208 92.1159 222.49 83.1524C212.146 87.9869 202.143 93.4962 192.492 99.3584C208.862 111.253 223.858 124.698 237.65 139.354C240.058 141.938 242.308 144.523 244.716 147.113ZM273.851 162.28C268.506 162.444 263.16 162.802 257.815 163.149C267.308 175.56 275.919 188.829 283.672 202.451C281.264 188.3 277.986 174.855 273.851 162.28ZM237.65 165.557C225.585 167.449 213.697 170.033 202.143 173.31C226.96 184.688 250.238 198.991 271.096 215.89C261.616 198.134 250.408 181.234 237.65 165.557ZM96.1313 163.143C90.7861 162.796 85.6172 162.444 80.0955 162.273C75.9604 174.849 72.6827 188.294 70.2746 202.439C78.034 188.824 86.657 175.554 96.1313 163.143ZM109.236 147.113C111.644 144.523 113.894 141.938 116.302 139.36C130.094 124.704 145.266 111.259 161.466 99.3647C151.816 93.5025 141.819 87.9928 131.468 83.1584C119.75 92.128 109.236 104.193 100.102 119.012C95.1036 126.948 90.6158 135.735 86.657 145.216C94.2401 145.556 101.823 146.244 109.236 147.113ZM176.979 88.6742C185.943 82.8059 195.247 77.4666 204.727 72.6382C195.934 68.6733 186.624 66.6058 176.979 66.6058C167.493 66.6058 158.019 68.6733 149.225 72.6382C158.706 77.4666 168.016 82.8059 176.979 88.6742Z" fill="#52E8CD"/>
</svg>
