<svg width="3029" height="421" viewBox="0 0 3029 421" fill="none" xmlns="http://www.w3.org/2000/svg">
<path d="M473.825 85.1285C473.825 43.7898 440.307 10.3252 399.022 10.3252H74.8033C33.4646 10.3252 0 43.843 0 85.1285C0 100.185 4.46904 114.177 12.0771 125.882C66.0957 209.02 120.132 292.159 174.186 375.297C187.54 395.78 210.63 409.347 236.913 409.347C263.195 409.347 286.285 395.78 299.639 375.297C353.657 292.159 407.694 209.038 461.748 125.935C469.409 114.177 473.825 100.185 473.825 85.1817V85.1285ZM293.042 166.21C293.042 197.174 267.877 222.339 236.913 222.339C205.948 222.339 180.783 197.174 180.783 166.21C180.783 135.246 205.948 110.081 236.913 110.081C267.877 110.081 293.042 135.246 293.042 166.21ZM64.3223 91.8853C62.9922 89.8636 62.3538 87.5758 62.3538 85.1285C62.3538 78.2653 67.9401 72.679 74.8033 72.679H164.184C136.359 94.3326 118.43 128.17 118.43 166.21C118.43 169.455 118.589 172.594 118.802 175.786L98.851 145.088H98.9042L64.3223 91.9385V91.8853ZM253.725 331.564L247.393 341.247C246.276 342.95 242.978 346.993 236.913 346.993C230.847 346.993 227.549 343.003 226.432 341.247L221.058 333.001L180.251 270.221C197.064 279.426 216.376 284.639 236.913 284.639C257.449 284.639 276.762 279.426 293.574 270.221L253.725 331.564ZM409.503 91.8853L374.921 145.035L354.97 175.786C355.236 172.647 355.342 169.455 355.342 166.21C355.342 128.17 337.413 94.3858 309.588 72.679H398.969C405.832 72.679 411.418 78.2653 411.418 85.1285C411.418 87.5758 410.726 89.8636 409.45 91.8853H409.503Z" fill="#151515"/>
<path d="M1000.75 411.903H917.058L860.131 147.218L801.501 411.903H714.408L606.832 10.0078H696.798L761.706 272.99L818.048 10.0078H904.023L958.131 278.682L1025.86 10.0078H1114.07L1000.8 411.903H1000.75Z" fill="#151515"/>
<path d="M1146.74 411.904V10.0088H1237.82V411.904H1146.74Z" fill="#151515"/>
<path d="M1481.65 86.8338V411.904H1392.27V86.8338H1268.14V10.0088H1601.73V86.8338H1481.59H1481.65Z" fill="#151515"/>
<path d="M1867.85 411.904L1714.14 135.248V411.904H1631.57V10.0088H1724.36L1876.95 285.547V10.0088H1960.05V411.904H1867.85Z" fill="#151515"/>
<path d="M2006.97 411.904V10.0088H2305.87V86.3018H2096.35V164.882H2280.22V236.6H2096.35V335.079H2309.8V411.904H2006.97Z" fill="#151515"/>
<path d="M2570.45 128.969C2570.45 85.1299 2531.71 75.4469 2495.85 75.4469C2469.68 75.4469 2429.24 81.7249 2429.24 116.413C2429.24 141.472 2448.03 147.696 2507.83 160.838C2596.09 180.203 2666.1 199.569 2666.1 287.195C2666.1 346.941 2627.37 392.536 2571.62 411.317C2547.73 419.297 2521.5 421 2496.49 421C2405.41 421 2325.71 380.566 2325.71 279.267H2416.21C2416.21 332.789 2461.17 345.292 2498.78 345.292C2527.24 345.292 2573.9 337.312 2573.9 300.868C2573.9 221.17 2338.8 281.502 2338.8 126.096C2338.8 102.74 2345.61 79.4371 2358.17 60.0713C2389.45 11.1246 2449.83 0.856445 2503.89 0.856445C2591.57 0.856445 2654.19 41.8227 2659.29 134.609H2570.5V128.916L2570.45 128.969Z" fill="#151515"/>
<path d="M2932.92 128.969C2932.92 85.1299 2894.19 75.4469 2858.33 75.4469C2832.15 75.4469 2791.72 81.7249 2791.72 116.413C2791.72 141.472 2810.5 147.696 2870.3 160.838C2958.56 180.203 3028.58 199.569 3028.58 287.195C3028.58 346.941 2989.84 392.536 2934.09 411.317C2910.2 419.297 2883.97 421 2858.96 421C2767.88 421 2688.18 380.566 2688.18 279.267H2778.68C2778.68 332.789 2823.64 345.292 2861.25 345.292C2889.72 345.292 2936.37 337.312 2936.37 300.868C2936.37 221.17 2701.27 281.502 2701.27 126.096C2701.27 102.74 2708.08 79.4371 2720.64 60.0713C2751.92 11.1246 2812.31 0.856445 2866.36 0.856445C2954.04 0.856445 3016.66 41.8227 3021.77 134.609H2932.97V128.916L2932.92 128.969Z" fill="#151515"/>
</svg>
