<svg width="736" height="300" viewBox="0 0 736 300" fill="none" xmlns="http://www.w3.org/2000/svg">
<path d="M277.996 183.03H260.874L251.27 145.778C250.914 144.452 250.3 141.72 249.427 137.581C248.586 133.409 248.101 130.612 247.971 129.189C247.777 130.936 247.292 133.749 246.516 137.629C245.74 141.477 245.142 144.226 244.722 145.875L235.166 183.03H218.092L200 112.116H214.794L223.864 150.823C225.449 157.969 226.597 164.161 227.308 169.4C227.502 167.557 227.939 164.711 228.618 160.863C229.329 156.983 229.992 153.975 230.607 151.841L240.938 112.116H255.15L265.482 151.841C265.934 153.62 266.5 156.336 267.179 159.99C267.858 163.644 268.376 166.781 268.732 169.4C269.055 166.878 269.572 163.741 270.284 159.99C270.995 156.207 271.642 153.151 272.224 150.823L281.246 112.116H296.04L277.996 183.03Z" fill="#202325"/>
<path d="M365.357 147.476C365.357 159.214 362.447 168.236 356.626 174.542C350.806 180.847 342.463 184 331.598 184C320.733 184 312.39 180.847 306.569 174.542C300.749 168.236 297.838 159.182 297.838 147.379C297.838 135.576 300.749 126.57 306.569 120.361C312.422 114.12 320.797 111 331.695 111C342.592 111 350.919 114.137 356.675 120.41C362.463 126.683 365.357 135.705 365.357 147.476ZM313.603 147.476C313.603 155.398 315.106 161.364 318.114 165.374C321.121 169.384 325.616 171.389 331.598 171.389C343.595 171.389 349.593 163.418 349.593 147.476C349.593 131.501 343.627 123.514 331.695 123.514C325.713 123.514 321.202 125.535 318.162 129.577C315.122 133.587 313.603 139.553 313.603 147.476Z" fill="#202325"/>
<path d="M373.101 183.03V112.116H388.137V170.613H416.901V183.03H373.101Z" fill="#202325"/>
<path d="M440.09 183.03H425.296V112.116H465.943V124.436H440.09V142.722H464.148V154.994H440.09V183.03Z" fill="#202325"/>
<path d="M505.186 183.03H490.149V124.63H470.893V112.116H524.442V124.63H505.186V183.03Z" fill="#202325"/>
<path d="M570.237 183.03H529.395V112.116H570.237V124.436H544.432V140.006H568.442V152.326H544.432V170.613H570.237V183.03Z" fill="#202325"/>
<path d="M610.234 123.611C604.575 123.611 600.193 125.746 597.089 130.014C593.985 134.25 592.432 140.168 592.432 147.767C592.432 163.579 598.366 171.486 610.234 171.486C615.214 171.486 621.244 170.241 628.326 167.751V180.362C622.506 182.787 616.006 184 608.827 184C598.512 184 590.622 180.88 585.157 174.639C579.692 168.365 576.959 159.376 576.959 147.67C576.959 140.297 578.301 133.846 580.985 128.316C583.669 122.754 587.517 118.502 592.529 115.559C597.574 112.584 603.475 111.097 610.234 111.097C617.121 111.097 624.042 112.762 630.994 116.093L626.143 128.316C623.492 127.055 620.824 125.956 618.14 125.018C615.456 124.08 612.821 123.611 610.234 123.611Z" fill="#202325"/>
<path d="M696.602 183.03H681.614V152.423H653.529V183.03H638.493V112.116H653.529V139.909H681.614V112.116H696.602V183.03Z" fill="#202325"/>
<path fill-rule="evenodd" clip-rule="evenodd" d="M36 0V270L162 239.047V0H36Z" fill="#EE6931"/>
<path fill-rule="evenodd" clip-rule="evenodd" d="M70.9661 145.234C70.9661 146.061 70.5559 146.889 70.0613 147.06L59.6261 150.822C59.2039 150.98 58.854 150.493 58.854 149.726V135.847C58.854 135.08 59.2039 134.301 59.6261 134.082L70.0613 129.005C70.5559 128.761 70.9661 129.248 70.9661 130.064V145.234Z" fill="white"/>
<path fill-rule="evenodd" clip-rule="evenodd" d="M89.5156 138.195C89.5156 139.121 89.0089 140.046 88.3936 140.277L75.6422 144.879C75.1234 145.05 74.7012 144.538 74.7012 143.698V128.407C74.7012 127.567 75.1234 126.69 75.6422 126.435L88.3936 120.226C89.0089 119.921 89.5156 120.432 89.5156 121.346V138.195Z" fill="white"/>
<path fill-rule="evenodd" clip-rule="evenodd" d="M112.665 129.421C112.665 130.456 112.025 131.527 111.253 131.807L95.2929 137.566C94.6535 137.797 94.1348 137.237 94.1348 136.288V119.304C94.1348 118.366 94.6535 117.368 95.2929 117.052L111.253 109.284C112.025 108.895 112.665 109.43 112.665 110.465V129.421Z" fill="white"/>
<path fill-rule="evenodd" clip-rule="evenodd" d="M112.665 160.381C112.665 161.428 112.025 162.402 111.253 162.573L95.2929 165.969C94.6535 166.103 94.1348 165.458 94.1348 164.533V147.525C94.1348 146.6 94.6535 145.674 95.2929 145.443L111.253 140.037C112.025 139.77 112.665 140.39 112.665 141.425V160.381Z" fill="white"/>
<path fill-rule="evenodd" clip-rule="evenodd" d="M142.336 188.844C142.336 190.038 141.515 191.048 140.502 191.121L119.969 192.46C119.161 192.521 118.51 191.705 118.51 190.658V171.52C118.51 170.473 119.161 169.499 119.969 169.341L140.502 165.396C141.515 165.213 142.336 166.017 142.336 167.198V188.844Z" fill="white"/>
<path fill-rule="evenodd" clip-rule="evenodd" d="M112.665 222.42C112.665 223.455 112.025 224.246 111.253 224.185L95.2929 222.87C94.6535 222.821 94.1348 222.03 94.1348 221.105V204.097C94.1348 203.172 94.6535 202.38 95.2929 202.368L111.253 201.65C112.025 201.613 112.665 202.429 112.665 203.464V222.42Z" fill="white"/>
<path fill-rule="evenodd" clip-rule="evenodd" d="M112.665 191.341C112.665 192.388 112.025 193.265 111.253 193.314L95.2929 194.361C94.6535 194.409 94.1348 193.679 94.1348 192.754V175.758C94.1348 174.833 94.6535 173.968 95.2929 173.846L111.253 170.791C112.025 170.645 112.665 171.351 112.665 172.385V191.341Z" fill="white"/>
<path fill-rule="evenodd" clip-rule="evenodd" d="M89.5156 165.743C89.5156 166.668 89.0089 167.521 88.3936 167.654L75.6422 170.382C75.1234 170.491 74.7012 169.895 74.7012 169.055V153.775C74.7012 152.935 75.1234 152.12 75.6422 151.937L88.3936 147.615C89.0089 147.396 89.5156 147.98 89.5156 148.893V165.743Z" fill="white"/>
<path fill-rule="evenodd" clip-rule="evenodd" d="M89.5156 193.291C89.5156 194.216 89.0089 194.995 88.3936 195.044L75.6422 195.872C75.1234 195.908 74.7012 195.251 74.7012 194.423V179.131C74.7012 178.304 75.1234 177.537 75.6422 177.439L88.3936 174.992C89.0089 174.87 89.5156 175.528 89.5156 176.441V193.291Z" fill="white"/>
<path fill-rule="evenodd" clip-rule="evenodd" d="M70.9661 170.047C70.9661 170.862 70.5559 171.629 70.0613 171.739L59.6261 173.955C59.2039 174.052 58.854 173.504 58.854 172.75V158.858C58.854 158.103 59.2039 157.373 59.6261 157.227L70.0613 153.684C70.5559 153.514 70.9661 154.049 70.9661 154.877V170.047Z" fill="white"/>
<path fill-rule="evenodd" clip-rule="evenodd" d="M70.9661 194.848C70.9661 195.676 70.5559 196.382 70.0613 196.418L59.6261 197.1C59.2039 197.125 58.854 196.54 58.854 195.773V181.894C58.854 181.127 59.2039 180.433 59.6261 180.372L70.0613 178.363C70.5559 178.266 70.9661 178.862 70.9661 179.69V194.848Z" fill="white"/>
</svg>
