<?xml version="1.0" encoding="UTF-8"?>
<svg width="462px" height="390px" viewBox="0 0 462 390" version="1.1" xmlns="http://www.w3.org/2000/svg" xmlns:xlink="http://www.w3.org/1999/xlink">
    <title>Group 3</title>
    <g id="Logos" stroke="none" stroke-width="1" fill="none" fill-rule="evenodd">
        <g id="Logo-on-white" transform="translate(-59.000000, -179.000000)">
            <g id="Group-3" transform="translate(60.000000, 179.000000)">
                <path d="M50.5138769,0 L350.513877,0 L350.513877,0 L390.513877,59 L390.513877,390 L0.513876899,390 L0.513876899,50 C0.513876899,22.3857625 22.8996394,5.07265313e-15 50.5138769,0 Z" id="Rectangle" fill="#383838"></path>
                <polygon id="Path" stroke="#FFFFFF" fill="#FFFFFF" fill-rule="nonzero" points="17.3021553 259.5 34.4352221 192.384856 36.5331487 173.209101 37.4072847 173.209101 39.6800385 192.210531 56.8131053 259.5 72.3727272 259.5 99.8205996 136.60084 77.4427164 136.60084 66.6034292 203.367334 64.6803299 225.68094 63.981021 225.68094 62.0579217 203.715984 46.1486454 136.60084 30.7638507 136.60084 14.3300927 203.367334 12.4069934 225.68094 11.7076845 225.68094 9.9594124 203.715984 0 148.234175 0.747788024 259.5"></polygon>
                <path d="M128.80478,259.44958 L128.80478,208.996864 L138.32201,211.266363 L159.823899,259.44958 L185.379423,259.44958 L162.643819,212.662978 L155.594019,207.076518 C162.056335,204.748826 167.138066,200.471693 170.839211,194.245118 C174.540356,188.018543 176.390928,179.95891 176.390928,170.066221 C176.390928,163.199531 175.245336,157.525782 172.954151,153.044976 C170.662966,148.564169 167.666801,145.01444 163.965656,142.395786 C160.264511,139.777133 156.005257,137.973172 151.187894,136.983903 C146.370531,135.994634 141.435671,135.5 136.383315,135.5 C132.388428,135.5 127.629813,135.732769 122.10747,136.198307 C116.585127,136.663846 111.415274,137.420346 106.597911,138.467807 L106.597911,138.467807 L106.597911,259.44958 L128.80478,259.44958 Z" id="Path" stroke="#FFFFFF" fill="#FFFFFF" fill-rule="nonzero"></path>
                <path d="M136.184745,192.273109 L128.656734,192.273109 L128.656734,155.321342 C129.707154,154.975999 131.107714,154.74577 132.858415,154.630655 C134.609115,154.51554 136.418172,154.457983 138.285586,154.457983 C143.30426,154.457983 146.98073,156.098365 149.314997,159.37913 C151.649264,162.659894 152.816398,166.890353 152.816398,172.070508 C152.816398,178.97738 151.415838,184.071198 148.614717,187.351963 C145.813597,190.632727 141.670273,192.273109 136.184745,192.273109 L136.184745,192.273109 Z" id="Path" fill="#383838" fill-rule="nonzero"></path>
                <polygon id="Path" stroke="#FFFFFF" fill="#FFFFFF" fill-rule="nonzero" points="203.23449 259.44958 210.469103 231.906222 239.58401 231.906222 247.171531 259.44958 270.463457 259.44958 234.466845 136.55042 216.997901 136.55042 181.177742 259.44958"></polygon>
                <polygon id="Path" fill="#383838" fill-rule="nonzero" points="234.749171 212.231092 214.791188 212.231092 221.501199 184.181411 224.426076 164.962185 225.114283 164.962185 227.867108 184.008265"></polygon>
                <path d="M299.144494,259.44958 L299.144494,217.376553 C299.618114,217.492938 300.417346,217.609323 301.542193,217.725707 C302.667039,217.842092 303.821486,217.92938 305.005534,217.987572 C306.189583,218.045765 307.314429,218.074861 308.380073,218.074861 L308.380073,218.074861 L310.688967,218.074861 C315.780376,218.074861 320.723778,217.318361 325.519175,215.805362 C330.314571,214.292362 334.547544,211.848286 338.218095,208.473133 C341.888645,205.09798 344.819165,200.733558 347.009655,195.379867 C349.200145,190.026177 350.29539,183.50864 350.29539,175.827258 C350.29539,167.331183 348.992936,160.435397 346.388029,155.139898 C343.783123,149.8444 340.408585,145.741843 336.264415,142.832229 C332.120245,139.922614 327.413652,137.973172 322.144636,136.983903 C316.875621,135.994634 311.517801,135.5 306.071178,135.5 C300.97977,135.5 295.888361,135.761865 290.796952,136.285596 C285.705544,136.809327 281.028552,137.53673 276.765978,138.467807 L276.765978,138.467807 L276.765978,259.44958 L299.144494,259.44958 Z" id="Path" stroke="#FFFFFF" fill="#FFFFFF" fill-rule="nonzero"></path>
                <path d="M306.702953,196.47479 C306.002672,196.47479 304.689647,196.38831 302.763877,196.215349 C300.838107,196.042388 299.525081,195.8406 298.824801,195.609986 L298.824801,195.609986 L298.824801,154.272367 C301.159068,153.695831 304.135259,153.407563 307.753373,153.407563 C310.204353,153.407563 312.53862,153.753485 314.756174,154.445328 C316.973728,155.137171 318.928676,156.261415 320.62102,157.818062 C322.313363,159.374709 323.655567,161.479065 324.64763,164.13113 C325.639694,166.783194 326.135726,170.011795 326.135726,173.816932 C326.135726,178.313911 325.610516,182.032567 324.560095,184.9729 C323.509675,187.913233 322.079937,190.219376 320.27088,191.89133 C318.461823,193.563284 316.390161,194.745182 314.055894,195.437025 C311.721627,196.128868 309.270646,196.47479 306.702953,196.47479 Z" id="Path" fill="#383838" fill-rule="nonzero"></path>
                <polygon id="Path" stroke="#FFFFFF" stroke-width="2" fill="#FFFFFF" fill-rule="nonzero" points="396.513877 259.05042 396.513877 136.05042 352.39623 136.05042 352.39623 156.433277 381.775815 156.433277 381.775815 259.05042"></polygon>
                <polygon id="Rectangle" fill="#58D522" points="460.513877 92.2364918 460.513877 324.213667 400.513877 390 400.513877 59 360.513877 0"></polygon>
                <polygon id="Path-2" stroke="#383838" stroke-width="2" fill="#383838" fill-rule="nonzero" points="401.513877 258.55042 401.513877 136.180884 445.125632 142.666424 445.125632 160.366667 415.746047 156.459059 416.251938 251.630239"></polygon>
            </g>
        </g>
    </g>
</svg>