<?xml version="1.0" encoding="UTF-8" standalone="no"?>
<svg
   xmlns:dc="http://purl.org/dc/elements/1.1/"
   xmlns:cc="http://creativecommons.org/ns#"
   xmlns:rdf="http://www.w3.org/1999/02/22-rdf-syntax-ns#"
   xmlns:svg="http://www.w3.org/2000/svg"
   xmlns="http://www.w3.org/2000/svg"
   viewBox="0 0 400 400"
   height="400"
   width="400"
   xml:space="preserve"
   id="svg2"
   version="1.1"><metadata
     id="metadata8"><rdf:RDF><cc:Work
         rdf:about=""><dc:format>image/svg+xml</dc:format><dc:type
           rdf:resource="http://purl.org/dc/dcmitype/StillImage" /></cc:Work></rdf:RDF></metadata><defs
     id="defs6"><clipPath
       id="clipPath18"
       clipPathUnits="userSpaceOnUse"><path
         id="path16"
         d="M 0,300 H 300 V 0 H 0 Z" /></clipPath></defs><g
     transform="matrix(1.3333333,0,0,-1.3333333,0,400)"
     id="g10"><g
       id="g12"><g
         clip-path="url(#clipPath18)"
         id="g14"><g
           transform="translate(98.3316,150)"
           id="g20"><path
             id="path22"
             style="fill:#00adee;fill-opacity:1;fill-rule:nonzero;stroke:none"
             d="m 0,0 c 0,6.737 4.322,13.558 12.583,13.558 8.261,0 12.583,-6.821 12.583,-13.558 0,-6.737 -4.322,-13.558 -12.583,-13.558 C 4.322,-13.558 0,-6.737 0,0 m -8.989,0 c 0,-12.402 9.274,-21.755 21.572,-21.755 12.298,0 21.572,9.353 21.572,21.755 0,12.402 -9.274,21.754 -21.572,21.754 C 0.285,21.754 -8.989,12.402 -8.989,0" /></g><g
           transform="translate(82.7769,176.4673)"
           id="g24"><path
             id="path26"
             style="fill:#00adee;fill-opacity:1;fill-rule:nonzero;stroke:none"
             d="m 0,0 c 0.513,-0.212 1.051,-0.319 1.59,-0.319 0.537,0 1.075,0.106 1.587,0.317 1.024,0.424 1.822,1.221 2.247,2.245 5.079,12.242 13.575,22.669 24.57,30.153 11.26,7.662 24.439,11.712 38.111,11.713 13.674,-0.001 26.853,-4.051 38.113,-11.713 10.995,-7.484 19.491,-17.911 24.57,-30.153 0.876,-2.114 3.314,-3.118 5.424,-2.243 1.024,0.425 1.821,1.223 2.245,2.248 0.424,1.024 0.423,2.153 -0.002,3.177 -5.7,13.737 -15.233,25.436 -27.566,33.833 -12.638,8.605 -27.429,13.153 -42.779,13.153 -0.003,0 -0.007,0 -0.009,0 C 52.753,52.411 37.96,47.862 25.323,39.258 12.99,30.862 3.458,19.163 -2.243,5.425 -2.668,4.401 -2.669,3.272 -2.245,2.248 -1.821,1.223 -1.024,0.425 0,0" /></g><g
           transform="translate(218.9888,123.5381)"
           id="g28"><path
             id="path30"
             style="fill:#00adee;fill-opacity:1;fill-rule:nonzero;stroke:none"
             d="m 0,0 c -1.023,0.425 -2.151,0.426 -3.177,0.002 -1.024,-0.423 -1.822,-1.221 -2.247,-2.245 -5.079,-12.241 -13.575,-22.668 -24.57,-30.152 -11.26,-7.662 -24.439,-11.712 -38.112,-11.713 -13.673,10e-4 -26.852,4.051 -38.112,11.713 -10.995,7.484 -19.491,17.911 -24.57,30.152 -0.425,1.024 -1.223,1.822 -2.247,2.245 -1.026,0.424 -2.153,0.424 -3.177,-0.002 -2.114,-0.877 -3.12,-3.311 -2.243,-5.424 5.701,-13.738 15.233,-25.437 27.566,-33.833 12.637,-8.604 27.427,-13.152 42.773,-13.152 0.008,-10e-4 0.013,-10e-4 0.019,0 15.346,0 30.138,4.548 42.774,13.152 12.333,8.397 21.865,20.096 27.566,33.833 C 3.12,-3.311 2.114,-0.877 0,0" /></g><g
           transform="translate(150.9449,128.9795)"
           id="g32"><path
             id="path34"
             style="fill:#00adee;fill-opacity:1;fill-rule:nonzero;stroke:none"
             d="m 0,0 h 6.347 c 0.964,0 1.748,0.784 1.748,1.747 v 0.022 0.022 2.738 c 0,0.988 -0.804,1.791 -1.792,1.791 h -1 c -0.655,0 -0.9,0 -0.9,1.077 l 0.009,30.126 c 0,2.495 -2.03,4.524 -4.525,4.524 H -6.46 c -0.963,0 -1.747,-0.783 -1.747,-1.747 v -2.782 c 0,-0.988 0.804,-1.792 1.792,-1.792 h 0.813 c 0.922,0 1.086,-0.08 1.086,-1.076 L -4.524,4.524 C -4.524,2.029 -2.495,0 0,0" /></g><g
           transform="translate(204.4341,150)"
           id="g36"><path
             id="path38"
             style="fill:#00adee;fill-opacity:1;fill-rule:nonzero;stroke:none"
             d="m 0,0 c 0,-6.737 -4.322,-13.558 -12.583,-13.558 -8.262,0 -12.584,6.821 -12.584,13.558 0,6.737 4.322,13.558 12.584,13.558 C -4.322,13.558 0,6.737 0,0 m -34.155,0 c 0,-12.402 9.274,-21.755 21.572,-21.755 12.298,0 21.571,9.353 21.571,21.755 0,12.402 -9.273,21.754 -21.571,21.754 -12.298,0 -21.572,-9.352 -21.572,-21.754" /></g><g
           transform="translate(250.5288,137.3594)"
           id="g40"><path
             id="path42"
             style="fill:#00adee;fill-opacity:1;fill-rule:nonzero;stroke:none"
             d="M 0,0 H -16.533 L 3.385,26.909 c 0.644,0.803 0.957,1.633 0.957,2.538 0,2.327 -1.921,4.22 -4.281,4.22 h -25.145 c -2.327,0 -4.221,-1.893 -4.221,-4.22 0,-2.293 1.894,-4.159 4.221,-4.159 H -8.247 L -28.166,-1.621 c -0.625,-0.782 -0.956,-1.682 -0.956,-2.6 0,-2.293 1.893,-4.159 4.221,-4.159 L 0,-8.38 c 2.327,0 4.22,1.866 4.22,4.159 C 4.22,-1.933 2.287,0 0,0" /></g><g
           transform="translate(76.2105,137.3594)"
           id="g44"><path
             id="path46"
             style="fill:#00adee;fill-opacity:1;fill-rule:nonzero;stroke:none"
             d="M 0,0 H -16.533 L 3.396,26.92 c 0.636,0.799 0.946,1.626 0.946,2.527 0,2.327 -1.92,4.22 -4.28,4.22 h -25.145 c -2.327,0 -4.221,-1.893 -4.221,-4.22 0,-2.293 1.894,-4.159 4.221,-4.159 h 16.837 l -19.92,-26.91 c -0.625,-0.782 -0.955,-1.682 -0.955,-2.599 0,-2.293 1.893,-4.159 4.221,-4.159 H 0 c 2.327,0 4.221,1.866 4.221,4.159 C 4.221,-1.933 2.288,0 0,0" /></g></g></g></g></svg>