<svg xmlns="http://www.w3.org/2000/svg" viewBox="0 0 532.7 135.2"><defs><style>.cls-1{fill:#f80e00;}</style></defs><g id="Layer_2" data-name="Layer 2"><g id="Layer_1-2" data-name="Layer 1"><path class="cls-1" d="M51.25,107.6h25.6l11.23,27.51h23.19l-36-85.76ZM0,0V135.2L56.06,0ZM95.29,0l56,135.2V0Z"/><path class="cls-1" d="M509.06,62.35c-7.77,0-11.24,5.9-12.13,11.4h18.95a28.14,28.14,0,0,0,4-.11v-.89C519.86,69.53,517.62,62.35,509.06,62.35ZM260.82,45.6h-.11c-1.79,7.51-6.32,20.58-9.68,30.7h19.69C268.36,68.91,263.06,53.4,260.82,45.6Zm69.9,17.3c-10,0-17.5,6.39-17.5,17.19,0,12.18,7.32,17.18,16.27,17.18a21,21,0,0,0,6.55-.89V63.68H336a14.89,14.89,0,0,0-5.26-.77Zm56.15,0c-7.49,0-12.92,6.56-12.92,17.19,0,10.29,5,17.41,13.59,17.41,7,0,12.92-5.68,12.92-17.19,0-9.28-4-17.4-13.59-17.4Zm59.56.22a21.41,21.41,0,0,0-7.89,1.22V97a19,19,0,0,0,5.15.55c9.23,0,17.73-5.78,17.73-18.19.05-10.67-6.06-16.23-15-16.23Zm-178-28.7c.56,0,.67.11.78.66l26,71.76c.11.67,0,1-.67,1H282a1.11,1.11,0,0,1-1.12-.66L274.3,88.6H247.45v0L241.3,107a1.1,1.1,0,0,1-1.23.89H228.83c-.67,0-.89-.34-.78-1.12L251.2,41.26c.45-1.11.78-2.22,1-6,0-.45.22-.78.67-.78Zm168.94-6.18c.79,0,1,.11,1,.89l.11,24a33,33,0,0,1,10.3-1.53c16.16,0,26.5,11.41,26.5,26.37,0,20.7-16.16,30.93-32.82,30.93a56.55,56.55,0,0,1-16.84-2.45,1.2,1.2,0,0,1-.78-1V29a.7.7,0,0,1,.61-.78.49.49,0,0,1,.17,0ZM387.54,51.6c17.34,0,26.73,13.08,26.73,28.37,0,17.3-11.13,28.93-27,28.93-18.79,0-27.07-14.41-27.07-28.59C360.25,64.46,370.71,51.6,387.54,51.6ZM348.9,28.24c.52,0,.55.19.56.58V96.38c0,2.23.22,5.12.44,7.18a.86.86,0,0,1-.67,1A53.71,53.71,0,0,1,328,108.9c-16.27.06-28.74-9.35-28.74-28.15,0-16.15,12.12-29.15,31.93-29.15a40.63,40.63,0,0,1,4.81.34V29c0-.56.22-.78.67-.78ZM509.68,51.66c16.61,0,23,13,23,23.59a33.71,33.71,0,0,1-.45,7,1,1,0,0,1-.89.78,82.74,82.74,0,0,1-11.13.44H497v.23c.44,7.71,5.6,13.79,16.93,13.79a35.7,35.7,0,0,0,13.92-2.67c.34-.22.67-.11.67.45v9.29a1.17,1.17,0,0,1-.67,1.22c-4.25,2-9.23,3.23-16.83,3.23-20.47,0-27.74-14.3-27.74-28,0-15.55,9.46-29.29,26.41-29.29Z"/></g></g></svg>