<svg xmlns="http://www.w3.org/2000/svg" viewBox="0 0 505.96 154.21"><defs><style>.cls-1{fill:#0091bd;}</style></defs><g id="Layer_2" data-name="Layer 2"><g id="Layer_1-2" data-name="Layer 1"><path class="cls-1" d="M114.2,4.11h34V149.72h-34V134.53c-15,17.33-33.15,19.68-43.63,19.68C25.66,154.21,0,116.78,0,76.79,0,29.31,32.51.23,71,.23,81.7.23,100.52,3,114.2,21ZM34.86,77.67c0,25,15.83,46.41,40.42,46.41,21.39,0,41.28-15.61,41.28-46,0-31.86-19.68-47-41.28-47-24.59-.27-40.42,20.69-40.42,46.56ZM188.63,4.11h34v13A62.81,62.81,0,0,1,236.75,4.92c6.63-3.85,13-4.92,20.74-4.92,8.34,0,17.32,1.29,26.73,6.85l-13.9,30.79A30.16,30.16,0,0,0,253,32.52c-7.27,0-14.54,1.07-21.17,7.91-9.41,10-9.41,24-9.41,33.58v75.71h-34ZM306,4.11h34V17.58C351.34,3.68,364.81.26,375.93.26c15.19,0,29.51,7.27,37.64,21.38C425.76,4.32,443.94.26,456.77.26c17.75,0,33.15,8.34,41.49,22.88C501,28.06,506,38.75,506,59.92v90H472v-80C472,53.66,470.28,47,468.79,44c-2.14-5.56-7.27-12.83-19.46-12.83A25.11,25.11,0,0,0,429.22,41.9c-6,8.34-6.63,20.74-6.63,33.15v75.06h-34V70c0-16.26-1.71-22.89-3.21-25.88-2.14-5.56-7.27-12.83-19.46-12.83a25.09,25.09,0,0,0-20.1,10.69c-6,8.34-6.63,20.74-6.63,33.15v75H306Z"/></g></g></svg>