<svg xmlns="http://www.w3.org/2000/svg" viewBox="0 0 460 131.12"><g id="Layer_2" data-name="Layer 2"><g id="Layer_1-2" data-name="Layer 1"><path d="M249.24,84.75c0,14.25-17.73,13.4-17.73,13.4H213.78V72.41h17.73c18.24-.12,17.73,12.34,17.73,12.34m-35.46-51.6h13.51c14,.74,13.5,11.18,13.5,11.18,0,13-15.52,13.19-15.52,13.19H213.78ZM246,62.57s12.13-5.17,12-18.89c0,0,1.85-22.48-27.93-25.22H197v94.23h37.88s31.65.1,31.65-26.59c0,0,.75-18.15-20.57-23.53M160.44,0H299.56V131.1H160.44ZM88.8,84.75c0,14.25-17.73,13.4-17.73,13.4H53.34V72.41H71.07C89.32,72.29,88.8,84.75,88.8,84.75M53.34,33.15H66.85c14,.74,13.5,11.18,13.5,11.18,0,13-15.51,13.19-15.51,13.19H53.34ZM85.52,62.57s12.14-5.17,12-18.89c0,0,1.84-22.48-27.94-25.22h-33v94.23H74.45s31.64.1,31.64-26.59c0,0,.75-18.15-20.57-23.53M0,0H139.13v131.1H0ZM431.62,25.24V42.65S414.62,32.2,395.85,32c0,0-35-.69-36.62,33.58,0,0-1.26,31.52,36.19,33.32,0,0,15.72,1.89,37-11.71v18s-28.6,17-61.73,3.91c0,0-27.85-10.17-28.91-43.55,0,0-1.16-34.32,36-45.71,0,0,9.92-3.8,27.75-2.11,0,0,10.65,1.05,26.07,7.49M320.87,131.12H460V0H320.87Z"/></g></g></svg>