<svg xmlns="http://www.w3.org/2000/svg" viewBox="0 0 480.18 172.2"><defs><style>.cls-1{fill:#09a5e8;}.cls-1,.cls-2,.cls-3,.cls-4{fill-rule:evenodd;}.cls-2{fill:#0980c5;}.cls-3{fill:#09c9fb;}.cls-4,.cls-5{fill:#2f3f83;}</style></defs><g id="Layer_2" data-name="Layer 2"><g id="Layer_1-2" data-name="Layer 1"><path class="cls-1" d="M42,94.82a6.16,6.16,0,0,0,12.31,0,23.05,23.05,0,1,1,14.1,21.27,6.16,6.16,0,1,0-5.15,11.19l.35.15A35.39,35.39,0,1,0,42,94.82Z"/><path class="cls-1" d="M0,94.52a77.61,77.61,0,0,0,18.51,50.31,6.28,6.28,0,0,0,9.57-8.13,65.19,65.19,0,1,1,109-69.39,6.28,6.28,0,0,0,12-2.57v-.11a6.29,6.29,0,0,0-.57-2.56A77.8,77.8,0,0,0,0,94.52Z"/><path class="cls-2" d="M148.09,80.29a6.31,6.31,0,0,0-5.51,7,67.59,67.59,0,0,1,.39,7.25c0,36.19-29,65.64-64.58,65.64a63.63,63.63,0,0,1-34-9.85,6.18,6.18,0,0,0-8.53,1.92.56.56,0,0,0,0,.08,6.41,6.41,0,0,0,2,8.72C50,168.74,64,172.2,78.43,172.2c42.47,0,77-34.52,77-77.69a83,83,0,0,0-.46-8.63,6.28,6.28,0,0,0-6.2-5.63Z"/><path class="cls-3" d="M116.59,114.89a43.32,43.32,0,0,1-19.5,19.26,6.4,6.4,0,0,0-2.93,8.42,6.15,6.15,0,0,0,5.57,3.62,6,6,0,0,0,2.63-.61,55.71,55.71,0,0,0,25.11-24.85,6.41,6.41,0,0,0-2.61-8.53,6,6,0,0,0-2.84-.72A6.14,6.14,0,0,0,116.59,114.89Z"/><path class="cls-2" d="M49.76,46.49a6.53,6.53,0,0,0-2.14,8.82A6.16,6.16,0,0,0,56,57.62l.18-.11a42.12,42.12,0,0,1,22.14-6.29c23.71,0,43,19.82,43,44.18a6.26,6.26,0,1,0,12.51.5,4.17,4.17,0,0,0,0-.5c0-31.45-24.9-57-55.51-57A54.33,54.33,0,0,0,49.76,46.49Z"/><path class="cls-3" d="M30.09,65.39c-6,9-8.54,19.52-8.54,30.35,0,30.62,25.86,55.53,55.57,55.53a6.26,6.26,0,1,0,.5-12.51h-.5c-24,0-43.5-19.3-43.5-43a42.54,42.54,0,0,1,7.06-23.51A6.2,6.2,0,0,0,39,63.65l-.1-.06A6.37,6.37,0,0,0,30.09,65.39Z"/><path class="cls-3" d="M146.18,18.5a6.17,6.17,0,1,1,6.18,6.16h0A6.18,6.18,0,0,1,146.18,18.5Zm-12.33,0A18.5,18.5,0,1,0,152.35,0,18.5,18.5,0,0,0,133.85,18.5Z"/><path class="cls-4" d="M369.85,77.33h9.24c.26,1.48.5,2.88.81,4.68,12.39-10.94,34.8-4,36.48,12.86,1.35,9.56-.57,18.32-9.52,23.69s-17.9,5-26.92-1.76v20.49h-10Zm23,8.4c-7.72,0-13.11,5.55-13.16,13.54,0,18.57,26.37,18.44,26.54.28.08-8.23-5.34-13.82-13.35-13.82Z"/><path class="cls-4" d="M356.16,108.89l5.2,5.61c-7.93,7.75-17.2,8.12-25.1,6.7-8.78-1.57-14.78-7.34-16.69-16.28s.1-17,7.39-23.15c15.9-12.41,40.85-.87,37,20.88H330c1.7,10.9,13.79,13.63,26.17,6.24M329.67,95.6h24.46c-1.3-6.89-5.72-10.62-12.25-10.53s-11,3.81-12.21,10.53"/><path class="cls-4" d="M270.44,77.4h10.65c0,8.59-.12,16.75,0,25.22.26,6.45,3.33,9.79,9.14,10.19,14.36.51,13.25-11.06,13.2-21.35.06-4.57,0-9.21,0-14.06h10.3v44h-9.46c-.16-1.43-.31-3-.52-4.79-9.92,9.35-30.38,6.8-32.52-7.86-1.27-10.53-.76-20.56-.84-31.38"/><polygon class="cls-4" points="220.67 121.43 209.86 121.43 209.86 72.66 190.54 72.66 190.54 63.55 239.39 63.55 239.39 72.66 220.67 72.66 220.67 121.43"/><path class="cls-4" d="M480.18,87l-7.73,4.53c-5.25-7-16.18-8.21-21.91-1.16-4.39,5.36-3.8,14.84,1.18,19.44,5.49,5,13.82,4.2,20.67-2.48l7.41,4.11c-6.09,9.33-15,12.1-24.48,10.09-10-2.11-17.47-10-18.14-20-2.38-24.28,30.45-34,43-14.51"/><path class="cls-4" d="M241.21,77.4h9.27c.25,1.51.48,2.87.8,4.77,4.49-3.44,9.16-5.87,15.1-5v9c-8.54.32-14.91,3.58-15,12.94-.21,7.48,0,14.86,0,22.37H241.21Z"/><rect class="cls-5" x="421.92" y="77.49" width="9.95" height="43.86"/><path class="cls-4" d="M433.48,63.59A6.48,6.48,0,0,1,427,70.07h-.1a6.3,6.3,0,0,1-.76-12.58,6.42,6.42,0,0,1,1,0,6.21,6.21,0,0,1,6.36,6.06v0"/></g></g></svg>