<svg xmlns="http://www.w3.org/2000/svg" viewBox="0 0 223.66 180"><defs><style>.cls-1{fill:#1d9eef;}</style></defs><g id="Layer_2" data-name="Layer 2"><g id="Layer_1-2" data-name="Layer 1"><path class="cls-1" d="M70.35,180c84.4,0,130.55-69.24,130.55-129.29,0-2,0-3.92-.13-5.87a92.75,92.75,0,0,0,22.89-23.53,92,92,0,0,1-26.35,7.15A45.72,45.72,0,0,0,217.49,3.33a93,93,0,0,1-29.14,11A46,46,0,0,0,154.84,0C129.5,0,109,20.35,109,45.44a45.74,45.74,0,0,0,1.19,10.36A130.71,130.71,0,0,1,15.57,8.32,45.17,45.17,0,0,0,29.84,69,45.74,45.74,0,0,1,9.06,63.32v.58a45.58,45.58,0,0,0,36.78,44.53A46.34,46.34,0,0,1,33.72,110a45.38,45.38,0,0,1-8.63-.82A45.88,45.88,0,0,0,68,140.75,92.61,92.61,0,0,1,11,160.2,95.32,95.32,0,0,1,0,159.57,130.85,130.85,0,0,0,70.36,180"/></g></g></svg>