<svg id="Layer_1" data-name="Layer 1" xmlns="http://www.w3.org/2000/svg" viewBox="0 0 700 700"><defs><style>.cls-1{fill:#f80e00;}</style></defs><path class="cls-1" d="M134.89,390h25.6l11.23,27.51h23.19l-36-85.76ZM83.64,282.4V417.6L139.7,282.4Zm95.29,0,56,135.2V282.4Z"/><path class="cls-1" d="M592.7,344.75c-7.77,0-11.24,5.9-12.13,11.4h18.95a28.77,28.77,0,0,0,4-.11v-.89C603.5,351.93,601.26,344.75,592.7,344.75ZM344.46,328h-.11c-1.79,7.51-6.32,20.58-9.68,30.7h19.69C352,351.31,346.7,335.8,344.46,328Zm69.9,17.3c-10,0-17.5,6.39-17.5,17.19,0,12.18,7.32,17.18,16.27,17.18a21.33,21.33,0,0,0,6.55-.89v-32.7h-.06A14.84,14.84,0,0,0,414.36,345.31Zm56.15,0c-7.49,0-12.92,6.56-12.92,17.19,0,10.29,5,17.41,13.59,17.41,7,0,12.92-5.68,12.92-17.19C484.1,353.43,480.07,345.31,470.51,345.31Zm59.56.22a21.4,21.4,0,0,0-7.89,1.22v32.66a19,19,0,0,0,5.15.55c9.23,0,17.73-5.78,17.73-18.19C545.11,351.09,539,345.53,530.07,345.53Zm-178-28.7c.56,0,.67.11.78.66l26,71.76c.11.67,0,1-.67,1H365.6a1.12,1.12,0,0,1-1.12-.66L357.94,371H331.09v-.05l-6.15,18.41a1.1,1.1,0,0,1-1.23.89H312.47c-.67,0-.89-.34-.78-1.12l23.15-65.47c.45-1.11.78-2.22,1-6,0-.45.22-.78.67-.78Zm168.94-6.18c.79,0,1,.11,1,.89l.11,24A33,33,0,0,1,532.42,334c16.16,0,26.5,11.41,26.5,26.37,0,20.7-16.16,30.93-32.82,30.93a56.52,56.52,0,0,1-16.84-2.45,1.19,1.19,0,0,1-.78-1V311.43a.7.7,0,0,1,.78-.78ZM471.18,334c17.34,0,26.73,13.08,26.73,28.37,0,17.3-11.13,28.93-27,28.93-18.79,0-27.07-14.41-27.07-28.59C443.89,346.86,454.35,334,471.18,334Zm-38.64-23.36c.52,0,.55.19.56.58v67.56c0,2.23.22,5.12.44,7.18a.86.86,0,0,1-.67,1,53.68,53.68,0,0,1-21.25,4.34c-16.27.06-28.74-9.35-28.74-28.15C382.88,347,395,334,414.81,334a39.43,39.43,0,0,1,4.81.34V311.43c0-.56.22-.78.67-.78Zm160.78,23.42c16.61,0,23,13,23,23.59a34.1,34.1,0,0,1-.45,6.95,1,1,0,0,1-.89.78,82.41,82.41,0,0,1-11.13.44H580.63v.23c.44,7.71,5.6,13.79,16.93,13.79a35.67,35.67,0,0,0,13.92-2.67c.34-.22.67-.11.67.45v9.29a1.17,1.17,0,0,1-.67,1.22c-4.25,2-9.23,3.23-16.83,3.23-20.47,0-27.74-14.3-27.74-28C566.92,347.81,576.37,334.07,593.32,334.07Z"/></svg>