<?xml version="1.0" encoding="utf-8"?>
<!-- Generator: Adobe Illustrator 27.3.1, SVG Export Plug-In . SVG Version: 6.00 Build 0)  -->
<svg version="1.1" id="Layer_1" xmlns="http://www.w3.org/2000/svg" xmlns:xlink="http://www.w3.org/1999/xlink" x="0px" y="0px"
	 viewBox="0 0 457 206" style="enable-background:new 0 0 457 206;" xml:space="preserve">
<style type="text/css">
	.st0{fill:#0068B5;}
</style>
<rect id="rect4" x="24.5" y="19.4" class="st0" width="31.7" height="31.7"/>
<g id="g10">
	<path id="path6" d="M55.4,184.6V70.4h-30v114.2H55.4z M255,185.8v-28c-3.6,0.1-7.2-0.2-10.8-0.7c-2.6-0.3-5.1-1.4-7.1-3.2
		c-1.7-1.9-2.8-4.3-3.2-6.8c-0.5-3.7-0.7-7.4-0.7-11.1v-40H255V70.4h-21.8V25.8h-30.1v110.5c0,9.4,0.8,17.3,2.4,23.6
		c1.3,5.7,4.1,10.9,8,15.1c4.1,4,9.1,6.8,14.7,8.2c6.1,1.7,13.8,2.5,22.9,2.5L255,185.8z M427.5,184.6V17h-30.1v167.6H427.5z
		 M174.1,81.6c-8.4-9-20.1-13.5-35-13.5c-6.8-0.1-13.6,1.4-19.8,4.4c-5.8,2.9-10.9,7-14.9,12.2l-1.7,2.1V70.4H73.1v114.2H103v-58.7
		c0.3-10.7,2.9-18.6,7.9-23.7c4.9-5.3,11.9-8.2,19.1-8.1c8.7,0,15.3,2.7,19.7,7.9s6.5,12.5,6.5,21.9l0,0v0.2l0,0v60.4h30.3v-64.8
		C186.7,103.5,182.4,90.6,174.1,81.6z M381.8,127.3c0-7.9-1.4-15.8-4.3-23.1c-2.9-7-6.9-13.4-12.1-18.9c-5.3-5.5-11.6-9.8-18.6-12.6
		c-7.6-3.1-15.7-4.6-23.9-4.5c-8,0-15.9,1.5-23.2,4.6c-7,3-13.4,7.3-18.9,12.6c-5.4,5.4-9.7,11.8-12.6,18.9
		c-3.1,7.3-4.7,15.3-4.6,23.2c-0.1,8,1.4,15.9,4.4,23.2c2.8,7,7,13.4,12.3,18.9c5.4,5.5,11.9,9.8,19.1,12.6
		c7.8,3.2,16.1,4.8,24.5,4.7c25.5,0,41.3-11.6,50.8-22.5l-21.7-16.5c-4.5,5.4-15.4,12.8-28.9,12.8c-8.5,0-15.5-1.9-20.8-5.9
		c-5.3-3.9-9.1-9.5-10.8-15.9l-0.3-1h89.7L381.8,127.3z M292.3,116.8c0-8.4,9.6-22.9,30.2-23s30.4,14.6,30.4,22.9L292.3,116.8z"/>
</g>
</svg>
