<svg id="Layer_1" data-name="Layer 1" xmlns="http://www.w3.org/2000/svg" viewBox="0 0 700 700"><defs><style>.cls-1{fill:#0068b5;}</style></defs><rect id="rect4" class="cls-1" x="148.51" y="267.37" width="31.72" height="31.72"/><g id="g10"><path id="path6" d="M179.44,432.63V318.39h-30V432.63ZM379,433.76v-28a70.22,70.22,0,0,1-10.84-.67,12.33,12.33,0,0,1-7.11-3.16,12.72,12.72,0,0,1-3.16-6.78,73.11,73.11,0,0,1-.68-11.06v-40H379V318.39H357.22V273.8H327.08V384.32c0,9.37.8,17.27,2.38,23.59a33,33,0,0,0,8,15.12,32.21,32.21,0,0,0,14.67,8.24c6.1,1.7,13.78,2.49,22.92,2.49Zm172.48-1.13V265H521.35V432.63ZM298.07,329.57c-8.35-9-20.09-13.55-35-13.55a44.18,44.18,0,0,0-19.75,4.4,42.25,42.25,0,0,0-14.9,12.2l-1.7,2.14V318.39H197.05V432.63H227v-58.7c.34-10.72,2.93-18.62,7.9-23.7a25.88,25.88,0,0,1,19.08-8.13c8.69,0,15.35,2.71,19.75,7.9s6.55,12.53,6.55,21.9h0v.22h0v60.4H310.6v-64.8C310.72,351.47,306.43,338.6,298.07,329.57Zm207.71,45.72a63,63,0,0,0-4.29-23.15,62.08,62.08,0,0,0-12.08-18.85,55.1,55.1,0,0,0-18.63-12.64,61,61,0,0,0-23.93-4.51,59.48,59.48,0,0,0-23.25,4.62,60.57,60.57,0,0,0-18.85,12.65,58.74,58.74,0,0,0-12.65,18.85,57.4,57.4,0,0,0-4.62,23.25,61.19,61.19,0,0,0,4.4,23.25,58,58,0,0,0,12.3,18.86,56.55,56.55,0,0,0,19.08,12.64,62.36,62.36,0,0,0,24.5,4.74c25.51,0,41.31-11.63,50.79-22.46l-21.67-16.48c-4.52,5.41-15.35,12.75-28.9,12.75-8.46,0-15.46-1.92-20.77-5.87A29,29,0,0,1,416.37,387l-.33-1h89.74Zm-89.52-10.5c0-8.36,9.6-22.92,30.25-23s30.37,14.56,30.37,22.91Z"/></g></svg>