<?xml version="1.0" encoding="utf-8"?>
<!-- Generator: Adobe Illustrator 27.3.1, SVG Export Plug-In . SVG Version: 6.00 Build 0)  -->
<svg version="1.1" id="Layer_1" xmlns="http://www.w3.org/2000/svg" xmlns:xlink="http://www.w3.org/1999/xlink" x="0px" y="0px"
	 viewBox="0 0 513 206" style="enable-background:new 0 0 513 206;" xml:space="preserve">
<style type="text/css">
	.st0{fill-rule:evenodd;clip-rule:evenodd;fill:#09A5E8;}
	.st1{fill-rule:evenodd;clip-rule:evenodd;fill:#0980C5;}
	.st2{fill-rule:evenodd;clip-rule:evenodd;fill:#09C9FB;}
	.st3{fill-rule:evenodd;clip-rule:evenodd;fill:#2F3F83;}
	.st4{fill:#2F3F83;}
</style>
<path class="st0" d="M59.9,111.9c0.1,3.4,3,6,6.4,5.9c3.2-0.1,5.8-2.7,5.9-5.9c0-12.7,10.3-23,23.1-23s23,10.3,23,23.1
	c0,12.7-10.3,23-23.1,23c-3.1,0-6.1-0.6-8.9-1.8c-3.1-1.4-6.7-0.1-8.2,3c-1.4,3.1-0.1,6.7,3,8.2c0.1,0.1,0.2,0.1,0.4,0.1
	c18,7.6,38.8-0.8,46.4-18.8c7.6-18-0.8-38.8-18.8-46.4c-18-7.6-38.8,0.8-46.4,18.8C60.9,102.5,59.9,107.2,59.9,111.9z"/>
<path class="st0" d="M17.9,111.6c0,18.4,6.6,36.3,18.5,50.3c2.3,2.6,6.3,2.8,8.9,0.5c2.5-2.2,2.8-6.1,0.7-8.7
	c-23.2-27.5-19.7-68.6,7.8-91.9s68.6-19.7,91.9,7.8c3.8,4.5,6.9,9.4,9.3,14.7c1.4,3.2,5.2,4.6,8.3,3.1c2.2-1,3.7-3.2,3.7-5.7v-0.1
	c0-0.9-0.2-1.8-0.6-2.6c-18-39-64.2-56.1-103.2-38.1C35.7,53.7,18,81.3,17.9,111.6L17.9,111.6z"/>
<path class="st1" d="M166,97.4c-3.5,0.4-5.9,3.5-5.5,7c0.3,2.4,0.4,4.8,0.4,7.2c0,36.2-29,65.6-64.6,65.6c-12,0-23.8-3.4-34-9.9
	c-2.9-1.8-6.7-1-8.5,1.9c0,0,0,0.1-0.1,0.1c-1.8,3-0.9,6.8,2,8.7c12.2,7.7,26.2,11.1,40.6,11.1c42.5,0,77-34.5,77-77.7
	c0-2.9-0.2-5.8-0.5-8.6c-0.3-3.2-3-5.6-6.2-5.6L166,97.4z"/>
<path class="st2" d="M134.5,132c-4.2,8.4-11.1,15.1-19.5,19.3c-3.1,1.6-4.4,5.3-2.9,8.4c1,2.2,3.2,3.6,5.6,3.6
	c0.9,0,1.8-0.2,2.6-0.6c10.8-5.3,19.7-14.1,25.1-24.9c1.6-3.1,0.4-6.9-2.6-8.5c-0.9-0.5-1.8-0.7-2.8-0.7
	C137.6,128.6,135.5,129.9,134.5,132z"/>
<path class="st1" d="M67.7,63.6c-3,1.9-3.9,5.8-2.1,8.8c1.7,3,5.4,4,8.4,2.3c0.1,0,0.1-0.1,0.2-0.1c6.7-4.1,14.3-6.3,22.1-6.3
	c23.7,0,43,19.8,43,44.2c-0.1,3.5,2.6,6.4,6,6.5c3.5,0.1,6.4-2.6,6.5-6c0-0.2,0-0.3,0-0.5c0-31.5-24.9-57-55.5-57
	C86.2,55.5,76.3,58.3,67.7,63.6z"/>
<path class="st2" d="M48,82.5c-6,9-8.5,19.5-8.5,30.4c0,30.6,25.9,55.5,55.6,55.5c3.5,0.1,6.4-2.6,6.5-6c0.1-3.5-2.6-6.4-6-6.5
	c-0.2,0-0.3,0-0.5,0c-24,0-43.5-19.3-43.5-43c0-8.4,2.4-16.5,7.1-23.5c1.9-2.9,1.1-6.7-1.7-8.6c0,0-0.1,0-0.1-0.1
	C53.8,78.8,49.9,79.6,48,82.5z"/>
<path class="st2" d="M164.1,35.6c0-3.4,2.8-6.2,6.2-6.2s6.2,2.8,6.2,6.2s-2.8,6.2-6.2,6.2c0,0,0,0,0,0
	C166.9,41.8,164.1,39,164.1,35.6z M151.8,35.6c0,10.2,8.3,18.5,18.5,18.5c10.2,0,18.5-8.3,18.5-18.5s-8.3-18.5-18.5-18.5
	C160,17.1,151.8,25.4,151.8,35.6z"/>
<path class="st3" d="M387.8,94.4h9.2c0.3,1.5,0.5,2.9,0.8,4.7c12.4-10.9,34.8-4,36.5,12.9c1.3,9.6-0.6,18.3-9.5,23.7
	s-17.9,5-26.9-1.8v20.5h-10L387.8,94.4z M410.8,102.8c-7.7,0-13.1,5.5-13.2,13.5c0,18.6,26.4,18.4,26.5,0.3
	C424.2,108.4,418.8,102.8,410.8,102.8L410.8,102.8z"/>
<path class="st3" d="M374.1,126l5.2,5.6c-7.9,7.8-17.2,8.1-25.1,6.7c-8.8-1.6-14.8-7.3-16.7-16.3s0.1-17,7.4-23.1
	c15.9-12.4,40.9-0.9,37,20.9h-34C349.6,130.7,361.7,133.4,374.1,126 M347.6,112.7H372c-1.3-6.9-5.7-10.6-12.2-10.5
	S348.8,106,347.6,112.7"/>
<path class="st3" d="M288.4,94.5H299c0,8.6-0.1,16.8,0,25.2c0.3,6.5,3.3,9.8,9.1,10.2c14.4,0.5,13.2-11.1,13.2-21.4
	c0.1-4.6,0-9.2,0-14.1h10.3v44h-9.5c-0.2-1.4-0.3-3-0.5-4.8c-9.9,9.4-30.4,6.8-32.5-7.9C287.9,115.3,288.4,105.3,288.4,94.5"/>
<polygon class="st3" points="238.6,138.5 227.8,138.5 227.8,89.8 208.5,89.8 208.5,80.7 257.3,80.7 257.3,89.8 238.6,89.8 "/>
<path class="st3" d="M498.1,104.1l-7.7,4.5c-5.2-7-16.2-8.2-21.9-1.2c-4.4,5.4-3.8,14.8,1.2,19.4c5.5,5,13.8,4.2,20.7-2.5l7.4,4.1
	c-6.1,9.3-15,12.1-24.5,10.1c-10-2.1-17.5-10-18.1-20C452.7,94.4,485.5,84.6,498.1,104.1"/>
<path class="st3" d="M259.1,94.5h9.3c0.2,1.5,0.5,2.9,0.8,4.8c4.5-3.4,9.2-5.9,15.1-5v9c-8.5,0.3-14.9,3.6-15,12.9
	c-0.2,7.5,0,14.9,0,22.4h-10.1V94.5z"/>
<rect x="439.8" y="94.6" class="st4" width="10" height="43.9"/>
<path class="st3" d="M451.4,80.7c0,3.6-2.9,6.5-6.5,6.5c0,0-0.1,0-0.1,0c-3.5,0.2-6.5-2.4-6.7-5.9c-0.2-3.5,2.4-6.5,5.9-6.7
	c0.3,0,0.7,0,1,0C448.5,74.5,451.3,77.2,451.4,80.7C451.4,80.7,451.4,80.7,451.4,80.7"/>
</svg>
