<svg version="1.1" id="Layer_1" xmlns="http://www.w3.org/2000/svg" xmlns:xlink="http://www.w3.org/1999/xlink" x="0px" y="0px"
	 width="100%" viewBox="0 0 1500 517" enable-background="new 0 0 1500 517" xml:space="preserve">
<path fill="#FEFEFE" opacity="1.000000" stroke="none" 
	d="
M1501.000000,232.000000 
	C1501.000000,327.333344 1501.000000,422.666687 1501.000000,518.000000 
	C1489.900269,518.000000 1478.915161,518.000000 1467.588257,517.663696 
	C1468.374390,516.037598 1469.891235,514.922974 1470.563965,513.428406 
	C1473.764404,506.318207 1476.744751,499.108734 1479.785400,491.926941 
	C1484.227905,481.433868 1488.655029,470.934296 1493.325928,459.875824 
	C1490.030396,459.875824 1487.365234,460.153870 1484.782959,459.809753 
	C1481.038330,459.310730 1479.115234,460.599762 1477.985962,464.279785 
	C1476.167480,470.205017 1473.825073,475.969513 1471.313354,482.875916 
	C1468.132080,474.469238 1465.354248,467.128662 1462.723389,460.176514 
	C1457.833740,460.176514 1453.599976,460.176514 1448.781372,460.176514 
	C1453.557251,471.454956 1458.021973,482.313385 1462.782227,493.040710 
	C1464.135376,496.090210 1463.907959,498.564667 1462.590210,501.503967 
	C1460.170166,506.902557 1458.173340,512.490845 1456.000000,518.000000 
	C1371.309937,518.000000 1286.619995,518.000000 1201.580566,517.652954 
	C1210.199585,514.845215 1215.045166,509.617279 1215.281494,500.393951 
	C1215.617310,487.281830 1215.199341,474.150391 1215.123047,460.714325 
	C1214.769287,460.297638 1214.395996,460.193848 1213.567627,459.997162 
	C1209.332397,460.803955 1204.454712,457.477173 1201.831055,462.830872 
	C1193.675659,457.523224 1184.873413,458.111633 1179.264771,464.342133 
	C1172.745850,471.583771 1172.247314,485.785614 1178.257080,493.044556 
	C1184.462036,500.539246 1193.095337,501.420593 1202.813843,495.314667 
	C1202.813843,496.941864 1203.244385,498.558289 1202.721069,499.759064 
	C1201.737915,502.015289 1200.639893,505.146790 1198.790283,505.869934 
	C1196.384155,506.810760 1191.973755,506.883331 1190.575073,505.358368 
	C1186.063721,500.439453 1181.022095,502.724731 1175.755127,502.328979 
	C1175.899902,503.718597 1175.907471,504.534271 1176.078247,505.314209 
	C1177.831909,513.320007 1184.397583,515.685059 1191.000000,518.000000 
	C1016.976685,518.000000 842.953369,518.000000 668.581299,517.660583 
	C669.212891,516.132019 670.505249,515.084595 671.120483,513.729675 
	C674.072632,507.228699 676.875916,500.659088 679.668213,494.086792 
	C684.446655,482.839844 689.177551,471.572754 694.113342,459.875793 
	C690.978638,459.875793 688.449280,460.158875 686.009216,459.812927 
	C681.798828,459.216003 679.834717,460.920837 678.634583,464.920380 
	C676.910339,470.666046 674.541931,476.218445 672.046143,482.936462 
	C669.340759,475.591705 667.149475,469.367615 664.710815,463.242065 
	C664.190918,461.936096 662.858154,460.142456 661.750366,460.028656 
	C657.894531,459.632507 653.973083,459.875549 649.463257,459.875549 
	C653.603333,469.678131 657.022522,478.861481 661.328491,487.608246 
	C664.497620,494.045776 665.540833,499.787018 661.269165,506.079651 
	C659.341736,508.918884 658.237854,512.333191 656.903076,515.545837 
	C656.618042,516.232056 656.951477,517.175232 657.000000,518.000000 
	C438.333313,518.000000 219.666656,518.000000 1.000000,518.000000 
	C1.000000,498.907135 1.000000,479.918579 1.466149,460.444397 
	C5.857626,459.958740 9.782953,459.958740 14.202579,459.958740 
	C14.202579,473.167419 14.202579,485.965485 14.202579,498.862488 
	C18.149179,498.862488 21.589272,498.862488 25.320494,498.900696 
	C25.751234,498.623230 25.890842,498.307526 26.157722,497.538574 
	C26.284992,484.805237 26.284992,472.525085 26.284992,459.826050 
	C30.844522,459.826050 34.776760,459.826050 38.741264,459.826050 
	C38.741264,456.336395 38.741264,453.280243 38.741264,450.000000 
	C25.950638,450.000000 13.475319,450.000000 1.000000,450.000000 
	C1.000000,300.426514 1.000000,150.853043 1.000000,1.000000 
	C81.356445,1.000000 161.713211,1.000000 242.485413,1.351132 
	C211.060425,56.959324 179.257019,112.237755 147.369110,167.467407 
	C115.729286,222.267426 83.971153,276.999115 52.330387,331.798615 
	C35.806438,360.416870 19.423380,389.116455 2.718848,417.982178 
	C3.468984,418.738403 4.475978,419.773682 5.485065,419.775726 
	C45.514301,419.856750 85.543839,419.874329 125.572662,419.722748 
	C127.036247,419.717224 128.493103,417.934723 130.212250,416.753326 
	C130.940491,415.646790 131.384262,414.752716 131.882309,413.889923 
	C161.604370,362.404144 191.330582,310.920776 221.057220,259.437622 
	C228.468613,246.601929 235.882675,233.767792 243.538116,220.512894 
	C244.802139,222.466934 245.761047,223.814972 246.584229,225.241348 
	C270.904266,267.381927 295.189697,309.542450 319.528198,351.672363 
	C332.314087,373.804749 345.189087,395.885620 358.125000,418.378571 
	C360.100891,419.126068 361.975525,419.797363 363.850555,419.798523 
	C448.486603,419.850403 533.122681,419.847992 617.758728,419.812592 
	C619.516663,419.811859 621.274475,419.349609 623.497192,419.101440 
	C637.095825,417.495789 650.439209,416.869995 663.325256,414.109283 
	C707.564941,404.631348 743.471985,380.921082 772.819885,347.067230 
	C819.801392,292.872314 832.049561,229.933823 817.146301,161.157135 
	C807.583923,117.027832 783.044067,81.505424 749.115479,52.252975 
	C711.751404,20.038507 668.111145,3.929543 619.008423,3.487126 
	C560.182007,2.957098 501.347168,3.362060 442.515991,3.362106 
	C440.613647,3.362108 438.711273,3.362106 436.263306,3.362106 
	C436.263306,113.747917 436.263306,223.329422 436.263306,333.177338 
	C435.556305,332.837463 435.339264,332.807068 435.271912,332.690308 
	C393.420319,260.136383 351.577850,187.577179 309.737457,115.016769 
	C287.822998,77.012314 265.912354,39.005669 244.000000,1.000001 
	C663.000000,1.000000 1082.000000,1.000000 1501.000000,1.000000 
	C1501.000000,64.441002 1501.000000,127.755486 1500.617310,191.373474 
	C1499.052246,183.336334 1498.366333,174.889481 1496.607666,166.672165 
	C1484.696655,111.020256 1453.218994,68.646156 1406.869263,36.919746 
	C1375.711060,15.591945 1340.799072,5.035173 1302.719360,3.558623 
	C1239.932495,3.344217 1177.501099,3.344217 1114.942993,3.344217 
	C1114.942993,142.351089 1114.942993,280.975220 1114.942993,419.597748 
	C1115.841553,419.688324 1116.334961,419.781494 1116.828247,419.781586 
	C1176.968506,419.789978 1237.108765,419.795868 1297.249023,419.763794 
	C1298.509644,419.763123 1299.769897,419.320282 1301.495850,419.091217 
	C1322.221802,419.097778 1341.874268,415.292725 1360.962524,408.845978 
	C1396.755371,396.757446 1426.289673,375.386810 1451.006104,347.049011 
	C1476.283447,318.068085 1492.504761,284.857208 1498.253052,246.685562 
	C1498.994141,241.764099 1500.076050,236.893936 1501.000000,232.000000 
M1256.114746,459.898804 
	C1252.889282,459.898804 1249.663818,459.898804 1246.467041,459.898804 
	C1246.467041,473.314911 1246.467041,485.994293 1246.467041,498.869659 
	C1250.161377,498.869659 1253.595337,498.869659 1257.653442,498.937073 
	C1257.814819,498.610016 1257.976196,498.282990 1258.425537,497.061890 
	C1258.332520,485.055695 1258.239502,473.049500 1258.180420,460.402863 
	C1257.794922,460.298401 1257.409302,460.193939 1256.114746,459.898804 
M171.503250,482.330719 
	C171.681854,482.260864 171.860474,482.190979 172.845901,481.785522 
	C173.758804,474.452789 172.653488,467.765045 166.271149,463.061951 
	C158.419113,457.275818 146.406235,457.955994 139.516937,464.412872 
	C133.586212,469.971375 132.198730,482.766449 136.697861,490.409485 
	C141.261642,498.162354 151.346939,501.545471 160.709473,498.464142 
	C166.914246,496.422058 171.312012,491.434387 171.661560,486.043030 
	C163.143066,485.492828 163.143051,485.492798 156.156570,488.629639 
	C151.877502,490.550842 147.995117,488.093262 147.042480,482.164001 
	C155.090332,482.164001 163.021439,482.164001 171.503250,482.330719 
M1147.608154,482.209961 
	C1147.718262,481.812317 1147.828247,481.414703 1148.119385,480.146118 
	C1146.818481,475.456146 1146.619385,469.992859 1143.984619,466.239166 
	C1138.699219,458.709076 1130.478271,457.898499 1122.020752,460.192169 
	C1114.791138,462.152771 1109.649902,468.469788 1109.062988,476.185455 
	C1108.409790,484.773438 1110.160156,492.517487 1118.474976,497.066925 
	C1130.414795,503.599792 1145.876221,496.704773 1146.798340,485.718353 
	C1141.571167,486.634369 1136.313721,484.293488 1131.203735,488.193481 
	C1127.156982,491.281982 1122.186035,487.675354 1122.558228,482.321014 
	C1122.722290,482.265045 1122.886230,482.209076 1123.943970,482.438049 
	C1131.612183,482.350220 1139.280273,482.262360 1147.608154,482.209961 
M974.840759,498.885437 
	C975.113647,496.845856 975.631042,494.805023 975.620300,492.766968 
	C975.541199,477.809357 975.356384,462.852356 974.673279,447.207886 
	C971.068604,447.207886 967.463928,447.207886 963.204346,447.207886 
	C963.204346,452.728516 963.204346,457.872559 963.204346,463.405914 
	C954.391113,457.634857 945.672058,457.994354 939.866150,463.902100 
	C933.257385,470.626709 932.312195,484.875519 938.209167,492.549652 
	C944.412048,500.621613 953.425232,501.890930 961.680420,496.528229 
	C963.962341,497.614044 965.450806,498.759399 967.068176,498.986633 
	C969.334961,499.305084 971.697815,498.940155 974.840759,498.885437 
M1043.263916,453.829010 
	C1043.244019,467.633270 1043.202637,481.437592 1043.242065,495.241669 
	C1043.245361,496.437042 1043.781982,497.630920 1044.965088,499.059174 
	C1048.573486,499.059174 1052.181763,499.059174 1056.360352,499.059174 
	C1056.360352,492.722443 1056.360352,486.887268 1056.360352,481.052124 
	C1056.770752,480.902710 1057.181030,480.753296 1057.591431,480.603912 
	C1058.472290,481.811493 1059.477051,482.948669 1060.211060,484.239716 
	C1062.509155,488.281372 1064.609741,492.438416 1067.002319,496.421326 
	C1067.671631,497.535522 1069.031494,498.862793 1070.166992,498.954895 
	C1074.035156,499.268677 1077.944458,499.074951 1082.599121,499.074951 
	C1078.624512,492.114685 1075.128906,485.993347 1071.634277,479.873627 
	C1079.957275,475.401703 1083.098389,469.756042 1081.583130,462.516418 
	C1080.011963,455.009583 1074.988892,450.464233 1066.898682,450.048340 
	C1059.926392,449.689850 1052.920044,450.042267 1045.931274,449.927979 
	C1043.553223,449.889099 1042.969482,450.828430 1043.263916,453.829010 
M854.594788,263.712311 
	C884.652466,263.758667 914.710083,263.810303 944.767761,263.821106 
	C945.526062,263.821381 946.284424,263.371918 947.837341,263.103760 
	C958.049866,261.450470 964.711548,253.741745 964.729248,243.489410 
	C964.751282,230.673843 964.736572,217.858200 964.734192,205.042587 
	C964.731934,192.808731 957.147217,184.021072 945.044983,183.879532 
	C915.090576,183.529251 885.127197,183.559097 855.172058,183.877472 
	C844.081177,183.995331 835.892883,192.607407 835.743896,203.338562 
	C835.554565,216.983734 835.528198,230.636276 835.751221,244.280411 
	C835.919861,254.593307 843.611450,262.328735 854.594788,263.712311 
M978.314758,266.499908 
	C978.314758,317.431122 978.314758,368.362335 978.314758,419.465576 
	C1018.282227,419.465576 1057.666260,419.465576 1097.147095,419.465576 
	C1097.147095,280.665192 1097.147095,142.141357 1097.147095,3.736248 
	C1057.384033,3.736248 1017.987793,3.736248 978.314819,3.736248 
	C978.314819,91.241028 978.314819,178.370453 978.314758,266.499908 
M348.868622,479.488953 
	C348.797058,496.825043 364.451874,504.821320 376.293518,496.228394 
	C380.256958,501.406921 385.479401,498.017029 389.835632,499.176361 
	C389.835632,481.438751 389.835632,464.404694 389.835632,447.435425 
	C385.583252,447.435425 381.695099,447.435425 377.460144,447.435425 
	C377.460144,452.703461 377.460144,457.650513 377.460144,462.428070 
	C373.930023,461.298218 370.744781,459.634277 367.437195,459.338470 
	C356.668274,458.375397 349.556244,465.960144 348.868622,479.488953 
M866.313049,480.797852 
	C864.234497,486.715607 862.155945,492.633362 859.965027,498.871094 
	C864.529663,498.871094 868.641663,498.871094 872.216187,498.871094 
	C875.867371,496.654877 872.794617,489.828705 879.059326,490.203186 
	C886.129333,490.625763 895.656067,486.314697 896.195984,498.757385 
	C900.921387,498.757385 904.970093,498.757385 909.516296,498.757385 
	C903.558838,482.263367 897.762390,466.215240 891.893250,449.965668 
	C888.751343,449.965668 885.729858,450.277344 882.800720,449.890076 
	C878.754944,449.355164 876.931702,450.940063 875.697327,454.739685 
	C872.926636,463.268250 869.679871,471.642090 866.313049,480.797852 
M79.902000,451.667084 
	C79.809441,450.233582 79.716873,448.800079 79.626022,447.393036 
	C75.296074,447.393036 71.379921,447.393036 67.393852,447.393036 
	C67.393852,464.725006 67.393852,481.772339 67.393852,498.811340 
	C71.642899,498.811340 75.566795,498.811340 79.903053,498.811340 
	C79.903053,491.765869 79.852341,484.975281 79.940079,478.186462 
	C79.961006,476.566833 79.883560,474.166779 80.826920,473.494324 
	C83.048698,471.910645 85.902817,470.180939 88.420227,470.295044 
	C91.918327,470.453583 93.548203,473.594910 93.568794,477.135406 
	C93.610931,484.381500 93.581429,491.628021 93.581429,498.762756 
	C98.213608,498.762756 102.132774,498.762756 105.850166,498.762756 
	C105.850166,489.651855 106.327499,480.820740 105.712189,472.066406 
	C105.129318,463.773529 98.373100,458.457245 90.225113,459.342560 
	C86.762390,459.718811 83.436913,461.358398 79.902199,462.470001 
	C79.902199,459.250854 79.902199,455.932831 79.902000,451.667084 
M420.431519,464.726624 
	C420.431396,470.724182 420.400085,476.721985 420.439850,482.719269 
	C420.480530,488.853241 421.985138,494.466095 427.899170,497.434906 
	C433.819702,500.406982 439.778534,499.998810 445.313599,496.061401 
	C445.686951,495.795837 446.153656,495.661499 446.709564,495.404938 
	C446.894867,496.650146 447.056091,497.733459 447.222839,498.854004 
	C451.131500,498.854004 454.902710,498.854004 458.755798,498.854004 
	C458.755798,485.762970 458.755798,472.899414 458.755798,460.211121 
	C454.642334,460.211121 450.898865,460.211121 446.935425,460.211121 
	C446.935425,466.861542 446.968292,473.173981 446.925781,479.485901 
	C446.886627,485.297699 443.911469,489.038086 439.567413,488.862183 
	C435.417358,488.694122 432.786652,485.121490 432.756256,479.491852 
	C432.721466,473.045074 432.748199,466.597961 432.748199,459.872437 
	C429.489044,459.872437 426.815765,460.094360 424.195709,459.815979 
	C420.957397,459.471924 419.979553,460.841766 420.431519,464.726624 
M306.366058,459.229034 
	C302.456635,460.260895 298.547211,461.292725 294.373932,462.394196 
	C294.302734,462.061005 294.083923,461.037140 293.899658,460.175018 
	C289.929901,460.175018 286.170776,460.175018 282.333069,460.175018 
	C282.333069,473.208740 282.333069,485.942810 282.333069,498.847961 
	C286.341949,498.847961 290.085754,498.847961 294.258698,498.847961 
	C294.258698,492.014099 294.178101,485.395905 294.283325,478.780670 
	C294.373047,473.139954 297.105469,469.924713 301.542084,469.898651 
	C306.030182,469.872284 308.569550,473.021301 308.616241,478.850189 
	C308.669159,485.458221 308.628448,492.067017 308.628448,498.852417 
	C312.857971,498.852417 316.603180,498.852417 320.841614,498.852417 
	C320.841614,491.191742 320.848938,483.744354 320.839813,476.296967 
	C320.827454,466.191376 317.137756,461.586517 306.366058,459.229034 
M1316.708862,478.707947 
	C1310.979980,476.475006 1305.250977,474.242065 1298.735596,471.702606 
	C1303.116089,468.457611 1305.947144,467.835999 1307.441284,470.050659 
	C1311.197632,475.618683 1316.176270,472.119507 1320.684937,473.205811 
	C1319.485229,459.164825 1304.733887,456.845215 1295.248535,460.981049 
	C1290.470581,463.064423 1288.036377,466.844238 1288.184204,471.938812 
	C1288.329346,476.942078 1291.196167,480.209198 1295.949585,481.726166 
	C1299.422485,482.834442 1302.978271,483.703033 1306.394775,484.956787 
	C1307.444214,485.341858 1308.156250,486.645996 1309.022827,487.529358 
	C1307.919556,488.365387 1306.905151,489.682526 1305.689087,489.906799 
	C1304.381958,490.147888 1302.249390,489.842010 1301.576050,488.947571 
	C1297.455078,483.473267 1292.097900,486.650848 1286.838745,486.503204 
	C1288.129639,489.757568 1289.400513,492.992096 1291.736816,494.964661 
	C1298.101685,500.338745 1305.640503,500.842896 1313.236450,498.057281 
	C1321.686035,494.958557 1323.483276,485.935028 1316.708862,478.707947 
M766.352966,494.058105 
	C772.870300,499.924530 782.239807,501.426178 789.910400,497.673065 
	C794.309998,495.520355 796.664612,491.987030 796.584473,486.926636 
	C796.508850,482.151550 793.975769,479.093781 789.809692,477.433899 
	C786.594482,476.152832 783.105530,475.564484 779.873413,474.317810 
	C778.338867,473.725891 777.082947,472.356323 775.828186,471.200684 
	C775.728760,471.109070 776.604370,469.377930 777.067322,469.358124 
	C778.950623,469.277679 781.925598,468.861694 782.565369,469.837128 
	C786.256897,475.465424 791.523071,472.235901 796.062256,473.177124 
	C796.409241,462.309692 784.749268,456.169739 772.098022,460.481171 
	C766.354797,462.438385 763.770386,466.529510 763.928101,472.216949 
	C764.071289,477.380676 766.376526,479.964813 772.828369,482.052521 
	C775.978699,483.071960 779.219543,483.838074 782.302551,485.022980 
	C783.294983,485.404358 783.913879,486.757690 784.703613,487.666382 
	C783.712219,488.441406 782.799011,489.690857 781.709473,489.870422 
	C780.371399,490.091003 778.244629,489.917145 777.569397,489.049500 
	C773.446228,483.751526 768.062256,486.390289 761.859558,485.829437 
	C763.503174,489.004150 764.670288,491.258545 766.352966,494.058105 
M489.909180,492.339630 
	C496.435608,499.836548 507.249023,501.870239 515.603943,497.260956 
	C519.782715,494.955566 522.039307,491.471924 521.801819,486.759766 
	C521.561218,481.985260 518.824341,478.723511 514.373596,477.105408 
	C511.259705,475.973328 507.976013,475.305847 504.869720,474.156494 
	C503.439545,473.627319 502.190857,472.508759 501.037415,471.461823 
	C500.900330,471.337433 501.839996,469.339569 502.359619,469.301910 
	C504.252960,469.164825 507.314209,468.792755 507.907990,469.757263 
	C511.472321,475.546997 516.645447,472.243805 521.154968,473.134888 
	C520.782410,466.176666 518.138794,461.833496 512.203857,460.503021 
	C507.826843,459.521820 502.983490,459.445740 498.549988,460.182434 
	C492.729370,461.149567 488.966309,466.191101 488.889099,471.348328 
	C488.811798,476.515900 492.038971,480.308868 498.176025,482.187103 
	C501.347534,483.157715 504.585449,483.934113 507.697235,485.063202 
	C508.574829,485.381622 509.853333,486.977875 509.661163,487.394409 
	C509.175232,488.447632 508.035095,489.743561 507.016022,489.878693 
	C505.486145,490.081573 503.078949,489.934967 502.361725,488.964111 
	C498.260956,483.413300 492.887878,486.743500 487.324585,485.646057 
	C488.307587,488.296661 488.929810,489.974487 489.909180,492.339630 
M562.343018,498.548950 
	C565.901001,498.750061 569.458923,498.951172 573.037964,499.153473 
	C573.037964,495.261078 573.037964,492.128998 573.037964,490.110443 
	C570.148560,488.267365 566.289978,487.135132 565.940369,485.325073 
	C565.021423,480.567749 565.629883,475.515411 565.629883,470.578064 
	C568.521912,470.371582 570.761353,470.211670 572.823364,470.064423 
	C572.823364,466.400421 572.823364,463.180115 572.823364,459.708374 
	C570.311829,459.708374 568.186890,459.708374 565.852234,459.708374 
	C565.664490,456.568176 565.491516,453.675262 565.317871,450.770508 
	C560.983276,450.770508 557.067017,450.770508 552.775146,450.770508 
	C552.775146,453.819733 552.775146,456.598907 552.775146,459.390350 
	C551.073181,459.770691 549.726807,460.071594 548.386047,460.371216 
	C548.386047,463.732544 548.386047,466.709259 548.386047,469.864655 
	C549.853210,470.192047 551.250610,470.503906 552.844910,470.859680 
	C552.844910,475.835724 552.783997,480.650879 552.860229,485.463867 
	C552.957642,491.613129 555.012329,496.523163 562.343018,498.548950 
M1352.093140,476.611084 
	C1352.093628,479.940521 1351.984863,483.274292 1352.117188,486.598511 
	C1352.402588,493.774872 1355.712646,497.529846 1362.897217,498.601807 
	C1365.948730,499.057098 1369.079102,498.985321 1372.364746,499.163452 
	C1372.364746,495.372284 1372.364746,492.143311 1372.364746,490.220764 
	C1369.185059,488.222198 1365.149292,487.074463 1364.738281,485.151855 
	C1363.735474,480.461334 1364.411377,475.411926 1364.411377,470.463531 
	C1367.266357,470.337280 1369.515503,470.237793 1371.675293,470.142273 
	C1371.675293,466.481964 1371.675293,463.248657 1371.675293,460.040985 
	C1369.081787,459.893280 1366.820801,459.764496 1364.209473,459.615753 
	C1364.209473,456.465942 1364.209473,453.689514 1364.209473,450.732147 
	C1360.060425,450.732147 1356.291992,450.732147 1352.173340,450.732147 
	C1352.173340,453.719482 1352.173340,456.495544 1352.173340,459.364136 
	C1350.513062,459.761475 1349.163452,460.084473 1347.904907,460.385651 
	C1347.904907,463.691650 1347.904907,466.665771 1347.904907,469.814606 
	C1349.308838,470.183960 1350.639526,470.534027 1352.093018,470.916443 
	C1352.093018,472.674377 1352.093018,474.166260 1352.093140,476.611084 
M1412.421387,499.020325 
	C1412.718994,493.319061 1413.117188,487.620789 1413.287964,481.915710 
	C1413.490967,475.132263 1415.497437,472.947845 1422.138428,472.687378 
	C1423.095825,472.649841 1424.050903,472.554596 1424.970947,472.488647 
	C1424.970947,467.889740 1424.970947,463.567902 1424.970947,458.241882 
	C1420.556152,460.366547 1416.958130,462.098145 1413.427979,463.797089 
	C1413.298584,462.647369 1413.154907,461.370575 1413.017700,460.151672 
	C1409.044800,460.151672 1405.290039,460.151672 1401.369141,460.151672 
	C1401.369141,473.152496 1401.369141,485.876862 1401.369141,499.068207 
	C1404.873169,499.068207 1408.156250,499.068207 1412.421387,499.020325 
M626.115906,470.195801 
	C626.115906,466.598999 626.115906,463.002228 626.115906,458.175812 
	C621.551208,460.391083 617.951233,462.138153 614.177124,463.969788 
	C614.088257,462.949951 613.969116,461.581818 613.853027,460.249695 
	C609.783386,460.249695 605.904480,460.249695 602.181396,460.249695 
	C602.181396,473.344055 602.181396,486.065887 602.181396,498.799866 
	C606.225769,498.799866 609.961975,498.799866 614.055237,498.799866 
	C614.055237,492.917267 613.933960,487.296204 614.086182,481.682556 
	C614.271606,474.845978 616.056091,473.142181 622.548401,472.632660 
	C623.769653,472.536835 624.927917,471.638275 626.115906,470.195801 
M239.091644,455.629059 
	C239.091644,470.015594 239.091644,484.402130 239.091644,498.797119 
	C243.442215,498.797119 247.180191,498.797119 251.017883,498.797119 
	C251.017883,482.488220 251.017883,466.452454 251.017883,450.193268 
	C247.085358,450.193268 243.350601,450.193268 239.310623,450.193268 
	C239.233475,451.768860 239.162659,453.214844 239.091644,455.629059 
M728.766968,467.482971 
	C731.042542,461.832672 733.318054,456.182404 735.710144,450.242737 
	C731.255188,450.242737 727.225037,450.242737 722.987000,450.242737 
	C721.801208,456.420166 720.662231,462.353607 719.369080,469.090179 
	C722.866028,468.712250 725.566833,468.420380 728.766968,467.482971 
M1250.275269,456.138794 
	C1255.304810,456.863647 1258.703735,455.072296 1259.465576,451.127380 
	C1260.148560,447.590240 1258.749878,444.918060 1255.436401,443.548340 
	C1251.878784,442.077728 1246.470093,443.771606 1245.528809,446.838562 
	C1244.309814,450.810272 1244.870361,454.406738 1250.275269,456.138794 
z"/>
<path fill="#182E47" opacity="1.000000" stroke="none" 
	d="
M358.023895,417.989746 
	C345.189087,395.885620 332.314087,373.804749 319.528198,351.672363 
	C295.189697,309.542450 270.904266,267.381927 246.584229,225.241348 
	C245.761047,223.814972 244.802139,222.466934 243.538116,220.512894 
	C235.882675,233.767792 228.468613,246.601929 221.057220,259.437622 
	C191.330582,310.920776 161.604370,362.404144 131.882309,413.889923 
	C131.384262,414.752716 130.940491,415.646790 129.801514,416.825439 
	C126.855202,417.448486 124.579201,418.051056 122.302254,418.054626 
	C84.851662,418.113098 47.400951,418.101776 9.950279,418.082520 
	C7.625699,418.081329 5.301218,417.884918 2.976686,417.779327 
	C19.423380,389.116455 35.806438,360.416870 52.330387,331.798615 
	C83.971153,276.999115 115.729286,222.267426 147.369110,167.467407 
	C179.257019,112.237755 211.060425,56.959324 242.950424,1.351132 
	C243.000000,1.000000 243.500000,1.000000 243.750000,1.000001 
	C265.912354,39.005669 287.822998,77.012314 309.737457,115.016769 
	C351.577850,187.577179 393.420319,260.136383 435.271912,332.690308 
	C435.339264,332.807068 435.556305,332.837463 436.263306,333.177338 
	C436.263306,223.329422 436.263306,113.747917 436.263306,3.362106 
	C438.711273,3.362106 440.613647,3.362108 442.515991,3.362106 
	C501.347168,3.362060 560.182007,2.957098 619.008423,3.487126 
	C668.111145,3.929543 711.751404,20.038507 749.115479,52.252975 
	C783.044067,81.505424 807.583923,117.027832 817.146301,161.157135 
	C832.049561,229.933823 819.801392,292.872314 772.819885,347.067230 
	C743.471985,380.921082 707.564941,404.631348 663.325256,414.109283 
	C650.439209,416.869995 637.095825,417.495789 623.190308,418.818298 
	C620.444275,418.389618 618.469910,418.115540 616.495483,418.114716 
	C562.000916,418.091553 507.506378,418.108398 453.011810,418.091522 
	C421.349182,418.081726 389.686523,418.025208 358.023895,417.989746 
M560.843750,121.803902 
	C560.547058,121.929924 560.250427,122.055946 559.193726,122.462944 
	C554.724426,122.076210 556.145142,125.444138 556.143066,127.561646 
	C556.088196,183.384949 556.099426,239.208313 556.099304,295.031677 
	C556.099304,296.623444 556.099243,298.215210 556.099243,300.008453 
	C560.775757,300.008453 564.763733,300.009491 568.751648,300.008270 
	C586.914673,300.002777 605.200867,301.361145 623.217590,299.734558 
	C676.954224,294.883026 713.421997,243.898819 701.487732,191.387146 
	C693.330811,155.496582 660.019043,122.450760 613.494141,122.491844 
	C596.012146,122.507286 578.529907,122.292023 560.843750,121.803902 
z"/>
<path fill="#172E47" opacity="1.000000" stroke="none" 
	d="
M1501.000000,231.531342 
	C1500.076050,236.893936 1498.994141,241.764099 1498.253052,246.685562 
	C1492.504761,284.857208 1476.283447,318.068085 1451.006104,347.049011 
	C1426.289673,375.386810 1396.755371,396.757446 1360.962524,408.845978 
	C1341.874268,415.292725 1322.221802,419.097778 1301.200928,418.791840 
	C1298.468018,418.334290 1296.495483,418.052826 1294.523071,418.052032 
	C1237.215332,418.028503 1179.907471,418.034668 1122.599731,418.030731 
	C1116.090332,418.030273 1115.970215,417.928619 1115.969971,411.811890 
	C1115.964600,278.538025 1115.964111,145.264175 1115.970581,11.990308 
	C1115.970947,5.271385 1116.300171,4.969619 1123.062134,4.969349 
	C1181.036255,4.967031 1239.010498,4.980125 1296.984619,4.917679 
	C1299.015015,4.915492 1301.044800,4.171358 1303.074829,3.773031 
	C1340.799072,5.035173 1375.711060,15.591945 1406.869263,36.919746 
	C1453.218994,68.646156 1484.696655,111.020256 1496.607666,166.672165 
	C1498.366333,174.889481 1499.052246,183.336334 1500.617310,191.838501 
	C1501.000000,205.020889 1501.000000,218.041794 1501.000000,231.531342 
M1234.458984,122.877159 
	C1234.358398,124.025856 1234.170288,125.174530 1234.170044,126.323257 
	C1234.155273,182.970032 1234.155396,239.616806 1234.164795,296.263580 
	C1234.165039,297.384094 1234.291992,298.504608 1234.383179,300.009369 
	C1248.959717,300.009369 1263.249512,300.022308 1277.539307,300.004333 
	C1285.700684,299.994049 1293.922363,300.557404 1302.012207,299.778015 
	C1325.975952,297.469330 1345.444214,286.432556 1361.079956,268.227661 
	C1384.329590,241.157394 1388.505981,202.622940 1372.528809,172.099365 
	C1355.587769,139.734421 1327.937988,122.940628 1290.984375,122.524956 
	C1273.672729,122.330231 1256.359375,122.290863 1238.843384,121.803230 
	C1238.546875,121.929298 1238.250488,122.055374 1237.334961,122.454727 
	C1236.904541,122.359734 1236.474243,122.264732 1235.828491,121.792648 
	C1235.531372,121.939522 1235.234253,122.086395 1234.458984,122.877159 
z"/>
<path fill="#1A3149" opacity="1.000000" stroke="none" 
	d="
M1191.454102,518.000000 
	C1184.397583,515.685059 1177.831909,513.320007 1176.078247,505.314209 
	C1175.907471,504.534271 1175.899902,503.718597 1175.755127,502.328979 
	C1181.022095,502.724731 1186.063721,500.439453 1190.575073,505.358368 
	C1191.973755,506.883331 1196.384155,506.810760 1198.790283,505.869934 
	C1200.639893,505.146790 1201.737915,502.015289 1202.721069,499.759064 
	C1203.244385,498.558289 1202.813843,496.941864 1202.813843,495.314667 
	C1193.095337,501.420593 1184.462036,500.539246 1178.257080,493.044556 
	C1172.247314,485.785614 1172.745850,471.583771 1179.264771,464.342133 
	C1184.873413,458.111633 1193.675659,457.523224 1201.831055,462.830872 
	C1204.454712,457.477173 1209.332397,460.803955 1213.689331,460.212067 
	C1214.499146,460.764923 1214.778320,460.934052 1215.103516,461.027222 
	C1215.199341,474.150391 1215.617310,487.281830 1215.281494,500.393951 
	C1215.045166,509.617279 1210.199585,514.845215 1201.115601,517.652954 
	C1197.969360,518.000000 1194.938843,518.000000 1191.454102,518.000000 
M1187.534058,483.431244 
	C1189.587036,486.703735 1192.089722,489.190552 1196.406616,488.289459 
	C1201.065796,487.316925 1203.552002,483.110168 1202.825806,477.518066 
	C1202.275879,473.283386 1198.304321,469.936249 1194.253784,470.293671 
	C1189.722168,470.693573 1186.861328,474.116058 1186.866821,479.236084 
	C1186.868042,480.382568 1187.121704,481.528809 1187.534058,483.431244 
z"/>
<path fill="#1B314A" opacity="1.000000" stroke="none" 
	d="
M1456.458008,518.000000 
	C1458.173340,512.490845 1460.170166,506.902557 1462.590210,501.503967 
	C1463.907959,498.564667 1464.135376,496.090210 1462.782227,493.040710 
	C1458.021973,482.313385 1453.557251,471.454956 1448.781372,460.176514 
	C1453.599976,460.176514 1457.833740,460.176514 1462.723389,460.176514 
	C1465.354248,467.128662 1468.132080,474.469238 1471.313354,482.875916 
	C1473.825073,475.969513 1476.167480,470.205017 1477.985962,464.279785 
	C1479.115234,460.599762 1481.038330,459.310730 1484.782959,459.809753 
	C1487.365234,460.153870 1490.030396,459.875824 1493.325928,459.875824 
	C1488.655029,470.934296 1484.227905,481.433868 1479.785400,491.926941 
	C1476.744751,499.108734 1473.764404,506.318207 1470.563965,513.428406 
	C1469.891235,514.922974 1468.374390,516.037598 1467.123291,517.663696 
	C1463.638672,518.000000 1460.277466,518.000000 1456.458008,518.000000 
z"/>
<path fill="#1B314A" opacity="1.000000" stroke="none" 
	d="
M657.458069,518.000000 
	C656.951477,517.175232 656.618042,516.232056 656.903076,515.545837 
	C658.237854,512.333191 659.341736,508.918884 661.269165,506.079651 
	C665.540833,499.787018 664.497620,494.045776 661.328491,487.608246 
	C657.022522,478.861481 653.603333,469.678131 649.463257,459.875549 
	C653.973083,459.875549 657.894531,459.632507 661.750366,460.028656 
	C662.858154,460.142456 664.190918,461.936096 664.710815,463.242065 
	C667.149475,469.367615 669.340759,475.591705 672.046143,482.936462 
	C674.541931,476.218445 676.910339,470.666046 678.634583,464.920380 
	C679.834717,460.920837 681.798828,459.216003 686.009216,459.812927 
	C688.449280,460.158875 690.978638,459.875793 694.113342,459.875793 
	C689.177551,471.572754 684.446655,482.839844 679.668213,494.086792 
	C676.875916,500.659088 674.072632,507.228699 671.120483,513.729675 
	C670.505249,515.084595 669.212891,516.132019 668.116333,517.660583 
	C664.638733,518.000000 661.277405,518.000000 657.458069,518.000000 
z"/>
<path fill="#1B314A" opacity="1.000000" stroke="none" 
	d="
M1.000000,450.454102 
	C13.475319,450.000000 25.950638,450.000000 38.741264,450.000000 
	C38.741264,453.280243 38.741264,456.336395 38.741264,459.826050 
	C34.776760,459.826050 30.844522,459.826050 26.284992,459.826050 
	C26.284992,472.525085 26.284992,484.805237 25.950527,497.633575 
	C25.344561,498.343231 25.148993,498.570129 25.029362,498.862488 
	C21.589272,498.862488 18.149179,498.862488 14.202579,498.862488 
	C14.202579,485.965485 14.202579,473.167419 14.202579,459.958740 
	C9.782953,459.958740 5.857626,459.958740 1.466149,459.979370 
	C1.000000,456.969391 1.000000,453.938812 1.000000,450.454102 
z"/>
<path fill="#182F48" opacity="1.000000" stroke="none" 
	d="
M978.314819,265.999878 
	C978.314819,178.370453 978.314819,91.241028 978.314819,3.736248 
	C1017.987793,3.736248 1057.384033,3.736248 1097.147095,3.736248 
	C1097.147095,142.141357 1097.147095,280.665192 1097.147095,419.465576 
	C1057.666260,419.465576 1018.282227,419.465576 978.314758,419.465576 
	C978.314758,368.362335 978.314758,317.431122 978.314819,265.999878 
z"/>
<path fill="#F15A2F" opacity="1.000000" stroke="none" 
	d="
M853.943726,263.190002 
	C843.611450,262.328735 835.919861,254.593307 835.751221,244.280411 
	C835.528198,230.636276 835.554565,216.983734 835.743896,203.338562 
	C835.892883,192.607407 844.081177,183.995331 855.172058,183.877472 
	C885.127197,183.559097 915.090576,183.529251 945.044983,183.879532 
	C957.147217,184.021072 964.731934,192.808731 964.734192,205.042587 
	C964.736572,217.858200 964.751282,230.673843 964.729248,243.489410 
	C964.711548,253.741745 958.049866,261.450470 947.146179,262.815491 
	C945.484131,262.369446 944.513428,262.074738 943.542419,262.073883 
	C915.051270,262.049072 886.559998,262.037720 858.069031,262.101624 
	C856.693115,262.104767 855.318787,262.811096 853.943726,263.190002 
z"/>
<path fill="#283C54" opacity="1.000000" stroke="none" 
	d="
M1302.719360,3.558625 
	C1301.044800,4.171358 1299.015015,4.915492 1296.984619,4.917679 
	C1239.010498,4.980125 1181.036255,4.967031 1123.062134,4.969349 
	C1116.300171,4.969619 1115.970947,5.271385 1115.970581,11.990308 
	C1115.964111,145.264175 1115.964600,278.538025 1115.969971,411.811890 
	C1115.970215,417.928619 1116.090332,418.030273 1122.599731,418.030731 
	C1179.907471,418.034668 1237.215332,418.028503 1294.523071,418.052032 
	C1296.495483,418.052826 1298.468018,418.334290 1300.735352,418.784302 
	C1299.769897,419.320282 1298.509644,419.763123 1297.249023,419.763794 
	C1237.108765,419.795868 1176.968506,419.789978 1116.828247,419.781586 
	C1116.334961,419.781494 1115.841553,419.688324 1114.942993,419.597748 
	C1114.942993,280.975220 1114.942993,142.351089 1114.942993,3.344217 
	C1177.501099,3.344217 1239.932495,3.344217 1302.719360,3.558625 
z"/>
<path fill="#1B324A" opacity="1.000000" stroke="none" 
	d="
M348.869141,479.034546 
	C349.556244,465.960144 356.668274,458.375397 367.437195,459.338470 
	C370.744781,459.634277 373.930023,461.298218 377.460144,462.428070 
	C377.460144,457.650513 377.460144,452.703461 377.460144,447.435425 
	C381.695099,447.435425 385.583252,447.435425 389.835632,447.435425 
	C389.835632,464.404694 389.835632,481.438751 389.835632,499.176361 
	C385.479401,498.017029 380.256958,501.406921 376.293518,496.228394 
	C364.451874,504.821320 348.797058,496.825043 348.869141,479.034546 
M366.545380,470.926239 
	C361.754303,474.166687 360.221527,478.900360 362.410645,483.695648 
	C364.167389,487.543793 367.945251,489.314789 371.791565,488.093292 
	C376.076416,486.732483 378.255280,482.591919 377.485809,477.272400 
	C376.807220,472.581177 373.046661,470.125427 366.545380,470.926239 
z"/>
<path fill="#1A3149" opacity="1.000000" stroke="none" 
	d="
M1043.547607,452.920410 
	C1042.969482,450.828430 1043.553223,449.889099 1045.931274,449.927979 
	C1052.920044,450.042267 1059.926392,449.689850 1066.898682,450.048340 
	C1074.988892,450.464233 1080.011963,455.009583 1081.583130,462.516418 
	C1083.098389,469.756042 1079.957275,475.401703 1071.634277,479.873627 
	C1075.128906,485.993347 1078.624512,492.114685 1082.599121,499.074951 
	C1077.944458,499.074951 1074.035156,499.268677 1070.166992,498.954895 
	C1069.031494,498.862793 1067.671631,497.535522 1067.002319,496.421326 
	C1064.609741,492.438416 1062.509155,488.281372 1060.211060,484.239716 
	C1059.477051,482.948669 1058.472290,481.811493 1057.591431,480.603912 
	C1057.181030,480.753296 1056.770752,480.902710 1056.360352,481.052124 
	C1056.360352,486.887268 1056.360352,492.722443 1056.360352,499.059174 
	C1052.181763,499.059174 1048.573486,499.059174 1044.651367,498.562378 
	C1044.478394,483.505737 1044.630859,468.945984 1044.708130,454.385834 
	C1044.710693,453.899445 1043.951660,453.408997 1043.547607,452.920410 
M1060.508423,471.491974 
	C1061.337524,471.491791 1062.170898,471.437408 1062.995117,471.500702 
	C1066.921509,471.802155 1069.143799,469.775360 1069.200439,466.080200 
	C1069.261719,462.074585 1066.874878,460.128784 1062.759277,460.386658 
	C1060.661865,460.518097 1058.549316,460.409698 1056.097412,460.409698 
	C1056.097412,463.459076 1056.280273,465.939392 1056.050537,468.380859 
	C1055.772583,471.333221 1057.361572,471.718964 1060.508423,471.491974 
z"/>
<path fill="#1F354D" opacity="1.000000" stroke="none" 
	d="
M974.019531,498.867554 
	C971.697815,498.940155 969.334961,499.305084 967.068176,498.986633 
	C965.450806,498.759399 963.962341,497.614044 961.680420,496.528229 
	C953.425232,501.890930 944.412048,500.621613 938.209167,492.549652 
	C932.312195,484.875519 933.257385,470.626709 939.866150,463.902100 
	C945.672058,457.994354 954.391113,457.634857 963.204346,463.405914 
	C963.204346,457.872559 963.204346,452.728516 963.204346,447.207886 
	C967.463928,447.207886 971.068604,447.207886 974.603699,447.825623 
	C974.356079,449.894592 974.026306,451.345551 974.023376,452.797150 
	C973.992188,468.153870 974.013000,483.510742 974.019531,498.867554 
M962.772034,482.746918 
	C963.697876,475.650482 961.252502,470.938477 956.324219,470.322388 
	C952.049805,469.788086 948.836670,472.041565 947.478821,476.525970 
	C946.103394,481.068573 948.144531,485.962097 952.190247,487.821655 
	C955.886353,489.520538 959.484375,487.983948 962.772034,482.746918 
z"/>
<path fill="#1A3149" opacity="1.000000" stroke="none" 
	d="
M866.469971,480.438385 
	C869.679871,471.642090 872.926636,463.268250 875.697327,454.739685 
	C876.931702,450.940063 878.754944,449.355164 882.800720,449.890076 
	C885.729858,450.277344 888.751343,449.965668 891.893250,449.965668 
	C897.762390,466.215240 903.558838,482.263367 909.516296,498.757385 
	C904.970093,498.757385 900.921387,498.757385 896.195984,498.757385 
	C895.656067,486.314697 886.129333,490.625763 879.059326,490.203186 
	C872.794617,489.828705 875.867371,496.654877 872.216187,498.871094 
	C868.641663,498.871094 864.529663,498.871094 859.965027,498.871094 
	C862.155945,492.633362 864.234497,486.715607 866.469971,480.438385 
M885.604187,467.248474 
	C885.307861,466.664917 885.011536,466.081360 884.401733,464.880554 
	C882.581787,470.433136 880.935730,475.455261 879.276611,480.517273 
	C883.124573,480.517273 886.465698,480.517273 890.174988,480.517273 
	C888.630920,476.036346 887.235901,471.988068 885.604187,467.248474 
z"/>
<path fill="#1B314A" opacity="1.000000" stroke="none" 
	d="
M79.902100,452.140930 
	C79.902199,455.932831 79.902199,459.250854 79.902199,462.470001 
	C83.436913,461.358398 86.762390,459.718811 90.225113,459.342560 
	C98.373100,458.457245 105.129318,463.773529 105.712189,472.066406 
	C106.327499,480.820740 105.850166,489.651855 105.850166,498.762756 
	C102.132774,498.762756 98.213608,498.762756 93.581429,498.762756 
	C93.581429,491.628021 93.610931,484.381500 93.568794,477.135406 
	C93.548203,473.594910 91.918327,470.453583 88.420227,470.295044 
	C85.902817,470.180939 83.048698,471.910645 80.826920,473.494324 
	C79.883560,474.166779 79.961006,476.566833 79.940079,478.186462 
	C79.852341,484.975281 79.903053,491.765869 79.903053,498.811340 
	C75.566795,498.811340 71.642899,498.811340 67.393852,498.811340 
	C67.393852,481.772339 67.393852,464.725006 67.393852,447.393036 
	C71.379921,447.393036 75.296074,447.393036 79.626022,447.393036 
	C79.716873,448.800079 79.809441,450.233582 79.902100,452.140930 
z"/>
<path fill="#1C324B" opacity="1.000000" stroke="none" 
	d="
M1122.053345,482.196899 
	C1122.186035,487.675354 1127.156982,491.281982 1131.203735,488.193481 
	C1136.313721,484.293488 1141.571167,486.634369 1146.798340,485.718353 
	C1145.876221,496.704773 1130.414795,503.599792 1118.474976,497.066925 
	C1110.160156,492.517487 1108.409790,484.773438 1109.062988,476.185455 
	C1109.649902,468.469788 1114.791138,462.152771 1122.020752,460.192169 
	C1130.478271,457.898499 1138.699219,458.709076 1143.984619,466.239166 
	C1146.619385,469.992859 1146.818481,475.456146 1147.796265,480.706726 
	C1147.298218,481.569763 1147.123413,481.872131 1146.948486,482.174500 
	C1139.280273,482.262360 1131.612183,482.350220 1123.396240,482.115082 
	C1122.583496,481.927032 1122.318359,482.061951 1122.053345,482.196899 
M1122.684204,472.606781 
	C1123.020142,473.476257 1123.319092,475.082245 1123.697754,475.101257 
	C1127.451538,475.289520 1131.218750,475.215210 1135.095825,475.215210 
	C1133.327515,468.528046 1128.583130,467.414215 1122.684204,472.606781 
z"/>
<path fill="#1C324B" opacity="1.000000" stroke="none" 
	d="
M170.952545,482.164001 
	C163.021439,482.164001 155.090332,482.164001 147.042480,482.164001 
	C147.995117,488.093262 151.877502,490.550842 156.156570,488.629639 
	C163.143051,485.492798 163.143066,485.492828 171.661560,486.043030 
	C171.312012,491.434387 166.914246,496.422058 160.709473,498.464142 
	C151.346939,501.545471 141.261642,498.162354 136.697861,490.409485 
	C132.198730,482.766449 133.586212,469.971375 139.516937,464.412872 
	C146.406235,457.955994 158.419113,457.275818 166.271149,463.061951 
	C172.653488,467.765045 173.758804,474.452789 172.334076,481.771973 
	C171.532349,481.893616 171.242447,482.028809 170.952545,482.164001 
M159.918396,474.904083 
	C160.291016,470.520813 156.917526,469.531677 153.925934,469.341400 
	C150.480179,469.122314 147.666260,470.865936 146.961304,475.186707 
	C151.178650,475.186707 155.121765,475.186707 159.918396,474.904083 
z"/>
<path fill="#1C334B" opacity="1.000000" stroke="none" 
	d="
M420.431702,464.255096 
	C419.979553,460.841766 420.957397,459.471924 424.195709,459.815979 
	C426.815765,460.094360 429.489044,459.872437 432.748199,459.872437 
	C432.748199,466.597961 432.721466,473.045074 432.756256,479.491852 
	C432.786652,485.121490 435.417358,488.694122 439.567413,488.862183 
	C443.911469,489.038086 446.886627,485.297699 446.925781,479.485901 
	C446.968292,473.173981 446.935425,466.861542 446.935425,460.211121 
	C450.898865,460.211121 454.642334,460.211121 458.755798,460.211121 
	C458.755798,472.899414 458.755798,485.762970 458.755798,498.854004 
	C454.902710,498.854004 451.131500,498.854004 447.222839,498.854004 
	C447.056091,497.733459 446.894867,496.650146 446.709564,495.404938 
	C446.153656,495.661499 445.686951,495.795837 445.313599,496.061401 
	C439.778534,499.998810 433.819702,500.406982 427.899170,497.434906 
	C421.985138,494.466095 420.480530,488.853241 420.439850,482.719269 
	C420.400085,476.721985 420.431396,470.724182 420.431702,464.255096 
z"/>
<path fill="#1A3149" opacity="1.000000" stroke="none" 
	d="
M306.773895,459.226624 
	C317.137756,461.586517 320.827454,466.191376 320.839813,476.296967 
	C320.848938,483.744354 320.841614,491.191742 320.841614,498.852417 
	C316.603180,498.852417 312.857971,498.852417 308.628448,498.852417 
	C308.628448,492.067017 308.669159,485.458221 308.616241,478.850189 
	C308.569550,473.021301 306.030182,469.872284 301.542084,469.898651 
	C297.105469,469.924713 294.373047,473.139954 294.283325,478.780670 
	C294.178101,485.395905 294.258698,492.014099 294.258698,498.847961 
	C290.085754,498.847961 286.341949,498.847961 282.333069,498.847961 
	C282.333069,485.942810 282.333069,473.208740 282.333069,460.175018 
	C286.170776,460.175018 289.929901,460.175018 293.899658,460.175018 
	C294.083923,461.037140 294.302734,462.061005 294.373932,462.394196 
	C298.547211,461.292725 302.456635,460.260895 306.773895,459.226624 
z"/>
<path fill="#1C324B" opacity="1.000000" stroke="none" 
	d="
M1316.987305,478.963867 
	C1323.483276,485.935028 1321.686035,494.958557 1313.236450,498.057281 
	C1305.640503,500.842896 1298.101685,500.338745 1291.736816,494.964661 
	C1289.400513,492.992096 1288.129639,489.757568 1286.838745,486.503204 
	C1292.097900,486.650848 1297.455078,483.473267 1301.576050,488.947571 
	C1302.249390,489.842010 1304.381958,490.147888 1305.689087,489.906799 
	C1306.905151,489.682526 1307.919556,488.365387 1309.022827,487.529358 
	C1308.156250,486.645996 1307.444214,485.341858 1306.394775,484.956787 
	C1302.978271,483.703033 1299.422485,482.834442 1295.949585,481.726166 
	C1291.196167,480.209198 1288.329346,476.942078 1288.184204,471.938812 
	C1288.036377,466.844238 1290.470581,463.064423 1295.248535,460.981049 
	C1304.733887,456.845215 1319.485229,459.164825 1320.684937,473.205811 
	C1316.176270,472.119507 1311.197632,475.618683 1307.441284,470.050659 
	C1305.947144,467.835999 1303.116089,468.457611 1298.735596,471.702606 
	C1305.250977,474.242065 1310.979980,476.475006 1316.987305,478.963867 
z"/>
<path fill="#1C334B" opacity="1.000000" stroke="none" 
	d="
M766.095215,493.785522 
	C764.670288,491.258545 763.503174,489.004150 761.859558,485.829437 
	C768.062256,486.390289 773.446228,483.751526 777.569397,489.049500 
	C778.244629,489.917145 780.371399,490.091003 781.709473,489.870422 
	C782.799011,489.690857 783.712219,488.441406 784.703613,487.666382 
	C783.913879,486.757690 783.294983,485.404358 782.302551,485.022980 
	C779.219543,483.838074 775.978699,483.071960 772.828369,482.052521 
	C766.376526,479.964813 764.071289,477.380676 763.928101,472.216949 
	C763.770386,466.529510 766.354797,462.438385 772.098022,460.481171 
	C784.749268,456.169739 796.409241,462.309692 796.062256,473.177124 
	C791.523071,472.235901 786.256897,475.465424 782.565369,469.837128 
	C781.925598,468.861694 778.950623,469.277679 777.067322,469.358124 
	C776.604370,469.377930 775.728760,471.109070 775.828186,471.200684 
	C777.082947,472.356323 778.338867,473.725891 779.873413,474.317810 
	C783.105530,475.564484 786.594482,476.152832 789.809692,477.433899 
	C793.975769,479.093781 796.508850,482.151550 796.584473,486.926636 
	C796.664612,491.987030 794.309998,495.520355 789.910400,497.673065 
	C782.239807,501.426178 772.870300,499.924530 766.095215,493.785522 
z"/>
<path fill="#1C324B" opacity="1.000000" stroke="none" 
	d="
M489.730591,491.995972 
	C488.929810,489.974487 488.307587,488.296661 487.324585,485.646057 
	C492.887878,486.743500 498.260956,483.413300 502.361725,488.964111 
	C503.078949,489.934967 505.486145,490.081573 507.016022,489.878693 
	C508.035095,489.743561 509.175232,488.447632 509.661163,487.394409 
	C509.853333,486.977875 508.574829,485.381622 507.697235,485.063202 
	C504.585449,483.934113 501.347534,483.157715 498.176025,482.187103 
	C492.038971,480.308868 488.811798,476.515900 488.889099,471.348328 
	C488.966309,466.191101 492.729370,461.149567 498.549988,460.182434 
	C502.983490,459.445740 507.826843,459.521820 512.203857,460.503021 
	C518.138794,461.833496 520.782410,466.176666 521.154968,473.134888 
	C516.645447,472.243805 511.472321,475.546997 507.907990,469.757263 
	C507.314209,468.792755 504.252960,469.164825 502.359619,469.301910 
	C501.839996,469.339569 500.900330,471.337433 501.037415,471.461823 
	C502.190857,472.508759 503.439545,473.627319 504.869720,474.156494 
	C507.976013,475.305847 511.259705,475.973328 514.373596,477.105408 
	C518.824341,478.723511 521.561218,481.985260 521.801819,486.759766 
	C522.039307,491.471924 519.782715,494.955566 515.603943,497.260956 
	C507.249023,501.870239 496.435608,499.836548 489.730591,491.995972 
z"/>
<path fill="#1B324A" opacity="1.000000" stroke="none" 
	d="
M561.933350,498.482300 
	C555.012329,496.523163 552.957642,491.613129 552.860229,485.463867 
	C552.783997,480.650879 552.844910,475.835724 552.844910,470.859680 
	C551.250610,470.503906 549.853210,470.192047 548.386047,469.864655 
	C548.386047,466.709259 548.386047,463.732544 548.386047,460.371216 
	C549.726807,460.071594 551.073181,459.770691 552.775146,459.390350 
	C552.775146,456.598907 552.775146,453.819733 552.775146,450.770508 
	C557.067017,450.770508 560.983276,450.770508 565.317871,450.770508 
	C565.491516,453.675262 565.664490,456.568176 565.852234,459.708374 
	C568.186890,459.708374 570.311829,459.708374 572.823364,459.708374 
	C572.823364,463.180115 572.823364,466.400421 572.823364,470.064423 
	C570.761353,470.211670 568.521912,470.371582 565.629883,470.578064 
	C565.629883,475.515411 565.021423,480.567749 565.940369,485.325073 
	C566.289978,487.135132 570.148560,488.267365 573.037964,490.110443 
	C573.037964,492.128998 573.037964,495.261078 573.037964,499.153473 
	C569.458923,498.951172 565.901001,498.750061 561.933350,498.482300 
z"/>
<path fill="#193049" opacity="1.000000" stroke="none" 
	d="
M1352.093018,476.134613 
	C1352.093018,474.166260 1352.093018,472.674377 1352.093018,470.916443 
	C1350.639526,470.534027 1349.308838,470.183960 1347.904907,469.814606 
	C1347.904907,466.665771 1347.904907,463.691650 1347.904907,460.385651 
	C1349.163452,460.084473 1350.513062,459.761475 1352.173340,459.364136 
	C1352.173340,456.495544 1352.173340,453.719482 1352.173340,450.732147 
	C1356.291992,450.732147 1360.060425,450.732147 1364.209473,450.732147 
	C1364.209473,453.689514 1364.209473,456.465942 1364.209473,459.615753 
	C1366.820801,459.764496 1369.081787,459.893280 1371.675293,460.040985 
	C1371.675293,463.248657 1371.675293,466.481964 1371.675293,470.142273 
	C1369.515503,470.237793 1367.266357,470.337280 1364.411377,470.463531 
	C1364.411377,475.411926 1363.735474,480.461334 1364.738281,485.151855 
	C1365.149292,487.074463 1369.185059,488.222198 1372.364746,490.220764 
	C1372.364746,492.143311 1372.364746,495.372284 1372.364746,499.163452 
	C1369.079102,498.985321 1365.948730,499.057098 1362.897217,498.601807 
	C1355.712646,497.529846 1352.402588,493.774872 1352.117188,486.598511 
	C1351.984863,483.274292 1352.093628,479.940521 1352.093018,476.134613 
z"/>
<path fill="#1B314A" opacity="1.000000" stroke="none" 
	d="
M1411.930420,499.044250 
	C1408.156250,499.068207 1404.873169,499.068207 1401.369141,499.068207 
	C1401.369141,485.876862 1401.369141,473.152496 1401.369141,460.151672 
	C1405.290039,460.151672 1409.044800,460.151672 1413.017700,460.151672 
	C1413.154907,461.370575 1413.298584,462.647369 1413.427979,463.797089 
	C1416.958130,462.098145 1420.556152,460.366547 1424.970947,458.241882 
	C1424.970947,463.567902 1424.970947,467.889740 1424.970947,472.488647 
	C1424.050903,472.554596 1423.095825,472.649841 1422.138428,472.687378 
	C1415.497437,472.947845 1413.490967,475.132263 1413.287964,481.915710 
	C1413.117188,487.620789 1412.718994,493.319061 1411.930420,499.044250 
z"/>
<path fill="#193049" opacity="1.000000" stroke="none" 
	d="
M626.115540,470.652954 
	C624.927917,471.638275 623.769653,472.536835 622.548401,472.632660 
	C616.056091,473.142181 614.271606,474.845978 614.086182,481.682556 
	C613.933960,487.296204 614.055237,492.917267 614.055237,498.799866 
	C609.961975,498.799866 606.225769,498.799866 602.181396,498.799866 
	C602.181396,486.065887 602.181396,473.344055 602.181396,460.249695 
	C605.904480,460.249695 609.783386,460.249695 613.853027,460.249695 
	C613.969116,461.581818 614.088257,462.949951 614.177124,463.969788 
	C617.951233,462.138153 621.551208,460.391083 626.115906,458.175812 
	C626.115906,463.002228 626.115906,466.598999 626.115540,470.652954 
z"/>
<path fill="#192F48" opacity="1.000000" stroke="none" 
	d="
M239.091751,455.144958 
	C239.162659,453.214844 239.233475,451.768860 239.310623,450.193268 
	C243.350601,450.193268 247.085358,450.193268 251.017883,450.193268 
	C251.017883,466.452454 251.017883,482.488220 251.017883,498.797119 
	C247.180191,498.797119 243.442215,498.797119 239.091644,498.797119 
	C239.091644,484.402130 239.091644,470.015594 239.091751,455.144958 
z"/>
<path fill="#374A60" opacity="1.000000" stroke="none" 
	d="
M358.125000,418.378571 
	C389.686523,418.025208 421.349182,418.081726 453.011810,418.091522 
	C507.506378,418.108398 562.000916,418.091553 616.495483,418.114716 
	C618.469910,418.115540 620.444275,418.389618 622.725464,418.819519 
	C621.274475,419.349609 619.516663,419.811859 617.758728,419.812592 
	C533.122681,419.847992 448.486603,419.850403 363.850555,419.798523 
	C361.975525,419.797363 360.100891,419.126068 358.125000,418.378571 
z"/>
<path fill="#1C334B" opacity="1.000000" stroke="none" 
	d="
M1258.146484,461.043304 
	C1258.239502,473.049500 1258.332520,485.055695 1258.057373,497.611298 
	C1257.383911,498.317535 1257.163940,498.553864 1257.029297,498.869659 
	C1253.595337,498.869659 1250.161377,498.869659 1246.467041,498.869659 
	C1246.467041,485.994293 1246.467041,473.314911 1246.467041,459.898804 
	C1249.663818,459.898804 1252.889282,459.898804 1256.697754,460.212952 
	C1257.569336,460.699158 1257.857910,460.871216 1258.146484,461.043304 
z"/>
<path fill="#374A60" opacity="1.000000" stroke="none" 
	d="
M2.718852,417.982178 
	C5.301218,417.884918 7.625699,418.081329 9.950279,418.082520 
	C47.400951,418.101776 84.851662,418.113098 122.302254,418.054626 
	C124.579201,418.051056 126.855202,417.448486 129.542374,417.052490 
	C128.493103,417.934723 127.036247,419.717224 125.572662,419.722748 
	C85.543839,419.874329 45.514301,419.856750 5.485065,419.775726 
	C4.475978,419.773682 3.468984,418.738403 2.718852,417.982178 
z"/>
<path fill="#1F354D" opacity="1.000000" stroke="none" 
	d="
M728.517334,467.805725 
	C725.566833,468.420380 722.866028,468.712250 719.369080,469.090179 
	C720.662231,462.353607 721.801208,456.420166 722.987000,450.242737 
	C727.225037,450.242737 731.255188,450.242737 735.710144,450.242737 
	C733.318054,456.182404 731.042542,461.832672 728.517334,467.805725 
z"/>
<path fill="#F3714C" opacity="1.000000" stroke="none" 
	d="
M854.269287,263.451172 
	C855.318787,262.811096 856.693115,262.104767 858.069031,262.101624 
	C886.559998,262.037720 915.051270,262.049072 943.542419,262.073883 
	C944.513428,262.074738 945.484131,262.369446 946.748901,262.829712 
	C946.284424,263.371918 945.526062,263.821381 944.767761,263.821106 
	C914.710083,263.810303 884.652466,263.758667 854.269287,263.451172 
z"/>
<path fill="#1F354D" opacity="1.000000" stroke="none" 
	d="
M1249.896240,456.080627 
	C1244.870361,454.406738 1244.309814,450.810272 1245.528809,446.838562 
	C1246.470093,443.771606 1251.878784,442.077728 1255.436401,443.548340 
	C1258.749878,444.918060 1260.148560,447.590240 1259.465576,451.127380 
	C1258.703735,455.072296 1255.304810,456.863647 1249.896240,456.080627 
z"/>
<path fill="#021B36" opacity="1.000000" stroke="none" 
	d="
M974.430176,498.876495 
	C974.013000,483.510742 973.992188,468.153870 974.023376,452.797150 
	C974.026306,451.345551 974.356079,449.894592 974.869507,448.169250 
	C975.356384,462.852356 975.541199,477.809357 975.620300,492.766968 
	C975.631042,494.805023 975.113647,496.845856 974.430176,498.876495 
z"/>
<path fill="#3E5266" opacity="1.000000" stroke="none" 
	d="
M1043.405762,453.374695 
	C1043.951660,453.408997 1044.710693,453.899445 1044.708130,454.385834 
	C1044.630859,468.945984 1044.478394,483.505737 1044.204224,498.445526 
	C1043.781982,497.630920 1043.245361,496.437042 1043.242065,495.241669 
	C1043.202637,481.437592 1043.244019,467.633270 1043.405762,453.374695 
z"/>
<path fill="#021B36" opacity="1.000000" stroke="none" 
	d="
M1258.163452,460.723083 
	C1257.857910,460.871216 1257.569336,460.699158 1257.152344,460.308289 
	C1257.409302,460.193939 1257.794922,460.298401 1258.163452,460.723083 
z"/>
<path fill="#021B36" opacity="1.000000" stroke="none" 
	d="
M1215.123047,460.714325 
	C1214.778320,460.934052 1214.499146,460.764923 1214.144409,460.304962 
	C1214.395996,460.193848 1214.769287,460.297638 1215.123047,460.714325 
z"/>
<path fill="#021B36" opacity="1.000000" stroke="none" 
	d="
M171.227905,482.247375 
	C171.242447,482.028809 171.532349,481.893616 171.930664,481.939758 
	C171.860474,482.190979 171.681854,482.260864 171.227905,482.247375 
z"/>
<path fill="#021B36" opacity="1.000000" stroke="none" 
	d="
M1122.305786,482.258972 
	C1122.318359,482.061951 1122.583496,481.927032 1122.949341,481.972626 
	C1122.886230,482.209076 1122.722290,482.265045 1122.305786,482.258972 
z"/>
<path fill="#021B36" opacity="1.000000" stroke="none" 
	d="
M1147.278320,482.192261 
	C1147.123413,481.872131 1147.298218,481.569763 1147.705811,481.142212 
	C1147.828247,481.414703 1147.718262,481.812317 1147.278320,482.192261 
z"/>
<path fill="#021B36" opacity="1.000000" stroke="none" 
	d="
M25.320494,498.900696 
	C25.148993,498.570129 25.344561,498.343231 25.823257,498.086792 
	C25.890842,498.307526 25.751234,498.623230 25.320494,498.900696 
z"/>
<path fill="#021B36" opacity="1.000000" stroke="none" 
	d="
M1257.341309,498.903381 
	C1257.163940,498.553864 1257.383911,498.317535 1257.913574,498.058319 
	C1257.976196,498.282990 1257.814819,498.610016 1257.341309,498.903381 
z"/>
<path fill="#FEFEFE" opacity="1.000000" stroke="none" 
	d="
M561.047791,122.181931 
	C578.529907,122.292023 596.012146,122.507286 613.494141,122.491844 
	C660.019043,122.450760 693.330811,155.496582 701.487732,191.387146 
	C713.421997,243.898819 676.954224,294.883026 623.217590,299.734558 
	C605.200867,301.361145 586.914673,300.002777 568.751648,300.008270 
	C564.763733,300.009491 560.775757,300.008453 556.099243,300.008453 
	C556.099243,298.215210 556.099304,296.623444 556.099304,295.031677 
	C556.099426,239.208313 556.088196,183.384949 556.143066,127.561646 
	C556.145142,125.444138 554.724426,122.076210 559.847229,122.414551 
	C560.683105,122.304749 560.865479,122.243340 561.047791,122.181931 
z"/>
<path fill="#021B36" opacity="1.000000" stroke="none" 
	d="
M560.945801,121.992920 
	C560.865479,122.243340 560.683105,122.304749 560.227234,122.274063 
	C560.250427,122.055946 560.547058,121.929924 560.945801,121.992920 
z"/>
<path fill="#FEFEFE" opacity="1.000000" stroke="none" 
	d="
M1236.043823,122.169724 
	C1236.474243,122.264732 1236.904541,122.359734 1237.917725,122.410309 
	C1238.682617,122.304283 1238.864746,122.242683 1239.046875,122.181084 
	C1256.359375,122.290863 1273.672729,122.330231 1290.984375,122.524956 
	C1327.937988,122.940628 1355.587769,139.734421 1372.528809,172.099365 
	C1388.505981,202.622940 1384.329590,241.157394 1361.079956,268.227661 
	C1345.444214,286.432556 1325.975952,297.469330 1302.012207,299.778015 
	C1293.922363,300.557404 1285.700684,299.994049 1277.539307,300.004333 
	C1263.249512,300.022308 1248.959717,300.009369 1234.383179,300.009369 
	C1234.291992,298.504608 1234.165039,297.384094 1234.164795,296.263580 
	C1234.155396,239.616806 1234.155273,182.970032 1234.170044,126.323257 
	C1234.170288,125.174530 1234.358398,124.025856 1234.979004,122.613007 
	C1235.680664,122.289139 1235.862305,122.229431 1236.043823,122.169724 
z"/>
<path fill="#021B36" opacity="1.000000" stroke="none" 
	d="
M1238.945068,121.992157 
	C1238.864746,122.242683 1238.682617,122.304283 1238.227295,122.273666 
	C1238.250488,122.055374 1238.546875,121.929298 1238.945068,121.992157 
z"/>
<path fill="#021B36" opacity="1.000000" stroke="none" 
	d="
M1235.936157,121.981186 
	C1235.862305,122.229431 1235.680664,122.289139 1235.218140,122.291061 
	C1235.234253,122.086395 1235.531372,121.939522 1235.936157,121.981186 
z"/>
<path fill="#F6F7F8" opacity="1.000000" stroke="none" 
	d="
M1187.396606,483.053192 
	C1187.121704,481.528809 1186.868042,480.382568 1186.866821,479.236084 
	C1186.861328,474.116058 1189.722168,470.693573 1194.253784,470.293671 
	C1198.304321,469.936249 1202.275879,473.283386 1202.825806,477.518066 
	C1203.552002,483.110168 1201.065796,487.316925 1196.406616,488.289459 
	C1192.089722,489.190552 1189.587036,486.703735 1187.396606,483.053192 
z"/>
<path fill="#F6F7F8" opacity="1.000000" stroke="none" 
	d="
M366.888458,470.751190 
	C373.046661,470.125427 376.807220,472.581177 377.485809,477.272400 
	C378.255280,482.591919 376.076416,486.732483 371.791565,488.093292 
	C367.945251,489.314789 364.167389,487.543793 362.410645,483.695648 
	C360.221527,478.900360 361.754303,474.166687 366.888458,470.751190 
z"/>
<path fill="#F2F3F4" opacity="1.000000" stroke="none" 
	d="
M1060.079102,471.492096 
	C1057.361572,471.718964 1055.772583,471.333221 1056.050537,468.380859 
	C1056.280273,465.939392 1056.097412,463.459076 1056.097412,460.409698 
	C1058.549316,460.409698 1060.661865,460.518097 1062.759277,460.386658 
	C1066.874878,460.128784 1069.261719,462.074585 1069.200439,466.080200 
	C1069.143799,469.775360 1066.921509,471.802155 1062.995117,471.500702 
	C1062.170898,471.437408 1061.337524,471.491791 1060.079102,471.492096 
z"/>
<path fill="#F8F9FA" opacity="1.000000" stroke="none" 
	d="
M962.577454,483.107880 
	C959.484375,487.983948 955.886353,489.520538 952.190247,487.821655 
	C948.144531,485.962097 946.103394,481.068573 947.478821,476.525970 
	C948.836670,472.041565 952.049805,469.788086 956.324219,470.322388 
	C961.252502,470.938477 963.697876,475.650482 962.577454,483.107880 
z"/>
<path fill="#F2F3F4" opacity="1.000000" stroke="none" 
	d="
M885.722534,467.594147 
	C887.235901,471.988068 888.630920,476.036346 890.174988,480.517273 
	C886.465698,480.517273 883.124573,480.517273 879.276611,480.517273 
	C880.935730,475.455261 882.581787,470.433136 884.401733,464.880554 
	C885.011536,466.081360 885.307861,466.664917 885.722534,467.594147 
z"/>
<path fill="#F2F3F4" opacity="1.000000" stroke="none" 
	d="
M1122.942627,472.295868 
	C1128.583130,467.414215 1133.327515,468.528046 1135.095825,475.215210 
	C1131.218750,475.215210 1127.451538,475.289520 1123.697754,475.101257 
	C1123.319092,475.082245 1123.020142,473.476257 1122.942627,472.295868 
z"/>
<path fill="#F2F3F4" opacity="1.000000" stroke="none" 
	d="
M159.491638,475.045410 
	C155.121765,475.186707 151.178650,475.186707 146.961304,475.186707 
	C147.666260,470.865936 150.480179,469.122314 153.925934,469.341400 
	C156.917526,469.531677 160.291016,470.520813 159.491638,475.045410 
z"/>
</svg>