<svg id="Layer_1" data-name="Layer 1" xmlns="http://www.w3.org/2000/svg" viewBox="0 0 700 700"><defs><style>.cls-1{fill:#0091bd;}</style></defs><path class="cls-1" d="M211.2,277h34V422.61h-34V407.42c-15,17.33-33.15,19.68-43.63,19.68C122.66,427.1,97,389.67,97,349.68c0-47.48,32.51-76.56,71-76.56,10.7,0,29.52,2.78,43.2,20.74Zm-79.34,73.56c0,25,15.83,46.41,40.42,46.41,21.39,0,41.28-15.61,41.28-46,0-31.86-19.68-47-41.28-47C147.69,303.7,131.86,324.66,131.86,350.53ZM285.63,277h34v13a62.81,62.81,0,0,1,14.12-12.19c6.63-3.85,13-4.92,20.74-4.92,8.34,0,17.32,1.29,26.73,6.85l-13.9,30.79A30.17,30.17,0,0,0,350,305.41c-7.27,0-14.54,1.07-21.17,7.91-9.41,10.05-9.41,24-9.41,33.58v75.71h-34ZM403,277h34v13.47c11.34-13.9,24.81-17.32,35.93-17.32,15.19,0,29.51,7.27,37.64,21.38,12.19-17.32,30.37-21.38,43.2-21.38,17.75,0,33.15,8.34,41.49,22.88,2.78,4.92,7.7,15.61,7.7,36.78v90H569v-80c0-16.26-1.72-22.89-3.21-25.88-2.14-5.56-7.27-12.83-19.46-12.83a25.1,25.1,0,0,0-20.11,10.69c-6,8.34-6.63,20.74-6.63,33.15V423h-34V342.84c0-16.26-1.71-22.89-3.21-25.88-2.14-5.56-7.27-12.83-19.46-12.83a25.09,25.09,0,0,0-20.1,10.69c-6,8.34-6.63,20.74-6.63,33.15V423H403Z"/></svg>