<?xml version="1.0" standalone="no"?>
<!DOCTYPE svg PUBLIC "-//W3C//DTD SVG 20010904//EN"
 "http://www.w3.org/TR/2001/REC-SVG-20010904/DTD/svg10.dtd">
<svg version="1.0" xmlns="http://www.w3.org/2000/svg"
 width="364.000000pt" height="157.000000pt" viewBox="0 0 364.000000 157.000000"
 preserveAspectRatio="xMidYMid meet">

<g transform="translate(0.000000,157.000000) scale(0.100000,-0.100000)"
fill="#000000" stroke="none">
<path d="M732 981 c-10 -6 -12 -49 -8 -197 l4 -189 93 0 c86 0 98 2 136 27 58
38 86 94 86 173 0 86 -23 129 -87 166 -45 25 -61 29 -131 29 -44 0 -86 -4 -93
-9z m174 -102 c16 -13 36 -81 30 -100 -2 -8 -7 -27 -11 -42 -4 -20 -16 -33
-41 -43 -19 -8 -39 -12 -44 -9 -6 4 -10 54 -10 112 l0 106 32 -7 c17 -3 37
-11 44 -17z"/>
<path d="M1380 790 l0 -200 50 0 50 0 0 200 0 200 -50 0 -50 0 0 -200z"/>
<path d="M1830 955 l0 -35 50 0 c33 0 50 4 50 13 0 6 3 22 6 35 6 21 4 22 -50
22 l-56 0 0 -35z"/>
<path d="M2048 967 c-46 -9 -48 -11 -48 -42 0 -20 -6 -35 -15 -39 -20 -7 -21
-76 -1 -76 10 0 15 -23 19 -86 6 -108 25 -134 98 -134 70 0 79 6 79 51 0 37
-1 38 -30 33 -34 -7 -44 7 -43 65 1 70 1 71 34 71 29 0 30 2 27 38 -3 33 -6
37 -31 37 -28 -1 -33 7 -39 65 -3 25 -4 25 -50 17z"/>
<path d="M2315 974 c-5 -1 -27 -5 -47 -9 -35 -5 -38 -8 -38 -41 0 -22 -6 -37
-15 -40 -20 -8 -21 -74 -1 -74 11 0 15 -21 18 -89 4 -117 17 -133 102 -129
l61 3 3 42 c3 43 3 43 -27 37 -26 -5 -31 -3 -36 18 -4 14 -5 44 -3 69 3 40 6
44 31 47 26 3 28 6 25 40 -3 32 -6 37 -28 37 -22 0 -26 5 -30 46 -3 25 -9 45
-15 43z"/>
<path d="M1129 867 c-37 -25 -58 -70 -58 -129 -1 -50 12 -80 51 -117 30 -28
39 -31 100 -31 87 0 98 5 98 44 0 43 -5 46 -47 34 -40 -11 -93 5 -93 28 0 10
22 14 83 16 79 3 82 4 85 28 5 45 -21 103 -57 127 -46 31 -116 31 -162 0z
m109 -59 c20 -20 14 -28 -23 -28 -19 0 -35 4 -35 8 0 12 22 32 35 32 6 0 16
-5 23 -12z"/>
<path d="M1595 880 c-44 -18 -69 -58 -73 -120 -8 -111 39 -170 137 -170 49 0
61 4 89 29 55 51 67 121 33 197 -28 62 -118 93 -186 64z m99 -107 c11 -42 -3
-97 -27 -101 -30 -6 -47 17 -47 63 0 62 8 77 38 73 20 -2 29 -11 36 -35z"/>
<path d="M1842 882 c-9 -7 -12 -43 -10 -148 l3 -139 49 0 48 0 -1 139 c-1 77
-4 143 -7 148 -7 10 -65 10 -82 0z"/>
<path d="M2492 873 c-81 -40 -92 -183 -18 -250 33 -30 41 -33 102 -33 64 0
104 11 104 30 0 5 -4 20 -9 34 -9 23 -13 24 -46 15 -26 -7 -42 -7 -62 3 -53
26 -39 37 49 40 l83 3 3 37 c5 55 -21 106 -62 123 -46 19 -103 19 -144 -2z
m106 -75 c3 -15 -4 -18 -32 -18 -38 0 -44 8 -24 28 17 17 52 11 56 -10z"/>
</g>
</svg>
