<?xml version="1.0" encoding="UTF-8"?>
<svg version="1.1" xmlns="http://www.w3.org/2000/svg" width="1614" height="656">
<path d="M0 0 C532.62 0 1065.24 0 1614 0 C1614 216.48 1614 432.96 1614 656 C1081.38 656 548.76 656 0 656 C0 439.52 0 223.04 0 0 Z " fill="#FEFEFE" transform="translate(0,0)"/>
<path d="M0 0 C125.87316869 0 125.87316869 0 152.38671875 26.31640625 C153.24910156 27.20199219 154.11148438 28.08757812 155 29 C155.74894531 29.75152344 156.49789062 30.50304687 157.26953125 31.27734375 C177.93619141 53.12947198 180.82935248 84.18095689 180.12744141 112.80859375 C178.94288163 142.47251202 169.51641273 170.83062447 147.453125 191.4453125 C108.24248608 226.10118023 46.16088817 217 0 217 C0 145.39 0 73.78 0 0 Z " fill="#010101" transform="translate(216,220)"/>
<path d="M0 0 C15.47591757 13.29335446 25.62047241 31.47909969 27.73681641 51.890625 C29.63781343 77.16324723 28.51149119 104.59845219 11.8359375 125.1484375 C9.60560317 127.69684357 7.31147024 130.14383365 4.9375 132.55859375 C4.31101562 133.19796875 3.68453125 133.83734375 3.0390625 134.49609375 C-14.66571811 151.22972606 -37.75435734 152.16311614 -60.65673828 151.68164062 C-76.88538283 151.0953154 -92.03759967 144.47276031 -104.0625 133.55859375 C-104.74570312 132.9553125 -105.42890625 132.35203125 -106.1328125 131.73046875 C-120.80702383 118.00478059 -128.49102596 97.22701749 -129.17041016 77.41113281 C-129.23258608 73.8554786 -129.24809932 70.30227089 -129.25 66.74609375 C-129.26836914 64.95461914 -129.26836914 64.95461914 -129.28710938 63.12695312 C-129.32372253 40.70749688 -122.52067424 20.37505549 -106.71484375 4.1484375 C-101.03429982 -1.24402813 -95.13743422 -5.11322652 -88.0625 -8.44140625 C-86.86173828 -9.00988281 -86.86173828 -9.00988281 -85.63671875 -9.58984375 C-59.43898729 -20.99507545 -22.6503504 -18.05672066 0 0 Z " fill="#010101" transform="translate(790.0625,287.44140625)"/>
<path d="M0 0 C16.88887164 13.90848252 21.95406009 30.67842061 25 52 C25 62.89 25 73.78 25 85 C-7.01 85 -39.02 85 -72 85 C-69.77697887 97.43840529 -69.77697887 97.43840529 -62.07421875 106.59765625 C-53.65694877 112.2037215 -45.43282021 112.38745012 -35.5625 112.375 C-33.68703491 112.37367065 -33.68703491 112.37367065 -31.77368164 112.37231445 C-22.18152706 112.24980849 -14.09155386 110.95797019 -5 108 C-1.3403845 106.97366652 2.32869827 105.98362865 6 105 C7.14360427 109.78618157 8.28281793 114.57337871 9.41796875 119.36157227 C9.80478229 120.99044017 10.19279577 122.6190236 10.58203125 124.24731445 C11.14117818 126.58731583 11.69600715 128.92830504 12.25 131.26953125 C12.42499023 131.99775589 12.59998047 132.72598053 12.78027344 133.47627258 C13.46650645 136.39179204 14 138.99298898 14 142 C-3.74856128 150.67865521 -21.22526906 153.37995722 -40.75683594 153.20581055 C-42.89530214 153.1873245 -45.03333631 153.18530364 -47.171875 153.18554688 C-57.7522331 153.1607485 -67.72282606 152.88196015 -77.8125 149.4375 C-78.58658203 149.17428955 -79.36066406 148.9110791 -80.15820312 148.63989258 C-98.2197878 142.19172758 -111.87638931 129.91077428 -120.1875 112.6875 C-130.83924395 88.45051044 -131.51791365 57.67091461 -122.9921875 32.4453125 C-115.18121617 13.19465088 -103.52772834 -0.41862583 -84.17578125 -8.78515625 C-57.67650789 -18.92202466 -23.46274798 -16.46077607 0 0 Z " fill="#020202" transform="translate(540,286)"/>
<path d="M0 0 C0.7940625 0.33644531 1.588125 0.67289062 2.40625 1.01953125 C17.43967443 7.95625024 27.78206073 19.77804185 34 35 C40.68418656 54.83900741 39 70.33632475 39 93 C6.99 93 -25.02 93 -58 93 C-54.61316107 106.88260119 -54.61316107 106.88260119 -45 116 C-31.98669186 123.43617608 -10.19295647 121.75584885 4 118 C7.7843134 116.80090069 11.49446477 115.44929387 15.19921875 114.0234375 C18 113 18 113 20 113 C22.1933324 121.01499658 24.30422547 129.04615122 26.25 137.125 C26.42499023 137.83454834 26.59998047 138.54409668 26.78027344 139.27514648 C27.64485268 142.91829552 28.20412378 146.25287068 28 150 C10.61425016 158.6573938 -7.30870148 161.37672115 -26.51660156 161.26074219 C-28.63114833 161.24996867 -30.74485272 161.26074646 -32.859375 161.2734375 C-55.92860328 161.29958055 -76.33946569 155.6049992 -93 139 C-94.06734375 137.96746094 -94.06734375 137.96746094 -95.15625 136.9140625 C-111.49108048 120.01379558 -114.56728954 95.58218795 -114.19140625 73.1328125 C-113.99110181 66.32246154 -113.23308229 59.70733936 -112 53 C-111.82855469 52.00226563 -111.65710937 51.00453125 -111.48046875 49.9765625 C-108.89561765 37.53592432 -102.49096074 25.41261237 -94 16 C-93.49339844 15.401875 -92.98679687 14.80375 -92.46484375 14.1875 C-71.14572789 -9.27924178 -28.13735123 -11.95837427 0 0 Z " fill="#010101" transform="translate(1283,278)"/>
<path d="M0 0 C0 16.83 0 33.66 0 51 C11.55 51 23.1 51 35 51 C35 64.86 35 78.72 35 93 C23.45 93 11.9 93 0 93 C0.09084502 104.93963386 0.09084502 104.93963386 0.20898438 116.87890625 C0.2632459 121.75078392 0.31435822 126.62254808 0.34643555 131.49462891 C0.37250758 135.42407931 0.41293704 139.35314709 0.46318626 143.28236008 C0.47982873 144.77895715 0.49135932 146.27562037 0.49761391 147.77229691 C0.50728401 149.87415616 0.53537527 151.97504237 0.56762695 154.07666016 C0.57873001 155.27134918 0.58983307 156.46603821 0.60127258 157.69692993 C1.17440033 162.44473763 2.55963191 165.86210921 6.34375 168.8515625 C14.07275242 172.19321943 23.0835729 169.80316909 30.89453125 167.75390625 C34.21687776 166.94734917 37.6155133 166.4834981 41 166 C41 179.53 41 193.06 41 207 C24.99880174 212.64748174 13.84912358 215.35538857 -2.5 215.3125 C-3.72847656 215.32861328 -4.95695313 215.34472656 -6.22265625 215.36132812 C-19.45388467 215.36834362 -31.17153173 213.05800391 -41.22265625 203.99609375 C-54.42716158 190.19923678 -55.46259976 172.29466824 -55.29296875 154.23046875 C-55.28735992 152.45543276 -55.28309592 150.68039206 -55.28010559 148.90534973 C-55.26875795 144.27756485 -55.23938002 139.65007124 -55.20599365 135.0223999 C-55.17507295 130.28255145 -55.16155367 125.54265504 -55.14648438 120.80273438 C-55.11449857 111.53500896 -55.06181553 102.26757449 -55 93 C-61.27 93 -67.54 93 -74 93 C-74 79.14 -74 65.28 -74 51 C-67.73 51 -61.46 51 -55 51 C-55 37.14 -55 23.28 -55 9 C-50.483125 8.2575 -45.96625 7.515 -41.3125 6.75 C-30.9440787 5.03690733 -20.60149494 3.24231528 -10.2980957 1.16894531 C-6.77257662 0.46972887 -3.60971877 0 0 0 Z " fill="#000000" transform="translate(990,224)"/>
<path d="M0 0 C0 16.83 0 33.66 0 51 C11.22 51 22.44 51 34 51 C34 64.86 34 78.72 34 93 C22.78 93 11.56 93 0 93 C0.09084502 104.93963386 0.09084502 104.93963386 0.20898438 116.87890625 C0.2632459 121.75078392 0.31435822 126.62254808 0.34643555 131.49462891 C0.37250758 135.42407931 0.41293704 139.35314709 0.46318626 143.28236008 C0.47982873 144.77895715 0.49135932 146.27562037 0.49761391 147.77229691 C0.50728401 149.87415616 0.53537527 151.97504237 0.56762695 154.07666016 C0.57873001 155.27134918 0.58983307 156.46603821 0.60127258 157.69692993 C1.17440033 162.44473763 2.55963191 165.86210921 6.34375 168.8515625 C14.07275242 172.19321943 23.0835729 169.80316909 30.89453125 167.75390625 C34.21687776 166.94734917 37.6155133 166.4834981 41 166 C41 179.53 41 193.06 41 207 C26.82908075 212.45035356 15.00279271 215.54114416 -0.01391602 215.44604492 C-2.06562417 215.43748697 -4.11457616 215.46652386 -6.16601562 215.49804688 C-19.71825462 215.57009007 -31.98867327 212.67685782 -41.96484375 203.1171875 C-52.31391643 191.95856791 -55.18975183 177.78554655 -55.11352539 162.93164062 C-55.11367142 162.16969391 -55.11381744 161.40774719 -55.1139679 160.62271118 C-55.11327781 158.13386062 -55.10552829 155.6450873 -55.09765625 153.15625 C-55.09578885 151.41890504 -55.09436647 149.68155955 -55.09336853 147.94421387 C-55.0895687 143.39374309 -55.0797603 138.84330474 -55.06866455 134.29284668 C-55.0583957 129.64054808 -55.05385923 124.98824419 -55.04882812 120.3359375 C-55.03813554 111.22394187 -55.02055952 102.11197872 -55 93 C-61.27 93 -67.54 93 -74 93 C-74 79.14 -74 65.28 -74 51 C-67.73 51 -61.46 51 -55 51 C-55 37.14 -55 23.28 -55 9 C-50.52944642 7.72269898 -46.6631716 6.67983195 -42.15625 6 C-40.54363281 5.75407104 -40.54363281 5.75407104 -38.8984375 5.50317383 C-37.21621094 5.25410278 -37.21621094 5.25410278 -35.5 5 C-33.77136719 4.7383606 -33.77136719 4.7383606 -32.0078125 4.47143555 C-24.53740888 3.34930118 -17.06141898 2.30633163 -9.5625 1.39453125 C-0.5049505 0 -0.5049505 0 0 0 Z " fill="#000000" transform="translate(1116,224)"/>
<path d="M0 0 C18.15 0 36.3 0 55 0 C55 71.94 55 143.88 55 218 C36.85 218 18.7 218 0 218 C0 146.06 0 74.12 0 0 Z " fill="#020202" transform="translate(585,219)"/>
<path d="M0 0 C18.15 0 36.3 0 55 0 C55 53.13 55 106.26 55 161 C36.85 161 18.7 161 0 161 C0 107.87 0 54.74 0 0 Z " fill="#020202" transform="translate(840,275)"/>
<path d="M0 0 C36.18681319 0 36.18681319 0 48.921875 11.77734375 C61.05425608 24.45412655 62.58309122 42.05361764 62.4375 58.75 C62.43243942 59.87418839 62.43243942 59.87418839 62.42727661 61.02108765 C62.31085789 78.85696024 60.36264416 96.22797639 47.625 110 C33.70448218 122.46982084 18.47046921 121 0 121 C0 81.07 0 41.14 0 0 Z " fill="#FEFEFE" transform="translate(274,267)"/>
<path d="M0 0 C7.68697323 6.18300021 9.76663586 16.42258142 10.82348633 25.81518555 C12.16278474 42.39247663 12.12444664 60.29555195 3.25 74.875 C-1.27957202 79.15292913 -5.79978002 81.22778944 -12.0625 81.4375 C-18.22380764 81.13556762 -22.86465701 79.4953255 -27.1875 75 C-35.10792595 64.98858159 -36.37584272 51.08515258 -36.3125 38.8125 C-36.30831055 37.70914307 -36.30412109 36.60578613 -36.29980469 35.46899414 C-36.14336772 24.15144525 -35.50945874 10.92010217 -27.328125 2.22265625 C-19.8186096 -4.59688231 -8.77001683 -5.33079454 0 0 Z " fill="#FBFBFB" transform="translate(752,317)"/>
<path d="M0 0 C6.77910855 4.64415717 11.45773943 11.56417184 13.80078125 19.4453125 C15.05751164 30.25319389 12.94694174 38.26017724 6.65625 47.19140625 C4.7179438 49.63023709 2.70374089 51.40583941 0.11328125 53.1328125 C-0.64984375 53.6690625 -1.41296875 54.2053125 -2.19921875 54.7578125 C-9.66745479 58.57877048 -18.38754344 59.48932989 -26.53125 57.48046875 C-35.76476113 54.17569441 -42.6255065 47.9690472 -46.88671875 39.1328125 C-49.82795734 31.57111754 -50.28671289 23.62556936 -47.859375 15.8359375 C-43.82817389 7.03652899 -37.93650989 0.74700057 -29.13671875 -3.3671875 C-18.6844824 -6.93191626 -9.41573629 -5.43539311 0 0 Z " fill="#87BC27" transform="translate(1383.88671875,381.8671875)"/>
<path d="M0 0 C18.15 0 36.3 0 55 0 C55.020625 5.919375 55.04125 11.83875 55.0625 17.9375 C55.071604 19.80784912 55.08070801 21.67819824 55.09008789 23.60522461 C55.09300709 25.07926359 55.09555564 26.55330337 55.09765625 28.02734375 C55.10277222 28.79953247 55.10788818 29.57172119 55.11315918 30.36730957 C55.11346974 32.24525187 55.06233569 34.12309253 55 36 C54 37 54 37 51.82969666 37.12025452 C50.87261307 37.11803391 49.91552948 37.11581329 48.92944336 37.11352539 C47.84839828 37.11344986 46.76735321 37.11337433 45.65354919 37.11329651 C43.889515 37.10555458 43.889515 37.10555458 42.08984375 37.09765625 C40.89267227 37.0962413 39.69550079 37.09482635 38.46205139 37.09336853 C34.62050934 37.08774979 30.77902457 37.07519411 26.9375 37.0625 C24.34049563 37.05748741 21.74349035 37.05292409 19.14648438 37.04882812 C12.76428284 37.03862313 6.3822059 37.01905136 0 37 C0 24.79 0 12.58 0 0 Z " fill="#050505" transform="translate(840,219)"/>
<path d="M0 0 C6.0781742 3.60141299 9.72974449 8.71681865 12.1796875 15.25 C12.625 17.4375 12.625 17.4375 12.625 24.4375 C-2.555 24.4375 -17.735 24.4375 -33.375 24.4375 C-32.45749781 14.34497587 -31.62770732 9.00935095 -24.375 2.5625 C-17.25737523 -2.47915088 -8.11130465 -3.6414913 0 0 Z " fill="#F5F5F5" transform="translate(1259.375,311.5625)"/>
<path d="M0 0 C6.34337297 3.49455277 10.42441303 7.859969 12.79296875 14.7421875 C13.31473348 17.7651955 13.171875 20.86979471 13.171875 23.9375 C-1.678125 23.9375 -16.528125 23.9375 -31.828125 23.9375 C-30.73062906 12.96254062 -29.82633373 9.30064642 -21.9609375 2.453125 C-15.51011303 -2.13097737 -7.36833459 -2.7682141 0 0 Z " fill="#FBFBFB" transform="translate(500.828125,311.0625)"/>
</svg>
