<svg version="1.1" id="Layer_1" xmlns="http://www.w3.org/2000/svg" xmlns:xlink="http://www.w3.org/1999/xlink" x="0px" y="0px"
	 width="100%" viewBox="0 0 480 464" enable-background="new 0 0 480 464" xml:space="preserve">
<path fill="#000000" opacity="1.000000" stroke="none" 
	d="
M127.033821,253.000000 
	C127.034874,225.014648 127.018127,197.529266 127.049805,170.043945 
	C127.057648,163.237900 131.259033,160.525955 137.711105,162.929077 
	C139.263840,163.507416 139.651611,164.672424 139.771286,166.005951 
	C139.934662,167.826691 139.963577,169.664032 139.963669,171.494247 
	C139.965698,214.304794 139.957962,257.115326 139.946503,299.925873 
	C139.944672,306.769196 135.338165,309.805511 129.035248,307.143463 
	C126.571747,306.102966 127.099243,303.871338 127.092583,301.974213 
	C127.035820,285.816254 127.044685,269.658112 127.033821,253.000000 
z"/>
<path fill="#000000" opacity="1.000000" stroke="none" 
	d="
M158.090561,225.248901 
	C149.938110,225.204681 149.949814,225.204681 149.952240,217.466949 
	C149.957321,201.304977 150.061432,185.141693 149.875031,168.981842 
	C149.821304,164.325455 151.216858,162.490021 156.156326,162.637436 
	C167.143280,162.965332 178.151871,162.926834 189.141357,162.641525 
	C193.828369,162.519836 195.498581,163.843994 195.541397,168.773102 
	C195.588196,174.160172 192.697144,174.203964 188.876801,174.141861 
	C182.047241,174.030838 175.208160,174.285477 168.385696,174.038483 
	C164.199249,173.886932 162.876923,175.536331 162.901993,179.590332 
	C162.951889,187.654556 162.774261,187.655762 170.694061,187.671921 
	C173.859787,187.678391 177.031097,187.804413 180.189728,187.657654 
	C183.589828,187.499710 184.594116,189.225037 184.359558,192.262405 
	C184.142685,195.070724 185.378845,198.711670 180.571289,198.812271 
	C176.407837,198.899384 172.240067,199.005554 168.078888,198.906662 
	C164.588287,198.823700 163.003586,200.083496 162.875504,203.816940 
	C162.528000,213.946274 162.393677,213.937500 172.738754,213.939087 
	C179.070175,213.940063 185.404877,214.084854 191.731949,213.923798 
	C196.582748,213.800293 196.267761,216.922089 196.409790,220.247635 
	C196.564285,223.865494 195.315826,225.335724 191.565247,225.283966 
	C180.570679,225.132248 169.572540,225.241638 158.090561,225.248901 
z"/>
<path fill="#000000" opacity="1.000000" stroke="none" 
	d="
M104.656540,271.999939 
	C104.657387,237.834030 104.656158,204.168137 104.661263,170.502258 
	C104.662437,162.757782 106.504112,161.319687 114.200134,162.787216 
	C115.942574,163.119476 116.929855,163.926605 117.080811,165.650421 
	C117.196846,166.975632 117.216537,168.312515 117.216629,169.644211 
	C117.219742,213.143188 117.220612,256.642181 117.206345,300.141144 
	C117.204147,306.839935 112.890564,309.617981 106.580299,307.138031 
	C104.209511,306.206299 104.707993,304.214233 104.697014,302.499084 
	C104.633026,292.499664 104.660309,282.499725 104.656540,271.999939 
z"/>
<path fill="#000000" opacity="1.000000" stroke="none" 
	d="
M243.573746,275.090881 
	C243.448639,266.455597 243.453232,258.302307 243.154236,250.160202 
	C242.961823,244.920792 245.617142,243.896378 250.229996,243.894196 
	C255.112106,243.891907 255.539917,246.445023 255.396805,250.250061 
	C255.204285,255.368729 255.349075,260.500092 255.349075,266.573456 
	C262.131531,262.216278 268.624542,260.422485 275.653503,263.376129 
	C279.455017,264.973572 282.422607,267.508331 284.551971,271.067535 
	C290.216003,280.534821 288.937347,295.283203 281.753784,302.838165 
	C275.365936,309.556183 266.673401,310.068542 256.201416,304.344238 
	C254.375305,306.968964 247.538513,308.568176 244.816299,307.010864 
	C242.932770,305.933319 243.559814,304.111755 243.555405,302.536285 
	C243.530228,293.550171 243.562195,284.563904 243.573746,275.090881 
M255.204620,284.626282 
	C255.428909,292.551239 257.372223,296.400848 262.068268,297.516693 
	C265.986847,298.447723 269.923889,298.159393 272.379486,294.509705 
	C275.999207,289.129761 275.855316,283.166595 273.532166,277.384308 
	C272.009766,273.595032 268.554565,272.194000 264.588104,272.352661 
	C259.037598,272.574738 255.872894,276.503357 255.204620,284.626282 
z"/>
<path fill="#000000" opacity="1.000000" stroke="none" 
	d="
M264.865936,200.411743 
	C265.045654,207.167709 264.968201,207.257431 258.610596,207.271881 
	C251.784973,207.287384 244.958298,207.217865 238.134323,207.326279 
	C236.481308,207.352539 234.039810,206.436142 233.524796,208.973755 
	C233.085526,211.138184 234.738129,212.687531 236.440308,213.820450 
	C241.686646,217.312271 249.070892,216.177658 253.041931,211.343491 
	C253.554962,210.718964 254.074570,210.099854 254.686356,209.363617 
	C257.989319,210.708328 261.556824,210.991226 264.209961,213.386032 
	C261.411041,223.119507 249.542297,227.784744 236.002853,225.101715 
	C226.287994,223.176575 219.167969,212.803238 220.048096,202.082260 
	C221.181168,188.280136 229.563614,180.009781 242.731262,179.702408 
	C255.221497,179.410828 262.644806,186.234863 264.865936,200.411743 
M245.190674,198.085571 
	C247.258148,197.809875 249.455032,198.763412 251.415924,197.523575 
	C251.154663,192.345184 248.515091,189.772415 243.376144,189.598999 
	C237.840012,189.412155 233.923248,192.518341 232.971390,198.083588 
	C236.771133,198.083588 240.533661,198.083588 245.190674,198.085571 
z"/>
<path fill="#000000" opacity="1.000000" stroke="none" 
	d="
M332.363098,215.603607 
	C334.088013,214.901642 335.446960,214.296494 336.746704,213.583389 
	C338.569427,212.583328 338.818542,209.111343 341.483307,209.793213 
	C344.426300,210.546280 347.655304,211.113892 350.067383,213.777023 
	C346.356659,222.535675 339.073029,225.313339 330.492889,225.886948 
	C320.568939,226.550415 311.883972,221.298767 308.464844,212.739853 
	C304.679810,203.265030 307.196625,191.396500 314.320007,185.128769 
	C321.344666,178.947891 332.052643,177.908142 340.454712,182.591019 
	C347.469269,186.500565 351.980316,196.705399 350.327332,204.481735 
	C349.741882,207.235901 347.830902,207.239334 345.815582,207.251404 
	C339.157806,207.291290 332.499542,207.255234 325.841888,207.304504 
	C324.039642,207.317841 322.176117,206.960571 320.462189,207.846222 
	C320.559113,213.702072 323.743683,215.852615 332.363098,215.603607 
M324.328461,190.739075 
	C321.793396,192.169205 319.830475,193.966827 319.987946,197.721725 
	C325.895203,198.056366 331.625061,198.577301 337.444672,197.381790 
	C335.761566,190.435272 331.957275,188.492752 324.328461,190.739075 
z"/>
<path fill="#000000" opacity="1.000000" stroke="none" 
	d="
M195.787750,301.920990 
	C191.804062,292.878723 194.971939,285.574066 204.038574,282.846802 
	C208.957916,281.367065 214.077393,280.564880 219.054977,279.260162 
	C220.864990,278.785736 223.480331,278.452332 223.121536,275.759979 
	C222.823425,273.522797 220.619659,272.663391 218.608582,272.438721 
	C214.030853,271.927307 210.015961,272.017639 207.142471,277.078613 
	C204.434921,281.847351 199.547302,278.593018 195.358032,279.072815 
	C195.091660,273.113281 197.401154,269.023895 201.638794,266.223633 
	C209.808701,260.824860 218.579605,260.615662 227.296005,264.634338 
	C233.046463,267.285583 235.113541,272.615417 235.244965,278.617126 
	C235.416168,286.435699 235.346420,294.261017 235.275604,302.082489 
	C235.255859,304.264069 235.935715,307.456390 232.359253,307.214111 
	C229.023453,306.988129 224.424103,309.712463 222.624710,303.641998 
	C217.495972,308.369995 211.361618,309.125244 204.949554,308.051971 
	C201.243179,307.431580 198.080719,305.565674 195.787750,301.920990 
M206.870758,293.295898 
	C205.842468,296.079956 207.007370,297.878845 209.599396,298.730682 
	C213.386917,299.975433 216.908249,299.087372 219.867905,296.555511 
	C222.809753,294.038849 224.054794,290.827545 222.884140,286.346863 
	C217.571030,288.883057 211.296570,287.787933 206.870758,293.295898 
z"/>
<path fill="#000000" opacity="1.000000" stroke="none" 
	d="
M383.667725,211.992737 
	C383.663361,207.337189 383.747498,203.176331 383.633057,199.020905 
	C383.482513,193.555511 381.399109,190.787674 377.165131,190.503372 
	C372.257904,190.173843 369.901764,193.215469 368.855927,197.481842 
	C367.653076,202.389008 368.481354,207.418884 368.278931,212.390060 
	C368.197845,214.382706 368.276093,216.381622 368.273132,218.377686 
	C368.263062,225.207870 368.121399,225.104645 361.310883,225.322205 
	C356.849091,225.464752 355.551270,223.722626 355.633331,219.468658 
	C355.845032,208.494492 355.640503,197.512878 355.742218,186.535538 
	C355.763031,184.294250 354.688599,180.768158 358.598297,180.877869 
	C362.215729,180.979401 367.125183,178.243408 368.911591,184.520386 
	C373.480988,180.347672 378.661224,178.623169 384.615601,180.152756 
	C391.907959,182.026047 395.709106,187.467316 396.124573,197.390060 
	C396.451355,205.194519 396.086975,213.025574 396.263641,220.839539 
	C396.368042,225.457794 393.419281,225.354782 390.285095,225.232880 
	C387.260437,225.115250 383.521606,226.122147 383.677094,220.972397 
	C383.762390,218.147552 383.676544,215.317520 383.667725,211.992737 
z"/>
<path fill="#000000" opacity="1.000000" stroke="none" 
	d="
M318.120483,263.526550 
	C322.441650,265.457184 326.221252,267.444153 328.123505,271.650818 
	C322.581238,276.873535 321.051117,277.083771 315.565491,273.718414 
	C312.563110,271.876526 309.282623,271.596344 305.936432,272.503204 
	C304.384033,272.923859 303.318604,274.004639 303.355927,275.758453 
	C303.389709,277.345062 304.499084,278.158142 305.849243,278.496002 
	C309.236176,279.343445 312.674805,279.986542 316.055389,280.856567 
	C324.997345,283.157898 329.700043,288.164856 329.252899,294.779053 
	C328.773224,301.874847 323.090912,307.291199 314.320801,308.427460 
	C305.202332,309.608856 297.286346,307.216583 291.308258,299.814240 
	C295.778107,294.235657 298.918457,293.553772 304.069244,296.743073 
	C307.192291,298.676880 310.545807,299.354584 314.092896,298.199585 
	C315.579620,297.715454 316.732635,296.721191 316.685272,294.929260 
	C316.643036,293.332153 315.543274,292.519379 314.212494,292.160950 
	C310.683777,291.210480 307.096100,290.476593 303.575012,289.500763 
	C295.393860,287.233490 290.834290,282.606293 290.826202,276.718048 
	C290.817139,270.116913 296.070404,264.515625 304.027466,262.380951 
	C308.761749,261.110901 313.254517,261.982300 318.120483,263.526550 
z"/>
<path fill="#000000" opacity="1.000000" stroke="none" 
	d="
M149.961823,258.027039 
	C149.960144,255.701614 149.942505,253.870361 149.959518,252.039444 
	C150.021332,245.392975 150.484436,245.188126 157.049820,244.921417 
	C161.976227,244.721313 163.341095,246.786011 163.261642,251.419266 
	C163.033310,264.732605 163.293030,278.054291 163.070923,291.367889 
	C163.000656,295.579529 164.527420,296.901825 168.581848,296.719482 
	C174.396240,296.458008 180.237274,296.817322 186.055389,296.600983 
	C190.317856,296.442535 190.362473,298.968262 190.387451,302.060699 
	C190.413422,305.275024 190.029205,307.506927 185.903015,307.434052 
	C175.751968,307.254822 165.590500,307.193237 155.443497,307.466095 
	C150.810837,307.590668 149.857117,305.543274 149.901428,301.468414 
	C150.057068,287.154205 149.961807,272.837280 149.961823,258.027039 
z"/>
<path fill="#000000" opacity="1.000000" stroke="none" 
	d="
M291.482971,194.573807 
	C292.224884,192.299927 292.852753,190.405060 293.469177,188.506470 
	C296.280243,179.848389 297.717926,179.108292 307.280579,181.409454 
	C307.757660,182.787231 307.184113,184.015366 306.732605,185.263275 
	C302.485718,197.000809 298.150482,208.707642 294.050293,220.496216 
	C292.818726,224.037155 290.852692,225.442307 287.076782,225.314072 
	C283.526642,225.193527 280.765503,225.018326 279.279205,220.905365 
	C275.037079,209.166306 270.383362,197.576401 265.958771,185.902344 
	C265.450348,184.560913 264.548645,183.190857 265.213013,181.612961 
	C274.268829,178.807312 276.549225,179.940460 279.479675,188.538803 
	C281.619049,194.815918 283.842285,201.064438 286.254425,207.973770 
	C289.105774,203.505432 289.760895,199.037811 291.482971,194.573807 
z"/>
<path fill="#000000" opacity="1.000000" stroke="none" 
	d="
M201.876663,189.000000 
	C201.896667,181.336044 202.063232,174.168579 201.890976,167.009277 
	C201.760818,161.599884 205.293182,161.978134 208.930374,161.858047 
	C212.654724,161.735077 214.980133,162.533630 214.917252,166.986130 
	C214.661133,185.124359 214.545715,203.264969 214.478149,221.405060 
	C214.467575,224.242447 213.261398,225.097778 210.590149,225.261566 
	C202.320312,225.768616 201.911819,225.453781 201.911392,216.990021 
	C201.910934,207.826675 201.889755,198.663345 201.876663,189.000000 
z"/>
</svg>