<?xml version="1.0" encoding="utf-8"?>
<!-- Generator: Adobe Illustrator 22.0.1, SVG Export Plug-In . SVG Version: 6.00 Build 0)  -->
<svg version="1.1" id="Livello_1" xmlns="http://www.w3.org/2000/svg" xmlns:xlink="http://www.w3.org/1999/xlink" x="0px" y="0px"
	 viewBox="0 0 4176.3 721.3" style="enable-background:new 0 0 4176.3 721.3;" xml:space="preserve">
<style type="text/css">
	.st0{fill:#1D1D1E;}
</style>
<g>
	<path class="st0" d="M269.7,141.3c15.8-18.8,40.5-27.7,72.1-27.7c11.9,0,27.7,2,38.5,4.9L400.2,8.9C373.5,2,349.8,0,324.1,0
		c-65.2,0-115.6,23.7-149.2,56.3c-33.6,32.6-51.4,79-51.4,156.1v19.8H0v108.7h123.5v370.5h128.4V340.9h148.2V232.2H251.9v-14.8
		C251.9,172.9,258.9,155.1,269.7,141.3z"/>
	<path class="st0" d="M582.9,280.6v-48.4H459.4v479.2h128.4V410c15.8-28.7,60.3-69.2,116.6-69.2c18.8,0,37.5,2,46.4,4.9l14.8-119.6
		c-13.8-2-24.7-4-43.5-4C663.9,222.3,611.5,245,582.9,280.6z"/>
	<path class="st0" d="M1146,270.7c-37.5-30.6-86-48.4-140.3-48.4c-130.4,0-235.2,108.7-235.2,250c0,65.2,23.7,124.5,61.3,168
		c42.5,49.4,109.7,81,180.8,81c48.4,0,93.9-14.8,133.4-48.4v38.5h123.5V232.2H1146V270.7z M1141.1,543.4
		c-24.7,35.6-67.2,59.3-115.6,59.3c-72.1,0-126.5-55.3-126.5-130.4c0-69.2,48.4-131.4,123.5-131.4c49.4,0,91.9,23.7,118.6,59.3
		V543.4z"/>
	<path class="st0" d="M1630.4,222.3c-53.4,0-98.8,18.8-135.4,48.4v-38.5h-123.5v479.2H1500V400.2c17.8-24.7,62.2-59.3,116.6-59.3
		c29.6,0,55.3,9.9,72.1,26.7c17.8,17.8,28.7,42.5,28.7,89.9v253.9h128.4v-244c0-82-17.8-130.4-49.4-168
		C1756.9,251.9,1696.6,222.3,1630.4,222.3z"/>
	<path class="st0" d="M2179,602.7c-78.1,0-132.4-55.3-132.4-130.4c0-73.1,55.3-131.4,129.4-131.4c46.4,0,85,23.7,110.7,57.3l90.9-80
		c-44.5-57.3-118.6-95.8-201.6-95.8c-146.2,0-257.9,110.7-257.9,250c0,138.3,108.7,249,256.9,249c89.9,0,161.1-32.6,217.4-107.7
		l-98.8-74.1C2272.9,571.1,2231.4,602.7,2179,602.7z"/>
	<path class="st0" d="M2651.9,222.3c-142.3,0-233.2,116.6-233.2,250c0,150.2,107.7,249,251,249c74.1,0,150.2-30.6,196.6-86
		l-73.1-73.1c-22.7,24.7-66.2,55.3-120.5,55.3c-68.2,0-122.5-46.4-129.4-113.6h332c2-10.9,3-23.7,3-36.6
		C2878.2,334,2784.3,222.3,2651.9,222.3z M2549.1,410c5.9-43.5,49.4-84,102.8-84c52.4,0,90.9,41.5,94.9,84H2549.1z"/>
	<path class="st0" d="M3123.4,340.8c-72.3,0-131.5,59.2-131.5,131.5s59.2,131.5,131.5,131.5c72.3,0,131.5-59.2,131.5-131.5
		S3195.7,340.8,3123.4,340.8z"/>
	<path class="st0" d="M4042.9,232.2l-131.4,292.5l-131.4-292.5h-236.9V98.8h-128.4v133.4h-126.8v108.7h126.8v168
		c0,68.2,10.9,110.7,35.6,143.3c32.6,43.5,88.9,69.2,166,69.2c24.7,0,63.2-4,80-9.9l-19.8-108.7c-8.9,2-33.6,4.9-52.4,4.9
		c-31.6,0-52.4-8.9-65.2-23.7c-10.9-12.8-15.8-30.6-15.8-60.3V340.9h153.5L3867,711.4h88.9l220.3-479.2H4042.9z"/>
</g>
</svg>
