<?xml version="1.0" encoding="utf-8"?>
<!-- Generator: Adobe Illustrator 27.8.0, SVG Export Plug-In . SVG Version: 6.00 Build 0)  -->
<svg version="1.1" id="Layer_1" xmlns="http://www.w3.org/2000/svg" xmlns:xlink="http://www.w3.org/1999/xlink" x="0px" y="0px"
	 viewBox="0 0 600 400" enable-background="new 0 0 600 400" xml:space="preserve">
<path fill="#007CC3" d="M315.741,203.077c9.509,8.633,18.081,13.094,29.024,13.094c11.21,0.074,21.18-5.404,21.18-15.945
	c0-8.8-7.812-13.944-21.763-19.848c-11.812-5.108-20.607-8.694-25.21-16.091c0.567,3.215,0.856,6.531,0.856,9.935
	c0,28.542-20.714,51.696-46.268,51.696c-25.55,0-46.259-23.154-46.259-51.696c0-17.206,7.52-32.456,19.099-41.848h-31.312v74.056
	v0.298v15.211h-13.903v-14.719c0.009-0.264,0.009-0.527,0.009-0.79v-74.056h-12.258v-9.322h12.441
	c1.6-18.811,13.26-29.438,29.397-29.438c10.461,0,16.208,1.084,19.514,2.618v12.744c-0.05,0.957-0.05,1.534-0.05,1.534
	c-0.137-0.015-0.486-0.015-0.486-0.015c-5.028-4.643-10.001-8.106-21.595-8.086c-9.251,0-15.368,7.498-13.221,20.643h52.046
	c2.152-0.344,4.35-0.526,6.578-0.526c18.536,0,34.531,12.187,41.913,29.771c-0.066-0.972-0.101-1.989-0.101-3.047
	c0-18.359,17.767-26.173,36.237-26.127c0.704-0.005,1.393,0,2.071,0.016c6.506-0.102,15.758,2.015,21.408,3.498l10.961,26.912
	l15.656,38.167l1.838,6.142l2.05-6.142l19.799-48.993c3.661-13.499,18.127-19.336,34.092-19.306
	c7.944-0.03,13.807,0.916,20.839,3.397v14.81c-8.652-6.289-14.86-9.939-24.683-9.939c-8.638,0-19.008,3.818-19.008,16.521
	c-0.183,9.55,5.55,11.302,22.369,19.636c13.824,5.999,26.573,12.627,26.654,27.959c0,25.569-25.21,29.989-37.475,30.036
	c-10.956,0-20.986-2.705-26.571-7.354v-16.87l0.896,0.744c9.964,9.291,18.764,14.106,30.142,14.106
	c11.214,0.085,21.175-5.397,21.175-15.944c0-8.805-7.808-13.944-21.753-19.838c-13.336-5.772-22.085-9.6-25.66-19.149
	c-5.433,13.256-30.719,74.816-36.674,87.975h-13.635l6.075-11.348l0.097-0.172c3.407-6.724,8.385-17.281,12.805-27.387
	l-26.248-63.348c-0.172-0.385-0.602-1.357-1.488-3.346c-2.006-4.593-3.884-8.831-9.55-10.962c-3.043-1.028-6.272-1.554-10.03-1.554
	c-8.638,0-19.685,3.818-19.685,16.517c-0.163,9.554,6.228,11.296,23.048,19.641c13.818,5.995,26.572,12.623,26.652,27.955
	c0,25.57-25.21,30-37.474,30.04c-9.746,0-18.753-2.138-24.562-5.878V203.077z M129.038,123.998l0.172,11.189l-0.015,0.755h0.152
	c0.172-0.466,0.42-0.866,0.648-1.16c5.655-6.061,12.77-12.076,29.711-12.076c16.208,0,26.704,13.762,27.119,22.43l0.021,61.292
	v15.509h-13.899v-18.27v-52.177c0-10.805-9.483-18.618-21.088-18.618c-9.656,0-22.051,8.673-22.461,17.468v56.097l0.015,0.42v15.095
	h-13.903l0.005-15.515l-0.005-69.555l0.005-12.886H129.038z M85.933,109.551l-0.005-0.187V94.043h15.393v112.386l0.009,0.338v15.171
	H85.928v-15.322l0.005-0.187V109.551z M380.223,139.238c0.187,0.511,0.4,1.053,0.648,1.626l5.179,12.683L380.223,139.238z
	 M379.321,243.492c0.704-1.196,1.686-3.034,2.855-5.333L379.321,243.492z M368.83,147.253c0.4,0.892-0.552-1.316-0.552-1.316
	L368.83,147.253z M241.412,175.354c0.395,23.261,14.866,41.839,32.324,41.534c17.463-0.309,31.301-19.408,30.907-42.653
	c-0.406-23.251-14.877-41.838-32.34-41.524C254.845,133.02,241.012,152.124,241.412,175.354 M499.62,98.914h2.765
	c1.494,0,2.324,0.607,2.324,1.828c0,1.215-0.941,1.772-2.096,1.772h-2.993V98.914z M497.129,110.26h2.491v-5.539h2.938l2.151,5.539
	h2.766l-2.543-5.924c0.886-0.44,2.385-0.941,2.385-3.376c0-3.985-2.992-4.431-5.59-4.431h-4.598V110.26z M490.982,103.723
	c0-6.086,4.983-11.068,11.074-11.068c6.086,0,11.068,4.982,11.068,11.068c0,6.096-4.982,11.079-11.068,11.079
	C495.966,114.802,490.982,109.819,490.982,103.723 M502.057,116.736c7.139,0,13.002-5.812,13.002-13.013
	c0-7.139-5.863-13.002-13.002-13.002c-7.135,0-13.014,5.863-13.014,13.002C489.043,110.924,494.922,116.736,502.057,116.736
	 M112.343,259.264v37.402h-4.719l-0.024-0.036l-11.16-18.9c-2.927-4.947-5.008-8.881-6.558-12.376l-0.035,0.016
	c0.258,4.633,0.365,9.078,0.365,15.301v15.996h-4.431v-37.402h5.078l0.016,0.035l11.276,18.85c2.546,4.248,4.592,8.168,6.273,12
	c-0.426-5.139-0.512-9.803-0.512-15.225v-15.66H112.343z M136.92,296.58c-0.289-1.64-0.425-3.731-0.425-6.399v-10.006
	c0-9.098-5.256-11.012-9.676-11.012c-3.089,0-6.132,0.86-8.344,2.385l-0.046,0.034l1.064,3.262l0.025,0.086l0.091-0.05
	c1.813-1.241,4.248-1.977,6.532-1.977c3.716,0,5.666,2.117,5.666,6.117v0.477h-0.137c-5.771,0-10.121,1.291-12.592,3.752
	c-1.625,1.619-2.46,3.731-2.46,6.263c0,3.752,2.44,7.762,7.797,7.762c3.17,0,6.076-1.483,7.768-3.974h0.045l0.369,3.367h4.335
	L136.92,296.58z M125.614,293.527c-2.056,0-4.253-1.195-4.253-4.557c0-1.5,0.481-2.729,1.442-3.662
	c1.56-1.527,4.4-2.299,8.441-2.299c0.212,0,0.446,0,0.664,0.012v4.567c0,0.449-0.091,0.986-0.264,1.519
	C130.997,291.153,129.017,293.527,125.614,293.527z M162.637,269.77l-0.046,0.1l-9.939,26.796h-4.496l-0.01-0.052l-9.64-26.845
	h5.073l0.015,0.05l4.952,15.028c0.901,2.638,1.55,4.8,2.03,6.806h0.025c0.548-2.087,1.231-4.147,2.137-6.806l4.917-15.078H162.637z
	 M172.141,262.327c0.02,0.855-0.258,1.621-0.805,2.191c-0.547,0.572-1.307,0.861-2.192,0.861c-1.626,0-2.851-1.306-2.851-3.053
	c0-1.777,1.266-3.114,2.952-3.114C170.941,259.212,172.141,260.489,172.141,262.327z M171.614,269.77v26.896h-4.745V269.77H171.614z
	 M195.467,269.77l-0.202,3.994c-0.901-1.751-3.094-4.602-7.919-4.602c-2.987,0-5.802,1.316-7.919,3.727
	c-2.309,2.637-3.539,6.278-3.539,10.547c0,3.62,1.094,6.941,3.059,9.352c1.985,2.426,4.749,3.772,7.777,3.772
	c3.494,0,6.43-1.619,8.075-4.445v2.876c0,7.66-4.389,9.261-8.075,9.261c-3.798,0-6.416-1.453-7.362-2.081l-0.087-0.061l-1.18,3.803
	l-0.02,0.057l0.046,0.029c1.939,1.372,5.174,2.223,8.445,2.223c2.739,0,6.542-0.558,9.245-3.229
	c2.502-2.37,3.626-6.157,3.626-12.269v-15.53c0-3.24,0.096-5.402,0.202-7.346l0.016-0.076H195.467z M188.075,292.711
	c-4.476,0-7.383-3.757-7.383-9.55c0-6.004,2.998-10.03,7.449-10.03c3.56,0,5.616,2.623,6.339,5.084
	c0.227,0.714,0.268,1.51,0.268,2.188v4.8c0,0.926-0.142,1.838-0.37,2.571C193.422,290.768,190.956,292.711,188.075,292.711z
	 M224.061,296.58c-0.274-1.64-0.416-3.731-0.416-6.399v-10.006c0-9.098-5.26-11.012-9.686-11.012c-3.093,0-6.131,0.86-8.333,2.385
	l-0.051,0.029l1.053,3.267l0.04,0.086l0.081-0.05c1.808-1.241,4.253-1.977,6.537-1.977c2.577,0,5.656,1.064,5.656,6.117v0.477
	h-0.137c-5.757,0-10.111,1.291-12.582,3.752c-1.636,1.619-2.46,3.731-2.46,6.263c0,3.752,2.45,7.762,7.797,7.762
	c3.18,0,6.081-1.483,7.772-3.974h0.05l0.355,3.367h4.339L224.061,296.58z M212.764,293.527c-2.051,0-4.259-1.195-4.259-4.557
	c0-1.5,0.481-2.729,1.443-3.662c1.56-1.527,4.391-2.299,8.441-2.299c0.223,0,0.44,0,0.668,0.012v4.567
	c0,0.449-0.091,0.986-0.263,1.519C218.131,291.153,216.156,293.527,212.764,293.527z M235.381,273.619v14.348
	c0,3.546,1.043,5.125,3.367,5.125c1.236,0,2.122-0.177,2.638-0.329l0.101-0.024v0.085l0.218,3.707l-0.05,0.025
	c-0.998,0.429-2.451,0.663-4.112,0.663c-2.162,0-3.889-0.709-5.012-2.072c-1.225-1.346-1.783-3.579-1.783-7.012v-14.516h-3.924
	v-3.849h3.924v-6.4l0.046-0.01l4.587-1.301v7.711h6.578v3.849H235.381z M264.339,273.648c-1.848-2.977-4.663-4.485-8.365-4.485
	c-7.023,0-11.929,5.959-11.929,14.502c0,4.02,1.149,7.412,3.316,9.811c2.213,2.455,5.383,3.742,9.181,3.742
	c4.09,0,6.85-0.892,8.435-1.665l0.061-0.021l-0.8-3.546l-0.02-0.09l-0.082,0.04c-1.585,0.709-3.534,1.367-6.973,1.367
	c-5.26,0-8.461-3.403-8.577-9.13h17.732l0.036-0.283c0.055-0.501,0.131-1.199,0.131-2.056
	C266.485,280.403,266.283,276.751,264.339,273.648z M248.643,280.545c0.344-2.927,2.172-7.759,6.962-7.759
	c1.731,0,3.148,0.548,4.207,1.637c1.944,1.975,2.096,5.094,2.081,6.122H248.643z M303.68,269.77l-0.045,0.1l-6.891,19.06
	c-3.514,9.816-5.706,14.051-8.684,16.778c-2.061,1.94-4.278,2.902-5.675,3.171l-0.066,0.024l-0.021-0.076l-1.164-4.156l0.066-0.031
	c0.653-0.213,2.354-0.896,3.99-2.354c1.534-1.281,2.972-3.301,3.842-5.392c0.218-0.507,0.37-0.866,0.37-1.129
	c0-0.254-0.092-0.603-0.314-1.256l-9.377-24.739h5.175l0.02,0.05l5.529,15.808c0.587,1.829,1.206,3.88,1.595,5.389
	c0.148-0.532,0.319-1.104,0.492-1.708c0.323-1.184,0.693-2.526,1.104-3.786l5.033-15.752H303.68z M326.035,272.995
	c-2.207-2.516-5.275-3.832-8.851-3.832c-3.519,0-6.683,1.33-8.952,3.767c-2.384,2.572-3.651,6.212-3.651,10.507
	c0,8.157,5.009,13.837,12.184,13.837c3.301,0,6.359-1.21,8.638-3.406c2.623-2.562,4.016-6.32,4.016-10.871
	C329.418,278.964,328.258,275.501,326.035,272.995z M316.977,293.476c-4.409,0-7.604-4.293-7.604-10.203
	c0-5.134,2.384-10.314,7.696-10.314c5.165,0,7.498,5.292,7.498,10.202C324.566,289.131,321.371,293.476,316.977,293.476z
	 M355.256,296.667h-4.224l-0.015-0.071l-0.238-4.273c-0.881,1.545-3.382,4.951-8.396,4.951c-1.659,0-4.035-0.405-5.898-2.355
	c-1.929-2.004-2.891-5.174-2.891-9.436V269.77h4.749v14.881c0,5.677,1.817,8.44,5.561,8.44c3.159,0,5.199-2.359,5.978-4.374
	c0.273-0.73,0.405-1.611,0.405-2.461V269.77h4.749v19.529c0,3.062,0.071,5.377,0.208,7.291L355.256,296.667z M373.088,269.343v4.735
	l-0.085-0.016c-0.496-0.12-0.957-0.167-1.555-0.167c-3.049,0-5.44,2.431-6.081,6.183c-0.107,0.693-0.208,1.438-0.208,2.253v14.335
	h-4.693v-18.475c0-3.475-0.06-6.053-0.212-8.345v-0.076h4.177v0.07l0.156,5.176h0.071c1.158-3.56,3.924-5.854,7.048-5.854
	c0.501,0,0.872,0.045,1.332,0.161L373.088,269.343z M410.247,280.625v16.041h-4.738v-15.499c0-6.805-3.61-7.823-5.782-7.823
	c-2.318,0-5.098,1.524-6.081,4.916c-0.192,0.583-0.309,1.393-0.309,2.249v16.157h-4.745v-19.58c0-3.008-0.061-5.174-0.208-7.24
	l-0.004-0.076h4.223l0.01,0.07l0.254,4.319c1.226-2.435,4.061-4.997,8.385-4.997C402.754,269.163,410.247,269.704,410.247,280.625z
	 M434.728,273.648c-1.863-2.977-4.678-4.485-8.385-4.485c-7.023,0-11.918,5.959-11.918,14.502c0,4.02,1.145,7.412,3.312,9.811
	c2.207,2.455,5.387,3.742,9.185,3.742c4.09,0,6.845-0.892,8.435-1.665l0.056-0.021l-0.8-3.546l-0.014-0.09l-0.092,0.04
	c-1.59,0.709-3.535,1.367-6.963,1.367c-5.261,0-8.465-3.403-8.577-9.13h17.727l0.041-0.283c0.051-0.501,0.127-1.199,0.127-2.056
	C436.861,280.403,436.648,276.751,434.728,273.648z M419.022,280.545c0.334-2.927,2.178-7.759,6.963-7.759
	c1.731,0,3.14,0.548,4.202,1.637c1.949,1.975,2.09,5.094,2.086,6.122H419.022z M461.818,296.667h-5.403l-0.025-0.026l-3.707-6.035
	c-0.961-1.509-1.796-2.982-2.698-4.602h-0.005c-0.628,1.205-1.29,2.308-1.983,3.488c-0.219,0.364-0.436,0.733-0.648,1.113
	l-3.691,6.061h-5.236l9.023-13.722l-8.612-13.175h5.295l3.622,5.776c0.941,1.504,1.746,2.901,2.54,4.33h0.066
	c0.669-1.281,1.342-2.436,2-3.55c0.167-0.278,0.328-0.557,0.491-0.83l3.569-5.727h5.149l-0.081,0.112l-8.598,12.89L461.818,296.667z
	 M473.28,273.619v14.348c0,3.546,1.039,5.125,3.374,5.125c1.239,0,2.115-0.177,2.638-0.329l0.097-0.024v0.085l0.212,3.707
	l-0.051,0.025c-0.981,0.429-2.446,0.663-4.097,0.663c-2.162,0-3.898-0.709-5.028-2.072c-1.21-1.346-1.786-3.579-1.786-7.012v-14.516
	h-3.92v-3.849h3.92v-6.4l0.064-0.01l4.577-1.301v7.711h6.583v3.849H473.28z"/>
<g>
</g>
<g>
</g>
<g>
</g>
<g>
</g>
<g>
</g>
<g>
</g>
</svg>
