<svg width="132" height="40" viewBox="0 0 132 40" fill="none" xmlns="http://www.w3.org/2000/svg">
<g clip-path="url(#clip0_101_247)">
<g clip-path="url(#clip1_101_247)">
<path fill-rule="evenodd" clip-rule="evenodd" d="M130.85 7.56314V7.2195H131.063C131.233 7.2195 131.297 7.28403 131.297 7.39148C131.297 7.49861 131.233 7.56314 131.063 7.56314H130.85ZM131.425 7.39148C131.425 7.17659 131.276 7.09076 131.063 7.09076H130.722V8.07875H130.85V7.69189H131.063L131.297 8.07875H131.446L131.191 7.67059C131.34 7.64897 131.425 7.56314 131.425 7.39148ZM131.063 8.42239C130.595 8.42239 130.232 8.05714 130.232 7.58475C130.232 7.13367 130.595 6.76873 131.063 6.76873C131.51 6.76873 131.872 7.13367 131.872 7.58475C131.872 8.05714 131.51 8.42239 131.063 8.42239ZM131.063 6.63967C130.531 6.63967 130.105 7.06946 130.105 7.58475C130.105 8.12167 130.531 8.55113 131.063 8.55113C131.574 8.55113 132 8.12167 132 7.58475C132 7.06946 131.574 6.63967 131.063 6.63967ZM54.5042 0C52.73 0 51.3335 1.40838 51.3335 3.23526C51.3335 5.02392 52.73 6.43199 54.5042 6.43199C56.354 6.43199 57.7504 5.02392 57.7504 3.23526C57.7504 1.40838 56.354 0 54.5042 0ZM66.4694 2.77854H61.6382V8.79171H59.0335V13.1302H61.6382V28.3157H66.4694V13.1302H69.1117V8.79171H66.4694V2.77854ZM101.912 12.9019C103.95 12.9019 105.611 13.9676 106.894 15.4524L110.254 12.1031C108.367 9.70515 105.385 8.18306 101.988 8.18306C96.137 8.18306 91.5322 12.6738 91.5322 18.5348C91.5322 24.3957 96.137 28.8871 101.988 28.8871C105.385 28.8871 108.367 27.3644 110.254 24.9671L106.894 21.6178C105.649 23.0638 103.95 24.1677 101.874 24.1677C98.779 24.1677 96.4014 21.7318 96.4014 18.5348C96.4014 15.338 98.779 12.9019 101.912 12.9019ZM122.747 8.18306C120.37 8.18306 118.331 9.09619 116.897 10.6565V0.533154H112.065V28.3157H116.897V17.6974C116.897 14.881 118.671 12.9401 121.615 12.9401C124.371 12.9401 125.88 14.6526 125.88 17.6974V28.3157H130.712V16.8222C130.712 11.418 127.353 8.18306 122.747 8.18306ZM79.9821 8.18306C74.1694 8.18306 69.7532 12.6738 69.7532 18.6488C69.7532 24.5483 73.792 28.8871 80.0573 28.8871C83.53 28.8871 86.6252 27.5927 88.89 25.1569L85.6441 21.9223C84.0584 23.4444 82.3603 24.5483 80.1707 24.5483C77.5287 24.5483 75.528 23.0259 74.8489 20.4757H89.909V19.296C89.909 12.6356 85.8327 8.18306 79.9821 8.18306ZM74.7358 16.5177C75.377 13.9297 77.3398 12.4834 79.869 12.4834C82.3979 12.4834 84.2849 13.8914 84.8888 16.5177H74.7358ZM39.7458 35.2427C36.6505 35.2427 34.1972 32.8071 34.1972 29.6483H29.2904C29.2904 35.5089 33.8952 40 39.7458 40C45.596 40 50.2014 35.5089 50.2014 29.6483H45.2944C45.2944 32.8071 42.841 35.2427 39.7458 35.2427ZM52.1263 28.3157H56.9579V8.79171H52.1263V28.3157ZM0 28.3157H4.83156V0.533154H0V28.3157ZM17.1739 8.18306C11.3237 8.18306 6.71889 12.6738 6.71889 18.5348C6.71889 24.3957 11.3237 28.8871 17.1739 28.8871C23.0248 28.8871 27.6293 24.3957 27.6293 18.5348C27.6293 12.6738 23.0248 8.18306 17.1739 8.18306ZM17.1739 24.1677C14.079 24.1677 11.6253 21.6939 11.6253 18.4965C11.6253 15.338 14.079 12.9019 17.1739 12.9019C20.307 12.9019 22.7604 15.338 22.7604 18.5348C22.7604 21.7318 20.307 24.1677 17.1739 24.1677ZM50.0125 12.6738V8.79171H43.2181C42.1236 8.41142 40.9533 8.18306 39.7458 8.18306C33.8952 8.18306 29.2904 12.6738 29.2904 18.5348C29.2904 24.3957 33.8952 28.8871 39.7458 28.8871C45.596 28.8871 50.2014 24.3957 50.2014 18.5348C50.2014 16.5556 49.6727 14.6147 48.6161 13.1685L50.0125 12.6738ZM39.7458 24.1677C36.6505 24.1677 34.1972 21.6939 34.1972 18.4965C34.1972 15.338 36.6505 12.9019 39.7458 12.9019C42.8786 12.9019 45.3323 15.338 45.3323 18.5348C45.3323 21.7318 42.8786 24.1677 39.7458 24.1677Z" fill="black"/>
</g>
</g>
<defs>
<clipPath id="clip0_101_247">
<rect width="132" height="40" fill="white"/>
</clipPath>
<clipPath id="clip1_101_247">
<rect width="132" height="40" fill="white"/>
</clipPath>
</defs>
</svg>
