<?xml version="1.0" encoding="UTF-8"?>
<svg id="_レイヤー_2" data-name="レイヤー 2" xmlns="http://www.w3.org/2000/svg" viewBox="0 0 113.38 43.58">
  <defs>
    <style>
      .cls-1 {
        fill: none;
      }

      .cls-2 {
        fill: #9fa0a0;
      }
    </style>
  </defs>
  <g id="_レイヤー_1-2" data-name="レイヤー 1">
    <g>
      <g>
        <path class="cls-2" d="M36.53,8.33c-2.17-.62-4.43,.64-5.05,2.81l-2.97,10.38-7.37-11.47c-.87-1.35-2.44-2.07-4.03-1.83-1.59,.23-2.89,1.38-3.33,2.92l-5.45,19.07c-.62,2.17,.64,4.43,2.81,5.05,.38,.11,.75,.16,1.12,.16,1.78,0,3.41-1.17,3.93-2.96l2.97-10.38,7.37,11.47c.87,1.35,2.45,2.07,4.03,1.83,1.59-.23,2.89-1.38,3.33-2.92l5.45-19.07c.62-2.17-.64-4.43-2.81-5.05Z"/>
        <path class="cls-2" d="M69.9,8.33c-2.17-.62-4.43,.64-5.05,2.81l-1.94,6.77h-9.21l1.29-4.53c.62-2.17-.64-4.43-2.81-5.05-2.17-.62-4.43,.64-5.05,2.81l-5.45,19.07c-.62,2.17,.64,4.43,2.81,5.05,.37,.11,.75,.16,1.12,.16,1.78,0,3.41-1.17,3.93-2.96l1.93-6.77h9.21l-1.29,4.53c-.62,2.17,.64,4.43,2.81,5.05,.38,.11,.75,.16,1.12,.16,1.78,0,3.42-1.17,3.93-2.96l5.45-19.07c.62-2.17-.64-4.43-2.81-5.05Z"/>
        <path class="cls-2" d="M104.38,9.79c-1.36-1.8-3.92-2.15-5.72-.79l-11.53,8.73,1.24-4.35c.62-2.17-.64-4.43-2.81-5.05-2.17-.62-4.43,.64-5.05,2.81l-5.45,19.07c-.62,2.17,.64,4.43,2.81,5.05,.38,.11,.75,.16,1.12,.16,1.78,0,3.41-1.17,3.93-2.96l2.34-8.2s0,0,0,0c.04,.05,.08,.08,.12,.12,.05,.06,.09,.13,.14,.19l8.85,9.53c.8,.87,1.9,1.31,2.99,1.31,1,0,1.99-.36,2.78-1.09,1.65-1.54,1.75-4.12,.21-5.77l-5.78-6.22,9-6.81c1.8-1.36,2.15-3.92,.79-5.72Z"/>
      </g>
      <rect class="cls-1" width="113.38" height="43.58"/>
    </g>
  </g>
</svg>