<?xml version="1.0" encoding="utf-8"?>
<!-- Generator: Adobe Illustrator 27.5.0, SVG Export Plug-In . SVG Version: 6.00 Build 0)  -->
<svg version="1.1" id="Layer_1" xmlns="http://www.w3.org/2000/svg" xmlns:xlink="http://www.w3.org/1999/xlink" x="0px" y="0px"
	 viewBox="0 0 518 157.2" style="enable-background:new 0 0 518 157.2;" xml:space="preserve">
<style type="text/css">
	.st0{fill:#040919;}
</style>
<g>
	<g>
		<path class="st0" d="M78.6,23.5V0C35.2,0,0,35.2,0,78.6s35.2,78.6,78.6,78.6v-23.4c-30.5,0-55.2-24.7-55.2-55.2
			S48.2,23.5,78.6,23.5L78.6,23.5z"/>
		<path class="st0" d="M133.8,78.6c0,30.5-24.7,55.2-55.2,55.2v-23.4c17.5,0,31.7-14.2,31.7-31.7S96.1,46.9,78.6,46.9V23.5
			C109.1,23.5,133.8,48.2,133.8,78.6z"/>
		<path class="st0" d="M78.6,46.9v63.5c-17.5,0-31.7-14.2-31.7-31.7S61.1,46.9,78.6,46.9L78.6,46.9z"/>
	</g>
	<g>
		<path class="st0" d="M358.8,71.1c-2.8-5.5-7.1-10.1-12.4-13.3s-11.5-4.7-18.7-4.7s-13.4,1.6-18.7,4.7s-9.6,7.8-12.4,13.3
			c-2.9,5.7-4.4,12.4-4.4,20c0,7.6,1.5,14.2,4.4,19.9c2.8,5.5,7.1,10.1,12.4,13.2c5.3,3.2,11.5,4.7,18.7,4.7s13.3-1.6,18.7-4.7
			c5.3-3.1,9.6-7.7,12.4-13.2c3-5.7,4.4-12.3,4.4-19.9S361.8,76.9,358.8,71.1z M346.6,104c-1.4,3.7-3.8,7-7,9.4
			c-3.1,2.3-7.1,3.5-11.9,3.5s-8.7-1.2-11.9-3.5c-3.2-2.4-5.6-5.7-7-9.4c-3-8.3-3-17.5,0-25.9c1.4-3.8,3.8-7,7-9.5
			c3.2-2.4,7.1-3.6,11.9-3.6s8.7,1.2,11.9,3.6c3.2,2.4,5.6,5.7,7,9.5C349.7,86.5,349.7,95.6,346.6,104z"/>
		<path class="st0" d="M439.8,71.1c-2.8-5.5-7.1-10.1-12.4-13.3s-11.5-4.7-18.7-4.7s-13.4,1.6-18.7,4.7s-9.6,7.8-12.4,13.3
			c-2.9,5.7-4.4,12.4-4.4,20c0,7.6,1.5,14.2,4.4,19.9c2.8,5.5,7.1,10.1,12.4,13.2c5.3,3.2,11.5,4.7,18.7,4.7s13.3-1.6,18.7-4.7
			c5.3-3.1,9.6-7.7,12.4-13.2c3-5.7,4.4-12.3,4.4-19.9S442.7,76.9,439.8,71.1z M427.6,104c-1.4,3.7-3.8,7-7,9.4
			c-3.1,2.3-7.1,3.5-11.9,3.5s-8.7-1.2-11.9-3.5c-3.2-2.4-5.6-5.7-7-9.4c-3-8.3-3-17.5,0-25.9c1.4-3.8,3.8-7,7-9.5
			c3.1-2.4,7.1-3.6,11.9-3.6s8.7,1.2,11.9,3.6c3.2,2.4,5.6,5.7,7,9.5C430.6,86.5,430.6,95.6,427.6,104z"/>
		<path class="st0" d="M492.5,65.6V54.1h-15.9v-5.9c0-3.3,0.7-5.8,2.2-7.5c1.5-1.7,4-2.6,7.5-2.6c1.5,0,2.8,0.1,3.8,0.4
			c1,0.3,1.9,0.5,2.6,0.7l3.4-11.6c-1-0.4-2.5-0.8-4.5-1.2c-2-0.5-4.5-0.7-7.4-0.7c-3.9,0-7.5,0.8-10.8,2.3c-3.3,1.5-6,3.8-8,6.9
			c-2,3-3,6.8-3,11.5v7.8h-11.4v11.5h11.4v62.1h14.3V65.6L492.5,65.6L492.5,65.6z"/>
		<path class="st0" d="M168.4,127.7V29.5h35c7.6,0,14,1.4,19,4.2s8.8,6.6,11.3,11.4c2.5,4.8,3.7,10.2,3.7,16.2s-1.3,11.5-3.8,16.3
			c-2.5,4.8-6.3,8.6-11.3,11.4c-5,2.8-11.3,4.2-18.9,4.2h-11V80.6h9.6c4.8,0,8.7-0.8,11.7-2.5c3-1.7,5.2-4,6.6-6.9s2.1-6.2,2.1-9.9
			s-0.7-7-2.1-9.9c-1.4-2.9-3.6-5.1-6.7-6.8c-3-1.6-7-2.4-11.9-2.4h-18.6v20.2l0,0v65.2H168.4L168.4,127.7z"/>
		<path class="st0" d="M249.4,127.7V54.1h13.9v11.7h0.8c1.3-4,3.7-7.1,7.1-9.3c3.4-2.3,7.3-3.5,11.6-3.5c0.9,0,2,0,3.2,0.1
			c1.2,0.1,2.2,0.1,2.9,0.2V67c-0.6-0.2-1.6-0.3-3.1-0.5c-1.5-0.2-2.9-0.3-4.4-0.3c-3.4,0-6.4,0.7-9.1,2.2c-2.6,1.4-4.7,3.4-6.2,5.9
			c-1.5,2.5-2.3,5.3-2.3,8.5v44.9H249.4L249.4,127.7z"/>
	</g>
	<g>
		<path class="st0" d="M500.2,117.5c-0.1-0.7-0.4-1.2-1-1.6c-0.6-0.4-1.3-0.6-2.1-0.6c-0.6,0-1.1,0.1-1.6,0.3
			c-0.5,0.2-0.8,0.5-1,0.8c-0.2,0.3-0.4,0.7-0.4,1.2c0,0.4,0.1,0.7,0.3,0.9s0.4,0.5,0.7,0.6c0.3,0.2,0.6,0.3,0.9,0.4
			s0.6,0.2,0.8,0.3l1.4,0.4c0.4,0.1,0.8,0.2,1.2,0.4c0.4,0.2,0.9,0.4,1.2,0.7c0.4,0.3,0.7,0.6,1,1.1s0.4,1,0.4,1.6
			c0,0.7-0.2,1.4-0.6,2s-0.9,1.1-1.7,1.4s-1.6,0.5-2.7,0.5c-1,0-1.8-0.2-2.5-0.5s-1.3-0.8-1.7-1.3s-0.6-1.2-0.7-2h1.7
			c0,0.5,0.2,0.9,0.5,1.3s0.7,0.6,1.1,0.7s1,0.2,1.5,0.2c0.6,0,1.2-0.1,1.7-0.3s0.9-0.5,1.2-0.9c0.3-0.4,0.4-0.8,0.4-1.3
			c0-0.4-0.1-0.8-0.4-1.1s-0.6-0.5-1-0.7s-0.9-0.3-1.3-0.5l-1.7-0.5c-1.1-0.3-1.9-0.7-2.5-1.3s-0.9-1.3-0.9-2.2c0-0.8,0.2-1.4,0.6-2
			s1-1,1.7-1.3s1.5-0.5,2.4-0.5s1.6,0.2,2.3,0.5s1.2,0.7,1.6,1.3s0.6,1.2,0.6,1.8L500.2,117.5L500.2,117.5z"/>
		<path class="st0" d="M504.7,114.1h2l4.6,11.3h0.2l4.6-11.3h2v13.6h-1.5v-10.3h-0.1l-4.2,10.3h-1.5l-4.2-10.3h-0.1v10.3h-1.5
			L504.7,114.1L504.7,114.1z"/>
	</g>
</g>
</svg>
