<?xml version="1.0" encoding="utf-8"?>
<!-- Generator: Adobe Illustrator 19.0.0, SVG Export Plug-In . SVG Version: 6.00 Build 0)  -->
<svg version="1.1" id="Layer_1" xmlns="http://www.w3.org/2000/svg" xmlns:xlink="http://www.w3.org/1999/xlink" x="0px" y="0px"
	 viewBox="-1873 1969 260 63" style="enable-background:new -1873 1969 260 63;" xml:space="preserve">
<style type="text/css">
	.st0{fill:#222222;}
	.st1{fill:none;stroke:#A0CC41;stroke-width:2;stroke-miterlimit:10;}
	.st2{fill:#A0CC41;}
</style>
<g>
	<path class="st0" d="M-1707.9,1970.8c5.2-0.1,10.3,0,15.5,0c0.7,0,1.2,0.6,1.1,1.3c-2.6,13.4-5.1,26.9-7.9,40.3
		c-0.1,0.7,0.4,1.4,1.1,1.4h13.7c0.7,0,1.2,0.7,1.1,1.4l-2.7,13.8c-0.1,0.5-0.6,0.9-1.1,0.9h-31.6c-0.7,0-1.2-0.6-1.1-1.3
		c0.7-3.4,1-7,2.9-10c3-5.4,4.2-11.8,2.7-17.9v-0.4c0.8-5.8,2.3-11.5,3.2-17.3c0.3-2.5,1.6-4.6,2.9-6.7c0.3-0.4,0.2-1-0.1-1.3
		c-0.7-0.9-0.9-2-0.8-3.1C-1709,1971.3-1708.5,1970.9-1707.9,1970.8L-1707.9,1970.8z M-1749.9,1974.9c0.6,0.3,0.8,1,0.5,1.6
		c-2.3,4-4.6,8-6.9,11.9c-0.3,0.6-1.1,0.7-1.6,0.4c-3.5-2.4-7.6-4.6-11.9-3.4c-2.3,0.6-3.8,4-1.4,5.4c4.3,2.1,9.6,2.4,13.2,5.9
		c4.4,3.5,4.8,9.8,3.1,14.8c-2.1,8.3-8.8,15-16.9,17.4c-9.1,3-20,1.3-27.1-5.4c-0.4-0.3-0.4-0.9-0.2-1.3c2.2-4.2,4.3-8.4,6.4-12.6
		c0.4-0.7,1.3-0.8,1.9-0.2c3.5,4.1,8.5,7.6,14.1,6.6c2.4-0.4,6.1-3.7,3.6-5.9c-4.6-2.6-10.5-2.8-14.5-6.4s-4.7-9.7-3.2-14.6
		c2.2-7.2,7.9-13.3,15-16C-1767.5,1969.6-1757.9,1970.8-1749.9,1974.9L-1749.9,1974.9z"/>
	<path class="st0" d="M-1712.7,1975c0.5,0.3,0.7,1,0.4,1.5l-6.9,12c-0.3,0.6-1,0.7-1.5,0.4c-3-2-6.2-3.9-9.9-3.8
		c-2.1-0.2-4,1.2-4.7,3.1c0,0.2,0,0.4-0.1,0.6c0.5,2.6,3.7,3,5.8,3.7c5.4,1.3,11.1,4.3,12.5,10c1.3,8.2-2.5,16.7-8.8,21.8
		c-8.9,7.2-22.1,7.8-32,2.3c-0.6-0.4-0.8-1.2-0.3-1.7c3.1-3.2,5.5-6.9,7-11.1c0.2-0.7,1-0.9,1.6-0.5c3.4,2.2,7.7,3.9,11.6,1.9
		c1.4-0.6,2.1-2,2.7-3.3c0.2-0.5,0.1-1-0.3-1.3c-3.8-3-9.2-3-13.3-5.6c-0.3-0.2-0.4-0.5-0.5-0.8c-0.5-3.8-2.1-7.3-4.8-10
		c-0.4-0.4-0.4-0.9-0.2-1.4c3.5-5.4,6.3-11.3,10-16.6l0.3-0.3C-1735,1969.4-1722.3,1969.8-1712.7,1975L-1712.7,1975z
		 M-1681.2,2029.8v-3.7h3.7v3.7H-1681.2z M-1661.8,2020l-3.6,0.7c-0.1-0.7-0.4-1.3-0.8-1.6c-0.4-0.4-1-0.5-1.7-0.5
		c-0.9,0-1.6,0.3-2.2,0.9c-0.5,0.6-0.8,1.6-0.8,3.1c0,1.6,0.3,2.8,0.8,3.5c0.6,0.7,1.3,1,2.2,1c0.7,0,1.3-0.2,1.7-0.6
		c0.4-0.4,0.8-1.1,0.9-2l3.6,0.6c-0.4,1.7-1.1,2.9-2.1,3.7c-1.1,0.8-2.5,1.3-4.3,1.3c-2,0-3.6-0.6-4.8-1.9c-1.2-1.3-1.8-3-1.8-5.3
		c0-2.3,0.6-4.1,1.8-5.3c1.2-1.2,2.8-1.9,4.9-1.9c1.7,0,3,0.4,4,1.1C-1662.9,2017.4-1662.2,2018.5-1661.8,2020L-1661.8,2020z
		 M-1659.9,2022.7c0-1.2,0.3-2.4,0.9-3.5s1.4-2,2.5-2.6s2.3-0.9,3.7-0.9c2.1,0,3.8,0.7,5.1,2c1.3,1.4,2,3.1,2,5.2
		c0,2.1-0.7,3.8-2,5.2c-1.4,1.4-3,2.1-5.1,2.1c-1.3,0-2.5-0.3-3.6-0.9c-1.2-0.6-2-1.4-2.6-2.5
		C-1659.6,2025.6-1659.9,2024.2-1659.9,2022.7L-1659.9,2022.7z M-1656.1,2022.8c0,1.4,0.3,2.4,1,3.2c0.7,0.7,1.5,1.1,2.4,1.1
		c0.9,0,1.8-0.4,2.4-1.1c0.6-0.7,1-1.8,1-3.2c0-1.4-0.3-2.4-1-3.1c-0.6-0.7-1.4-1.1-2.4-1.1s-1.8,0.4-2.4,1.1
		C-1655.8,2020.4-1656.1,2021.5-1656.1,2022.8z M-1643,2015.9h3.4v1.9c1.2-1.5,2.6-2.2,4.3-2.2c0.9,0,1.7,0.2,2.3,0.5
		c0.7,0.4,1.2,0.9,1.6,1.7c0.6-0.7,1.3-1.3,2-1.7s1.5-0.5,2.3-0.5c1,0,1.9,0.2,2.6,0.6c0.7,0.4,1.2,1,1.6,1.8
		c0.3,0.6,0.4,1.5,0.4,2.9v8.9h-3.7v-7.9c0-1.4-0.1-2.3-0.4-2.7c-0.3-0.5-0.9-0.8-1.6-0.8c-0.5,0-1,0.2-1.4,0.5
		c-0.5,0.3-0.8,0.8-1,1.4c-0.2,0.6-0.3,1.6-0.3,2.9v6.6h-3.7v-7.6c0-1.3-0.1-2.2-0.2-2.6c-0.1-0.4-0.3-0.7-0.6-0.9
		c-0.3-0.2-0.6-0.3-1.1-0.3c-0.6,0-1.1,0.2-1.5,0.5c-0.5,0.3-0.8,0.7-1,1.3c-0.2,0.6-0.3,1.5-0.3,2.9v6.7h-3.7V2015.9L-1643,2015.9z
		"/>
</g>
<circle id="XMLID_60_" class="st1" cx="-1833" cy="2000.5" r="30"/>
<g id="XMLID_1_">
	<path id="XMLID_11_" class="st2" d="M-1852.2,1989.5h4.8c0.3,0,0.6-0.2,0.6-0.5l1-4.9c0.1-0.3-0.1-0.5-0.4-0.5h-4.8
		c-0.3,0-0.6,0.2-0.6,0.5l-1,4.9C-1852.7,1989.3-1852.5,1989.5-1852.2,1989.5z M-1846.7,1997.9h4.8c0.3,0,0.6-0.2,0.6-0.5l1-4.9
		c0.1-0.3-0.1-0.5-0.4-0.5h-4.8c-0.3,0-0.6,0.2-0.6,0.5l-1,4.9C-1847.2,1997.7-1847.1,1997.9-1846.7,1997.9z"/>
	<path id="XMLID_8_" class="st2" d="M-1813.8,1989.5h-3c-0.3,0-0.5-0.2-0.4-0.5l1-4.9c0.1-0.3-0.1-0.5-0.4-0.5h-26
		c-0.3,0-0.6,0.2-0.6,0.5l-1,4.9c-0.1,0.3,0.1,0.5,0.4,0.5h6.2c0.3,0,0.5,0.2,0.4,0.5l-5.7,27c-0.1,0.3,0.1,0.5,0.4,0.5h22.7
		c0.3,0,0.6-0.2,0.6-0.5l5.7-27C-1813.3,1989.7-1813.5,1989.5-1813.8,1989.5z M-1824.9,1999.9c-0.1,0.9-0.7,1.7-1.5,2.3l-0.2,6.1
		c0,0.3-0.3,0.7-0.7,0.7h-4.2c-0.3,0-0.5-0.3-0.3-0.7l2.6-6c-0.6-0.5-0.9-1.4-0.6-2.4c0.4-1.2,1.5-2.1,2.6-2.3c0.2,0,0.3-0.1,0.5,0
		c0.2,0,0.3,0.1,0.5,0.1C-1825.3,1998-1824.8,1998.9-1824.9,1999.9z"/>
</g>
</svg>
