<?xml version="1.0" encoding="utf-8"?>
<!-- Generator: Adobe Illustrator 28.0.0, SVG Export Plug-In . SVG Version: 6.00 Build 0)  -->
<svg version="1.1" id="Layer_1" xmlns="http://www.w3.org/2000/svg" xmlns:xlink="http://www.w3.org/1999/xlink" x="0px" y="0px"
	 viewBox="0 0 398.4 91.4" style="enable-background:new 0 0 398.4 91.4;" xml:space="preserve">
<g>
	<path d="M352.2,89.7h18.4V52.8l27.7-50.2h-21.2l-24.9,46.5V89.7z"/>
	<path d="M357.4,40.9L336.6,2.6h-20.9l20.9,38.3H357.4z"/>
	<path d="M286.3,62.6l14.1,27.1h20l-17.6-32c8.1-5.6,12.9-14.6,12.9-24.9c0-16.8-10.5-30.1-33.1-30.1h-36.2v87.1h19.1V62.8
		L286.3,62.6z M265.5,18.7h17.2c9.3,0,14.8,4.9,14.8,13.8c0,9-4.9,13.3-14.2,13.3h-17.8V18.7z"/>
	<path d="M100.9,89.7h19.3V19.8H148V2.6H73.1v17.2h27.8V89.7z"/>
	<path d="M34.9,30.2v13.3c-9.8,0-16.9-4.2-16.9-13c0-8.8,6.2-14,17.4-14c9.2,0,14.8,3.8,16.1,8.8h17C67.3,11.3,54.1,0,35,0
		C14.9,0,0.6,12.5,0.6,30.9S15.5,60.1,35,60.1V47.6c10.3,0,17.4,4.6,17.4,13.6c0,9-7.3,14-17.3,14c-9.1,0-15.4-4-17.3-9.5H0
		c2.5,14.5,15.8,25.8,35,25.8c19.2,0,34.7-11.5,34.7-30.7C69.6,42.8,56.1,30.2,34.9,30.2z"/>
	<path d="M192.9,73.9c-15.4,0-26.6-12.8-26.6-28.1c0-16.7,9.9-27.7,26.6-27.7c15.4,0,27.4,11.8,27.4,27.7h17.3
		c0-24.8-19.3-45.7-44.7-45.7C165.6,0,148,19,148,45.7c0,24.8,19.5,45.7,44.9,45.7V73.9z"/>
	<path d="M192.4,81c19.4,0,34-15.3,34-35.7h-15.8c0,11-8,19-18.1,19V81z"/>
</g>
</svg>
