<svg version="1.1" id="Layer_1" xmlns="http://www.w3.org/2000/svg" xmlns:xlink="http://www.w3.org/1999/xlink" x="0px" y="0px"
	 width="100%" viewBox="0 0 1500 498" enable-background="new 0 0 1500 498" xml:space="preserve">
<path fill="#FFFFFF" opacity="1.000000" stroke="none" 
	d="
M1501.000000,347.000000 
	C1501.000000,397.653717 1501.000000,448.307465 1501.000000,499.000000 
	C1013.970642,499.000000 526.941284,499.000000 39.610386,498.670166 
	C48.999989,495.347137 49.000004,495.347137 49.000004,485.466278 
	C48.999996,329.578308 48.926254,173.690216 49.200165,17.802721 
	C49.215134,9.284073 47.965542,3.248759 39.000000,1.000000 
	C526.222168,1.000000 1013.444336,1.000000 1501.000000,1.000000 
	C1501.000000,115.362488 1501.000000,229.725296 1500.679443,344.442200 
	C1491.832397,336.957275 1483.214478,329.215088 1474.799561,321.258026 
	C1459.849609,307.121429 1445.028687,292.848267 1430.131348,278.655579 
	C1429.070557,277.644928 1427.746460,276.911041 1426.682983,275.902740 
	C1419.169556,268.779175 1411.692139,261.617523 1403.947510,254.223831 
	C1433.109131,228.308853 1461.999268,202.635178 1490.889404,176.961502 
	C1480.032349,176.001953 1469.885010,175.958893 1459.739136,176.059494 
	C1458.545776,176.071320 1457.090698,176.570755 1456.212280,177.354538 
	C1445.732056,186.705475 1435.268921,196.078339 1424.940186,205.595993 
	C1414.218506,215.475815 1403.703247,225.579544 1392.989990,235.468597 
	C1387.356445,240.668777 1381.492554,245.619614 1374.789551,251.512268 
	C1374.789551,189.244125 1374.789551,128.241791 1374.789551,67.285904 
	C1366.628174,67.285904 1359.034058,67.285904 1351.326416,67.285904 
	C1351.326416,160.592926 1351.326416,253.613724 1351.326416,346.598236 
	C1359.372559,346.598236 1367.086182,346.598236 1375.219482,346.598236 
	C1375.219482,317.336914 1375.219482,288.475281 1375.219482,259.238953 
	C1379.608521,263.087769 1383.685547,266.426575 1387.493530,270.048340 
	C1397.361816,279.434082 1407.148560,288.906372 1416.899902,298.413788 
	C1432.614990,313.735687 1448.230957,329.159485 1464.031982,344.391785 
	C1465.499512,345.806610 1467.977783,346.836395 1470.014771,346.885468 
	C1480.338013,347.134308 1490.670654,347.000000 1501.000000,347.000000 
M395.368317,259.909912 
	C386.533936,264.616425 377.710327,269.343262 368.863159,274.025604 
	C340.413757,289.082336 311.950317,304.112396 283.503113,319.173187 
	C267.247284,327.779480 251.017914,336.435760 234.766983,345.051331 
	C206.472076,360.052155 178.186966,375.071655 149.864639,390.020569 
	C129.523849,400.756683 109.114822,411.363647 88.794624,422.138336 
	C87.597725,422.772980 86.136345,424.382874 86.123352,425.553650 
	C85.946823,441.470001 86.004662,457.388916 86.004662,474.249847 
	C96.671158,468.506226 106.604408,463.129150 116.563446,457.800262 
	C141.755951,444.320190 166.955734,430.853699 192.160919,417.397308 
	C211.277267,407.191620 230.414444,397.024933 249.527817,386.813690 
	C274.002869,373.737885 298.459839,360.628235 322.931183,347.545410 
	C342.187805,337.250519 361.437988,326.943420 380.720703,316.697632 
	C403.344849,304.676361 426.084869,292.869476 448.586151,280.623230 
	C454.409332,277.453949 460.231842,273.669647 464.791901,268.948273 
	C470.514923,263.022858 471.753845,255.031769 471.038391,246.789749 
	C470.285126,238.112427 467.023071,230.512726 459.589081,226.053619 
	C446.515198,218.211533 432.959534,211.167831 419.553864,203.885071 
	C405.413666,196.203247 391.233948,188.593338 377.034180,181.022064 
	C346.900177,164.954712 316.725922,148.962860 286.599548,132.881210 
	C268.058807,122.984039 249.602661,112.928444 231.061356,103.032364 
	C200.934235,86.952560 170.757874,70.965019 140.623703,54.898376 
	C127.005257,47.637421 113.457397,40.244034 99.836906,32.986942 
	C95.426567,30.637083 90.886978,28.529802 86.000389,26.110495 
	C86.000389,41.709404 85.922768,56.537186 86.117378,71.361397 
	C86.137405,72.886688 87.407997,75.066193 88.731796,75.801300 
	C104.084587,84.326645 119.526520,92.693680 135.008881,100.983032 
	C164.391144,116.714462 193.821182,132.356583 223.219482,148.058105 
	C241.900681,158.035645 260.563019,168.048523 279.229126,178.054276 
	C303.397552,191.009521 327.540314,204.012878 351.734161,216.920425 
	C369.267151,226.274353 386.874817,235.488159 404.424835,244.810318 
	C407.368500,246.373917 410.188049,248.171097 413.514832,250.124481 
	C407.255524,253.475021 401.627747,256.487518 395.368317,259.909912 
M315.607880,257.080383 
	C319.793701,254.776520 323.979523,252.472641 328.649231,249.902435 
	C248.154526,206.914749 168.404465,164.324768 88.289093,121.539673 
	C88.289093,207.600250 88.289093,292.649872 88.289093,378.469482 
	C92.653091,376.098999 96.471939,373.996277 100.316147,371.940979 
	C130.593155,355.753479 160.856873,339.540985 191.163910,323.409882 
	C204.153656,316.495972 217.284561,309.847107 230.267288,302.920288 
	C258.536377,287.837524 286.751526,272.653625 315.607880,257.080383 
M779.832458,346.821045 
	C786.764709,346.821045 793.697021,346.821045 801.038391,346.821045 
	C801.038391,337.813812 801.038391,329.253204 801.038391,319.867371 
	C802.245544,320.926086 802.945618,321.354401 803.399048,321.965637 
	C809.993042,330.854828 818.138062,337.948425 827.994934,342.981720 
	C844.805176,351.565643 862.709290,352.806000 880.953979,349.942352 
	C902.753235,346.520752 920.282471,335.749084 933.064087,317.645386 
	C942.329590,304.521912 947.390747,289.953003 949.198364,273.880859 
	C950.830933,259.364624 950.006592,245.219879 945.899963,231.373215 
	C937.789795,204.027969 920.334961,184.887436 893.377869,175.359604 
	C880.585266,170.838165 867.146057,169.904480 853.442566,171.871292 
	C837.155334,174.208908 822.846619,180.283005 810.947815,191.646851 
	C807.493225,194.946152 804.603271,198.836700 800.804932,203.202896 
	C800.804932,157.285538 800.804932,112.362534 800.804932,67.365967 
	C793.372131,67.365967 786.324951,67.365967 779.000000,67.365967 
	C779.000000,69.209557 779.000000,70.692574 779.000000,72.175591 
	C779.000000,162.168823 778.999268,252.162048 779.007202,342.155273 
	C779.007324,343.484772 779.115356,344.814270 779.832458,346.821045 
M1220.968628,315.506683 
	C1218.045410,312.841583 1214.657837,310.535278 1212.276001,307.452026 
	C1198.750488,289.943695 1194.518433,270.094360 1197.960815,248.390625 
	C1202.402710,220.384506 1218.351440,202.375031 1245.369263,194.413345 
	C1258.095947,190.662979 1271.310181,189.988754 1283.403320,196.197815 
	C1292.792114,201.018433 1301.272339,207.608658 1311.011841,213.971069 
	C1315.833862,210.339951 1321.998779,205.697678 1328.906372,200.496140 
	C1322.194214,194.998917 1316.434570,189.478027 1309.912720,185.089752 
	C1289.596680,171.419907 1267.227905,168.219803 1243.400879,172.942337 
	C1216.200195,178.333527 1195.703735,193.058075 1183.287231,217.699371 
	C1171.334595,241.420135 1170.506958,266.639099 1178.175049,291.811646 
	C1185.163330,314.752258 1199.672119,331.681580 1221.531006,342.279144 
	C1239.725098,351.099976 1258.727173,352.519867 1278.377075,350.060455 
	C1297.093018,347.717926 1311.880859,338.241760 1324.618530,324.917297 
	C1326.692627,322.747681 1327.153809,321.038422 1324.475830,318.914307 
	C1319.962036,315.334015 1315.707886,311.425049 1311.168457,307.879791 
	C1310.572754,307.414581 1308.488770,307.875641 1307.852051,308.586517 
	C1294.674194,323.299866 1279.039185,331.710815 1258.519775,330.152344 
	C1244.572510,329.092987 1232.336426,324.653351 1220.968628,315.506683 
M735.099792,216.723053 
	C740.548401,203.097351 745.997009,189.471634 751.777466,175.015915 
	C743.791504,175.015915 736.845154,174.908173 729.909851,175.135666 
	C728.905212,175.168625 727.485718,176.625092 727.049988,177.733994 
	C723.101257,187.782654 719.326660,197.899796 715.505066,207.998383 
	C704.332275,237.522507 693.167603,267.049713 681.985168,296.570251 
	C679.051697,304.314240 676.065796,312.038422 672.713989,320.790161 
	C661.162415,290.723694 650.066162,261.754639 638.900513,232.812363 
	C631.893311,214.649292 624.817017,196.512543 617.645447,178.414032 
	C617.117004,177.080399 615.596741,175.222977 614.483398,175.184647 
	C606.426147,174.907440 598.355042,175.035873 589.693237,175.035873 
	C601.172546,202.867523 612.376648,229.907852 623.481201,256.989014 
	C635.341492,285.913361 647.075745,314.889465 659.013794,343.781525 
	C659.582581,345.158142 661.543213,346.774994 662.936646,346.854095 
	C668.917236,347.193481 674.938538,347.188873 680.920349,346.860504 
	C682.349915,346.782013 684.267944,345.269958 684.955200,343.909149 
	C687.167114,339.529480 689.019897,334.955963 690.814575,330.380066 
	C705.568237,292.763245 720.277344,255.128983 735.099792,216.723053 
M1059.143555,195.087463 
	C1059.887817,195.371948 1060.631958,195.656433 1061.474243,195.978394 
	C1062.335693,189.394623 1063.133423,183.066711 1064.005249,176.749023 
	C1064.356689,174.201859 1063.428467,172.577896 1060.890015,172.077240 
	C1046.862305,169.310501 1033.697021,171.415604 1021.891785,179.679840 
	C1013.302917,185.692474 1006.674011,193.634201 1000.164062,202.579285 
	C1000.164062,193.435822 1000.164062,184.292358 1000.164062,175.311096 
	C992.245789,175.311096 985.315552,175.311096 978.818726,175.311096 
	C978.818726,232.624756 978.818726,289.623413 978.818726,346.603516 
	C986.691467,346.603516 993.739685,346.603516 1001.000000,346.603516 
	C1001.000000,344.884277 1000.988342,343.561127 1001.001709,342.238251 
	C1001.332764,309.470032 1001.305298,276.692383 1002.163452,243.937943 
	C1002.549438,229.205261 1008.032410,216.025497 1019.506165,206.023605 
	C1030.680542,196.282761 1043.636597,192.596939 1059.143555,195.087463 
M1107.000000,321.500000 
	C1107.000000,329.916443 1107.000000,338.332886 1107.000000,346.732971 
	C1115.339600,346.732971 1122.929321,346.732971 1130.715088,346.732971 
	C1130.715088,289.460052 1130.715088,232.454361 1130.715088,175.355133 
	C1122.717407,175.355133 1115.009277,175.355133 1107.000000,175.355133 
	C1107.000000,223.973068 1107.000000,272.236542 1107.000000,321.500000 
M1118.569336,91.000252 
	C1108.968750,91.582077 1101.579102,98.134995 1101.889038,109.564186 
	C1102.070435,116.249741 1105.718506,120.878761 1110.668945,123.521744 
	C1116.026001,126.381813 1122.689453,126.428406 1128.190796,123.080803 
	C1134.854858,119.025650 1137.820557,110.436043 1135.803711,103.592117 
	C1133.594727,96.096786 1127.982178,91.781769 1118.569336,91.000252 
z"/>
<path fill="#35C2F2" opacity="1.000000" stroke="none" 
	d="
M38.533138,1.000000 
	C47.965542,3.248759 49.215134,9.284073 49.200165,17.802721 
	C48.926254,173.690216 48.999996,329.578308 49.000004,485.466278 
	C49.000004,495.347137 48.999989,495.347137 39.154434,498.670166 
	C33.977909,499.000000 28.955816,499.000000 23.308491,498.667847 
	C16.070496,496.751862 10.713454,493.100159 6.531513,487.884613 
	C4.364620,485.182098 2.823714,481.977661 1.000002,479.000000 
	C1.000000,326.312439 1.000000,173.624878 1.371422,20.450144 
	C2.756363,18.222376 3.781755,16.488565 4.781325,14.739994 
	C8.889925,7.552724 15.801967,4.087883 23.000000,1.000000 
	C28.022093,1.000000 33.044186,1.000000 38.533138,1.000000 
z"/>
<path fill="#35C2F2" opacity="1.000000" stroke="none" 
	d="
M1501.000000,346.666687 
	C1490.670654,347.000000 1480.338013,347.134308 1470.014771,346.885468 
	C1467.977783,346.836395 1465.499512,345.806610 1464.031982,344.391785 
	C1448.230957,329.159485 1432.614990,313.735687 1416.899902,298.413788 
	C1407.148560,288.906372 1397.361816,279.434082 1387.493530,270.048340 
	C1383.685547,266.426575 1379.608521,263.087769 1375.219482,259.238953 
	C1375.219482,288.475281 1375.219482,317.336914 1375.219482,346.598236 
	C1367.086182,346.598236 1359.372559,346.598236 1351.326416,346.598236 
	C1351.326416,253.613724 1351.326416,160.592926 1351.326416,67.285904 
	C1359.034058,67.285904 1366.628174,67.285904 1374.789551,67.285904 
	C1374.789551,128.241791 1374.789551,189.244125 1374.789551,251.512268 
	C1381.492554,245.619614 1387.356445,240.668777 1392.989990,235.468597 
	C1403.703247,225.579544 1414.218506,215.475815 1424.940186,205.595993 
	C1435.268921,196.078339 1445.732056,186.705475 1456.212280,177.354538 
	C1457.090698,176.570755 1458.545776,176.071320 1459.739136,176.059494 
	C1469.885010,175.958893 1480.032349,176.001953 1490.889404,176.961502 
	C1461.999268,202.635178 1433.109131,228.308853 1403.947510,254.223831 
	C1411.692139,261.617523 1419.169556,268.779175 1426.682983,275.902740 
	C1427.746460,276.911041 1429.070557,277.644928 1430.131348,278.655579 
	C1445.028687,292.848267 1459.849609,307.121429 1474.799561,321.258026 
	C1483.214478,329.215088 1491.832397,336.957275 1500.679443,344.898132 
	C1501.000000,345.444458 1501.000000,345.888885 1501.000000,346.666687 
z"/>
<path fill="#FFFFFF" opacity="1.000000" stroke="none" 
	d="
M1.000002,479.469055 
	C2.823714,481.977661 4.364620,485.182098 6.531513,487.884613 
	C10.713454,493.100159 16.070496,496.751862 22.841629,498.667847 
	C15.744079,499.000000 8.488157,499.000000 1.000000,499.000000 
	C1.000000,492.647888 1.000000,486.292999 1.000002,479.469055 
z"/>
<path fill="#FFFFFF" opacity="1.000000" stroke="none" 
	d="
M22.531218,1.000000 
	C15.801967,4.087883 8.889925,7.552724 4.781325,14.739994 
	C3.781755,16.488565 2.756363,18.222376 1.371422,19.981487 
	C1.000000,13.735092 1.000000,7.470185 1.000000,1.000000 
	C8.019485,1.000000 15.040959,1.000000 22.531218,1.000000 
z"/>
<path fill="#35C2F2" opacity="1.000000" stroke="none" 
	d="
M395.684143,259.704956 
	C401.627747,256.487518 407.255524,253.475021 413.514832,250.124481 
	C410.188049,248.171097 407.368500,246.373917 404.424835,244.810318 
	C386.874817,235.488159 369.267151,226.274353 351.734161,216.920425 
	C327.540314,204.012878 303.397552,191.009521 279.229126,178.054276 
	C260.563019,168.048523 241.900681,158.035645 223.219482,148.058105 
	C193.821182,132.356583 164.391144,116.714462 135.008881,100.983032 
	C119.526520,92.693680 104.084587,84.326645 88.731796,75.801300 
	C87.407997,75.066193 86.137405,72.886688 86.117378,71.361397 
	C85.922768,56.537186 86.000389,41.709404 86.000389,26.110495 
	C90.886978,28.529802 95.426567,30.637083 99.836906,32.986942 
	C113.457397,40.244034 127.005257,47.637421 140.623703,54.898376 
	C170.757874,70.965019 200.934235,86.952560 231.061356,103.032364 
	C249.602661,112.928444 268.058807,122.984039 286.599548,132.881210 
	C316.725922,148.962860 346.900177,164.954712 377.034180,181.022064 
	C391.233948,188.593338 405.413666,196.203247 419.553864,203.885071 
	C432.959534,211.167831 446.515198,218.211533 459.589081,226.053619 
	C467.023071,230.512726 470.285126,238.112427 471.038391,246.789749 
	C471.753845,255.031769 470.514923,263.022858 464.791901,268.948273 
	C460.231842,273.669647 454.409332,277.453949 448.586151,280.623230 
	C426.084869,292.869476 403.344849,304.676361 380.720703,316.697632 
	C361.437988,326.943420 342.187805,337.250519 322.931183,347.545410 
	C298.459839,360.628235 274.002869,373.737885 249.527817,386.813690 
	C230.414444,397.024933 211.277267,407.191620 192.160919,417.397308 
	C166.955734,430.853699 141.755951,444.320190 116.563446,457.800262 
	C106.604408,463.129150 96.671158,468.506226 86.004662,474.249847 
	C86.004662,457.388916 85.946823,441.470001 86.123352,425.553650 
	C86.136345,424.382874 87.597725,422.772980 88.794624,422.138336 
	C109.114822,411.363647 129.523849,400.756683 149.864639,390.020569 
	C178.186966,375.071655 206.472076,360.052155 234.766983,345.051331 
	C251.017914,336.435760 267.247284,327.779480 283.503113,319.173187 
	C311.950317,304.112396 340.413757,289.082336 368.863159,274.025604 
	C377.710327,269.343262 386.533936,264.616425 395.684143,259.704956 
z"/>
<path fill="#426FB6" opacity="1.000000" stroke="none" 
	d="
M315.298279,257.295715 
	C286.751526,272.653625 258.536377,287.837524 230.267288,302.920288 
	C217.284561,309.847107 204.153656,316.495972 191.163910,323.409882 
	C160.856873,339.540985 130.593155,355.753479 100.316147,371.940979 
	C96.471939,373.996277 92.653091,376.098999 88.289093,378.469482 
	C88.289093,292.649872 88.289093,207.600250 88.289093,121.539673 
	C168.404465,164.324768 248.154526,206.914749 328.649231,249.902435 
	C323.979523,252.472641 319.793701,254.776520 315.298279,257.295715 
z"/>
<path fill="#35C2F2" opacity="1.000000" stroke="none" 
	d="
M779.502686,346.482422 
	C779.115356,344.814270 779.007324,343.484772 779.007202,342.155273 
	C778.999268,252.162048 779.000000,162.168823 779.000000,72.175591 
	C779.000000,70.692574 779.000000,69.209557 779.000000,67.365967 
	C786.324951,67.365967 793.372131,67.365967 800.804932,67.365967 
	C800.804932,112.362534 800.804932,157.285538 800.804932,203.202896 
	C804.603271,198.836700 807.493225,194.946152 810.947815,191.646851 
	C822.846619,180.283005 837.155334,174.208908 853.442566,171.871292 
	C867.146057,169.904480 880.585266,170.838165 893.377869,175.359604 
	C920.334961,184.887436 937.789795,204.027969 945.899963,231.373215 
	C950.006592,245.219879 950.830933,259.364624 949.198364,273.880859 
	C947.390747,289.953003 942.329590,304.521912 933.064087,317.645386 
	C920.282471,335.749084 902.753235,346.520752 880.953979,349.942352 
	C862.709290,352.806000 844.805176,351.565643 827.994934,342.981720 
	C818.138062,337.948425 809.993042,330.854828 803.399048,321.965637 
	C802.945618,321.354401 802.245544,320.926086 801.038391,319.867371 
	C801.038391,329.253204 801.038391,337.813812 801.038391,346.821045 
	C793.697021,346.821045 786.764709,346.821045 779.502686,346.482422 
M924.121155,236.363312 
	C920.685547,223.448715 913.450989,212.723694 903.049683,204.809525 
	C877.807922,185.603409 844.135254,187.777344 820.980103,209.719101 
	C802.615479,227.121506 795.726807,248.982437 800.041199,273.982483 
	C803.935242,296.547211 816.751648,312.961182 836.622437,323.760498 
	C847.018066,329.410248 858.433716,330.799805 870.294434,330.096649 
	C886.864014,329.114319 900.849792,322.345337 911.140869,309.988098 
	C929.034851,288.501709 931.773560,263.524261 924.121155,236.363312 
z"/>
<path fill="#35C2F2" opacity="1.000000" stroke="none" 
	d="
M1221.232666,315.755951 
	C1232.336426,324.653351 1244.572510,329.092987 1258.519775,330.152344 
	C1279.039185,331.710815 1294.674194,323.299866 1307.852051,308.586517 
	C1308.488770,307.875641 1310.572754,307.414581 1311.168457,307.879791 
	C1315.707886,311.425049 1319.962036,315.334015 1324.475830,318.914307 
	C1327.153809,321.038422 1326.692627,322.747681 1324.618530,324.917297 
	C1311.880859,338.241760 1297.093018,347.717926 1278.377075,350.060455 
	C1258.727173,352.519867 1239.725098,351.099976 1221.531006,342.279144 
	C1199.672119,331.681580 1185.163330,314.752258 1178.175049,291.811646 
	C1170.506958,266.639099 1171.334595,241.420135 1183.287231,217.699371 
	C1195.703735,193.058075 1216.200195,178.333527 1243.400879,172.942337 
	C1267.227905,168.219803 1289.596680,171.419907 1309.912720,185.089752 
	C1316.434570,189.478027 1322.194214,194.998917 1328.906372,200.496140 
	C1321.998779,205.697678 1315.833862,210.339951 1311.011841,213.971069 
	C1301.272339,207.608658 1292.792114,201.018433 1283.403320,196.197815 
	C1271.310181,189.988754 1258.095947,190.662979 1245.369263,194.413345 
	C1218.351440,202.375031 1202.402710,220.384506 1197.960815,248.390625 
	C1194.518433,270.094360 1198.750488,289.943695 1212.276001,307.452026 
	C1214.657837,310.535278 1218.045410,312.841583 1221.232666,315.755951 
z"/>
<path fill="#35C2F2" opacity="1.000000" stroke="none" 
	d="
M735.049927,217.111526 
	C720.277344,255.128983 705.568237,292.763245 690.814575,330.380066 
	C689.019897,334.955963 687.167114,339.529480 684.955200,343.909149 
	C684.267944,345.269958 682.349915,346.782013 680.920349,346.860504 
	C674.938538,347.188873 668.917236,347.193481 662.936646,346.854095 
	C661.543213,346.774994 659.582581,345.158142 659.013794,343.781525 
	C647.075745,314.889465 635.341492,285.913361 623.481201,256.989014 
	C612.376648,229.907852 601.172546,202.867523 589.693237,175.035873 
	C598.355042,175.035873 606.426147,174.907440 614.483398,175.184647 
	C615.596741,175.222977 617.117004,177.080399 617.645447,178.414032 
	C624.817017,196.512543 631.893311,214.649292 638.900513,232.812363 
	C650.066162,261.754639 661.162415,290.723694 672.713989,320.790161 
	C676.065796,312.038422 679.051697,304.314240 681.985168,296.570251 
	C693.167603,267.049713 704.332275,237.522507 715.505066,207.998383 
	C719.326660,197.899796 723.101257,187.782654 727.049988,177.733994 
	C727.485718,176.625092 728.905212,175.168625 729.909851,175.135666 
	C736.845154,174.908173 743.791504,175.015915 751.777466,175.015915 
	C745.997009,189.471634 740.548401,203.097351 735.049927,217.111526 
z"/>
<path fill="#35C2F2" opacity="1.000000" stroke="none" 
	d="
M1058.718506,195.049057 
	C1043.636597,192.596939 1030.680542,196.282761 1019.506165,206.023605 
	C1008.032410,216.025497 1002.549438,229.205261 1002.163452,243.937943 
	C1001.305298,276.692383 1001.332764,309.470032 1001.001709,342.238251 
	C1000.988342,343.561127 1001.000000,344.884277 1001.000000,346.603516 
	C993.739685,346.603516 986.691467,346.603516 978.818726,346.603516 
	C978.818726,289.623413 978.818726,232.624756 978.818726,175.311096 
	C985.315552,175.311096 992.245789,175.311096 1000.164062,175.311096 
	C1000.164062,184.292358 1000.164062,193.435822 1000.164062,202.579285 
	C1006.674011,193.634201 1013.302917,185.692474 1021.891785,179.679840 
	C1033.697021,171.415604 1046.862305,169.310501 1060.890015,172.077240 
	C1063.428467,172.577896 1064.356689,174.201859 1064.005249,176.749023 
	C1063.133423,183.066711 1062.335693,189.394623 1061.474243,195.978394 
	C1060.631958,195.656433 1059.887817,195.371948 1058.718506,195.049057 
z"/>
<path fill="#35C2F2" opacity="1.000000" stroke="none" 
	d="
M1107.000000,321.000000 
	C1107.000000,272.236542 1107.000000,223.973068 1107.000000,175.355133 
	C1115.009277,175.355133 1122.717407,175.355133 1130.715088,175.355133 
	C1130.715088,232.454361 1130.715088,289.460052 1130.715088,346.732971 
	C1122.929321,346.732971 1115.339600,346.732971 1107.000000,346.732971 
	C1107.000000,338.332886 1107.000000,329.916443 1107.000000,321.000000 
z"/>
<path fill="#35C2F2" opacity="1.000000" stroke="none" 
	d="
M1118.997314,91.000252 
	C1127.982178,91.781769 1133.594727,96.096786 1135.803711,103.592117 
	C1137.820557,110.436043 1134.854858,119.025650 1128.190796,123.080803 
	C1122.689453,126.428406 1116.026001,126.381813 1110.668945,123.521744 
	C1105.718506,120.878761 1102.070435,116.249741 1101.889038,109.564186 
	C1101.579102,98.134995 1108.968750,91.582077 1118.997314,91.000252 
z"/>
<path fill="#FFFFFF" opacity="1.000000" stroke="none" 
	d="
M924.333130,236.710938 
	C931.773560,263.524261 929.034851,288.501709 911.140869,309.988098 
	C900.849792,322.345337 886.864014,329.114319 870.294434,330.096649 
	C858.433716,330.799805 847.018066,329.410248 836.622437,323.760498 
	C816.751648,312.961182 803.935242,296.547211 800.041199,273.982483 
	C795.726807,248.982437 802.615479,227.121506 820.980103,209.719101 
	C844.135254,187.777344 877.807922,185.603409 903.049683,204.809525 
	C913.450989,212.723694 920.685547,223.448715 924.333130,236.710938 
z"/>
</svg>