<?xml version="1.0" encoding="utf-8"?>
<!-- Generator: Adobe Illustrator 27.3.1, SVG Export Plug-In . SVG Version: 6.00 Build 0)  -->
<svg version="1.1" id="Layer_1" xmlns="http://www.w3.org/2000/svg" xmlns:xlink="http://www.w3.org/1999/xlink" x="0px" y="0px"
	 viewBox="0 0 577 174" style="enable-background:new 0 0 577 174;" xml:space="preserve">
<style type="text/css">
	.st0{fill:#F80E00;}
</style>
<path class="st0" d="M69.9,128h25.6l11.2,27.5h23.2l-36-85.8L69.9,128z M18.6,20.4v135.2L74.7,20.4H18.6z M113.9,20.4l56,135.2V20.4
	H113.9z"/>
<path class="st0" d="M527.7,82.8c-7.8,0-11.2,5.9-12.1,11.4h19c1.3,0.1,2.7,0,4-0.1v-0.9C538.5,89.9,536.3,82.8,527.7,82.8z
	 M279.5,66h-0.1c-1.8,7.5-6.3,20.6-9.7,30.7h19.7C287,89.3,281.7,73.8,279.5,66z M349.4,83.3c-10,0-17.5,6.4-17.5,17.2
	c0,12.2,7.3,17.2,16.3,17.2c2.2,0,4.4-0.3,6.5-0.9V84.1h-0.1C352.9,83.5,351.1,83.2,349.4,83.3L349.4,83.3z M405.5,83.3
	c-7.5,0-12.9,6.6-12.9,17.2c0,10.3,5,17.4,13.6,17.4c7,0,12.9-5.7,12.9-17.2C419.1,91.4,415.1,83.3,405.5,83.3L405.5,83.3z
	 M465.1,83.5c-2.7-0.1-5.4,0.3-7.9,1.2v32.7c1.7,0.4,3.4,0.6,5.2,0.5c9.2,0,17.7-5.8,17.7-18.2C480.1,89.1,474,83.5,465.1,83.5
	L465.1,83.5z M287.1,54.8c0.6,0,0.7,0.1,0.8,0.7l26,71.8c0.1,0.7,0,1-0.7,1h-12.6c-0.5,0-0.9-0.2-1.1-0.7l-6.5-18.6h-26.9v0
	l-6.1,18.4c-0.1,0.6-0.6,1-1.2,0.9h-11.2c-0.7,0-0.9-0.3-0.8-1.1l23.1-65.5c0.5-1.1,0.8-2.2,1-6c0-0.5,0.2-0.8,0.7-0.8L287.1,54.8z
	 M456,48.6c0.8,0,1,0.1,1,0.9l0.1,24c3.3-1.1,6.8-1.6,10.3-1.5c16.2,0,26.5,11.4,26.5,26.4c0,20.7-16.2,30.9-32.8,30.9
	c-5.7,0-11.4-0.8-16.8-2.5c-0.4-0.2-0.7-0.5-0.8-1V49.4c0-0.4,0.2-0.7,0.6-0.8c0.1,0,0.1,0,0.2,0L456,48.6z M406.2,72
	c17.3,0,26.7,13.1,26.7,28.4c0,17.3-11.1,28.9-27,28.9c-18.8,0-27.1-14.4-27.1-28.6C378.9,84.9,389.4,72,406.2,72z M367.5,48.6
	c0.5,0,0.5,0.2,0.6,0.6v67.6c0,2.2,0.2,5.1,0.4,7.2c0.1,0.5-0.2,0.9-0.7,1c-6.7,2.9-13.9,4.4-21.2,4.3c-16.3,0.1-28.7-9.4-28.7-28.1
	C317.9,85,330,72,349.8,72c1.6,0,3.2,0.1,4.8,0.3V49.4c0-0.6,0.2-0.8,0.7-0.8L367.5,48.6z M528.3,72.1c16.6,0,23,13,23,23.6
	c0.1,2.3-0.1,4.7-0.5,7c-0.1,0.4-0.5,0.7-0.9,0.8c-3.7,0.4-7.4,0.5-11.1,0.4h-23.2v0.2c0.4,7.7,5.6,13.8,16.9,13.8
	c4.8,0.1,9.5-0.9,13.9-2.7c0.3-0.2,0.7-0.1,0.7,0.5v9.3c0.1,0.5-0.2,1-0.7,1.2c-4.2,2-9.2,3.2-16.8,3.2c-20.5,0-27.7-14.3-27.7-28
	C501.9,85.8,511.4,72.1,528.3,72.1L528.3,72.1z"/>
</svg>
