<?xml version="1.0" encoding="utf-8"?>
<!-- Generator: Adobe Illustrator 27.3.1, SVG Export Plug-In . SVG Version: 6.00 Build 0)  -->
<svg version="1.1" id="Layer_1" xmlns="http://www.w3.org/2000/svg" xmlns:xlink="http://www.w3.org/1999/xlink" x="0px" y="0px"
	 viewBox="0 0 501 169" style="enable-background:new 0 0 501 169;" xml:space="preserve">
<path d="M266.2,108.2c0,14.2-17.7,13.4-17.7,13.4h-17.7V95.8h17.7C266.8,95.7,266.2,108.2,266.2,108.2 M230.8,56.6h13.5
	c14,0.7,13.5,11.2,13.5,11.2c0,13-15.5,13.2-15.5,13.2h-11.5L230.8,56.6z M263,86c0,0,12.1-5.2,12-18.9c0,0,1.9-22.5-27.9-25.2H214
	v94.2h37.9c0,0,31.6,0.1,31.6-26.6C283.5,109.5,284.3,91.4,263,86 M177.4,23.4h139.1v131.1H177.4V23.4z M105.8,108.2
	c0,14.2-17.7,13.4-17.7,13.4H70.3V95.8h17.7C106.3,95.7,105.8,108.2,105.8,108.2 M70.3,56.6h13.5c14,0.7,13.5,11.2,13.5,11.2
	c0,13-15.5,13.2-15.5,13.2H70.3V56.6z M102.5,86c0,0,12.1-5.2,12-18.9c0,0,1.8-22.5-27.9-25.2h-33v94.2h37.9c0,0,31.6,0.1,31.6-26.6
	C123.1,109.5,123.8,91.4,102.5,86 M17,23.5h139.1v131.1H17V23.5z M448.6,48.7v17.4c0,0-17-10.5-35.8-10.7c0,0-35-0.7-36.6,33.6
	c0,0-1.3,31.5,36.2,33.3c0,0,15.7,1.9,37-11.7v18c0,0-28.6,17-61.7,3.9c0,0-27.9-10.2-28.9-43.5c0,0-1.2-34.3,36-45.7
	c0,0,9.9-3.8,27.8-2.1C422.5,41.2,433.2,42.2,448.6,48.7 M337.9,154.5H477V23.5H337.9V154.5z"/>
</svg>
