<?xml version="1.0" encoding="utf-8"?>
<!-- Generator: Adobe Illustrator 27.3.1, SVG Export Plug-In . SVG Version: 6.00 Build 0)  -->
<svg version="1.1" id="Layer_1" xmlns="http://www.w3.org/2000/svg" xmlns:xlink="http://www.w3.org/1999/xlink" x="0px" y="0px"
	 viewBox="0 0 539 147" style="enable-background:new 0 0 539 147;" xml:space="preserve">
<style type="text/css">
	.st0{clip-path:url(#SVGID_00000003783716693781276670000011129856580921678777_);}
	.st1{fill:#003366;}
</style>
<g>
	<defs>
		<rect id="SVGID_1_" x="-38" width="622" height="147"/>
	</defs>
	<clipPath id="SVGID_00000123439171873015917250000005209501844172041125_">
		<use xlink:href="#SVGID_1_"  style="overflow:visible;"/>
	</clipPath>
	<g id="a" style="clip-path:url(#SVGID_00000123439171873015917250000005209501844172041125_);">
		<g transform="translate(61 30)">
			<path class="st1" d="M140.1,88C122,88,105.2,82.6,94,72.5c-8.1-7.3-12.7-17.7-12.6-28.6c0-10.8,4.5-21.2,12.6-28.5
				C104.4,6,122.8,0,140.1,0c19.2,0,34.5,4.8,46.2,15.5c8,7.3,12.5,17.7,12.4,28.5c-0.1,10.8-4.5,21.1-12.4,28.6
				C175.4,82.7,158.3,88,140.1,88V76.4c9.6,0,18.5-3.3,24.8-9.5s9.1-13.7,9.1-23c0-8.9-3.1-17.1-9.1-23c-6.1-6.1-15.3-9.5-24.8-9.5
				s-18.6,3.4-24.8,9.5c-5.9,5.9-9,14.2-9,23c-0.2,8.6,3.1,16.8,9,23c6.1,6.1,15.3,9.5,24.8,9.5V88z"/>
			<path class="st1" d="M7.8,0c-9.7,0-20.7,1.8-30,6C-30.9,9.9-38,16.1-38,26.4c0,5.4,2,10.6,5.8,14.6c2.5,2.3,6.6,6.3,17.1,8.6
				c4.7,1,14.8,2.6,24.9,3.7s19.8,2,23.8,3.1c3.2,0.8,8.5,1.9,8.5,7.9s-5.6,7.8-6.6,8.2s-7.7,3.5-19.9,3.5c-8-0.2-16-1.6-23.7-4.1
				c-4.5-1.6-9.3-3.8-13.7-9.2c-1.8-2.5-2.8-5.6-2.9-8.7h-11v30.8h12.2v-4.2c0-1,0.8-1.7,1.7-1.8c0.3,0,0.6,0.1,0.9,0.3
				c5.8,2.5,11.7,4.4,17.9,5.8c6.4,1.3,10.6,2.3,18.5,2.3c8.4,0.2,16.8-1,24.9-3.5c5.3-1.5,10.4-3.9,14.8-7.3c5-3.9,8-9.9,7.9-16.2
				c0-5.9-2.3-11.7-6.4-15.9c-2.3-2.2-5-4.1-7.9-5.4c-3.1-1.4-6.4-2.6-9.7-3.4c-6.3-1.6-20.6-3.5-27.4-4.2
				C4.8,30.6-7.6,29.5-12.6,28c-1.5-0.5-4.6-1.9-4.6-5.5c0-2.5,1.4-4.7,4.2-6.4c4.4-2.8,13.3-4.5,22.5-4.5
				c8.9-0.1,17.8,1.6,26.1,5.1c2.2,1,4.3,2.2,6.2,3.7c3.1,2.6,5.2,6.2,6.1,10.2h9.9V3.9h-11V7c0,1-1,2.3-3,1.2
				C38.8,5.7,24.8,0.1,7.8,0z"/>
			<path class="st1" d="M249.2,4.9L303,53.4l-0.5-32.7c0-4.3-0.8-6.1-5.5-6.1h-10.1V4.9h46v9.8H323c-4.7,0-5,1.5-5.1,6.1l0.8,62.4
				H303l-61.9-55.3v39.2c0.1,4.3,0.2,6.3,4.6,6.3h11v9.8h-45.1v-9.8h10.6c3.9,0,3.8-3.8,3.8-6.5V21.1c0-3-0.4-6.4-6.6-6.4h-8.6V4.9
				H249.2z"/>
			<path class="st1" d="M385.4,73.4c0.9,0,1.8-0.1,2.7-0.2c0.9-0.3,1.7-1,2.1-1.9c0.1-0.7,0.2-1.4,0.2-2.1V53.8c0-0.5,0-0.5-0.7-1.3
				s-28.2-32-29.4-33.4c-1.6-1.7-4.3-4.3-8.5-4.3h-9.5V4.9h53.9v9.8h-6.5c-1.5,0-2.5,1.4-1.2,3c0,0,18.1,21.7,18.3,21.9
				s0.3,0.3,0.5,0.1s18.6-21.8,18.7-22c0.6-0.8,0.5-2-0.4-2.6c-0.4-0.3-0.8-0.4-1.2-0.4h-6.7V4.9H462v9.8h-9.9c-3.6,0-5,0.7-7.7,3.7
				l-29.8,33.9c-0.3,0.4-0.4,0.9-0.4,1.4v15.4c0,0.7,0.1,1.4,0.2,2.1c0.4,0.9,1.2,1.6,2.1,1.9c0.9,0.1,1.8,0.2,2.7,0.2h10.1v9.8
				h-53.6v-9.8L385.4,73.4z"/>
		</g>
	</g>
</g>
</svg>
