<svg id="Layer_1" data-name="Layer 1" xmlns="http://www.w3.org/2000/svg" viewBox="0 0 700 700"><defs><style>.cls-1{fill:#1d9eef;}</style></defs><path class="cls-1" d="M308.51,440c84.4,0,130.55-69.24,130.55-129.29,0-2,0-3.92-.13-5.87a92.9,92.9,0,0,0,22.89-23.53,92.2,92.2,0,0,1-26.35,7.15,45.74,45.74,0,0,0,20.18-25.13,93,93,0,0,1-29.14,11A46,46,0,0,0,393,260c-25.34,0-45.89,20.35-45.89,45.44a45.39,45.39,0,0,0,1.19,10.36,130.7,130.7,0,0,1-94.57-47.48A45.17,45.17,0,0,0,268,329a45.82,45.82,0,0,1-20.78-5.68c0,.19,0,.38,0,.58A45.58,45.58,0,0,0,284,368.43,46.34,46.34,0,0,1,271.88,370a45.42,45.42,0,0,1-8.63-.82,45.88,45.88,0,0,0,42.86,31.57,92.59,92.59,0,0,1-57,19.45,94.29,94.29,0,0,1-10.95-.63A130.82,130.82,0,0,0,308.52,440"/></svg>