<svg id="Layer_1" data-name="Layer 1" xmlns="http://www.w3.org/2000/svg" viewBox="0 0 700 700"><defs><style>.cls-1{fill:#09a5e8;}.cls-1,.cls-2,.cls-3,.cls-4{fill-rule:evenodd;}.cls-2{fill:#0980c5;}.cls-3{fill:#09c9fb;}.cls-4,.cls-5{fill:#2f3f83;}</style></defs><path class="cls-1" d="M151.92,358.93a6.16,6.16,0,0,0,12.31,0,23.05,23.05,0,1,1,14.1,21.27,6.16,6.16,0,1,0-4.8,11.34,35.4,35.4,0,1,0-21.61-32.61Z"/><path class="cls-1" d="M109.91,358.63a77.64,77.64,0,0,0,18.51,50.31,6.28,6.28,0,0,0,9.57-8.13,65.19,65.19,0,1,1,109-69.39,6.28,6.28,0,0,0,12-2.57v-.11a6.3,6.3,0,0,0-.57-2.56,77.8,77.8,0,0,0-148.47,32.45Z"/><path class="cls-2" d="M258,344.4a6.31,6.31,0,0,0-5.51,7,67.31,67.31,0,0,1,.39,7.25c0,36.19-29,65.64-64.58,65.64a63.63,63.63,0,0,1-34-9.85,6.18,6.18,0,0,0-8.58,2,6.4,6.4,0,0,0,2,8.72c12.18,7.69,26.22,11.15,40.62,11.15,42.47,0,77-34.52,77-77.69a82.72,82.72,0,0,0-.46-8.63,6.28,6.28,0,0,0-6.2-5.63Z"/><path class="cls-3" d="M226.5,379A43.32,43.32,0,0,1,207,398.26a6.4,6.4,0,0,0-2.93,8.42,6.15,6.15,0,0,0,5.57,3.62,5.92,5.92,0,0,0,2.63-.61,55.75,55.75,0,0,0,25.11-24.85,6.41,6.41,0,0,0-2.61-8.53,6,6,0,0,0-2.84-.72A6.14,6.14,0,0,0,226.5,379Z"/><path class="cls-2" d="M159.67,310.6a6.53,6.53,0,0,0-2.14,8.82,6.16,6.16,0,0,0,8.58,2.2,42.06,42.06,0,0,1,22.14-6.29c23.71,0,43,19.82,43,44.18a6.26,6.26,0,1,0,12.51,0c0-31.45-24.9-57-55.51-57A54.31,54.31,0,0,0,159.67,310.6Z"/><path class="cls-3" d="M140,329.5c-6,9-8.54,19.52-8.54,30.35,0,30.62,25.86,55.53,55.57,55.53a6.26,6.26,0,1,0,0-12.51c-24,0-43.5-19.3-43.5-43a42.51,42.51,0,0,1,7.06-23.51,6.2,6.2,0,0,0-1.83-8.66A6.37,6.37,0,0,0,140,329.5Z"/><path class="cls-3" d="M256.09,282.61a6.17,6.17,0,1,1,6.17,6.16A6.18,6.18,0,0,1,256.09,282.61Zm-12.33,0a18.5,18.5,0,1,0,18.5-18.5A18.52,18.52,0,0,0,243.76,282.61Z"/><path class="cls-4" d="M479.76,341.44H489c.26,1.48.5,2.88.81,4.68,12.39-10.94,34.8-4,36.48,12.86,1.35,9.56-.57,18.32-9.52,23.69s-17.9,5-26.92-1.76V401.4h-10Zm23,8.4c-7.72,0-13.11,5.55-13.16,13.54,0,18.57,26.37,18.44,26.54.28C516.22,355.43,510.8,349.84,502.79,349.84Z"/><path class="cls-4" d="M466.07,373l5.2,5.61c-7.93,7.75-17.2,8.12-25.1,6.7-8.78-1.57-14.78-7.34-16.69-16.28s.1-17,7.39-23.15c15.9-12.41,40.85-.87,37,20.88h-34c1.7,10.9,13.79,13.63,26.17,6.24m-26.46-13.29h24.46c-1.3-6.89-5.72-10.62-12.25-10.53s-11,3.81-12.21,10.53"/><path class="cls-4" d="M380.35,341.51H391c0,8.59-.12,16.75,0,25.22.26,6.45,3.33,9.79,9.14,10.19,14.36.51,13.25-11.06,13.2-21.35.06-4.57,0-9.21,0-14.06h10.3v44h-9.46c-.16-1.43-.31-3-.52-4.79-9.92,9.35-30.38,6.8-32.52-7.86-1.27-10.53-.76-20.56-.84-31.38"/><polygon class="cls-4" points="330.58 385.54 319.77 385.54 319.77 336.77 300.45 336.77 300.45 327.66 349.3 327.66 349.3 336.77 330.58 336.77 330.58 385.54"/><path class="cls-4" d="M590.09,351.13l-7.73,4.53c-5.25-7-16.18-8.21-21.91-1.16-4.39,5.36-3.8,14.84,1.18,19.44,5.49,5.05,13.82,4.2,20.67-2.48l7.41,4.11c-6.09,9.33-15,12.1-24.48,10.09-10-2.11-17.47-10-18.14-20-2.38-24.28,30.45-34.05,43-14.51"/><path class="cls-4" d="M351.12,341.51h9.27c.25,1.51.48,2.87.8,4.77,4.49-3.44,9.16-5.87,15.1-5v9c-8.54.32-14.91,3.58-15,12.94-.21,7.48,0,14.86-.05,22.37H351.12Z"/><rect class="cls-5" x="531.83" y="341.6" width="9.95" height="43.86"/><path class="cls-4" d="M543.39,327.7a6.48,6.48,0,0,1-6.58,6.48,6.3,6.3,0,1,1,.22-12.56,6.21,6.21,0,0,1,6.36,6.08"/></svg>