<?xml version="1.0" encoding="utf-8"?>
<!-- Generator: Adobe Illustrator 28.0.0, SVG Export Plug-In . SVG Version: 6.00 Build 0)  -->
<svg version="1.1" id="Layer_1" xmlns="http://www.w3.org/2000/svg" xmlns:xlink="http://www.w3.org/1999/xlink" x="0px" y="0px"
	 viewBox="0 0 693.8 450" style="enable-background:new 0 0 693.8 450;" xml:space="preserve">
<style type="text/css">
	.st0{fill:#FFFFFF;}
	.st1{fill:#8B989E;}
	.st2{fill:#000010;}
	.st3{fill:none;}
</style>
<rect class="st0" width="693.8" height="450"/>
<g>
	<path class="st1" d="M156.3,298c0,3.6-2.4,6.1-5.8,6.1s-6-3.7-6-7.2s-4-5.8-7.7-5.8c-10.6,0-14.9,10.9-14.9,19.8
		c0,10.9,5.7,23.4,18.1,23.4c7.2,0,13.2-4.9,16.3-10.9l2.3,1.2c-5.7,11.4-11.9,18.3-23.4,18.3c-7.5,0-22.7-4.1-22.7-28.5
		c0-15.2,11.1-27.5,26.6-27.5C145.2,286.9,156.3,290.1,156.3,298z"/>
	<path class="st1" d="M180.4,286.6v2.3c-5,0-6.7,2.8-6.7,5.2c0.2,2.1,0.8,4.1,1.7,5.9l12.1,29.2l12-27.6c1.7-4.6,1.8-6.2,1.8-7.5
		c0.1-2.8-2-5.1-4.8-5.2c-0.1,0-0.2,0-0.3,0v-2.3h18.2v2.3c-4.6,0.7-7.7,6.4-9.4,11l-19.1,44.8c-3.1,8.4-6.8,17.1-11.9,21.2
		c-2.5,1.9-5.5,2.8-8.6,2.7c-3.5,0-7-2-7-5.6c-0.2-2.8,2-5.2,4.8-5.4c0.2,0,0.4,0,0.6,0c4,0,4.6,2.3,8.1,2.3s7-7.6,9.2-13.4l1.4-3.6
		L163,297.6c-1.6-3.7-3.1-8.4-7.2-8.7v-2.3L180.4,286.6z"/>
	<path class="st1" d="M228.3,333.6c0,2.7,5.1,7.5,13.1,7.5c12.7,0,17.4-12.6,17.4-23.6s-5.5-23.8-18.4-23.8
		c-6.7,0-12.1,4.6-12.1,5.5L228.3,333.6L228.3,333.6z M217.8,270.5c0-3.9-3.4-4.6-6.7-4.6h-1.3v-2.4c6.6-1.4,12.8-4,18.5-7.6v38.7
		c6.4-5.1,11.2-8.6,19.6-8.6c13.6,0,21.3,12.9,21.3,25.2c0,21.9-15.8,33.5-31.1,33.5c-7.4-0.1-14.6-2.7-20.3-7.4V270.5z"/>
	<path class="st1" d="M307.9,305.5c0-8.4-3-15-12.4-15c-7.5,0-13.6,7.8-13.7,15H307.9z M281.6,308.9v1.5c0,12.8,5.9,24,18.4,24
		c9.9,0,15.9-6.1,19.7-12l2,1.3c-4.5,9.4-12.9,19.4-24.4,19.4c-15.4,0-24.4-11.1-24.4-26s8.5-30.5,25.2-30.5
		c12.5,0,20.6,10,20.7,22.3L281.6,308.9z"/>
	<path class="st1" d="M321.6,340.7c8.7-0.5,9.1-2.1,9.1-10.6v-26c0-8.2-1.1-9.3-9.1-9.3v-2.2c6.3-1.6,12.7-3.9,18.6-6h0.5v10.6
		c3.3-3.6,8.7-10.6,14.3-10.6c3.4,0,6.8,2.5,6.8,6.3c-0.1,2.9-2.6,5.3-5.5,5.2c-1.5,0-2.9-0.6-3.9-1.7c-0.8-0.9-1.9-1.5-3.1-1.6
		c-4.1,0-8.6,7.4-8.6,7.9v27.7c0,9,1.3,10.3,9.7,10.3v2.2h-28.8V340.7z"/>
	<path class="st1" d="M330.7,143.6v-2.5c12.9-5,21.4-16.1,26.1-27.4h4.9v24.9h17.5v5h-17.5v48.8c0,12.4,4.9,14.1,9,14.1
		s8.5-2.9,11-5.8l1.8,1.8c-5.6,7.3-10.8,13.5-20.4,13.5c-14.6,0-18.8-11.4-18.8-23.4v-49L330.7,143.6L330.7,143.6z"/>
	<path class="st2" d="M365,290.8v-1.6c10-3.4,13.5-8.1,16.7-15.8h3.1v13.5h12.7v3.9h-12.7v37.8c0,8.3,3.3,9.5,6.1,9.5s5.4-2.1,7.2-4
		l1.9,1.2c-3.8,5-7.8,9.2-14.3,9.2c-9.8,0-11-7.7-11-15.8v-37.9L365,290.8L365,290.8z"/>
	<path class="st2" d="M545.4,290.8v-1.6c10-3.4,15.2-8.1,18.4-15.8h2.3V287h12.7v3.8h-12.7v37.8c0,8.3,3.3,9.5,6.1,9.5
		s5.5-2.1,7.2-4l1.9,1.2c-3.7,5-7.7,9.2-14.3,9.2c-9.8,0-10.9-7.7-10.9-15.8v-37.9L545.4,290.8L545.4,290.8z"/>
	<path class="st2" d="M403.3,340.7c8.7-0.5,9.1-2.1,9.1-10.6v-26.5c0-8.2-1.1-9.3-9.1-9.3V292c6.3-1.6,12.5-3.6,18.6-5.9h0.5v10.6
		c3.4-3.6,9.8-10.6,15.4-10.6c3.6-0.1,6.6,2.7,6.7,6.3l0,0c-0.1,2.9-2.6,5.2-5.5,5.1l0,0c-1.4,0-2.8-0.6-3.8-1.6
		c-1-0.8-1.8-1.6-3.1-1.6c-4.1,0-9.7,7.4-9.7,7.9v28.2c0,9,1.3,10.3,9.8,10.3v2.2h-28.9V340.7z"/>
	<path class="st2" d="M498.8,330.2c0,4.7,4,6.7,8.2,6.8v2.3c-6,1.5-12,1.6-17.5,3.6H489v-9.3c-4.9,4.8-9.4,9.3-16.9,9.3
		c-9.2,0-15.6-4.6-15.6-14.1v-32.4c0-5.5-3.5-6.1-7.3-6.1v-2.2l17.3-1.7v38.7c0,6.2,3.2,10.8,10,10.8s10.8-4.6,12.2-7.2v-32.3
		c0-5.5-3.5-6.1-7.2-6.1v-2.7l17.3-1.2V330.2z"/>
	<path class="st2" d="M542.4,302.8h-2.1c-2.2-7-5.4-12.8-13.6-12.8c-4.6,0-8.7,2.4-8.7,6.9c0,11.8,28.4,12.5,28.4,29.2
		c0,10.8-8.2,16.5-16.7,16.5c-6.1,0-12.5-2.8-14.4-2.8s-1.4,2.3-1.6,3.1h-2.3l-0.8-19.4h2.7c0.2,8,6.9,15.7,15.2,15.7
		c4.9,0,9.9-2.7,9.9-8c0-13.1-28.4-12.9-28.4-30.5c0-9.3,8.3-14.1,16.9-14.1c1.9,0,3.8,0.3,5.6,0.9c1.7,0.5,3.4,0.8,5.2,0.9
		c1.2,0,2-0.9,2.3-2.3h2L542.4,302.8z"/>
	<path class="st2" d="M302.1,105.8c-32.7,31.4-33.7,83.3-2.4,115.9c0.8,0.8,1.6,1.6,2.4,2.4c15.9,15.7,37.4,24.4,59.7,24.4V231
		c-17.8,0-34.8-7-47.5-19.4c-25.8-24.7-26.6-65.6-2-91.3c0.6-0.7,1.3-1.3,2-2c12.6-12.5,29.7-19.5,47.5-19.5V81.4
		C339.5,81.4,318,90.1,302.1,105.8z"/>
</g>
<rect y="-30.9" class="st3" width="693.8" height="514.4"/>
</svg>
