<?xml version="1.0" encoding="UTF-8"?>
<svg xmlns="http://www.w3.org/2000/svg" version="1.1" viewBox="0 0 841.89 595.28">
  <defs>
    <style>
      .cls-1 {
        fill: #ed1a3b;
      }

      .cls-1, .cls-2 {
        stroke-width: 0px;
      }

      .cls-2 {
        fill: #231f20;
      }
    </style>
  </defs>
  <path class="cls-2" d="M532.23,262.26v55.38c0,3.6,1.78,5.45,5.41,5.63.04,0,18.25,0,18.25,0v6.21c0,.7-.37,1.18-1.15,1.18h-29.54c-9.12,0-10.48-5.02-10.48-9.59v-55.06c0-2.6.99-3.83,4.06-3.76h13.46Z"/>
  <path class="cls-2" d="M498.19,262.26v64.81c0,2.88-1.22,3.6-3.67,3.6h-13.86v-64.84c0-2.14.81-3.58,3.92-3.58h13.61Z"/>
  <path class="cls-2" d="M208.35,271.69c0-5.21,0-9.44,8.58-9.44h37.66v6.58c0,.47-.22.89-.88.89,0,0-22.57-.01-22.57-.01-3.03,0-4.56,1.46-4.56,4.51,0,.05,0,17.37,0,17.37h26.56v6.9c0,.61-.38.93-.98.93-.02,0-25.58,0-25.58,0v27.56c-.06,2.66-1.38,3.72-4.29,3.67h-13.93v-58.98Z"/>
  <path class="cls-2" d="M281.79,262.26v52.14c0,4.48.63,7.62,3.77,9.43,4.21,2.44,11.34,2.47,15.64.07,2.94-1.64,4.06-4.27,4.06-9.48v-48.69c0-2.19.83-3.48,3.9-3.47h13.62v50.6c0,11.76-7.4,16.58-13.94,18.36-8.71,2.38-21.94,2.41-30.15-.05-9.82-2.95-14.41-8.77-14.42-18.31v-47.09c0-2.28.81-3.51,3.42-3.51h14.09Z"/>
  <path class="cls-2" d="M613.28,262.27c-3.46,0-5.43,1.61-6.21,4.7l-11.16,47.17h-.31s-11.53-51.87-11.53-51.87h-15.76c-3.05,0-4,1.56-4,3.98v64.43h6.65c1.07,0,1.51-.53,1.51-1.63v-54.02h1.06l14.25,55.64h9.33c3.52,0,4.82-1.44,5.69-4.92l12.8-50.72h1.04v55.64s12.45-.02,12.45-.02c3.06,0,4.45-1.17,4.45-4.18v-64.22h-20.26Z"/>
  <g>
    <path class="cls-2" d="M406.07,299.44h-17.53v31.24h13.86c2.45,0,3.68-.72,3.68-3.6,0,0,0-13.36,0-27.63Z"/>
    <path class="cls-1" d="M405.05,286.09c.61-.5.97-.87,1.02-1.95v-21.88h-13.61c-3.06,0-3.92,1.5-3.92,3.63v33.12l16.51-12.93Z"/>
  </g>
  <path class="cls-2" d="M344.97,325.27c7.61-1.08,10.14-5.6,10.14-12.27v-47.03c0-2.81,1.53-3.72,3.49-3.72h14.04v44.46c0,10.93-2.3,16.46-8.78,21.12-3.37,2.42-9.26,5.18-22.04,5.18-7.31,0-10.56-.41-11-.52-.62-.14-.87-.52-.87-1.06v-5.74c3,.08,9.88.3,15.02-.43Z"/>
  <path class="cls-2" d="M432.62,262.26c-8.57,0-8.57,4.22-8.57,9.44v17.63c0,.36-.16.51-.32.67l-11.99,9.44h12.31v31.23h13.93c2.92.05,4.24-1,4.29-3.67v-27.56s25.56,0,25.58,0c.59,0,.98-.33.98-.93v-6.9h-26.56s0-17.33,0-17.37c0-3.06,1.53-4.51,4.56-4.51,0,0,22.57,0,22.57.01.65,0,.88-.42.88-.89v-6.58h-37.67Z"/>
</svg>