<?xml version="1.0" standalone="no"?>
<!DOCTYPE svg PUBLIC "-//W3C//DTD SVG 20010904//EN"
 "http://www.w3.org/TR/2001/REC-SVG-20010904/DTD/svg10.dtd">
<svg version="1.0" xmlns="http://www.w3.org/2000/svg"
 width="2937.000000pt" height="1042.000000pt" viewBox="0 0 2937.000000 1042.000000"
 preserveAspectRatio="xMidYMid meet">

<g transform="translate(0.000000,1042.000000) scale(0.100000,-0.100000)"
fill="#000000" stroke="none">
<path d="M13167 7233 c-9 -8 -9 -336 -1 -357 5 -13 25 -16 119 -16 62 0 120 3
129 6 14 5 16 32 16 190 l0 184 -128 0 c-71 0 -132 -3 -135 -7z"/>
<path d="M7980 6875 l0 -345 -162 -2 -163 -3 -3 -212 -2 -213 164 0 165 0 3
-752 c3 -738 4 -754 25 -815 54 -160 163 -255 340 -300 83 -21 396 -22 563 -1
l105 13 3 218 c2 170 0 217 -10 217 -7 0 -63 -9 -124 -21 -179 -35 -287 -13
-320 66 -12 29 -14 144 -14 705 l0 670 235 0 235 0 -2 213 -3 212 -232 3 -233
2 0 345 0 345 -285 0 -285 0 0 -345z"/>
<path d="M9540 6875 l0 -345 -165 0 -165 0 0 -215 0 -215 165 0 165 0 0 -727
c0 -779 2 -802 51 -909 31 -65 121 -154 189 -186 105 -50 171 -62 350 -62 91
-1 227 5 303 13 l137 14 0 219 c0 168 -3 218 -12 218 -7 0 -53 -9 -103 -19
-104 -22 -222 -21 -277 2 -71 30 -68 -2 -68 757 l0 680 230 0 230 0 0 215 0
215 -230 0 -230 0 0 345 0 345 -285 0 -285 0 0 -345z"/>
<path d="M25761 7205 c-70 -20 -111 -46 -160 -101 -49 -56 -72 -123 -72 -210
0 -271 339 -407 531 -212 68 69 93 138 88 238 -4 60 -11 87 -34 129 -69 127
-219 193 -353 156z m195 -63 c114 -58 170 -203 128 -329 -51 -151 -220 -221
-360 -150 -98 50 -151 147 -142 261 9 103 64 182 158 226 58 27 155 23 216 -8z"/>
<path d="M25722 6903 l3 -188 25 0 c24 0 25 3 27 65 1 36 2 73 2 83 1 13 9 17
34 17 29 -1 36 -7 82 -83 41 -66 56 -83 78 -85 15 -2 27 0 27 5 0 5 -20 41
-46 82 l-45 73 37 32 c32 28 37 38 38 79 1 38 -4 51 -27 74 -26 26 -33 28
-132 31 l-105 4 2 -189z m189 127 c22 -12 27 -68 7 -88 -7 -7 -39 -12 -75 -12
l-63 0 0 55 0 55 56 0 c30 0 64 -5 75 -10z"/>
<path d="M21548 6559 c-106 -16 -215 -65 -313 -140 l-51 -38 -89 44 c-168 84
-376 117 -582 94 -439 -49 -711 -287 -763 -669 -34 -249 74 -500 277 -647 l43
-31 -46 -12 c-62 -18 -150 -76 -201 -134 -115 -131 -124 -303 -20 -403 50 -49
70 -60 162 -89 58 -19 66 -24 47 -30 -108 -32 -259 -136 -310 -212 -58 -86
-83 -216 -62 -320 37 -179 181 -304 432 -376 247 -71 673 -84 981 -31 416 73
638 283 623 590 -13 261 -196 433 -531 498 -126 25 -150 27 -335 33 -602 17
-752 40 -795 124 -25 48 -19 111 13 156 36 49 46 58 116 93 l58 29 61 -19
c267 -81 574 -60 817 58 79 38 108 59 180 132 138 138 188 262 197 486 7 195
-28 327 -120 447 -33 43 -34 47 -18 62 42 38 130 67 241 79 l111 11 -3 111 -3
110 -35 1 c-19 0 -56 -3 -82 -7z m-689 -274 c178 -60 286 -184 322 -370 13
-69 12 -253 -2 -312 -47 -193 -178 -316 -382 -359 -107 -23 -293 -20 -390 5
-268 70 -414 278 -394 561 16 216 114 368 293 452 99 46 171 58 329 54 121 -3
151 -7 224 -31z m1 -1835 c217 -23 377 -74 464 -150 100 -88 113 -248 30 -357
-60 -79 -205 -145 -389 -179 -134 -24 -470 -30 -610 -11 -306 43 -470 176
-452 367 15 169 160 283 414 324 100 16 408 20 543 6z"/>
<path d="M4060 6514 c-219 -30 -390 -112 -531 -253 -138 -138 -205 -285 -216
-471 -12 -219 72 -396 268 -566 35 -30 65 -58 66 -62 1 -4 -29 -22 -67 -40
-96 -46 -210 -153 -251 -238 -87 -177 -18 -328 201 -438 52 -26 99 -51 103
-55 4 -5 -18 -11 -50 -14 -162 -15 -308 -128 -347 -271 -92 -330 140 -560 649
-642 153 -24 502 -30 650 -10 190 25 320 62 460 132 192 96 328 247 364 405
17 70 13 197 -7 270 -78 282 -346 405 -942 434 -400 19 -533 45 -577 111 -21
32 -19 91 4 116 49 55 117 68 403 78 200 7 249 12 330 33 136 36 199 62 282
116 189 123 287 304 293 541 4 144 -11 218 -67 330 -24 47 -44 88 -46 91 -10
21 129 48 263 52 l90 2 0 180 0 180 -90 -1 c-172 -1 -316 -51 -415 -141 l-54
-50 -46 32 c-135 97 -359 163 -549 162 -42 0 -119 -6 -171 -13z m284 -399 c74
-20 134 -55 184 -109 54 -59 79 -111 93 -193 9 -58 9 -79 -5 -132 -55 -217
-286 -333 -517 -262 -112 35 -187 101 -236 208 -38 82 -39 193 -1 275 80 174
285 264 482 213z m95 -1840 c225 -34 383 -115 407 -211 23 -92 -110 -210 -286
-251 -58 -14 -113 -18 -245 -16 -398 3 -560 65 -573 218 -6 71 12 120 62 169
44 45 95 73 166 92 64 18 348 17 469 -1z"/>
<path d="M6359 6515 c-463 -66 -755 -368 -845 -875 -21 -116 -24 -398 -5 -515
42 -264 130 -464 274 -621 197 -214 446 -305 797 -291 327 12 564 97 757 271
68 61 158 175 147 185 -8 8 -284 170 -366 215 l-36 20 -80 -76 c-130 -124
-237 -173 -401 -185 -299 -21 -488 164 -531 517 -5 46 -10 92 -10 102 0 17 37
18 715 18 l715 0 0 158 c0 256 -34 414 -125 591 -129 249 -351 421 -615 475
-111 22 -279 27 -391 11z m256 -396 c63 -11 139 -46 192 -87 77 -58 142 -195
158 -329 l7 -63 -457 0 -457 0 7 55 c8 70 31 157 51 198 92 181 281 266 499
226z"/>
<path d="M10810 6527 c0 -2 160 -484 355 -1073 196 -588 358 -1087 361 -1110
9 -59 -10 -133 -59 -232 -52 -108 -112 -171 -193 -203 -55 -22 -72 -24 -252
-24 l-192 0 0 -217 0 -216 97 -7 c131 -10 363 0 443 20 248 61 423 250 591
640 37 87 819 2398 819 2422 0 2 -127 3 -283 3 l-283 0 -209 -705 c-115 -388
-212 -705 -216 -705 -4 0 -13 26 -21 58 -16 60 -362 1264 -379 1320 l-11 32
-284 0 c-156 0 -284 -1 -284 -3z"/>
<path d="M13167 6523 c-4 -3 -7 -523 -7 -1155 l0 -1148 135 0 135 0 0 1155 0
1155 -128 0 c-71 0 -132 -3 -135 -7z"/>
<path d="M14040 5375 l0 -1155 135 0 135 0 0 850 0 850 73 77 c176 186 433
323 608 323 216 0 345 -93 378 -275 7 -39 11 -347 11 -942 l0 -883 135 0 135
0 0 846 c0 776 1 849 16 872 34 52 155 162 243 221 167 111 299 161 428 161
135 0 248 -47 310 -128 65 -85 63 -50 63 -1058 l0 -914 135 0 135 0 0 911 c0
799 -2 919 -16 982 -24 107 -69 193 -133 257 -109 107 -236 151 -441 153 -69
1 -152 -5 -185 -12 -170 -37 -336 -133 -491 -285 l-93 -91 -17 45 c-53 145
-183 262 -349 317 -70 23 -96 26 -205 26 -266 -1 -437 -75 -656 -285 l-84 -81
0 187 0 186 -135 0 -135 0 0 -1155z"/>
<path d="M18300 6522 c-231 -16 -466 -132 -606 -298 -61 -73 -135 -187 -127
-195 5 -4 44 -28 88 -53 l80 -46 18 22 c10 13 39 49 65 81 103 128 280 241
427 272 87 18 246 19 347 1 177 -32 274 -112 314 -258 15 -56 20 -297 7 -308
-5 -4 -66 -19 -138 -34 -510 -108 -853 -224 -1030 -351 -84 -60 -179 -165
-215 -239 -50 -102 -65 -176 -65 -321 0 -110 4 -140 23 -197 49 -142 137 -240
276 -309 120 -58 199 -72 391 -66 275 8 441 68 698 249 37 26 67 42 68 35 0
-6 2 -19 3 -27 2 -8 9 -70 16 -137 l13 -123 128 0 c97 0 129 3 128 13 0 6 -6
66 -14 132 -9 88 -13 313 -14 833 -1 438 -5 743 -12 790 -13 98 -52 213 -91
274 -38 60 -119 135 -184 170 -74 40 -207 75 -335 88 -104 10 -149 10 -259 2z
m609 -1369 l0 -378 -63 -53 c-93 -78 -185 -138 -300 -193 -478 -230 -860 -72
-813 336 27 234 233 401 667 540 106 34 457 123 488 124 l22 1 -1 -377z"/>
<path d="M22545 6519 c-153 -18 -343 -98 -447 -187 -252 -219 -368 -517 -368
-947 0 -642 262 -1044 748 -1146 84 -18 121 -20 277 -16 202 6 281 21 407 80
137 64 278 194 395 363 63 92 68 81 -72 150 l-90 45 -15 -23 c-142 -214 -285
-344 -428 -388 -135 -42 -340 -36 -472 13 -279 103 -456 408 -484 834 l-5 83
797 2 797 3 -3 100 c-4 134 -35 317 -72 428 -85 253 -226 425 -425 522 -104
50 -171 69 -306 85 -98 11 -127 11 -234 -1z m326 -231 c174 -64 290 -181 366
-369 26 -64 66 -212 77 -286 l6 -43 -664 0 -664 0 5 48 c16 160 81 327 176
448 88 112 187 179 318 214 105 29 285 23 380 -12z"/>
<path d="M24535 6519 c-295 -38 -506 -193 -568 -419 -26 -92 -30 -186 -13
-270 52 -249 204 -358 666 -480 440 -116 556 -173 630 -311 33 -60 35 -70 35
-160 0 -90 -2 -99 -38 -172 -62 -126 -162 -213 -296 -259 -57 -20 -84 -23
-206 -22 -280 3 -437 79 -621 301 l-52 61 -96 -64 c-114 -76 -114 -65 7 -191
134 -140 292 -231 487 -283 105 -28 356 -39 453 -21 328 62 565 266 622 536
19 90 19 148 -1 243 -36 174 -125 289 -304 389 -83 46 -230 98 -452 159 -329
90 -417 126 -499 205 -94 91 -104 248 -25 383 84 143 325 212 559 160 125 -28
218 -84 336 -202 l103 -104 99 66 c113 76 112 64 26 167 -184 221 -509 331
-852 288z"/>
</g>
</svg>
