<?xml version="1.0" encoding="UTF-8" standalone="no"?>
<svg
   xmlns:dc="http://purl.org/dc/elements/1.1/"
   xmlns:cc="http://creativecommons.org/ns#"
   xmlns:rdf="http://www.w3.org/1999/02/22-rdf-syntax-ns#"
   xmlns:svg="http://www.w3.org/2000/svg"
   xmlns="http://www.w3.org/2000/svg"
   xmlns:sodipodi="http://sodipodi.sourceforge.net/DTD/sodipodi-0.dtd"
   xmlns:inkscape="http://www.inkscape.org/namespaces/inkscape"
   version="1.1"
   id="svg2"
   xml:space="preserve"
   width="650.66669"
   height="153.44667"
   viewBox="0 0 650.66669 153.44667"
   sodipodi:docname="Identity_Logo_Final.ai"><metadata
     id="metadata8"><rdf:RDF><cc:Work
         rdf:about=""><dc:format>image/svg+xml</dc:format><dc:type
           rdf:resource="http://purl.org/dc/dcmitype/StillImage" /></cc:Work></rdf:RDF></metadata><defs
     id="defs6"><clipPath
       clipPathUnits="userSpaceOnUse"
       id="clipPath18"><path
         d="M 0,115.085 H 488 V 0 H 0 Z"
         id="path16" /></clipPath></defs><sodipodi:namedview
     pagecolor="#ffffff"
     bordercolor="#666666"
     borderopacity="1"
     objecttolerance="10"
     gridtolerance="10"
     guidetolerance="10"
     inkscape:pageopacity="0"
     inkscape:pageshadow="2"
     inkscape:window-width="640"
     inkscape:window-height="480"
     id="namedview4" /><g
     id="g10"
     inkscape:groupmode="layer"
     inkscape:label="Identity_Logo_Final"
     transform="matrix(1.3333333,0,0,-1.3333333,0,153.44667)"><g
       id="g12"><g
         id="g14"
         clip-path="url(#clipPath18)"><g
           id="g20"
           transform="translate(98.376,26.1849)"><path
             d="m 0,0 c -3.786,-3.685 -14.068,-3.172 -27.493,1.651 1.394,5.966 2.365,12.51 2.868,19.225 3.656,2.77 7.047,5.579 10.13,8.379 C -5.01,20.144 1.08,11.287 1.61,5.111 1.8,2.913 1.272,1.241 0,0 m -46.681,-22.342 c -5.658,0 -11.557,8.173 -15.274,21.935 4.983,1.961 10.143,4.378 15.273,7.131 5.13,-2.753 10.29,-5.17 15.275,-7.131 -3.717,-13.763 -9.615,-21.935 -15.274,-21.935 M -93.362,0 c -1.273,1.241 -1.8,2.913 -1.612,5.112 0.532,6.175 6.62,15.032 16.106,24.143 3.083,-2.8 6.473,-5.609 10.13,-8.38 0.503,-6.714 1.473,-13.259 2.869,-19.225 C -79.294,-3.173 -89.576,-3.686 -93.362,0 m -1.612,58.079 c -0.188,2.199 0.339,3.871 1.613,5.11 1.654,1.612 4.546,2.422 8.399,2.422 4.968,0 11.531,-1.349 19.094,-4.067 -1.396,-5.967 -2.366,-12.514 -2.87,-19.231 -3.657,-2.77 -7.047,-5.579 -10.13,-8.378 -9.486,9.112 -15.575,17.968 -16.106,24.144 m 48.293,27.454 c 5.657,0 11.554,-8.168 15.27,-21.924 -4.981,-1.96 -10.145,-4.384 -15.272,-7.135 -5.126,2.751 -10.289,5.174 -15.27,7.134 3.718,13.757 9.616,21.925 15.272,21.925 m 22.316,-47.694 c 2.608,-2.065 5.068,-4.155 7.366,-6.244 -2.298,-2.089 -4.758,-4.18 -7.366,-6.244 0.091,2.079 0.141,4.163 0.141,6.244 0,2.08 -0.05,4.165 -0.141,6.244 m -18.842,16.719 c 4.387,2.292 8.621,4.241 12.609,5.814 1.069,-4.627 1.895,-9.801 2.41,-15.433 -1.004,0.72 -2.02,1.437 -3.058,2.148 -3.855,2.642 -7.881,5.152 -11.961,7.471 m -21.968,-9.619 c 0.515,5.632 1.341,10.806 2.41,15.433 3.988,-1.574 8.221,-3.523 12.608,-5.814 -4.081,-2.319 -8.106,-4.829 -11.961,-7.471 -1.038,-0.711 -2.053,-1.428 -3.057,-2.148 M -68.998,25.35 c -2.608,2.065 -5.069,4.156 -7.367,6.245 2.298,2.089 4.759,4.179 7.367,6.245 -0.091,-2.08 -0.143,-4.165 -0.143,-6.245 0,-2.081 0.052,-4.165 0.143,-6.245 m 18.86,-16.717 c -4.394,-2.298 -8.633,-4.241 -12.627,-5.818 -1.068,4.627 -1.895,9.802 -2.41,15.434 1.003,-0.719 2.019,-1.436 3.056,-2.146 3.86,-2.646 7.894,-5.15 11.981,-7.47 m 21.95,9.617 c -0.515,-5.633 -1.341,-10.807 -2.411,-15.435 -3.995,1.577 -8.233,3.52 -12.628,5.818 4.088,2.32 8.122,4.824 11.983,7.47 1.037,0.71 2.052,1.427 3.056,2.147 m -4.96,0.63 c -4.597,-3.151 -9.131,-5.94 -13.534,-8.385 -4.402,2.445 -8.936,5.234 -13.534,8.385 -1.813,1.243 -3.58,2.51 -5.296,3.79 -0.17,2.873 -0.26,5.85 -0.26,8.925 0,3.074 0.09,6.051 0.26,8.924 1.717,1.281 3.484,2.547 5.298,3.791 4.598,3.151 9.128,5.927 13.532,8.374 4.404,-2.447 8.935,-5.223 13.533,-8.374 1.813,-1.245 3.581,-2.51 5.297,-3.791 0.17,-2.873 0.261,-5.85 0.261,-8.924 0,-3.075 -0.091,-6.052 -0.261,-8.924 -1.715,-1.281 -3.483,-2.548 -5.296,-3.791 m 24.747,46.731 c 3.852,0 6.746,-0.81 8.4,-2.422 1.272,-1.239 1.8,-2.911 1.611,-5.109 -0.53,-6.176 -6.619,-15.033 -16.105,-24.145 -3.083,2.799 -6.474,5.608 -10.13,8.378 -0.503,6.717 -1.474,13.264 -2.87,19.232 7.562,2.717 14.127,4.066 19.094,4.066 M 4.966,5.399 C 4.356,12.491 -1.889,21.904 -11.985,31.595 -1.888,41.286 4.356,50.7 4.965,57.792 5.238,60.969 4.333,63.67 2.348,65.603 -3.005,70.814 -14.78,69.645 -28.307,64.774 -32.103,78.812 -38.411,88.9 -46.681,88.9 c -8.27,0 -14.58,-10.088 -18.376,-24.127 -13.525,4.871 -25.3,6.04 -30.653,0.83 -1.985,-1.933 -2.891,-4.634 -2.618,-7.811 0.608,-7.092 6.852,-16.506 16.949,-26.197 -10.096,-9.691 -16.341,-19.104 -16.949,-26.194 -0.273,-3.177 0.632,-5.88 2.617,-7.812 2.416,-2.355 6.14,-3.408 10.745,-3.408 5.592,0 12.49,1.574 19.907,4.244 3.795,-14.041 10.106,-24.134 18.378,-24.134 8.272,0 14.581,10.093 18.377,24.134 7.416,-2.67 14.315,-4.244 19.908,-4.244 4.603,0 8.33,1.054 10.746,3.408 1.984,1.932 2.888,4.635 2.616,7.81"
             style="fill:#0056a7;fill-opacity:1;fill-rule:nonzero;stroke:none"
             id="path22" /></g><path
           d="m 145.155,24.137 h -12.921 v 48.775 h 12.921 z m -6.46,74.419 c 4.671,0 8.448,-3.62 8.448,-8.348 0,-4.725 -3.777,-8.345 -8.448,-8.345 -4.672,0 -8.448,3.62 -8.448,8.345 0,4.728 3.776,8.348 8.448,8.348"
           style="fill:#202121;fill-opacity:1;fill-rule:nonzero;stroke:none"
           id="path24" /><g
           id="g26"
           transform="translate(190.3662,55.8157)"><path
             d="m 0,0 c -2.684,3.619 -6.958,6.033 -11.927,6.033 -7.553,0 -12.424,-6.336 -12.424,-13.375 0,-7.642 5.466,-13.275 12.722,-13.275 4.87,0 9.143,2.414 11.629,6.035 z m 0.496,-31.679 v 3.922 c -3.975,-3.42 -8.547,-4.928 -13.417,-4.928 -7.156,0 -13.914,3.217 -18.188,8.248 -3.777,4.424 -6.162,10.458 -6.162,17.095 0,14.381 10.535,25.445 23.654,25.445 5.267,0 9.84,-1.511 13.617,-4.528 v 26.149 h 12.919 v -71.403 z"
             style="fill:#202121;fill-opacity:1;fill-rule:nonzero;stroke:none"
             id="path28" /></g><g
           id="g30"
           transform="translate(242.7158,54.8099)"><path
             d="m 0,0 c -0.397,4.325 -4.272,8.548 -9.541,8.548 -5.367,0 -9.74,-4.123 -10.336,-8.548 z m 12.026,-22.929 c -4.671,-5.633 -12.324,-8.75 -19.778,-8.75 -14.41,0 -25.244,10.056 -25.244,25.343 0,13.577 9.143,25.444 23.455,25.444 13.318,0 22.76,-11.364 22.76,-24.941 0,-1.307 -0.099,-2.614 -0.298,-3.721 h -33.395 c 0.696,-6.839 6.163,-11.566 13.021,-11.566 5.466,0 9.839,3.119 12.125,5.633 z"
             style="fill:#202121;fill-opacity:1;fill-rule:nonzero;stroke:none"
             id="path32" /></g><g
           id="g34"
           transform="translate(264.3584,24.137)"><path
             d="m 0,0 v 48.775 h 12.423 v -3.921 c 3.678,3.016 8.25,4.927 13.617,4.927 6.658,0 12.722,-3.018 16.696,-7.844 3.181,-3.823 4.97,-8.75 4.97,-17.097 V 0 h -12.92 v 25.845 c 0,4.828 -1.094,7.342 -2.883,9.153 -1.689,1.708 -4.273,2.714 -7.255,2.714 -5.466,0 -9.938,-3.52 -11.728,-6.033 L 12.92,0 Z"
             style="fill:#202121;fill-opacity:1;fill-rule:nonzero;stroke:none"
             id="path36" /></g><g
           id="g38"
           transform="translate(358.5361,24.137)"><path
             d="m 0,0 c -1.691,-0.604 -5.567,-1.006 -8.052,-1.006 -7.753,0 -13.418,2.614 -16.697,7.039 -2.485,3.32 -3.578,7.645 -3.578,14.583 v 17.096 h -13.417 v 11.063 h 13.417 v 13.577 h 12.921 V 48.775 H 0.497 V 37.712 H -15.406 V 19.108 c 0,-3.016 0.497,-4.828 1.59,-6.135 1.292,-1.509 3.378,-2.414 6.56,-2.414 1.889,0 4.373,0.302 5.268,0.503 z"
             style="fill:#202121;fill-opacity:1;fill-rule:nonzero;stroke:none"
             id="path40" /></g><path
           d="m 380.446,24.137 h -12.92 v 48.775 h 12.92 z m -6.46,74.419 c 4.673,0 8.448,-3.62 8.448,-8.348 0,-4.725 -3.775,-8.345 -8.448,-8.345 -4.67,0 -8.447,3.62 -8.447,8.345 0,4.728 3.777,8.348 8.447,8.348"
           style="fill:#202121;fill-opacity:1;fill-rule:nonzero;stroke:none"
           id="path42" /><g
           id="g44"
           transform="translate(428.1318,24.137)"><path
             d="m 0,0 c -1.69,-0.604 -5.566,-1.006 -8.051,-1.006 -7.753,0 -13.417,2.614 -16.697,7.039 -2.484,3.32 -3.577,7.645 -3.577,14.583 v 17.096 h -13.419 v 11.063 h 13.419 v 13.577 h 12.92 V 48.775 H 0.497 V 37.712 H -15.405 V 19.108 c 0,-3.016 0.496,-4.828 1.589,-6.135 1.293,-1.509 3.379,-2.414 6.561,-2.414 1.889,0 4.373,0.302 5.268,0.503 z"
             style="fill:#202121;fill-opacity:1;fill-rule:nonzero;stroke:none"
             id="path46" /></g><g
           id="g48"
           transform="translate(443.2764,3e-4)"><path
             d="M 0,0 11.328,29.064 -10.239,72.912 H 3.974 L 18.087,43.646 31.107,72.912 H 44.724 L 13.517,0 Z"
             style="fill:#202121;fill-opacity:1;fill-rule:nonzero;stroke:none"
             id="path50" /></g><g
           id="g52"
           transform="translate(62.5723,57.011)"><path
             d="M 0,0 H -0.737 V 1.572 H 0 C 0.434,1.572 0.785,1.22 0.785,0.786 0.785,0.353 0.434,0 0,0 m -4.223,-8.755 c 0,-0.271 -0.229,-0.502 -0.502,-0.502 h -12.347 c -0.272,0 -0.502,0.231 -0.502,0.502 v 5.388 H -4.223 Z M -21.796,0 c -0.433,0 -0.786,0.353 -0.786,0.786 0,0.434 0.353,0.786 0.786,0.786 h 0.736 V 0 Z m 4.724,9.706 h 12.347 c 0.273,0 0.502,-0.229 0.502,-0.502 V 0 h -13.351 v 9.204 c 0,0.273 0.23,0.502 0.502,0.502 M 0,4.939 h -0.737 v 4.265 c 0,2.199 -1.788,3.988 -3.988,3.988 h -12.347 c -2.199,0 -3.988,-1.789 -3.988,-3.988 V 4.939 h -0.736 c -2.291,0 -4.153,-1.863 -4.153,-4.153 0,-2.29 1.862,-4.153 4.153,-4.153 h 0.736 v -5.388 c 0,-2.199 1.789,-3.988 3.988,-3.988 h 12.347 c 2.2,0 3.988,1.789 3.988,3.988 v 5.388 H 0 c 2.29,0 4.153,1.863 4.153,4.153 0,2.29 -1.863,4.153 -4.153,4.153"
             style="fill:#0056a7;fill-opacity:1;fill-rule:nonzero;stroke:none"
             id="path54" /></g></g></g></g></svg>
