<svg width="96" height="96" viewBox="0 0 96 96" fill="none" xmlns="http://www.w3.org/2000/svg">
<path fill-rule="evenodd" clip-rule="evenodd" d="M48 96C74.5079 96 96 74.506 96 48.0169C96 21.494 74.5079 0 48 0C21.4854 0 0 21.494 0 48.0169C0 74.506 21.4854 96 48 96Z" fill="#E20612"/>
<path fill-rule="evenodd" clip-rule="evenodd" d="M75.021 51.89C73.5786 51.89 73.5786 50.3067 73.5786 49.8471C73.5786 48.6329 74.5279 43.8193 77.1443 43.8193C78.2446 43.8193 78.8349 44.7518 78.8349 45.4428C78.8349 45.5871 78.1708 51.89 75.021 51.89ZM38.1864 43.7019C38.9747 43.7455 39.5047 44.3124 39.4778 44.8826C39.347 48.6093 34.7616 48.029 34.7616 48.029C34.7616 48.029 35.5096 43.5375 38.1864 43.7019ZM86.1777 50.5717C86.1777 50.5717 84.9399 51.4572 84.0611 51.4572C83.3936 51.4572 83.0279 50.9004 83.0279 50.2933C83.0279 48.918 85.1814 42.1421 85.1814 42.1421L79.9151 42.2125L79.64 43.1283C79.64 43.1283 78.8718 41.5752 76.1078 41.5752C70.7475 41.5752 67.809 46.1975 67.6816 48.918C67.6581 49.5083 67.6514 49.5888 67.6514 49.5888C67.5273 49.7331 65.632 51.89 63.3075 51.89C61.4458 51.89 61.1372 50.3335 61.1372 49.3373C61.1372 48.2538 62.0361 43.9836 64.5721 43.9836C65.9541 43.9836 66.7994 45.1812 66.7994 45.1812L67.5441 42.7392C67.5441 42.7392 66.3667 41.8201 63.9616 41.8134C58.779 41.8066 55.2401 45.7011 55.116 49.2064C55.0925 49.7264 55.0724 49.9008 55.0791 49.9276C54.9081 50.1423 53.63 51.6082 51.973 51.6082C50.8392 51.6082 50.8392 50.7293 50.8392 50.3335C50.8392 49.8002 53.0799 42.1723 53.0799 42.1723L47.2231 42.2628L45.1334 49.666C45.1334 49.666 41.9232 51.9939 37.435 52.3126C35.1205 52.4703 34.3221 51.0648 34.3221 50.2362C34.3221 49.9008 34.3221 49.9008 34.3221 49.9008C34.3221 49.9008 35.2647 49.9578 35.9725 49.9578C36.5226 49.9578 43.3622 49.4882 43.3622 45.2986C43.3622 42.9102 40.9739 41.9978 37.9449 41.9978C32.3565 41.9978 28.4385 45.4629 28.4385 49.5754C28.4385 53.3323 31.6487 54.9425 35.7847 54.9425C40.4741 54.9425 45.0528 52.0744 45.0528 52.0744C45.0528 52.0744 45.3078 54.9425 49.011 54.9425C52.8317 54.9425 55.8238 52.0744 55.8238 52.0744C55.8238 52.0744 57.4876 54.8351 61.2881 54.8351C65.1725 54.8351 68.1546 51.6954 68.1546 51.6954C68.1546 51.6954 69.1944 54.6573 73.0419 54.6573C76.0508 54.6573 77.6609 52.6849 77.6609 52.6849C77.6609 52.6849 78.5196 54.6573 81.1394 54.6573C84.3361 54.6573 86.7345 52.4032 86.7345 52.4032L86.1777 50.5717Z" fill="#FFFFFE"/>
<path fill-rule="evenodd" clip-rule="evenodd" d="M11.6465 57.653C10.1672 57.6966 9.20447 56.7172 9.20447 56.1637C9.20447 54.9427 10.6972 54.7548 11.6465 54.8219C13.9409 54.9427 15.9133 55.7276 15.9133 55.7276C15.9133 55.7276 13.5853 57.5893 11.6465 57.653ZM33.4902 29.1508C35.2144 29.1508 35.7846 30.5495 35.6404 31.8074C34.8018 39.1871 27.4691 40.8777 27.4691 40.8777C27.4691 40.8777 29.2905 29.1508 33.4902 29.1508ZM87.2343 55.5766C87.2343 55.5766 74.9304 59.8669 51.4463 59.5751C35.2513 59.3839 22.9038 54.5971 22.9038 54.5971C22.9038 54.5971 23.303 53.8156 23.5646 53.2923C25.1881 49.9848 27.1035 43.266 27.1035 43.266C27.1035 43.266 38.2334 40.1598 38.2334 31.3244C38.2334 28.5234 35.6337 26.7255 33.0643 26.6148C24.0946 26.2693 21.6056 39.0495 21.0555 41.2232C21.022 41.3808 21.0086 41.4244 21.0086 41.4244C18.2378 41.0487 16.678 40.4818 16.678 40.4818L16.0441 42.206C17.9125 43.0916 20.6295 43.38 20.6295 43.38C20.0928 46.8082 17.4328 53.2923 17.4328 53.2923C17.4328 53.2923 14.9774 52.4805 11.9282 52.4805C7.97339 52.4805 6.61486 54.3657 6.51758 55.5397C6.25594 58.5956 10.0934 60.0279 12.7735 60.0279C18.003 60.0279 20.7201 57.2035 20.7201 57.2035C20.7201 57.2035 35.4291 62.7584 50.7721 62.7584C70.8548 62.7584 87.7878 57.4148 87.7878 57.4148L87.2343 55.5766Z" fill="#FFFFFE"/>
<path fill-rule="evenodd" clip-rule="evenodd" d="M51.3088 35.2288C49.4438 35.2288 48.0685 35.9902 48.0685 37.7412C48.0685 39.5056 49.6585 39.992 51.3088 39.992C52.9693 39.992 54.4821 39.2104 54.4821 37.4125C54.4821 35.6011 52.6606 35.2288 51.3088 35.2288Z" fill="#FFFFFE"/>
</svg>
