<?xml version="1.0" standalone="no"?>
<!DOCTYPE svg PUBLIC "-//W3C//DTD SVG 20010904//EN"
 "http://www.w3.org/TR/2001/REC-SVG-20010904/DTD/svg10.dtd">
<svg version="1.0" xmlns="http://www.w3.org/2000/svg"
 width="1024.000000pt" height="1024.000000pt" viewBox="0 0 1024.000000 1024.000000"
 preserveAspectRatio="xMidYMid meet">

<g transform="translate(0.000000,1024.000000) scale(0.100000,-0.100000)"
fill="#000000" stroke="none">
<path d="M10 5115 l0 -1595 5115 0 5115 0 0 1595 0 1595 -5115 0 -5115 0 0
-1595z m9960 -5 l0 -1290 -4825 0 -4825 0 0 1290 0 1290 4825 0 4825 0 0
-1290z"/>
<path d="M5452 5224 l3 -666 95 0 95 0 3 59 c4 89 7 92 50 48 76 -79 169 -115
292 -115 274 1 451 186 453 475 2 246 -110 412 -321 475 -146 44 -304 13 -406
-81 -30 -27 -57 -49 -60 -49 -3 0 -6 117 -6 260 l0 260 -100 0 -100 0 2 -666z
m624 88 c86 -44 136 -117 153 -218 16 -105 -10 -202 -75 -274 -141 -156 -401
-108 -475 89 -24 64 -28 163 -10 228 27 97 124 187 220 202 56 10 142 -3 187
-27z"/>
<path d="M1633 5505 c-90 -25 -141 -57 -195 -123 l-28 -34 0 81 0 81 -105 0
-105 0 0 -474 0 -475 96 -3 c53 -2 100 -1 104 2 5 3 10 134 12 290 3 320 4
325 84 403 86 83 253 91 338 16 66 -58 70 -80 74 -411 2 -175 7 -298 13 -298
5 -1 48 -1 97 -1 l87 -1 0 359 0 358 -26 56 c-57 121 -154 179 -309 185 -54 3
-104 -1 -137 -11z"/>
<path d="M3978 5501 c-75 -24 -120 -53 -168 -109 l-40 -47 0 83 0 82 -105 0
-105 0 0 -475 c0 -310 3 -475 10 -475 6 -1 52 -1 103 -1 l92 -1 5 279 c5 266
6 280 29 331 70 156 279 207 395 97 58 -56 60 -72 64 -402 2 -176 7 -303 13
-303 5 -1 47 -1 94 -1 47 0 90 0 95 1 6 0 10 97 10 270 0 304 7 343 76 414
121 125 327 100 389 -46 12 -31 15 -89 15 -338 0 -193 4 -300 10 -300 6 -1 48
-1 95 -1 47 0 90 0 96 1 7 0 9 111 7 358 l-3 357 -26 56 c-55 116 -155 180
-294 187 -170 9 -312 -62 -366 -182 -7 -14 -15 -26 -18 -26 -3 0 -17 21 -30
46 -36 67 -102 120 -179 144 -80 25 -187 25 -264 1z"/>
<path d="M6900 5496 c-199 -59 -314 -211 -327 -431 -15 -254 120 -446 349
-500 122 -29 280 -13 390 39 56 26 138 90 138 107 0 13 -90 109 -101 109 -5 0
-28 -13 -50 -30 -94 -68 -229 -89 -334 -53 -67 24 -146 102 -168 166 l-16 47
359 0 358 0 5 38 c8 69 -11 217 -38 284 -31 78 -96 155 -162 191 -110 59 -271
73 -403 33z m275 -170 c28 -13 62 -36 77 -52 31 -34 67 -109 68 -141 l0 -23
-270 0 c-305 0 -288 -6 -249 80 33 73 95 128 169 151 55 17 153 10 205 -15z"/>
<path d="M8120 5499 c-55 -18 -75 -32 -132 -90 l-68 -69 0 85 0 85 -100 0
-100 0 2 -476 3 -476 88 1 c48 0 91 0 96 1 6 0 11 113 13 268 3 263 3 268 29
322 47 101 121 153 239 167 l65 8 0 95 0 95 -35 2 c-19 1 -64 -7 -100 -18z"/>
<path d="M8580 5506 c-75 -21 -119 -46 -160 -94 -46 -51 -60 -93 -60 -175 0
-69 19 -120 63 -165 43 -45 98 -72 241 -118 138 -44 196 -86 196 -141 0 -43
-54 -89 -115 -98 -85 -13 -235 27 -319 85 l-45 31 -36 -72 c-35 -69 -36 -72
-18 -91 32 -36 152 -89 237 -105 55 -10 108 -14 166 -10 105 8 140 18 210 59
75 45 111 105 117 195 13 171 -62 247 -320 327 -137 43 -178 71 -179 125 -1
27 6 41 32 64 32 29 35 29 124 25 77 -3 104 -10 174 -40 l83 -36 34 69 c19 38
35 73 35 78 0 18 -87 60 -167 80 -92 24 -221 27 -293 7z"/>
<path d="M2360 5178 c0 -245 4 -346 14 -383 42 -160 161 -245 341 -245 126 0
220 41 293 127 l42 48 0 -82 c0 -48 4 -83 10 -83 6 -1 48 -1 95 -1 47 0 90 0
95 1 7 0 10 165 10 475 l0 475 -105 0 -105 0 0 -265 c0 -235 -2 -272 -19 -320
-40 -114 -123 -175 -238 -175 -104 0 -169 38 -204 118 -17 40 -19 72 -19 343
l0 299 -105 0 -105 0 0 -332z"/>
</g>
</svg>
