<?xml version="1.0" encoding="iso-8859-1"?>
<!-- Generator: Adobe Illustrator 25.2.3, SVG Export Plug-In . SVG Version: 6.00 Build 0)  -->
<svg version="1.1" id="Layer_1" xmlns="http://www.w3.org/2000/svg" xmlns:xlink="http://www.w3.org/1999/xlink" x="0px" y="0px"
	 viewBox="0 0 1031.33 1085.06" style="enable-background:new 0 0 1031.33 1085.06;" xml:space="preserve">
<g transform="scale(.5)">
<polygon points="32.139,26.791 32.139,813.645 339.755,813.645 339.755,461.827 122.231,244.309 339.755,26.791 "/>
<polygon points="691.574,26.791 691.574,378.615 909.086,596.133 691.574,813.645 999.191,813.645 999.191,26.791 "/>
<polygon points="339.753,26.791 339.753,461.827 691.571,813.645 691.571,378.615 "/>
<polygon points="141.702,884.982 141.702,1007.271 66.693,884.982 31.294,884.982 31.294,1058.269 63.97,1058.269 63.97,936.23 
	139.223,1058.269 174.378,1058.269 174.378,884.982 "/>
<g>
	<path d="M310.671,1058.268h-30.446v-19.307c-6.934,13.613-21.045,21.288-38.869,21.288c-28.216,0-46.538-20.303-46.538-49.51
		v-77.233h30.452v70.798c0,17.077,10.392,28.963,25.992,28.963c17.077,0,28.963-13.37,28.963-31.686v-68.075h30.446V1058.268z"/>
	<path d="M332.359,933.505h30.446v19.556c6.192-12.628,18.565-21.537,36.14-21.537c19.805,0,33.424,8.417,38.869,23.767
		c5.694-12.877,21.537-23.767,41.342-23.767c26.982,0,44.308,19.556,44.308,46.046v80.697h-30.197v-71.539
		c0-17.575-9.164-29.212-23.767-29.212c-16.335,0-26.49,11.638-26.49,29.212v71.539h-30.197v-71.539
		c0-17.575-9.164-29.212-23.767-29.212c-16.086,0-26.241,11.638-26.241,29.212v71.539h-30.446V933.505z"/>
	<path d="M641.548,995.886c0-23.02-13.369-38.121-33.667-38.121c-20.297,0-33.667,15.101-33.667,38.121s13.37,38.121,33.667,38.121
		C628.179,1034.008,641.548,1018.906,641.548,995.886 M576.196,1042.674v15.594h-30.197V880.033h30.197v68.573
		c7.177-10.155,20.297-17.083,36.639-17.083c36.882,0,58.917,26.241,58.917,64.362c0,38.121-22.035,64.362-59.415,64.362
		C597.24,1060.249,583.373,1053.564,576.196,1042.674"/>
	<path d="M710.322,982.022h61.391c-1.234-15.843-12.13-27.724-30.203-27.724C724.433,954.299,713.543,963.208,710.322,982.022
		 M802.657,1016.68c-4.704,26.49-27.973,43.566-58.668,43.566c-40.85,0-63.621-32.178-63.621-64.854
		c0-32.925,20.297-63.87,61.141-63.87c41.84,0,60.655,30.452,60.655,60.157c0,4.205-0.249,7.918-0.498,10.398h-92.086
		c2.224,20.048,15.101,32.926,34.408,32.926c15.594,0,25.742-6.442,28.963-18.322H802.657z"/>
	<path d="M875.288,959.001c-19.307,0-26.982,16.584-26.982,40.352v58.917H817.86V933.508h30.446v22.029
		c6.187-15.843,15.843-22.029,31.935-22.029h14.603v25.493H875.288z"/>
	<path d="M899.177,1016.68h27.724c1.24,11.881,10.398,19.307,24.016,19.307c11.881,0,19.799-5.937,19.799-13.364
		c0-27.73-68.318-1.24-68.318-53.964c0-21.786,19.058-37.137,44.8-37.137c29.212,0,49.267,16.092,50.5,40.352h-27.724
		c-1.732-11.638-12.373-17.575-22.029-17.575c-10.89,0-18.073,4.953-18.073,13.364c0,26.988,69.315-2.723,69.315,53.721
		c0,23.518-19.064,38.863-48.27,38.863C920.714,1060.246,900.666,1043.413,899.177,1016.68"/>
</g>
</g>
</svg>
