<svg width="567" height="124" viewBox="0 0 567 124" fill="none" xmlns="http://www.w3.org/2000/svg">
<path fill-rule="evenodd" clip-rule="evenodd" d="M137.148 68.1527L103.942 87.3272H103.932C102.181 88.3359 99.9961 88.3359 98.2358 87.3272L85.7462 80.1182V62.081L101.084 70.9315L124.372 57.4925V30.6048L101.084 17.1658L78.2208 30.3674L77.8055 30.6048V99.1345C77.8055 101.162 76.7177 103.05 74.9575 104.069L41.7507 123.244C39.9905 124.252 37.815 124.252 36.0547 123.244L2.84799 104.069C1.08777 103.05 0 101.162 0 99.1345V60.7855C0 58.7583 1.08777 56.8695 2.84799 55.851L36.0547 36.6765C36.9151 36.1821 37.904 35.9151 38.9027 35.9151C39.9015 35.9151 40.8904 36.1821 41.7507 36.6765L54.2601 43.9053V61.9425L38.9027 53.0722L15.6145 66.5112V93.399L38.9027 106.838L62.191 93.399V24.8692C62.191 22.842 63.2788 20.9532 65.039 19.9347L98.2457 0.76021C99.9961 -0.248453 102.181 -0.258342 103.942 0.76021L137.148 19.9347C138.909 20.9532 139.996 22.842 139.996 24.8692V63.2182C139.996 65.2454 138.909 67.1342 137.148 68.1527ZM329.118 92.1342H315.539V10.9004H329.118V92.1342ZM418.95 74.4337C414.343 74.4337 410.099 73.5849 406.583 71.8875C405.492 73.7062 404.158 76.0098 404.158 78.071C404.158 81.1021 405.734 82.6783 411.19 82.6783H430.226C441.987 82.6783 448.412 87.4068 448.412 96.2577C448.412 107.412 437.5 115.899 416.04 115.899C399.551 115.899 389.973 110.686 389.973 103.29C389.973 97.7126 395.307 94.6815 401.006 93.3478C396.762 92.1353 393.974 89.3467 393.974 84.8607C393.974 79.5259 398.581 74.3124 404.037 70.5538C398.096 66.9165 394.459 60.733 394.459 53.2159C394.459 40.7277 404.401 31.8768 418.95 31.8768C422.709 31.8768 426.104 32.4831 429.135 33.5743L432.044 19.3887L445.139 23.8747L434.106 35.9992C439.925 39.7577 443.32 45.82 443.32 53.2159C443.32 65.7041 433.499 74.4337 418.95 74.4337ZM418.95 64.7341C425.376 64.7341 430.468 60.6118 430.468 53.2159C430.468 45.82 425.376 41.6977 418.95 41.6977C412.524 41.6977 407.432 45.82 407.432 53.2159C407.432 60.6118 412.524 64.7341 418.95 64.7341ZM416.646 105.715C429.377 105.715 436.167 102.926 436.167 97.9551C436.167 94.8027 433.621 93.469 428.407 93.469H403.795C402.461 94.8027 401.006 96.7426 401.006 98.8038C401.006 103.169 405.856 105.715 416.646 105.715ZM448.398 62.673C448.398 80.981 460.038 93.3479 477.012 93.3479C494.229 93.3479 505.868 80.981 505.868 62.673C505.868 44.2439 494.229 31.877 477.012 31.877C460.038 31.877 448.398 44.2439 448.398 62.673ZM492.046 62.673C492.046 76.2524 485.984 82.0722 477.133 82.0722C468.404 82.0722 462.342 76.2524 462.342 62.673C462.342 48.9724 468.404 43.1527 477.133 43.1527C485.984 43.1527 492.046 48.9724 492.046 62.673ZM513.879 92.1354H527.458V59.0357C527.458 49.3362 530.853 42.9102 540.795 42.9102C549.889 42.9102 552.313 47.8812 552.313 55.1559V92.1354H566.014V51.0336C566.014 38.7879 558.982 31.877 547.464 31.877C535.703 31.877 529.641 39.8791 527.458 49.2149V33.0894H513.879V92.1354ZM332.691 103.41C335.965 108.017 342.876 112.382 351.363 112.382C360.941 112.382 367.852 108.138 372.096 96.2563L393.92 33.0879H378.886L368.337 66.5514L364.094 82.3131L359.85 66.5514L349.181 33.0879H334.268L353.788 88.4966H362.154L361.063 91.7702C358.88 98.3174 355.97 100.379 351.363 100.379C345.907 100.379 342.27 96.9837 339.117 92.4977L332.691 103.41ZM249.822 62.673C249.822 80.981 261.462 93.3479 278.436 93.3479C295.653 93.3479 307.292 80.981 307.292 62.673C307.292 44.2439 295.653 31.877 278.436 31.877C261.462 31.877 249.822 44.2439 249.822 62.673ZM293.47 62.673C293.47 76.2524 287.408 82.0722 278.557 82.0722C269.828 82.0722 263.765 76.2524 263.765 62.673C263.765 48.9724 269.828 43.1527 278.557 43.1527C287.408 43.1527 293.47 48.9724 293.47 62.673ZM202.599 114.687H189.02V33.0895H202.599V48.8513C204.539 39.6367 209.752 31.7559 221.513 31.7559C235.82 31.7559 245.034 43.5166 245.034 62.5519C245.034 81.5873 235.82 93.348 221.271 93.348C209.51 93.348 204.539 85.4672 202.599 76.3738V114.687ZM202.599 66.1893C202.599 75.8888 206.6 82.3148 216.178 82.3148C224.665 82.3148 231.091 75.8888 231.091 62.5519C231.091 49.2151 224.665 42.7891 216.178 42.7891C206.6 42.7891 202.599 49.2151 202.599 58.9146V66.1893Z" fill="#6C00F6"/>
</svg>
