<svg id="Layer_1" data-name="Layer 1"
	xmlns="http://www.w3.org/2000/svg"
	xmlns:xlink="http://www.w3.org/1999/xlink" viewBox="0 0 145.5 145.5">
	<defs>
		<style>.cls-1{fill:#221f72;}.cls-2{clip-path:url(#clip-path);}.cls-3{fill:#fff;}</style>
		<clipPath id="clip-path" transform="translate(-125.52 -75.25)">
			<path class="cls-1" d="M198.26,202.76a54.72,54.72,0,0,0,48.65-29.63h-97.3a54.74,54.74,0,0,0,48.65,29.63"/>
		</clipPath>
	</defs>
	<g transform="scale(.5)">
	<path class="cls-1" d="M198.26,208.94A60.94,60.94,0,1,1,259.2,148a60.94,60.94,0,0,1-60.94,60.94m0-133.69A72.75,72.75,0,1,0,271,148a72.75,72.75,0,0,0-72.75-72.75" transform="translate(-125.52 -75.25)"/>
	<polygon class="cls-1" points="79.34 81.7 78.44 91.69 85.34 91.69 84.44 81.7 79.34 81.7"/>
	<polygon class="cls-1" points="42.02 71.3 42.02 91.69 47.48 91.69 43.82 71.27 42.02 71.3"/>
	<path class="cls-1" d="M170.88,126.65a5.66,5.66,0,0,0-2.76-.51,5.46,5.46,0,0,0-.58,0v14a5.44,5.44,0,0,0,.58.05,5.66,5.66,0,0,0,2.76-.52,3.18,3.18,0,0,0,1.5-2.73v-7.64a3.2,3.2,0,0,0-1.5-2.73" transform="translate(-125.52 -75.25)"/>
	<polygon class="cls-1" points="79.97 74.78 83.82 74.78 81.89 56.84 79.97 74.78"/>
	<path class="cls-1" d="M198.26,93.24a54.78,54.78,0,0,0-51.39,73.7h13.9V119.83h9.84s5.75-.07,7.37,5.15a22.94,22.94,0,0,1,1.48,8.4c-.07,4.72-.53,7.33-3.63,11l4.08,22.56h5.55V119.68h6.77v47.26h5l6.37-47.35h7.56l6.38,47.35h3.11l6.38-47.37h7.56L241,166.94h8.67a54.81,54.81,0,0,0-51.4-73.7" transform="translate(-125.52 -75.25)"/>
	<polygon class="cls-1" points="103.39 74.77 107.24 74.77 105.32 56.82 103.39 74.77"/>
	<polygon class="cls-1" points="102.76 81.68 101.86 91.69 108.77 91.69 107.86 81.68 102.76 81.68"/>
	<path class="cls-1" d="M198.26,202.76a54.72,54.72,0,0,0,48.65-29.63h-97.3a54.74,54.74,0,0,0,48.65,29.63" transform="translate(-125.52 -75.25)"/>
	<g class="cls-2">
		<path class="cls-3" d="M169.5,180.41h5v1.25h-3.64v2.05h3.43V185h-3.43v3.24H169.5Z" transform="translate(-125.52 -75.25)"/>
		<path class="cls-3" d="M175.29,184.33a4.63,4.63,0,0,1,.3-1.7,3.76,3.76,0,0,1,2.15-2.13,4.71,4.71,0,0,1,1.66-.29,4.47,4.47,0,0,1,1.67.27,3.69,3.69,0,0,1,1.31.82,3.79,3.79,0,0,1,.86,1.3,4.54,4.54,0,0,1,.31,1.69,4.42,4.42,0,0,1-.31,1.66,3.79,3.79,0,0,1-2.17,2.13,4.77,4.77,0,0,1-3.33,0,3.74,3.74,0,0,1-1.29-.82,3.9,3.9,0,0,1-.86-1.28A4.47,4.47,0,0,1,175.29,184.33Zm1.45-.08a3.3,3.3,0,0,0,.19,1.15,2.75,2.75,0,0,0,.54.91,2.6,2.6,0,0,0,.85.61,2.56,2.56,0,0,0,1.09.22,2.64,2.64,0,0,0,1.1-.22,2.6,2.6,0,0,0,.85-.61,2.75,2.75,0,0,0,.54-.91,3.3,3.3,0,0,0,.19-1.15,3,3,0,0,0-.19-1.09,2.76,2.76,0,0,0-.54-.89,2.55,2.55,0,0,0-.85-.59,2.64,2.64,0,0,0-1.1-.22,2.65,2.65,0,0,0-1.94.81,2.76,2.76,0,0,0-.54.89A3,3,0,0,0,176.74,184.25Z" transform="translate(-125.52 -75.25)"/>
		<path class="cls-3" d="M184.76,180.41h2.7a5.52,5.52,0,0,1,1.09.1,2.91,2.91,0,0,1,.93.36,1.9,1.9,0,0,1,.64.68,2.12,2.12,0,0,1,.25,1.09,2.17,2.17,0,0,1-.47,1.42,2,2,0,0,1-1.34.69l2.07,3.45H189l-1.81-3.3h-1v3.3h-1.38Zm2.46,3.3a5.68,5.68,0,0,0,.59,0,1.93,1.93,0,0,0,.55-.13,1,1,0,0,0,.4-.32,1,1,0,0,0,.15-.6.92.92,0,0,0-.14-.55.86.86,0,0,0-.37-.31,1.75,1.75,0,0,0-.51-.14l-.55,0h-1.2v2.11Z" transform="translate(-125.52 -75.25)"/>
		<path class="cls-3" d="M194.75,180.41h2.12l2.07,5.45,2.11-5.45h2.09v7.79h-1.32v-6.47h0l-2.36,6.47h-1l-2.36-6.47h0v6.47h-1.32Z" transform="translate(-125.52 -75.25)"/>
		<path class="cls-3" d="M211,185.34a3.27,3.27,0,0,1-.25,1.27,2.82,2.82,0,0,1-1.65,1.57,3.77,3.77,0,0,1-2.48,0,3,3,0,0,1-1-.61,2.94,2.94,0,0,1-.66-1,3.27,3.27,0,0,1-.24-1.27v-4.93h1.39v4.88a2.18,2.18,0,0,0,.09.6,1.55,1.55,0,0,0,.83,1,2.11,2.11,0,0,0,1.66,0,1.55,1.55,0,0,0,.83-1,2.18,2.18,0,0,0,.09-.6v-4.88H211Z" transform="translate(-125.52 -75.25)"/>
		<path class="cls-3" d="M216.45,182.08a1.36,1.36,0,0,0-.59-.47,2.08,2.08,0,0,0-.78-.15,1.84,1.84,0,0,0-.47.06,1.31,1.31,0,0,0-.4.17.89.89,0,0,0-.29.32.84.84,0,0,0-.11.45.72.72,0,0,0,.27.61,2.55,2.55,0,0,0,.68.36c.27.11.57.2.89.3a3.27,3.27,0,0,1,.89.4,2.1,2.1,0,0,1,.69.67,2,2,0,0,1,.27,1.11,2.47,2.47,0,0,1-.23,1.09,2.26,2.26,0,0,1-.62.78,2.69,2.69,0,0,1-.91.46,3.88,3.88,0,0,1-1.09.15,4.06,4.06,0,0,1-1.39-.24,2.67,2.67,0,0,1-1.16-.81l1.05-1a1.71,1.71,0,0,0,.66.59,1.82,1.82,0,0,0,.88.22,1.84,1.84,0,0,0,.92-.26,1,1,0,0,0,.32-.34.91.91,0,0,0,.12-.47.81.81,0,0,0-.28-.66,2.58,2.58,0,0,0-.68-.39c-.27-.1-.57-.21-.89-.3a4.21,4.21,0,0,1-.89-.39,2.25,2.25,0,0,1-.68-.66,2,2,0,0,1-.28-1.11,2.13,2.13,0,0,1,.25-1,2.28,2.28,0,0,1,.65-.73,2.8,2.8,0,0,1,.92-.44,4.15,4.15,0,0,1,1.05-.14,3.72,3.72,0,0,1,1.2.19,2.83,2.83,0,0,1,1,.61Z" transform="translate(-125.52 -75.25)"/>
		<path class="cls-3" d="M218.8,180.41h1.39v7.79H218.8Z" transform="translate(-125.52 -75.25)"/>
		<path class="cls-3" d="M227.13,182.23a2.47,2.47,0,0,0-.83-.61,2.13,2.13,0,0,0-.81-.16,2.55,2.55,0,0,0-2.48,1.7,3,3,0,0,0-.2,1.09,3.31,3.31,0,0,0,.2,1.15,2.59,2.59,0,0,0,.54.91,2.67,2.67,0,0,0,.84.61,2.6,2.6,0,0,0,1.1.22,2.05,2.05,0,0,0,.92-.23,2.6,2.6,0,0,0,.83-.72l1.14.82a3.1,3.1,0,0,1-1.29,1.05,4,4,0,0,1-1.61.33,4.46,4.46,0,0,1-1.66-.29,3.89,3.89,0,0,1-1.3-.82,4,4,0,0,1-.85-1.28,4.28,4.28,0,0,1-.31-1.67,4.44,4.44,0,0,1,.31-1.7,3.68,3.68,0,0,1,2.15-2.13,4.67,4.67,0,0,1,1.66-.29,3.72,3.72,0,0,1,1.46.28,3.29,3.29,0,0,1,1.26.95Z" transform="translate(-125.52 -75.25)"/>
	</g>
	</g>
</svg>