<?xml version="1.0" encoding="UTF-8"?>
<svg xmlns="http://www.w3.org/2000/svg" version="1.1" viewBox="0 0 845 592">
  <defs>
    <style>
      .cls-1 {
        fill: none;
      }

      .cls-1, .cls-2 {
        stroke-width: 0px;
      }

      .cls-2 {
        fill: #820e64;
      }
    </style>
  </defs>
  <g id="EXE">
    <g>
      <g>
        <rect class="cls-2" x="275.06" y="250.77" width="17.94" height="60.22"/>
        <rect class="cls-2" x="275.07" y="225.93" width="17.92" height="16.42"/>
      </g>
      <g>
        <rect class="cls-2" x="654.9" y="250.77" width="17.94" height="60.22"/>
        <rect class="cls-2" x="654.92" y="225.93" width="17.91" height="16.42"/>
      </g>
      <path class="cls-2" d="M514.4,264.01c11.3,0,19.3,4.93,19.04,15.29v31.7h17.94v-32.57c.13-7.33-2.04-13-6.85-18.33-6.43-7.14-16.57-11.14-30.14-11.14s-23.71,4-30.14,11.14c-4.81,5.33-6.98,11-6.85,18.33v32.57h17.94v-31.7c-.26-10.36,7.75-15.29,19.04-15.29Z"/>
      <polygon class="cls-2" points="247.45 250.77 226.36 295.16 204.53 250.77 184.36 250.77 215.38 311 237.24 311 267.43 250.77 247.45 250.77"/>
      <polygon class="cls-2" points="364.2 250.77 343.12 295.16 321.29 250.77 301.11 250.77 332.13 311 354 311 384.18 250.77 364.2 250.77"/>
      <path class="cls-2" d="M416.19,295.28c-1.83-.33-5.54-1.2-8.66-3.69l58.14-11.48c-.1-2.69-.61-5.34-1.3-7.94-1.08-4.02-8.08-23.99-40.33-23.2-12.18.3-22.25,4.33-28.89,10.51-6.17,5.76-9.87,13.27-9.87,21.98s4.2,16.45,11.92,22.06c7.27,5.28,16.82,7.47,29.85,7.47h33.57v-14.81h-32.23c-4.9,0-9.07-.35-12.21-.91ZM426.03,262.86c10.63,0,16.56,3.93,18.69,8.3l-42.33,8.08c.3-3.26,1.83-6.51,3.95-8.77,4.47-4.76,10.99-7.62,19.69-7.62Z"/>
      <path class="cls-2" d="M623.05,210.09v39.45l-19.49-.07c-6.32,0-22.13,1.08-32.53,10.97-5.63,5.36-8.49,12.46-8.49,21.1,0,7.43,2.7,14.19,7.83,19.54,7.35,7.65,17.9,11.7,30.54,11.7s23.91-3.4,30.98-10.29c6.25-6.09,9.11-14.62,9.11-24.49v-67.94h-17.94ZM623.05,278.29c-.14,9.36-4.48,18.79-21.77,18.79-7.35,0-13.27-1.79-17.29-6.32-2.22-2.51-3.35-5.31-3.44-8.3-.15-5.04,1.84-9.25,5.2-12.22,4.22-3.71,10.7-5.81,17.79-5.75,0,0,19.5.02,19.5.02v13.78Z"/>
    </g>
  </g>
  <g id="grille">
    <rect class="cls-1" x="-1" width="841.89" height="595.28"/>
  </g>
</svg>