<?xml version="1.0" encoding="utf-8"?>
<!-- Generator: Adobe Illustrator 27.5.0, SVG Export Plug-In . SVG Version: 6.00 Build 0)  -->
<svg version="1.1" id="图层_1" xmlns="http://www.w3.org/2000/svg" xmlns:xlink="http://www.w3.org/1999/xlink" x="0px" y="0px"
	 viewBox="0 0 907.09 289.24" style="enable-background:new 0 0 907.09 289.24;" xml:space="preserve">
<style type="text/css">
	.st0{fill:#415FFF;}
</style>
<g>
	<path class="st0" d="M786.33,89.13h-71.02c-73.8,0-80.37,60.32-80.37,78.74c0,18.43,6.56,78.75,80.37,78.75h71.02
		c73.8,0,80.37-60.32,80.37-78.75C866.7,149.44,860.13,89.13,786.33,89.13 M786.33,210.61h-71.02c-39.92,0-43.47-32.74-43.47-42.74
		c0-10,3.55-42.74,43.47-42.74h71.02c39.92,0,43.47,32.74,43.47,42.74C829.8,177.87,826.25,210.61,786.33,210.61"/>
	<path class="st0" d="M620.7,92.82h-23.02c-9.86,0-11.89,1.68-15.69,7.32c-3.8,5.64-69.64,106.15-69.64,106.15
		c-2.1,3.09-4.33,4.34-7.1,4.34c-2.77,0-5-1.25-7.1-4.34c0,0-65.83-100.51-69.64-106.15c-3.8-5.64-5.83-7.32-15.69-7.32h-23.02
		c-5.3,0-7.72,4.14-4.39,9.2c3.33,5.06,78.63,119.39,78.63,119.39c12.2,17.95,21.16,25.2,41.21,25.2c20.05,0,29-7.26,41.21-25.2
		c0,0,75.3-114.34,78.63-119.39C628.42,96.96,626,92.82,620.7,92.82"/>
	<path class="st0" d="M315,102.57c0-6.98,2.77-9.75,9.75-9.75h17.4c6.98,0,9.75,2.77,9.75,9.75v134.29c0,6.98-2.77,9.75-9.75,9.75
		h-17.4c-6.98,0-9.75-2.77-9.75-9.75V102.57z"/>
	<path class="st0" d="M313.41,61.47c-5.67-5.67-5.67-10.16,0-15.83l12.12-12.12c5.67-5.67,10.17-5.67,15.84,0l12.12,12.12
		c5.67,5.67,5.67,10.17,0,15.83l-12.12,12.12c-5.67,5.67-10.17,5.67-15.84,0L313.41,61.47z"/>
	<path class="st0" d="M277.08,92.82h-23.02c-9.86,0-11.89,1.68-15.69,7.32c-3.8,5.64-69.64,106.15-69.64,106.15
		c-2.1,3.09-4.33,4.34-7.1,4.34c-2.77,0-5-1.25-7.1-4.34c0,0-65.84-100.51-69.64-106.15c-3.8-5.64-5.83-7.32-15.69-7.32H46.19
		c-5.92,0-7.72,4.14-4.39,9.2c3.33,5.06,78.63,119.39,78.63,119.39c12.2,17.95,21.16,25.2,41.21,25.2c20.05,0,29-7.26,41.21-25.2
		c0,0,75.3-114.34,78.63-119.39C284.8,96.96,283,92.82,277.08,92.82"/>
</g>
</svg>
