<?xml version="1.0" encoding="UTF-8"?>
<svg width="68px" height="54px" viewBox="0 0 68 54" version="1.1" xmlns="http://www.w3.org/2000/svg"
    xmlns:xlink="http://www.w3.org/1999/xlink">
    <g class="illustration">
        <ellipse cx="24.2177419" cy="14.85" rx="1.59677419" ry="1.62"></ellipse>
        <path
            d="M16.5266129,17.523 C14.4774194,17.523 12.8008065,15.822 12.8008065,13.743 C12.8008065,11.664 14.4774194,9.963 16.5266129,9.963 C18.5758065,9.963 20.2524194,11.664 20.2524194,13.743 C20.2524194,15.822 18.5758065,17.523 16.5266129,17.523 Z M16.5266129,12.15 C15.6483871,12.15 14.9564516,12.879 14.9564516,13.743 C14.9564516,14.607 15.675,15.336 16.5266129,15.336 C17.3782258,15.336 18.0967742,14.607 18.0967742,13.743 C18.0967742,12.879 17.3782258,12.15 16.5266129,12.15 Z">
        </path>
        <path
            d="M16.5266129,53.919 C7.53145161,53.919 0.212903226,46.494 0.212903226,37.368 L0.212903226,21.708 C0.212903226,21.303 0.425806452,20.952 0.771774194,20.763 C1.11774194,20.574 1.54354839,20.601 1.86290323,20.817 C5.58870968,23.274 10.9112903,24.705 16.5,24.705 C21.9024194,24.705 27.3846774,23.247 31.1637097,20.817 C31.4830645,20.601 31.908871,20.601 32.2548387,20.79 C32.6008065,20.979 32.8137097,21.357 32.8137097,21.735 L32.8137097,37.395 C32.8137097,46.494 25.4951613,53.919 16.5266129,53.919 Z M2.34193548,23.625 L2.34193548,37.395 C2.34193548,45.306 8.70241935,51.759 16.5,51.759 C24.2975806,51.759 30.6580645,45.306 30.6580645,37.395 L30.6580645,23.625 C26.6927419,25.704 21.6362903,26.892 16.5,26.892 C11.3104839,26.865 6.25403226,25.704 2.34193548,23.625 Z">
        </path>
        <path
            d="M16.5266129,21.951 C11.0975806,21.951 5.90806452,20.709 1.91612903,18.414 C0.798387097,17.793 0.159677419,16.551 0.266129032,15.282 C0.612096774,11.178 2.475,7.371 5.48225806,4.563 C8.51612903,1.728 12.4282258,0.189 16.5266129,0.189 C20.625,0.189 24.5637097,1.755 27.5709677,4.563 C30.5782258,7.371 32.4145161,11.178 32.7870968,15.282 L32.7870968,15.282 C32.8935484,16.551 32.2548387,17.793 31.1370968,18.414 C27.1185484,20.682 21.9290323,21.951 16.5266129,21.951 Z M16.5266129,2.376 C9.26129032,2.376 3.06048387,8.127 2.39516129,15.471 C2.36854839,15.903 2.58145161,16.308 2.95403226,16.524 C6.65322581,18.63 11.4701613,19.764 16.5266129,19.764 C21.5830645,19.764 26.4,18.603 30.0991935,16.524 C30.4717742,16.308 30.6846774,15.903 30.6580645,15.471 L30.6580645,15.471 C29.9927419,8.127 23.7919355,2.376 16.5266129,2.376 Z">
        </path>
        <path
            d="M13.8653226,14.769 C13.8387097,14.769 13.8120968,14.769 13.7854839,14.769 C9.66048387,14.445 5.775,13.392 2.58145161,11.718 C2.04919355,11.448 1.83629032,10.773 2.12903226,10.26 C2.39516129,9.72 3.06048387,9.504 3.56612903,9.801 C6.52016129,11.34 10.1129032,12.312 13.9451613,12.609 C14.5306452,12.663 14.9830645,13.176 14.9298387,13.77 C14.9032258,14.337 14.4241935,14.769 13.8653226,14.769 Z">
        </path>
        <path
            d="M16.5266129,37.935 C10.5387097,37.935 4.79032258,36.396 0.74516129,33.723 C0.239516129,33.399 0.106451613,32.724 0.425806452,32.211 C0.74516129,31.698 1.41048387,31.563 1.91612903,31.887 C5.64193548,34.344 10.9645161,35.748 16.5266129,35.748 C22.0887097,35.748 27.4379032,34.344 31.1370968,31.887 C31.6427419,31.563 32.3080645,31.698 32.6274194,32.211 C32.9467742,32.724 32.8137097,33.399 32.3080645,33.723 C28.2362903,36.396 22.4879032,37.935 16.5266129,37.935 Z">
        </path>
        <path
            d="M16.5266129,42.822 C10.5653226,42.822 4.84354839,41.283 0.771774194,38.637 C0.266129032,38.313 0.133064516,37.638 0.452419355,37.125 C0.771774194,36.612 1.43709677,36.477 1.94274194,36.801 C5.66854839,39.231 10.9645161,40.635 16.5266129,40.635 C22.0887097,40.635 27.3846774,39.231 31.1104839,36.801 C31.616129,36.477 32.2814516,36.612 32.6008065,37.125 C32.9201613,37.638 32.7870968,38.313 32.2814516,38.637 C28.2096774,41.31 22.4612903,42.822 16.5266129,42.822 Z">
        </path>
    </g>
    <g class="text" transform="translate(41.000000, 11.000000)">
        <path
            d="M3.3815534,15.5039063 C4.14174757,15.8867187 5.0592233,16.078125 6.10776699,16.078125 C7.15631068,16.078125 8.07378641,15.8867188 8.7815534,15.5039063 C9.48932039,15.1210938 10.092233,14.65625 10.5378641,14.1367188 C10.9834951,13.6171875 11.2980583,13.0429688 11.507767,12.4960938 C11.7174757,11.9492188 11.7961165,11.4570312 11.7961165,11.1015625 C11.7961165,10.9921875 11.7436893,10.9375 11.638835,10.9375 L9.8038835,10.9375 C9.69902913,10.9375 9.62038835,10.9921875 9.59417476,11.1015625 C9.51553398,11.375 9.41067961,11.703125 9.25339806,12.0585937 C9.1223301,12.4140625 8.91262136,12.7421875 8.65048544,13.0429688 C8.38834951,13.34375 8.04757282,13.5898438 7.65436893,13.8085938 C7.26116505,14.0273438 6.7368932,14.109375 6.13398058,14.109375 C4.90194175,14.109375 3.95825243,13.5898438 3.30291262,12.5234375 C2.64757282,11.4570313 2.30679612,9.98046875 2.30679612,8.12109375 C2.30679612,6.234375 2.64757282,4.7578125 3.30291262,3.71875 C3.95825243,2.6796875 4.90194175,2.1328125 6.13398058,2.1328125 C6.7631068,2.1328125 7.28737864,2.2421875 7.68058252,2.4609375 C8.07378641,2.6796875 8.41456311,2.953125 8.67669903,3.28125 C8.93883495,3.58203125 9.1223301,3.9375 9.25339806,4.265625 C9.38446602,4.62109375 9.48932039,4.89453125 9.56796117,5.140625 C9.59417476,5.25 9.67281553,5.3046875 9.7776699,5.3046875 L11.6126214,5.3046875 C11.7174757,5.3046875 11.7699029,5.25 11.7699029,5.11328125 C11.7699029,4.8125 11.6912621,4.375 11.507767,3.80078125 C11.3242718,3.25390625 11.0097087,2.6796875 10.5902913,2.16015625 C10.1446602,1.61328125 9.56796117,1.1484375 8.83398058,0.73828125 C8.1,0.328125 7.18252427,0.13671875 6.0815534,0.13671875 C5.03300971,0.13671875 4.11553398,0.328125 3.35533981,0.73828125 C2.59514563,1.1484375 1.96601942,1.6953125 1.46796117,2.40625 C0.969902913,3.1171875 0.602912621,3.96484375 0.366990291,4.921875 C0.131067961,5.87890625 0.0262135922,6.97265625 0.0262135922,8.12109375 C0.0262135922,9.296875 0.131067961,10.3632812 0.366990291,11.3476563 C0.602912621,12.3320313 0.969902913,13.1796875 1.46796117,13.8632813 C1.96601942,14.546875 2.62135922,15.1210938 3.3815534,15.5039063 Z">
        </path>
        <path
            d="M15.1776699,15.859375 L25.138835,15.859375 C25.2436893,15.859375 25.3223301,15.8046875 25.3223301,15.6953125 L25.3223301,14.0546875 C25.3223301,13.9453125 25.2699029,13.890625 25.138835,13.890625 L18.061165,13.890625 C18.0087379,13.890625 18.0087379,13.890625 18.0087379,13.890625 C18.0087379,13.8632812 18.0087379,13.8632812 18.0087379,13.8359375 L22.8582524,9.40625 C23.0417476,9.21484375 23.2776699,8.96875 23.5660194,8.6953125 C23.8543689,8.421875 24.1165049,8.06640625 24.3786408,7.68359375 C24.6407767,7.30078125 24.8504854,6.86328125 25.0339806,6.3984375 C25.2174757,5.93359375 25.3223301,5.4140625 25.3223301,4.83984375 C25.3223301,4.2109375 25.2174757,3.609375 24.9815534,3.03515625 C24.7456311,2.4609375 24.4048544,1.96875 23.9854369,1.53125 C23.5660194,1.12109375 23.015534,0.765625 22.3864078,0.51953125 C21.7572816,0.2734375 21.023301,0.13671875 20.2368932,0.13671875 C19.5291262,0.13671875 18.8737864,0.24609375 18.2708738,0.46484375 C17.6679612,0.68359375 17.1436893,0.984375 16.6980583,1.39453125 C16.2524272,1.77734375 15.9116505,2.26953125 15.6495146,2.81640625 C15.4135922,3.36328125 15.2825243,3.9921875 15.2825243,4.6484375 C15.2825243,4.7578125 15.3349515,4.8125 15.4660194,4.8125 L17.3271845,4.8125 C17.4320388,4.8125 17.5106796,4.7578125 17.5106796,4.6484375 C17.5106796,4.3203125 17.5631068,4.01953125 17.6941748,3.71875 C17.8252427,3.41796875 18.0087379,3.14453125 18.2446602,2.92578125 C18.4805825,2.6796875 18.768932,2.515625 19.1097087,2.3515625 C19.4504854,2.21484375 19.8174757,2.1328125 20.2368932,2.1328125 C20.7349515,2.1328125 21.1805825,2.21484375 21.5213592,2.40625 C21.8883495,2.5703125 22.176699,2.81640625 22.4126214,3.08984375 C22.6485437,3.36328125 22.8058252,3.6640625 22.9368932,3.96484375 C23.0417476,4.29296875 23.1203883,4.56640625 23.1203883,4.83984375 C23.1203883,5.16796875 23.0417476,5.49609375 22.9106796,5.796875 C22.7796117,6.125 22.5961165,6.42578125 22.3864078,6.69921875 C22.176699,6.97265625 21.9669903,7.21875 21.7572816,7.41015625 L15.1514563,13.8085937 C15.0990291,13.8359375 15.0728155,13.9179687 15.0728155,13.9726562 C15.0466019,14.0546875 15.0466019,14.0820312 15.0466019,14.1367188 L15.0466019,15.6679688 C14.9941748,15.8046875 15.0728155,15.859375 15.1776699,15.859375 Z">
        </path>
        <path
            d="M10.6951456,20.5898438 C10.3019417,20.1523437 9.83009709,19.8242187 9.30582524,19.578125 C8.7815534,19.3320313 8.23106796,19.2226562 7.65436893,19.2226562 L1.73009709,19.2226562 C1.62524272,19.2226562 1.54660194,19.2773437 1.54660194,19.4140625 L1.54660194,34.5898437 C1.54660194,34.6992187 1.59902913,34.78125 1.73009709,34.78125 L3.51262136,34.78125 C3.61747573,34.78125 3.6961165,34.7265625 3.6961165,34.5898437 L3.6961165,28.6835937 C3.6961165,28.65625 3.6961165,28.6289062 3.7223301,28.6289062 L7.65436893,28.6289062 C8.23106796,28.6289062 8.7815534,28.5195312 9.30582524,28.2734375 C9.83009709,28.0273437 10.3019417,27.6992187 10.6951456,27.2890625 C11.0883495,26.8789062 11.4029126,26.359375 11.638835,25.8125 C11.8747573,25.265625 11.9796117,24.6367187 11.9796117,23.9804687 C11.9796117,23.3242188 11.8485437,22.6953125 11.638835,22.1210937 C11.4029126,21.5195312 11.0883495,21 10.6951456,20.5898438 Z M9.85631068,23.953125 C9.85631068,24.3085938 9.7776699,24.6640625 9.64660194,24.9921875 C9.51553398,25.3203125 9.33203883,25.59375 9.0961165,25.8398438 C8.86019417,26.0859375 8.59805825,26.2773438 8.30970874,26.4140625 C8.02135922,26.5507813 7.70679612,26.6328125 7.39223301,26.6328125 L3.7223301,26.6328125 C3.6961165,26.6328125 3.6961165,26.6328125 3.6961165,26.6054688 L3.6961165,21.2734375 C3.6961165,21.2460938 3.6961165,21.2460938 3.7223301,21.2460938 L7.39223301,21.2460938 C7.70679612,21.2460938 8.02135922,21.328125 8.30970874,21.4648438 C8.59805825,21.6015625 8.86019417,21.8203125 9.0961165,22.0664063 C9.33203883,22.3125 9.51553398,22.6132813 9.64660194,22.9414063 C9.7776699,23.2148437 9.85631068,23.5703125 9.85631068,23.953125 Z">
        </path>
        <path
            d="M26.7902913,34.5078125 L21.9145631,19.3320313 C21.8621359,19.1953125 21.7834951,19.1679688 21.731068,19.1679688 L19.1359223,19.1679688 C19.0834951,19.1679688 19.0048544,19.1953125 18.9524272,19.3320313 L13.9980583,34.4804688 C13.9718447,34.5351562 13.9718447,34.5898437 13.9980583,34.6445313 C14.0242718,34.6992188 14.076699,34.6992188 14.1553398,34.6992188 L16.1213592,34.6992188 C16.2,34.6992188 16.2524272,34.6445313 16.2786408,34.5351562 L17.2747573,31.4179688 C17.3009709,31.3632813 17.3271845,31.3632813 17.3271845,31.3632813 L23.4087379,31.3632813 C23.4873786,31.3632813 23.4873786,31.390625 23.4873786,31.4179688 L24.4572816,34.5625 C24.5097087,34.6992188 24.5621359,34.7265625 24.6145631,34.7265625 L26.5805825,34.7265625 C26.6592233,34.7265625 26.7116505,34.6992188 26.7378641,34.671875 C26.7902913,34.6445313 26.7902913,34.5898438 26.7902913,34.5078125 Z M22.9106796,29.5039063 C22.9106796,29.5039063 22.884466,29.5039063 22.8582524,29.5039063 L17.9300971,29.5039063 C17.9038835,29.5039063 17.8776699,29.5039063 17.8776699,29.5039063 C17.8776699,29.5039063 17.8776699,29.5039063 17.8776699,29.5039063 C17.8776699,29.5039063 17.8776699,29.5039063 17.8776699,29.4765625 L20.3417476,21.4921875 C20.3679612,21.4101562 20.3941748,21.4101562 20.4203883,21.4921875 L22.884466,29.4765625 C22.9106796,29.4765625 22.9106796,29.5039063 22.9106796,29.5039063 Z">
        </path>
    </g>
</svg>