<?xml version="1.0" encoding="UTF-8"?>
<svg width="150px" height="48px" viewBox="0 0 150 48" version="1.1" xmlns="http://www.w3.org/2000/svg"
    xmlns:xlink="http://www.w3.org/1999/xlink">
    <g stroke="none" stroke-width="1" fill="none" fill-rule="evenodd">
        <g transform="translate(-187.000000, -30.000000)" fill="currentColor" fill-rule="nonzero">
            <path
                d="M192.904,42.144 C195.576,42.144 197.08,40.688 197.544,38.688 L195.464,38.688 C195.176,39.472 194.6,40.496 192.984,40.496 C190.712,40.496 189.944,38.416 189.944,36.448 C189.944,34.352 190.792,32.432 192.92,32.432 C194.504,32.432 195.176,33.296 195.464,34.272 L197.544,34.272 C197.24,32.416 195.816,30.768 193,30.768 C189.496,30.768 187.8,33.488 187.8,36.512 C187.8,39.664 189.464,42.144 192.904,42.144 Z M202.776,42.192 C205.352,42.192 206.792,40.32 206.792,37.872 C206.792,35.296 205.256,33.584 202.872,33.584 C200.312,33.584 198.824,35.408 198.824,37.904 C198.824,40.368 200.28,42.192 202.776,42.192 Z M202.824,40.608 C201.592,40.608 200.84,39.552 200.84,37.888 C200.84,36.096 201.576,35.168 202.792,35.168 C204.072,35.168 204.76,36.128 204.76,37.904 C204.76,39.568 204.072,40.608 202.824,40.608 Z M210.744,42.192 C212.248,42.192 212.84,41.6 213.128,41.104 C213.144,41.408 213.192,41.824 213.256,42 L215.16,42 C215.115429,41.8068571 215.057061,40.8963265 215.04895,40.1523324 L215.048,36.368 C215.048,34.448 213.88,33.6 211.736,33.584 C209.288,33.568 208.44,34.8 208.328,36.144 L210.232,36.144 C210.344,35.536 210.568,35.04 211.656,35.04 C212.888,35.04 213.096,35.712 213.096,36.352 L213.096,36.912 L211.848,36.912 C209.432,36.912 207.944,37.776 207.944,39.632 C207.944,40.896 208.776,42.192 210.744,42.192 Z M211.272,40.736 C210.392,40.736 209.944,40.192 209.944,39.52 C209.944,38.592 210.584,38.16 212.04,38.16 L213.112,38.16 L213.112,38.4 C213.112,39.616 212.904,40.736 211.272,40.736 Z M219.224,42 L219.224,30.304 L217.24,30.304 L217.24,42 L219.224,42 Z M223.384,32.24 L223.384,30.304 L221.4,30.304 L221.4,32.24 L223.384,32.24 Z M223.384,42 L223.384,33.776 L221.4,33.776 L221.4,42 L223.384,42 Z M228.024,42.112 C228.472,42.112 229.048,42.096 229.464,41.952 L229.464,40.56 C229.272,40.592 229.032,40.592 228.872,40.592 C228.168,40.592 227.976,40.304 227.976,39.616 L227.976,35.296 L229.656,35.296 L229.656,33.776 L227.976,33.776 L227.976,31.488 L225.992,31.488 L225.992,33.776 L224.68,33.776 L224.68,35.296 L225.992,35.296 L225.992,39.904 C225.992,41.312 226.536,42.112 228.024,42.112 Z M233.112,32.24 L233.112,30.304 L231.128,30.304 L231.128,32.24 L233.112,32.24 Z M233.112,42 L233.112,33.776 L231.128,33.776 L231.128,42 L233.112,42 Z M238.728,42.192 C241.304,42.192 242.744,40.32 242.744,37.872 C242.744,35.296 241.208,33.584 238.824,33.584 C236.264,33.584 234.776,35.408 234.776,37.904 C234.776,40.368 236.232,42.192 238.728,42.192 Z M238.776,40.608 C237.544,40.608 236.792,39.552 236.792,37.888 C236.792,36.096 237.528,35.168 238.744,35.168 C240.024,35.168 240.712,36.128 240.712,37.904 C240.712,39.568 240.024,40.608 238.776,40.608 Z M246.408,42 L246.408,37.488 C246.408,35.968 246.984,35.216 248.152,35.216 C249.24,35.216 249.608,35.952 249.608,36.976 L249.608,42 L251.592,42 L251.592,36.752 C251.592,34.64 250.472,33.584 248.856,33.584 C247.368,33.584 246.696,34.352 246.408,34.928 C246.408,34.672 246.376,34 246.328,33.776 L244.408,33.776 C244.4208,34.2752 244.42336,34.84608 244.423872,35.414912 L244.424,42 L246.408,42 Z M259.96,42 L259.96,35.296 L261.464,35.296 L261.464,33.776 L259.96,33.776 L259.96,33.104 C259.96,32.112 260.232,31.776 260.968,31.776 C261.16,31.776 261.384,31.808 261.528,31.84 L261.528,30.24 C261.32,30.176 260.872,30.144 260.52,30.144 C258.728,30.144 257.976,31.328 257.976,32.96 L257.976,33.776 L256.728,33.776 L256.728,35.296 L257.976,35.296 L257.976,42 L259.96,42 Z M266.136,42.192 C268.712,42.192 270.152,40.32 270.152,37.872 C270.152,35.296 268.616,33.584 266.232,33.584 C263.672,33.584 262.184,35.408 262.184,37.904 C262.184,40.368 263.64,42.192 266.136,42.192 Z M266.184,40.608 C264.952,40.608 264.2,39.552 264.2,37.888 C264.2,36.096 264.936,35.168 266.152,35.168 C267.432,35.168 268.12,36.128 268.12,37.904 C268.12,39.568 267.432,40.608 266.184,40.608 Z M273.8,42 L273.8,38.272 C273.8,36.08 274.824,35.488 276.488,35.504 L276.488,33.584 C275.096,33.6 274.184,34.304 273.8,35.296 C273.8,34.736 273.784,33.968 273.752,33.776 L271.8,33.776 C271.81,34.156 271.81375,34.56725 271.815156,35.0488125 L271.816,42 L273.8,42 Z M192.904,58.144 C195.576,58.144 197.08,56.688 197.544,54.688 L195.464,54.688 C195.176,55.472 194.6,56.496 192.984,56.496 C190.712,56.496 189.944,54.416 189.944,52.448 C189.944,50.352 190.792,48.432 192.92,48.432 C194.504,48.432 195.176,49.296 195.464,50.272 L197.544,50.272 C197.24,48.416 195.816,46.768 193,46.768 C189.496,46.768 187.8,49.488 187.8,52.512 C187.8,55.664 189.464,58.144 192.904,58.144 Z M202.776,58.192 C205.352,58.192 206.792,56.32 206.792,53.872 C206.792,51.296 205.256,49.584 202.872,49.584 C200.312,49.584 198.824,51.408 198.824,53.904 C198.824,56.368 200.28,58.192 202.776,58.192 Z M202.824,56.608 C201.592,56.608 200.84,55.552 200.84,53.888 C200.84,52.096 201.576,51.168 202.792,51.168 C204.072,51.168 204.76,52.128 204.76,53.904 C204.76,55.568 204.072,56.608 202.824,56.608 Z M210.456,58 L210.456,53.488 C210.456,51.968 211.032,51.216 212.2,51.216 C213.288,51.216 213.656,51.952 213.656,52.976 L213.656,58 L215.64,58 L215.64,52.752 C215.64,50.64 214.52,49.584 212.904,49.584 C211.416,49.584 210.744,50.352 210.456,50.928 C210.456,50.672 210.424,50 210.376,49.776 L208.456,49.776 C208.4656,50.1504 208.46944,50.56512 208.470976,50.989056 L208.472,51.84 L208.472,51.84 L208.472,58 L210.456,58 Z M220.264,58.112 C220.712,58.112 221.288,58.096 221.704,57.952 L221.704,56.56 C221.512,56.592 221.272,56.592 221.112,56.592 C220.408,56.592 220.216,56.304 220.216,55.616 L220.216,51.296 L221.896,51.296 L221.896,49.776 L220.216,49.776 L220.216,47.488 L218.232,47.488 L218.232,49.776 L216.92,49.776 L216.92,51.296 L218.232,51.296 L218.232,55.904 C218.232,57.312 218.776,58.112 220.264,58.112 Z M226.648,58.192 C229.128,58.192 230.024,56.624 230.328,55.6 L228.328,55.6 C228.104,56.128 227.768,56.608 226.712,56.608 C225.48,56.608 224.856,55.536 224.856,54.304 L230.408,54.304 C230.44,54.064 230.44,53.872 230.44,53.6 C230.44,51.648 229.512,49.584 226.744,49.584 C224.152,49.584 222.856,51.456 222.856,54 C222.856,56.144 223.992,58.192 226.648,58.192 Z M228.44,53.04 L224.904,53.04 C225.016,51.872 225.512,51.04 226.728,51.04 C227.944,51.04 228.424,51.936 228.44,53.04 Z M234.072,58 L234.072,53.488 C234.072,51.968 234.648,51.216 235.816,51.216 C236.904,51.216 237.272,51.952 237.272,52.976 L237.272,58 L239.256,58 L239.256,52.752 C239.256,50.64 238.136,49.584 236.52,49.584 C235.032,49.584 234.36,50.352 234.072,50.928 C234.072,50.672 234.04,50 233.992,49.776 L232.072,49.776 C232.0816,50.1504 232.08544,50.56512 232.086976,50.989056 L232.088,51.84 L232.088,51.84 L232.088,58 L234.072,58 Z M243.88,58.112 C244.328,58.112 244.904,58.096 245.32,57.952 L245.32,56.56 C245.128,56.592 244.888,56.592 244.728,56.592 C244.024,56.592 243.832,56.304 243.832,55.616 L243.832,51.296 L245.512,51.296 L245.512,49.776 L243.832,49.776 L243.832,47.488 L241.848,47.488 L241.848,49.776 L240.536,49.776 L240.536,51.296 L241.848,51.296 L241.848,55.904 C241.848,57.312 242.392,58.112 243.88,58.112 Z M253.272,58 L253.272,53.728 L255.576,53.728 C257.752,53.728 259.48,52.608 259.48,50.288 C259.48,48.208 257.928,46.928 255.64,46.928 L251.192,46.928 L251.192,58 L253.272,58 Z M255.352,52.048 L253.272,52.048 L253.272,48.608 L255.416,48.608 C256.52,48.608 257.384,49.12 257.384,50.336 C257.384,51.52 256.6,52.048 255.352,52.048 Z M263.224,58 L263.224,54.272 C263.224,52.08 264.248,51.488 265.912,51.504 L265.912,49.584 C264.52,49.6 263.608,50.304 263.224,51.296 C263.224,50.736 263.208,49.968 263.176,49.776 L261.224,49.776 C261.234,50.156 261.23775,50.56725 261.239156,51.0488125 L261.239969,51.6629375 C261.24,51.77175 261.24,51.884 261.24,52 L261.24,58 L263.224,58 Z M270.76,58.192 C273.336,58.192 274.776,56.32 274.776,53.872 C274.776,51.296 273.24,49.584 270.856,49.584 C268.296,49.584 266.808,51.408 266.808,53.904 C266.808,56.368 268.264,58.192 270.76,58.192 Z M270.808,56.608 C269.576,56.608 268.824,55.552 268.824,53.888 C268.824,52.096 269.56,51.168 270.776,51.168 C272.056,51.168 272.744,52.128 272.744,53.904 C272.744,55.568 272.056,56.608 270.808,56.608 Z M280.408,58 L283.352,49.776 L281.368,49.776 C280.472,52.544 279.656,55.008 279.432,56.224 L279.416,56.224 C279.224,55.216 278.52,52.752 277.624,49.776 L275.48,49.776 L278.296,58 L280.408,58 Z M287.864,58.192 C290.344,58.192 291.24,56.624 291.544,55.6 L289.544,55.6 C289.32,56.128 288.984,56.608 287.928,56.608 C286.696,56.608 286.072,55.536 286.072,54.304 L291.624,54.304 C291.656,54.064 291.656,53.872 291.656,53.6 C291.656,51.648 290.728,49.584 287.96,49.584 C285.368,49.584 284.072,51.456 284.072,54 C284.072,56.144 285.208,58.192 287.864,58.192 Z M289.656,53.04 L286.12,53.04 C286.232,51.872 286.728,51.04 287.944,51.04 C289.16,51.04 289.64,51.936 289.656,53.04 Z M295.288,58 L295.288,53.488 C295.288,51.968 295.864,51.216 297.032,51.216 C298.12,51.216 298.488,51.952 298.488,52.976 L298.488,58 L300.472,58 L300.472,52.752 C300.472,50.64 299.352,49.584 297.736,49.584 C296.248,49.584 295.576,50.352 295.288,50.928 C295.288,50.672 295.256,50 295.208,49.776 L293.288,49.776 C293.2976,50.1504 293.30144,50.56512 293.302976,50.989056 L293.304,51.84 L293.304,51.84 L293.304,58 L295.288,58 Z M304.92,58.192 C306.424,58.192 307.016,57.6 307.304,57.104 C307.32,57.408 307.368,57.824 307.432,58 L309.336,58 C309.291429,57.8068571 309.233061,56.8963265 309.22495,56.1523324 L309.224,52.368 C309.224,50.448 308.056,49.6 305.912,49.584 C303.464,49.568 302.616,50.8 302.504,52.144 L304.408,52.144 C304.52,51.536 304.744,51.04 305.832,51.04 C307.064,51.04 307.272,51.712 307.272,52.352 L307.272,52.912 L306.024,52.912 C303.608,52.912 302.12,53.776 302.12,55.632 C302.12,56.896 302.952,58.192 304.92,58.192 Z M305.448,56.736 C304.568,56.736 304.12,56.192 304.12,55.52 C304.12,54.592 304.76,54.16 306.216,54.16 L307.288,54.16 L307.288,54.4 C307.288,55.616 307.08,56.736 305.448,56.736 Z M313.416,58 L313.416,53.488 C313.416,51.968 313.992,51.216 315.16,51.216 C316.248,51.216 316.616,51.952 316.616,52.976 L316.616,58 L318.6,58 L318.6,52.752 C318.6,50.64 317.48,49.584 315.864,49.584 C314.376,49.584 313.704,50.352 313.416,50.928 C313.416,50.672 313.384,50 313.336,49.776 L311.416,49.776 C311.4256,50.1504 311.42944,50.56512 311.430976,50.989056 L311.432,51.84 L311.432,51.84 L311.432,58 L313.416,58 Z M324.072,58.192 C326.408,58.192 327.368,56.768 327.672,55.392 L325.704,55.392 C325.464,56.128 324.984,56.624 324.12,56.624 C322.968,56.624 322.296,55.664 322.296,53.872 C322.296,52.192 322.952,51.168 324.136,51.168 C325.128,51.168 325.56,51.712 325.72,52.448 L327.672,52.448 C327.608,51.472 326.808,49.584 324.184,49.584 C321.688,49.584 320.264,51.552 320.264,53.936 C320.264,56.464 321.608,58.192 324.072,58.192 Z M332.472,58.192 C334.952,58.192 335.848,56.624 336.152,55.6 L334.152,55.6 C333.928,56.128 333.592,56.608 332.536,56.608 C331.304,56.608 330.68,55.536 330.68,54.304 L336.232,54.304 C336.264,54.064 336.264,53.872 336.264,53.6 C336.264,51.648 335.336,49.584 332.568,49.584 C329.976,49.584 328.68,51.456 328.68,54 C328.68,56.144 329.816,58.192 332.472,58.192 Z M334.264,53.04 L330.728,53.04 C330.84,51.872 331.336,51.04 332.552,51.04 C333.768,51.04 334.248,51.936 334.264,53.04 Z M190.376,74.192 C191.88,74.192 192.472,73.6 192.76,73.104 C192.776,73.408 192.824,73.824 192.888,74 L194.792,74 C194.747429,73.8068571 194.689061,72.8963265 194.68095,72.1523324 L194.68,68.368 C194.68,66.448 193.512,65.6 191.368,65.584 C188.92,65.568 188.072,66.8 187.96,68.144 L189.864,68.144 C189.976,67.536 190.2,67.04 191.288,67.04 C192.52,67.04 192.728,67.712 192.728,68.352 L192.728,68.912 L191.48,68.912 C189.064,68.912 187.576,69.776 187.576,71.632 C187.576,72.896 188.408,74.192 190.376,74.192 Z M190.904,72.736 C190.024,72.736 189.576,72.192 189.576,71.52 C189.576,70.592 190.216,70.16 191.672,70.16 L192.744,70.16 L192.744,70.4 C192.744,71.616 192.536,72.736 190.904,72.736 Z M198.872,74 L198.872,69.488 C198.872,67.968 199.448,67.216 200.616,67.216 C201.704,67.216 202.072,67.952 202.072,68.976 L202.072,74 L204.056,74 L204.056,68.752 C204.056,66.64 202.936,65.584 201.32,65.584 C199.832,65.584 199.16,66.352 198.872,66.928 C198.872,66.672 198.84,66 198.792,65.776 L196.872,65.776 C196.8816,66.1504 196.88544,66.56512 196.886976,66.989056 L196.888,67.84 L196.888,67.84 L196.888,74 L198.872,74 Z M209.112,74.192 C210.392,74.192 211.144,73.76 211.544,73.04 C211.544,73.264 211.592,73.76 211.624,74 L213.544,74 C213.533333,73.488 213.529778,72.9831111 213.528593,72.4758519 L213.528,62.304 L211.544,62.304 L211.544,66.464 C211.336,66.064 210.696,65.584 209.432,65.584 C207.112,65.584 205.704,67.424 205.704,69.968 C205.704,72.512 207.032,74.192 209.112,74.192 Z M209.672,72.576 C208.488,72.576 207.752,71.632 207.752,69.904 C207.752,68.208 208.456,67.2 209.736,67.2 C211.352,67.2 211.608,68.288 211.608,69.84 C211.608,71.232 211.352,72.576 209.672,72.576 Z M220.792,74 L221.768,71.184 L225.944,71.184 L226.952,74 L229.144,74 L225.16,62.928 L222.568,62.928 L218.744,74 L220.792,74 Z M225.464,69.456 L222.232,69.456 C222.936,67.296 223.512,65.52 223.784,64.48 L223.8,64.48 C224.072,65.424 224.6,66.928 225.464,69.456 Z M233.16,74.192 C234.28,74.192 235.032,73.808 235.496,72.96 C235.512,73.312 235.528,73.776 235.56,74 L237.496,74 C237.484571,73.5314286 237.481306,72.9159184 237.480373,72.3109038 L237.48,65.776 L235.496,65.776 L235.496,70.128 C235.496,71.888 235.016,72.544 233.816,72.544 C232.696,72.544 232.408,71.712 232.408,70.752 L232.408,65.776 L230.424,65.776 L230.424,71.152 C230.424,73.28 231.576,74.192 233.16,74.192 Z M242.12,74.112 C242.568,74.112 243.144,74.096 243.56,73.952 L243.56,72.56 C243.368,72.592 243.128,72.592 242.968,72.592 C242.264,72.592 242.072,72.304 242.072,71.616 L242.072,67.296 L243.752,67.296 L243.752,65.776 L242.072,65.776 L242.072,63.488 L240.088,63.488 L240.088,65.776 L238.776,65.776 L238.776,67.296 L240.088,67.296 L240.088,71.904 C240.088,73.312 240.632,74.112 242.12,74.112 Z M247.208,74 L247.208,69.584 C247.208,68.176 247.592,67.216 248.936,67.216 C249.976,67.216 250.424,67.856 250.424,69.04 L250.424,74 L252.392,74 L252.392,68.736 C252.392,66.432 251.096,65.584 249.64,65.584 C248.28,65.584 247.592,66.224 247.208,66.832 L247.208,62.304 L245.224,62.304 L245.224,74 L247.208,74 Z M257.848,74.192 C260.328,74.192 261.224,72.624 261.528,71.6 L259.528,71.6 C259.304,72.128 258.968,72.608 257.912,72.608 C256.68,72.608 256.056,71.536 256.056,70.304 L261.608,70.304 C261.64,70.064 261.64,69.872 261.64,69.6 C261.64,67.648 260.712,65.584 257.944,65.584 C255.352,65.584 254.056,67.456 254.056,70 C254.056,72.144 255.192,74.192 257.848,74.192 Z M259.64,69.04 L256.104,69.04 C256.216,67.872 256.712,67.04 257.928,67.04 C259.144,67.04 259.624,67.936 259.64,69.04 Z M265.272,74 L265.272,69.488 C265.272,67.968 265.848,67.216 267.016,67.216 C268.104,67.216 268.472,67.952 268.472,68.976 L268.472,74 L270.456,74 L270.456,68.752 C270.456,66.64 269.336,65.584 267.72,65.584 C266.232,65.584 265.56,66.352 265.272,66.928 C265.272,66.672 265.24,66 265.192,65.776 L263.272,65.776 C263.2816,66.1504 263.28544,66.56512 263.286976,66.989056 L263.288,67.84 L263.288,67.84 L263.288,74 L265.272,74 Z M275.08,74.112 C275.528,74.112 276.104,74.096 276.52,73.952 L276.52,72.56 C276.328,72.592 276.088,72.592 275.928,72.592 C275.224,72.592 275.032,72.304 275.032,71.616 L275.032,67.296 L276.712,67.296 L276.712,65.776 L275.032,65.776 L275.032,63.488 L273.048,63.488 L273.048,65.776 L271.736,65.776 L271.736,67.296 L273.048,67.296 L273.048,71.904 C273.048,73.312 273.592,74.112 275.08,74.112 Z M280.168,64.24 L280.168,62.304 L278.184,62.304 L278.184,64.24 L280.168,64.24 Z M280.168,74 L280.168,65.776 L278.184,65.776 L278.184,74 L280.168,74 Z M285.656,74.192 C287.992,74.192 288.952,72.768 289.256,71.392 L287.288,71.392 C287.048,72.128 286.568,72.624 285.704,72.624 C284.552,72.624 283.88,71.664 283.88,69.872 C283.88,68.192 284.536,67.168 285.72,67.168 C286.712,67.168 287.144,67.712 287.304,68.448 L289.256,68.448 C289.192,67.472 288.392,65.584 285.768,65.584 C283.272,65.584 281.848,67.552 281.848,69.936 C281.848,72.464 283.192,74.192 285.656,74.192 Z M292.76,64.24 L292.76,62.304 L290.776,62.304 L290.776,64.24 L292.76,64.24 Z M292.76,74 L292.76,65.776 L290.776,65.776 L290.776,74 L292.76,74 Z M297.4,74.112 C297.848,74.112 298.424,74.096 298.84,73.952 L298.84,72.56 C298.648,72.592 298.408,72.592 298.248,72.592 C297.544,72.592 297.352,72.304 297.352,71.616 L297.352,67.296 L299.032,67.296 L299.032,65.776 L297.352,65.776 L297.352,63.488 L295.368,63.488 L295.368,65.776 L294.056,65.776 L294.056,67.296 L295.368,67.296 L295.368,71.904 C295.368,73.312 295.912,74.112 297.4,74.112 Z M301.256,77.344 C303.128,77.344 303.768,76.672 304.568,74.288 L307.4,65.776 L305.416,65.776 C304.312,69.472 303.8,71.328 303.592,72.192 L303.576,72.192 C303.416,71.392 302.68,68.992 301.656,65.776 L299.528,65.776 L302.552,74.272 C302.184,75.344 301.768,75.68 300.872,75.68 C300.664,75.68 300.424,75.664 300.248,75.648 L300.248,77.28 C300.616,77.328 301.032,77.344 301.256,77.344 Z">
            </path>
        </g>
    </g>
</svg>