<?xml version="1.0" encoding="utf-8"?>
<!-- Generator: Adobe Illustrator 25.0.1, SVG Export Plug-In . SVG Version: 6.00 Build 0)  -->
<svg version="1.1" id="Calque_1" xmlns="http://www.w3.org/2000/svg" xmlns:xlink="http://www.w3.org/1999/xlink" x="0px" y="0px"
	 viewBox="0 0 1107.68 229.13" style="enable-background:new 0 0 1107.68 229.13;" xml:space="preserve">
<style type="text/css">
	.st0{fill:none;}
	.st1{fill:#FF0000;}
</style>
<rect class="st0" width="1107.68" height="229.13"/>
<g>
	<path class="st1" d="M332.54,138.31c13.41,0,23.91-10.69,23.91-23.74c0-13.06-10.5-23.75-23.91-23.75
		c-13.42,0-23.92,10.69-23.92,23.75C308.62,127.62,319.12,138.31,332.54,138.31"/>
	<path class="st1" d="M305.07,138.31c-13.41,0-23.91-10.69-23.91-23.74c0-13.06,10.5-23.75,23.91-23.75"/>
	<path class="st1" d="M360.48,165.02c0-22.56,0-22.56,0-22.56c22.75,0,22.75,0,22.75,0C383.23,154.93,372.73,165.02,360.48,165.02"
		/>
	<path class="st1" d="M305.07,64.7c0,22.56,0,22.56,0,22.56c-22.75,0-22.75,0-22.75,0C282.32,74.79,292.23,64.7,305.07,64.7"/>
	<path class="st1" d="M360.48,64.7c0,22.56,0,22.56,0,22.56c22.75,0,22.75,0,22.75,0C383.23,74.79,373.32,64.7,360.48,64.7"/>
	<path class="st1" d="M305.07,165.02c0-22.56,0-22.56,0-22.56c-22.75,0-22.75,0-22.75,0C282.32,154.93,292.23,165.02,305.07,165.02"
		/>
	<path class="st1" d="M387.89,135.34c0-41.56,0-41.56,0-41.56c7.01,4.75,11.67,11.87,11.67,20.78
		C399.56,123.47,394.9,131.19,387.89,135.34"/>
	<path class="st1" d="M311.83,59.36c41.41,0,41.41,0,41.41,0c-4.66-7.13-12.25-11.87-20.99-11.87
		C323.5,47.49,315.92,52.23,311.83,59.36"/>
	<path class="st1" d="M353.25,169.77c-41.41,0-41.41,0-41.41,0c4.08,7.13,11.66,11.87,21,11.87
		C341.58,181.64,349.16,176.9,353.25,169.77"/>
	<path class="st1" d="M356.46,142.46c0,13.06-10.5,23.75-23.91,23.75c-13.42,0-23.92-10.69-23.92-23.75"/>
	<path class="st1" d="M360.48,138.31c12.83,0,23.91-10.69,23.91-23.74c0-13.06-11.09-23.75-23.91-23.75"/>
	<path class="st1" d="M356.46,87.26c0-13.65-10.5-24.34-23.91-24.34c-13.42,0-23.92,10.69-23.92,24.34"/>
	<path class="st1" d="M277.65,135.34c0-41.56,0-41.56,0-41.56c-7.59,4.75-12.25,11.87-12.25,20.78
		C265.4,123.47,270.07,131.19,277.65,135.34"/>
	<path d="M460.8,109.32c4.08,0,4.08,0,4.08,0c6.42,0,14.58-0.59,14.58-8.75c0-8.17-7.58-8.75-14.58-8.75c-4.08,0-4.08,0-4.08,0
		 M446.81,81.31c14.58,0,14.58,0,14.58,0c14.58,0,32.08-0.58,32.08,18.09c0,7.58-5.25,14-14,15.17c3.5,0.58,5.84,4.08,7.01,7
		c10.5,25.66,10.5,25.66,10.5,25.66c-14.58,0-14.58,0-14.58,0c-8.17-20.41-8.17-20.41-8.17-20.41c-1.75-5.25-3.49-7-9.33-7
		c-4.08,0-4.08,0-4.08,0c0,27.41,0,27.41,0,27.41c-13.99,0-13.99,0-13.99,0V81.31z"/>
	<path d="M523.21,139.06c3.5,0,7.01-1.75,8.75-4.08c2.34-2.91,2.91-6.42,2.91-10.5c-5.25,0-5.25,0-5.25,0
		c-6.42,0-14.58,1.17-14.58,8.75C515.05,137.32,518.55,139.06,523.21,139.06 M508.05,101.15c5.25-2.33,11.67-3.49,16.92-3.49
		c15.16,0,21.58,5.83,21.58,20.41c0,5.84,0,5.84,0,5.84c0,5.25,0,8.74,0,12.25c0,4.08,0.58,7.59,0.58,11.08
		c-11.08,0-11.08,0-11.08,0c-0.58-2.34-0.58-5.83-0.58-7c-2.92,5.25-9.92,8.16-15.75,8.16c-8.75,0-17.5-5.25-17.5-14.58
		c0-7,4.08-11.67,8.74-13.99c5.25-1.76,11.09-2.34,16.92-2.34c7,0,7,0,7,0c0-8.16-3.49-10.5-11.08-10.5
		c-5.84,0-11.09,1.75-15.17,5.25L508.05,101.15z"/>
	<path d="M580.38,138.48c8.74,0,11.08-8.75,11.08-15.75c0-6.42-2.91-15.17-11.67-15.17c-8.16,0-10.5,8.75-10.5,15.17
		C569.29,129.15,571.63,138.48,580.38,138.48 M592.04,141.98c-4.08,4.67-9.33,6.42-15.16,6.42c-15.17,0-20.42-12.25-20.42-25.66
		c0-13.41,5.25-25.08,20.42-25.08c6.42,0,11.08,2.34,14.58,6.42c0.58,0,0.58,0,0.58,0c0-28,0-28,0-28c12.26,0,12.26,0,12.26,0
		c0,71.15,0,71.15,0,71.15c-12.26,0-12.26,0-12.26,0V141.98z"/>
	<path d="M618.29,77.82h12.84v11.67h-12.84V77.82z M618.29,98.82h12.84v48.41h-12.84V98.82z"/>
	<path d="M667.29,138.48c9.92,0,12.25-8.75,12.25-16.92c0-7-4.08-14-12.25-14c-8.17,0-12.25,7.01-12.25,14
		C655.04,129.73,657.38,138.48,667.29,138.48 M667.29,97.65c14.58,0,26.25,9.91,26.25,25.66c0,14-9.92,25.08-26.25,25.08
		c-16.33,0-25.66-11.08-25.66-25.08C641.63,107.56,652.71,97.65,667.29,97.65z"/>
	<rect x="699.95" y="116.9" width="25.08" height="9.92"/>
	<path d="M785.69,146.06c-5.25,1.17-10.5,2.34-15.75,2.34c-21.58,0-36.74-10.5-36.74-32.67c0-22.75,13.99-35.57,36.74-35.57
		c4.67,0,10.5,0.58,15.17,2.91c-1.17,11.08-1.17,11.08-1.17,11.08c-4.67-2.91-9.33-3.49-14-3.49c-13.99,0-22.75,10.49-22.75,23.91
		c0,13.41,8.16,23.33,22.75,23.33c5.25,0,11.67-1.17,15.17-2.91"/>
	<path d="M811.36,139.06c4.08,0,7-1.75,8.74-4.08c2.34-2.91,2.91-6.42,2.91-10.5c-5.24,0-5.24,0-5.24,0
		c-5.84,0-14.58,1.17-14.58,8.75C803.2,137.32,806.69,139.06,811.36,139.06 M796.19,101.15c5.25-2.33,11.67-3.49,17.51-3.49
		c14.58,0,20.99,5.83,20.99,20.41c0,5.84,0,5.84,0,5.84c0,5.25,0,8.74,0,12.25c0,4.08,0.59,7.59,0.59,11.08
		c-11.09,0-11.09,0-11.09,0c-0.58-2.34-0.58-5.83-0.58-7c-2.91,5.25-9.33,8.16-15.75,8.16c-8.74,0-16.92-5.25-16.92-14.58
		c0-7,3.5-11.67,8.17-13.99c5.24-1.76,11.66-2.34,16.91-2.34c7,0,7,0,7,0c0-8.16-3.49-10.5-11.08-10.5
		c-5.83,0-11.08,1.75-15.16,5.25L796.19,101.15z"/>
	<path d="M847.52,98.82c12.25,0,12.25,0,12.25,0c0,6.42,0,6.42,0,6.42c4.08-5.25,9.33-7.59,16.34-7.59
		c11.66,0,16.91,8.16,16.91,19.24c0,30.33,0,30.33,0,30.33c-12.83,0-12.83,0-12.83,0c0-26.25,0-26.25,0-26.25
		c0-5.25-0.59-13.41-8.75-13.41c-8.75,0-11.08,9.92-11.08,15.75c0,23.91,0,23.91,0,23.91c-12.84,0-12.84,0-12.84,0"/>
	<path d="M923.35,139.06c4.08,0,7.01-1.75,8.75-4.08c2.34-2.91,2.91-6.42,2.91-10.5c-5.25,0-5.25,0-5.25,0
		c-5.83,0-14.58,1.17-14.58,8.75C915.18,137.32,918.69,139.06,923.35,139.06 M908.19,101.15c5.25-2.33,11.67-3.49,17.5-3.49
		c15.16,0,21,5.83,21,20.41c0,5.84,0,5.84,0,5.84c0,5.25,0.58,8.74,0.58,12.25c0,4.08,0,7.59,0.59,11.08c-11.67,0-11.67,0-11.67,0
		c-0.59-2.34-0.59-5.83-0.59-7c-2.91,5.25-9.33,8.16-15.16,8.16c-9.33,0-17.5-5.25-17.5-14.58c0-7,3.49-11.67,8.16-13.99
		c5.25-1.76,11.67-2.34,16.92-2.34c7,0,7,0,7,0c0-8.16-3.5-10.5-11.08-10.5c-5.25,0-10.5,1.75-15.17,5.25L908.19,101.15z"/>
	<path d="M980.51,138.48c8.75,0,11.67-8.75,11.67-15.75c0-6.42-3.49-15.17-11.67-15.17c-8.17,0-10.5,8.75-10.5,15.17
		C970.01,129.15,972.35,138.48,980.51,138.48 M992.77,141.98c-0.59,0-0.59,0-0.59,0c-4.08,4.67-9.33,6.42-15.16,6.42
		c-15.17,0-21-12.25-21-25.66c0-13.41,5.83-25.08,21-25.08c6.42,0,11.08,2.34,15.16,6.42c0-28,0-28,0-28c12.84,0,12.84,0,12.84,0
		c0,71.15,0,71.15,0,71.15c-12.25,0-12.25,0-12.25,0V141.98z"/>
	<path d="M1035.35,139.06c4.08,0,7.58-1.75,9.33-4.08c2.34-2.91,2.91-6.42,2.91-10.5c-5.83,0-5.83,0-5.83,0
		c-5.84,0-14.58,1.17-14.58,8.75C1027.18,137.32,1030.67,139.06,1035.35,139.06 M1020.76,101.15c4.66-2.33,11.08-3.49,16.91-3.49
		c15.17,0,21,5.83,21,20.41c0,5.84,0,5.84,0,5.84c0,5.25,0.59,8.74,0.59,12.25c0,4.08,0,7.59,0.58,11.08c-11.67,0-11.67,0-11.67,0
		c0-2.34,0-5.83,0-7c-0.58,0-0.58,0-0.58,0c-2.91,5.25-9.33,8.16-15.16,8.16c-8.75,0-17.51-5.25-17.51-14.58
		c0-7,3.5-11.67,8.75-13.99c4.66-1.76,11.08-2.34,16.33-2.34c7.59,0,7.59,0,7.59,0c0-8.16-3.5-10.5-11.67-10.5
		c-5.25,0-10.5,1.75-15.16,5.25V101.15z"/>
	<path d="M99.75,146.65c-5.25,1.17-10.5,1.75-15.16,1.75c-22.17,0-36.75-10.5-36.75-32.67c0-22.75,13.41-35.57,36.75-35.57
		c4.08,0,9.91,1.16,15.16,2.91c-1.17,11.08-1.17,11.08-1.17,11.08c-5.25-2.91-9.91-3.49-14.58-3.49
		c-13.41,0-22.75,10.49-22.75,23.91c0,13.41,8.75,23.91,23.34,23.91c5.24,0,11.66-1.17,14.58-2.92"/>
	<path d="M123.09,108.15c5.25,0,5.25,0,5.25,0c5.83,0,12.83-1.17,12.83-8.17c0-7.59-7-8.17-12.83-8.17c-5.25,0-5.25,0-5.25,0
		 M123.09,137.32c6.41,0,6.41,0,6.41,0c5.84,0,13.42-1.76,13.42-9.33c0-8.75-7.01-9.92-13.42-9.92c-6.41,0-6.41,0-6.41,0V137.32z
		 M109.66,81.31c23.34,0,23.34,0,23.34,0c8.75,0,21.58,2.34,21.58,16.92c0,8.16-5.25,13.41-13.41,15.17
		c9.33,1.17,15.75,7,15.75,15.16c0,16.33-15.75,18.66-23.91,18.66c-23.34,0-23.34,0-23.34,0V81.31z"/>
	<path d="M216.99,146.65c-4.66,1.17-9.91,1.75-15.16,1.75c-21.58,0-36.75-10.5-36.75-32.67c0-22.75,14-35.57,36.75-35.57
		c4.66,0,10.5,1.16,15.16,2.91c-1.16,11.08-1.16,11.08-1.16,11.08c-4.67-2.91-9.34-3.49-14-3.49c-14,0-22.75,10.49-22.75,23.91
		c0,13.41,8.16,23.91,22.75,23.91c5.25,0,11.67-1.17,14.58-2.92"/>
</g>
</svg>
