<?xml version="1.0" encoding="utf-8"?>
<svg version="1.1" id="Layer_1" xmlns="http://www.w3.org/2000/svg" xmlns:xlink="http://www.w3.org/1999/xlink" x="0px" y="0px"
	 viewBox="0 0 1550 480" style="enable-background:new 0 0 1550 480;" xml:space="preserve">
<style type="text/css">
	.st0{fill:#EE7700;}
	.st1{fill:#777777;}
</style>
<g>
	<path class="st0" d="M139.5,386.6c-17.3-1.4-34.7-6.3-50.9-14.1c-26.1-12.7-48.9-34.7-62.2-60.4C16.4,292.6,12,274.6,12,251.9
		c0-27.7,7.8-52.2,24.3-76.2c7.4-10.9,24.3-27.3,35.6-34.6c37.7-24.9,83.1-30.7,125.5-16.3c10.6,3.7,18,7.4,20.3,10.2
		c4.8,5.9,4.2,13.2-1.7,18.5c-5.4,4.9-9.1,4.8-21.7-0.2c-21.7-8.8-46.5-10.9-68.9-5.8c-21.3,4.8-44.1,18.3-58.5,34.6
		c-50,56.9-26.9,144,45.3,170.4c13,4.7,24.2,6.6,39.3,6.6c53.9-0.2,99.1-37.3,108.5-89.1c1.2-6.8,1.4-11.8,1-25
		c-0.6-17.7-0.4-19.1,4.2-23.2c6.3-5.7,17.5-3.5,21.6,4.1c3.8,7.3,4.2,36.6,0.5,53.2c-9.5,43.3-40.2,79.7-82.2,97.2
		C185.6,384.4,160.6,388.4,139.5,386.6z"/>
	<path class="st0" d="M330.3,386.5c-11.5-0.9-20.4-2.7-32.5-6.6c-11.9-3.8-20-7.7-22.5-10.9c-7.6-9.4-0.6-22.4,12-22.1
		c1.3,0,6.3,1.7,11.1,3.7c17.1,7,35.8,9.9,53.5,8.2c12.9-1.3,19.5-2.8,31-7.2c34.5-13,59.6-42.1,67.6-78.1c2.6-11.8,2.6-31.1,0-43.1
		c-8.1-36.7-33.9-65.8-69.8-78.9c-13.4-4.8-23.7-6.6-38.9-6.6C287.6,145,242.4,182,233,234c-1.2,6.9-1.4,11.8-0.9,25.2
		c0.6,16.3,0.5,16.8-1.6,19.7c-5.7,8.2-17.9,8.3-23.3,0.1c-4.7-6.9-5.5-35.6-1.4-54.1c10.7-49,48.6-88.8,97.7-102.6
		c12.7-3.5,24.6-5.1,38.9-5.1c15.9,0,27.8,1.8,42.2,6.5c22.1,7.1,38.9,17.1,55.5,33.2c26.9,25.8,41,58.7,40.9,95.1
		c0,28.4-7.5,51.9-24.3,76.3c-7.4,10.9-24.3,27.3-35.6,34.6C394,380.7,362.3,389,330.3,386.5z"/>
</g>
<path id="ink" class="st1" d="M724.2,129.1c-19.7-9.1-41.1-13.8-62.7-13.8c-25.1-0.1-49.7,6.3-71.5,18.6
	c-22.1,12.4-39.1,28.8-51,49.2c-11.9,20.4-17.8,43.7-17.8,70c0,40.6,13,73.8,39.1,99.8c26.1,26,59.6,38.9,100.5,38.9
	c22.2,0,41.9-3.7,59.3-11c17.3-7.3,35.7-20.5,55.1-39.5l-34-35.5c-14.4,14.3-27.7,24.2-39.7,29.7c-12.6,5.5-26.2,8.3-39.9,8.2
	c-16.2,0.2-32.3-3.8-46.5-11.6c-13.6-7.4-24.8-18.5-32.4-32.1c-7.8-14.3-11.8-30.4-11.4-46.8c0-25.2,8.6-46.4,25.8-63.6
	c17.2-17.2,38.4-25.8,63.6-25.8c29.8,0,56.6,12.6,80.5,37.8l35.1-33.4C762,151.6,744.2,138.2,724.2,129.1z M807.6,378.9h172.1v-48
	H857.9V114.5h-50.3V378.9z M1014.5,110.7c-6,5.8-9.3,13.8-9.2,22.2c-0.2,8.6,3.2,16.9,9.2,23c5.8,6.1,13.9,9.6,22.4,9.5
	c8.3,0.1,16.2-3.3,21.9-9.3c6-5.9,9.3-14,9.2-22.4c0.2-8.5-3.2-16.7-9.2-22.7c-12-12.3-31.6-12.5-43.9-0.5
	C1014.8,110.5,1014.6,110.6,1014.5,110.7L1014.5,110.7z M1012,378.2h49.2V182.2H1012V378.2z M1109.6,378.2h49.2v-78.6
	c0-20.4,0.7-33.6,2.2-39.8c2.8-11.8,7.7-21,14.8-27.6c6.9-6.6,16.1-10.1,25.6-10c6.9-0.2,13.7,1.9,19.3,6c5.5,4.5,9.4,10.6,11,17.5
	c2.1,7.7,3.1,23.2,3.1,46.6v85.8h48.6V248.7c0-22.6-5.7-39.6-17.1-51.1c-13-13.3-30.9-20.7-49.5-20.3c-9.5,0-19,1.9-27.8,5.5
	c-9.1,3.7-19.2,10.2-30.3,19.6v-20.1h-49.2L1109.6,378.2L1109.6,378.2z M1334.9,378.2h49.2v-90.3l83.2,90.3h61l-94.5-102l84.4-93.9
	h-61.7l-72.4,80.8V106.6h-49.2V378.2z"/>
</svg>
